<?xml version="1.0" encoding="UTF-8" standalone="no"?>
<!DOCTYPE svg PUBLIC "-//W3C//DTD SVG 1.1//EN"
 "http://www.w3.org/Graphics/SVG/1.1/DTD/svg11.dtd">
<!-- Generated by graphviz version 9.0.0 (20230911.1827)
 -->
<!-- Title: AuthProvider.hpp Pages: 1 -->
<!--zoomable 414 -->

<svg id="main" version="1.1" xmlns="http://www.w3.org/2000/svg" xmlns:xlink="http://www.w3.org/1999/xlink" xml:space="preserve" onload="init(evt)">
<style type="text/css"><![CDATA[
.node, .edge {opacity: 0.7;}
.node.selected, .edge.selected {opacity: 1;}
.edge:hover path { stroke: red; }
.edge:hover polygon { stroke: red; fill: red; }
]]></style>

<defs>
  <circle id="rim" cx="0" cy="0" r="7"/>
  <circle id="rim2" cx="0" cy="0" r="3.5"/>
  <g id="zoomPlus">
    <use xlink:href="#rim" fill="#404040"><set attributeName="fill" to="#808080" begin="zoomplus.mouseover" end="zoomplus.mouseout"/></use>
    <path d="M-4,0h8M0,-4v8" fill="none" stroke="white" stroke-width="1.5" pointer-events="none"/>
  </g>
  <g id="zoomMin">
    <use xlink:href="#rim" fill="#404040"><set attributeName="fill" to="#808080" begin="zoomminus.mouseover" end="zoomminus.mouseout"/></use>
    <path d="M-4,0h8" fill="none" stroke="white" stroke-width="1.5" pointer-events="none"/>
  </g>
  <g id="arrowUp" transform="translate(30 24)">
    <use xlink:href="#rim"/>
    <path pointer-events="none" fill="none" stroke="white" stroke-width="1.5" d="M0,-3.0v7 M-2.5,-0.5L0,-3.0L2.5,-0.5"/>
  </g>
  <g id="arrowRight" transform="rotate(90) translate(36 -43)">
    <use xlink:href="#rim"/>
    <path pointer-events="none" fill="none" stroke="white" stroke-width="1.5" d="M0,-3.0v7 M-2.5,-0.5L0,-3.0L2.5,-0.5"/>
  </g>
  <g id="arrowDown" transform="rotate(180) translate(-30 -48)">
    <use xlink:href="#rim"/>
    <path pointer-events="none" fill="none" stroke="white" stroke-width="1.5" d="M0,-3.0v7 M-2.5,-0.5L0,-3.0L2.5,-0.5"/>
  </g>
  <g id="arrowLeft" transform="rotate(270) translate(-36 17)">
    <use xlink:href="#rim"/>
    <path pointer-events="none" fill="none" stroke="white" stroke-width="1.5" d="M0,-3.0v7 M-2.5,-0.5L0,-3.0L2.5,-0.5"/>
  </g>
  <g id="resetDef">
    <use xlink:href="#rim2" fill="#404040"><set attributeName="fill" to="#808080" begin="reset.mouseover" end="reset.mouseout"/></use>
  </g>
</defs>
<script type="application/ecmascript">
var viewWidth = 1252;
var viewHeight = 414;
var sectionId = 'dynsection-0';
</script>
<script type="application/ecmascript" xlink:href="svg.min.js"/>
<svg id="graph" class="graph">
<g id="viewport">
<title>AuthProvider.hpp</title>
<!-- Node1 -->
<g id="Node000001" class="node">
<title>Node1</title>
<g id="a_Node000001"><a xlink:title=" ">
<polygon fill="#999999" stroke="#666666" points="691.72,-406 601.47,-406 601.47,-386.75 691.72,-386.75 691.72,-406"/>
<text text-anchor="middle" x="646.59" y="-392.5" font-family="Helvetica,sans-Serif" font-size="10.00">AuthProvider.hpp</text>
</a>
</g>
</g>
<!-- Node2 -->
<g id="Node000002" class="node">
<title>Node2</title>
<g id="a_Node000002"><a xlink:title=" ">
<polygon fill="#e0e0e0" stroke="#999999" points="94.99,-350.75 66.19,-350.75 66.19,-331.5 94.99,-331.5 94.99,-350.75"/>
<text text-anchor="middle" x="80.59" y="-337.25" font-family="Helvetica,sans-Serif" font-size="10.00">list</text>
</a>
</g>
</g>
<!-- Node1&#45;&gt;Node2 -->
<g id="edge1_Node000001_Node000002" class="edge">
<title>Node1&#45;&gt;Node2</title>
<g id="a_edge1_Node000001_Node000002"><a xlink:title=" ">
<path fill="none" stroke="#63b8ff" d="M601.15,-394.9C507.94,-393.22 288.73,-385.54 108.59,-350.75 107.77,-350.59 106.93,-350.42 106.09,-350.23"/>
<polygon fill="#63b8ff" stroke="#63b8ff" points="107.29,-346.93 96.72,-347.69 105.46,-353.68 107.29,-346.93"/>
</a>
</g>
</g>
<!-- Node3 -->
<g id="Node000003" class="node">
<title>Node3</title>
<g id="a_Node000003"><a xlink:title=" ">
<polygon fill="#e0e0e0" stroke="#999999" points="411.59,-74.5 371.59,-74.5 371.59,-55.25 411.59,-55.25 411.59,-74.5"/>
<text text-anchor="middle" x="391.59" y="-61" font-family="Helvetica,sans-Serif" font-size="10.00">string</text>
</a>
</g>
</g>
<!-- Node1&#45;&gt;Node3 -->
<g id="edge2_Node000001_Node000003" class="edge">
<title>Node1&#45;&gt;Node3</title>
<g id="a_edge2_Node000001_Node000003"><a xlink:title=" ">
<path fill="none" stroke="#63b8ff" d="M601.01,-395.57C473.52,-394.89 122.59,-384.19 122.59,-286.88 122.59,-286.88 122.59,-286.88 122.59,-174.38 122.59,-144.76 119.5,-130.23 141.59,-110.5 173.43,-82.06 300.16,-71.11 360,-67.47"/>
<polygon fill="#63b8ff" stroke="#63b8ff" points="360.07,-70.97 369.85,-66.9 359.67,-63.98 360.07,-70.97"/>
</a>
</g>
</g>
<!-- Node4 -->
<g id="Node000004" class="node">
<title>Node4</title>
<g id="a_Node000004"><a xlink:title=" ">
<polygon fill="#e0e0e0" stroke="#999999" points="1012.34,-295.5 946.84,-295.5 946.84,-276.25 1012.34,-276.25 1012.34,-295.5"/>
<text text-anchor="middle" x="979.59" y="-282" font-family="Helvetica,sans-Serif" font-size="10.00">string_view</text>
</a>
</g>
</g>
<!-- Node1&#45;&gt;Node4 -->
<g id="edge3_Node000001_Node000004" class="edge">
<title>Node1&#45;&gt;Node4</title>
<g id="a_edge3_Node000001_Node000004"><a xlink:title=" ">
<path fill="none" stroke="#63b8ff" d="M674.41,-386.31C733.79,-366.96 873.04,-321.59 940.96,-299.46"/>
<polygon fill="#63b8ff" stroke="#63b8ff" points="941.76,-302.88 950.18,-296.46 939.59,-296.23 941.76,-302.88"/>
</a>
</g>
</g>
<!-- Node5 -->
<g id="Node000005" class="node">
<title>Node5</title>
<g id="a_Node000005"><a xlink:title=" ">
<polygon fill="#e0e0e0" stroke="#999999" points="1244.09,-295.5 1207.09,-295.5 1207.09,-276.25 1244.09,-276.25 1244.09,-295.5"/>
<text text-anchor="middle" x="1225.59" y="-282" font-family="Helvetica,sans-Serif" font-size="10.00">tuple</text>
</a>
</g>
</g>
<!-- Node1&#45;&gt;Node5 -->
<g id="edge4_Node000001_Node000005" class="edge">
<title>Node1&#45;&gt;Node5</title>
<g id="a_edge4_Node000001_Node000005"><a xlink:title=" ">
<path fill="none" stroke="#63b8ff" d="M691.93,-395.7C772.87,-395.2 946.94,-389.25 1087.59,-350.75 1129.18,-339.37 1173.87,-316.51 1200.78,-301.45"/>
<polygon fill="#63b8ff" stroke="#63b8ff" points="1202.23,-304.65 1209.19,-296.66 1198.77,-298.57 1202.23,-304.65"/>
</a>
</g>
</g>
<!-- Node6 -->
<g id="Node000006" class="node">
<title>Node6</title>
<g id="a_Node000006"><a xlink:href="_fab_user_8hpp.xhtml" target="_top" xlink:title=" ">
<polygon fill="white" stroke="#666666" points="444.34,-240.25 372.84,-240.25 372.84,-221 444.34,-221 444.34,-240.25"/>
<text text-anchor="middle" x="408.59" y="-226.75" font-family="Helvetica,sans-Serif" font-size="10.00">FabUser.hpp</text>
</a>
</g>
</g>
<!-- Node1&#45;&gt;Node6 -->
<g id="edge5_Node000001_Node000006" class="edge">
<title>Node1&#45;&gt;Node6</title>
<g id="a_edge5_Node000001_Node000006"><a xlink:title=" ">
<path fill="none" stroke="#63b8ff" d="M601.11,-393.7C538.15,-388.64 426.46,-369.14 375.59,-295.5 365.23,-280.5 377.43,-261.83 389.82,-248.56"/>
<polygon fill="#63b8ff" stroke="#63b8ff" points="392.03,-251.3 396.68,-241.77 387.1,-246.32 392.03,-251.3"/>
</a>
</g>
</g>
<!-- Node18 -->
<g id="Node000018" class="node">
<title>Node18</title>
<g id="a_Node000018"><a xlink:href="secrets_8hpp.xhtml" target="_top" xlink:title=" ">
<polygon fill="white" stroke="#666666" points="770.72,-350.75 704.47,-350.75 704.47,-331.5 770.72,-331.5 770.72,-350.75"/>
<text text-anchor="middle" x="737.59" y="-337.25" font-family="Helvetica,sans-Serif" font-size="10.00">secrets.hpp</text>
</a>
</g>
</g>
<!-- Node1&#45;&gt;Node18 -->
<g id="edge24_Node000001_Node000018" class="edge">
<title>Node1&#45;&gt;Node18</title>
<g id="a_edge24_Node000001_Node000018"><a xlink:title=" ">
<path fill="none" stroke="#63b8ff" d="M662.03,-386.34C675.76,-378.31 696.09,-366.41 712.21,-356.98"/>
<polygon fill="#63b8ff" stroke="#63b8ff" points="713.91,-360.04 720.77,-351.97 710.37,-354 713.91,-360.04"/>
</a>
</g>
</g>
<!-- Node24 -->
<g id="Node000024" class="node">
<title>Node24</title>
<g id="a_Node000024"><a xlink:href="_white_list_8hpp.xhtml" target="_top" xlink:title=" ">
<polygon fill="white" stroke="#666666" points="1078.22,-350.75 1002.97,-350.75 1002.97,-331.5 1078.22,-331.5 1078.22,-350.75"/>
<text text-anchor="middle" x="1040.59" y="-337.25" font-family="Helvetica,sans-Serif" font-size="10.00">WhiteList.hpp</text>
</a>
</g>
</g>
<!-- Node1&#45;&gt;Node24 -->
<g id="edge48_Node000001_Node000024" class="edge">
<title>Node1&#45;&gt;Node24</title>
<g id="a_edge48_Node000001_Node000024"><a xlink:title=" ">
<path fill="none" stroke="#63b8ff" d="M692.17,-389.21C766.83,-379.12 914.56,-359.16 991.47,-348.76"/>
<polygon fill="#63b8ff" stroke="#63b8ff" points="991.79,-352.25 1001.23,-347.44 990.85,-345.32 991.79,-352.25"/>
</a>
</g>
</g>
<!-- Node26 -->
<g id="Node000026" class="node">
<title>Node26</title>
<g id="a_Node000026"><a xlink:href="_cached_cards_8hpp.xhtml" target="_top" xlink:title=" ">
<polygon fill="white" stroke="#666666" points="476.84,-295.5 384.34,-295.5 384.34,-276.25 476.84,-276.25 476.84,-295.5"/>
<text text-anchor="middle" x="430.59" y="-282" font-family="Helvetica,sans-Serif" font-size="10.00">CachedCards.hpp</text>
</a>
</g>
</g>
<!-- Node1&#45;&gt;Node26 -->
<g id="edge55_Node000001_Node000026" class="edge">
<title>Node1&#45;&gt;Node26</title>
<g id="a_edge55_Node000001_Node000026"><a xlink:title=" ">
<path fill="none" stroke="#63b8ff" d="M628.55,-386.31C590.99,-367.44 504.15,-323.82 459,-301.15"/>
<polygon fill="#63b8ff" stroke="#63b8ff" points="460.6,-298.03 450.09,-296.67 457.45,-304.29 460.6,-298.03"/>
</a>
</g>
</g>
<!-- Node6&#45;&gt;Node3 -->
<g id="edge23_Node000006_Node000003" class="edge">
<title>Node6&#45;&gt;Node3</title>
<g id="a_edge23_Node000006_Node000003"><a xlink:title=" ">
<path fill="none" stroke="#63b8ff" d="M405.51,-220.52C402.64,-211.59 398.52,-197.53 396.59,-185 391.32,-150.65 390.81,-110.11 391.09,-86.28"/>
<polygon fill="#63b8ff" stroke="#63b8ff" points="394.58,-86.48 391.27,-76.42 387.59,-86.35 394.58,-86.48"/>
</a>
</g>
</g>
<!-- Node7 -->
<g id="Node000007" class="node">
<title>Node7</title>
<g id="a_Node000007"><a xlink:title=" ">
<polygon fill="#e0e0e0" stroke="#999999" points="344.84,-129.75 288.34,-129.75 288.34,-110.5 344.84,-110.5 344.84,-129.75"/>
<text text-anchor="middle" x="316.59" y="-116.25" font-family="Helvetica,sans-Serif" font-size="10.00">Arduino.h</text>
</a>
</g>
</g>
<!-- Node6&#45;&gt;Node7 -->
<g id="edge6_Node000006_Node000007" class="edge">
<title>Node6&#45;&gt;Node7</title>
<g id="a_edge6_Node000006_Node000007"><a xlink:title=" ">
<path fill="none" stroke="#63b8ff" d="M397.09,-220.81C386.42,-212.31 370.45,-198.74 358.59,-185 346.4,-170.87 334.93,-152.99 327.07,-139.74"/>
<polygon fill="#63b8ff" stroke="#63b8ff" points="330.16,-138.11 322.13,-131.2 324.1,-141.61 330.16,-138.11"/>
</a>
</g>
</g>
<!-- Node8 -->
<g id="Node000008" class="node">
<title>Node8</title>
<g id="a_Node000008"><a xlink:href="card_8hpp.xhtml" target="_top" xlink:title=" ">
<polygon fill="white" stroke="#666666" points="268.97,-185 216.22,-185 216.22,-165.75 268.97,-165.75 268.97,-185"/>
<text text-anchor="middle" x="242.59" y="-171.5" font-family="Helvetica,sans-Serif" font-size="10.00">card.hpp</text>
</a>
</g>
</g>
<!-- Node6&#45;&gt;Node8 -->
<g id="edge7_Node000006_Node000008" class="edge">
<title>Node6&#45;&gt;Node8</title>
<g id="a_edge7_Node000006_Node000008"><a xlink:title=" ">
<path fill="none" stroke="#63b8ff" d="M380.43,-220.59C352.75,-211.71 310.34,-198.11 279.87,-188.33"/>
<polygon fill="#63b8ff" stroke="#63b8ff" points="281.27,-185.11 270.68,-185.39 279.13,-191.77 281.27,-185.11"/>
</a>
</g>
</g>
<!-- Node9 -->
<g id="Node000009" class="node">
<title>Node9</title>
<g id="a_Node000009"><a xlink:title=" ">
<polygon fill="#e0e0e0" stroke="#999999" points="270.22,-129.75 218.97,-129.75 218.97,-110.5 270.22,-110.5 270.22,-129.75"/>
<text text-anchor="middle" x="244.59" y="-116.25" font-family="Helvetica,sans-Serif" font-size="10.00">sstream</text>
</a>
</g>
</g>
<!-- Node6&#45;&gt;Node9 -->
<g id="edge22_Node000006_Node000009" class="edge">
<title>Node6&#45;&gt;Node9</title>
<g id="a_edge22_Node000006_Node000009"><a xlink:title=" ">
<path fill="none" stroke="#63b8ff" d="M394.77,-220.59C381.02,-211.59 359.32,-197.38 340.59,-185 315.67,-168.53 287.2,-149.57 267.77,-136.61"/>
<polygon fill="#63b8ff" stroke="#63b8ff" points="269.76,-133.73 259.5,-131.09 265.88,-139.55 269.76,-133.73"/>
</a>
</g>
</g>
<!-- Node11 -->
<g id="Node000011" class="node">
<title>Node11</title>
<g id="a_Node000011"><a xlink:href="conf_8hpp.xhtml" target="_top" xlink:title=" ">
<polygon fill="white" stroke="#666666" points="490.97,-129.75 438.22,-129.75 438.22,-110.5 490.97,-110.5 490.97,-129.75"/>
<text text-anchor="middle" x="464.59" y="-116.25" font-family="Helvetica,sans-Serif" font-size="10.00">conf.hpp</text>
</a>
</g>
</g>
<!-- Node6&#45;&gt;Node11 -->
<g id="edge19_Node000006_Node000011" class="edge">
<title>Node6&#45;&gt;Node11</title>
<g id="a_edge19_Node000006_Node000011"><a xlink:title=" ">
<path fill="none" stroke="#63b8ff" d="M413.17,-220.75C422.2,-203.26 442.45,-164.02 454.68,-140.34"/>
<polygon fill="#63b8ff" stroke="#63b8ff" points="457.78,-141.96 459.25,-131.47 451.55,-138.75 457.78,-141.96"/>
</a>
</g>
</g>
<!-- Node12 -->
<g id="Node000012" class="node">
<title>Node12</title>
<g id="a_Node000012"><a xlink:title=" ">
<polygon fill="#e0e0e0" stroke="#999999" points="689.22,-19.25 643.97,-19.25 643.97,0 689.22,0 689.22,-19.25"/>
<text text-anchor="middle" x="666.59" y="-5.75" font-family="Helvetica,sans-Serif" font-size="10.00">cstdint</text>
</a>
</g>
</g>
<!-- Node6&#45;&gt;Node12 -->
<g id="edge21_Node000006_Node000012" class="edge">
<title>Node6&#45;&gt;Node12</title>
<g id="a_edge21_Node000006_Node000012"><a xlink:title=" ">
<path fill="none" stroke="#63b8ff" d="M372.56,-226.06C257.05,-213.45 -90.11,-165.6 22.59,-55.25 66.37,-12.38 505.34,-10.19 632.34,-10.46"/>
<polygon fill="#63b8ff" stroke="#63b8ff" points="632.11,-13.96 642.12,-10.49 632.13,-6.96 632.11,-13.96"/>
</a>
</g>
</g>
<!-- Node17 -->
<g id="Node000017" class="node">
<title>Node17</title>
<g id="a_Node000017"><a xlink:title=" ">
<polygon fill="#e0e0e0" stroke="#999999" points="1002.09,-74.5 965.09,-74.5 965.09,-55.25 1002.09,-55.25 1002.09,-74.5"/>
<text text-anchor="middle" x="983.59" y="-61" font-family="Helvetica,sans-Serif" font-size="10.00">array</text>
</a>
</g>
</g>
<!-- Node6&#45;&gt;Node17 -->
<g id="edge20_Node000006_Node000017" class="edge">
<title>Node6&#45;&gt;Node17</title>
<g id="a_edge20_Node000006_Node000017"><a xlink:title=" ">
<path fill="none" stroke="#63b8ff" d="M444.53,-227.72C528.99,-222.9 737.92,-208.87 803.59,-185 869.34,-161.11 934.92,-108.71 965.61,-82.09"/>
<polygon fill="#63b8ff" stroke="#63b8ff" points="967.65,-84.95 972.84,-75.72 963.03,-79.7 967.65,-84.95"/>
</a>
</g>
</g>
<!-- Node8&#45;&gt;Node7 -->
<g id="edge10_Node000008_Node000007" class="edge">
<title>Node8&#45;&gt;Node7</title>
<g id="a_edge10_Node000008_Node000007"><a xlink:title=" ">
<path fill="none" stroke="#63b8ff" d="M255.14,-165.34C266.05,-157.49 282.1,-145.95 295.05,-136.62"/>
<polygon fill="#63b8ff" stroke="#63b8ff" points="296.92,-139.59 303,-130.91 292.83,-133.91 296.92,-139.59"/>
</a>
</g>
</g>
<!-- Node8&#45;&gt;Node9 -->
<g id="edge8_Node000008_Node000009" class="edge">
<title>Node8&#45;&gt;Node9</title>
<g id="a_edge8_Node000008_Node000009"><a xlink:title=" ">
<path fill="none" stroke="#63b8ff" d="M242.92,-165.58C243.17,-158.99 243.52,-149.71 243.83,-141.32"/>
<polygon fill="#63b8ff" stroke="#63b8ff" points="247.32,-141.75 244.2,-131.62 240.32,-141.48 247.32,-141.75"/>
</a>
</g>
</g>
<!-- Node10 -->
<g id="Node000010" class="node">
<title>Node10</title>
<g id="a_Node000010"><a xlink:title=" ">
<polygon fill="#e0e0e0" stroke="#999999" points="200.47,-129.75 150.72,-129.75 150.72,-110.5 200.47,-110.5 200.47,-129.75"/>
<text text-anchor="middle" x="175.59" y="-116.25" font-family="Helvetica,sans-Serif" font-size="10.00">iomanip</text>
</a>
</g>
</g>
<!-- Node8&#45;&gt;Node10 -->
<g id="edge9_Node000008_Node000010" class="edge">
<title>Node8&#45;&gt;Node10</title>
<g id="a_edge9_Node000008_Node000010"><a xlink:title=" ">
<path fill="none" stroke="#63b8ff" d="M231.23,-165.34C221.54,-157.65 207.39,-146.4 195.79,-137.18"/>
<polygon fill="#63b8ff" stroke="#63b8ff" points="197.98,-134.45 187.97,-130.97 193.63,-139.93 197.98,-134.45"/>
</a>
</g>
</g>
<!-- Node8&#45;&gt;Node11 -->
<g id="edge11_Node000008_Node000011" class="edge">
<title>Node8&#45;&gt;Node11</title>
<g id="a_edge11_Node000008_Node000011"><a xlink:title=" ">
<path fill="none" stroke="#63b8ff" d="M269.37,-167.95C308.62,-158.54 381.96,-140.94 426.72,-130.21"/>
<polygon fill="#63b8ff" stroke="#63b8ff" points="427.34,-133.66 436.25,-127.92 425.71,-126.85 427.34,-133.66"/>
</a>
</g>
</g>
<!-- Node15 -->
<g id="Node000015" class="node">
<title>Node15</title>
<g id="a_Node000015"><a xlink:href="_logging_8hpp.xhtml" target="_top" xlink:title=" ">
<polygon fill="white" stroke="#666666" points="94.84,-129.75 26.34,-129.75 26.34,-110.5 94.84,-110.5 94.84,-129.75"/>
<text text-anchor="middle" x="60.59" y="-116.25" font-family="Helvetica,sans-Serif" font-size="10.00">Logging.hpp</text>
</a>
</g>
</g>
<!-- Node8&#45;&gt;Node15 -->
<g id="edge17_Node000008_Node000015" class="edge">
<title>Node8&#45;&gt;Node15</title>
<g id="a_edge17_Node000008_Node000015"><a xlink:title=" ">
<path fill="none" stroke="#63b8ff" d="M215.74,-166.52C185.85,-157.77 137.17,-143.53 102.31,-133.33"/>
<polygon fill="#63b8ff" stroke="#63b8ff" points="103.55,-130.05 92.97,-130.6 101.59,-136.77 103.55,-130.05"/>
</a>
</g>
</g>
<!-- Node11&#45;&gt;Node3 -->
<g id="edge13_Node000011_Node000003" class="edge">
<title>Node11&#45;&gt;Node3</title>
<g id="a_edge13_Node000011_Node000003"><a xlink:title=" ">
<path fill="none" stroke="#63b8ff" d="M452.21,-110.09C441.45,-102.24 425.62,-90.7 412.84,-81.37"/>
<polygon fill="#63b8ff" stroke="#63b8ff" points="415.16,-78.73 405.02,-75.67 411.03,-84.39 415.16,-78.73"/>
</a>
</g>
</g>
<!-- Node11&#45;&gt;Node12 -->
<g id="edge12_Node000011_Node000012" class="edge">
<title>Node11&#45;&gt;Node12</title>
<g id="a_edge12_Node000011_Node000012"><a xlink:title=" ">
<path fill="none" stroke="#63b8ff" d="M467.72,-110.22C473.07,-96.34 485.28,-69.63 504.59,-55.25 542.54,-27 597.42,-16.63 632.55,-12.83"/>
<polygon fill="#63b8ff" stroke="#63b8ff" points="632.52,-16.35 642.14,-11.92 631.86,-9.38 632.52,-16.35"/>
</a>
</g>
</g>
<!-- Node13 -->
<g id="Node000013" class="node">
<title>Node13</title>
<g id="a_Node000013"><a xlink:title=" ">
<polygon fill="#e0e0e0" stroke="#999999" points="592.22,-74.5 546.97,-74.5 546.97,-55.25 592.22,-55.25 592.22,-74.5"/>
<text text-anchor="middle" x="569.59" y="-61" font-family="Helvetica,sans-Serif" font-size="10.00">chrono</text>
</a>
</g>
</g>
<!-- Node11&#45;&gt;Node13 -->
<g id="edge14_Node000011_Node000013" class="edge">
<title>Node11&#45;&gt;Node13</title>
<g id="a_edge14_Node000011_Node000013"><a xlink:title=" ">
<path fill="none" stroke="#63b8ff" d="M482.4,-110.09C498.62,-101.87 522.83,-89.59 541.62,-80.06"/>
<polygon fill="#63b8ff" stroke="#63b8ff" points="543.01,-83.28 550.34,-75.64 539.84,-77.04 543.01,-83.28"/>
</a>
</g>
</g>
<!-- Node14 -->
<g id="Node000014" class="node">
<title>Node14</title>
<g id="a_Node000014"><a xlink:href="_machine_i_d_8hpp.xhtml" target="_top" xlink:title=" ">
<polygon fill="white" stroke="#666666" points="740.84,-74.5 660.34,-74.5 660.34,-55.25 740.84,-55.25 740.84,-74.5"/>
<text text-anchor="middle" x="700.59" y="-61" font-family="Helvetica,sans-Serif" font-size="10.00">MachineID.hpp</text>
</a>
</g>
</g>
<!-- Node11&#45;&gt;Node14 -->
<g id="edge15_Node000011_Node000014" class="edge">
<title>Node11&#45;&gt;Node14</title>
<g id="a_edge15_Node000011_Node000014"><a xlink:title=" ">
<path fill="none" stroke="#63b8ff" d="M491.21,-113.12C529.45,-104.49 600.71,-88.41 649.37,-77.43"/>
<polygon fill="#63b8ff" stroke="#63b8ff" points="649.84,-80.91 658.83,-75.3 648.3,-74.09 649.84,-80.91"/>
</a>
</g>
</g>
<!-- Node14&#45;&gt;Node12 -->
<g id="edge16_Node000014_Node000012" class="edge">
<title>Node14&#45;&gt;Node12</title>
<g id="a_edge16_Node000014_Node000012"><a xlink:title=" ">
<path fill="none" stroke="#63b8ff" d="M694.98,-55.08C690.48,-48.03 684.01,-37.9 678.38,-29.08"/>
<polygon fill="#63b8ff" stroke="#63b8ff" points="681.47,-27.43 673.14,-20.88 675.57,-31.2 681.47,-27.43"/>
</a>
</g>
</g>
<!-- Node16 -->
<g id="Node000016" class="node">
<title>Node16</title>
<g id="a_Node000016"><a xlink:title=" ">
<polygon fill="#e0e0e0" stroke="#999999" points="89.22,-74.5 31.97,-74.5 31.97,-55.25 89.22,-55.25 89.22,-74.5"/>
<text text-anchor="middle" x="60.59" y="-61" font-family="Helvetica,sans-Serif" font-size="10.00">esp_log.h</text>
</a>
</g>
</g>
<!-- Node15&#45;&gt;Node16 -->
<g id="edge18_Node000015_Node000016" class="edge">
<title>Node15&#45;&gt;Node16</title>
<g id="a_edge18_Node000015_Node000016"><a xlink:title=" ">
<path fill="none" stroke="#63b8ff" d="M60.59,-110.33C60.59,-103.82 60.59,-94.67 60.59,-86.37"/>
<polygon fill="#63b8ff" stroke="#63b8ff" points="64.09,-86.37 60.59,-76.37 57.09,-86.37 64.09,-86.37"/>
</a>
</g>
</g>
<!-- Node18&#45;&gt;Node4 -->
<g id="edge27_Node000018_Node000004" class="edge">
<title>Node18&#45;&gt;Node4</title>
<g id="a_edge27_Node000018_Node000004"><a xlink:title=" ">
<path fill="none" stroke="#63b8ff" d="M770.99,-332.78C813.75,-323.37 887.98,-307.03 935.39,-296.6"/>
<polygon fill="#63b8ff" stroke="#63b8ff" points="936.05,-300.04 945.06,-294.47 934.54,-293.2 936.05,-300.04"/>
</a>
</g>
</g>
<!-- Node18&#45;&gt;Node6 -->
<g id="edge47_Node000018_Node000006" class="edge">
<title>Node18&#45;&gt;Node6</title>
<g id="a_edge47_Node000018_Node000006"><a xlink:title=" ">
<path fill="none" stroke="#63b8ff" d="M704.22,-335.93C662.28,-330 588.54,-317.37 528.59,-295.5 509.83,-288.66 463.44,-262.95 434.14,-246.31"/>
<polygon fill="#63b8ff" stroke="#63b8ff" points="435.94,-243.31 425.52,-241.39 432.47,-249.39 435.94,-243.31"/>
</a>
</g>
</g>
<!-- Node18&#45;&gt;Node11 -->
<g id="edge46_Node000018_Node000011" class="edge">
<title>Node18&#45;&gt;Node11</title>
<g id="a_edge46_Node000018_Node000011"><a xlink:title=" ">
<path fill="none" stroke="#63b8ff" d="M726.21,-331.05C704.22,-313.52 654.42,-273.79 612.59,-240.25 566.79,-203.52 513.12,-160.27 484.68,-137.33"/>
<polygon fill="#63b8ff" stroke="#63b8ff" points="486.88,-134.61 476.9,-131.06 482.48,-140.06 486.88,-134.61"/>
</a>
</g>
</g>
<!-- Node18&#45;&gt;Node12 -->
<g id="edge25_Node000018_Node000012" class="edge">
<title>Node18&#45;&gt;Node12</title>
<g id="a_edge25_Node000018_Node000012"><a xlink:title=" ">
<path fill="none" stroke="#63b8ff" d="M771.13,-332.93C856.05,-312.64 1071.32,-247.33 1049.59,-110.5 1045.54,-84.99 1051.53,-71.66 1031.59,-55.25 981.66,-14.15 782.16,-10.15 701.09,-10.27"/>
<polygon fill="#63b8ff" stroke="#63b8ff" points="701.08,-6.77 691.1,-10.32 701.11,-13.77 701.08,-6.77"/>
</a>
</g>
</g>
<!-- Node18&#45;&gt;Node17 -->
<g id="edge26_Node000018_Node000017" class="edge">
<title>Node18&#45;&gt;Node17</title>
<g id="a_edge26_Node000018_Node000017"><a xlink:title=" ">
<path fill="none" stroke="#63b8ff" d="M767.08,-331.03C809.95,-316.78 890.48,-285.98 946.59,-240.25 972.04,-219.52 981.25,-214.52 995.59,-185 1006.5,-162.55 1003.36,-154.6 1005.59,-129.75 1006.36,-121.23 1007.53,-118.83 1005.59,-110.5 1003.51,-101.58 999.38,-92.39 995.26,-84.69"/>
<polygon fill="#63b8ff" stroke="#63b8ff" points="998.43,-83.19 990.4,-76.29 992.37,-86.7 998.43,-83.19"/>
</a>
</g>
</g>
<!-- Node19 -->
<g id="Node000019" class="node">
<title>Node19</title>
<g id="a_Node000019"><a xlink:href="_machine_config_8hpp.xhtml" target="_top" xlink:title=" ">
<polygon fill="white" stroke="#666666" points="719.47,-240.25 621.72,-240.25 621.72,-221 719.47,-221 719.47,-240.25"/>
<text text-anchor="middle" x="670.59" y="-226.75" font-family="Helvetica,sans-Serif" font-size="10.00">MachineConfig.hpp</text>
</a>
</g>
</g>
<!-- Node18&#45;&gt;Node19 -->
<g id="edge28_Node000018_Node000019" class="edge">
<title>Node18&#45;&gt;Node19</title>
<g id="a_edge28_Node000018_Node000019"><a xlink:title=" ">
<path fill="none" stroke="#63b8ff" d="M732.11,-331.25C721.21,-313.6 696.64,-273.8 682.06,-250.2"/>
<polygon fill="#63b8ff" stroke="#63b8ff" points="685.18,-248.58 676.95,-241.91 679.22,-252.26 685.18,-248.58"/>
</a>
</g>
</g>
<!-- Node23 -->
<g id="Node000023" class="node">
<title>Node23</title>
<g id="a_Node000023"><a xlink:href="_machine_8hpp.xhtml" target="_top" xlink:title=" ">
<polygon fill="white" stroke="#666666" points="841.97,-295.5 771.22,-295.5 771.22,-276.25 841.97,-276.25 841.97,-295.5"/>
<text text-anchor="middle" x="806.59" y="-282" font-family="Helvetica,sans-Serif" font-size="10.00">Machine.hpp</text>
</a>
</g>
</g>
<!-- Node18&#45;&gt;Node23 -->
<g id="edge40_Node000018_Node000023" class="edge">
<title>Node18&#45;&gt;Node23</title>
<g id="a_edge40_Node000018_Node000023"><a xlink:title=" ">
<path fill="none" stroke="#63b8ff" d="M749.3,-331.09C759.37,-323.32 774.13,-311.92 786.15,-302.65"/>
<polygon fill="#63b8ff" stroke="#63b8ff" points="788.08,-305.58 793.86,-296.7 783.81,-300.04 788.08,-305.58"/>
</a>
</g>
</g>
<!-- Node19&#45;&gt;Node3 -->
<g id="edge31_Node000019_Node000003" class="edge">
<title>Node19&#45;&gt;Node3</title>
<g id="a_edge31_Node000019_Node000003"><a xlink:title=" ">
<path fill="none" stroke="#63b8ff" d="M625.75,-220.57C573.35,-208.02 486.57,-180.86 429.59,-129.75 415.94,-117.5 405.73,-99.15 399.35,-85.26"/>
<polygon fill="#63b8ff" stroke="#63b8ff" points="402.65,-84.08 395.5,-76.26 396.21,-86.83 402.65,-84.08"/>
</a>
</g>
</g>
<!-- Node19&#45;&gt;Node11 -->
<g id="edge39_Node000019_Node000011" class="edge">
<title>Node19&#45;&gt;Node11</title>
<g id="a_edge39_Node000019_Node000011"><a xlink:title=" ">
<path fill="none" stroke="#63b8ff" d="M653.38,-220.56C617.64,-201.73 535.09,-158.26 491.96,-135.54"/>
<polygon fill="#63b8ff" stroke="#63b8ff" points="493.71,-132.51 483.24,-130.94 490.45,-138.7 493.71,-132.51"/>
</a>
</g>
</g>
<!-- Node19&#45;&gt;Node12 -->
<g id="edge30_Node000019_Node000012" class="edge">
<title>Node19&#45;&gt;Node12</title>
<g id="a_edge30_Node000019_Node000012"><a xlink:title=" ">
<path fill="none" stroke="#63b8ff" d="M659.29,-220.65C639.08,-204.2 596.2,-167.45 567.59,-129.75 546.01,-101.31 516.88,-84.32 537.59,-55.25 558.89,-25.34 601.66,-15.29 632.11,-12.02"/>
<polygon fill="#63b8ff" stroke="#63b8ff" points="632.33,-15.51 642,-11.17 631.73,-8.53 632.33,-15.51"/>
</a>
</g>
</g>
<!-- Node19&#45;&gt;Node13 -->
<g id="edge29_Node000019_Node000013" class="edge">
<title>Node19&#45;&gt;Node13</title>
<g id="a_edge29_Node000019_Node000013"><a xlink:title=" ">
<path fill="none" stroke="#63b8ff" d="M670.3,-220.75C669.41,-207.38 665.95,-181.91 652.59,-165.75 629.79,-138.18 601.92,-158.47 580.59,-129.75 571.34,-117.29 568.86,-99.72 568.55,-86.15"/>
<polygon fill="#63b8ff" stroke="#63b8ff" points="572.05,-86.26 568.73,-76.19 565.05,-86.13 572.05,-86.26"/>
</a>
</g>
</g>
<!-- Node19&#45;&gt;Node14 -->
<g id="edge38_Node000019_Node000014" class="edge">
<title>Node19&#45;&gt;Node14</title>
<g id="a_edge38_Node000019_Node000014"><a xlink:title=" ">
<path fill="none" stroke="#63b8ff" d="M719.74,-222.26C769.54,-211.72 842.93,-186.84 869.59,-129.75 892.18,-81.39 810.08,-69.1 752.47,-66.29"/>
<polygon fill="#63b8ff" stroke="#63b8ff" points="752.96,-62.81 742.83,-65.91 752.69,-69.8 752.96,-62.81"/>
</a>
</g>
</g>
<!-- Node20 -->
<g id="Node000020" class="node">
<title>Node20</title>
<g id="a_Node000020"><a xlink:href="pins_8hpp.xhtml" target="_top" xlink:title=" ">
<polygon fill="white" stroke="#666666" points="794.59,-185 742.59,-185 742.59,-165.75 794.59,-165.75 794.59,-185"/>
<text text-anchor="middle" x="768.59" y="-171.5" font-family="Helvetica,sans-Serif" font-size="10.00">pins.hpp</text>
</a>
</g>
</g>
<!-- Node19&#45;&gt;Node20 -->
<g id="edge32_Node000019_Node000020" class="edge">
<title>Node19&#45;&gt;Node20</title>
<g id="a_edge32_Node000019_Node000020"><a xlink:title=" ">
<path fill="none" stroke="#63b8ff" d="M687.22,-220.59C702.28,-212.41 724.73,-200.21 742.24,-190.69"/>
<polygon fill="#63b8ff" stroke="#63b8ff" points="743.44,-194.02 750.56,-186.18 740.1,-187.87 743.44,-194.02"/>
</a>
</g>
</g>
<!-- Node20&#45;&gt;Node12 -->
<g id="edge33_Node000020_Node000012" class="edge">
<title>Node20&#45;&gt;Node12</title>
<g id="a_edge33_Node000020_Node000012"><a xlink:title=" ">
<path fill="none" stroke="#63b8ff" d="M742.22,-168.02C711.08,-159.91 662.17,-145.1 651.59,-129.75 630.88,-99.68 645.53,-54.99 656.86,-29.76"/>
<polygon fill="#63b8ff" stroke="#63b8ff" points="659.87,-31.56 661.03,-21.03 653.56,-28.54 659.87,-31.56"/>
</a>
</g>
</g>
<!-- Node21 -->
<g id="Node000021" class="node">
<title>Node21</title>
<g id="a_Node000021"><a xlink:title=" ">
<polygon fill="#e0e0e0" stroke="#999999" points="860.34,-129.75 758.84,-129.75 758.84,-110.5 860.34,-110.5 860.34,-129.75"/>
<text text-anchor="middle" x="809.59" y="-116.25" font-family="Helvetica,sans-Serif" font-size="10.00">Adafruit_NeoPixel.h</text>
</a>
</g>
</g>
<!-- Node20&#45;&gt;Node21 -->
<g id="edge34_Node000020_Node000021" class="edge">
<title>Node20&#45;&gt;Node21</title>
<g id="a_edge34_Node000020_Node000021"><a xlink:title=" ">
<path fill="none" stroke="#63b8ff" d="M775.36,-165.58C780.91,-158.38 788.93,-147.96 795.82,-139.01"/>
<polygon fill="#63b8ff" stroke="#63b8ff" points="798.42,-141.37 801.75,-131.31 792.88,-137.1 798.42,-141.37"/>
</a>
</g>
</g>
<!-- Node22 -->
<g id="Node000022" class="node">
<title>Node22</title>
<g id="a_Node000022"><a xlink:href="_pins_config_8hpp.xhtml" target="_top" xlink:title=" ">
<polygon fill="white" stroke="#666666" points="740.84,-129.75 660.34,-129.75 660.34,-110.5 740.84,-110.5 740.84,-129.75"/>
<text text-anchor="middle" x="700.59" y="-116.25" font-family="Helvetica,sans-Serif" font-size="10.00">PinsConfig.hpp</text>
</a>
</g>
</g>
<!-- Node20&#45;&gt;Node22 -->
<g id="edge35_Node000020_Node000022" class="edge">
<title>Node20&#45;&gt;Node22</title>
<g id="a_edge35_Node000020_Node000022"><a xlink:title=" ">
<path fill="none" stroke="#63b8ff" d="M757.06,-165.34C747.13,-157.57 732.58,-146.17 720.74,-136.9"/>
<polygon fill="#63b8ff" stroke="#63b8ff" points="723.18,-134.37 713.15,-130.96 718.86,-139.88 723.18,-134.37"/>
</a>
</g>
</g>
<!-- Node22&#45;&gt;Node12 -->
<g id="edge36_Node000022_Node000012" class="edge">
<title>Node22&#45;&gt;Node12</title>
<g id="a_edge36_Node000022_Node000012"><a xlink:title=" ">
<path fill="none" stroke="#63b8ff" d="M716.29,-110.09C734.95,-98.13 762.07,-76.12 749.59,-55.25 738.89,-37.34 718.25,-26.2 700.23,-19.53"/>
<polygon fill="#63b8ff" stroke="#63b8ff" points="701.49,-16.26 690.9,-16.41 699.28,-22.9 701.49,-16.26"/>
</a>
</g>
</g>
<!-- Node22&#45;&gt;Node17 -->
<g id="edge37_Node000022_Node000017" class="edge">
<title>Node22&#45;&gt;Node17</title>
<g id="a_edge37_Node000022_Node000017"><a xlink:title=" ">
<path fill="none" stroke="#63b8ff" d="M741.14,-111.5C798.58,-100.69 902.35,-81.16 953.47,-71.54"/>
<polygon fill="#63b8ff" stroke="#63b8ff" points="954.03,-75 963.21,-69.71 952.74,-68.12 954.03,-75"/>
</a>
</g>
</g>
<!-- Node23&#45;&gt;Node6 -->
<g id="edge41_Node000023_Node000006" class="edge">
<title>Node23&#45;&gt;Node6</title>
<g id="a_edge41_Node000023_Node000006"><a xlink:title=" ">
<path fill="none" stroke="#63b8ff" d="M770.92,-280.1C699,-270.48 536.57,-248.75 455.9,-237.95"/>
<polygon fill="#63b8ff" stroke="#63b8ff" points="456.49,-234.5 446.11,-236.64 455.56,-241.44 456.49,-234.5"/>
</a>
</g>
</g>
<!-- Node23&#45;&gt;Node12 -->
<g id="edge45_Node000023_Node000012" class="edge">
<title>Node23&#45;&gt;Node12</title>
<g id="a_edge45_Node000023_Node000012"><a xlink:title=" ">
<path fill="none" stroke="#63b8ff" d="M842.23,-278.99C871.97,-272.86 914.52,-261.12 946.59,-240.25 1019.64,-192.71 1069.13,-120.71 1011.59,-55.25 991.26,-32.12 784.32,-17.52 701.03,-12.54"/>
<polygon fill="#63b8ff" stroke="#63b8ff" points="701.38,-9.05 691.19,-11.96 700.97,-16.04 701.38,-9.05"/>
</a>
</g>
</g>
<!-- Node23&#45;&gt;Node13 -->
<g id="edge44_Node000023_Node000013" class="edge">
<title>Node23&#45;&gt;Node13</title>
<g id="a_edge44_Node000023_Node000013"><a xlink:title=" ">
<path fill="none" stroke="#63b8ff" d="M796.74,-275.79C770.83,-251.88 698.64,-185.27 638.59,-129.75 621.29,-113.75 601.55,-95.48 587.64,-82.59"/>
<polygon fill="#63b8ff" stroke="#63b8ff" points="590.24,-80.23 580.53,-76 585.48,-85.37 590.24,-80.23"/>
</a>
</g>
</g>
<!-- Node23&#45;&gt;Node17 -->
<g id="edge43_Node000023_Node000017" class="edge">
<title>Node23&#45;&gt;Node17</title>
<g id="a_edge43_Node000023_Node000017"><a xlink:title=" ">
<path fill="none" stroke="#63b8ff" d="M841.15,-275.76C881.97,-262.97 948.15,-235.4 978.59,-185 997.08,-154.38 992.89,-110.82 988.21,-85.74"/>
<polygon fill="#63b8ff" stroke="#63b8ff" points="991.7,-85.31 986.21,-76.24 984.85,-86.75 991.7,-85.31"/>
</a>
</g>
</g>
<!-- Node23&#45;&gt;Node19 -->
<g id="edge42_Node000023_Node000019" class="edge">
<title>Node23&#45;&gt;Node19</title>
<g id="a_edge42_Node000023_Node000019"><a xlink:title=" ">
<path fill="none" stroke="#63b8ff" d="M783.52,-275.84C761.83,-267.35 729.11,-254.54 704.46,-244.89"/>
<polygon fill="#63b8ff" stroke="#63b8ff" points="705.77,-241.64 695.18,-241.25 703.22,-248.16 705.77,-241.64"/>
</a>
</g>
</g>
<!-- Node24&#45;&gt;Node4 -->
<g id="edge50_Node000024_Node000004" class="edge">
<title>Node24&#45;&gt;Node4</title>
<g id="a_edge50_Node000024_Node000004"><a xlink:title=" ">
<path fill="none" stroke="#63b8ff" d="M1030.24,-331.09C1021.52,-323.47 1008.8,-312.37 998.3,-303.2"/>
<polygon fill="#63b8ff" stroke="#63b8ff" points="1000.76,-300.71 990.93,-296.77 996.16,-305.98 1000.76,-300.71"/>
</a>
</g>
</g>
<!-- Node24&#45;&gt;Node5 -->
<g id="edge51_Node000024_Node000005" class="edge">
<title>Node24&#45;&gt;Node5</title>
<g id="a_edge51_Node000024_Node000005"><a xlink:title=" ">
<path fill="none" stroke="#63b8ff" d="M1073.43,-331.02C1103,-322.77 1147.92,-310.11 1195.74,-296"/>
<polygon fill="#63b8ff" stroke="#63b8ff" points="1196.58,-299.4 1205.18,-293.21 1194.6,-292.69 1196.58,-299.4"/>
</a>
</g>
</g>
<!-- Node24&#45;&gt;Node6 -->
<g id="edge53_Node000024_Node000006" class="edge">
<title>Node24&#45;&gt;Node6</title>
<g id="a_edge53_Node000024_Node000006"><a xlink:title=" ">
<path fill="none" stroke="#63b8ff" d="M1002.78,-334.29C949.26,-325.98 848.36,-310.12 762.59,-295.5 652.6,-276.75 523.71,-253.06 455.88,-240.46"/>
<polygon fill="#63b8ff" stroke="#63b8ff" points="456.69,-237.05 446.22,-238.66 455.41,-243.93 456.69,-237.05"/>
</a>
</g>
</g>
<!-- Node24&#45;&gt;Node11 -->
<g id="edge54_Node000024_Node000011" class="edge">
<title>Node24&#45;&gt;Node11</title>
<g id="a_edge54_Node000024_Node000011"><a xlink:title=" ">
<path fill="none" stroke="#63b8ff" d="M1040.53,-331.35C1039.95,-317.64 1036.78,-291.17 1021.59,-276.25 1002.39,-257.38 624.04,-161.16 502.11,-130.51"/>
<polygon fill="#63b8ff" stroke="#63b8ff" points="503.15,-127.17 492.6,-128.12 501.45,-133.95 503.15,-127.17"/>
</a>
</g>
</g>
<!-- Node24&#45;&gt;Node17 -->
<g id="edge49_Node000024_Node000017" class="edge">
<title>Node24&#45;&gt;Node17</title>
<g id="a_edge49_Node000024_Node000017"><a xlink:title=" ">
<path fill="none" stroke="#63b8ff" d="M1046.04,-331.21C1056.54,-313.13 1078.59,-270.54 1078.59,-231.62 1078.59,-231.62 1078.59,-231.62 1078.59,-174.38 1078.59,-144.05 1073.77,-133.99 1054.59,-110.5 1043.33,-96.7 1026.62,-85.9 1012.24,-78.39"/>
<polygon fill="#63b8ff" stroke="#63b8ff" points="1014.17,-75.44 1003.65,-74.17 1011.09,-81.72 1014.17,-75.44"/>
</a>
</g>
</g>
<!-- Node25 -->
<g id="Node000025" class="node">
<title>Node25</title>
<g id="a_Node000025"><a xlink:title=" ">
<polygon fill="#e0e0e0" stroke="#999999" points="1188.97,-295.5 1106.22,-295.5 1106.22,-276.25 1188.97,-276.25 1188.97,-295.5"/>
<text text-anchor="middle" x="1147.59" y="-282" font-family="Helvetica,sans-Serif" font-size="10.00">unordered_map</text>
</a>
</g>
</g>
<!-- Node24&#45;&gt;Node25 -->
<g id="edge52_Node000024_Node000025" class="edge">
<title>Node24&#45;&gt;Node25</title>
<g id="a_edge52_Node000024_Node000025"><a xlink:title=" ">
<path fill="none" stroke="#63b8ff" d="M1058.74,-331.09C1075.27,-322.87 1099.94,-310.59 1119.09,-301.06"/>
<polygon fill="#63b8ff" stroke="#63b8ff" points="1120.6,-304.22 1128,-296.63 1117.48,-297.95 1120.6,-304.22"/>
</a>
</g>
</g>
<!-- Node26&#45;&gt;Node6 -->
<g id="edge57_Node000026_Node000006" class="edge">
<title>Node26&#45;&gt;Node6</title>
<g id="a_edge57_Node000026_Node000006"><a xlink:title=" ">
<path fill="none" stroke="#63b8ff" d="M426.96,-276.08C424.17,-269.34 420.22,-259.77 416.7,-251.24"/>
<polygon fill="#63b8ff" stroke="#63b8ff" points="419.93,-249.91 412.88,-242.01 413.47,-252.59 419.93,-249.91"/>
</a>
</g>
</g>
<!-- Node26&#45;&gt;Node8 -->
<g id="edge59_Node000026_Node000008" class="edge">
<title>Node26&#45;&gt;Node8</title>
<g id="a_edge59_Node000026_Node000008"><a xlink:title=" ">
<path fill="none" stroke="#63b8ff" d="M414.89,-275.81C382.47,-257.1 307.89,-214.06 268.32,-191.23"/>
<polygon fill="#63b8ff" stroke="#63b8ff" points="270.11,-188.21 259.7,-186.25 266.61,-194.28 270.11,-188.21"/>
</a>
</g>
</g>
<!-- Node26&#45;&gt;Node11 -->
<g id="edge58_Node000026_Node000011" class="edge">
<title>Node26&#45;&gt;Node11</title>
<g id="a_edge58_Node000026_Node000011"><a xlink:title=" ">
<path fill="none" stroke="#63b8ff" d="M436.43,-276.07C441.88,-267.37 449.73,-253.47 453.59,-240.25 463.41,-206.61 465.07,-165.55 465.05,-141.48"/>
<polygon fill="#63b8ff" stroke="#63b8ff" points="468.55,-141.48 464.93,-131.52 461.55,-141.56 468.55,-141.48"/>
</a>
</g>
</g>
<!-- Node26&#45;&gt;Node17 -->
<g id="edge56_Node000026_Node000017" class="edge">
<title>Node26&#45;&gt;Node17</title>
<g id="a_edge56_Node000026_Node000017"><a xlink:title=" ">
<path fill="none" stroke="#63b8ff" d="M477.31,-282.45C536.87,-278.34 642.45,-267.56 728.59,-240.25 780.74,-223.71 790.6,-211.27 838.59,-185 880.77,-161.92 895.19,-161.15 931.59,-129.75 947.12,-116.35 961.57,-97.92 971.28,-84.29"/>
<polygon fill="#63b8ff" stroke="#63b8ff" points="974.05,-86.44 976.86,-76.22 968.29,-82.46 974.05,-86.44"/>
</a>
</g>
</g>
</g>
</svg>

<g id="navigator" transform="translate(0 0)" fill="#404254">
  <rect fill="#f2f5e9" fill-opacity="0.5" stroke="#606060" stroke-width=".5" x="0" y="0" width="60" height="60"/>
  <use id="zoomplus" xlink:href="#zoomPlus" x="17" y="9" onmousedown="handleZoom(evt,'in')"/>
  <use id="zoomminus" xlink:href="#zoomMin" x="42" y="9" onmousedown="handleZoom(evt,'out')"/>
  <use id="reset" xlink:href="#resetDef" x="30" y="36" onmousedown="handleReset()"/>
   <use id="arrowup" xlink:href="#arrowUp" x="0" y="0" onmousedown="handlePan(0,-1)"/>
  <use id="arrowright" xlink:href="#arrowRight" x="0" y="0" onmousedown="handlePan(1,0)"/>
  <use id="arrowdown" xlink:href="#arrowDown" x="0" y="0" onmousedown="handlePan(0,1)"/>
  <use id="arrowleft" xlink:href="#arrowLeft" x="0" y="0" onmousedown="handlePan(-1,0)"/>
</g>
<svg viewBox="0 0 15 15" width="100%" height="30px" preserveAspectRatio="xMaxYMin meet">
 <g id="arrow_out" transform="scale(0.3 0.3)">
  <a xlink:href="_auth_provider_8hpp__incl_org.svg" target="_base">
   <rect id="button" ry="5" rx="5" y="6" x="6" height="38" width="38"
        fill="#f2f5e9" fill-opacity="0.5" stroke="#606060" stroke-width="1.0"/>
   <path id="arrow"
     d="M 11.500037,31.436501 C 11.940474,20.09759 22.043105,11.32322 32.158766,21.979434 L 37.068811,17.246167 C 37.068811,17.246167 37.088388,32 37.088388,32 L 22.160133,31.978069 C 22.160133,31.978069 26.997745,27.140456 26.997745,27.140456 C 18.528582,18.264221 13.291696,25.230495 11.500037,31.436501 z"
     style="fill:#404040;"/>
  </a>
 </g>
</svg>

<style type='text/css'>
<![CDATA[
[data-mouse-over-selected='false'] { opacity: 0.7; }
[data-mouse-over-selected='true']  { opacity: 1.0; }
]]>
</style>
<script type="application/ecmascript"><![CDATA[
document.addEventListener('DOMContentLoaded', (event) => {
  highlightEdges();
  highlightAdjacentNodes();
});
]]></script>
</svg>
