<?xml version="1.0" encoding="UTF-8" standalone="no"?>
<!DOCTYPE svg PUBLIC "-//W3C//DTD SVG 1.1//EN"
 "http://www.w3.org/Graphics/SVG/1.1/DTD/svg11.dtd">
<!-- Generated by graphviz version 9.0.0 (20230911.1827)
 -->
<!-- Title: AuthProvider.hpp Pages: 1 -->
<!--zoomable 359 -->

<svg id="main" version="1.1" xmlns="http://www.w3.org/2000/svg" xmlns:xlink="http://www.w3.org/1999/xlink" xml:space="preserve" onload="init(evt)">
<style type="text/css"><![CDATA[
.node, .edge {opacity: 0.7;}
.node.selected, .edge.selected {opacity: 1;}
.edge:hover path { stroke: red; }
.edge:hover polygon { stroke: red; fill: red; }
]]></style>

<defs>
  <circle id="rim" cx="0" cy="0" r="7"/>
  <circle id="rim2" cx="0" cy="0" r="3.5"/>
  <g id="zoomPlus">
    <use xlink:href="#rim" fill="#404040"><set attributeName="fill" to="#808080" begin="zoomplus.mouseover" end="zoomplus.mouseout"/></use>
    <path d="M-4,0h8M0,-4v8" fill="none" stroke="white" stroke-width="1.5" pointer-events="none"/>
  </g>
  <g id="zoomMin">
    <use xlink:href="#rim" fill="#404040"><set attributeName="fill" to="#808080" begin="zoomminus.mouseover" end="zoomminus.mouseout"/></use>
    <path d="M-4,0h8" fill="none" stroke="white" stroke-width="1.5" pointer-events="none"/>
  </g>
  <g id="arrowUp" transform="translate(30 24)">
    <use xlink:href="#rim"/>
    <path pointer-events="none" fill="none" stroke="white" stroke-width="1.5" d="M0,-3.0v7 M-2.5,-0.5L0,-3.0L2.5,-0.5"/>
  </g>
  <g id="arrowRight" transform="rotate(90) translate(36 -43)">
    <use xlink:href="#rim"/>
    <path pointer-events="none" fill="none" stroke="white" stroke-width="1.5" d="M0,-3.0v7 M-2.5,-0.5L0,-3.0L2.5,-0.5"/>
  </g>
  <g id="arrowDown" transform="rotate(180) translate(-30 -48)">
    <use xlink:href="#rim"/>
    <path pointer-events="none" fill="none" stroke="white" stroke-width="1.5" d="M0,-3.0v7 M-2.5,-0.5L0,-3.0L2.5,-0.5"/>
  </g>
  <g id="arrowLeft" transform="rotate(270) translate(-36 17)">
    <use xlink:href="#rim"/>
    <path pointer-events="none" fill="none" stroke="white" stroke-width="1.5" d="M0,-3.0v7 M-2.5,-0.5L0,-3.0L2.5,-0.5"/>
  </g>
  <g id="resetDef">
    <use xlink:href="#rim2" fill="#404040"><set attributeName="fill" to="#808080" begin="reset.mouseover" end="reset.mouseout"/></use>
  </g>
</defs>
<script type="application/ecmascript">
var viewWidth = 849;
var viewHeight = 359;
var sectionId = 'dynsection-0';
</script>
<script type="application/ecmascript" xlink:href="svg.min.js"/>
<svg id="graph" class="graph">
<g id="viewport">
<title>AuthProvider.hpp</title>
<!-- Node1 -->
<g id="Node000001" class="node">
<title>Node1</title>
<g id="a_Node000001"><a xlink:title=" ">
<polygon fill="#999999" stroke="#666666" points="268.52,-350.75 178.27,-350.75 178.27,-331.5 268.52,-331.5 268.52,-350.75"/>
<text text-anchor="middle" x="223.4" y="-337.25" font-family="Helvetica,sans-Serif" font-size="10.00">AuthProvider.hpp</text>
</a>
</g>
</g>
<!-- Node2 -->
<g id="Node000002" class="node">
<title>Node2</title>
<g id="a_Node000002"><a xlink:title=" ">
<polygon fill="#e0e0e0" stroke="#999999" points="28.8,-295.5 0,-295.5 0,-276.25 28.8,-276.25 28.8,-295.5"/>
<text text-anchor="middle" x="14.4" y="-282" font-family="Helvetica,sans-Serif" font-size="10.00">list</text>
</a>
</g>
</g>
<!-- Node1&#45;&gt;Node2 -->
<g id="edge1_Node000001_Node000002" class="edge">
<title>Node1&#45;&gt;Node2</title>
<g id="a_edge1_Node000001_Node000002"><a xlink:title=" ">
<path fill="none" stroke="#63b8ff" d="M183.69,-331.02C146.9,-322.43 90.74,-308.89 42.4,-295.5 41.59,-295.28 40.77,-295.04 39.94,-294.81"/>
<polygon fill="#63b8ff" stroke="#63b8ff" points="41.21,-291.53 30.63,-292.03 39.21,-298.24 41.21,-291.53"/>
</a>
</g>
</g>
<!-- Node3 -->
<g id="Node000003" class="node">
<title>Node3</title>
<g id="a_Node000003"><a xlink:title=" ">
<polygon fill="#e0e0e0" stroke="#999999" points="304.4,-74.5 264.4,-74.5 264.4,-55.25 304.4,-55.25 304.4,-74.5"/>
<text text-anchor="middle" x="284.4" y="-61" font-family="Helvetica,sans-Serif" font-size="10.00">string</text>
</a>
</g>
</g>
<!-- Node1&#45;&gt;Node3 -->
<g id="edge2_Node000001_Node000003" class="edge">
<title>Node1&#45;&gt;Node3</title>
<g id="a_edge2_Node000001_Node000003"><a xlink:title=" ">
<path fill="none" stroke="#63b8ff" d="M178.21,-331.18C128.75,-318.46 56.4,-289.88 56.4,-231.62 56.4,-231.62 56.4,-231.62 56.4,-174.38 56.4,-88.3 190.52,-70.44 253.03,-66.78"/>
<polygon fill="#63b8ff" stroke="#63b8ff" points="252.84,-70.3 262.65,-66.31 252.5,-63.3 252.84,-70.3"/>
</a>
</g>
</g>
<!-- Node4 -->
<g id="Node000004" class="node">
<title>Node4</title>
<g id="a_Node000004"><a xlink:title=" ">
<polygon fill="#e0e0e0" stroke="#999999" points="150.15,-240.25 84.65,-240.25 84.65,-221 150.15,-221 150.15,-240.25"/>
<text text-anchor="middle" x="117.4" y="-226.75" font-family="Helvetica,sans-Serif" font-size="10.00">string_view</text>
</a>
</g>
</g>
<!-- Node1&#45;&gt;Node4 -->
<g id="edge3_Node000001_Node000004" class="edge">
<title>Node1&#45;&gt;Node4</title>
<g id="a_edge3_Node000001_Node000004"><a xlink:title=" ">
<path fill="none" stroke="#63b8ff" d="M214.73,-331.25C197.1,-313.21 156.84,-272 134.01,-248.63"/>
<polygon fill="#63b8ff" stroke="#63b8ff" points="136.74,-246.42 127.25,-241.71 131.74,-251.31 136.74,-246.42"/>
</a>
</g>
</g>
<!-- Node5 -->
<g id="Node000005" class="node">
<title>Node5</title>
<g id="a_Node000005"><a xlink:title=" ">
<polygon fill="#e0e0e0" stroke="#999999" points="204.9,-240.25 167.9,-240.25 167.9,-221 204.9,-221 204.9,-240.25"/>
<text text-anchor="middle" x="186.4" y="-226.75" font-family="Helvetica,sans-Serif" font-size="10.00">tuple</text>
</a>
</g>
</g>
<!-- Node1&#45;&gt;Node5 -->
<g id="edge4_Node000001_Node000005" class="edge">
<title>Node1&#45;&gt;Node5</title>
<g id="a_edge4_Node000001_Node000005"><a xlink:title=" ">
<path fill="none" stroke="#63b8ff" d="M220.37,-331.25C214.46,-313.92 201.27,-275.23 193.17,-251.49"/>
<polygon fill="#63b8ff" stroke="#63b8ff" points="196.5,-250.39 189.96,-242.06 189.87,-252.65 196.5,-250.39"/>
</a>
</g>
</g>
<!-- Node6 -->
<g id="Node000006" class="node">
<title>Node6</title>
<g id="a_Node000006"><a xlink:href="_fab_user_8hpp.xhtml" target="_top" xlink:title=" ">
<polygon fill="white" stroke="#666666" points="556.15,-240.25 484.65,-240.25 484.65,-221 556.15,-221 556.15,-240.25"/>
<text text-anchor="middle" x="520.4" y="-226.75" font-family="Helvetica,sans-Serif" font-size="10.00">FabUser.hpp</text>
</a>
</g>
</g>
<!-- Node1&#45;&gt;Node6 -->
<g id="edge5_Node000001_Node000006" class="edge">
<title>Node1&#45;&gt;Node6</title>
<g id="a_edge5_Node000001_Node000006"><a xlink:title=" ">
<path fill="none" stroke="#63b8ff" d="M268.98,-338.56C338.77,-335.24 467.6,-325.17 501.4,-295.5 513.77,-284.64 518.26,-266.11 519.81,-251.8"/>
<polygon fill="#63b8ff" stroke="#63b8ff" points="523.28,-252.32 520.44,-242.12 516.3,-251.87 523.28,-252.32"/>
</a>
</g>
</g>
<!-- Node18 -->
<g id="Node000018" class="node">
<title>Node18</title>
<g id="a_Node000018"><a xlink:title=" ">
<polygon fill="#e0e0e0" stroke="#999999" points="378.52,-295.5 312.27,-295.5 312.27,-276.25 378.52,-276.25 378.52,-295.5"/>
<text text-anchor="middle" x="345.4" y="-282" font-family="Helvetica,sans-Serif" font-size="10.00">secrets.hpp</text>
</a>
</g>
</g>
<!-- Node1&#45;&gt;Node18 -->
<g id="edge24_Node000001_Node000018" class="edge">
<title>Node1&#45;&gt;Node18</title>
<g id="a_edge24_Node000001_Node000018"><a xlink:title=" ">
<path fill="none" stroke="#63b8ff" d="M244.1,-331.09C263.29,-322.72 292.11,-310.13 314.12,-300.53"/>
<polygon fill="#63b8ff" stroke="#63b8ff" points="315.45,-303.77 323.22,-296.56 312.65,-297.35 315.45,-303.77"/>
</a>
</g>
</g>
<!-- Node19 -->
<g id="Node000019" class="node">
<title>Node19</title>
<g id="a_Node000019"><a xlink:href="_white_list_8hpp.xhtml" target="_top" xlink:title=" ">
<polygon fill="white" stroke="#666666" points="294.02,-295.5 218.77,-295.5 218.77,-276.25 294.02,-276.25 294.02,-295.5"/>
<text text-anchor="middle" x="256.4" y="-282" font-family="Helvetica,sans-Serif" font-size="10.00">WhiteList.hpp</text>
</a>
</g>
</g>
<!-- Node1&#45;&gt;Node19 -->
<g id="edge25_Node000001_Node000019" class="edge">
<title>Node1&#45;&gt;Node19</title>
<g id="a_edge25_Node000001_Node000019"><a xlink:title=" ">
<path fill="none" stroke="#63b8ff" d="M228.85,-331.33C233.17,-324.36 239.36,-314.37 244.78,-305.62"/>
<polygon fill="#63b8ff" stroke="#63b8ff" points="247.74,-307.49 250.04,-297.15 241.79,-303.8 247.74,-307.49"/>
</a>
</g>
</g>
<!-- Node21 -->
<g id="Node000021" class="node">
<title>Node21</title>
<g id="a_Node000021"><a xlink:href="_cached_cards_8hpp.xhtml" target="_top" xlink:title=" ">
<polygon fill="white" stroke="#666666" points="492.65,-295.5 400.15,-295.5 400.15,-276.25 492.65,-276.25 492.65,-295.5"/>
<text text-anchor="middle" x="446.4" y="-282" font-family="Helvetica,sans-Serif" font-size="10.00">CachedCards.hpp</text>
</a>
</g>
</g>
<!-- Node1&#45;&gt;Node21 -->
<g id="edge32_Node000001_Node000021" class="edge">
<title>Node1&#45;&gt;Node21</title>
<g id="a_edge32_Node000001_Node000021"><a xlink:title=" ">
<path fill="none" stroke="#63b8ff" d="M261.48,-331.03C299,-322.07 356.5,-308.34 397.41,-298.57"/>
<polygon fill="#63b8ff" stroke="#63b8ff" points="398.09,-302.01 407,-296.28 396.46,-295.2 398.09,-302.01"/>
</a>
</g>
</g>
<!-- Node6&#45;&gt;Node3 -->
<g id="edge23_Node000006_Node000003" class="edge">
<title>Node6&#45;&gt;Node3</title>
<g id="a_edge23_Node000006_Node000003"><a xlink:title=" ">
<path fill="none" stroke="#63b8ff" d="M507.38,-220.59C468.85,-193.86 355.15,-114.96 306.68,-81.34"/>
<polygon fill="#63b8ff" stroke="#63b8ff" points="308.84,-78.57 298.63,-75.75 304.85,-84.32 308.84,-78.57"/>
</a>
</g>
</g>
<!-- Node7 -->
<g id="Node000007" class="node">
<title>Node7</title>
<g id="a_Node000007"><a xlink:title=" ">
<polygon fill="#e0e0e0" stroke="#999999" points="616.65,-129.75 560.15,-129.75 560.15,-110.5 616.65,-110.5 616.65,-129.75"/>
<text text-anchor="middle" x="588.4" y="-116.25" font-family="Helvetica,sans-Serif" font-size="10.00">Arduino.h</text>
</a>
</g>
</g>
<!-- Node6&#45;&gt;Node7 -->
<g id="edge6_Node000006_Node000007" class="edge">
<title>Node6&#45;&gt;Node7</title>
<g id="a_edge6_Node000006_Node000007"><a xlink:title=" ">
<path fill="none" stroke="#63b8ff" d="M525.96,-220.75C537.02,-203.1 561.97,-163.3 576.76,-139.7"/>
<polygon fill="#63b8ff" stroke="#63b8ff" points="579.61,-141.74 581.95,-131.41 573.68,-138.02 579.61,-141.74"/>
</a>
</g>
</g>
<!-- Node8 -->
<g id="Node000008" class="node">
<title>Node8</title>
<g id="a_Node000008"><a xlink:href="card_8hpp.xhtml" target="_top" xlink:title=" ">
<polygon fill="white" stroke="#666666" points="688.77,-185 636.02,-185 636.02,-165.75 688.77,-165.75 688.77,-185"/>
<text text-anchor="middle" x="662.4" y="-171.5" font-family="Helvetica,sans-Serif" font-size="10.00">card.hpp</text>
</a>
</g>
</g>
<!-- Node6&#45;&gt;Node8 -->
<g id="edge7_Node000006_Node000008" class="edge">
<title>Node6&#45;&gt;Node8</title>
<g id="a_edge7_Node000006_Node000008"><a xlink:title=" ">
<path fill="none" stroke="#63b8ff" d="M544.49,-220.59C567.34,-212.02 601.92,-199.06 627.73,-189.38"/>
<polygon fill="#63b8ff" stroke="#63b8ff" points="628.64,-192.77 636.78,-185.98 626.18,-186.22 628.64,-192.77"/>
</a>
</g>
</g>
<!-- Node9 -->
<g id="Node000009" class="node">
<title>Node9</title>
<g id="a_Node000009"><a xlink:title=" ">
<polygon fill="#e0e0e0" stroke="#999999" points="686.02,-129.75 634.77,-129.75 634.77,-110.5 686.02,-110.5 686.02,-129.75"/>
<text text-anchor="middle" x="660.4" y="-116.25" font-family="Helvetica,sans-Serif" font-size="10.00">sstream</text>
</a>
</g>
</g>
<!-- Node6&#45;&gt;Node9 -->
<g id="edge22_Node000006_Node000009" class="edge">
<title>Node6&#45;&gt;Node9</title>
<g id="a_edge22_Node000006_Node000009"><a xlink:title=" ">
<path fill="none" stroke="#63b8ff" d="M531.86,-220.75C555.55,-202.39 610.19,-160.04 640.04,-136.91"/>
<polygon fill="#63b8ff" stroke="#63b8ff" points="641.83,-139.95 647.59,-131.05 637.54,-134.41 641.83,-139.95"/>
</a>
</g>
</g>
<!-- Node11 -->
<g id="Node000011" class="node">
<title>Node11</title>
<g id="a_Node000011"><a xlink:href="conf_8hpp.xhtml" target="_top" xlink:title=" ">
<polygon fill="white" stroke="#666666" points="498.77,-129.75 446.02,-129.75 446.02,-110.5 498.77,-110.5 498.77,-129.75"/>
<text text-anchor="middle" x="472.4" y="-116.25" font-family="Helvetica,sans-Serif" font-size="10.00">conf.hpp</text>
</a>
</g>
</g>
<!-- Node6&#45;&gt;Node11 -->
<g id="edge19_Node000006_Node000011" class="edge">
<title>Node6&#45;&gt;Node11</title>
<g id="a_edge19_Node000006_Node000011"><a xlink:title=" ">
<path fill="none" stroke="#63b8ff" d="M516.47,-220.75C508.74,-203.26 491.38,-164.02 480.9,-140.34"/>
<polygon fill="#63b8ff" stroke="#63b8ff" points="484.24,-139.24 476.99,-131.51 477.84,-142.07 484.24,-139.24"/>
</a>
</g>
</g>
<!-- Node12 -->
<g id="Node000012" class="node">
<title>Node12</title>
<g id="a_Node000012"><a xlink:title=" ">
<polygon fill="#e0e0e0" stroke="#999999" points="517.02,-19.25 471.77,-19.25 471.77,0 517.02,0 517.02,-19.25"/>
<text text-anchor="middle" x="494.4" y="-5.75" font-family="Helvetica,sans-Serif" font-size="10.00">cstdint</text>
</a>
</g>
</g>
<!-- Node6&#45;&gt;Node12 -->
<g id="edge21_Node000006_Node000012" class="edge">
<title>Node6&#45;&gt;Node12</title>
<g id="a_edge21_Node000006_Node000012"><a xlink:title=" ">
<path fill="none" stroke="#63b8ff" d="M519.48,-220.65C517.45,-200.79 512.32,-151.61 507.4,-110.5 504.1,-82.88 499.88,-51.02 497.16,-30.86"/>
<polygon fill="#63b8ff" stroke="#63b8ff" points="500.66,-30.64 495.85,-21.21 493.73,-31.59 500.66,-30.64"/>
</a>
</g>
</g>
<!-- Node17 -->
<g id="Node000017" class="node">
<title>Node17</title>
<g id="a_Node000017"><a xlink:title=" ">
<polygon fill="#e0e0e0" stroke="#999999" points="389.9,-185 352.9,-185 352.9,-165.75 389.9,-165.75 389.9,-185"/>
<text text-anchor="middle" x="371.4" y="-171.5" font-family="Helvetica,sans-Serif" font-size="10.00">array</text>
</a>
</g>
</g>
<!-- Node6&#45;&gt;Node17 -->
<g id="edge20_Node000006_Node000017" class="edge">
<title>Node6&#45;&gt;Node17</title>
<g id="a_edge20_Node000006_Node000017"><a xlink:title=" ">
<path fill="none" stroke="#63b8ff" d="M495.12,-220.59C469,-211.26 428.26,-196.69 400.73,-186.86"/>
<polygon fill="#63b8ff" stroke="#63b8ff" points="402.2,-183.67 391.6,-183.6 399.84,-190.26 402.2,-183.67"/>
</a>
</g>
</g>
<!-- Node8&#45;&gt;Node7 -->
<g id="edge10_Node000008_Node000007" class="edge">
<title>Node8&#45;&gt;Node7</title>
<g id="a_edge10_Node000008_Node000007"><a xlink:title=" ">
<path fill="none" stroke="#63b8ff" d="M649.85,-165.34C638.94,-157.49 622.9,-145.95 609.94,-136.62"/>
<polygon fill="#63b8ff" stroke="#63b8ff" points="612.16,-133.91 602,-130.91 608.07,-139.59 612.16,-133.91"/>
</a>
</g>
</g>
<!-- Node8&#45;&gt;Node9 -->
<g id="edge8_Node000008_Node000009" class="edge">
<title>Node8&#45;&gt;Node9</title>
<g id="a_edge8_Node000008_Node000009"><a xlink:title=" ">
<path fill="none" stroke="#63b8ff" d="M662.07,-165.58C661.82,-158.99 661.47,-149.71 661.16,-141.32"/>
<polygon fill="#63b8ff" stroke="#63b8ff" points="664.67,-141.48 660.79,-131.62 657.67,-141.75 664.67,-141.48"/>
</a>
</g>
</g>
<!-- Node10 -->
<g id="Node000010" class="node">
<title>Node10</title>
<g id="a_Node000010"><a xlink:title=" ">
<polygon fill="#e0e0e0" stroke="#999999" points="754.27,-129.75 704.52,-129.75 704.52,-110.5 754.27,-110.5 754.27,-129.75"/>
<text text-anchor="middle" x="729.4" y="-116.25" font-family="Helvetica,sans-Serif" font-size="10.00">iomanip</text>
</a>
</g>
</g>
<!-- Node8&#45;&gt;Node10 -->
<g id="edge9_Node000008_Node000010" class="edge">
<title>Node8&#45;&gt;Node10</title>
<g id="a_edge9_Node000008_Node000010"><a xlink:title=" ">
<path fill="none" stroke="#63b8ff" d="M673.77,-165.34C683.45,-157.65 697.6,-146.4 709.21,-137.18"/>
<polygon fill="#63b8ff" stroke="#63b8ff" points="711.37,-139.93 717.02,-130.97 707.01,-134.45 711.37,-139.93"/>
</a>
</g>
</g>
<!-- Node8&#45;&gt;Node11 -->
<g id="edge11_Node000008_Node000011" class="edge">
<title>Node8&#45;&gt;Node11</title>
<g id="a_edge11_Node000008_Node000011"><a xlink:title=" ">
<path fill="none" stroke="#63b8ff" d="M635.58,-166.86C602.76,-157.66 547.01,-142.03 509.94,-131.65"/>
<polygon fill="#63b8ff" stroke="#63b8ff" points="511.11,-128.34 500.54,-129.01 509.22,-135.08 511.11,-128.34"/>
</a>
</g>
</g>
<!-- Node15 -->
<g id="Node000015" class="node">
<title>Node15</title>
<g id="a_Node000015"><a xlink:href="_logging_8hpp.xhtml" target="_top" xlink:title=" ">
<polygon fill="white" stroke="#666666" points="840.65,-129.75 772.15,-129.75 772.15,-110.5 840.65,-110.5 840.65,-129.75"/>
<text text-anchor="middle" x="806.4" y="-116.25" font-family="Helvetica,sans-Serif" font-size="10.00">Logging.hpp</text>
</a>
</g>
</g>
<!-- Node8&#45;&gt;Node15 -->
<g id="edge17_Node000008_Node000015" class="edge">
<title>Node8&#45;&gt;Node15</title>
<g id="a_edge17_Node000008_Node000015"><a xlink:title=" ">
<path fill="none" stroke="#63b8ff" d="M686.83,-165.34C710,-156.77 745.06,-143.81 771.24,-134.13"/>
<polygon fill="#63b8ff" stroke="#63b8ff" points="772.27,-137.48 780.43,-130.73 769.84,-130.91 772.27,-137.48"/>
</a>
</g>
</g>
<!-- Node11&#45;&gt;Node3 -->
<g id="edge13_Node000011_Node000003" class="edge">
<title>Node11&#45;&gt;Node3</title>
<g id="a_edge13_Node000011_Node000003"><a xlink:title=" ">
<path fill="none" stroke="#63b8ff" d="M445.64,-111.75C416.11,-103.58 366.91,-89.89 315.64,-75.11"/>
<polygon fill="#63b8ff" stroke="#63b8ff" points="316.7,-71.78 306.12,-72.37 314.76,-78.5 316.7,-71.78"/>
</a>
</g>
</g>
<!-- Node11&#45;&gt;Node12 -->
<g id="edge12_Node000011_Node000012" class="edge">
<title>Node11&#45;&gt;Node12</title>
<g id="a_edge12_Node000011_Node000012"><a xlink:title=" ">
<path fill="none" stroke="#63b8ff" d="M474.2,-110.25C477.7,-93 485.49,-54.58 490.31,-30.81"/>
<polygon fill="#63b8ff" stroke="#63b8ff" points="493.72,-31.61 492.27,-21.11 486.86,-30.22 493.72,-31.61"/>
</a>
</g>
</g>
<!-- Node13 -->
<g id="Node000013" class="node">
<title>Node13</title>
<g id="a_Node000013"><a xlink:title=" ">
<polygon fill="#e0e0e0" stroke="#999999" points="368.02,-74.5 322.77,-74.5 322.77,-55.25 368.02,-55.25 368.02,-74.5"/>
<text text-anchor="middle" x="345.4" y="-61" font-family="Helvetica,sans-Serif" font-size="10.00">chrono</text>
</a>
</g>
</g>
<!-- Node11&#45;&gt;Node13 -->
<g id="edge14_Node000011_Node000013" class="edge">
<title>Node11&#45;&gt;Node13</title>
<g id="a_edge14_Node000011_Node000013"><a xlink:title=" ">
<path fill="none" stroke="#63b8ff" d="M450.86,-110.09C430.79,-101.68 400.6,-89.02 377.65,-79.4"/>
<polygon fill="#63b8ff" stroke="#63b8ff" points="379.02,-76.18 368.45,-75.54 376.31,-82.63 379.02,-76.18"/>
</a>
</g>
</g>
<!-- Node14 -->
<g id="Node000014" class="node">
<title>Node14</title>
<g id="a_Node000014"><a xlink:href="_machine_i_d_8hpp.xhtml" target="_top" xlink:title=" ">
<polygon fill="white" stroke="#666666" points="466.65,-74.5 386.15,-74.5 386.15,-55.25 466.65,-55.25 466.65,-74.5"/>
<text text-anchor="middle" x="426.4" y="-61" font-family="Helvetica,sans-Serif" font-size="10.00">MachineID.hpp</text>
</a>
</g>
</g>
<!-- Node11&#45;&gt;Node14 -->
<g id="edge15_Node000011_Node000014" class="edge">
<title>Node11&#45;&gt;Node14</title>
<g id="a_edge15_Node000011_Node000014"><a xlink:title=" ">
<path fill="none" stroke="#63b8ff" d="M464.8,-110.33C458.52,-103.05 449.39,-92.48 441.6,-83.48"/>
<polygon fill="#63b8ff" stroke="#63b8ff" points="444.34,-81.28 435.15,-76 439.04,-85.86 444.34,-81.28"/>
</a>
</g>
</g>
<!-- Node14&#45;&gt;Node12 -->
<g id="edge16_Node000014_Node000012" class="edge">
<title>Node14&#45;&gt;Node12</title>
<g id="a_edge16_Node000014_Node000012"><a xlink:title=" ">
<path fill="none" stroke="#63b8ff" d="M437.94,-54.84C447.86,-47.07 462.41,-35.67 474.26,-26.4"/>
<polygon fill="#63b8ff" stroke="#63b8ff" points="476.13,-29.38 481.84,-20.46 471.81,-23.87 476.13,-29.38"/>
</a>
</g>
</g>
<!-- Node16 -->
<g id="Node000016" class="node">
<title>Node16</title>
<g id="a_Node000016"><a xlink:title=" ">
<polygon fill="#e0e0e0" stroke="#999999" points="835.02,-74.5 777.77,-74.5 777.77,-55.25 835.02,-55.25 835.02,-74.5"/>
<text text-anchor="middle" x="806.4" y="-61" font-family="Helvetica,sans-Serif" font-size="10.00">esp_log.h</text>
</a>
</g>
</g>
<!-- Node15&#45;&gt;Node16 -->
<g id="edge18_Node000015_Node000016" class="edge">
<title>Node15&#45;&gt;Node16</title>
<g id="a_edge18_Node000015_Node000016"><a xlink:title=" ">
<path fill="none" stroke="#63b8ff" d="M806.4,-110.33C806.4,-103.82 806.4,-94.67 806.4,-86.37"/>
<polygon fill="#63b8ff" stroke="#63b8ff" points="809.9,-86.37 806.4,-76.37 802.9,-86.37 809.9,-86.37"/>
</a>
</g>
</g>
<!-- Node19&#45;&gt;Node4 -->
<g id="edge27_Node000019_Node000004" class="edge">
<title>Node19&#45;&gt;Node4</title>
<g id="a_edge27_Node000019_Node000004"><a xlink:title=" ">
<path fill="none" stroke="#63b8ff" d="M232.82,-275.84C210.56,-267.31 176.91,-254.42 151.68,-244.76"/>
<polygon fill="#63b8ff" stroke="#63b8ff" points="153.1,-241.55 142.51,-241.24 150.59,-248.09 153.1,-241.55"/>
</a>
</g>
</g>
<!-- Node19&#45;&gt;Node5 -->
<g id="edge28_Node000019_Node000005" class="edge">
<title>Node19&#45;&gt;Node5</title>
<g id="a_edge28_Node000019_Node000005"><a xlink:title=" ">
<path fill="none" stroke="#63b8ff" d="M244.53,-275.84C234.31,-268.07 219.33,-256.67 207.14,-247.4"/>
<polygon fill="#63b8ff" stroke="#63b8ff" points="209.38,-244.71 199.3,-241.44 205.14,-250.28 209.38,-244.71"/>
</a>
</g>
</g>
<!-- Node19&#45;&gt;Node6 -->
<g id="edge30_Node000019_Node000006" class="edge">
<title>Node19&#45;&gt;Node6</title>
<g id="a_edge30_Node000019_Node000006"><a xlink:title=" ">
<path fill="none" stroke="#63b8ff" d="M294.51,-277.19C341.77,-267.66 422.32,-251.41 473.37,-241.11"/>
<polygon fill="#63b8ff" stroke="#63b8ff" points="473.83,-244.59 482.94,-239.18 472.45,-237.73 473.83,-244.59"/>
</a>
</g>
</g>
<!-- Node19&#45;&gt;Node11 -->
<g id="edge31_Node000019_Node000011" class="edge">
<title>Node19&#45;&gt;Node11</title>
<g id="a_edge31_Node000019_Node000011"><a xlink:title=" ">
<path fill="none" stroke="#63b8ff" d="M272.64,-275.78C285.5,-267.86 303.12,-255.3 314.4,-240.25 335.71,-211.82 317.8,-190.39 343.4,-165.75 368.16,-141.92 406.26,-130.77 434.65,-125.58"/>
<polygon fill="#63b8ff" stroke="#63b8ff" points="434.97,-129.07 444.27,-124 433.84,-122.16 434.97,-129.07"/>
</a>
</g>
</g>
<!-- Node19&#45;&gt;Node17 -->
<g id="edge26_Node000019_Node000017" class="edge">
<title>Node19&#45;&gt;Node17</title>
<g id="a_edge26_Node000019_Node000017"><a xlink:title=" ">
<path fill="none" stroke="#63b8ff" d="M288.34,-275.87C307.72,-268.95 331.67,-257.58 347.4,-240.25 358.5,-228.03 364.62,-210.19 367.9,-196.46"/>
<polygon fill="#63b8ff" stroke="#63b8ff" points="371.31,-197.28 369.87,-186.78 364.45,-195.88 371.31,-197.28"/>
</a>
</g>
</g>
<!-- Node20 -->
<g id="Node000020" class="node">
<title>Node20</title>
<g id="a_Node000020"><a xlink:title=" ">
<polygon fill="#e0e0e0" stroke="#999999" points="305.77,-240.25 223.02,-240.25 223.02,-221 305.77,-221 305.77,-240.25"/>
<text text-anchor="middle" x="264.4" y="-226.75" font-family="Helvetica,sans-Serif" font-size="10.00">unordered_map</text>
</a>
</g>
</g>
<!-- Node19&#45;&gt;Node20 -->
<g id="edge29_Node000019_Node000020" class="edge">
<title>Node19&#45;&gt;Node20</title>
<g id="a_edge29_Node000019_Node000020"><a xlink:title=" ">
<path fill="none" stroke="#63b8ff" d="M257.72,-276.08C258.71,-269.49 260.11,-260.21 261.37,-251.82"/>
<polygon fill="#63b8ff" stroke="#63b8ff" points="264.8,-252.51 262.83,-242.11 257.88,-251.47 264.8,-252.51"/>
</a>
</g>
</g>
<!-- Node21&#45;&gt;Node6 -->
<g id="edge34_Node000021_Node000006" class="edge">
<title>Node21&#45;&gt;Node6</title>
<g id="a_edge34_Node000021_Node000006"><a xlink:title=" ">
<path fill="none" stroke="#63b8ff" d="M458.95,-275.84C469.86,-267.99 485.9,-256.45 498.86,-247.12"/>
<polygon fill="#63b8ff" stroke="#63b8ff" points="500.73,-250.09 506.8,-241.41 496.64,-244.41 500.73,-250.09"/>
</a>
</g>
</g>
<!-- Node21&#45;&gt;Node8 -->
<g id="edge36_Node000021_Node000008" class="edge">
<title>Node21&#45;&gt;Node8</title>
<g id="a_edge36_Node000021_Node000008"><a xlink:title=" ">
<path fill="none" stroke="#63b8ff" d="M476.03,-275.82C500.59,-267.83 536.1,-255.16 565.4,-240.25 592.97,-226.22 622.34,-206.07 641.44,-192.17"/>
<polygon fill="#63b8ff" stroke="#63b8ff" points="643.49,-195 649.46,-186.25 639.34,-189.37 643.49,-195"/>
</a>
</g>
</g>
<!-- Node21&#45;&gt;Node11 -->
<g id="edge35_Node000021_Node000011" class="edge">
<title>Node21&#45;&gt;Node11</title>
<g id="a_edge35_Node000021_Node000011"><a xlink:title=" ">
<path fill="none" stroke="#63b8ff" d="M447.8,-276.07C451.82,-250.75 463.49,-177.25 469.19,-141.34"/>
<polygon fill="#63b8ff" stroke="#63b8ff" points="472.65,-141.89 470.76,-131.47 465.73,-140.79 472.65,-141.89"/>
</a>
</g>
</g>
<!-- Node21&#45;&gt;Node17 -->
<g id="edge33_Node000021_Node000017" class="edge">
<title>Node21&#45;&gt;Node17</title>
<g id="a_edge33_Node000021_Node000017"><a xlink:title=" ">
<path fill="none" stroke="#63b8ff" d="M440.26,-276C428.01,-258.27 400.31,-218.19 384.02,-194.63"/>
<polygon fill="#63b8ff" stroke="#63b8ff" points="387.05,-192.86 378.48,-186.62 381.29,-196.84 387.05,-192.86"/>
</a>
</g>
</g>
</g>
</svg>

<g id="navigator" transform="translate(0 0)" fill="#404254">
  <rect fill="#f2f5e9" fill-opacity="0.5" stroke="#606060" stroke-width=".5" x="0" y="0" width="60" height="60"/>
  <use id="zoomplus" xlink:href="#zoomPlus" x="17" y="9" onmousedown="handleZoom(evt,'in')"/>
  <use id="zoomminus" xlink:href="#zoomMin" x="42" y="9" onmousedown="handleZoom(evt,'out')"/>
  <use id="reset" xlink:href="#resetDef" x="30" y="36" onmousedown="handleReset()"/>
   <use id="arrowup" xlink:href="#arrowUp" x="0" y="0" onmousedown="handlePan(0,-1)"/>
  <use id="arrowright" xlink:href="#arrowRight" x="0" y="0" onmousedown="handlePan(1,0)"/>
  <use id="arrowdown" xlink:href="#arrowDown" x="0" y="0" onmousedown="handlePan(0,1)"/>
  <use id="arrowleft" xlink:href="#arrowLeft" x="0" y="0" onmousedown="handlePan(-1,0)"/>
</g>
<svg viewBox="0 0 15 15" width="100%" height="30px" preserveAspectRatio="xMaxYMin meet">
 <g id="arrow_out" transform="scale(0.3 0.3)">
  <a xlink:href="_auth_provider_8hpp__incl_org.svg" target="_base">
   <rect id="button" ry="5" rx="5" y="6" x="6" height="38" width="38"
        fill="#f2f5e9" fill-opacity="0.5" stroke="#606060" stroke-width="1.0"/>
   <path id="arrow"
     d="M 11.500037,31.436501 C 11.940474,20.09759 22.043105,11.32322 32.158766,21.979434 L 37.068811,17.246167 C 37.068811,17.246167 37.088388,32 37.088388,32 L 22.160133,31.978069 C 22.160133,31.978069 26.997745,27.140456 26.997745,27.140456 C 18.528582,18.264221 13.291696,25.230495 11.500037,31.436501 z"
     style="fill:#404040;"/>
  </a>
 </g>
</svg>

<style type='text/css'>
<![CDATA[
[data-mouse-over-selected='false'] { opacity: 0.7; }
[data-mouse-over-selected='true']  { opacity: 1.0; }
]]>
</style>
<script type="application/ecmascript"><![CDATA[
document.addEventListener('DOMContentLoaded', (event) => {
  highlightEdges();
  highlightAdjacentNodes();
});
]]></script>
</svg>
