<?xml version="1.0" encoding="UTF-8" standalone="no"?>
<!DOCTYPE svg PUBLIC "-//W3C//DTD SVG 1.1//EN"
 "http://www.w3.org/Graphics/SVG/1.1/DTD/svg11.dtd">
<!-- Generated by graphviz version 9.0.0 (20230911.1827)
 -->
<!-- Title: BaseLCDWrapper.cpp Pages: 1 -->
<!--zoomable 469 -->

<svg id="main" version="1.1" xmlns="http://www.w3.org/2000/svg" xmlns:xlink="http://www.w3.org/1999/xlink" xml:space="preserve" onload="init(evt)">
<style type="text/css"><![CDATA[
.node, .edge {opacity: 0.7;}
.node.selected, .edge.selected {opacity: 1;}
.edge:hover path { stroke: red; }
.edge:hover polygon { stroke: red; fill: red; }
]]></style>

<defs>
  <circle id="rim" cx="0" cy="0" r="7"/>
  <circle id="rim2" cx="0" cy="0" r="3.5"/>
  <g id="zoomPlus">
    <use xlink:href="#rim" fill="#404040"><set attributeName="fill" to="#808080" begin="zoomplus.mouseover" end="zoomplus.mouseout"/></use>
    <path d="M-4,0h8M0,-4v8" fill="none" stroke="white" stroke-width="1.5" pointer-events="none"/>
  </g>
  <g id="zoomMin">
    <use xlink:href="#rim" fill="#404040"><set attributeName="fill" to="#808080" begin="zoomminus.mouseover" end="zoomminus.mouseout"/></use>
    <path d="M-4,0h8" fill="none" stroke="white" stroke-width="1.5" pointer-events="none"/>
  </g>
  <g id="arrowUp" transform="translate(30 24)">
    <use xlink:href="#rim"/>
    <path pointer-events="none" fill="none" stroke="white" stroke-width="1.5" d="M0,-3.0v7 M-2.5,-0.5L0,-3.0L2.5,-0.5"/>
  </g>
  <g id="arrowRight" transform="rotate(90) translate(36 -43)">
    <use xlink:href="#rim"/>
    <path pointer-events="none" fill="none" stroke="white" stroke-width="1.5" d="M0,-3.0v7 M-2.5,-0.5L0,-3.0L2.5,-0.5"/>
  </g>
  <g id="arrowDown" transform="rotate(180) translate(-30 -48)">
    <use xlink:href="#rim"/>
    <path pointer-events="none" fill="none" stroke="white" stroke-width="1.5" d="M0,-3.0v7 M-2.5,-0.5L0,-3.0L2.5,-0.5"/>
  </g>
  <g id="arrowLeft" transform="rotate(270) translate(-36 17)">
    <use xlink:href="#rim"/>
    <path pointer-events="none" fill="none" stroke="white" stroke-width="1.5" d="M0,-3.0v7 M-2.5,-0.5L0,-3.0L2.5,-0.5"/>
  </g>
  <g id="resetDef">
    <use xlink:href="#rim2" fill="#404040"><set attributeName="fill" to="#808080" begin="reset.mouseover" end="reset.mouseout"/></use>
  </g>
</defs>
<script type="application/ecmascript">
var viewWidth = 969;
var viewHeight = 469;
var sectionId = 'dynsection-0';
</script>
<script type="application/ecmascript" xlink:href="svg.min.js"/>
<svg id="graph" class="graph">
<g id="viewport">
<title>BaseLCDWrapper.cpp</title>
<!-- Node1 -->
<g id="Node000001" class="node">
<title>Node1</title>
<g id="a_Node000001"><a xlink:title=" ">
<polygon fill="#999999" stroke="#666666" points="863,-461.25 751,-461.25 751,-442 863,-442 863,-461.25"/>
<text text-anchor="middle" x="807" y="-447.75" font-family="Helvetica,sans-Serif" font-size="10.00">BaseLCDWrapper.cpp</text>
</a>
</g>
</g>
<!-- Node2 -->
<g id="Node000002" class="node">
<title>Node2</title>
<g id="a_Node000002"><a xlink:title=" ">
<polygon fill="#e0e0e0" stroke="#999999" points="85.62,-74.5 40.38,-74.5 40.38,-55.25 85.62,-55.25 85.62,-74.5"/>
<text text-anchor="middle" x="63" y="-61" font-family="Helvetica,sans-Serif" font-size="10.00">chrono</text>
</a>
</g>
</g>
<!-- Node1&#45;&gt;Node2 -->
<g id="edge1_Node000001_Node000002" class="edge">
<title>Node1&#45;&gt;Node2</title>
<g id="a_edge1_Node000001_Node000002"><a xlink:title=" ">
<path fill="none" stroke="#63b8ff" d="M750.57,-448.98C567.22,-442.91 0,-417.98 0,-342.12 0,-342.12 0,-342.12 0,-174.38 0,-138.11 26.65,-103.12 45.28,-83.09"/>
<polygon fill="#63b8ff" stroke="#63b8ff" points="47.64,-85.68 52.1,-76.07 42.62,-80.8 47.64,-85.68"/>
</a>
</g>
</g>
<!-- Node3 -->
<g id="Node000003" class="node">
<title>Node3</title>
<g id="a_Node000003"><a xlink:title=" ">
<polygon fill="#e0e0e0" stroke="#999999" points="848,-74.5 808,-74.5 808,-55.25 848,-55.25 848,-74.5"/>
<text text-anchor="middle" x="828" y="-61" font-family="Helvetica,sans-Serif" font-size="10.00">string</text>
</a>
</g>
</g>
<!-- Node1&#45;&gt;Node3 -->
<g id="edge2_Node000001_Node000003" class="edge">
<title>Node1&#45;&gt;Node3</title>
<g id="a_edge2_Node000001_Node000003"><a xlink:title=" ">
<path fill="none" stroke="#63b8ff" d="M840.4,-441.6C882.94,-427.84 951,-397.22 951,-342.12 951,-342.12 951,-342.12 951,-229.62 951,-163.65 886.38,-107.29 850.82,-81.26"/>
<polygon fill="#63b8ff" stroke="#63b8ff" points="853.05,-78.55 842.87,-75.62 849,-84.26 853.05,-78.55"/>
</a>
</g>
</g>
<!-- Node4 -->
<g id="Node000004" class="node">
<title>Node4</title>
<g id="a_Node000004"><a xlink:title=" ">
<polygon fill="#e0e0e0" stroke="#999999" points="799.62,-129.75 748.38,-129.75 748.38,-110.5 799.62,-110.5 799.62,-129.75"/>
<text text-anchor="middle" x="774" y="-116.25" font-family="Helvetica,sans-Serif" font-size="10.00">sstream</text>
</a>
</g>
</g>
<!-- Node1&#45;&gt;Node4 -->
<g id="edge3_Node000001_Node000004" class="edge">
<title>Node1&#45;&gt;Node4</title>
<g id="a_edge3_Node000001_Node000004"><a xlink:title=" ">
<path fill="none" stroke="#63b8ff" d="M817.62,-441.67C836.75,-424.5 875,-384.81 875,-342.12 875,-342.12 875,-342.12 875,-284.88 875,-223.12 822.33,-165.16 793.06,-137.72"/>
<polygon fill="#63b8ff" stroke="#63b8ff" points="795.68,-135.38 785.93,-131.23 790.97,-140.55 795.68,-135.38"/>
</a>
</g>
</g>
<!-- Node5 -->
<g id="Node000005" class="node">
<title>Node5</title>
<g id="a_Node000005"><a xlink:href="_base_l_c_d_wrapper_8hpp.xhtml" target="_top" xlink:title=" ">
<polygon fill="white" stroke="#666666" points="593,-406 481,-406 481,-386.75 593,-386.75 593,-406"/>
<text text-anchor="middle" x="537" y="-392.5" font-family="Helvetica,sans-Serif" font-size="10.00">BaseLCDWrapper.hpp</text>
</a>
</g>
</g>
<!-- Node1&#45;&gt;Node5 -->
<g id="edge4_Node000001_Node000005" class="edge">
<title>Node1&#45;&gt;Node5</title>
<g id="a_edge4_Node000001_Node000005"><a xlink:title=" ">
<path fill="none" stroke="#63b8ff" d="M760.89,-441.53C714.78,-432.44 643.76,-418.43 594.11,-408.64"/>
<polygon fill="#63b8ff" stroke="#63b8ff" points="594.89,-405.23 584.4,-406.72 593.54,-412.09 594.89,-405.23"/>
</a>
</g>
</g>
<!-- Node5&#45;&gt;Node2 -->
<g id="edge42_Node000005_Node000002" class="edge">
<title>Node5&#45;&gt;Node2</title>
<g id="a_edge42_Node000005_Node000002"><a xlink:title=" ">
<path fill="none" stroke="#63b8ff" d="M480.73,-394.9C350.23,-392.28 38,-376.64 38,-286.88 38,-286.88 38,-286.88 38,-174.38 38,-142.72 48.23,-107.16 55.6,-85.65"/>
<polygon fill="#63b8ff" stroke="#63b8ff" points="58.83,-87.02 58.91,-76.42 52.24,-84.66 58.83,-87.02"/>
</a>
</g>
</g>
<!-- Node5&#45;&gt;Node3 -->
<g id="edge43_Node000005_Node000003" class="edge">
<title>Node5&#45;&gt;Node3</title>
<g id="a_edge43_Node000005_Node000003"><a xlink:title=" ">
<path fill="none" stroke="#63b8ff" d="M554.93,-386.42C609.42,-358.02 772.59,-263.88 827,-129.75 832.57,-116.03 832.6,-99.25 831.36,-86.33"/>
<polygon fill="#63b8ff" stroke="#63b8ff" points="834.83,-85.91 830.04,-76.46 827.89,-86.83 834.83,-85.91"/>
</a>
</g>
</g>
<!-- Node6 -->
<g id="Node000006" class="node">
<title>Node6</title>
<g id="a_Node000006"><a xlink:href="_board_info_8hpp.xhtml" target="_top" xlink:title=" ">
<polygon fill="white" stroke="#666666" points="575,-350.75 499,-350.75 499,-331.5 575,-331.5 575,-350.75"/>
<text text-anchor="middle" x="537" y="-337.25" font-family="Helvetica,sans-Serif" font-size="10.00">BoardInfo.hpp</text>
</a>
</g>
</g>
<!-- Node5&#45;&gt;Node6 -->
<g id="edge5_Node000005_Node000006" class="edge">
<title>Node5&#45;&gt;Node6</title>
<g id="a_edge5_Node000005_Node000006"><a xlink:title=" ">
<path fill="none" stroke="#63b8ff" d="M537,-386.58C537,-380.07 537,-370.92 537,-362.62"/>
<polygon fill="#63b8ff" stroke="#63b8ff" points="540.5,-362.62 537,-352.62 533.5,-362.62 540.5,-362.62"/>
</a>
</g>
</g>
<!-- Node7 -->
<g id="Node000007" class="node">
<title>Node7</title>
<g id="a_Node000007"><a xlink:href="_machine_8hpp.xhtml" target="_top" xlink:title=" ">
<polygon fill="white" stroke="#666666" points="506.38,-295.5 435.62,-295.5 435.62,-276.25 506.38,-276.25 506.38,-295.5"/>
<text text-anchor="middle" x="471" y="-282" font-family="Helvetica,sans-Serif" font-size="10.00">Machine.hpp</text>
</a>
</g>
</g>
<!-- Node5&#45;&gt;Node7 -->
<g id="edge41_Node000005_Node000007" class="edge">
<title>Node5&#45;&gt;Node7</title>
<g id="a_edge41_Node000005_Node000007"><a xlink:title=" ">
<path fill="none" stroke="#63b8ff" d="M524.46,-386.48C513.84,-378.33 498.94,-365.33 490,-350.75 481.75,-337.3 476.9,-320.05 474.16,-306.86"/>
<polygon fill="#63b8ff" stroke="#63b8ff" points="477.64,-306.44 472.42,-297.22 470.75,-307.68 477.64,-306.44"/>
</a>
</g>
</g>
<!-- Node6&#45;&gt;Node7 -->
<g id="edge6_Node000006_Node000007" class="edge">
<title>Node6&#45;&gt;Node7</title>
<g id="a_edge6_Node000006_Node000007"><a xlink:title=" ">
<path fill="none" stroke="#63b8ff" d="M525.8,-331.09C516.26,-323.4 502.33,-312.15 490.89,-302.93"/>
<polygon fill="#63b8ff" stroke="#63b8ff" points="493.19,-300.28 483.21,-296.73 488.79,-305.73 493.19,-300.28"/>
</a>
</g>
</g>
<!-- Node7&#45;&gt;Node2 -->
<g id="edge39_Node000007_Node000002" class="edge">
<title>Node7&#45;&gt;Node2</title>
<g id="a_edge39_Node000007_Node000002"><a xlink:title=" ">
<path fill="none" stroke="#63b8ff" d="M435.21,-285.65C351.89,-286.69 148.41,-284.52 100,-240.25 56.28,-200.27 57.26,-122.58 60.53,-85.93"/>
<polygon fill="#63b8ff" stroke="#63b8ff" points="63.98,-86.63 61.55,-76.31 57.01,-85.89 63.98,-86.63"/>
</a>
</g>
</g>
<!-- Node8 -->
<g id="Node000008" class="node">
<title>Node8</title>
<g id="a_Node000008"><a xlink:href="_fab_user_8hpp.xhtml" target="_top" xlink:title=" ">
<polygon fill="white" stroke="#666666" points="693.75,-240.25 622.25,-240.25 622.25,-221 693.75,-221 693.75,-240.25"/>
<text text-anchor="middle" x="658" y="-226.75" font-family="Helvetica,sans-Serif" font-size="10.00">FabUser.hpp</text>
</a>
</g>
</g>
<!-- Node7&#45;&gt;Node8 -->
<g id="edge7_Node000007_Node000008" class="edge">
<title>Node7&#45;&gt;Node8</title>
<g id="a_edge7_Node000007_Node000008"><a xlink:title=" ">
<path fill="none" stroke="#63b8ff" d="M502.72,-275.84C533.75,-267.01 581.21,-253.49 615.49,-243.73"/>
<polygon fill="#63b8ff" stroke="#63b8ff" points="616.01,-247.22 624.67,-241.12 614.09,-240.49 616.01,-247.22"/>
</a>
</g>
</g>
<!-- Node13 -->
<g id="Node000013" class="node">
<title>Node13</title>
<g id="a_Node000013"><a xlink:title=" ">
<polygon fill="#e0e0e0" stroke="#999999" points="400.62,-19.25 355.38,-19.25 355.38,0 400.62,0 400.62,-19.25"/>
<text text-anchor="middle" x="378" y="-5.75" font-family="Helvetica,sans-Serif" font-size="10.00">cstdint</text>
</a>
</g>
</g>
<!-- Node7&#45;&gt;Node13 -->
<g id="edge40_Node000007_Node000013" class="edge">
<title>Node7&#45;&gt;Node13</title>
<g id="a_edge40_Node000007_Node000013"><a xlink:title=" ">
<path fill="none" stroke="#63b8ff" d="M435.13,-281.68C344.6,-272.62 114,-243.02 114,-176.38 114,-176.38 114,-176.38 114,-119.12 114,-20.99 271.99,-9.76 343.53,-9.7"/>
<polygon fill="#63b8ff" stroke="#63b8ff" points="343.49,-13.2 353.52,-9.78 343.55,-6.2 343.49,-13.2"/>
</a>
</g>
</g>
<!-- Node17 -->
<g id="Node000017" class="node">
<title>Node17</title>
<g id="a_Node000017"><a xlink:title=" ">
<polygon fill="#e0e0e0" stroke="#999999" points="960.5,-19.25 923.5,-19.25 923.5,0 960.5,0 960.5,-19.25"/>
<text text-anchor="middle" x="942" y="-5.75" font-family="Helvetica,sans-Serif" font-size="10.00">array</text>
</a>
</g>
</g>
<!-- Node7&#45;&gt;Node17 -->
<g id="edge38_Node000007_Node000017" class="edge">
<title>Node7&#45;&gt;Node17</title>
<g id="a_edge38_Node000007_Node000017"><a xlink:title=" ">
<path fill="none" stroke="#63b8ff" d="M506.55,-281.69C552.93,-276.71 636.05,-264.98 703,-240.25 749.54,-223.06 759.37,-213.47 800,-185 857.79,-144.51 875.96,-133.93 914,-74.5 922.9,-60.6 930.25,-43.4 935.19,-30.35"/>
<polygon fill="#63b8ff" stroke="#63b8ff" points="938.4,-31.76 938.51,-21.17 931.82,-29.39 938.4,-31.76"/>
</a>
</g>
</g>
<!-- Node18 -->
<g id="Node000018" class="node">
<title>Node18</title>
<g id="a_Node000018"><a xlink:href="_machine_config_8hpp.xhtml" target="_top" xlink:title=" ">
<polygon fill="white" stroke="#666666" points="317.88,-185 220.12,-185 220.12,-165.75 317.88,-165.75 317.88,-185"/>
<text text-anchor="middle" x="269" y="-171.5" font-family="Helvetica,sans-Serif" font-size="10.00">MachineConfig.hpp</text>
</a>
</g>
</g>
<!-- Node7&#45;&gt;Node18 -->
<g id="edge26_Node000007_Node000018" class="edge">
<title>Node7&#45;&gt;Node18</title>
<g id="a_edge26_Node000007_Node000018"><a xlink:title=" ">
<path fill="none" stroke="#63b8ff" d="M454.13,-275.81C419.15,-257.02 338.47,-213.69 296.11,-190.93"/>
<polygon fill="#63b8ff" stroke="#63b8ff" points="297.77,-187.85 287.3,-186.21 294.46,-194.02 297.77,-187.85"/>
</a>
</g>
</g>
<!-- Node8&#45;&gt;Node3 -->
<g id="edge25_Node000008_Node000003" class="edge">
<title>Node8&#45;&gt;Node3</title>
<g id="a_edge25_Node000008_Node000003"><a xlink:title=" ">
<path fill="none" stroke="#63b8ff" d="M681.27,-220.58C714.7,-206.37 775.91,-175.64 809,-129.75 818.23,-116.95 823.02,-99.66 825.48,-86.29"/>
<polygon fill="#63b8ff" stroke="#63b8ff" points="828.93,-86.86 826.97,-76.45 822.01,-85.82 828.93,-86.86"/>
</a>
</g>
</g>
<!-- Node8&#45;&gt;Node4 -->
<g id="edge24_Node000008_Node000004" class="edge">
<title>Node8&#45;&gt;Node4</title>
<g id="a_edge24_Node000008_Node000004"><a xlink:title=" ">
<path fill="none" stroke="#63b8ff" d="M667.49,-220.75C686.87,-202.63 731.23,-161.13 756.15,-137.82"/>
<polygon fill="#63b8ff" stroke="#63b8ff" points="758.36,-140.55 763.27,-131.16 753.58,-135.44 758.36,-140.55"/>
</a>
</g>
</g>
<!-- Node9 -->
<g id="Node000009" class="node">
<title>Node9</title>
<g id="a_Node000009"><a xlink:title=" ">
<polygon fill="#e0e0e0" stroke="#999999" points="730.25,-129.75 673.75,-129.75 673.75,-110.5 730.25,-110.5 730.25,-129.75"/>
<text text-anchor="middle" x="702" y="-116.25" font-family="Helvetica,sans-Serif" font-size="10.00">Arduino.h</text>
</a>
</g>
</g>
<!-- Node8&#45;&gt;Node9 -->
<g id="edge8_Node000008_Node000009" class="edge">
<title>Node8&#45;&gt;Node9</title>
<g id="a_edge8_Node000008_Node000009"><a xlink:title=" ">
<path fill="none" stroke="#63b8ff" d="M661.6,-220.75C668.66,-203.34 684.46,-164.37 694.08,-140.66"/>
<polygon fill="#63b8ff" stroke="#63b8ff" points="697.27,-142.11 697.78,-131.53 690.78,-139.48 697.27,-142.11"/>
</a>
</g>
</g>
<!-- Node10 -->
<g id="Node000010" class="node">
<title>Node10</title>
<g id="a_Node000010"><a xlink:href="card_8hpp.xhtml" target="_top" xlink:title=" ">
<polygon fill="white" stroke="#666666" points="657.38,-185 604.62,-185 604.62,-165.75 657.38,-165.75 657.38,-185"/>
<text text-anchor="middle" x="631" y="-171.5" font-family="Helvetica,sans-Serif" font-size="10.00">card.hpp</text>
</a>
</g>
</g>
<!-- Node8&#45;&gt;Node10 -->
<g id="edge9_Node000008_Node000010" class="edge">
<title>Node8&#45;&gt;Node10</title>
<g id="a_edge9_Node000008_Node000010"><a xlink:title=" ">
<path fill="none" stroke="#63b8ff" d="M653.54,-220.83C650.05,-213.94 645.05,-204.09 640.65,-195.41"/>
<polygon fill="#63b8ff" stroke="#63b8ff" points="643.88,-194.05 636.24,-186.71 637.64,-197.21 643.88,-194.05"/>
</a>
</g>
</g>
<!-- Node12 -->
<g id="Node000012" class="node">
<title>Node12</title>
<g id="a_Node000012"><a xlink:href="conf_8hpp.xhtml" target="_top" xlink:title=" ">
<polygon fill="white" stroke="#666666" points="464.38,-129.75 411.62,-129.75 411.62,-110.5 464.38,-110.5 464.38,-129.75"/>
<text text-anchor="middle" x="438" y="-116.25" font-family="Helvetica,sans-Serif" font-size="10.00">conf.hpp</text>
</a>
</g>
</g>
<!-- Node8&#45;&gt;Node12 -->
<g id="edge21_Node000008_Node000012" class="edge">
<title>Node8&#45;&gt;Node12</title>
<g id="a_edge21_Node000008_Node000012"><a xlink:title=" ">
<path fill="none" stroke="#63b8ff" d="M639.62,-220.56C601.28,-201.65 512.54,-157.89 466.65,-135.25"/>
<polygon fill="#63b8ff" stroke="#63b8ff" points="468.36,-132.19 457.84,-130.91 465.26,-138.47 468.36,-132.19"/>
</a>
</g>
</g>
<!-- Node8&#45;&gt;Node13 -->
<g id="edge23_Node000008_Node000013" class="edge">
<title>Node8&#45;&gt;Node13</title>
<g id="a_edge23_Node000008_Node000013"><a xlink:title=" ">
<path fill="none" stroke="#63b8ff" d="M622.1,-227.9C564.13,-222.92 451.48,-203.71 403,-129.75 383.93,-100.66 441.06,-87.07 427,-55.25 421.84,-43.57 411.94,-33.63 402.38,-26.11"/>
<polygon fill="#63b8ff" stroke="#63b8ff" points="404.51,-23.33 394.36,-20.32 400.42,-29.01 404.51,-23.33"/>
</a>
</g>
</g>
<!-- Node8&#45;&gt;Node17 -->
<g id="edge22_Node000008_Node000017" class="edge">
<title>Node8&#45;&gt;Node17</title>
<g id="a_edge22_Node000008_Node000017"><a xlink:title=" ">
<path fill="none" stroke="#63b8ff" d="M693.46,-220.57C717.72,-213.34 749.91,-201.64 775,-185 842.72,-140.08 903.64,-63.2 929.23,-28.52"/>
<polygon fill="#63b8ff" stroke="#63b8ff" points="931.81,-30.92 934.86,-20.78 926.14,-26.81 931.81,-30.92"/>
</a>
</g>
</g>
<!-- Node10&#45;&gt;Node4 -->
<g id="edge10_Node000010_Node000004" class="edge">
<title>Node10&#45;&gt;Node4</title>
<g id="a_edge10_Node000010_Node000004"><a xlink:title=" ">
<path fill="none" stroke="#63b8ff" d="M655.26,-165.34C678.27,-156.77 713.09,-143.81 739.08,-134.13"/>
<polygon fill="#63b8ff" stroke="#63b8ff" points="740.05,-137.5 748.2,-130.73 737.61,-130.94 740.05,-137.5"/>
</a>
</g>
</g>
<!-- Node10&#45;&gt;Node9 -->
<g id="edge12_Node000010_Node000009" class="edge">
<title>Node10&#45;&gt;Node9</title>
<g id="a_edge12_Node000010_Node000009"><a xlink:title=" ">
<path fill="none" stroke="#63b8ff" d="M643.04,-165.34C653.41,-157.57 668.6,-146.17 680.97,-136.9"/>
<polygon fill="#63b8ff" stroke="#63b8ff" points="683.02,-139.73 688.92,-130.93 678.82,-134.13 683.02,-139.73"/>
</a>
</g>
</g>
<!-- Node11 -->
<g id="Node000011" class="node">
<title>Node11</title>
<g id="a_Node000011"><a xlink:title=" ">
<polygon fill="#e0e0e0" stroke="#999999" points="655.88,-129.75 606.12,-129.75 606.12,-110.5 655.88,-110.5 655.88,-129.75"/>
<text text-anchor="middle" x="631" y="-116.25" font-family="Helvetica,sans-Serif" font-size="10.00">iomanip</text>
</a>
</g>
</g>
<!-- Node10&#45;&gt;Node11 -->
<g id="edge11_Node000010_Node000011" class="edge">
<title>Node10&#45;&gt;Node11</title>
<g id="a_edge11_Node000010_Node000011"><a xlink:title=" ">
<path fill="none" stroke="#63b8ff" d="M631,-165.58C631,-159.07 631,-149.92 631,-141.62"/>
<polygon fill="#63b8ff" stroke="#63b8ff" points="634.5,-141.62 631,-131.62 627.5,-141.62 634.5,-141.62"/>
</a>
</g>
</g>
<!-- Node10&#45;&gt;Node12 -->
<g id="edge13_Node000010_Node000012" class="edge">
<title>Node10&#45;&gt;Node12</title>
<g id="a_edge13_Node000010_Node000012"><a xlink:title=" ">
<path fill="none" stroke="#63b8ff" d="M604.16,-166.97C570.75,-157.75 513.47,-141.95 475.67,-131.52"/>
<polygon fill="#63b8ff" stroke="#63b8ff" points="476.64,-128.15 466.07,-128.87 474.78,-134.9 476.64,-128.15"/>
</a>
</g>
</g>
<!-- Node15 -->
<g id="Node000015" class="node">
<title>Node15</title>
<g id="a_Node000015"><a xlink:href="_logging_8hpp.xhtml" target="_top" xlink:title=" ">
<polygon fill="white" stroke="#666666" points="588.25,-129.75 519.75,-129.75 519.75,-110.5 588.25,-110.5 588.25,-129.75"/>
<text text-anchor="middle" x="554" y="-116.25" font-family="Helvetica,sans-Serif" font-size="10.00">Logging.hpp</text>
</a>
</g>
</g>
<!-- Node10&#45;&gt;Node15 -->
<g id="edge19_Node000010_Node000015" class="edge">
<title>Node10&#45;&gt;Node15</title>
<g id="a_edge19_Node000010_Node000015"><a xlink:title=" ">
<path fill="none" stroke="#63b8ff" d="M617.94,-165.34C606.54,-157.46 589.77,-145.86 576.26,-136.52"/>
<polygon fill="#63b8ff" stroke="#63b8ff" points="578.59,-133.87 568.37,-131.06 574.6,-139.63 578.59,-133.87"/>
</a>
</g>
</g>
<!-- Node12&#45;&gt;Node2 -->
<g id="edge16_Node000012_Node000002" class="edge">
<title>Node12&#45;&gt;Node2</title>
<g id="a_edge16_Node000012_Node000002"><a xlink:title=" ">
<path fill="none" stroke="#63b8ff" d="M411.33,-115.34C344.62,-105.87 170.61,-81.15 96.84,-70.68"/>
<polygon fill="#63b8ff" stroke="#63b8ff" points="97.78,-67.28 87.39,-69.34 96.8,-74.21 97.78,-67.28"/>
</a>
</g>
</g>
<!-- Node12&#45;&gt;Node3 -->
<g id="edge15_Node000012_Node000003" class="edge">
<title>Node12&#45;&gt;Node3</title>
<g id="a_edge15_Node000012_Node000003"><a xlink:title=" ">
<path fill="none" stroke="#63b8ff" d="M464.62,-113.05C469.07,-112.13 473.66,-111.24 478,-110.5 594.89,-90.48 735.14,-75.22 796.58,-68.97"/>
<polygon fill="#63b8ff" stroke="#63b8ff" points="796.68,-72.48 806.28,-67.99 795.98,-65.51 796.68,-72.48"/>
</a>
</g>
</g>
<!-- Node12&#45;&gt;Node13 -->
<g id="edge14_Node000012_Node000013" class="edge">
<title>Node12&#45;&gt;Node13</title>
<g id="a_edge14_Node000012_Node000013"><a xlink:title=" ">
<path fill="none" stroke="#63b8ff" d="M464.7,-113.37C497.85,-105.61 551.45,-90.89 563,-74.5 567.93,-67.51 568.29,-61.97 563,-55.25 544.63,-31.92 460.83,-19.35 412.56,-13.93"/>
<polygon fill="#63b8ff" stroke="#63b8ff" points="412.93,-10.45 402.62,-12.87 412.19,-17.41 412.93,-10.45"/>
</a>
</g>
</g>
<!-- Node14 -->
<g id="Node000014" class="node">
<title>Node14</title>
<g id="a_Node000014"><a xlink:href="_machine_i_d_8hpp.xhtml" target="_top" xlink:title=" ">
<polygon fill="white" stroke="#666666" points="554.25,-74.5 473.75,-74.5 473.75,-55.25 554.25,-55.25 554.25,-74.5"/>
<text text-anchor="middle" x="514" y="-61" font-family="Helvetica,sans-Serif" font-size="10.00">MachineID.hpp</text>
</a>
</g>
</g>
<!-- Node12&#45;&gt;Node14 -->
<g id="edge17_Node000012_Node000014" class="edge">
<title>Node12&#45;&gt;Node14</title>
<g id="a_edge17_Node000012_Node000014"><a xlink:title=" ">
<path fill="none" stroke="#63b8ff" d="M450.89,-110.09C462.03,-102.29 478.37,-90.84 491.64,-81.54"/>
<polygon fill="#63b8ff" stroke="#63b8ff" points="493.62,-84.43 499.8,-75.82 489.61,-78.69 493.62,-84.43"/>
</a>
</g>
</g>
<!-- Node14&#45;&gt;Node13 -->
<g id="edge18_Node000014_Node000013" class="edge">
<title>Node14&#45;&gt;Node13</title>
<g id="a_edge18_Node000014_Node000013"><a xlink:title=" ">
<path fill="none" stroke="#63b8ff" d="M490.93,-54.84C469.11,-46.3 436.12,-33.38 411.42,-23.71"/>
<polygon fill="#63b8ff" stroke="#63b8ff" points="412.73,-20.46 402.14,-20.08 410.17,-26.98 412.73,-20.46"/>
</a>
</g>
</g>
<!-- Node16 -->
<g id="Node000016" class="node">
<title>Node16</title>
<g id="a_Node000016"><a xlink:title=" ">
<polygon fill="#e0e0e0" stroke="#999999" points="667.62,-74.5 610.38,-74.5 610.38,-55.25 667.62,-55.25 667.62,-74.5"/>
<text text-anchor="middle" x="639" y="-61" font-family="Helvetica,sans-Serif" font-size="10.00">esp_log.h</text>
</a>
</g>
</g>
<!-- Node15&#45;&gt;Node16 -->
<g id="edge20_Node000015_Node000016" class="edge">
<title>Node15&#45;&gt;Node16</title>
<g id="a_edge20_Node000015_Node000016"><a xlink:title=" ">
<path fill="none" stroke="#63b8ff" d="M568.42,-110.09C581.12,-102.14 599.87,-90.39 614.86,-81"/>
<polygon fill="#63b8ff" stroke="#63b8ff" points="616.61,-84.03 623.23,-75.76 612.9,-78.1 616.61,-84.03"/>
</a>
</g>
</g>
<!-- Node18&#45;&gt;Node2 -->
<g id="edge27_Node000018_Node000002" class="edge">
<title>Node18&#45;&gt;Node2</title>
<g id="a_edge27_Node000018_Node000002"><a xlink:title=" ">
<path fill="none" stroke="#63b8ff" d="M249.22,-165.35C230.26,-156.59 200.93,-142.76 176,-129.75 145.3,-113.73 110.74,-93.93 88.02,-80.66"/>
<polygon fill="#63b8ff" stroke="#63b8ff" points="89.88,-77.69 79.48,-75.65 86.33,-83.73 89.88,-77.69"/>
</a>
</g>
</g>
<!-- Node18&#45;&gt;Node3 -->
<g id="edge29_Node000018_Node000003" class="edge">
<title>Node18&#45;&gt;Node3</title>
<g id="a_edge29_Node000018_Node000003"><a xlink:title=" ">
<path fill="none" stroke="#63b8ff" d="M318.19,-167.21C360.13,-160.26 421.6,-148.06 473,-129.75 490.84,-123.4 492.94,-116.17 511,-110.5 612.23,-78.7 738.78,-69.51 796.58,-66.9"/>
<polygon fill="#63b8ff" stroke="#63b8ff" points="796.48,-70.4 806.33,-66.49 796.19,-63.41 796.48,-70.4"/>
</a>
</g>
</g>
<!-- Node18&#45;&gt;Node12 -->
<g id="edge37_Node000018_Node000012" class="edge">
<title>Node18&#45;&gt;Node12</title>
<g id="a_edge37_Node000018_Node000012"><a xlink:title=" ">
<path fill="none" stroke="#63b8ff" d="M297.67,-165.34C325.93,-156.44 369.28,-142.78 400.32,-133"/>
<polygon fill="#63b8ff" stroke="#63b8ff" points="401.22,-136.38 409.7,-130.04 399.11,-129.71 401.22,-136.38"/>
</a>
</g>
</g>
<!-- Node18&#45;&gt;Node13 -->
<g id="edge28_Node000018_Node000013" class="edge">
<title>Node18&#45;&gt;Node13</title>
<g id="a_edge28_Node000018_Node000013"><a xlink:title=" ">
<path fill="none" stroke="#63b8ff" d="M256.86,-165.47C230.28,-144.91 171.58,-93.01 201,-55.25 218.38,-32.94 297.55,-20.05 343.91,-14.29"/>
<polygon fill="#63b8ff" stroke="#63b8ff" points="344.19,-17.78 353.7,-13.12 343.36,-10.83 344.19,-17.78"/>
</a>
</g>
</g>
<!-- Node18&#45;&gt;Node14 -->
<g id="edge36_Node000018_Node000014" class="edge">
<title>Node18&#45;&gt;Node14</title>
<g id="a_edge36_Node000018_Node000014"><a xlink:title=" ">
<path fill="none" stroke="#63b8ff" d="M287.04,-165.33C312.62,-152.61 360.99,-128.93 403,-110.5 428.54,-99.29 457.84,-87.56 479.92,-78.94"/>
<polygon fill="#63b8ff" stroke="#63b8ff" points="480.97,-82.29 489.02,-75.4 478.44,-75.76 480.97,-82.29"/>
</a>
</g>
</g>
<!-- Node19 -->
<g id="Node000019" class="node">
<title>Node19</title>
<g id="a_Node000019"><a xlink:href="pins_8hpp.xhtml" target="_top" xlink:title=" ">
<polygon fill="white" stroke="#666666" points="295,-129.75 243,-129.75 243,-110.5 295,-110.5 295,-129.75"/>
<text text-anchor="middle" x="269" y="-116.25" font-family="Helvetica,sans-Serif" font-size="10.00">pins.hpp</text>
</a>
</g>
</g>
<!-- Node18&#45;&gt;Node19 -->
<g id="edge30_Node000018_Node000019" class="edge">
<title>Node18&#45;&gt;Node19</title>
<g id="a_edge30_Node000018_Node000019"><a xlink:title=" ">
<path fill="none" stroke="#63b8ff" d="M269,-165.58C269,-159.07 269,-149.92 269,-141.62"/>
<polygon fill="#63b8ff" stroke="#63b8ff" points="272.5,-141.62 269,-131.62 265.5,-141.62 272.5,-141.62"/>
</a>
</g>
</g>
<!-- Node19&#45;&gt;Node13 -->
<g id="edge31_Node000019_Node000013" class="edge">
<title>Node19&#45;&gt;Node13</title>
<g id="a_edge31_Node000019_Node000013"><a xlink:title=" ">
<path fill="none" stroke="#63b8ff" d="M249.5,-110.12C226.37,-98.19 192.85,-76.22 209,-55.25 225.32,-34.06 299.27,-20.9 343.77,-14.75"/>
<polygon fill="#63b8ff" stroke="#63b8ff" points="343.97,-18.25 353.43,-13.47 343.05,-11.31 343.97,-18.25"/>
</a>
</g>
</g>
<!-- Node20 -->
<g id="Node000020" class="node">
<title>Node20</title>
<g id="a_Node000020"><a xlink:title=" ">
<polygon fill="#e0e0e0" stroke="#999999" points="319.75,-74.5 218.25,-74.5 218.25,-55.25 319.75,-55.25 319.75,-74.5"/>
<text text-anchor="middle" x="269" y="-61" font-family="Helvetica,sans-Serif" font-size="10.00">Adafruit_NeoPixel.h</text>
</a>
</g>
</g>
<!-- Node19&#45;&gt;Node20 -->
<g id="edge32_Node000019_Node000020" class="edge">
<title>Node19&#45;&gt;Node20</title>
<g id="a_edge32_Node000019_Node000020"><a xlink:title=" ">
<path fill="none" stroke="#63b8ff" d="M269,-110.33C269,-103.82 269,-94.67 269,-86.37"/>
<polygon fill="#63b8ff" stroke="#63b8ff" points="272.5,-86.37 269,-76.37 265.5,-86.37 272.5,-86.37"/>
</a>
</g>
</g>
<!-- Node21 -->
<g id="Node000021" class="node">
<title>Node21</title>
<g id="a_Node000021"><a xlink:href="_pins_config_8hpp.xhtml" target="_top" xlink:title=" ">
<polygon fill="white" stroke="#666666" points="418.25,-74.5 337.75,-74.5 337.75,-55.25 418.25,-55.25 418.25,-74.5"/>
<text text-anchor="middle" x="378" y="-61" font-family="Helvetica,sans-Serif" font-size="10.00">PinsConfig.hpp</text>
</a>
</g>
</g>
<!-- Node19&#45;&gt;Node21 -->
<g id="edge33_Node000019_Node000021" class="edge">
<title>Node19&#45;&gt;Node21</title>
<g id="a_edge33_Node000019_Node000021"><a xlink:title=" ">
<path fill="none" stroke="#63b8ff" d="M287.49,-110.09C304.4,-101.83 329.69,-89.48 349.24,-79.93"/>
<polygon fill="#63b8ff" stroke="#63b8ff" points="350.61,-83.15 358.06,-75.62 347.54,-76.86 350.61,-83.15"/>
</a>
</g>
</g>
<!-- Node21&#45;&gt;Node13 -->
<g id="edge34_Node000021_Node000013" class="edge">
<title>Node21&#45;&gt;Node13</title>
<g id="a_edge34_Node000021_Node000013"><a xlink:title=" ">
<path fill="none" stroke="#63b8ff" d="M378,-55.08C378,-48.57 378,-39.42 378,-31.12"/>
<polygon fill="#63b8ff" stroke="#63b8ff" points="381.5,-31.12 378,-21.12 374.5,-31.12 381.5,-31.12"/>
</a>
</g>
</g>
<!-- Node21&#45;&gt;Node17 -->
<g id="edge35_Node000021_Node000017" class="edge">
<title>Node21&#45;&gt;Node17</title>
<g id="a_edge35_Node000021_Node000017"><a xlink:title=" ">
<path fill="none" stroke="#63b8ff" d="M418.71,-59.79C433.31,-58.34 449.89,-56.71 465,-55.25 634.01,-38.97 836.78,-20.28 912.01,-13.37"/>
<polygon fill="#63b8ff" stroke="#63b8ff" points="912.21,-16.87 921.85,-12.47 911.57,-9.9 912.21,-16.87"/>
</a>
</g>
</g>
</g>
</svg>

<g id="navigator" transform="translate(0 0)" fill="#404254">
  <rect fill="#f2f5e9" fill-opacity="0.5" stroke="#606060" stroke-width=".5" x="0" y="0" width="60" height="60"/>
  <use id="zoomplus" xlink:href="#zoomPlus" x="17" y="9" onmousedown="handleZoom(evt,'in')"/>
  <use id="zoomminus" xlink:href="#zoomMin" x="42" y="9" onmousedown="handleZoom(evt,'out')"/>
  <use id="reset" xlink:href="#resetDef" x="30" y="36" onmousedown="handleReset()"/>
   <use id="arrowup" xlink:href="#arrowUp" x="0" y="0" onmousedown="handlePan(0,-1)"/>
  <use id="arrowright" xlink:href="#arrowRight" x="0" y="0" onmousedown="handlePan(1,0)"/>
  <use id="arrowdown" xlink:href="#arrowDown" x="0" y="0" onmousedown="handlePan(0,1)"/>
  <use id="arrowleft" xlink:href="#arrowLeft" x="0" y="0" onmousedown="handlePan(-1,0)"/>
</g>
<svg viewBox="0 0 15 15" width="100%" height="30px" preserveAspectRatio="xMaxYMin meet">
 <g id="arrow_out" transform="scale(0.3 0.3)">
  <a xlink:href="_base_l_c_d_wrapper_8cpp__incl_org.svg" target="_base">
   <rect id="button" ry="5" rx="5" y="6" x="6" height="38" width="38"
        fill="#f2f5e9" fill-opacity="0.5" stroke="#606060" stroke-width="1.0"/>
   <path id="arrow"
     d="M 11.500037,31.436501 C 11.940474,20.09759 22.043105,11.32322 32.158766,21.979434 L 37.068811,17.246167 C 37.068811,17.246167 37.088388,32 37.088388,32 L 22.160133,31.978069 C 22.160133,31.978069 26.997745,27.140456 26.997745,27.140456 C 18.528582,18.264221 13.291696,25.230495 11.500037,31.436501 z"
     style="fill:#404040;"/>
  </a>
 </g>
</svg>

<style type='text/css'>
<![CDATA[
[data-mouse-over-selected='false'] { opacity: 0.7; }
[data-mouse-over-selected='true']  { opacity: 1.0; }
]]>
</style>
<script type="application/ecmascript"><![CDATA[
document.addEventListener('DOMContentLoaded', (event) => {
  highlightEdges();
  highlightAdjacentNodes();
});
]]></script>
</svg>
