<?xml version="1.0" encoding="UTF-8" standalone="no"?>
<!DOCTYPE svg PUBLIC "-//W3C//DTD SVG 1.1//EN"
 "http://www.w3.org/Graphics/SVG/1.1/DTD/svg11.dtd">
<!-- Generated by graphviz version 9.0.0 (20230911.1827)
 -->
<!-- Title: BaseRfidWrapper.hpp Pages: 1 -->
<!--zoomable 248 -->

<svg id="main" version="1.1" xmlns="http://www.w3.org/2000/svg" xmlns:xlink="http://www.w3.org/1999/xlink" xml:space="preserve" onload="init(evt)">
<style type="text/css"><![CDATA[
.node, .edge {opacity: 0.7;}
.node.selected, .edge.selected {opacity: 1;}
.edge:hover path { stroke: red; }
.edge:hover polygon { stroke: red; fill: red; }
]]></style>

<defs>
  <circle id="rim" cx="0" cy="0" r="7"/>
  <circle id="rim2" cx="0" cy="0" r="3.5"/>
  <g id="zoomPlus">
    <use xlink:href="#rim" fill="#404040"><set attributeName="fill" to="#808080" begin="zoomplus.mouseover" end="zoomplus.mouseout"/></use>
    <path d="M-4,0h8M0,-4v8" fill="none" stroke="white" stroke-width="1.5" pointer-events="none"/>
  </g>
  <g id="zoomMin">
    <use xlink:href="#rim" fill="#404040"><set attributeName="fill" to="#808080" begin="zoomminus.mouseover" end="zoomminus.mouseout"/></use>
    <path d="M-4,0h8" fill="none" stroke="white" stroke-width="1.5" pointer-events="none"/>
  </g>
  <g id="arrowUp" transform="translate(30 24)">
    <use xlink:href="#rim"/>
    <path pointer-events="none" fill="none" stroke="white" stroke-width="1.5" d="M0,-3.0v7 M-2.5,-0.5L0,-3.0L2.5,-0.5"/>
  </g>
  <g id="arrowRight" transform="rotate(90) translate(36 -43)">
    <use xlink:href="#rim"/>
    <path pointer-events="none" fill="none" stroke="white" stroke-width="1.5" d="M0,-3.0v7 M-2.5,-0.5L0,-3.0L2.5,-0.5"/>
  </g>
  <g id="arrowDown" transform="rotate(180) translate(-30 -48)">
    <use xlink:href="#rim"/>
    <path pointer-events="none" fill="none" stroke="white" stroke-width="1.5" d="M0,-3.0v7 M-2.5,-0.5L0,-3.0L2.5,-0.5"/>
  </g>
  <g id="arrowLeft" transform="rotate(270) translate(-36 17)">
    <use xlink:href="#rim"/>
    <path pointer-events="none" fill="none" stroke="white" stroke-width="1.5" d="M0,-3.0v7 M-2.5,-0.5L0,-3.0L2.5,-0.5"/>
  </g>
  <g id="resetDef">
    <use xlink:href="#rim2" fill="#404040"><set attributeName="fill" to="#808080" begin="reset.mouseover" end="reset.mouseout"/></use>
  </g>
</defs>
<script type="application/ecmascript">
var viewWidth = 520;
var viewHeight = 248;
var sectionId = 'dynsection-0';
</script>
<script type="application/ecmascript" xlink:href="svg.min.js"/>
<svg id="graph" class="graph">
<g id="viewport">
<title>BaseRfidWrapper.hpp</title>
<!-- Node1 -->
<g id="Node000001" class="node">
<title>Node1</title>
<g id="a_Node000001"><a xlink:title=" ">
<polygon fill="#999999" stroke="#666666" points="270.38,-240.25 161.38,-240.25 161.38,-221 270.38,-221 270.38,-240.25"/>
<text text-anchor="middle" x="215.88" y="-226.75" font-family="Helvetica,sans-Serif" font-size="10.00">BaseRfidWrapper.hpp</text>
</a>
</g>
</g>
<!-- Node2 -->
<g id="Node000002" class="node">
<title>Node2</title>
<g id="a_Node000002"><a xlink:title=" ">
<polygon fill="#e0e0e0" stroke="#999999" points="171.75,-185 122,-185 122,-165.75 171.75,-165.75 171.75,-185"/>
<text text-anchor="middle" x="146.88" y="-171.5" font-family="Helvetica,sans-Serif" font-size="10.00">optional</text>
</a>
</g>
</g>
<!-- Node1&#45;&gt;Node2 -->
<g id="edge1_Node000001_Node000002" class="edge">
<title>Node1&#45;&gt;Node2</title>
<g id="a_edge1_Node000001_Node000002"><a xlink:title=" ">
<path fill="none" stroke="#63b8ff" d="M204.17,-220.59C194.1,-212.82 179.33,-201.42 167.31,-192.15"/>
<polygon fill="#63b8ff" stroke="#63b8ff" points="169.66,-189.54 159.61,-186.2 165.38,-195.08 169.66,-189.54"/>
</a>
</g>
</g>
<!-- Node3 -->
<g id="Node000003" class="node">
<title>Node3</title>
<g id="a_Node000003"><a xlink:href="card_8hpp.xhtml" target="_top" xlink:title=" ">
<polygon fill="white" stroke="#666666" points="242.25,-185 189.5,-185 189.5,-165.75 242.25,-165.75 242.25,-185"/>
<text text-anchor="middle" x="215.88" y="-171.5" font-family="Helvetica,sans-Serif" font-size="10.00">card.hpp</text>
</a>
</g>
</g>
<!-- Node1&#45;&gt;Node3 -->
<g id="edge2_Node000001_Node000003" class="edge">
<title>Node1&#45;&gt;Node3</title>
<g id="a_edge2_Node000001_Node000003"><a xlink:title=" ">
<path fill="none" stroke="#63b8ff" d="M215.88,-220.83C215.88,-214.32 215.88,-205.17 215.88,-196.87"/>
<polygon fill="#63b8ff" stroke="#63b8ff" points="219.38,-196.87 215.88,-186.87 212.38,-196.87 219.38,-196.87"/>
</a>
</g>
</g>
<!-- Node14 -->
<g id="Node000014" class="node">
<title>Node14</title>
<g id="a_Node000014"><a xlink:href="_tasks_8hpp.xhtml" target="_top" xlink:title=" ">
<polygon fill="white" stroke="#666666" points="414.38,-185 353.38,-185 353.38,-165.75 414.38,-165.75 414.38,-185"/>
<text text-anchor="middle" x="383.88" y="-171.5" font-family="Helvetica,sans-Serif" font-size="10.00">Tasks.hpp</text>
</a>
</g>
</g>
<!-- Node1&#45;&gt;Node14 -->
<g id="edge14_Node000001_Node000014" class="edge">
<title>Node1&#45;&gt;Node14</title>
<g id="a_edge14_Node000001_Node000014"><a xlink:title=" ">
<path fill="none" stroke="#63b8ff" d="M244.37,-220.59C271.89,-211.87 313.78,-198.59 344.48,-188.86"/>
<polygon fill="#63b8ff" stroke="#63b8ff" points="345.32,-192.27 353.79,-185.91 343.2,-185.59 345.32,-192.27"/>
</a>
</g>
</g>
<!-- Node4 -->
<g id="Node000004" class="node">
<title>Node4</title>
<g id="a_Node000004"><a xlink:title=" ">
<polygon fill="#e0e0e0" stroke="#999999" points="276.5,-129.75 225.25,-129.75 225.25,-110.5 276.5,-110.5 276.5,-129.75"/>
<text text-anchor="middle" x="250.88" y="-116.25" font-family="Helvetica,sans-Serif" font-size="10.00">sstream</text>
</a>
</g>
</g>
<!-- Node3&#45;&gt;Node4 -->
<g id="edge3_Node000003_Node000004" class="edge">
<title>Node3&#45;&gt;Node4</title>
<g id="a_edge3_Node000003_Node000004"><a xlink:title=" ">
<path fill="none" stroke="#63b8ff" d="M221.65,-165.58C226.29,-158.53 232.95,-148.4 238.74,-139.58"/>
<polygon fill="#63b8ff" stroke="#63b8ff" points="241.57,-141.65 244.14,-131.37 235.72,-137.81 241.57,-141.65"/>
</a>
</g>
</g>
<!-- Node5 -->
<g id="Node000005" class="node">
<title>Node5</title>
<g id="a_Node000005"><a xlink:title=" ">
<polygon fill="#e0e0e0" stroke="#999999" points="49.75,-129.75 0,-129.75 0,-110.5 49.75,-110.5 49.75,-129.75"/>
<text text-anchor="middle" x="24.88" y="-116.25" font-family="Helvetica,sans-Serif" font-size="10.00">iomanip</text>
</a>
</g>
</g>
<!-- Node3&#45;&gt;Node5 -->
<g id="edge4_Node000003_Node000005" class="edge">
<title>Node3&#45;&gt;Node5</title>
<g id="a_edge4_Node000003_Node000005"><a xlink:title=" ">
<path fill="none" stroke="#63b8ff" d="M189.32,-166.97C155.88,-157.65 98.28,-141.59 60.9,-131.17"/>
<polygon fill="#63b8ff" stroke="#63b8ff" points="62.02,-127.85 51.45,-128.53 60.14,-134.59 62.02,-127.85"/>
</a>
</g>
</g>
<!-- Node6 -->
<g id="Node000006" class="node">
<title>Node6</title>
<g id="a_Node000006"><a xlink:title=" ">
<polygon fill="#e0e0e0" stroke="#999999" points="351.12,-129.75 294.62,-129.75 294.62,-110.5 351.12,-110.5 351.12,-129.75"/>
<text text-anchor="middle" x="322.88" y="-116.25" font-family="Helvetica,sans-Serif" font-size="10.00">Arduino.h</text>
</a>
</g>
</g>
<!-- Node3&#45;&gt;Node6 -->
<g id="edge5_Node000003_Node000006" class="edge">
<title>Node3&#45;&gt;Node6</title>
<g id="a_edge5_Node000003_Node000006"><a xlink:title=" ">
<path fill="none" stroke="#63b8ff" d="M234.03,-165.34C250.55,-157.12 275.22,-144.84 294.37,-135.31"/>
<polygon fill="#63b8ff" stroke="#63b8ff" points="295.89,-138.47 303.28,-130.88 292.77,-132.2 295.89,-138.47"/>
</a>
</g>
</g>
<!-- Node7 -->
<g id="Node000007" class="node">
<title>Node7</title>
<g id="a_Node000007"><a xlink:href="conf_8hpp.xhtml" target="_top" xlink:title=" ">
<polygon fill="white" stroke="#666666" points="207.25,-129.75 154.5,-129.75 154.5,-110.5 207.25,-110.5 207.25,-129.75"/>
<text text-anchor="middle" x="180.88" y="-116.25" font-family="Helvetica,sans-Serif" font-size="10.00">conf.hpp</text>
</a>
</g>
</g>
<!-- Node3&#45;&gt;Node7 -->
<g id="edge6_Node000003_Node000007" class="edge">
<title>Node3&#45;&gt;Node7</title>
<g id="a_edge6_Node000003_Node000007"><a xlink:title=" ">
<path fill="none" stroke="#63b8ff" d="M210.1,-165.58C205.46,-158.53 198.8,-148.4 193.01,-139.58"/>
<polygon fill="#63b8ff" stroke="#63b8ff" points="196.03,-137.81 187.61,-131.37 190.18,-141.65 196.03,-137.81"/>
</a>
</g>
</g>
<!-- Node12 -->
<g id="Node000012" class="node">
<title>Node12</title>
<g id="a_Node000012"><a xlink:href="_logging_8hpp.xhtml" target="_top" xlink:title=" ">
<polygon fill="white" stroke="#666666" points="136.12,-129.75 67.62,-129.75 67.62,-110.5 136.12,-110.5 136.12,-129.75"/>
<text text-anchor="middle" x="101.88" y="-116.25" font-family="Helvetica,sans-Serif" font-size="10.00">Logging.hpp</text>
</a>
</g>
</g>
<!-- Node3&#45;&gt;Node12 -->
<g id="edge12_Node000003_Node000012" class="edge">
<title>Node3&#45;&gt;Node12</title>
<g id="a_edge12_Node000003_Node000012"><a xlink:title=" ">
<path fill="none" stroke="#63b8ff" d="M196.54,-165.34C178.77,-157.04 152.16,-144.61 131.67,-135.04"/>
<polygon fill="#63b8ff" stroke="#63b8ff" points="133.22,-131.9 122.68,-130.84 130.26,-138.25 133.22,-131.9"/>
</a>
</g>
</g>
<!-- Node8 -->
<g id="Node000008" class="node">
<title>Node8</title>
<g id="a_Node000008"><a xlink:title=" ">
<polygon fill="#e0e0e0" stroke="#999999" points="255.5,-19.25 210.25,-19.25 210.25,0 255.5,0 255.5,-19.25"/>
<text text-anchor="middle" x="232.88" y="-5.75" font-family="Helvetica,sans-Serif" font-size="10.00">cstdint</text>
</a>
</g>
</g>
<!-- Node7&#45;&gt;Node8 -->
<g id="edge7_Node000007_Node000008" class="edge">
<title>Node7&#45;&gt;Node8</title>
<g id="a_edge7_Node000007_Node000008"><a xlink:title=" ">
<path fill="none" stroke="#63b8ff" d="M185.13,-110.25C193.51,-92.76 212.32,-53.52 223.67,-29.84"/>
<polygon fill="#63b8ff" stroke="#63b8ff" points="226.74,-31.52 227.91,-20.99 220.43,-28.5 226.74,-31.52"/>
</a>
</g>
</g>
<!-- Node9 -->
<g id="Node000009" class="node">
<title>Node9</title>
<g id="a_Node000009"><a xlink:title=" ">
<polygon fill="#e0e0e0" stroke="#999999" points="170.88,-74.5 130.88,-74.5 130.88,-55.25 170.88,-55.25 170.88,-74.5"/>
<text text-anchor="middle" x="150.88" y="-61" font-family="Helvetica,sans-Serif" font-size="10.00">string</text>
</a>
</g>
</g>
<!-- Node7&#45;&gt;Node9 -->
<g id="edge8_Node000007_Node000009" class="edge">
<title>Node7&#45;&gt;Node9</title>
<g id="a_edge8_Node000007_Node000009"><a xlink:title=" ">
<path fill="none" stroke="#63b8ff" d="M175.92,-110.33C171.99,-103.36 166.36,-93.37 161.44,-84.62"/>
<polygon fill="#63b8ff" stroke="#63b8ff" points="164.64,-83.17 156.68,-76.18 158.54,-86.61 164.64,-83.17"/>
</a>
</g>
</g>
<!-- Node10 -->
<g id="Node000010" class="node">
<title>Node10</title>
<g id="a_Node000010"><a xlink:title=" ">
<polygon fill="#e0e0e0" stroke="#999999" points="418.5,-74.5 373.25,-74.5 373.25,-55.25 418.5,-55.25 418.5,-74.5"/>
<text text-anchor="middle" x="395.88" y="-61" font-family="Helvetica,sans-Serif" font-size="10.00">chrono</text>
</a>
</g>
</g>
<!-- Node7&#45;&gt;Node10 -->
<g id="edge9_Node000007_Node000010" class="edge">
<title>Node7&#45;&gt;Node10</title>
<g id="a_edge9_Node000007_Node000010"><a xlink:title=" ">
<path fill="none" stroke="#63b8ff" d="M207.67,-112.49C246.75,-102.81 319.36,-84.82 362.07,-74.25"/>
<polygon fill="#63b8ff" stroke="#63b8ff" points="362.68,-77.7 371.54,-71.9 360.99,-70.91 362.68,-77.7"/>
</a>
</g>
</g>
<!-- Node11 -->
<g id="Node000011" class="node">
<title>Node11</title>
<g id="a_Node000011"><a xlink:href="_machine_i_d_8hpp.xhtml" target="_top" xlink:title=" ">
<polygon fill="white" stroke="#666666" points="307.12,-74.5 226.62,-74.5 226.62,-55.25 307.12,-55.25 307.12,-74.5"/>
<text text-anchor="middle" x="266.88" y="-61" font-family="Helvetica,sans-Serif" font-size="10.00">MachineID.hpp</text>
</a>
</g>
</g>
<!-- Node7&#45;&gt;Node11 -->
<g id="edge10_Node000007_Node000011" class="edge">
<title>Node7&#45;&gt;Node11</title>
<g id="a_edge10_Node000007_Node000011"><a xlink:title=" ">
<path fill="none" stroke="#63b8ff" d="M195.46,-110.09C208.31,-102.14 227.29,-90.39 242.45,-81"/>
<polygon fill="#63b8ff" stroke="#63b8ff" points="244.27,-83.99 250.93,-75.75 240.58,-78.04 244.27,-83.99"/>
</a>
</g>
</g>
<!-- Node11&#45;&gt;Node8 -->
<g id="edge11_Node000011_Node000008" class="edge">
<title>Node11&#45;&gt;Node8</title>
<g id="a_edge11_Node000011_Node000008"><a xlink:title=" ">
<path fill="none" stroke="#63b8ff" d="M261.26,-55.08C256.76,-48.03 250.29,-37.9 244.66,-29.08"/>
<polygon fill="#63b8ff" stroke="#63b8ff" points="247.76,-27.43 239.43,-20.88 241.86,-31.2 247.76,-27.43"/>
</a>
</g>
</g>
<!-- Node13 -->
<g id="Node000013" class="node">
<title>Node13</title>
<g id="a_Node000013"><a xlink:title=" ">
<polygon fill="#e0e0e0" stroke="#999999" points="112.5,-74.5 55.25,-74.5 55.25,-55.25 112.5,-55.25 112.5,-74.5"/>
<text text-anchor="middle" x="83.88" y="-61" font-family="Helvetica,sans-Serif" font-size="10.00">esp_log.h</text>
</a>
</g>
</g>
<!-- Node12&#45;&gt;Node13 -->
<g id="edge13_Node000012_Node000013" class="edge">
<title>Node12&#45;&gt;Node13</title>
<g id="a_edge13_Node000012_Node000013"><a xlink:title=" ">
<path fill="none" stroke="#63b8ff" d="M98.9,-110.33C96.62,-103.59 93.39,-94.02 90.51,-85.49"/>
<polygon fill="#63b8ff" stroke="#63b8ff" points="93.91,-84.65 87.4,-76.29 87.28,-86.89 93.91,-84.65"/>
</a>
</g>
</g>
<!-- Node14&#45;&gt;Node6 -->
<g id="edge17_Node000014_Node000006" class="edge">
<title>Node14&#45;&gt;Node6</title>
<g id="a_edge17_Node000014_Node000006"><a xlink:title=" ">
<path fill="none" stroke="#63b8ff" d="M373.53,-165.34C364.8,-157.72 352.09,-146.62 341.58,-137.45"/>
<polygon fill="#63b8ff" stroke="#63b8ff" points="344.05,-134.96 334.21,-131.02 339.44,-140.23 344.05,-134.96"/>
</a>
</g>
</g>
<!-- Node14&#45;&gt;Node10 -->
<g id="edge15_Node000014_Node000010" class="edge">
<title>Node14&#45;&gt;Node10</title>
<g id="a_edge15_Node000014_Node000010"><a xlink:title=" ">
<path fill="none" stroke="#63b8ff" d="M390.19,-165.32C395.83,-156.64 403.67,-142.96 406.88,-129.75 410.45,-115 407.21,-98.06 403.33,-85.33"/>
<polygon fill="#63b8ff" stroke="#63b8ff" points="406.7,-84.37 400.13,-76.06 400.09,-86.65 406.7,-84.37"/>
</a>
</g>
</g>
<!-- Node15 -->
<g id="Node000015" class="node">
<title>Node15</title>
<g id="a_Node000015"><a xlink:title=" ">
<polygon fill="#e0e0e0" stroke="#999999" points="511.88,-129.75 453.88,-129.75 453.88,-110.5 511.88,-110.5 511.88,-129.75"/>
<text text-anchor="middle" x="482.88" y="-116.25" font-family="Helvetica,sans-Serif" font-size="10.00">functional</text>
</a>
</g>
</g>
<!-- Node14&#45;&gt;Node15 -->
<g id="edge16_Node000014_Node000015" class="edge">
<title>Node14&#45;&gt;Node15</title>
<g id="a_edge16_Node000014_Node000015"><a xlink:title=" ">
<path fill="none" stroke="#63b8ff" d="M400.67,-165.34C415.89,-157.16 438.57,-144.96 456.26,-135.44"/>
<polygon fill="#63b8ff" stroke="#63b8ff" points="457.52,-138.74 464.67,-130.92 454.2,-132.57 457.52,-138.74"/>
</a>
</g>
</g>
<!-- Node16 -->
<g id="Node000016" class="node">
<title>Node16</title>
<g id="a_Node000016"><a xlink:title=" ">
<polygon fill="#e0e0e0" stroke="#999999" points="398.27,-129.75 369.48,-129.75 369.48,-110.5 398.27,-110.5 398.27,-129.75"/>
<text text-anchor="middle" x="383.88" y="-116.25" font-family="Helvetica,sans-Serif" font-size="10.00">list</text>
</a>
</g>
</g>
<!-- Node14&#45;&gt;Node16 -->
<g id="edge18_Node000014_Node000016" class="edge">
<title>Node14&#45;&gt;Node16</title>
<g id="a_edge18_Node000014_Node000016"><a xlink:title=" ">
<path fill="none" stroke="#63b8ff" d="M383.88,-165.58C383.88,-159.07 383.88,-149.92 383.88,-141.62"/>
<polygon fill="#63b8ff" stroke="#63b8ff" points="387.38,-141.62 383.88,-131.62 380.38,-141.62 387.38,-141.62"/>
</a>
</g>
</g>
</g>
</svg>

<g id="navigator" transform="translate(0 0)" fill="#404254">
  <rect fill="#f2f5e9" fill-opacity="0.5" stroke="#606060" stroke-width=".5" x="0" y="0" width="60" height="60"/>
  <use id="zoomplus" xlink:href="#zoomPlus" x="17" y="9" onmousedown="handleZoom(evt,'in')"/>
  <use id="zoomminus" xlink:href="#zoomMin" x="42" y="9" onmousedown="handleZoom(evt,'out')"/>
  <use id="reset" xlink:href="#resetDef" x="30" y="36" onmousedown="handleReset()"/>
   <use id="arrowup" xlink:href="#arrowUp" x="0" y="0" onmousedown="handlePan(0,-1)"/>
  <use id="arrowright" xlink:href="#arrowRight" x="0" y="0" onmousedown="handlePan(1,0)"/>
  <use id="arrowdown" xlink:href="#arrowDown" x="0" y="0" onmousedown="handlePan(0,1)"/>
  <use id="arrowleft" xlink:href="#arrowLeft" x="0" y="0" onmousedown="handlePan(-1,0)"/>
</g>
<svg viewBox="0 0 15 15" width="100%" height="30px" preserveAspectRatio="xMaxYMin meet">
 <g id="arrow_out" transform="scale(0.3 0.3)">
  <a xlink:href="_base_rfid_wrapper_8hpp__incl_org.svg" target="_base">
   <rect id="button" ry="5" rx="5" y="6" x="6" height="38" width="38"
        fill="#f2f5e9" fill-opacity="0.5" stroke="#606060" stroke-width="1.0"/>
   <path id="arrow"
     d="M 11.500037,31.436501 C 11.940474,20.09759 22.043105,11.32322 32.158766,21.979434 L 37.068811,17.246167 C 37.068811,17.246167 37.088388,32 37.088388,32 L 22.160133,31.978069 C 22.160133,31.978069 26.997745,27.140456 26.997745,27.140456 C 18.528582,18.264221 13.291696,25.230495 11.500037,31.436501 z"
     style="fill:#404040;"/>
  </a>
 </g>
</svg>

<style type='text/css'>
<![CDATA[
[data-mouse-over-selected='false'] { opacity: 0.7; }
[data-mouse-over-selected='true']  { opacity: 1.0; }
]]>
</style>
<script type="application/ecmascript"><![CDATA[
document.addEventListener('DOMContentLoaded', (event) => {
  highlightEdges();
  highlightAdjacentNodes();
});
]]></script>
</svg>
