<?xml version="1.0" encoding="UTF-8" standalone="no"?>
<!DOCTYPE svg PUBLIC "-//W3C//DTD SVG 1.1//EN"
 "http://www.w3.org/Graphics/SVG/1.1/DTD/svg11.dtd">
<!-- Generated by graphviz version 9.0.0 (20230911.1827)
 -->
<!-- Title: BoardLogic.hpp Pages: 1 -->
<svg width="680pt" height="138pt"
 viewBox="0.00 0.00 679.50 137.75" xmlns="http://www.w3.org/2000/svg" xmlns:xlink="http://www.w3.org/1999/xlink">
<g id="graph0" class="graph" transform="scale(1 1) rotate(0) translate(4 133.75)">
<title>BoardLogic.hpp</title>
<!-- Node1 -->
<g id="Node000001" class="node">
<title>Node1</title>
<g id="a_Node000001"><a xlink:title=" ">
<polygon fill="#999999" stroke="#666666" points="346.5,-129.75 263,-129.75 263,-110.5 346.5,-110.5 346.5,-129.75"/>
<text text-anchor="middle" x="304.75" y="-116.25" font-family="Helvetica,sans-Serif" font-size="10.00">BoardLogic.hpp</text>
</a>
</g>
</g>
<!-- Node2 -->
<g id="Node000002" class="node">
<title>Node2</title>
<g id="a_Node000002"><a xlink:href="_board_logic_8cpp.xhtml" target="_top" xlink:title=" ">
<polygon fill="white" stroke="#666666" points="83.5,-74.5 0,-74.5 0,-55.25 83.5,-55.25 83.5,-74.5"/>
<text text-anchor="middle" x="41.75" y="-61" font-family="Helvetica,sans-Serif" font-size="10.00">BoardLogic.cpp</text>
</a>
</g>
</g>
<!-- Node1&#45;&gt;Node2 -->
<g id="edge1_Node000001_Node000002" class="edge">
<title>Node1&#45;&gt;Node2</title>
<g id="a_edge1_Node000001_Node000002"><a xlink:title=" ">
<path fill="none" stroke="#63b8ff" d="M251.69,-108.38C202.28,-98.38 129.59,-83.66 84,-74.43"/>
<polygon fill="#63b8ff" stroke="#63b8ff" points="250.81,-111.77 261.3,-110.33 252.2,-104.91 250.81,-111.77"/>
</a>
</g>
</g>
<!-- Node3 -->
<g id="Node000003" class="node">
<title>Node3</title>
<g id="a_Node000003"><a xlink:href="_o_t_a_8cpp.xhtml" target="_top" xlink:title=" ">
<polygon fill="white" stroke="#666666" points="155.88,-74.5 101.62,-74.5 101.62,-55.25 155.88,-55.25 155.88,-74.5"/>
<text text-anchor="middle" x="128.75" y="-61" font-family="Helvetica,sans-Serif" font-size="10.00">OTA.cpp</text>
</a>
</g>
</g>
<!-- Node1&#45;&gt;Node3 -->
<g id="edge2_Node000001_Node000003" class="edge">
<title>Node1&#45;&gt;Node3</title>
<g id="a_edge2_Node000001_Node000003"><a xlink:title=" ">
<path fill="none" stroke="#63b8ff" d="M264.19,-106.85C231.04,-96.82 185.09,-82.92 156.14,-74.16"/>
<polygon fill="#63b8ff" stroke="#63b8ff" points="262.86,-110.11 273.45,-109.65 264.89,-103.41 262.86,-110.11"/>
</a>
</g>
</g>
<!-- Node4 -->
<g id="Node000004" class="node">
<title>Node4</title>
<g id="a_Node000004"><a xlink:href="globals_8hpp.xhtml" target="_top" xlink:title=" ">
<polygon fill="white" stroke="#666666" points="239.12,-74.5 174.38,-74.5 174.38,-55.25 239.12,-55.25 239.12,-74.5"/>
<text text-anchor="middle" x="206.75" y="-61" font-family="Helvetica,sans-Serif" font-size="10.00">globals.hpp</text>
</a>
</g>
</g>
<!-- Node1&#45;&gt;Node4 -->
<g id="edge3_Node000001_Node000004" class="edge">
<title>Node1&#45;&gt;Node4</title>
<g id="a_edge3_Node000001_Node000004"><a xlink:title=" ">
<path fill="none" stroke="#63b8ff" d="M278.5,-104.86C261.01,-95.36 238.55,-83.15 223.46,-74.95"/>
<polygon fill="#63b8ff" stroke="#63b8ff" points="276.34,-107.67 286.8,-109.37 279.68,-101.52 276.34,-107.67"/>
</a>
</g>
</g>
<!-- Node5 -->
<g id="Node000005" class="node">
<title>Node5</title>
<g id="a_Node000005"><a xlink:href="main_8cpp.xhtml" target="_top" xlink:title=" ">
<polygon fill="white" stroke="#666666" points="246.25,-19.25 191.25,-19.25 191.25,0 246.25,0 246.25,-19.25"/>
<text text-anchor="middle" x="218.75" y="-5.75" font-family="Helvetica,sans-Serif" font-size="10.00">main.cpp</text>
</a>
</g>
</g>
<!-- Node1&#45;&gt;Node5 -->
<g id="edge5_Node000001_Node000005" class="edge">
<title>Node1&#45;&gt;Node5</title>
<g id="a_edge5_Node000001_Node000005"><a xlink:title=" ">
<path fill="none" stroke="#63b8ff" d="M290.66,-101.35C272.08,-77.91 240.08,-37.53 225.88,-19.63"/>
<polygon fill="#63b8ff" stroke="#63b8ff" points="287.82,-103.4 296.77,-109.06 293.3,-99.05 287.82,-103.4"/>
</a>
</g>
</g>
<!-- Node6 -->
<g id="Node000006" class="node">
<title>Node6</title>
<g id="a_Node000006"><a xlink:href="test__common_8cpp.xhtml" target="_top" xlink:title=" ">
<polygon fill="white" stroke="#666666" points="360.38,-19.25 267.12,-19.25 267.12,0 360.38,0 360.38,-19.25"/>
<text text-anchor="middle" x="313.75" y="-5.75" font-family="Helvetica,sans-Serif" font-size="10.00">test_common.cpp</text>
</a>
</g>
</g>
<!-- Node1&#45;&gt;Node6 -->
<g id="edge6_Node000001_Node000006" class="edge">
<title>Node1&#45;&gt;Node6</title>
<g id="a_edge6_Node000001_Node000006"><a xlink:title=" ">
<path fill="none" stroke="#63b8ff" d="M306.44,-98.78C308.41,-75.05 311.57,-36.89 313,-19.63"/>
<polygon fill="#63b8ff" stroke="#63b8ff" points="302.95,-98.48 305.61,-108.74 309.93,-99.06 302.95,-98.48"/>
</a>
</g>
</g>
<!-- Node7 -->
<g id="Node000007" class="node">
<title>Node7</title>
<g id="a_Node000007"><a xlink:href="test__common_8h.xhtml" target="_top" xlink:title=" ">
<polygon fill="white" stroke="#666666" points="415.12,-74.5 332.38,-74.5 332.38,-55.25 415.12,-55.25 415.12,-74.5"/>
<text text-anchor="middle" x="373.75" y="-61" font-family="Helvetica,sans-Serif" font-size="10.00">test_common.h</text>
</a>
</g>
</g>
<!-- Node1&#45;&gt;Node7 -->
<g id="edge7_Node000001_Node000007" class="edge">
<title>Node1&#45;&gt;Node7</title>
<g id="a_edge7_Node000001_Node000007"><a xlink:title=" ">
<path fill="none" stroke="#63b8ff" d="M325.4,-103.19C337.45,-93.89 352.2,-82.51 362.22,-74.77"/>
<polygon fill="#63b8ff" stroke="#63b8ff" points="323.43,-100.29 317.65,-109.17 327.71,-105.83 323.43,-100.29"/>
</a>
</g>
</g>
<!-- Node8 -->
<g id="Node000008" class="node">
<title>Node8</title>
<g id="a_Node000008"><a xlink:href="test__logic_8cpp.xhtml" target="_top" xlink:title=" ">
<polygon fill="white" stroke="#666666" points="471.75,-19.25 395.75,-19.25 395.75,0 471.75,0 471.75,-19.25"/>
<text text-anchor="middle" x="433.75" y="-5.75" font-family="Helvetica,sans-Serif" font-size="10.00">test_logic.cpp</text>
</a>
</g>
</g>
<!-- Node1&#45;&gt;Node8 -->
<g id="edge10_Node000001_Node000008" class="edge">
<title>Node1&#45;&gt;Node8</title>
<g id="a_edge10_Node000001_Node000008"><a xlink:title=" ">
<path fill="none" stroke="#63b8ff" d="M357.76,-111.57C381.39,-105.47 407.51,-94.44 423.75,-74.5 436.65,-58.66 436.26,-33.06 434.96,-19.58"/>
<polygon fill="#63b8ff" stroke="#63b8ff" points="357.19,-108.11 348.24,-113.78 358.77,-114.93 357.19,-108.11"/>
</a>
</g>
</g>
<!-- Node9 -->
<g id="Node000009" class="node">
<title>Node9</title>
<g id="a_Node000009"><a xlink:href="test__mqtt_8cpp.xhtml" target="_top" xlink:title=" ">
<polygon fill="white" stroke="#666666" points="546.38,-74.5 471.12,-74.5 471.12,-55.25 546.38,-55.25 546.38,-74.5"/>
<text text-anchor="middle" x="508.75" y="-61" font-family="Helvetica,sans-Serif" font-size="10.00">test_mqtt.cpp</text>
</a>
</g>
</g>
<!-- Node1&#45;&gt;Node9 -->
<g id="edge11_Node000001_Node000009" class="edge">
<title>Node1&#45;&gt;Node9</title>
<g id="a_edge11_Node000001_Node000009"><a xlink:title=" ">
<path fill="none" stroke="#63b8ff" d="M350.45,-107.2C387.84,-97.44 439.92,-83.84 473.97,-74.95"/>
<polygon fill="#63b8ff" stroke="#63b8ff" points="349.61,-103.8 340.82,-109.71 351.38,-110.57 349.61,-103.8"/>
</a>
</g>
</g>
<!-- Node10 -->
<g id="Node000010" class="node">
<title>Node10</title>
<g id="a_Node000010"><a xlink:href="test__savedconfig_8cpp.xhtml" target="_top" xlink:title=" ">
<polygon fill="white" stroke="#666666" points="671.5,-74.5 564,-74.5 564,-55.25 671.5,-55.25 671.5,-74.5"/>
<text text-anchor="middle" x="617.75" y="-61" font-family="Helvetica,sans-Serif" font-size="10.00">test_savedconfig.cpp</text>
</a>
</g>
</g>
<!-- Node1&#45;&gt;Node10 -->
<g id="edge12_Node000001_Node000010" class="edge">
<title>Node1&#45;&gt;Node10</title>
<g id="a_edge12_Node000001_Node000010"><a xlink:title=" ">
<path fill="none" stroke="#63b8ff" d="M357.99,-110.07C415.49,-100.29 506.56,-84.79 564.18,-74.99"/>
<polygon fill="#63b8ff" stroke="#63b8ff" points="357.73,-106.56 348.45,-111.69 358.9,-113.46 357.73,-106.56"/>
</a>
</g>
</g>
<!-- Node4&#45;&gt;Node5 -->
<g id="edge4_Node000004_Node000005" class="edge">
<title>Node4&#45;&gt;Node5</title>
<g id="a_edge4_Node000004_Node000005"><a xlink:title=" ">
<path fill="none" stroke="#63b8ff" d="M211.25,-43.92C213.13,-35.55 215.23,-26.25 216.73,-19.61"/>
<polygon fill="#63b8ff" stroke="#63b8ff" points="207.85,-43.08 209.06,-53.61 214.68,-44.62 207.85,-43.08"/>
</a>
</g>
</g>
<!-- Node7&#45;&gt;Node6 -->
<g id="edge8_Node000007_Node000006" class="edge">
<title>Node7&#45;&gt;Node6</title>
<g id="a_edge8_Node000007_Node000006"><a xlink:title=" ">
<path fill="none" stroke="#63b8ff" d="M355.17,-47.39C344.81,-38.19 332.32,-27.1 323.78,-19.52"/>
<polygon fill="#63b8ff" stroke="#63b8ff" points="352.64,-49.82 362.44,-53.84 357.28,-44.58 352.64,-49.82"/>
</a>
</g>
</g>
<!-- Node7&#45;&gt;Node8 -->
<g id="edge9_Node000007_Node000008" class="edge">
<title>Node7&#45;&gt;Node8</title>
<g id="a_edge9_Node000007_Node000008"><a xlink:title=" ">
<path fill="none" stroke="#63b8ff" d="M392.33,-47.39C402.69,-38.19 415.18,-27.1 423.72,-19.52"/>
<polygon fill="#63b8ff" stroke="#63b8ff" points="390.22,-44.58 385.06,-53.84 394.86,-49.82 390.22,-44.58"/>
</a>
</g>
</g>
</g>
</svg>
