<?xml version="1.0" encoding="UTF-8" standalone="no"?>
<!DOCTYPE svg PUBLIC "-//W3C//DTD SVG 1.1//EN"
 "http://www.w3.org/Graphics/SVG/1.1/DTD/svg11.dtd">
<!-- Generated by graphviz version 9.0.0 (20230911.1827)
 -->
<!-- Title: BufferedMsg.hpp Pages: 1 -->
<svg width="1181pt" height="414pt"
 viewBox="0.00 0.00 1181.00 414.00" xmlns="http://www.w3.org/2000/svg" xmlns:xlink="http://www.w3.org/1999/xlink">
<g id="graph0" class="graph" transform="scale(1 1) rotate(0) translate(4 410)">
<title>BufferedMsg.hpp</title>
<!-- Node1 -->
<g id="Node000001" class="node">
<title>Node1</title>
<g id="a_Node000001"><a xlink:title=" ">
<polygon fill="#999999" stroke="#666666" points="588.38,-406 499.62,-406 499.62,-386.75 588.38,-386.75 588.38,-406"/>
<text text-anchor="middle" x="544" y="-392.5" font-family="Helvetica,sans-Serif" font-size="10.00">BufferedMsg.hpp</text>
</a>
</g>
</g>
<!-- Node2 -->
<g id="Node000002" class="node">
<title>Node2</title>
<g id="a_Node000002"><a xlink:title=" ">
<polygon fill="#e0e0e0" stroke="#999999" points="446.88,-240.25 397.12,-240.25 397.12,-221 446.88,-221 446.88,-240.25"/>
<text text-anchor="middle" x="422" y="-226.75" font-family="Helvetica,sans-Serif" font-size="10.00">optional</text>
</a>
</g>
</g>
<!-- Node1&#45;&gt;Node2 -->
<g id="edge1_Node000001_Node000002" class="edge">
<title>Node1&#45;&gt;Node2</title>
<g id="a_edge1_Node000001_Node000002"><a xlink:title=" ">
<path fill="none" stroke="#63b8ff" d="M531.41,-386.46C520.18,-378.1 503.75,-364.8 492,-350.75 465.3,-318.82 442.63,-275.45 430.8,-250.81"/>
<polygon fill="#63b8ff" stroke="#63b8ff" points="434.09,-249.57 426.67,-242.01 427.75,-252.55 434.09,-249.57"/>
</a>
</g>
</g>
<!-- Node3 -->
<g id="Node000003" class="node">
<title>Node3</title>
<g id="a_Node000003"><a xlink:title=" ">
<polygon fill="#e0e0e0" stroke="#999999" points="723.12,-350.75 680.88,-350.75 680.88,-331.5 723.12,-331.5 723.12,-350.75"/>
<text text-anchor="middle" x="702" y="-337.25" font-family="Helvetica,sans-Serif" font-size="10.00">queue</text>
</a>
</g>
</g>
<!-- Node1&#45;&gt;Node3 -->
<g id="edge2_Node000001_Node000003" class="edge">
<title>Node1&#45;&gt;Node3</title>
<g id="a_edge2_Node000001_Node000003"><a xlink:title=" ">
<path fill="none" stroke="#63b8ff" d="M570.8,-386.34C598.16,-377.12 640.64,-362.8 669.81,-352.98"/>
<polygon fill="#63b8ff" stroke="#63b8ff" points="670.86,-356.31 679.22,-349.8 668.62,-349.68 670.86,-356.31"/>
</a>
</g>
</g>
<!-- Node4 -->
<g id="Node000004" class="node">
<title>Node4</title>
<g id="a_Node000004"><a xlink:title=" ">
<polygon fill="#e0e0e0" stroke="#999999" points="96,-74.5 56,-74.5 56,-55.25 96,-55.25 96,-74.5"/>
<text text-anchor="middle" x="76" y="-61" font-family="Helvetica,sans-Serif" font-size="10.00">string</text>
</a>
</g>
</g>
<!-- Node1&#45;&gt;Node4 -->
<g id="edge3_Node000001_Node000004" class="edge">
<title>Node1&#45;&gt;Node4</title>
<g id="a_edge3_Node000001_Node000004"><a xlink:title=" ">
<path fill="none" stroke="#63b8ff" d="M499.48,-395.91C369.56,-396.3 0,-388.48 0,-286.88 0,-286.88 0,-286.88 0,-174.38 0,-135.77 32.68,-101.14 55.18,-81.87"/>
<polygon fill="#63b8ff" stroke="#63b8ff" points="57.11,-84.82 62.62,-75.77 52.67,-79.41 57.11,-84.82"/>
</a>
</g>
</g>
<!-- Node5 -->
<g id="Node000005" class="node">
<title>Node5</title>
<g id="a_Node000005"><a xlink:title=" ">
<polygon fill="#e0e0e0" stroke="#999999" points="763.25,-295.5 712.75,-295.5 712.75,-276.25 763.25,-276.25 763.25,-295.5"/>
<text text-anchor="middle" x="738" y="-282" font-family="Helvetica,sans-Serif" font-size="10.00">memory</text>
</a>
</g>
</g>
<!-- Node1&#45;&gt;Node5 -->
<g id="edge4_Node000001_Node000005" class="edge">
<title>Node1&#45;&gt;Node5</title>
<g id="a_edge4_Node000001_Node000005"><a xlink:title=" ">
<path fill="none" stroke="#63b8ff" d="M555.88,-386.43C573.47,-373.41 607.74,-348.89 639,-331.5 660.17,-319.72 685.03,-308.52 704.54,-300.29"/>
<polygon fill="#63b8ff" stroke="#63b8ff" points="705.77,-303.57 713.66,-296.5 703.08,-297.11 705.77,-303.57"/>
</a>
</g>
</g>
<!-- Node6 -->
<g id="Node000006" class="node">
<title>Node6</title>
<g id="a_Node000006"><a xlink:title=" ">
<polygon fill="#e0e0e0" stroke="#999999" points="858.75,-295.5 781.25,-295.5 781.25,-276.25 858.75,-276.25 858.75,-295.5"/>
<text text-anchor="middle" x="820" y="-282" font-family="Helvetica,sans-Serif" font-size="10.00">ArduinoJson.h</text>
</a>
</g>
</g>
<!-- Node1&#45;&gt;Node6 -->
<g id="edge5_Node000001_Node000006" class="edge">
<title>Node1&#45;&gt;Node6</title>
<g id="a_edge5_Node000001_Node000006"><a xlink:title=" ">
<path fill="none" stroke="#63b8ff" d="M564.64,-386.32C584.06,-377.65 613.83,-363.97 639,-350.75 654.03,-342.85 656.43,-338.28 672,-331.5 703.75,-317.68 741.09,-306.46 770.32,-298.72"/>
<polygon fill="#63b8ff" stroke="#63b8ff" points="770.83,-302.21 779.63,-296.31 769.07,-295.43 770.83,-302.21"/>
</a>
</g>
</g>
<!-- Node7 -->
<g id="Node000007" class="node">
<title>Node7</title>
<g id="a_Node000007"><a xlink:href="_machine_i_d_8hpp.xhtml" target="_top" xlink:title=" ">
<polygon fill="white" stroke="#666666" points="611.25,-74.5 530.75,-74.5 530.75,-55.25 611.25,-55.25 611.25,-74.5"/>
<text text-anchor="middle" x="571" y="-61" font-family="Helvetica,sans-Serif" font-size="10.00">MachineID.hpp</text>
</a>
</g>
</g>
<!-- Node1&#45;&gt;Node7 -->
<g id="edge6_Node000001_Node000007" class="edge">
<title>Node1&#45;&gt;Node7</title>
<g id="a_edge6_Node000001_Node000007"><a xlink:title=" ">
<path fill="none" stroke="#63b8ff" d="M499.2,-393.55C389.07,-387.84 114,-365.7 114,-286.88 114,-286.88 114,-286.88 114,-174.38 114,-144.76 110.19,-129.39 133,-110.5 162.22,-86.31 409.5,-72.8 519.09,-67.96"/>
<polygon fill="#63b8ff" stroke="#63b8ff" points="519.15,-71.46 528.99,-67.53 518.84,-64.46 519.15,-71.46"/>
</a>
</g>
</g>
<!-- Node9 -->
<g id="Node000009" class="node">
<title>Node9</title>
<g id="a_Node000009"><a xlink:href="_m_q_t_ttypes_8hpp.xhtml" target="_top" xlink:title=" ">
<polygon fill="white" stroke="#666666" points="586.5,-350.75 501.5,-350.75 501.5,-331.5 586.5,-331.5 586.5,-350.75"/>
<text text-anchor="middle" x="544" y="-337.25" font-family="Helvetica,sans-Serif" font-size="10.00">MQTTtypes.hpp</text>
</a>
</g>
</g>
<!-- Node1&#45;&gt;Node9 -->
<g id="edge8_Node000001_Node000009" class="edge">
<title>Node1&#45;&gt;Node9</title>
<g id="a_edge8_Node000001_Node000009"><a xlink:title=" ">
<path fill="none" stroke="#63b8ff" d="M544,-386.58C544,-380.07 544,-370.92 544,-362.62"/>
<polygon fill="#63b8ff" stroke="#63b8ff" points="547.5,-362.62 544,-352.62 540.5,-362.62 547.5,-362.62"/>
</a>
</g>
</g>
<!-- Node8 -->
<g id="Node000008" class="node">
<title>Node8</title>
<g id="a_Node000008"><a xlink:title=" ">
<polygon fill="#e0e0e0" stroke="#999999" points="699.62,-19.25 654.38,-19.25 654.38,0 699.62,0 699.62,-19.25"/>
<text text-anchor="middle" x="677" y="-5.75" font-family="Helvetica,sans-Serif" font-size="10.00">cstdint</text>
</a>
</g>
</g>
<!-- Node7&#45;&gt;Node8 -->
<g id="edge7_Node000007_Node000008" class="edge">
<title>Node7&#45;&gt;Node8</title>
<g id="a_edge7_Node000007_Node000008"><a xlink:title=" ">
<path fill="none" stroke="#63b8ff" d="M588.98,-54.84C605.35,-46.62 629.79,-34.34 648.76,-24.81"/>
<polygon fill="#63b8ff" stroke="#63b8ff" points="650.21,-28 657.58,-20.38 647.07,-21.74 650.21,-28"/>
</a>
</g>
</g>
<!-- Node9&#45;&gt;Node4 -->
<g id="edge53_Node000009_Node000004" class="edge">
<title>Node9&#45;&gt;Node4</title>
<g id="a_edge53_Node000009_Node000004"><a xlink:title=" ">
<path fill="none" stroke="#63b8ff" d="M501.29,-340.02C379.3,-338.57 38,-326.07 38,-231.62 38,-231.62 38,-231.62 38,-174.38 38,-141.38 53.84,-105.76 65.07,-84.66"/>
<polygon fill="#63b8ff" stroke="#63b8ff" points="68.02,-86.55 69.82,-76.11 61.9,-83.15 68.02,-86.55"/>
</a>
</g>
</g>
<!-- Node9&#45;&gt;Node5 -->
<g id="edge54_Node000009_Node000005" class="edge">
<title>Node9&#45;&gt;Node5</title>
<g id="a_edge54_Node000009_Node000005"><a xlink:title=" ">
<path fill="none" stroke="#63b8ff" d="M576.91,-331.09C611.44,-321.61 665.59,-306.75 701.43,-296.91"/>
<polygon fill="#63b8ff" stroke="#63b8ff" points="702.2,-300.33 710.92,-294.31 700.35,-293.58 702.2,-300.33"/>
</a>
</g>
</g>
<!-- Node9&#45;&gt;Node6 -->
<g id="edge9_Node000009_Node000006" class="edge">
<title>Node9&#45;&gt;Node6</title>
<g id="a_edge9_Node000009_Node000006"><a xlink:title=" ">
<path fill="none" stroke="#63b8ff" d="M586.82,-331.86C636.33,-322.31 717.72,-306.61 770.07,-296.51"/>
<polygon fill="#63b8ff" stroke="#63b8ff" points="770.45,-300 779.61,-294.67 769.13,-293.13 770.45,-300"/>
</a>
</g>
</g>
<!-- Node10 -->
<g id="Node000010" class="node">
<title>Node10</title>
<g id="a_Node000010"><a xlink:href="_fab_user_8hpp.xhtml" target="_top" xlink:title=" ">
<polygon fill="white" stroke="#666666" points="574.75,-240.25 503.25,-240.25 503.25,-221 574.75,-221 574.75,-240.25"/>
<text text-anchor="middle" x="539" y="-226.75" font-family="Helvetica,sans-Serif" font-size="10.00">FabUser.hpp</text>
</a>
</g>
</g>
<!-- Node9&#45;&gt;Node10 -->
<g id="edge10_Node000009_Node000010" class="edge">
<title>Node9&#45;&gt;Node10</title>
<g id="a_edge10_Node000009_Node000010"><a xlink:title=" ">
<path fill="none" stroke="#63b8ff" d="M540.8,-331.04C537.84,-322.12 533.66,-308.07 532,-295.5 530.07,-280.9 531.99,-264.38 534.31,-251.79"/>
<polygon fill="#63b8ff" stroke="#63b8ff" points="537.69,-252.72 536.31,-242.22 530.84,-251.29 537.69,-252.72"/>
</a>
</g>
</g>
<!-- Node12 -->
<g id="Node000012" class="node">
<title>Node12</title>
<g id="a_Node000012"><a xlink:href="card_8hpp.xhtml" target="_top" xlink:title=" ">
<polygon fill="white" stroke="#666666" points="432.38,-185 379.62,-185 379.62,-165.75 432.38,-165.75 432.38,-185"/>
<text text-anchor="middle" x="406" y="-171.5" font-family="Helvetica,sans-Serif" font-size="10.00">card.hpp</text>
</a>
</g>
</g>
<!-- Node9&#45;&gt;Node12 -->
<g id="edge52_Node000009_Node000012" class="edge">
<title>Node9&#45;&gt;Node12</title>
<g id="a_edge52_Node000009_Node000012"><a xlink:title=" ">
<path fill="none" stroke="#63b8ff" d="M538.38,-331.28C525.21,-310.85 490.82,-259.19 456,-221 446.83,-210.94 435.6,-200.75 426.1,-192.66"/>
<polygon fill="#63b8ff" stroke="#63b8ff" points="428.41,-190.03 418.49,-186.31 423.93,-195.4 428.41,-190.03"/>
</a>
</g>
</g>
<!-- Node21 -->
<g id="Node000021" class="node">
<title>Node21</title>
<g id="a_Node000021"><a xlink:href="_machine_8hpp.xhtml" target="_top" xlink:title=" ">
<polygon fill="white" stroke="#666666" points="611.38,-295.5 540.62,-295.5 540.62,-276.25 611.38,-276.25 611.38,-295.5"/>
<text text-anchor="middle" x="576" y="-282" font-family="Helvetica,sans-Serif" font-size="10.00">Machine.hpp</text>
</a>
</g>
</g>
<!-- Node9&#45;&gt;Node21 -->
<g id="edge29_Node000009_Node000021" class="edge">
<title>Node9&#45;&gt;Node21</title>
<g id="a_edge29_Node000009_Node000021"><a xlink:title=" ">
<path fill="none" stroke="#63b8ff" d="M549.28,-331.33C553.47,-324.36 559.48,-314.37 564.73,-305.62"/>
<polygon fill="#63b8ff" stroke="#63b8ff" points="567.67,-307.53 569.82,-297.16 561.67,-303.93 567.67,-307.53"/>
</a>
</g>
</g>
<!-- Node29 -->
<g id="Node000029" class="node">
<title>Node29</title>
<g id="a_Node000029"><a xlink:title=" ">
<polygon fill="#e0e0e0" stroke="#999999" points="694.75,-295.5 629.25,-295.5 629.25,-276.25 694.75,-276.25 694.75,-295.5"/>
<text text-anchor="middle" x="662" y="-282" font-family="Helvetica,sans-Serif" font-size="10.00">string_view</text>
</a>
</g>
</g>
<!-- Node9&#45;&gt;Node29 -->
<g id="edge55_Node000009_Node000029" class="edge">
<title>Node9&#45;&gt;Node29</title>
<g id="a_edge55_Node000009_Node000029"><a xlink:title=" ">
<path fill="none" stroke="#63b8ff" d="M564.02,-331.09C582.49,-322.75 610.21,-310.25 631.45,-300.66"/>
<polygon fill="#63b8ff" stroke="#63b8ff" points="632.83,-303.88 640.51,-296.58 629.95,-297.5 632.83,-303.88"/>
</a>
</g>
</g>
<!-- Node10&#45;&gt;Node4 -->
<g id="edge28_Node000010_Node000004" class="edge">
<title>Node10&#45;&gt;Node4</title>
<g id="a_edge28_Node000010_Node000004"><a xlink:title=" ">
<path fill="none" stroke="#63b8ff" d="M502.76,-223.55C415.51,-208.48 196.28,-167.83 133,-129.75 114.14,-118.4 98.03,-98.82 87.8,-84.31"/>
<polygon fill="#63b8ff" stroke="#63b8ff" points="90.76,-82.45 82.27,-76.1 84.95,-86.35 90.76,-82.45"/>
</a>
</g>
</g>
<!-- Node10&#45;&gt;Node8 -->
<g id="edge26_Node000010_Node000008" class="edge">
<title>Node10&#45;&gt;Node8</title>
<g id="a_edge26_Node000010_Node000008"><a xlink:title=" ">
<path fill="none" stroke="#63b8ff" d="M546.42,-220.78C553.93,-211.8 565.84,-197.5 576,-185 595.8,-160.64 603.34,-156.36 620,-129.75 640.82,-96.5 659.27,-54.49 669.22,-30.27"/>
<polygon fill="#63b8ff" stroke="#63b8ff" points="672.44,-31.64 672.94,-21.06 665.95,-29.02 672.44,-31.64"/>
</a>
</g>
</g>
<!-- Node11 -->
<g id="Node000011" class="node">
<title>Node11</title>
<g id="a_Node000011"><a xlink:title=" ">
<polygon fill="#e0e0e0" stroke="#999999" points="503.25,-129.75 446.75,-129.75 446.75,-110.5 503.25,-110.5 503.25,-129.75"/>
<text text-anchor="middle" x="475" y="-116.25" font-family="Helvetica,sans-Serif" font-size="10.00">Arduino.h</text>
</a>
</g>
</g>
<!-- Node10&#45;&gt;Node11 -->
<g id="edge11_Node000010_Node000011" class="edge">
<title>Node10&#45;&gt;Node11</title>
<g id="a_edge11_Node000010_Node000011"><a xlink:title=" ">
<path fill="none" stroke="#63b8ff" d="M533.76,-220.75C523.4,-203.18 500.09,-163.66 486.14,-140.02"/>
<polygon fill="#63b8ff" stroke="#63b8ff" points="489.17,-138.27 481.08,-131.43 483.14,-141.82 489.17,-138.27"/>
</a>
</g>
</g>
<!-- Node10&#45;&gt;Node12 -->
<g id="edge12_Node000010_Node000012" class="edge">
<title>Node10&#45;&gt;Node12</title>
<g id="a_edge12_Node000010_Node000012"><a xlink:title=" ">
<path fill="none" stroke="#63b8ff" d="M516.44,-220.59C495.23,-212.1 463.23,-199.29 439.12,-189.64"/>
<polygon fill="#63b8ff" stroke="#63b8ff" points="440.66,-186.48 430.08,-186.02 438.06,-192.98 440.66,-186.48"/>
</a>
</g>
</g>
<!-- Node13 -->
<g id="Node000013" class="node">
<title>Node13</title>
<g id="a_Node000013"><a xlink:title=" ">
<polygon fill="#e0e0e0" stroke="#999999" points="428.62,-129.75 377.38,-129.75 377.38,-110.5 428.62,-110.5 428.62,-129.75"/>
<text text-anchor="middle" x="403" y="-116.25" font-family="Helvetica,sans-Serif" font-size="10.00">sstream</text>
</a>
</g>
</g>
<!-- Node10&#45;&gt;Node13 -->
<g id="edge27_Node000010_Node000013" class="edge">
<title>Node10&#45;&gt;Node13</title>
<g id="a_edge27_Node000010_Node000013"><a xlink:title=" ">
<path fill="none" stroke="#63b8ff" d="M527.87,-220.75C504.96,-202.47 452.23,-160.4 423.16,-137.21"/>
<polygon fill="#63b8ff" stroke="#63b8ff" points="425.47,-134.57 415.47,-131.07 421.1,-140.04 425.47,-134.57"/>
</a>
</g>
</g>
<!-- Node15 -->
<g id="Node000015" class="node">
<title>Node15</title>
<g id="a_Node000015"><a xlink:href="conf_8hpp.xhtml" target="_top" xlink:title=" ">
<polygon fill="white" stroke="#666666" points="611.38,-129.75 558.62,-129.75 558.62,-110.5 611.38,-110.5 611.38,-129.75"/>
<text text-anchor="middle" x="585" y="-116.25" font-family="Helvetica,sans-Serif" font-size="10.00">conf.hpp</text>
</a>
</g>
</g>
<!-- Node10&#45;&gt;Node15 -->
<g id="edge24_Node000010_Node000015" class="edge">
<title>Node10&#45;&gt;Node15</title>
<g id="a_edge24_Node000010_Node000015"><a xlink:title=" ">
<path fill="none" stroke="#63b8ff" d="M542.76,-220.75C550.14,-203.34 566.66,-164.37 576.72,-140.66"/>
<polygon fill="#63b8ff" stroke="#63b8ff" points="579.91,-142.09 580.59,-131.52 573.47,-139.36 579.91,-142.09"/>
</a>
</g>
</g>
<!-- Node20 -->
<g id="Node000020" class="node">
<title>Node20</title>
<g id="a_Node000020"><a xlink:title=" ">
<polygon fill="#e0e0e0" stroke="#999999" points="1091.5,-19.25 1054.5,-19.25 1054.5,0 1091.5,0 1091.5,-19.25"/>
<text text-anchor="middle" x="1073" y="-5.75" font-family="Helvetica,sans-Serif" font-size="10.00">array</text>
</a>
</g>
</g>
<!-- Node10&#45;&gt;Node20 -->
<g id="edge25_Node000010_Node000020" class="edge">
<title>Node10&#45;&gt;Node20</title>
<g id="a_edge25_Node000010_Node000020"><a xlink:title=" ">
<path fill="none" stroke="#63b8ff" d="M575.22,-222.51C614.59,-214.5 679.21,-200.57 734,-185 878.73,-143.88 950.15,-183.38 1054,-74.5 1065.13,-62.83 1069.77,-44.94 1071.69,-31.06"/>
<polygon fill="#63b8ff" stroke="#63b8ff" points="1075.16,-31.53 1072.65,-21.24 1068.2,-30.85 1075.16,-31.53"/>
</a>
</g>
</g>
<!-- Node12&#45;&gt;Node11 -->
<g id="edge15_Node000012_Node000011" class="edge">
<title>Node12&#45;&gt;Node11</title>
<g id="a_edge15_Node000012_Node000011"><a xlink:title=" ">
<path fill="none" stroke="#63b8ff" d="M417.7,-165.34C427.78,-157.57 442.54,-146.17 454.56,-136.9"/>
<polygon fill="#63b8ff" stroke="#63b8ff" points="456.49,-139.83 462.27,-130.95 452.21,-134.29 456.49,-139.83"/>
</a>
</g>
</g>
<!-- Node12&#45;&gt;Node13 -->
<g id="edge13_Node000012_Node000013" class="edge">
<title>Node12&#45;&gt;Node13</title>
<g id="a_edge13_Node000012_Node000013"><a xlink:title=" ">
<path fill="none" stroke="#63b8ff" d="M405.5,-165.58C405.13,-158.99 404.61,-149.71 404.14,-141.32"/>
<polygon fill="#63b8ff" stroke="#63b8ff" points="407.65,-141.41 403.59,-131.62 400.66,-141.8 407.65,-141.41"/>
</a>
</g>
</g>
<!-- Node14 -->
<g id="Node000014" class="node">
<title>Node14</title>
<g id="a_Node000014"><a xlink:title=" ">
<polygon fill="#e0e0e0" stroke="#999999" points="277.88,-129.75 228.12,-129.75 228.12,-110.5 277.88,-110.5 277.88,-129.75"/>
<text text-anchor="middle" x="253" y="-116.25" font-family="Helvetica,sans-Serif" font-size="10.00">iomanip</text>
</a>
</g>
</g>
<!-- Node12&#45;&gt;Node14 -->
<g id="edge14_Node000012_Node000014" class="edge">
<title>Node12&#45;&gt;Node14</title>
<g id="a_edge14_Node000012_Node000014"><a xlink:title=" ">
<path fill="none" stroke="#63b8ff" d="M380.05,-165.34C354.98,-156.62 316.82,-143.34 288.86,-133.6"/>
<polygon fill="#63b8ff" stroke="#63b8ff" points="290.34,-130.42 279.75,-130.43 288.04,-137.03 290.34,-130.42"/>
</a>
</g>
</g>
<!-- Node12&#45;&gt;Node15 -->
<g id="edge16_Node000012_Node000015" class="edge">
<title>Node12&#45;&gt;Node15</title>
<g id="a_edge16_Node000012_Node000015"><a xlink:title=" ">
<path fill="none" stroke="#63b8ff" d="M432.8,-166.4C463.2,-157.36 513.01,-142.54 547.32,-132.33"/>
<polygon fill="#63b8ff" stroke="#63b8ff" points="548.27,-135.7 556.86,-129.5 546.28,-128.99 548.27,-135.7"/>
</a>
</g>
</g>
<!-- Node17 -->
<g id="Node000017" class="node">
<title>Node17</title>
<g id="a_Node000017"><a xlink:href="_logging_8hpp.xhtml" target="_top" xlink:title=" ">
<polygon fill="white" stroke="#666666" points="210.25,-129.75 141.75,-129.75 141.75,-110.5 210.25,-110.5 210.25,-129.75"/>
<text text-anchor="middle" x="176" y="-116.25" font-family="Helvetica,sans-Serif" font-size="10.00">Logging.hpp</text>
</a>
</g>
</g>
<!-- Node12&#45;&gt;Node17 -->
<g id="edge21_Node000012_Node000017" class="edge">
<title>Node12&#45;&gt;Node17</title>
<g id="a_edge21_Node000012_Node000017"><a xlink:title=" ">
<path fill="none" stroke="#63b8ff" d="M379.17,-168.16C340.52,-159.22 268.68,-142.58 221.61,-131.69"/>
<polygon fill="#63b8ff" stroke="#63b8ff" points="222.51,-128.3 211.98,-129.46 220.94,-135.12 222.51,-128.3"/>
</a>
</g>
</g>
<!-- Node19 -->
<g id="Node000019" class="node">
<title>Node19</title>
<g id="a_Node000019"><a xlink:title=" ">
<polygon fill="#e0e0e0" stroke="#999999" points="359.62,-129.75 296.38,-129.75 296.38,-110.5 359.62,-110.5 359.62,-129.75"/>
<text text-anchor="middle" x="328" y="-116.25" font-family="Helvetica,sans-Serif" font-size="10.00">esp_mac.h</text>
</a>
</g>
</g>
<!-- Node12&#45;&gt;Node19 -->
<g id="edge23_Node000012_Node000019" class="edge">
<title>Node12&#45;&gt;Node19</title>
<g id="a_edge23_Node000012_Node000019"><a xlink:title=" ">
<path fill="none" stroke="#63b8ff" d="M392.77,-165.34C381.23,-157.46 364.23,-145.86 350.55,-136.52"/>
<polygon fill="#63b8ff" stroke="#63b8ff" points="352.78,-133.8 342.55,-131.06 348.83,-139.58 352.78,-133.8"/>
</a>
</g>
</g>
<!-- Node15&#45;&gt;Node4 -->
<g id="edge18_Node000015_Node000004" class="edge">
<title>Node15&#45;&gt;Node4</title>
<g id="a_edge18_Node000015_Node000004"><a xlink:title=" ">
<path fill="none" stroke="#63b8ff" d="M558.4,-112.91C553.95,-112.01 549.35,-111.16 545,-110.5 365.45,-83.31 318.43,-95.02 138,-74.5 128.1,-73.37 117.33,-71.95 107.59,-70.58"/>
<polygon fill="#63b8ff" stroke="#63b8ff" points="108.25,-67.14 97.85,-69.18 107.25,-74.07 108.25,-67.14"/>
</a>
</g>
</g>
<!-- Node15&#45;&gt;Node7 -->
<g id="edge20_Node000015_Node000007" class="edge">
<title>Node15&#45;&gt;Node7</title>
<g id="a_edge20_Node000015_Node000007"><a xlink:title=" ">
<path fill="none" stroke="#63b8ff" d="M582.69,-110.33C580.94,-103.67 578.46,-94.24 576.23,-85.78"/>
<polygon fill="#63b8ff" stroke="#63b8ff" points="579.67,-85.1 573.75,-76.32 572.9,-86.88 579.67,-85.1"/>
</a>
</g>
</g>
<!-- Node15&#45;&gt;Node8 -->
<g id="edge17_Node000015_Node000008" class="edge">
<title>Node15&#45;&gt;Node8</title>
<g id="a_edge17_Node000015_Node000008"><a xlink:title=" ">
<path fill="none" stroke="#63b8ff" d="M564.32,-110.12C540.26,-98.38 505.79,-76.78 522,-55.25 536.52,-35.97 601.77,-22.42 642.84,-15.62"/>
<polygon fill="#63b8ff" stroke="#63b8ff" points="643.16,-19.12 652.48,-14.09 642.06,-12.21 643.16,-19.12"/>
</a>
</g>
</g>
<!-- Node16 -->
<g id="Node000016" class="node">
<title>Node16</title>
<g id="a_Node000016"><a xlink:title=" ">
<polygon fill="#e0e0e0" stroke="#999999" points="1044.62,-74.5 999.38,-74.5 999.38,-55.25 1044.62,-55.25 1044.62,-74.5"/>
<text text-anchor="middle" x="1022" y="-61" font-family="Helvetica,sans-Serif" font-size="10.00">chrono</text>
</a>
</g>
</g>
<!-- Node15&#45;&gt;Node16 -->
<g id="edge19_Node000015_Node000016" class="edge">
<title>Node15&#45;&gt;Node16</title>
<g id="a_edge19_Node000015_Node000016"><a xlink:title=" ">
<path fill="none" stroke="#63b8ff" d="M611.75,-117.6C675.32,-113.68 840.56,-101.73 987.99,-74.59"/>
<polygon fill="#63b8ff" stroke="#63b8ff" points="988.35,-78.08 997.54,-72.8 987.06,-71.2 988.35,-78.08"/>
</a>
</g>
</g>
<!-- Node18 -->
<g id="Node000018" class="node">
<title>Node18</title>
<g id="a_Node000018"><a xlink:title=" ">
<polygon fill="#e0e0e0" stroke="#999999" points="204.62,-74.5 147.38,-74.5 147.38,-55.25 204.62,-55.25 204.62,-74.5"/>
<text text-anchor="middle" x="176" y="-61" font-family="Helvetica,sans-Serif" font-size="10.00">esp_log.h</text>
</a>
</g>
</g>
<!-- Node17&#45;&gt;Node18 -->
<g id="edge22_Node000017_Node000018" class="edge">
<title>Node17&#45;&gt;Node18</title>
<g id="a_edge22_Node000017_Node000018"><a xlink:title=" ">
<path fill="none" stroke="#63b8ff" d="M176,-110.33C176,-103.82 176,-94.67 176,-86.37"/>
<polygon fill="#63b8ff" stroke="#63b8ff" points="179.5,-86.37 176,-76.37 172.5,-86.37 179.5,-86.37"/>
</a>
</g>
</g>
<!-- Node21&#45;&gt;Node2 -->
<g id="edge51_Node000021_Node000002" class="edge">
<title>Node21&#45;&gt;Node2</title>
<g id="a_edge51_Node000021_Node000002"><a xlink:title=" ">
<path fill="none" stroke="#63b8ff" d="M549.88,-275.84C524.57,-267.09 486,-253.76 457.84,-244.02"/>
<polygon fill="#63b8ff" stroke="#63b8ff" points="459.25,-240.8 448.66,-240.84 456.97,-247.42 459.25,-240.8"/>
</a>
</g>
</g>
<!-- Node21&#45;&gt;Node8 -->
<g id="edge50_Node000021_Node000008" class="edge">
<title>Node21&#45;&gt;Node8</title>
<g id="a_edge50_Node000021_Node000008"><a xlink:title=" ">
<path fill="none" stroke="#63b8ff" d="M606.19,-275.81C643.92,-262.66 706.83,-234.31 734,-185 763.39,-131.66 717.07,-60.71 691.75,-28.22"/>
<polygon fill="#63b8ff" stroke="#63b8ff" points="694.62,-26.21 685.62,-20.62 689.17,-30.6 694.62,-26.21"/>
</a>
</g>
</g>
<!-- Node21&#45;&gt;Node10 -->
<g id="edge30_Node000021_Node000010" class="edge">
<title>Node21&#45;&gt;Node10</title>
<g id="a_edge30_Node000021_Node000010"><a xlink:title=" ">
<path fill="none" stroke="#63b8ff" d="M569.89,-276.08C564.94,-268.96 557.8,-258.68 551.63,-249.8"/>
<polygon fill="#63b8ff" stroke="#63b8ff" points="554.69,-248.07 546.11,-241.85 548.94,-252.06 554.69,-248.07"/>
</a>
</g>
</g>
<!-- Node21&#45;&gt;Node16 -->
<g id="edge49_Node000021_Node000016" class="edge">
<title>Node21&#45;&gt;Node16</title>
<g id="a_edge49_Node000021_Node000016"><a xlink:title=" ">
<path fill="none" stroke="#63b8ff" d="M611.52,-277.32C662.76,-266.3 752.86,-246.47 767,-240.25 864.25,-197.44 963.7,-116.46 1003.7,-82.02"/>
<polygon fill="#63b8ff" stroke="#63b8ff" points="1005.75,-84.88 1011,-75.67 1001.16,-79.6 1005.75,-84.88"/>
</a>
</g>
</g>
<!-- Node21&#45;&gt;Node20 -->
<g id="edge48_Node000021_Node000020" class="edge">
<title>Node21&#45;&gt;Node20</title>
<g id="a_edge48_Node000021_Node000020"><a xlink:title=" ">
<path fill="none" stroke="#63b8ff" d="M611.49,-277.62C614.37,-277.13 617.23,-276.66 620,-276.25 777.75,-252.89 820.96,-273.15 977,-240.25 1066.65,-221.35 1173,-268 1173,-176.38 1173,-176.38 1173,-176.38 1173,-119.12 1173,-76.27 1130.3,-43.1 1100.71,-25.25"/>
<polygon fill="#63b8ff" stroke="#63b8ff" points="1102.6,-22.3 1092.19,-20.34 1099.11,-28.36 1102.6,-22.3"/>
</a>
</g>
</g>
<!-- Node22 -->
<g id="Node000022" class="node">
<title>Node22</title>
<g id="a_Node000022"><a xlink:href="_machine_config_8hpp.xhtml" target="_top" xlink:title=" ">
<polygon fill="white" stroke="#666666" points="724.88,-185 627.12,-185 627.12,-165.75 724.88,-165.75 724.88,-185"/>
<text text-anchor="middle" x="676" y="-171.5" font-family="Helvetica,sans-Serif" font-size="10.00">MachineConfig.hpp</text>
</a>
</g>
</g>
<!-- Node21&#45;&gt;Node22 -->
<g id="edge31_Node000021_Node000022" class="edge">
<title>Node21&#45;&gt;Node22</title>
<g id="a_edge31_Node000021_Node000022"><a xlink:title=" ">
<path fill="none" stroke="#63b8ff" d="M584.18,-276C600.74,-258.03 638.46,-217.11 660.05,-193.69"/>
<polygon fill="#63b8ff" stroke="#63b8ff" points="662.47,-196.21 666.68,-186.49 657.33,-191.47 662.47,-196.21"/>
</a>
</g>
</g>
<!-- Node26 -->
<g id="Node000026" class="node">
<title>Node26</title>
<g id="a_Node000026"><a xlink:href="_tasks_8hpp.xhtml" target="_top" xlink:title=" ">
<polygon fill="white" stroke="#666666" points="1043.5,-185 982.5,-185 982.5,-165.75 1043.5,-165.75 1043.5,-185"/>
<text text-anchor="middle" x="1013" y="-171.5" font-family="Helvetica,sans-Serif" font-size="10.00">Tasks.hpp</text>
</a>
</g>
</g>
<!-- Node21&#45;&gt;Node26 -->
<g id="edge43_Node000021_Node000026" class="edge">
<title>Node21&#45;&gt;Node26</title>
<g id="a_edge43_Node000021_Node000026"><a xlink:title=" ">
<path fill="none" stroke="#63b8ff" d="M611.5,-277.65C614.37,-277.14 617.23,-276.67 620,-276.25 766.3,-254 818.03,-305.19 951,-240.25 971.99,-230 989.8,-209.59 1000.88,-194.59"/>
<polygon fill="#63b8ff" stroke="#63b8ff" points="1003.67,-196.7 1006.55,-186.5 997.94,-192.68 1003.67,-196.7"/>
</a>
</g>
</g>
<!-- Node22&#45;&gt;Node4 -->
<g id="edge34_Node000022_Node000004" class="edge">
<title>Node22&#45;&gt;Node4</title>
<g id="a_edge34_Node000022_Node000004"><a xlink:title=" ">
<path fill="none" stroke="#63b8ff" d="M647.07,-165.3C621.27,-156.94 582.64,-143.73 550,-129.75 532.6,-122.3 530.18,-115.78 512,-110.5 351.63,-63.96 303.85,-94.01 138,-74.5 128.1,-73.34 117.34,-71.9 107.6,-70.53"/>
<polygon fill="#63b8ff" stroke="#63b8ff" points="108.25,-67.09 97.86,-69.14 107.26,-74.02 108.25,-67.09"/>
</a>
</g>
</g>
<!-- Node22&#45;&gt;Node7 -->
<g id="edge41_Node000022_Node000007" class="edge">
<title>Node22&#45;&gt;Node7</title>
<g id="a_edge41_Node000022_Node000007"><a xlink:title=" ">
<path fill="none" stroke="#63b8ff" d="M668.69,-165.42C658.28,-152.8 638.39,-129.24 620,-110.5 610.45,-100.77 599.24,-90.48 589.96,-82.24"/>
<polygon fill="#63b8ff" stroke="#63b8ff" points="592.41,-79.74 582.58,-75.78 587.8,-85 592.41,-79.74"/>
</a>
</g>
</g>
<!-- Node22&#45;&gt;Node8 -->
<g id="edge33_Node000022_Node000008" class="edge">
<title>Node22&#45;&gt;Node8</title>
<g id="a_edge33_Node000022_Node000008"><a xlink:title=" ">
<path fill="none" stroke="#63b8ff" d="M676.05,-165.57C676.21,-140.25 676.66,-66.75 676.88,-30.84"/>
<polygon fill="#63b8ff" stroke="#63b8ff" points="680.38,-31.01 676.94,-20.99 673.38,-30.96 680.38,-31.01"/>
</a>
</g>
</g>
<!-- Node22&#45;&gt;Node15 -->
<g id="edge42_Node000022_Node000015" class="edge">
<title>Node22&#45;&gt;Node15</title>
<g id="a_edge42_Node000022_Node000015"><a xlink:title=" ">
<path fill="none" stroke="#63b8ff" d="M660.56,-165.34C646.84,-157.31 626.5,-145.41 610.38,-135.98"/>
<polygon fill="#63b8ff" stroke="#63b8ff" points="612.22,-133 601.82,-130.97 608.68,-139.04 612.22,-133"/>
</a>
</g>
</g>
<!-- Node22&#45;&gt;Node16 -->
<g id="edge32_Node000022_Node000016" class="edge">
<title>Node22&#45;&gt;Node16</title>
<g id="a_edge32_Node000022_Node000016"><a xlink:title=" ">
<path fill="none" stroke="#63b8ff" d="M718.11,-165.29C754.42,-157.11 808.11,-144.17 854,-129.75 902.14,-114.62 956.5,-93.12 990.01,-79.33"/>
<polygon fill="#63b8ff" stroke="#63b8ff" points="991.24,-82.61 999.14,-75.55 988.56,-76.14 991.24,-82.61"/>
</a>
</g>
</g>
<!-- Node23 -->
<g id="Node000023" class="node">
<title>Node23</title>
<g id="a_Node000023"><a xlink:href="pins_8hpp.xhtml" target="_top" xlink:title=" ">
<polygon fill="white" stroke="#666666" points="845,-129.75 793,-129.75 793,-110.5 845,-110.5 845,-129.75"/>
<text text-anchor="middle" x="819" y="-116.25" font-family="Helvetica,sans-Serif" font-size="10.00">pins.hpp</text>
</a>
</g>
</g>
<!-- Node22&#45;&gt;Node23 -->
<g id="edge35_Node000022_Node000023" class="edge">
<title>Node22&#45;&gt;Node23</title>
<g id="a_edge35_Node000022_Node000023"><a xlink:title=" ">
<path fill="none" stroke="#63b8ff" d="M700.26,-165.34C723.27,-156.77 758.09,-143.81 784.08,-134.13"/>
<polygon fill="#63b8ff" stroke="#63b8ff" points="785.05,-137.5 793.2,-130.73 782.61,-130.94 785.05,-137.5"/>
</a>
</g>
</g>
<!-- Node23&#45;&gt;Node8 -->
<g id="edge36_Node000023_Node000008" class="edge">
<title>Node23&#45;&gt;Node8</title>
<g id="a_edge36_Node000023_Node000008"><a xlink:title=" ">
<path fill="none" stroke="#63b8ff" d="M807.38,-110.25C783.35,-91.89 727.93,-49.54 697.65,-26.41"/>
<polygon fill="#63b8ff" stroke="#63b8ff" points="700.05,-23.84 689.98,-20.55 695.8,-29.4 700.05,-23.84"/>
</a>
</g>
</g>
<!-- Node24 -->
<g id="Node000024" class="node">
<title>Node24</title>
<g id="a_Node000024"><a xlink:title=" ">
<polygon fill="#e0e0e0" stroke="#999999" points="882.75,-74.5 781.25,-74.5 781.25,-55.25 882.75,-55.25 882.75,-74.5"/>
<text text-anchor="middle" x="832" y="-61" font-family="Helvetica,sans-Serif" font-size="10.00">Adafruit_NeoPixel.h</text>
</a>
</g>
</g>
<!-- Node23&#45;&gt;Node24 -->
<g id="edge37_Node000023_Node000024" class="edge">
<title>Node23&#45;&gt;Node24</title>
<g id="a_edge37_Node000023_Node000024"><a xlink:title=" ">
<path fill="none" stroke="#63b8ff" d="M821.15,-110.33C822.77,-103.67 825.08,-94.24 827.14,-85.78"/>
<polygon fill="#63b8ff" stroke="#63b8ff" points="830.48,-86.87 829.45,-76.33 823.68,-85.21 830.48,-86.87"/>
</a>
</g>
</g>
<!-- Node25 -->
<g id="Node000025" class="node">
<title>Node25</title>
<g id="a_Node000025"><a xlink:href="_pins_config_8hpp.xhtml" target="_top" xlink:title=" ">
<polygon fill="white" stroke="#666666" points="981.25,-74.5 900.75,-74.5 900.75,-55.25 981.25,-55.25 981.25,-74.5"/>
<text text-anchor="middle" x="941" y="-61" font-family="Helvetica,sans-Serif" font-size="10.00">PinsConfig.hpp</text>
</a>
</g>
</g>
<!-- Node23&#45;&gt;Node25 -->
<g id="edge38_Node000023_Node000025" class="edge">
<title>Node23&#45;&gt;Node25</title>
<g id="a_edge38_Node000023_Node000025"><a xlink:title=" ">
<path fill="none" stroke="#63b8ff" d="M839.7,-110.09C858.89,-101.72 887.71,-89.13 909.72,-79.53"/>
<polygon fill="#63b8ff" stroke="#63b8ff" points="911.05,-82.77 918.82,-75.56 908.25,-76.35 911.05,-82.77"/>
</a>
</g>
</g>
<!-- Node25&#45;&gt;Node8 -->
<g id="edge39_Node000025_Node000008" class="edge">
<title>Node25&#45;&gt;Node8</title>
<g id="a_edge39_Node000025_Node000008"><a xlink:title=" ">
<path fill="none" stroke="#63b8ff" d="M900.33,-55.67C848.48,-45.21 759.77,-27.32 711.22,-17.53"/>
<polygon fill="#63b8ff" stroke="#63b8ff" points="712.06,-14.13 701.56,-15.58 710.67,-20.99 712.06,-14.13"/>
</a>
</g>
</g>
<!-- Node25&#45;&gt;Node20 -->
<g id="edge40_Node000025_Node000020" class="edge">
<title>Node25&#45;&gt;Node20</title>
<g id="a_edge40_Node000025_Node000020"><a xlink:title=" ">
<path fill="none" stroke="#63b8ff" d="M963.39,-54.84C985.59,-45.89 1019.7,-32.13 1043.97,-22.34"/>
<polygon fill="#63b8ff" stroke="#63b8ff" points="1044.98,-25.7 1052.94,-18.72 1042.36,-19.21 1044.98,-25.7"/>
</a>
</g>
</g>
<!-- Node26&#45;&gt;Node11 -->
<g id="edge46_Node000026_Node000011" class="edge">
<title>Node26&#45;&gt;Node11</title>
<g id="a_edge46_Node000026_Node000011"><a xlink:title=" ">
<path fill="none" stroke="#63b8ff" d="M982.1,-171.59C907.67,-164.86 712.62,-146.94 550,-129.75 538.59,-128.54 526.2,-127.15 514.85,-125.85"/>
<polygon fill="#63b8ff" stroke="#63b8ff" points="515.32,-122.38 504.98,-124.7 514.51,-129.33 515.32,-122.38"/>
</a>
</g>
</g>
<!-- Node26&#45;&gt;Node16 -->
<g id="edge44_Node000026_Node000016" class="edge">
<title>Node26&#45;&gt;Node16</title>
<g id="a_edge44_Node000026_Node000016"><a xlink:title=" ">
<path fill="none" stroke="#63b8ff" d="M1013.74,-165.5C1015.17,-148.25 1018.35,-109.83 1020.33,-86.06"/>
<polygon fill="#63b8ff" stroke="#63b8ff" points="1023.79,-86.64 1021.13,-76.39 1016.81,-86.06 1023.79,-86.64"/>
</a>
</g>
</g>
<!-- Node27 -->
<g id="Node000027" class="node">
<title>Node27</title>
<g id="a_Node000027"><a xlink:title=" ">
<polygon fill="#e0e0e0" stroke="#999999" points="1099,-129.75 1041,-129.75 1041,-110.5 1099,-110.5 1099,-129.75"/>
<text text-anchor="middle" x="1070" y="-116.25" font-family="Helvetica,sans-Serif" font-size="10.00">functional</text>
</a>
</g>
</g>
<!-- Node26&#45;&gt;Node27 -->
<g id="edge45_Node000026_Node000027" class="edge">
<title>Node26&#45;&gt;Node27</title>
<g id="a_edge45_Node000026_Node000027"><a xlink:title=" ">
<path fill="none" stroke="#63b8ff" d="M1022.67,-165.34C1030.74,-157.8 1042.47,-146.85 1052.22,-137.73"/>
<polygon fill="#63b8ff" stroke="#63b8ff" points="1054.45,-140.44 1059.37,-131.06 1049.67,-135.33 1054.45,-140.44"/>
</a>
</g>
</g>
<!-- Node28 -->
<g id="Node000028" class="node">
<title>Node28</title>
<g id="a_Node000028"><a xlink:title=" ">
<polygon fill="#e0e0e0" stroke="#999999" points="1145.4,-129.75 1116.6,-129.75 1116.6,-110.5 1145.4,-110.5 1145.4,-129.75"/>
<text text-anchor="middle" x="1131" y="-116.25" font-family="Helvetica,sans-Serif" font-size="10.00">list</text>
</a>
</g>
</g>
<!-- Node26&#45;&gt;Node28 -->
<g id="edge47_Node000026_Node000028" class="edge">
<title>Node26&#45;&gt;Node28</title>
<g id="a_edge47_Node000026_Node000028"><a xlink:title=" ">
<path fill="none" stroke="#63b8ff" d="M1033.02,-165.34C1053.06,-156.3 1083.98,-142.35 1105.71,-132.54"/>
<polygon fill="#63b8ff" stroke="#63b8ff" points="1107.07,-135.76 1114.75,-128.46 1104.19,-129.38 1107.07,-135.76"/>
</a>
</g>
</g>
</g>
</svg>
