<?xml version="1.0" encoding="UTF-8" standalone="no"?>
<!DOCTYPE svg PUBLIC "-//W3C//DTD SVG 1.1//EN"
 "http://www.w3.org/Graphics/SVG/1.1/DTD/svg11.dtd">
<!-- Generated by graphviz version 9.0.0 (20230911.1827)
 -->
<!-- Title: BufferedMsg.cpp Pages: 1 -->
<!--zoomable 469 -->

<svg id="main" version="1.1" xmlns="http://www.w3.org/2000/svg" xmlns:xlink="http://www.w3.org/1999/xlink" xml:space="preserve" onload="init(evt)">
<style type="text/css"><![CDATA[
.node, .edge {opacity: 0.7;}
.node.selected, .edge.selected {opacity: 1;}
.edge:hover path { stroke: red; }
.edge:hover polygon { stroke: red; fill: red; }
]]></style>

<defs>
  <circle id="rim" cx="0" cy="0" r="7"/>
  <circle id="rim2" cx="0" cy="0" r="3.5"/>
  <g id="zoomPlus">
    <use xlink:href="#rim" fill="#404040"><set attributeName="fill" to="#808080" begin="zoomplus.mouseover" end="zoomplus.mouseout"/></use>
    <path d="M-4,0h8M0,-4v8" fill="none" stroke="white" stroke-width="1.5" pointer-events="none"/>
  </g>
  <g id="zoomMin">
    <use xlink:href="#rim" fill="#404040"><set attributeName="fill" to="#808080" begin="zoomminus.mouseover" end="zoomminus.mouseout"/></use>
    <path d="M-4,0h8" fill="none" stroke="white" stroke-width="1.5" pointer-events="none"/>
  </g>
  <g id="arrowUp" transform="translate(30 24)">
    <use xlink:href="#rim"/>
    <path pointer-events="none" fill="none" stroke="white" stroke-width="1.5" d="M0,-3.0v7 M-2.5,-0.5L0,-3.0L2.5,-0.5"/>
  </g>
  <g id="arrowRight" transform="rotate(90) translate(36 -43)">
    <use xlink:href="#rim"/>
    <path pointer-events="none" fill="none" stroke="white" stroke-width="1.5" d="M0,-3.0v7 M-2.5,-0.5L0,-3.0L2.5,-0.5"/>
  </g>
  <g id="arrowDown" transform="rotate(180) translate(-30 -48)">
    <use xlink:href="#rim"/>
    <path pointer-events="none" fill="none" stroke="white" stroke-width="1.5" d="M0,-3.0v7 M-2.5,-0.5L0,-3.0L2.5,-0.5"/>
  </g>
  <g id="arrowLeft" transform="rotate(270) translate(-36 17)">
    <use xlink:href="#rim"/>
    <path pointer-events="none" fill="none" stroke="white" stroke-width="1.5" d="M0,-3.0v7 M-2.5,-0.5L0,-3.0L2.5,-0.5"/>
  </g>
  <g id="resetDef">
    <use xlink:href="#rim2" fill="#404040"><set attributeName="fill" to="#808080" begin="reset.mouseover" end="reset.mouseout"/></use>
  </g>
</defs>
<script type="application/ecmascript">
var viewWidth = 991;
var viewHeight = 469;
var sectionId = 'dynsection-0';
</script>
<script type="application/ecmascript" xlink:href="svg.min.js"/>
<svg id="graph" class="graph">
<g id="viewport">
<title>BufferedMsg.cpp</title>
<!-- Node1 -->
<g id="Node000001" class="node">
<title>Node1</title>
<g id="a_Node000001"><a xlink:title=" ">
<polygon fill="#999999" stroke="#666666" points="849.21,-461.25 760.46,-461.25 760.46,-442 849.21,-442 849.21,-461.25"/>
<text text-anchor="middle" x="804.83" y="-447.75" font-family="Helvetica,sans-Serif" font-size="10.00">BufferedMsg.cpp</text>
</a>
</g>
</g>
<!-- Node2 -->
<g id="Node000002" class="node">
<title>Node2</title>
<g id="a_Node000002"><a xlink:href="_buffered_msg_8hpp.xhtml" target="_top" xlink:title=" ">
<polygon fill="white" stroke="#666666" points="779.21,-406 690.46,-406 690.46,-386.75 779.21,-386.75 779.21,-406"/>
<text text-anchor="middle" x="734.83" y="-392.5" font-family="Helvetica,sans-Serif" font-size="10.00">BufferedMsg.hpp</text>
</a>
</g>
</g>
<!-- Node1&#45;&gt;Node2 -->
<g id="edge1_Node000001_Node000002" class="edge">
<title>Node1&#45;&gt;Node2</title>
<g id="a_edge1_Node000001_Node000002"><a xlink:title=" ">
<path fill="none" stroke="#63b8ff" d="M792.96,-441.59C782.74,-433.82 767.76,-422.42 755.57,-413.15"/>
<polygon fill="#63b8ff" stroke="#63b8ff" points="757.81,-410.46 747.74,-407.19 753.58,-416.03 757.81,-410.46"/>
</a>
</g>
</g>
<!-- Node7 -->
<g id="Node000007" class="node">
<title>Node7</title>
<g id="a_Node000007"><a xlink:title=" ">
<polygon fill="#e0e0e0" stroke="#999999" points="150.58,-295.5 73.08,-295.5 73.08,-276.25 150.58,-276.25 150.58,-295.5"/>
<text text-anchor="middle" x="111.83" y="-282" font-family="Helvetica,sans-Serif" font-size="10.00">ArduinoJson.h</text>
</a>
</g>
</g>
<!-- Node1&#45;&gt;Node7 -->
<g id="edge53_Node000001_Node000007" class="edge">
<title>Node1&#45;&gt;Node7</title>
<g id="a_edge53_Node000001_Node000007"><a xlink:title=" ">
<path fill="none" stroke="#63b8ff" d="M760.31,-449.49C627.38,-445.27 236.52,-426.54 138.83,-350.75 125.3,-340.25 118.47,-321.68 115.07,-307.26"/>
<polygon fill="#63b8ff" stroke="#63b8ff" points="118.51,-306.61 113.17,-297.45 111.63,-307.94 118.51,-306.61"/>
</a>
</g>
</g>
<!-- Node18 -->
<g id="Node000018" class="node">
<title>Node18</title>
<g id="a_Node000018"><a xlink:href="_logging_8hpp.xhtml" target="_top" xlink:title=" ">
<polygon fill="white" stroke="#666666" points="879.08,-129.75 810.58,-129.75 810.58,-110.5 879.08,-110.5 879.08,-129.75"/>
<text text-anchor="middle" x="844.83" y="-116.25" font-family="Helvetica,sans-Serif" font-size="10.00">Logging.hpp</text>
</a>
</g>
</g>
<!-- Node1&#45;&gt;Node18 -->
<g id="edge54_Node000001_Node000018" class="edge">
<title>Node1&#45;&gt;Node18</title>
<g id="a_edge54_Node000001_Node000018"><a xlink:title=" ">
<path fill="none" stroke="#63b8ff" d="M811.62,-441.6C824.42,-423.66 850.83,-381.82 850.83,-342.12 850.83,-342.12 850.83,-342.12 850.83,-229.62 850.83,-198.86 848.4,-163.26 846.63,-141.47"/>
<polygon fill="#63b8ff" stroke="#63b8ff" points="850.13,-141.29 845.8,-131.63 843.15,-141.89 850.13,-141.29"/>
</a>
</g>
</g>
<!-- Node28 -->
<g id="Node000028" class="node">
<title>Node28</title>
<g id="a_Node000028"><a xlink:title=" ">
<polygon fill="#e0e0e0" stroke="#999999" points="936.46,-406 879.21,-406 879.21,-386.75 936.46,-386.75 936.46,-406"/>
<text text-anchor="middle" x="907.83" y="-392.5" font-family="Helvetica,sans-Serif" font-size="10.00">inttypes.h</text>
</a>
</g>
</g>
<!-- Node1&#45;&gt;Node28 -->
<g id="edge52_Node000001_Node000028" class="edge">
<title>Node1&#45;&gt;Node28</title>
<g id="a_edge52_Node000001_Node000028"><a xlink:title=" ">
<path fill="none" stroke="#63b8ff" d="M822.31,-441.59C838.14,-433.41 861.74,-421.21 880.14,-411.69"/>
<polygon fill="#63b8ff" stroke="#63b8ff" points="881.65,-414.85 888.93,-407.15 878.44,-408.63 881.65,-414.85"/>
</a>
</g>
</g>
<!-- Node3 -->
<g id="Node000003" class="node">
<title>Node3</title>
<g id="a_Node000003"><a xlink:title=" ">
<polygon fill="#e0e0e0" stroke="#999999" points="730.71,-240.25 680.96,-240.25 680.96,-221 730.71,-221 730.71,-240.25"/>
<text text-anchor="middle" x="705.83" y="-226.75" font-family="Helvetica,sans-Serif" font-size="10.00">optional</text>
</a>
</g>
</g>
<!-- Node2&#45;&gt;Node3 -->
<g id="edge2_Node000002_Node000003" class="edge">
<title>Node2&#45;&gt;Node3</title>
<g id="a_edge2_Node000002_Node000003"><a xlink:title=" ">
<path fill="none" stroke="#63b8ff" d="M745.54,-386.41C768.39,-366.17 817.99,-315.58 793.83,-276.25 782.44,-257.7 760.68,-246.57 741.65,-240.07"/>
<polygon fill="#63b8ff" stroke="#63b8ff" points="742.89,-236.79 732.3,-237.2 740.83,-243.48 742.89,-236.79"/>
</a>
</g>
</g>
<!-- Node4 -->
<g id="Node000004" class="node">
<title>Node4</title>
<g id="a_Node000004"><a xlink:title=" ">
<polygon fill="#e0e0e0" stroke="#999999" points="731.96,-350.75 689.71,-350.75 689.71,-331.5 731.96,-331.5 731.96,-350.75"/>
<text text-anchor="middle" x="710.83" y="-337.25" font-family="Helvetica,sans-Serif" font-size="10.00">queue</text>
</a>
</g>
</g>
<!-- Node2&#45;&gt;Node4 -->
<g id="edge3_Node000002_Node000004" class="edge">
<title>Node2&#45;&gt;Node4</title>
<g id="a_edge3_Node000002_Node000004"><a xlink:title=" ">
<path fill="none" stroke="#63b8ff" d="M730.87,-386.58C727.8,-379.76 723.42,-370.06 719.54,-361.45"/>
<polygon fill="#63b8ff" stroke="#63b8ff" points="722.8,-360.17 715.5,-352.49 716.42,-363.04 722.8,-360.17"/>
</a>
</g>
</g>
<!-- Node5 -->
<g id="Node000005" class="node">
<title>Node5</title>
<g id="a_Node000005"><a xlink:title=" ">
<polygon fill="#e0e0e0" stroke="#999999" points="764.83,-74.5 724.83,-74.5 724.83,-55.25 764.83,-55.25 764.83,-74.5"/>
<text text-anchor="middle" x="744.83" y="-61" font-family="Helvetica,sans-Serif" font-size="10.00">string</text>
</a>
</g>
</g>
<!-- Node2&#45;&gt;Node5 -->
<g id="edge4_Node000002_Node000005" class="edge">
<title>Node2&#45;&gt;Node5</title>
<g id="a_edge4_Node000002_Node000005"><a xlink:title=" ">
<path fill="none" stroke="#63b8ff" d="M779.46,-395.12C850.86,-392.1 982.83,-374.64 982.83,-286.88 982.83,-286.88 982.83,-286.88 982.83,-174.38 982.83,-129.49 840.9,-89.22 776.25,-73.21"/>
<polygon fill="#63b8ff" stroke="#63b8ff" points="777.14,-69.83 766.6,-70.86 775.49,-76.63 777.14,-69.83"/>
</a>
</g>
</g>
<!-- Node6 -->
<g id="Node000006" class="node">
<title>Node6</title>
<g id="a_Node000006"><a xlink:title=" ">
<polygon fill="#e0e0e0" stroke="#999999" points="785.08,-295.5 734.58,-295.5 734.58,-276.25 785.08,-276.25 785.08,-295.5"/>
<text text-anchor="middle" x="759.83" y="-282" font-family="Helvetica,sans-Serif" font-size="10.00">memory</text>
</a>
</g>
</g>
<!-- Node2&#45;&gt;Node6 -->
<g id="edge5_Node000002_Node000006" class="edge">
<title>Node2&#45;&gt;Node6</title>
<g id="a_edge5_Node000002_Node000006"><a xlink:title=" ">
<path fill="none" stroke="#63b8ff" d="M736.88,-386.5C740.85,-369.25 749.7,-330.83 755.18,-307.06"/>
<polygon fill="#63b8ff" stroke="#63b8ff" points="758.58,-307.88 757.42,-297.35 751.76,-306.31 758.58,-307.88"/>
</a>
</g>
</g>
<!-- Node2&#45;&gt;Node7 -->
<g id="edge6_Node000002_Node000007" class="edge">
<title>Node2&#45;&gt;Node7</title>
<g id="a_edge6_Node000002_Node000007"><a xlink:title=" ">
<path fill="none" stroke="#63b8ff" d="M690.27,-393.88C564.18,-389.36 211.05,-374.7 164.83,-350.75 145.68,-340.83 130.81,-320.67 121.76,-305.64"/>
<polygon fill="#63b8ff" stroke="#63b8ff" points="124.92,-304.13 116.96,-297.14 118.83,-307.57 124.92,-304.13"/>
</a>
</g>
</g>
<!-- Node8 -->
<g id="Node000008" class="node">
<title>Node8</title>
<g id="a_Node000008"><a xlink:href="_machine_i_d_8hpp.xhtml" target="_top" xlink:title=" ">
<polygon fill="white" stroke="#666666" points="93.08,-74.5 12.58,-74.5 12.58,-55.25 93.08,-55.25 93.08,-74.5"/>
<text text-anchor="middle" x="52.83" y="-61" font-family="Helvetica,sans-Serif" font-size="10.00">MachineID.hpp</text>
</a>
</g>
</g>
<!-- Node2&#45;&gt;Node8 -->
<g id="edge7_Node000002_Node000008" class="edge">
<title>Node2&#45;&gt;Node8</title>
<g id="a_edge7_Node000002_Node000008"><a xlink:title=" ">
<path fill="none" stroke="#63b8ff" d="M690.02,-393.11C588.11,-385.98 334.78,-356.88 165.83,-240.25 108.76,-200.85 73.67,-122.27 59.74,-85.59"/>
<polygon fill="#63b8ff" stroke="#63b8ff" points="63.07,-84.49 56.35,-76.3 56.49,-86.89 63.07,-84.49"/>
</a>
</g>
</g>
<!-- Node10 -->
<g id="Node000010" class="node">
<title>Node10</title>
<g id="a_Node000010"><a xlink:href="_m_q_t_ttypes_8hpp.xhtml" target="_top" xlink:title=" ">
<polygon fill="white" stroke="#666666" points="649.33,-350.75 564.33,-350.75 564.33,-331.5 649.33,-331.5 649.33,-350.75"/>
<text text-anchor="middle" x="606.83" y="-337.25" font-family="Helvetica,sans-Serif" font-size="10.00">MQTTtypes.hpp</text>
</a>
</g>
</g>
<!-- Node2&#45;&gt;Node10 -->
<g id="edge9_Node000002_Node000010" class="edge">
<title>Node2&#45;&gt;Node10</title>
<g id="a_edge9_Node000002_Node000010"><a xlink:title=" ">
<path fill="none" stroke="#63b8ff" d="M713.12,-386.34C692.8,-377.89 662.19,-365.15 639.03,-355.52"/>
<polygon fill="#63b8ff" stroke="#63b8ff" points="640.63,-352.39 630.05,-351.78 637.94,-358.86 640.63,-352.39"/>
</a>
</g>
</g>
<!-- Node9 -->
<g id="Node000009" class="node">
<title>Node9</title>
<g id="a_Node000009"><a xlink:title=" ">
<polygon fill="#e0e0e0" stroke="#999999" points="181.46,-19.25 136.21,-19.25 136.21,0 181.46,0 181.46,-19.25"/>
<text text-anchor="middle" x="158.83" y="-5.75" font-family="Helvetica,sans-Serif" font-size="10.00">cstdint</text>
</a>
</g>
</g>
<!-- Node8&#45;&gt;Node9 -->
<g id="edge8_Node000008_Node000009" class="edge">
<title>Node8&#45;&gt;Node9</title>
<g id="a_edge8_Node000008_Node000009"><a xlink:title=" ">
<path fill="none" stroke="#63b8ff" d="M70.81,-54.84C87.18,-46.62 111.62,-34.34 130.6,-24.81"/>
<polygon fill="#63b8ff" stroke="#63b8ff" points="132.05,-28 139.41,-20.38 128.9,-21.74 132.05,-28"/>
</a>
</g>
</g>
<!-- Node10&#45;&gt;Node5 -->
<g id="edge49_Node000010_Node000005" class="edge">
<title>Node10&#45;&gt;Node5</title>
<g id="a_edge49_Node000010_Node000005"><a xlink:title=" ">
<path fill="none" stroke="#63b8ff" d="M631.11,-331.05C663.78,-317.27 720.08,-287.55 739.83,-240.25 761.67,-187.96 754.26,-118.96 748.69,-85.61"/>
<polygon fill="#63b8ff" stroke="#63b8ff" points="752.2,-85.38 746.98,-76.17 745.32,-86.63 752.2,-85.38"/>
</a>
</g>
</g>
<!-- Node10&#45;&gt;Node6 -->
<g id="edge50_Node000010_Node000006" class="edge">
<title>Node10&#45;&gt;Node6</title>
<g id="a_edge50_Node000010_Node000006"><a xlink:title=" ">
<path fill="none" stroke="#63b8ff" d="M632.79,-331.09C657.78,-322.39 695.79,-309.17 723.72,-299.44"/>
<polygon fill="#63b8ff" stroke="#63b8ff" points="724.54,-302.86 732.83,-296.27 722.24,-296.25 724.54,-302.86"/>
</a>
</g>
</g>
<!-- Node10&#45;&gt;Node7 -->
<g id="edge10_Node000010_Node000007" class="edge">
<title>Node10&#45;&gt;Node7</title>
<g id="a_edge10_Node000010_Node000007"><a xlink:title=" ">
<path fill="none" stroke="#63b8ff" d="M564.2,-335.54C473.16,-325.75 260.1,-302.83 162.41,-292.32"/>
<polygon fill="#63b8ff" stroke="#63b8ff" points="162.9,-288.85 152.58,-291.26 162.15,-295.81 162.9,-288.85"/>
</a>
</g>
</g>
<!-- Node11 -->
<g id="Node000011" class="node">
<title>Node11</title>
<g id="a_Node000011"><a xlink:href="_fab_user_8hpp.xhtml" target="_top" xlink:title=" ">
<polygon fill="white" stroke="#666666" points="654.58,-240.25 583.08,-240.25 583.08,-221 654.58,-221 654.58,-240.25"/>
<text text-anchor="middle" x="618.83" y="-226.75" font-family="Helvetica,sans-Serif" font-size="10.00">FabUser.hpp</text>
</a>
</g>
</g>
<!-- Node10&#45;&gt;Node11 -->
<g id="edge11_Node000010_Node000011" class="edge">
<title>Node10&#45;&gt;Node11</title>
<g id="a_edge11_Node000010_Node000011"><a xlink:title=" ">
<path fill="none" stroke="#63b8ff" d="M605.28,-331.38C603.34,-319.01 600.64,-295.75 603.83,-276.25 605.2,-267.89 607.92,-258.98 610.67,-251.34"/>
<polygon fill="#63b8ff" stroke="#63b8ff" points="613.93,-252.63 614.29,-242.04 607.4,-250.1 613.93,-252.63"/>
</a>
</g>
</g>
<!-- Node13 -->
<g id="Node000013" class="node">
<title>Node13</title>
<g id="a_Node000013"><a xlink:href="card_8hpp.xhtml" target="_top" xlink:title=" ">
<polygon fill="white" stroke="#666666" points="579.21,-185 526.46,-185 526.46,-165.75 579.21,-165.75 579.21,-185"/>
<text text-anchor="middle" x="552.83" y="-171.5" font-family="Helvetica,sans-Serif" font-size="10.00">card.hpp</text>
</a>
</g>
</g>
<!-- Node10&#45;&gt;Node13 -->
<g id="edge48_Node000010_Node000013" class="edge">
<title>Node10&#45;&gt;Node13</title>
<g id="a_edge48_Node000010_Node000013"><a xlink:title=" ">
<path fill="none" stroke="#63b8ff" d="M603.83,-331.04C598.02,-313.49 584.87,-273.72 573.83,-240.25 568.96,-225.46 563.46,-208.75 559.32,-196.12"/>
<polygon fill="#63b8ff" stroke="#63b8ff" points="562.74,-195.32 556.29,-186.91 556.09,-197.5 562.74,-195.32"/>
</a>
</g>
</g>
<!-- Node22 -->
<g id="Node000022" class="node">
<title>Node22</title>
<g id="a_Node000022"><a xlink:href="_machine_8hpp.xhtml" target="_top" xlink:title=" ">
<polygon fill="white" stroke="#666666" points="448.21,-295.5 377.46,-295.5 377.46,-276.25 448.21,-276.25 448.21,-295.5"/>
<text text-anchor="middle" x="412.83" y="-282" font-family="Helvetica,sans-Serif" font-size="10.00">Machine.hpp</text>
</a>
</g>
</g>
<!-- Node10&#45;&gt;Node22 -->
<g id="edge30_Node000010_Node000022" class="edge">
<title>Node10&#45;&gt;Node22</title>
<g id="a_edge30_Node000010_Node000022"><a xlink:title=" ">
<path fill="none" stroke="#63b8ff" d="M573.92,-331.09C541.73,-322.26 492.5,-308.74 456.93,-298.98"/>
<polygon fill="#63b8ff" stroke="#63b8ff" points="457.93,-295.62 447.36,-296.35 456.08,-302.38 457.93,-295.62"/>
</a>
</g>
</g>
<!-- Node27 -->
<g id="Node000027" class="node">
<title>Node27</title>
<g id="a_Node000027"><a xlink:title=" ">
<polygon fill="#e0e0e0" stroke="#999999" points="678.58,-295.5 613.08,-295.5 613.08,-276.25 678.58,-276.25 678.58,-295.5"/>
<text text-anchor="middle" x="645.83" y="-282" font-family="Helvetica,sans-Serif" font-size="10.00">string_view</text>
</a>
</g>
</g>
<!-- Node10&#45;&gt;Node27 -->
<g id="edge51_Node000010_Node000027" class="edge">
<title>Node10&#45;&gt;Node27</title>
<g id="a_edge51_Node000010_Node000027"><a xlink:title=" ">
<path fill="none" stroke="#63b8ff" d="M613.27,-331.33C618.49,-324.21 626.02,-313.93 632.52,-305.05"/>
<polygon fill="#63b8ff" stroke="#63b8ff" points="635.27,-307.22 638.36,-297.08 629.63,-303.08 635.27,-307.22"/>
</a>
</g>
</g>
<!-- Node11&#45;&gt;Node5 -->
<g id="edge29_Node000011_Node000005" class="edge">
<title>Node11&#45;&gt;Node5</title>
<g id="a_edge29_Node000011_Node000005"><a xlink:title=" ">
<path fill="none" stroke="#63b8ff" d="M632.59,-220.63C655.46,-204.95 701.2,-170.38 725.83,-129.75 734.02,-116.26 738.87,-99.01 741.62,-85.84"/>
<polygon fill="#63b8ff" stroke="#63b8ff" points="745.03,-86.67 743.39,-76.2 738.14,-85.41 745.03,-86.67"/>
</a>
</g>
</g>
<!-- Node11&#45;&gt;Node9 -->
<g id="edge27_Node000011_Node000009" class="edge">
<title>Node11&#45;&gt;Node9</title>
<g id="a_edge27_Node000011_Node000009"><a xlink:title=" ">
<path fill="none" stroke="#63b8ff" d="M654.96,-221.57C721.79,-205.85 860.42,-169.17 887.83,-129.75 897.92,-115.24 904.47,-76.28 882.83,-55.25 857.79,-30.92 332.73,-15.25 192.83,-11.5"/>
<polygon fill="#63b8ff" stroke="#63b8ff" points="193.2,-8.01 183.12,-11.24 193.02,-15.01 193.2,-8.01"/>
</a>
</g>
</g>
<!-- Node12 -->
<g id="Node000012" class="node">
<title>Node12</title>
<g id="a_Node000012"><a xlink:title=" ">
<polygon fill="#e0e0e0" stroke="#999999" points="647.08,-129.75 590.58,-129.75 590.58,-110.5 647.08,-110.5 647.08,-129.75"/>
<text text-anchor="middle" x="618.83" y="-116.25" font-family="Helvetica,sans-Serif" font-size="10.00">Arduino.h</text>
</a>
</g>
</g>
<!-- Node11&#45;&gt;Node12 -->
<g id="edge12_Node000011_Node000012" class="edge">
<title>Node11&#45;&gt;Node12</title>
<g id="a_edge12_Node000011_Node000012"><a xlink:title=" ">
<path fill="none" stroke="#63b8ff" d="M618.83,-220.75C618.83,-203.5 618.83,-165.08 618.83,-141.31"/>
<polygon fill="#63b8ff" stroke="#63b8ff" points="622.33,-141.64 618.83,-131.64 615.33,-141.64 622.33,-141.64"/>
</a>
</g>
</g>
<!-- Node11&#45;&gt;Node13 -->
<g id="edge13_Node000011_Node000013" class="edge">
<title>Node11&#45;&gt;Node13</title>
<g id="a_edge13_Node000011_Node000013"><a xlink:title=" ">
<path fill="none" stroke="#63b8ff" d="M607.64,-220.59C598.1,-212.9 584.16,-201.65 572.73,-192.43"/>
<polygon fill="#63b8ff" stroke="#63b8ff" points="575.02,-189.78 565.04,-186.23 570.63,-195.23 575.02,-189.78"/>
</a>
</g>
</g>
<!-- Node14 -->
<g id="Node000014" class="node">
<title>Node14</title>
<g id="a_Node000014"><a xlink:title=" ">
<polygon fill="#e0e0e0" stroke="#999999" points="716.46,-129.75 665.21,-129.75 665.21,-110.5 716.46,-110.5 716.46,-129.75"/>
<text text-anchor="middle" x="690.83" y="-116.25" font-family="Helvetica,sans-Serif" font-size="10.00">sstream</text>
</a>
</g>
</g>
<!-- Node11&#45;&gt;Node14 -->
<g id="edge28_Node000011_Node000014" class="edge">
<title>Node11&#45;&gt;Node14</title>
<g id="a_edge28_Node000011_Node000014"><a xlink:title=" ">
<path fill="none" stroke="#63b8ff" d="M624.73,-220.75C636.43,-203.1 662.85,-163.3 678.51,-139.7"/>
<polygon fill="#63b8ff" stroke="#63b8ff" points="681.41,-141.66 684.02,-131.39 675.58,-137.78 681.41,-141.66"/>
</a>
</g>
</g>
<!-- Node16 -->
<g id="Node000016" class="node">
<title>Node16</title>
<g id="a_Node000016"><a xlink:href="conf_8hpp.xhtml" target="_top" xlink:title=" ">
<polygon fill="white" stroke="#666666" points="347.21,-129.75 294.46,-129.75 294.46,-110.5 347.21,-110.5 347.21,-129.75"/>
<text text-anchor="middle" x="320.83" y="-116.25" font-family="Helvetica,sans-Serif" font-size="10.00">conf.hpp</text>
</a>
</g>
</g>
<!-- Node11&#45;&gt;Node16 -->
<g id="edge25_Node000011_Node000016" class="edge">
<title>Node11&#45;&gt;Node16</title>
<g id="a_edge25_Node000011_Node000016"><a xlink:title=" ">
<path fill="none" stroke="#63b8ff" d="M593.94,-220.56C541.13,-201.33 417.73,-156.4 356.54,-134.12"/>
<polygon fill="#63b8ff" stroke="#63b8ff" points="357.88,-130.89 347.29,-130.76 355.49,-137.47 357.88,-130.89"/>
</a>
</g>
</g>
<!-- Node21 -->
<g id="Node000021" class="node">
<title>Node21</title>
<g id="a_Node000021"><a xlink:title=" ">
<polygon fill="#e0e0e0" stroke="#999999" points="535.33,-19.25 498.33,-19.25 498.33,0 535.33,0 535.33,-19.25"/>
<text text-anchor="middle" x="516.83" y="-5.75" font-family="Helvetica,sans-Serif" font-size="10.00">array</text>
</a>
</g>
</g>
<!-- Node11&#45;&gt;Node21 -->
<g id="edge26_Node000011_Node000021" class="edge">
<title>Node11&#45;&gt;Node21</title>
<g id="a_edge26_Node000011_Node000021"><a xlink:title=" ">
<path fill="none" stroke="#63b8ff" d="M655.03,-223.65C660.65,-222.74 666.4,-221.84 671.83,-221 727.09,-212.51 884.24,-227.27 920.83,-185 958.58,-141.4 959.31,-98.21 920.83,-55.25 895.96,-27.48 636.89,-15.15 547.2,-11.69"/>
<polygon fill="#63b8ff" stroke="#63b8ff" points="547.34,-8.19 537.22,-11.32 547.08,-15.19 547.34,-8.19"/>
</a>
</g>
</g>
<!-- Node13&#45;&gt;Node12 -->
<g id="edge16_Node000013_Node000012" class="edge">
<title>Node13&#45;&gt;Node12</title>
<g id="a_edge16_Node000013_Node000012"><a xlink:title=" ">
<path fill="none" stroke="#63b8ff" d="M564.03,-165.34C573.57,-157.65 587.51,-146.4 598.94,-137.18"/>
<polygon fill="#63b8ff" stroke="#63b8ff" points="601.04,-139.98 606.62,-130.98 596.64,-134.53 601.04,-139.98"/>
</a>
</g>
</g>
<!-- Node13&#45;&gt;Node14 -->
<g id="edge14_Node000013_Node000014" class="edge">
<title>Node13&#45;&gt;Node14</title>
<g id="a_edge14_Node000013_Node000014"><a xlink:title=" ">
<path fill="none" stroke="#63b8ff" d="M576.24,-165.34C598.35,-156.81 631.75,-143.92 656.8,-134.26"/>
<polygon fill="#63b8ff" stroke="#63b8ff" points="657.83,-137.61 665.9,-130.75 655.31,-131.08 657.83,-137.61"/>
</a>
</g>
</g>
<!-- Node15 -->
<g id="Node000015" class="node">
<title>Node15</title>
<g id="a_Node000015"><a xlink:title=" ">
<polygon fill="#e0e0e0" stroke="#999999" points="490.71,-129.75 440.96,-129.75 440.96,-110.5 490.71,-110.5 490.71,-129.75"/>
<text text-anchor="middle" x="465.83" y="-116.25" font-family="Helvetica,sans-Serif" font-size="10.00">iomanip</text>
</a>
</g>
</g>
<!-- Node13&#45;&gt;Node15 -->
<g id="edge15_Node000013_Node000015" class="edge">
<title>Node13&#45;&gt;Node15</title>
<g id="a_edge15_Node000013_Node000015"><a xlink:title=" ">
<path fill="none" stroke="#63b8ff" d="M538.07,-165.34C524.95,-157.31 505.51,-145.41 490.1,-135.98"/>
<polygon fill="#63b8ff" stroke="#63b8ff" points="492.31,-133.23 481.95,-130.99 488.66,-139.2 492.31,-133.23"/>
</a>
</g>
</g>
<!-- Node13&#45;&gt;Node16 -->
<g id="edge17_Node000013_Node000016" class="edge">
<title>Node13&#45;&gt;Node16</title>
<g id="a_edge17_Node000013_Node000016"><a xlink:title=" ">
<path fill="none" stroke="#63b8ff" d="M526.22,-168.27C484.99,-158.8 405.52,-140.56 358.44,-129.76"/>
<polygon fill="#63b8ff" stroke="#63b8ff" points="359.5,-126.41 348.97,-127.58 357.93,-133.23 359.5,-126.41"/>
</a>
</g>
</g>
<!-- Node13&#45;&gt;Node18 -->
<g id="edge22_Node000013_Node000018" class="edge">
<title>Node13&#45;&gt;Node18</title>
<g id="a_edge22_Node000013_Node000018"><a xlink:title=" ">
<path fill="none" stroke="#63b8ff" d="M579.52,-169.51C629.49,-160.4 737.67,-140.67 799.34,-129.42"/>
<polygon fill="#63b8ff" stroke="#63b8ff" points="799.6,-132.93 808.81,-127.7 798.34,-126.05 799.6,-132.93"/>
</a>
</g>
</g>
<!-- Node20 -->
<g id="Node000020" class="node">
<title>Node20</title>
<g id="a_Node000020"><a xlink:title=" ">
<polygon fill="#e0e0e0" stroke="#999999" points="572.46,-129.75 509.21,-129.75 509.21,-110.5 572.46,-110.5 572.46,-129.75"/>
<text text-anchor="middle" x="540.83" y="-116.25" font-family="Helvetica,sans-Serif" font-size="10.00">esp_mac.h</text>
</a>
</g>
</g>
<!-- Node13&#45;&gt;Node20 -->
<g id="edge24_Node000013_Node000020" class="edge">
<title>Node13&#45;&gt;Node20</title>
<g id="a_edge24_Node000013_Node000020"><a xlink:title=" ">
<path fill="none" stroke="#63b8ff" d="M550.85,-165.58C549.37,-158.99 547.27,-149.71 545.39,-141.32"/>
<polygon fill="#63b8ff" stroke="#63b8ff" points="548.8,-140.57 543.19,-131.59 541.97,-142.11 548.8,-140.57"/>
</a>
</g>
</g>
<!-- Node16&#45;&gt;Node5 -->
<g id="edge19_Node000016_Node000005" class="edge">
<title>Node16&#45;&gt;Node5</title>
<g id="a_edge19_Node000016_Node000005"><a xlink:title=" ">
<path fill="none" stroke="#63b8ff" d="M347.44,-113.01C351.9,-112.1 356.49,-111.22 360.83,-110.5 490.8,-88.99 647.21,-74.23 713.11,-68.52"/>
<polygon fill="#63b8ff" stroke="#63b8ff" points="713.16,-72.02 722.83,-67.68 712.57,-65.05 713.16,-72.02"/>
</a>
</g>
</g>
<!-- Node16&#45;&gt;Node8 -->
<g id="edge21_Node000016_Node000008" class="edge">
<title>Node16&#45;&gt;Node8</title>
<g id="a_edge21_Node000016_Node000008"><a xlink:title=" ">
<path fill="none" stroke="#63b8ff" d="M294.16,-113.82C250.06,-105.06 161.22,-87.41 104.5,-76.14"/>
<polygon fill="#63b8ff" stroke="#63b8ff" points="105.24,-72.72 94.75,-74.2 103.87,-79.59 105.24,-72.72"/>
</a>
</g>
</g>
<!-- Node16&#45;&gt;Node9 -->
<g id="edge18_Node000016_Node000009" class="edge">
<title>Node16&#45;&gt;Node9</title>
<g id="a_edge18_Node000016_Node000009"><a xlink:title=" ">
<path fill="none" stroke="#63b8ff" d="M347.58,-112.35C386.02,-102.34 453.06,-83.79 459.83,-74.5 464.87,-67.59 465.42,-61.73 459.83,-55.25 425.74,-15.74 264.99,-10.63 193.39,-10.36"/>
<polygon fill="#63b8ff" stroke="#63b8ff" points="193.41,-6.86 183.41,-10.36 193.41,-13.86 193.41,-6.86"/>
</a>
</g>
</g>
<!-- Node17 -->
<g id="Node000017" class="node">
<title>Node17</title>
<g id="a_Node000017"><a xlink:title=" ">
<polygon fill="#e0e0e0" stroke="#999999" points="450.46,-74.5 405.21,-74.5 405.21,-55.25 450.46,-55.25 450.46,-74.5"/>
<text text-anchor="middle" x="427.83" y="-61" font-family="Helvetica,sans-Serif" font-size="10.00">chrono</text>
</a>
</g>
</g>
<!-- Node16&#45;&gt;Node17 -->
<g id="edge20_Node000016_Node000017" class="edge">
<title>Node16&#45;&gt;Node17</title>
<g id="a_edge20_Node000016_Node000017"><a xlink:title=" ">
<path fill="none" stroke="#63b8ff" d="M338.98,-110.09C355.51,-101.87 380.18,-89.59 399.33,-80.06"/>
<polygon fill="#63b8ff" stroke="#63b8ff" points="400.84,-83.22 408.24,-75.63 397.73,-76.95 400.84,-83.22"/>
</a>
</g>
</g>
<!-- Node19 -->
<g id="Node000019" class="node">
<title>Node19</title>
<g id="a_Node000019"><a xlink:title=" ">
<polygon fill="#e0e0e0" stroke="#999999" points="873.46,-74.5 816.21,-74.5 816.21,-55.25 873.46,-55.25 873.46,-74.5"/>
<text text-anchor="middle" x="844.83" y="-61" font-family="Helvetica,sans-Serif" font-size="10.00">esp_log.h</text>
</a>
</g>
</g>
<!-- Node18&#45;&gt;Node19 -->
<g id="edge23_Node000018_Node000019" class="edge">
<title>Node18&#45;&gt;Node19</title>
<g id="a_edge23_Node000018_Node000019"><a xlink:title=" ">
<path fill="none" stroke="#63b8ff" d="M844.83,-110.33C844.83,-103.82 844.83,-94.67 844.83,-86.37"/>
<polygon fill="#63b8ff" stroke="#63b8ff" points="848.33,-86.37 844.83,-76.37 841.33,-86.37 848.33,-86.37"/>
</a>
</g>
</g>
<!-- Node22&#45;&gt;Node3 -->
<g id="edge47_Node000022_Node000003" class="edge">
<title>Node22&#45;&gt;Node3</title>
<g id="a_edge47_Node000022_Node000003"><a xlink:title=" ">
<path fill="none" stroke="#63b8ff" d="M448.63,-278.82C497.38,-270.5 587.33,-254.9 663.83,-240.25 665.61,-239.91 667.42,-239.56 669.26,-239.2"/>
<polygon fill="#63b8ff" stroke="#63b8ff" points="669.94,-242.63 679.05,-237.23 668.56,-235.77 669.94,-242.63"/>
</a>
</g>
</g>
<!-- Node22&#45;&gt;Node9 -->
<g id="edge46_Node000022_Node000009" class="edge">
<title>Node22&#45;&gt;Node9</title>
<g id="a_edge46_Node000022_Node000009"><a xlink:title=" ">
<path fill="none" stroke="#63b8ff" d="M377.14,-280.65C290.56,-268.15 71.55,-222.43 3.83,-74.5 -18.59,-25.52 72.43,-13.98 124.58,-11.34"/>
<polygon fill="#63b8ff" stroke="#63b8ff" points="124.62,-14.84 134.47,-10.93 124.34,-7.85 124.62,-14.84"/>
</a>
</g>
</g>
<!-- Node22&#45;&gt;Node11 -->
<g id="edge31_Node000022_Node000011" class="edge">
<title>Node22&#45;&gt;Node11</title>
<g id="a_edge31_Node000022_Node000011"><a xlink:title=" ">
<path fill="none" stroke="#63b8ff" d="M447.78,-275.84C482.26,-266.93 535.15,-253.26 572.98,-243.48"/>
<polygon fill="#63b8ff" stroke="#63b8ff" points="573.45,-246.97 582.25,-241.08 571.69,-240.2 573.45,-246.97"/>
</a>
</g>
</g>
<!-- Node22&#45;&gt;Node17 -->
<g id="edge45_Node000022_Node000017" class="edge">
<title>Node22&#45;&gt;Node17</title>
<g id="a_edge45_Node000022_Node000017"><a xlink:title=" ">
<path fill="none" stroke="#63b8ff" d="M396.88,-275.78C353.48,-249.89 239.52,-173.6 285.83,-110.5 289.14,-105.99 352.98,-87.15 393.93,-75.44"/>
<polygon fill="#63b8ff" stroke="#63b8ff" points="394.68,-78.87 403.34,-72.76 392.77,-72.13 394.68,-78.87"/>
</a>
</g>
</g>
<!-- Node22&#45;&gt;Node21 -->
<g id="edge44_Node000022_Node000021" class="edge">
<title>Node22&#45;&gt;Node21</title>
<g id="a_edge44_Node000022_Node000021"><a xlink:title=" ">
<path fill="none" stroke="#63b8ff" d="M411.58,-275.86C408.27,-248.88 401.53,-167.16 431.83,-110.5 443.59,-88.52 458.25,-93.11 474.83,-74.5 487.25,-60.56 498.7,-42.66 506.49,-29.36"/>
<polygon fill="#63b8ff" stroke="#63b8ff" points="509.48,-31.19 511.38,-20.77 503.39,-27.73 509.48,-31.19"/>
</a>
</g>
</g>
<!-- Node23 -->
<g id="Node000023" class="node">
<title>Node23</title>
<g id="a_Node000023"><a xlink:href="_machine_config_8hpp.xhtml" target="_top" xlink:title=" ">
<polygon fill="white" stroke="#666666" points="238.71,-185 140.96,-185 140.96,-165.75 238.71,-165.75 238.71,-185"/>
<text text-anchor="middle" x="189.83" y="-171.5" font-family="Helvetica,sans-Serif" font-size="10.00">MachineConfig.hpp</text>
</a>
</g>
</g>
<!-- Node22&#45;&gt;Node23 -->
<g id="edge32_Node000022_Node000023" class="edge">
<title>Node22&#45;&gt;Node23</title>
<g id="a_edge32_Node000022_Node000023"><a xlink:title=" ">
<path fill="none" stroke="#63b8ff" d="M377.06,-280.32C343.19,-274.8 291.85,-263.22 252.83,-240.25 232.77,-228.44 214.65,-208.64 203.05,-194.21"/>
<polygon fill="#63b8ff" stroke="#63b8ff" points="205.93,-192.21 197.05,-186.44 200.39,-196.49 205.93,-192.21"/>
</a>
</g>
</g>
<!-- Node23&#45;&gt;Node5 -->
<g id="edge35_Node000023_Node000005" class="edge">
<title>Node23&#45;&gt;Node5</title>
<g id="a_edge35_Node000023_Node000005"><a xlink:title=" ">
<path fill="none" stroke="#63b8ff" d="M223.33,-165.3C284.83,-148.68 411.34,-114.65 431.83,-110.5 533.83,-89.84 656.42,-75.31 713.16,-69.16"/>
<polygon fill="#63b8ff" stroke="#63b8ff" points="713.48,-72.64 723.05,-68.1 712.73,-65.68 713.48,-72.64"/>
</a>
</g>
</g>
<!-- Node23&#45;&gt;Node8 -->
<g id="edge42_Node000023_Node000008" class="edge">
<title>Node23&#45;&gt;Node8</title>
<g id="a_edge42_Node000023_Node000008"><a xlink:title=" ">
<path fill="none" stroke="#63b8ff" d="M168.02,-165.39C150.45,-157.53 125.64,-145 106.83,-129.75 90.47,-116.49 75.32,-97.75 65.25,-84"/>
<polygon fill="#63b8ff" stroke="#63b8ff" points="68.13,-82 59.49,-75.86 62.41,-86.05 68.13,-82"/>
</a>
</g>
</g>
<!-- Node23&#45;&gt;Node9 -->
<g id="edge34_Node000023_Node000009" class="edge">
<title>Node23&#45;&gt;Node9</title>
<g id="a_edge34_Node000023_Node000009"><a xlink:title=" ">
<path fill="none" stroke="#63b8ff" d="M173.92,-165.33C162.06,-157.59 146.78,-145.25 139.83,-129.75 125.12,-96.9 138.73,-54.46 149.26,-30.12"/>
<polygon fill="#63b8ff" stroke="#63b8ff" points="152.4,-31.67 153.41,-21.12 146.05,-28.73 152.4,-31.67"/>
</a>
</g>
</g>
<!-- Node23&#45;&gt;Node16 -->
<g id="edge43_Node000023_Node000016" class="edge">
<title>Node23&#45;&gt;Node16</title>
<g id="a_edge43_Node000023_Node000016"><a xlink:title=" ">
<path fill="none" stroke="#63b8ff" d="M212.06,-165.34C232.85,-156.89 264.18,-144.15 287.89,-134.52"/>
<polygon fill="#63b8ff" stroke="#63b8ff" points="289.15,-137.78 297.1,-130.77 286.52,-131.3 289.15,-137.78"/>
</a>
</g>
</g>
<!-- Node23&#45;&gt;Node17 -->
<g id="edge33_Node000023_Node000017" class="edge">
<title>Node23&#45;&gt;Node17</title>
<g id="a_edge33_Node000023_Node000017"><a xlink:title=" ">
<path fill="none" stroke="#63b8ff" d="M196.08,-165.44C206.29,-151.5 227.95,-124.73 252.83,-110.5 306.73,-79.68 329.93,-89.78 393.73,-74.87"/>
<polygon fill="#63b8ff" stroke="#63b8ff" points="394.44,-78.3 403.3,-72.5 392.76,-71.51 394.44,-78.3"/>
</a>
</g>
</g>
<!-- Node24 -->
<g id="Node000024" class="node">
<title>Node24</title>
<g id="a_Node000024"><a xlink:href="pins_8hpp.xhtml" target="_top" xlink:title=" ">
<polygon fill="white" stroke="#666666" points="200.83,-129.75 148.83,-129.75 148.83,-110.5 200.83,-110.5 200.83,-129.75"/>
<text text-anchor="middle" x="174.83" y="-116.25" font-family="Helvetica,sans-Serif" font-size="10.00">pins.hpp</text>
</a>
</g>
</g>
<!-- Node23&#45;&gt;Node24 -->
<g id="edge36_Node000023_Node000024" class="edge">
<title>Node23&#45;&gt;Node24</title>
<g id="a_edge36_Node000023_Node000024"><a xlink:title=" ">
<path fill="none" stroke="#63b8ff" d="M187.36,-165.58C185.48,-158.92 182.82,-149.49 180.44,-141.03"/>
<polygon fill="#63b8ff" stroke="#63b8ff" points="183.85,-140.24 177.77,-131.57 177.12,-142.14 183.85,-140.24"/>
</a>
</g>
</g>
<!-- Node24&#45;&gt;Node9 -->
<g id="edge37_Node000024_Node000009" class="edge">
<title>Node24&#45;&gt;Node9</title>
<g id="a_edge37_Node000024_Node000009"><a xlink:title=" ">
<path fill="none" stroke="#63b8ff" d="M173.52,-110.25C170.98,-93 165.32,-54.58 161.81,-30.81"/>
<polygon fill="#63b8ff" stroke="#63b8ff" points="165.3,-30.51 160.38,-21.12 158.38,-31.53 165.3,-30.51"/>
</a>
</g>
</g>
<!-- Node25 -->
<g id="Node000025" class="node">
<title>Node25</title>
<g id="a_Node000025"><a xlink:title=" ">
<polygon fill="#e0e0e0" stroke="#999999" points="288.58,-74.5 187.08,-74.5 187.08,-55.25 288.58,-55.25 288.58,-74.5"/>
<text text-anchor="middle" x="237.83" y="-61" font-family="Helvetica,sans-Serif" font-size="10.00">Adafruit_NeoPixel.h</text>
</a>
</g>
</g>
<!-- Node24&#45;&gt;Node25 -->
<g id="edge38_Node000024_Node000025" class="edge">
<title>Node24&#45;&gt;Node25</title>
<g id="a_edge38_Node000024_Node000025"><a xlink:title=" ">
<path fill="none" stroke="#63b8ff" d="M185.52,-110.09C194.53,-102.47 207.67,-91.37 218.52,-82.2"/>
<polygon fill="#63b8ff" stroke="#63b8ff" points="220.77,-84.88 226.15,-75.75 216.25,-79.53 220.77,-84.88"/>
</a>
</g>
</g>
<!-- Node26 -->
<g id="Node000026" class="node">
<title>Node26</title>
<g id="a_Node000026"><a xlink:href="_pins_config_8hpp.xhtml" target="_top" xlink:title=" ">
<polygon fill="white" stroke="#666666" points="387.08,-74.5 306.58,-74.5 306.58,-55.25 387.08,-55.25 387.08,-74.5"/>
<text text-anchor="middle" x="346.83" y="-61" font-family="Helvetica,sans-Serif" font-size="10.00">PinsConfig.hpp</text>
</a>
</g>
</g>
<!-- Node24&#45;&gt;Node26 -->
<g id="edge39_Node000024_Node000026" class="edge">
<title>Node24&#45;&gt;Node26</title>
<g id="a_edge39_Node000024_Node000026"><a xlink:title=" ">
<path fill="none" stroke="#63b8ff" d="M201.33,-110.92C229.4,-102.23 274.06,-88.41 306.5,-78.36"/>
<polygon fill="#63b8ff" stroke="#63b8ff" points="307.46,-81.73 315.98,-75.43 305.39,-75.04 307.46,-81.73"/>
</a>
</g>
</g>
<!-- Node26&#45;&gt;Node9 -->
<g id="edge40_Node000026_Node000009" class="edge">
<title>Node26&#45;&gt;Node9</title>
<g id="a_edge40_Node000026_Node000009"><a xlink:title=" ">
<path fill="none" stroke="#63b8ff" d="M314.94,-54.84C280.96,-45.22 227.39,-30.04 192.68,-20.21"/>
<polygon fill="#63b8ff" stroke="#63b8ff" points="193.72,-16.87 183.15,-17.51 191.81,-23.6 193.72,-16.87"/>
</a>
</g>
</g>
<!-- Node26&#45;&gt;Node21 -->
<g id="edge41_Node000026_Node000021" class="edge">
<title>Node26&#45;&gt;Node21</title>
<g id="a_edge41_Node000026_Node000021"><a xlink:title=" ">
<path fill="none" stroke="#63b8ff" d="M375.67,-54.84C406.72,-45.12 455.86,-29.72 487.21,-19.9"/>
<polygon fill="#63b8ff" stroke="#63b8ff" points="487.95,-23.34 496.44,-17.01 485.86,-16.66 487.95,-23.34"/>
</a>
</g>
</g>
</g>
</svg>

<g id="navigator" transform="translate(0 0)" fill="#404254">
  <rect fill="#f2f5e9" fill-opacity="0.5" stroke="#606060" stroke-width=".5" x="0" y="0" width="60" height="60"/>
  <use id="zoomplus" xlink:href="#zoomPlus" x="17" y="9" onmousedown="handleZoom(evt,'in')"/>
  <use id="zoomminus" xlink:href="#zoomMin" x="42" y="9" onmousedown="handleZoom(evt,'out')"/>
  <use id="reset" xlink:href="#resetDef" x="30" y="36" onmousedown="handleReset()"/>
   <use id="arrowup" xlink:href="#arrowUp" x="0" y="0" onmousedown="handlePan(0,-1)"/>
  <use id="arrowright" xlink:href="#arrowRight" x="0" y="0" onmousedown="handlePan(1,0)"/>
  <use id="arrowdown" xlink:href="#arrowDown" x="0" y="0" onmousedown="handlePan(0,1)"/>
  <use id="arrowleft" xlink:href="#arrowLeft" x="0" y="0" onmousedown="handlePan(-1,0)"/>
</g>
<svg viewBox="0 0 15 15" width="100%" height="30px" preserveAspectRatio="xMaxYMin meet">
 <g id="arrow_out" transform="scale(0.3 0.3)">
  <a xlink:href="_buffered_msg_8cpp__incl_org.svg" target="_base">
   <rect id="button" ry="5" rx="5" y="6" x="6" height="38" width="38"
        fill="#f2f5e9" fill-opacity="0.5" stroke="#606060" stroke-width="1.0"/>
   <path id="arrow"
     d="M 11.500037,31.436501 C 11.940474,20.09759 22.043105,11.32322 32.158766,21.979434 L 37.068811,17.246167 C 37.068811,17.246167 37.088388,32 37.088388,32 L 22.160133,31.978069 C 22.160133,31.978069 26.997745,27.140456 26.997745,27.140456 C 18.528582,18.264221 13.291696,25.230495 11.500037,31.436501 z"
     style="fill:#404040;"/>
  </a>
 </g>
</svg>

<style type='text/css'>
<![CDATA[
[data-mouse-over-selected='false'] { opacity: 0.7; }
[data-mouse-over-selected='true']  { opacity: 1.0; }
]]>
</style>
<script type="application/ecmascript"><![CDATA[
document.addEventListener('DOMContentLoaded', (event) => {
  highlightEdges();
  highlightAdjacentNodes();
});
]]></script>
</svg>
