<?xml version="1.0" encoding="UTF-8" standalone="no"?>
<!DOCTYPE svg PUBLIC "-//W3C//DTD SVG 1.1//EN"
 "http://www.w3.org/Graphics/SVG/1.1/DTD/svg11.dtd">
<!-- Generated by graphviz version 9.0.0 (20230911.1827)
 -->
<!-- Title: BufferedMsg.hpp Pages: 1 -->
<!--zoomable 304 -->

<svg id="main" version="1.1" xmlns="http://www.w3.org/2000/svg" xmlns:xlink="http://www.w3.org/1999/xlink" xml:space="preserve" onload="init(evt)">
<style type="text/css"><![CDATA[
.node, .edge {opacity: 0.7;}
.node.selected, .edge.selected {opacity: 1;}
.edge:hover path { stroke: red; }
.edge:hover polygon { stroke: red; fill: red; }
]]></style>

<defs>
  <circle id="rim" cx="0" cy="0" r="7"/>
  <circle id="rim2" cx="0" cy="0" r="3.5"/>
  <g id="zoomPlus">
    <use xlink:href="#rim" fill="#404040"><set attributeName="fill" to="#808080" begin="zoomplus.mouseover" end="zoomplus.mouseout"/></use>
    <path d="M-4,0h8M0,-4v8" fill="none" stroke="white" stroke-width="1.5" pointer-events="none"/>
  </g>
  <g id="zoomMin">
    <use xlink:href="#rim" fill="#404040"><set attributeName="fill" to="#808080" begin="zoomminus.mouseover" end="zoomminus.mouseout"/></use>
    <path d="M-4,0h8" fill="none" stroke="white" stroke-width="1.5" pointer-events="none"/>
  </g>
  <g id="arrowUp" transform="translate(30 24)">
    <use xlink:href="#rim"/>
    <path pointer-events="none" fill="none" stroke="white" stroke-width="1.5" d="M0,-3.0v7 M-2.5,-0.5L0,-3.0L2.5,-0.5"/>
  </g>
  <g id="arrowRight" transform="rotate(90) translate(36 -43)">
    <use xlink:href="#rim"/>
    <path pointer-events="none" fill="none" stroke="white" stroke-width="1.5" d="M0,-3.0v7 M-2.5,-0.5L0,-3.0L2.5,-0.5"/>
  </g>
  <g id="arrowDown" transform="rotate(180) translate(-30 -48)">
    <use xlink:href="#rim"/>
    <path pointer-events="none" fill="none" stroke="white" stroke-width="1.5" d="M0,-3.0v7 M-2.5,-0.5L0,-3.0L2.5,-0.5"/>
  </g>
  <g id="arrowLeft" transform="rotate(270) translate(-36 17)">
    <use xlink:href="#rim"/>
    <path pointer-events="none" fill="none" stroke="white" stroke-width="1.5" d="M0,-3.0v7 M-2.5,-0.5L0,-3.0L2.5,-0.5"/>
  </g>
  <g id="resetDef">
    <use xlink:href="#rim2" fill="#404040"><set attributeName="fill" to="#808080" begin="reset.mouseover" end="reset.mouseout"/></use>
  </g>
</defs>
<script type="application/ecmascript">
var viewWidth = 743;
var viewHeight = 304;
var sectionId = 'dynsection-1';
</script>
<script type="application/ecmascript" xlink:href="svg.min.js"/>
<svg id="graph" class="graph">
<g id="viewport">
<title>BufferedMsg.hpp</title>
<!-- Node1 -->
<g id="Node000001" class="node">
<title>Node1</title>
<g id="a_Node000001"><a xlink:title=" ">
<polygon fill="#999999" stroke="#666666" points="567.2,-295.5 478.45,-295.5 478.45,-276.25 567.2,-276.25 567.2,-295.5"/>
<text text-anchor="middle" x="522.83" y="-282" font-family="Helvetica,sans-Serif" font-size="10.00">BufferedMsg.hpp</text>
</a>
</g>
</g>
<!-- Node2 -->
<g id="Node000002" class="node">
<title>Node2</title>
<g id="a_Node000002"><a xlink:href="_buffered_msg_8cpp.xhtml" target="_top" xlink:title=" ">
<polygon fill="white" stroke="#666666" points="459.2,-240.25 370.45,-240.25 370.45,-221 459.2,-221 459.2,-240.25"/>
<text text-anchor="middle" x="414.83" y="-226.75" font-family="Helvetica,sans-Serif" font-size="10.00">BufferedMsg.cpp</text>
</a>
</g>
</g>
<!-- Node1&#45;&gt;Node2 -->
<g id="edge1_Node000001_Node000002" class="edge">
<title>Node1&#45;&gt;Node2</title>
<g id="a_edge1_Node000001_Node000002"><a xlink:title=" ">
<path fill="none" stroke="#63b8ff" d="M494.43,-270.87C475.08,-261.33 450.02,-248.98 433.24,-240.7"/>
<polygon fill="#63b8ff" stroke="#63b8ff" points="492.63,-273.89 503.15,-275.17 495.73,-267.61 492.63,-273.89"/>
</a>
</g>
</g>
<!-- Node3 -->
<g id="Node000003" class="node">
<title>Node3</title>
<g id="a_Node000003"><a xlink:href="_fab_backend_8hpp.xhtml" target="_top" xlink:title=" ">
<polygon fill="white" stroke="#666666" points="422.2,-185 333.45,-185 333.45,-165.75 422.2,-165.75 422.2,-185"/>
<text text-anchor="middle" x="377.83" y="-171.5" font-family="Helvetica,sans-Serif" font-size="10.00">FabBackend.hpp</text>
</a>
</g>
</g>
<!-- Node1&#45;&gt;Node3 -->
<g id="edge2_Node000001_Node000003" class="edge">
<title>Node1&#45;&gt;Node3</title>
<g id="a_edge2_Node000001_Node000003"><a xlink:title=" ">
<path fill="none" stroke="#63b8ff" d="M510.53,-267.02C500.31,-253.15 484.75,-234.14 467.83,-221 447.71,-205.39 421.27,-193.07 402.25,-185.36"/>
<polygon fill="#63b8ff" stroke="#63b8ff" points="507.43,-268.7 516.09,-274.81 513.13,-264.64 507.43,-268.7"/>
</a>
</g>
</g>
<!-- Node14 -->
<g id="Node000014" class="node">
<title>Node14</title>
<g id="a_Node000014"><a xlink:href="test__savedconfig_8cpp.xhtml" target="_top" xlink:title=" ">
<polygon fill="white" stroke="#666666" points="712.58,-74.5 605.08,-74.5 605.08,-55.25 712.58,-55.25 712.58,-74.5"/>
<text text-anchor="middle" x="658.83" y="-61" font-family="Helvetica,sans-Serif" font-size="10.00">test_savedconfig.cpp</text>
</a>
</g>
</g>
<!-- Node1&#45;&gt;Node14 -->
<g id="edge34_Node000001_Node000014" class="edge">
<title>Node1&#45;&gt;Node14</title>
<g id="a_edge34_Node000001_Node000014"><a xlink:title=" ">
<path fill="none" stroke="#63b8ff" d="M559.81,-271.56C576.94,-264.16 596.77,-253.69 611.83,-240.25 652.89,-203.57 658.31,-183.98 667.83,-129.75 671.27,-110.12 665.57,-86.9 661.78,-74.58"/>
<polygon fill="#63b8ff" stroke="#63b8ff" points="558.88,-268.16 550.96,-275.2 561.54,-274.64 558.88,-268.16"/>
</a>
</g>
</g>
<!-- Node17 -->
<g id="Node000017" class="node">
<title>Node17</title>
<g id="a_Node000017"><a xlink:href="_saved_config_8hpp.xhtml" target="_top" xlink:title=" ">
<polygon fill="white" stroke="#666666" points="603.2,-240.25 514.45,-240.25 514.45,-221 603.2,-221 603.2,-240.25"/>
<text text-anchor="middle" x="558.83" y="-226.75" font-family="Helvetica,sans-Serif" font-size="10.00">SavedConfig.hpp</text>
</a>
</g>
</g>
<!-- Node1&#45;&gt;Node17 -->
<g id="edge24_Node000001_Node000017" class="edge">
<title>Node1&#45;&gt;Node17</title>
<g id="a_edge24_Node000001_Node000017"><a xlink:title=" ">
<path fill="none" stroke="#63b8ff" d="M535.14,-266.65C541.09,-257.86 547.95,-247.71 552.75,-240.61"/>
<polygon fill="#63b8ff" stroke="#63b8ff" points="532.32,-264.58 529.62,-274.83 538.12,-268.5 532.32,-264.58"/>
</a>
</g>
</g>
<!-- Node4 -->
<g id="Node000004" class="node">
<title>Node4</title>
<g id="a_Node000004"><a xlink:href="_auth_provider_8cpp.xhtml" target="_top" xlink:title=" ">
<polygon fill="white" stroke="#666666" points="120.95,-129.75 30.7,-129.75 30.7,-110.5 120.95,-110.5 120.95,-129.75"/>
<text text-anchor="middle" x="75.83" y="-116.25" font-family="Helvetica,sans-Serif" font-size="10.00">AuthProvider.cpp</text>
</a>
</g>
</g>
<!-- Node3&#45;&gt;Node4 -->
<g id="edge3_Node000003_Node000004" class="edge">
<title>Node3&#45;&gt;Node4</title>
<g id="a_edge3_Node000003_Node000004"><a xlink:title=" ">
<path fill="none" stroke="#63b8ff" d="M322.13,-164.55C264.24,-154.35 174.74,-138.57 121.06,-129.1"/>
<polygon fill="#63b8ff" stroke="#63b8ff" points="321.32,-167.97 331.77,-166.25 322.53,-161.07 321.32,-167.97"/>
</a>
</g>
</g>
<!-- Node5 -->
<g id="Node000005" class="node">
<title>Node5</title>
<g id="a_Node000005"><a xlink:href="_board_logic_8cpp.xhtml" target="_top" xlink:title=" ">
<polygon fill="white" stroke="#666666" points="494.58,-74.5 411.08,-74.5 411.08,-55.25 494.58,-55.25 494.58,-74.5"/>
<text text-anchor="middle" x="452.83" y="-61" font-family="Helvetica,sans-Serif" font-size="10.00">BoardLogic.cpp</text>
</a>
</g>
</g>
<!-- Node3&#45;&gt;Node5 -->
<g id="edge4_Node000003_Node000005" class="edge">
<title>Node3&#45;&gt;Node5</title>
<g id="a_edge4_Node000003_Node000005"><a xlink:title=" ">
<path fill="none" stroke="#63b8ff" d="M382.5,-154.68C386.29,-141.4 392.53,-123.92 401.83,-110.5 412.01,-95.8 428.08,-82.82 439.45,-74.71"/>
<polygon fill="#63b8ff" stroke="#63b8ff" points="379.21,-153.44 380.09,-164 385.99,-155.2 379.21,-153.44"/>
</a>
</g>
</g>
<!-- Node6 -->
<g id="Node000006" class="node">
<title>Node6</title>
<g id="a_Node000006"><a xlink:href="_board_logic_8hpp.xhtml" target="_top" xlink:title=" ">
<polygon fill="white" stroke="#666666" points="349.58,-129.75 266.08,-129.75 266.08,-110.5 349.58,-110.5 349.58,-129.75"/>
<text text-anchor="middle" x="307.83" y="-116.25" font-family="Helvetica,sans-Serif" font-size="10.00">BoardLogic.hpp</text>
</a>
</g>
</g>
<!-- Node3&#45;&gt;Node6 -->
<g id="edge5_Node000003_Node000006" class="edge">
<title>Node3&#45;&gt;Node6</title>
<g id="a_edge5_Node000003_Node000006"><a xlink:title=" ">
<path fill="none" stroke="#63b8ff" d="M356.88,-158.44C344.65,-149.14 329.69,-137.76 319.52,-130.02"/>
<polygon fill="#63b8ff" stroke="#63b8ff" points="354.67,-161.16 364.75,-164.43 358.91,-155.59 354.67,-161.16"/>
</a>
</g>
</g>
<!-- Node8 -->
<g id="Node000008" class="node">
<title>Node8</title>
<g id="a_Node000008"><a xlink:href="globals_8hpp.xhtml" target="_top" xlink:title=" ">
<polygon fill="white" stroke="#666666" points="577.2,-74.5 512.45,-74.5 512.45,-55.25 577.2,-55.25 577.2,-74.5"/>
<text text-anchor="middle" x="544.83" y="-61" font-family="Helvetica,sans-Serif" font-size="10.00">globals.hpp</text>
</a>
</g>
</g>
<!-- Node3&#45;&gt;Node8 -->
<g id="edge20_Node000003_Node000008" class="edge">
<title>Node3&#45;&gt;Node8</title>
<g id="a_edge20_Node000003_Node000008"><a xlink:title=" ">
<path fill="none" stroke="#63b8ff" d="M391.58,-156.73C403.22,-142.73 420.98,-123.42 439.83,-110.5 463.18,-94.48 493.21,-82.43 515.17,-74.92"/>
<polygon fill="#63b8ff" stroke="#63b8ff" points="389.06,-154.28 385.51,-164.26 394.51,-158.67 389.06,-154.28"/>
</a>
</g>
</g>
<!-- Node12 -->
<g id="Node000012" class="node">
<title>Node12</title>
<g id="a_Node000012"><a xlink:href="test__logic_8cpp.xhtml" target="_top" xlink:title=" ">
<polygon fill="white" stroke="#666666" points="104.83,-19.25 28.83,-19.25 28.83,0 104.83,0 104.83,-19.25"/>
<text text-anchor="middle" x="66.83" y="-5.75" font-family="Helvetica,sans-Serif" font-size="10.00">test_logic.cpp</text>
</a>
</g>
</g>
<!-- Node3&#45;&gt;Node12 -->
<g id="edge21_Node000003_Node000012" class="edge">
<title>Node3&#45;&gt;Node12</title>
<g id="a_edge21_Node000003_Node000012"><a xlink:title=" ">
<path fill="none" stroke="#63b8ff" d="M321.61,-171.35C226.28,-165.64 41.31,-151.83 21.83,-129.75 -0.08,-104.92 9.09,-85.81 21.83,-55.25 28.09,-40.22 42.15,-27.65 52.9,-19.72"/>
<polygon fill="#63b8ff" stroke="#63b8ff" points="321.35,-174.84 331.54,-171.93 321.76,-167.85 321.35,-174.84"/>
</a>
</g>
</g>
<!-- Node13 -->
<g id="Node000013" class="node">
<title>Node13</title>
<g id="a_Node000013"><a xlink:href="test__mqtt_8cpp.xhtml" target="_top" xlink:title=" ">
<polygon fill="white" stroke="#666666" points="106.45,-74.5 31.2,-74.5 31.2,-55.25 106.45,-55.25 106.45,-74.5"/>
<text text-anchor="middle" x="68.83" y="-61" font-family="Helvetica,sans-Serif" font-size="10.00">test_mqtt.cpp</text>
</a>
</g>
</g>
<!-- Node3&#45;&gt;Node13 -->
<g id="edge22_Node000003_Node000013" class="edge">
<title>Node3&#45;&gt;Node13</title>
<g id="a_edge22_Node000003_Node000013"><a xlink:title=" ">
<path fill="none" stroke="#63b8ff" d="M339.74,-161.6C315.69,-153.22 284.11,-141.65 256.83,-129.75 239.47,-122.18 236.41,-117.51 218.83,-110.5 181.34,-95.57 136.87,-82.95 106.13,-74.98"/>
<polygon fill="#63b8ff" stroke="#63b8ff" points="338.53,-164.89 349.13,-164.84 340.82,-158.27 338.53,-164.89"/>
</a>
</g>
</g>
<!-- Node3&#45;&gt;Node14 -->
<g id="edge23_Node000003_Node000014" class="edge">
<title>Node3&#45;&gt;Node14</title>
<g id="a_edge23_Node000003_Node000014"><a xlink:title=" ">
<path fill="none" stroke="#63b8ff" d="M399.09,-158.78C422.15,-142.1 457.7,-117.14 472.83,-110.5 515.24,-91.88 566.66,-80.3 604.68,-73.62"/>
<polygon fill="#63b8ff" stroke="#63b8ff" points="397.32,-155.74 391.29,-164.45 401.43,-161.4 397.32,-155.74"/>
</a>
</g>
</g>
<!-- Node15 -->
<g id="Node000015" class="node">
<title>Node15</title>
<g id="a_Node000015"><a xlink:href="_fab_backend_8cpp.xhtml" target="_top" xlink:title=" ">
<polygon fill="white" stroke="#666666" points="570.2,-129.75 481.45,-129.75 481.45,-110.5 570.2,-110.5 570.2,-129.75"/>
<text text-anchor="middle" x="525.83" y="-116.25" font-family="Helvetica,sans-Serif" font-size="10.00">FabBackend.cpp</text>
</a>
</g>
</g>
<!-- Node3&#45;&gt;Node15 -->
<g id="edge18_Node000003_Node000015" class="edge">
<title>Node3&#45;&gt;Node15</title>
<g id="a_edge18_Node000003_Node000015"><a xlink:title=" ">
<path fill="none" stroke="#63b8ff" d="M413.46,-161.55C440.37,-151.87 476.63,-138.82 500.6,-130.2"/>
<polygon fill="#63b8ff" stroke="#63b8ff" points="412.58,-158.15 404.36,-164.83 414.95,-164.74 412.58,-158.15"/>
</a>
</g>
</g>
<!-- Node16 -->
<g id="Node000016" class="node">
<title>Node16</title>
<g id="a_Node000016"><a xlink:href="_machine_8cpp.xhtml" target="_top" xlink:title=" ">
<polygon fill="white" stroke="#666666" points="210.2,-129.75 139.45,-129.75 139.45,-110.5 210.2,-110.5 210.2,-129.75"/>
<text text-anchor="middle" x="174.83" y="-116.25" font-family="Helvetica,sans-Serif" font-size="10.00">Machine.cpp</text>
</a>
</g>
</g>
<!-- Node3&#45;&gt;Node16 -->
<g id="edge19_Node000003_Node000016" class="edge">
<title>Node3&#45;&gt;Node16</title>
<g id="a_edge19_Node000003_Node000016"><a xlink:title=" ">
<path fill="none" stroke="#63b8ff" d="M332.35,-162.45C295.15,-152.69 243.32,-139.09 209.43,-130.2"/>
<polygon fill="#63b8ff" stroke="#63b8ff" points="331.36,-165.81 341.92,-164.96 333.14,-159.03 331.36,-165.81"/>
</a>
</g>
</g>
<!-- Node6&#45;&gt;Node5 -->
<g id="edge6_Node000006_Node000005" class="edge">
<title>Node6&#45;&gt;Node5</title>
<g id="a_edge6_Node000006_Node000005"><a xlink:title=" ">
<path fill="none" stroke="#63b8ff" d="M343.09,-106.17C369.42,-96.5 404.74,-83.54 428.11,-74.95"/>
<polygon fill="#63b8ff" stroke="#63b8ff" points="342.02,-102.84 333.84,-109.57 344.44,-109.41 342.02,-102.84"/>
</a>
</g>
</g>
<!-- Node7 -->
<g id="Node000007" class="node">
<title>Node7</title>
<g id="a_Node000007"><a xlink:href="_o_t_a_8cpp.xhtml" target="_top" xlink:title=" ">
<polygon fill="white" stroke="#666666" points="316.95,-74.5 262.7,-74.5 262.7,-55.25 316.95,-55.25 316.95,-74.5"/>
<text text-anchor="middle" x="289.83" y="-61" font-family="Helvetica,sans-Serif" font-size="10.00">OTA.cpp</text>
</a>
</g>
</g>
<!-- Node6&#45;&gt;Node7 -->
<g id="edge7_Node000006_Node000007" class="edge">
<title>Node6&#45;&gt;Node7</title>
<g id="a_edge7_Node000006_Node000007"><a xlink:title=" ">
<path fill="none" stroke="#63b8ff" d="M301.18,-99.46C298.32,-91.02 295.13,-81.58 292.86,-74.86"/>
<polygon fill="#63b8ff" stroke="#63b8ff" points="297.85,-100.55 304.37,-108.9 304.48,-98.3 297.85,-100.55"/>
</a>
</g>
</g>
<!-- Node6&#45;&gt;Node8 -->
<g id="edge8_Node000006_Node000008" class="edge">
<title>Node6&#45;&gt;Node8</title>
<g id="a_edge8_Node000006_Node000008"><a xlink:title=" ">
<path fill="none" stroke="#63b8ff" d="M359.34,-107.55C405.79,-97.11 472.67,-82.09 512.15,-73.22"/>
<polygon fill="#63b8ff" stroke="#63b8ff" points="358.76,-104.09 349.77,-109.7 360.3,-110.92 358.76,-104.09"/>
</a>
</g>
</g>
<!-- Node9 -->
<g id="Node000009" class="node">
<title>Node9</title>
<g id="a_Node000009"><a xlink:href="main_8cpp.xhtml" target="_top" xlink:title=" ">
<polygon fill="white" stroke="#666666" points="572.33,-19.25 517.33,-19.25 517.33,0 572.33,0 572.33,-19.25"/>
<text text-anchor="middle" x="544.83" y="-5.75" font-family="Helvetica,sans-Serif" font-size="10.00">main.cpp</text>
</a>
</g>
</g>
<!-- Node6&#45;&gt;Node9 -->
<g id="edge10_Node000006_Node000009" class="edge">
<title>Node6&#45;&gt;Node9</title>
<g id="a_edge10_Node000006_Node000009"><a xlink:title=" ">
<path fill="none" stroke="#63b8ff" d="M327.57,-103.15C345.9,-88.96 374.41,-68.48 401.83,-55.25 440,-36.82 487.54,-23.77 517.04,-16.72"/>
<polygon fill="#63b8ff" stroke="#63b8ff" points="325.62,-100.24 319.93,-109.17 329.95,-105.73 325.62,-100.24"/>
</a>
</g>
</g>
<!-- Node10 -->
<g id="Node000010" class="node">
<title>Node10</title>
<g id="a_Node000010"><a xlink:href="test__common_8cpp.xhtml" target="_top" xlink:title=" ">
<polygon fill="white" stroke="#666666" points="246.45,-19.25 153.2,-19.25 153.2,0 246.45,0 246.45,-19.25"/>
<text text-anchor="middle" x="199.83" y="-5.75" font-family="Helvetica,sans-Serif" font-size="10.00">test_common.cpp</text>
</a>
</g>
</g>
<!-- Node6&#45;&gt;Node10 -->
<g id="edge11_Node000006_Node000010" class="edge">
<title>Node6&#45;&gt;Node10</title>
<g id="a_edge11_Node000006_Node000010"><a xlink:title=" ">
<path fill="none" stroke="#63b8ff" d="M286.94,-103.3C276.6,-95.11 264.15,-84.71 253.83,-74.5 235.45,-56.33 216.52,-32.54 206.69,-19.74"/>
<polygon fill="#63b8ff" stroke="#63b8ff" points="284.48,-105.82 294.52,-109.19 288.78,-100.29 284.48,-105.82"/>
</a>
</g>
</g>
<!-- Node11 -->
<g id="Node000011" class="node">
<title>Node11</title>
<g id="a_Node000011"><a xlink:href="test__common_8h.xhtml" target="_top" xlink:title=" ">
<polygon fill="white" stroke="#666666" points="207.2,-74.5 124.45,-74.5 124.45,-55.25 207.2,-55.25 207.2,-74.5"/>
<text text-anchor="middle" x="165.83" y="-61" font-family="Helvetica,sans-Serif" font-size="10.00">test_common.h</text>
</a>
</g>
</g>
<!-- Node6&#45;&gt;Node11 -->
<g id="edge12_Node000006_Node000011" class="edge">
<title>Node6&#45;&gt;Node11</title>
<g id="a_edge12_Node000006_Node000011"><a xlink:title=" ">
<path fill="none" stroke="#63b8ff" d="M273.29,-106.17C247.5,-96.5 212.92,-83.54 190.03,-74.95"/>
<polygon fill="#63b8ff" stroke="#63b8ff" points="271.73,-109.33 282.32,-109.56 274.19,-102.77 271.73,-109.33"/>
</a>
</g>
</g>
<!-- Node6&#45;&gt;Node12 -->
<g id="edge15_Node000006_Node000012" class="edge">
<title>Node6&#45;&gt;Node12</title>
<g id="a_edge15_Node000006_Node000012"><a xlink:title=" ">
<path fill="none" stroke="#63b8ff" d="M321.11,-100.73C329.38,-86.83 336.59,-68.03 325.83,-55.25 318.74,-46.84 175.5,-25.8 105.15,-15.91"/>
<polygon fill="#63b8ff" stroke="#63b8ff" points="318.27,-98.68 315.69,-108.96 324.11,-102.53 318.27,-98.68"/>
</a>
</g>
</g>
<!-- Node6&#45;&gt;Node13 -->
<g id="edge16_Node000006_Node000013" class="edge">
<title>Node6&#45;&gt;Node13</title>
<g id="a_edge16_Node000006_Node000013"><a xlink:title=" ">
<path fill="none" stroke="#63b8ff" d="M256.02,-107.58C211.06,-97.56 147.02,-83.3 106.71,-74.32"/>
<polygon fill="#63b8ff" stroke="#63b8ff" points="255.01,-110.94 265.53,-109.7 256.53,-104.11 255.01,-110.94"/>
</a>
</g>
</g>
<!-- Node6&#45;&gt;Node14 -->
<g id="edge17_Node000006_Node000014" class="edge">
<title>Node6&#45;&gt;Node14</title>
<g id="a_edge17_Node000006_Node000014"><a xlink:title=" ">
<path fill="none" stroke="#63b8ff" d="M361.17,-111.03C427.05,-101.04 538.49,-84.13 604.72,-74.08"/>
<polygon fill="#63b8ff" stroke="#63b8ff" points="360.67,-107.57 351.31,-112.53 361.72,-114.49 360.67,-107.57"/>
</a>
</g>
</g>
<!-- Node8&#45;&gt;Node9 -->
<g id="edge9_Node000008_Node000009" class="edge">
<title>Node8&#45;&gt;Node9</title>
<g id="a_edge9_Node000008_Node000009"><a xlink:title=" ">
<path fill="none" stroke="#63b8ff" d="M544.83,-43.63C544.83,-35.34 544.83,-26.17 544.83,-19.61"/>
<polygon fill="#63b8ff" stroke="#63b8ff" points="541.33,-43.57 544.83,-53.57 548.33,-43.57 541.33,-43.57"/>
</a>
</g>
</g>
<!-- Node11&#45;&gt;Node10 -->
<g id="edge13_Node000011_Node000010" class="edge">
<title>Node11&#45;&gt;Node10</title>
<g id="a_edge13_Node000011_Node000010"><a xlink:title=" ">
<path fill="none" stroke="#63b8ff" d="M177.46,-45.65C183.07,-36.86 189.55,-26.71 194.09,-19.61"/>
<polygon fill="#63b8ff" stroke="#63b8ff" points="174.69,-43.49 172.25,-53.81 180.59,-47.26 174.69,-43.49"/>
</a>
</g>
</g>
<!-- Node11&#45;&gt;Node12 -->
<g id="edge14_Node000011_Node000012" class="edge">
<title>Node11&#45;&gt;Node12</title>
<g id="a_edge14_Node000011_Node000012"><a xlink:title=" ">
<path fill="none" stroke="#63b8ff" d="M139.3,-49.61C121.63,-40.11 98.95,-27.9 83.7,-19.7"/>
<polygon fill="#63b8ff" stroke="#63b8ff" points="137.23,-52.47 147.7,-54.12 140.55,-46.31 137.23,-52.47"/>
</a>
</g>
</g>
<!-- Node17&#45;&gt;Node3 -->
<g id="edge27_Node000017_Node000003" class="edge">
<title>Node17&#45;&gt;Node3</title>
<g id="a_edge27_Node000017_Node000003"><a xlink:title=" ">
<path fill="none" stroke="#63b8ff" d="M517.42,-217.44C484.31,-207.7 438.64,-194.27 408.68,-185.45"/>
<polygon fill="#63b8ff" stroke="#63b8ff" points="516.09,-220.7 526.67,-220.16 518.06,-213.98 516.09,-220.7"/>
</a>
</g>
</g>
<!-- Node17&#45;&gt;Node5 -->
<g id="edge25_Node000017_Node000005" class="edge">
<title>Node17&#45;&gt;Node5</title>
<g id="a_edge25_Node000017_Node000005"><a xlink:title=" ">
<path fill="none" stroke="#63b8ff" d="M569.89,-210.47C582.85,-185.22 600.03,-140.5 578.83,-110.5 568.68,-96.14 526.41,-83.15 493.6,-74.94"/>
<polygon fill="#63b8ff" stroke="#63b8ff" points="566.82,-208.79 565.11,-219.25 572.96,-212.14 566.82,-208.79"/>
</a>
</g>
</g>
<!-- Node17&#45;&gt;Node8 -->
<g id="edge29_Node000017_Node000008" class="edge">
<title>Node17&#45;&gt;Node8</title>
<g id="a_edge29_Node000017_Node000008"><a xlink:title=" ">
<path fill="none" stroke="#63b8ff" d="M585.46,-214.32C595.7,-206.9 606.25,-196.98 611.83,-185 625.79,-154.98 627.46,-139.69 611.83,-110.5 602.79,-93.62 584.23,-82.03 568.94,-74.9"/>
<polygon fill="#63b8ff" stroke="#63b8ff" points="583.58,-211.37 577.19,-219.81 587.46,-217.2 583.58,-211.37"/>
</a>
</g>
</g>
<!-- Node17&#45;&gt;Node9 -->
<g id="edge30_Node000017_Node000009" class="edge">
<title>Node17&#45;&gt;Node9</title>
<g id="a_edge30_Node000017_Node000009"><a xlink:title=" ">
<path fill="none" stroke="#63b8ff" d="M595.37,-216.39C612.56,-208.95 632.58,-198.44 647.83,-185 697.61,-141.09 762.63,-107.62 721.83,-55.25 703.61,-31.88 617.56,-18.84 572.5,-13.51"/>
<polygon fill="#63b8ff" stroke="#63b8ff" points="594.42,-213 586.5,-220.04 597.08,-219.47 594.42,-213"/>
</a>
</g>
</g>
<!-- Node17&#45;&gt;Node12 -->
<g id="edge31_Node000017_Node000012" class="edge">
<title>Node17&#45;&gt;Node12</title>
<g id="a_edge31_Node000017_Node000012"><a xlink:title=" ">
<path fill="none" stroke="#63b8ff" d="M502.71,-224.15C386.99,-212.82 131.85,-187.65 122.83,-185 70.71,-169.7 43.5,-175.24 13.83,-129.75 -4.28,-101.99 -3.56,-85.1 10.83,-55.25 18.54,-39.23 35.11,-27.19 48.23,-19.67"/>
<polygon fill="#63b8ff" stroke="#63b8ff" points="502.32,-227.63 512.62,-225.12 503,-220.66 502.32,-227.63"/>
</a>
</g>
</g>
<!-- Node17&#45;&gt;Node13 -->
<g id="edge32_Node000017_Node000013" class="edge">
<title>Node17&#45;&gt;Node13</title>
<g id="a_edge32_Node000017_Node000013"><a xlink:title=" ">
<path fill="none" stroke="#63b8ff" d="M503.02,-223.29C371.84,-207.83 52.57,-166.74 21.83,-129.75 6.16,-110.9 35,-87.38 54.03,-74.8"/>
<polygon fill="#63b8ff" stroke="#63b8ff" points="502.53,-226.75 512.87,-224.44 503.34,-219.8 502.53,-226.75"/>
</a>
</g>
</g>
<!-- Node17&#45;&gt;Node14 -->
<g id="edge33_Node000017_Node000014" class="edge">
<title>Node17&#45;&gt;Node14</title>
<g id="a_edge33_Node000017_Node000014"><a xlink:title=" ">
<path fill="none" stroke="#63b8ff" d="M591.55,-215.49C604.92,-208.19 619.42,-198.04 628.83,-185 654.03,-150.06 658.14,-96.09 658.75,-74.88"/>
<polygon fill="#63b8ff" stroke="#63b8ff" points="590.33,-212.18 583,-219.83 593.5,-218.43 590.33,-212.18"/>
</a>
</g>
</g>
<!-- Node17&#45;&gt;Node15 -->
<g id="edge26_Node000017_Node000015" class="edge">
<title>Node17&#45;&gt;Node15</title>
<g id="a_edge26_Node000017_Node000015"><a xlink:title=" ">
<path fill="none" stroke="#63b8ff" d="M553.03,-209.86C549.3,-197.23 544.33,-180.51 539.83,-165.75 536.03,-153.33 531.51,-139 528.65,-130"/>
<polygon fill="#63b8ff" stroke="#63b8ff" points="549.56,-210.46 555.73,-219.06 556.27,-208.48 549.56,-210.46"/>
</a>
</g>
</g>
<!-- Node18 -->
<g id="Node000018" class="node">
<title>Node18</title>
<g id="a_Node000018"><a xlink:href="_saved_config_8cpp.xhtml" target="_top" xlink:title=" ">
<polygon fill="white" stroke="#666666" points="531.2,-185 442.45,-185 442.45,-165.75 531.2,-165.75 531.2,-185"/>
<text text-anchor="middle" x="486.83" y="-171.5" font-family="Helvetica,sans-Serif" font-size="10.00">SavedConfig.cpp</text>
</a>
</g>
</g>
<!-- Node17&#45;&gt;Node18 -->
<g id="edge28_Node000017_Node000018" class="edge">
<title>Node17&#45;&gt;Node18</title>
<g id="a_edge28_Node000017_Node000018"><a xlink:title=" ">
<path fill="none" stroke="#63b8ff" d="M537.65,-213.97C525.01,-204.62 509.42,-193.08 498.86,-185.27"/>
<polygon fill="#63b8ff" stroke="#63b8ff" points="535.27,-216.56 545.39,-219.69 539.44,-210.93 535.27,-216.56"/>
</a>
</g>
</g>
</g>
</svg>

<g id="navigator" transform="translate(0 0)" fill="#404254">
  <rect fill="#f2f5e9" fill-opacity="0.5" stroke="#606060" stroke-width=".5" x="0" y="0" width="60" height="60"/>
  <use id="zoomplus" xlink:href="#zoomPlus" x="17" y="9" onmousedown="handleZoom(evt,'in')"/>
  <use id="zoomminus" xlink:href="#zoomMin" x="42" y="9" onmousedown="handleZoom(evt,'out')"/>
  <use id="reset" xlink:href="#resetDef" x="30" y="36" onmousedown="handleReset()"/>
   <use id="arrowup" xlink:href="#arrowUp" x="0" y="0" onmousedown="handlePan(0,-1)"/>
  <use id="arrowright" xlink:href="#arrowRight" x="0" y="0" onmousedown="handlePan(1,0)"/>
  <use id="arrowdown" xlink:href="#arrowDown" x="0" y="0" onmousedown="handlePan(0,1)"/>
  <use id="arrowleft" xlink:href="#arrowLeft" x="0" y="0" onmousedown="handlePan(-1,0)"/>
</g>
<svg viewBox="0 0 15 15" width="100%" height="30px" preserveAspectRatio="xMaxYMin meet">
 <g id="arrow_out" transform="scale(0.3 0.3)">
  <a xlink:href="_buffered_msg_8hpp__dep__incl_org.svg" target="_base">
   <rect id="button" ry="5" rx="5" y="6" x="6" height="38" width="38"
        fill="#f2f5e9" fill-opacity="0.5" stroke="#606060" stroke-width="1.0"/>
   <path id="arrow"
     d="M 11.500037,31.436501 C 11.940474,20.09759 22.043105,11.32322 32.158766,21.979434 L 37.068811,17.246167 C 37.068811,17.246167 37.088388,32 37.088388,32 L 22.160133,31.978069 C 22.160133,31.978069 26.997745,27.140456 26.997745,27.140456 C 18.528582,18.264221 13.291696,25.230495 11.500037,31.436501 z"
     style="fill:#404040;"/>
  </a>
 </g>
</svg>

<style type='text/css'>
<![CDATA[
[data-mouse-over-selected='false'] { opacity: 0.7; }
[data-mouse-over-selected='true']  { opacity: 1.0; }
]]>
</style>
<script type="application/ecmascript"><![CDATA[
document.addEventListener('DOMContentLoaded', (event) => {
  highlightEdges();
  highlightAdjacentNodes();
});
]]></script>
</svg>
