<?xml version="1.0" encoding="UTF-8" standalone="no"?>
<!DOCTYPE svg PUBLIC "-//W3C//DTD SVG 1.1//EN"
 "http://www.w3.org/Graphics/SVG/1.1/DTD/svg11.dtd">
<!-- Generated by graphviz version 9.0.0 (20230911.1827)
 -->
<!-- Title: BufferedMsg.cpp Pages: 1 -->
<!--zoomable 469 -->

<svg id="main" version="1.1" xmlns="http://www.w3.org/2000/svg" xmlns:xlink="http://www.w3.org/1999/xlink" xml:space="preserve" onload="init(evt)">
<style type="text/css"><![CDATA[
.node, .edge {opacity: 0.7;}
.node.selected, .edge.selected {opacity: 1;}
.edge:hover path { stroke: red; }
.edge:hover polygon { stroke: red; fill: red; }
]]></style>

<defs>
  <circle id="rim" cx="0" cy="0" r="7"/>
  <circle id="rim2" cx="0" cy="0" r="3.5"/>
  <g id="zoomPlus">
    <use xlink:href="#rim" fill="#404040"><set attributeName="fill" to="#808080" begin="zoomplus.mouseover" end="zoomplus.mouseout"/></use>
    <path d="M-4,0h8M0,-4v8" fill="none" stroke="white" stroke-width="1.5" pointer-events="none"/>
  </g>
  <g id="zoomMin">
    <use xlink:href="#rim" fill="#404040"><set attributeName="fill" to="#808080" begin="zoomminus.mouseover" end="zoomminus.mouseout"/></use>
    <path d="M-4,0h8" fill="none" stroke="white" stroke-width="1.5" pointer-events="none"/>
  </g>
  <g id="arrowUp" transform="translate(30 24)">
    <use xlink:href="#rim"/>
    <path pointer-events="none" fill="none" stroke="white" stroke-width="1.5" d="M0,-3.0v7 M-2.5,-0.5L0,-3.0L2.5,-0.5"/>
  </g>
  <g id="arrowRight" transform="rotate(90) translate(36 -43)">
    <use xlink:href="#rim"/>
    <path pointer-events="none" fill="none" stroke="white" stroke-width="1.5" d="M0,-3.0v7 M-2.5,-0.5L0,-3.0L2.5,-0.5"/>
  </g>
  <g id="arrowDown" transform="rotate(180) translate(-30 -48)">
    <use xlink:href="#rim"/>
    <path pointer-events="none" fill="none" stroke="white" stroke-width="1.5" d="M0,-3.0v7 M-2.5,-0.5L0,-3.0L2.5,-0.5"/>
  </g>
  <g id="arrowLeft" transform="rotate(270) translate(-36 17)">
    <use xlink:href="#rim"/>
    <path pointer-events="none" fill="none" stroke="white" stroke-width="1.5" d="M0,-3.0v7 M-2.5,-0.5L0,-3.0L2.5,-0.5"/>
  </g>
  <g id="resetDef">
    <use xlink:href="#rim2" fill="#404040"><set attributeName="fill" to="#808080" begin="reset.mouseover" end="reset.mouseout"/></use>
  </g>
</defs>
<script type="application/ecmascript">
var viewWidth = 1174;
var viewHeight = 469;
var sectionId = 'dynsection-0';
</script>
<script type="application/ecmascript" xlink:href="svg.min.js"/>
<svg id="graph" class="graph">
<g id="viewport">
<title>BufferedMsg.cpp</title>
<!-- Node1 -->
<g id="Node000001" class="node">
<title>Node1</title>
<g id="a_Node000001"><a xlink:title=" ">
<polygon fill="#999999" stroke="#666666" points="586.25,-461.25 497.5,-461.25 497.5,-442 586.25,-442 586.25,-461.25"/>
<text text-anchor="middle" x="541.88" y="-447.75" font-family="Helvetica,sans-Serif" font-size="10.00">BufferedMsg.cpp</text>
</a>
</g>
</g>
<!-- Node2 -->
<g id="Node000002" class="node">
<title>Node2</title>
<g id="a_Node000002"><a xlink:href="_buffered_msg_8hpp.xhtml" target="_top" xlink:title=" ">
<polygon fill="white" stroke="#666666" points="306.25,-406 217.5,-406 217.5,-386.75 306.25,-386.75 306.25,-406"/>
<text text-anchor="middle" x="261.88" y="-392.5" font-family="Helvetica,sans-Serif" font-size="10.00">BufferedMsg.hpp</text>
</a>
</g>
</g>
<!-- Node1&#45;&gt;Node2 -->
<g id="edge1_Node000001_Node000002" class="edge">
<title>Node1&#45;&gt;Node2</title>
<g id="a_edge1_Node000001_Node000002"><a xlink:title=" ">
<path fill="none" stroke="#63b8ff" d="M497.2,-442.13C448.44,-432.85 370.29,-417.99 317.57,-407.97"/>
<polygon fill="#63b8ff" stroke="#63b8ff" points="318.36,-404.55 307.88,-406.12 317.05,-411.43 318.36,-404.55"/>
</a>
</g>
</g>
<!-- Node7 -->
<g id="Node000007" class="node">
<title>Node7</title>
<g id="a_Node000007"><a xlink:title=" ">
<polygon fill="#e0e0e0" stroke="#999999" points="511.62,-295.5 434.12,-295.5 434.12,-276.25 511.62,-276.25 511.62,-295.5"/>
<text text-anchor="middle" x="472.88" y="-282" font-family="Helvetica,sans-Serif" font-size="10.00">ArduinoJson.h</text>
</a>
</g>
</g>
<!-- Node1&#45;&gt;Node7 -->
<g id="edge50_Node000001_Node000007" class="edge">
<title>Node1&#45;&gt;Node7</title>
<g id="a_edge50_Node000001_Node000007"><a xlink:title=" ">
<path fill="none" stroke="#63b8ff" d="M538.17,-441.82C527.4,-416.28 495.98,-341.7 481,-306.15"/>
<polygon fill="#63b8ff" stroke="#63b8ff" points="484.3,-304.97 477.19,-297.12 477.85,-307.69 484.3,-304.97"/>
</a>
</g>
</g>
<!-- Node18 -->
<g id="Node000018" class="node">
<title>Node18</title>
<g id="a_Node000018"><a xlink:href="_logging_8hpp.xhtml" target="_top" xlink:title=" ">
<polygon fill="white" stroke="#666666" points="560.12,-129.75 491.62,-129.75 491.62,-110.5 560.12,-110.5 560.12,-129.75"/>
<text text-anchor="middle" x="525.88" y="-116.25" font-family="Helvetica,sans-Serif" font-size="10.00">Logging.hpp</text>
</a>
</g>
</g>
<!-- Node1&#45;&gt;Node18 -->
<g id="edge51_Node000001_Node000018" class="edge">
<title>Node1&#45;&gt;Node18</title>
<g id="a_edge51_Node000001_Node000018"><a xlink:title=" ">
<path fill="none" stroke="#63b8ff" d="M547.32,-441.71C557.83,-423.63 579.88,-381.04 579.88,-342.12 579.88,-342.12 579.88,-342.12 579.88,-229.62 579.88,-194.73 557.21,-159.51 541.25,-139.03"/>
<polygon fill="#63b8ff" stroke="#63b8ff" points="544.06,-136.94 535.03,-131.4 538.63,-141.36 544.06,-136.94"/>
</a>
</g>
</g>
<!-- Node3 -->
<g id="Node000003" class="node">
<title>Node3</title>
<g id="a_Node000003"><a xlink:title=" ">
<polygon fill="#e0e0e0" stroke="#999999" points="49.75,-350.75 0,-350.75 0,-331.5 49.75,-331.5 49.75,-350.75"/>
<text text-anchor="middle" x="24.88" y="-337.25" font-family="Helvetica,sans-Serif" font-size="10.00">optional</text>
</a>
</g>
</g>
<!-- Node2&#45;&gt;Node3 -->
<g id="edge2_Node000002_Node000003" class="edge">
<title>Node2&#45;&gt;Node3</title>
<g id="a_edge2_Node000002_Node000003"><a xlink:title=" ">
<path fill="none" stroke="#63b8ff" d="M218.62,-386.29C179.87,-378.05 121.21,-365.35 61.3,-351.27"/>
<polygon fill="#63b8ff" stroke="#63b8ff" points="62.11,-347.86 51.58,-348.97 60.5,-354.67 62.11,-347.86"/>
</a>
</g>
</g>
<!-- Node4 -->
<g id="Node000004" class="node">
<title>Node4</title>
<g id="a_Node000004"><a xlink:title=" ">
<polygon fill="#e0e0e0" stroke="#999999" points="110,-350.75 67.75,-350.75 67.75,-331.5 110,-331.5 110,-350.75"/>
<text text-anchor="middle" x="88.88" y="-337.25" font-family="Helvetica,sans-Serif" font-size="10.00">queue</text>
</a>
</g>
</g>
<!-- Node2&#45;&gt;Node4 -->
<g id="edge3_Node000002_Node000004" class="edge">
<title>Node2&#45;&gt;Node4</title>
<g id="a_edge3_Node000002_Node000004"><a xlink:title=" ">
<path fill="none" stroke="#63b8ff" d="M232.53,-386.34C201.7,-376.85 153.36,-361.97 121.39,-352.13"/>
<polygon fill="#63b8ff" stroke="#63b8ff" points="122.45,-348.8 111.87,-349.2 120.4,-355.49 122.45,-348.8"/>
</a>
</g>
</g>
<!-- Node5 -->
<g id="Node000005" class="node">
<title>Node5</title>
<g id="a_Node000005"><a xlink:title=" ">
<polygon fill="#e0e0e0" stroke="#999999" points="233.88,-74.5 193.88,-74.5 193.88,-55.25 233.88,-55.25 233.88,-74.5"/>
<text text-anchor="middle" x="213.88" y="-61" font-family="Helvetica,sans-Serif" font-size="10.00">string</text>
</a>
</g>
</g>
<!-- Node2&#45;&gt;Node5 -->
<g id="edge4_Node000002_Node000005" class="edge">
<title>Node2&#45;&gt;Node5</title>
<g id="a_edge4_Node000002_Node000005"><a xlink:title=" ">
<path fill="none" stroke="#63b8ff" d="M236.48,-386.35C200.2,-371.63 137.88,-338.79 137.88,-286.88 137.88,-286.88 137.88,-286.88 137.88,-174.38 137.88,-135.77 170.56,-101.14 193.06,-81.87"/>
<polygon fill="#63b8ff" stroke="#63b8ff" points="194.98,-84.82 200.49,-75.77 190.54,-79.41 194.98,-84.82"/>
</a>
</g>
</g>
<!-- Node6 -->
<g id="Node000006" class="node">
<title>Node6</title>
<g id="a_Node000006"><a xlink:title=" ">
<polygon fill="#e0e0e0" stroke="#999999" points="216.12,-295.5 165.62,-295.5 165.62,-276.25 216.12,-276.25 216.12,-295.5"/>
<text text-anchor="middle" x="190.88" y="-282" font-family="Helvetica,sans-Serif" font-size="10.00">memory</text>
</a>
</g>
</g>
<!-- Node2&#45;&gt;Node6 -->
<g id="edge5_Node000002_Node000006" class="edge">
<title>Node2&#45;&gt;Node6</title>
<g id="a_edge5_Node000002_Node000006"><a xlink:title=" ">
<path fill="none" stroke="#63b8ff" d="M256.06,-386.5C244.52,-368.85 218.47,-329.05 203.03,-305.45"/>
<polygon fill="#63b8ff" stroke="#63b8ff" points="206,-303.59 197.59,-297.14 200.14,-307.43 206,-303.59"/>
</a>
</g>
</g>
<!-- Node2&#45;&gt;Node7 -->
<g id="edge6_Node000002_Node000007" class="edge">
<title>Node2&#45;&gt;Node7</title>
<g id="a_edge6_Node000002_Node000007"><a xlink:title=" ">
<path fill="none" stroke="#63b8ff" d="M281.25,-386.42C300.15,-377.59 329.67,-363.61 354.88,-350.75 386.91,-334.41 423.21,-314.55 446.99,-301.36"/>
<polygon fill="#63b8ff" stroke="#63b8ff" points="448.61,-304.46 455.65,-296.54 445.21,-298.34 448.61,-304.46"/>
</a>
</g>
</g>
<!-- Node8 -->
<g id="Node000008" class="node">
<title>Node8</title>
<g id="a_Node000008"><a xlink:href="_machine_i_d_8hpp.xhtml" target="_top" xlink:title=" ">
<polygon fill="white" stroke="#666666" points="704.12,-74.5 623.62,-74.5 623.62,-55.25 704.12,-55.25 704.12,-74.5"/>
<text text-anchor="middle" x="663.88" y="-61" font-family="Helvetica,sans-Serif" font-size="10.00">MachineID.hpp</text>
</a>
</g>
</g>
<!-- Node2&#45;&gt;Node8 -->
<g id="edge7_Node000002_Node000008" class="edge">
<title>Node2&#45;&gt;Node8</title>
<g id="a_edge7_Node000002_Node000008"><a xlink:title=" ">
<path fill="none" stroke="#63b8ff" d="M301.47,-386.28C354.77,-372.73 450.97,-343.54 520.88,-295.5 604.25,-238.21 639.58,-223.79 676.88,-129.75 682.56,-115.41 678.51,-98.24 673.48,-85.31"/>
<polygon fill="#63b8ff" stroke="#63b8ff" points="676.7,-83.94 669.44,-76.22 670.3,-86.78 676.7,-83.94"/>
</a>
</g>
</g>
<!-- Node10 -->
<g id="Node000010" class="node">
<title>Node10</title>
<g id="a_Node000010"><a xlink:href="_m_q_t_ttypes_8hpp.xhtml" target="_top" xlink:title=" ">
<polygon fill="white" stroke="#666666" points="345.38,-350.75 260.38,-350.75 260.38,-331.5 345.38,-331.5 345.38,-350.75"/>
<text text-anchor="middle" x="302.88" y="-337.25" font-family="Helvetica,sans-Serif" font-size="10.00">MQTTtypes.hpp</text>
</a>
</g>
</g>
<!-- Node2&#45;&gt;Node10 -->
<g id="edge9_Node000002_Node000010" class="edge">
<title>Node2&#45;&gt;Node10</title>
<g id="a_edge9_Node000002_Node000010"><a xlink:title=" ">
<path fill="none" stroke="#63b8ff" d="M268.65,-386.58C274.19,-379.38 282.22,-368.96 289.1,-360.01"/>
<polygon fill="#63b8ff" stroke="#63b8ff" points="291.71,-362.37 295.03,-352.31 286.16,-358.1 291.71,-362.37"/>
</a>
</g>
</g>
<!-- Node9 -->
<g id="Node000009" class="node">
<title>Node9</title>
<g id="a_Node000009"><a xlink:title=" ">
<polygon fill="#e0e0e0" stroke="#999999" points="818.5,-19.25 773.25,-19.25 773.25,0 818.5,0 818.5,-19.25"/>
<text text-anchor="middle" x="795.88" y="-5.75" font-family="Helvetica,sans-Serif" font-size="10.00">cstdint</text>
</a>
</g>
</g>
<!-- Node8&#45;&gt;Node9 -->
<g id="edge8_Node000008_Node000009" class="edge">
<title>Node8&#45;&gt;Node9</title>
<g id="a_edge8_Node000008_Node000009"><a xlink:title=" ">
<path fill="none" stroke="#63b8ff" d="M686.27,-54.84C707.32,-46.35 739.08,-33.54 763,-23.89"/>
<polygon fill="#63b8ff" stroke="#63b8ff" points="764.01,-27.26 771.97,-20.27 761.39,-20.76 764.01,-27.26"/>
</a>
</g>
</g>
<!-- Node10&#45;&gt;Node5 -->
<g id="edge47_Node000010_Node000005" class="edge">
<title>Node10&#45;&gt;Node5</title>
<g id="a_edge47_Node000010_Node000005"><a xlink:title=" ">
<path fill="none" stroke="#63b8ff" d="M298.28,-331.2C283.87,-302.71 239.33,-211.09 219.88,-129.75 216.42,-115.29 214.93,-98.54 214.31,-85.82"/>
<polygon fill="#63b8ff" stroke="#63b8ff" points="217.82,-86.07 213.97,-76.19 210.82,-86.31 217.82,-86.07"/>
</a>
</g>
</g>
<!-- Node10&#45;&gt;Node6 -->
<g id="edge48_Node000010_Node000006" class="edge">
<title>Node10&#45;&gt;Node6</title>
<g id="a_edge48_Node000010_Node000006"><a xlink:title=" ">
<path fill="none" stroke="#63b8ff" d="M283.88,-331.09C266.42,-322.79 240.28,-310.36 220.15,-300.79"/>
<polygon fill="#63b8ff" stroke="#63b8ff" points="221.87,-297.74 211.33,-296.6 218.86,-304.06 221.87,-297.74"/>
</a>
</g>
</g>
<!-- Node10&#45;&gt;Node7 -->
<g id="edge10_Node000010_Node000007" class="edge">
<title>Node10&#45;&gt;Node7</title>
<g id="a_edge10_Node000010_Node000007"><a xlink:title=" ">
<path fill="none" stroke="#63b8ff" d="M331.71,-331.09C359.55,-322.37 401.95,-309.09 433.01,-299.36"/>
<polygon fill="#63b8ff" stroke="#63b8ff" points="433.95,-302.73 442.45,-296.4 431.86,-296.05 433.95,-302.73"/>
</a>
</g>
</g>
<!-- Node11 -->
<g id="Node000011" class="node">
<title>Node11</title>
<g id="a_Node000011"><a xlink:href="_fab_user_8hpp.xhtml" target="_top" xlink:title=" ">
<polygon fill="white" stroke="#666666" points="452.62,-240.25 381.12,-240.25 381.12,-221 452.62,-221 452.62,-240.25"/>
<text text-anchor="middle" x="416.88" y="-226.75" font-family="Helvetica,sans-Serif" font-size="10.00">FabUser.hpp</text>
</a>
</g>
</g>
<!-- Node10&#45;&gt;Node11 -->
<g id="edge11_Node000010_Node000011" class="edge">
<title>Node10&#45;&gt;Node11</title>
<g id="a_edge11_Node000010_Node000011"><a xlink:title=" ">
<path fill="none" stroke="#63b8ff" d="M306.39,-331.35C312.04,-318.11 324.22,-292.81 340.88,-276.25 353.54,-263.66 370.44,-253.28 385.1,-245.71"/>
<polygon fill="#63b8ff" stroke="#63b8ff" points="386.49,-248.92 393.92,-241.36 383.4,-242.64 386.49,-248.92"/>
</a>
</g>
</g>
<!-- Node13 -->
<g id="Node000013" class="node">
<title>Node13</title>
<g id="a_Node000013"><a xlink:href="card_8hpp.xhtml" target="_top" xlink:title=" ">
<polygon fill="white" stroke="#666666" points="389.25,-185 336.5,-185 336.5,-165.75 389.25,-165.75 389.25,-185"/>
<text text-anchor="middle" x="362.88" y="-171.5" font-family="Helvetica,sans-Serif" font-size="10.00">card.hpp</text>
</a>
</g>
</g>
<!-- Node10&#45;&gt;Node13 -->
<g id="edge46_Node000010_Node000013" class="edge">
<title>Node10&#45;&gt;Node13</title>
<g id="a_edge46_Node000010_Node000013"><a xlink:title=" ">
<path fill="none" stroke="#63b8ff" d="M304.98,-331.34C308.05,-318.93 314.11,-295.61 320.88,-276.25 330.84,-247.74 344.83,-215.7 353.88,-195.77"/>
<polygon fill="#63b8ff" stroke="#63b8ff" points="357.05,-197.24 358.04,-186.69 350.69,-194.32 357.05,-197.24"/>
</a>
</g>
</g>
<!-- Node21 -->
<g id="Node000021" class="node">
<title>Node21</title>
<g id="a_Node000021"><a xlink:href="_machine_8hpp.xhtml" target="_top" xlink:title=" ">
<polygon fill="white" stroke="#666666" points="827.25,-295.5 756.5,-295.5 756.5,-276.25 827.25,-276.25 827.25,-295.5"/>
<text text-anchor="middle" x="791.88" y="-282" font-family="Helvetica,sans-Serif" font-size="10.00">Machine.hpp</text>
</a>
</g>
</g>
<!-- Node10&#45;&gt;Node21 -->
<g id="edge29_Node000010_Node000021" class="edge">
<title>Node10&#45;&gt;Node21</title>
<g id="a_edge29_Node000010_Node000021"><a xlink:title=" ">
<path fill="none" stroke="#63b8ff" d="M345.84,-335.45C437.23,-325.49 650.28,-302.29 745.02,-291.98"/>
<polygon fill="#63b8ff" stroke="#63b8ff" points="745.17,-295.48 754.73,-290.92 744.41,-288.52 745.17,-295.48"/>
</a>
</g>
</g>
<!-- Node26 -->
<g id="Node000026" class="node">
<title>Node26</title>
<g id="a_Node000026"><a xlink:title=" ">
<polygon fill="#e0e0e0" stroke="#999999" points="415.62,-295.5 350.12,-295.5 350.12,-276.25 415.62,-276.25 415.62,-295.5"/>
<text text-anchor="middle" x="382.88" y="-282" font-family="Helvetica,sans-Serif" font-size="10.00">string_view</text>
</a>
</g>
</g>
<!-- Node10&#45;&gt;Node26 -->
<g id="edge49_Node000010_Node000026" class="edge">
<title>Node10&#45;&gt;Node26</title>
<g id="a_edge49_Node000010_Node000026"><a xlink:title=" ">
<path fill="none" stroke="#63b8ff" d="M316.45,-331.09C328.28,-323.21 345.71,-311.61 359.75,-302.27"/>
<polygon fill="#63b8ff" stroke="#63b8ff" points="361.59,-305.25 367.98,-296.79 357.71,-299.42 361.59,-305.25"/>
</a>
</g>
</g>
<!-- Node11&#45;&gt;Node5 -->
<g id="edge28_Node000011_Node000005" class="edge">
<title>Node11&#45;&gt;Node5</title>
<g id="a_edge28_Node000011_Node000005"><a xlink:title=" ">
<path fill="none" stroke="#63b8ff" d="M380.97,-220.96C338.02,-208.55 267.58,-181.31 232.88,-129.75 224.06,-116.66 219.25,-99.38 216.67,-86.1"/>
<polygon fill="#63b8ff" stroke="#63b8ff" points="220.14,-85.65 215.07,-76.35 213.24,-86.78 220.14,-85.65"/>
</a>
</g>
</g>
<!-- Node11&#45;&gt;Node9 -->
<g id="edge26_Node000011_Node000009" class="edge">
<title>Node11&#45;&gt;Node9</title>
<g id="a_edge26_Node000011_Node000009"><a xlink:title=" ">
<path fill="none" stroke="#63b8ff" d="M419.25,-220.69C428.06,-188.22 459.82,-77.21 487.88,-55.25 529.91,-22.36 690.51,-13.66 761.63,-11.4"/>
<polygon fill="#63b8ff" stroke="#63b8ff" points="761.63,-14.9 771.53,-11.11 761.43,-7.9 761.63,-14.9"/>
</a>
</g>
</g>
<!-- Node12 -->
<g id="Node000012" class="node">
<title>Node12</title>
<g id="a_Node000012"><a xlink:title=" ">
<polygon fill="#e0e0e0" stroke="#999999" points="436.12,-129.75 379.62,-129.75 379.62,-110.5 436.12,-110.5 436.12,-129.75"/>
<text text-anchor="middle" x="407.88" y="-116.25" font-family="Helvetica,sans-Serif" font-size="10.00">Arduino.h</text>
</a>
</g>
</g>
<!-- Node11&#45;&gt;Node12 -->
<g id="edge12_Node000011_Node000012" class="edge">
<title>Node11&#45;&gt;Node12</title>
<g id="a_edge12_Node000011_Node000012"><a xlink:title=" ">
<path fill="none" stroke="#63b8ff" d="M416.14,-220.75C414.71,-203.5 411.52,-165.08 409.55,-141.31"/>
<polygon fill="#63b8ff" stroke="#63b8ff" points="413.06,-141.31 408.75,-131.64 406.09,-141.89 413.06,-141.31"/>
</a>
</g>
</g>
<!-- Node11&#45;&gt;Node13 -->
<g id="edge13_Node000011_Node000013" class="edge">
<title>Node11&#45;&gt;Node13</title>
<g id="a_edge13_Node000011_Node000013"><a xlink:title=" ">
<path fill="none" stroke="#63b8ff" d="M407.96,-220.83C400.42,-213.4 389.41,-202.54 380.15,-193.41"/>
<polygon fill="#63b8ff" stroke="#63b8ff" points="382.64,-190.95 373.06,-186.42 377.73,-195.94 382.64,-190.95"/>
</a>
</g>
</g>
<!-- Node14 -->
<g id="Node000014" class="node">
<title>Node14</title>
<g id="a_Node000014"><a xlink:title=" ">
<polygon fill="#e0e0e0" stroke="#999999" points="293.5,-129.75 242.25,-129.75 242.25,-110.5 293.5,-110.5 293.5,-129.75"/>
<text text-anchor="middle" x="267.88" y="-116.25" font-family="Helvetica,sans-Serif" font-size="10.00">sstream</text>
</a>
</g>
</g>
<!-- Node11&#45;&gt;Node14 -->
<g id="edge27_Node000011_Node000014" class="edge">
<title>Node11&#45;&gt;Node14</title>
<g id="a_edge27_Node000011_Node000014"><a xlink:title=" ">
<path fill="none" stroke="#63b8ff" d="M393.29,-220.5C374.57,-212.65 348.24,-200.19 327.88,-185 310.01,-171.68 292.95,-152.7 281.62,-138.89"/>
<polygon fill="#63b8ff" stroke="#63b8ff" points="284.37,-136.72 275.4,-131.09 278.9,-141.09 284.37,-136.72"/>
</a>
</g>
</g>
<!-- Node16 -->
<g id="Node000016" class="node">
<title>Node16</title>
<g id="a_Node000016"><a xlink:href="conf_8hpp.xhtml" target="_top" xlink:title=" ">
<polygon fill="white" stroke="#666666" points="668.25,-129.75 615.5,-129.75 615.5,-110.5 668.25,-110.5 668.25,-129.75"/>
<text text-anchor="middle" x="641.88" y="-116.25" font-family="Helvetica,sans-Serif" font-size="10.00">conf.hpp</text>
</a>
</g>
</g>
<!-- Node11&#45;&gt;Node16 -->
<g id="edge24_Node000011_Node000016" class="edge">
<title>Node11&#45;&gt;Node16</title>
<g id="a_edge24_Node000011_Node000016"><a xlink:title=" ">
<path fill="none" stroke="#63b8ff" d="M435.67,-220.56C474.96,-201.61 566.02,-157.7 612.88,-135.11"/>
<polygon fill="#63b8ff" stroke="#63b8ff" points="614.12,-138.39 621.61,-130.9 611.08,-132.09 614.12,-138.39"/>
</a>
</g>
</g>
<!-- Node20 -->
<g id="Node000020" class="node">
<title>Node20</title>
<g id="a_Node000020"><a xlink:title=" ">
<polygon fill="#e0e0e0" stroke="#999999" points="1146.38,-19.25 1109.38,-19.25 1109.38,0 1146.38,0 1146.38,-19.25"/>
<text text-anchor="middle" x="1127.88" y="-5.75" font-family="Helvetica,sans-Serif" font-size="10.00">array</text>
</a>
</g>
</g>
<!-- Node11&#45;&gt;Node20 -->
<g id="edge25_Node000011_Node000020" class="edge">
<title>Node11&#45;&gt;Node20</title>
<g id="a_edge25_Node000011_Node000020"><a xlink:title=" ">
<path fill="none" stroke="#63b8ff" d="M453.08,-228.27C520.6,-225.09 669.96,-215 791.88,-185 858.84,-168.52 872.77,-155.17 936.88,-129.75 996.76,-106 1018.32,-111.75 1070.88,-74.5 1088.63,-61.91 1104.73,-42.82 1115.25,-28.79"/>
<polygon fill="#63b8ff" stroke="#63b8ff" points="1117.96,-31.01 1120.99,-20.86 1112.29,-26.91 1117.96,-31.01"/>
</a>
</g>
</g>
<!-- Node13&#45;&gt;Node12 -->
<g id="edge16_Node000013_Node000012" class="edge">
<title>Node13&#45;&gt;Node12</title>
<g id="a_edge16_Node000013_Node000012"><a xlink:title=" ">
<path fill="none" stroke="#63b8ff" d="M370.31,-165.58C376.46,-158.3 385.39,-147.73 393,-138.73"/>
<polygon fill="#63b8ff" stroke="#63b8ff" points="395.52,-141.16 399.31,-131.27 390.18,-136.64 395.52,-141.16"/>
</a>
</g>
</g>
<!-- Node13&#45;&gt;Node14 -->
<g id="edge14_Node000013_Node000014" class="edge">
<title>Node13&#45;&gt;Node14</title>
<g id="a_edge14_Node000013_Node000014"><a xlink:title=" ">
<path fill="none" stroke="#63b8ff" d="M346.76,-165.34C332.29,-157.23 310.8,-145.18 293.89,-135.71"/>
<polygon fill="#63b8ff" stroke="#63b8ff" points="295.82,-132.78 285.39,-130.94 292.4,-138.89 295.82,-132.78"/>
</a>
</g>
</g>
<!-- Node15 -->
<g id="Node000015" class="node">
<title>Node15</title>
<g id="a_Node000015"><a xlink:title=" ">
<polygon fill="#e0e0e0" stroke="#999999" points="361.75,-129.75 312,-129.75 312,-110.5 361.75,-110.5 361.75,-129.75"/>
<text text-anchor="middle" x="336.88" y="-116.25" font-family="Helvetica,sans-Serif" font-size="10.00">iomanip</text>
</a>
</g>
</g>
<!-- Node13&#45;&gt;Node15 -->
<g id="edge15_Node000013_Node000015" class="edge">
<title>Node13&#45;&gt;Node15</title>
<g id="a_edge15_Node000013_Node000015"><a xlink:title=" ">
<path fill="none" stroke="#63b8ff" d="M358.58,-165.58C355.25,-158.76 350.51,-149.06 346.31,-140.45"/>
<polygon fill="#63b8ff" stroke="#63b8ff" points="349.46,-138.92 341.93,-131.47 343.17,-141.99 349.46,-138.92"/>
</a>
</g>
</g>
<!-- Node13&#45;&gt;Node16 -->
<g id="edge17_Node000013_Node000016" class="edge">
<title>Node13&#45;&gt;Node16</title>
<g id="a_edge17_Node000013_Node000016"><a xlink:title=" ">
<path fill="none" stroke="#63b8ff" d="M389.63,-169.27C439.52,-159.75 546.88,-139.26 604.12,-128.33"/>
<polygon fill="#63b8ff" stroke="#63b8ff" points="604.55,-131.81 613.72,-126.5 603.24,-124.94 604.55,-131.81"/>
</a>
</g>
</g>
<!-- Node13&#45;&gt;Node18 -->
<g id="edge22_Node000013_Node000018" class="edge">
<title>Node13&#45;&gt;Node18</title>
<g id="a_edge22_Node000013_Node000018"><a xlink:title=" ">
<path fill="none" stroke="#63b8ff" d="M389.43,-165.7C416.02,-157.01 457.23,-143.55 487.4,-133.69"/>
<polygon fill="#63b8ff" stroke="#63b8ff" points="488.11,-137.14 496.53,-130.71 485.94,-130.49 488.11,-137.14"/>
</a>
</g>
</g>
<!-- Node16&#45;&gt;Node5 -->
<g id="edge19_Node000016_Node000005" class="edge">
<title>Node16&#45;&gt;Node5</title>
<g id="a_edge19_Node000016_Node000005"><a xlink:title=" ">
<path fill="none" stroke="#63b8ff" d="M615.26,-113.01C610.81,-112.09 606.22,-111.22 601.88,-110.5 470.24,-88.79 311.76,-74.09 245.45,-68.45"/>
<polygon fill="#63b8ff" stroke="#63b8ff" points="245.93,-64.98 235.68,-67.63 245.35,-71.96 245.93,-64.98"/>
</a>
</g>
</g>
<!-- Node16&#45;&gt;Node8 -->
<g id="edge21_Node000016_Node000008" class="edge">
<title>Node16&#45;&gt;Node8</title>
<g id="a_edge21_Node000016_Node000008"><a xlink:title=" ">
<path fill="none" stroke="#63b8ff" d="M645.51,-110.33C648.29,-103.59 652.25,-94.02 655.77,-85.49"/>
<polygon fill="#63b8ff" stroke="#63b8ff" points="659,-86.84 659.59,-76.26 652.53,-84.16 659,-86.84"/>
</a>
</g>
</g>
<!-- Node16&#45;&gt;Node9 -->
<g id="edge18_Node000016_Node000009" class="edge">
<title>Node16&#45;&gt;Node9</title>
<g id="a_edge18_Node000016_Node000009"><a xlink:title=" ">
<path fill="none" stroke="#63b8ff" d="M632.62,-110.09C620.29,-96.96 601.51,-72.31 614.88,-55.25 632.77,-32.41 714.39,-19.67 761.69,-14.09"/>
<polygon fill="#63b8ff" stroke="#63b8ff" points="761.87,-17.59 771.41,-12.99 761.08,-10.64 761.87,-17.59"/>
</a>
</g>
</g>
<!-- Node17 -->
<g id="Node000017" class="node">
<title>Node17</title>
<g id="a_Node000017"><a xlink:title=" ">
<polygon fill="#e0e0e0" stroke="#999999" points="767.5,-74.5 722.25,-74.5 722.25,-55.25 767.5,-55.25 767.5,-74.5"/>
<text text-anchor="middle" x="744.88" y="-61" font-family="Helvetica,sans-Serif" font-size="10.00">chrono</text>
</a>
</g>
</g>
<!-- Node16&#45;&gt;Node17 -->
<g id="edge20_Node000016_Node000017" class="edge">
<title>Node16&#45;&gt;Node17</title>
<g id="a_edge20_Node000016_Node000017"><a xlink:title=" ">
<path fill="none" stroke="#63b8ff" d="M659.35,-110.09C675.18,-101.91 698.78,-89.71 717.18,-80.19"/>
<polygon fill="#63b8ff" stroke="#63b8ff" points="718.7,-83.35 725.97,-75.65 715.48,-77.13 718.7,-83.35"/>
</a>
</g>
</g>
<!-- Node19 -->
<g id="Node000019" class="node">
<title>Node19</title>
<g id="a_Node000019"><a xlink:title=" ">
<polygon fill="#e0e0e0" stroke="#999999" points="554.5,-74.5 497.25,-74.5 497.25,-55.25 554.5,-55.25 554.5,-74.5"/>
<text text-anchor="middle" x="525.88" y="-61" font-family="Helvetica,sans-Serif" font-size="10.00">esp_log.h</text>
</a>
</g>
</g>
<!-- Node18&#45;&gt;Node19 -->
<g id="edge23_Node000018_Node000019" class="edge">
<title>Node18&#45;&gt;Node19</title>
<g id="a_edge23_Node000018_Node000019"><a xlink:title=" ">
<path fill="none" stroke="#63b8ff" d="M525.88,-110.33C525.88,-103.82 525.88,-94.67 525.88,-86.37"/>
<polygon fill="#63b8ff" stroke="#63b8ff" points="529.38,-86.37 525.88,-76.37 522.38,-86.37 529.38,-86.37"/>
</a>
</g>
</g>
<!-- Node21&#45;&gt;Node9 -->
<g id="edge45_Node000021_Node000009" class="edge">
<title>Node21&#45;&gt;Node9</title>
<g id="a_edge45_Node000021_Node000009"><a xlink:title=" ">
<path fill="none" stroke="#63b8ff" d="M827.52,-279.62C906.62,-266.95 1089.88,-231.64 1089.88,-176.38 1089.88,-176.38 1089.88,-176.38 1089.88,-119.12 1089.88,-89.51 1093.12,-74.81 1070.88,-55.25 1035.66,-24.28 895.98,-14.62 830.32,-11.76"/>
<polygon fill="#63b8ff" stroke="#63b8ff" points="830.61,-8.27 820.48,-11.36 830.33,-15.26 830.61,-8.27"/>
</a>
</g>
</g>
<!-- Node21&#45;&gt;Node11 -->
<g id="edge30_Node000021_Node000011" class="edge">
<title>Node21&#45;&gt;Node11</title>
<g id="a_edge30_Node000021_Node000011"><a xlink:title=" ">
<path fill="none" stroke="#63b8ff" d="M756.26,-279.82C688.35,-270.17 540.36,-249.16 464.22,-238.35"/>
<polygon fill="#63b8ff" stroke="#63b8ff" points="464.97,-234.92 454.58,-236.98 463.99,-241.85 464.97,-234.92"/>
</a>
</g>
</g>
<!-- Node21&#45;&gt;Node17 -->
<g id="edge44_Node000021_Node000017" class="edge">
<title>Node21&#45;&gt;Node17</title>
<g id="a_edge44_Node000021_Node000017"><a xlink:title=" ">
<path fill="none" stroke="#63b8ff" d="M793.21,-275.76C795.87,-255.62 800.85,-205.91 791.88,-165.75 785.13,-135.59 768.24,-103.8 756.65,-84.4"/>
<polygon fill="#63b8ff" stroke="#63b8ff" points="759.73,-82.72 751.51,-76.04 753.77,-86.39 759.73,-82.72"/>
</a>
</g>
</g>
<!-- Node21&#45;&gt;Node20 -->
<g id="edge43_Node000021_Node000020" class="edge">
<title>Node21&#45;&gt;Node20</title>
<g id="a_edge43_Node000021_Node000020"><a xlink:title=" ">
<path fill="none" stroke="#63b8ff" d="M827.74,-282.16C921.34,-274.1 1165.88,-246.35 1165.88,-176.38 1165.88,-176.38 1165.88,-176.38 1165.88,-119.12 1165.88,-86.13 1150.03,-50.51 1138.81,-29.41"/>
<polygon fill="#63b8ff" stroke="#63b8ff" points="1141.97,-27.9 1134.05,-20.86 1135.85,-31.3 1141.97,-27.9"/>
</a>
</g>
</g>
<!-- Node22 -->
<g id="Node000022" class="node">
<title>Node22</title>
<g id="a_Node000022"><a xlink:href="_machine_config_8hpp.xhtml" target="_top" xlink:title=" ">
<polygon fill="white" stroke="#666666" points="782.75,-185 685,-185 685,-165.75 782.75,-165.75 782.75,-185"/>
<text text-anchor="middle" x="733.88" y="-171.5" font-family="Helvetica,sans-Serif" font-size="10.00">MachineConfig.hpp</text>
</a>
</g>
</g>
<!-- Node21&#45;&gt;Node22 -->
<g id="edge31_Node000021_Node000022" class="edge">
<title>Node21&#45;&gt;Node22</title>
<g id="a_edge31_Node000021_Node000022"><a xlink:title=" ">
<path fill="none" stroke="#63b8ff" d="M787.13,-276C777.74,-258.43 756.61,-218.91 743.97,-195.27"/>
<polygon fill="#63b8ff" stroke="#63b8ff" points="747.2,-193.88 739.4,-186.71 741.03,-197.18 747.2,-193.88"/>
</a>
</g>
</g>
<!-- Node22&#45;&gt;Node5 -->
<g id="edge34_Node000022_Node000005" class="edge">
<title>Node22&#45;&gt;Node5</title>
<g id="a_edge34_Node000022_Node000005"><a xlink:title=" ">
<path fill="none" stroke="#63b8ff" d="M704.46,-165.25C678.45,-156.9 639.65,-143.74 606.88,-129.75 589.46,-122.32 586.98,-116.04 568.88,-110.5 453.33,-75.14 308.4,-67.75 245.46,-66.24"/>
<polygon fill="#63b8ff" stroke="#63b8ff" points="245.58,-62.74 235.51,-66.04 245.44,-69.74 245.58,-62.74"/>
</a>
</g>
</g>
<!-- Node22&#45;&gt;Node8 -->
<g id="edge41_Node000022_Node000008" class="edge">
<title>Node22&#45;&gt;Node8</title>
<g id="a_edge41_Node000022_Node000008"><a xlink:title=" ">
<path fill="none" stroke="#63b8ff" d="M731.87,-165.54C728.68,-152.67 721.56,-128.34 709.88,-110.5 703,-100 693.25,-90.09 684.49,-82.29"/>
<polygon fill="#63b8ff" stroke="#63b8ff" points="686.93,-79.77 677.05,-75.96 682.4,-85.1 686.93,-79.77"/>
</a>
</g>
</g>
<!-- Node22&#45;&gt;Node9 -->
<g id="edge33_Node000022_Node000009" class="edge">
<title>Node22&#45;&gt;Node9</title>
<g id="a_edge33_Node000022_Node000009"><a xlink:title=" ">
<path fill="none" stroke="#63b8ff" d="M740.46,-165.57C746.71,-156.85 755.99,-142.95 761.88,-129.75 776.72,-96.45 786.81,-55.01 791.94,-30.82"/>
<polygon fill="#63b8ff" stroke="#63b8ff" points="795.36,-31.57 793.92,-21.07 788.5,-30.18 795.36,-31.57"/>
</a>
</g>
</g>
<!-- Node22&#45;&gt;Node16 -->
<g id="edge42_Node000022_Node000016" class="edge">
<title>Node22&#45;&gt;Node16</title>
<g id="a_edge42_Node000022_Node000016"><a xlink:title=" ">
<path fill="none" stroke="#63b8ff" d="M718.27,-165.34C704.26,-157.23 683.44,-145.18 667.07,-135.71"/>
<polygon fill="#63b8ff" stroke="#63b8ff" points="669.28,-132.94 658.87,-130.96 665.77,-139 669.28,-132.94"/>
</a>
</g>
</g>
<!-- Node22&#45;&gt;Node17 -->
<g id="edge32_Node000022_Node000017" class="edge">
<title>Node22&#45;&gt;Node17</title>
<g id="a_edge32_Node000022_Node000017"><a xlink:title=" ">
<path fill="none" stroke="#63b8ff" d="M737.61,-165.34C741.05,-156.46 745.93,-142.43 747.88,-129.75 750.12,-115.1 749.21,-98.36 747.82,-85.69"/>
<polygon fill="#63b8ff" stroke="#63b8ff" points="751.33,-85.57 746.57,-76.11 744.39,-86.48 751.33,-85.57"/>
</a>
</g>
</g>
<!-- Node23 -->
<g id="Node000023" class="node">
<title>Node23</title>
<g id="a_Node000023"><a xlink:href="pins_8hpp.xhtml" target="_top" xlink:title=" ">
<polygon fill="white" stroke="#666666" points="927.88,-129.75 875.88,-129.75 875.88,-110.5 927.88,-110.5 927.88,-129.75"/>
<text text-anchor="middle" x="901.88" y="-116.25" font-family="Helvetica,sans-Serif" font-size="10.00">pins.hpp</text>
</a>
</g>
</g>
<!-- Node22&#45;&gt;Node23 -->
<g id="edge35_Node000022_Node000023" class="edge">
<title>Node22&#45;&gt;Node23</title>
<g id="a_edge35_Node000022_Node000023"><a xlink:title=" ">
<path fill="none" stroke="#63b8ff" d="M762.37,-165.34C790.56,-156.41 833.82,-142.7 864.69,-132.91"/>
<polygon fill="#63b8ff" stroke="#63b8ff" points="865.54,-136.31 874.01,-129.96 863.42,-129.64 865.54,-136.31"/>
</a>
</g>
</g>
<!-- Node23&#45;&gt;Node9 -->
<g id="edge36_Node000023_Node000009" class="edge">
<title>Node23&#45;&gt;Node9</title>
<g id="a_edge36_Node000023_Node000009"><a xlink:title=" ">
<path fill="none" stroke="#63b8ff" d="M891.45,-110.19C881.33,-101.39 865.66,-87.42 852.88,-74.5 837.9,-59.37 821.84,-41.18 810.59,-28.08"/>
<polygon fill="#63b8ff" stroke="#63b8ff" points="813.47,-26.06 804.32,-20.72 808.14,-30.6 813.47,-26.06"/>
</a>
</g>
</g>
<!-- Node24 -->
<g id="Node000024" class="node">
<title>Node24</title>
<g id="a_Node000024"><a xlink:title=" ">
<polygon fill="#e0e0e0" stroke="#999999" points="1061.62,-74.5 960.12,-74.5 960.12,-55.25 1061.62,-55.25 1061.62,-74.5"/>
<text text-anchor="middle" x="1010.88" y="-61" font-family="Helvetica,sans-Serif" font-size="10.00">Adafruit_NeoPixel.h</text>
</a>
</g>
</g>
<!-- Node23&#45;&gt;Node24 -->
<g id="edge37_Node000023_Node000024" class="edge">
<title>Node23&#45;&gt;Node24</title>
<g id="a_edge37_Node000023_Node000024"><a xlink:title=" ">
<path fill="none" stroke="#63b8ff" d="M920.37,-110.09C937.28,-101.83 962.56,-89.48 982.11,-79.93"/>
<polygon fill="#63b8ff" stroke="#63b8ff" points="983.49,-83.15 990.93,-75.62 980.41,-76.86 983.49,-83.15"/>
</a>
</g>
</g>
<!-- Node25 -->
<g id="Node000025" class="node">
<title>Node25</title>
<g id="a_Node000025"><a xlink:href="_pins_config_8hpp.xhtml" target="_top" xlink:title=" ">
<polygon fill="white" stroke="#666666" points="942.12,-74.5 861.62,-74.5 861.62,-55.25 942.12,-55.25 942.12,-74.5"/>
<text text-anchor="middle" x="901.88" y="-61" font-family="Helvetica,sans-Serif" font-size="10.00">PinsConfig.hpp</text>
</a>
</g>
</g>
<!-- Node23&#45;&gt;Node25 -->
<g id="edge38_Node000023_Node000025" class="edge">
<title>Node23&#45;&gt;Node25</title>
<g id="a_edge38_Node000023_Node000025"><a xlink:title=" ">
<path fill="none" stroke="#63b8ff" d="M901.88,-110.33C901.88,-103.82 901.88,-94.67 901.88,-86.37"/>
<polygon fill="#63b8ff" stroke="#63b8ff" points="905.38,-86.37 901.88,-76.37 898.38,-86.37 905.38,-86.37"/>
</a>
</g>
</g>
<!-- Node25&#45;&gt;Node9 -->
<g id="edge39_Node000025_Node000009" class="edge">
<title>Node25&#45;&gt;Node9</title>
<g id="a_edge39_Node000025_Node000009"><a xlink:title=" ">
<path fill="none" stroke="#63b8ff" d="M883.89,-54.84C867.52,-46.62 843.09,-34.34 824.11,-24.81"/>
<polygon fill="#63b8ff" stroke="#63b8ff" points="825.8,-21.74 815.3,-20.38 822.66,-28 825.8,-21.74"/>
</a>
</g>
</g>
<!-- Node25&#45;&gt;Node20 -->
<g id="edge40_Node000025_Node000020" class="edge">
<title>Node25&#45;&gt;Node20</title>
<g id="a_edge40_Node000025_Node000020"><a xlink:title=" ">
<path fill="none" stroke="#63b8ff" d="M940.47,-54.78C985.1,-44.26 1057.62,-27.18 1098.12,-17.64"/>
<polygon fill="#63b8ff" stroke="#63b8ff" points="1098.71,-21.09 1107.64,-15.39 1097.11,-14.28 1098.71,-21.09"/>
</a>
</g>
</g>
</g>
</svg>

<g id="navigator" transform="translate(0 0)" fill="#404254">
  <rect fill="#f2f5e9" fill-opacity="0.5" stroke="#606060" stroke-width=".5" x="0" y="0" width="60" height="60"/>
  <use id="zoomplus" xlink:href="#zoomPlus" x="17" y="9" onmousedown="handleZoom(evt,'in')"/>
  <use id="zoomminus" xlink:href="#zoomMin" x="42" y="9" onmousedown="handleZoom(evt,'out')"/>
  <use id="reset" xlink:href="#resetDef" x="30" y="36" onmousedown="handleReset()"/>
   <use id="arrowup" xlink:href="#arrowUp" x="0" y="0" onmousedown="handlePan(0,-1)"/>
  <use id="arrowright" xlink:href="#arrowRight" x="0" y="0" onmousedown="handlePan(1,0)"/>
  <use id="arrowdown" xlink:href="#arrowDown" x="0" y="0" onmousedown="handlePan(0,1)"/>
  <use id="arrowleft" xlink:href="#arrowLeft" x="0" y="0" onmousedown="handlePan(-1,0)"/>
</g>
<svg viewBox="0 0 15 15" width="100%" height="30px" preserveAspectRatio="xMaxYMin meet">
 <g id="arrow_out" transform="scale(0.3 0.3)">
  <a xlink:href="_buffered_msg_8cpp__incl_org.svg" target="_base">
   <rect id="button" ry="5" rx="5" y="6" x="6" height="38" width="38"
        fill="#f2f5e9" fill-opacity="0.5" stroke="#606060" stroke-width="1.0"/>
   <path id="arrow"
     d="M 11.500037,31.436501 C 11.940474,20.09759 22.043105,11.32322 32.158766,21.979434 L 37.068811,17.246167 C 37.068811,17.246167 37.088388,32 37.088388,32 L 22.160133,31.978069 C 22.160133,31.978069 26.997745,27.140456 26.997745,27.140456 C 18.528582,18.264221 13.291696,25.230495 11.500037,31.436501 z"
     style="fill:#404040;"/>
  </a>
 </g>
</svg>

<style type='text/css'>
<![CDATA[
[data-mouse-over-selected='false'] { opacity: 0.7; }
[data-mouse-over-selected='true']  { opacity: 1.0; }
]]>
</style>
<script type="application/ecmascript"><![CDATA[
document.addEventListener('DOMContentLoaded', (event) => {
  highlightEdges();
  highlightAdjacentNodes();
});
]]></script>
</svg>
