<?xml version="1.0" encoding="UTF-8" standalone="no"?>
<!DOCTYPE svg PUBLIC "-//W3C//DTD SVG 1.1//EN"
 "http://www.w3.org/Graphics/SVG/1.1/DTD/svg11.dtd">
<!-- Generated by graphviz version 9.0.0 (20230911.1827)
 -->
<!-- Title: BufferedMsg.cpp Pages: 1 -->
<svg width="1150pt" height="469pt"
 viewBox="0.00 0.00 1150.12 469.25" xmlns="http://www.w3.org/2000/svg" xmlns:xlink="http://www.w3.org/1999/xlink">
<g id="graph0" class="graph" transform="scale(1 1) rotate(0) translate(4 465.25)">
<title>BufferedMsg.cpp</title>
<!-- Node1 -->
<g id="Node000001" class="node">
<title>Node1</title>
<g id="a_Node000001"><a xlink:title=" ">
<polygon fill="#999999" stroke="#666666" points="702.62,-461.25 613.88,-461.25 613.88,-442 702.62,-442 702.62,-461.25"/>
<text text-anchor="middle" x="658.25" y="-447.75" font-family="Helvetica,sans-Serif" font-size="10.00">BufferedMsg.cpp</text>
</a>
</g>
</g>
<!-- Node2 -->
<g id="Node000002" class="node">
<title>Node2</title>
<g id="a_Node000002"><a xlink:href="_buffered_msg_8hpp.xhtml" target="_top" xlink:title=" ">
<polygon fill="white" stroke="#666666" points="664.62,-406 575.88,-406 575.88,-386.75 664.62,-386.75 664.62,-406"/>
<text text-anchor="middle" x="620.25" y="-392.5" font-family="Helvetica,sans-Serif" font-size="10.00">BufferedMsg.hpp</text>
</a>
</g>
</g>
<!-- Node1&#45;&gt;Node2 -->
<g id="edge1_Node000001_Node000002" class="edge">
<title>Node1&#45;&gt;Node2</title>
<g id="a_edge1_Node000001_Node000002"><a xlink:title=" ">
<path fill="none" stroke="#63b8ff" d="M651.98,-441.83C646.89,-434.71 639.55,-424.43 633.22,-415.55"/>
<polygon fill="#63b8ff" stroke="#63b8ff" points="636.2,-413.7 627.54,-407.59 630.5,-417.76 636.2,-413.7"/>
</a>
</g>
</g>
<!-- Node7 -->
<g id="Node000007" class="node">
<title>Node7</title>
<g id="a_Node000007"><a xlink:title=" ">
<polygon fill="#e0e0e0" stroke="#999999" points="838,-295.5 760.5,-295.5 760.5,-276.25 838,-276.25 838,-295.5"/>
<text text-anchor="middle" x="799.25" y="-282" font-family="Helvetica,sans-Serif" font-size="10.00">ArduinoJson.h</text>
</a>
</g>
</g>
<!-- Node1&#45;&gt;Node7 -->
<g id="edge57_Node000001_Node000007" class="edge">
<title>Node1&#45;&gt;Node7</title>
<g id="a_edge57_Node000001_Node000007"><a xlink:title=" ">
<path fill="none" stroke="#63b8ff" d="M665.83,-441.82C688.21,-415.83 754.29,-339.09 784.21,-304.34"/>
<polygon fill="#63b8ff" stroke="#63b8ff" points="786.77,-306.73 790.64,-296.87 781.47,-302.16 786.77,-306.73"/>
</a>
</g>
</g>
<!-- Node18 -->
<g id="Node000018" class="node">
<title>Node18</title>
<g id="a_Node000018"><a xlink:href="_logging_8hpp.xhtml" target="_top" xlink:title=" ">
<polygon fill="white" stroke="#666666" points="68.5,-129.75 0,-129.75 0,-110.5 68.5,-110.5 68.5,-129.75"/>
<text text-anchor="middle" x="34.25" y="-116.25" font-family="Helvetica,sans-Serif" font-size="10.00">Logging.hpp</text>
</a>
</g>
</g>
<!-- Node1&#45;&gt;Node18 -->
<g id="edge58_Node000001_Node000018" class="edge">
<title>Node1&#45;&gt;Node18</title>
<g id="a_edge58_Node000001_Node000018"><a xlink:title=" ">
<path fill="none" stroke="#63b8ff" d="M613.74,-447.45C472.91,-436.8 46.25,-399.79 46.25,-342.12 46.25,-342.12 46.25,-342.12 46.25,-229.62 46.25,-198.72 41.38,-163.16 37.85,-141.42"/>
<polygon fill="#63b8ff" stroke="#63b8ff" points="41.3,-140.85 36.17,-131.58 34.4,-142.03 41.3,-140.85"/>
</a>
</g>
</g>
<!-- Node30 -->
<g id="Node000030" class="node">
<title>Node30</title>
<g id="a_Node000030"><a xlink:title=" ">
<polygon fill="#e0e0e0" stroke="#999999" points="805.88,-406 748.62,-406 748.62,-386.75 805.88,-386.75 805.88,-406"/>
<text text-anchor="middle" x="777.25" y="-392.5" font-family="Helvetica,sans-Serif" font-size="10.00">inttypes.h</text>
</a>
</g>
</g>
<!-- Node1&#45;&gt;Node30 -->
<g id="edge56_Node000001_Node000030" class="edge">
<title>Node1&#45;&gt;Node30</title>
<g id="a_edge56_Node000001_Node000030"><a xlink:title=" ">
<path fill="none" stroke="#63b8ff" d="M678.44,-441.59C697.16,-433.22 725.27,-420.63 746.73,-411.03"/>
<polygon fill="#63b8ff" stroke="#63b8ff" points="747.88,-414.35 755.58,-407.07 745.03,-407.96 747.88,-414.35"/>
</a>
</g>
</g>
<!-- Node3 -->
<g id="Node000003" class="node">
<title>Node3</title>
<g id="a_Node000003"><a xlink:title=" ">
<polygon fill="#e0e0e0" stroke="#999999" points="1142.12,-240.25 1092.38,-240.25 1092.38,-221 1142.12,-221 1142.12,-240.25"/>
<text text-anchor="middle" x="1117.25" y="-226.75" font-family="Helvetica,sans-Serif" font-size="10.00">optional</text>
</a>
</g>
</g>
<!-- Node2&#45;&gt;Node3 -->
<g id="edge2_Node000002_Node000003" class="edge">
<title>Node2&#45;&gt;Node3</title>
<g id="a_edge2_Node000002_Node000003"><a xlink:title=" ">
<path fill="none" stroke="#63b8ff" d="M647.68,-386.34C731.86,-358.6 986.56,-274.69 1081.27,-243.48"/>
<polygon fill="#63b8ff" stroke="#63b8ff" points="1082.16,-246.87 1090.57,-240.42 1079.97,-240.22 1082.16,-246.87"/>
</a>
</g>
</g>
<!-- Node4 -->
<g id="Node000004" class="node">
<title>Node4</title>
<g id="a_Node000004"><a xlink:title=" ">
<polygon fill="#e0e0e0" stroke="#999999" points="616.38,-350.75 574.12,-350.75 574.12,-331.5 616.38,-331.5 616.38,-350.75"/>
<text text-anchor="middle" x="595.25" y="-337.25" font-family="Helvetica,sans-Serif" font-size="10.00">queue</text>
</a>
</g>
</g>
<!-- Node2&#45;&gt;Node4 -->
<g id="edge3_Node000002_Node000004" class="edge">
<title>Node2&#45;&gt;Node4</title>
<g id="a_edge3_Node000002_Node000004"><a xlink:title=" ">
<path fill="none" stroke="#63b8ff" d="M616.12,-386.58C612.92,-379.76 608.36,-370.06 604.32,-361.45"/>
<polygon fill="#63b8ff" stroke="#63b8ff" points="607.53,-360.04 600.11,-352.48 601.19,-363.02 607.53,-360.04"/>
</a>
</g>
</g>
<!-- Node5 -->
<g id="Node000005" class="node">
<title>Node5</title>
<g id="a_Node000005"><a xlink:title=" ">
<polygon fill="#e0e0e0" stroke="#999999" points="480.25,-74.5 440.25,-74.5 440.25,-55.25 480.25,-55.25 480.25,-74.5"/>
<text text-anchor="middle" x="460.25" y="-61" font-family="Helvetica,sans-Serif" font-size="10.00">string</text>
</a>
</g>
</g>
<!-- Node2&#45;&gt;Node5 -->
<g id="edge4_Node000002_Node000005" class="edge">
<title>Node2&#45;&gt;Node5</title>
<g id="a_edge4_Node000002_Node000005"><a xlink:title=" ">
<path fill="none" stroke="#63b8ff" d="M605.29,-386.47C593.02,-378.49 575.98,-365.75 565.25,-350.75 533.03,-305.72 482.98,-142.75 466.06,-85.73"/>
<polygon fill="#63b8ff" stroke="#63b8ff" points="469.51,-85.04 463.32,-76.44 462.79,-87.02 469.51,-85.04"/>
</a>
</g>
</g>
<!-- Node6 -->
<g id="Node000006" class="node">
<title>Node6</title>
<g id="a_Node000006"><a xlink:title=" ">
<polygon fill="#e0e0e0" stroke="#999999" points="518.5,-295.5 468,-295.5 468,-276.25 518.5,-276.25 518.5,-295.5"/>
<text text-anchor="middle" x="493.25" y="-282" font-family="Helvetica,sans-Serif" font-size="10.00">memory</text>
</a>
</g>
</g>
<!-- Node2&#45;&gt;Node6 -->
<g id="edge5_Node000002_Node000006" class="edge">
<title>Node2&#45;&gt;Node6</title>
<g id="a_edge5_Node000002_Node000006"><a xlink:title=" ">
<path fill="none" stroke="#63b8ff" d="M593.67,-386.37C574.88,-379.02 549.99,-367.14 532.25,-350.75 518.68,-338.21 508.15,-319.9 501.48,-306.09"/>
<polygon fill="#63b8ff" stroke="#63b8ff" points="504.74,-304.81 497.42,-297.16 498.37,-307.71 504.74,-304.81"/>
</a>
</g>
</g>
<!-- Node2&#45;&gt;Node7 -->
<g id="edge6_Node000002_Node000007" class="edge">
<title>Node2&#45;&gt;Node7</title>
<g id="a_edge6_Node000002_Node000007"><a xlink:title=" ">
<path fill="none" stroke="#63b8ff" d="M630.91,-386.4C646.72,-373.35 677.59,-348.8 706.25,-331.5 725.77,-319.72 748.87,-308.62 767.17,-300.44"/>
<polygon fill="#63b8ff" stroke="#63b8ff" points="768.46,-303.69 776.21,-296.47 765.64,-297.28 768.46,-303.69"/>
</a>
</g>
</g>
<!-- Node8 -->
<g id="Node000008" class="node">
<title>Node8</title>
<g id="a_Node000008"><a xlink:href="_machine_i_d_8hpp.xhtml" target="_top" xlink:title=" ">
<polygon fill="white" stroke="#666666" points="616.5,-74.5 536,-74.5 536,-55.25 616.5,-55.25 616.5,-74.5"/>
<text text-anchor="middle" x="576.25" y="-61" font-family="Helvetica,sans-Serif" font-size="10.00">MachineID.hpp</text>
</a>
</g>
</g>
<!-- Node2&#45;&gt;Node8 -->
<g id="edge7_Node000002_Node000008" class="edge">
<title>Node2&#45;&gt;Node8</title>
<g id="a_edge7_Node000002_Node000008"><a xlink:title=" ">
<path fill="none" stroke="#63b8ff" d="M623.59,-386.52C630.18,-368.2 644.25,-324.69 644.25,-286.88 644.25,-286.88 644.25,-286.88 644.25,-174.38 644.25,-144.76 641,-135.58 625.25,-110.5 618.37,-99.54 608.07,-89.59 598.69,-81.89"/>
<polygon fill="#63b8ff" stroke="#63b8ff" points="601.02,-79.26 590.97,-75.9 596.73,-84.79 601.02,-79.26"/>
</a>
</g>
</g>
<!-- Node10 -->
<g id="Node000010" class="node">
<title>Node10</title>
<g id="a_Node000010"><a xlink:href="_m_q_t_ttypes_8hpp.xhtml" target="_top" xlink:title=" ">
<polygon fill="white" stroke="#666666" points="479.75,-350.75 394.75,-350.75 394.75,-331.5 479.75,-331.5 479.75,-350.75"/>
<text text-anchor="middle" x="437.25" y="-337.25" font-family="Helvetica,sans-Serif" font-size="10.00">MQTTtypes.hpp</text>
</a>
</g>
</g>
<!-- Node2&#45;&gt;Node10 -->
<g id="edge9_Node000002_Node000010" class="edge">
<title>Node2&#45;&gt;Node10</title>
<g id="a_edge9_Node000002_Node000010"><a xlink:title=" ">
<path fill="none" stroke="#63b8ff" d="M589.21,-386.34C558.97,-377.54 512.8,-364.11 479.28,-354.36"/>
<polygon fill="#63b8ff" stroke="#63b8ff" points="480.48,-351.06 469.9,-351.63 478.52,-357.78 480.48,-351.06"/>
</a>
</g>
</g>
<!-- Node9 -->
<g id="Node000009" class="node">
<title>Node9</title>
<g id="a_Node000009"><a xlink:title=" ">
<polygon fill="#e0e0e0" stroke="#999999" points="697.88,-19.25 652.62,-19.25 652.62,0 697.88,0 697.88,-19.25"/>
<text text-anchor="middle" x="675.25" y="-5.75" font-family="Helvetica,sans-Serif" font-size="10.00">cstdint</text>
</a>
</g>
</g>
<!-- Node8&#45;&gt;Node9 -->
<g id="edge8_Node000008_Node000009" class="edge">
<title>Node8&#45;&gt;Node9</title>
<g id="a_edge8_Node000008_Node000009"><a xlink:title=" ">
<path fill="none" stroke="#63b8ff" d="M593.04,-54.84C608.26,-46.66 630.95,-34.46 648.63,-24.94"/>
<polygon fill="#63b8ff" stroke="#63b8ff" points="649.89,-28.24 657.04,-20.42 646.58,-22.07 649.89,-28.24"/>
</a>
</g>
</g>
<!-- Node10&#45;&gt;Node5 -->
<g id="edge53_Node000010_Node000005" class="edge">
<title>Node10&#45;&gt;Node5</title>
<g id="a_edge53_Node000010_Node000005"><a xlink:title=" ">
<path fill="none" stroke="#63b8ff" d="M438.02,-331C441.26,-292.28 453.95,-141.04 458.56,-86.03"/>
<polygon fill="#63b8ff" stroke="#63b8ff" points="462.03,-86.52 459.38,-76.26 455.06,-85.94 462.03,-86.52"/>
</a>
</g>
</g>
<!-- Node10&#45;&gt;Node6 -->
<g id="edge54_Node000010_Node000006" class="edge">
<title>Node10&#45;&gt;Node6</title>
<g id="a_edge54_Node000010_Node000006"><a xlink:title=" ">
<path fill="none" stroke="#63b8ff" d="M446.75,-331.09C454.68,-323.55 466.2,-312.6 475.79,-303.48"/>
<polygon fill="#63b8ff" stroke="#63b8ff" points="477.96,-306.24 482.79,-296.82 473.14,-301.17 477.96,-306.24"/>
</a>
</g>
</g>
<!-- Node10&#45;&gt;Node7 -->
<g id="edge10_Node000010_Node000007" class="edge">
<title>Node10&#45;&gt;Node7</title>
<g id="a_edge10_Node000010_Node000007"><a xlink:title=" ">
<path fill="none" stroke="#63b8ff" d="M480.24,-334.52C538.67,-326.8 646.68,-312.12 749.07,-295.8"/>
<polygon fill="#63b8ff" stroke="#63b8ff" points="749.42,-299.29 758.74,-294.25 748.32,-292.38 749.42,-299.29"/>
</a>
</g>
</g>
<!-- Node11 -->
<g id="Node000011" class="node">
<title>Node11</title>
<g id="a_Node000011"><a xlink:href="_fab_user_8hpp.xhtml" target="_top" xlink:title=" ">
<polygon fill="white" stroke="#666666" points="420,-240.25 348.5,-240.25 348.5,-221 420,-221 420,-240.25"/>
<text text-anchor="middle" x="384.25" y="-226.75" font-family="Helvetica,sans-Serif" font-size="10.00">FabUser.hpp</text>
</a>
</g>
</g>
<!-- Node10&#45;&gt;Node11 -->
<g id="edge11_Node000010_Node000011" class="edge">
<title>Node10&#45;&gt;Node11</title>
<g id="a_edge11_Node000010_Node000011"><a xlink:title=" ">
<path fill="none" stroke="#63b8ff" d="M432.91,-331.25C424.37,-313.76 405.2,-274.52 393.63,-250.84"/>
<polygon fill="#63b8ff" stroke="#63b8ff" points="396.85,-249.44 389.31,-241.99 390.56,-252.51 396.85,-249.44"/>
</a>
</g>
</g>
<!-- Node13 -->
<g id="Node000013" class="node">
<title>Node13</title>
<g id="a_Node000013"><a xlink:href="card_8hpp.xhtml" target="_top" xlink:title=" ">
<polygon fill="white" stroke="#666666" points="280.62,-185 227.88,-185 227.88,-165.75 280.62,-165.75 280.62,-185"/>
<text text-anchor="middle" x="254.25" y="-171.5" font-family="Helvetica,sans-Serif" font-size="10.00">card.hpp</text>
</a>
</g>
</g>
<!-- Node10&#45;&gt;Node13 -->
<g id="edge52_Node000010_Node000013" class="edge">
<title>Node10&#45;&gt;Node13</title>
<g id="a_edge52_Node000010_Node000013"><a xlink:title=" ">
<path fill="none" stroke="#63b8ff" d="M394.29,-336.03C364.21,-331.04 324.96,-319.99 299.25,-295.5 271.19,-268.77 260.46,-222.78 256.48,-196.45"/>
<polygon fill="#63b8ff" stroke="#63b8ff" points="259.98,-196.24 255.22,-186.77 253.04,-197.14 259.98,-196.24"/>
</a>
</g>
</g>
<!-- Node21 -->
<g id="Node000021" class="node">
<title>Node21</title>
<g id="a_Node000021"><a xlink:href="_machine_8hpp.xhtml" target="_top" xlink:title=" ">
<polygon fill="white" stroke="#666666" points="742.62,-295.5 671.88,-295.5 671.88,-276.25 742.62,-276.25 742.62,-295.5"/>
<text text-anchor="middle" x="707.25" y="-282" font-family="Helvetica,sans-Serif" font-size="10.00">Machine.hpp</text>
</a>
</g>
</g>
<!-- Node10&#45;&gt;Node21 -->
<g id="edge29_Node000010_Node000021" class="edge">
<title>Node10&#45;&gt;Node21</title>
<g id="a_edge29_Node000010_Node000021"><a xlink:title=" ">
<path fill="none" stroke="#63b8ff" d="M480.03,-331.69C529.25,-321.98 609.78,-306.1 660.58,-296.08"/>
<polygon fill="#63b8ff" stroke="#63b8ff" points="660.95,-299.57 670.08,-294.21 659.59,-292.71 660.95,-299.57"/>
</a>
</g>
</g>
<!-- Node29 -->
<g id="Node000029" class="node">
<title>Node29</title>
<g id="a_Node000029"><a xlink:title=" ">
<polygon fill="#e0e0e0" stroke="#999999" points="374,-295.5 308.5,-295.5 308.5,-276.25 374,-276.25 374,-295.5"/>
<text text-anchor="middle" x="341.25" y="-282" font-family="Helvetica,sans-Serif" font-size="10.00">string_view</text>
</a>
</g>
</g>
<!-- Node10&#45;&gt;Node29 -->
<g id="edge55_Node000010_Node000029" class="edge">
<title>Node10&#45;&gt;Node29</title>
<g id="a_edge55_Node000010_Node000029"><a xlink:title=" ">
<path fill="none" stroke="#63b8ff" d="M420.96,-331.09C406.35,-322.98 384.62,-310.93 367.54,-301.46"/>
<polygon fill="#63b8ff" stroke="#63b8ff" points="369.38,-298.48 358.94,-296.69 365.99,-304.6 369.38,-298.48"/>
</a>
</g>
</g>
<!-- Node11&#45;&gt;Node5 -->
<g id="edge28_Node000011_Node000005" class="edge">
<title>Node11&#45;&gt;Node5</title>
<g id="a_edge28_Node000011_Node000005"><a xlink:title=" ">
<path fill="none" stroke="#63b8ff" d="M388.34,-220.82C400.19,-195.28 434.8,-120.7 451.3,-85.15"/>
<polygon fill="#63b8ff" stroke="#63b8ff" points="454.47,-86.64 455.51,-76.1 448.12,-83.69 454.47,-86.64"/>
</a>
</g>
</g>
<!-- Node11&#45;&gt;Node9 -->
<g id="edge26_Node000011_Node000009" class="edge">
<title>Node11&#45;&gt;Node9</title>
<g id="a_edge26_Node000011_Node000009"><a xlink:title=" ">
<path fill="none" stroke="#63b8ff" d="M383.64,-220.75C382.21,-192.02 381.89,-100.7 431.25,-55.25 461.33,-27.55 581.07,-16.39 640.88,-12.47"/>
<polygon fill="#63b8ff" stroke="#63b8ff" points="641.06,-15.97 650.83,-11.86 640.63,-8.98 641.06,-15.97"/>
</a>
</g>
</g>
<!-- Node12 -->
<g id="Node000012" class="node">
<title>Node12</title>
<g id="a_Node000012"><a xlink:title=" ">
<polygon fill="#e0e0e0" stroke="#999999" points="356.5,-129.75 300,-129.75 300,-110.5 356.5,-110.5 356.5,-129.75"/>
<text text-anchor="middle" x="328.25" y="-116.25" font-family="Helvetica,sans-Serif" font-size="10.00">Arduino.h</text>
</a>
</g>
</g>
<!-- Node11&#45;&gt;Node12 -->
<g id="edge12_Node000011_Node000012" class="edge">
<title>Node11&#45;&gt;Node12</title>
<g id="a_edge12_Node000011_Node000012"><a xlink:title=" ">
<path fill="none" stroke="#63b8ff" d="M379.67,-220.75C370.64,-203.26 350.39,-164.02 338.17,-140.34"/>
<polygon fill="#63b8ff" stroke="#63b8ff" points="341.29,-138.75 333.59,-131.47 335.07,-141.96 341.29,-138.75"/>
</a>
</g>
</g>
<!-- Node11&#45;&gt;Node13 -->
<g id="edge13_Node000011_Node000013" class="edge">
<title>Node11&#45;&gt;Node13</title>
<g id="a_edge13_Node000011_Node000013"><a xlink:title=" ">
<path fill="none" stroke="#63b8ff" d="M362.2,-220.59C341.56,-212.14 310.47,-199.4 286.95,-189.77"/>
<polygon fill="#63b8ff" stroke="#63b8ff" points="288.39,-186.58 277.81,-186.03 285.74,-193.06 288.39,-186.58"/>
</a>
</g>
</g>
<!-- Node14 -->
<g id="Node000014" class="node">
<title>Node14</title>
<g id="a_Node000014"><a xlink:title=" ">
<polygon fill="#e0e0e0" stroke="#999999" points="281.88,-129.75 230.62,-129.75 230.62,-110.5 281.88,-110.5 281.88,-129.75"/>
<text text-anchor="middle" x="256.25" y="-116.25" font-family="Helvetica,sans-Serif" font-size="10.00">sstream</text>
</a>
</g>
</g>
<!-- Node11&#45;&gt;Node14 -->
<g id="edge27_Node000011_Node000014" class="edge">
<title>Node11&#45;&gt;Node14</title>
<g id="a_edge27_Node000011_Node000014"><a xlink:title=" ">
<path fill="none" stroke="#63b8ff" d="M373.78,-220.75C352.3,-202.55 303.02,-160.77 275.58,-137.51"/>
<polygon fill="#63b8ff" stroke="#63b8ff" points="277.92,-134.9 268.02,-131.11 273.39,-140.24 277.92,-134.9"/>
</a>
</g>
</g>
<!-- Node16 -->
<g id="Node000016" class="node">
<title>Node16</title>
<g id="a_Node000016"><a xlink:href="conf_8hpp.xhtml" target="_top" xlink:title=" ">
<polygon fill="white" stroke="#666666" points="616.62,-129.75 563.88,-129.75 563.88,-110.5 616.62,-110.5 616.62,-129.75"/>
<text text-anchor="middle" x="590.25" y="-116.25" font-family="Helvetica,sans-Serif" font-size="10.00">conf.hpp</text>
</a>
</g>
</g>
<!-- Node11&#45;&gt;Node16 -->
<g id="edge24_Node000011_Node000016" class="edge">
<title>Node11&#45;&gt;Node16</title>
<g id="a_edge24_Node000011_Node000016"><a xlink:title=" ">
<path fill="none" stroke="#63b8ff" d="M401.46,-220.56C437.21,-201.73 519.75,-158.26 562.88,-135.54"/>
<polygon fill="#63b8ff" stroke="#63b8ff" points="564.39,-138.7 571.61,-130.94 561.13,-132.51 564.39,-138.7"/>
</a>
</g>
</g>
<!-- Node20 -->
<g id="Node000020" class="node">
<title>Node20</title>
<g id="a_Node000020"><a xlink:title=" ">
<polygon fill="#e0e0e0" stroke="#999999" points="152.75,-19.25 115.75,-19.25 115.75,0 152.75,0 152.75,-19.25"/>
<text text-anchor="middle" x="134.25" y="-5.75" font-family="Helvetica,sans-Serif" font-size="10.00">array</text>
</a>
</g>
</g>
<!-- Node11&#45;&gt;Node20 -->
<g id="edge25_Node000011_Node000020" class="edge">
<title>Node11&#45;&gt;Node20</title>
<g id="a_edge25_Node000011_Node000020"><a xlink:title=" ">
<path fill="none" stroke="#63b8ff" d="M348.24,-226.86C293.79,-220.45 192.7,-199.3 153.25,-129.75 135.56,-98.57 133.03,-55.83 133.3,-30.93"/>
<polygon fill="#63b8ff" stroke="#63b8ff" points="136.79,-31.3 133.58,-21.2 129.79,-31.09 136.79,-31.3"/>
</a>
</g>
</g>
<!-- Node13&#45;&gt;Node12 -->
<g id="edge16_Node000013_Node000012" class="edge">
<title>Node13&#45;&gt;Node12</title>
<g id="a_edge16_Node000013_Node000012"><a xlink:title=" ">
<path fill="none" stroke="#63b8ff" d="M266.8,-165.34C277.71,-157.49 293.75,-145.95 306.71,-136.62"/>
<polygon fill="#63b8ff" stroke="#63b8ff" points="308.58,-139.59 314.65,-130.91 304.49,-133.91 308.58,-139.59"/>
</a>
</g>
</g>
<!-- Node13&#45;&gt;Node14 -->
<g id="edge14_Node000013_Node000014" class="edge">
<title>Node13&#45;&gt;Node14</title>
<g id="a_edge14_Node000013_Node000014"><a xlink:title=" ">
<path fill="none" stroke="#63b8ff" d="M254.58,-165.58C254.83,-158.99 255.18,-149.71 255.49,-141.32"/>
<polygon fill="#63b8ff" stroke="#63b8ff" points="258.98,-141.75 255.86,-131.62 251.98,-141.48 258.98,-141.75"/>
</a>
</g>
</g>
<!-- Node15 -->
<g id="Node000015" class="node">
<title>Node15</title>
<g id="a_Node000015"><a xlink:title=" ">
<polygon fill="#e0e0e0" stroke="#999999" points="212.12,-129.75 162.38,-129.75 162.38,-110.5 212.12,-110.5 212.12,-129.75"/>
<text text-anchor="middle" x="187.25" y="-116.25" font-family="Helvetica,sans-Serif" font-size="10.00">iomanip</text>
</a>
</g>
</g>
<!-- Node13&#45;&gt;Node15 -->
<g id="edge15_Node000013_Node000015" class="edge">
<title>Node13&#45;&gt;Node15</title>
<g id="a_edge15_Node000013_Node000015"><a xlink:title=" ">
<path fill="none" stroke="#63b8ff" d="M242.88,-165.34C233.2,-157.65 219.05,-146.4 207.44,-137.18"/>
<polygon fill="#63b8ff" stroke="#63b8ff" points="209.64,-134.45 199.63,-130.97 205.28,-139.93 209.64,-134.45"/>
</a>
</g>
</g>
<!-- Node13&#45;&gt;Node16 -->
<g id="edge17_Node000013_Node000016" class="edge">
<title>Node13&#45;&gt;Node16</title>
<g id="a_edge17_Node000013_Node000016"><a xlink:title=" ">
<path fill="none" stroke="#63b8ff" d="M280.9,-170.15C340.32,-160.73 483.85,-137.99 552.47,-127.11"/>
<polygon fill="#63b8ff" stroke="#63b8ff" points="552.78,-130.61 562.11,-125.59 551.68,-123.69 552.78,-130.61"/>
</a>
</g>
</g>
<!-- Node13&#45;&gt;Node18 -->
<g id="edge22_Node000013_Node000018" class="edge">
<title>Node13&#45;&gt;Node18</title>
<g id="a_edge22_Node000013_Node000018"><a xlink:title=" ">
<path fill="none" stroke="#63b8ff" d="M227.71,-167.95C191.13,-159.1 124.66,-143.01 79.98,-132.19"/>
<polygon fill="#63b8ff" stroke="#63b8ff" points="80.85,-128.8 70.31,-129.85 79.21,-135.61 80.85,-128.8"/>
</a>
</g>
</g>
<!-- Node16&#45;&gt;Node5 -->
<g id="edge19_Node000016_Node000005" class="edge">
<title>Node16&#45;&gt;Node5</title>
<g id="a_edge19_Node000016_Node000005"><a xlink:title=" ">
<path fill="none" stroke="#63b8ff" d="M568.2,-110.09C547.06,-101.43 514.96,-88.28 491.25,-78.57"/>
<polygon fill="#63b8ff" stroke="#63b8ff" points="492.68,-75.37 482.09,-74.82 490.02,-81.85 492.68,-75.37"/>
</a>
</g>
</g>
<!-- Node16&#45;&gt;Node8 -->
<g id="edge21_Node000016_Node000008" class="edge">
<title>Node16&#45;&gt;Node8</title>
<g id="a_edge21_Node000016_Node000008"><a xlink:title=" ">
<path fill="none" stroke="#63b8ff" d="M587.94,-110.33C586.19,-103.67 583.71,-94.24 581.48,-85.78"/>
<polygon fill="#63b8ff" stroke="#63b8ff" points="584.92,-85.1 579,-76.32 578.15,-86.88 584.92,-85.1"/>
</a>
</g>
</g>
<!-- Node16&#45;&gt;Node9 -->
<g id="edge18_Node000016_Node000009" class="edge">
<title>Node16&#45;&gt;Node9</title>
<g id="a_edge18_Node000016_Node000009"><a xlink:title=" ">
<path fill="none" stroke="#63b8ff" d="M569.61,-110.16C545.6,-98.45 511.18,-76.88 527.25,-55.25 553.35,-20.12 606.25,-11.64 641.22,-10.11"/>
<polygon fill="#63b8ff" stroke="#63b8ff" points="640.9,-13.62 650.81,-9.87 640.73,-6.62 640.9,-13.62"/>
</a>
</g>
</g>
<!-- Node17 -->
<g id="Node000017" class="node">
<title>Node17</title>
<g id="a_Node000017"><a xlink:title=" ">
<polygon fill="#e0e0e0" stroke="#999999" points="992.88,-74.5 947.62,-74.5 947.62,-55.25 992.88,-55.25 992.88,-74.5"/>
<text text-anchor="middle" x="970.25" y="-61" font-family="Helvetica,sans-Serif" font-size="10.00">chrono</text>
</a>
</g>
</g>
<!-- Node16&#45;&gt;Node17 -->
<g id="edge20_Node000016_Node000017" class="edge">
<title>Node16&#45;&gt;Node17</title>
<g id="a_edge20_Node000016_Node000017"><a xlink:title=" ">
<path fill="none" stroke="#63b8ff" d="M616.82,-115.87C672.94,-108.91 807.68,-91.81 920.25,-74.5 925.33,-73.72 930.7,-72.84 935.95,-71.96"/>
<polygon fill="#63b8ff" stroke="#63b8ff" points="936.37,-75.44 945.64,-70.3 935.19,-68.54 936.37,-75.44"/>
</a>
</g>
</g>
<!-- Node19 -->
<g id="Node000019" class="node">
<title>Node19</title>
<g id="a_Node000019"><a xlink:title=" ">
<polygon fill="#e0e0e0" stroke="#999999" points="62.88,-74.5 5.63,-74.5 5.63,-55.25 62.88,-55.25 62.88,-74.5"/>
<text text-anchor="middle" x="34.25" y="-61" font-family="Helvetica,sans-Serif" font-size="10.00">esp_log.h</text>
</a>
</g>
</g>
<!-- Node18&#45;&gt;Node19 -->
<g id="edge23_Node000018_Node000019" class="edge">
<title>Node18&#45;&gt;Node19</title>
<g id="a_edge23_Node000018_Node000019"><a xlink:title=" ">
<path fill="none" stroke="#63b8ff" d="M34.25,-110.33C34.25,-103.82 34.25,-94.67 34.25,-86.37"/>
<polygon fill="#63b8ff" stroke="#63b8ff" points="37.75,-86.37 34.25,-76.37 30.75,-86.37 37.75,-86.37"/>
</a>
</g>
</g>
<!-- Node21&#45;&gt;Node3 -->
<g id="edge51_Node000021_Node000003" class="edge">
<title>Node21&#45;&gt;Node3</title>
<g id="a_edge51_Node000021_Node000003"><a xlink:title=" ">
<path fill="none" stroke="#63b8ff" d="M742.75,-277.65C745.62,-277.15 748.48,-276.67 751.25,-276.25 895.78,-254.17 933.99,-264.07 1078.25,-240.25 1079.24,-240.09 1080.24,-239.91 1081.25,-239.74"/>
<polygon fill="#63b8ff" stroke="#63b8ff" points="1081.53,-243.25 1090.67,-237.89 1080.18,-236.38 1081.53,-243.25"/>
</a>
</g>
</g>
<!-- Node21&#45;&gt;Node9 -->
<g id="edge50_Node000021_Node000009" class="edge">
<title>Node21&#45;&gt;Node9</title>
<g id="a_edge50_Node000021_Node000009"><a xlink:title=" ">
<path fill="none" stroke="#63b8ff" d="M743.12,-277.83C833.65,-259.54 1064.25,-209.7 1064.25,-176.38 1064.25,-176.38 1064.25,-176.38 1064.25,-119.12 1064.25,-79.56 1037.56,-73.1 1002.25,-55.25 951.39,-29.54 782.12,-16.84 709.18,-12.46"/>
<polygon fill="#63b8ff" stroke="#63b8ff" points="709.63,-8.98 699.44,-11.89 709.22,-15.97 709.63,-8.98"/>
</a>
</g>
</g>
<!-- Node21&#45;&gt;Node11 -->
<g id="edge30_Node000021_Node000011" class="edge">
<title>Node21&#45;&gt;Node11</title>
<g id="a_edge30_Node000021_Node000011"><a xlink:title=" ">
<path fill="none" stroke="#63b8ff" d="M671.45,-278.97C612.88,-269.32 496.58,-250.14 431.38,-239.39"/>
<polygon fill="#63b8ff" stroke="#63b8ff" points="432.14,-235.97 421.7,-237.8 431,-242.88 432.14,-235.97"/>
</a>
</g>
</g>
<!-- Node21&#45;&gt;Node17 -->
<g id="edge49_Node000021_Node000017" class="edge">
<title>Node21&#45;&gt;Node17</title>
<g id="a_edge49_Node000021_Node000017"><a xlink:title=" ">
<path fill="none" stroke="#63b8ff" d="M734.2,-275.76C776.87,-260.64 861.68,-227.74 925.25,-185 955.61,-164.59 971.42,-163.19 986.25,-129.75 992.63,-115.36 987.52,-97.98 981.43,-84.98"/>
<polygon fill="#63b8ff" stroke="#63b8ff" points="984.57,-83.42 976.8,-76.21 978.38,-86.69 984.57,-83.42"/>
</a>
</g>
</g>
<!-- Node21&#45;&gt;Node20 -->
<g id="edge48_Node000021_Node000020" class="edge">
<title>Node21&#45;&gt;Node20</title>
<g id="a_edge48_Node000021_Node000020"><a xlink:title=" ">
<path fill="none" stroke="#63b8ff" d="M671.76,-282.36C541.36,-272.66 96.25,-235.23 96.25,-176.38 96.25,-176.38 96.25,-176.38 96.25,-119.12 96.25,-86.13 112.09,-50.51 123.32,-29.41"/>
<polygon fill="#63b8ff" stroke="#63b8ff" points="126.27,-31.3 128.07,-20.86 120.15,-27.9 126.27,-31.3"/>
</a>
</g>
</g>
<!-- Node22 -->
<g id="Node000022" class="node">
<title>Node22</title>
<g id="a_Node000022"><a xlink:href="_machine_config_8hpp.xhtml" target="_top" xlink:title=" ">
<polygon fill="white" stroke="#666666" points="770.12,-185 672.38,-185 672.38,-165.75 770.12,-165.75 770.12,-185"/>
<text text-anchor="middle" x="721.25" y="-171.5" font-family="Helvetica,sans-Serif" font-size="10.00">MachineConfig.hpp</text>
</a>
</g>
</g>
<!-- Node21&#45;&gt;Node22 -->
<g id="edge31_Node000021_Node000022" class="edge">
<title>Node21&#45;&gt;Node22</title>
<g id="a_edge31_Node000021_Node000022"><a xlink:title=" ">
<path fill="none" stroke="#63b8ff" d="M708.4,-276C710.62,-258.75 715.58,-220.33 718.64,-196.56"/>
<polygon fill="#63b8ff" stroke="#63b8ff" points="722.09,-197.24 719.89,-186.88 715.14,-196.35 722.09,-197.24"/>
</a>
</g>
</g>
<!-- Node26 -->
<g id="Node000026" class="node">
<title>Node26</title>
<g id="a_Node000026"><a xlink:href="_tasks_8hpp.xhtml" target="_top" xlink:title=" ">
<polygon fill="white" stroke="#666666" points="915.75,-185 854.75,-185 854.75,-165.75 915.75,-165.75 915.75,-185"/>
<text text-anchor="middle" x="885.25" y="-171.5" font-family="Helvetica,sans-Serif" font-size="10.00">Tasks.hpp</text>
</a>
</g>
</g>
<!-- Node21&#45;&gt;Node26 -->
<g id="edge43_Node000021_Node000026" class="edge">
<title>Node21&#45;&gt;Node26</title>
<g id="a_edge43_Node000021_Node000026"><a xlink:title=" ">
<path fill="none" stroke="#63b8ff" d="M722.12,-275.81C752.82,-257.1 823.48,-214.03 860.93,-191.2"/>
<polygon fill="#63b8ff" stroke="#63b8ff" points="862.54,-194.32 869.26,-186.12 858.89,-188.34 862.54,-194.32"/>
</a>
</g>
</g>
<!-- Node22&#45;&gt;Node5 -->
<g id="edge34_Node000022_Node000005" class="edge">
<title>Node22&#45;&gt;Node5</title>
<g id="a_edge34_Node000022_Node000005"><a xlink:title=" ">
<path fill="none" stroke="#63b8ff" d="M672.21,-165.63C638.37,-158.53 592.87,-146.88 555.25,-129.75 527.19,-116.97 498.26,-96.23 479.81,-81.86"/>
<polygon fill="#63b8ff" stroke="#63b8ff" points="482.14,-79.24 472.13,-75.76 477.78,-84.72 482.14,-79.24"/>
</a>
</g>
</g>
<!-- Node22&#45;&gt;Node8 -->
<g id="edge41_Node000022_Node000008" class="edge">
<title>Node22&#45;&gt;Node8</title>
<g id="a_edge41_Node000022_Node000008"><a xlink:title=" ">
<path fill="none" stroke="#63b8ff" d="M713.81,-165.29C702.7,-152.09 680.65,-127.36 658.25,-110.5 642.32,-98.5 622.76,-87.73 606.74,-79.78"/>
<polygon fill="#63b8ff" stroke="#63b8ff" points="608.68,-76.83 598.16,-75.63 605.64,-83.13 608.68,-76.83"/>
</a>
</g>
</g>
<!-- Node22&#45;&gt;Node9 -->
<g id="edge33_Node000022_Node000009" class="edge">
<title>Node22&#45;&gt;Node9</title>
<g id="a_edge33_Node000022_Node000009"><a xlink:title=" ">
<path fill="none" stroke="#63b8ff" d="M723.93,-165.51C729.62,-145.03 741.06,-93.29 724.25,-55.25 719.09,-43.57 709.19,-33.63 699.63,-26.11"/>
<polygon fill="#63b8ff" stroke="#63b8ff" points="701.76,-23.33 691.61,-20.32 697.67,-29.01 701.76,-23.33"/>
</a>
</g>
</g>
<!-- Node22&#45;&gt;Node16 -->
<g id="edge42_Node000022_Node000016" class="edge">
<title>Node22&#45;&gt;Node16</title>
<g id="a_edge42_Node000022_Node000016"><a xlink:title=" ">
<path fill="none" stroke="#63b8ff" d="M699.03,-165.34C678.23,-156.89 646.9,-144.15 623.2,-134.52"/>
<polygon fill="#63b8ff" stroke="#63b8ff" points="624.57,-131.3 613.98,-130.77 621.93,-137.78 624.57,-131.3"/>
</a>
</g>
</g>
<!-- Node22&#45;&gt;Node17 -->
<g id="edge32_Node000022_Node000017" class="edge">
<title>Node22&#45;&gt;Node17</title>
<g id="a_edge32_Node000022_Node000017"><a xlink:title=" ">
<path fill="none" stroke="#63b8ff" d="M739.19,-165.27C773.82,-147.7 846.56,-110.8 847.25,-110.5 876.9,-97.66 911.56,-85.32 936.52,-76.88"/>
<polygon fill="#63b8ff" stroke="#63b8ff" points="937.45,-80.26 945.82,-73.77 935.23,-73.62 937.45,-80.26"/>
</a>
</g>
</g>
<!-- Node23 -->
<g id="Node000023" class="node">
<title>Node23</title>
<g id="a_Node000023"><a xlink:href="pins_8hpp.xhtml" target="_top" xlink:title=" ">
<polygon fill="white" stroke="#666666" points="800.25,-129.75 748.25,-129.75 748.25,-110.5 800.25,-110.5 800.25,-129.75"/>
<text text-anchor="middle" x="774.25" y="-116.25" font-family="Helvetica,sans-Serif" font-size="10.00">pins.hpp</text>
</a>
</g>
</g>
<!-- Node22&#45;&gt;Node23 -->
<g id="edge35_Node000022_Node000023" class="edge">
<title>Node22&#45;&gt;Node23</title>
<g id="a_edge35_Node000022_Node000023"><a xlink:title=" ">
<path fill="none" stroke="#63b8ff" d="M730,-165.58C737.4,-158.15 748.21,-147.29 757.3,-138.16"/>
<polygon fill="#63b8ff" stroke="#63b8ff" points="759.67,-140.74 764.24,-131.18 754.71,-135.8 759.67,-140.74"/>
</a>
</g>
</g>
<!-- Node23&#45;&gt;Node9 -->
<g id="edge36_Node000023_Node000009" class="edge">
<title>Node23&#45;&gt;Node9</title>
<g id="a_edge36_Node000023_Node000009"><a xlink:title=" ">
<path fill="none" stroke="#63b8ff" d="M774.05,-110.31C773.3,-97.03 770.16,-71.67 757.25,-55.25 744.92,-39.57 725.5,-28.66 708.65,-21.55"/>
<polygon fill="#63b8ff" stroke="#63b8ff" points="710.05,-18.33 699.47,-17.96 707.51,-24.86 710.05,-18.33"/>
</a>
</g>
</g>
<!-- Node24 -->
<g id="Node000024" class="node">
<title>Node24</title>
<g id="a_Node000024"><a xlink:title=" ">
<polygon fill="#e0e0e0" stroke="#999999" points="911,-74.5 809.5,-74.5 809.5,-55.25 911,-55.25 911,-74.5"/>
<text text-anchor="middle" x="860.25" y="-61" font-family="Helvetica,sans-Serif" font-size="10.00">Adafruit_NeoPixel.h</text>
</a>
</g>
</g>
<!-- Node23&#45;&gt;Node24 -->
<g id="edge37_Node000023_Node000024" class="edge">
<title>Node23&#45;&gt;Node24</title>
<g id="a_edge37_Node000023_Node000024"><a xlink:title=" ">
<path fill="none" stroke="#63b8ff" d="M788.84,-110.09C801.69,-102.14 820.66,-90.39 835.82,-81"/>
<polygon fill="#63b8ff" stroke="#63b8ff" points="837.64,-83.99 844.3,-75.75 833.96,-78.04 837.64,-83.99"/>
</a>
</g>
</g>
<!-- Node25 -->
<g id="Node000025" class="node">
<title>Node25</title>
<g id="a_Node000025"><a xlink:href="_pins_config_8hpp.xhtml" target="_top" xlink:title=" ">
<polygon fill="white" stroke="#666666" points="715.5,-74.5 635,-74.5 635,-55.25 715.5,-55.25 715.5,-74.5"/>
<text text-anchor="middle" x="675.25" y="-61" font-family="Helvetica,sans-Serif" font-size="10.00">PinsConfig.hpp</text>
</a>
</g>
</g>
<!-- Node23&#45;&gt;Node25 -->
<g id="edge38_Node000023_Node000025" class="edge">
<title>Node23&#45;&gt;Node25</title>
<g id="a_edge38_Node000023_Node000025"><a xlink:title=" ">
<path fill="none" stroke="#63b8ff" d="M757.46,-110.09C742.24,-101.91 719.55,-89.71 701.87,-80.19"/>
<polygon fill="#63b8ff" stroke="#63b8ff" points="703.92,-77.32 693.46,-75.67 700.61,-83.49 703.92,-77.32"/>
</a>
</g>
</g>
<!-- Node25&#45;&gt;Node9 -->
<g id="edge39_Node000025_Node000009" class="edge">
<title>Node25&#45;&gt;Node9</title>
<g id="a_edge39_Node000025_Node000009"><a xlink:title=" ">
<path fill="none" stroke="#63b8ff" d="M675.25,-55.08C675.25,-48.57 675.25,-39.42 675.25,-31.12"/>
<polygon fill="#63b8ff" stroke="#63b8ff" points="678.75,-31.12 675.25,-21.12 671.75,-31.12 678.75,-31.12"/>
</a>
</g>
</g>
<!-- Node25&#45;&gt;Node20 -->
<g id="edge40_Node000025_Node000020" class="edge">
<title>Node25&#45;&gt;Node20</title>
<g id="a_edge40_Node000025_Node000020"><a xlink:title=" ">
<path fill="none" stroke="#63b8ff" d="M634.63,-56.59C631.46,-56.11 628.31,-55.65 625.25,-55.25 451.25,-32.37 241.02,-17.52 164.2,-12.51"/>
<polygon fill="#63b8ff" stroke="#63b8ff" points="164.75,-9.04 154.55,-11.89 164.3,-16.02 164.75,-9.04"/>
</a>
</g>
</g>
<!-- Node26&#45;&gt;Node12 -->
<g id="edge46_Node000026_Node000012" class="edge">
<title>Node26&#45;&gt;Node12</title>
<g id="a_edge46_Node000026_Node000012"><a xlink:title=" ">
<path fill="none" stroke="#63b8ff" d="M854.51,-171.44C760.08,-162.41 474.22,-135.08 368.3,-124.95"/>
<polygon fill="#63b8ff" stroke="#63b8ff" points="368.67,-121.47 358.38,-124.01 368,-128.44 368.67,-121.47"/>
</a>
</g>
</g>
<!-- Node26&#45;&gt;Node17 -->
<g id="edge44_Node000026_Node000017" class="edge">
<title>Node26&#45;&gt;Node17</title>
<g id="a_edge44_Node000026_Node000017"><a xlink:title=" ">
<path fill="none" stroke="#63b8ff" d="M916.01,-166.64C934.89,-160.14 957.62,-148.77 969.25,-129.75 977.15,-116.85 976.91,-99.56 974.97,-86.22"/>
<polygon fill="#63b8ff" stroke="#63b8ff" points="978.41,-85.56 973.08,-76.4 971.53,-86.89 978.41,-85.56"/>
</a>
</g>
</g>
<!-- Node27 -->
<g id="Node000027" class="node">
<title>Node27</title>
<g id="a_Node000027"><a xlink:title=" ">
<polygon fill="#e0e0e0" stroke="#999999" points="914.25,-129.75 856.25,-129.75 856.25,-110.5 914.25,-110.5 914.25,-129.75"/>
<text text-anchor="middle" x="885.25" y="-116.25" font-family="Helvetica,sans-Serif" font-size="10.00">functional</text>
</a>
</g>
</g>
<!-- Node26&#45;&gt;Node27 -->
<g id="edge45_Node000026_Node000027" class="edge">
<title>Node26&#45;&gt;Node27</title>
<g id="a_edge45_Node000026_Node000027"><a xlink:title=" ">
<path fill="none" stroke="#63b8ff" d="M885.25,-165.58C885.25,-159.07 885.25,-149.92 885.25,-141.62"/>
<polygon fill="#63b8ff" stroke="#63b8ff" points="888.75,-141.62 885.25,-131.62 881.75,-141.62 888.75,-141.62"/>
</a>
</g>
</g>
<!-- Node28 -->
<g id="Node000028" class="node">
<title>Node28</title>
<g id="a_Node000028"><a xlink:title=" ">
<polygon fill="#e0e0e0" stroke="#999999" points="960.65,-129.75 931.85,-129.75 931.85,-110.5 960.65,-110.5 960.65,-129.75"/>
<text text-anchor="middle" x="946.25" y="-116.25" font-family="Helvetica,sans-Serif" font-size="10.00">list</text>
</a>
</g>
</g>
<!-- Node26&#45;&gt;Node28 -->
<g id="edge47_Node000026_Node000028" class="edge">
<title>Node26&#45;&gt;Node28</title>
<g id="a_edge47_Node000026_Node000028"><a xlink:title=" ">
<path fill="none" stroke="#63b8ff" d="M895.6,-165.34C904.33,-157.72 917.04,-146.62 927.55,-137.45"/>
<polygon fill="#63b8ff" stroke="#63b8ff" points="929.68,-140.23 934.91,-131.02 925.08,-134.96 929.68,-140.23"/>
</a>
</g>
</g>
</g>
</svg>
