<?xml version="1.0" encoding="UTF-8" standalone="no"?>
<!DOCTYPE svg PUBLIC "-//W3C//DTD SVG 1.1//EN"
 "http://www.w3.org/Graphics/SVG/1.1/DTD/svg11.dtd">
<!-- Generated by graphviz version 9.0.0 (20230911.1827)
 -->
<!-- Title: CachedCards.hpp Pages: 1 -->
<svg width="498pt" height="304pt"
 viewBox="0.00 0.00 497.50 303.50" xmlns="http://www.w3.org/2000/svg" xmlns:xlink="http://www.w3.org/1999/xlink">

<svg id="main" version="1.1" xmlns="http://www.w3.org/2000/svg" xmlns:xlink="http://www.w3.org/1999/xlink" xml:space="preserve" onload="init(evt)">
<style type="text/css"><![CDATA[
.node, .edge {opacity: 0.7;}
.node.selected, .edge.selected {opacity: 1;}
.edge:hover path { stroke: red; }
.edge:hover polygon { stroke: red; fill: red; }
]]></style>
<script type="application/ecmascript" xlink:href="svg.min.js"/>
<svg id="graph" class="graph">
<g id="graph0" class="graph" transform="scale(1 1) rotate(0) translate(4 299.5)">
<title>CachedCards.hpp</title>
<!-- Node1 -->
<g id="Node000001" class="node">
<title>Node1</title>
<g id="a_Node000001"><a xlink:title=" ">
<polygon fill="#999999" stroke="#666666" points="328.75,-295.5 236.25,-295.5 236.25,-276.25 328.75,-276.25 328.75,-295.5"/>
<text text-anchor="middle" x="282.5" y="-282" font-family="Helvetica,sans-Serif" font-size="10.00">CachedCards.hpp</text>
</a>
</g>
</g>
<!-- Node2 -->
<g id="Node000002" class="node">
<title>Node2</title>
<g id="a_Node000002"><a xlink:title=" ">
<polygon fill="#e0e0e0" stroke="#999999" points="37,-185 0,-185 0,-165.75 37,-165.75 37,-185"/>
<text text-anchor="middle" x="18.5" y="-171.5" font-family="Helvetica,sans-Serif" font-size="10.00">array</text>
</a>
</g>
</g>
<!-- Node1&#45;&gt;Node2 -->
<g id="edge1_Node000001_Node000002" class="edge">
<title>Node1&#45;&gt;Node2</title>
<g id="a_edge1_Node000001_Node000002"><a xlink:title=" ">
<path fill="none" stroke="#63b8ff" d="M260.45,-275.81C213.01,-256.32 101.27,-210.39 47.89,-188.45"/>
<polygon fill="#63b8ff" stroke="#63b8ff" points="49.41,-185.3 38.83,-184.73 46.75,-191.77 49.41,-185.3"/>
</a>
</g>
</g>
<!-- Node3 -->
<g id="Node000003" class="node">
<title>Node3</title>
<g id="a_Node000003"><a xlink:href="_fab_user_8hpp.xhtml" target="_top" xlink:title=" ">
<polygon fill="white" stroke="#666666" points="350.25,-240.25 278.75,-240.25 278.75,-221 350.25,-221 350.25,-240.25"/>
<text text-anchor="middle" x="314.5" y="-226.75" font-family="Helvetica,sans-Serif" font-size="10.00">FabUser.hpp</text>
</a>
</g>
</g>
<!-- Node1&#45;&gt;Node3 -->
<g id="edge2_Node000001_Node000003" class="edge">
<title>Node1&#45;&gt;Node3</title>
<g id="a_edge2_Node000001_Node000003"><a xlink:title=" ">
<path fill="none" stroke="#63b8ff" d="M287.78,-276.08C291.97,-269.11 297.98,-259.12 303.23,-250.37"/>
<polygon fill="#63b8ff" stroke="#63b8ff" points="306.17,-252.28 308.32,-241.91 300.17,-248.68 306.17,-252.28"/>
</a>
</g>
</g>
<!-- Node5 -->
<g id="Node000005" class="node">
<title>Node5</title>
<g id="a_Node000005"><a xlink:href="card_8hpp.xhtml" target="_top" xlink:title=" ">
<polygon fill="white" stroke="#666666" points="281.88,-185 229.12,-185 229.12,-165.75 281.88,-165.75 281.88,-185"/>
<text text-anchor="middle" x="255.5" y="-171.5" font-family="Helvetica,sans-Serif" font-size="10.00">card.hpp</text>
</a>
</g>
</g>
<!-- Node1&#45;&gt;Node5 -->
<g id="edge22_Node000001_Node000005" class="edge">
<title>Node1&#45;&gt;Node5</title>
<g id="a_edge22_Node000001_Node000005"><a xlink:title=" ">
<path fill="none" stroke="#63b8ff" d="M279.73,-276.03C276.97,-267.06 272.69,-252.76 269.5,-240.25 265.76,-225.56 262.11,-208.82 259.48,-196.17"/>
<polygon fill="#63b8ff" stroke="#63b8ff" points="262.95,-195.68 257.52,-186.58 256.09,-197.08 262.95,-195.68"/>
</a>
</g>
</g>
<!-- Node8 -->
<g id="Node000008" class="node">
<title>Node8</title>
<g id="a_Node000008"><a xlink:href="conf_8hpp.xhtml" target="_top" xlink:title=" ">
<polygon fill="white" stroke="#666666" points="443.88,-129.75 391.12,-129.75 391.12,-110.5 443.88,-110.5 443.88,-129.75"/>
<text text-anchor="middle" x="417.5" y="-116.25" font-family="Helvetica,sans-Serif" font-size="10.00">conf.hpp</text>
</a>
</g>
</g>
<!-- Node1&#45;&gt;Node8 -->
<g id="edge21_Node000001_Node000008" class="edge">
<title>Node1&#45;&gt;Node8</title>
<g id="a_edge21_Node000001_Node000008"><a xlink:title=" ">
<path fill="none" stroke="#63b8ff" d="M305.82,-275.76C322.5,-268.29 344.56,-256.31 359.5,-240.25 386.7,-211.01 403.68,-166.65 411.79,-141.12"/>
<polygon fill="#63b8ff" stroke="#63b8ff" points="415.1,-142.28 414.63,-131.7 408.4,-140.26 415.1,-142.28"/>
</a>
</g>
</g>
<!-- Node3&#45;&gt;Node2 -->
<g id="edge17_Node000003_Node000002" class="edge">
<title>Node3&#45;&gt;Node2</title>
<g id="a_edge17_Node000003_Node000002"><a xlink:title=" ">
<path fill="none" stroke="#63b8ff" d="M278.58,-224.55C227.76,-217.14 132.09,-202.33 51.5,-185 50.49,-184.78 49.46,-184.55 48.42,-184.32"/>
<polygon fill="#63b8ff" stroke="#63b8ff" points="49.29,-180.93 38.75,-181.95 47.63,-187.73 49.29,-180.93"/>
</a>
</g>
</g>
<!-- Node4 -->
<g id="Node000004" class="node">
<title>Node4</title>
<g id="a_Node000004"><a xlink:title=" ">
<polygon fill="#e0e0e0" stroke="#999999" points="303.75,-129.75 247.25,-129.75 247.25,-110.5 303.75,-110.5 303.75,-129.75"/>
<text text-anchor="middle" x="275.5" y="-116.25" font-family="Helvetica,sans-Serif" font-size="10.00">Arduino.h</text>
</a>
</g>
</g>
<!-- Node3&#45;&gt;Node4 -->
<g id="edge3_Node000003_Node000004" class="edge">
<title>Node3&#45;&gt;Node4</title>
<g id="a_edge3_Node000003_Node000004"><a xlink:title=" ">
<path fill="none" stroke="#63b8ff" d="M311.31,-220.75C305.05,-203.34 291.05,-164.37 282.52,-140.66"/>
<polygon fill="#63b8ff" stroke="#63b8ff" points="285.92,-139.78 279.25,-131.55 279.34,-142.15 285.92,-139.78"/>
</a>
</g>
</g>
<!-- Node3&#45;&gt;Node5 -->
<g id="edge4_Node000003_Node000005" class="edge">
<title>Node3&#45;&gt;Node5</title>
<g id="a_edge4_Node000003_Node000005"><a xlink:title=" ">
<path fill="none" stroke="#63b8ff" d="M304.49,-220.59C296.13,-213.05 284,-202.1 273.9,-192.98"/>
<polygon fill="#63b8ff" stroke="#63b8ff" points="276.25,-190.39 266.48,-186.29 271.56,-195.59 276.25,-190.39"/>
</a>
</g>
</g>
<!-- Node6 -->
<g id="Node000006" class="node">
<title>Node6</title>
<g id="a_Node000006"><a xlink:title=" ">
<polygon fill="#e0e0e0" stroke="#999999" points="373.12,-129.75 321.88,-129.75 321.88,-110.5 373.12,-110.5 373.12,-129.75"/>
<text text-anchor="middle" x="347.5" y="-116.25" font-family="Helvetica,sans-Serif" font-size="10.00">sstream</text>
</a>
</g>
</g>
<!-- Node3&#45;&gt;Node6 -->
<g id="edge19_Node000003_Node000006" class="edge">
<title>Node3&#45;&gt;Node6</title>
<g id="a_edge19_Node000003_Node000006"><a xlink:title=" ">
<path fill="none" stroke="#63b8ff" d="M317.2,-220.75C322.47,-203.42 334.24,-164.73 341.46,-140.99"/>
<polygon fill="#63b8ff" stroke="#63b8ff" points="344.76,-142.16 344.32,-131.57 338.06,-140.12 344.76,-142.16"/>
</a>
</g>
</g>
<!-- Node3&#45;&gt;Node8 -->
<g id="edge16_Node000003_Node000008" class="edge">
<title>Node3&#45;&gt;Node8</title>
<g id="a_edge16_Node000003_Node000008"><a xlink:title=" ">
<path fill="none" stroke="#63b8ff" d="M322.93,-220.75C339.98,-202.78 378.83,-161.86 401.07,-138.44"/>
<polygon fill="#63b8ff" stroke="#63b8ff" points="403.57,-140.89 407.91,-131.22 398.49,-136.07 403.57,-140.89"/>
</a>
</g>
</g>
<!-- Node9 -->
<g id="Node000009" class="node">
<title>Node9</title>
<g id="a_Node000009"><a xlink:title=" ">
<polygon fill="#e0e0e0" stroke="#999999" points="309.12,-19.25 263.88,-19.25 263.88,0 309.12,0 309.12,-19.25"/>
<text text-anchor="middle" x="286.5" y="-5.75" font-family="Helvetica,sans-Serif" font-size="10.00">cstdint</text>
</a>
</g>
</g>
<!-- Node3&#45;&gt;Node9 -->
<g id="edge18_Node000003_Node000009" class="edge">
<title>Node3&#45;&gt;Node9</title>
<g id="a_edge18_Node000003_Node000009"><a xlink:title=" ">
<path fill="none" stroke="#63b8ff" d="M278.41,-225.96C225.34,-218.41 127.84,-195.82 84.5,-129.75 75.22,-115.6 70.19,-77.31 89.5,-55.25 110.57,-31.19 201.6,-18.76 252.22,-13.6"/>
<polygon fill="#63b8ff" stroke="#63b8ff" points="252.44,-17.1 262.05,-12.65 251.76,-10.13 252.44,-17.1"/>
</a>
</g>
</g>
<!-- Node10 -->
<g id="Node000010" class="node">
<title>Node10</title>
<g id="a_Node000010"><a xlink:title=" ">
<polygon fill="#e0e0e0" stroke="#999999" points="489.5,-74.5 449.5,-74.5 449.5,-55.25 489.5,-55.25 489.5,-74.5"/>
<text text-anchor="middle" x="469.5" y="-61" font-family="Helvetica,sans-Serif" font-size="10.00">string</text>
</a>
</g>
</g>
<!-- Node3&#45;&gt;Node10 -->
<g id="edge20_Node000003_Node000010" class="edge">
<title>Node3&#45;&gt;Node10</title>
<g id="a_edge20_Node000003_Node000010"><a xlink:title=" ">
<path fill="none" stroke="#63b8ff" d="M334.9,-220.61C365.4,-206.06 422.49,-174.43 452.5,-129.75 461.23,-116.76 465.48,-99.47 467.55,-86.16"/>
<polygon fill="#63b8ff" stroke="#63b8ff" points="471.01,-86.74 468.76,-76.39 464.06,-85.89 471.01,-86.74"/>
</a>
</g>
</g>
<!-- Node5&#45;&gt;Node4 -->
<g id="edge7_Node000005_Node000004" class="edge">
<title>Node5&#45;&gt;Node4</title>
<g id="a_edge7_Node000005_Node000004"><a xlink:title=" ">
<path fill="none" stroke="#63b8ff" d="M258.8,-165.58C261.33,-158.84 264.93,-149.27 268.13,-140.74"/>
<polygon fill="#63b8ff" stroke="#63b8ff" points="271.35,-142.12 271.59,-131.53 264.8,-139.66 271.35,-142.12"/>
</a>
</g>
</g>
<!-- Node5&#45;&gt;Node6 -->
<g id="edge5_Node000005_Node000006" class="edge">
<title>Node5&#45;&gt;Node6</title>
<g id="a_edge5_Node000005_Node000006"><a xlink:title=" ">
<path fill="none" stroke="#63b8ff" d="M271.11,-165.34C285.12,-157.23 305.93,-145.18 322.3,-135.71"/>
<polygon fill="#63b8ff" stroke="#63b8ff" points="323.61,-139 330.51,-130.96 320.1,-132.94 323.61,-139"/>
</a>
</g>
</g>
<!-- Node7 -->
<g id="Node000007" class="node">
<title>Node7</title>
<g id="a_Node000007"><a xlink:title=" ">
<polygon fill="#e0e0e0" stroke="#999999" points="229.38,-129.75 179.62,-129.75 179.62,-110.5 229.38,-110.5 229.38,-129.75"/>
<text text-anchor="middle" x="204.5" y="-116.25" font-family="Helvetica,sans-Serif" font-size="10.00">iomanip</text>
</a>
</g>
</g>
<!-- Node5&#45;&gt;Node7 -->
<g id="edge6_Node000005_Node000007" class="edge">
<title>Node5&#45;&gt;Node7</title>
<g id="a_edge6_Node000005_Node000007"><a xlink:title=" ">
<path fill="none" stroke="#63b8ff" d="M247.08,-165.58C239.96,-158.15 229.56,-147.29 220.81,-138.16"/>
<polygon fill="#63b8ff" stroke="#63b8ff" points="223.6,-136 214.15,-131.2 218.54,-140.85 223.6,-136"/>
</a>
</g>
</g>
<!-- Node5&#45;&gt;Node8 -->
<g id="edge8_Node000005_Node000008" class="edge">
<title>Node5&#45;&gt;Node8</title>
<g id="a_edge8_Node000005_Node000008"><a xlink:title=" ">
<path fill="none" stroke="#63b8ff" d="M282.25,-165.58C308.87,-156.83 349.95,-143.33 379.85,-133.5"/>
<polygon fill="#63b8ff" stroke="#63b8ff" points="380.86,-136.85 389.27,-130.4 378.68,-130.2 380.86,-136.85"/>
</a>
</g>
</g>
<!-- Node13 -->
<g id="Node000013" class="node">
<title>Node13</title>
<g id="a_Node000013"><a xlink:href="_logging_8hpp.xhtml" target="_top" xlink:title=" ">
<polygon fill="white" stroke="#666666" points="161.75,-129.75 93.25,-129.75 93.25,-110.5 161.75,-110.5 161.75,-129.75"/>
<text text-anchor="middle" x="127.5" y="-116.25" font-family="Helvetica,sans-Serif" font-size="10.00">Logging.hpp</text>
</a>
</g>
</g>
<!-- Node5&#45;&gt;Node13 -->
<g id="edge14_Node000005_Node000013" class="edge">
<title>Node5&#45;&gt;Node13</title>
<g id="a_edge14_Node000005_Node000013"><a xlink:title=" ">
<path fill="none" stroke="#63b8ff" d="M233.79,-165.34C213.47,-156.89 182.85,-144.15 159.69,-134.52"/>
<polygon fill="#63b8ff" stroke="#63b8ff" points="161.29,-131.39 150.72,-130.78 158.61,-137.86 161.29,-131.39"/>
</a>
</g>
</g>
<!-- Node8&#45;&gt;Node9 -->
<g id="edge9_Node000008_Node000009" class="edge">
<title>Node8&#45;&gt;Node9</title>
<g id="a_edge9_Node000008_Node000009"><a xlink:title=" ">
<path fill="none" stroke="#63b8ff" d="M417.38,-110.1C416.72,-96.53 413.56,-70.81 399.5,-55.25 379.12,-32.69 345.85,-21.38 320.68,-15.81"/>
<polygon fill="#63b8ff" stroke="#63b8ff" points="321.39,-12.39 310.9,-13.87 320.03,-19.25 321.39,-12.39"/>
</a>
</g>
</g>
<!-- Node8&#45;&gt;Node10 -->
<g id="edge10_Node000008_Node000010" class="edge">
<title>Node8&#45;&gt;Node10</title>
<g id="a_edge10_Node000008_Node000010"><a xlink:title=" ">
<path fill="none" stroke="#63b8ff" d="M426.09,-110.33C433.34,-102.9 443.95,-92.04 452.87,-82.91"/>
<polygon fill="#63b8ff" stroke="#63b8ff" points="455.19,-85.54 459.67,-75.94 450.18,-80.65 455.19,-85.54"/>
</a>
</g>
</g>
<!-- Node11 -->
<g id="Node000011" class="node">
<title>Node11</title>
<g id="a_Node000011"><a xlink:title=" ">
<polygon fill="#e0e0e0" stroke="#999999" points="390.12,-74.5 344.88,-74.5 344.88,-55.25 390.12,-55.25 390.12,-74.5"/>
<text text-anchor="middle" x="367.5" y="-61" font-family="Helvetica,sans-Serif" font-size="10.00">chrono</text>
</a>
</g>
</g>
<!-- Node8&#45;&gt;Node11 -->
<g id="edge11_Node000008_Node000011" class="edge">
<title>Node8&#45;&gt;Node11</title>
<g id="a_edge11_Node000008_Node000011"><a xlink:title=" ">
<path fill="none" stroke="#63b8ff" d="M409.24,-110.33C402.34,-102.98 392.28,-92.26 383.76,-83.19"/>
<polygon fill="#63b8ff" stroke="#63b8ff" points="386.37,-80.86 376.97,-75.96 381.27,-85.65 386.37,-80.86"/>
</a>
</g>
</g>
<!-- Node12 -->
<g id="Node000012" class="node">
<title>Node12</title>
<g id="a_Node000012"><a xlink:href="_machine_i_d_8hpp.xhtml" target="_top" xlink:title=" ">
<polygon fill="white" stroke="#666666" points="326.75,-74.5 246.25,-74.5 246.25,-55.25 326.75,-55.25 326.75,-74.5"/>
<text text-anchor="middle" x="286.5" y="-61" font-family="Helvetica,sans-Serif" font-size="10.00">MachineID.hpp</text>
</a>
</g>
</g>
<!-- Node8&#45;&gt;Node12 -->
<g id="edge12_Node000008_Node000012" class="edge">
<title>Node8&#45;&gt;Node12</title>
<g id="a_edge12_Node000008_Node000012"><a xlink:title=" ">
<path fill="none" stroke="#63b8ff" d="M395.28,-110.09C374.48,-101.64 343.15,-88.9 319.45,-79.27"/>
<polygon fill="#63b8ff" stroke="#63b8ff" points="320.82,-76.05 310.23,-75.52 318.18,-82.53 320.82,-76.05"/>
</a>
</g>
</g>
<!-- Node12&#45;&gt;Node9 -->
<g id="edge13_Node000012_Node000009" class="edge">
<title>Node12&#45;&gt;Node9</title>
<g id="a_edge13_Node000012_Node000009"><a xlink:title=" ">
<path fill="none" stroke="#63b8ff" d="M286.5,-55.08C286.5,-48.57 286.5,-39.42 286.5,-31.12"/>
<polygon fill="#63b8ff" stroke="#63b8ff" points="290,-31.12 286.5,-21.12 283,-31.12 290,-31.12"/>
</a>
</g>
</g>
<!-- Node14 -->
<g id="Node000014" class="node">
<title>Node14</title>
<g id="a_Node000014"><a xlink:title=" ">
<polygon fill="#e0e0e0" stroke="#999999" points="156.12,-74.5 98.88,-74.5 98.88,-55.25 156.12,-55.25 156.12,-74.5"/>
<text text-anchor="middle" x="127.5" y="-61" font-family="Helvetica,sans-Serif" font-size="10.00">esp_log.h</text>
</a>
</g>
</g>
<!-- Node13&#45;&gt;Node14 -->
<g id="edge15_Node000013_Node000014" class="edge">
<title>Node13&#45;&gt;Node14</title>
<g id="a_edge15_Node000013_Node000014"><a xlink:title=" ">
<path fill="none" stroke="#63b8ff" d="M127.5,-110.33C127.5,-103.82 127.5,-94.67 127.5,-86.37"/>
<polygon fill="#63b8ff" stroke="#63b8ff" points="131,-86.37 127.5,-76.37 124,-86.37 131,-86.37"/>
</a>
</g>
</g>
</g>
</svg>
</svg>

<style type='text/css'>
<![CDATA[
[data-mouse-over-selected='false'] { opacity: 0.7; }
[data-mouse-over-selected='true']  { opacity: 1.0; }
]]>
</style>
<script type="application/ecmascript"><![CDATA[
document.addEventListener('DOMContentLoaded', (event) => {
  highlightEdges();
  highlightAdjacentNodes();
});
]]></script>
</svg>
