<?xml version="1.0" encoding="UTF-8" standalone="no"?>
<!DOCTYPE svg PUBLIC "-//W3C//DTD SVG 1.1//EN"
 "http://www.w3.org/Graphics/SVG/1.1/DTD/svg11.dtd">
<!-- Generated by graphviz version 9.0.0 (20230911.1827)
 -->
<!-- Title: CachedCards.hpp Pages: 1 -->
<svg width="587pt" height="304pt"
 viewBox="0.00 0.00 587.38 303.50" xmlns="http://www.w3.org/2000/svg" xmlns:xlink="http://www.w3.org/1999/xlink">
<g id="graph0" class="graph" transform="scale(1 1) rotate(0) translate(4 299.5)">
<title>CachedCards.hpp</title>
<!-- Node1 -->
<g id="Node000001" class="node">
<title>Node1</title>
<g id="a_Node000001"><a xlink:title=" ">
<polygon fill="#999999" stroke="#666666" points="373.75,-295.5 281.25,-295.5 281.25,-276.25 373.75,-276.25 373.75,-295.5"/>
<text text-anchor="middle" x="327.5" y="-282" font-family="Helvetica,sans-Serif" font-size="10.00">CachedCards.hpp</text>
</a>
</g>
</g>
<!-- Node2 -->
<g id="Node000002" class="node">
<title>Node2</title>
<g id="a_Node000002"><a xlink:title=" ">
<polygon fill="#e0e0e0" stroke="#999999" points="37,-185 0,-185 0,-165.75 37,-165.75 37,-185"/>
<text text-anchor="middle" x="18.5" y="-171.5" font-family="Helvetica,sans-Serif" font-size="10.00">array</text>
</a>
</g>
</g>
<!-- Node1&#45;&gt;Node2 -->
<g id="edge1_Node000001_Node000002" class="edge">
<title>Node1&#45;&gt;Node2</title>
<g id="a_edge1_Node000001_Node000002"><a xlink:title=" ">
<path fill="none" stroke="#63b8ff" d="M301.69,-275.81C244.73,-255.81 108.56,-208 48.19,-186.8"/>
<polygon fill="#63b8ff" stroke="#63b8ff" points="49.52,-183.56 38.93,-183.55 47.2,-190.16 49.52,-183.56"/>
</a>
</g>
</g>
<!-- Node3 -->
<g id="Node000003" class="node">
<title>Node3</title>
<g id="a_Node000003"><a xlink:title=" ">
<polygon fill="#e0e0e0" stroke="#999999" points="579.38,-240.25 529.62,-240.25 529.62,-221 579.38,-221 579.38,-240.25"/>
<text text-anchor="middle" x="554.5" y="-226.75" font-family="Helvetica,sans-Serif" font-size="10.00">optional</text>
</a>
</g>
</g>
<!-- Node1&#45;&gt;Node3 -->
<g id="edge2_Node000001_Node000003" class="edge">
<title>Node1&#45;&gt;Node3</title>
<g id="a_edge2_Node000001_Node000003"><a xlink:title=" ">
<path fill="none" stroke="#63b8ff" d="M366.26,-275.78C408.86,-265.79 476.73,-249.87 518.29,-240.12"/>
<polygon fill="#63b8ff" stroke="#63b8ff" points="518.85,-243.58 527.79,-237.89 517.26,-236.77 518.85,-243.58"/>
</a>
</g>
</g>
<!-- Node4 -->
<g id="Node000004" class="node">
<title>Node4</title>
<g id="a_Node000004"><a xlink:href="_fab_user_8hpp.xhtml" target="_top" xlink:title=" ">
<polygon fill="white" stroke="#666666" points="363.25,-240.25 291.75,-240.25 291.75,-221 363.25,-221 363.25,-240.25"/>
<text text-anchor="middle" x="327.5" y="-226.75" font-family="Helvetica,sans-Serif" font-size="10.00">FabUser.hpp</text>
</a>
</g>
</g>
<!-- Node1&#45;&gt;Node4 -->
<g id="edge3_Node000001_Node000004" class="edge">
<title>Node1&#45;&gt;Node4</title>
<g id="a_edge3_Node000001_Node000004"><a xlink:title=" ">
<path fill="none" stroke="#63b8ff" d="M327.5,-276.08C327.5,-269.57 327.5,-260.42 327.5,-252.12"/>
<polygon fill="#63b8ff" stroke="#63b8ff" points="331,-252.12 327.5,-242.12 324,-252.12 331,-252.12"/>
</a>
</g>
</g>
<!-- Node6 -->
<g id="Node000006" class="node">
<title>Node6</title>
<g id="a_Node000006"><a xlink:href="card_8hpp.xhtml" target="_top" xlink:title=" ">
<polygon fill="white" stroke="#666666" points="289.88,-185 237.12,-185 237.12,-165.75 289.88,-165.75 289.88,-185"/>
<text text-anchor="middle" x="263.5" y="-171.5" font-family="Helvetica,sans-Serif" font-size="10.00">card.hpp</text>
</a>
</g>
</g>
<!-- Node1&#45;&gt;Node6 -->
<g id="edge23_Node000001_Node000006" class="edge">
<title>Node1&#45;&gt;Node6</title>
<g id="a_edge23_Node000001_Node000006"><a xlink:title=" ">
<path fill="none" stroke="#63b8ff" d="M315.51,-275.87C305.34,-267.64 291.09,-254.6 282.5,-240.25 274.39,-226.71 269.53,-209.46 266.76,-196.31"/>
<polygon fill="#63b8ff" stroke="#63b8ff" points="270.24,-195.88 264.98,-186.68 263.36,-197.16 270.24,-195.88"/>
</a>
</g>
</g>
<!-- Node9 -->
<g id="Node000009" class="node">
<title>Node9</title>
<g id="a_Node000009"><a xlink:href="conf_8hpp.xhtml" target="_top" xlink:title=" ">
<polygon fill="white" stroke="#666666" points="443.88,-129.75 391.12,-129.75 391.12,-110.5 443.88,-110.5 443.88,-129.75"/>
<text text-anchor="middle" x="417.5" y="-116.25" font-family="Helvetica,sans-Serif" font-size="10.00">conf.hpp</text>
</a>
</g>
</g>
<!-- Node1&#45;&gt;Node9 -->
<g id="edge22_Node000001_Node000009" class="edge">
<title>Node1&#45;&gt;Node9</title>
<g id="a_edge22_Node000001_Node000009"><a xlink:title=" ">
<path fill="none" stroke="#63b8ff" d="M338.85,-276.04C348.87,-267.73 363.28,-254.47 372.5,-240.25 393.09,-208.5 406.26,-165.95 412.73,-141.24"/>
<polygon fill="#63b8ff" stroke="#63b8ff" points="416.12,-142.11 415.14,-131.56 409.33,-140.42 416.12,-142.11"/>
</a>
</g>
</g>
<!-- Node4&#45;&gt;Node2 -->
<g id="edge18_Node000004_Node000002" class="edge">
<title>Node4&#45;&gt;Node2</title>
<g id="a_edge18_Node000004_Node000002"><a xlink:title=" ">
<path fill="none" stroke="#63b8ff" d="M291.57,-224.93C238.71,-217.77 136.99,-203.04 51.5,-185 50.49,-184.79 49.46,-184.56 48.42,-184.33"/>
<polygon fill="#63b8ff" stroke="#63b8ff" points="49.29,-180.94 38.74,-181.97 47.63,-187.74 49.29,-180.94"/>
</a>
</g>
</g>
<!-- Node5 -->
<g id="Node000005" class="node">
<title>Node5</title>
<g id="a_Node000005"><a xlink:title=" ">
<polygon fill="#e0e0e0" stroke="#999999" points="303.75,-129.75 247.25,-129.75 247.25,-110.5 303.75,-110.5 303.75,-129.75"/>
<text text-anchor="middle" x="275.5" y="-116.25" font-family="Helvetica,sans-Serif" font-size="10.00">Arduino.h</text>
</a>
</g>
</g>
<!-- Node4&#45;&gt;Node5 -->
<g id="edge4_Node000004_Node000005" class="edge">
<title>Node4&#45;&gt;Node5</title>
<g id="a_edge4_Node000004_Node000005"><a xlink:title=" ">
<path fill="none" stroke="#63b8ff" d="M323.7,-220.88C318.28,-208.52 307.95,-185.26 298.5,-165.75 294.37,-157.22 289.6,-147.88 285.47,-139.97"/>
<polygon fill="#63b8ff" stroke="#63b8ff" points="288.67,-138.52 280.92,-131.29 282.47,-141.77 288.67,-138.52"/>
</a>
</g>
</g>
<!-- Node4&#45;&gt;Node6 -->
<g id="edge5_Node000004_Node000006" class="edge">
<title>Node4&#45;&gt;Node6</title>
<g id="a_edge5_Node000004_Node000006"><a xlink:title=" ">
<path fill="none" stroke="#63b8ff" d="M316.64,-220.59C307.39,-212.9 293.88,-201.65 282.79,-192.43"/>
<polygon fill="#63b8ff" stroke="#63b8ff" points="285.29,-189.95 275.36,-186.24 280.81,-195.33 285.29,-189.95"/>
</a>
</g>
</g>
<!-- Node7 -->
<g id="Node000007" class="node">
<title>Node7</title>
<g id="a_Node000007"><a xlink:title=" ">
<polygon fill="#e0e0e0" stroke="#999999" points="373.12,-129.75 321.88,-129.75 321.88,-110.5 373.12,-110.5 373.12,-129.75"/>
<text text-anchor="middle" x="347.5" y="-116.25" font-family="Helvetica,sans-Serif" font-size="10.00">sstream</text>
</a>
</g>
</g>
<!-- Node4&#45;&gt;Node7 -->
<g id="edge20_Node000004_Node000007" class="edge">
<title>Node4&#45;&gt;Node7</title>
<g id="a_edge20_Node000004_Node000007"><a xlink:title=" ">
<path fill="none" stroke="#63b8ff" d="M329.14,-220.75C332.32,-203.5 339.4,-165.08 343.78,-141.31"/>
<polygon fill="#63b8ff" stroke="#63b8ff" points="347.2,-142.08 345.57,-131.62 340.31,-140.81 347.2,-142.08"/>
</a>
</g>
</g>
<!-- Node4&#45;&gt;Node9 -->
<g id="edge17_Node000004_Node000009" class="edge">
<title>Node4&#45;&gt;Node9</title>
<g id="a_edge17_Node000004_Node000009"><a xlink:title=" ">
<path fill="none" stroke="#63b8ff" d="M334.87,-220.75C349.7,-202.86 383.41,-162.22 402.88,-138.75"/>
<polygon fill="#63b8ff" stroke="#63b8ff" points="405.38,-141.22 409.07,-131.29 399.99,-136.75 405.38,-141.22"/>
</a>
</g>
</g>
<!-- Node10 -->
<g id="Node000010" class="node">
<title>Node10</title>
<g id="a_Node000010"><a xlink:title=" ">
<polygon fill="#e0e0e0" stroke="#999999" points="309.12,-19.25 263.88,-19.25 263.88,0 309.12,0 309.12,-19.25"/>
<text text-anchor="middle" x="286.5" y="-5.75" font-family="Helvetica,sans-Serif" font-size="10.00">cstdint</text>
</a>
</g>
</g>
<!-- Node4&#45;&gt;Node10 -->
<g id="edge19_Node000004_Node000010" class="edge">
<title>Node4&#45;&gt;Node10</title>
<g id="a_edge19_Node000004_Node000010"><a xlink:title=" ">
<path fill="none" stroke="#63b8ff" d="M291.28,-226.86C235.74,-220.45 131.1,-199.28 84.5,-129.75 75.1,-115.73 69.86,-77.68 89.5,-55.25 110.57,-31.19 201.6,-18.76 252.22,-13.6"/>
<polygon fill="#63b8ff" stroke="#63b8ff" points="252.44,-17.1 262.05,-12.65 251.76,-10.13 252.44,-17.1"/>
</a>
</g>
</g>
<!-- Node11 -->
<g id="Node000011" class="node">
<title>Node11</title>
<g id="a_Node000011"><a xlink:title=" ">
<polygon fill="#e0e0e0" stroke="#999999" points="489.5,-74.5 449.5,-74.5 449.5,-55.25 489.5,-55.25 489.5,-74.5"/>
<text text-anchor="middle" x="469.5" y="-61" font-family="Helvetica,sans-Serif" font-size="10.00">string</text>
</a>
</g>
</g>
<!-- Node4&#45;&gt;Node11 -->
<g id="edge21_Node000004_Node000011" class="edge">
<title>Node4&#45;&gt;Node11</title>
<g id="a_edge21_Node000004_Node000011"><a xlink:title=" ">
<path fill="none" stroke="#63b8ff" d="M345.09,-220.6C372.48,-205.6 425.05,-172.86 452.5,-129.75 460.91,-116.55 465.18,-99.28 467.34,-86.03"/>
<polygon fill="#63b8ff" stroke="#63b8ff" points="470.78,-86.69 468.63,-76.31 463.84,-85.77 470.78,-86.69"/>
</a>
</g>
</g>
<!-- Node6&#45;&gt;Node5 -->
<g id="edge8_Node000006_Node000005" class="edge">
<title>Node6&#45;&gt;Node5</title>
<g id="a_edge8_Node000006_Node000005"><a xlink:title=" ">
<path fill="none" stroke="#63b8ff" d="M265.48,-165.58C266.97,-158.99 269.06,-149.71 270.95,-141.32"/>
<polygon fill="#63b8ff" stroke="#63b8ff" points="274.36,-142.11 273.14,-131.59 267.53,-140.57 274.36,-142.11"/>
</a>
</g>
</g>
<!-- Node6&#45;&gt;Node7 -->
<g id="edge6_Node000006_Node000007" class="edge">
<title>Node6&#45;&gt;Node7</title>
<g id="a_edge6_Node000006_Node000007"><a xlink:title=" ">
<path fill="none" stroke="#63b8ff" d="M277.75,-165.34C290.3,-157.39 308.83,-145.64 323.64,-136.25"/>
<polygon fill="#63b8ff" stroke="#63b8ff" points="325.33,-139.32 331.9,-131.01 321.58,-133.41 325.33,-139.32"/>
</a>
</g>
</g>
<!-- Node8 -->
<g id="Node000008" class="node">
<title>Node8</title>
<g id="a_Node000008"><a xlink:title=" ">
<polygon fill="#e0e0e0" stroke="#999999" points="229.38,-129.75 179.62,-129.75 179.62,-110.5 229.38,-110.5 229.38,-129.75"/>
<text text-anchor="middle" x="204.5" y="-116.25" font-family="Helvetica,sans-Serif" font-size="10.00">iomanip</text>
</a>
</g>
</g>
<!-- Node6&#45;&gt;Node8 -->
<g id="edge7_Node000006_Node000008" class="edge">
<title>Node6&#45;&gt;Node8</title>
<g id="a_edge7_Node000006_Node000008"><a xlink:title=" ">
<path fill="none" stroke="#63b8ff" d="M253.49,-165.34C245.13,-157.8 233,-146.85 222.9,-137.73"/>
<polygon fill="#63b8ff" stroke="#63b8ff" points="225.25,-135.14 215.48,-131.04 220.56,-140.34 225.25,-135.14"/>
</a>
</g>
</g>
<!-- Node6&#45;&gt;Node9 -->
<g id="edge9_Node000006_Node000009" class="edge">
<title>Node6&#45;&gt;Node9</title>
<g id="a_edge9_Node000006_Node000009"><a xlink:title=" ">
<path fill="none" stroke="#63b8ff" d="M289.62,-165.34C314.62,-156.7 352.58,-143.57 380.65,-133.87"/>
<polygon fill="#63b8ff" stroke="#63b8ff" points="381.51,-137.27 389.82,-130.7 379.22,-130.66 381.51,-137.27"/>
</a>
</g>
</g>
<!-- Node14 -->
<g id="Node000014" class="node">
<title>Node14</title>
<g id="a_Node000014"><a xlink:href="_logging_8hpp.xhtml" target="_top" xlink:title=" ">
<polygon fill="white" stroke="#666666" points="161.75,-129.75 93.25,-129.75 93.25,-110.5 161.75,-110.5 161.75,-129.75"/>
<text text-anchor="middle" x="127.5" y="-116.25" font-family="Helvetica,sans-Serif" font-size="10.00">Logging.hpp</text>
</a>
</g>
</g>
<!-- Node6&#45;&gt;Node14 -->
<g id="edge15_Node000006_Node000014" class="edge">
<title>Node6&#45;&gt;Node14</title>
<g id="a_edge15_Node000006_Node000014"><a xlink:title=" ">
<path fill="none" stroke="#63b8ff" d="M240.43,-165.34C218.74,-156.85 186.02,-144.04 161.37,-134.39"/>
<polygon fill="#63b8ff" stroke="#63b8ff" points="162.68,-131.14 152.09,-130.75 160.13,-137.66 162.68,-131.14"/>
</a>
</g>
</g>
<!-- Node9&#45;&gt;Node10 -->
<g id="edge10_Node000009_Node000010" class="edge">
<title>Node9&#45;&gt;Node10</title>
<g id="a_edge10_Node000009_Node000010"><a xlink:title=" ">
<path fill="none" stroke="#63b8ff" d="M417.38,-110.1C416.72,-96.53 413.56,-70.81 399.5,-55.25 379.12,-32.69 345.85,-21.38 320.68,-15.81"/>
<polygon fill="#63b8ff" stroke="#63b8ff" points="321.39,-12.39 310.9,-13.87 320.03,-19.25 321.39,-12.39"/>
</a>
</g>
</g>
<!-- Node9&#45;&gt;Node11 -->
<g id="edge11_Node000009_Node000011" class="edge">
<title>Node9&#45;&gt;Node11</title>
<g id="a_edge11_Node000009_Node000011"><a xlink:title=" ">
<path fill="none" stroke="#63b8ff" d="M426.09,-110.33C433.34,-102.9 443.95,-92.04 452.87,-82.91"/>
<polygon fill="#63b8ff" stroke="#63b8ff" points="455.19,-85.54 459.67,-75.94 450.18,-80.65 455.19,-85.54"/>
</a>
</g>
</g>
<!-- Node12 -->
<g id="Node000012" class="node">
<title>Node12</title>
<g id="a_Node000012"><a xlink:title=" ">
<polygon fill="#e0e0e0" stroke="#999999" points="390.12,-74.5 344.88,-74.5 344.88,-55.25 390.12,-55.25 390.12,-74.5"/>
<text text-anchor="middle" x="367.5" y="-61" font-family="Helvetica,sans-Serif" font-size="10.00">chrono</text>
</a>
</g>
</g>
<!-- Node9&#45;&gt;Node12 -->
<g id="edge12_Node000009_Node000012" class="edge">
<title>Node9&#45;&gt;Node12</title>
<g id="a_edge12_Node000009_Node000012"><a xlink:title=" ">
<path fill="none" stroke="#63b8ff" d="M409.24,-110.33C402.34,-102.98 392.28,-92.26 383.76,-83.19"/>
<polygon fill="#63b8ff" stroke="#63b8ff" points="386.37,-80.86 376.97,-75.96 381.27,-85.65 386.37,-80.86"/>
</a>
</g>
</g>
<!-- Node13 -->
<g id="Node000013" class="node">
<title>Node13</title>
<g id="a_Node000013"><a xlink:href="_machine_i_d_8hpp.xhtml" target="_top" xlink:title=" ">
<polygon fill="white" stroke="#666666" points="326.75,-74.5 246.25,-74.5 246.25,-55.25 326.75,-55.25 326.75,-74.5"/>
<text text-anchor="middle" x="286.5" y="-61" font-family="Helvetica,sans-Serif" font-size="10.00">MachineID.hpp</text>
</a>
</g>
</g>
<!-- Node9&#45;&gt;Node13 -->
<g id="edge13_Node000009_Node000013" class="edge">
<title>Node9&#45;&gt;Node13</title>
<g id="a_edge13_Node000009_Node000013"><a xlink:title=" ">
<path fill="none" stroke="#63b8ff" d="M395.28,-110.09C374.48,-101.64 343.15,-88.9 319.45,-79.27"/>
<polygon fill="#63b8ff" stroke="#63b8ff" points="320.82,-76.05 310.23,-75.52 318.18,-82.53 320.82,-76.05"/>
</a>
</g>
</g>
<!-- Node13&#45;&gt;Node10 -->
<g id="edge14_Node000013_Node000010" class="edge">
<title>Node13&#45;&gt;Node10</title>
<g id="a_edge14_Node000013_Node000010"><a xlink:title=" ">
<path fill="none" stroke="#63b8ff" d="M286.5,-55.08C286.5,-48.57 286.5,-39.42 286.5,-31.12"/>
<polygon fill="#63b8ff" stroke="#63b8ff" points="290,-31.12 286.5,-21.12 283,-31.12 290,-31.12"/>
</a>
</g>
</g>
<!-- Node15 -->
<g id="Node000015" class="node">
<title>Node15</title>
<g id="a_Node000015"><a xlink:title=" ">
<polygon fill="#e0e0e0" stroke="#999999" points="156.12,-74.5 98.88,-74.5 98.88,-55.25 156.12,-55.25 156.12,-74.5"/>
<text text-anchor="middle" x="127.5" y="-61" font-family="Helvetica,sans-Serif" font-size="10.00">esp_log.h</text>
</a>
</g>
</g>
<!-- Node14&#45;&gt;Node15 -->
<g id="edge16_Node000014_Node000015" class="edge">
<title>Node14&#45;&gt;Node15</title>
<g id="a_edge16_Node000014_Node000015"><a xlink:title=" ">
<path fill="none" stroke="#63b8ff" d="M127.5,-110.33C127.5,-103.82 127.5,-94.67 127.5,-86.37"/>
<polygon fill="#63b8ff" stroke="#63b8ff" points="131,-86.37 127.5,-76.37 124,-86.37 131,-86.37"/>
</a>
</g>
</g>
</g>
</svg>
