<?xml version="1.0" encoding="UTF-8" standalone="no"?>
<!DOCTYPE svg PUBLIC "-//W3C//DTD SVG 1.1//EN"
 "http://www.w3.org/Graphics/SVG/1.1/DTD/svg11.dtd">
<!-- Generated by graphviz version 9.0.0 (20230911.1827)
 -->
<!-- Title: CachedCards.hpp Pages: 1 -->
<!--zoomable 304 -->

<svg id="main" version="1.1" xmlns="http://www.w3.org/2000/svg" xmlns:xlink="http://www.w3.org/1999/xlink" xml:space="preserve" onload="init(evt)">
<style type="text/css"><![CDATA[
.node, .edge {opacity: 0.7;}
.node.selected, .edge.selected {opacity: 1;}
.edge:hover path { stroke: red; }
.edge:hover polygon { stroke: red; fill: red; }
]]></style>

<defs>
  <circle id="rim" cx="0" cy="0" r="7"/>
  <circle id="rim2" cx="0" cy="0" r="3.5"/>
  <g id="zoomPlus">
    <use xlink:href="#rim" fill="#404040"><set attributeName="fill" to="#808080" begin="zoomplus.mouseover" end="zoomplus.mouseout"/></use>
    <path d="M-4,0h8M0,-4v8" fill="none" stroke="white" stroke-width="1.5" pointer-events="none"/>
  </g>
  <g id="zoomMin">
    <use xlink:href="#rim" fill="#404040"><set attributeName="fill" to="#808080" begin="zoomminus.mouseover" end="zoomminus.mouseout"/></use>
    <path d="M-4,0h8" fill="none" stroke="white" stroke-width="1.5" pointer-events="none"/>
  </g>
  <g id="arrowUp" transform="translate(30 24)">
    <use xlink:href="#rim"/>
    <path pointer-events="none" fill="none" stroke="white" stroke-width="1.5" d="M0,-3.0v7 M-2.5,-0.5L0,-3.0L2.5,-0.5"/>
  </g>
  <g id="arrowRight" transform="rotate(90) translate(36 -43)">
    <use xlink:href="#rim"/>
    <path pointer-events="none" fill="none" stroke="white" stroke-width="1.5" d="M0,-3.0v7 M-2.5,-0.5L0,-3.0L2.5,-0.5"/>
  </g>
  <g id="arrowDown" transform="rotate(180) translate(-30 -48)">
    <use xlink:href="#rim"/>
    <path pointer-events="none" fill="none" stroke="white" stroke-width="1.5" d="M0,-3.0v7 M-2.5,-0.5L0,-3.0L2.5,-0.5"/>
  </g>
  <g id="arrowLeft" transform="rotate(270) translate(-36 17)">
    <use xlink:href="#rim"/>
    <path pointer-events="none" fill="none" stroke="white" stroke-width="1.5" d="M0,-3.0v7 M-2.5,-0.5L0,-3.0L2.5,-0.5"/>
  </g>
  <g id="resetDef">
    <use xlink:href="#rim2" fill="#404040"><set attributeName="fill" to="#808080" begin="reset.mouseover" end="reset.mouseout"/></use>
  </g>
</defs>
<script type="application/ecmascript">
var viewWidth = 876;
var viewHeight = 304;
var sectionId = 'dynsection-1';
</script>
<script type="application/ecmascript" xlink:href="svg.min.js"/>
<svg id="graph" class="graph">
<g id="viewport">
<title>CachedCards.hpp</title>
<!-- Node1 -->
<g id="Node000001" class="node">
<title>Node1</title>
<g id="a_Node000001"><a xlink:title=" ">
<polygon fill="#999999" stroke="#666666" points="505.57,-295.5 413.07,-295.5 413.07,-276.25 505.57,-276.25 505.57,-295.5"/>
<text text-anchor="middle" x="459.32" y="-282" font-family="Helvetica,sans-Serif" font-size="10.00">CachedCards.hpp</text>
</a>
</g>
</g>
<!-- Node2 -->
<g id="Node000002" class="node">
<title>Node2</title>
<g id="a_Node000002"><a xlink:href="_auth_provider_8hpp.xhtml" target="_top" xlink:title=" ">
<polygon fill="white" stroke="#666666" points="259.45,-185 169.2,-185 169.2,-165.75 259.45,-165.75 259.45,-185"/>
<text text-anchor="middle" x="214.32" y="-171.5" font-family="Helvetica,sans-Serif" font-size="10.00">AuthProvider.hpp</text>
</a>
</g>
</g>
<!-- Node1&#45;&gt;Node2 -->
<g id="edge1_Node000001_Node000002" class="edge">
<title>Node1&#45;&gt;Node2</title>
<g id="a_edge1_Node000001_Node000002"><a xlink:title=" ">
<path fill="none" stroke="#63b8ff" d="M428.52,-271.23C377.78,-248.77 277.97,-204.56 234.9,-185.49"/>
<polygon fill="#63b8ff" stroke="#63b8ff" points="426.91,-274.35 437.47,-275.2 429.74,-267.95 426.91,-274.35"/>
</a>
</g>
</g>
<!-- Node14 -->
<g id="Node000014" class="node">
<title>Node14</title>
<g id="a_Node000014"><a xlink:href="_saved_config_8hpp.xhtml" target="_top" xlink:title=" ">
<polygon fill="white" stroke="#666666" points="663.7,-240.25 574.95,-240.25 574.95,-221 663.7,-221 663.7,-240.25"/>
<text text-anchor="middle" x="619.32" y="-226.75" font-family="Helvetica,sans-Serif" font-size="10.00">SavedConfig.hpp</text>
</a>
</g>
</g>
<!-- Node1&#45;&gt;Node14 -->
<g id="edge19_Node000001_Node000014" class="edge">
<title>Node1&#45;&gt;Node14</title>
<g id="a_edge19_Node000001_Node000014"><a xlink:title=" ">
<path fill="none" stroke="#63b8ff" d="M497.08,-272.31C526.24,-262.6 565.91,-249.4 592.05,-240.7"/>
<polygon fill="#63b8ff" stroke="#63b8ff" points="496.28,-268.89 487.9,-275.36 498.49,-275.53 496.28,-268.89"/>
</a>
</g>
</g>
<!-- Node3 -->
<g id="Node000003" class="node">
<title>Node3</title>
<g id="a_Node000003"><a xlink:href="_auth_provider_8cpp.xhtml" target="_top" xlink:title=" ">
<polygon fill="white" stroke="#666666" points="443.45,-129.75 353.2,-129.75 353.2,-110.5 443.45,-110.5 443.45,-129.75"/>
<text text-anchor="middle" x="398.32" y="-116.25" font-family="Helvetica,sans-Serif" font-size="10.00">AuthProvider.cpp</text>
</a>
</g>
</g>
<!-- Node2&#45;&gt;Node3 -->
<g id="edge2_Node000002_Node000003" class="edge">
<title>Node2&#45;&gt;Node3</title>
<g id="a_edge2_Node000002_Node000003"><a xlink:title=" ">
<path fill="none" stroke="#63b8ff" d="M256.42,-162.19C290.07,-152.45 336.5,-139.02 366.96,-130.2"/>
<polygon fill="#63b8ff" stroke="#63b8ff" points="255.62,-158.78 246.99,-164.92 257.57,-165.5 255.62,-158.78"/>
</a>
</g>
</g>
<!-- Node4 -->
<g id="Node000004" class="node">
<title>Node4</title>
<g id="a_Node000004"><a xlink:href="_board_logic_8cpp.xhtml" target="_top" xlink:title=" ">
<polygon fill="white" stroke="#666666" points="590.07,-74.5 506.57,-74.5 506.57,-55.25 590.07,-55.25 590.07,-74.5"/>
<text text-anchor="middle" x="548.32" y="-61" font-family="Helvetica,sans-Serif" font-size="10.00">BoardLogic.cpp</text>
</a>
</g>
</g>
<!-- Node2&#45;&gt;Node4 -->
<g id="edge3_Node000002_Node000004" class="edge">
<title>Node2&#45;&gt;Node4</title>
<g id="a_edge3_Node000002_Node000004"><a xlink:title=" ">
<path fill="none" stroke="#63b8ff" d="M239.37,-159.8C264.99,-145.44 306.31,-123.78 344.32,-110.5 373.76,-100.22 455.73,-83.61 506.35,-73.82"/>
<polygon fill="#63b8ff" stroke="#63b8ff" points="237.69,-156.73 230.72,-164.71 241.15,-162.81 237.69,-156.73"/>
</a>
</g>
</g>
<!-- Node5 -->
<g id="Node000005" class="node">
<title>Node5</title>
<g id="a_Node000005"><a xlink:href="_board_logic_8hpp.xhtml" target="_top" xlink:title=" ">
<polygon fill="white" stroke="#666666" points="221.07,-129.75 137.57,-129.75 137.57,-110.5 221.07,-110.5 221.07,-129.75"/>
<text text-anchor="middle" x="179.32" y="-116.25" font-family="Helvetica,sans-Serif" font-size="10.00">BoardLogic.hpp</text>
</a>
</g>
</g>
<!-- Node2&#45;&gt;Node5 -->
<g id="edge4_Node000002_Node000005" class="edge">
<title>Node2&#45;&gt;Node5</title>
<g id="a_edge4_Node000002_Node000005"><a xlink:title=" ">
<path fill="none" stroke="#63b8ff" d="M202.35,-156.15C196.57,-147.36 189.9,-137.21 185.23,-130.11"/>
<polygon fill="#63b8ff" stroke="#63b8ff" points="199.29,-157.88 207.71,-164.32 205.14,-154.04 199.29,-157.88"/>
</a>
</g>
</g>
<!-- Node7 -->
<g id="Node000007" class="node">
<title>Node7</title>
<g id="a_Node000007"><a xlink:href="globals_8hpp.xhtml" target="_top" xlink:title=" ">
<polygon fill="white" stroke="#666666" points="75.7,-74.5 10.95,-74.5 10.95,-55.25 75.7,-55.25 75.7,-74.5"/>
<text text-anchor="middle" x="43.32" y="-61" font-family="Helvetica,sans-Serif" font-size="10.00">globals.hpp</text>
</a>
</g>
</g>
<!-- Node2&#45;&gt;Node7 -->
<g id="edge17_Node000002_Node000007" class="edge">
<title>Node2&#45;&gt;Node7</title>
<g id="a_edge17_Node000002_Node000007"><a xlink:title=" ">
<path fill="none" stroke="#63b8ff" d="M164.07,-162C141.67,-154.92 115.78,-144.46 95.32,-129.75 74.19,-114.56 56.82,-88.68 48.55,-74.99"/>
<polygon fill="#63b8ff" stroke="#63b8ff" points="163.05,-165.35 173.64,-164.87 165.06,-158.65 163.05,-165.35"/>
</a>
</g>
</g>
<!-- Node13 -->
<g id="Node000013" class="node">
<title>Node13</title>
<g id="a_Node000013"><a xlink:href="test__savedconfig_8cpp.xhtml" target="_top" xlink:title=" ">
<polygon fill="white" stroke="#666666" points="488.07,-74.5 380.57,-74.5 380.57,-55.25 488.07,-55.25 488.07,-74.5"/>
<text text-anchor="middle" x="434.32" y="-61" font-family="Helvetica,sans-Serif" font-size="10.00">test_savedconfig.cpp</text>
</a>
</g>
</g>
<!-- Node2&#45;&gt;Node13 -->
<g id="edge18_Node000002_Node000013" class="edge">
<title>Node2&#45;&gt;Node13</title>
<g id="a_edge18_Node000002_Node000013"><a xlink:title=" ">
<path fill="none" stroke="#63b8ff" d="M226.46,-156.51C237.17,-142.06 254.05,-122.25 273.32,-110.5 305.88,-90.64 347.47,-79.41 380.23,-73.18"/>
<polygon fill="#63b8ff" stroke="#63b8ff" points="223.89,-154.08 220.95,-164.26 229.59,-158.14 223.89,-154.08"/>
</a>
</g>
</g>
<!-- Node5&#45;&gt;Node4 -->
<g id="edge5_Node000005_Node000004" class="edge">
<title>Node5&#45;&gt;Node4</title>
<g id="a_edge5_Node000005_Node000004"><a xlink:title=" ">
<path fill="none" stroke="#63b8ff" d="M232.83,-112.08C296.08,-103.65 404.48,-88.86 497.32,-74.5 500.25,-74.05 503.27,-73.57 506.31,-73.08"/>
<polygon fill="#63b8ff" stroke="#63b8ff" points="232.51,-108.6 223.06,-113.38 233.43,-115.53 232.51,-108.6"/>
</a>
</g>
</g>
<!-- Node6 -->
<g id="Node000006" class="node">
<title>Node6</title>
<g id="a_Node000006"><a xlink:href="_o_t_a_8cpp.xhtml" target="_top" xlink:title=" ">
<polygon fill="white" stroke="#666666" points="324.45,-74.5 270.2,-74.5 270.2,-55.25 324.45,-55.25 324.45,-74.5"/>
<text text-anchor="middle" x="297.32" y="-61" font-family="Helvetica,sans-Serif" font-size="10.00">OTA.cpp</text>
</a>
</g>
</g>
<!-- Node5&#45;&gt;Node6 -->
<g id="edge6_Node000005_Node000006" class="edge">
<title>Node5&#45;&gt;Node6</title>
<g id="a_edge6_Node000005_Node000006"><a xlink:title=" ">
<path fill="none" stroke="#63b8ff" d="M209.76,-105.39C230.98,-95.81 258.7,-83.31 277.21,-74.95"/>
<polygon fill="#63b8ff" stroke="#63b8ff" points="208.39,-102.17 200.72,-109.47 211.27,-108.55 208.39,-102.17"/>
</a>
</g>
</g>
<!-- Node5&#45;&gt;Node7 -->
<g id="edge7_Node000005_Node000007" class="edge">
<title>Node5&#45;&gt;Node7</title>
<g id="a_edge7_Node000005_Node000007"><a xlink:title=" ">
<path fill="none" stroke="#63b8ff" d="M145.58,-105.91C120.96,-96.27 88.23,-83.46 66.51,-74.95"/>
<polygon fill="#63b8ff" stroke="#63b8ff" points="144.25,-109.15 154.84,-109.54 146.81,-102.63 144.25,-109.15"/>
</a>
</g>
</g>
<!-- Node8 -->
<g id="Node000008" class="node">
<title>Node8</title>
<g id="a_Node000008"><a xlink:href="main_8cpp.xhtml" target="_top" xlink:title=" ">
<polygon fill="white" stroke="#666666" points="70.82,-19.25 15.82,-19.25 15.82,0 70.82,0 70.82,-19.25"/>
<text text-anchor="middle" x="43.32" y="-5.75" font-family="Helvetica,sans-Serif" font-size="10.00">main.cpp</text>
</a>
</g>
</g>
<!-- Node5&#45;&gt;Node8 -->
<g id="edge9_Node000005_Node000008" class="edge">
<title>Node5&#45;&gt;Node8</title>
<g id="a_edge9_Node000005_Node000008"><a xlink:title=" ">
<path fill="none" stroke="#63b8ff" d="M159.36,-103.2C130.39,-80.09 77.65,-38.01 54.61,-19.63"/>
<polygon fill="#63b8ff" stroke="#63b8ff" points="157.01,-105.8 167.01,-109.3 161.37,-100.33 157.01,-105.8"/>
</a>
</g>
</g>
<!-- Node9 -->
<g id="Node000009" class="node">
<title>Node9</title>
<g id="a_Node000009"><a xlink:href="test__common_8cpp.xhtml" target="_top" xlink:title=" ">
<polygon fill="white" stroke="#666666" points="221.95,-19.25 128.7,-19.25 128.7,0 221.95,0 221.95,-19.25"/>
<text text-anchor="middle" x="175.32" y="-5.75" font-family="Helvetica,sans-Serif" font-size="10.00">test_common.cpp</text>
</a>
</g>
</g>
<!-- Node5&#45;&gt;Node9 -->
<g id="edge10_Node000005_Node000009" class="edge">
<title>Node5&#45;&gt;Node9</title>
<g id="a_edge10_Node000005_Node000009"><a xlink:title=" ">
<path fill="none" stroke="#63b8ff" d="M169.25,-100.16C165.68,-92.43 162.11,-83.26 160.32,-74.5 156.31,-54.86 164.91,-32.03 170.67,-19.68"/>
<polygon fill="#63b8ff" stroke="#63b8ff" points="166.01,-101.5 173.6,-108.89 172.27,-98.38 166.01,-101.5"/>
</a>
</g>
</g>
<!-- Node10 -->
<g id="Node000010" class="node">
<title>Node10</title>
<g id="a_Node000010"><a xlink:href="test__common_8h.xhtml" target="_top" xlink:title=" ">
<polygon fill="white" stroke="#666666" points="251.7,-74.5 168.95,-74.5 168.95,-55.25 251.7,-55.25 251.7,-74.5"/>
<text text-anchor="middle" x="210.32" y="-61" font-family="Helvetica,sans-Serif" font-size="10.00">test_common.h</text>
</a>
</g>
</g>
<!-- Node5&#45;&gt;Node10 -->
<g id="edge11_Node000005_Node000010" class="edge">
<title>Node5&#45;&gt;Node10</title>
<g id="a_edge11_Node000005_Node000010"><a xlink:title=" ">
<path fill="none" stroke="#63b8ff" d="M190.1,-100.62C195.17,-91.89 201,-81.89 205.09,-74.86"/>
<polygon fill="#63b8ff" stroke="#63b8ff" points="187.21,-98.62 185.2,-109.02 193.26,-102.14 187.21,-98.62"/>
</a>
</g>
</g>
<!-- Node11 -->
<g id="Node000011" class="node">
<title>Node11</title>
<g id="a_Node000011"><a xlink:href="test__logic_8cpp.xhtml" target="_top" xlink:title=" ">
<polygon fill="white" stroke="#666666" points="569.32,-19.25 493.32,-19.25 493.32,0 569.32,0 569.32,-19.25"/>
<text text-anchor="middle" x="531.32" y="-5.75" font-family="Helvetica,sans-Serif" font-size="10.00">test_logic.cpp</text>
</a>
</g>
</g>
<!-- Node5&#45;&gt;Node11 -->
<g id="edge14_Node000005_Node000011" class="edge">
<title>Node5&#45;&gt;Node11</title>
<g id="a_edge14_Node000005_Node000011"><a xlink:title=" ">
<path fill="none" stroke="#63b8ff" d="M228.78,-107.31C259.38,-99.39 299.19,-87.96 333.32,-74.5 350.94,-67.56 353.67,-62.1 371.32,-55.25 411.91,-39.49 460.29,-26.79 493.14,-19.03"/>
<polygon fill="#63b8ff" stroke="#63b8ff" points="228.25,-103.83 219.42,-109.69 229.98,-110.62 228.25,-103.83"/>
</a>
</g>
</g>
<!-- Node12 -->
<g id="Node000012" class="node">
<title>Node12</title>
<g id="a_Node000012"><a xlink:href="test__mqtt_8cpp.xhtml" target="_top" xlink:title=" ">
<polygon fill="white" stroke="#666666" points="682.95,-74.5 607.7,-74.5 607.7,-55.25 682.95,-55.25 682.95,-74.5"/>
<text text-anchor="middle" x="645.32" y="-61" font-family="Helvetica,sans-Serif" font-size="10.00">test_mqtt.cpp</text>
</a>
</g>
</g>
<!-- Node5&#45;&gt;Node12 -->
<g id="edge15_Node000005_Node000012" class="edge">
<title>Node5&#45;&gt;Node12</title>
<g id="a_edge15_Node000005_Node000012"><a xlink:title=" ">
<path fill="none" stroke="#63b8ff" d="M232.72,-114.82C312.67,-108.07 468.11,-93.74 599.32,-74.5 601.89,-74.12 604.54,-73.71 607.21,-73.26"/>
<polygon fill="#63b8ff" stroke="#63b8ff" points="232.67,-111.31 223,-115.64 233.25,-118.29 232.67,-111.31"/>
</a>
</g>
</g>
<!-- Node5&#45;&gt;Node13 -->
<g id="edge16_Node000005_Node000013" class="edge">
<title>Node5&#45;&gt;Node13</title>
<g id="a_edge16_Node000005_Node000013"><a xlink:title=" ">
<path fill="none" stroke="#63b8ff" d="M232.6,-108C279.56,-98.19 347.12,-84.08 390.87,-74.95"/>
<polygon fill="#63b8ff" stroke="#63b8ff" points="231.98,-104.55 222.91,-110.02 233.42,-111.4 231.98,-104.55"/>
</a>
</g>
</g>
<!-- Node7&#45;&gt;Node8 -->
<g id="edge8_Node000007_Node000008" class="edge">
<title>Node7&#45;&gt;Node8</title>
<g id="a_edge8_Node000007_Node000008"><a xlink:title=" ">
<path fill="none" stroke="#63b8ff" d="M43.32,-43.63C43.32,-35.34 43.32,-26.17 43.32,-19.61"/>
<polygon fill="#63b8ff" stroke="#63b8ff" points="39.82,-43.57 43.32,-53.57 46.82,-43.57 39.82,-43.57"/>
</a>
</g>
</g>
<!-- Node10&#45;&gt;Node9 -->
<g id="edge12_Node000010_Node000009" class="edge">
<title>Node10&#45;&gt;Node9</title>
<g id="a_edge12_Node000010_Node000009"><a xlink:title=" ">
<path fill="none" stroke="#63b8ff" d="M198.35,-45.65C192.57,-36.86 185.9,-26.71 181.23,-19.61"/>
<polygon fill="#63b8ff" stroke="#63b8ff" points="195.29,-47.38 203.71,-53.82 201.14,-43.54 195.29,-47.38"/>
</a>
</g>
</g>
<!-- Node10&#45;&gt;Node11 -->
<g id="edge13_Node000010_Node000011" class="edge">
<title>Node10&#45;&gt;Node11</title>
<g id="a_edge13_Node000010_Node000011"><a xlink:title=" ">
<path fill="none" stroke="#63b8ff" d="M263.38,-54.91C351.65,-40.17 442.63,-25.19 492.86,-16.94"/>
<polygon fill="#63b8ff" stroke="#63b8ff" points="262.85,-51.45 253.56,-56.55 264,-58.36 262.85,-51.45"/>
</a>
</g>
</g>
<!-- Node14&#45;&gt;Node4 -->
<g id="edge20_Node000014_Node000004" class="edge">
<title>Node14&#45;&gt;Node4</title>
<g id="a_edge20_Node000014_Node000004"><a xlink:title=" ">
<path fill="none" stroke="#63b8ff" d="M621.15,-209.65C621.79,-196.92 621.66,-180.17 618.32,-165.75 612.19,-139.31 607.85,-132.76 592.32,-110.5 582.74,-96.76 568.76,-83.4 559.15,-74.94"/>
<polygon fill="#63b8ff" stroke="#63b8ff" points="617.68,-209.07 620.45,-219.3 624.67,-209.58 617.68,-209.07"/>
</a>
</g>
</g>
<!-- Node14&#45;&gt;Node7 -->
<g id="edge33_Node000014_Node000007" class="edge">
<title>Node14&#45;&gt;Node7</title>
<g id="a_edge33_Node000014_Node000007"><a xlink:title=" ">
<path fill="none" stroke="#63b8ff" d="M563.33,-227.37C457.82,-222.58 233.6,-209.79 160.32,-185 116.22,-170.08 101.82,-164.93 71.32,-129.75 56.89,-113.1 48.83,-87.84 45.37,-74.63"/>
<polygon fill="#63b8ff" stroke="#63b8ff" points="563.02,-230.85 573.16,-227.8 563.33,-223.86 563.02,-230.85"/>
</a>
</g>
</g>
<!-- Node14&#45;&gt;Node8 -->
<g id="edge34_Node000014_Node000008" class="edge">
<title>Node14&#45;&gt;Node8</title>
<g id="a_edge34_Node000014_Node000008"><a xlink:title=" ">
<path fill="none" stroke="#63b8ff" d="M563.44,-229.59C448.07,-228.73 187.7,-222.56 108.32,-185 46.81,-155.89 27.41,-137.76 2.32,-74.5 -6.08,-53.31 15.6,-31.59 30.54,-19.73"/>
<polygon fill="#63b8ff" stroke="#63b8ff" points="563.26,-233.09 573.29,-229.65 563.31,-226.09 563.26,-233.09"/>
</a>
</g>
</g>
<!-- Node14&#45;&gt;Node11 -->
<g id="edge35_Node000014_Node000011" class="edge">
<title>Node14&#45;&gt;Node11</title>
<g id="a_edge35_Node000014_Node000011"><a xlink:title=" ">
<path fill="none" stroke="#63b8ff" d="M675.43,-226.79C737,-222.37 830.08,-211.42 852.32,-185 873.65,-159.67 872.08,-137.79 853.32,-110.5 820.66,-62.99 647.59,-29.46 569.54,-16.52"/>
<polygon fill="#63b8ff" stroke="#63b8ff" points="675.2,-223.3 665.46,-227.46 675.67,-230.28 675.2,-223.3"/>
</a>
</g>
</g>
<!-- Node14&#45;&gt;Node12 -->
<g id="edge36_Node000014_Node000012" class="edge">
<title>Node14&#45;&gt;Node12</title>
<g id="a_edge36_Node000014_Node000012"><a xlink:title=" ">
<path fill="none" stroke="#63b8ff" d="M642.33,-214.61C664.3,-200.7 698.67,-180.07 730.32,-165.75 775.65,-145.25 807.34,-170.19 836.32,-129.75 875.27,-75.39 749.42,-66.6 683.27,-65.63"/>
<polygon fill="#63b8ff" stroke="#63b8ff" points="640.69,-211.5 634.15,-219.84 644.46,-217.4 640.69,-211.5"/>
</a>
</g>
</g>
<!-- Node14&#45;&gt;Node13 -->
<g id="edge37_Node000014_Node000013" class="edge">
<title>Node14&#45;&gt;Node13</title>
<g id="a_edge37_Node000014_Node000013"><a xlink:title=" ">
<path fill="none" stroke="#63b8ff" d="M563.35,-227.28C498.35,-221.2 393.75,-200.29 344.32,-129.75 326.4,-104.17 367.79,-85.27 400.22,-74.91"/>
<polygon fill="#63b8ff" stroke="#63b8ff" points="562.84,-230.75 573.1,-228.1 563.43,-223.77 562.84,-230.75"/>
</a>
</g>
</g>
<!-- Node15 -->
<g id="Node000015" class="node">
<title>Node15</title>
<g id="a_Node000015"><a xlink:href="_fab_backend_8cpp.xhtml" target="_top" xlink:title=" ">
<polygon fill="white" stroke="#666666" points="827.7,-129.75 738.95,-129.75 738.95,-110.5 827.7,-110.5 827.7,-129.75"/>
<text text-anchor="middle" x="783.32" y="-116.25" font-family="Helvetica,sans-Serif" font-size="10.00">FabBackend.cpp</text>
</a>
</g>
</g>
<!-- Node14&#45;&gt;Node15 -->
<g id="edge21_Node000014_Node000015" class="edge">
<title>Node14&#45;&gt;Node15</title>
<g id="a_edge21_Node000014_Node000015"><a xlink:title=" ">
<path fill="none" stroke="#63b8ff" d="M675.34,-225.97C732.75,-220.91 816.37,-209.47 836.32,-185 852.35,-165.34 821.29,-142.52 800.31,-130.18"/>
<polygon fill="#63b8ff" stroke="#63b8ff" points="675.06,-222.48 665.38,-226.8 675.64,-229.45 675.06,-222.48"/>
</a>
</g>
</g>
<!-- Node16 -->
<g id="Node000016" class="node">
<title>Node16</title>
<g id="a_Node000016"><a xlink:href="_fab_backend_8hpp.xhtml" target="_top" xlink:title=" ">
<polygon fill="white" stroke="#666666" points="609.7,-185 520.95,-185 520.95,-165.75 609.7,-165.75 609.7,-185"/>
<text text-anchor="middle" x="565.32" y="-171.5" font-family="Helvetica,sans-Serif" font-size="10.00">FabBackend.hpp</text>
</a>
</g>
</g>
<!-- Node14&#45;&gt;Node16 -->
<g id="edge22_Node000014_Node000016" class="edge">
<title>Node14&#45;&gt;Node16</title>
<g id="a_edge22_Node000014_Node000016"><a xlink:title=" ">
<path fill="none" stroke="#63b8ff" d="M602.28,-212.82C593.06,-203.73 582.03,-192.85 574.43,-185.36"/>
<polygon fill="#63b8ff" stroke="#63b8ff" points="599.75,-215.24 609.33,-219.77 604.66,-210.26 599.75,-215.24"/>
</a>
</g>
</g>
<!-- Node18 -->
<g id="Node000018" class="node">
<title>Node18</title>
<g id="a_Node000018"><a xlink:href="_saved_config_8cpp.xhtml" target="_top" xlink:title=" ">
<polygon fill="white" stroke="#666666" points="827.7,-185 738.95,-185 738.95,-165.75 827.7,-165.75 827.7,-185"/>
<text text-anchor="middle" x="783.32" y="-171.5" font-family="Helvetica,sans-Serif" font-size="10.00">SavedConfig.cpp</text>
</a>
</g>
</g>
<!-- Node14&#45;&gt;Node18 -->
<g id="edge32_Node000014_Node000018" class="edge">
<title>Node14&#45;&gt;Node18</title>
<g id="a_edge32_Node000014_Node000018"><a xlink:title=" ">
<path fill="none" stroke="#63b8ff" d="M658.02,-217.06C687.92,-207.35 728.58,-194.15 755.36,-185.45"/>
<polygon fill="#63b8ff" stroke="#63b8ff" points="657.01,-213.71 648.58,-220.12 659.17,-220.37 657.01,-213.71"/>
</a>
</g>
</g>
<!-- Node16&#45;&gt;Node3 -->
<g id="edge23_Node000016_Node000003" class="edge">
<title>Node16&#45;&gt;Node3</title>
<g id="a_edge23_Node000016_Node000003"><a xlink:title=" ">
<path fill="none" stroke="#63b8ff" d="M526.32,-161.94C495.84,-152.22 454.19,-138.94 426.79,-130.2"/>
<polygon fill="#63b8ff" stroke="#63b8ff" points="524.96,-165.18 535.55,-164.88 527.09,-158.51 524.96,-165.18"/>
</a>
</g>
</g>
<!-- Node16&#45;&gt;Node4 -->
<g id="edge24_Node000016_Node000004" class="edge">
<title>Node16&#45;&gt;Node4</title>
<g id="a_edge24_Node000016_Node000004"><a xlink:title=" ">
<path fill="none" stroke="#63b8ff" d="M574.14,-155.21C578.84,-142.4 582.82,-125.25 578.32,-110.5 574.13,-96.75 564.12,-83.39 556.82,-74.93"/>
<polygon fill="#63b8ff" stroke="#63b8ff" points="571.03,-153.59 570.42,-164.17 577.49,-156.27 571.03,-153.59"/>
</a>
</g>
</g>
<!-- Node16&#45;&gt;Node5 -->
<g id="edge25_Node000016_Node000005" class="edge">
<title>Node16&#45;&gt;Node5</title>
<g id="a_edge25_Node000016_Node000005"><a xlink:title=" ">
<path fill="none" stroke="#63b8ff" d="M509.62,-166.69C431.6,-155.93 291.51,-136.6 221.52,-126.95"/>
<polygon fill="#63b8ff" stroke="#63b8ff" points="508.78,-170.11 519.17,-168.01 509.74,-163.17 508.78,-170.11"/>
</a>
</g>
</g>
<!-- Node16&#45;&gt;Node7 -->
<g id="edge28_Node000016_Node000007" class="edge">
<title>Node16&#45;&gt;Node7</title>
<g id="a_edge28_Node000016_Node000007"><a xlink:title=" ">
<path fill="none" stroke="#63b8ff" d="M509.21,-172.38C407.37,-168.15 196.36,-156.38 128.32,-129.75 111.91,-123.32 72.67,-90.93 53.8,-74.89"/>
<polygon fill="#63b8ff" stroke="#63b8ff" points="508.84,-175.87 518.97,-172.78 509.12,-168.87 508.84,-175.87"/>
</a>
</g>
</g>
<!-- Node16&#45;&gt;Node11 -->
<g id="edge29_Node000016_Node000011" class="edge">
<title>Node16&#45;&gt;Node11</title>
<g id="a_edge29_Node000016_Node000011"><a xlink:title=" ">
<path fill="none" stroke="#63b8ff" d="M599.94,-161.01C648,-140.45 725.5,-98.87 692.32,-55.25 677.53,-35.8 612.46,-22.62 569.71,-15.88"/>
<polygon fill="#63b8ff" stroke="#63b8ff" points="598.89,-157.65 590.99,-164.72 601.57,-164.12 598.89,-157.65"/>
</a>
</g>
</g>
<!-- Node16&#45;&gt;Node12 -->
<g id="edge30_Node000016_Node000012" class="edge">
<title>Node16&#45;&gt;Node12</title>
<g id="a_edge30_Node000016_Node000012"><a xlink:title=" ">
<path fill="none" stroke="#63b8ff" d="M578.66,-156.29C595.98,-132.8 625.54,-92.7 638.68,-74.88"/>
<polygon fill="#63b8ff" stroke="#63b8ff" points="575.88,-154.15 572.77,-164.28 581.52,-158.31 575.88,-154.15"/>
</a>
</g>
</g>
<!-- Node16&#45;&gt;Node13 -->
<g id="edge31_Node000016_Node000013" class="edge">
<title>Node16&#45;&gt;Node13</title>
<g id="a_edge31_Node000016_Node000013"><a xlink:title=" ">
<path fill="none" stroke="#63b8ff" d="M536.69,-160.12C522.09,-152.17 504.48,-141.52 490.32,-129.75 469.91,-112.77 450.52,-88.09 440.8,-74.93"/>
<polygon fill="#63b8ff" stroke="#63b8ff" points="534.88,-163.12 545.36,-164.69 538.15,-156.93 534.88,-163.12"/>
</a>
</g>
</g>
<!-- Node16&#45;&gt;Node15 -->
<g id="edge26_Node000016_Node000015" class="edge">
<title>Node16&#45;&gt;Node15</title>
<g id="a_edge26_Node000016_Node000015"><a xlink:title=" ">
<path fill="none" stroke="#63b8ff" d="M613.39,-162.63C653.39,-152.86 709.53,-139.15 746.16,-130.2"/>
<polygon fill="#63b8ff" stroke="#63b8ff" points="612.66,-159.21 603.77,-164.98 614.32,-166.01 612.66,-159.21"/>
</a>
</g>
</g>
<!-- Node17 -->
<g id="Node000017" class="node">
<title>Node17</title>
<g id="a_Node000017"><a xlink:href="_machine_8cpp.xhtml" target="_top" xlink:title=" ">
<polygon fill="white" stroke="#666666" points="569.7,-129.75 498.95,-129.75 498.95,-110.5 569.7,-110.5 569.7,-129.75"/>
<text text-anchor="middle" x="534.32" y="-116.25" font-family="Helvetica,sans-Serif" font-size="10.00">Machine.cpp</text>
</a>
</g>
</g>
<!-- Node16&#45;&gt;Node17 -->
<g id="edge27_Node000016_Node000017" class="edge">
<title>Node16&#45;&gt;Node17</title>
<g id="a_edge27_Node000016_Node000017"><a xlink:title=" ">
<path fill="none" stroke="#63b8ff" d="M554.55,-155.87C549.47,-147.14 543.64,-137.14 539.55,-130.11"/>
<polygon fill="#63b8ff" stroke="#63b8ff" points="551.39,-157.39 559.44,-164.27 557.43,-153.87 551.39,-157.39"/>
</a>
</g>
</g>
</g>
</svg>

<g id="navigator" transform="translate(0 0)" fill="#404254">
  <rect fill="#f2f5e9" fill-opacity="0.5" stroke="#606060" stroke-width=".5" x="0" y="0" width="60" height="60"/>
  <use id="zoomplus" xlink:href="#zoomPlus" x="17" y="9" onmousedown="handleZoom(evt,'in')"/>
  <use id="zoomminus" xlink:href="#zoomMin" x="42" y="9" onmousedown="handleZoom(evt,'out')"/>
  <use id="reset" xlink:href="#resetDef" x="30" y="36" onmousedown="handleReset()"/>
   <use id="arrowup" xlink:href="#arrowUp" x="0" y="0" onmousedown="handlePan(0,-1)"/>
  <use id="arrowright" xlink:href="#arrowRight" x="0" y="0" onmousedown="handlePan(1,0)"/>
  <use id="arrowdown" xlink:href="#arrowDown" x="0" y="0" onmousedown="handlePan(0,1)"/>
  <use id="arrowleft" xlink:href="#arrowLeft" x="0" y="0" onmousedown="handlePan(-1,0)"/>
</g>
<svg viewBox="0 0 15 15" width="100%" height="30px" preserveAspectRatio="xMaxYMin meet">
 <g id="arrow_out" transform="scale(0.3 0.3)">
  <a xlink:href="_cached_cards_8hpp__dep__incl_org.svg" target="_base">
   <rect id="button" ry="5" rx="5" y="6" x="6" height="38" width="38"
        fill="#f2f5e9" fill-opacity="0.5" stroke="#606060" stroke-width="1.0"/>
   <path id="arrow"
     d="M 11.500037,31.436501 C 11.940474,20.09759 22.043105,11.32322 32.158766,21.979434 L 37.068811,17.246167 C 37.068811,17.246167 37.088388,32 37.088388,32 L 22.160133,31.978069 C 22.160133,31.978069 26.997745,27.140456 26.997745,27.140456 C 18.528582,18.264221 13.291696,25.230495 11.500037,31.436501 z"
     style="fill:#404040;"/>
  </a>
 </g>
</svg>

<style type='text/css'>
<![CDATA[
[data-mouse-over-selected='false'] { opacity: 0.7; }
[data-mouse-over-selected='true']  { opacity: 1.0; }
]]>
</style>
<script type="application/ecmascript"><![CDATA[
document.addEventListener('DOMContentLoaded', (event) => {
  highlightEdges();
  highlightAdjacentNodes();
});
]]></script>
</svg>
