<?xml version="1.0" encoding="UTF-8" standalone="no"?>
<!DOCTYPE svg PUBLIC "-//W3C//DTD SVG 1.1//EN"
 "http://www.w3.org/Graphics/SVG/1.1/DTD/svg11.dtd">
<!-- Generated by graphviz version 9.0.0 (20230911.1827)
 -->
<!-- Title: Espressif.cpp Pages: 1 -->
<svg width="713pt" height="138pt"
 viewBox="0.00 0.00 713.25 137.75" xmlns="http://www.w3.org/2000/svg" xmlns:xlink="http://www.w3.org/1999/xlink">
<g id="graph0" class="graph" transform="scale(1 1) rotate(0) translate(4 133.75)">
<title>Espressif.cpp</title>
<!-- Node1 -->
<g id="Node000001" class="node">
<title>Node1</title>
<g id="a_Node000001"><a xlink:title=" ">
<polygon fill="#999999" stroke="#666666" points="333.25,-129.75 258.75,-129.75 258.75,-110.5 333.25,-110.5 333.25,-129.75"/>
<text text-anchor="middle" x="296" y="-116.25" font-family="Helvetica,sans-Serif" font-size="10.00">Espressif.cpp</text>
</a>
</g>
</g>
<!-- Node2 -->
<g id="Node000002" class="node">
<title>Node2</title>
<g id="a_Node000002"><a xlink:title=" ">
<polygon fill="#e0e0e0" stroke="#999999" points="40,-74.5 0,-74.5 0,-55.25 40,-55.25 40,-74.5"/>
<text text-anchor="middle" x="20" y="-61" font-family="Helvetica,sans-Serif" font-size="10.00">string</text>
</a>
</g>
</g>
<!-- Node1&#45;&gt;Node2 -->
<g id="edge1_Node000001_Node000002" class="edge">
<title>Node1&#45;&gt;Node2</title>
<g id="a_edge1_Node000001_Node000002"><a xlink:title=" ">
<path fill="none" stroke="#63b8ff" d="M258.49,-113.67C212.04,-106.62 130.31,-93.29 51.33,-74.83"/>
<polygon fill="#63b8ff" stroke="#63b8ff" points="52.22,-71.45 41.68,-72.54 50.6,-78.26 52.22,-71.45"/>
</a>
</g>
</g>
<!-- Node3 -->
<g id="Node000003" class="node">
<title>Node3</title>
<g id="a_Node000003"><a xlink:title=" ">
<polygon fill="#e0e0e0" stroke="#999999" points="109.62,-74.5 58.38,-74.5 58.38,-55.25 109.62,-55.25 109.62,-74.5"/>
<text text-anchor="middle" x="84" y="-61" font-family="Helvetica,sans-Serif" font-size="10.00">sstream</text>
</a>
</g>
</g>
<!-- Node1&#45;&gt;Node3 -->
<g id="edge2_Node000001_Node000003" class="edge">
<title>Node1&#45;&gt;Node3</title>
<g id="a_edge2_Node000001_Node000003"><a xlink:title=" ">
<path fill="none" stroke="#63b8ff" d="M259.52,-110.01C225.85,-101.59 174.17,-88.65 120.99,-75.25"/>
<polygon fill="#63b8ff" stroke="#63b8ff" points="122.01,-71.9 111.45,-72.85 120.3,-78.68 122.01,-71.9"/>
</a>
</g>
</g>
<!-- Node4 -->
<g id="Node000004" class="node">
<title>Node4</title>
<g id="a_Node000004"><a xlink:title=" ">
<polygon fill="#e0e0e0" stroke="#999999" points="164.5,-74.5 127.5,-74.5 127.5,-55.25 164.5,-55.25 164.5,-74.5"/>
<text text-anchor="middle" x="146" y="-61" font-family="Helvetica,sans-Serif" font-size="10.00">array</text>
</a>
</g>
</g>
<!-- Node1&#45;&gt;Node4 -->
<g id="edge3_Node000001_Node000004" class="edge">
<title>Node1&#45;&gt;Node4</title>
<g id="a_edge3_Node000001_Node000004"><a xlink:title=" ">
<path fill="none" stroke="#63b8ff" d="M270.55,-110.09C244.25,-100.76 203.24,-86.19 175.53,-76.36"/>
<polygon fill="#63b8ff" stroke="#63b8ff" points="176.93,-73.14 166.33,-73.09 174.58,-79.74 176.93,-73.14"/>
</a>
</g>
</g>
<!-- Node5 -->
<g id="Node000005" class="node">
<title>Node5</title>
<g id="a_Node000005"><a xlink:title=" ">
<polygon fill="#e0e0e0" stroke="#999999" points="231.88,-74.5 182.12,-74.5 182.12,-55.25 231.88,-55.25 231.88,-74.5"/>
<text text-anchor="middle" x="207" y="-61" font-family="Helvetica,sans-Serif" font-size="10.00">iomanip</text>
</a>
</g>
</g>
<!-- Node1&#45;&gt;Node5 -->
<g id="edge4_Node000001_Node000005" class="edge">
<title>Node1&#45;&gt;Node5</title>
<g id="a_edge4_Node000001_Node000005"><a xlink:title=" ">
<path fill="none" stroke="#63b8ff" d="M280.9,-110.09C267.48,-102.06 247.59,-90.16 231.83,-80.73"/>
<polygon fill="#63b8ff" stroke="#63b8ff" points="233.85,-77.86 223.47,-75.73 230.25,-83.87 233.85,-77.86"/>
</a>
</g>
</g>
<!-- Node6 -->
<g id="Node000006" class="node">
<title>Node6</title>
<g id="a_Node000006"><a xlink:title=" ">
<polygon fill="#e0e0e0" stroke="#999999" points="341.88,-74.5 250.12,-74.5 250.12,-55.25 341.88,-55.25 341.88,-74.5"/>
<text text-anchor="middle" x="296" y="-61" font-family="Helvetica,sans-Serif" font-size="10.00">esp_heap_caps.h</text>
</a>
</g>
</g>
<!-- Node1&#45;&gt;Node6 -->
<g id="edge5_Node000001_Node000006" class="edge">
<title>Node1&#45;&gt;Node6</title>
<g id="a_edge5_Node000001_Node000006"><a xlink:title=" ">
<path fill="none" stroke="#63b8ff" d="M296,-110.33C296,-103.82 296,-94.67 296,-86.37"/>
<polygon fill="#63b8ff" stroke="#63b8ff" points="299.5,-86.37 296,-76.37 292.5,-86.37 299.5,-86.37"/>
</a>
</g>
</g>
<!-- Node7 -->
<g id="Node000007" class="node">
<title>Node7</title>
<g id="a_Node000007"><a xlink:title=" ">
<polygon fill="#e0e0e0" stroke="#999999" points="444.12,-74.5 359.88,-74.5 359.88,-55.25 444.12,-55.25 444.12,-74.5"/>
<text text-anchor="middle" x="402" y="-61" font-family="Helvetica,sans-Serif" font-size="10.00">esp_task_wdt.h</text>
</a>
</g>
</g>
<!-- Node1&#45;&gt;Node7 -->
<g id="edge6_Node000001_Node000007" class="edge">
<title>Node1&#45;&gt;Node7</title>
<g id="a_edge6_Node000001_Node000007"><a xlink:title=" ">
<path fill="none" stroke="#63b8ff" d="M313.98,-110.09C330.35,-101.87 354.79,-89.59 373.76,-80.06"/>
<polygon fill="#63b8ff" stroke="#63b8ff" points="375.21,-83.25 382.58,-75.63 372.07,-76.99 375.21,-83.25"/>
</a>
</g>
</g>
<!-- Node8 -->
<g id="Node000008" class="node">
<title>Node8</title>
<g id="a_Node000008"><a xlink:title=" ">
<polygon fill="#e0e0e0" stroke="#999999" points="525.62,-74.5 462.38,-74.5 462.38,-55.25 525.62,-55.25 525.62,-74.5"/>
<text text-anchor="middle" x="494" y="-61" font-family="Helvetica,sans-Serif" font-size="10.00">esp_mac.h</text>
</a>
</g>
</g>
<!-- Node1&#45;&gt;Node8 -->
<g id="edge7_Node000001_Node000008" class="edge">
<title>Node1&#45;&gt;Node8</title>
<g id="a_edge7_Node000001_Node000008"><a xlink:title=" ">
<path fill="none" stroke="#63b8ff" d="M329.59,-110.09C363.08,-101.08 414.66,-87.21 451.1,-77.41"/>
<polygon fill="#63b8ff" stroke="#63b8ff" points="451.68,-80.88 460.43,-74.9 449.86,-74.12 451.68,-80.88"/>
</a>
</g>
</g>
<!-- Node9 -->
<g id="Node000009" class="node">
<title>Node9</title>
<g id="a_Node000009"><a xlink:href="_espressif_8hpp.xhtml" target="_top" xlink:title=" ">
<polygon fill="white" stroke="#666666" points="618.25,-74.5 543.75,-74.5 543.75,-55.25 618.25,-55.25 618.25,-74.5"/>
<text text-anchor="middle" x="581" y="-61" font-family="Helvetica,sans-Serif" font-size="10.00">Espressif.hpp</text>
</a>
</g>
</g>
<!-- Node1&#45;&gt;Node9 -->
<g id="edge8_Node000001_Node000009" class="edge">
<title>Node1&#45;&gt;Node9</title>
<g id="a_edge8_Node000001_Node000009"><a xlink:title=" ">
<path fill="none" stroke="#63b8ff" d="M333.67,-112.1C378.56,-103.73 456.13,-89.25 532.15,-75.03"/>
<polygon fill="#63b8ff" stroke="#63b8ff" points="532.67,-78.5 541.86,-73.22 531.38,-71.61 532.67,-78.5"/>
</a>
</g>
</g>
<!-- Node12 -->
<g id="Node000012" class="node">
<title>Node12</title>
<g id="a_Node000012"><a xlink:href="_logging_8hpp.xhtml" target="_top" xlink:title=" ">
<polygon fill="white" stroke="#666666" points="705.25,-74.5 636.75,-74.5 636.75,-55.25 705.25,-55.25 705.25,-74.5"/>
<text text-anchor="middle" x="671" y="-61" font-family="Helvetica,sans-Serif" font-size="10.00">Logging.hpp</text>
</a>
</g>
</g>
<!-- Node1&#45;&gt;Node12 -->
<g id="edge11_Node000001_Node000012" class="edge">
<title>Node1&#45;&gt;Node12</title>
<g id="a_edge11_Node000001_Node000012"><a xlink:title=" ">
<path fill="none" stroke="#63b8ff" d="M333.34,-114.83C392.78,-107.82 512.82,-93.03 625.24,-74.69"/>
<polygon fill="#63b8ff" stroke="#63b8ff" points="625.66,-78.17 634.95,-73.1 624.52,-71.27 625.66,-78.17"/>
</a>
</g>
</g>
<!-- Node10 -->
<g id="Node000010" class="node">
<title>Node10</title>
<g id="a_Node000010"><a xlink:title=" ">
<polygon fill="#e0e0e0" stroke="#999999" points="536.62,-19.25 491.38,-19.25 491.38,0 536.62,0 536.62,-19.25"/>
<text text-anchor="middle" x="514" y="-5.75" font-family="Helvetica,sans-Serif" font-size="10.00">chrono</text>
</a>
</g>
</g>
<!-- Node9&#45;&gt;Node10 -->
<g id="edge9_Node000009_Node000010" class="edge">
<title>Node9&#45;&gt;Node10</title>
<g id="a_edge9_Node000009_Node000010"><a xlink:title=" ">
<path fill="none" stroke="#63b8ff" d="M569.63,-54.84C559.95,-47.15 545.8,-35.9 534.19,-26.68"/>
<polygon fill="#63b8ff" stroke="#63b8ff" points="536.39,-23.95 526.38,-20.47 532.03,-29.43 536.39,-23.95"/>
</a>
</g>
</g>
<!-- Node11 -->
<g id="Node000011" class="node">
<title>Node11</title>
<g id="a_Node000011"><a xlink:title=" ">
<polygon fill="#e0e0e0" stroke="#999999" points="619.75,-19.25 554.25,-19.25 554.25,0 619.75,0 619.75,-19.25"/>
<text text-anchor="middle" x="587" y="-5.75" font-family="Helvetica,sans-Serif" font-size="10.00">string_view</text>
</a>
</g>
</g>
<!-- Node9&#45;&gt;Node11 -->
<g id="edge10_Node000009_Node000011" class="edge">
<title>Node9&#45;&gt;Node11</title>
<g id="a_edge10_Node000009_Node000011"><a xlink:title=" ">
<path fill="none" stroke="#63b8ff" d="M581.99,-55.08C582.73,-48.49 583.78,-39.21 584.72,-30.82"/>
<polygon fill="#63b8ff" stroke="#63b8ff" points="588.18,-31.44 585.82,-21.11 581.22,-30.66 588.18,-31.44"/>
</a>
</g>
</g>
<!-- Node13 -->
<g id="Node000013" class="node">
<title>Node13</title>
<g id="a_Node000013"><a xlink:title=" ">
<polygon fill="#e0e0e0" stroke="#999999" points="699.62,-19.25 642.38,-19.25 642.38,0 699.62,0 699.62,-19.25"/>
<text text-anchor="middle" x="671" y="-5.75" font-family="Helvetica,sans-Serif" font-size="10.00">esp_log.h</text>
</a>
</g>
</g>
<!-- Node12&#45;&gt;Node13 -->
<g id="edge12_Node000012_Node000013" class="edge">
<title>Node12&#45;&gt;Node13</title>
<g id="a_edge12_Node000012_Node000013"><a xlink:title=" ">
<path fill="none" stroke="#63b8ff" d="M671,-55.08C671,-48.57 671,-39.42 671,-31.12"/>
<polygon fill="#63b8ff" stroke="#63b8ff" points="674.5,-31.12 671,-21.12 667.5,-31.12 674.5,-31.12"/>
</a>
</g>
</g>
</g>
</svg>
