<?xml version="1.0" encoding="UTF-8" standalone="no"?>
<!DOCTYPE svg PUBLIC "-//W3C//DTD SVG 1.1//EN"
 "http://www.w3.org/Graphics/SVG/1.1/DTD/svg11.dtd">
<!-- Generated by graphviz version 9.0.0 (20230911.1827)
 -->
<!-- Title: FabBackend.hpp Pages: 1 -->
<svg width="1401pt" height="525pt"
 viewBox="0.00 0.00 1401.08 524.50" xmlns="http://www.w3.org/2000/svg" xmlns:xlink="http://www.w3.org/1999/xlink">
<g id="graph0" class="graph" transform="scale(1 1) rotate(0) translate(4 520.5)">
<title>FabBackend.hpp</title>
<!-- Node1 -->
<g id="Node000001" class="node">
<title>Node1</title>
<g id="a_Node000001"><a xlink:title=" ">
<polygon fill="#999999" stroke="#666666" points="968.46,-516.5 879.71,-516.5 879.71,-497.25 968.46,-497.25 968.46,-516.5"/>
<text text-anchor="middle" x="924.08" y="-503" font-family="Helvetica,sans-Serif" font-size="10.00">FabBackend.hpp</text>
</a>
</g>
</g>
<!-- Node2 -->
<g id="Node000002" class="node">
<title>Node2</title>
<g id="a_Node000002"><a xlink:title=" ">
<polygon fill="#e0e0e0" stroke="#999999" points="1087.58,-19.25 1050.58,-19.25 1050.58,0 1087.58,0 1087.58,-19.25"/>
<text text-anchor="middle" x="1069.08" y="-5.75" font-family="Helvetica,sans-Serif" font-size="10.00">array</text>
</a>
</g>
</g>
<!-- Node1&#45;&gt;Node2 -->
<g id="edge1_Node000001_Node000002" class="edge">
<title>Node1&#45;&gt;Node2</title>
<g id="a_edge1_Node000001_Node000002"><a xlink:title=" ">
<path fill="none" stroke="#63b8ff" d="M968.8,-504.22C1006.05,-500.66 1058.56,-490.36 1094.08,-461.25 1115.22,-443.93 1114.68,-432.57 1121.08,-406 1157.66,-254.12 1153.12,-201.46 1098.08,-55.25 1094.55,-45.87 1088.81,-36.43 1083.36,-28.66"/>
<polygon fill="#63b8ff" stroke="#63b8ff" points="1086.26,-26.7 1077.48,-20.77 1080.65,-30.88 1086.26,-26.7"/>
</a>
</g>
</g>
<!-- Node3 -->
<g id="Node000003" class="node">
<title>Node3</title>
<g id="a_Node000003"><a xlink:title=" ">
<polygon fill="#e0e0e0" stroke="#999999" points="582.71,-74.5 537.46,-74.5 537.46,-55.25 582.71,-55.25 582.71,-74.5"/>
<text text-anchor="middle" x="560.08" y="-61" font-family="Helvetica,sans-Serif" font-size="10.00">chrono</text>
</a>
</g>
</g>
<!-- Node1&#45;&gt;Node3 -->
<g id="edge2_Node000001_Node000003" class="edge">
<title>Node1&#45;&gt;Node3</title>
<g id="a_edge2_Node000001_Node000003"><a xlink:title=" ">
<path fill="none" stroke="#63b8ff" d="M968.62,-499.47C1023.08,-488.84 1108.08,-461.9 1108.08,-397.38 1108.08,-397.38 1108.08,-397.38 1108.08,-229.62 1108.08,-161.63 1071.9,-142.83 1012.08,-110.5 940.05,-71.57 687.43,-66.44 594.62,-65.88"/>
<polygon fill="#63b8ff" stroke="#63b8ff" points="594.64,-62.38 584.63,-65.84 594.61,-69.38 594.64,-62.38"/>
</a>
</g>
</g>
<!-- Node4 -->
<g id="Node000004" class="node">
<title>Node4</title>
<g id="a_Node000004"><a xlink:title=" ">
<polygon fill="#e0e0e0" stroke="#999999" points="1237.08,-461.25 1179.08,-461.25 1179.08,-442 1237.08,-442 1237.08,-461.25"/>
<text text-anchor="middle" x="1208.08" y="-447.75" font-family="Helvetica,sans-Serif" font-size="10.00">functional</text>
</a>
</g>
</g>
<!-- Node1&#45;&gt;Node4 -->
<g id="edge3_Node000001_Node000004" class="edge">
<title>Node1&#45;&gt;Node4</title>
<g id="a_edge3_Node000001_Node000004"><a xlink:title=" ">
<path fill="none" stroke="#63b8ff" d="M968.54,-497.85C1016.93,-489.06 1096.56,-474.47 1165.08,-461.25 1166.06,-461.06 1167.06,-460.87 1168.06,-460.67"/>
<polygon fill="#63b8ff" stroke="#63b8ff" points="1168.33,-464.19 1177.46,-458.82 1166.98,-457.32 1168.33,-464.19"/>
</a>
</g>
</g>
<!-- Node5 -->
<g id="Node000005" class="node">
<title>Node5</title>
<g id="a_Node000005"><a xlink:title=" ">
<polygon fill="#e0e0e0" stroke="#999999" points="339.08,-74.5 299.08,-74.5 299.08,-55.25 339.08,-55.25 339.08,-74.5"/>
<text text-anchor="middle" x="319.08" y="-61" font-family="Helvetica,sans-Serif" font-size="10.00">string</text>
</a>
</g>
</g>
<!-- Node1&#45;&gt;Node5 -->
<g id="edge4_Node000001_Node000005" class="edge">
<title>Node1&#45;&gt;Node5</title>
<g id="a_edge4_Node000001_Node000005"><a xlink:title=" ">
<path fill="none" stroke="#63b8ff" d="M879.27,-504.84C705.41,-500.25 85.08,-478.2 85.08,-397.38 85.08,-397.38 85.08,-397.38 85.08,-229.62 85.08,-157.26 135.72,-150.42 196.08,-110.5 211.52,-100.29 257.16,-84.99 288.28,-75.22"/>
<polygon fill="#63b8ff" stroke="#63b8ff" points="289.05,-78.65 297.56,-72.34 286.98,-71.96 289.05,-78.65"/>
</a>
</g>
</g>
<!-- Node6 -->
<g id="Node000006" class="node">
<title>Node6</title>
<g id="a_Node000006"><a xlink:title=" ">
<polygon fill="#e0e0e0" stroke="#999999" points="1298.58,-461.25 1255.58,-461.25 1255.58,-442 1298.58,-442 1298.58,-461.25"/>
<text text-anchor="middle" x="1277.08" y="-447.75" font-family="Helvetica,sans-Serif" font-size="10.00">WiFi.h</text>
</a>
</g>
</g>
<!-- Node1&#45;&gt;Node6 -->
<g id="edge5_Node000001_Node000006" class="edge">
<title>Node1&#45;&gt;Node6</title>
<g id="a_edge5_Node000001_Node000006"><a xlink:title=" ">
<path fill="none" stroke="#63b8ff" d="M968.94,-501.57C1029.32,-495.36 1140.22,-482.49 1244.15,-461.39"/>
<polygon fill="#63b8ff" stroke="#63b8ff" points="1244.59,-464.87 1253.67,-459.42 1243.17,-458.02 1244.59,-464.87"/>
</a>
</g>
</g>
<!-- Node7 -->
<g id="Node000007" class="node">
<title>Node7</title>
<g id="a_Node000007"><a xlink:title=" ">
<polygon fill="#e0e0e0" stroke="#999999" points="886.83,-295.5 809.33,-295.5 809.33,-276.25 886.83,-276.25 886.83,-295.5"/>
<text text-anchor="middle" x="848.08" y="-282" font-family="Helvetica,sans-Serif" font-size="10.00">ArduinoJson.h</text>
</a>
</g>
</g>
<!-- Node1&#45;&gt;Node7 -->
<g id="edge6_Node000001_Node000007" class="edge">
<title>Node1&#45;&gt;Node7</title>
<g id="a_edge6_Node000001_Node000007"><a xlink:title=" ">
<path fill="none" stroke="#63b8ff" d="M925.16,-496.83C927.94,-469.79 933.12,-387.91 902.08,-331.5 895.53,-319.59 884.4,-309.57 873.95,-302.07"/>
<polygon fill="#63b8ff" stroke="#63b8ff" points="876.2,-299.37 865.94,-296.73 872.32,-305.19 876.2,-299.37"/>
</a>
</g>
</g>
<!-- Node8 -->
<g id="Node000008" class="node">
<title>Node8</title>
<g id="a_Node000008"><a xlink:title=" ">
<polygon fill="#e0e0e0" stroke="#999999" points="1393.08,-461.25 1317.08,-461.25 1317.08,-442 1393.08,-442 1393.08,-461.25"/>
<text text-anchor="middle" x="1355.08" y="-447.75" font-family="Helvetica,sans-Serif" font-size="10.00">MQTTClient.h</text>
</a>
</g>
</g>
<!-- Node1&#45;&gt;Node8 -->
<g id="edge7_Node000001_Node000008" class="edge">
<title>Node1&#45;&gt;Node8</title>
<g id="a_edge7_Node000001_Node000008"><a xlink:title=" ">
<path fill="none" stroke="#63b8ff" d="M968.85,-501.64C1038.58,-494.83 1177.62,-480.4 1305.49,-461.55"/>
<polygon fill="#63b8ff" stroke="#63b8ff" points="1305.77,-465.05 1315.14,-460.11 1304.74,-458.13 1305.77,-465.05"/>
</a>
</g>
</g>
<!-- Node9 -->
<g id="Node000009" class="node">
<title>Node9</title>
<g id="a_Node000009"><a xlink:href="_fab_user_8hpp.xhtml" target="_top" xlink:title=" ">
<polygon fill="white" stroke="#666666" points="726.83,-240.25 655.33,-240.25 655.33,-221 726.83,-221 726.83,-240.25"/>
<text text-anchor="middle" x="691.08" y="-226.75" font-family="Helvetica,sans-Serif" font-size="10.00">FabUser.hpp</text>
</a>
</g>
</g>
<!-- Node1&#45;&gt;Node9 -->
<g id="edge8_Node000001_Node000009" class="edge">
<title>Node1&#45;&gt;Node9</title>
<g id="a_edge8_Node000001_Node000009"><a xlink:title=" ">
<path fill="none" stroke="#63b8ff" d="M879.61,-505.72C826.08,-503.88 734.72,-495.41 665.08,-461.25 567.15,-413.21 528.03,-395.33 484.08,-295.5 480.63,-287.67 478.71,-282.91 484.08,-276.25 503.76,-251.88 588.93,-240.18 643.71,-235.08"/>
<polygon fill="#63b8ff" stroke="#63b8ff" points="643.74,-238.59 653.39,-234.23 643.12,-231.62 643.74,-238.59"/>
</a>
</g>
</g>
<!-- Node14 -->
<g id="Node000014" class="node">
<title>Node14</title>
<g id="a_Node000014"><a xlink:href="conf_8hpp.xhtml" target="_top" xlink:title=" ">
<polygon fill="white" stroke="#666666" points="547.46,-129.75 494.71,-129.75 494.71,-110.5 547.46,-110.5 547.46,-129.75"/>
<text text-anchor="middle" x="521.08" y="-116.25" font-family="Helvetica,sans-Serif" font-size="10.00">conf.hpp</text>
</a>
</g>
</g>
<!-- Node1&#45;&gt;Node14 -->
<g id="edge76_Node000001_Node000014" class="edge">
<title>Node1&#45;&gt;Node14</title>
<g id="a_edge76_Node000001_Node000014"><a xlink:title=" ">
<path fill="none" stroke="#63b8ff" d="M879.28,-503.92C721.21,-496.44 199.08,-466.5 199.08,-397.38 199.08,-397.38 199.08,-397.38 199.08,-340.12 199.08,-280.15 353.48,-196.32 405.08,-165.75 429.81,-151.1 460.21,-139.61 483.69,-131.97"/>
<polygon fill="#63b8ff" stroke="#63b8ff" points="484.67,-135.32 493.15,-128.98 482.56,-128.65 484.67,-135.32"/>
</a>
</g>
</g>
<!-- Node20 -->
<g id="Node000020" class="node">
<title>Node20</title>
<g id="a_Node000020"><a xlink:href="_m_q_t_ttypes_8hpp.xhtml" target="_top" xlink:title=" ">
<polygon fill="white" stroke="#666666" points="692.58,-350.75 607.58,-350.75 607.58,-331.5 692.58,-331.5 692.58,-350.75"/>
<text text-anchor="middle" x="650.08" y="-337.25" font-family="Helvetica,sans-Serif" font-size="10.00">MQTTtypes.hpp</text>
</a>
</g>
</g>
<!-- Node1&#45;&gt;Node20 -->
<g id="edge28_Node000001_Node000020" class="edge">
<title>Node1&#45;&gt;Node20</title>
<g id="a_edge28_Node000001_Node000020"><a xlink:title=" ">
<path fill="none" stroke="#63b8ff" d="M879.36,-503.34C833.73,-499.27 761.9,-488.7 706.08,-461.25 672.36,-444.67 657.72,-440.17 642.08,-406 635.67,-392 638.48,-374.56 642.44,-361.44"/>
<polygon fill="#63b8ff" stroke="#63b8ff" points="645.65,-362.86 645.67,-352.26 639.05,-360.54 645.65,-362.86"/>
</a>
</g>
</g>
<!-- Node29 -->
<g id="Node000029" class="node">
<title>Node29</title>
<g id="a_Node000029"><a xlink:href="_saved_config_8hpp.xhtml" target="_top" xlink:title=" ">
<polygon fill="white" stroke="#666666" points="823.46,-461.25 734.71,-461.25 734.71,-442 823.46,-442 823.46,-461.25"/>
<text text-anchor="middle" x="779.08" y="-447.75" font-family="Helvetica,sans-Serif" font-size="10.00">SavedConfig.hpp</text>
</a>
</g>
</g>
<!-- Node1&#45;&gt;Node29 -->
<g id="edge53_Node000001_Node000029" class="edge">
<title>Node1&#45;&gt;Node29</title>
<g id="a_edge53_Node000001_Node000029"><a xlink:title=" ">
<path fill="none" stroke="#63b8ff" d="M899.48,-496.84C876.15,-488.27 840.84,-475.31 814.49,-465.63"/>
<polygon fill="#63b8ff" stroke="#63b8ff" points="815.81,-462.39 805.22,-462.22 813.4,-468.96 815.81,-462.39"/>
</a>
</g>
</g>
<!-- Node33 -->
<g id="Node000033" class="node">
<title>Node33</title>
<g id="a_Node000033"><a xlink:href="_buffered_msg_8hpp.xhtml" target="_top" xlink:title=" ">
<polygon fill="white" stroke="#666666" points="739.46,-406 650.71,-406 650.71,-386.75 739.46,-386.75 739.46,-406"/>
<text text-anchor="middle" x="695.08" y="-392.5" font-family="Helvetica,sans-Serif" font-size="10.00">BufferedMsg.hpp</text>
</a>
</g>
</g>
<!-- Node1&#45;&gt;Node33 -->
<g id="edge77_Node000001_Node000033" class="edge">
<title>Node1&#45;&gt;Node33</title>
<g id="a_edge77_Node000001_Node000033"><a xlink:title=" ">
<path fill="none" stroke="#63b8ff" d="M879.25,-506.5C835.73,-504.84 769.99,-496.06 726.08,-461.25 712.2,-450.24 704.13,-431.46 699.73,-417.1"/>
<polygon fill="#63b8ff" stroke="#63b8ff" points="703.21,-416.56 697.23,-407.81 696.45,-418.37 703.21,-416.56"/>
</a>
</g>
</g>
<!-- Node9&#45;&gt;Node2 -->
<g id="edge24_Node000009_Node000002" class="edge">
<title>Node9&#45;&gt;Node2</title>
<g id="a_edge24_Node000009_Node000002"><a xlink:title=" ">
<path fill="none" stroke="#63b8ff" d="M727.16,-222.21C801.53,-206.33 968.54,-167.4 1012.08,-129.75 1028.08,-115.91 1050.63,-60.14 1061.97,-30.07"/>
<polygon fill="#63b8ff" stroke="#63b8ff" points="1065.13,-31.62 1065.33,-21.03 1058.57,-29.19 1065.13,-31.62"/>
</a>
</g>
</g>
<!-- Node9&#45;&gt;Node5 -->
<g id="edge27_Node000009_Node000005" class="edge">
<title>Node9&#45;&gt;Node5</title>
<g id="a_edge27_Node000009_Node000005"><a xlink:title=" ">
<path fill="none" stroke="#63b8ff" d="M670.55,-220.59C608.69,-193.36 423.8,-111.97 350,-79.49"/>
<polygon fill="#63b8ff" stroke="#63b8ff" points="351.5,-76.32 340.93,-75.49 348.68,-82.73 351.5,-76.32"/>
</a>
</g>
</g>
<!-- Node10 -->
<g id="Node000010" class="node">
<title>Node10</title>
<g id="a_Node000010"><a xlink:title=" ">
<polygon fill="#e0e0e0" stroke="#999999" points="767.33,-129.75 710.83,-129.75 710.83,-110.5 767.33,-110.5 767.33,-129.75"/>
<text text-anchor="middle" x="739.08" y="-116.25" font-family="Helvetica,sans-Serif" font-size="10.00">Arduino.h</text>
</a>
</g>
</g>
<!-- Node9&#45;&gt;Node10 -->
<g id="edge9_Node000009_Node000010" class="edge">
<title>Node9&#45;&gt;Node10</title>
<g id="a_edge9_Node000009_Node000010"><a xlink:title=" ">
<path fill="none" stroke="#63b8ff" d="M695.01,-220.75C702.74,-203.26 720.11,-164.02 730.58,-140.34"/>
<polygon fill="#63b8ff" stroke="#63b8ff" points="733.64,-142.07 734.49,-131.51 727.24,-139.24 733.64,-142.07"/>
</a>
</g>
</g>
<!-- Node11 -->
<g id="Node000011" class="node">
<title>Node11</title>
<g id="a_Node000011"><a xlink:href="card_8hpp.xhtml" target="_top" xlink:title=" ">
<polygon fill="white" stroke="#666666" points="819.46,-185 766.71,-185 766.71,-165.75 819.46,-165.75 819.46,-185"/>
<text text-anchor="middle" x="793.08" y="-171.5" font-family="Helvetica,sans-Serif" font-size="10.00">card.hpp</text>
</a>
</g>
</g>
<!-- Node9&#45;&gt;Node11 -->
<g id="edge10_Node000009_Node000011" class="edge">
<title>Node9&#45;&gt;Node11</title>
<g id="a_edge10_Node000009_Node000011"><a xlink:title=" ">
<path fill="none" stroke="#63b8ff" d="M708.38,-220.59C724.06,-212.41 747.43,-200.21 765.66,-190.69"/>
<polygon fill="#63b8ff" stroke="#63b8ff" points="767.11,-193.88 774.35,-186.15 763.87,-187.68 767.11,-193.88"/>
</a>
</g>
</g>
<!-- Node12 -->
<g id="Node000012" class="node">
<title>Node12</title>
<g id="a_Node000012"><a xlink:title=" ">
<polygon fill="#e0e0e0" stroke="#999999" points="692.71,-129.75 641.46,-129.75 641.46,-110.5 692.71,-110.5 692.71,-129.75"/>
<text text-anchor="middle" x="667.08" y="-116.25" font-family="Helvetica,sans-Serif" font-size="10.00">sstream</text>
</a>
</g>
</g>
<!-- Node9&#45;&gt;Node12 -->
<g id="edge26_Node000009_Node000012" class="edge">
<title>Node9&#45;&gt;Node12</title>
<g id="a_edge26_Node000009_Node000012"><a xlink:title=" ">
<path fill="none" stroke="#63b8ff" d="M689.12,-220.75C685.3,-203.5 676.81,-165.08 671.55,-141.31"/>
<polygon fill="#63b8ff" stroke="#63b8ff" points="674.98,-140.61 669.4,-131.6 668.14,-142.12 674.98,-140.61"/>
</a>
</g>
</g>
<!-- Node9&#45;&gt;Node14 -->
<g id="edge23_Node000009_Node000014" class="edge">
<title>Node9&#45;&gt;Node14</title>
<g id="a_edge23_Node000009_Node000014"><a xlink:title=" ">
<path fill="none" stroke="#63b8ff" d="M676.88,-220.56C647.68,-201.93 580.65,-159.15 544.77,-136.25"/>
<polygon fill="#63b8ff" stroke="#63b8ff" points="546.71,-133.33 536.4,-130.9 542.95,-139.23 546.71,-133.33"/>
</a>
</g>
</g>
<!-- Node15 -->
<g id="Node000015" class="node">
<title>Node15</title>
<g id="a_Node000015"><a xlink:title=" ">
<polygon fill="#e0e0e0" stroke="#999999" points="326.71,-19.25 281.46,-19.25 281.46,0 326.71,0 326.71,-19.25"/>
<text text-anchor="middle" x="304.08" y="-5.75" font-family="Helvetica,sans-Serif" font-size="10.00">cstdint</text>
</a>
</g>
</g>
<!-- Node9&#45;&gt;Node15 -->
<g id="edge25_Node000009_Node000015" class="edge">
<title>Node9&#45;&gt;Node15</title>
<g id="a_edge25_Node000009_Node000015"><a xlink:title=" ">
<path fill="none" stroke="#63b8ff" d="M685.59,-220.61C675.01,-203.18 651.16,-163.61 632.08,-129.75 613.63,-97.01 622.76,-76.96 592.08,-55.25 551.76,-26.71 405.38,-15.75 338.2,-12.15"/>
<polygon fill="#63b8ff" stroke="#63b8ff" points="338.67,-8.67 328.51,-11.66 338.32,-15.66 338.67,-8.67"/>
</a>
</g>
</g>
<!-- Node11&#45;&gt;Node10 -->
<g id="edge13_Node000011_Node000010" class="edge">
<title>Node11&#45;&gt;Node10</title>
<g id="a_edge13_Node000011_Node000010"><a xlink:title=" ">
<path fill="none" stroke="#63b8ff" d="M784.16,-165.58C776.63,-158.15 765.61,-147.29 756.36,-138.16"/>
<polygon fill="#63b8ff" stroke="#63b8ff" points="758.85,-135.7 749.27,-131.17 753.93,-140.69 758.85,-135.7"/>
</a>
</g>
</g>
<!-- Node11&#45;&gt;Node12 -->
<g id="edge11_Node000011_Node000012" class="edge">
<title>Node11&#45;&gt;Node12</title>
<g id="a_edge11_Node000011_Node000012"><a xlink:title=" ">
<path fill="none" stroke="#63b8ff" d="M771.71,-165.34C751.8,-156.93 721.84,-144.27 699.08,-134.65"/>
<polygon fill="#63b8ff" stroke="#63b8ff" points="700.53,-131.46 689.95,-130.79 697.8,-137.91 700.53,-131.46"/>
</a>
</g>
</g>
<!-- Node13 -->
<g id="Node000013" class="node">
<title>Node13</title>
<g id="a_Node000013"><a xlink:title=" ">
<polygon fill="#e0e0e0" stroke="#999999" points="916.96,-129.75 867.21,-129.75 867.21,-110.5 916.96,-110.5 916.96,-129.75"/>
<text text-anchor="middle" x="892.08" y="-116.25" font-family="Helvetica,sans-Serif" font-size="10.00">iomanip</text>
</a>
</g>
</g>
<!-- Node11&#45;&gt;Node13 -->
<g id="edge12_Node000011_Node000013" class="edge">
<title>Node11&#45;&gt;Node13</title>
<g id="a_edge12_Node000011_Node000013"><a xlink:title=" ">
<path fill="none" stroke="#63b8ff" d="M809.88,-165.34C825.09,-157.16 847.78,-144.96 865.46,-135.44"/>
<polygon fill="#63b8ff" stroke="#63b8ff" points="866.72,-138.74 873.87,-130.92 863.41,-132.57 866.72,-138.74"/>
</a>
</g>
</g>
<!-- Node11&#45;&gt;Node14 -->
<g id="edge14_Node000011_Node000014" class="edge">
<title>Node11&#45;&gt;Node14</title>
<g id="a_edge14_Node000011_Node000014"><a xlink:title=" ">
<path fill="none" stroke="#63b8ff" d="M766.51,-169.17C717.96,-159.67 614.8,-139.47 558.93,-128.54"/>
<polygon fill="#63b8ff" stroke="#63b8ff" points="559.74,-125.13 549.25,-126.64 558.39,-132 559.74,-125.13"/>
</a>
</g>
</g>
<!-- Node17 -->
<g id="Node000017" class="node">
<title>Node17</title>
<g id="a_Node000017"><a xlink:href="_logging_8hpp.xhtml" target="_top" xlink:title=" ">
<polygon fill="white" stroke="#666666" points="1003.33,-129.75 934.83,-129.75 934.83,-110.5 1003.33,-110.5 1003.33,-129.75"/>
<text text-anchor="middle" x="969.08" y="-116.25" font-family="Helvetica,sans-Serif" font-size="10.00">Logging.hpp</text>
</a>
</g>
</g>
<!-- Node11&#45;&gt;Node17 -->
<g id="edge20_Node000011_Node000017" class="edge">
<title>Node11&#45;&gt;Node17</title>
<g id="a_edge20_Node000011_Node000017"><a xlink:title=" ">
<path fill="none" stroke="#63b8ff" d="M819.81,-166.29C848.67,-157.56 894.97,-143.55 928.36,-133.44"/>
<polygon fill="#63b8ff" stroke="#63b8ff" points="929.14,-136.87 937.7,-130.62 927.11,-130.17 929.14,-136.87"/>
</a>
</g>
</g>
<!-- Node19 -->
<g id="Node000019" class="node">
<title>Node19</title>
<g id="a_Node000019"><a xlink:title=" ">
<polygon fill="#e0e0e0" stroke="#999999" points="848.71,-129.75 785.46,-129.75 785.46,-110.5 848.71,-110.5 848.71,-129.75"/>
<text text-anchor="middle" x="817.08" y="-116.25" font-family="Helvetica,sans-Serif" font-size="10.00">esp_mac.h</text>
</a>
</g>
</g>
<!-- Node11&#45;&gt;Node19 -->
<g id="edge22_Node000011_Node000019" class="edge">
<title>Node11&#45;&gt;Node19</title>
<g id="a_edge22_Node000011_Node000019"><a xlink:title=" ">
<path fill="none" stroke="#63b8ff" d="M797.04,-165.58C800.12,-158.76 804.49,-149.06 808.37,-140.45"/>
<polygon fill="#63b8ff" stroke="#63b8ff" points="811.49,-142.04 812.41,-131.49 805.11,-139.17 811.49,-142.04"/>
</a>
</g>
</g>
<!-- Node14&#45;&gt;Node3 -->
<g id="edge17_Node000014_Node000003" class="edge">
<title>Node14&#45;&gt;Node3</title>
<g id="a_edge17_Node000014_Node000003"><a xlink:title=" ">
<path fill="none" stroke="#63b8ff" d="M527.52,-110.33C532.74,-103.21 540.27,-92.93 546.77,-84.05"/>
<polygon fill="#63b8ff" stroke="#63b8ff" points="549.52,-86.22 552.61,-76.08 543.88,-82.08 549.52,-86.22"/>
</a>
</g>
</g>
<!-- Node14&#45;&gt;Node5 -->
<g id="edge16_Node000014_Node000005" class="edge">
<title>Node14&#45;&gt;Node5</title>
<g id="a_edge16_Node000014_Node000005"><a xlink:title=" ">
<path fill="none" stroke="#63b8ff" d="M494.26,-112.05C457.02,-102.24 389.82,-84.52 350.35,-74.12"/>
<polygon fill="#63b8ff" stroke="#63b8ff" points="351.32,-70.75 340.76,-71.59 349.54,-77.52 351.32,-70.75"/>
</a>
</g>
</g>
<!-- Node14&#45;&gt;Node15 -->
<g id="edge15_Node000014_Node000015" class="edge">
<title>Node14&#45;&gt;Node15</title>
<g id="a_edge15_Node000014_Node000015"><a xlink:title=" ">
<path fill="none" stroke="#63b8ff" d="M518.42,-110.17C513.8,-96.22 502.93,-69.42 484.08,-55.25 441.02,-22.89 377.37,-13.77 338.43,-11.33"/>
<polygon fill="#63b8ff" stroke="#63b8ff" points="338.62,-7.84 328.46,-10.84 338.28,-14.83 338.62,-7.84"/>
</a>
</g>
</g>
<!-- Node16 -->
<g id="Node000016" class="node">
<title>Node16</title>
<g id="a_Node000016"><a xlink:href="_machine_i_d_8hpp.xhtml" target="_top" xlink:title=" ">
<polygon fill="white" stroke="#666666" points="475.33,-74.5 394.83,-74.5 394.83,-55.25 475.33,-55.25 475.33,-74.5"/>
<text text-anchor="middle" x="435.08" y="-61" font-family="Helvetica,sans-Serif" font-size="10.00">MachineID.hpp</text>
</a>
</g>
</g>
<!-- Node14&#45;&gt;Node16 -->
<g id="edge18_Node000014_Node000016" class="edge">
<title>Node14&#45;&gt;Node16</title>
<g id="a_edge18_Node000014_Node000016"><a xlink:title=" ">
<path fill="none" stroke="#63b8ff" d="M506.49,-110.09C493.64,-102.14 474.67,-90.39 459.51,-81"/>
<polygon fill="#63b8ff" stroke="#63b8ff" points="461.37,-78.04 451.03,-75.75 457.69,-83.99 461.37,-78.04"/>
</a>
</g>
</g>
<!-- Node16&#45;&gt;Node15 -->
<g id="edge19_Node000016_Node000015" class="edge">
<title>Node16&#45;&gt;Node15</title>
<g id="a_edge19_Node000016_Node000015"><a xlink:title=" ">
<path fill="none" stroke="#63b8ff" d="M412.86,-54.84C392.06,-46.39 360.73,-33.65 337.03,-24.02"/>
<polygon fill="#63b8ff" stroke="#63b8ff" points="338.4,-20.8 327.82,-20.27 335.76,-27.28 338.4,-20.8"/>
</a>
</g>
</g>
<!-- Node18 -->
<g id="Node000018" class="node">
<title>Node18</title>
<g id="a_Node000018"><a xlink:title=" ">
<polygon fill="#e0e0e0" stroke="#999999" points="997.71,-74.5 940.46,-74.5 940.46,-55.25 997.71,-55.25 997.71,-74.5"/>
<text text-anchor="middle" x="969.08" y="-61" font-family="Helvetica,sans-Serif" font-size="10.00">esp_log.h</text>
</a>
</g>
</g>
<!-- Node17&#45;&gt;Node18 -->
<g id="edge21_Node000017_Node000018" class="edge">
<title>Node17&#45;&gt;Node18</title>
<g id="a_edge21_Node000017_Node000018"><a xlink:title=" ">
<path fill="none" stroke="#63b8ff" d="M969.08,-110.33C969.08,-103.82 969.08,-94.67 969.08,-86.37"/>
<polygon fill="#63b8ff" stroke="#63b8ff" points="972.58,-86.37 969.08,-76.37 965.58,-86.37 972.58,-86.37"/>
</a>
</g>
</g>
<!-- Node20&#45;&gt;Node5 -->
<g id="edge50_Node000020_Node000005" class="edge">
<title>Node20&#45;&gt;Node5</title>
<g id="a_edge50_Node000020_Node000005"><a xlink:title=" ">
<path fill="none" stroke="#63b8ff" d="M607.25,-338.63C521.93,-333.03 332.39,-306.79 256.08,-185 233.86,-149.53 273.46,-105.46 299.34,-82.13"/>
<polygon fill="#63b8ff" stroke="#63b8ff" points="301.39,-84.98 306.65,-75.78 296.8,-79.69 301.39,-84.98"/>
</a>
</g>
</g>
<!-- Node20&#45;&gt;Node7 -->
<g id="edge29_Node000020_Node000007" class="edge">
<title>Node20&#45;&gt;Node7</title>
<g id="a_edge29_Node000020_Node000007"><a xlink:title=" ">
<path fill="none" stroke="#63b8ff" d="M683.67,-331.09C716.67,-322.22 767.21,-308.62 803.54,-298.85"/>
<polygon fill="#63b8ff" stroke="#63b8ff" points="804.12,-302.32 812.87,-296.35 802.3,-295.56 804.12,-302.32"/>
</a>
</g>
</g>
<!-- Node20&#45;&gt;Node9 -->
<g id="edge30_Node000020_Node000009" class="edge">
<title>Node20&#45;&gt;Node9</title>
<g id="a_edge30_Node000020_Node000009"><a xlink:title=" ">
<path fill="none" stroke="#63b8ff" d="M653.44,-331.25C660.01,-313.84 674.74,-274.87 683.7,-251.16"/>
<polygon fill="#63b8ff" stroke="#63b8ff" points="686.88,-252.63 687.15,-242.04 680.34,-250.16 686.88,-252.63"/>
</a>
</g>
</g>
<!-- Node20&#45;&gt;Node11 -->
<g id="edge49_Node000020_Node000011" class="edge">
<title>Node20&#45;&gt;Node11</title>
<g id="a_edge49_Node000020_Node000011"><a xlink:title=" ">
<path fill="none" stroke="#63b8ff" d="M657.77,-331.32C680.47,-305.33 747.48,-228.59 777.83,-193.84"/>
<polygon fill="#63b8ff" stroke="#63b8ff" points="780.42,-196.2 784.36,-186.36 775.15,-191.59 780.42,-196.2"/>
</a>
</g>
</g>
<!-- Node21 -->
<g id="Node000021" class="node">
<title>Node21</title>
<g id="a_Node000021"><a xlink:href="_machine_8hpp.xhtml" target="_top" xlink:title=" ">
<polygon fill="white" stroke="#666666" points="647.46,-295.5 576.71,-295.5 576.71,-276.25 647.46,-276.25 647.46,-295.5"/>
<text text-anchor="middle" x="612.08" y="-282" font-family="Helvetica,sans-Serif" font-size="10.00">Machine.hpp</text>
</a>
</g>
</g>
<!-- Node20&#45;&gt;Node21 -->
<g id="edge31_Node000020_Node000021" class="edge">
<title>Node20&#45;&gt;Node21</title>
<g id="a_edge31_Node000020_Node000021"><a xlink:title=" ">
<path fill="none" stroke="#63b8ff" d="M643.81,-331.33C638.72,-324.21 631.39,-313.93 625.05,-305.05"/>
<polygon fill="#63b8ff" stroke="#63b8ff" points="628.03,-303.2 619.37,-297.09 622.33,-307.26 628.03,-303.2"/>
</a>
</g>
</g>
<!-- Node27 -->
<g id="Node000027" class="node">
<title>Node27</title>
<g id="a_Node000027"><a xlink:title=" ">
<polygon fill="#e0e0e0" stroke="#999999" points="791.33,-295.5 740.83,-295.5 740.83,-276.25 791.33,-276.25 791.33,-295.5"/>
<text text-anchor="middle" x="766.08" y="-282" font-family="Helvetica,sans-Serif" font-size="10.00">memory</text>
</a>
</g>
</g>
<!-- Node20&#45;&gt;Node27 -->
<g id="edge51_Node000020_Node000027" class="edge">
<title>Node20&#45;&gt;Node27</title>
<g id="a_edge51_Node000020_Node000027"><a xlink:title=" ">
<path fill="none" stroke="#63b8ff" d="M669.76,-331.09C687.92,-322.75 715.17,-310.25 736.05,-300.66"/>
<polygon fill="#63b8ff" stroke="#63b8ff" points="737.3,-303.94 744.93,-296.58 734.38,-297.58 737.3,-303.94"/>
</a>
</g>
</g>
<!-- Node28 -->
<g id="Node000028" class="node">
<title>Node28</title>
<g id="a_Node000028"><a xlink:title=" ">
<polygon fill="#e0e0e0" stroke="#999999" points="558.83,-295.5 493.33,-295.5 493.33,-276.25 558.83,-276.25 558.83,-295.5"/>
<text text-anchor="middle" x="526.08" y="-282" font-family="Helvetica,sans-Serif" font-size="10.00">string_view</text>
</a>
</g>
</g>
<!-- Node20&#45;&gt;Node28 -->
<g id="edge52_Node000020_Node000028" class="edge">
<title>Node20&#45;&gt;Node28</title>
<g id="a_edge52_Node000020_Node000028"><a xlink:title=" ">
<path fill="none" stroke="#63b8ff" d="M629.05,-331.09C609.45,-322.68 579.97,-310.02 557.57,-300.4"/>
<polygon fill="#63b8ff" stroke="#63b8ff" points="559.18,-297.28 548.61,-296.55 556.42,-303.71 559.18,-297.28"/>
</a>
</g>
</g>
<!-- Node21&#45;&gt;Node2 -->
<g id="edge45_Node000021_Node000002" class="edge">
<title>Node21&#45;&gt;Node2</title>
<g id="a_edge45_Node000021_Node000002"><a xlink:title=" ">
<path fill="none" stroke="#63b8ff" d="M647.74,-282.22C728.3,-274.27 925.65,-243.6 1032.08,-129.75 1057.76,-102.28 1065.63,-57.26 1068.03,-31.14"/>
<polygon fill="#63b8ff" stroke="#63b8ff" points="1071.52,-31.43 1068.73,-21.21 1064.54,-30.94 1071.52,-31.43"/>
</a>
</g>
</g>
<!-- Node21&#45;&gt;Node3 -->
<g id="edge46_Node000021_Node000003" class="edge">
<title>Node21&#45;&gt;Node3</title>
<g id="a_edge46_Node000021_Node000003"><a xlink:title=" ">
<path fill="none" stroke="#63b8ff" d="M609.98,-276.02C602.3,-243.69 575.67,-131.53 564.78,-85.66"/>
<polygon fill="#63b8ff" stroke="#63b8ff" points="568.22,-85 562.5,-76.07 561.41,-86.61 568.22,-85"/>
</a>
</g>
</g>
<!-- Node21&#45;&gt;Node9 -->
<g id="edge32_Node000021_Node000009" class="edge">
<title>Node21&#45;&gt;Node9</title>
<g id="a_edge32_Node000021_Node000009"><a xlink:title=" ">
<path fill="none" stroke="#63b8ff" d="M625.48,-275.84C637.17,-267.96 654.38,-256.36 668.24,-247.02"/>
<polygon fill="#63b8ff" stroke="#63b8ff" points="670.02,-250.04 676.36,-241.55 666.11,-244.24 670.02,-250.04"/>
</a>
</g>
</g>
<!-- Node21&#45;&gt;Node15 -->
<g id="edge47_Node000021_Node000015" class="edge">
<title>Node21&#45;&gt;Node15</title>
<g id="a_edge47_Node000021_Node000015"><a xlink:title=" ">
<path fill="none" stroke="#63b8ff" d="M576.27,-276.53C452.75,-247.59 51.16,-152.09 34.08,-129.75 16.54,-106.81 42.75,-68.59 60.08,-55.25 92.41,-30.37 210.52,-17.88 269.74,-13.06"/>
<polygon fill="#63b8ff" stroke="#63b8ff" points="269.89,-16.56 279.58,-12.29 269.34,-9.58 269.89,-16.56"/>
</a>
</g>
</g>
<!-- Node22 -->
<g id="Node000022" class="node">
<title>Node22</title>
<g id="a_Node000022"><a xlink:href="_machine_config_8hpp.xhtml" target="_top" xlink:title=" ">
<polygon fill="white" stroke="#666666" points="362.96,-185 265.21,-185 265.21,-165.75 362.96,-165.75 362.96,-185"/>
<text text-anchor="middle" x="314.08" y="-171.5" font-family="Helvetica,sans-Serif" font-size="10.00">MachineConfig.hpp</text>
</a>
</g>
</g>
<!-- Node21&#45;&gt;Node22 -->
<g id="edge33_Node000021_Node000022" class="edge">
<title>Node21&#45;&gt;Node22</title>
<g id="a_edge33_Node000021_Node000022"><a xlink:title=" ">
<path fill="none" stroke="#63b8ff" d="M587.19,-275.81C534.38,-256.58 410.98,-211.65 349.79,-189.37"/>
<polygon fill="#63b8ff" stroke="#63b8ff" points="351.13,-186.14 340.54,-186.01 348.74,-192.72 351.13,-186.14"/>
</a>
</g>
</g>
<!-- Node26 -->
<g id="Node000026" class="node">
<title>Node26</title>
<g id="a_Node000026"><a xlink:title=" ">
<polygon fill="#e0e0e0" stroke="#999999" points="1079.96,-240.25 1030.21,-240.25 1030.21,-221 1079.96,-221 1079.96,-240.25"/>
<text text-anchor="middle" x="1055.08" y="-226.75" font-family="Helvetica,sans-Serif" font-size="10.00">optional</text>
</a>
</g>
</g>
<!-- Node21&#45;&gt;Node26 -->
<g id="edge48_Node000021_Node000026" class="edge">
<title>Node21&#45;&gt;Node26</title>
<g id="a_edge48_Node000021_Node000026"><a xlink:title=" ">
<path fill="none" stroke="#63b8ff" d="M647.59,-280.61C730.25,-270.67 934.9,-246.07 1018.56,-236.02"/>
<polygon fill="#63b8ff" stroke="#63b8ff" points="1018.75,-239.52 1028.26,-234.85 1017.92,-232.57 1018.75,-239.52"/>
</a>
</g>
</g>
<!-- Node22&#45;&gt;Node3 -->
<g id="edge34_Node000022_Node000003" class="edge">
<title>Node22&#45;&gt;Node3</title>
<g id="a_edge34_Node000022_Node000003"><a xlink:title=" ">
<path fill="none" stroke="#63b8ff" d="M334.63,-165.31C377.77,-146.28 477.99,-102.08 529.02,-79.58"/>
<polygon fill="#63b8ff" stroke="#63b8ff" points="530.29,-82.84 538.03,-75.6 527.47,-76.43 530.29,-82.84"/>
</a>
</g>
</g>
<!-- Node22&#45;&gt;Node5 -->
<g id="edge36_Node000022_Node000005" class="edge">
<title>Node22&#45;&gt;Node5</title>
<g id="a_edge36_Node000022_Node000005"><a xlink:title=" ">
<path fill="none" stroke="#63b8ff" d="M309.95,-165.29C304.85,-152.91 297.29,-130.05 301.08,-110.5 302.75,-101.9 306.08,-92.85 309.42,-85.17"/>
<polygon fill="#63b8ff" stroke="#63b8ff" points="312.57,-86.7 313.65,-76.16 306.23,-83.72 312.57,-86.7"/>
</a>
</g>
</g>
<!-- Node22&#45;&gt;Node14 -->
<g id="edge44_Node000022_Node000014" class="edge">
<title>Node22&#45;&gt;Node14</title>
<g id="a_edge44_Node000022_Node000014"><a xlink:title=" ">
<path fill="none" stroke="#63b8ff" d="M349.2,-165.34C386.57,-155.73 445.48,-140.57 483.7,-130.74"/>
<polygon fill="#63b8ff" stroke="#63b8ff" points="484.09,-134.25 492.91,-128.37 482.35,-127.48 484.09,-134.25"/>
</a>
</g>
</g>
<!-- Node22&#45;&gt;Node15 -->
<g id="edge35_Node000022_Node000015" class="edge">
<title>Node22&#45;&gt;Node15</title>
<g id="a_edge35_Node000022_Node000015"><a xlink:title=" ">
<path fill="none" stroke="#63b8ff" d="M320.59,-165.48C334.47,-145.37 364.4,-95.05 348.08,-55.25 343.49,-44.04 334.57,-34.14 325.95,-26.53"/>
<polygon fill="#63b8ff" stroke="#63b8ff" points="328.42,-24.03 318.45,-20.43 324,-29.46 328.42,-24.03"/>
</a>
</g>
</g>
<!-- Node22&#45;&gt;Node16 -->
<g id="edge43_Node000022_Node000016" class="edge">
<title>Node22&#45;&gt;Node16</title>
<g id="a_edge43_Node000022_Node000016"><a xlink:title=" ">
<path fill="none" stroke="#63b8ff" d="M323.98,-165.5C344.28,-147.3 390.87,-105.52 416.81,-82.26"/>
<polygon fill="#63b8ff" stroke="#63b8ff" points="418.81,-85.17 423.92,-75.89 414.13,-79.96 418.81,-85.17"/>
</a>
</g>
</g>
<!-- Node23 -->
<g id="Node000023" class="node">
<title>Node23</title>
<g id="a_Node000023"><a xlink:href="pins_8hpp.xhtml" target="_top" xlink:title=" ">
<polygon fill="white" stroke="#666666" points="95.08,-129.75 43.08,-129.75 43.08,-110.5 95.08,-110.5 95.08,-129.75"/>
<text text-anchor="middle" x="69.08" y="-116.25" font-family="Helvetica,sans-Serif" font-size="10.00">pins.hpp</text>
</a>
</g>
</g>
<!-- Node22&#45;&gt;Node23 -->
<g id="edge37_Node000022_Node000023" class="edge">
<title>Node22&#45;&gt;Node23</title>
<g id="a_edge37_Node000022_Node000023"><a xlink:title=" ">
<path fill="none" stroke="#63b8ff" d="M272.24,-165.28C225.7,-155.17 151.18,-138.97 106.5,-129.26"/>
<polygon fill="#63b8ff" stroke="#63b8ff" points="107.28,-125.84 96.76,-127.14 105.79,-132.69 107.28,-125.84"/>
</a>
</g>
</g>
<!-- Node23&#45;&gt;Node15 -->
<g id="edge38_Node000023_Node000015" class="edge">
<title>Node23&#45;&gt;Node15</title>
<g id="a_edge38_Node000023_Node000015"><a xlink:title=" ">
<path fill="none" stroke="#63b8ff" d="M66.37,-110.03C62.92,-96.36 58.85,-70.52 72.08,-55.25 97.46,-25.96 211.8,-15.59 269.92,-12.18"/>
<polygon fill="#63b8ff" stroke="#63b8ff" points="269.78,-15.69 279.58,-11.65 269.4,-8.7 269.78,-15.69"/>
</a>
</g>
</g>
<!-- Node24 -->
<g id="Node000024" class="node">
<title>Node24</title>
<g id="a_Node000024"><a xlink:title=" ">
<polygon fill="#e0e0e0" stroke="#999999" points="182.83,-74.5 81.33,-74.5 81.33,-55.25 182.83,-55.25 182.83,-74.5"/>
<text text-anchor="middle" x="132.08" y="-61" font-family="Helvetica,sans-Serif" font-size="10.00">Adafruit_NeoPixel.h</text>
</a>
</g>
</g>
<!-- Node23&#45;&gt;Node24 -->
<g id="edge39_Node000023_Node000024" class="edge">
<title>Node23&#45;&gt;Node24</title>
<g id="a_edge39_Node000023_Node000024"><a xlink:title=" ">
<path fill="none" stroke="#63b8ff" d="M79.77,-110.09C88.78,-102.47 101.91,-91.37 112.76,-82.2"/>
<polygon fill="#63b8ff" stroke="#63b8ff" points="115.02,-84.88 120.4,-75.75 110.5,-79.53 115.02,-84.88"/>
</a>
</g>
</g>
<!-- Node25 -->
<g id="Node000025" class="node">
<title>Node25</title>
<g id="a_Node000025"><a xlink:href="_pins_config_8hpp.xhtml" target="_top" xlink:title=" ">
<polygon fill="white" stroke="#666666" points="281.33,-74.5 200.83,-74.5 200.83,-55.25 281.33,-55.25 281.33,-74.5"/>
<text text-anchor="middle" x="241.08" y="-61" font-family="Helvetica,sans-Serif" font-size="10.00">PinsConfig.hpp</text>
</a>
</g>
</g>
<!-- Node23&#45;&gt;Node25 -->
<g id="edge40_Node000023_Node000025" class="edge">
<title>Node23&#45;&gt;Node25</title>
<g id="a_edge40_Node000023_Node000025"><a xlink:title=" ">
<path fill="none" stroke="#63b8ff" d="M95.58,-110.92C123.65,-102.23 168.31,-88.41 200.75,-78.36"/>
<polygon fill="#63b8ff" stroke="#63b8ff" points="201.71,-81.73 210.22,-75.43 199.64,-75.04 201.71,-81.73"/>
</a>
</g>
</g>
<!-- Node25&#45;&gt;Node2 -->
<g id="edge42_Node000025_Node000002" class="edge">
<title>Node25&#45;&gt;Node2</title>
<g id="a_edge42_Node000025_Node000002"><a xlink:title=" ">
<path fill="none" stroke="#63b8ff" d="M281.67,-56.35C284.51,-55.94 287.34,-55.57 290.08,-55.25 580.37,-21.5 934.6,-12.94 1038.87,-11.09"/>
<polygon fill="#63b8ff" stroke="#63b8ff" points="1038.87,-14.59 1048.81,-10.92 1038.75,-7.59 1038.87,-14.59"/>
</a>
</g>
</g>
<!-- Node25&#45;&gt;Node15 -->
<g id="edge41_Node000025_Node000015" class="edge">
<title>Node25&#45;&gt;Node15</title>
<g id="a_edge41_Node000025_Node000015"><a xlink:title=" ">
<path fill="none" stroke="#63b8ff" d="M251.77,-54.84C260.78,-47.22 273.91,-36.12 284.76,-26.95"/>
<polygon fill="#63b8ff" stroke="#63b8ff" points="287.02,-29.63 292.4,-20.5 282.5,-24.28 287.02,-29.63"/>
</a>
</g>
</g>
<!-- Node29&#45;&gt;Node5 -->
<g id="edge56_Node000029_Node000005" class="edge">
<title>Node29&#45;&gt;Node5</title>
<g id="a_edge56_Node000029_Node000005"><a xlink:title=" ">
<path fill="none" stroke="#63b8ff" d="M734.27,-449.33C634.08,-445.96 394.91,-435.02 320.08,-406 237.76,-374.07 161.08,-375.18 161.08,-286.88 161.08,-286.88 161.08,-286.88 161.08,-174.38 161.08,-143.8 242.5,-101.21 288.44,-79.61"/>
<polygon fill="#63b8ff" stroke="#63b8ff" points="289.77,-82.85 297.38,-75.48 286.83,-76.5 289.77,-82.85"/>
</a>
</g>
</g>
<!-- Node29&#45;&gt;Node7 -->
<g id="edge59_Node000029_Node000007" class="edge">
<title>Node29&#45;&gt;Node7</title>
<g id="a_edge59_Node000029_Node000007"><a xlink:title=" ">
<path fill="none" stroke="#63b8ff" d="M823.91,-445.12C848.43,-439.57 876.84,-428.41 892.08,-406 914.09,-373.65 884.45,-328.91 864.18,-304.5"/>
<polygon fill="#63b8ff" stroke="#63b8ff" points="866.94,-302.34 857.74,-297.08 861.65,-306.93 866.94,-302.34"/>
</a>
</g>
</g>
<!-- Node29&#45;&gt;Node14 -->
<g id="edge61_Node000029_Node000014" class="edge">
<title>Node29&#45;&gt;Node14</title>
<g id="a_edge61_Node000029_Node000014"><a xlink:title=" ">
<path fill="none" stroke="#63b8ff" d="M734.49,-444.04C624.87,-427.24 351.08,-381.36 351.08,-342.12 351.08,-342.12 351.08,-342.12 351.08,-284.88 351.08,-209.47 438.9,-157.87 488.3,-134.8"/>
<polygon fill="#63b8ff" stroke="#63b8ff" points="489.46,-138.12 497.13,-130.81 486.57,-131.75 489.46,-138.12"/>
</a>
</g>
</g>
<!-- Node29&#45;&gt;Node15 -->
<g id="edge54_Node000029_Node000015" class="edge">
<title>Node29&#45;&gt;Node15</title>
<g id="a_edge54_Node000029_Node000015"><a xlink:title=" ">
<path fill="none" stroke="#63b8ff" d="M734.32,-449.37C625.01,-445.91 347.01,-434.48 259.08,-406 213.71,-391.3 201.31,-383.96 167.08,-350.75 64.36,-251.09 -66.15,-152.26 39.08,-55.25 72.19,-24.73 206.07,-14.86 269.91,-11.86"/>
<polygon fill="#63b8ff" stroke="#63b8ff" points="269.98,-15.36 279.82,-11.42 269.67,-8.36 269.98,-15.36"/>
</a>
</g>
</g>
<!-- Node29&#45;&gt;Node22 -->
<g id="edge60_Node000029_Node000022" class="edge">
<title>Node29&#45;&gt;Node22</title>
<g id="a_edge60_Node000029_Node000022"><a xlink:title=" ">
<path fill="none" stroke="#63b8ff" d="M734.44,-449.27C627.76,-445.58 364.82,-433.76 337.08,-406 280.51,-349.39 298.22,-241.32 308.73,-196.56"/>
<polygon fill="#63b8ff" stroke="#63b8ff" points="312.1,-197.51 311.13,-186.96 305.31,-195.81 312.1,-197.51"/>
</a>
</g>
</g>
<!-- Node29&#45;&gt;Node26 -->
<g id="edge55_Node000029_Node000026" class="edge">
<title>Node29&#45;&gt;Node26</title>
<g id="a_edge55_Node000029_Node000026"><a xlink:title=" ">
<path fill="none" stroke="#63b8ff" d="M823.73,-444.1C855.31,-437.96 897.62,-426.52 930.08,-406 985.82,-370.76 994.14,-351.42 1029.08,-295.5 1037.83,-281.51 1044.69,-264.07 1049.17,-250.95"/>
<polygon fill="#63b8ff" stroke="#63b8ff" points="1052.38,-252.37 1052.12,-241.78 1045.72,-250.22 1052.38,-252.37"/>
</a>
</g>
</g>
<!-- Node30 -->
<g id="Node000030" class="node">
<title>Node30</title>
<g id="a_Node000030"><a xlink:title=" ">
<polygon fill="#e0e0e0" stroke="#999999" points="800.21,-406 757.96,-406 757.96,-386.75 800.21,-386.75 800.21,-406"/>
<text text-anchor="middle" x="779.08" y="-392.5" font-family="Helvetica,sans-Serif" font-size="10.00">mutex</text>
</a>
</g>
</g>
<!-- Node29&#45;&gt;Node30 -->
<g id="edge57_Node000029_Node000030" class="edge">
<title>Node29&#45;&gt;Node30</title>
<g id="a_edge57_Node000029_Node000030"><a xlink:title=" ">
<path fill="none" stroke="#63b8ff" d="M779.08,-441.83C779.08,-435.32 779.08,-426.17 779.08,-417.87"/>
<polygon fill="#63b8ff" stroke="#63b8ff" points="782.58,-417.87 779.08,-407.87 775.58,-417.87 782.58,-417.87"/>
</a>
</g>
</g>
<!-- Node31 -->
<g id="Node000031" class="node">
<title>Node31</title>
<g id="a_Node000031"><a xlink:title=" ">
<polygon fill="#e0e0e0" stroke="#999999" points="883.46,-406 818.71,-406 818.71,-386.75 883.46,-386.75 883.46,-406"/>
<text text-anchor="middle" x="851.08" y="-392.5" font-family="Helvetica,sans-Serif" font-size="10.00">EEPROM.h</text>
</a>
</g>
</g>
<!-- Node29&#45;&gt;Node31 -->
<g id="edge58_Node000029_Node000031" class="edge">
<title>Node29&#45;&gt;Node31</title>
<g id="a_edge58_Node000029_Node000031"><a xlink:title=" ">
<path fill="none" stroke="#63b8ff" d="M791.3,-441.59C801.91,-433.74 817.52,-422.2 830.13,-412.87"/>
<polygon fill="#63b8ff" stroke="#63b8ff" points="831.87,-415.94 837.83,-407.17 827.71,-410.31 831.87,-415.94"/>
</a>
</g>
</g>
<!-- Node32 -->
<g id="Node000032" class="node">
<title>Node32</title>
<g id="a_Node000032"><a xlink:href="_cached_cards_8hpp.xhtml" target="_top" xlink:title=" ">
<polygon fill="white" stroke="#666666" points="997.33,-295.5 904.83,-295.5 904.83,-276.25 997.33,-276.25 997.33,-295.5"/>
<text text-anchor="middle" x="951.08" y="-282" font-family="Helvetica,sans-Serif" font-size="10.00">CachedCards.hpp</text>
</a>
</g>
</g>
<!-- Node29&#45;&gt;Node32 -->
<g id="edge62_Node000029_Node000032" class="edge">
<title>Node29&#45;&gt;Node32</title>
<g id="a_edge62_Node000029_Node000032"><a xlink:title=" ">
<path fill="none" stroke="#63b8ff" d="M823.74,-445.28C851.57,-439.77 886.29,-428.6 909.08,-406 936.38,-378.93 945.99,-333.07 949.33,-306.85"/>
<polygon fill="#63b8ff" stroke="#63b8ff" points="952.78,-307.54 950.36,-297.23 945.82,-306.8 952.78,-307.54"/>
</a>
</g>
</g>
<!-- Node29&#45;&gt;Node33 -->
<g id="edge68_Node000029_Node000033" class="edge">
<title>Node29&#45;&gt;Node33</title>
<g id="a_edge68_Node000029_Node000033"><a xlink:title=" ">
<path fill="none" stroke="#63b8ff" d="M764.83,-441.59C752.28,-433.64 733.75,-421.89 718.94,-412.5"/>
<polygon fill="#63b8ff" stroke="#63b8ff" points="721,-409.66 710.68,-407.26 717.25,-415.57 721,-409.66"/>
</a>
</g>
</g>
<!-- Node32&#45;&gt;Node2 -->
<g id="edge63_Node000032_Node000002" class="edge">
<title>Node32&#45;&gt;Node2</title>
<g id="a_edge63_Node000032_Node000002"><a xlink:title=" ">
<path fill="none" stroke="#63b8ff" d="M960.47,-275.88C988.81,-248.46 1072.18,-165.61 1083.08,-129.75 1092.71,-98.07 1088.1,-87.98 1083.08,-55.25 1081.81,-46.93 1079.27,-38.03 1076.7,-30.38"/>
<polygon fill="#63b8ff" stroke="#63b8ff" points="1080.03,-29.29 1073.33,-21.08 1073.45,-31.68 1080.03,-29.29"/>
</a>
</g>
</g>
<!-- Node32&#45;&gt;Node9 -->
<g id="edge65_Node000032_Node000009" class="edge">
<title>Node32&#45;&gt;Node9</title>
<g id="a_edge65_Node000032_Node000009"><a xlink:title=" ">
<path fill="none" stroke="#63b8ff" d="M906.68,-275.78C859.69,-266.16 785.82,-251.03 737.92,-241.22"/>
<polygon fill="#63b8ff" stroke="#63b8ff" points="738.91,-237.85 728.41,-239.27 737.51,-244.71 738.91,-237.85"/>
</a>
</g>
</g>
<!-- Node32&#45;&gt;Node11 -->
<g id="edge67_Node000032_Node000011" class="edge">
<title>Node32&#45;&gt;Node11</title>
<g id="a_edge67_Node000032_Node000011"><a xlink:title=" ">
<path fill="none" stroke="#63b8ff" d="M937.88,-275.81C910.86,-257.26 848.98,-214.76 815.53,-191.79"/>
<polygon fill="#63b8ff" stroke="#63b8ff" points="817.6,-188.97 807.38,-186.19 813.64,-194.74 817.6,-188.97"/>
</a>
</g>
</g>
<!-- Node32&#45;&gt;Node14 -->
<g id="edge66_Node000032_Node000014" class="edge">
<title>Node32&#45;&gt;Node14</title>
<g id="a_edge66_Node000032_Node000014"><a xlink:title=" ">
<path fill="none" stroke="#63b8ff" d="M904.58,-277.54C901.7,-277.1 898.85,-276.67 896.08,-276.25 785.07,-259.55 747.06,-289.3 646.08,-240.25 597.07,-216.44 554.63,-166.38 534.15,-139.36"/>
<polygon fill="#63b8ff" stroke="#63b8ff" points="537.06,-137.41 528.31,-131.45 531.43,-141.57 537.06,-137.41"/>
</a>
</g>
</g>
<!-- Node32&#45;&gt;Node26 -->
<g id="edge64_Node000032_Node000026" class="edge">
<title>Node32&#45;&gt;Node26</title>
<g id="a_edge64_Node000032_Node000026"><a xlink:title=" ">
<path fill="none" stroke="#63b8ff" d="M968.72,-275.84C984.71,-267.66 1008.54,-255.46 1027.12,-245.94"/>
<polygon fill="#63b8ff" stroke="#63b8ff" points="1028.7,-249.07 1036.01,-241.39 1025.51,-242.83 1028.7,-249.07"/>
</a>
</g>
</g>
<!-- Node33&#45;&gt;Node5 -->
<g id="edge71_Node000033_Node000005" class="edge">
<title>Node33&#45;&gt;Node5</title>
<g id="a_edge71_Node000033_Node000005"><a xlink:title=" ">
<path fill="none" stroke="#63b8ff" d="M650.49,-391.07C566.79,-380.62 385.51,-346.39 284.08,-240.25 243.32,-197.6 224.41,-160.27 256.08,-110.5 264.07,-97.96 276.96,-87.9 289.01,-80.54"/>
<polygon fill="#63b8ff" stroke="#63b8ff" points="290.52,-83.71 297.49,-75.74 287.07,-77.62 290.52,-83.71"/>
</a>
</g>
</g>
<!-- Node33&#45;&gt;Node7 -->
<g id="edge73_Node000033_Node000007" class="edge">
<title>Node33&#45;&gt;Node7</title>
<g id="a_edge73_Node000033_Node000007"><a xlink:title=" ">
<path fill="none" stroke="#63b8ff" d="M706.12,-386.38C721.81,-373.71 751.59,-350.09 778.08,-331.5 792.84,-321.15 809.89,-310.25 823.47,-301.82"/>
<polygon fill="#63b8ff" stroke="#63b8ff" points="825.11,-304.92 831.79,-296.7 821.44,-298.96 825.11,-304.92"/>
</a>
</g>
</g>
<!-- Node33&#45;&gt;Node16 -->
<g id="edge74_Node000033_Node000016" class="edge">
<title>Node33&#45;&gt;Node16</title>
<g id="a_edge74_Node000033_Node000016"><a xlink:title=" ">
<path fill="none" stroke="#63b8ff" d="M650.61,-386.63C602.05,-374.67 525.68,-348.38 484.08,-295.5 434.29,-232.21 432.17,-129.85 433.79,-86.41"/>
<polygon fill="#63b8ff" stroke="#63b8ff" points="437.29,-86.61 434.29,-76.45 430.3,-86.26 437.29,-86.61"/>
</a>
</g>
</g>
<!-- Node33&#45;&gt;Node20 -->
<g id="edge75_Node000033_Node000020" class="edge">
<title>Node33&#45;&gt;Node20</title>
<g id="a_edge75_Node000033_Node000020"><a xlink:title=" ">
<path fill="none" stroke="#63b8ff" d="M687.65,-386.58C681.5,-379.3 672.57,-368.73 664.96,-359.73"/>
<polygon fill="#63b8ff" stroke="#63b8ff" points="667.78,-357.64 658.65,-352.27 662.43,-362.16 667.78,-357.64"/>
</a>
</g>
</g>
<!-- Node33&#45;&gt;Node26 -->
<g id="edge69_Node000033_Node000026" class="edge">
<title>Node33&#45;&gt;Node26</title>
<g id="a_edge69_Node000033_Node000026"><a xlink:title=" ">
<path fill="none" stroke="#63b8ff" d="M732.8,-386.31C805.35,-368.38 961.16,-327.37 1006.08,-295.5 1022.8,-283.64 1036.44,-264.41 1045.04,-250.15"/>
<polygon fill="#63b8ff" stroke="#63b8ff" points="1047.94,-252.14 1049.86,-241.72 1041.86,-248.67 1047.94,-252.14"/>
</a>
</g>
</g>
<!-- Node33&#45;&gt;Node27 -->
<g id="edge72_Node000033_Node000027" class="edge">
<title>Node33&#45;&gt;Node27</title>
<g id="a_edge72_Node000033_Node000027"><a xlink:title=" ">
<path fill="none" stroke="#63b8ff" d="M700.89,-386.5C712.44,-368.85 738.48,-329.05 753.93,-305.45"/>
<polygon fill="#63b8ff" stroke="#63b8ff" points="756.82,-307.43 759.36,-297.14 750.96,-303.59 756.82,-307.43"/>
</a>
</g>
</g>
<!-- Node34 -->
<g id="Node000034" class="node">
<title>Node34</title>
<g id="a_Node000034"><a xlink:title=" ">
<polygon fill="#e0e0e0" stroke="#999999" points="829.21,-350.75 786.96,-350.75 786.96,-331.5 829.21,-331.5 829.21,-350.75"/>
<text text-anchor="middle" x="808.08" y="-337.25" font-family="Helvetica,sans-Serif" font-size="10.00">queue</text>
</a>
</g>
</g>
<!-- Node33&#45;&gt;Node34 -->
<g id="edge70_Node000033_Node000034" class="edge">
<title>Node33&#45;&gt;Node34</title>
<g id="a_edge70_Node000033_Node000034"><a xlink:title=" ">
<path fill="none" stroke="#63b8ff" d="M714.25,-386.34C731.86,-378.04 758.24,-365.61 778.54,-356.04"/>
<polygon fill="#63b8ff" stroke="#63b8ff" points="779.9,-359.28 787.45,-351.85 776.91,-352.94 779.9,-359.28"/>
</a>
</g>
</g>
</g>
</svg>
