<?xml version="1.0" encoding="UTF-8" standalone="no"?>
<!DOCTYPE svg PUBLIC "-//W3C//DTD SVG 1.1//EN"
 "http://www.w3.org/Graphics/SVG/1.1/DTD/svg11.dtd">
<!-- Generated by graphviz version 9.0.0 (20230911.1827)
 -->
<!-- Title: FabBackend.hpp Pages: 1 -->
<!--zoomable 193 -->

<svg id="main" version="1.1" xmlns="http://www.w3.org/2000/svg" xmlns:xlink="http://www.w3.org/1999/xlink" xml:space="preserve" onload="init(evt)">
<style type="text/css"><![CDATA[
.node, .edge {opacity: 0.7;}
.node.selected, .edge.selected {opacity: 1;}
.edge:hover path { stroke: red; }
.edge:hover polygon { stroke: red; fill: red; }
]]></style>

<defs>
  <circle id="rim" cx="0" cy="0" r="7"/>
  <circle id="rim2" cx="0" cy="0" r="3.5"/>
  <g id="zoomPlus">
    <use xlink:href="#rim" fill="#404040"><set attributeName="fill" to="#808080" begin="zoomplus.mouseover" end="zoomplus.mouseout"/></use>
    <path d="M-4,0h8M0,-4v8" fill="none" stroke="white" stroke-width="1.5" pointer-events="none"/>
  </g>
  <g id="zoomMin">
    <use xlink:href="#rim" fill="#404040"><set attributeName="fill" to="#808080" begin="zoomminus.mouseover" end="zoomminus.mouseout"/></use>
    <path d="M-4,0h8" fill="none" stroke="white" stroke-width="1.5" pointer-events="none"/>
  </g>
  <g id="arrowUp" transform="translate(30 24)">
    <use xlink:href="#rim"/>
    <path pointer-events="none" fill="none" stroke="white" stroke-width="1.5" d="M0,-3.0v7 M-2.5,-0.5L0,-3.0L2.5,-0.5"/>
  </g>
  <g id="arrowRight" transform="rotate(90) translate(36 -43)">
    <use xlink:href="#rim"/>
    <path pointer-events="none" fill="none" stroke="white" stroke-width="1.5" d="M0,-3.0v7 M-2.5,-0.5L0,-3.0L2.5,-0.5"/>
  </g>
  <g id="arrowDown" transform="rotate(180) translate(-30 -48)">
    <use xlink:href="#rim"/>
    <path pointer-events="none" fill="none" stroke="white" stroke-width="1.5" d="M0,-3.0v7 M-2.5,-0.5L0,-3.0L2.5,-0.5"/>
  </g>
  <g id="arrowLeft" transform="rotate(270) translate(-36 17)">
    <use xlink:href="#rim"/>
    <path pointer-events="none" fill="none" stroke="white" stroke-width="1.5" d="M0,-3.0v7 M-2.5,-0.5L0,-3.0L2.5,-0.5"/>
  </g>
  <g id="resetDef">
    <use xlink:href="#rim2" fill="#404040"><set attributeName="fill" to="#808080" begin="reset.mouseover" end="reset.mouseout"/></use>
  </g>
</defs>
<script type="application/ecmascript">
var viewWidth = 913;
var viewHeight = 193;
var sectionId = 'dynsection-1';
</script>
<script type="application/ecmascript" xlink:href="svg.min.js"/>
<svg id="graph" class="graph">
<g id="viewport">
<title>FabBackend.hpp</title>
<!-- Node1 -->
<g id="Node000001" class="node">
<title>Node1</title>
<g id="a_Node000001"><a xlink:title=" ">
<polygon fill="#999999" stroke="#666666" points="553.12,-185 464.38,-185 464.38,-165.75 553.12,-165.75 553.12,-185"/>
<text text-anchor="middle" x="508.75" y="-171.5" font-family="Helvetica,sans-Serif" font-size="10.00">FabBackend.hpp</text>
</a>
</g>
</g>
<!-- Node2 -->
<g id="Node000002" class="node">
<title>Node2</title>
<g id="a_Node000002"><a xlink:href="_auth_provider_8cpp.xhtml" target="_top" xlink:title=" ">
<polygon fill="white" stroke="#666666" points="237.88,-129.75 147.62,-129.75 147.62,-110.5 237.88,-110.5 237.88,-129.75"/>
<text text-anchor="middle" x="192.75" y="-116.25" font-family="Helvetica,sans-Serif" font-size="10.00">AuthProvider.cpp</text>
</a>
</g>
</g>
<!-- Node1&#45;&gt;Node2 -->
<g id="edge1_Node000001_Node000002" class="edge">
<title>Node1&#45;&gt;Node2</title>
<g id="a_edge1_Node000001_Node000002"><a xlink:title=" ">
<path fill="none" stroke="#63b8ff" d="M453.16,-165.01C392.02,-154.7 294.91,-138.34 238.15,-128.78"/>
<polygon fill="#63b8ff" stroke="#63b8ff" points="452.21,-168.4 462.65,-166.61 453.37,-161.49 452.21,-168.4"/>
</a>
</g>
</g>
<!-- Node3 -->
<g id="Node000003" class="node">
<title>Node3</title>
<g id="a_Node000003"><a xlink:href="_board_logic_8cpp.xhtml" target="_top" xlink:title=" ">
<polygon fill="white" stroke="#666666" points="83.5,-74.5 0,-74.5 0,-55.25 83.5,-55.25 83.5,-74.5"/>
<text text-anchor="middle" x="41.75" y="-61" font-family="Helvetica,sans-Serif" font-size="10.00">BoardLogic.cpp</text>
</a>
</g>
</g>
<!-- Node1&#45;&gt;Node3 -->
<g id="edge2_Node000001_Node000003" class="edge">
<title>Node1&#45;&gt;Node3</title>
<g id="a_edge2_Node000001_Node000003"><a xlink:title=" ">
<path fill="none" stroke="#63b8ff" d="M452.84,-168.79C405.57,-162.83 336.65,-151.19 279.75,-129.75 263.86,-123.76 262.57,-116.66 246.75,-110.5 217.47,-99.1 134.57,-82.8 83.61,-73.38"/>
<polygon fill="#63b8ff" stroke="#63b8ff" points="452.22,-172.24 462.57,-169.97 453.06,-165.29 452.22,-172.24"/>
</a>
</g>
</g>
<!-- Node4 -->
<g id="Node000004" class="node">
<title>Node4</title>
<g id="a_Node000004"><a xlink:href="_board_logic_8hpp.xhtml" target="_top" xlink:title=" ">
<polygon fill="white" stroke="#666666" points="415.5,-129.75 332,-129.75 332,-110.5 415.5,-110.5 415.5,-129.75"/>
<text text-anchor="middle" x="373.75" y="-116.25" font-family="Helvetica,sans-Serif" font-size="10.00">BoardLogic.hpp</text>
</a>
</g>
</g>
<!-- Node1&#45;&gt;Node4 -->
<g id="edge3_Node000001_Node000004" class="edge">
<title>Node1&#45;&gt;Node4</title>
<g id="a_edge3_Node000001_Node000004"><a xlink:title=" ">
<path fill="none" stroke="#63b8ff" d="M475.26,-161.16C450.82,-151.52 418.33,-138.71 396.76,-130.2"/>
<polygon fill="#63b8ff" stroke="#63b8ff" points="473.85,-164.37 484.44,-164.79 476.42,-157.86 473.85,-164.37"/>
</a>
</g>
</g>
<!-- Node6 -->
<g id="Node000006" class="node">
<title>Node6</title>
<g id="a_Node000006"><a xlink:href="globals_8hpp.xhtml" target="_top" xlink:title=" ">
<polygon fill="white" stroke="#666666" points="166.12,-74.5 101.38,-74.5 101.38,-55.25 166.12,-55.25 166.12,-74.5"/>
<text text-anchor="middle" x="133.75" y="-61" font-family="Helvetica,sans-Serif" font-size="10.00">globals.hpp</text>
</a>
</g>
</g>
<!-- Node1&#45;&gt;Node6 -->
<g id="edge18_Node000001_Node000006" class="edge">
<title>Node1&#45;&gt;Node6</title>
<g id="a_edge18_Node000001_Node000006"><a xlink:title=" ">
<path fill="none" stroke="#63b8ff" d="M452.96,-163.81C415.61,-156.06 365.63,-144.35 322.75,-129.75 302.93,-123 299.36,-117.85 279.75,-110.5 241.53,-96.17 196.46,-82.93 166.61,-74.66"/>
<polygon fill="#63b8ff" stroke="#63b8ff" points="452.14,-167.22 462.64,-165.79 453.54,-160.36 452.14,-167.22"/>
</a>
</g>
</g>
<!-- Node10 -->
<g id="Node000010" class="node">
<title>Node10</title>
<g id="a_Node000010"><a xlink:href="test__logic_8cpp.xhtml" target="_top" xlink:title=" ">
<polygon fill="white" stroke="#666666" points="480.75,-19.25 404.75,-19.25 404.75,0 480.75,0 480.75,-19.25"/>
<text text-anchor="middle" x="442.75" y="-5.75" font-family="Helvetica,sans-Serif" font-size="10.00">test_logic.cpp</text>
</a>
</g>
</g>
<!-- Node1&#45;&gt;Node10 -->
<g id="edge19_Node000001_Node000010" class="edge">
<title>Node1&#45;&gt;Node10</title>
<g id="a_edge19_Node000001_Node000010"><a xlink:title=" ">
<path fill="none" stroke="#63b8ff" d="M556.69,-162.29C620.95,-143.85 722.42,-105.45 680.75,-55.25 655.78,-25.16 541.46,-15.24 480.8,-12.06"/>
<polygon fill="#63b8ff" stroke="#63b8ff" points="556.09,-158.83 547.4,-164.89 557.97,-165.57 556.09,-158.83"/>
</a>
</g>
</g>
<!-- Node11 -->
<g id="Node000011" class="node">
<title>Node11</title>
<g id="a_Node000011"><a xlink:href="test__mqtt_8cpp.xhtml" target="_top" xlink:title=" ">
<polygon fill="white" stroke="#666666" points="546.38,-74.5 471.12,-74.5 471.12,-55.25 546.38,-55.25 546.38,-74.5"/>
<text text-anchor="middle" x="508.75" y="-61" font-family="Helvetica,sans-Serif" font-size="10.00">test_mqtt.cpp</text>
</a>
</g>
</g>
<!-- Node1&#45;&gt;Node11 -->
<g id="edge20_Node000001_Node000011" class="edge">
<title>Node1&#45;&gt;Node11</title>
<g id="a_edge20_Node000001_Node000011"><a xlink:title=" ">
<path fill="none" stroke="#63b8ff" d="M508.75,-154.03C508.75,-130.3 508.75,-92.14 508.75,-74.88"/>
<polygon fill="#63b8ff" stroke="#63b8ff" points="505.25,-153.98 508.75,-163.98 512.25,-153.98 505.25,-153.98"/>
</a>
</g>
</g>
<!-- Node12 -->
<g id="Node000012" class="node">
<title>Node12</title>
<g id="a_Node000012"><a xlink:href="test__savedconfig_8cpp.xhtml" target="_top" xlink:title=" ">
<polygon fill="white" stroke="#666666" points="671.5,-74.5 564,-74.5 564,-55.25 671.5,-55.25 671.5,-74.5"/>
<text text-anchor="middle" x="617.75" y="-61" font-family="Helvetica,sans-Serif" font-size="10.00">test_savedconfig.cpp</text>
</a>
</g>
</g>
<!-- Node1&#45;&gt;Node12 -->
<g id="edge21_Node000001_Node000012" class="edge">
<title>Node1&#45;&gt;Node12</title>
<g id="a_edge21_Node000001_Node000012"><a xlink:title=" ">
<path fill="none" stroke="#63b8ff" d="M525.67,-157.53C549.07,-134.24 590.48,-93.02 608.71,-74.88"/>
<polygon fill="#63b8ff" stroke="#63b8ff" points="523.36,-154.89 518.74,-164.43 528.3,-159.85 523.36,-154.89"/>
</a>
</g>
</g>
<!-- Node13 -->
<g id="Node000013" class="node">
<title>Node13</title>
<g id="a_Node000013"><a xlink:href="_fab_backend_8cpp.xhtml" target="_top" xlink:title=" ">
<polygon fill="white" stroke="#666666" points="816.12,-129.75 727.38,-129.75 727.38,-110.5 816.12,-110.5 816.12,-129.75"/>
<text text-anchor="middle" x="771.75" y="-116.25" font-family="Helvetica,sans-Serif" font-size="10.00">FabBackend.cpp</text>
</a>
</g>
</g>
<!-- Node1&#45;&gt;Node13 -->
<g id="edge16_Node000001_Node000013" class="edge">
<title>Node1&#45;&gt;Node13</title>
<g id="a_edge16_Node000001_Node000013"><a xlink:title=" ">
<path fill="none" stroke="#63b8ff" d="M564.58,-163.07C612.96,-153.27 682.06,-139.28 726.92,-130.2"/>
<polygon fill="#63b8ff" stroke="#63b8ff" points="563.95,-159.63 554.85,-165.04 565.34,-166.49 563.95,-159.63"/>
</a>
</g>
</g>
<!-- Node14 -->
<g id="Node000014" class="node">
<title>Node14</title>
<g id="a_Node000014"><a xlink:href="_machine_8cpp.xhtml" target="_top" xlink:title=" ">
<polygon fill="white" stroke="#666666" points="905.12,-129.75 834.38,-129.75 834.38,-110.5 905.12,-110.5 905.12,-129.75"/>
<text text-anchor="middle" x="869.75" y="-116.25" font-family="Helvetica,sans-Serif" font-size="10.00">Machine.cpp</text>
</a>
</g>
</g>
<!-- Node1&#45;&gt;Node14 -->
<g id="edge17_Node000001_Node000014" class="edge">
<title>Node1&#45;&gt;Node14</title>
<g id="a_edge17_Node000001_Node000014"><a xlink:title=" ">
<path fill="none" stroke="#63b8ff" d="M564.91,-167.29C628.19,-159.11 734.07,-144.83 824.75,-129.75 827.73,-129.25 830.82,-128.72 833.92,-128.16"/>
<polygon fill="#63b8ff" stroke="#63b8ff" points="564.57,-163.81 555.1,-168.55 565.46,-170.75 564.57,-163.81"/>
</a>
</g>
</g>
<!-- Node4&#45;&gt;Node3 -->
<g id="edge4_Node000004_Node000003" class="edge">
<title>Node4&#45;&gt;Node3</title>
<g id="a_edge4_Node000004_Node000003"><a xlink:title=" ">
<path fill="none" stroke="#63b8ff" d="M320.67,-110.86C264.16,-102.02 172.1,-87.51 92.75,-74.5 89.83,-74.02 86.81,-73.52 83.77,-73.02"/>
<polygon fill="#63b8ff" stroke="#63b8ff" points="319.92,-114.28 330.34,-112.37 321,-107.37 319.92,-114.28"/>
</a>
</g>
</g>
<!-- Node5 -->
<g id="Node000005" class="node">
<title>Node5</title>
<g id="a_Node000005"><a xlink:href="_o_t_a_8cpp.xhtml" target="_top" xlink:title=" ">
<polygon fill="white" stroke="#666666" points="238.88,-74.5 184.62,-74.5 184.62,-55.25 238.88,-55.25 238.88,-74.5"/>
<text text-anchor="middle" x="211.75" y="-61" font-family="Helvetica,sans-Serif" font-size="10.00">OTA.cpp</text>
</a>
</g>
</g>
<!-- Node4&#45;&gt;Node5 -->
<g id="edge5_Node000004_Node000005" class="edge">
<title>Node4&#45;&gt;Node5</title>
<g id="a_edge5_Node000004_Node000005"><a xlink:title=" ">
<path fill="none" stroke="#63b8ff" d="M335.52,-106.56C305.99,-96.85 265.83,-83.65 239.37,-74.95"/>
<polygon fill="#63b8ff" stroke="#63b8ff" points="334.24,-109.82 344.83,-109.62 336.42,-103.17 334.24,-109.82"/>
</a>
</g>
</g>
<!-- Node4&#45;&gt;Node6 -->
<g id="edge6_Node000004_Node000006" class="edge">
<title>Node4&#45;&gt;Node6</title>
<g id="a_edge6_Node000004_Node000006"><a xlink:title=" ">
<path fill="none" stroke="#63b8ff" d="M321.55,-107.54C274.37,-97.08 206.39,-81.99 166.47,-73.13"/>
<polygon fill="#63b8ff" stroke="#63b8ff" points="320.77,-110.95 331.29,-109.7 322.28,-104.12 320.77,-110.95"/>
</a>
</g>
</g>
<!-- Node7 -->
<g id="Node000007" class="node">
<title>Node7</title>
<g id="a_Node000007"><a xlink:href="main_8cpp.xhtml" target="_top" xlink:title=" ">
<polygon fill="white" stroke="#666666" points="218.25,-19.25 163.25,-19.25 163.25,0 218.25,0 218.25,-19.25"/>
<text text-anchor="middle" x="190.75" y="-5.75" font-family="Helvetica,sans-Serif" font-size="10.00">main.cpp</text>
</a>
</g>
</g>
<!-- Node4&#45;&gt;Node7 -->
<g id="edge8_Node000004_Node000007" class="edge">
<title>Node4&#45;&gt;Node7</title>
<g id="a_edge8_Node000004_Node000007"><a xlink:title=" ">
<path fill="none" stroke="#63b8ff" d="M348.56,-104.19C310.05,-81.36 237.68,-38.45 206.12,-19.74"/>
<polygon fill="#63b8ff" stroke="#63b8ff" points="346.77,-107.2 357.16,-109.29 350.34,-101.18 346.77,-107.2"/>
</a>
</g>
</g>
<!-- Node8 -->
<g id="Node000008" class="node">
<title>Node8</title>
<g id="a_Node000008"><a xlink:href="test__common_8cpp.xhtml" target="_top" xlink:title=" ">
<polygon fill="white" stroke="#666666" points="368.38,-19.25 275.12,-19.25 275.12,0 368.38,0 368.38,-19.25"/>
<text text-anchor="middle" x="321.75" y="-5.75" font-family="Helvetica,sans-Serif" font-size="10.00">test_common.cpp</text>
</a>
</g>
</g>
<!-- Node4&#45;&gt;Node8 -->
<g id="edge9_Node000004_Node000008" class="edge">
<title>Node4&#45;&gt;Node8</title>
<g id="a_edge9_Node000004_Node000008"><a xlink:title=" ">
<path fill="none" stroke="#63b8ff" d="M348.66,-103.35C339.07,-95.88 329.14,-86.04 323.75,-74.5 315.3,-56.4 317.75,-32.18 319.94,-19.39"/>
<polygon fill="#63b8ff" stroke="#63b8ff" points="346.57,-106.16 356.74,-109.13 350.64,-100.47 346.57,-106.16"/>
</a>
</g>
</g>
<!-- Node9 -->
<g id="Node000009" class="node">
<title>Node9</title>
<g id="a_Node000009"><a xlink:href="test__common_8h.xhtml" target="_top" xlink:title=" ">
<polygon fill="white" stroke="#666666" points="415.12,-74.5 332.38,-74.5 332.38,-55.25 415.12,-55.25 415.12,-74.5"/>
<text text-anchor="middle" x="373.75" y="-61" font-family="Helvetica,sans-Serif" font-size="10.00">test_common.h</text>
</a>
</g>
</g>
<!-- Node4&#45;&gt;Node9 -->
<g id="edge10_Node000004_Node000009" class="edge">
<title>Node4&#45;&gt;Node9</title>
<g id="a_edge10_Node000004_Node000009"><a xlink:title=" ">
<path fill="none" stroke="#63b8ff" d="M373.75,-98.88C373.75,-90.59 373.75,-81.42 373.75,-74.86"/>
<polygon fill="#63b8ff" stroke="#63b8ff" points="370.25,-98.82 373.75,-108.82 377.25,-98.82 370.25,-98.82"/>
</a>
</g>
</g>
<!-- Node4&#45;&gt;Node10 -->
<g id="edge13_Node000004_Node000010" class="edge">
<title>Node4&#45;&gt;Node10</title>
<g id="a_edge13_Node000004_Node000010"><a xlink:title=" ">
<path fill="none" stroke="#63b8ff" d="M396.66,-103.2C406.23,-95.51 416.73,-85.55 423.75,-74.5 434.91,-56.92 439.77,-32.48 441.67,-19.52"/>
<polygon fill="#63b8ff" stroke="#63b8ff" points="394.62,-100.35 388.76,-109.17 398.85,-105.93 394.62,-100.35"/>
</a>
</g>
</g>
<!-- Node4&#45;&gt;Node11 -->
<g id="edge14_Node000004_Node000011" class="edge">
<title>Node4&#45;&gt;Node11</title>
<g id="a_edge14_Node000004_Node000011"><a xlink:title=" ">
<path fill="none" stroke="#63b8ff" d="M407.24,-105.91C431.68,-96.27 464.17,-83.46 485.74,-74.95"/>
<polygon fill="#63b8ff" stroke="#63b8ff" points="406.08,-102.61 398.06,-109.54 408.65,-109.12 406.08,-102.61"/>
</a>
</g>
</g>
<!-- Node4&#45;&gt;Node12 -->
<g id="edge15_Node000004_Node000012" class="edge">
<title>Node4&#45;&gt;Node12</title>
<g id="a_edge15_Node000004_Node000012"><a xlink:title=" ">
<path fill="none" stroke="#63b8ff" d="M426.4,-107.63C471.28,-97.84 534.91,-83.95 576.25,-74.93"/>
<polygon fill="#63b8ff" stroke="#63b8ff" points="425.92,-104.16 416.9,-109.71 427.41,-111 425.92,-104.16"/>
</a>
</g>
</g>
<!-- Node6&#45;&gt;Node7 -->
<g id="edge7_Node000006_Node000007" class="edge">
<title>Node6&#45;&gt;Node7</title>
<g id="a_edge7_Node000006_Node000007"><a xlink:title=" ">
<path fill="none" stroke="#63b8ff" d="M151.7,-47.11C161.48,-37.97 173.19,-27.03 181.22,-19.52"/>
<polygon fill="#63b8ff" stroke="#63b8ff" points="149.44,-44.42 144.53,-53.81 154.22,-49.54 149.44,-44.42"/>
</a>
</g>
</g>
<!-- Node9&#45;&gt;Node8 -->
<g id="edge11_Node000009_Node000008" class="edge">
<title>Node9&#45;&gt;Node8</title>
<g id="a_edge11_Node000009_Node000008"><a xlink:title=" ">
<path fill="none" stroke="#63b8ff" d="M357.34,-47.07C348.46,-37.98 337.84,-27.1 330.52,-19.61"/>
<polygon fill="#63b8ff" stroke="#63b8ff" points="354.62,-49.29 364.11,-54 359.62,-44.4 354.62,-49.29"/>
</a>
</g>
</g>
<!-- Node9&#45;&gt;Node10 -->
<g id="edge12_Node000009_Node000010" class="edge">
<title>Node9&#45;&gt;Node10</title>
<g id="a_edge12_Node000009_Node000010"><a xlink:title=" ">
<path fill="none" stroke="#63b8ff" d="M394.4,-47.94C406.45,-38.64 421.2,-27.26 431.22,-19.52"/>
<polygon fill="#63b8ff" stroke="#63b8ff" points="392.43,-45.04 386.65,-53.92 396.71,-50.58 392.43,-45.04"/>
</a>
</g>
</g>
</g>
</svg>

<g id="navigator" transform="translate(0 0)" fill="#404254">
  <rect fill="#f2f5e9" fill-opacity="0.5" stroke="#606060" stroke-width=".5" x="0" y="0" width="60" height="60"/>
  <use id="zoomplus" xlink:href="#zoomPlus" x="17" y="9" onmousedown="handleZoom(evt,'in')"/>
  <use id="zoomminus" xlink:href="#zoomMin" x="42" y="9" onmousedown="handleZoom(evt,'out')"/>
  <use id="reset" xlink:href="#resetDef" x="30" y="36" onmousedown="handleReset()"/>
   <use id="arrowup" xlink:href="#arrowUp" x="0" y="0" onmousedown="handlePan(0,-1)"/>
  <use id="arrowright" xlink:href="#arrowRight" x="0" y="0" onmousedown="handlePan(1,0)"/>
  <use id="arrowdown" xlink:href="#arrowDown" x="0" y="0" onmousedown="handlePan(0,1)"/>
  <use id="arrowleft" xlink:href="#arrowLeft" x="0" y="0" onmousedown="handlePan(-1,0)"/>
</g>
<svg viewBox="0 0 15 15" width="100%" height="30px" preserveAspectRatio="xMaxYMin meet">
 <g id="arrow_out" transform="scale(0.3 0.3)">
  <a xlink:href="_fab_backend_8hpp__dep__incl_org.svg" target="_base">
   <rect id="button" ry="5" rx="5" y="6" x="6" height="38" width="38"
        fill="#f2f5e9" fill-opacity="0.5" stroke="#606060" stroke-width="1.0"/>
   <path id="arrow"
     d="M 11.500037,31.436501 C 11.940474,20.09759 22.043105,11.32322 32.158766,21.979434 L 37.068811,17.246167 C 37.068811,17.246167 37.088388,32 37.088388,32 L 22.160133,31.978069 C 22.160133,31.978069 26.997745,27.140456 26.997745,27.140456 C 18.528582,18.264221 13.291696,25.230495 11.500037,31.436501 z"
     style="fill:#404040;"/>
  </a>
 </g>
</svg>

<style type='text/css'>
<![CDATA[
[data-mouse-over-selected='false'] { opacity: 0.7; }
[data-mouse-over-selected='true']  { opacity: 1.0; }
]]>
</style>
<script type="application/ecmascript"><![CDATA[
document.addEventListener('DOMContentLoaded', (event) => {
  highlightEdges();
  highlightAdjacentNodes();
});
]]></script>
</svg>
