<?xml version="1.0" encoding="UTF-8" standalone="no"?>
<!DOCTYPE svg PUBLIC "-//W3C//DTD SVG 1.1//EN"
 "http://www.w3.org/Graphics/SVG/1.1/DTD/svg11.dtd">
<!-- Generated by graphviz version 9.0.0 (20230911.1827)
 -->
<!-- Title: FabUser.hpp Pages: 1 -->
<svg width="600pt" height="248pt"
 viewBox="0.00 0.00 599.75 248.25" xmlns="http://www.w3.org/2000/svg" xmlns:xlink="http://www.w3.org/1999/xlink">
<g id="graph0" class="graph" transform="scale(1 1) rotate(0) translate(4 244.25)">
<title>FabUser.hpp</title>
<!-- Node1 -->
<g id="Node000001" class="node">
<title>Node1</title>
<g id="a_Node000001"><a xlink:title=" ">
<polygon fill="#999999" stroke="#666666" points="442,-240.25 370.5,-240.25 370.5,-221 442,-221 442,-240.25"/>
<text text-anchor="middle" x="406.25" y="-226.75" font-family="Helvetica,sans-Serif" font-size="10.00">FabUser.hpp</text>
</a>
</g>
</g>
<!-- Node2 -->
<g id="Node000002" class="node">
<title>Node2</title>
<g id="a_Node000002"><a xlink:title=" ">
<polygon fill="#e0e0e0" stroke="#999999" points="56.5,-129.75 0,-129.75 0,-110.5 56.5,-110.5 56.5,-129.75"/>
<text text-anchor="middle" x="28.25" y="-116.25" font-family="Helvetica,sans-Serif" font-size="10.00">Arduino.h</text>
</a>
</g>
</g>
<!-- Node1&#45;&gt;Node2 -->
<g id="edge1_Node000001_Node000002" class="edge">
<title>Node1&#45;&gt;Node2</title>
<g id="a_edge1_Node000001_Node000002"><a xlink:title=" ">
<path fill="none" stroke="#63b8ff" d="M370.35,-225.38C323.87,-219.3 240.74,-206.41 172.25,-185 129.89,-171.76 83.38,-149.64 54.99,-135.22"/>
<polygon fill="#63b8ff" stroke="#63b8ff" points="56.89,-132.26 46.39,-130.79 53.68,-138.48 56.89,-132.26"/>
</a>
</g>
</g>
<!-- Node3 -->
<g id="Node000003" class="node">
<title>Node3</title>
<g id="a_Node000003"><a xlink:href="card_8hpp.xhtml" target="_top" xlink:title=" ">
<polygon fill="white" stroke="#666666" points="276.62,-185 223.88,-185 223.88,-165.75 276.62,-165.75 276.62,-185"/>
<text text-anchor="middle" x="250.25" y="-171.5" font-family="Helvetica,sans-Serif" font-size="10.00">card.hpp</text>
</a>
</g>
</g>
<!-- Node1&#45;&gt;Node3 -->
<g id="edge2_Node000001_Node000003" class="edge">
<title>Node1&#45;&gt;Node3</title>
<g id="a_edge2_Node000001_Node000003"><a xlink:title=" ">
<path fill="none" stroke="#63b8ff" d="M379.79,-220.59C354.46,-211.95 316.02,-198.82 287.58,-189.12"/>
<polygon fill="#63b8ff" stroke="#63b8ff" points="288.87,-185.86 278.28,-185.94 286.61,-192.48 288.87,-185.86"/>
</a>
</g>
</g>
<!-- Node4 -->
<g id="Node000004" class="node">
<title>Node4</title>
<g id="a_Node000004"><a xlink:title=" ">
<polygon fill="#e0e0e0" stroke="#999999" points="125.88,-129.75 74.62,-129.75 74.62,-110.5 125.88,-110.5 125.88,-129.75"/>
<text text-anchor="middle" x="100.25" y="-116.25" font-family="Helvetica,sans-Serif" font-size="10.00">sstream</text>
</a>
</g>
</g>
<!-- Node1&#45;&gt;Node4 -->
<g id="edge18_Node000001_Node000004" class="edge">
<title>Node1&#45;&gt;Node4</title>
<g id="a_edge18_Node000001_Node000004"><a xlink:title=" ">
<path fill="none" stroke="#63b8ff" d="M370.16,-224.27C331.08,-217.76 267.35,-205.1 215.25,-185 181.59,-172.01 145.68,-150.73 123.11,-136.33"/>
<polygon fill="#63b8ff" stroke="#63b8ff" points="125.02,-133.4 114.73,-130.9 121.21,-139.27 125.02,-133.4"/>
</a>
</g>
</g>
<!-- Node6 -->
<g id="Node000006" class="node">
<title>Node6</title>
<g id="a_Node000006"><a xlink:href="conf_8hpp.xhtml" target="_top" xlink:title=" ">
<polygon fill="white" stroke="#666666" points="432.62,-129.75 379.88,-129.75 379.88,-110.5 432.62,-110.5 432.62,-129.75"/>
<text text-anchor="middle" x="406.25" y="-116.25" font-family="Helvetica,sans-Serif" font-size="10.00">conf.hpp</text>
</a>
</g>
</g>
<!-- Node1&#45;&gt;Node6 -->
<g id="edge15_Node000001_Node000006" class="edge">
<title>Node1&#45;&gt;Node6</title>
<g id="a_edge15_Node000001_Node000006"><a xlink:title=" ">
<path fill="none" stroke="#63b8ff" d="M406.25,-220.75C406.25,-203.5 406.25,-165.08 406.25,-141.31"/>
<polygon fill="#63b8ff" stroke="#63b8ff" points="409.75,-141.64 406.25,-131.64 402.75,-141.64 409.75,-141.64"/>
</a>
</g>
</g>
<!-- Node7 -->
<g id="Node000007" class="node">
<title>Node7</title>
<g id="a_Node000007"><a xlink:title=" ">
<polygon fill="#e0e0e0" stroke="#999999" points="422.88,-19.25 377.62,-19.25 377.62,0 422.88,0 422.88,-19.25"/>
<text text-anchor="middle" x="400.25" y="-5.75" font-family="Helvetica,sans-Serif" font-size="10.00">cstdint</text>
</a>
</g>
</g>
<!-- Node1&#45;&gt;Node7 -->
<g id="edge17_Node000001_Node000007" class="edge">
<title>Node1&#45;&gt;Node7</title>
<g id="a_edge17_Node000001_Node000007"><a xlink:title=" ">
<path fill="none" stroke="#63b8ff" d="M418.81,-220.68C453.93,-194.56 547.99,-116.39 507.25,-55.25 491.16,-31.1 459.26,-20 434.45,-14.91"/>
<polygon fill="#63b8ff" stroke="#63b8ff" points="435.25,-11.49 424.79,-13.18 434.01,-18.39 435.25,-11.49"/>
</a>
</g>
</g>
<!-- Node8 -->
<g id="Node000008" class="node">
<title>Node8</title>
<g id="a_Node000008"><a xlink:title=" ">
<polygon fill="#e0e0e0" stroke="#999999" points="498.25,-74.5 458.25,-74.5 458.25,-55.25 498.25,-55.25 498.25,-74.5"/>
<text text-anchor="middle" x="478.25" y="-61" font-family="Helvetica,sans-Serif" font-size="10.00">string</text>
</a>
</g>
</g>
<!-- Node1&#45;&gt;Node8 -->
<g id="edge19_Node000001_Node000008" class="edge">
<title>Node1&#45;&gt;Node8</title>
<g id="a_edge19_Node000001_Node000008"><a xlink:title=" ">
<path fill="none" stroke="#63b8ff" d="M410.12,-220.82C421.35,-195.28 454.14,-120.7 469.77,-85.15"/>
<polygon fill="#63b8ff" stroke="#63b8ff" points="472.93,-86.67 473.75,-76.11 466.52,-83.85 472.93,-86.67"/>
</a>
</g>
</g>
<!-- Node14 -->
<g id="Node000014" class="node">
<title>Node14</title>
<g id="a_Node000014"><a xlink:title=" ">
<polygon fill="#e0e0e0" stroke="#999999" points="591.75,-185 554.75,-185 554.75,-165.75 591.75,-165.75 591.75,-185"/>
<text text-anchor="middle" x="573.25" y="-171.5" font-family="Helvetica,sans-Serif" font-size="10.00">array</text>
</a>
</g>
</g>
<!-- Node1&#45;&gt;Node14 -->
<g id="edge16_Node000001_Node000014" class="edge">
<title>Node1&#45;&gt;Node14</title>
<g id="a_edge16_Node000001_Node000014"><a xlink:title=" ">
<path fill="none" stroke="#63b8ff" d="M434.58,-220.59C464.95,-210.91 512.93,-195.61 543.74,-185.78"/>
<polygon fill="#63b8ff" stroke="#63b8ff" points="544.73,-189.14 553.2,-182.77 542.61,-182.47 544.73,-189.14"/>
</a>
</g>
</g>
<!-- Node3&#45;&gt;Node2 -->
<g id="edge5_Node000003_Node000002" class="edge">
<title>Node3&#45;&gt;Node2</title>
<g id="a_edge5_Node000003_Node000002"><a xlink:title=" ">
<path fill="none" stroke="#63b8ff" d="M223.47,-167.95C184.75,-158.66 112.86,-141.42 67.95,-130.65"/>
<polygon fill="#63b8ff" stroke="#63b8ff" points="68.89,-127.27 58.35,-128.34 67.26,-134.08 68.89,-127.27"/>
</a>
</g>
</g>
<!-- Node3&#45;&gt;Node4 -->
<g id="edge3_Node000003_Node000004" class="edge">
<title>Node3&#45;&gt;Node4</title>
<g id="a_edge3_Node000003_Node000004"><a xlink:title=" ">
<path fill="none" stroke="#63b8ff" d="M224.8,-165.34C200.56,-156.74 163.82,-143.69 136.51,-134"/>
<polygon fill="#63b8ff" stroke="#63b8ff" points="137.84,-130.76 127.25,-130.71 135.5,-137.35 137.84,-130.76"/>
</a>
</g>
</g>
<!-- Node5 -->
<g id="Node000005" class="node">
<title>Node5</title>
<g id="a_Node000005"><a xlink:title=" ">
<polygon fill="#e0e0e0" stroke="#999999" points="275.12,-129.75 225.38,-129.75 225.38,-110.5 275.12,-110.5 275.12,-129.75"/>
<text text-anchor="middle" x="250.25" y="-116.25" font-family="Helvetica,sans-Serif" font-size="10.00">iomanip</text>
</a>
</g>
</g>
<!-- Node3&#45;&gt;Node5 -->
<g id="edge4_Node000003_Node000005" class="edge">
<title>Node3&#45;&gt;Node5</title>
<g id="a_edge4_Node000003_Node000005"><a xlink:title=" ">
<path fill="none" stroke="#63b8ff" d="M250.25,-165.58C250.25,-159.07 250.25,-149.92 250.25,-141.62"/>
<polygon fill="#63b8ff" stroke="#63b8ff" points="253.75,-141.62 250.25,-131.62 246.75,-141.62 253.75,-141.62"/>
</a>
</g>
</g>
<!-- Node3&#45;&gt;Node6 -->
<g id="edge6_Node000003_Node000006" class="edge">
<title>Node3&#45;&gt;Node6</title>
<g id="a_edge6_Node000003_Node000006"><a xlink:title=" ">
<path fill="none" stroke="#63b8ff" d="M276.71,-165.34C302.04,-156.7 340.48,-143.57 368.92,-133.87"/>
<polygon fill="#63b8ff" stroke="#63b8ff" points="369.89,-137.23 378.22,-130.69 367.63,-130.61 369.89,-137.23"/>
</a>
</g>
</g>
<!-- Node11 -->
<g id="Node000011" class="node">
<title>Node11</title>
<g id="a_Node000011"><a xlink:href="_logging_8hpp.xhtml" target="_top" xlink:title=" ">
<polygon fill="white" stroke="#666666" points="361.5,-129.75 293,-129.75 293,-110.5 361.5,-110.5 361.5,-129.75"/>
<text text-anchor="middle" x="327.25" y="-116.25" font-family="Helvetica,sans-Serif" font-size="10.00">Logging.hpp</text>
</a>
</g>
</g>
<!-- Node3&#45;&gt;Node11 -->
<g id="edge12_Node000003_Node000011" class="edge">
<title>Node3&#45;&gt;Node11</title>
<g id="a_edge12_Node000003_Node000011"><a xlink:title=" ">
<path fill="none" stroke="#63b8ff" d="M263.31,-165.34C274.71,-157.46 291.48,-145.86 304.99,-136.52"/>
<polygon fill="#63b8ff" stroke="#63b8ff" points="306.65,-139.63 312.88,-131.06 302.66,-133.87 306.65,-139.63"/>
</a>
</g>
</g>
<!-- Node13 -->
<g id="Node000013" class="node">
<title>Node13</title>
<g id="a_Node000013"><a xlink:title=" ">
<polygon fill="#e0e0e0" stroke="#999999" points="206.88,-129.75 143.62,-129.75 143.62,-110.5 206.88,-110.5 206.88,-129.75"/>
<text text-anchor="middle" x="175.25" y="-116.25" font-family="Helvetica,sans-Serif" font-size="10.00">esp_mac.h</text>
</a>
</g>
</g>
<!-- Node3&#45;&gt;Node13 -->
<g id="edge14_Node000003_Node000013" class="edge">
<title>Node3&#45;&gt;Node13</title>
<g id="a_edge14_Node000003_Node000013"><a xlink:title=" ">
<path fill="none" stroke="#63b8ff" d="M237.53,-165.34C226.54,-157.54 210.41,-146.09 197.32,-136.79"/>
<polygon fill="#63b8ff" stroke="#63b8ff" points="199.45,-134.01 189.27,-131.08 195.4,-139.72 199.45,-134.01"/>
</a>
</g>
</g>
<!-- Node6&#45;&gt;Node7 -->
<g id="edge7_Node000006_Node000007" class="edge">
<title>Node6&#45;&gt;Node7</title>
<g id="a_edge7_Node000006_Node000007"><a xlink:title=" ">
<path fill="none" stroke="#63b8ff" d="M379.44,-112.83C347.77,-104.79 298.03,-90.05 287.25,-74.5 264.89,-42.23 325.29,-24.3 366.17,-16.14"/>
<polygon fill="#63b8ff" stroke="#63b8ff" points="366.68,-19.6 375.87,-14.32 365.39,-12.72 366.68,-19.6"/>
</a>
</g>
</g>
<!-- Node6&#45;&gt;Node8 -->
<g id="edge8_Node000006_Node000008" class="edge">
<title>Node6&#45;&gt;Node8</title>
<g id="a_edge8_Node000006_Node000008"><a xlink:title=" ">
<path fill="none" stroke="#63b8ff" d="M418.46,-110.09C429.08,-102.24 444.69,-90.7 457.29,-81.37"/>
<polygon fill="#63b8ff" stroke="#63b8ff" points="459.04,-84.44 465,-75.67 454.88,-78.81 459.04,-84.44"/>
</a>
</g>
</g>
<!-- Node9 -->
<g id="Node000009" class="node">
<title>Node9</title>
<g id="a_Node000009"><a xlink:title=" ">
<polygon fill="#e0e0e0" stroke="#999999" points="341.88,-74.5 296.62,-74.5 296.62,-55.25 341.88,-55.25 341.88,-74.5"/>
<text text-anchor="middle" x="319.25" y="-61" font-family="Helvetica,sans-Serif" font-size="10.00">chrono</text>
</a>
</g>
</g>
<!-- Node6&#45;&gt;Node9 -->
<g id="edge9_Node000006_Node000009" class="edge">
<title>Node6&#45;&gt;Node9</title>
<g id="a_edge9_Node000006_Node000009"><a xlink:title=" ">
<path fill="none" stroke="#63b8ff" d="M391.49,-110.09C378.37,-102.06 358.93,-90.16 343.52,-80.73"/>
<polygon fill="#63b8ff" stroke="#63b8ff" points="345.73,-77.98 335.37,-75.74 342.07,-83.95 345.73,-77.98"/>
</a>
</g>
</g>
<!-- Node10 -->
<g id="Node000010" class="node">
<title>Node10</title>
<g id="a_Node000010"><a xlink:href="_machine_i_d_8hpp.xhtml" target="_top" xlink:title=" ">
<polygon fill="white" stroke="#666666" points="440.5,-74.5 360,-74.5 360,-55.25 440.5,-55.25 440.5,-74.5"/>
<text text-anchor="middle" x="400.25" y="-61" font-family="Helvetica,sans-Serif" font-size="10.00">MachineID.hpp</text>
</a>
</g>
</g>
<!-- Node6&#45;&gt;Node10 -->
<g id="edge10_Node000006_Node000010" class="edge">
<title>Node6&#45;&gt;Node10</title>
<g id="a_edge10_Node000006_Node000010"><a xlink:title=" ">
<path fill="none" stroke="#63b8ff" d="M405.26,-110.33C404.52,-103.74 403.47,-94.46 402.53,-86.07"/>
<polygon fill="#63b8ff" stroke="#63b8ff" points="406.03,-85.91 401.43,-76.36 399.07,-86.69 406.03,-85.91"/>
</a>
</g>
</g>
<!-- Node10&#45;&gt;Node7 -->
<g id="edge11_Node000010_Node000007" class="edge">
<title>Node10&#45;&gt;Node7</title>
<g id="a_edge11_Node000010_Node000007"><a xlink:title=" ">
<path fill="none" stroke="#63b8ff" d="M400.25,-55.08C400.25,-48.57 400.25,-39.42 400.25,-31.12"/>
<polygon fill="#63b8ff" stroke="#63b8ff" points="403.75,-31.12 400.25,-21.12 396.75,-31.12 403.75,-31.12"/>
</a>
</g>
</g>
<!-- Node12 -->
<g id="Node000012" class="node">
<title>Node12</title>
<g id="a_Node000012"><a xlink:title=" ">
<polygon fill="#e0e0e0" stroke="#999999" points="239.88,-74.5 182.62,-74.5 182.62,-55.25 239.88,-55.25 239.88,-74.5"/>
<text text-anchor="middle" x="211.25" y="-61" font-family="Helvetica,sans-Serif" font-size="10.00">esp_log.h</text>
</a>
</g>
</g>
<!-- Node11&#45;&gt;Node12 -->
<g id="edge13_Node000011_Node000012" class="edge">
<title>Node11&#45;&gt;Node12</title>
<g id="a_edge13_Node000011_Node000012"><a xlink:title=" ">
<path fill="none" stroke="#63b8ff" d="M307.57,-110.09C289.41,-101.75 262.17,-89.25 241.28,-79.66"/>
<polygon fill="#63b8ff" stroke="#63b8ff" points="242.95,-76.58 232.4,-75.58 240.03,-82.94 242.95,-76.58"/>
</a>
</g>
</g>
</g>
</svg>
