<?xml version="1.0" encoding="UTF-8" standalone="no"?>
<!DOCTYPE svg PUBLIC "-//W3C//DTD SVG 1.1//EN"
 "http://www.w3.org/Graphics/SVG/1.1/DTD/svg11.dtd">
<!-- Generated by graphviz version 9.0.0 (20230911.1827)
 -->
<!-- Title: LCDWrapper.cpp Pages: 1 -->
<svg width="1247pt" height="469pt"
 viewBox="0.00 0.00 1246.50 469.25" xmlns="http://www.w3.org/2000/svg" xmlns:xlink="http://www.w3.org/1999/xlink">
<g id="graph0" class="graph" transform="scale(1 1) rotate(0) translate(4 465.25)">
<title>LCDWrapper.cpp</title>
<!-- Node1 -->
<g id="Node000001" class="node">
<title>Node1</title>
<g id="a_Node000001"><a xlink:title=" ">
<polygon fill="#999999" stroke="#666666" points="1069.75,-461.25 980.25,-461.25 980.25,-442 1069.75,-442 1069.75,-461.25"/>
<text text-anchor="middle" x="1025" y="-447.75" font-family="Helvetica,sans-Serif" font-size="10.00">LCDWrapper.cpp</text>
</a>
</g>
</g>
<!-- Node2 -->
<g id="Node000002" class="node">
<title>Node2</title>
<g id="a_Node000002"><a xlink:href="_l_c_d_wrapper_8hpp.xhtml" target="_top" xlink:title=" ">
<polygon fill="white" stroke="#666666" points="343.75,-406 254.25,-406 254.25,-386.75 343.75,-386.75 343.75,-406"/>
<text text-anchor="middle" x="299" y="-392.5" font-family="Helvetica,sans-Serif" font-size="10.00">LCDWrapper.hpp</text>
</a>
</g>
</g>
<!-- Node1&#45;&gt;Node2 -->
<g id="edge1_Node000001_Node000002" class="edge">
<title>Node1&#45;&gt;Node2</title>
<g id="a_edge1_Node000001_Node000002"><a xlink:title=" ">
<path fill="none" stroke="#63b8ff" d="M979.86,-447.31C853.16,-438.02 494.4,-411.71 355.19,-401.5"/>
<polygon fill="#63b8ff" stroke="#63b8ff" points="355.72,-398.03 345.49,-400.79 355.21,-405.01 355.72,-398.03"/>
</a>
</g>
</g>
<!-- Node8 -->
<g id="Node000008" class="node">
<title>Node8</title>
<g id="a_Node000008"><a xlink:title=" ">
<polygon fill="#e0e0e0" stroke="#999999" points="920.62,-129.75 869.38,-129.75 869.38,-110.5 920.62,-110.5 920.62,-129.75"/>
<text text-anchor="middle" x="895" y="-116.25" font-family="Helvetica,sans-Serif" font-size="10.00">sstream</text>
</a>
</g>
</g>
<!-- Node1&#45;&gt;Node8 -->
<g id="edge48_Node000001_Node000008" class="edge">
<title>Node1&#45;&gt;Node8</title>
<g id="a_edge48_Node000001_Node000008"><a xlink:title=" ">
<path fill="none" stroke="#63b8ff" d="M1012.79,-441.69C991.31,-424.83 949,-386.05 949,-342.12 949,-342.12 949,-342.12 949,-284.88 949,-229.93 921.24,-169.59 905.53,-139.84"/>
<polygon fill="#63b8ff" stroke="#63b8ff" points="908.76,-138.46 900.9,-131.34 902.61,-141.8 908.76,-138.46"/>
</a>
</g>
</g>
<!-- Node11 -->
<g id="Node000011" class="node">
<title>Node11</title>
<g id="a_Node000011"><a xlink:title=" ">
<polygon fill="#e0e0e0" stroke="#999999" points="566.62,-19.25 521.38,-19.25 521.38,0 566.62,0 566.62,-19.25"/>
<text text-anchor="middle" x="544" y="-5.75" font-family="Helvetica,sans-Serif" font-size="10.00">cstdint</text>
</a>
</g>
</g>
<!-- Node1&#45;&gt;Node11 -->
<g id="edge47_Node000001_Node000011" class="edge">
<title>Node1&#45;&gt;Node11</title>
<g id="a_edge47_Node000001_Node000011"><a xlink:title=" ">
<path fill="none" stroke="#63b8ff" d="M1050.39,-441.6C1086.67,-426.88 1149,-394.04 1149,-342.12 1149,-342.12 1149,-342.12 1149,-119.12 1149,-88.8 1149.25,-73.46 1125,-55.25 1081.2,-22.36 695.73,-13.18 578,-11.13"/>
<polygon fill="#63b8ff" stroke="#63b8ff" points="578.41,-7.64 568.35,-10.97 578.29,-14.64 578.41,-7.64"/>
</a>
</g>
</g>
<!-- Node12 -->
<g id="Node000012" class="node">
<title>Node12</title>
<g id="a_Node000012"><a xlink:title=" ">
<polygon fill="#e0e0e0" stroke="#999999" points="842,-74.5 802,-74.5 802,-55.25 842,-55.25 842,-74.5"/>
<text text-anchor="middle" x="822" y="-61" font-family="Helvetica,sans-Serif" font-size="10.00">string</text>
</a>
</g>
</g>
<!-- Node1&#45;&gt;Node12 -->
<g id="edge49_Node000001_Node000012" class="edge">
<title>Node1&#45;&gt;Node12</title>
<g id="a_edge49_Node000001_Node000012"><a xlink:title=" ">
<path fill="none" stroke="#63b8ff" d="M1025,-441.62C1025,-423.03 1025,-379.05 1025,-342.12 1025,-342.12 1025,-342.12 1025,-229.62 1025,-166.1 995.98,-149.72 946,-110.5 918.72,-89.09 880.27,-77.39 853.45,-71.41"/>
<polygon fill="#63b8ff" stroke="#63b8ff" points="854.36,-68.02 843.86,-69.42 852.94,-74.88 854.36,-68.02"/>
</a>
</g>
</g>
<!-- Node15 -->
<g id="Node000015" class="node">
<title>Node15</title>
<g id="a_Node000015"><a xlink:href="_logging_8hpp.xhtml" target="_top" xlink:title=" ">
<polygon fill="white" stroke="#666666" points="1121.25,-129.75 1052.75,-129.75 1052.75,-110.5 1121.25,-110.5 1121.25,-129.75"/>
<text text-anchor="middle" x="1087" y="-116.25" font-family="Helvetica,sans-Serif" font-size="10.00">Logging.hpp</text>
</a>
</g>
</g>
<!-- Node1&#45;&gt;Node15 -->
<g id="edge45_Node000001_Node000015" class="edge">
<title>Node1&#45;&gt;Node15</title>
<g id="a_edge45_Node000001_Node000015"><a xlink:title=" ">
<path fill="none" stroke="#63b8ff" d="M1032.38,-441.7C1046.29,-423.92 1075,-382.36 1075,-342.12 1075,-342.12 1075,-342.12 1075,-229.62 1075,-198.72 1079.87,-163.16 1083.4,-141.42"/>
<polygon fill="#63b8ff" stroke="#63b8ff" points="1086.85,-142.03 1085.08,-131.58 1079.95,-140.85 1086.85,-142.03"/>
</a>
</g>
</g>
<!-- Node18 -->
<g id="Node000018" class="node">
<title>Node18</title>
<g id="a_Node000018"><a xlink:title=" ">
<polygon fill="#e0e0e0" stroke="#999999" points="94.5,-19.25 57.5,-19.25 57.5,0 94.5,0 94.5,-19.25"/>
<text text-anchor="middle" x="76" y="-5.75" font-family="Helvetica,sans-Serif" font-size="10.00">array</text>
</a>
</g>
</g>
<!-- Node1&#45;&gt;Node18 -->
<g id="edge46_Node000001_Node000018" class="edge">
<title>Node1&#45;&gt;Node18</title>
<g id="a_edge46_Node000001_Node000018"><a xlink:title=" ">
<path fill="none" stroke="#63b8ff" d="M979.97,-450.66C782.14,-450.22 0,-442.17 0,-342.12 0,-342.12 0,-342.12 0,-119.12 0,-80.52 32.68,-45.89 55.18,-26.62"/>
<polygon fill="#63b8ff" stroke="#63b8ff" points="57.11,-29.57 62.62,-20.52 52.67,-24.16 57.11,-29.57"/>
</a>
</g>
</g>
<!-- Node25 -->
<g id="Node000025" class="node">
<title>Node25</title>
<g id="a_Node000025"><a xlink:title=" ">
<polygon fill="#e0e0e0" stroke="#999999" points="1238.5,-406 1177.5,-406 1177.5,-386.75 1238.5,-386.75 1238.5,-406"/>
<text text-anchor="middle" x="1208" y="-392.5" font-family="Helvetica,sans-Serif" font-size="10.00">type_traits</text>
</a>
</g>
</g>
<!-- Node1&#45;&gt;Node25 -->
<g id="edge50_Node000001_Node000025" class="edge">
<title>Node1&#45;&gt;Node25</title>
<g id="a_edge50_Node000001_Node000025"><a xlink:title=" ">
<path fill="none" stroke="#63b8ff" d="M1056.04,-441.59C1086.37,-432.77 1132.73,-419.28 1166.27,-409.52"/>
<polygon fill="#63b8ff" stroke="#63b8ff" points="1167.03,-412.94 1175.66,-406.79 1165.08,-406.22 1167.03,-412.94"/>
</a>
</g>
</g>
<!-- Node3 -->
<g id="Node000003" class="node">
<title>Node3</title>
<g id="a_Node000003"><a xlink:href="_board_info_8hpp.xhtml" target="_top" xlink:title=" ">
<polygon fill="white" stroke="#666666" points="433,-350.75 357,-350.75 357,-331.5 433,-331.5 433,-350.75"/>
<text text-anchor="middle" x="395" y="-337.25" font-family="Helvetica,sans-Serif" font-size="10.00">BoardInfo.hpp</text>
</a>
</g>
</g>
<!-- Node2&#45;&gt;Node3 -->
<g id="edge2_Node000002_Node000003" class="edge">
<title>Node2&#45;&gt;Node3</title>
<g id="a_edge2_Node000002_Node000003"><a xlink:title=" ">
<path fill="none" stroke="#63b8ff" d="M315.29,-386.34C329.9,-378.23 351.63,-366.18 368.71,-356.71"/>
<polygon fill="#63b8ff" stroke="#63b8ff" points="370.26,-359.85 377.31,-351.94 366.87,-353.73 370.26,-359.85"/>
</a>
</g>
</g>
<!-- Node4 -->
<g id="Node000004" class="node">
<title>Node4</title>
<g id="a_Node000004"><a xlink:href="_machine_8hpp.xhtml" target="_top" xlink:title=" ">
<polygon fill="white" stroke="#666666" points="489.38,-295.5 418.62,-295.5 418.62,-276.25 489.38,-276.25 489.38,-295.5"/>
<text text-anchor="middle" x="454" y="-282" font-family="Helvetica,sans-Serif" font-size="10.00">Machine.hpp</text>
</a>
</g>
</g>
<!-- Node2&#45;&gt;Node4 -->
<g id="edge40_Node000002_Node000004" class="edge">
<title>Node2&#45;&gt;Node4</title>
<g id="a_edge40_Node000002_Node000004"><a xlink:title=" ">
<path fill="none" stroke="#63b8ff" d="M344.21,-393.12C376.14,-389.06 417.45,-378.34 442,-350.75 452.45,-339 455.08,-321.12 455.31,-307.26"/>
<polygon fill="#63b8ff" stroke="#63b8ff" points="458.81,-307.37 455.03,-297.47 451.81,-307.56 458.81,-307.37"/>
</a>
</g>
</g>
<!-- Node13 -->
<g id="Node000013" class="node">
<title>Node13</title>
<g id="a_Node000013"><a xlink:title=" ">
<polygon fill="#e0e0e0" stroke="#999999" points="443.62,-74.5 398.38,-74.5 398.38,-55.25 443.62,-55.25 443.62,-74.5"/>
<text text-anchor="middle" x="421" y="-61" font-family="Helvetica,sans-Serif" font-size="10.00">chrono</text>
</a>
</g>
</g>
<!-- Node2&#45;&gt;Node13 -->
<g id="edge43_Node000002_Node000013" class="edge">
<title>Node2&#45;&gt;Node13</title>
<g id="a_edge43_Node000002_Node000013"><a xlink:title=" ">
<path fill="none" stroke="#63b8ff" d="M285.47,-386.28C274.42,-378.18 259.18,-365.37 250,-350.75 234.25,-325.67 231,-316.49 231,-286.88 231,-286.88 231,-286.88 231,-229.62 231,-147.94 333.01,-98.05 387.54,-77.21"/>
<polygon fill="#63b8ff" stroke="#63b8ff" points="388.49,-80.59 396.66,-73.84 386.07,-74.02 388.49,-80.59"/>
</a>
</g>
</g>
<!-- Node2&#45;&gt;Node18 -->
<g id="edge42_Node000002_Node000018" class="edge">
<title>Node2&#45;&gt;Node18</title>
<g id="a_edge42_Node000002_Node000018"><a xlink:title=" ">
<path fill="none" stroke="#63b8ff" d="M253.84,-396.01C179.13,-394.44 38,-379.25 38,-286.88 38,-286.88 38,-286.88 38,-119.12 38,-86.13 53.84,-50.51 65.07,-29.41"/>
<polygon fill="#63b8ff" stroke="#63b8ff" points="68.02,-31.3 69.82,-20.86 61.9,-27.9 68.02,-31.3"/>
</a>
</g>
</g>
<!-- Node20 -->
<g id="Node000020" class="node">
<title>Node20</title>
<g id="a_Node000020"><a xlink:href="pins_8hpp.xhtml" target="_top" xlink:title=" ">
<polygon fill="white" stroke="#666666" points="207,-129.75 155,-129.75 155,-110.5 207,-110.5 207,-129.75"/>
<text text-anchor="middle" x="181" y="-116.25" font-family="Helvetica,sans-Serif" font-size="10.00">pins.hpp</text>
</a>
</g>
</g>
<!-- Node2&#45;&gt;Node20 -->
<g id="edge41_Node000002_Node000020" class="edge">
<title>Node2&#45;&gt;Node20</title>
<g id="a_edge41_Node000002_Node000020"><a xlink:title=" ">
<path fill="none" stroke="#63b8ff" d="M253.87,-393.06C188.71,-387.02 76,-365.23 76,-286.88 76,-286.88 76,-286.88 76,-229.62 76,-185.82 120.74,-152.97 151.81,-135.44"/>
<polygon fill="#63b8ff" stroke="#63b8ff" points="153.27,-138.63 160.41,-130.81 149.95,-132.47 153.27,-138.63"/>
</a>
</g>
</g>
<!-- Node24 -->
<g id="Node000024" class="node">
<title>Node24</title>
<g id="a_Node000024"><a xlink:title=" ">
<polygon fill="#e0e0e0" stroke="#999999" points="338.88,-350.75 259.12,-350.75 259.12,-331.5 338.88,-331.5 338.88,-350.75"/>
<text text-anchor="middle" x="299" y="-337.25" font-family="Helvetica,sans-Serif" font-size="10.00">LiquidCrystal.h</text>
</a>
</g>
</g>
<!-- Node2&#45;&gt;Node24 -->
<g id="edge44_Node000002_Node000024" class="edge">
<title>Node2&#45;&gt;Node24</title>
<g id="a_edge44_Node000002_Node000024"><a xlink:title=" ">
<path fill="none" stroke="#63b8ff" d="M299,-386.58C299,-380.07 299,-370.92 299,-362.62"/>
<polygon fill="#63b8ff" stroke="#63b8ff" points="302.5,-362.62 299,-352.62 295.5,-362.62 302.5,-362.62"/>
</a>
</g>
</g>
<!-- Node3&#45;&gt;Node4 -->
<g id="edge3_Node000003_Node000004" class="edge">
<title>Node3&#45;&gt;Node4</title>
<g id="a_edge3_Node000003_Node000004"><a xlink:title=" ">
<path fill="none" stroke="#63b8ff" d="M405.01,-331.09C413.37,-323.55 425.5,-312.6 435.6,-303.48"/>
<polygon fill="#63b8ff" stroke="#63b8ff" points="437.94,-306.09 443.02,-296.79 433.25,-300.89 437.94,-306.09"/>
</a>
</g>
</g>
<!-- Node5 -->
<g id="Node000005" class="node">
<title>Node5</title>
<g id="a_Node000005"><a xlink:href="_fab_user_8hpp.xhtml" target="_top" xlink:title=" ">
<polygon fill="white" stroke="#666666" points="599.75,-240.25 528.25,-240.25 528.25,-221 599.75,-221 599.75,-240.25"/>
<text text-anchor="middle" x="564" y="-226.75" font-family="Helvetica,sans-Serif" font-size="10.00">FabUser.hpp</text>
</a>
</g>
</g>
<!-- Node4&#45;&gt;Node5 -->
<g id="edge4_Node000004_Node000005" class="edge">
<title>Node4&#45;&gt;Node5</title>
<g id="a_edge4_Node000004_Node000005"><a xlink:title=" ">
<path fill="none" stroke="#63b8ff" d="M472.66,-275.84C489.73,-267.58 515.24,-255.23 534.97,-245.68"/>
<polygon fill="#63b8ff" stroke="#63b8ff" points="536.41,-248.87 543.89,-241.36 533.36,-242.57 536.41,-248.87"/>
</a>
</g>
</g>
<!-- Node4&#45;&gt;Node11 -->
<g id="edge38_Node000004_Node000011" class="edge">
<title>Node4&#45;&gt;Node11</title>
<g id="a_edge38_Node000004_Node000011"><a xlink:title=" ">
<path fill="none" stroke="#63b8ff" d="M489.62,-278.2C533.72,-269.84 611.08,-254.83 677,-240.25 803.2,-212.34 905.44,-252.47 946,-129.75 962.84,-78.8 901.66,-72.92 851,-55.25 756.04,-22.13 636.29,-13.59 578.42,-11.38"/>
<polygon fill="#63b8ff" stroke="#63b8ff" points="578.67,-7.89 568.56,-11.06 578.43,-14.89 578.67,-7.89"/>
</a>
</g>
</g>
<!-- Node4&#45;&gt;Node13 -->
<g id="edge37_Node000004_Node000013" class="edge">
<title>Node4&#45;&gt;Node13</title>
<g id="a_edge37_Node000004_Node000013"><a xlink:title=" ">
<path fill="none" stroke="#63b8ff" d="M443.68,-275.98C425.96,-259.94 390.35,-224.17 377,-185 364.67,-148.82 389.22,-107.02 406.35,-83.8"/>
<polygon fill="#63b8ff" stroke="#63b8ff" points="409.04,-86.03 412.4,-75.98 403.51,-81.75 409.04,-86.03"/>
</a>
</g>
</g>
<!-- Node4&#45;&gt;Node18 -->
<g id="edge36_Node000004_Node000018" class="edge">
<title>Node4&#45;&gt;Node18</title>
<g id="a_edge36_Node000004_Node000018"><a xlink:title=" ">
<path fill="none" stroke="#63b8ff" d="M418.16,-277.38C351.2,-261.6 206.38,-218.82 123,-129.75 103.45,-108.87 100.53,-101.09 90,-74.5 84.42,-60.41 80.85,-43.64 78.72,-30.83"/>
<polygon fill="#63b8ff" stroke="#63b8ff" points="82.2,-30.44 77.26,-21.07 75.27,-31.47 82.2,-30.44"/>
</a>
</g>
</g>
<!-- Node19 -->
<g id="Node000019" class="node">
<title>Node19</title>
<g id="a_Node000019"><a xlink:href="_machine_config_8hpp.xhtml" target="_top" xlink:title=" ">
<polygon fill="white" stroke="#666666" points="483.88,-185 386.12,-185 386.12,-165.75 483.88,-165.75 483.88,-185"/>
<text text-anchor="middle" x="435" y="-171.5" font-family="Helvetica,sans-Serif" font-size="10.00">MachineConfig.hpp</text>
</a>
</g>
</g>
<!-- Node4&#45;&gt;Node19 -->
<g id="edge24_Node000004_Node000019" class="edge">
<title>Node4&#45;&gt;Node19</title>
<g id="a_edge24_Node000004_Node000019"><a xlink:title=" ">
<path fill="none" stroke="#63b8ff" d="M452.45,-276C449.43,-258.75 442.7,-220.33 438.54,-196.56"/>
<polygon fill="#63b8ff" stroke="#63b8ff" points="442.01,-196.11 436.84,-186.87 435.11,-197.32 442.01,-196.11"/>
</a>
</g>
</g>
<!-- Node23 -->
<g id="Node000023" class="node">
<title>Node23</title>
<g id="a_Node000023"><a xlink:title=" ">
<polygon fill="#e0e0e0" stroke="#999999" points="667.88,-240.25 618.12,-240.25 618.12,-221 667.88,-221 667.88,-240.25"/>
<text text-anchor="middle" x="643" y="-226.75" font-family="Helvetica,sans-Serif" font-size="10.00">optional</text>
</a>
</g>
</g>
<!-- Node4&#45;&gt;Node23 -->
<g id="edge39_Node000004_Node000023" class="edge">
<title>Node4&#45;&gt;Node23</title>
<g id="a_edge39_Node000004_Node000023"><a xlink:title=" ">
<path fill="none" stroke="#63b8ff" d="M486.06,-275.84C519.61,-266.39 572.16,-251.59 607.08,-241.75"/>
<polygon fill="#63b8ff" stroke="#63b8ff" points="607.62,-245.23 616.29,-239.15 605.72,-238.49 607.62,-245.23"/>
</a>
</g>
</g>
<!-- Node6 -->
<g id="Node000006" class="node">
<title>Node6</title>
<g id="a_Node000006"><a xlink:title=" ">
<polygon fill="#e0e0e0" stroke="#999999" points="702.25,-129.75 645.75,-129.75 645.75,-110.5 702.25,-110.5 702.25,-129.75"/>
<text text-anchor="middle" x="674" y="-116.25" font-family="Helvetica,sans-Serif" font-size="10.00">Arduino.h</text>
</a>
</g>
</g>
<!-- Node5&#45;&gt;Node6 -->
<g id="edge5_Node000005_Node000006" class="edge">
<title>Node5&#45;&gt;Node6</title>
<g id="a_edge5_Node000005_Node000006"><a xlink:title=" ">
<path fill="none" stroke="#63b8ff" d="M573,-220.75C591.29,-202.71 633.07,-161.5 656.76,-138.13"/>
<polygon fill="#63b8ff" stroke="#63b8ff" points="659.13,-140.7 663.8,-131.19 654.22,-135.72 659.13,-140.7"/>
</a>
</g>
</g>
<!-- Node7 -->
<g id="Node000007" class="node">
<title>Node7</title>
<g id="a_Node000007"><a xlink:href="card_8hpp.xhtml" target="_top" xlink:title=" ">
<polygon fill="white" stroke="#666666" points="771.38,-185 718.62,-185 718.62,-165.75 771.38,-165.75 771.38,-185"/>
<text text-anchor="middle" x="745" y="-171.5" font-family="Helvetica,sans-Serif" font-size="10.00">card.hpp</text>
</a>
</g>
</g>
<!-- Node5&#45;&gt;Node7 -->
<g id="edge6_Node000005_Node000007" class="edge">
<title>Node5&#45;&gt;Node7</title>
<g id="a_edge6_Node000005_Node000007"><a xlink:title=" ">
<path fill="none" stroke="#63b8ff" d="M594.7,-220.59C625.88,-211.42 674.18,-197.21 707.57,-187.39"/>
<polygon fill="#63b8ff" stroke="#63b8ff" points="708.22,-190.84 716.83,-184.66 706.25,-184.13 708.22,-190.84"/>
</a>
</g>
</g>
<!-- Node5&#45;&gt;Node8 -->
<g id="edge22_Node000005_Node000008" class="edge">
<title>Node5&#45;&gt;Node8</title>
<g id="a_edge22_Node000005_Node000008"><a xlink:title=" ">
<path fill="none" stroke="#63b8ff" d="M599.84,-222.51C659.03,-210.73 771.56,-188.13 780,-185 813.98,-172.39 850.02,-150.87 872.51,-136.33"/>
<polygon fill="#63b8ff" stroke="#63b8ff" points="874.14,-139.45 880.57,-131.03 870.3,-133.6 874.14,-139.45"/>
</a>
</g>
</g>
<!-- Node10 -->
<g id="Node000010" class="node">
<title>Node10</title>
<g id="a_Node000010"><a xlink:href="conf_8hpp.xhtml" target="_top" xlink:title=" ">
<polygon fill="white" stroke="#666666" points="590.38,-129.75 537.62,-129.75 537.62,-110.5 590.38,-110.5 590.38,-129.75"/>
<text text-anchor="middle" x="564" y="-116.25" font-family="Helvetica,sans-Serif" font-size="10.00">conf.hpp</text>
</a>
</g>
</g>
<!-- Node5&#45;&gt;Node10 -->
<g id="edge19_Node000005_Node000010" class="edge">
<title>Node5&#45;&gt;Node10</title>
<g id="a_edge19_Node000005_Node000010"><a xlink:title=" ">
<path fill="none" stroke="#63b8ff" d="M564,-220.75C564,-203.5 564,-165.08 564,-141.31"/>
<polygon fill="#63b8ff" stroke="#63b8ff" points="567.5,-141.64 564,-131.64 560.5,-141.64 567.5,-141.64"/>
</a>
</g>
</g>
<!-- Node5&#45;&gt;Node11 -->
<g id="edge21_Node000005_Node000011" class="edge">
<title>Node5&#45;&gt;Node11</title>
<g id="a_edge21_Node000005_Node000011"><a xlink:title=" ">
<path fill="none" stroke="#63b8ff" d="M559.64,-220.54C551.65,-203.32 534.92,-164.53 529,-129.75 523.45,-97.11 523.66,-87.93 529,-55.25 530.37,-46.89 533.09,-37.98 535.84,-30.34"/>
<polygon fill="#63b8ff" stroke="#63b8ff" points="539.09,-31.63 539.46,-21.04 532.57,-29.1 539.09,-31.63"/>
</a>
</g>
</g>
<!-- Node5&#45;&gt;Node12 -->
<g id="edge23_Node000005_Node000012" class="edge">
<title>Node5&#45;&gt;Node12</title>
<g id="a_edge23_Node000005_Node000012"><a xlink:title=" ">
<path fill="none" stroke="#63b8ff" d="M599.85,-222.7C602.95,-222.12 606.03,-221.55 609,-221 754.87,-194.15 850.61,-255.03 930,-129.75 950.39,-97.57 892.51,-79.54 853.79,-71.35"/>
<polygon fill="#63b8ff" stroke="#63b8ff" points="854.47,-67.92 843.98,-69.42 853.11,-74.79 854.47,-67.92"/>
</a>
</g>
</g>
<!-- Node5&#45;&gt;Node18 -->
<g id="edge20_Node000005_Node000018" class="edge">
<title>Node5&#45;&gt;Node18</title>
<g id="a_edge20_Node000005_Node000018"><a xlink:title=" ">
<path fill="none" stroke="#63b8ff" d="M527.93,-230.1C450.32,-229.35 264.9,-217.75 146,-129.75 111.72,-104.38 91.3,-56.8 82.01,-30.09"/>
<polygon fill="#63b8ff" stroke="#63b8ff" points="85.43,-29.29 78.99,-20.88 78.78,-31.47 85.43,-29.29"/>
</a>
</g>
</g>
<!-- Node7&#45;&gt;Node6 -->
<g id="edge9_Node000007_Node000006" class="edge">
<title>Node7&#45;&gt;Node6</title>
<g id="a_edge9_Node000007_Node000006"><a xlink:title=" ">
<path fill="none" stroke="#63b8ff" d="M732.96,-165.34C722.59,-157.57 707.4,-146.17 695.03,-136.9"/>
<polygon fill="#63b8ff" stroke="#63b8ff" points="697.18,-134.13 687.08,-130.93 692.98,-139.73 697.18,-134.13"/>
</a>
</g>
</g>
<!-- Node7&#45;&gt;Node8 -->
<g id="edge7_Node000007_Node000008" class="edge">
<title>Node7&#45;&gt;Node8</title>
<g id="a_edge7_Node000007_Node000008"><a xlink:title=" ">
<path fill="none" stroke="#63b8ff" d="M770.45,-165.34C794.69,-156.74 831.43,-143.69 858.74,-134"/>
<polygon fill="#63b8ff" stroke="#63b8ff" points="859.75,-137.35 868,-130.71 857.41,-130.76 859.75,-137.35"/>
</a>
</g>
</g>
<!-- Node9 -->
<g id="Node000009" class="node">
<title>Node9</title>
<g id="a_Node000009"><a xlink:title=" ">
<polygon fill="#e0e0e0" stroke="#999999" points="769.88,-129.75 720.12,-129.75 720.12,-110.5 769.88,-110.5 769.88,-129.75"/>
<text text-anchor="middle" x="745" y="-116.25" font-family="Helvetica,sans-Serif" font-size="10.00">iomanip</text>
</a>
</g>
</g>
<!-- Node7&#45;&gt;Node9 -->
<g id="edge8_Node000007_Node000009" class="edge">
<title>Node7&#45;&gt;Node9</title>
<g id="a_edge8_Node000007_Node000009"><a xlink:title=" ">
<path fill="none" stroke="#63b8ff" d="M745,-165.58C745,-159.07 745,-149.92 745,-141.62"/>
<polygon fill="#63b8ff" stroke="#63b8ff" points="748.5,-141.62 745,-131.62 741.5,-141.62 748.5,-141.62"/>
</a>
</g>
</g>
<!-- Node7&#45;&gt;Node10 -->
<g id="edge10_Node000007_Node000010" class="edge">
<title>Node7&#45;&gt;Node10</title>
<g id="a_edge10_Node000007_Node000010"><a xlink:title=" ">
<path fill="none" stroke="#63b8ff" d="M718.29,-166.52C687.41,-157.43 636.37,-142.42 601.52,-132.16"/>
<polygon fill="#63b8ff" stroke="#63b8ff" points="602.85,-128.91 592.27,-129.44 600.87,-135.62 602.85,-128.91"/>
</a>
</g>
</g>
<!-- Node7&#45;&gt;Node15 -->
<g id="edge16_Node000007_Node000015" class="edge">
<title>Node7&#45;&gt;Node15</title>
<g id="a_edge16_Node000007_Node000015"><a xlink:title=" ">
<path fill="none" stroke="#63b8ff" d="M771.84,-170.2C830.13,-161.12 968.89,-139.52 1041.28,-128.24"/>
<polygon fill="#63b8ff" stroke="#63b8ff" points="1041.47,-131.76 1050.81,-126.76 1040.39,-124.84 1041.47,-131.76"/>
</a>
</g>
</g>
<!-- Node17 -->
<g id="Node000017" class="node">
<title>Node17</title>
<g id="a_Node000017"><a xlink:title=" ">
<polygon fill="#e0e0e0" stroke="#999999" points="851.62,-129.75 788.38,-129.75 788.38,-110.5 851.62,-110.5 851.62,-129.75"/>
<text text-anchor="middle" x="820" y="-116.25" font-family="Helvetica,sans-Serif" font-size="10.00">esp_mac.h</text>
</a>
</g>
</g>
<!-- Node7&#45;&gt;Node17 -->
<g id="edge18_Node000007_Node000017" class="edge">
<title>Node7&#45;&gt;Node17</title>
<g id="a_edge18_Node000007_Node000017"><a xlink:title=" ">
<path fill="none" stroke="#63b8ff" d="M757.72,-165.34C768.71,-157.54 784.84,-146.09 797.93,-136.79"/>
<polygon fill="#63b8ff" stroke="#63b8ff" points="799.85,-139.72 805.98,-131.08 795.8,-134.01 799.85,-139.72"/>
</a>
</g>
</g>
<!-- Node10&#45;&gt;Node11 -->
<g id="edge11_Node000010_Node000011" class="edge">
<title>Node10&#45;&gt;Node11</title>
<g id="a_edge11_Node000010_Node000011"><a xlink:title=" ">
<path fill="none" stroke="#63b8ff" d="M585.15,-110.04C608.35,-98.69 640.59,-77.98 627,-55.25 616.3,-37.34 595.66,-26.2 577.64,-19.53"/>
<polygon fill="#63b8ff" stroke="#63b8ff" points="578.9,-16.26 568.31,-16.41 576.68,-22.9 578.9,-16.26"/>
</a>
</g>
</g>
<!-- Node10&#45;&gt;Node12 -->
<g id="edge12_Node000010_Node000012" class="edge">
<title>Node10&#45;&gt;Node12</title>
<g id="a_edge12_Node000010_Node000012"><a xlink:title=" ">
<path fill="none" stroke="#63b8ff" d="M590.67,-113.33C595.12,-112.38 599.69,-111.41 604,-110.5 670.21,-96.59 747.85,-80.83 790.3,-72.26"/>
<polygon fill="#63b8ff" stroke="#63b8ff" points="790.95,-75.69 800.06,-70.29 789.57,-68.83 790.95,-75.69"/>
</a>
</g>
</g>
<!-- Node10&#45;&gt;Node13 -->
<g id="edge13_Node000010_Node000013" class="edge">
<title>Node10&#45;&gt;Node13</title>
<g id="a_edge13_Node000010_Node000013"><a xlink:title=" ">
<path fill="none" stroke="#63b8ff" d="M539.74,-110.09C516.31,-101.37 480.64,-88.08 454.51,-78.35"/>
<polygon fill="#63b8ff" stroke="#63b8ff" points="455.97,-75.16 445.37,-74.95 453.52,-81.72 455.97,-75.16"/>
</a>
</g>
</g>
<!-- Node14 -->
<g id="Node000014" class="node">
<title>Node14</title>
<g id="a_Node000014"><a xlink:href="_machine_i_d_8hpp.xhtml" target="_top" xlink:title=" ">
<polygon fill="white" stroke="#666666" points="618.25,-74.5 537.75,-74.5 537.75,-55.25 618.25,-55.25 618.25,-74.5"/>
<text text-anchor="middle" x="578" y="-61" font-family="Helvetica,sans-Serif" font-size="10.00">MachineID.hpp</text>
</a>
</g>
</g>
<!-- Node10&#45;&gt;Node14 -->
<g id="edge14_Node000010_Node000014" class="edge">
<title>Node10&#45;&gt;Node14</title>
<g id="a_edge14_Node000010_Node000014"><a xlink:title=" ">
<path fill="none" stroke="#63b8ff" d="M566.31,-110.33C568.06,-103.67 570.54,-94.24 572.77,-85.78"/>
<polygon fill="#63b8ff" stroke="#63b8ff" points="576.1,-86.88 575.25,-76.32 569.33,-85.1 576.1,-86.88"/>
</a>
</g>
</g>
<!-- Node14&#45;&gt;Node11 -->
<g id="edge15_Node000014_Node000011" class="edge">
<title>Node14&#45;&gt;Node11</title>
<g id="a_edge15_Node000014_Node000011"><a xlink:title=" ">
<path fill="none" stroke="#63b8ff" d="M572.39,-55.08C567.88,-48.03 561.41,-37.9 555.79,-29.08"/>
<polygon fill="#63b8ff" stroke="#63b8ff" points="558.88,-27.43 550.55,-20.88 552.98,-31.2 558.88,-27.43"/>
</a>
</g>
</g>
<!-- Node16 -->
<g id="Node000016" class="node">
<title>Node16</title>
<g id="a_Node000016"><a xlink:title=" ">
<polygon fill="#e0e0e0" stroke="#999999" points="1115.62,-74.5 1058.38,-74.5 1058.38,-55.25 1115.62,-55.25 1115.62,-74.5"/>
<text text-anchor="middle" x="1087" y="-61" font-family="Helvetica,sans-Serif" font-size="10.00">esp_log.h</text>
</a>
</g>
</g>
<!-- Node15&#45;&gt;Node16 -->
<g id="edge17_Node000015_Node000016" class="edge">
<title>Node15&#45;&gt;Node16</title>
<g id="a_edge17_Node000015_Node000016"><a xlink:title=" ">
<path fill="none" stroke="#63b8ff" d="M1087,-110.33C1087,-103.82 1087,-94.67 1087,-86.37"/>
<polygon fill="#63b8ff" stroke="#63b8ff" points="1090.5,-86.37 1087,-76.37 1083.5,-86.37 1090.5,-86.37"/>
</a>
</g>
</g>
<!-- Node19&#45;&gt;Node10 -->
<g id="edge35_Node000019_Node000010" class="edge">
<title>Node19&#45;&gt;Node10</title>
<g id="a_edge35_Node000019_Node000010"><a xlink:title=" ">
<path fill="none" stroke="#63b8ff" d="M456.88,-165.34C477.36,-156.89 508.21,-144.15 531.56,-134.52"/>
<polygon fill="#63b8ff" stroke="#63b8ff" points="532.7,-137.83 540.61,-130.78 530.03,-131.36 532.7,-137.83"/>
</a>
</g>
</g>
<!-- Node19&#45;&gt;Node11 -->
<g id="edge26_Node000019_Node000011" class="edge">
<title>Node19&#45;&gt;Node11</title>
<g id="a_edge26_Node000019_Node000011"><a xlink:title=" ">
<path fill="none" stroke="#63b8ff" d="M438.34,-165.4C446.29,-144.69 467.83,-92.5 496,-55.25 503.93,-44.77 514.47,-34.66 523.66,-26.72"/>
<polygon fill="#63b8ff" stroke="#63b8ff" points="525.64,-29.63 531.08,-20.54 521.16,-24.25 525.64,-29.63"/>
</a>
</g>
</g>
<!-- Node19&#45;&gt;Node12 -->
<g id="edge27_Node000019_Node000012" class="edge">
<title>Node19&#45;&gt;Node12</title>
<g id="a_edge27_Node000019_Node000012"><a xlink:title=" ">
<path fill="none" stroke="#63b8ff" d="M477.55,-165.31C511.1,-157.56 558.79,-145.22 599,-129.75 616.67,-122.95 619.23,-117.04 637,-110.5 689.32,-91.24 753.04,-77.98 790.4,-71.18"/>
<polygon fill="#63b8ff" stroke="#63b8ff" points="790.84,-74.66 800.07,-69.47 789.61,-67.77 790.84,-74.66"/>
</a>
</g>
</g>
<!-- Node19&#45;&gt;Node13 -->
<g id="edge25_Node000019_Node000013" class="edge">
<title>Node19&#45;&gt;Node13</title>
<g id="a_edge25_Node000019_Node000013"><a xlink:title=" ">
<path fill="none" stroke="#63b8ff" d="M431,-165.37C427.31,-156.51 422.08,-142.49 420,-129.75 417.61,-115.14 417.98,-98.4 418.89,-85.72"/>
<polygon fill="#63b8ff" stroke="#63b8ff" points="422.34,-86.41 419.75,-76.13 415.37,-85.78 422.34,-86.41"/>
</a>
</g>
</g>
<!-- Node19&#45;&gt;Node14 -->
<g id="edge34_Node000019_Node000014" class="edge">
<title>Node19&#45;&gt;Node14</title>
<g id="a_edge34_Node000019_Node000014"><a xlink:title=" ">
<path fill="none" stroke="#63b8ff" d="M446.7,-165.5C470.9,-147.14 526.71,-104.79 557.2,-81.66"/>
<polygon fill="#63b8ff" stroke="#63b8ff" points="559.08,-84.62 564.93,-75.79 554.85,-79.05 559.08,-84.62"/>
</a>
</g>
</g>
<!-- Node19&#45;&gt;Node20 -->
<g id="edge28_Node000019_Node000020" class="edge">
<title>Node19&#45;&gt;Node20</title>
<g id="a_edge28_Node000019_Node000020"><a xlink:title=" ">
<path fill="none" stroke="#63b8ff" d="M391.62,-165.28C342.9,-155.07 264.62,-138.66 218.46,-128.98"/>
<polygon fill="#63b8ff" stroke="#63b8ff" points="219.44,-125.61 208.94,-126.98 218.01,-132.46 219.44,-125.61"/>
</a>
</g>
</g>
<!-- Node20&#45;&gt;Node11 -->
<g id="edge29_Node000020_Node000011" class="edge">
<title>Node20&#45;&gt;Node11</title>
<g id="a_edge29_Node000020_Node000011"><a xlink:title=" ">
<path fill="none" stroke="#63b8ff" d="M207.22,-112.96C248,-103.26 324.68,-84.49 351,-74.5 368.7,-67.78 371.38,-62.18 389,-55.25 429.62,-39.28 478.23,-26.21 510.05,-18.44"/>
<polygon fill="#63b8ff" stroke="#63b8ff" points="510.59,-21.91 519.49,-16.17 508.95,-15.1 510.59,-21.91"/>
</a>
</g>
</g>
<!-- Node21 -->
<g id="Node000021" class="node">
<title>Node21</title>
<g id="a_Node000021"><a xlink:title=" ">
<polygon fill="#e0e0e0" stroke="#999999" points="243.75,-74.5 142.25,-74.5 142.25,-55.25 243.75,-55.25 243.75,-74.5"/>
<text text-anchor="middle" x="193" y="-61" font-family="Helvetica,sans-Serif" font-size="10.00">Adafruit_NeoPixel.h</text>
</a>
</g>
</g>
<!-- Node20&#45;&gt;Node21 -->
<g id="edge30_Node000020_Node000021" class="edge">
<title>Node20&#45;&gt;Node21</title>
<g id="a_edge30_Node000020_Node000021"><a xlink:title=" ">
<path fill="none" stroke="#63b8ff" d="M182.98,-110.33C184.47,-103.74 186.56,-94.46 188.45,-86.07"/>
<polygon fill="#63b8ff" stroke="#63b8ff" points="191.86,-86.86 190.64,-76.34 185.03,-85.32 191.86,-86.86"/>
</a>
</g>
</g>
<!-- Node22 -->
<g id="Node000022" class="node">
<title>Node22</title>
<g id="a_Node000022"><a xlink:href="_pins_config_8hpp.xhtml" target="_top" xlink:title=" ">
<polygon fill="white" stroke="#666666" points="342.25,-74.5 261.75,-74.5 261.75,-55.25 342.25,-55.25 342.25,-74.5"/>
<text text-anchor="middle" x="302" y="-61" font-family="Helvetica,sans-Serif" font-size="10.00">PinsConfig.hpp</text>
</a>
</g>
</g>
<!-- Node20&#45;&gt;Node22 -->
<g id="edge31_Node000020_Node000022" class="edge">
<title>Node20&#45;&gt;Node22</title>
<g id="a_edge31_Node000020_Node000022"><a xlink:title=" ">
<path fill="none" stroke="#63b8ff" d="M201.53,-110.09C220.56,-101.72 249.15,-89.13 270.97,-79.53"/>
<polygon fill="#63b8ff" stroke="#63b8ff" points="272.24,-82.79 279.99,-75.56 269.43,-76.39 272.24,-82.79"/>
</a>
</g>
</g>
<!-- Node22&#45;&gt;Node11 -->
<g id="edge32_Node000022_Node000011" class="edge">
<title>Node22&#45;&gt;Node11</title>
<g id="a_edge32_Node000022_Node000011"><a xlink:title=" ">
<path fill="none" stroke="#63b8ff" d="M342.51,-54.96C389.44,-44.63 465.95,-27.8 509.95,-18.12"/>
<polygon fill="#63b8ff" stroke="#63b8ff" points="510.43,-21.6 519.44,-16.03 508.93,-14.76 510.43,-21.6"/>
</a>
</g>
</g>
<!-- Node22&#45;&gt;Node18 -->
<g id="edge33_Node000022_Node000018" class="edge">
<title>Node22&#45;&gt;Node18</title>
<g id="a_edge33_Node000022_Node000018"><a xlink:title=" ">
<path fill="none" stroke="#63b8ff" d="M263.41,-54.78C218.77,-44.26 146.25,-27.18 105.76,-17.64"/>
<polygon fill="#63b8ff" stroke="#63b8ff" points="106.77,-14.28 96.23,-15.39 105.16,-21.09 106.77,-14.28"/>
</a>
</g>
</g>
</g>
</svg>
