<?xml version="1.0" encoding="UTF-8" standalone="no"?>
<!DOCTYPE svg PUBLIC "-//W3C//DTD SVG 1.1//EN"
 "http://www.w3.org/Graphics/SVG/1.1/DTD/svg11.dtd">
<!-- Generated by graphviz version 9.0.0 (20230911.1827)
 -->
<!-- Title: LCDWrapper.hpp Pages: 1 -->
<!--zoomable 469 -->

<svg id="main" version="1.1" xmlns="http://www.w3.org/2000/svg" xmlns:xlink="http://www.w3.org/1999/xlink" xml:space="preserve" onload="init(evt)">
<style type="text/css"><![CDATA[
.node, .edge {opacity: 0.7;}
.node.selected, .edge.selected {opacity: 1;}
.edge:hover path { stroke: red; }
.edge:hover polygon { stroke: red; fill: red; }
]]></style>

<defs>
  <circle id="rim" cx="0" cy="0" r="7"/>
  <circle id="rim2" cx="0" cy="0" r="3.5"/>
  <g id="zoomPlus">
    <use xlink:href="#rim" fill="#404040"><set attributeName="fill" to="#808080" begin="zoomplus.mouseover" end="zoomplus.mouseout"/></use>
    <path d="M-4,0h8M0,-4v8" fill="none" stroke="white" stroke-width="1.5" pointer-events="none"/>
  </g>
  <g id="zoomMin">
    <use xlink:href="#rim" fill="#404040"><set attributeName="fill" to="#808080" begin="zoomminus.mouseover" end="zoomminus.mouseout"/></use>
    <path d="M-4,0h8" fill="none" stroke="white" stroke-width="1.5" pointer-events="none"/>
  </g>
  <g id="arrowUp" transform="translate(30 24)">
    <use xlink:href="#rim"/>
    <path pointer-events="none" fill="none" stroke="white" stroke-width="1.5" d="M0,-3.0v7 M-2.5,-0.5L0,-3.0L2.5,-0.5"/>
  </g>
  <g id="arrowRight" transform="rotate(90) translate(36 -43)">
    <use xlink:href="#rim"/>
    <path pointer-events="none" fill="none" stroke="white" stroke-width="1.5" d="M0,-3.0v7 M-2.5,-0.5L0,-3.0L2.5,-0.5"/>
  </g>
  <g id="arrowDown" transform="rotate(180) translate(-30 -48)">
    <use xlink:href="#rim"/>
    <path pointer-events="none" fill="none" stroke="white" stroke-width="1.5" d="M0,-3.0v7 M-2.5,-0.5L0,-3.0L2.5,-0.5"/>
  </g>
  <g id="arrowLeft" transform="rotate(270) translate(-36 17)">
    <use xlink:href="#rim"/>
    <path pointer-events="none" fill="none" stroke="white" stroke-width="1.5" d="M0,-3.0v7 M-2.5,-0.5L0,-3.0L2.5,-0.5"/>
  </g>
  <g id="resetDef">
    <use xlink:href="#rim2" fill="#404040"><set attributeName="fill" to="#808080" begin="reset.mouseover" end="reset.mouseout"/></use>
  </g>
</defs>
<script type="application/ecmascript">
var viewWidth = 1071;
var viewHeight = 469;
var sectionId = 'dynsection-0';
</script>
<script type="application/ecmascript" xlink:href="svg.min.js"/>
<svg id="graph" class="graph">
<g id="viewport">
<title>LCDWrapper.hpp</title>
<!-- Node1 -->
<g id="Node000001" class="node">
<title>Node1</title>
<g id="a_Node000001"><a xlink:title=" ">
<polygon fill="#999999" stroke="#666666" points="578.75,-461.25 489.25,-461.25 489.25,-442 578.75,-442 578.75,-461.25"/>
<text text-anchor="middle" x="534" y="-447.75" font-family="Helvetica,sans-Serif" font-size="10.00">LCDWrapper.hpp</text>
</a>
</g>
</g>
<!-- Node2 -->
<g id="Node000002" class="node">
<title>Node2</title>
<g id="a_Node000002"><a xlink:href="_base_l_c_d_wrapper_8hpp.xhtml" target="_top" xlink:title=" ">
<polygon fill="white" stroke="#666666" points="458,-406 346,-406 346,-386.75 458,-386.75 458,-406"/>
<text text-anchor="middle" x="402" y="-392.5" font-family="Helvetica,sans-Serif" font-size="10.00">BaseLCDWrapper.hpp</text>
</a>
</g>
</g>
<!-- Node1&#45;&gt;Node2 -->
<g id="edge1_Node000001_Node000002" class="edge">
<title>Node1&#45;&gt;Node2</title>
<g id="a_edge1_Node000001_Node000002"><a xlink:title=" ">
<path fill="none" stroke="#63b8ff" d="M511.61,-441.59C490.56,-433.1 458.8,-420.29 434.88,-410.64"/>
<polygon fill="#63b8ff" stroke="#63b8ff" points="436.49,-407.51 425.91,-407.02 433.87,-414.01 436.49,-407.51"/>
</a>
</g>
</g>
<!-- Node3 -->
<g id="Node000003" class="node">
<title>Node3</title>
<g id="a_Node000003"><a xlink:href="_board_info_8hpp.xhtml" target="_top" xlink:title=" ">
<polygon fill="white" stroke="#666666" points="506,-350.75 430,-350.75 430,-331.5 506,-331.5 506,-350.75"/>
<text text-anchor="middle" x="468" y="-337.25" font-family="Helvetica,sans-Serif" font-size="10.00">BoardInfo.hpp</text>
</a>
</g>
</g>
<!-- Node1&#45;&gt;Node3 -->
<g id="edge41_Node000001_Node000003" class="edge">
<title>Node1&#45;&gt;Node3</title>
<g id="a_edge41_Node000001_Node000003"><a xlink:title=" ">
<path fill="none" stroke="#63b8ff" d="M528.6,-441.75C517.87,-424.1 493.66,-384.3 479.3,-360.7"/>
<polygon fill="#63b8ff" stroke="#63b8ff" points="482.45,-359.14 474.26,-352.42 476.47,-362.78 482.45,-359.14"/>
</a>
</g>
</g>
<!-- Node4 -->
<g id="Node000004" class="node">
<title>Node4</title>
<g id="a_Node000004"><a xlink:href="_machine_8hpp.xhtml" target="_top" xlink:title=" ">
<polygon fill="white" stroke="#666666" points="503.38,-295.5 432.62,-295.5 432.62,-276.25 503.38,-276.25 503.38,-295.5"/>
<text text-anchor="middle" x="468" y="-282" font-family="Helvetica,sans-Serif" font-size="10.00">Machine.hpp</text>
</a>
</g>
</g>
<!-- Node1&#45;&gt;Node4 -->
<g id="edge42_Node000001_Node000004" class="edge">
<title>Node1&#45;&gt;Node4</title>
<g id="a_edge42_Node000001_Node000004"><a xlink:title=" ">
<path fill="none" stroke="#63b8ff" d="M534.46,-441.65C535.14,-420.94 534.62,-368.75 515,-331.5 509.16,-320.42 499.51,-310.53 490.47,-302.9"/>
<polygon fill="#63b8ff" stroke="#63b8ff" points="492.67,-300.18 482.65,-296.75 488.34,-305.68 492.67,-300.18"/>
</a>
</g>
</g>
<!-- Node13 -->
<g id="Node000013" class="node">
<title>Node13</title>
<g id="a_Node000013"><a xlink:title=" ">
<polygon fill="#e0e0e0" stroke="#999999" points="98.62,-74.5 53.38,-74.5 53.38,-55.25 98.62,-55.25 98.62,-74.5"/>
<text text-anchor="middle" x="76" y="-61" font-family="Helvetica,sans-Serif" font-size="10.00">chrono</text>
</a>
</g>
</g>
<!-- Node1&#45;&gt;Node13 -->
<g id="edge45_Node000001_Node000013" class="edge">
<title>Node1&#45;&gt;Node13</title>
<g id="a_edge45_Node000001_Node000013"><a xlink:title=" ">
<path fill="none" stroke="#63b8ff" d="M488.93,-451C360.19,-450.86 0,-441.58 0,-342.12 0,-342.12 0,-342.12 0,-174.38 0,-135.77 32.68,-101.14 55.18,-81.87"/>
<polygon fill="#63b8ff" stroke="#63b8ff" points="57.11,-84.82 62.62,-75.77 52.67,-79.41 57.11,-84.82"/>
</a>
</g>
</g>
<!-- Node17 -->
<g id="Node000017" class="node">
<title>Node17</title>
<g id="a_Node000017"><a xlink:title=" ">
<polygon fill="#e0e0e0" stroke="#999999" points="908.5,-19.25 871.5,-19.25 871.5,0 908.5,0 908.5,-19.25"/>
<text text-anchor="middle" x="890" y="-5.75" font-family="Helvetica,sans-Serif" font-size="10.00">array</text>
</a>
</g>
</g>
<!-- Node1&#45;&gt;Node17 -->
<g id="edge44_Node000001_Node000017" class="edge">
<title>Node1&#45;&gt;Node17</title>
<g id="a_edge44_Node000001_Node000017"><a xlink:title=" ">
<path fill="none" stroke="#63b8ff" d="M578.98,-448.32C686.02,-441.63 947,-417.56 947,-342.12 947,-342.12 947,-342.12 947,-119.12 947,-83.67 922.86,-48.41 905.99,-28.1"/>
<polygon fill="#63b8ff" stroke="#63b8ff" points="908.84,-26.05 899.65,-20.79 903.56,-30.63 908.84,-26.05"/>
</a>
</g>
</g>
<!-- Node19 -->
<g id="Node000019" class="node">
<title>Node19</title>
<g id="a_Node000019"><a xlink:href="pins_8hpp.xhtml" target="_top" xlink:title=" ">
<polygon fill="white" stroke="#666666" points="829,-129.75 777,-129.75 777,-110.5 829,-110.5 829,-129.75"/>
<text text-anchor="middle" x="803" y="-116.25" font-family="Helvetica,sans-Serif" font-size="10.00">pins.hpp</text>
</a>
</g>
</g>
<!-- Node1&#45;&gt;Node19 -->
<g id="edge43_Node000001_Node000019" class="edge">
<title>Node1&#45;&gt;Node19</title>
<g id="a_edge43_Node000001_Node000019"><a xlink:title=" ">
<path fill="none" stroke="#63b8ff" d="M579.16,-451.26C653.87,-449.69 795,-434.5 795,-342.12 795,-342.12 795,-342.12 795,-229.62 795,-198.82 798.25,-163.23 800.6,-141.46"/>
<polygon fill="#63b8ff" stroke="#63b8ff" points="804.07,-141.94 801.72,-131.61 797.11,-141.16 804.07,-141.94"/>
</a>
</g>
</g>
<!-- Node22 -->
<g id="Node000022" class="node">
<title>Node22</title>
<g id="a_Node000022"><a xlink:title=" ">
<polygon fill="#e0e0e0" stroke="#999999" points="1062.62,-406 975.38,-406 975.38,-386.75 1062.62,-386.75 1062.62,-406"/>
<text text-anchor="middle" x="1019" y="-392.5" font-family="Helvetica,sans-Serif" font-size="10.00">LCDWrapper.tpp</text>
</a>
</g>
</g>
<!-- Node1&#45;&gt;Node22 -->
<g id="edge46_Node000001_Node000022" class="edge">
<title>Node1&#45;&gt;Node22</title>
<g id="a_edge46_Node000001_Node000022"><a xlink:title=" ">
<path fill="none" stroke="#63b8ff" d="M578.95,-446.58C656.86,-439.41 821.98,-423.59 961,-406 961.99,-405.87 963,-405.75 964.01,-405.61"/>
<polygon fill="#63b8ff" stroke="#63b8ff" points="964.07,-409.14 973.51,-404.33 963.13,-402.2 964.07,-409.14"/>
</a>
</g>
</g>
<!-- Node2&#45;&gt;Node3 -->
<g id="edge2_Node000002_Node000003" class="edge">
<title>Node2&#45;&gt;Node3</title>
<g id="a_edge2_Node000002_Node000003"><a xlink:title=" ">
<path fill="none" stroke="#63b8ff" d="M413.2,-386.34C422.74,-378.65 436.67,-367.4 448.11,-358.18"/>
<polygon fill="#63b8ff" stroke="#63b8ff" points="450.21,-360.98 455.79,-351.98 445.81,-355.53 450.21,-360.98"/>
</a>
</g>
</g>
<!-- Node2&#45;&gt;Node4 -->
<g id="edge38_Node000002_Node000004" class="edge">
<title>Node2&#45;&gt;Node4</title>
<g id="a_edge38_Node000002_Node000004"><a xlink:title=" ">
<path fill="none" stroke="#63b8ff" d="M403.15,-386.52C405.14,-373.62 410.11,-349.25 421,-331.5 427.64,-320.68 437.55,-310.73 446.57,-302.99"/>
<polygon fill="#63b8ff" stroke="#63b8ff" points="448.73,-305.74 454.28,-296.72 444.31,-300.31 448.73,-305.74"/>
</a>
</g>
</g>
<!-- Node12 -->
<g id="Node000012" class="node">
<title>Node12</title>
<g id="a_Node000012"><a xlink:title=" ">
<polygon fill="#e0e0e0" stroke="#999999" points="351,-74.5 311,-74.5 311,-55.25 351,-55.25 351,-74.5"/>
<text text-anchor="middle" x="331" y="-61" font-family="Helvetica,sans-Serif" font-size="10.00">string</text>
</a>
</g>
</g>
<!-- Node2&#45;&gt;Node12 -->
<g id="edge40_Node000002_Node000012" class="edge">
<title>Node2&#45;&gt;Node12</title>
<g id="a_edge40_Node000002_Node000012"><a xlink:title=" ">
<path fill="none" stroke="#63b8ff" d="M345.58,-394.7C271.85,-390.49 152,-370.74 152,-286.88 152,-286.88 152,-286.88 152,-174.38 152,-140.1 249.21,-97.42 300.36,-77.33"/>
<polygon fill="#63b8ff" stroke="#63b8ff" points="301.34,-80.71 309.4,-73.84 298.81,-74.18 301.34,-80.71"/>
</a>
</g>
</g>
<!-- Node2&#45;&gt;Node13 -->
<g id="edge39_Node000002_Node000013" class="edge">
<title>Node2&#45;&gt;Node13</title>
<g id="a_edge39_Node000002_Node000013"><a xlink:title=" ">
<path fill="none" stroke="#63b8ff" d="M345.52,-390.33C243.28,-379.63 38,-350.26 38,-286.88 38,-286.88 38,-286.88 38,-174.38 38,-141.38 53.84,-105.76 65.07,-84.66"/>
<polygon fill="#63b8ff" stroke="#63b8ff" points="68.02,-86.55 69.82,-76.11 61.9,-83.15 68.02,-86.55"/>
</a>
</g>
</g>
<!-- Node3&#45;&gt;Node4 -->
<g id="edge3_Node000003_Node000004" class="edge">
<title>Node3&#45;&gt;Node4</title>
<g id="a_edge3_Node000003_Node000004"><a xlink:title=" ">
<path fill="none" stroke="#63b8ff" d="M468,-331.33C468,-324.82 468,-315.67 468,-307.37"/>
<polygon fill="#63b8ff" stroke="#63b8ff" points="471.5,-307.37 468,-297.37 464.5,-307.37 471.5,-307.37"/>
</a>
</g>
</g>
<!-- Node5 -->
<g id="Node000005" class="node">
<title>Node5</title>
<g id="a_Node000005"><a xlink:href="_fab_user_8hpp.xhtml" target="_top" xlink:title=" ">
<polygon fill="white" stroke="#666666" points="503.75,-240.25 432.25,-240.25 432.25,-221 503.75,-221 503.75,-240.25"/>
<text text-anchor="middle" x="468" y="-226.75" font-family="Helvetica,sans-Serif" font-size="10.00">FabUser.hpp</text>
</a>
</g>
</g>
<!-- Node4&#45;&gt;Node5 -->
<g id="edge4_Node000004_Node000005" class="edge">
<title>Node4&#45;&gt;Node5</title>
<g id="a_edge4_Node000004_Node000005"><a xlink:title=" ">
<path fill="none" stroke="#63b8ff" d="M468,-276.08C468,-269.57 468,-260.42 468,-252.12"/>
<polygon fill="#63b8ff" stroke="#63b8ff" points="471.5,-252.12 468,-242.12 464.5,-252.12 471.5,-252.12"/>
</a>
</g>
</g>
<!-- Node11 -->
<g id="Node000011" class="node">
<title>Node11</title>
<g id="a_Node000011"><a xlink:title=" ">
<polygon fill="#e0e0e0" stroke="#999999" points="439.62,-19.25 394.38,-19.25 394.38,0 439.62,0 439.62,-19.25"/>
<text text-anchor="middle" x="417" y="-5.75" font-family="Helvetica,sans-Serif" font-size="10.00">cstdint</text>
</a>
</g>
</g>
<!-- Node4&#45;&gt;Node11 -->
<g id="edge37_Node000004_Node000011" class="edge">
<title>Node4&#45;&gt;Node11</title>
<g id="a_edge37_Node000004_Node000011"><a xlink:title=" ">
<path fill="none" stroke="#63b8ff" d="M503.85,-277.27C590.33,-257.33 798.39,-198.86 730,-110.5 690.94,-60.03 650.01,-98.81 591,-74.5 575.3,-68.03 573.52,-62.13 558,-55.25 522.57,-39.54 479.89,-26.84 450.84,-19.06"/>
<polygon fill="#63b8ff" stroke="#63b8ff" points="452.06,-15.77 441.5,-16.62 450.29,-22.54 452.06,-15.77"/>
</a>
</g>
</g>
<!-- Node4&#45;&gt;Node13 -->
<g id="edge36_Node000004_Node000013" class="edge">
<title>Node4&#45;&gt;Node13</title>
<g id="a_edge36_Node000004_Node000013"><a xlink:title=" ">
<path fill="none" stroke="#63b8ff" d="M432.25,-276.38C379.02,-262.68 277.03,-232.37 201,-185 155.2,-156.47 112.01,-109.16 90.4,-83.59"/>
<polygon fill="#63b8ff" stroke="#63b8ff" points="93.26,-81.56 84.18,-76.11 87.88,-86.03 93.26,-81.56"/>
</a>
</g>
</g>
<!-- Node4&#45;&gt;Node17 -->
<g id="edge35_Node000004_Node000017" class="edge">
<title>Node4&#45;&gt;Node17</title>
<g id="a_edge35_Node000004_Node000017"><a xlink:title=" ">
<path fill="none" stroke="#63b8ff" d="M503.72,-283.72C608.7,-279.37 909,-259.66 909,-176.38 909,-176.38 909,-176.38 909,-119.12 909,-87.79 901.22,-52.12 895.61,-30.5"/>
<polygon fill="#63b8ff" stroke="#63b8ff" points="899.03,-29.73 893.04,-21 892.28,-31.56 899.03,-29.73"/>
</a>
</g>
</g>
<!-- Node18 -->
<g id="Node000018" class="node">
<title>Node18</title>
<g id="a_Node000018"><a xlink:href="_machine_config_8hpp.xhtml" target="_top" xlink:title=" ">
<polygon fill="white" stroke="#666666" points="307.88,-185 210.12,-185 210.12,-165.75 307.88,-165.75 307.88,-185"/>
<text text-anchor="middle" x="259" y="-171.5" font-family="Helvetica,sans-Serif" font-size="10.00">MachineConfig.hpp</text>
</a>
</g>
</g>
<!-- Node4&#45;&gt;Node18 -->
<g id="edge23_Node000004_Node000018" class="edge">
<title>Node4&#45;&gt;Node18</title>
<g id="a_edge23_Node000004_Node000018"><a xlink:title=" ">
<path fill="none" stroke="#63b8ff" d="M450.54,-275.81C414.27,-256.98 330.53,-213.51 286.77,-190.79"/>
<polygon fill="#63b8ff" stroke="#63b8ff" points="288.39,-187.69 277.9,-186.19 285.16,-193.9 288.39,-187.69"/>
</a>
</g>
</g>
<!-- Node6 -->
<g id="Node000006" class="node">
<title>Node6</title>
<g id="a_Node000006"><a xlink:title=" ">
<polygon fill="#e0e0e0" stroke="#999999" points="496.25,-129.75 439.75,-129.75 439.75,-110.5 496.25,-110.5 496.25,-129.75"/>
<text text-anchor="middle" x="468" y="-116.25" font-family="Helvetica,sans-Serif" font-size="10.00">Arduino.h</text>
</a>
</g>
</g>
<!-- Node5&#45;&gt;Node6 -->
<g id="edge5_Node000005_Node000006" class="edge">
<title>Node5&#45;&gt;Node6</title>
<g id="a_edge5_Node000005_Node000006"><a xlink:title=" ">
<path fill="none" stroke="#63b8ff" d="M468,-220.75C468,-203.5 468,-165.08 468,-141.31"/>
<polygon fill="#63b8ff" stroke="#63b8ff" points="471.5,-141.64 468,-131.64 464.5,-141.64 471.5,-141.64"/>
</a>
</g>
</g>
<!-- Node7 -->
<g id="Node000007" class="node">
<title>Node7</title>
<g id="a_Node000007"><a xlink:href="card_8hpp.xhtml" target="_top" xlink:title=" ">
<polygon fill="white" stroke="#666666" points="561.38,-185 508.62,-185 508.62,-165.75 561.38,-165.75 561.38,-185"/>
<text text-anchor="middle" x="535" y="-171.5" font-family="Helvetica,sans-Serif" font-size="10.00">card.hpp</text>
</a>
</g>
</g>
<!-- Node5&#45;&gt;Node7 -->
<g id="edge6_Node000005_Node000007" class="edge">
<title>Node5&#45;&gt;Node7</title>
<g id="a_edge6_Node000005_Node000007"><a xlink:title=" ">
<path fill="none" stroke="#63b8ff" d="M479.37,-220.59C489.05,-212.9 503.2,-201.65 514.81,-192.43"/>
<polygon fill="#63b8ff" stroke="#63b8ff" points="516.97,-195.18 522.62,-186.22 512.61,-189.7 516.97,-195.18"/>
</a>
</g>
</g>
<!-- Node8 -->
<g id="Node000008" class="node">
<title>Node8</title>
<g id="a_Node000008"><a xlink:title=" ">
<polygon fill="#e0e0e0" stroke="#999999" points="720.62,-129.75 669.38,-129.75 669.38,-110.5 720.62,-110.5 720.62,-129.75"/>
<text text-anchor="middle" x="695" y="-116.25" font-family="Helvetica,sans-Serif" font-size="10.00">sstream</text>
</a>
</g>
</g>
<!-- Node5&#45;&gt;Node8 -->
<g id="edge21_Node000005_Node000008" class="edge">
<title>Node5&#45;&gt;Node8</title>
<g id="a_edge21_Node000005_Node000008"><a xlink:title=" ">
<path fill="none" stroke="#63b8ff" d="M489.66,-220.59C510.43,-211.83 542.58,-197.99 570,-185 604.3,-168.75 643.13,-148.63 668.29,-135.36"/>
<polygon fill="#63b8ff" stroke="#63b8ff" points="669.64,-138.61 676.84,-130.84 666.36,-132.42 669.64,-138.61"/>
</a>
</g>
</g>
<!-- Node10 -->
<g id="Node000010" class="node">
<title>Node10</title>
<g id="a_Node000010"><a xlink:href="conf_8hpp.xhtml" target="_top" xlink:title=" ">
<polygon fill="white" stroke="#666666" points="346.38,-129.75 293.62,-129.75 293.62,-110.5 346.38,-110.5 346.38,-129.75"/>
<text text-anchor="middle" x="320" y="-116.25" font-family="Helvetica,sans-Serif" font-size="10.00">conf.hpp</text>
</a>
</g>
</g>
<!-- Node5&#45;&gt;Node10 -->
<g id="edge18_Node000005_Node000010" class="edge">
<title>Node5&#45;&gt;Node10</title>
<g id="a_edge18_Node000005_Node000010"><a xlink:title=" ">
<path fill="none" stroke="#63b8ff" d="M431.94,-220.83C409.38,-213.95 380.76,-202.55 360,-185 345.79,-172.99 335.02,-154.62 328.26,-140.65"/>
<polygon fill="#63b8ff" stroke="#63b8ff" points="331.47,-139.25 324.16,-131.58 325.09,-142.13 331.47,-139.25"/>
</a>
</g>
</g>
<!-- Node5&#45;&gt;Node11 -->
<g id="edge20_Node000005_Node000011" class="edge">
<title>Node5&#45;&gt;Node11</title>
<g id="a_edge20_Node000005_Node000011"><a xlink:title=" ">
<path fill="none" stroke="#63b8ff" d="M463.9,-220.76C456.13,-203.6 439.34,-164.45 431,-129.75 422.83,-95.75 419.35,-55.11 417.93,-31.16"/>
<polygon fill="#63b8ff" stroke="#63b8ff" points="421.43,-31.04 417.41,-21.23 414.44,-31.4 421.43,-31.04"/>
</a>
</g>
</g>
<!-- Node5&#45;&gt;Node12 -->
<g id="edge22_Node000005_Node000012" class="edge">
<title>Node5&#45;&gt;Node12</title>
<g id="a_edge22_Node000005_Node000012"><a xlink:title=" ">
<path fill="none" stroke="#63b8ff" d="M448.66,-220.61C433.48,-212.82 412.56,-200.39 398,-185 394.13,-180.91 359.23,-117.51 341.39,-84.91"/>
<polygon fill="#63b8ff" stroke="#63b8ff" points="344.47,-83.24 336.6,-76.15 338.32,-86.6 344.47,-83.24"/>
</a>
</g>
</g>
<!-- Node5&#45;&gt;Node17 -->
<g id="edge19_Node000005_Node000017" class="edge">
<title>Node5&#45;&gt;Node17</title>
<g id="a_edge19_Node000005_Node000017"><a xlink:title=" ">
<path fill="none" stroke="#63b8ff" d="M504,-229.75C576.07,-228.1 739.6,-214.57 838,-129.75 867.96,-103.92 881.28,-57.6 886.69,-30.97"/>
<polygon fill="#63b8ff" stroke="#63b8ff" points="890.13,-31.61 888.48,-21.14 883.24,-30.35 890.13,-31.61"/>
</a>
</g>
</g>
<!-- Node7&#45;&gt;Node6 -->
<g id="edge9_Node000007_Node000006" class="edge">
<title>Node7&#45;&gt;Node6</title>
<g id="a_edge9_Node000007_Node000006"><a xlink:title=" ">
<path fill="none" stroke="#63b8ff" d="M523.63,-165.34C513.95,-157.65 499.8,-146.4 488.19,-137.18"/>
<polygon fill="#63b8ff" stroke="#63b8ff" points="490.39,-134.45 480.38,-130.97 486.03,-139.93 490.39,-134.45"/>
</a>
</g>
</g>
<!-- Node7&#45;&gt;Node8 -->
<g id="edge7_Node000007_Node000008" class="edge">
<title>Node7&#45;&gt;Node8</title>
<g id="a_edge7_Node000007_Node000008"><a xlink:title=" ">
<path fill="none" stroke="#63b8ff" d="M561.78,-165.46C588.21,-156.67 628.81,-143.15 658.25,-133.36"/>
<polygon fill="#63b8ff" stroke="#63b8ff" points="659.11,-136.76 667.49,-130.28 656.9,-130.12 659.11,-136.76"/>
</a>
</g>
</g>
<!-- Node9 -->
<g id="Node000009" class="node">
<title>Node9</title>
<g id="a_Node000009"><a xlink:title=" ">
<polygon fill="#e0e0e0" stroke="#999999" points="650.88,-129.75 601.12,-129.75 601.12,-110.5 650.88,-110.5 650.88,-129.75"/>
<text text-anchor="middle" x="626" y="-116.25" font-family="Helvetica,sans-Serif" font-size="10.00">iomanip</text>
</a>
</g>
</g>
<!-- Node7&#45;&gt;Node9 -->
<g id="edge8_Node000007_Node000009" class="edge">
<title>Node7&#45;&gt;Node9</title>
<g id="a_edge8_Node000007_Node000009"><a xlink:title=" ">
<path fill="none" stroke="#63b8ff" d="M550.44,-165.34C564.16,-157.31 584.5,-145.41 600.62,-135.98"/>
<polygon fill="#63b8ff" stroke="#63b8ff" points="602.32,-139.04 609.18,-130.97 598.78,-133 602.32,-139.04"/>
</a>
</g>
</g>
<!-- Node7&#45;&gt;Node10 -->
<g id="edge10_Node000007_Node000010" class="edge">
<title>Node7&#45;&gt;Node10</title>
<g id="a_edge10_Node000007_Node000010"><a xlink:title=" ">
<path fill="none" stroke="#63b8ff" d="M508.2,-167.74C470.36,-158.37 401.08,-141.21 357.95,-130.52"/>
<polygon fill="#63b8ff" stroke="#63b8ff" points="358.81,-127.13 348.26,-128.13 357.13,-133.93 358.81,-127.13"/>
</a>
</g>
</g>
<!-- Node15 -->
<g id="Node000015" class="node">
<title>Node15</title>
<g id="a_Node000015"><a xlink:href="_logging_8hpp.xhtml" target="_top" xlink:title=" ">
<polygon fill="white" stroke="#666666" points="583.25,-129.75 514.75,-129.75 514.75,-110.5 583.25,-110.5 583.25,-129.75"/>
<text text-anchor="middle" x="549" y="-116.25" font-family="Helvetica,sans-Serif" font-size="10.00">Logging.hpp</text>
</a>
</g>
</g>
<!-- Node7&#45;&gt;Node15 -->
<g id="edge16_Node000007_Node000015" class="edge">
<title>Node7&#45;&gt;Node15</title>
<g id="a_edge16_Node000007_Node000015"><a xlink:title=" ">
<path fill="none" stroke="#63b8ff" d="M537.31,-165.58C539.06,-158.92 541.54,-149.49 543.77,-141.03"/>
<polygon fill="#63b8ff" stroke="#63b8ff" points="547.1,-142.13 546.25,-131.57 540.33,-140.35 547.1,-142.13"/>
</a>
</g>
</g>
<!-- Node10&#45;&gt;Node11 -->
<g id="edge11_Node000010_Node000011" class="edge">
<title>Node10&#45;&gt;Node11</title>
<g id="a_edge11_Node000010_Node000011"><a xlink:title=" ">
<path fill="none" stroke="#63b8ff" d="M327.97,-110.24C336.05,-101.24 348.9,-86.91 360,-74.5 374.03,-58.81 389.98,-40.93 401.44,-28.09"/>
<polygon fill="#63b8ff" stroke="#63b8ff" points="403.84,-30.65 407.88,-20.86 398.61,-25.99 403.84,-30.65"/>
</a>
</g>
</g>
<!-- Node10&#45;&gt;Node12 -->
<g id="edge12_Node000010_Node000012" class="edge">
<title>Node10&#45;&gt;Node12</title>
<g id="a_edge12_Node000010_Node000012"><a xlink:title=" ">
<path fill="none" stroke="#63b8ff" d="M321.82,-110.33C323.18,-103.74 325.1,-94.46 326.83,-86.07"/>
<polygon fill="#63b8ff" stroke="#63b8ff" points="330.24,-86.84 328.84,-76.34 323.39,-85.43 330.24,-86.84"/>
</a>
</g>
</g>
<!-- Node10&#45;&gt;Node13 -->
<g id="edge13_Node000010_Node000013" class="edge">
<title>Node10&#45;&gt;Node13</title>
<g id="a_edge13_Node000010_Node000013"><a xlink:title=" ">
<path fill="none" stroke="#63b8ff" d="M293.42,-113.32C248.83,-103.59 159.01,-83.99 109.92,-73.28"/>
<polygon fill="#63b8ff" stroke="#63b8ff" points="110.94,-69.92 100.43,-71.21 109.45,-76.76 110.94,-69.92"/>
</a>
</g>
</g>
<!-- Node14 -->
<g id="Node000014" class="node">
<title>Node14</title>
<g id="a_Node000014"><a xlink:href="_machine_i_d_8hpp.xhtml" target="_top" xlink:title=" ">
<polygon fill="white" stroke="#666666" points="293.25,-74.5 212.75,-74.5 212.75,-55.25 293.25,-55.25 293.25,-74.5"/>
<text text-anchor="middle" x="253" y="-61" font-family="Helvetica,sans-Serif" font-size="10.00">MachineID.hpp</text>
</a>
</g>
</g>
<!-- Node10&#45;&gt;Node14 -->
<g id="edge14_Node000010_Node000014" class="edge">
<title>Node10&#45;&gt;Node14</title>
<g id="a_edge14_Node000010_Node000014"><a xlink:title=" ">
<path fill="none" stroke="#63b8ff" d="M308.63,-110.09C298.95,-102.4 284.8,-91.15 273.19,-81.93"/>
<polygon fill="#63b8ff" stroke="#63b8ff" points="275.39,-79.2 265.38,-75.72 271.03,-84.68 275.39,-79.2"/>
</a>
</g>
</g>
<!-- Node14&#45;&gt;Node11 -->
<g id="edge15_Node000014_Node000011" class="edge">
<title>Node14&#45;&gt;Node11</title>
<g id="a_edge15_Node000014_Node000011"><a xlink:title=" ">
<path fill="none" stroke="#63b8ff" d="M280.82,-54.84C309.1,-45.66 352.95,-31.42 383.21,-21.6"/>
<polygon fill="#63b8ff" stroke="#63b8ff" points="384.21,-24.95 392.64,-18.53 382.05,-18.29 384.21,-24.95"/>
</a>
</g>
</g>
<!-- Node16 -->
<g id="Node000016" class="node">
<title>Node16</title>
<g id="a_Node000016"><a xlink:title=" ">
<polygon fill="#e0e0e0" stroke="#999999" points="548.62,-74.5 491.38,-74.5 491.38,-55.25 548.62,-55.25 548.62,-74.5"/>
<text text-anchor="middle" x="520" y="-61" font-family="Helvetica,sans-Serif" font-size="10.00">esp_log.h</text>
</a>
</g>
</g>
<!-- Node15&#45;&gt;Node16 -->
<g id="edge17_Node000015_Node000016" class="edge">
<title>Node15&#45;&gt;Node16</title>
<g id="a_edge17_Node000015_Node000016"><a xlink:title=" ">
<path fill="none" stroke="#63b8ff" d="M544.21,-110.33C540.46,-103.44 535.09,-93.59 530.37,-84.91"/>
<polygon fill="#63b8ff" stroke="#63b8ff" points="533.47,-83.3 525.62,-76.19 527.33,-86.64 533.47,-83.3"/>
</a>
</g>
</g>
<!-- Node18&#45;&gt;Node10 -->
<g id="edge34_Node000018_Node000010" class="edge">
<title>Node18&#45;&gt;Node10</title>
<g id="a_edge34_Node000018_Node000010"><a xlink:title=" ">
<path fill="none" stroke="#63b8ff" d="M269.35,-165.34C278.08,-157.72 290.79,-146.62 301.3,-137.45"/>
<polygon fill="#63b8ff" stroke="#63b8ff" points="303.43,-140.23 308.66,-131.02 298.83,-134.96 303.43,-140.23"/>
</a>
</g>
</g>
<!-- Node18&#45;&gt;Node11 -->
<g id="edge25_Node000018_Node000011" class="edge">
<title>Node18&#45;&gt;Node11</title>
<g id="a_edge25_Node000018_Node000011"><a xlink:title=" ">
<path fill="none" stroke="#63b8ff" d="M248.82,-165.48C226.01,-144.49 174.99,-90.97 204,-55.25 226.14,-28 328.4,-16.79 382.78,-12.7"/>
<polygon fill="#63b8ff" stroke="#63b8ff" points="382.69,-16.22 392.42,-12.02 382.19,-9.23 382.69,-16.22"/>
</a>
</g>
</g>
<!-- Node18&#45;&gt;Node12 -->
<g id="edge26_Node000018_Node000012" class="edge">
<title>Node18&#45;&gt;Node12</title>
<g id="a_edge26_Node000018_Node000012"><a xlink:title=" ">
<path fill="none" stroke="#63b8ff" d="M261.33,-165.55C264.99,-152.69 272.95,-128.36 285,-110.5 292.11,-99.96 302.04,-89.93 310.86,-82.07"/>
<polygon fill="#63b8ff" stroke="#63b8ff" points="312.99,-84.85 318.32,-75.7 308.44,-79.53 312.99,-84.85"/>
</a>
</g>
</g>
<!-- Node18&#45;&gt;Node13 -->
<g id="edge24_Node000018_Node000013" class="edge">
<title>Node18&#45;&gt;Node13</title>
<g id="a_edge24_Node000018_Node000013"><a xlink:title=" ">
<path fill="none" stroke="#63b8ff" d="M241.3,-165.35C224.35,-156.59 198.15,-142.75 176,-129.75 149.07,-113.94 118.97,-94.46 98.9,-81.2"/>
<polygon fill="#63b8ff" stroke="#63b8ff" points="100.91,-78.33 90.65,-75.72 97.04,-84.16 100.91,-78.33"/>
</a>
</g>
</g>
<!-- Node18&#45;&gt;Node14 -->
<g id="edge33_Node000018_Node000014" class="edge">
<title>Node18&#45;&gt;Node14</title>
<g id="a_edge33_Node000018_Node000014"><a xlink:title=" ">
<path fill="none" stroke="#63b8ff" d="M257.2,-165.53C255.47,-156.56 252.98,-142.26 252,-129.75 250.87,-115.31 251.16,-98.97 251.71,-86.44"/>
<polygon fill="#63b8ff" stroke="#63b8ff" points="255.2,-86.67 252.24,-76.5 248.21,-86.3 255.2,-86.67"/>
</a>
</g>
</g>
<!-- Node18&#45;&gt;Node19 -->
<g id="edge27_Node000018_Node000019" class="edge">
<title>Node18&#45;&gt;Node19</title>
<g id="a_edge27_Node000018_Node000019"><a xlink:title=" ">
<path fill="none" stroke="#63b8ff" d="M308.2,-170.09C393.93,-162.54 576.25,-146.11 730,-129.75 741.49,-128.53 753.99,-127.09 765.34,-125.74"/>
<polygon fill="#63b8ff" stroke="#63b8ff" points="765.65,-129.23 775.16,-124.57 764.81,-122.28 765.65,-129.23"/>
</a>
</g>
</g>
<!-- Node19&#45;&gt;Node11 -->
<g id="edge28_Node000019_Node000011" class="edge">
<title>Node19&#45;&gt;Node11</title>
<g id="a_edge28_Node000019_Node000011"><a xlink:title=" ">
<path fill="none" stroke="#63b8ff" d="M776.54,-113.54C742.93,-106.13 683.36,-91.93 634,-74.5 614.26,-67.53 610.77,-62.15 591,-55.25 543.39,-38.62 486.49,-25.19 451.04,-17.56"/>
<polygon fill="#63b8ff" stroke="#63b8ff" points="451.88,-14.16 441.37,-15.51 450.43,-21.01 451.88,-14.16"/>
</a>
</g>
</g>
<!-- Node20 -->
<g id="Node000020" class="node">
<title>Node20</title>
<g id="a_Node000020"><a xlink:title=" ">
<polygon fill="#e0e0e0" stroke="#999999" points="744.75,-74.5 643.25,-74.5 643.25,-55.25 744.75,-55.25 744.75,-74.5"/>
<text text-anchor="middle" x="694" y="-61" font-family="Helvetica,sans-Serif" font-size="10.00">Adafruit_NeoPixel.h</text>
</a>
</g>
</g>
<!-- Node19&#45;&gt;Node20 -->
<g id="edge29_Node000019_Node000020" class="edge">
<title>Node19&#45;&gt;Node20</title>
<g id="a_edge29_Node000019_Node000020"><a xlink:title=" ">
<path fill="none" stroke="#63b8ff" d="M784.51,-110.09C767.6,-101.83 742.31,-89.48 722.76,-79.93"/>
<polygon fill="#63b8ff" stroke="#63b8ff" points="724.46,-76.86 713.94,-75.62 721.39,-83.15 724.46,-76.86"/>
</a>
</g>
</g>
<!-- Node21 -->
<g id="Node000021" class="node">
<title>Node21</title>
<g id="a_Node000021"><a xlink:href="_pins_config_8hpp.xhtml" target="_top" xlink:title=" ">
<polygon fill="white" stroke="#666666" points="843.25,-74.5 762.75,-74.5 762.75,-55.25 843.25,-55.25 843.25,-74.5"/>
<text text-anchor="middle" x="803" y="-61" font-family="Helvetica,sans-Serif" font-size="10.00">PinsConfig.hpp</text>
</a>
</g>
</g>
<!-- Node19&#45;&gt;Node21 -->
<g id="edge30_Node000019_Node000021" class="edge">
<title>Node19&#45;&gt;Node21</title>
<g id="a_edge30_Node000019_Node000021"><a xlink:title=" ">
<path fill="none" stroke="#63b8ff" d="M803,-110.33C803,-103.82 803,-94.67 803,-86.37"/>
<polygon fill="#63b8ff" stroke="#63b8ff" points="806.5,-86.37 803,-76.37 799.5,-86.37 806.5,-86.37"/>
</a>
</g>
</g>
<!-- Node21&#45;&gt;Node11 -->
<g id="edge31_Node000021_Node000011" class="edge">
<title>Node21&#45;&gt;Node11</title>
<g id="a_edge31_Node000021_Node000011"><a xlink:title=" ">
<path fill="none" stroke="#63b8ff" d="M762.38,-56.59C759.55,-56.12 756.73,-55.67 754,-55.25 643.54,-38.22 512.09,-21.97 451.15,-14.66"/>
<polygon fill="#63b8ff" stroke="#63b8ff" points="451.78,-11.21 441.43,-13.5 450.95,-18.16 451.78,-11.21"/>
</a>
</g>
</g>
<!-- Node21&#45;&gt;Node17 -->
<g id="edge32_Node000021_Node000017" class="edge">
<title>Node21&#45;&gt;Node17</title>
<g id="a_edge32_Node000021_Node000017"><a xlink:title=" ">
<path fill="none" stroke="#63b8ff" d="M817.76,-54.84C830.88,-46.81 850.32,-34.91 865.73,-25.48"/>
<polygon fill="#63b8ff" stroke="#63b8ff" points="867.18,-28.7 873.88,-20.49 863.52,-22.73 867.18,-28.7"/>
</a>
</g>
</g>
</g>
</svg>

<g id="navigator" transform="translate(0 0)" fill="#404254">
  <rect fill="#f2f5e9" fill-opacity="0.5" stroke="#606060" stroke-width=".5" x="0" y="0" width="60" height="60"/>
  <use id="zoomplus" xlink:href="#zoomPlus" x="17" y="9" onmousedown="handleZoom(evt,'in')"/>
  <use id="zoomminus" xlink:href="#zoomMin" x="42" y="9" onmousedown="handleZoom(evt,'out')"/>
  <use id="reset" xlink:href="#resetDef" x="30" y="36" onmousedown="handleReset()"/>
   <use id="arrowup" xlink:href="#arrowUp" x="0" y="0" onmousedown="handlePan(0,-1)"/>
  <use id="arrowright" xlink:href="#arrowRight" x="0" y="0" onmousedown="handlePan(1,0)"/>
  <use id="arrowdown" xlink:href="#arrowDown" x="0" y="0" onmousedown="handlePan(0,1)"/>
  <use id="arrowleft" xlink:href="#arrowLeft" x="0" y="0" onmousedown="handlePan(-1,0)"/>
</g>
<svg viewBox="0 0 15 15" width="100%" height="30px" preserveAspectRatio="xMaxYMin meet">
 <g id="arrow_out" transform="scale(0.3 0.3)">
  <a xlink:href="_l_c_d_wrapper_8hpp__incl_org.svg" target="_base">
   <rect id="button" ry="5" rx="5" y="6" x="6" height="38" width="38"
        fill="#f2f5e9" fill-opacity="0.5" stroke="#606060" stroke-width="1.0"/>
   <path id="arrow"
     d="M 11.500037,31.436501 C 11.940474,20.09759 22.043105,11.32322 32.158766,21.979434 L 37.068811,17.246167 C 37.068811,17.246167 37.088388,32 37.088388,32 L 22.160133,31.978069 C 22.160133,31.978069 26.997745,27.140456 26.997745,27.140456 C 18.528582,18.264221 13.291696,25.230495 11.500037,31.436501 z"
     style="fill:#404040;"/>
  </a>
 </g>
</svg>

<style type='text/css'>
<![CDATA[
[data-mouse-over-selected='false'] { opacity: 0.7; }
[data-mouse-over-selected='true']  { opacity: 1.0; }
]]>
</style>
<script type="application/ecmascript"><![CDATA[
document.addEventListener('DOMContentLoaded', (event) => {
  highlightEdges();
  highlightAdjacentNodes();
});
]]></script>
</svg>
