<?xml version="1.0" encoding="UTF-8" standalone="no"?>
<!DOCTYPE svg PUBLIC "-//W3C//DTD SVG 1.1//EN"
 "http://www.w3.org/Graphics/SVG/1.1/DTD/svg11.dtd">
<!-- Generated by graphviz version 9.0.0 (20230911.1827)
 -->
<!-- Title: LCDWrapper.hpp Pages: 1 -->
<svg width="1148pt" height="414pt"
 viewBox="0.00 0.00 1147.88 414.00" xmlns="http://www.w3.org/2000/svg" xmlns:xlink="http://www.w3.org/1999/xlink">
<g id="graph0" class="graph" transform="scale(1 1) rotate(0) translate(4 410)">
<title>LCDWrapper.hpp</title>
<!-- Node1 -->
<g id="Node000001" class="node">
<title>Node1</title>
<g id="a_Node000001"><a xlink:title=" ">
<polygon fill="#999999" stroke="#666666" points="1000.75,-406 911.25,-406 911.25,-386.75 1000.75,-386.75 1000.75,-406"/>
<text text-anchor="middle" x="956" y="-392.5" font-family="Helvetica,sans-Serif" font-size="10.00">LCDWrapper.hpp</text>
</a>
</g>
</g>
<!-- Node2 -->
<g id="Node000002" class="node">
<title>Node2</title>
<g id="a_Node000002"><a xlink:href="_board_info_8hpp.xhtml" target="_top" xlink:title=" ">
<polygon fill="white" stroke="#666666" points="852,-350.75 776,-350.75 776,-331.5 852,-331.5 852,-350.75"/>
<text text-anchor="middle" x="814" y="-337.25" font-family="Helvetica,sans-Serif" font-size="10.00">BoardInfo.hpp</text>
</a>
</g>
</g>
<!-- Node1&#45;&gt;Node2 -->
<g id="edge1_Node000001_Node000002" class="edge">
<title>Node1&#45;&gt;Node2</title>
<g id="a_edge1_Node000001_Node000002"><a xlink:title=" ">
<path fill="none" stroke="#63b8ff" d="M931.91,-386.34C909.06,-377.77 874.48,-364.81 848.67,-355.13"/>
<polygon fill="#63b8ff" stroke="#63b8ff" points="850.22,-351.97 839.62,-351.73 847.76,-358.52 850.22,-351.97"/>
</a>
</g>
</g>
<!-- Node3 -->
<g id="Node000003" class="node">
<title>Node3</title>
<g id="a_Node000003"><a xlink:href="_machine_8hpp.xhtml" target="_top" xlink:title=" ">
<polygon fill="white" stroke="#666666" points="849.38,-295.5 778.62,-295.5 778.62,-276.25 849.38,-276.25 849.38,-295.5"/>
<text text-anchor="middle" x="814" y="-282" font-family="Helvetica,sans-Serif" font-size="10.00">Machine.hpp</text>
</a>
</g>
</g>
<!-- Node1&#45;&gt;Node3 -->
<g id="edge39_Node000001_Node000003" class="edge">
<title>Node1&#45;&gt;Node3</title>
<g id="a_edge39_Node000001_Node000003"><a xlink:title=" ">
<path fill="none" stroke="#63b8ff" d="M944.38,-386.5C920.35,-368.14 864.93,-325.79 834.65,-302.66"/>
<polygon fill="#63b8ff" stroke="#63b8ff" points="837.05,-300.09 826.98,-296.8 832.8,-305.65 837.05,-300.09"/>
</a>
</g>
</g>
<!-- Node12 -->
<g id="Node000012" class="node">
<title>Node12</title>
<g id="a_Node000012"><a xlink:title=" ">
<polygon fill="#e0e0e0" stroke="#999999" points="927.62,-74.5 882.38,-74.5 882.38,-55.25 927.62,-55.25 927.62,-74.5"/>
<text text-anchor="middle" x="905" y="-61" font-family="Helvetica,sans-Serif" font-size="10.00">chrono</text>
</a>
</g>
</g>
<!-- Node1&#45;&gt;Node12 -->
<g id="edge42_Node000001_Node000012" class="edge">
<title>Node1&#45;&gt;Node12</title>
<g id="a_edge42_Node000001_Node000012"><a xlink:title=" ">
<path fill="none" stroke="#63b8ff" d="M961.44,-386.46C971.95,-368.38 994,-325.79 994,-286.88 994,-286.88 994,-286.88 994,-174.38 994,-133.54 955.86,-99.67 929.51,-81.15"/>
<polygon fill="#63b8ff" stroke="#63b8ff" points="931.61,-78.34 921.35,-75.66 927.7,-84.15 931.61,-78.34"/>
</a>
</g>
</g>
<!-- Node17 -->
<g id="Node000017" class="node">
<title>Node17</title>
<g id="a_Node000017"><a xlink:title=" ">
<polygon fill="#e0e0e0" stroke="#999999" points="923.5,-19.25 886.5,-19.25 886.5,0 923.5,0 923.5,-19.25"/>
<text text-anchor="middle" x="905" y="-5.75" font-family="Helvetica,sans-Serif" font-size="10.00">array</text>
</a>
</g>
</g>
<!-- Node1&#45;&gt;Node17 -->
<g id="edge41_Node000001_Node000017" class="edge">
<title>Node1&#45;&gt;Node17</title>
<g id="a_edge41_Node000001_Node000017"><a xlink:title=" ">
<path fill="none" stroke="#63b8ff" d="M968.21,-386.44C989.69,-369.58 1032,-330.8 1032,-286.88 1032,-286.88 1032,-286.88 1032,-119.12 1032,-67.92 971.58,-35.73 934.09,-20.69"/>
<polygon fill="#63b8ff" stroke="#63b8ff" points="935.74,-17.58 925.15,-17.28 933.25,-24.11 935.74,-17.58"/>
</a>
</g>
</g>
<!-- Node19 -->
<g id="Node000019" class="node">
<title>Node19</title>
<g id="a_Node000019"><a xlink:href="pins_8hpp.xhtml" target="_top" xlink:title=" ">
<polygon fill="white" stroke="#666666" points="720,-129.75 668,-129.75 668,-110.5 720,-110.5 720,-129.75"/>
<text text-anchor="middle" x="694" y="-116.25" font-family="Helvetica,sans-Serif" font-size="10.00">pins.hpp</text>
</a>
</g>
</g>
<!-- Node1&#45;&gt;Node19 -->
<g id="edge40_Node000001_Node000019" class="edge">
<title>Node1&#45;&gt;Node19</title>
<g id="a_edge40_Node000001_Node000019"><a xlink:title=" ">
<path fill="none" stroke="#63b8ff" d="M950.56,-386.46C940.05,-368.38 918,-325.79 918,-286.88 918,-286.88 918,-286.88 918,-229.62 918,-147.66 795.01,-127.59 731.3,-122.69"/>
<polygon fill="#63b8ff" stroke="#63b8ff" points="731.86,-119.22 721.64,-122.05 731.39,-126.21 731.86,-119.22"/>
</a>
</g>
</g>
<!-- Node23 -->
<g id="Node000023" class="node">
<title>Node23</title>
<g id="a_Node000023"><a xlink:title=" ">
<polygon fill="#e0e0e0" stroke="#999999" points="1139.88,-350.75 1060.12,-350.75 1060.12,-331.5 1139.88,-331.5 1139.88,-350.75"/>
<text text-anchor="middle" x="1100" y="-337.25" font-family="Helvetica,sans-Serif" font-size="10.00">LiquidCrystal.h</text>
</a>
</g>
</g>
<!-- Node1&#45;&gt;Node23 -->
<g id="edge43_Node000001_Node000023" class="edge">
<title>Node1&#45;&gt;Node23</title>
<g id="a_edge43_Node000001_Node000023"><a xlink:title=" ">
<path fill="none" stroke="#63b8ff" d="M980.43,-386.34C1003.6,-377.77 1038.66,-364.81 1064.84,-355.13"/>
<polygon fill="#63b8ff" stroke="#63b8ff" points="1065.87,-358.48 1074.03,-351.73 1063.44,-351.91 1065.87,-358.48"/>
</a>
</g>
</g>
<!-- Node2&#45;&gt;Node3 -->
<g id="edge2_Node000002_Node000003" class="edge">
<title>Node2&#45;&gt;Node3</title>
<g id="a_edge2_Node000002_Node000003"><a xlink:title=" ">
<path fill="none" stroke="#63b8ff" d="M814,-331.33C814,-324.82 814,-315.67 814,-307.37"/>
<polygon fill="#63b8ff" stroke="#63b8ff" points="817.5,-307.37 814,-297.37 810.5,-307.37 817.5,-307.37"/>
</a>
</g>
</g>
<!-- Node4 -->
<g id="Node000004" class="node">
<title>Node4</title>
<g id="a_Node000004"><a xlink:href="_fab_user_8hpp.xhtml" target="_top" xlink:title=" ">
<polygon fill="white" stroke="#666666" points="284.75,-240.25 213.25,-240.25 213.25,-221 284.75,-221 284.75,-240.25"/>
<text text-anchor="middle" x="249" y="-226.75" font-family="Helvetica,sans-Serif" font-size="10.00">FabUser.hpp</text>
</a>
</g>
</g>
<!-- Node3&#45;&gt;Node4 -->
<g id="edge3_Node000003_Node000004" class="edge">
<title>Node3&#45;&gt;Node4</title>
<g id="a_edge3_Node000003_Node000004"><a xlink:title=" ">
<path fill="none" stroke="#63b8ff" d="M778.23,-281.5C680.16,-272.26 407.01,-246.52 296.41,-236.09"/>
<polygon fill="#63b8ff" stroke="#63b8ff" points="296.77,-232.61 286.49,-235.16 296.11,-239.58 296.77,-232.61"/>
</a>
</g>
</g>
<!-- Node10 -->
<g id="Node000010" class="node">
<title>Node10</title>
<g id="a_Node000010"><a xlink:title=" ">
<polygon fill="#e0e0e0" stroke="#999999" points="514.62,-19.25 469.38,-19.25 469.38,0 514.62,0 514.62,-19.25"/>
<text text-anchor="middle" x="492" y="-5.75" font-family="Helvetica,sans-Serif" font-size="10.00">cstdint</text>
</a>
</g>
</g>
<!-- Node3&#45;&gt;Node10 -->
<g id="edge37_Node000003_Node000010" class="edge">
<title>Node3&#45;&gt;Node10</title>
<g id="a_edge37_Node000003_Node000010"><a xlink:title=" ">
<path fill="none" stroke="#63b8ff" d="M778.24,-283.93C621.13,-279.33 0,-256.08 0,-176.38 0,-176.38 0,-176.38 0,-119.12 0,-25.24 345.99,-12.52 457.68,-10.85"/>
<polygon fill="#63b8ff" stroke="#63b8ff" points="457.46,-14.36 467.42,-10.73 457.37,-7.36 457.46,-14.36"/>
</a>
</g>
</g>
<!-- Node3&#45;&gt;Node12 -->
<g id="edge36_Node000003_Node000012" class="edge">
<title>Node3&#45;&gt;Node12</title>
<g id="a_edge36_Node000003_Node000012"><a xlink:title=" ">
<path fill="none" stroke="#63b8ff" d="M817.85,-275.8C825.27,-258.26 842.06,-218.52 856,-185 870.62,-149.85 887.46,-108.77 897.11,-85.19"/>
<polygon fill="#63b8ff" stroke="#63b8ff" points="900.22,-86.83 900.76,-76.25 893.74,-84.18 900.22,-86.83"/>
</a>
</g>
</g>
<!-- Node3&#45;&gt;Node17 -->
<g id="edge35_Node000003_Node000017" class="edge">
<title>Node3&#45;&gt;Node17</title>
<g id="a_edge35_Node000003_Node000017"><a xlink:title=" ">
<path fill="none" stroke="#63b8ff" d="M846.58,-275.83C888.5,-261.96 956,-231.14 956,-176.38 956,-176.38 956,-176.38 956,-119.12 956,-89.51 950.03,-81.85 937,-55.25 932.4,-45.86 925.87,-36.32 919.9,-28.49"/>
<polygon fill="#63b8ff" stroke="#63b8ff" points="922.75,-26.45 913.78,-20.8 917.27,-30.81 922.75,-26.45"/>
</a>
</g>
</g>
<!-- Node18 -->
<g id="Node000018" class="node">
<title>Node18</title>
<g id="a_Node000018"><a xlink:href="_machine_config_8hpp.xhtml" target="_top" xlink:title=" ">
<polygon fill="white" stroke="#666666" points="688.88,-185 591.12,-185 591.12,-165.75 688.88,-165.75 688.88,-185"/>
<text text-anchor="middle" x="640" y="-171.5" font-family="Helvetica,sans-Serif" font-size="10.00">MachineConfig.hpp</text>
</a>
</g>
</g>
<!-- Node3&#45;&gt;Node18 -->
<g id="edge23_Node000003_Node000018" class="edge">
<title>Node3&#45;&gt;Node18</title>
<g id="a_edge23_Node000003_Node000018"><a xlink:title=" ">
<path fill="none" stroke="#63b8ff" d="M813.92,-276.12C813.32,-262.43 810.12,-235.99 795,-221 770,-196.22 732.19,-185.02 700.17,-180.03"/>
<polygon fill="#63b8ff" stroke="#63b8ff" points="701,-176.61 690.62,-178.72 700.05,-183.55 701,-176.61"/>
</a>
</g>
</g>
<!-- Node22 -->
<g id="Node000022" class="node">
<title>Node22</title>
<g id="a_Node000022"><a xlink:title=" ">
<polygon fill="#e0e0e0" stroke="#999999" points="785.88,-240.25 736.12,-240.25 736.12,-221 785.88,-221 785.88,-240.25"/>
<text text-anchor="middle" x="761" y="-226.75" font-family="Helvetica,sans-Serif" font-size="10.00">optional</text>
</a>
</g>
</g>
<!-- Node3&#45;&gt;Node22 -->
<g id="edge38_Node000003_Node000022" class="edge">
<title>Node3&#45;&gt;Node22</title>
<g id="a_edge38_Node000003_Node000022"><a xlink:title=" ">
<path fill="none" stroke="#63b8ff" d="M805.25,-276.08C797.85,-268.65 787.04,-257.79 777.95,-248.66"/>
<polygon fill="#63b8ff" stroke="#63b8ff" points="780.54,-246.3 771.01,-241.68 775.58,-251.24 780.54,-246.3"/>
</a>
</g>
</g>
<!-- Node5 -->
<g id="Node000005" class="node">
<title>Node5</title>
<g id="a_Node000005"><a xlink:title=" ">
<polygon fill="#e0e0e0" stroke="#999999" points="160.25,-129.75 103.75,-129.75 103.75,-110.5 160.25,-110.5 160.25,-129.75"/>
<text text-anchor="middle" x="132" y="-116.25" font-family="Helvetica,sans-Serif" font-size="10.00">Arduino.h</text>
</a>
</g>
</g>
<!-- Node4&#45;&gt;Node5 -->
<g id="edge4_Node000004_Node000005" class="edge">
<title>Node4&#45;&gt;Node5</title>
<g id="a_edge4_Node000004_Node000005"><a xlink:title=" ">
<path fill="none" stroke="#63b8ff" d="M239.43,-220.75C219.89,-202.63 175.14,-161.13 150,-137.82"/>
<polygon fill="#63b8ff" stroke="#63b8ff" points="152.53,-135.39 142.82,-131.16 147.77,-140.52 152.53,-135.39"/>
</a>
</g>
</g>
<!-- Node6 -->
<g id="Node000006" class="node">
<title>Node6</title>
<g id="a_Node000006"><a xlink:href="card_8hpp.xhtml" target="_top" xlink:title=" ">
<polygon fill="white" stroke="#666666" points="308.38,-185 255.62,-185 255.62,-165.75 308.38,-165.75 308.38,-185"/>
<text text-anchor="middle" x="282" y="-171.5" font-family="Helvetica,sans-Serif" font-size="10.00">card.hpp</text>
</a>
</g>
</g>
<!-- Node4&#45;&gt;Node6 -->
<g id="edge5_Node000004_Node000006" class="edge">
<title>Node4&#45;&gt;Node6</title>
<g id="a_edge5_Node000004_Node000006"><a xlink:title=" ">
<path fill="none" stroke="#63b8ff" d="M254.45,-220.83C258.77,-213.86 264.96,-203.87 270.38,-195.12"/>
<polygon fill="#63b8ff" stroke="#63b8ff" points="273.34,-196.99 275.64,-186.65 267.39,-193.3 273.34,-196.99"/>
</a>
</g>
</g>
<!-- Node7 -->
<g id="Node000007" class="node">
<title>Node7</title>
<g id="a_Node000007"><a xlink:title=" ">
<polygon fill="#e0e0e0" stroke="#999999" points="229.62,-129.75 178.38,-129.75 178.38,-110.5 229.62,-110.5 229.62,-129.75"/>
<text text-anchor="middle" x="204" y="-116.25" font-family="Helvetica,sans-Serif" font-size="10.00">sstream</text>
</a>
</g>
</g>
<!-- Node4&#45;&gt;Node7 -->
<g id="edge21_Node000004_Node000007" class="edge">
<title>Node4&#45;&gt;Node7</title>
<g id="a_edge21_Node000004_Node000007"><a xlink:title=" ">
<path fill="none" stroke="#63b8ff" d="M245.32,-220.75C238.1,-203.34 221.94,-164.37 212.1,-140.66"/>
<polygon fill="#63b8ff" stroke="#63b8ff" points="215.38,-139.42 208.31,-131.52 208.91,-142.1 215.38,-139.42"/>
</a>
</g>
</g>
<!-- Node9 -->
<g id="Node000009" class="node">
<title>Node9</title>
<g id="a_Node000009"><a xlink:href="conf_8hpp.xhtml" target="_top" xlink:title=" ">
<polygon fill="white" stroke="#666666" points="574.38,-129.75 521.62,-129.75 521.62,-110.5 574.38,-110.5 574.38,-129.75"/>
<text text-anchor="middle" x="548" y="-116.25" font-family="Helvetica,sans-Serif" font-size="10.00">conf.hpp</text>
</a>
</g>
</g>
<!-- Node4&#45;&gt;Node9 -->
<g id="edge18_Node000004_Node000009" class="edge">
<title>Node4&#45;&gt;Node9</title>
<g id="a_edge18_Node000004_Node000009"><a xlink:title=" ">
<path fill="none" stroke="#63b8ff" d="M273.98,-220.56C326.96,-201.33 450.78,-156.4 512.18,-134.12"/>
<polygon fill="#63b8ff" stroke="#63b8ff" points="513.25,-137.46 521.46,-130.76 510.87,-130.88 513.25,-137.46"/>
</a>
</g>
</g>
<!-- Node4&#45;&gt;Node10 -->
<g id="edge20_Node000004_Node000010" class="edge">
<title>Node4&#45;&gt;Node10</title>
<g id="a_edge20_Node000004_Node000010"><a xlink:title=" ">
<path fill="none" stroke="#63b8ff" d="M212.98,-227.52C180.32,-223.76 132.87,-213.4 103,-185 78.15,-161.38 63.08,-138.4 83,-110.5 127,-48.87 367.7,-21.58 457.87,-13.41"/>
<polygon fill="#63b8ff" stroke="#63b8ff" points="457.91,-16.92 467.57,-12.56 457.3,-9.95 457.91,-16.92"/>
</a>
</g>
</g>
<!-- Node11 -->
<g id="Node000011" class="node">
<title>Node11</title>
<g id="a_Node000011"><a xlink:title=" ">
<polygon fill="#e0e0e0" stroke="#999999" points="396,-74.5 356,-74.5 356,-55.25 396,-55.25 396,-74.5"/>
<text text-anchor="middle" x="376" y="-61" font-family="Helvetica,sans-Serif" font-size="10.00">string</text>
</a>
</g>
</g>
<!-- Node4&#45;&gt;Node11 -->
<g id="edge22_Node000004_Node000011" class="edge">
<title>Node4&#45;&gt;Node11</title>
<g id="a_edge22_Node000004_Node000011"><a xlink:title=" ">
<path fill="none" stroke="#63b8ff" d="M217.91,-220.55C161.68,-202.63 52.64,-160.12 95,-110.5 96.02,-109.31 271.62,-82.02 344.68,-70.72"/>
<polygon fill="#63b8ff" stroke="#63b8ff" points="345.03,-74.2 354.38,-69.21 343.96,-67.28 345.03,-74.2"/>
</a>
</g>
</g>
<!-- Node4&#45;&gt;Node17 -->
<g id="edge19_Node000004_Node000017" class="edge">
<title>Node4&#45;&gt;Node17</title>
<g id="a_edge19_Node000004_Node000017"><a xlink:title=" ">
<path fill="none" stroke="#63b8ff" d="M285.15,-228.68C378.1,-225.85 623.34,-215.59 698,-185 783.81,-149.84 860.34,-65.25 890.9,-28.34"/>
<polygon fill="#63b8ff" stroke="#63b8ff" points="893.41,-30.8 897.01,-20.84 887.98,-26.38 893.41,-30.8"/>
</a>
</g>
</g>
<!-- Node6&#45;&gt;Node5 -->
<g id="edge8_Node000006_Node000005" class="edge">
<title>Node6&#45;&gt;Node5</title>
<g id="a_edge8_Node000006_Node000005"><a xlink:title=" ">
<path fill="none" stroke="#63b8ff" d="M256.55,-165.34C232.31,-156.74 195.57,-143.69 168.26,-134"/>
<polygon fill="#63b8ff" stroke="#63b8ff" points="169.59,-130.76 159,-130.71 167.25,-137.35 169.59,-130.76"/>
</a>
</g>
</g>
<!-- Node6&#45;&gt;Node7 -->
<g id="edge6_Node000006_Node000007" class="edge">
<title>Node6&#45;&gt;Node7</title>
<g id="a_edge6_Node000006_Node000007"><a xlink:title=" ">
<path fill="none" stroke="#63b8ff" d="M268.77,-165.34C257.23,-157.46 240.23,-145.86 226.55,-136.52"/>
<polygon fill="#63b8ff" stroke="#63b8ff" points="228.78,-133.8 218.55,-131.06 224.83,-139.58 228.78,-133.8"/>
</a>
</g>
</g>
<!-- Node8 -->
<g id="Node000008" class="node">
<title>Node8</title>
<g id="a_Node000008"><a xlink:title=" ">
<polygon fill="#e0e0e0" stroke="#999999" points="465.88,-129.75 416.12,-129.75 416.12,-110.5 465.88,-110.5 465.88,-129.75"/>
<text text-anchor="middle" x="441" y="-116.25" font-family="Helvetica,sans-Serif" font-size="10.00">iomanip</text>
</a>
</g>
</g>
<!-- Node6&#45;&gt;Node8 -->
<g id="edge7_Node000006_Node000008" class="edge">
<title>Node6&#45;&gt;Node8</title>
<g id="a_edge7_Node000006_Node000008"><a xlink:title=" ">
<path fill="none" stroke="#63b8ff" d="M308.61,-165.46C335.11,-156.59 375.95,-142.91 405.26,-133.09"/>
<polygon fill="#63b8ff" stroke="#63b8ff" points="406.07,-136.51 414.44,-130.02 403.85,-129.88 406.07,-136.51"/>
</a>
</g>
</g>
<!-- Node6&#45;&gt;Node9 -->
<g id="edge9_Node000006_Node000009" class="edge">
<title>Node6&#45;&gt;Node9</title>
<g id="a_edge9_Node000006_Node000009"><a xlink:title=" ">
<path fill="none" stroke="#63b8ff" d="M308.48,-169.07C355.86,-159.59 455.28,-139.69 509.96,-128.74"/>
<polygon fill="#63b8ff" stroke="#63b8ff" points="510.63,-132.18 519.75,-126.78 509.26,-125.31 510.63,-132.18"/>
</a>
</g>
</g>
<!-- Node14 -->
<g id="Node000014" class="node">
<title>Node14</title>
<g id="a_Node000014"><a xlink:href="_logging_8hpp.xhtml" target="_top" xlink:title=" ">
<polygon fill="white" stroke="#666666" points="316.25,-129.75 247.75,-129.75 247.75,-110.5 316.25,-110.5 316.25,-129.75"/>
<text text-anchor="middle" x="282" y="-116.25" font-family="Helvetica,sans-Serif" font-size="10.00">Logging.hpp</text>
</a>
</g>
</g>
<!-- Node6&#45;&gt;Node14 -->
<g id="edge15_Node000006_Node000014" class="edge">
<title>Node6&#45;&gt;Node14</title>
<g id="a_edge15_Node000006_Node000014"><a xlink:title=" ">
<path fill="none" stroke="#63b8ff" d="M282,-165.58C282,-159.07 282,-149.92 282,-141.62"/>
<polygon fill="#63b8ff" stroke="#63b8ff" points="285.5,-141.62 282,-131.62 278.5,-141.62 285.5,-141.62"/>
</a>
</g>
</g>
<!-- Node16 -->
<g id="Node000016" class="node">
<title>Node16</title>
<g id="a_Node000016"><a xlink:title=" ">
<polygon fill="#e0e0e0" stroke="#999999" points="397.62,-129.75 334.38,-129.75 334.38,-110.5 397.62,-110.5 397.62,-129.75"/>
<text text-anchor="middle" x="366" y="-116.25" font-family="Helvetica,sans-Serif" font-size="10.00">esp_mac.h</text>
</a>
</g>
</g>
<!-- Node6&#45;&gt;Node16 -->
<g id="edge17_Node000006_Node000016" class="edge">
<title>Node6&#45;&gt;Node16</title>
<g id="a_edge17_Node000006_Node000016"><a xlink:title=" ">
<path fill="none" stroke="#63b8ff" d="M296.25,-165.34C308.8,-157.39 327.33,-145.64 342.14,-136.25"/>
<polygon fill="#63b8ff" stroke="#63b8ff" points="343.83,-139.32 350.4,-131.01 340.08,-133.41 343.83,-139.32"/>
</a>
</g>
</g>
<!-- Node9&#45;&gt;Node10 -->
<g id="edge10_Node000009_Node000010" class="edge">
<title>Node9&#45;&gt;Node10</title>
<g id="a_edge10_Node000009_Node000010"><a xlink:title=" ">
<path fill="none" stroke="#63b8ff" d="M521.3,-111.46C493.28,-102.82 452.04,-88.17 443,-74.5 431.61,-57.29 449.66,-38.68 466.98,-26.02"/>
<polygon fill="#63b8ff" stroke="#63b8ff" points="468.79,-29.01 475.08,-20.49 464.85,-23.23 468.79,-29.01"/>
</a>
</g>
</g>
<!-- Node9&#45;&gt;Node11 -->
<g id="edge11_Node000009_Node000011" class="edge">
<title>Node9&#45;&gt;Node11</title>
<g id="a_edge11_Node000009_Node000011"><a xlink:title=" ">
<path fill="none" stroke="#63b8ff" d="M521.12,-110.8C490.28,-101.25 439.75,-85.61 407.2,-75.53"/>
<polygon fill="#63b8ff" stroke="#63b8ff" points="408.52,-72.28 397.94,-72.67 406.45,-78.97 408.52,-72.28"/>
</a>
</g>
</g>
<!-- Node9&#45;&gt;Node12 -->
<g id="edge12_Node000009_Node000012" class="edge">
<title>Node9&#45;&gt;Node12</title>
<g id="a_edge12_Node000009_Node000012"><a xlink:title=" ">
<path fill="none" stroke="#63b8ff" d="M574.83,-115.12C638.75,-105.59 799.96,-81.54 870.76,-70.98"/>
<polygon fill="#63b8ff" stroke="#63b8ff" points="871.23,-74.45 880.6,-69.51 870.2,-67.53 871.23,-74.45"/>
</a>
</g>
</g>
<!-- Node13 -->
<g id="Node000013" class="node">
<title>Node13</title>
<g id="a_Node000013"><a xlink:href="_machine_i_d_8hpp.xhtml" target="_top" xlink:title=" ">
<polygon fill="white" stroke="#666666" points="532.25,-74.5 451.75,-74.5 451.75,-55.25 532.25,-55.25 532.25,-74.5"/>
<text text-anchor="middle" x="492" y="-61" font-family="Helvetica,sans-Serif" font-size="10.00">MachineID.hpp</text>
</a>
</g>
</g>
<!-- Node9&#45;&gt;Node13 -->
<g id="edge13_Node000009_Node000013" class="edge">
<title>Node9&#45;&gt;Node13</title>
<g id="a_edge13_Node000009_Node000013"><a xlink:title=" ">
<path fill="none" stroke="#63b8ff" d="M538.5,-110.09C530.57,-102.55 519.05,-91.6 509.46,-82.48"/>
<polygon fill="#63b8ff" stroke="#63b8ff" points="512.11,-80.17 502.46,-75.82 507.29,-85.24 512.11,-80.17"/>
</a>
</g>
</g>
<!-- Node13&#45;&gt;Node10 -->
<g id="edge14_Node000013_Node000010" class="edge">
<title>Node13&#45;&gt;Node10</title>
<g id="a_edge14_Node000013_Node000010"><a xlink:title=" ">
<path fill="none" stroke="#63b8ff" d="M492,-55.08C492,-48.57 492,-39.42 492,-31.12"/>
<polygon fill="#63b8ff" stroke="#63b8ff" points="495.5,-31.12 492,-21.12 488.5,-31.12 495.5,-31.12"/>
</a>
</g>
</g>
<!-- Node15 -->
<g id="Node000015" class="node">
<title>Node15</title>
<g id="a_Node000015"><a xlink:title=" ">
<polygon fill="#e0e0e0" stroke="#999999" points="310.62,-74.5 253.38,-74.5 253.38,-55.25 310.62,-55.25 310.62,-74.5"/>
<text text-anchor="middle" x="282" y="-61" font-family="Helvetica,sans-Serif" font-size="10.00">esp_log.h</text>
</a>
</g>
</g>
<!-- Node14&#45;&gt;Node15 -->
<g id="edge16_Node000014_Node000015" class="edge">
<title>Node14&#45;&gt;Node15</title>
<g id="a_edge16_Node000014_Node000015"><a xlink:title=" ">
<path fill="none" stroke="#63b8ff" d="M282,-110.33C282,-103.82 282,-94.67 282,-86.37"/>
<polygon fill="#63b8ff" stroke="#63b8ff" points="285.5,-86.37 282,-76.37 278.5,-86.37 285.5,-86.37"/>
</a>
</g>
</g>
<!-- Node18&#45;&gt;Node9 -->
<g id="edge34_Node000018_Node000009" class="edge">
<title>Node18&#45;&gt;Node9</title>
<g id="a_edge34_Node000018_Node000009"><a xlink:title=" ">
<path fill="none" stroke="#63b8ff" d="M624.39,-165.34C610.38,-157.23 589.57,-145.18 573.2,-135.71"/>
<polygon fill="#63b8ff" stroke="#63b8ff" points="575.4,-132.94 564.99,-130.96 571.89,-139 575.4,-132.94"/>
</a>
</g>
</g>
<!-- Node18&#45;&gt;Node10 -->
<g id="edge25_Node000018_Node000010" class="edge">
<title>Node18&#45;&gt;Node10</title>
<g id="a_edge25_Node000018_Node000010"><a xlink:title=" ">
<path fill="none" stroke="#63b8ff" d="M636.84,-165.48C631.97,-152.53 621.73,-128.11 608,-110.5 580.88,-75.72 540.17,-44.06 514.89,-26.09"/>
<polygon fill="#63b8ff" stroke="#63b8ff" points="517.15,-23.4 506.94,-20.55 513.14,-29.14 517.15,-23.4"/>
</a>
</g>
</g>
<!-- Node18&#45;&gt;Node11 -->
<g id="edge26_Node000018_Node000011" class="edge">
<title>Node18&#45;&gt;Node11</title>
<g id="a_edge26_Node000018_Node000011"><a xlink:title=" ">
<path fill="none" stroke="#63b8ff" d="M610.58,-165.25C584.57,-156.9 545.78,-143.74 513,-129.75 495.59,-122.32 492.08,-118.67 475,-110.5 452.29,-99.64 426.33,-87.96 406.7,-79.28"/>
<polygon fill="#63b8ff" stroke="#63b8ff" points="408.17,-76.11 397.61,-75.28 405.35,-82.51 408.17,-76.11"/>
</a>
</g>
</g>
<!-- Node18&#45;&gt;Node12 -->
<g id="edge24_Node000018_Node000012" class="edge">
<title>Node18&#45;&gt;Node12</title>
<g id="a_edge24_Node000018_Node000012"><a xlink:title=" ">
<path fill="none" stroke="#63b8ff" d="M662.14,-165.31C708.81,-146.2 817.47,-101.71 872.23,-79.29"/>
<polygon fill="#63b8ff" stroke="#63b8ff" points="873.41,-82.59 881.34,-75.56 870.76,-76.11 873.41,-82.59"/>
</a>
</g>
</g>
<!-- Node18&#45;&gt;Node13 -->
<g id="edge33_Node000018_Node000013" class="edge">
<title>Node18&#45;&gt;Node13</title>
<g id="a_edge33_Node000018_Node000013"><a xlink:title=" ">
<path fill="none" stroke="#63b8ff" d="M633.87,-165.55C624.27,-152.24 604.55,-126.85 583,-110.5 566.05,-97.64 544.81,-86.97 527.12,-79.3"/>
<polygon fill="#63b8ff" stroke="#63b8ff" points="528.6,-76.12 518.03,-75.49 525.9,-82.58 528.6,-76.12"/>
</a>
</g>
</g>
<!-- Node18&#45;&gt;Node19 -->
<g id="edge27_Node000018_Node000019" class="edge">
<title>Node18&#45;&gt;Node19</title>
<g id="a_edge27_Node000018_Node000019"><a xlink:title=" ">
<path fill="none" stroke="#63b8ff" d="M648.92,-165.58C656.45,-158.15 667.47,-147.29 676.73,-138.16"/>
<polygon fill="#63b8ff" stroke="#63b8ff" points="679.15,-140.69 683.81,-131.17 674.23,-135.7 679.15,-140.69"/>
</a>
</g>
</g>
<!-- Node19&#45;&gt;Node10 -->
<g id="edge28_Node000019_Node000010" class="edge">
<title>Node19&#45;&gt;Node10</title>
<g id="a_edge28_Node000019_Node000010"><a xlink:title=" ">
<path fill="none" stroke="#63b8ff" d="M677.13,-110.06C642.15,-91.27 561.47,-47.94 519.11,-25.18"/>
<polygon fill="#63b8ff" stroke="#63b8ff" points="520.77,-22.1 510.3,-20.46 517.46,-28.27 520.77,-22.1"/>
</a>
</g>
</g>
<!-- Node20 -->
<g id="Node000020" class="node">
<title>Node20</title>
<g id="a_Node000020"><a xlink:title=" ">
<polygon fill="#e0e0e0" stroke="#999999" points="825.75,-74.5 724.25,-74.5 724.25,-55.25 825.75,-55.25 825.75,-74.5"/>
<text text-anchor="middle" x="775" y="-61" font-family="Helvetica,sans-Serif" font-size="10.00">Adafruit_NeoPixel.h</text>
</a>
</g>
</g>
<!-- Node19&#45;&gt;Node20 -->
<g id="edge29_Node000019_Node000020" class="edge">
<title>Node19&#45;&gt;Node20</title>
<g id="a_edge29_Node000019_Node000020"><a xlink:title=" ">
<path fill="none" stroke="#63b8ff" d="M707.74,-110.09C719.73,-102.21 737.37,-90.61 751.58,-81.27"/>
<polygon fill="#63b8ff" stroke="#63b8ff" points="753.49,-84.2 759.93,-75.78 749.65,-78.35 753.49,-84.2"/>
</a>
</g>
</g>
<!-- Node21 -->
<g id="Node000021" class="node">
<title>Node21</title>
<g id="a_Node000021"><a xlink:href="_pins_config_8hpp.xhtml" target="_top" xlink:title=" ">
<polygon fill="white" stroke="#666666" points="706.25,-74.5 625.75,-74.5 625.75,-55.25 706.25,-55.25 706.25,-74.5"/>
<text text-anchor="middle" x="666" y="-61" font-family="Helvetica,sans-Serif" font-size="10.00">PinsConfig.hpp</text>
</a>
</g>
</g>
<!-- Node19&#45;&gt;Node21 -->
<g id="edge30_Node000019_Node000021" class="edge">
<title>Node19&#45;&gt;Node21</title>
<g id="a_edge30_Node000019_Node000021"><a xlink:title=" ">
<path fill="none" stroke="#63b8ff" d="M689.38,-110.33C685.75,-103.44 680.57,-93.59 676.01,-84.91"/>
<polygon fill="#63b8ff" stroke="#63b8ff" points="679.18,-83.42 671.43,-76.2 672.98,-86.68 679.18,-83.42"/>
</a>
</g>
</g>
<!-- Node21&#45;&gt;Node10 -->
<g id="edge31_Node000021_Node000010" class="edge">
<title>Node21&#45;&gt;Node10</title>
<g id="a_edge31_Node000021_Node000010"><a xlink:title=" ">
<path fill="none" stroke="#63b8ff" d="M636.48,-54.84C605.78,-45.45 557.79,-30.76 525.64,-20.92"/>
<polygon fill="#63b8ff" stroke="#63b8ff" points="527.01,-17.68 516.43,-18.1 524.96,-24.37 527.01,-17.68"/>
</a>
</g>
</g>
<!-- Node21&#45;&gt;Node17 -->
<g id="edge32_Node000021_Node000017" class="edge">
<title>Node21&#45;&gt;Node17</title>
<g id="a_edge32_Node000021_Node000017"><a xlink:title=" ">
<path fill="none" stroke="#63b8ff" d="M706.54,-54.84C754.26,-44.21 832.39,-26.8 874.99,-17.31"/>
<polygon fill="#63b8ff" stroke="#63b8ff" points="875.53,-20.78 884.53,-15.19 874.01,-13.94 875.53,-20.78"/>
</a>
</g>
</g>
</g>
</svg>
