<?xml version="1.0" encoding="UTF-8" standalone="no"?>
<!DOCTYPE svg PUBLIC "-//W3C//DTD SVG 1.1//EN"
 "http://www.w3.org/Graphics/SVG/1.1/DTD/svg11.dtd">
<!-- Generated by graphviz version 9.0.0 (20230911.1827)
 -->
<!-- Title: LCDWrapper.hpp Pages: 1 -->
<svg width="1147pt" height="414pt"
 viewBox="0.00 0.00 1146.88 414.00" xmlns="http://www.w3.org/2000/svg" xmlns:xlink="http://www.w3.org/1999/xlink">
<g id="graph0" class="graph" transform="scale(1 1) rotate(0) translate(4 410)">
<title>LCDWrapper.hpp</title>
<!-- Node1 -->
<g id="Node000001" class="node">
<title>Node1</title>
<g id="a_Node000001"><a xlink:title=" ">
<polygon fill="#999999" stroke="#666666" points="878.75,-406 789.25,-406 789.25,-386.75 878.75,-386.75 878.75,-406"/>
<text text-anchor="middle" x="834" y="-392.5" font-family="Helvetica,sans-Serif" font-size="10.00">LCDWrapper.hpp</text>
</a>
</g>
</g>
<!-- Node2 -->
<g id="Node000002" class="node">
<title>Node2</title>
<g id="a_Node000002"><a xlink:href="_board_info_8hpp.xhtml" target="_top" xlink:title=" ">
<polygon fill="white" stroke="#666666" points="641,-350.75 565,-350.75 565,-331.5 641,-331.5 641,-350.75"/>
<text text-anchor="middle" x="603" y="-337.25" font-family="Helvetica,sans-Serif" font-size="10.00">BoardInfo.hpp</text>
</a>
</g>
</g>
<!-- Node1&#45;&gt;Node2 -->
<g id="edge1_Node000001_Node000002" class="edge">
<title>Node1&#45;&gt;Node2</title>
<g id="a_edge1_Node000001_Node000002"><a xlink:title=" ">
<path fill="none" stroke="#63b8ff" d="M794.55,-386.28C755.25,-377.22 694.78,-363.28 652.33,-353.5"/>
<polygon fill="#63b8ff" stroke="#63b8ff" points="653.14,-350.09 642.61,-351.26 651.57,-356.91 653.14,-350.09"/>
</a>
</g>
</g>
<!-- Node3 -->
<g id="Node000003" class="node">
<title>Node3</title>
<g id="a_Node000003"><a xlink:href="_machine_8hpp.xhtml" target="_top" xlink:title=" ">
<polygon fill="white" stroke="#666666" points="638.38,-295.5 567.62,-295.5 567.62,-276.25 638.38,-276.25 638.38,-295.5"/>
<text text-anchor="middle" x="603" y="-282" font-family="Helvetica,sans-Serif" font-size="10.00">Machine.hpp</text>
</a>
</g>
</g>
<!-- Node1&#45;&gt;Node3 -->
<g id="edge37_Node000001_Node000003" class="edge">
<title>Node1&#45;&gt;Node3</title>
<g id="a_edge37_Node000001_Node000003"><a xlink:title=" ">
<path fill="none" stroke="#63b8ff" d="M794.13,-386.3C765.17,-378.87 725.52,-366.94 693,-350.75 666.66,-337.64 639.54,-317.27 622.05,-303.07"/>
<polygon fill="#63b8ff" stroke="#63b8ff" points="624.49,-300.55 614.55,-296.87 620.02,-305.94 624.49,-300.55"/>
</a>
</g>
</g>
<!-- Node12 -->
<g id="Node000012" class="node">
<title>Node12</title>
<g id="a_Node000012"><a xlink:title=" ">
<polygon fill="#e0e0e0" stroke="#999999" points="632.62,-74.5 587.38,-74.5 587.38,-55.25 632.62,-55.25 632.62,-74.5"/>
<text text-anchor="middle" x="610" y="-61" font-family="Helvetica,sans-Serif" font-size="10.00">chrono</text>
</a>
</g>
</g>
<!-- Node1&#45;&gt;Node12 -->
<g id="edge40_Node000001_Node000012" class="edge">
<title>Node1&#45;&gt;Node12</title>
<g id="a_edge40_Node000001_Node000012"><a xlink:title=" ">
<path fill="none" stroke="#63b8ff" d="M807.38,-386.29C770.14,-371.69 707,-339.22 707,-286.88 707,-286.88 707,-286.88 707,-174.38 707,-132.11 665.58,-98.75 636.88,-80.71"/>
<polygon fill="#63b8ff" stroke="#63b8ff" points="639.01,-77.91 628.64,-75.75 635.41,-83.91 639.01,-77.91"/>
</a>
</g>
</g>
<!-- Node16 -->
<g id="Node000016" class="node">
<title>Node16</title>
<g id="a_Node000016"><a xlink:title=" ">
<polygon fill="#e0e0e0" stroke="#999999" points="954.5,-19.25 917.5,-19.25 917.5,0 954.5,0 954.5,-19.25"/>
<text text-anchor="middle" x="936" y="-5.75" font-family="Helvetica,sans-Serif" font-size="10.00">array</text>
</a>
</g>
</g>
<!-- Node1&#45;&gt;Node16 -->
<g id="edge39_Node000001_Node000016" class="edge">
<title>Node1&#45;&gt;Node16</title>
<g id="a_edge39_Node000001_Node000016"><a xlink:title=" ">
<path fill="none" stroke="#63b8ff" d="M879.2,-390.42C937.36,-381.25 1031,-355.79 1031,-286.88 1031,-286.88 1031,-286.88 1031,-119.12 1031,-77.2 990.36,-43.71 962.24,-25.54"/>
<polygon fill="#63b8ff" stroke="#63b8ff" points="964.18,-22.63 953.84,-20.36 960.51,-28.59 964.18,-22.63"/>
</a>
</g>
</g>
<!-- Node18 -->
<g id="Node000018" class="node">
<title>Node18</title>
<g id="a_Node000018"><a xlink:href="pins_8hpp.xhtml" target="_top" xlink:title=" ">
<polygon fill="white" stroke="#666666" points="787,-129.75 735,-129.75 735,-110.5 787,-110.5 787,-129.75"/>
<text text-anchor="middle" x="761" y="-116.25" font-family="Helvetica,sans-Serif" font-size="10.00">pins.hpp</text>
</a>
</g>
</g>
<!-- Node1&#45;&gt;Node18 -->
<g id="edge38_Node000001_Node000018" class="edge">
<title>Node1&#45;&gt;Node18</title>
<g id="a_edge38_Node000001_Node000018"><a xlink:title=" ">
<path fill="none" stroke="#63b8ff" d="M874.95,-386.33C922.06,-373.23 993,-344.02 993,-286.88 993,-286.88 993,-286.88 993,-229.62 993,-144.86 864.35,-126.17 798.65,-122.15"/>
<polygon fill="#63b8ff" stroke="#63b8ff" points="798.84,-118.66 788.67,-121.64 798.48,-125.65 798.84,-118.66"/>
</a>
</g>
</g>
<!-- Node21 -->
<g id="Node000021" class="node">
<title>Node21</title>
<g id="a_Node000021"><a xlink:title=" ">
<polygon fill="#e0e0e0" stroke="#999999" points="1138.88,-350.75 1059.12,-350.75 1059.12,-331.5 1138.88,-331.5 1138.88,-350.75"/>
<text text-anchor="middle" x="1099" y="-337.25" font-family="Helvetica,sans-Serif" font-size="10.00">LiquidCrystal.h</text>
</a>
</g>
</g>
<!-- Node1&#45;&gt;Node21 -->
<g id="edge41_Node000001_Node000021" class="edge">
<title>Node1&#45;&gt;Node21</title>
<g id="a_edge41_Node000001_Node000021"><a xlink:title=" ">
<path fill="none" stroke="#63b8ff" d="M878.95,-386.34C925.71,-376.95 998.78,-362.26 1047.75,-352.42"/>
<polygon fill="#63b8ff" stroke="#63b8ff" points="1048.44,-355.86 1057.55,-350.45 1047.06,-348.99 1048.44,-355.86"/>
</a>
</g>
</g>
<!-- Node2&#45;&gt;Node3 -->
<g id="edge2_Node000002_Node000003" class="edge">
<title>Node2&#45;&gt;Node3</title>
<g id="a_edge2_Node000002_Node000003"><a xlink:title=" ">
<path fill="none" stroke="#63b8ff" d="M603,-331.33C603,-324.82 603,-315.67 603,-307.37"/>
<polygon fill="#63b8ff" stroke="#63b8ff" points="606.5,-307.37 603,-297.37 599.5,-307.37 606.5,-307.37"/>
</a>
</g>
</g>
<!-- Node4 -->
<g id="Node000004" class="node">
<title>Node4</title>
<g id="a_Node000004"><a xlink:href="_fab_user_8hpp.xhtml" target="_top" xlink:title=" ">
<polygon fill="white" stroke="#666666" points="387.75,-240.25 316.25,-240.25 316.25,-221 387.75,-221 387.75,-240.25"/>
<text text-anchor="middle" x="352" y="-226.75" font-family="Helvetica,sans-Serif" font-size="10.00">FabUser.hpp</text>
</a>
</g>
</g>
<!-- Node3&#45;&gt;Node4 -->
<g id="edge3_Node000003_Node000004" class="edge">
<title>Node3&#45;&gt;Node4</title>
<g id="a_edge3_Node000003_Node000004"><a xlink:title=" ">
<path fill="none" stroke="#63b8ff" d="M567.3,-277.3C523.2,-267.95 448.02,-252 399.19,-241.64"/>
<polygon fill="#63b8ff" stroke="#63b8ff" points="399.97,-238.22 389.46,-239.57 398.52,-245.07 399.97,-238.22"/>
</a>
</g>
</g>
<!-- Node10 -->
<g id="Node000010" class="node">
<title>Node10</title>
<g id="a_Node000010"><a xlink:title=" ">
<polygon fill="#e0e0e0" stroke="#999999" points="513.62,-19.25 468.38,-19.25 468.38,0 513.62,0 513.62,-19.25"/>
<text text-anchor="middle" x="491" y="-5.75" font-family="Helvetica,sans-Serif" font-size="10.00">cstdint</text>
</a>
</g>
</g>
<!-- Node3&#45;&gt;Node10 -->
<g id="edge36_Node000003_Node000010" class="edge">
<title>Node3&#45;&gt;Node10</title>
<g id="a_edge36_Node000003_Node000010"><a xlink:title=" ">
<path fill="none" stroke="#63b8ff" d="M567.53,-282.28C438.27,-272.35 0,-234.41 0,-176.38 0,-176.38 0,-176.38 0,-119.12 0,-25.42 345.28,-12.57 456.75,-10.87"/>
<polygon fill="#63b8ff" stroke="#63b8ff" points="456.51,-14.37 466.46,-10.74 456.42,-7.37 456.51,-14.37"/>
</a>
</g>
</g>
<!-- Node3&#45;&gt;Node12 -->
<g id="edge35_Node000003_Node000012" class="edge">
<title>Node3&#45;&gt;Node12</title>
<g id="a_edge35_Node000003_Node000012"><a xlink:title=" ">
<path fill="none" stroke="#63b8ff" d="M604.58,-275.82C607.54,-258.34 613.82,-218.68 616,-185 618.25,-150.3 614.97,-109.88 612.44,-86.16"/>
<polygon fill="#63b8ff" stroke="#63b8ff" points="615.93,-85.89 611.33,-76.35 608.98,-86.68 615.93,-85.89"/>
</a>
</g>
</g>
<!-- Node3&#45;&gt;Node16 -->
<g id="edge34_Node000003_Node000016" class="edge">
<title>Node3&#45;&gt;Node16</title>
<g id="a_edge34_Node000003_Node000016"><a xlink:title=" ">
<path fill="none" stroke="#63b8ff" d="M638.69,-281.55C728.18,-272.21 955,-242.08 955,-176.38 955,-176.38 955,-176.38 955,-119.12 955,-87.79 947.22,-52.12 941.61,-30.5"/>
<polygon fill="#63b8ff" stroke="#63b8ff" points="945.03,-29.73 939.04,-21 938.28,-31.56 945.03,-29.73"/>
</a>
</g>
</g>
<!-- Node17 -->
<g id="Node000017" class="node">
<title>Node17</title>
<g id="a_Node000017"><a xlink:href="_machine_config_8hpp.xhtml" target="_top" xlink:title=" ">
<polygon fill="white" stroke="#666666" points="606.88,-185 509.12,-185 509.12,-165.75 606.88,-165.75 606.88,-185"/>
<text text-anchor="middle" x="558" y="-171.5" font-family="Helvetica,sans-Serif" font-size="10.00">MachineConfig.hpp</text>
</a>
</g>
</g>
<!-- Node3&#45;&gt;Node17 -->
<g id="edge22_Node000003_Node000017" class="edge">
<title>Node3&#45;&gt;Node17</title>
<g id="a_edge22_Node000003_Node000017"><a xlink:title=" ">
<path fill="none" stroke="#63b8ff" d="M599.32,-276C592.1,-258.59 575.94,-219.62 566.1,-195.91"/>
<polygon fill="#63b8ff" stroke="#63b8ff" points="569.38,-194.67 562.31,-186.77 562.91,-197.35 569.38,-194.67"/>
</a>
</g>
</g>
<!-- Node5 -->
<g id="Node000005" class="node">
<title>Node5</title>
<g id="a_Node000005"><a xlink:title=" ">
<polygon fill="#e0e0e0" stroke="#999999" points="122.25,-129.75 65.75,-129.75 65.75,-110.5 122.25,-110.5 122.25,-129.75"/>
<text text-anchor="middle" x="94" y="-116.25" font-family="Helvetica,sans-Serif" font-size="10.00">Arduino.h</text>
</a>
</g>
</g>
<!-- Node4&#45;&gt;Node5 -->
<g id="edge4_Node000004_Node000005" class="edge">
<title>Node4&#45;&gt;Node5</title>
<g id="a_edge4_Node000004_Node000005"><a xlink:title=" ">
<path fill="none" stroke="#63b8ff" d="M323.14,-220.54C297.17,-212.12 258.1,-198.83 225,-185 188.27,-169.65 147.21,-149.05 121.01,-135.44"/>
<polygon fill="#63b8ff" stroke="#63b8ff" points="122.91,-132.48 112.42,-130.95 119.66,-138.68 122.91,-132.48"/>
</a>
</g>
</g>
<!-- Node6 -->
<g id="Node000006" class="node">
<title>Node6</title>
<g id="a_Node000006"><a xlink:href="card_8hpp.xhtml" target="_top" xlink:title=" ">
<polygon fill="white" stroke="#666666" points="286.38,-185 233.62,-185 233.62,-165.75 286.38,-165.75 286.38,-185"/>
<text text-anchor="middle" x="260" y="-171.5" font-family="Helvetica,sans-Serif" font-size="10.00">card.hpp</text>
</a>
</g>
</g>
<!-- Node4&#45;&gt;Node6 -->
<g id="edge5_Node000004_Node000006" class="edge">
<title>Node4&#45;&gt;Node6</title>
<g id="a_edge5_Node000004_Node000006"><a xlink:title=" ">
<path fill="none" stroke="#63b8ff" d="M336.39,-220.59C322.38,-212.48 301.57,-200.43 285.2,-190.96"/>
<polygon fill="#63b8ff" stroke="#63b8ff" points="287.4,-188.19 276.99,-186.21 283.89,-194.25 287.4,-188.19"/>
</a>
</g>
</g>
<!-- Node7 -->
<g id="Node000007" class="node">
<title>Node7</title>
<g id="a_Node000007"><a xlink:title=" ">
<polygon fill="#e0e0e0" stroke="#999999" points="346.62,-129.75 295.38,-129.75 295.38,-110.5 346.62,-110.5 346.62,-129.75"/>
<text text-anchor="middle" x="321" y="-116.25" font-family="Helvetica,sans-Serif" font-size="10.00">sstream</text>
</a>
</g>
</g>
<!-- Node4&#45;&gt;Node7 -->
<g id="edge20_Node000004_Node000007" class="edge">
<title>Node4&#45;&gt;Node7</title>
<g id="a_edge20_Node000004_Node000007"><a xlink:title=" ">
<path fill="none" stroke="#63b8ff" d="M349.46,-220.75C344.51,-203.42 333.46,-164.73 326.67,-140.99"/>
<polygon fill="#63b8ff" stroke="#63b8ff" points="330.1,-140.24 323.99,-131.58 323.37,-142.16 330.1,-140.24"/>
</a>
</g>
</g>
<!-- Node9 -->
<g id="Node000009" class="node">
<title>Node9</title>
<g id="a_Node000009"><a xlink:href="conf_8hpp.xhtml" target="_top" xlink:title=" ">
<polygon fill="white" stroke="#666666" points="493.38,-129.75 440.62,-129.75 440.62,-110.5 493.38,-110.5 493.38,-129.75"/>
<text text-anchor="middle" x="467" y="-116.25" font-family="Helvetica,sans-Serif" font-size="10.00">conf.hpp</text>
</a>
</g>
</g>
<!-- Node4&#45;&gt;Node9 -->
<g id="edge17_Node000004_Node000009" class="edge">
<title>Node4&#45;&gt;Node9</title>
<g id="a_edge17_Node000004_Node000009"><a xlink:title=" ">
<path fill="none" stroke="#63b8ff" d="M361.41,-220.75C380.62,-202.63 424.59,-161.13 449.31,-137.82"/>
<polygon fill="#63b8ff" stroke="#63b8ff" points="451.49,-140.57 456.36,-131.17 446.68,-135.48 451.49,-140.57"/>
</a>
</g>
</g>
<!-- Node4&#45;&gt;Node10 -->
<g id="edge19_Node000004_Node000010" class="edge">
<title>Node4&#45;&gt;Node10</title>
<g id="a_edge19_Node000004_Node000010"><a xlink:title=" ">
<path fill="none" stroke="#63b8ff" d="M315.93,-229.28C226.29,-226.92 4.26,-211.01 57,-110.5 77.08,-72.24 96.63,-70.67 137,-55.25 195.09,-33.06 379.78,-18.23 456.78,-12.86"/>
<polygon fill="#63b8ff" stroke="#63b8ff" points="456.93,-16.36 466.67,-12.19 456.45,-9.38 456.93,-16.36"/>
</a>
</g>
</g>
<!-- Node11 -->
<g id="Node000011" class="node">
<title>Node11</title>
<g id="a_Node000011"><a xlink:title=" ">
<polygon fill="#e0e0e0" stroke="#999999" points="395,-74.5 355,-74.5 355,-55.25 395,-55.25 395,-74.5"/>
<text text-anchor="middle" x="375" y="-61" font-family="Helvetica,sans-Serif" font-size="10.00">string</text>
</a>
</g>
</g>
<!-- Node4&#45;&gt;Node11 -->
<g id="edge21_Node000004_Node000011" class="edge">
<title>Node4&#45;&gt;Node11</title>
<g id="a_edge21_Node000004_Node000011"><a xlink:title=" ">
<path fill="none" stroke="#63b8ff" d="M353.24,-220.82C356.79,-195.5 367.12,-122 372.16,-86.09"/>
<polygon fill="#63b8ff" stroke="#63b8ff" points="375.62,-86.61 373.55,-76.22 368.69,-85.64 375.62,-86.61"/>
</a>
</g>
</g>
<!-- Node4&#45;&gt;Node16 -->
<g id="edge18_Node000004_Node000016" class="edge">
<title>Node4&#45;&gt;Node16</title>
<g id="a_edge18_Node000004_Node000016"><a xlink:title=" ">
<path fill="none" stroke="#63b8ff" d="M388.12,-225.85C465.5,-216.84 651.92,-190.18 796,-129.75 843.54,-109.81 860.82,-110.22 898,-74.5 911.23,-61.79 921.49,-43.49 927.99,-29.74"/>
<polygon fill="#63b8ff" stroke="#63b8ff" points="931.08,-31.42 931.94,-20.86 924.68,-28.57 931.08,-31.42"/>
</a>
</g>
</g>
<!-- Node6&#45;&gt;Node5 -->
<g id="edge8_Node000006_Node000005" class="edge">
<title>Node6&#45;&gt;Node5</title>
<g id="a_edge8_Node000006_Node000005"><a xlink:title=" ">
<path fill="none" stroke="#63b8ff" d="M233.33,-165.82C206.23,-157.13 163.96,-143.57 133.08,-133.66"/>
<polygon fill="#63b8ff" stroke="#63b8ff" points="134.3,-130.38 123.71,-130.66 132.17,-137.04 134.3,-130.38"/>
</a>
</g>
</g>
<!-- Node6&#45;&gt;Node7 -->
<g id="edge6_Node000006_Node000007" class="edge">
<title>Node6&#45;&gt;Node7</title>
<g id="a_edge6_Node000006_Node000007"><a xlink:title=" ">
<path fill="none" stroke="#63b8ff" d="M270.35,-165.34C279.08,-157.72 291.79,-146.62 302.3,-137.45"/>
<polygon fill="#63b8ff" stroke="#63b8ff" points="304.43,-140.23 309.66,-131.02 299.83,-134.96 304.43,-140.23"/>
</a>
</g>
</g>
<!-- Node8 -->
<g id="Node000008" class="node">
<title>Node8</title>
<g id="a_Node000008"><a xlink:title=" ">
<polygon fill="#e0e0e0" stroke="#999999" points="276.88,-129.75 227.12,-129.75 227.12,-110.5 276.88,-110.5 276.88,-129.75"/>
<text text-anchor="middle" x="252" y="-116.25" font-family="Helvetica,sans-Serif" font-size="10.00">iomanip</text>
</a>
</g>
</g>
<!-- Node6&#45;&gt;Node8 -->
<g id="edge7_Node000006_Node000008" class="edge">
<title>Node6&#45;&gt;Node8</title>
<g id="a_edge7_Node000006_Node000008"><a xlink:title=" ">
<path fill="none" stroke="#63b8ff" d="M258.68,-165.58C257.69,-158.99 256.29,-149.71 255.03,-141.32"/>
<polygon fill="#63b8ff" stroke="#63b8ff" points="258.52,-140.97 253.57,-131.61 251.6,-142.01 258.52,-140.97"/>
</a>
</g>
</g>
<!-- Node6&#45;&gt;Node9 -->
<g id="edge9_Node000006_Node000009" class="edge">
<title>Node6&#45;&gt;Node9</title>
<g id="a_edge9_Node000006_Node000009"><a xlink:title=" ">
<path fill="none" stroke="#63b8ff" d="M286.64,-167.52C322.87,-158.2 387.89,-141.48 429.17,-130.86"/>
<polygon fill="#63b8ff" stroke="#63b8ff" points="429.86,-134.29 438.67,-128.41 428.11,-127.51 429.86,-134.29"/>
</a>
</g>
</g>
<!-- Node14 -->
<g id="Node000014" class="node">
<title>Node14</title>
<g id="a_Node000014"><a xlink:href="_logging_8hpp.xhtml" target="_top" xlink:title=" ">
<polygon fill="white" stroke="#666666" points="209.25,-129.75 140.75,-129.75 140.75,-110.5 209.25,-110.5 209.25,-129.75"/>
<text text-anchor="middle" x="175" y="-116.25" font-family="Helvetica,sans-Serif" font-size="10.00">Logging.hpp</text>
</a>
</g>
</g>
<!-- Node6&#45;&gt;Node14 -->
<g id="edge15_Node000006_Node000014" class="edge">
<title>Node6&#45;&gt;Node14</title>
<g id="a_edge15_Node000006_Node000014"><a xlink:title=" ">
<path fill="none" stroke="#63b8ff" d="M245.58,-165.34C232.88,-157.39 214.13,-145.64 199.14,-136.25"/>
<polygon fill="#63b8ff" stroke="#63b8ff" points="201.1,-133.35 190.77,-131.01 197.39,-139.28 201.1,-133.35"/>
</a>
</g>
</g>
<!-- Node9&#45;&gt;Node10 -->
<g id="edge10_Node000009_Node000010" class="edge">
<title>Node9&#45;&gt;Node10</title>
<g id="a_edge10_Node000009_Node000010"><a xlink:title=" ">
<path fill="none" stroke="#63b8ff" d="M459.07,-110.35C448.87,-97.95 433.43,-74.64 442,-55.25 447.16,-43.57 457.06,-33.63 466.62,-26.11"/>
<polygon fill="#63b8ff" stroke="#63b8ff" points="468.58,-29.01 474.64,-20.32 464.49,-23.33 468.58,-29.01"/>
</a>
</g>
</g>
<!-- Node9&#45;&gt;Node11 -->
<g id="edge11_Node000009_Node000011" class="edge">
<title>Node9&#45;&gt;Node11</title>
<g id="a_edge11_Node000009_Node000011"><a xlink:title=" ">
<path fill="none" stroke="#63b8ff" d="M451.39,-110.09C437.38,-101.98 416.57,-89.93 400.2,-80.46"/>
<polygon fill="#63b8ff" stroke="#63b8ff" points="402.4,-77.69 391.99,-75.71 398.89,-83.75 402.4,-77.69"/>
</a>
</g>
</g>
<!-- Node9&#45;&gt;Node12 -->
<g id="edge12_Node000009_Node000012" class="edge">
<title>Node9&#45;&gt;Node12</title>
<g id="a_edge12_Node000009_Node000012"><a xlink:title=" ">
<path fill="none" stroke="#63b8ff" d="M491.26,-110.09C514.69,-101.37 550.36,-88.08 576.49,-78.35"/>
<polygon fill="#63b8ff" stroke="#63b8ff" points="577.48,-81.72 585.63,-74.95 575.03,-75.16 577.48,-81.72"/>
</a>
</g>
</g>
<!-- Node13 -->
<g id="Node000013" class="node">
<title>Node13</title>
<g id="a_Node000013"><a xlink:href="_machine_i_d_8hpp.xhtml" target="_top" xlink:title=" ">
<polygon fill="white" stroke="#666666" points="531.25,-74.5 450.75,-74.5 450.75,-55.25 531.25,-55.25 531.25,-74.5"/>
<text text-anchor="middle" x="491" y="-61" font-family="Helvetica,sans-Serif" font-size="10.00">MachineID.hpp</text>
</a>
</g>
</g>
<!-- Node9&#45;&gt;Node13 -->
<g id="edge13_Node000009_Node000013" class="edge">
<title>Node9&#45;&gt;Node13</title>
<g id="a_edge13_Node000009_Node000013"><a xlink:title=" ">
<path fill="none" stroke="#63b8ff" d="M470.96,-110.33C474.04,-103.51 478.41,-93.81 482.29,-85.2"/>
<polygon fill="#63b8ff" stroke="#63b8ff" points="485.41,-86.79 486.33,-76.24 479.03,-83.92 485.41,-86.79"/>
</a>
</g>
</g>
<!-- Node13&#45;&gt;Node10 -->
<g id="edge14_Node000013_Node000010" class="edge">
<title>Node13&#45;&gt;Node10</title>
<g id="a_edge14_Node000013_Node000010"><a xlink:title=" ">
<path fill="none" stroke="#63b8ff" d="M491,-55.08C491,-48.57 491,-39.42 491,-31.12"/>
<polygon fill="#63b8ff" stroke="#63b8ff" points="494.5,-31.12 491,-21.12 487.5,-31.12 494.5,-31.12"/>
</a>
</g>
</g>
<!-- Node15 -->
<g id="Node000015" class="node">
<title>Node15</title>
<g id="a_Node000015"><a xlink:title=" ">
<polygon fill="#e0e0e0" stroke="#999999" points="203.62,-74.5 146.38,-74.5 146.38,-55.25 203.62,-55.25 203.62,-74.5"/>
<text text-anchor="middle" x="175" y="-61" font-family="Helvetica,sans-Serif" font-size="10.00">esp_log.h</text>
</a>
</g>
</g>
<!-- Node14&#45;&gt;Node15 -->
<g id="edge16_Node000014_Node000015" class="edge">
<title>Node14&#45;&gt;Node15</title>
<g id="a_edge16_Node000014_Node000015"><a xlink:title=" ">
<path fill="none" stroke="#63b8ff" d="M175,-110.33C175,-103.82 175,-94.67 175,-86.37"/>
<polygon fill="#63b8ff" stroke="#63b8ff" points="178.5,-86.37 175,-76.37 171.5,-86.37 178.5,-86.37"/>
</a>
</g>
</g>
<!-- Node17&#45;&gt;Node9 -->
<g id="edge33_Node000017_Node000009" class="edge">
<title>Node17&#45;&gt;Node9</title>
<g id="a_edge33_Node000017_Node000009"><a xlink:title=" ">
<path fill="none" stroke="#63b8ff" d="M542.56,-165.34C528.84,-157.31 508.5,-145.41 492.38,-135.98"/>
<polygon fill="#63b8ff" stroke="#63b8ff" points="494.22,-133 483.82,-130.97 490.68,-139.04 494.22,-133"/>
</a>
</g>
</g>
<!-- Node17&#45;&gt;Node10 -->
<g id="edge24_Node000017_Node000010" class="edge">
<title>Node17&#45;&gt;Node10</title>
<g id="a_edge24_Node000017_Node000010"><a xlink:title=" ">
<path fill="none" stroke="#63b8ff" d="M558.61,-165.38C559.61,-144.62 559.82,-92.32 540,-55.25 533.98,-43.99 523.97,-34.1 514.56,-26.52"/>
<polygon fill="#63b8ff" stroke="#63b8ff" points="516.83,-23.84 506.73,-20.64 512.62,-29.44 516.83,-23.84"/>
</a>
</g>
</g>
<!-- Node17&#45;&gt;Node11 -->
<g id="edge25_Node000017_Node000011" class="edge">
<title>Node17&#45;&gt;Node11</title>
<g id="a_edge25_Node000017_Node000011"><a xlink:title=" ">
<path fill="none" stroke="#63b8ff" d="M516.44,-165.28C490.63,-158.33 457.62,-146.96 432,-129.75 413.73,-117.48 397.53,-98.04 387.11,-83.82"/>
<polygon fill="#63b8ff" stroke="#63b8ff" points="390.09,-81.98 381.47,-75.81 384.37,-86 390.09,-81.98"/>
</a>
</g>
</g>
<!-- Node17&#45;&gt;Node12 -->
<g id="edge23_Node000017_Node000012" class="edge">
<title>Node17&#45;&gt;Node12</title>
<g id="a_edge23_Node000017_Node000012"><a xlink:title=" ">
<path fill="none" stroke="#63b8ff" d="M562.26,-165.5C570.64,-148.01 589.44,-108.77 600.79,-85.09"/>
<polygon fill="#63b8ff" stroke="#63b8ff" points="603.87,-86.77 605.03,-76.24 597.55,-83.75 603.87,-86.77"/>
</a>
</g>
</g>
<!-- Node17&#45;&gt;Node13 -->
<g id="edge32_Node000017_Node000013" class="edge">
<title>Node17&#45;&gt;Node13</title>
<g id="a_edge32_Node000017_Node000013"><a xlink:title=" ">
<path fill="none" stroke="#63b8ff" d="M552.52,-165.5C541.62,-147.85 517.04,-108.05 502.47,-84.45"/>
<polygon fill="#63b8ff" stroke="#63b8ff" points="505.59,-82.83 497.35,-76.16 499.63,-86.51 505.59,-82.83"/>
</a>
</g>
</g>
<!-- Node17&#45;&gt;Node18 -->
<g id="edge26_Node000017_Node000018" class="edge">
<title>Node17&#45;&gt;Node18</title>
<g id="a_edge26_Node000017_Node000018"><a xlink:title=" ">
<path fill="none" stroke="#63b8ff" d="M592.44,-165.34C628.93,-155.77 686.36,-140.7 723.86,-130.87"/>
<polygon fill="#63b8ff" stroke="#63b8ff" points="724.56,-134.3 733.34,-128.38 722.78,-127.53 724.56,-134.3"/>
</a>
</g>
</g>
<!-- Node18&#45;&gt;Node10 -->
<g id="edge27_Node000018_Node000010" class="edge">
<title>Node18&#45;&gt;Node10</title>
<g id="a_edge27_Node000018_Node000010"><a xlink:title=" ">
<path fill="none" stroke="#63b8ff" d="M744.83,-110.21C714.79,-93.67 652.46,-59.55 642,-55.25 602.99,-39.22 556.15,-26.3 525.09,-18.57"/>
<polygon fill="#63b8ff" stroke="#63b8ff" points="526.03,-15.19 515.48,-16.22 524.37,-21.99 526.03,-15.19"/>
</a>
</g>
</g>
<!-- Node19 -->
<g id="Node000019" class="node">
<title>Node19</title>
<g id="a_Node000019"><a xlink:title=" ">
<polygon fill="#e0e0e0" stroke="#999999" points="888.75,-74.5 787.25,-74.5 787.25,-55.25 888.75,-55.25 888.75,-74.5"/>
<text text-anchor="middle" x="838" y="-61" font-family="Helvetica,sans-Serif" font-size="10.00">Adafruit_NeoPixel.h</text>
</a>
</g>
</g>
<!-- Node18&#45;&gt;Node19 -->
<g id="edge28_Node000018_Node000019" class="edge">
<title>Node18&#45;&gt;Node19</title>
<g id="a_edge28_Node000018_Node000019"><a xlink:title=" ">
<path fill="none" stroke="#63b8ff" d="M774.06,-110.09C785.46,-102.21 802.23,-90.61 815.74,-81.27"/>
<polygon fill="#63b8ff" stroke="#63b8ff" points="817.4,-84.38 823.63,-75.81 813.41,-78.62 817.4,-84.38"/>
</a>
</g>
</g>
<!-- Node20 -->
<g id="Node000020" class="node">
<title>Node20</title>
<g id="a_Node000020"><a xlink:href="_pins_config_8hpp.xhtml" target="_top" xlink:title=" ">
<polygon fill="white" stroke="#666666" points="769.25,-74.5 688.75,-74.5 688.75,-55.25 769.25,-55.25 769.25,-74.5"/>
<text text-anchor="middle" x="729" y="-61" font-family="Helvetica,sans-Serif" font-size="10.00">PinsConfig.hpp</text>
</a>
</g>
</g>
<!-- Node18&#45;&gt;Node20 -->
<g id="edge29_Node000018_Node000020" class="edge">
<title>Node18&#45;&gt;Node20</title>
<g id="a_edge29_Node000018_Node000020"><a xlink:title=" ">
<path fill="none" stroke="#63b8ff" d="M755.72,-110.33C751.53,-103.36 745.52,-93.37 740.27,-84.62"/>
<polygon fill="#63b8ff" stroke="#63b8ff" points="743.33,-82.93 735.18,-76.16 737.33,-86.53 743.33,-82.93"/>
</a>
</g>
</g>
<!-- Node20&#45;&gt;Node10 -->
<g id="edge30_Node000020_Node000010" class="edge">
<title>Node20&#45;&gt;Node10</title>
<g id="a_edge30_Node000020_Node000010"><a xlink:title=" ">
<path fill="none" stroke="#63b8ff" d="M688.36,-54.78C642.26,-44.47 567.94,-27.84 524.86,-18.2"/>
<polygon fill="#63b8ff" stroke="#63b8ff" points="525.85,-14.84 515.32,-16.07 524.32,-21.67 525.85,-14.84"/>
</a>
</g>
</g>
<!-- Node20&#45;&gt;Node16 -->
<g id="edge31_Node000020_Node000016" class="edge">
<title>Node20&#45;&gt;Node16</title>
<g id="a_edge31_Node000020_Node000016"><a xlink:title=" ">
<path fill="none" stroke="#63b8ff" d="M764.11,-54.84C804.15,-44.54 868.9,-27.89 906.45,-18.23"/>
<polygon fill="#63b8ff" stroke="#63b8ff" points="906.9,-21.73 915.71,-15.84 905.16,-14.95 906.9,-21.73"/>
</a>
</g>
</g>
</g>
</svg>
