<?xml version="1.0" encoding="UTF-8" standalone="no"?>
<!DOCTYPE svg PUBLIC "-//W3C//DTD SVG 1.1//EN"
 "http://www.w3.org/Graphics/SVG/1.1/DTD/svg11.dtd">
<!-- Generated by graphviz version 9.0.0 (20230911.1827)
 -->
<!-- Title: Led.hpp Pages: 1 -->
<!--zoomable 193 -->

<svg id="main" version="1.1" xmlns="http://www.w3.org/2000/svg" xmlns:xlink="http://www.w3.org/1999/xlink" xml:space="preserve" onload="init(evt)">
<style type="text/css"><![CDATA[
.node, .edge {opacity: 0.7;}
.node.selected, .edge.selected {opacity: 1;}
.edge:hover path { stroke: red; }
.edge:hover polygon { stroke: red; fill: red; }
]]></style>

<defs>
  <circle id="rim" cx="0" cy="0" r="7"/>
  <circle id="rim2" cx="0" cy="0" r="3.5"/>
  <g id="zoomPlus">
    <use xlink:href="#rim" fill="#404040"><set attributeName="fill" to="#808080" begin="zoomplus.mouseover" end="zoomplus.mouseout"/></use>
    <path d="M-4,0h8M0,-4v8" fill="none" stroke="white" stroke-width="1.5" pointer-events="none"/>
  </g>
  <g id="zoomMin">
    <use xlink:href="#rim" fill="#404040"><set attributeName="fill" to="#808080" begin="zoomminus.mouseover" end="zoomminus.mouseout"/></use>
    <path d="M-4,0h8" fill="none" stroke="white" stroke-width="1.5" pointer-events="none"/>
  </g>
  <g id="arrowUp" transform="translate(30 24)">
    <use xlink:href="#rim"/>
    <path pointer-events="none" fill="none" stroke="white" stroke-width="1.5" d="M0,-3.0v7 M-2.5,-0.5L0,-3.0L2.5,-0.5"/>
  </g>
  <g id="arrowRight" transform="rotate(90) translate(36 -43)">
    <use xlink:href="#rim"/>
    <path pointer-events="none" fill="none" stroke="white" stroke-width="1.5" d="M0,-3.0v7 M-2.5,-0.5L0,-3.0L2.5,-0.5"/>
  </g>
  <g id="arrowDown" transform="rotate(180) translate(-30 -48)">
    <use xlink:href="#rim"/>
    <path pointer-events="none" fill="none" stroke="white" stroke-width="1.5" d="M0,-3.0v7 M-2.5,-0.5L0,-3.0L2.5,-0.5"/>
  </g>
  <g id="arrowLeft" transform="rotate(270) translate(-36 17)">
    <use xlink:href="#rim"/>
    <path pointer-events="none" fill="none" stroke="white" stroke-width="1.5" d="M0,-3.0v7 M-2.5,-0.5L0,-3.0L2.5,-0.5"/>
  </g>
  <g id="resetDef">
    <use xlink:href="#rim2" fill="#404040"><set attributeName="fill" to="#808080" begin="reset.mouseover" end="reset.mouseout"/></use>
  </g>
</defs>
<script type="application/ecmascript">
var viewWidth = 625;
var viewHeight = 193;
var sectionId = 'dynsection-1';
</script>
<script type="application/ecmascript" xlink:href="svg.min.js"/>
<svg id="graph" class="graph">
<g id="viewport">
<title>Led.hpp</title>
<!-- Node1 -->
<g id="Node000001" class="node">
<title>Node1</title>
<g id="a_Node000001"><a xlink:title=" ">
<polygon fill="#999999" stroke="#666666" points="372,-185 321.5,-185 321.5,-165.75 372,-165.75 372,-185"/>
<text text-anchor="middle" x="346.75" y="-171.5" font-family="Helvetica,sans-Serif" font-size="10.00">Led.hpp</text>
</a>
</g>
</g>
<!-- Node2 -->
<g id="Node000002" class="node">
<title>Node2</title>
<g id="a_Node000002"><a xlink:href="_board_logic_8hpp.xhtml" target="_top" xlink:title=" ">
<polygon fill="white" stroke="#666666" points="346.5,-129.75 263,-129.75 263,-110.5 346.5,-110.5 346.5,-129.75"/>
<text text-anchor="middle" x="304.75" y="-116.25" font-family="Helvetica,sans-Serif" font-size="10.00">BoardLogic.hpp</text>
</a>
</g>
</g>
<!-- Node1&#45;&gt;Node2 -->
<g id="edge1_Node000001_Node000002" class="edge">
<title>Node1&#45;&gt;Node2</title>
<g id="a_edge1_Node000001_Node000002"><a xlink:title=" ">
<path fill="none" stroke="#63b8ff" d="M332.83,-156.72C325.79,-147.81 317.56,-137.37 311.84,-130.11"/>
<polygon fill="#63b8ff" stroke="#63b8ff" points="329.94,-158.71 338.88,-164.39 335.43,-154.37 329.94,-158.71"/>
</a>
</g>
</g>
<!-- Node12 -->
<g id="Node000012" class="node">
<title>Node12</title>
<g id="a_Node000012"><a xlink:href="_led_8cpp.xhtml" target="_top" xlink:title=" ">
<polygon fill="white" stroke="#666666" points="415,-129.75 364.5,-129.75 364.5,-110.5 415,-110.5 415,-129.75"/>
<text text-anchor="middle" x="389.75" y="-116.25" font-family="Helvetica,sans-Serif" font-size="10.00">Led.cpp</text>
</a>
</g>
</g>
<!-- Node1&#45;&gt;Node12 -->
<g id="edge15_Node000001_Node000012" class="edge">
<title>Node1&#45;&gt;Node12</title>
<g id="a_edge15_Node000001_Node000012"><a xlink:title=" ">
<path fill="none" stroke="#63b8ff" d="M361,-156.72C368.2,-147.81 376.63,-137.37 382.5,-130.11"/>
<polygon fill="#63b8ff" stroke="#63b8ff" points="358.36,-154.43 354.8,-164.4 363.81,-158.82 358.36,-154.43"/>
</a>
</g>
</g>
<!-- Node3 -->
<g id="Node000003" class="node">
<title>Node3</title>
<g id="a_Node000003"><a xlink:href="_board_logic_8cpp.xhtml" target="_top" xlink:title=" ">
<polygon fill="white" stroke="#666666" points="83.5,-74.5 0,-74.5 0,-55.25 83.5,-55.25 83.5,-74.5"/>
<text text-anchor="middle" x="41.75" y="-61" font-family="Helvetica,sans-Serif" font-size="10.00">BoardLogic.cpp</text>
</a>
</g>
</g>
<!-- Node2&#45;&gt;Node3 -->
<g id="edge2_Node000002_Node000003" class="edge">
<title>Node2&#45;&gt;Node3</title>
<g id="a_edge2_Node000002_Node000003"><a xlink:title=" ">
<path fill="none" stroke="#63b8ff" d="M251.69,-108.38C202.28,-98.38 129.59,-83.66 84,-74.43"/>
<polygon fill="#63b8ff" stroke="#63b8ff" points="250.81,-111.77 261.3,-110.33 252.2,-104.91 250.81,-111.77"/>
</a>
</g>
</g>
<!-- Node4 -->
<g id="Node000004" class="node">
<title>Node4</title>
<g id="a_Node000004"><a xlink:href="_o_t_a_8cpp.xhtml" target="_top" xlink:title=" ">
<polygon fill="white" stroke="#666666" points="155.88,-74.5 101.62,-74.5 101.62,-55.25 155.88,-55.25 155.88,-74.5"/>
<text text-anchor="middle" x="128.75" y="-61" font-family="Helvetica,sans-Serif" font-size="10.00">OTA.cpp</text>
</a>
</g>
</g>
<!-- Node2&#45;&gt;Node4 -->
<g id="edge3_Node000002_Node000004" class="edge">
<title>Node2&#45;&gt;Node4</title>
<g id="a_edge3_Node000002_Node000004"><a xlink:title=" ">
<path fill="none" stroke="#63b8ff" d="M264.19,-106.85C231.04,-96.82 185.09,-82.92 156.14,-74.16"/>
<polygon fill="#63b8ff" stroke="#63b8ff" points="262.86,-110.11 273.45,-109.65 264.89,-103.41 262.86,-110.11"/>
</a>
</g>
</g>
<!-- Node5 -->
<g id="Node000005" class="node">
<title>Node5</title>
<g id="a_Node000005"><a xlink:href="globals_8hpp.xhtml" target="_top" xlink:title=" ">
<polygon fill="white" stroke="#666666" points="239.12,-74.5 174.38,-74.5 174.38,-55.25 239.12,-55.25 239.12,-74.5"/>
<text text-anchor="middle" x="206.75" y="-61" font-family="Helvetica,sans-Serif" font-size="10.00">globals.hpp</text>
</a>
</g>
</g>
<!-- Node2&#45;&gt;Node5 -->
<g id="edge4_Node000002_Node000005" class="edge">
<title>Node2&#45;&gt;Node5</title>
<g id="a_edge4_Node000002_Node000005"><a xlink:title=" ">
<path fill="none" stroke="#63b8ff" d="M278.5,-104.86C261.01,-95.36 238.55,-83.15 223.46,-74.95"/>
<polygon fill="#63b8ff" stroke="#63b8ff" points="276.34,-107.67 286.8,-109.37 279.68,-101.52 276.34,-107.67"/>
</a>
</g>
</g>
<!-- Node6 -->
<g id="Node000006" class="node">
<title>Node6</title>
<g id="a_Node000006"><a xlink:href="main_8cpp.xhtml" target="_top" xlink:title=" ">
<polygon fill="white" stroke="#666666" points="237.25,-19.25 182.25,-19.25 182.25,0 237.25,0 237.25,-19.25"/>
<text text-anchor="middle" x="209.75" y="-5.75" font-family="Helvetica,sans-Serif" font-size="10.00">main.cpp</text>
</a>
</g>
</g>
<!-- Node2&#45;&gt;Node6 -->
<g id="edge6_Node000002_Node000006" class="edge">
<title>Node2&#45;&gt;Node6</title>
<g id="a_edge6_Node000002_Node000006"><a xlink:title=" ">
<path fill="none" stroke="#63b8ff" d="M289.46,-101.66C268.98,-78.27 233.38,-37.61 217.63,-19.63"/>
<polygon fill="#63b8ff" stroke="#63b8ff" points="286.76,-103.89 295.98,-109.11 292.02,-99.28 286.76,-103.89"/>
</a>
</g>
</g>
<!-- Node7 -->
<g id="Node000007" class="node">
<title>Node7</title>
<g id="a_Node000007"><a xlink:href="test__common_8cpp.xhtml" target="_top" xlink:title=" ">
<polygon fill="white" stroke="#666666" points="349.38,-19.25 256.12,-19.25 256.12,0 349.38,0 349.38,-19.25"/>
<text text-anchor="middle" x="302.75" y="-5.75" font-family="Helvetica,sans-Serif" font-size="10.00">test_common.cpp</text>
</a>
</g>
</g>
<!-- Node2&#45;&gt;Node7 -->
<g id="edge7_Node000002_Node000007" class="edge">
<title>Node2&#45;&gt;Node7</title>
<g id="a_edge7_Node000002_Node000007"><a xlink:title=" ">
<path fill="none" stroke="#63b8ff" d="M304.37,-98.78C303.94,-75.05 303.23,-36.89 302.92,-19.63"/>
<polygon fill="#63b8ff" stroke="#63b8ff" points="300.87,-98.8 304.56,-108.73 307.87,-98.67 300.87,-98.8"/>
</a>
</g>
</g>
<!-- Node8 -->
<g id="Node000008" class="node">
<title>Node8</title>
<g id="a_Node000008"><a xlink:href="test__common_8h.xhtml" target="_top" xlink:title=" ">
<polygon fill="white" stroke="#666666" points="453.12,-74.5 370.38,-74.5 370.38,-55.25 453.12,-55.25 453.12,-74.5"/>
<text text-anchor="middle" x="411.75" y="-61" font-family="Helvetica,sans-Serif" font-size="10.00">test_common.h</text>
</a>
</g>
</g>
<!-- Node2&#45;&gt;Node8 -->
<g id="edge8_Node000002_Node000008" class="edge">
<title>Node2&#45;&gt;Node8</title>
<g id="a_edge8_Node000002_Node000008"><a xlink:title=" ">
<path fill="none" stroke="#63b8ff" d="M333.15,-104.99C352.28,-95.47 376.96,-83.19 393.51,-74.95"/>
<polygon fill="#63b8ff" stroke="#63b8ff" points="331.65,-101.83 324.26,-109.42 334.77,-108.1 331.65,-101.83"/>
</a>
</g>
</g>
<!-- Node9 -->
<g id="Node000009" class="node">
<title>Node9</title>
<g id="a_Node000009"><a xlink:href="test__logic_8cpp.xhtml" target="_top" xlink:title=" ">
<polygon fill="white" stroke="#666666" points="443.75,-19.25 367.75,-19.25 367.75,0 443.75,0 443.75,-19.25"/>
<text text-anchor="middle" x="405.75" y="-5.75" font-family="Helvetica,sans-Serif" font-size="10.00">test_logic.cpp</text>
</a>
</g>
</g>
<!-- Node2&#45;&gt;Node9 -->
<g id="edge12_Node000002_Node000009" class="edge">
<title>Node2&#45;&gt;Node9</title>
<g id="a_edge12_Node000002_Node000009"><a xlink:title=" ">
<path fill="none" stroke="#63b8ff" d="M319.71,-101.9C331.07,-88.92 347.18,-70.78 361.75,-55.25 373.51,-42.71 387.52,-28.65 396.51,-19.73"/>
<polygon fill="#63b8ff" stroke="#63b8ff" points="317.29,-99.35 313.35,-109.18 322.57,-103.95 317.29,-99.35"/>
</a>
</g>
</g>
<!-- Node10 -->
<g id="Node000010" class="node">
<title>Node10</title>
<g id="a_Node000010"><a xlink:href="test__mqtt_8cpp.xhtml" target="_top" xlink:title=" ">
<polygon fill="white" stroke="#666666" points="537.38,-19.25 462.12,-19.25 462.12,0 537.38,0 537.38,-19.25"/>
<text text-anchor="middle" x="499.75" y="-5.75" font-family="Helvetica,sans-Serif" font-size="10.00">test_mqtt.cpp</text>
</a>
</g>
</g>
<!-- Node2&#45;&gt;Node10 -->
<g id="edge13_Node000002_Node000010" class="edge">
<title>Node2&#45;&gt;Node10</title>
<g id="a_edge13_Node000002_Node000010"><a xlink:title=" ">
<path fill="none" stroke="#63b8ff" d="M358.02,-108.41C396.84,-99.79 445.39,-87.08 461.75,-74.5 480.57,-60.03 491.97,-33.36 496.89,-19.51"/>
<polygon fill="#63b8ff" stroke="#63b8ff" points="357.35,-104.97 348.32,-110.51 358.84,-111.81 357.35,-104.97"/>
</a>
</g>
</g>
<!-- Node11 -->
<g id="Node000011" class="node">
<title>Node11</title>
<g id="a_Node000011"><a xlink:href="test__savedconfig_8cpp.xhtml" target="_top" xlink:title=" ">
<polygon fill="white" stroke="#666666" points="616.5,-74.5 509,-74.5 509,-55.25 616.5,-55.25 616.5,-74.5"/>
<text text-anchor="middle" x="562.75" y="-61" font-family="Helvetica,sans-Serif" font-size="10.00">test_savedconfig.cpp</text>
</a>
</g>
</g>
<!-- Node2&#45;&gt;Node11 -->
<g id="edge14_Node000002_Node000011" class="edge">
<title>Node2&#45;&gt;Node11</title>
<g id="a_edge14_Node000002_Node000011"><a xlink:title=" ">
<path fill="none" stroke="#63b8ff" d="M357.76,-108.18C405.23,-98.39 474.03,-84.19 518.58,-74.99"/>
<polygon fill="#63b8ff" stroke="#63b8ff" points="357.34,-104.7 348.26,-110.15 358.76,-111.55 357.34,-104.7"/>
</a>
</g>
</g>
<!-- Node5&#45;&gt;Node6 -->
<g id="edge5_Node000005_Node000006" class="edge">
<title>Node5&#45;&gt;Node6</title>
<g id="a_edge5_Node000005_Node000006"><a xlink:title=" ">
<path fill="none" stroke="#63b8ff" d="M207.89,-43.63C208.36,-35.34 208.87,-26.17 209.24,-19.61"/>
<polygon fill="#63b8ff" stroke="#63b8ff" points="204.4,-43.39 207.33,-53.57 211.39,-43.78 204.4,-43.39"/>
</a>
</g>
</g>
<!-- Node8&#45;&gt;Node7 -->
<g id="edge9_Node000008_Node000007" class="edge">
<title>Node8&#45;&gt;Node7</title>
<g id="a_edge9_Node000008_Node000007"><a xlink:title=" ">
<path fill="none" stroke="#63b8ff" d="M383.09,-49.87C363.56,-40.33 338.27,-27.98 321.33,-19.7"/>
<polygon fill="#63b8ff" stroke="#63b8ff" points="381.38,-52.93 391.9,-54.18 384.45,-46.64 381.38,-52.93"/>
</a>
</g>
</g>
<!-- Node8&#45;&gt;Node9 -->
<g id="edge10_Node000008_Node000009" class="edge">
<title>Node8&#45;&gt;Node9</title>
<g id="a_edge10_Node000008_Node000009"><a xlink:title=" ">
<path fill="none" stroke="#63b8ff" d="M409.5,-43.92C408.56,-35.55 407.51,-26.25 406.76,-19.61"/>
<polygon fill="#63b8ff" stroke="#63b8ff" points="405.99,-44.03 410.59,-53.58 412.95,-43.25 405.99,-44.03"/>
</a>
</g>
</g>
<!-- Node8&#45;&gt;Node10 -->
<g id="edge11_Node000008_Node000010" class="edge">
<title>Node8&#45;&gt;Node10</title>
<g id="a_edge11_Node000008_Node000010"><a xlink:title=" ">
<path fill="none" stroke="#63b8ff" d="M436.21,-49.07C451.78,-39.65 471.45,-27.75 484.75,-19.7"/>
<polygon fill="#63b8ff" stroke="#63b8ff" points="434.72,-45.89 427.97,-54.06 438.34,-51.88 434.72,-45.89"/>
</a>
</g>
</g>
</g>
</svg>

<g id="navigator" transform="translate(0 0)" fill="#404254">
  <rect fill="#f2f5e9" fill-opacity="0.5" stroke="#606060" stroke-width=".5" x="0" y="0" width="60" height="60"/>
  <use id="zoomplus" xlink:href="#zoomPlus" x="17" y="9" onmousedown="handleZoom(evt,'in')"/>
  <use id="zoomminus" xlink:href="#zoomMin" x="42" y="9" onmousedown="handleZoom(evt,'out')"/>
  <use id="reset" xlink:href="#resetDef" x="30" y="36" onmousedown="handleReset()"/>
   <use id="arrowup" xlink:href="#arrowUp" x="0" y="0" onmousedown="handlePan(0,-1)"/>
  <use id="arrowright" xlink:href="#arrowRight" x="0" y="0" onmousedown="handlePan(1,0)"/>
  <use id="arrowdown" xlink:href="#arrowDown" x="0" y="0" onmousedown="handlePan(0,1)"/>
  <use id="arrowleft" xlink:href="#arrowLeft" x="0" y="0" onmousedown="handlePan(-1,0)"/>
</g>
<svg viewBox="0 0 15 15" width="100%" height="30px" preserveAspectRatio="xMaxYMin meet">
 <g id="arrow_out" transform="scale(0.3 0.3)">
  <a xlink:href="_led_8hpp__dep__incl_org.svg" target="_base">
   <rect id="button" ry="5" rx="5" y="6" x="6" height="38" width="38"
        fill="#f2f5e9" fill-opacity="0.5" stroke="#606060" stroke-width="1.0"/>
   <path id="arrow"
     d="M 11.500037,31.436501 C 11.940474,20.09759 22.043105,11.32322 32.158766,21.979434 L 37.068811,17.246167 C 37.068811,17.246167 37.088388,32 37.088388,32 L 22.160133,31.978069 C 22.160133,31.978069 26.997745,27.140456 26.997745,27.140456 C 18.528582,18.264221 13.291696,25.230495 11.500037,31.436501 z"
     style="fill:#404040;"/>
  </a>
 </g>
</svg>

<style type='text/css'>
<![CDATA[
[data-mouse-over-selected='false'] { opacity: 0.7; }
[data-mouse-over-selected='true']  { opacity: 1.0; }
]]>
</style>
<script type="application/ecmascript"><![CDATA[
document.addEventListener('DOMContentLoaded', (event) => {
  highlightEdges();
  highlightAdjacentNodes();
});
]]></script>
</svg>
