<?xml version="1.0" encoding="UTF-8" standalone="no"?>
<!DOCTYPE svg PUBLIC "-//W3C//DTD SVG 1.1//EN"
 "http://www.w3.org/Graphics/SVG/1.1/DTD/svg11.dtd">
<!-- Generated by graphviz version 9.0.0 (20230911.1827)
 -->
<!-- Title: Led.cpp Pages: 1 -->
<svg width="298pt" height="248pt"
 viewBox="0.00 0.00 298.38 248.25" xmlns="http://www.w3.org/2000/svg" xmlns:xlink="http://www.w3.org/1999/xlink">

<svg id="main" version="1.1" xmlns="http://www.w3.org/2000/svg" xmlns:xlink="http://www.w3.org/1999/xlink" xml:space="preserve" onload="init(evt)">
<style type="text/css"><![CDATA[
.node, .edge {opacity: 0.7;}
.node.selected, .edge.selected {opacity: 1;}
.edge:hover path { stroke: red; }
.edge:hover polygon { stroke: red; fill: red; }
]]></style>
<script type="application/ecmascript" xlink:href="svg.min.js"/>
<svg id="graph" class="graph">
<g id="graph0" class="graph" transform="scale(1 1) rotate(0) translate(4 244.25)">
<title>Led.cpp</title>
<!-- Node1 -->
<g id="Node000001" class="node">
<title>Node1</title>
<g id="a_Node000001"><a xlink:title=" ">
<polygon fill="#999999" stroke="#666666" points="184,-240.25 133.5,-240.25 133.5,-221 184,-221 184,-240.25"/>
<text text-anchor="middle" x="158.75" y="-226.75" font-family="Helvetica,sans-Serif" font-size="10.00">Led.cpp</text>
</a>
</g>
</g>
<!-- Node2 -->
<g id="Node000002" class="node">
<title>Node2</title>
<g id="a_Node000002"><a xlink:href="_led_8hpp.xhtml" target="_top" xlink:title=" ">
<polygon fill="white" stroke="#666666" points="145,-185 94.5,-185 94.5,-165.75 145,-165.75 145,-185"/>
<text text-anchor="middle" x="119.75" y="-171.5" font-family="Helvetica,sans-Serif" font-size="10.00">Led.hpp</text>
</a>
</g>
</g>
<!-- Node1&#45;&gt;Node2 -->
<g id="edge1_Node000001_Node000002" class="edge">
<title>Node1&#45;&gt;Node2</title>
<g id="a_edge1_Node000001_Node000002"><a xlink:title=" ">
<path fill="none" stroke="#63b8ff" d="M152.31,-220.83C147.09,-213.71 139.56,-203.43 133.06,-194.55"/>
<polygon fill="#63b8ff" stroke="#63b8ff" points="135.96,-192.58 127.22,-186.58 130.31,-196.72 135.96,-192.58"/>
</a>
</g>
</g>
<!-- Node10 -->
<g id="Node000010" class="node">
<title>Node10</title>
<g id="a_Node000010"><a xlink:href="_logging_8hpp.xhtml" target="_top" xlink:title=" ">
<polygon fill="white" stroke="#666666" points="264,-185 195.5,-185 195.5,-165.75 264,-165.75 264,-185"/>
<text text-anchor="middle" x="229.75" y="-171.5" font-family="Helvetica,sans-Serif" font-size="10.00">Logging.hpp</text>
</a>
</g>
</g>
<!-- Node1&#45;&gt;Node10 -->
<g id="edge11_Node000001_Node000010" class="edge">
<title>Node1&#45;&gt;Node10</title>
<g id="a_edge11_Node000001_Node000010"><a xlink:title=" ">
<path fill="none" stroke="#63b8ff" d="M170.79,-220.59C181.16,-212.82 196.35,-201.42 208.72,-192.15"/>
<polygon fill="#63b8ff" stroke="#63b8ff" points="210.77,-194.98 216.67,-186.18 206.57,-189.38 210.77,-194.98"/>
</a>
</g>
</g>
<!-- Node3 -->
<g id="Node000003" class="node">
<title>Node3</title>
<g id="a_Node000003"><a xlink:title=" ">
<polygon fill="#e0e0e0" stroke="#999999" points="101.5,-74.5 0,-74.5 0,-55.25 101.5,-55.25 101.5,-74.5"/>
<text text-anchor="middle" x="50.75" y="-61" font-family="Helvetica,sans-Serif" font-size="10.00">Adafruit_NeoPixel.h</text>
</a>
</g>
</g>
<!-- Node2&#45;&gt;Node3 -->
<g id="edge2_Node000002_Node000003" class="edge">
<title>Node2&#45;&gt;Node3</title>
<g id="a_edge2_Node000002_Node000003"><a xlink:title=" ">
<path fill="none" stroke="#63b8ff" d="M94.4,-171.94C68.44,-167.95 29.32,-157.43 10.75,-129.75 0.06,-113.83 14.73,-95.2 29.22,-82.18"/>
<polygon fill="#63b8ff" stroke="#63b8ff" points="31.38,-84.93 36.82,-75.84 26.9,-79.55 31.38,-84.93"/>
</a>
</g>
</g>
<!-- Node4 -->
<g id="Node000004" class="node">
<title>Node4</title>
<g id="a_Node000004"><a xlink:title=" ">
<polygon fill="#e0e0e0" stroke="#999999" points="76,-129.75 19.5,-129.75 19.5,-110.5 76,-110.5 76,-129.75"/>
<text text-anchor="middle" x="47.75" y="-116.25" font-family="Helvetica,sans-Serif" font-size="10.00">Arduino.h</text>
</a>
</g>
</g>
<!-- Node2&#45;&gt;Node4 -->
<g id="edge3_Node000002_Node000004" class="edge">
<title>Node2&#45;&gt;Node4</title>
<g id="a_edge3_Node000002_Node000004"><a xlink:title=" ">
<path fill="none" stroke="#63b8ff" d="M107.54,-165.34C96.92,-157.49 81.31,-145.95 68.71,-136.62"/>
<polygon fill="#63b8ff" stroke="#63b8ff" points="71.12,-134.06 61,-130.92 66.96,-139.69 71.12,-134.06"/>
</a>
</g>
</g>
<!-- Node5 -->
<g id="Node000005" class="node">
<title>Node5</title>
<g id="a_Node000005"><a xlink:title=" ">
<polygon fill="#e0e0e0" stroke="#999999" points="145,-129.75 94.5,-129.75 94.5,-110.5 145,-110.5 145,-129.75"/>
<text text-anchor="middle" x="119.75" y="-116.25" font-family="Helvetica,sans-Serif" font-size="10.00">memory</text>
</a>
</g>
</g>
<!-- Node2&#45;&gt;Node5 -->
<g id="edge4_Node000002_Node000005" class="edge">
<title>Node2&#45;&gt;Node5</title>
<g id="a_edge4_Node000002_Node000005"><a xlink:title=" ">
<path fill="none" stroke="#63b8ff" d="M119.75,-165.58C119.75,-159.07 119.75,-149.92 119.75,-141.62"/>
<polygon fill="#63b8ff" stroke="#63b8ff" points="123.25,-141.62 119.75,-131.62 116.25,-141.62 123.25,-141.62"/>
</a>
</g>
</g>
<!-- Node6 -->
<g id="Node000006" class="node">
<title>Node6</title>
<g id="a_Node000006"><a xlink:href="pins_8hpp.xhtml" target="_top" xlink:title=" ">
<polygon fill="white" stroke="#666666" points="214.75,-129.75 162.75,-129.75 162.75,-110.5 214.75,-110.5 214.75,-129.75"/>
<text text-anchor="middle" x="188.75" y="-116.25" font-family="Helvetica,sans-Serif" font-size="10.00">pins.hpp</text>
</a>
</g>
</g>
<!-- Node2&#45;&gt;Node6 -->
<g id="edge5_Node000002_Node000006" class="edge">
<title>Node2&#45;&gt;Node6</title>
<g id="a_edge5_Node000002_Node000006"><a xlink:title=" ">
<path fill="none" stroke="#63b8ff" d="M131.45,-165.34C141.53,-157.57 156.29,-146.17 168.31,-136.9"/>
<polygon fill="#63b8ff" stroke="#63b8ff" points="170.24,-139.83 176.02,-130.95 165.96,-134.29 170.24,-139.83"/>
</a>
</g>
</g>
<!-- Node6&#45;&gt;Node3 -->
<g id="edge7_Node000006_Node000003" class="edge">
<title>Node6&#45;&gt;Node3</title>
<g id="a_edge7_Node000006_Node000003"><a xlink:title=" ">
<path fill="none" stroke="#63b8ff" d="M165.34,-110.09C143.23,-101.56 109.83,-88.67 84.78,-79.01"/>
<polygon fill="#63b8ff" stroke="#63b8ff" points="86.28,-75.83 75.69,-75.5 83.76,-82.36 86.28,-75.83"/>
</a>
</g>
</g>
<!-- Node7 -->
<g id="Node000007" class="node">
<title>Node7</title>
<g id="a_Node000007"><a xlink:title=" ">
<polygon fill="#e0e0e0" stroke="#999999" points="182.38,-19.25 137.12,-19.25 137.12,0 182.38,0 182.38,-19.25"/>
<text text-anchor="middle" x="159.75" y="-5.75" font-family="Helvetica,sans-Serif" font-size="10.00">cstdint</text>
</a>
</g>
</g>
<!-- Node6&#45;&gt;Node7 -->
<g id="edge6_Node000006_Node000007" class="edge">
<title>Node6&#45;&gt;Node7</title>
<g id="a_edge6_Node000006_Node000007"><a xlink:title=" ">
<path fill="none" stroke="#63b8ff" d="M185.48,-110.32C182.23,-101.38 177.24,-87.1 173.75,-74.5 169.71,-59.89 166.07,-43.15 163.52,-30.47"/>
<polygon fill="#63b8ff" stroke="#63b8ff" points="167,-30.01 161.65,-20.86 160.13,-31.35 167,-30.01"/>
</a>
</g>
</g>
<!-- Node8 -->
<g id="Node000008" class="node">
<title>Node8</title>
<g id="a_Node000008"><a xlink:href="_pins_config_8hpp.xhtml" target="_top" xlink:title=" ">
<polygon fill="white" stroke="#666666" points="263,-74.5 182.5,-74.5 182.5,-55.25 263,-55.25 263,-74.5"/>
<text text-anchor="middle" x="222.75" y="-61" font-family="Helvetica,sans-Serif" font-size="10.00">PinsConfig.hpp</text>
</a>
</g>
</g>
<!-- Node6&#45;&gt;Node8 -->
<g id="edge8_Node000006_Node000008" class="edge">
<title>Node6&#45;&gt;Node8</title>
<g id="a_edge8_Node000006_Node000008"><a xlink:title=" ">
<path fill="none" stroke="#63b8ff" d="M194.36,-110.33C198.87,-103.28 205.34,-93.15 210.96,-84.33"/>
<polygon fill="#63b8ff" stroke="#63b8ff" points="213.77,-86.45 216.2,-76.13 207.87,-82.68 213.77,-86.45"/>
</a>
</g>
</g>
<!-- Node8&#45;&gt;Node7 -->
<g id="edge9_Node000008_Node000007" class="edge">
<title>Node8&#45;&gt;Node7</title>
<g id="a_edge9_Node000008_Node000007"><a xlink:title=" ">
<path fill="none" stroke="#63b8ff" d="M212.06,-54.84C203.05,-47.22 189.92,-36.12 179.07,-26.95"/>
<polygon fill="#63b8ff" stroke="#63b8ff" points="181.33,-24.28 171.44,-20.5 176.81,-29.63 181.33,-24.28"/>
</a>
</g>
</g>
<!-- Node9 -->
<g id="Node000009" class="node">
<title>Node9</title>
<g id="a_Node000009"><a xlink:title=" ">
<polygon fill="#e0e0e0" stroke="#999999" points="241.25,-19.25 204.25,-19.25 204.25,0 241.25,0 241.25,-19.25"/>
<text text-anchor="middle" x="222.75" y="-5.75" font-family="Helvetica,sans-Serif" font-size="10.00">array</text>
</a>
</g>
</g>
<!-- Node8&#45;&gt;Node9 -->
<g id="edge10_Node000008_Node000009" class="edge">
<title>Node8&#45;&gt;Node9</title>
<g id="a_edge10_Node000008_Node000009"><a xlink:title=" ">
<path fill="none" stroke="#63b8ff" d="M222.75,-55.08C222.75,-48.57 222.75,-39.42 222.75,-31.12"/>
<polygon fill="#63b8ff" stroke="#63b8ff" points="226.25,-31.12 222.75,-21.12 219.25,-31.12 226.25,-31.12"/>
</a>
</g>
</g>
<!-- Node11 -->
<g id="Node000011" class="node">
<title>Node11</title>
<g id="a_Node000011"><a xlink:title=" ">
<polygon fill="#e0e0e0" stroke="#999999" points="290.38,-129.75 233.12,-129.75 233.12,-110.5 290.38,-110.5 290.38,-129.75"/>
<text text-anchor="middle" x="261.75" y="-116.25" font-family="Helvetica,sans-Serif" font-size="10.00">esp_log.h</text>
</a>
</g>
</g>
<!-- Node10&#45;&gt;Node11 -->
<g id="edge12_Node000010_Node000011" class="edge">
<title>Node10&#45;&gt;Node11</title>
<g id="a_edge12_Node000010_Node000011"><a xlink:title=" ">
<path fill="none" stroke="#63b8ff" d="M235.03,-165.58C239.22,-158.61 245.23,-148.62 250.48,-139.87"/>
<polygon fill="#63b8ff" stroke="#63b8ff" points="253.42,-141.78 255.57,-131.41 247.42,-138.18 253.42,-141.78"/>
</a>
</g>
</g>
</g>
</svg>
</svg>

<style type='text/css'>
<![CDATA[
[data-mouse-over-selected='false'] { opacity: 0.7; }
[data-mouse-over-selected='true']  { opacity: 1.0; }
]]>
</style>
<script type="application/ecmascript"><![CDATA[
document.addEventListener('DOMContentLoaded', (event) => {
  highlightEdges();
  highlightAdjacentNodes();
});
]]></script>
</svg>
