<?xml version="1.0" encoding="UTF-8" standalone="no"?>
<!DOCTYPE svg PUBLIC "-//W3C//DTD SVG 1.1//EN"
 "http://www.w3.org/Graphics/SVG/1.1/DTD/svg11.dtd">
<!-- Generated by graphviz version 9.0.0 (20230911.1827)
 -->
<!-- Title: MQTTtypes.cpp Pages: 1 -->
<svg width="1121pt" height="414pt"
 viewBox="0.00 0.00 1120.91 414.00" xmlns="http://www.w3.org/2000/svg" xmlns:xlink="http://www.w3.org/1999/xlink">
<g id="graph0" class="graph" transform="scale(1 1) rotate(0) translate(4 410)">
<title>MQTTtypes.cpp</title>
<!-- Node1 -->
<g id="Node000001" class="node">
<title>Node1</title>
<g id="a_Node000001"><a xlink:title=" ">
<polygon fill="#999999" stroke="#666666" points="565.12,-406 480.12,-406 480.12,-386.75 565.12,-386.75 565.12,-406"/>
<text text-anchor="middle" x="522.62" y="-392.5" font-family="Helvetica,sans-Serif" font-size="10.00">MQTTtypes.cpp</text>
</a>
</g>
</g>
<!-- Node2 -->
<g id="Node000002" class="node">
<title>Node2</title>
<g id="a_Node000002"><a xlink:title=" ">
<polygon fill="#e0e0e0" stroke="#999999" points="265.88,-295.5 215.38,-295.5 215.38,-276.25 265.88,-276.25 265.88,-295.5"/>
<text text-anchor="middle" x="240.62" y="-282" font-family="Helvetica,sans-Serif" font-size="10.00">memory</text>
</a>
</g>
</g>
<!-- Node1&#45;&gt;Node2 -->
<g id="edge1_Node000001_Node000002" class="edge">
<title>Node1&#45;&gt;Node2</title>
<g id="a_edge1_Node000001_Node000002"><a xlink:title=" ">
<path fill="none" stroke="#63b8ff" d="M488.73,-386.25C459.27,-377.99 415.64,-364.98 378.62,-350.75 339.47,-335.7 295.75,-314.72 268.22,-300.97"/>
<polygon fill="#63b8ff" stroke="#63b8ff" points="270.02,-297.96 259.52,-296.59 266.88,-304.21 270.02,-297.96"/>
</a>
</g>
</g>
<!-- Node3 -->
<g id="Node000003" class="node">
<title>Node3</title>
<g id="a_Node000003"><a xlink:title=" ">
<polygon fill="#e0e0e0" stroke="#999999" points="51.25,-129.75 0,-129.75 0,-110.5 51.25,-110.5 51.25,-129.75"/>
<text text-anchor="middle" x="25.62" y="-116.25" font-family="Helvetica,sans-Serif" font-size="10.00">sstream</text>
</a>
</g>
</g>
<!-- Node1&#45;&gt;Node3 -->
<g id="edge2_Node000001_Node000003" class="edge">
<title>Node1&#45;&gt;Node3</title>
<g id="a_edge2_Node000001_Node000003"><a xlink:title=" ">
<path fill="none" stroke="#63b8ff" d="M479.73,-393.77C369.98,-388.5 87.62,-367.14 87.62,-286.88 87.62,-286.88 87.62,-286.88 87.62,-229.62 87.62,-193.31 61.12,-158.11 42.77,-138.08"/>
<polygon fill="#63b8ff" stroke="#63b8ff" points="45.53,-135.9 36.09,-131.09 40.47,-140.74 45.53,-135.9"/>
</a>
</g>
</g>
<!-- Node4 -->
<g id="Node000004" class="node">
<title>Node4</title>
<g id="a_Node000004"><a xlink:title=" ">
<polygon fill="#e0e0e0" stroke="#999999" points="523.62,-74.5 483.62,-74.5 483.62,-55.25 523.62,-55.25 523.62,-74.5"/>
<text text-anchor="middle" x="503.62" y="-61" font-family="Helvetica,sans-Serif" font-size="10.00">string</text>
</a>
</g>
</g>
<!-- Node1&#45;&gt;Node4 -->
<g id="edge3_Node000001_Node000004" class="edge">
<title>Node1&#45;&gt;Node4</title>
<g id="a_edge3_Node000001_Node000004"><a xlink:title=" ">
<path fill="none" stroke="#63b8ff" d="M525.27,-386.47C530.49,-368.05 541.62,-324.36 541.62,-286.88 541.62,-286.88 541.62,-286.88 541.62,-229.62 541.62,-176.29 522.26,-115.66 511.18,-85.33"/>
<polygon fill="#63b8ff" stroke="#63b8ff" points="514.6,-84.48 507.8,-76.35 508.05,-86.94 514.6,-84.48"/>
</a>
</g>
</g>
<!-- Node5 -->
<g id="Node000005" class="node">
<title>Node5</title>
<g id="a_Node000005"><a xlink:title=" ">
<polygon fill="#e0e0e0" stroke="#999999" points="723.38,-295.5 657.88,-295.5 657.88,-276.25 723.38,-276.25 723.38,-295.5"/>
<text text-anchor="middle" x="690.62" y="-282" font-family="Helvetica,sans-Serif" font-size="10.00">string_view</text>
</a>
</g>
</g>
<!-- Node1&#45;&gt;Node5 -->
<g id="edge4_Node000001_Node000005" class="edge">
<title>Node1&#45;&gt;Node5</title>
<g id="a_edge4_Node000001_Node000005"><a xlink:title=" ">
<path fill="none" stroke="#63b8ff" d="M531.86,-386.29C545.6,-373.1 572.59,-348.38 598.62,-331.5 617.34,-319.37 639.84,-308.39 657.91,-300.37"/>
<polygon fill="#63b8ff" stroke="#63b8ff" points="659.07,-303.68 666.85,-296.48 656.29,-297.25 659.07,-303.68"/>
</a>
</g>
</g>
<!-- Node6 -->
<g id="Node000006" class="node">
<title>Node6</title>
<g id="a_Node000006"><a xlink:title=" ">
<polygon fill="#e0e0e0" stroke="#999999" points="743.12,-350.75 700.12,-350.75 700.12,-331.5 743.12,-331.5 743.12,-350.75"/>
<text text-anchor="middle" x="721.62" y="-337.25" font-family="Helvetica,sans-Serif" font-size="10.00">WiFi.h</text>
</a>
</g>
</g>
<!-- Node1&#45;&gt;Node6 -->
<g id="edge5_Node000001_Node000006" class="edge">
<title>Node1&#45;&gt;Node6</title>
<g id="a_edge5_Node000001_Node000006"><a xlink:title=" ">
<path fill="none" stroke="#63b8ff" d="M557.41,-386.26C589.15,-377.92 637.63,-365.11 688.96,-351.18"/>
<polygon fill="#63b8ff" stroke="#63b8ff" points="689.76,-354.59 698.49,-348.59 687.93,-347.83 689.76,-354.59"/>
</a>
</g>
</g>
<!-- Node7 -->
<g id="Node000007" class="node">
<title>Node7</title>
<g id="a_Node000007"><a xlink:href="_espressif_8hpp.xhtml" target="_top" xlink:title=" ">
<polygon fill="white" stroke="#666666" points="681.88,-350.75 607.38,-350.75 607.38,-331.5 681.88,-331.5 681.88,-350.75"/>
<text text-anchor="middle" x="644.62" y="-337.25" font-family="Helvetica,sans-Serif" font-size="10.00">Espressif.hpp</text>
</a>
</g>
</g>
<!-- Node1&#45;&gt;Node7 -->
<g id="edge6_Node000001_Node000007" class="edge">
<title>Node1&#45;&gt;Node7</title>
<g id="a_edge6_Node000001_Node000007"><a xlink:title=" ">
<path fill="none" stroke="#63b8ff" d="M543.32,-386.34C562.51,-377.97 591.34,-365.38 613.34,-355.78"/>
<polygon fill="#63b8ff" stroke="#63b8ff" points="614.68,-359.02 622.44,-351.81 611.88,-352.6 614.68,-359.02"/>
</a>
</g>
</g>
<!-- Node9 -->
<g id="Node000009" class="node">
<title>Node9</title>
<g id="a_Node000009"><a xlink:href="_m_q_t_ttypes_8hpp.xhtml" target="_top" xlink:title=" ">
<polygon fill="white" stroke="#666666" points="473.12,-350.75 388.12,-350.75 388.12,-331.5 473.12,-331.5 473.12,-350.75"/>
<text text-anchor="middle" x="430.62" y="-337.25" font-family="Helvetica,sans-Serif" font-size="10.00">MQTTtypes.hpp</text>
</a>
</g>
</g>
<!-- Node1&#45;&gt;Node9 -->
<g id="edge9_Node000001_Node000009" class="edge">
<title>Node1&#45;&gt;Node9</title>
<g id="a_edge9_Node000001_Node000009"><a xlink:title=" ">
<path fill="none" stroke="#63b8ff" d="M507.02,-386.34C493.01,-378.23 472.19,-366.18 455.82,-356.71"/>
<polygon fill="#63b8ff" stroke="#63b8ff" points="458.03,-353.94 447.62,-351.96 454.52,-360 458.03,-353.94"/>
</a>
</g>
</g>
<!-- Node11 -->
<g id="Node000011" class="node">
<title>Node11</title>
<g id="a_Node000011"><a xlink:href="_fab_user_8hpp.xhtml" target="_top" xlink:title=" ">
<polygon fill="white" stroke="#666666" points="501.38,-240.25 429.88,-240.25 429.88,-221 501.38,-221 501.38,-240.25"/>
<text text-anchor="middle" x="465.62" y="-226.75" font-family="Helvetica,sans-Serif" font-size="10.00">FabUser.hpp</text>
</a>
</g>
</g>
<!-- Node1&#45;&gt;Node11 -->
<g id="edge54_Node000001_Node000011" class="edge">
<title>Node1&#45;&gt;Node11</title>
<g id="a_edge54_Node000001_Node000011"><a xlink:title=" ">
<path fill="none" stroke="#63b8ff" d="M519.56,-386.57C510.67,-361.03 484.71,-286.45 472.34,-250.9"/>
<polygon fill="#63b8ff" stroke="#63b8ff" points="475.8,-250.2 469.2,-241.9 469.18,-252.5 475.8,-250.2"/>
</a>
</g>
</g>
<!-- Node13 -->
<g id="Node000013" class="node">
<title>Node13</title>
<g id="a_Node000013"><a xlink:href="card_8hpp.xhtml" target="_top" xlink:title=" ">
<polygon fill="white" stroke="#666666" points="289,-185 236.25,-185 236.25,-165.75 289,-165.75 289,-185"/>
<text text-anchor="middle" x="262.62" y="-171.5" font-family="Helvetica,sans-Serif" font-size="10.00">card.hpp</text>
</a>
</g>
</g>
<!-- Node1&#45;&gt;Node13 -->
<g id="edge55_Node000001_Node000013" class="edge">
<title>Node1&#45;&gt;Node13</title>
<g id="a_edge55_Node000001_Node000013"><a xlink:title=" ">
<path fill="none" stroke="#63b8ff" d="M479.84,-388.6C400.75,-375.06 236.96,-341.92 206.62,-295.5 184.36,-261.42 220.19,-217.09 244.05,-193.28"/>
<polygon fill="#63b8ff" stroke="#63b8ff" points="246.28,-195.99 251.08,-186.54 241.44,-190.93 246.28,-195.99"/>
</a>
</g>
</g>
<!-- Node28 -->
<g id="Node000028" class="node">
<title>Node28</title>
<g id="a_Node000028"><a xlink:title=" ">
<polygon fill="#e0e0e0" stroke="#999999" points="849.62,-350.75 761.62,-350.75 761.62,-331.5 849.62,-331.5 849.62,-350.75"/>
<text text-anchor="middle" x="805.62" y="-337.25" font-family="Helvetica,sans-Serif" font-size="10.00">ArduinoJson.hpp</text>
</a>
</g>
</g>
<!-- Node1&#45;&gt;Node28 -->
<g id="edge53_Node000001_Node000028" class="edge">
<title>Node1&#45;&gt;Node28</title>
<g id="a_edge53_Node000001_Node000028"><a xlink:title=" ">
<path fill="none" stroke="#63b8ff" d="M565.61,-387.29C614.98,-378 696.11,-362.73 750.2,-352.55"/>
<polygon fill="#63b8ff" stroke="#63b8ff" points="750.64,-356.03 759.82,-350.74 749.34,-349.15 750.64,-356.03"/>
</a>
</g>
</g>
<!-- Node7&#45;&gt;Node5 -->
<g id="edge8_Node000007_Node000005" class="edge">
<title>Node7&#45;&gt;Node5</title>
<g id="a_edge8_Node000007_Node000005"><a xlink:title=" ">
<path fill="none" stroke="#63b8ff" d="M652.22,-331.33C658.51,-324.05 667.64,-313.48 675.42,-304.48"/>
<polygon fill="#63b8ff" stroke="#63b8ff" points="677.99,-306.86 681.87,-297 672.69,-302.28 677.99,-306.86"/>
</a>
</g>
</g>
<!-- Node8 -->
<g id="Node000008" class="node">
<title>Node8</title>
<g id="a_Node000008"><a xlink:title=" ">
<polygon fill="#e0e0e0" stroke="#999999" points="1093.25,-74.5 1048,-74.5 1048,-55.25 1093.25,-55.25 1093.25,-74.5"/>
<text text-anchor="middle" x="1070.62" y="-61" font-family="Helvetica,sans-Serif" font-size="10.00">chrono</text>
</a>
</g>
</g>
<!-- Node7&#45;&gt;Node8 -->
<g id="edge7_Node000007_Node000008" class="edge">
<title>Node7&#45;&gt;Node8</title>
<g id="a_edge7_Node000007_Node000008"><a xlink:title=" ">
<path fill="none" stroke="#63b8ff" d="M679.71,-331.06C747.99,-312.22 901.43,-263.88 1008.62,-185 1034.59,-165.89 1041.09,-158.53 1055.62,-129.75 1062.56,-116.02 1066.35,-99.01 1068.39,-86"/>
<polygon fill="#63b8ff" stroke="#63b8ff" points="1071.86,-86.45 1069.69,-76.08 1064.92,-85.54 1071.86,-86.45"/>
</a>
</g>
</g>
<!-- Node9&#45;&gt;Node2 -->
<g id="edge51_Node000009_Node000002" class="edge">
<title>Node9&#45;&gt;Node2</title>
<g id="a_edge51_Node000009_Node000002"><a xlink:title=" ">
<path fill="none" stroke="#63b8ff" d="M398.39,-331.09C364.77,-321.67 312.14,-306.92 277.04,-297.08"/>
<polygon fill="#63b8ff" stroke="#63b8ff" points="278.33,-293.81 267.76,-294.48 276.44,-300.55 278.33,-293.81"/>
</a>
</g>
</g>
<!-- Node9&#45;&gt;Node4 -->
<g id="edge50_Node000009_Node000004" class="edge">
<title>Node9&#45;&gt;Node4</title>
<g id="a_edge50_Node000009_Node000004"><a xlink:title=" ">
<path fill="none" stroke="#63b8ff" d="M427.95,-331.3C422.31,-311.32 410.53,-261.26 420.62,-221 434.06,-167.41 469.95,-112.1 489.85,-84.26"/>
<polygon fill="#63b8ff" stroke="#63b8ff" points="492.65,-86.36 495.73,-76.22 487,-82.23 492.65,-86.36"/>
</a>
</g>
</g>
<!-- Node9&#45;&gt;Node5 -->
<g id="edge52_Node000009_Node000005" class="edge">
<title>Node9&#45;&gt;Node5</title>
<g id="a_edge52_Node000009_Node000005"><a xlink:title=" ">
<path fill="none" stroke="#63b8ff" d="M473.23,-331.41C514.86,-322.9 580.33,-309.5 646.55,-295.92"/>
<polygon fill="#63b8ff" stroke="#63b8ff" points="647.03,-299.4 656.13,-293.96 645.63,-292.54 647.03,-299.4"/>
</a>
</g>
</g>
<!-- Node10 -->
<g id="Node000010" class="node">
<title>Node10</title>
<g id="a_Node000010"><a xlink:title=" ">
<polygon fill="#e0e0e0" stroke="#999999" points="399.38,-295.5 321.88,-295.5 321.88,-276.25 399.38,-276.25 399.38,-295.5"/>
<text text-anchor="middle" x="360.62" y="-282" font-family="Helvetica,sans-Serif" font-size="10.00">ArduinoJson.h</text>
</a>
</g>
</g>
<!-- Node9&#45;&gt;Node10 -->
<g id="edge10_Node000009_Node000010" class="edge">
<title>Node9&#45;&gt;Node10</title>
<g id="a_edge10_Node000009_Node000010"><a xlink:title=" ">
<path fill="none" stroke="#63b8ff" d="M418.75,-331.09C408.53,-323.32 393.55,-311.92 381.36,-302.65"/>
<polygon fill="#63b8ff" stroke="#63b8ff" points="383.61,-299.96 373.53,-296.69 379.37,-305.53 383.61,-299.96"/>
</a>
</g>
</g>
<!-- Node9&#45;&gt;Node11 -->
<g id="edge11_Node000009_Node000011" class="edge">
<title>Node9&#45;&gt;Node11</title>
<g id="a_edge11_Node000009_Node000011"><a xlink:title=" ">
<path fill="none" stroke="#63b8ff" d="M433.49,-331.25C439.08,-313.92 451.56,-275.23 459.22,-251.49"/>
<polygon fill="#63b8ff" stroke="#63b8ff" points="462.52,-252.66 462.26,-242.07 455.86,-250.51 462.52,-252.66"/>
</a>
</g>
</g>
<!-- Node9&#45;&gt;Node13 -->
<g id="edge49_Node000009_Node000013" class="edge">
<title>Node9&#45;&gt;Node13</title>
<g id="a_edge49_Node000009_Node000013"><a xlink:title=" ">
<path fill="none" stroke="#63b8ff" d="M387.9,-332.7C363.22,-326.47 333.12,-315.27 312.62,-295.5 284.33,-268.2 271.34,-222.42 265.96,-196.28"/>
<polygon fill="#63b8ff" stroke="#63b8ff" points="269.45,-195.87 264.18,-186.68 262.56,-197.15 269.45,-195.87"/>
</a>
</g>
</g>
<!-- Node22 -->
<g id="Node000022" class="node">
<title>Node22</title>
<g id="a_Node000022"><a xlink:href="_machine_8hpp.xhtml" target="_top" xlink:title=" ">
<polygon fill="white" stroke="#666666" points="640,-295.5 569.25,-295.5 569.25,-276.25 640,-276.25 640,-295.5"/>
<text text-anchor="middle" x="604.62" y="-282" font-family="Helvetica,sans-Serif" font-size="10.00">Machine.hpp</text>
</a>
</g>
</g>
<!-- Node9&#45;&gt;Node22 -->
<g id="edge31_Node000009_Node000022" class="edge">
<title>Node9&#45;&gt;Node22</title>
<g id="a_edge31_Node000009_Node000022"><a xlink:title=" ">
<path fill="none" stroke="#63b8ff" d="M460.14,-331.09C488.76,-322.33 532.41,-308.98 564.24,-299.23"/>
<polygon fill="#63b8ff" stroke="#63b8ff" points="564.98,-302.67 573.52,-296.4 562.93,-295.98 564.98,-302.67"/>
</a>
</g>
</g>
<!-- Node11&#45;&gt;Node3 -->
<g id="edge29_Node000011_Node000003" class="edge">
<title>Node11&#45;&gt;Node3</title>
<g id="a_edge29_Node000011_Node000003"><a xlink:title=" ">
<path fill="none" stroke="#63b8ff" d="M429.45,-224.24C382.54,-216.94 298.37,-202.75 227.62,-185 168.73,-170.22 101.79,-147.94 61.67,-133.98"/>
<polygon fill="#63b8ff" stroke="#63b8ff" points="62.88,-130.69 52.28,-130.69 60.56,-137.3 62.88,-130.69"/>
</a>
</g>
</g>
<!-- Node11&#45;&gt;Node4 -->
<g id="edge30_Node000011_Node000004" class="edge">
<title>Node11&#45;&gt;Node4</title>
<g id="a_edge30_Node000011_Node000004"><a xlink:title=" ">
<path fill="none" stroke="#63b8ff" d="M467.11,-220.59C470.47,-200.59 479.18,-151.16 489.62,-110.5 491.75,-102.24 494.48,-93.25 496.97,-85.52"/>
<polygon fill="#63b8ff" stroke="#63b8ff" points="500.26,-86.72 500.08,-76.12 493.62,-84.52 500.26,-86.72"/>
</a>
</g>
</g>
<!-- Node12 -->
<g id="Node000012" class="node">
<title>Node12</title>
<g id="a_Node000012"><a xlink:title=" ">
<polygon fill="#e0e0e0" stroke="#999999" points="361.88,-129.75 305.38,-129.75 305.38,-110.5 361.88,-110.5 361.88,-129.75"/>
<text text-anchor="middle" x="333.62" y="-116.25" font-family="Helvetica,sans-Serif" font-size="10.00">Arduino.h</text>
</a>
</g>
</g>
<!-- Node11&#45;&gt;Node12 -->
<g id="edge12_Node000011_Node000012" class="edge">
<title>Node11&#45;&gt;Node12</title>
<g id="a_edge12_Node000011_Node000012"><a xlink:title=" ">
<path fill="none" stroke="#63b8ff" d="M454.82,-220.75C432.58,-202.47 381.41,-160.4 353.19,-137.21"/>
<polygon fill="#63b8ff" stroke="#63b8ff" points="355.69,-134.73 345.75,-131.09 351.25,-140.14 355.69,-134.73"/>
</a>
</g>
</g>
<!-- Node11&#45;&gt;Node13 -->
<g id="edge13_Node000011_Node000013" class="edge">
<title>Node11&#45;&gt;Node13</title>
<g id="a_edge13_Node000011_Node000013"><a xlink:title=" ">
<path fill="none" stroke="#63b8ff" d="M431.19,-220.59C394.9,-211.07 337.91,-196.12 300.4,-186.28"/>
<polygon fill="#63b8ff" stroke="#63b8ff" points="301.46,-182.94 290.9,-183.79 299.68,-189.71 301.46,-182.94"/>
</a>
</g>
</g>
<!-- Node15 -->
<g id="Node000015" class="node">
<title>Node15</title>
<g id="a_Node000015"><a xlink:href="conf_8hpp.xhtml" target="_top" xlink:title=" ">
<polygon fill="white" stroke="#666666" points="622,-129.75 569.25,-129.75 569.25,-110.5 622,-110.5 622,-129.75"/>
<text text-anchor="middle" x="595.62" y="-116.25" font-family="Helvetica,sans-Serif" font-size="10.00">conf.hpp</text>
</a>
</g>
</g>
<!-- Node11&#45;&gt;Node15 -->
<g id="edge26_Node000011_Node000015" class="edge">
<title>Node11&#45;&gt;Node15</title>
<g id="a_edge26_Node000011_Node000015"><a xlink:title=" ">
<path fill="none" stroke="#63b8ff" d="M476.26,-220.75C498.16,-202.47 548.56,-160.4 576.35,-137.21"/>
<polygon fill="#63b8ff" stroke="#63b8ff" points="578.24,-140.19 583.68,-131.1 573.76,-134.82 578.24,-140.19"/>
</a>
</g>
</g>
<!-- Node16 -->
<g id="Node000016" class="node">
<title>Node16</title>
<g id="a_Node000016"><a xlink:title=" ">
<polygon fill="#e0e0e0" stroke="#999999" points="680.25,-19.25 635,-19.25 635,0 680.25,0 680.25,-19.25"/>
<text text-anchor="middle" x="657.62" y="-5.75" font-family="Helvetica,sans-Serif" font-size="10.00">cstdint</text>
</a>
</g>
</g>
<!-- Node11&#45;&gt;Node16 -->
<g id="edge28_Node000011_Node000016" class="edge">
<title>Node11&#45;&gt;Node16</title>
<g id="a_edge28_Node000011_Node000016"><a xlink:title=" ">
<path fill="none" stroke="#63b8ff" d="M462.82,-220.73C454.56,-192.67 433.45,-104.98 474.62,-55.25 493.32,-32.67 575.6,-19.83 623.23,-14.16"/>
<polygon fill="#63b8ff" stroke="#63b8ff" points="623.48,-17.65 633.02,-13.04 622.69,-10.7 623.48,-17.65"/>
</a>
</g>
</g>
<!-- Node21 -->
<g id="Node000021" class="node">
<title>Node21</title>
<g id="a_Node000021"><a xlink:title=" ">
<polygon fill="#e0e0e0" stroke="#999999" points="1038.12,-19.25 1001.12,-19.25 1001.12,0 1038.12,0 1038.12,-19.25"/>
<text text-anchor="middle" x="1019.62" y="-5.75" font-family="Helvetica,sans-Serif" font-size="10.00">array</text>
</a>
</g>
</g>
<!-- Node11&#45;&gt;Node21 -->
<g id="edge27_Node000011_Node000021" class="edge">
<title>Node11&#45;&gt;Node21</title>
<g id="a_edge27_Node000011_Node000021"><a xlink:title=" ">
<path fill="none" stroke="#63b8ff" d="M501.64,-226.11C573.54,-218.85 732.43,-201.48 784.62,-185 887.45,-152.52 931.69,-157.42 1000.62,-74.5 1010.93,-62.1 1015.65,-44.28 1017.8,-30.6"/>
<polygon fill="#63b8ff" stroke="#63b8ff" points="1021.24,-31.34 1018.97,-20.99 1014.29,-30.5 1021.24,-31.34"/>
</a>
</g>
</g>
<!-- Node13&#45;&gt;Node3 -->
<g id="edge14_Node000013_Node000003" class="edge">
<title>Node13&#45;&gt;Node3</title>
<g id="a_edge14_Node000013_Node000003"><a xlink:title=" ">
<path fill="none" stroke="#63b8ff" d="M235.78,-168.66C199.01,-160.79 130.63,-145.98 62.53,-130.15"/>
<polygon fill="#63b8ff" stroke="#63b8ff" points="63.61,-126.81 53.08,-127.94 62.02,-133.63 63.61,-126.81"/>
</a>
</g>
</g>
<!-- Node13&#45;&gt;Node12 -->
<g id="edge16_Node000013_Node000012" class="edge">
<title>Node13&#45;&gt;Node12</title>
<g id="a_edge16_Node000013_Node000012"><a xlink:title=" ">
<path fill="none" stroke="#63b8ff" d="M274.67,-165.34C285.03,-157.57 300.23,-146.17 312.59,-136.9"/>
<polygon fill="#63b8ff" stroke="#63b8ff" points="314.65,-139.73 320.55,-130.93 310.45,-134.13 314.65,-139.73"/>
</a>
</g>
</g>
<!-- Node14 -->
<g id="Node000014" class="node">
<title>Node14</title>
<g id="a_Node000014"><a xlink:title=" ">
<polygon fill="#e0e0e0" stroke="#999999" points="287.5,-129.75 237.75,-129.75 237.75,-110.5 287.5,-110.5 287.5,-129.75"/>
<text text-anchor="middle" x="262.62" y="-116.25" font-family="Helvetica,sans-Serif" font-size="10.00">iomanip</text>
</a>
</g>
</g>
<!-- Node13&#45;&gt;Node14 -->
<g id="edge15_Node000013_Node000014" class="edge">
<title>Node13&#45;&gt;Node14</title>
<g id="a_edge15_Node000013_Node000014"><a xlink:title=" ">
<path fill="none" stroke="#63b8ff" d="M262.62,-165.58C262.62,-159.07 262.62,-149.92 262.62,-141.62"/>
<polygon fill="#63b8ff" stroke="#63b8ff" points="266.13,-141.62 262.63,-131.62 259.13,-141.62 266.13,-141.62"/>
</a>
</g>
</g>
<!-- Node13&#45;&gt;Node15 -->
<g id="edge17_Node000013_Node000015" class="edge">
<title>Node13&#45;&gt;Node15</title>
<g id="a_edge17_Node000013_Node000015"><a xlink:title=" ">
<path fill="none" stroke="#63b8ff" d="M289.31,-170.11C348.25,-160.68 489.69,-138.06 557.76,-127.18"/>
<polygon fill="#63b8ff" stroke="#63b8ff" points="557.99,-130.69 567.32,-125.65 556.89,-123.78 557.99,-130.69"/>
</a>
</g>
</g>
<!-- Node18 -->
<g id="Node000018" class="node">
<title>Node18</title>
<g id="a_Node000018"><a xlink:href="_logging_8hpp.xhtml" target="_top" xlink:title=" ">
<polygon fill="white" stroke="#666666" points="137.88,-129.75 69.38,-129.75 69.38,-110.5 137.88,-110.5 137.88,-129.75"/>
<text text-anchor="middle" x="103.62" y="-116.25" font-family="Helvetica,sans-Serif" font-size="10.00">Logging.hpp</text>
</a>
</g>
</g>
<!-- Node13&#45;&gt;Node18 -->
<g id="edge23_Node000013_Node000018" class="edge">
<title>Node13&#45;&gt;Node18</title>
<g id="a_edge23_Node000013_Node000018"><a xlink:title=" ">
<path fill="none" stroke="#63b8ff" d="M236.01,-165.46C210.14,-156.8 170.6,-143.56 141.46,-133.8"/>
<polygon fill="#63b8ff" stroke="#63b8ff" points="142.89,-130.58 132.29,-130.73 140.66,-137.22 142.89,-130.58"/>
</a>
</g>
</g>
<!-- Node20 -->
<g id="Node000020" class="node">
<title>Node20</title>
<g id="a_Node000020"><a xlink:title=" ">
<polygon fill="#e0e0e0" stroke="#999999" points="219.25,-129.75 156,-129.75 156,-110.5 219.25,-110.5 219.25,-129.75"/>
<text text-anchor="middle" x="187.62" y="-116.25" font-family="Helvetica,sans-Serif" font-size="10.00">esp_mac.h</text>
</a>
</g>
</g>
<!-- Node13&#45;&gt;Node20 -->
<g id="edge25_Node000013_Node000020" class="edge">
<title>Node13&#45;&gt;Node20</title>
<g id="a_edge25_Node000013_Node000020"><a xlink:title=" ">
<path fill="none" stroke="#63b8ff" d="M249.9,-165.34C238.91,-157.54 222.78,-146.09 209.69,-136.79"/>
<polygon fill="#63b8ff" stroke="#63b8ff" points="211.82,-134.01 201.64,-131.08 207.77,-139.72 211.82,-134.01"/>
</a>
</g>
</g>
<!-- Node15&#45;&gt;Node4 -->
<g id="edge19_Node000015_Node000004" class="edge">
<title>Node15&#45;&gt;Node4</title>
<g id="a_edge19_Node000015_Node000004"><a xlink:title=" ">
<path fill="none" stroke="#63b8ff" d="M580.02,-110.09C566.01,-101.98 545.19,-89.93 528.82,-80.46"/>
<polygon fill="#63b8ff" stroke="#63b8ff" points="531.03,-77.69 520.62,-75.71 527.52,-83.75 531.03,-77.69"/>
</a>
</g>
</g>
<!-- Node15&#45;&gt;Node8 -->
<g id="edge20_Node000015_Node000008" class="edge">
<title>Node15&#45;&gt;Node8</title>
<g id="a_edge20_Node000015_Node000008"><a xlink:title=" ">
<path fill="none" stroke="#63b8ff" d="M622.17,-116.32C686.9,-109.45 857.99,-91.14 1000.62,-74.5 1012.27,-73.14 1024.99,-71.59 1036.36,-70.19"/>
<polygon fill="#63b8ff" stroke="#63b8ff" points="1036.63,-73.68 1046.12,-68.97 1035.76,-66.73 1036.63,-73.68"/>
</a>
</g>
</g>
<!-- Node15&#45;&gt;Node16 -->
<g id="edge18_Node000015_Node000016" class="edge">
<title>Node15&#45;&gt;Node16</title>
<g id="a_edge18_Node000015_Node000016"><a xlink:title=" ">
<path fill="none" stroke="#63b8ff" d="M588.56,-110.33C579.17,-97.51 564.94,-73.23 575.62,-55.25 586.07,-37.68 606.12,-26.59 623.78,-19.86"/>
<polygon fill="#63b8ff" stroke="#63b8ff" points="624.89,-23.18 633.21,-16.62 622.61,-16.56 624.89,-23.18"/>
</a>
</g>
</g>
<!-- Node17 -->
<g id="Node000017" class="node">
<title>Node17</title>
<g id="a_Node000017"><a xlink:href="_machine_i_d_8hpp.xhtml" target="_top" xlink:title=" ">
<polygon fill="white" stroke="#666666" points="697.88,-74.5 617.38,-74.5 617.38,-55.25 697.88,-55.25 697.88,-74.5"/>
<text text-anchor="middle" x="657.62" y="-61" font-family="Helvetica,sans-Serif" font-size="10.00">MachineID.hpp</text>
</a>
</g>
</g>
<!-- Node15&#45;&gt;Node17 -->
<g id="edge21_Node000015_Node000017" class="edge">
<title>Node15&#45;&gt;Node17</title>
<g id="a_edge21_Node000015_Node000017"><a xlink:title=" ">
<path fill="none" stroke="#63b8ff" d="M606.14,-110.09C615.01,-102.47 627.94,-91.37 638.61,-82.2"/>
<polygon fill="#63b8ff" stroke="#63b8ff" points="640.81,-84.93 646.11,-75.76 636.25,-79.62 640.81,-84.93"/>
</a>
</g>
</g>
<!-- Node17&#45;&gt;Node16 -->
<g id="edge22_Node000017_Node000016" class="edge">
<title>Node17&#45;&gt;Node16</title>
<g id="a_edge22_Node000017_Node000016"><a xlink:title=" ">
<path fill="none" stroke="#63b8ff" d="M657.62,-55.08C657.62,-48.57 657.62,-39.42 657.62,-31.12"/>
<polygon fill="#63b8ff" stroke="#63b8ff" points="661.13,-31.12 657.63,-21.12 654.13,-31.12 661.13,-31.12"/>
</a>
</g>
</g>
<!-- Node19 -->
<g id="Node000019" class="node">
<title>Node19</title>
<g id="a_Node000019"><a xlink:title=" ">
<polygon fill="#e0e0e0" stroke="#999999" points="132.25,-74.5 75,-74.5 75,-55.25 132.25,-55.25 132.25,-74.5"/>
<text text-anchor="middle" x="103.62" y="-61" font-family="Helvetica,sans-Serif" font-size="10.00">esp_log.h</text>
</a>
</g>
</g>
<!-- Node18&#45;&gt;Node19 -->
<g id="edge24_Node000018_Node000019" class="edge">
<title>Node18&#45;&gt;Node19</title>
<g id="a_edge24_Node000018_Node000019"><a xlink:title=" ">
<path fill="none" stroke="#63b8ff" d="M103.62,-110.33C103.62,-103.82 103.62,-94.67 103.62,-86.37"/>
<polygon fill="#63b8ff" stroke="#63b8ff" points="107.13,-86.37 103.63,-76.37 100.13,-86.37 107.13,-86.37"/>
</a>
</g>
</g>
<!-- Node22&#45;&gt;Node8 -->
<g id="edge46_Node000022_Node000008" class="edge">
<title>Node22&#45;&gt;Node8</title>
<g id="a_edge46_Node000022_Node000008"><a xlink:title=" ">
<path fill="none" stroke="#63b8ff" d="M640.33,-276.9C729.11,-256.88 954.82,-204.66 983.62,-185 1021.22,-159.35 1048.54,-111.91 1061.74,-85.29"/>
<polygon fill="#63b8ff" stroke="#63b8ff" points="1064.86,-86.88 1066,-76.34 1058.54,-83.86 1064.86,-86.88"/>
</a>
</g>
</g>
<!-- Node22&#45;&gt;Node11 -->
<g id="edge32_Node000022_Node000011" class="edge">
<title>Node22&#45;&gt;Node11</title>
<g id="a_edge32_Node000022_Node000011"><a xlink:title=" ">
<path fill="none" stroke="#63b8ff" d="M581.05,-275.84C558.78,-267.31 525.13,-254.42 499.9,-244.76"/>
<polygon fill="#63b8ff" stroke="#63b8ff" points="501.32,-241.55 490.73,-241.24 498.82,-248.09 501.32,-241.55"/>
</a>
</g>
</g>
<!-- Node22&#45;&gt;Node16 -->
<g id="edge47_Node000022_Node000016" class="edge">
<title>Node22&#45;&gt;Node16</title>
<g id="a_edge47_Node000022_Node000016"><a xlink:title=" ">
<path fill="none" stroke="#63b8ff" d="M611.76,-275.95C618.12,-267.37 626.98,-253.75 630.62,-240.25 645.66,-184.58 646.24,-166.01 630.62,-110.5 623.47,-85.06 597.94,-79.43 608.62,-55.25 613.79,-43.57 623.68,-33.63 633.24,-26.11"/>
<polygon fill="#63b8ff" stroke="#63b8ff" points="635.21,-29.01 641.27,-20.32 631.11,-23.33 635.21,-29.01"/>
</a>
</g>
</g>
<!-- Node22&#45;&gt;Node21 -->
<g id="edge45_Node000022_Node000021" class="edge">
<title>Node22&#45;&gt;Node21</title>
<g id="a_edge45_Node000022_Node000021"><a xlink:title=" ">
<path fill="none" stroke="#63b8ff" d="M640.16,-277.86C643.02,-277.31 645.87,-276.77 648.62,-276.25 810.83,-245.68 872.23,-277.96 1008.62,-185 1067.47,-144.9 1139.16,-116.37 1102.62,-55.25 1091.1,-35.97 1068.07,-24.54 1049.18,-18.08"/>
<polygon fill="#63b8ff" stroke="#63b8ff" points="1050.42,-14.79 1039.83,-15.19 1048.35,-21.48 1050.42,-14.79"/>
</a>
</g>
</g>
<!-- Node23 -->
<g id="Node000023" class="node">
<title>Node23</title>
<g id="a_Node000023"><a xlink:href="_machine_config_8hpp.xhtml" target="_top" xlink:title=" ">
<polygon fill="white" stroke="#666666" points="775.5,-185 677.75,-185 677.75,-165.75 775.5,-165.75 775.5,-185"/>
<text text-anchor="middle" x="726.62" y="-171.5" font-family="Helvetica,sans-Serif" font-size="10.00">MachineConfig.hpp</text>
</a>
</g>
</g>
<!-- Node22&#45;&gt;Node23 -->
<g id="edge33_Node000022_Node000023" class="edge">
<title>Node22&#45;&gt;Node23</title>
<g id="a_edge33_Node000022_Node000023"><a xlink:title=" ">
<path fill="none" stroke="#63b8ff" d="M617.7,-275.81C629.95,-267.14 648.56,-253.46 663.62,-240.25 680.56,-225.4 698.47,-206.94 710.84,-193.69"/>
<polygon fill="#63b8ff" stroke="#63b8ff" points="713.21,-196.29 717.42,-186.57 708.07,-191.54 713.21,-196.29"/>
</a>
</g>
</g>
<!-- Node27 -->
<g id="Node000027" class="node">
<title>Node27</title>
<g id="a_Node000027"><a xlink:title=" ">
<polygon fill="#e0e0e0" stroke="#999999" points="621.5,-240.25 571.75,-240.25 571.75,-221 621.5,-221 621.5,-240.25"/>
<text text-anchor="middle" x="596.62" y="-226.75" font-family="Helvetica,sans-Serif" font-size="10.00">optional</text>
</a>
</g>
</g>
<!-- Node22&#45;&gt;Node27 -->
<g id="edge48_Node000022_Node000027" class="edge">
<title>Node22&#45;&gt;Node27</title>
<g id="a_edge48_Node000022_Node000027"><a xlink:title=" ">
<path fill="none" stroke="#63b8ff" d="M603.3,-276.08C602.31,-269.49 600.92,-260.21 599.66,-251.82"/>
<polygon fill="#63b8ff" stroke="#63b8ff" points="603.15,-251.47 598.2,-242.11 596.22,-252.51 603.15,-251.47"/>
</a>
</g>
</g>
<!-- Node23&#45;&gt;Node4 -->
<g id="edge36_Node000023_Node000004" class="edge">
<title>Node23&#45;&gt;Node4</title>
<g id="a_edge36_Node000023_Node000004"><a xlink:title=" ">
<path fill="none" stroke="#63b8ff" d="M677.54,-168.76C642.83,-163.04 596.32,-151.75 560.62,-129.75 541.89,-118.2 525.76,-98.65 515.49,-84.21"/>
<polygon fill="#63b8ff" stroke="#63b8ff" points="518.45,-82.34 509.94,-76.04 512.66,-86.28 518.45,-82.34"/>
</a>
</g>
</g>
<!-- Node23&#45;&gt;Node8 -->
<g id="edge34_Node000023_Node000008" class="edge">
<title>Node23&#45;&gt;Node8</title>
<g id="a_edge34_Node000023_Node000008"><a xlink:title=" ">
<path fill="none" stroke="#63b8ff" d="M755.36,-165.31C818.56,-145.38 969.34,-97.82 1036.89,-76.52"/>
<polygon fill="#63b8ff" stroke="#63b8ff" points="1037.82,-79.89 1046.3,-73.55 1035.71,-73.22 1037.82,-79.89"/>
</a>
</g>
</g>
<!-- Node23&#45;&gt;Node15 -->
<g id="edge44_Node000023_Node000015" class="edge">
<title>Node23&#45;&gt;Node15</title>
<g id="a_edge44_Node000023_Node000015"><a xlink:title=" ">
<path fill="none" stroke="#63b8ff" d="M704.4,-165.34C683.61,-156.89 652.28,-144.15 628.57,-134.52"/>
<polygon fill="#63b8ff" stroke="#63b8ff" points="629.94,-131.3 619.36,-130.77 627.3,-137.78 629.94,-131.3"/>
</a>
</g>
</g>
<!-- Node23&#45;&gt;Node16 -->
<g id="edge35_Node000023_Node000016" class="edge">
<title>Node23&#45;&gt;Node16</title>
<g id="a_edge35_Node000023_Node000016"><a xlink:title=" ">
<path fill="none" stroke="#63b8ff" d="M727.05,-165.37C727.63,-144.59 726.8,-92.26 706.62,-55.25 700.43,-43.89 690.21,-33.89 680.71,-26.26"/>
<polygon fill="#63b8ff" stroke="#63b8ff" points="682.93,-23.55 672.83,-20.36 678.74,-29.15 682.93,-23.55"/>
</a>
</g>
</g>
<!-- Node23&#45;&gt;Node17 -->
<g id="edge43_Node000023_Node000017" class="edge">
<title>Node23&#45;&gt;Node17</title>
<g id="a_edge43_Node000023_Node000017"><a xlink:title=" ">
<path fill="none" stroke="#63b8ff" d="M720.98,-165.5C709.76,-147.85 684.45,-108.05 669.43,-84.45"/>
<polygon fill="#63b8ff" stroke="#63b8ff" points="672.48,-82.71 664.16,-76.15 666.57,-86.47 672.48,-82.71"/>
</a>
</g>
</g>
<!-- Node24 -->
<g id="Node000024" class="node">
<title>Node24</title>
<g id="a_Node000024"><a xlink:href="pins_8hpp.xhtml" target="_top" xlink:title=" ">
<polygon fill="white" stroke="#666666" points="831.62,-129.75 779.62,-129.75 779.62,-110.5 831.62,-110.5 831.62,-129.75"/>
<text text-anchor="middle" x="805.62" y="-116.25" font-family="Helvetica,sans-Serif" font-size="10.00">pins.hpp</text>
</a>
</g>
</g>
<!-- Node23&#45;&gt;Node24 -->
<g id="edge37_Node000023_Node000024" class="edge">
<title>Node23&#45;&gt;Node24</title>
<g id="a_edge37_Node000023_Node000024"><a xlink:title=" ">
<path fill="none" stroke="#63b8ff" d="M740.03,-165.34C751.72,-157.46 768.93,-145.86 782.79,-136.52"/>
<polygon fill="#63b8ff" stroke="#63b8ff" points="784.57,-139.54 790.9,-131.05 780.65,-133.74 784.57,-139.54"/>
</a>
</g>
</g>
<!-- Node24&#45;&gt;Node16 -->
<g id="edge38_Node000024_Node000016" class="edge">
<title>Node24&#45;&gt;Node16</title>
<g id="a_edge38_Node000024_Node000016"><a xlink:title=" ">
<path fill="none" stroke="#63b8ff" d="M797.74,-110.07C785.99,-96.92 762.75,-72.25 739.62,-55.25 723.45,-43.36 703.73,-32.53 687.68,-24.52"/>
<polygon fill="#63b8ff" stroke="#63b8ff" points="689.62,-21.57 679.1,-20.34 686.56,-27.86 689.62,-21.57"/>
</a>
</g>
</g>
<!-- Node25 -->
<g id="Node000025" class="node">
<title>Node25</title>
<g id="a_Node000025"><a xlink:title=" ">
<polygon fill="#e0e0e0" stroke="#999999" points="991.38,-74.5 889.88,-74.5 889.88,-55.25 991.38,-55.25 991.38,-74.5"/>
<text text-anchor="middle" x="940.62" y="-61" font-family="Helvetica,sans-Serif" font-size="10.00">Adafruit_NeoPixel.h</text>
</a>
</g>
</g>
<!-- Node24&#45;&gt;Node25 -->
<g id="edge39_Node000024_Node000025" class="edge">
<title>Node24&#45;&gt;Node25</title>
<g id="a_edge39_Node000024_Node000025"><a xlink:title=" ">
<path fill="none" stroke="#63b8ff" d="M828.53,-110.09C850.05,-101.6 882.54,-88.79 907,-79.14"/>
<polygon fill="#63b8ff" stroke="#63b8ff" points="908.19,-82.43 916.2,-75.51 905.62,-75.92 908.19,-82.43"/>
</a>
</g>
</g>
<!-- Node26 -->
<g id="Node000026" class="node">
<title>Node26</title>
<g id="a_Node000026"><a xlink:href="_pins_config_8hpp.xhtml" target="_top" xlink:title=" ">
<polygon fill="white" stroke="#666666" points="871.88,-74.5 791.38,-74.5 791.38,-55.25 871.88,-55.25 871.88,-74.5"/>
<text text-anchor="middle" x="831.62" y="-61" font-family="Helvetica,sans-Serif" font-size="10.00">PinsConfig.hpp</text>
</a>
</g>
</g>
<!-- Node24&#45;&gt;Node26 -->
<g id="edge40_Node000024_Node000026" class="edge">
<title>Node24&#45;&gt;Node26</title>
<g id="a_edge40_Node000024_Node000026"><a xlink:title=" ">
<path fill="none" stroke="#63b8ff" d="M809.92,-110.33C813.25,-103.51 817.99,-93.81 822.19,-85.2"/>
<polygon fill="#63b8ff" stroke="#63b8ff" points="825.33,-86.74 826.57,-76.22 819.04,-83.67 825.33,-86.74"/>
</a>
</g>
</g>
<!-- Node26&#45;&gt;Node16 -->
<g id="edge41_Node000026_Node000016" class="edge">
<title>Node26&#45;&gt;Node16</title>
<g id="a_edge41_Node000026_Node000016"><a xlink:title=" ">
<path fill="none" stroke="#63b8ff" d="M802.11,-54.84C771.4,-45.45 723.41,-30.76 691.26,-20.92"/>
<polygon fill="#63b8ff" stroke="#63b8ff" points="692.64,-17.68 682.05,-18.1 690.59,-24.37 692.64,-17.68"/>
</a>
</g>
</g>
<!-- Node26&#45;&gt;Node21 -->
<g id="edge42_Node000026_Node000021" class="edge">
<title>Node26&#45;&gt;Node21</title>
<g id="a_edge42_Node000026_Node000021"><a xlink:title=" ">
<path fill="none" stroke="#63b8ff" d="M863.52,-54.84C898.91,-44.82 955.55,-28.77 990,-19.02"/>
<polygon fill="#63b8ff" stroke="#63b8ff" points="990.65,-22.47 999.31,-16.38 988.74,-15.74 990.65,-22.47"/>
</a>
</g>
</g>
</g>
</svg>
