<?xml version="1.0" encoding="UTF-8" standalone="no"?>
<!DOCTYPE svg PUBLIC "-//W3C//DTD SVG 1.1//EN"
 "http://www.w3.org/Graphics/SVG/1.1/DTD/svg11.dtd">
<!-- Generated by graphviz version 9.0.0 (20230911.1827)
 -->
<!-- Title: MQTTtypes.hpp Pages: 1 -->
<svg width="1011pt" height="359pt"
 viewBox="0.00 0.00 1010.88 358.75" xmlns="http://www.w3.org/2000/svg" xmlns:xlink="http://www.w3.org/1999/xlink">
<g id="graph0" class="graph" transform="scale(1 1) rotate(0) translate(4 354.75)">
<title>MQTTtypes.hpp</title>
<!-- Node1 -->
<g id="Node000001" class="node">
<title>Node1</title>
<g id="a_Node000001"><a xlink:title=" ">
<polygon fill="#999999" stroke="#666666" points="427.38,-350.75 342.38,-350.75 342.38,-331.5 427.38,-331.5 427.38,-350.75"/>
<text text-anchor="middle" x="384.88" y="-337.25" font-family="Helvetica,sans-Serif" font-size="10.00">MQTTtypes.hpp</text>
</a>
</g>
</g>
<!-- Node2 -->
<g id="Node000002" class="node">
<title>Node2</title>
<g id="a_Node000002"><a xlink:title=" ">
<polygon fill="#e0e0e0" stroke="#999999" points="228.62,-295.5 151.12,-295.5 151.12,-276.25 228.62,-276.25 228.62,-295.5"/>
<text text-anchor="middle" x="189.88" y="-282" font-family="Helvetica,sans-Serif" font-size="10.00">ArduinoJson.h</text>
</a>
</g>
</g>
<!-- Node1&#45;&gt;Node2 -->
<g id="edge1_Node000001_Node000002" class="edge">
<title>Node1&#45;&gt;Node2</title>
<g id="a_edge1_Node000001_Node000002"><a xlink:title=" ">
<path fill="none" stroke="#63b8ff" d="M351.8,-331.09C319.44,-322.26 269.95,-308.74 234.2,-298.98"/>
<polygon fill="#63b8ff" stroke="#63b8ff" points="235.15,-295.61 224.58,-296.35 233.3,-302.36 235.15,-295.61"/>
</a>
</g>
</g>
<!-- Node3 -->
<g id="Node000003" class="node">
<title>Node3</title>
<g id="a_Node000003"><a xlink:href="_fab_user_8hpp.xhtml" target="_top" xlink:title=" ">
<polygon fill="white" stroke="#666666" points="356.62,-240.25 285.12,-240.25 285.12,-221 356.62,-221 356.62,-240.25"/>
<text text-anchor="middle" x="320.88" y="-226.75" font-family="Helvetica,sans-Serif" font-size="10.00">FabUser.hpp</text>
</a>
</g>
</g>
<!-- Node1&#45;&gt;Node3 -->
<g id="edge2_Node000001_Node000003" class="edge">
<title>Node1&#45;&gt;Node3</title>
<g id="a_edge2_Node000001_Node000003"><a xlink:title=" ">
<path fill="none" stroke="#63b8ff" d="M379.64,-331.25C369.28,-313.68 345.96,-274.16 332.02,-250.52"/>
<polygon fill="#63b8ff" stroke="#63b8ff" points="335.05,-248.77 326.95,-241.93 329.02,-252.32 335.05,-248.77"/>
</a>
</g>
</g>
<!-- Node5 -->
<g id="Node000005" class="node">
<title>Node5</title>
<g id="a_Node000005"><a xlink:href="card_8hpp.xhtml" target="_top" xlink:title=" ">
<polygon fill="white" stroke="#666666" points="205.25,-185 152.5,-185 152.5,-165.75 205.25,-165.75 205.25,-185"/>
<text text-anchor="middle" x="178.88" y="-171.5" font-family="Helvetica,sans-Serif" font-size="10.00">card.hpp</text>
</a>
</g>
</g>
<!-- Node1&#45;&gt;Node5 -->
<g id="edge38_Node000001_Node000005" class="edge">
<title>Node1&#45;&gt;Node5</title>
<g id="a_edge38_Node000001_Node000005"><a xlink:title=" ">
<path fill="none" stroke="#63b8ff" d="M373.51,-331.09C340.09,-304.53 241.87,-226.45 199.13,-192.48"/>
<polygon fill="#63b8ff" stroke="#63b8ff" points="201.4,-189.81 191.39,-186.33 197.04,-195.29 201.4,-189.81"/>
</a>
</g>
</g>
<!-- Node10 -->
<g id="Node000010" class="node">
<title>Node10</title>
<g id="a_Node000010"><a xlink:title=" ">
<polygon fill="#e0e0e0" stroke="#999999" points="404.88,-74.5 364.88,-74.5 364.88,-55.25 404.88,-55.25 404.88,-74.5"/>
<text text-anchor="middle" x="384.88" y="-61" font-family="Helvetica,sans-Serif" font-size="10.00">string</text>
</a>
</g>
</g>
<!-- Node1&#45;&gt;Node10 -->
<g id="edge39_Node000001_Node000010" class="edge">
<title>Node1&#45;&gt;Node10</title>
<g id="a_edge39_Node000001_Node000010"><a xlink:title=" ">
<path fill="none" stroke="#63b8ff" d="M384.88,-331.12C384.88,-312.53 384.88,-268.55 384.88,-231.62 384.88,-231.62 384.88,-231.62 384.88,-174.38 384.88,-143.66 384.88,-108.05 384.88,-86.24"/>
<polygon fill="#63b8ff" stroke="#63b8ff" points="388.38,-86.39 384.88,-76.39 381.38,-86.39 388.38,-86.39"/>
</a>
</g>
</g>
<!-- Node16 -->
<g id="Node000016" class="node">
<title>Node16</title>
<g id="a_Node000016"><a xlink:href="_machine_8hpp.xhtml" target="_top" xlink:title=" ">
<polygon fill="white" stroke="#666666" points="534.25,-295.5 463.5,-295.5 463.5,-276.25 534.25,-276.25 534.25,-295.5"/>
<text text-anchor="middle" x="498.88" y="-282" font-family="Helvetica,sans-Serif" font-size="10.00">Machine.hpp</text>
</a>
</g>
</g>
<!-- Node1&#45;&gt;Node16 -->
<g id="edge21_Node000001_Node000016" class="edge">
<title>Node1&#45;&gt;Node16</title>
<g id="a_edge21_Node000001_Node000016"><a xlink:title=" ">
<path fill="none" stroke="#63b8ff" d="M404.21,-331.09C421.98,-322.79 448.59,-310.36 469.08,-300.79"/>
<polygon fill="#63b8ff" stroke="#63b8ff" points="470.49,-304 478.07,-296.59 467.53,-297.65 470.49,-304"/>
</a>
</g>
</g>
<!-- Node21 -->
<g id="Node000021" class="node">
<title>Node21</title>
<g id="a_Node000021"><a xlink:title=" ">
<polygon fill="#e0e0e0" stroke="#999999" points="603.12,-295.5 552.62,-295.5 552.62,-276.25 603.12,-276.25 603.12,-295.5"/>
<text text-anchor="middle" x="577.88" y="-282" font-family="Helvetica,sans-Serif" font-size="10.00">memory</text>
</a>
</g>
</g>
<!-- Node1&#45;&gt;Node21 -->
<g id="edge40_Node000001_Node000021" class="edge">
<title>Node1&#45;&gt;Node21</title>
<g id="a_edge40_Node000001_Node000021"><a xlink:title=" ">
<path fill="none" stroke="#63b8ff" d="M417.61,-331.09C451.97,-321.61 505.84,-306.75 541.5,-296.91"/>
<polygon fill="#63b8ff" stroke="#63b8ff" points="542.22,-300.34 550.93,-294.31 540.36,-293.6 542.22,-300.34"/>
</a>
</g>
</g>
<!-- Node22 -->
<g id="Node000022" class="node">
<title>Node22</title>
<g id="a_Node000022"><a xlink:title=" ">
<polygon fill="#e0e0e0" stroke="#999999" points="686.62,-295.5 621.12,-295.5 621.12,-276.25 686.62,-276.25 686.62,-295.5"/>
<text text-anchor="middle" x="653.88" y="-282" font-family="Helvetica,sans-Serif" font-size="10.00">string_view</text>
</a>
</g>
</g>
<!-- Node1&#45;&gt;Node22 -->
<g id="edge41_Node000001_Node000022" class="edge">
<title>Node1&#45;&gt;Node22</title>
<g id="a_edge41_Node000001_Node000022"><a xlink:title=" ">
<path fill="none" stroke="#63b8ff" d="M427.57,-331.84C470.9,-323.41 540.2,-309.86 609.71,-295.92"/>
<polygon fill="#63b8ff" stroke="#63b8ff" points="610.27,-299.38 619.38,-293.98 608.89,-292.52 610.27,-299.38"/>
</a>
</g>
</g>
<!-- Node4 -->
<g id="Node000004" class="node">
<title>Node4</title>
<g id="a_Node000004"><a xlink:title=" ">
<polygon fill="#e0e0e0" stroke="#999999" points="211.12,-129.75 154.62,-129.75 154.62,-110.5 211.12,-110.5 211.12,-129.75"/>
<text text-anchor="middle" x="182.88" y="-116.25" font-family="Helvetica,sans-Serif" font-size="10.00">Arduino.h</text>
</a>
</g>
</g>
<!-- Node3&#45;&gt;Node4 -->
<g id="edge3_Node000003_Node000004" class="edge">
<title>Node3&#45;&gt;Node4</title>
<g id="a_edge3_Node000003_Node000004"><a xlink:title=" ">
<path fill="none" stroke="#63b8ff" d="M309.58,-220.75C286.33,-202.47 232.83,-160.4 203.33,-137.21"/>
<polygon fill="#63b8ff" stroke="#63b8ff" points="205.54,-134.49 195.51,-131.06 201.21,-139.99 205.54,-134.49"/>
</a>
</g>
</g>
<!-- Node3&#45;&gt;Node5 -->
<g id="edge4_Node000003_Node000005" class="edge">
<title>Node3&#45;&gt;Node5</title>
<g id="a_edge4_Node000003_Node000005"><a xlink:title=" ">
<path fill="none" stroke="#63b8ff" d="M296.79,-220.59C273.94,-212.02 239.36,-199.06 213.55,-189.38"/>
<polygon fill="#63b8ff" stroke="#63b8ff" points="215.09,-186.22 204.5,-185.98 212.63,-192.77 215.09,-186.22"/>
</a>
</g>
</g>
<!-- Node6 -->
<g id="Node000006" class="node">
<title>Node6</title>
<g id="a_Node000006"><a xlink:title=" ">
<polygon fill="#e0e0e0" stroke="#999999" points="280.5,-129.75 229.25,-129.75 229.25,-110.5 280.5,-110.5 280.5,-129.75"/>
<text text-anchor="middle" x="254.88" y="-116.25" font-family="Helvetica,sans-Serif" font-size="10.00">sstream</text>
</a>
</g>
</g>
<!-- Node3&#45;&gt;Node6 -->
<g id="edge19_Node000003_Node000006" class="edge">
<title>Node3&#45;&gt;Node6</title>
<g id="a_edge19_Node000003_Node000006"><a xlink:title=" ">
<path fill="none" stroke="#63b8ff" d="M315.47,-220.75C304.74,-203.1 280.53,-163.3 266.17,-139.7"/>
<polygon fill="#63b8ff" stroke="#63b8ff" points="269.32,-138.14 261.14,-131.42 263.34,-141.78 269.32,-138.14"/>
</a>
</g>
</g>
<!-- Node8 -->
<g id="Node000008" class="node">
<title>Node8</title>
<g id="a_Node000008"><a xlink:href="conf_8hpp.xhtml" target="_top" xlink:title=" ">
<polygon fill="white" stroke="#666666" points="503.25,-129.75 450.5,-129.75 450.5,-110.5 503.25,-110.5 503.25,-129.75"/>
<text text-anchor="middle" x="476.88" y="-116.25" font-family="Helvetica,sans-Serif" font-size="10.00">conf.hpp</text>
</a>
</g>
</g>
<!-- Node3&#45;&gt;Node8 -->
<g id="edge16_Node000003_Node000008" class="edge">
<title>Node3&#45;&gt;Node8</title>
<g id="a_edge16_Node000003_Node000008"><a xlink:title=" ">
<path fill="none" stroke="#63b8ff" d="M333.91,-220.56C360.59,-202.01 421.68,-159.51 454.71,-136.54"/>
<polygon fill="#63b8ff" stroke="#63b8ff" points="456.54,-139.53 462.75,-130.95 452.54,-133.79 456.54,-139.53"/>
</a>
</g>
</g>
<!-- Node9 -->
<g id="Node000009" class="node">
<title>Node9</title>
<g id="a_Node000009"><a xlink:title=" ">
<polygon fill="#e0e0e0" stroke="#999999" points="591.5,-19.25 546.25,-19.25 546.25,0 591.5,0 591.5,-19.25"/>
<text text-anchor="middle" x="568.88" y="-5.75" font-family="Helvetica,sans-Serif" font-size="10.00">cstdint</text>
</a>
</g>
</g>
<!-- Node3&#45;&gt;Node9 -->
<g id="edge18_Node000003_Node000009" class="edge">
<title>Node3&#45;&gt;Node9</title>
<g id="a_edge18_Node000003_Node000009"><a xlink:title=" ">
<path fill="none" stroke="#63b8ff" d="M319.64,-220.87C316.15,-192.5 309.35,-102.17 355.88,-55.25 380.48,-30.43 480.77,-18.18 534.5,-13.29"/>
<polygon fill="#63b8ff" stroke="#63b8ff" points="534.67,-16.79 544.33,-12.44 534.06,-9.82 534.67,-16.79"/>
</a>
</g>
</g>
<!-- Node3&#45;&gt;Node10 -->
<g id="edge20_Node000003_Node000010" class="edge">
<title>Node3&#45;&gt;Node10</title>
<g id="a_edge20_Node000003_Node000010"><a xlink:title=" ">
<path fill="none" stroke="#63b8ff" d="M324.32,-220.82C334.3,-195.28 363.45,-120.7 377.34,-85.15"/>
<polygon fill="#63b8ff" stroke="#63b8ff" points="380.49,-86.72 380.87,-76.13 373.97,-84.17 380.49,-86.72"/>
</a>
</g>
</g>
<!-- Node15 -->
<g id="Node000015" class="node">
<title>Node15</title>
<g id="a_Node000015"><a xlink:title=" ">
<polygon fill="#e0e0e0" stroke="#999999" points="983.38,-19.25 946.38,-19.25 946.38,0 983.38,0 983.38,-19.25"/>
<text text-anchor="middle" x="964.88" y="-5.75" font-family="Helvetica,sans-Serif" font-size="10.00">array</text>
</a>
</g>
</g>
<!-- Node3&#45;&gt;Node15 -->
<g id="edge17_Node000003_Node000015" class="edge">
<title>Node3&#45;&gt;Node15</title>
<g id="a_edge17_Node000003_Node000015"><a xlink:title=" ">
<path fill="none" stroke="#63b8ff" d="M356.9,-228.52C422.97,-225.77 567.55,-216.37 684.88,-185 806.57,-152.47 861.9,-168.39 945.88,-74.5 956.62,-62.48 961.3,-44.62 963.33,-30.84"/>
<polygon fill="#63b8ff" stroke="#63b8ff" points="966.79,-31.44 964.39,-21.12 959.83,-30.69 966.79,-31.44"/>
</a>
</g>
</g>
<!-- Node5&#45;&gt;Node4 -->
<g id="edge7_Node000005_Node000004" class="edge">
<title>Node5&#45;&gt;Node4</title>
<g id="a_edge7_Node000005_Node000004"><a xlink:title=" ">
<path fill="none" stroke="#63b8ff" d="M179.54,-165.58C180.03,-158.99 180.73,-149.71 181.36,-141.32"/>
<polygon fill="#63b8ff" stroke="#63b8ff" points="184.83,-141.85 182.09,-131.62 177.85,-141.33 184.83,-141.85"/>
</a>
</g>
</g>
<!-- Node5&#45;&gt;Node6 -->
<g id="edge5_Node000005_Node000006" class="edge">
<title>Node5&#45;&gt;Node6</title>
<g id="a_edge5_Node000005_Node000006"><a xlink:title=" ">
<path fill="none" stroke="#63b8ff" d="M191.77,-165.34C202.9,-157.54 219.25,-146.09 232.51,-136.79"/>
<polygon fill="#63b8ff" stroke="#63b8ff" points="234.5,-139.68 240.68,-131.07 230.48,-133.94 234.5,-139.68"/>
</a>
</g>
</g>
<!-- Node7 -->
<g id="Node000007" class="node">
<title>Node7</title>
<g id="a_Node000007"><a xlink:title=" ">
<polygon fill="#e0e0e0" stroke="#999999" points="49.75,-129.75 0,-129.75 0,-110.5 49.75,-110.5 49.75,-129.75"/>
<text text-anchor="middle" x="24.88" y="-116.25" font-family="Helvetica,sans-Serif" font-size="10.00">iomanip</text>
</a>
</g>
</g>
<!-- Node5&#45;&gt;Node7 -->
<g id="edge6_Node000005_Node000007" class="edge">
<title>Node5&#45;&gt;Node7</title>
<g id="a_edge6_Node000005_Node000007"><a xlink:title=" ">
<path fill="none" stroke="#63b8ff" d="M152.75,-165.34C127.45,-156.59 88.88,-143.26 60.71,-133.52"/>
<polygon fill="#63b8ff" stroke="#63b8ff" points="62.13,-130.3 51.53,-130.34 59.84,-136.92 62.13,-130.3"/>
</a>
</g>
</g>
<!-- Node5&#45;&gt;Node8 -->
<g id="edge8_Node000005_Node000008" class="edge">
<title>Node5&#45;&gt;Node8</title>
<g id="a_edge8_Node000005_Node000008"><a xlink:title=" ">
<path fill="none" stroke="#63b8ff" d="M205.58,-169.6C258.73,-160.11 377.87,-138.82 439.05,-127.88"/>
<polygon fill="#63b8ff" stroke="#63b8ff" points="439.4,-131.38 448.63,-126.17 438.17,-124.49 439.4,-131.38"/>
</a>
</g>
</g>
<!-- Node13 -->
<g id="Node000013" class="node">
<title>Node13</title>
<g id="a_Node000013"><a xlink:href="_logging_8hpp.xhtml" target="_top" xlink:title=" ">
<polygon fill="white" stroke="#666666" points="136.12,-129.75 67.62,-129.75 67.62,-110.5 136.12,-110.5 136.12,-129.75"/>
<text text-anchor="middle" x="101.88" y="-116.25" font-family="Helvetica,sans-Serif" font-size="10.00">Logging.hpp</text>
</a>
</g>
</g>
<!-- Node5&#45;&gt;Node13 -->
<g id="edge14_Node000005_Node000013" class="edge">
<title>Node5&#45;&gt;Node13</title>
<g id="a_edge14_Node000005_Node000013"><a xlink:title=" ">
<path fill="none" stroke="#63b8ff" d="M165.81,-165.34C154.42,-157.46 137.65,-145.86 124.14,-136.52"/>
<polygon fill="#63b8ff" stroke="#63b8ff" points="126.46,-133.87 116.25,-131.06 122.48,-139.63 126.46,-133.87"/>
</a>
</g>
</g>
<!-- Node8&#45;&gt;Node9 -->
<g id="edge9_Node000008_Node000009" class="edge">
<title>Node8&#45;&gt;Node9</title>
<g id="a_edge9_Node000008_Node000009"><a xlink:title=" ">
<path fill="none" stroke="#63b8ff" d="M468.36,-110.25C457.01,-97.31 439.71,-72.9 451.88,-55.25 470.44,-28.31 507.61,-17.62 535.1,-13.39"/>
<polygon fill="#63b8ff" stroke="#63b8ff" points="535.24,-16.9 544.7,-12.14 534.33,-9.96 535.24,-16.9"/>
</a>
</g>
</g>
<!-- Node8&#45;&gt;Node10 -->
<g id="edge10_Node000008_Node000010" class="edge">
<title>Node8&#45;&gt;Node10</title>
<g id="a_edge10_Node000008_Node000010"><a xlink:title=" ">
<path fill="none" stroke="#63b8ff" d="M461.27,-110.09C447.26,-101.98 426.44,-89.93 410.07,-80.46"/>
<polygon fill="#63b8ff" stroke="#63b8ff" points="412.28,-77.69 401.87,-75.71 408.77,-83.75 412.28,-77.69"/>
</a>
</g>
</g>
<!-- Node11 -->
<g id="Node000011" class="node">
<title>Node11</title>
<g id="a_Node000011"><a xlink:title=" ">
<polygon fill="#e0e0e0" stroke="#999999" points="936.5,-74.5 891.25,-74.5 891.25,-55.25 936.5,-55.25 936.5,-74.5"/>
<text text-anchor="middle" x="913.88" y="-61" font-family="Helvetica,sans-Serif" font-size="10.00">chrono</text>
</a>
</g>
</g>
<!-- Node8&#45;&gt;Node11 -->
<g id="edge11_Node000008_Node000011" class="edge">
<title>Node8&#45;&gt;Node11</title>
<g id="a_edge11_Node000008_Node000011"><a xlink:title=" ">
<path fill="none" stroke="#63b8ff" d="M503.62,-117.6C567.19,-113.68 732.43,-101.73 879.87,-74.59"/>
<polygon fill="#63b8ff" stroke="#63b8ff" points="880.23,-78.08 889.41,-72.8 878.94,-71.2 880.23,-78.08"/>
</a>
</g>
</g>
<!-- Node12 -->
<g id="Node000012" class="node">
<title>Node12</title>
<g id="a_Node000012"><a xlink:href="_machine_i_d_8hpp.xhtml" target="_top" xlink:title=" ">
<polygon fill="white" stroke="#666666" points="541.12,-74.5 460.62,-74.5 460.62,-55.25 541.12,-55.25 541.12,-74.5"/>
<text text-anchor="middle" x="500.88" y="-61" font-family="Helvetica,sans-Serif" font-size="10.00">MachineID.hpp</text>
</a>
</g>
</g>
<!-- Node8&#45;&gt;Node12 -->
<g id="edge12_Node000008_Node000012" class="edge">
<title>Node8&#45;&gt;Node12</title>
<g id="a_edge12_Node000008_Node000012"><a xlink:title=" ">
<path fill="none" stroke="#63b8ff" d="M480.84,-110.33C483.91,-103.51 488.29,-93.81 492.16,-85.2"/>
<polygon fill="#63b8ff" stroke="#63b8ff" points="495.29,-86.79 496.2,-76.24 488.9,-83.92 495.29,-86.79"/>
</a>
</g>
</g>
<!-- Node12&#45;&gt;Node9 -->
<g id="edge13_Node000012_Node000009" class="edge">
<title>Node12&#45;&gt;Node9</title>
<g id="a_edge13_Node000012_Node000009"><a xlink:title=" ">
<path fill="none" stroke="#63b8ff" d="M512.41,-54.84C522.34,-47.07 536.89,-35.67 548.73,-26.4"/>
<polygon fill="#63b8ff" stroke="#63b8ff" points="550.6,-29.38 556.32,-20.46 546.29,-23.87 550.6,-29.38"/>
</a>
</g>
</g>
<!-- Node14 -->
<g id="Node000014" class="node">
<title>Node14</title>
<g id="a_Node000014"><a xlink:title=" ">
<polygon fill="#e0e0e0" stroke="#999999" points="130.5,-74.5 73.25,-74.5 73.25,-55.25 130.5,-55.25 130.5,-74.5"/>
<text text-anchor="middle" x="101.88" y="-61" font-family="Helvetica,sans-Serif" font-size="10.00">esp_log.h</text>
</a>
</g>
</g>
<!-- Node13&#45;&gt;Node14 -->
<g id="edge15_Node000013_Node000014" class="edge">
<title>Node13&#45;&gt;Node14</title>
<g id="a_edge15_Node000013_Node000014"><a xlink:title=" ">
<path fill="none" stroke="#63b8ff" d="M101.88,-110.33C101.88,-103.82 101.88,-94.67 101.88,-86.37"/>
<polygon fill="#63b8ff" stroke="#63b8ff" points="105.38,-86.37 101.88,-76.37 98.38,-86.37 105.38,-86.37"/>
</a>
</g>
</g>
<!-- Node16&#45;&gt;Node3 -->
<g id="edge22_Node000016_Node000003" class="edge">
<title>Node16&#45;&gt;Node3</title>
<g id="a_edge22_Node000016_Node000003"><a xlink:title=" ">
<path fill="none" stroke="#63b8ff" d="M468.68,-275.84C439.4,-267.08 394.75,-253.73 362.19,-243.98"/>
<polygon fill="#63b8ff" stroke="#63b8ff" points="363.25,-240.65 352.67,-241.14 361.25,-247.36 363.25,-240.65"/>
</a>
</g>
</g>
<!-- Node16&#45;&gt;Node9 -->
<g id="edge37_Node000016_Node000009" class="edge">
<title>Node16&#45;&gt;Node9</title>
<g id="a_edge37_Node000016_Node000009"><a xlink:title=" ">
<path fill="none" stroke="#63b8ff" d="M501.2,-275.75C511.11,-236.95 549.85,-85.15 563.82,-30.43"/>
<polygon fill="#63b8ff" stroke="#63b8ff" points="567.15,-31.53 566.23,-20.97 560.37,-29.8 567.15,-31.53"/>
</a>
</g>
</g>
<!-- Node16&#45;&gt;Node11 -->
<g id="edge36_Node000016_Node000011" class="edge">
<title>Node16&#45;&gt;Node11</title>
<g id="a_edge36_Node000016_Node000011"><a xlink:title=" ">
<path fill="none" stroke="#63b8ff" d="M517.36,-275.79C535.41,-266.87 563.63,-252.81 587.88,-240.25 699.81,-182.26 831.88,-110.61 887.3,-80.4"/>
<polygon fill="#63b8ff" stroke="#63b8ff" points="888.9,-83.51 896,-75.65 885.55,-77.36 888.9,-83.51"/>
</a>
</g>
</g>
<!-- Node16&#45;&gt;Node15 -->
<g id="edge35_Node000016_Node000015" class="edge">
<title>Node16&#45;&gt;Node15</title>
<g id="a_edge35_Node000016_Node000015"><a xlink:title=" ">
<path fill="none" stroke="#63b8ff" d="M534.72,-277.64C649.86,-254.33 1002.88,-182.37 1002.88,-176.38 1002.88,-176.38 1002.88,-176.38 1002.88,-119.12 1002.88,-86.13 987.03,-50.51 975.81,-29.41"/>
<polygon fill="#63b8ff" stroke="#63b8ff" points="978.97,-27.9 971.05,-20.86 972.85,-31.3 978.97,-27.9"/>
</a>
</g>
</g>
<!-- Node17 -->
<g id="Node000017" class="node">
<title>Node17</title>
<g id="a_Node000017"><a xlink:href="_machine_config_8hpp.xhtml" target="_top" xlink:title=" ">
<polygon fill="white" stroke="#666666" points="675.75,-185 578,-185 578,-165.75 675.75,-165.75 675.75,-185"/>
<text text-anchor="middle" x="626.88" y="-171.5" font-family="Helvetica,sans-Serif" font-size="10.00">MachineConfig.hpp</text>
</a>
</g>
</g>
<!-- Node16&#45;&gt;Node17 -->
<g id="edge23_Node000016_Node000017" class="edge">
<title>Node16&#45;&gt;Node17</title>
<g id="a_edge23_Node000016_Node000017"><a xlink:title=" ">
<path fill="none" stroke="#63b8ff" d="M513.65,-275.88C527.21,-267.36 547.61,-253.87 563.88,-240.25 581.34,-225.63 599.41,-206.87 611.7,-193.47"/>
<polygon fill="#63b8ff" stroke="#63b8ff" points="614.08,-196.05 618.18,-186.29 608.88,-191.36 614.08,-196.05"/>
</a>
</g>
</g>
<!-- Node17&#45;&gt;Node8 -->
<g id="edge34_Node000017_Node000008" class="edge">
<title>Node17&#45;&gt;Node8</title>
<g id="a_edge34_Node000017_Node000008"><a xlink:title=" ">
<path fill="none" stroke="#63b8ff" d="M601.43,-165.34C577.19,-156.74 540.44,-143.69 513.14,-134"/>
<polygon fill="#63b8ff" stroke="#63b8ff" points="514.47,-130.76 503.87,-130.71 512.12,-137.35 514.47,-130.76"/>
</a>
</g>
</g>
<!-- Node17&#45;&gt;Node9 -->
<g id="edge25_Node000017_Node000009" class="edge">
<title>Node17&#45;&gt;Node9</title>
<g id="a_edge25_Node000017_Node000009"><a xlink:title=" ">
<path fill="none" stroke="#63b8ff" d="M623.76,-165.57C614.71,-140.03 588.3,-65.45 575.7,-29.9"/>
<polygon fill="#63b8ff" stroke="#63b8ff" points="579.15,-29.16 572.51,-20.9 572.55,-31.49 579.15,-29.16"/>
</a>
</g>
</g>
<!-- Node17&#45;&gt;Node10 -->
<g id="edge26_Node000017_Node000010" class="edge">
<title>Node17&#45;&gt;Node10</title>
<g id="a_edge26_Node000017_Node000010"><a xlink:title=" ">
<path fill="none" stroke="#63b8ff" d="M577.88,-170.61C538.73,-165.78 483.69,-154.78 441.88,-129.75 422.99,-118.45 406.89,-98.85 396.66,-84.34"/>
<polygon fill="#63b8ff" stroke="#63b8ff" points="399.62,-82.47 391.14,-76.11 393.81,-86.37 399.62,-82.47"/>
</a>
</g>
</g>
<!-- Node17&#45;&gt;Node11 -->
<g id="edge24_Node000017_Node000011" class="edge">
<title>Node17&#45;&gt;Node11</title>
<g id="a_edge24_Node000017_Node000011"><a xlink:title=" ">
<path fill="none" stroke="#63b8ff" d="M650.85,-165.31C701.98,-145.98 821.84,-100.67 880.44,-78.52"/>
<polygon fill="#63b8ff" stroke="#63b8ff" points="881.44,-81.88 889.55,-75.07 878.96,-75.33 881.44,-81.88"/>
</a>
</g>
</g>
<!-- Node17&#45;&gt;Node12 -->
<g id="edge33_Node000017_Node000012" class="edge">
<title>Node17&#45;&gt;Node12</title>
<g id="a_edge33_Node000017_Node000012"><a xlink:title=" ">
<path fill="none" stroke="#63b8ff" d="M616.56,-165.5C595.43,-147.3 546.91,-105.52 519.9,-82.26"/>
<polygon fill="#63b8ff" stroke="#63b8ff" points="522.34,-79.74 512.48,-75.86 517.77,-85.04 522.34,-79.74"/>
</a>
</g>
</g>
<!-- Node18 -->
<g id="Node000018" class="node">
<title>Node18</title>
<g id="a_Node000018"><a xlink:href="pins_8hpp.xhtml" target="_top" xlink:title=" ">
<polygon fill="white" stroke="#666666" points="718.88,-129.75 666.88,-129.75 666.88,-110.5 718.88,-110.5 718.88,-129.75"/>
<text text-anchor="middle" x="692.88" y="-116.25" font-family="Helvetica,sans-Serif" font-size="10.00">pins.hpp</text>
</a>
</g>
</g>
<!-- Node17&#45;&gt;Node18 -->
<g id="edge27_Node000017_Node000018" class="edge">
<title>Node17&#45;&gt;Node18</title>
<g id="a_edge27_Node000017_Node000018"><a xlink:title=" ">
<path fill="none" stroke="#63b8ff" d="M638.07,-165.34C647.61,-157.65 661.55,-146.4 672.98,-137.18"/>
<polygon fill="#63b8ff" stroke="#63b8ff" points="675.08,-139.98 680.67,-130.98 670.69,-134.53 675.08,-139.98"/>
</a>
</g>
</g>
<!-- Node18&#45;&gt;Node9 -->
<g id="edge28_Node000018_Node000009" class="edge">
<title>Node18&#45;&gt;Node9</title>
<g id="a_edge28_Node000018_Node000009"><a xlink:title=" ">
<path fill="none" stroke="#63b8ff" d="M683.14,-110.4C669.34,-98.05 643.29,-74.81 620.88,-55.25 610.01,-45.77 597.77,-35.26 587.9,-26.82"/>
<polygon fill="#63b8ff" stroke="#63b8ff" points="590.31,-24.28 580.43,-20.45 585.76,-29.6 590.31,-24.28"/>
</a>
</g>
</g>
<!-- Node19 -->
<g id="Node000019" class="node">
<title>Node19</title>
<g id="a_Node000019"><a xlink:title=" ">
<polygon fill="#e0e0e0" stroke="#999999" points="774.62,-74.5 673.12,-74.5 673.12,-55.25 774.62,-55.25 774.62,-74.5"/>
<text text-anchor="middle" x="723.88" y="-61" font-family="Helvetica,sans-Serif" font-size="10.00">Adafruit_NeoPixel.h</text>
</a>
</g>
</g>
<!-- Node18&#45;&gt;Node19 -->
<g id="edge29_Node000018_Node000019" class="edge">
<title>Node18&#45;&gt;Node19</title>
<g id="a_edge29_Node000018_Node000019"><a xlink:title=" ">
<path fill="none" stroke="#63b8ff" d="M697.99,-110.33C702.05,-103.36 707.87,-93.37 712.96,-84.62"/>
<polygon fill="#63b8ff" stroke="#63b8ff" points="715.88,-86.57 717.88,-76.17 709.83,-83.05 715.88,-86.57"/>
</a>
</g>
</g>
<!-- Node20 -->
<g id="Node000020" class="node">
<title>Node20</title>
<g id="a_Node000020"><a xlink:href="_pins_config_8hpp.xhtml" target="_top" xlink:title=" ">
<polygon fill="white" stroke="#666666" points="873.12,-74.5 792.62,-74.5 792.62,-55.25 873.12,-55.25 873.12,-74.5"/>
<text text-anchor="middle" x="832.88" y="-61" font-family="Helvetica,sans-Serif" font-size="10.00">PinsConfig.hpp</text>
</a>
</g>
</g>
<!-- Node18&#45;&gt;Node20 -->
<g id="edge30_Node000018_Node000020" class="edge">
<title>Node18&#45;&gt;Node20</title>
<g id="a_edge30_Node000018_Node000020"><a xlink:title=" ">
<path fill="none" stroke="#63b8ff" d="M716.62,-110.09C739.05,-101.56 772.94,-88.67 798.35,-79.01"/>
<polygon fill="#63b8ff" stroke="#63b8ff" points="799.49,-82.32 807.59,-75.49 797,-75.77 799.49,-82.32"/>
</a>
</g>
</g>
<!-- Node20&#45;&gt;Node9 -->
<g id="edge31_Node000020_Node000009" class="edge">
<title>Node20&#45;&gt;Node9</title>
<g id="a_edge31_Node000020_Node000009"><a xlink:title=" ">
<path fill="none" stroke="#63b8ff" d="M792.2,-55.67C740.36,-45.21 651.65,-27.32 603.1,-17.53"/>
<polygon fill="#63b8ff" stroke="#63b8ff" points="603.93,-14.13 593.44,-15.58 602.55,-20.99 603.93,-14.13"/>
</a>
</g>
</g>
<!-- Node20&#45;&gt;Node15 -->
<g id="edge32_Node000020_Node000015" class="edge">
<title>Node20&#45;&gt;Node15</title>
<g id="a_edge32_Node000020_Node000015"><a xlink:title=" ">
<path fill="none" stroke="#63b8ff" d="M855.27,-54.84C877.46,-45.89 911.57,-32.13 935.84,-22.34"/>
<polygon fill="#63b8ff" stroke="#63b8ff" points="936.85,-25.7 944.82,-18.72 934.23,-19.21 936.85,-25.7"/>
</a>
</g>
</g>
</g>
</svg>
