<?xml version="1.0" encoding="UTF-8" standalone="no"?>
<!DOCTYPE svg PUBLIC "-//W3C//DTD SVG 1.1//EN"
 "http://www.w3.org/Graphics/SVG/1.1/DTD/svg11.dtd">
<!-- Generated by graphviz version 9.0.0 (20230911.1827)
 -->
<!-- Title: Machine.hpp Pages: 1 -->
<!--zoomable 414 -->

<svg id="main" version="1.1" xmlns="http://www.w3.org/2000/svg" xmlns:xlink="http://www.w3.org/1999/xlink" xml:space="preserve" onload="init(evt)">
<style type="text/css"><![CDATA[
.node, .edge {opacity: 0.7;}
.node.selected, .edge.selected {opacity: 1;}
.edge:hover path { stroke: red; }
.edge:hover polygon { stroke: red; fill: red; }
]]></style>

<defs>
  <circle id="rim" cx="0" cy="0" r="7"/>
  <circle id="rim2" cx="0" cy="0" r="3.5"/>
  <g id="zoomPlus">
    <use xlink:href="#rim" fill="#404040"><set attributeName="fill" to="#808080" begin="zoomplus.mouseover" end="zoomplus.mouseout"/></use>
    <path d="M-4,0h8M0,-4v8" fill="none" stroke="white" stroke-width="1.5" pointer-events="none"/>
  </g>
  <g id="zoomMin">
    <use xlink:href="#rim" fill="#404040"><set attributeName="fill" to="#808080" begin="zoomminus.mouseover" end="zoomminus.mouseout"/></use>
    <path d="M-4,0h8" fill="none" stroke="white" stroke-width="1.5" pointer-events="none"/>
  </g>
  <g id="arrowUp" transform="translate(30 24)">
    <use xlink:href="#rim"/>
    <path pointer-events="none" fill="none" stroke="white" stroke-width="1.5" d="M0,-3.0v7 M-2.5,-0.5L0,-3.0L2.5,-0.5"/>
  </g>
  <g id="arrowRight" transform="rotate(90) translate(36 -43)">
    <use xlink:href="#rim"/>
    <path pointer-events="none" fill="none" stroke="white" stroke-width="1.5" d="M0,-3.0v7 M-2.5,-0.5L0,-3.0L2.5,-0.5"/>
  </g>
  <g id="arrowDown" transform="rotate(180) translate(-30 -48)">
    <use xlink:href="#rim"/>
    <path pointer-events="none" fill="none" stroke="white" stroke-width="1.5" d="M0,-3.0v7 M-2.5,-0.5L0,-3.0L2.5,-0.5"/>
  </g>
  <g id="arrowLeft" transform="rotate(270) translate(-36 17)">
    <use xlink:href="#rim"/>
    <path pointer-events="none" fill="none" stroke="white" stroke-width="1.5" d="M0,-3.0v7 M-2.5,-0.5L0,-3.0L2.5,-0.5"/>
  </g>
  <g id="resetDef">
    <use xlink:href="#rim2" fill="#404040"><set attributeName="fill" to="#808080" begin="reset.mouseover" end="reset.mouseout"/></use>
  </g>
</defs>
<script type="application/ecmascript">
var viewWidth = 1376;
var viewHeight = 414;
var sectionId = 'dynsection-1';
</script>
<script type="application/ecmascript" xlink:href="svg.min.js"/>
<svg id="graph" class="graph">
<g id="viewport">
<title>Machine.hpp</title>
<!-- Node1 -->
<g id="Node000001" class="node">
<title>Node1</title>
<g id="a_Node000001"><a xlink:title=" ">
<polygon fill="#999999" stroke="#666666" points="608.03,-406 537.28,-406 537.28,-386.75 608.03,-386.75 608.03,-406"/>
<text text-anchor="middle" x="572.66" y="-392.5" font-family="Helvetica,sans-Serif" font-size="10.00">Machine.hpp</text>
</a>
</g>
</g>
<!-- Node2 -->
<g id="Node000002" class="node">
<title>Node2</title>
<g id="a_Node000002"><a xlink:href="_board_info_8hpp.xhtml" target="_top" xlink:title=" ">
<polygon fill="white" stroke="#666666" points="137.66,-350.75 61.66,-350.75 61.66,-331.5 137.66,-331.5 137.66,-350.75"/>
<text text-anchor="middle" x="99.66" y="-337.25" font-family="Helvetica,sans-Serif" font-size="10.00">BoardInfo.hpp</text>
</a>
</g>
</g>
<!-- Node1&#45;&gt;Node2 -->
<g id="edge1_Node000001_Node000002" class="edge">
<title>Node1&#45;&gt;Node2</title>
<g id="a_edge1_Node000001_Node000002"><a xlink:title=" ">
<path fill="none" stroke="#63b8ff" d="M525.7,-391.18C448.12,-384.07 288.33,-368.66 153.66,-350.75 148.57,-350.07 143.23,-349.3 137.97,-348.5"/>
<polygon fill="#63b8ff" stroke="#63b8ff" points="525.2,-394.65 535.48,-392.07 525.84,-387.68 525.2,-394.65"/>
</a>
</g>
</g>
<!-- Node3 -->
<g id="Node000003" class="node">
<title>Node3</title>
<g id="a_Node000003"><a xlink:href="_l_c_d_wrapper_8hpp.xhtml" target="_top" xlink:title=" ">
<polygon fill="white" stroke="#666666" points="121.41,-185 31.91,-185 31.91,-165.75 121.41,-165.75 121.41,-185"/>
<text text-anchor="middle" x="76.66" y="-171.5" font-family="Helvetica,sans-Serif" font-size="10.00">LCDWrapper.hpp</text>
</a>
</g>
</g>
<!-- Node1&#45;&gt;Node3 -->
<g id="edge23_Node000001_Node000003" class="edge">
<title>Node1&#45;&gt;Node3</title>
<g id="a_edge23_Node000001_Node000003"><a xlink:title=" ">
<path fill="none" stroke="#63b8ff" d="M525.64,-394.71C436.62,-392.66 247.45,-384.37 192.66,-350.75 158.88,-330.02 98.51,-218.15 81.33,-185.39"/>
<polygon fill="#63b8ff" stroke="#63b8ff" points="525.42,-398.2 535.49,-394.91 525.57,-391.2 525.42,-398.2"/>
</a>
</g>
</g>
<!-- Node4 -->
<g id="Node000004" class="node">
<title>Node4</title>
<g id="a_Node000004"><a xlink:href="_board_logic_8hpp.xhtml" target="_top" xlink:title=" ">
<polygon fill="white" stroke="#666666" points="508.41,-129.75 424.91,-129.75 424.91,-110.5 508.41,-110.5 508.41,-129.75"/>
<text text-anchor="middle" x="466.66" y="-116.25" font-family="Helvetica,sans-Serif" font-size="10.00">BoardLogic.hpp</text>
</a>
</g>
</g>
<!-- Node1&#45;&gt;Node4 -->
<g id="edge22_Node000001_Node000004" class="edge">
<title>Node1&#45;&gt;Node4</title>
<g id="a_edge22_Node000001_Node000004"><a xlink:title=" ">
<path fill="none" stroke="#63b8ff" d="M525.46,-391.36C426.56,-381.64 206.66,-352.63 206.66,-286.88 206.66,-286.88 206.66,-286.88 206.66,-229.62 206.66,-136.33 351.01,-121.83 424.59,-120.49"/>
<polygon fill="#63b8ff" stroke="#63b8ff" points="525.1,-394.84 535.39,-392.31 525.77,-387.87 525.1,-394.84"/>
</a>
</g>
</g>
<!-- Node5 -->
<g id="Node000005" class="node">
<title>Node5</title>
<g id="a_Node000005"><a xlink:href="_board_logic_8cpp.xhtml" target="_top" xlink:title=" ">
<polygon fill="white" stroke="#666666" points="1188.41,-74.5 1104.91,-74.5 1104.91,-55.25 1188.41,-55.25 1188.41,-74.5"/>
<text text-anchor="middle" x="1146.66" y="-61" font-family="Helvetica,sans-Serif" font-size="10.00">BoardLogic.cpp</text>
</a>
</g>
</g>
<!-- Node1&#45;&gt;Node5 -->
<g id="edge21_Node000001_Node000005" class="edge">
<title>Node1&#45;&gt;Node5</title>
<g id="a_edge21_Node000001_Node000005"><a xlink:title=" ">
<path fill="none" stroke="#63b8ff" d="M619.79,-394.99C753.73,-393.46 1134.56,-386.04 1253.66,-350.75 1309.34,-334.25 1367.66,-344.95 1367.66,-286.88 1367.66,-286.88 1367.66,-286.88 1367.66,-174.38 1367.66,-95.51 1252.87,-73.97 1188.74,-68.08"/>
<polygon fill="#63b8ff" stroke="#63b8ff" points="619.83,-391.49 609.87,-395.09 619.9,-398.49 619.83,-391.49"/>
</a>
</g>
</g>
<!-- Node7 -->
<g id="Node000007" class="node">
<title>Node7</title>
<g id="a_Node000007"><a xlink:href="globals_8hpp.xhtml" target="_top" xlink:title=" ">
<polygon fill="white" stroke="#666666" points="906.03,-74.5 841.28,-74.5 841.28,-55.25 906.03,-55.25 906.03,-74.5"/>
<text text-anchor="middle" x="873.66" y="-61" font-family="Helvetica,sans-Serif" font-size="10.00">globals.hpp</text>
</a>
</g>
</g>
<!-- Node1&#45;&gt;Node7 -->
<g id="edge51_Node000001_Node000007" class="edge">
<title>Node1&#45;&gt;Node7</title>
<g id="a_edge51_Node000001_Node000007"><a xlink:title=" ">
<path fill="none" stroke="#63b8ff" d="M619.43,-393.8C741.67,-389.38 1068.46,-375.53 1173.66,-350.75 1246.58,-333.57 1329.66,-361.8 1329.66,-286.88 1329.66,-286.88 1329.66,-286.88 1329.66,-174.38 1329.66,-136.33 1306.46,-127.96 1272.66,-110.5 1208.95,-77.59 989.91,-68.76 906.38,-66.55"/>
<polygon fill="#63b8ff" stroke="#63b8ff" points="619.64,-390.29 609.77,-394.14 619.88,-397.28 619.64,-390.29"/>
</a>
</g>
</g>
<!-- Node15 -->
<g id="Node000015" class="node">
<title>Node15</title>
<g id="a_Node000015"><a xlink:href="_m_q_t_ttypes_8hpp.xhtml" target="_top" xlink:title=" ">
<polygon fill="white" stroke="#666666" points="527.16,-350.75 442.16,-350.75 442.16,-331.5 527.16,-331.5 527.16,-350.75"/>
<text text-anchor="middle" x="484.66" y="-337.25" font-family="Helvetica,sans-Serif" font-size="10.00">MQTTtypes.hpp</text>
</a>
</g>
</g>
<!-- Node1&#45;&gt;Node15 -->
<g id="edge24_Node000001_Node000015" class="edge">
<title>Node1&#45;&gt;Node15</title>
<g id="a_edge24_Node000001_Node000015"><a xlink:title=" ">
<path fill="none" stroke="#63b8ff" d="M548.2,-380.57C532.62,-371.15 512.96,-359.25 499.66,-351.2"/>
<polygon fill="#63b8ff" stroke="#63b8ff" points="546.07,-383.38 556.43,-385.56 549.69,-377.39 546.07,-383.38"/>
</a>
</g>
</g>
<!-- Node21 -->
<g id="Node000021" class="node">
<title>Node21</title>
<g id="a_Node000021"><a xlink:href="_machine_8cpp.xhtml" target="_top" xlink:title=" ">
<polygon fill="white" stroke="#666666" points="1264.03,-129.75 1193.28,-129.75 1193.28,-110.5 1264.03,-110.5 1264.03,-129.75"/>
<text text-anchor="middle" x="1228.66" y="-116.25" font-family="Helvetica,sans-Serif" font-size="10.00">Machine.cpp</text>
</a>
</g>
</g>
<!-- Node1&#45;&gt;Node21 -->
<g id="edge50_Node000001_Node000021" class="edge">
<title>Node1&#45;&gt;Node21</title>
<g id="a_edge50_Node000001_Node000021"><a xlink:title=" ">
<path fill="none" stroke="#63b8ff" d="M619.63,-393.26C779.35,-385.45 1291.66,-355.07 1291.66,-286.88 1291.66,-286.88 1291.66,-286.88 1291.66,-229.62 1291.66,-187.8 1256.22,-147.68 1238.5,-130.24"/>
<polygon fill="#63b8ff" stroke="#63b8ff" points="619.64,-389.75 609.82,-393.73 619.98,-396.75 619.64,-389.75"/>
</a>
</g>
</g>
<!-- Node25 -->
<g id="Node000025" class="node">
<title>Node25</title>
<g id="a_Node000025"><a xlink:href="secrets_8hpp.xhtml" target="_top" xlink:title=" ">
<polygon fill="white" stroke="#666666" points="975.78,-240.25 909.53,-240.25 909.53,-221 975.78,-221 975.78,-240.25"/>
<text text-anchor="middle" x="942.66" y="-226.75" font-family="Helvetica,sans-Serif" font-size="10.00">secrets.hpp</text>
</a>
</g>
</g>
<!-- Node1&#45;&gt;Node25 -->
<g id="edge52_Node000001_Node000025" class="edge">
<title>Node1&#45;&gt;Node25</title>
<g id="a_edge52_Node000001_Node000025"><a xlink:title=" ">
<path fill="none" stroke="#63b8ff" d="M603.49,-381.73C676.97,-349.21 860.85,-267.83 922.3,-240.63"/>
<polygon fill="#63b8ff" stroke="#63b8ff" points="602.19,-378.48 594.46,-385.73 605.02,-384.88 602.19,-378.48"/>
</a>
</g>
</g>
<!-- Node2&#45;&gt;Node3 -->
<g id="edge2_Node000002_Node000003" class="edge">
<title>Node2&#45;&gt;Node3</title>
<g id="a_edge2_Node000002_Node000003"><a xlink:title=" ">
<path fill="none" stroke="#63b8ff" d="M96.83,-319.97C91.79,-284.11 81.46,-210.6 77.9,-185.22"/>
<polygon fill="#63b8ff" stroke="#63b8ff" points="93.35,-320.41 98.21,-329.82 100.28,-319.43 93.35,-320.41"/>
</a>
</g>
</g>
<!-- Node3&#45;&gt;Node4 -->
<g id="edge3_Node000003_Node000004" class="edge">
<title>Node3&#45;&gt;Node4</title>
<g id="a_edge3_Node000003_Node000004"><a xlink:title=" ">
<path fill="none" stroke="#63b8ff" d="M132.97,-166.69C212.02,-155.89 354.1,-136.49 424.61,-126.87"/>
<polygon fill="#63b8ff" stroke="#63b8ff" points="132.71,-163.19 123.27,-168.01 133.66,-170.12 132.71,-163.19"/>
</a>
</g>
</g>
<!-- Node3&#45;&gt;Node7 -->
<g id="edge18_Node000003_Node000007" class="edge">
<title>Node3&#45;&gt;Node7</title>
<g id="a_edge18_Node000003_Node000007"><a xlink:title=" ">
<path fill="none" stroke="#63b8ff" d="M133,-171.65C235.32,-166.22 447.54,-152.55 517.66,-129.75 533.8,-124.5 534.59,-116 550.66,-110.5 665.6,-71.12 701.49,-92.44 821.66,-74.5 827.9,-73.57 834.56,-72.51 840.95,-71.47"/>
<polygon fill="#63b8ff" stroke="#63b8ff" points="132.99,-168.15 123.19,-172.17 133.36,-175.14 132.99,-168.15"/>
</a>
</g>
</g>
<!-- Node11 -->
<g id="Node000011" class="node">
<title>Node11</title>
<g id="a_Node000011"><a xlink:href="test__logic_8cpp.xhtml" target="_top" xlink:title=" ">
<polygon fill="white" stroke="#666666" points="286.66,-19.25 210.66,-19.25 210.66,0 286.66,0 286.66,-19.25"/>
<text text-anchor="middle" x="248.66" y="-5.75" font-family="Helvetica,sans-Serif" font-size="10.00">test_logic.cpp</text>
</a>
</g>
</g>
<!-- Node3&#45;&gt;Node11 -->
<g id="edge19_Node000003_Node000011" class="edge">
<title>Node3&#45;&gt;Node11</title>
<g id="a_edge19_Node000003_Node000011"><a xlink:title=" ">
<path fill="none" stroke="#63b8ff" d="M41.09,-160.92C16.56,-149.44 -9.45,-131.5 3.66,-110.5 47.92,-39.58 153.08,-19.02 210.17,-13.06"/>
<polygon fill="#63b8ff" stroke="#63b8ff" points="39.45,-164.02 50.01,-164.82 42.25,-157.6 39.45,-164.02"/>
</a>
</g>
</g>
<!-- Node12 -->
<g id="Node000012" class="node">
<title>Node12</title>
<g id="a_Node000012"><a xlink:href="test__mqtt_8cpp.xhtml" target="_top" xlink:title=" ">
<polygon fill="white" stroke="#666666" points="380.28,-19.25 305.03,-19.25 305.03,0 380.28,0 380.28,-19.25"/>
<text text-anchor="middle" x="342.66" y="-5.75" font-family="Helvetica,sans-Serif" font-size="10.00">test_mqtt.cpp</text>
</a>
</g>
</g>
<!-- Node3&#45;&gt;Node12 -->
<g id="edge20_Node000003_Node000012" class="edge">
<title>Node3&#45;&gt;Node12</title>
<g id="a_edge20_Node000003_Node000012"><a xlink:title=" ">
<path fill="none" stroke="#63b8ff" d="M91.7,-156.88C117.44,-127.32 169.36,-69.34 192.66,-55.25 211.55,-43.83 266.89,-28.92 304.8,-19.56"/>
<polygon fill="#63b8ff" stroke="#63b8ff" points="89.23,-154.39 85.33,-164.24 94.52,-158.97 89.23,-154.39"/>
</a>
</g>
</g>
<!-- Node14 -->
<g id="Node000014" class="node">
<title>Node14</title>
<g id="a_Node000014"><a xlink:href="_l_c_d_wrapper_8cpp.xhtml" target="_top" xlink:title=" ">
<polygon fill="white" stroke="#666666" points="102.41,-129.75 12.91,-129.75 12.91,-110.5 102.41,-110.5 102.41,-129.75"/>
<text text-anchor="middle" x="57.66" y="-116.25" font-family="Helvetica,sans-Serif" font-size="10.00">LCDWrapper.cpp</text>
</a>
</g>
</g>
<!-- Node3&#45;&gt;Node14 -->
<g id="edge17_Node000003_Node000014" class="edge">
<title>Node3&#45;&gt;Node14</title>
<g id="a_edge17_Node000003_Node000014"><a xlink:title=" ">
<path fill="none" stroke="#63b8ff" d="M69.74,-155C66.71,-146.49 63.29,-136.9 60.86,-130.11"/>
<polygon fill="#63b8ff" stroke="#63b8ff" points="66.35,-155.91 73.01,-164.16 72.95,-153.56 66.35,-155.91"/>
</a>
</g>
</g>
<!-- Node4&#45;&gt;Node5 -->
<g id="edge4_Node000004_Node000005" class="edge">
<title>Node4&#45;&gt;Node5</title>
<g id="a_edge4_Node000004_Node000005"><a xlink:title=" ">
<path fill="none" stroke="#63b8ff" d="M519.96,-114.95C650.87,-104.7 986.1,-78.45 1104.48,-69.18"/>
<polygon fill="#63b8ff" stroke="#63b8ff" points="519.89,-111.45 510.19,-115.72 520.43,-118.42 519.89,-111.45"/>
</a>
</g>
</g>
<!-- Node6 -->
<g id="Node000006" class="node">
<title>Node6</title>
<g id="a_Node000006"><a xlink:href="_o_t_a_8cpp.xhtml" target="_top" xlink:title=" ">
<polygon fill="white" stroke="#666666" points="812.78,-74.5 758.53,-74.5 758.53,-55.25 812.78,-55.25 812.78,-74.5"/>
<text text-anchor="middle" x="785.66" y="-61" font-family="Helvetica,sans-Serif" font-size="10.00">OTA.cpp</text>
</a>
</g>
</g>
<!-- Node4&#45;&gt;Node6 -->
<g id="edge5_Node000004_Node000006" class="edge">
<title>Node4&#45;&gt;Node6</title>
<g id="a_edge5_Node000004_Node000006"><a xlink:title=" ">
<path fill="none" stroke="#63b8ff" d="M519.67,-110.28C588.22,-98.83 705.08,-79.33 758.07,-70.48"/>
<polygon fill="#63b8ff" stroke="#63b8ff" points="519.47,-106.76 510.18,-111.86 520.62,-113.67 519.47,-106.76"/>
</a>
</g>
</g>
<!-- Node4&#45;&gt;Node7 -->
<g id="edge6_Node000004_Node000007" class="edge">
<title>Node4&#45;&gt;Node7</title>
<g id="a_edge6_Node000004_Node000007"><a xlink:title=" ">
<path fill="none" stroke="#63b8ff" d="M520.12,-110.85C520.97,-110.73 521.82,-110.62 522.66,-110.5 655.26,-92.31 689.16,-93.46 821.66,-74.5 827.91,-73.61 834.57,-72.57 840.96,-71.53"/>
<polygon fill="#63b8ff" stroke="#63b8ff" points="519.73,-107.37 510.33,-112.26 520.73,-114.3 519.73,-107.37"/>
</a>
</g>
</g>
<!-- Node8 -->
<g id="Node000008" class="node">
<title>Node8</title>
<g id="a_Node000008"><a xlink:href="main_8cpp.xhtml" target="_top" xlink:title=" ">
<polygon fill="white" stroke="#666666" points="939.16,-19.25 884.16,-19.25 884.16,0 939.16,0 939.16,-19.25"/>
<text text-anchor="middle" x="911.66" y="-5.75" font-family="Helvetica,sans-Serif" font-size="10.00">main.cpp</text>
</a>
</g>
</g>
<!-- Node4&#45;&gt;Node8 -->
<g id="edge8_Node000004_Node000008" class="edge">
<title>Node4&#45;&gt;Node8</title>
<g id="a_edge8_Node000004_Node000008"><a xlink:title=" ">
<path fill="none" stroke="#63b8ff" d="M515.64,-107.37C552.94,-98.4 605.55,-85.73 651.66,-74.5 736.34,-53.89 836.45,-29.2 883.96,-17.47"/>
<polygon fill="#63b8ff" stroke="#63b8ff" points="514.96,-103.93 506.05,-109.67 516.59,-110.74 514.96,-103.93"/>
</a>
</g>
</g>
<!-- Node9 -->
<g id="Node000009" class="node">
<title>Node9</title>
<g id="a_Node000009"><a xlink:href="test__common_8cpp.xhtml" target="_top" xlink:title=" ">
<polygon fill="white" stroke="#666666" points="666.28,-19.25 573.03,-19.25 573.03,0 666.28,0 666.28,-19.25"/>
<text text-anchor="middle" x="619.66" y="-5.75" font-family="Helvetica,sans-Serif" font-size="10.00">test_common.cpp</text>
</a>
</g>
</g>
<!-- Node4&#45;&gt;Node9 -->
<g id="edge9_Node000004_Node000009" class="edge">
<title>Node4&#45;&gt;Node9</title>
<g id="a_edge9_Node000004_Node000009"><a xlink:title=" ">
<path fill="none" stroke="#63b8ff" d="M520.04,-108.42C566.8,-98.51 628.41,-83.91 635.66,-74.5 648.35,-58.02 634.91,-32.69 626.08,-19.42"/>
<polygon fill="#63b8ff" stroke="#63b8ff" points="519.36,-104.99 510.3,-110.46 520.8,-111.84 519.36,-104.99"/>
</a>
</g>
</g>
<!-- Node10 -->
<g id="Node000010" class="node">
<title>Node10</title>
<g id="a_Node000010"><a xlink:href="test__common_8h.xhtml" target="_top" xlink:title=" ">
<polygon fill="white" stroke="#666666" points="627.03,-74.5 544.28,-74.5 544.28,-55.25 627.03,-55.25 627.03,-74.5"/>
<text text-anchor="middle" x="585.66" y="-61" font-family="Helvetica,sans-Serif" font-size="10.00">test_common.h</text>
</a>
</g>
</g>
<!-- Node4&#45;&gt;Node10 -->
<g id="edge10_Node000004_Node000010" class="edge">
<title>Node4&#45;&gt;Node10</title>
<g id="a_edge10_Node000004_Node000010"><a xlink:title=" ">
<path fill="none" stroke="#63b8ff" d="M497.06,-105.52C518.5,-95.93 546.62,-83.34 565.37,-74.95"/>
<polygon fill="#63b8ff" stroke="#63b8ff" points="495.92,-102.19 488.22,-109.47 498.78,-108.58 495.92,-102.19"/>
</a>
</g>
</g>
<!-- Node4&#45;&gt;Node11 -->
<g id="edge14_Node000004_Node000011" class="edge">
<title>Node4&#45;&gt;Node11</title>
<g id="a_edge14_Node000004_Node000011"><a xlink:title=" ">
<path fill="none" stroke="#63b8ff" d="M470.08,-99.06C471.26,-85.07 470.2,-66.9 459.66,-55.25 456.73,-52.02 346.67,-29.93 286.7,-18.09"/>
<polygon fill="#63b8ff" stroke="#63b8ff" points="466.62,-98.55 468.77,-108.92 473.56,-99.47 466.62,-98.55"/>
</a>
</g>
</g>
<!-- Node4&#45;&gt;Node12 -->
<g id="edge15_Node000004_Node000012" class="edge">
<title>Node4&#45;&gt;Node12</title>
<g id="a_edge15_Node000004_Node000012"><a xlink:title=" ">
<path fill="none" stroke="#63b8ff" d="M482.67,-101.71C493.15,-88.13 503.12,-69.29 492.66,-55.25 466.99,-20.84 415.87,-11.91 380.49,-10.11"/>
<polygon fill="#63b8ff" stroke="#63b8ff" points="480.31,-99.08 476.55,-108.99 485.66,-103.58 480.31,-99.08"/>
</a>
</g>
</g>
<!-- Node13 -->
<g id="Node000013" class="node">
<title>Node13</title>
<g id="a_Node000013"><a xlink:href="test__savedconfig_8cpp.xhtml" target="_top" xlink:title=" ">
<polygon fill="white" stroke="#666666" points="450.41,-74.5 342.91,-74.5 342.91,-55.25 450.41,-55.25 450.41,-74.5"/>
<text text-anchor="middle" x="396.66" y="-61" font-family="Helvetica,sans-Serif" font-size="10.00">test_savedconfig.cpp</text>
</a>
</g>
</g>
<!-- Node4&#45;&gt;Node13 -->
<g id="edge16_Node000004_Node000013" class="edge">
<title>Node4&#45;&gt;Node13</title>
<g id="a_edge16_Node000004_Node000013"><a xlink:title=" ">
<path fill="none" stroke="#63b8ff" d="M445.71,-103.19C433.49,-93.89 418.52,-82.51 408.36,-74.77"/>
<polygon fill="#63b8ff" stroke="#63b8ff" points="443.5,-105.91 453.58,-109.18 447.74,-100.34 443.5,-105.91"/>
</a>
</g>
</g>
<!-- Node7&#45;&gt;Node8 -->
<g id="edge7_Node000007_Node000008" class="edge">
<title>Node7&#45;&gt;Node8</title>
<g id="a_edge7_Node000007_Node000008"><a xlink:title=" ">
<path fill="none" stroke="#63b8ff" d="M886.46,-45.94C892.77,-37.09 900.12,-26.79 905.24,-19.61"/>
<polygon fill="#63b8ff" stroke="#63b8ff" points="883.77,-43.68 880.81,-53.85 889.47,-47.74 883.77,-43.68"/>
</a>
</g>
</g>
<!-- Node10&#45;&gt;Node9 -->
<g id="edge11_Node000010_Node000009" class="edge">
<title>Node10&#45;&gt;Node9</title>
<g id="a_edge11_Node000010_Node000009"><a xlink:title=" ">
<path fill="none" stroke="#63b8ff" d="M597.29,-45.65C602.9,-36.86 609.38,-26.71 613.92,-19.61"/>
<polygon fill="#63b8ff" stroke="#63b8ff" points="594.52,-43.49 592.09,-53.81 600.42,-47.26 594.52,-43.49"/>
</a>
</g>
</g>
<!-- Node10&#45;&gt;Node11 -->
<g id="edge12_Node000010_Node000011" class="edge">
<title>Node10&#45;&gt;Node11</title>
<g id="a_edge12_Node000010_Node000011"><a xlink:title=" ">
<path fill="none" stroke="#63b8ff" d="M532.7,-56.19C474.5,-47.64 378.3,-33.19 295.66,-19.25 292.87,-18.78 290,-18.28 287.11,-17.78"/>
<polygon fill="#63b8ff" stroke="#63b8ff" points="531.91,-59.62 542.32,-57.6 532.93,-52.69 531.91,-59.62"/>
</a>
</g>
</g>
<!-- Node10&#45;&gt;Node12 -->
<g id="edge13_Node000010_Node000012" class="edge">
<title>Node10&#45;&gt;Node12</title>
<g id="a_edge13_Node000010_Node000012"><a xlink:title=" ">
<path fill="none" stroke="#63b8ff" d="M532.95,-52.32C487.09,-42.28 421.73,-27.95 380.78,-18.98"/>
<polygon fill="#63b8ff" stroke="#63b8ff" points="532.16,-55.74 542.68,-54.46 533.66,-48.9 532.16,-55.74"/>
</a>
</g>
</g>
<!-- Node16 -->
<g id="Node000016" class="node">
<title>Node16</title>
<g id="a_Node000016"><a xlink:href="_buffered_msg_8hpp.xhtml" target="_top" xlink:title=" ">
<polygon fill="white" stroke="#666666" points="477.03,-295.5 388.28,-295.5 388.28,-276.25 477.03,-276.25 477.03,-295.5"/>
<text text-anchor="middle" x="432.66" y="-282" font-family="Helvetica,sans-Serif" font-size="10.00">BufferedMsg.hpp</text>
</a>
</g>
</g>
<!-- Node15&#45;&gt;Node16 -->
<g id="edge25_Node000015_Node000016" class="edge">
<title>Node15&#45;&gt;Node16</title>
<g id="a_edge25_Node000015_Node000016"><a xlink:title=" ">
<path fill="none" stroke="#63b8ff" d="M468.25,-323.32C459.37,-314.23 448.74,-303.35 441.43,-295.86"/>
<polygon fill="#63b8ff" stroke="#63b8ff" points="465.52,-325.54 475.01,-330.25 470.53,-320.65 465.52,-325.54"/>
</a>
</g>
</g>
<!-- Node18 -->
<g id="Node000018" class="node">
<title>Node18</title>
<g id="a_Node000018"><a xlink:href="_fab_backend_8hpp.xhtml" target="_top" xlink:title=" ">
<polygon fill="white" stroke="#666666" points="529.03,-185 440.28,-185 440.28,-165.75 529.03,-165.75 529.03,-185"/>
<text text-anchor="middle" x="484.66" y="-171.5" font-family="Helvetica,sans-Serif" font-size="10.00">FabBackend.hpp</text>
</a>
</g>
</g>
<!-- Node15&#45;&gt;Node18 -->
<g id="edge48_Node000015_Node000018" class="edge">
<title>Node15&#45;&gt;Node18</title>
<g id="a_edge48_Node000015_Node000018"><a xlink:title=" ">
<path fill="none" stroke="#63b8ff" d="M430.82,-330.2C411.32,-323.72 391.27,-313.05 379.66,-295.5 363.51,-271.1 396.92,-232.36 407.66,-221 422.83,-204.94 445.08,-192.9 461.76,-185.4"/>
<polygon fill="#63b8ff" stroke="#63b8ff" points="429.81,-333.55 440.4,-333.03 431.8,-326.84 429.81,-333.55"/>
</a>
</g>
</g>
<!-- Node24 -->
<g id="Node000024" class="node">
<title>Node24</title>
<g id="a_Node000024"><a xlink:href="_m_q_t_ttypes_8cpp.xhtml" target="_top" xlink:title=" ">
<polygon fill="white" stroke="#666666" points="580.16,-295.5 495.16,-295.5 495.16,-276.25 580.16,-276.25 580.16,-295.5"/>
<text text-anchor="middle" x="537.66" y="-282" font-family="Helvetica,sans-Serif" font-size="10.00">MQTTtypes.cpp</text>
</a>
</g>
</g>
<!-- Node15&#45;&gt;Node24 -->
<g id="edge49_Node000015_Node000024" class="edge">
<title>Node15&#45;&gt;Node24</title>
<g id="a_edge49_Node000015_Node000024"><a xlink:title=" ">
<path fill="none" stroke="#63b8ff" d="M501.38,-323.32C510.43,-314.23 521.26,-303.35 528.71,-295.86"/>
<polygon fill="#63b8ff" stroke="#63b8ff" points="499.05,-320.7 494.48,-330.26 504.01,-325.64 499.05,-320.7"/>
</a>
</g>
</g>
<!-- Node16&#45;&gt;Node13 -->
<g id="edge47_Node000016_Node000013" class="edge">
<title>Node16&#45;&gt;Node13</title>
<g id="a_edge47_Node000016_Node000013"><a xlink:title=" ">
<path fill="none" stroke="#63b8ff" d="M420.04,-266.07C415.44,-258.37 410.64,-249.18 407.66,-240.25 389.24,-185.2 390.06,-168.49 392.66,-110.5 393.21,-98.07 394.64,-83.74 395.63,-74.75"/>
<polygon fill="#63b8ff" stroke="#63b8ff" points="417.08,-267.93 425.39,-274.5 422.99,-264.18 417.08,-267.93"/>
</a>
</g>
</g>
<!-- Node17 -->
<g id="Node000017" class="node">
<title>Node17</title>
<g id="a_Node000017"><a xlink:href="_buffered_msg_8cpp.xhtml" target="_top" xlink:title=" ">
<polygon fill="white" stroke="#666666" points="513.03,-240.25 424.28,-240.25 424.28,-221 513.03,-221 513.03,-240.25"/>
<text text-anchor="middle" x="468.66" y="-226.75" font-family="Helvetica,sans-Serif" font-size="10.00">BufferedMsg.cpp</text>
</a>
</g>
</g>
<!-- Node16&#45;&gt;Node17 -->
<g id="edge26_Node000016_Node000017" class="edge">
<title>Node16&#45;&gt;Node17</title>
<g id="a_edge26_Node000016_Node000017"><a xlink:title=" ">
<path fill="none" stroke="#63b8ff" d="M444.97,-266.65C450.92,-257.86 457.78,-247.71 462.58,-240.61"/>
<polygon fill="#63b8ff" stroke="#63b8ff" points="442.15,-264.58 439.45,-274.83 447.95,-268.5 442.15,-264.58"/>
</a>
</g>
</g>
<!-- Node16&#45;&gt;Node18 -->
<g id="edge27_Node000016_Node000018" class="edge">
<title>Node16&#45;&gt;Node18</title>
<g id="a_edge27_Node000016_Node000018"><a xlink:title=" ">
<path fill="none" stroke="#63b8ff" d="M420.71,-266.28C413.83,-253.05 407.94,-235.17 415.66,-221 424.93,-203.96 443.82,-192.43 459.5,-185.36"/>
<polygon fill="#63b8ff" stroke="#63b8ff" points="417.62,-267.94 425.68,-274.82 423.67,-264.42 417.62,-267.94"/>
</a>
</g>
</g>
<!-- Node22 -->
<g id="Node000022" class="node">
<title>Node22</title>
<g id="a_Node000022"><a xlink:href="_saved_config_8hpp.xhtml" target="_top" xlink:title=" ">
<polygon fill="white" stroke="#666666" points="620.03,-240.25 531.28,-240.25 531.28,-221 620.03,-221 620.03,-240.25"/>
<text text-anchor="middle" x="575.66" y="-226.75" font-family="Helvetica,sans-Serif" font-size="10.00">SavedConfig.hpp</text>
</a>
</g>
</g>
<!-- Node16&#45;&gt;Node22 -->
<g id="edge37_Node000016_Node000022" class="edge">
<title>Node16&#45;&gt;Node22</title>
<g id="a_edge37_Node000016_Node000022"><a xlink:title=" ">
<path fill="none" stroke="#63b8ff" d="M467.44,-271.92C493.4,-262.25 528.23,-249.29 551.28,-240.7"/>
<polygon fill="#63b8ff" stroke="#63b8ff" points="466.48,-268.54 458.33,-275.31 468.93,-275.1 466.48,-268.54"/>
</a>
</g>
</g>
<!-- Node18&#45;&gt;Node4 -->
<g id="edge30_Node000018_Node000004" class="edge">
<title>Node18&#45;&gt;Node4</title>
<g id="a_edge30_Node000018_Node000004"><a xlink:title=" ">
<path fill="none" stroke="#63b8ff" d="M478.01,-154.71C475.16,-146.27 471.96,-136.83 469.69,-130.11"/>
<polygon fill="#63b8ff" stroke="#63b8ff" points="474.68,-155.8 481.2,-164.15 481.31,-153.55 474.68,-155.8"/>
</a>
</g>
</g>
<!-- Node18&#45;&gt;Node5 -->
<g id="edge29_Node000018_Node000005" class="edge">
<title>Node18&#45;&gt;Node5</title>
<g id="a_edge29_Node000018_Node000005"><a xlink:title=" ">
<path fill="none" stroke="#63b8ff" d="M540.79,-171.03C682.71,-162.46 1046.36,-139.66 1070.66,-129.75 1100.34,-117.64 1127.01,-89.41 1139.37,-74.87"/>
<polygon fill="#63b8ff" stroke="#63b8ff" points="540.64,-167.54 530.87,-171.63 541.06,-174.52 540.64,-167.54"/>
</a>
</g>
</g>
<!-- Node18&#45;&gt;Node7 -->
<g id="edge33_Node000018_Node000007" class="edge">
<title>Node18&#45;&gt;Node7</title>
<g id="a_edge33_Node000018_Node000007"><a xlink:title=" ">
<path fill="none" stroke="#63b8ff" d="M505.95,-158.62C527.1,-143.8 561,-122.18 593.66,-110.5 690.26,-75.97 720.39,-90.89 821.66,-74.5 827.89,-73.49 834.54,-72.4 840.93,-71.34"/>
<polygon fill="#63b8ff" stroke="#63b8ff" points="503.98,-155.73 497.88,-164.4 508.05,-161.42 503.98,-155.73"/>
</a>
</g>
</g>
<!-- Node18&#45;&gt;Node11 -->
<g id="edge34_Node000018_Node000011" class="edge">
<title>Node18&#45;&gt;Node11</title>
<g id="a_edge34_Node000018_Node000011"><a xlink:title=" ">
<path fill="none" stroke="#63b8ff" d="M432.08,-162.2C408.11,-155.12 380.13,-144.6 357.66,-129.75 309.94,-98.23 269.06,-41.3 254.42,-19.47"/>
<polygon fill="#63b8ff" stroke="#63b8ff" points="431.1,-165.56 441.67,-164.9 432.99,-158.82 431.1,-165.56"/>
</a>
</g>
</g>
<!-- Node18&#45;&gt;Node12 -->
<g id="edge35_Node000018_Node000012" class="edge">
<title>Node18&#45;&gt;Node12</title>
<g id="a_edge35_Node000018_Node000012"><a xlink:title=" ">
<path fill="none" stroke="#63b8ff" d="M444.46,-161.4C407.33,-146.9 354.82,-119.39 333.66,-74.5 325.06,-56.27 333,-32.1 338.47,-19.35"/>
<polygon fill="#63b8ff" stroke="#63b8ff" points="442.95,-164.57 453.55,-164.78 445.4,-158.01 442.95,-164.57"/>
</a>
</g>
</g>
<!-- Node18&#45;&gt;Node13 -->
<g id="edge36_Node000018_Node000013" class="edge">
<title>Node18&#45;&gt;Node13</title>
<g id="a_edge36_Node000018_Node000013"><a xlink:title=" ">
<path fill="none" stroke="#63b8ff" d="M452.83,-160.05C439.65,-152.69 425.24,-142.54 415.66,-129.75 403.03,-112.9 398.75,-87.72 397.34,-74.58"/>
<polygon fill="#63b8ff" stroke="#63b8ff" points="451.19,-163.14 461.68,-164.66 454.42,-156.93 451.19,-163.14"/>
</a>
</g>
</g>
<!-- Node19 -->
<g id="Node000019" class="node">
<title>Node19</title>
<g id="a_Node000019"><a xlink:href="_auth_provider_8cpp.xhtml" target="_top" xlink:title=" ">
<polygon fill="white" stroke="#666666" points="799.78,-129.75 709.53,-129.75 709.53,-110.5 799.78,-110.5 799.78,-129.75"/>
<text text-anchor="middle" x="754.66" y="-116.25" font-family="Helvetica,sans-Serif" font-size="10.00">AuthProvider.cpp</text>
</a>
</g>
</g>
<!-- Node18&#45;&gt;Node19 -->
<g id="edge28_Node000018_Node000019" class="edge">
<title>Node18&#45;&gt;Node19</title>
<g id="a_edge28_Node000018_Node000019"><a xlink:title=" ">
<path fill="none" stroke="#63b8ff" d="M540.47,-163.37C590.38,-153.52 662.61,-139.28 709.1,-130.11"/>
<polygon fill="#63b8ff" stroke="#63b8ff" points="539.86,-159.92 530.73,-165.29 541.21,-166.79 539.86,-159.92"/>
</a>
</g>
</g>
<!-- Node20 -->
<g id="Node000020" class="node">
<title>Node20</title>
<g id="a_Node000020"><a xlink:href="_fab_backend_8cpp.xhtml" target="_top" xlink:title=" ">
<polygon fill="white" stroke="#666666" points="691.03,-129.75 602.28,-129.75 602.28,-110.5 691.03,-110.5 691.03,-129.75"/>
<text text-anchor="middle" x="646.66" y="-116.25" font-family="Helvetica,sans-Serif" font-size="10.00">FabBackend.cpp</text>
</a>
</g>
</g>
<!-- Node18&#45;&gt;Node20 -->
<g id="edge31_Node000018_Node000020" class="edge">
<title>Node18&#45;&gt;Node20</title>
<g id="a_edge31_Node000018_Node000020"><a xlink:title=" ">
<path fill="none" stroke="#63b8ff" d="M522.88,-161.81C552.41,-152.1 592.58,-138.9 619.04,-130.2"/>
<polygon fill="#63b8ff" stroke="#63b8ff" points="521.98,-158.42 513.58,-164.87 524.17,-165.07 521.98,-158.42"/>
</a>
</g>
</g>
<!-- Node18&#45;&gt;Node21 -->
<g id="edge32_Node000018_Node000021" class="edge">
<title>Node18&#45;&gt;Node21</title>
<g id="a_edge32_Node000018_Node000021"><a xlink:title=" ">
<path fill="none" stroke="#63b8ff" d="M540.82,-170.36C686.57,-159.92 1073.83,-132.21 1193.15,-123.67"/>
<polygon fill="#63b8ff" stroke="#63b8ff" points="540.76,-166.85 531.03,-171.06 541.26,-173.83 540.76,-166.85"/>
</a>
</g>
</g>
<!-- Node22&#45;&gt;Node5 -->
<g id="edge38_Node000022_Node000005" class="edge">
<title>Node22&#45;&gt;Node5</title>
<g id="a_edge38_Node000022_Node000005"><a xlink:title=" ">
<path fill="none" stroke="#63b8ff" d="M631.74,-226.48C706.38,-221.51 842.15,-209.75 955.66,-185 1033.69,-167.98 1070.44,-186.48 1126.66,-129.75 1141.71,-114.56 1145.45,-88.21 1146.37,-74.59"/>
<polygon fill="#63b8ff" stroke="#63b8ff" points="631.56,-222.98 621.8,-227.12 632.01,-229.97 631.56,-222.98"/>
</a>
</g>
</g>
<!-- Node22&#45;&gt;Node7 -->
<g id="edge42_Node000022_Node000007" class="edge">
<title>Node22&#45;&gt;Node7</title>
<g id="a_edge42_Node000022_Node000007"><a xlink:title=" ">
<path fill="none" stroke="#63b8ff" d="M587.34,-210.99C597.5,-196.37 613.58,-176.72 632.66,-165.75 701.87,-125.94 738.18,-167.27 808.66,-129.75 834.35,-116.07 856.69,-89.06 867.22,-74.94"/>
<polygon fill="#63b8ff" stroke="#63b8ff" points="584.45,-209.01 581.86,-219.28 590.29,-212.87 584.45,-209.01"/>
</a>
</g>
</g>
<!-- Node22&#45;&gt;Node8 -->
<g id="edge43_Node000022_Node000008" class="edge">
<title>Node22&#45;&gt;Node8</title>
<g id="a_edge43_Node000022_Node000008"><a xlink:title=" ">
<path fill="none" stroke="#63b8ff" d="M631.81,-226.41C725.12,-220.48 903.78,-206.46 922.66,-185 965.33,-136.49 929.38,-47.99 916.09,-19.63"/>
<polygon fill="#63b8ff" stroke="#63b8ff" points="631.6,-222.91 621.83,-227.03 632.03,-229.9 631.6,-222.91"/>
</a>
</g>
</g>
<!-- Node22&#45;&gt;Node11 -->
<g id="edge44_Node000022_Node000011" class="edge">
<title>Node22&#45;&gt;Node11</title>
<g id="a_edge44_Node000022_Node000011"><a xlink:title=" ">
<path fill="none" stroke="#63b8ff" d="M519.86,-218.95C465.92,-208.32 390.65,-192.53 378.66,-185 310.21,-142.04 265.36,-49.05 252.48,-19.7"/>
<polygon fill="#63b8ff" stroke="#63b8ff" points="519.04,-222.36 529.53,-220.85 520.38,-215.49 519.04,-222.36"/>
</a>
</g>
</g>
<!-- Node22&#45;&gt;Node12 -->
<g id="edge45_Node000022_Node000012" class="edge">
<title>Node22&#45;&gt;Node12</title>
<g id="a_edge45_Node000022_Node000012"><a xlink:title=" ">
<path fill="none" stroke="#63b8ff" d="M519.89,-218.68C479.04,-209.92 427.71,-197.13 409.66,-185 358.45,-150.59 345.35,-132.96 325.66,-74.5 319.13,-55.14 329.9,-31.82 337.07,-19.41"/>
<polygon fill="#63b8ff" stroke="#63b8ff" points="519.11,-222.09 529.62,-220.73 520.55,-215.24 519.11,-222.09"/>
</a>
</g>
</g>
<!-- Node22&#45;&gt;Node13 -->
<g id="edge46_Node000022_Node000013" class="edge">
<title>Node22&#45;&gt;Node13</title>
<g id="a_edge46_Node000022_Node000013"><a xlink:title=" ">
<path fill="none" stroke="#63b8ff" d="M523.77,-217.85C488.63,-209.08 446.07,-196.66 431.66,-185 409.76,-167.3 408.62,-156.76 400.66,-129.75 395.06,-110.78 395.31,-87.31 395.98,-74.77"/>
<polygon fill="#63b8ff" stroke="#63b8ff" points="522.86,-221.23 533.4,-220.2 524.52,-214.43 522.86,-221.23"/>
</a>
</g>
</g>
<!-- Node22&#45;&gt;Node18 -->
<g id="edge40_Node000022_Node000018" class="edge">
<title>Node22&#45;&gt;Node18</title>
<g id="a_edge40_Node000022_Node000018"><a xlink:title=" ">
<path fill="none" stroke="#63b8ff" d="M550.36,-214.82C534.26,-205.4 513.92,-193.5 500.17,-185.45"/>
<polygon fill="#63b8ff" stroke="#63b8ff" points="548.51,-217.8 558.91,-219.83 552.05,-211.76 548.51,-217.8"/>
</a>
</g>
</g>
<!-- Node22&#45;&gt;Node20 -->
<g id="edge39_Node000022_Node000020" class="edge">
<title>Node22&#45;&gt;Node20</title>
<g id="a_edge39_Node000022_Node000020"><a xlink:title=" ">
<path fill="none" stroke="#63b8ff" d="M580.51,-210.05C584.37,-196.83 590.64,-179.36 599.66,-165.75 609.11,-151.49 623.9,-138.44 634.37,-130.18"/>
<polygon fill="#63b8ff" stroke="#63b8ff" points="577.24,-208.75 578.02,-219.32 584,-210.57 577.24,-208.75"/>
</a>
</g>
</g>
<!-- Node23 -->
<g id="Node000023" class="node">
<title>Node23</title>
<g id="a_Node000023"><a xlink:href="_saved_config_8cpp.xhtml" target="_top" xlink:title=" ">
<polygon fill="white" stroke="#666666" points="730.03,-185 641.28,-185 641.28,-165.75 730.03,-165.75 730.03,-185"/>
<text text-anchor="middle" x="685.66" y="-171.5" font-family="Helvetica,sans-Serif" font-size="10.00">SavedConfig.cpp</text>
</a>
</g>
</g>
<!-- Node22&#45;&gt;Node23 -->
<g id="edge41_Node000022_Node000023" class="edge">
<title>Node22&#45;&gt;Node23</title>
<g id="a_edge41_Node000022_Node000023"><a xlink:title=" ">
<path fill="none" stroke="#63b8ff" d="M604.58,-215.62C624.29,-206.08 649.81,-193.73 666.9,-185.45"/>
<polygon fill="#63b8ff" stroke="#63b8ff" points="603.15,-212.42 595.68,-219.93 606.2,-218.73 603.15,-212.42"/>
</a>
</g>
</g>
<!-- Node25&#45;&gt;Node4 -->
<g id="edge60_Node000025_Node000004" class="edge">
<title>Node25&#45;&gt;Node4</title>
<g id="a_edge60_Node000025_Node000004"><a xlink:title=" ">
<path fill="none" stroke="#63b8ff" d="M898.46,-221.55C863.29,-214.31 813.24,-202.17 771.66,-185 755.96,-178.52 754.63,-171.5 738.66,-165.75 660.53,-137.64 563.37,-127.14 508.85,-123.28"/>
<polygon fill="#63b8ff" stroke="#63b8ff" points="897.35,-224.9 907.84,-223.43 898.73,-218.04 897.35,-224.9"/>
</a>
</g>
</g>
<!-- Node25&#45;&gt;Node5 -->
<g id="edge59_Node000025_Node000005" class="edge">
<title>Node25&#45;&gt;Node5</title>
<g id="a_edge59_Node000025_Node000005"><a xlink:title=" ">
<path fill="none" stroke="#63b8ff" d="M987.64,-228.59C1041.07,-225.88 1131.87,-216.53 1202.66,-185 1238.86,-168.87 1255.37,-165.42 1272.66,-129.75 1290.47,-93 1231.81,-77.04 1188.62,-70.36"/>
<polygon fill="#63b8ff" stroke="#63b8ff" points="987.53,-225.09 977.7,-229.03 987.84,-232.08 987.53,-225.09"/>
</a>
</g>
</g>
<!-- Node25&#45;&gt;Node7 -->
<g id="edge67_Node000025_Node000007" class="edge">
<title>Node25&#45;&gt;Node7</title>
<g id="a_edge67_Node000025_Node000007"><a xlink:title=" ">
<path fill="none" stroke="#63b8ff" d="M937.36,-210.04C933.71,-197.26 928.47,-180.31 922.66,-165.75 908.84,-131.13 888,-91.94 878.59,-74.75"/>
<polygon fill="#63b8ff" stroke="#63b8ff" points="933.9,-210.64 939.95,-219.34 940.64,-208.77 933.9,-210.64"/>
</a>
</g>
</g>
<!-- Node25&#45;&gt;Node20 -->
<g id="edge61_Node000025_Node000020" class="edge">
<title>Node25&#45;&gt;Node20</title>
<g id="a_edge61_Node000025_Node000020"><a xlink:title=" ">
<path fill="none" stroke="#63b8ff" d="M903.7,-217.01C878.17,-208.5 844.19,-196.73 814.66,-185 795.2,-177.27 791.09,-173.55 771.66,-165.75 738.3,-152.35 699.18,-138.71 673.71,-130.1"/>
<polygon fill="#63b8ff" stroke="#63b8ff" points="902.41,-220.27 913,-220.08 904.6,-213.62 902.41,-220.27"/>
</a>
</g>
</g>
<!-- Node25&#45;&gt;Node21 -->
<g id="edge62_Node000025_Node000021" class="edge">
<title>Node25&#45;&gt;Node21</title>
<g id="a_edge62_Node000025_Node000021"><a xlink:title=" ">
<path fill="none" stroke="#63b8ff" d="M987.57,-230.3C1037.68,-229.09 1119.47,-221.03 1178.66,-185 1200.79,-171.53 1216.94,-144.42 1224.27,-130.24"/>
<polygon fill="#63b8ff" stroke="#63b8ff" points="987.62,-226.8 977.67,-230.45 987.72,-233.8 987.62,-226.8"/>
</a>
</g>
</g>
<!-- Node25&#45;&gt;Node23 -->
<g id="edge66_Node000025_Node000023" class="edge">
<title>Node25&#45;&gt;Node23</title>
<g id="a_edge66_Node000025_Node000023"><a xlink:title=" ">
<path fill="none" stroke="#63b8ff" d="M897.94,-220.36C850.67,-210.56 776.57,-195.21 729.59,-185.48"/>
<polygon fill="#63b8ff" stroke="#63b8ff" points="897.07,-223.75 907.58,-222.36 898.49,-216.9 897.07,-223.75"/>
</a>
</g>
</g>
<!-- Node26 -->
<g id="Node000026" class="node">
<title>Node26</title>
<g id="a_Node000026"><a xlink:href="_auth_provider_8hpp.xhtml" target="_top" xlink:title=" ">
<polygon fill="white" stroke="#666666" points="913.78,-185 823.53,-185 823.53,-165.75 913.78,-165.75 913.78,-185"/>
<text text-anchor="middle" x="868.66" y="-171.5" font-family="Helvetica,sans-Serif" font-size="10.00">AuthProvider.hpp</text>
</a>
</g>
</g>
<!-- Node25&#45;&gt;Node26 -->
<g id="edge53_Node000025_Node000026" class="edge">
<title>Node25&#45;&gt;Node26</title>
<g id="a_edge53_Node000025_Node000026"><a xlink:title=" ">
<path fill="none" stroke="#63b8ff" d="M920.9,-213.97C907.9,-204.62 891.87,-193.08 881.02,-185.27"/>
<polygon fill="#63b8ff" stroke="#63b8ff" points="918.71,-216.71 928.87,-219.71 922.8,-211.03 918.71,-216.71"/>
</a>
</g>
</g>
<!-- Node27 -->
<g id="Node000027" class="node">
<title>Node27</title>
<g id="a_Node000027"><a xlink:href="_o_t_a_8hpp.xhtml" target="_top" xlink:title=" ">
<polygon fill="white" stroke="#666666" points="1061.78,-129.75 1007.53,-129.75 1007.53,-110.5 1061.78,-110.5 1061.78,-129.75"/>
<text text-anchor="middle" x="1034.66" y="-116.25" font-family="Helvetica,sans-Serif" font-size="10.00">OTA.hpp</text>
</a>
</g>
</g>
<!-- Node25&#45;&gt;Node27 -->
<g id="edge63_Node000025_Node000027" class="edge">
<title>Node25&#45;&gt;Node27</title>
<g id="a_edge63_Node000025_Node000027"><a xlink:title=" ">
<path fill="none" stroke="#63b8ff" d="M986.3,-218.22C1003.36,-211.45 1021.28,-200.96 1031.66,-185 1042.55,-168.25 1039.61,-143.47 1036.9,-130.24"/>
<polygon fill="#63b8ff" stroke="#63b8ff" points="985.52,-214.78 977.3,-221.46 987.89,-221.37 985.52,-214.78"/>
</a>
</g>
</g>
<!-- Node28 -->
<g id="Node000028" class="node">
<title>Node28</title>
<g id="a_Node000028"><a xlink:href="test__chrono_8cpp.xhtml" target="_top" xlink:title=" ">
<polygon fill="white" stroke="#666666" points="1169.16,-185 1084.16,-185 1084.16,-165.75 1169.16,-165.75 1169.16,-185"/>
<text text-anchor="middle" x="1126.66" y="-171.5" font-family="Helvetica,sans-Serif" font-size="10.00">test_chrono.cpp</text>
</a>
</g>
</g>
<!-- Node25&#45;&gt;Node28 -->
<g id="edge68_Node000025_Node000028" class="edge">
<title>Node25&#45;&gt;Node28</title>
<g id="a_edge68_Node000025_Node000028"><a xlink:title=" ">
<path fill="none" stroke="#63b8ff" d="M984.75,-217.44C1018.41,-207.7 1064.84,-194.27 1095.29,-185.45"/>
<polygon fill="#63b8ff" stroke="#63b8ff" points="983.96,-214.03 975.32,-220.17 985.9,-220.75 983.96,-214.03"/>
</a>
</g>
</g>
<!-- Node26&#45;&gt;Node4 -->
<g id="edge56_Node000026_Node000004" class="edge">
<title>Node26&#45;&gt;Node4</title>
<g id="a_edge56_Node000026_Node000004"><a xlink:title=" ">
<path fill="none" stroke="#63b8ff" d="M812.27,-166.91C730.68,-156.1 581.53,-136.34 508.79,-126.71"/>
<polygon fill="#63b8ff" stroke="#63b8ff" points="811.45,-170.33 821.82,-168.17 812.37,-163.39 811.45,-170.33"/>
</a>
</g>
</g>
<!-- Node26&#45;&gt;Node5 -->
<g id="edge55_Node000026_Node000005" class="edge">
<title>Node26&#45;&gt;Node5</title>
<g id="a_edge55_Node000026_Node000005"><a xlink:title=" ">
<path fill="none" stroke="#63b8ff" d="M925.41,-168.66C985.33,-161.75 1075,-148.65 1103.66,-129.75 1124.19,-116.21 1137.42,-89.14 1143.24,-74.98"/>
<polygon fill="#63b8ff" stroke="#63b8ff" points="925.27,-165.15 915.73,-169.75 926.06,-172.11 925.27,-165.15"/>
</a>
</g>
</g>
<!-- Node26&#45;&gt;Node7 -->
<g id="edge57_Node000026_Node000007" class="edge">
<title>Node26&#45;&gt;Node7</title>
<g id="a_edge57_Node000026_Node000007"><a xlink:title=" ">
<path fill="none" stroke="#63b8ff" d="M874.72,-154.23C876.71,-146.63 878.67,-137.87 879.66,-129.75 882.02,-110.29 878.3,-87.4 875.74,-74.99"/>
<polygon fill="#63b8ff" stroke="#63b8ff" points="871.36,-153.23 872,-163.81 878.1,-155.14 871.36,-153.23"/>
</a>
</g>
</g>
<!-- Node26&#45;&gt;Node13 -->
<g id="edge58_Node000026_Node000013" class="edge">
<title>Node26&#45;&gt;Node13</title>
<g id="a_edge58_Node000026_Node000013"><a xlink:title=" ">
<path fill="none" stroke="#63b8ff" d="M857.06,-156.16C846.43,-141.16 829.24,-120.75 808.66,-110.5 777.3,-94.88 555.22,-77.2 450.74,-69.63"/>
<polygon fill="#63b8ff" stroke="#63b8ff" points="854,-157.89 862.49,-164.23 859.81,-153.98 854,-157.89"/>
</a>
</g>
</g>
<!-- Node26&#45;&gt;Node19 -->
<g id="edge54_Node000026_Node000019" class="edge">
<title>Node26&#45;&gt;Node19</title>
<g id="a_edge54_Node000026_Node000019"><a xlink:title=" ">
<path fill="none" stroke="#63b8ff" d="M838.97,-160.51C818.5,-150.95 791.89,-138.52 774.09,-130.2"/>
<polygon fill="#63b8ff" stroke="#63b8ff" points="837.4,-163.64 847.95,-164.7 840.37,-157.3 837.4,-163.64"/>
</a>
</g>
</g>
<!-- Node27&#45;&gt;Node6 -->
<g id="edge64_Node000027_Node000006" class="edge">
<title>Node27&#45;&gt;Node6</title>
<g id="a_edge64_Node000027_Node000006"><a xlink:title=" ">
<path fill="none" stroke="#63b8ff" d="M995.9,-110.84C945.13,-99.98 857.35,-81.21 813,-71.72"/>
<polygon fill="#63b8ff" stroke="#63b8ff" points="995.07,-114.24 1005.58,-112.91 996.53,-107.39 995.07,-114.24"/>
</a>
</g>
</g>
<!-- Node27&#45;&gt;Node8 -->
<g id="edge65_Node000027_Node000008" class="edge">
<title>Node27&#45;&gt;Node8</title>
<g id="a_edge65_Node000027_Node000008"><a xlink:title=" ">
<path fill="none" stroke="#63b8ff" d="M1016.26,-102.89C989.98,-79.72 942.61,-37.93 921.86,-19.63"/>
<polygon fill="#63b8ff" stroke="#63b8ff" points="1013.64,-105.25 1023.46,-109.24 1018.27,-100 1013.64,-105.25"/>
</a>
</g>
</g>
</g>
</svg>

<g id="navigator" transform="translate(0 0)" fill="#404254">
  <rect fill="#f2f5e9" fill-opacity="0.5" stroke="#606060" stroke-width=".5" x="0" y="0" width="60" height="60"/>
  <use id="zoomplus" xlink:href="#zoomPlus" x="17" y="9" onmousedown="handleZoom(evt,'in')"/>
  <use id="zoomminus" xlink:href="#zoomMin" x="42" y="9" onmousedown="handleZoom(evt,'out')"/>
  <use id="reset" xlink:href="#resetDef" x="30" y="36" onmousedown="handleReset()"/>
   <use id="arrowup" xlink:href="#arrowUp" x="0" y="0" onmousedown="handlePan(0,-1)"/>
  <use id="arrowright" xlink:href="#arrowRight" x="0" y="0" onmousedown="handlePan(1,0)"/>
  <use id="arrowdown" xlink:href="#arrowDown" x="0" y="0" onmousedown="handlePan(0,1)"/>
  <use id="arrowleft" xlink:href="#arrowLeft" x="0" y="0" onmousedown="handlePan(-1,0)"/>
</g>
<svg viewBox="0 0 15 15" width="100%" height="30px" preserveAspectRatio="xMaxYMin meet">
 <g id="arrow_out" transform="scale(0.3 0.3)">
  <a xlink:href="_machine_8hpp__dep__incl_org.svg" target="_base">
   <rect id="button" ry="5" rx="5" y="6" x="6" height="38" width="38"
        fill="#f2f5e9" fill-opacity="0.5" stroke="#606060" stroke-width="1.0"/>
   <path id="arrow"
     d="M 11.500037,31.436501 C 11.940474,20.09759 22.043105,11.32322 32.158766,21.979434 L 37.068811,17.246167 C 37.068811,17.246167 37.088388,32 37.088388,32 L 22.160133,31.978069 C 22.160133,31.978069 26.997745,27.140456 26.997745,27.140456 C 18.528582,18.264221 13.291696,25.230495 11.500037,31.436501 z"
     style="fill:#404040;"/>
  </a>
 </g>
</svg>

<style type='text/css'>
<![CDATA[
[data-mouse-over-selected='false'] { opacity: 0.7; }
[data-mouse-over-selected='true']  { opacity: 1.0; }
]]>
</style>
<script type="application/ecmascript"><![CDATA[
document.addEventListener('DOMContentLoaded', (event) => {
  highlightEdges();
  highlightAdjacentNodes();
});
]]></script>
</svg>
