<?xml version="1.0" encoding="UTF-8" standalone="no"?>
<!DOCTYPE svg PUBLIC "-//W3C//DTD SVG 1.1//EN"
 "http://www.w3.org/Graphics/SVG/1.1/DTD/svg11.dtd">
<!-- Generated by graphviz version 9.0.0 (20230911.1827)
 -->
<!-- Title: Machine.hpp Pages: 1 -->
<!--zoomable 414 -->

<svg id="main" version="1.1" xmlns="http://www.w3.org/2000/svg" xmlns:xlink="http://www.w3.org/1999/xlink" xml:space="preserve" onload="init(evt)">
<style type="text/css"><![CDATA[
.node, .edge {opacity: 0.7;}
.node.selected, .edge.selected {opacity: 1;}
.edge:hover path { stroke: red; }
.edge:hover polygon { stroke: red; fill: red; }
]]></style>

<defs>
  <circle id="rim" cx="0" cy="0" r="7"/>
  <circle id="rim2" cx="0" cy="0" r="3.5"/>
  <g id="zoomPlus">
    <use xlink:href="#rim" fill="#404040"><set attributeName="fill" to="#808080" begin="zoomplus.mouseover" end="zoomplus.mouseout"/></use>
    <path d="M-4,0h8M0,-4v8" fill="none" stroke="white" stroke-width="1.5" pointer-events="none"/>
  </g>
  <g id="zoomMin">
    <use xlink:href="#rim" fill="#404040"><set attributeName="fill" to="#808080" begin="zoomminus.mouseover" end="zoomminus.mouseout"/></use>
    <path d="M-4,0h8" fill="none" stroke="white" stroke-width="1.5" pointer-events="none"/>
  </g>
  <g id="arrowUp" transform="translate(30 24)">
    <use xlink:href="#rim"/>
    <path pointer-events="none" fill="none" stroke="white" stroke-width="1.5" d="M0,-3.0v7 M-2.5,-0.5L0,-3.0L2.5,-0.5"/>
  </g>
  <g id="arrowRight" transform="rotate(90) translate(36 -43)">
    <use xlink:href="#rim"/>
    <path pointer-events="none" fill="none" stroke="white" stroke-width="1.5" d="M0,-3.0v7 M-2.5,-0.5L0,-3.0L2.5,-0.5"/>
  </g>
  <g id="arrowDown" transform="rotate(180) translate(-30 -48)">
    <use xlink:href="#rim"/>
    <path pointer-events="none" fill="none" stroke="white" stroke-width="1.5" d="M0,-3.0v7 M-2.5,-0.5L0,-3.0L2.5,-0.5"/>
  </g>
  <g id="arrowLeft" transform="rotate(270) translate(-36 17)">
    <use xlink:href="#rim"/>
    <path pointer-events="none" fill="none" stroke="white" stroke-width="1.5" d="M0,-3.0v7 M-2.5,-0.5L0,-3.0L2.5,-0.5"/>
  </g>
  <g id="resetDef">
    <use xlink:href="#rim2" fill="#404040"><set attributeName="fill" to="#808080" begin="reset.mouseover" end="reset.mouseout"/></use>
  </g>
</defs>
<script type="application/ecmascript">
var viewWidth = 1376;
var viewHeight = 414;
var sectionId = 'dynsection-1';
</script>
<script type="application/ecmascript" xlink:href="svg.min.js"/>
<svg id="graph" class="graph">
<g id="viewport">
<title>Machine.hpp</title>
<!-- Node1 -->
<g id="Node000001" class="node">
<title>Node1</title>
<g id="a_Node000001"><a xlink:title=" ">
<polygon fill="#999999" stroke="#666666" points="798.8,-406 728.05,-406 728.05,-386.75 798.8,-386.75 798.8,-406"/>
<text text-anchor="middle" x="763.42" y="-392.5" font-family="Helvetica,sans-Serif" font-size="10.00">Machine.hpp</text>
</a>
</g>
</g>
<!-- Node2 -->
<g id="Node000002" class="node">
<title>Node2</title>
<g id="a_Node000002"><a xlink:href="_board_info_8hpp.xhtml" target="_top" xlink:title=" ">
<polygon fill="white" stroke="#666666" points="267.42,-350.75 191.42,-350.75 191.42,-331.5 267.42,-331.5 267.42,-350.75"/>
<text text-anchor="middle" x="229.42" y="-337.25" font-family="Helvetica,sans-Serif" font-size="10.00">BoardInfo.hpp</text>
</a>
</g>
</g>
<!-- Node1&#45;&gt;Node2 -->
<g id="edge1_Node000001_Node000002" class="edge">
<title>Node1&#45;&gt;Node2</title>
<g id="a_edge1_Node000001_Node000002"><a xlink:title=" ">
<path fill="none" stroke="#63b8ff" d="M716.47,-391.05C633.5,-383.35 455.52,-366.58 305.42,-350.75 293.14,-349.45 279.75,-347.96 267.68,-346.59"/>
<polygon fill="#63b8ff" stroke="#63b8ff" points="715.99,-394.52 726.27,-391.96 716.63,-387.55 715.99,-394.52"/>
</a>
</g>
</g>
<!-- Node3 -->
<g id="Node000003" class="node">
<title>Node3</title>
<g id="a_Node000003"><a xlink:href="_l_c_d_wrapper_8hpp.xhtml" target="_top" xlink:title=" ">
<polygon fill="white" stroke="#666666" points="159.17,-185 69.67,-185 69.67,-165.75 159.17,-165.75 159.17,-185"/>
<text text-anchor="middle" x="114.42" y="-171.5" font-family="Helvetica,sans-Serif" font-size="10.00">LCDWrapper.hpp</text>
</a>
</g>
</g>
<!-- Node1&#45;&gt;Node3 -->
<g id="edge22_Node000001_Node000003" class="edge">
<title>Node1&#45;&gt;Node3</title>
<g id="a_edge22_Node000001_Node000003"><a xlink:title=" ">
<path fill="none" stroke="#63b8ff" d="M716.57,-393.26C623.87,-388.59 420.39,-375.77 355.42,-350.75 302.89,-330.52 165.07,-218.29 125.31,-185.42"/>
<polygon fill="#63b8ff" stroke="#63b8ff" points="716.17,-396.75 726.33,-393.74 716.51,-389.76 716.17,-396.75"/>
</a>
</g>
</g>
<!-- Node4 -->
<g id="Node000004" class="node">
<title>Node4</title>
<g id="a_Node000004"><a xlink:href="_board_logic_8hpp.xhtml" target="_top" xlink:title=" ">
<polygon fill="white" stroke="#666666" points="585.17,-129.75 501.67,-129.75 501.67,-110.5 585.17,-110.5 585.17,-129.75"/>
<text text-anchor="middle" x="543.42" y="-116.25" font-family="Helvetica,sans-Serif" font-size="10.00">BoardLogic.hpp</text>
</a>
</g>
</g>
<!-- Node1&#45;&gt;Node4 -->
<g id="edge21_Node000001_Node000004" class="edge">
<title>Node1&#45;&gt;Node4</title>
<g id="a_edge21_Node000001_Node000004"><a xlink:title=" ">
<path fill="none" stroke="#63b8ff" d="M716.35,-390.31C624.33,-379.29 426.38,-349.67 389.42,-295.5 342.2,-226.27 472.7,-154.71 523.85,-130.07"/>
<polygon fill="#63b8ff" stroke="#63b8ff" points="715.71,-393.76 726.05,-391.45 716.52,-386.81 715.71,-393.76"/>
</a>
</g>
</g>
<!-- Node5 -->
<g id="Node000005" class="node">
<title>Node5</title>
<g id="a_Node000005"><a xlink:href="_board_logic_8cpp.xhtml" target="_top" xlink:title=" ">
<polygon fill="white" stroke="#666666" points="1062.17,-74.5 978.67,-74.5 978.67,-55.25 1062.17,-55.25 1062.17,-74.5"/>
<text text-anchor="middle" x="1020.42" y="-61" font-family="Helvetica,sans-Serif" font-size="10.00">BoardLogic.cpp</text>
</a>
</g>
</g>
<!-- Node1&#45;&gt;Node5 -->
<g id="edge20_Node000001_Node000005" class="edge">
<title>Node1&#45;&gt;Node5</title>
<g id="a_edge20_Node000001_Node000005"><a xlink:title=" ">
<path fill="none" stroke="#63b8ff" d="M810.45,-394.59C921.27,-392.22 1195.92,-383.17 1281.42,-350.75 1325.94,-333.87 1367.42,-334.49 1367.42,-286.88 1367.42,-286.88 1367.42,-286.88 1367.42,-174.38 1367.42,-144.76 1370.92,-129.77 1348.42,-110.5 1306.31,-74.42 1141.27,-67.38 1062.59,-66.1"/>
<polygon fill="#63b8ff" stroke="#63b8ff" points="810.44,-391.09 800.52,-394.79 810.59,-398.09 810.44,-391.09"/>
</a>
</g>
</g>
<!-- Node7 -->
<g id="Node000007" class="node">
<title>Node7</title>
<g id="a_Node000007"><a xlink:href="globals_8hpp.xhtml" target="_top" xlink:title=" ">
<polygon fill="white" stroke="#666666" points="791.8,-74.5 727.05,-74.5 727.05,-55.25 791.8,-55.25 791.8,-74.5"/>
<text text-anchor="middle" x="759.42" y="-61" font-family="Helvetica,sans-Serif" font-size="10.00">globals.hpp</text>
</a>
</g>
</g>
<!-- Node1&#45;&gt;Node7 -->
<g id="edge50_Node000001_Node000007" class="edge">
<title>Node1&#45;&gt;Node7</title>
<g id="a_edge50_Node000001_Node000007"><a xlink:title=" ">
<path fill="none" stroke="#63b8ff" d="M808.83,-382.64C851.69,-367.52 909.42,-337.71 909.42,-286.88 909.42,-286.88 909.42,-286.88 909.42,-229.62 909.42,-176.37 954.73,-152.84 922.42,-110.5 906.72,-89.92 835.19,-76.5 792.28,-70.16"/>
<polygon fill="#63b8ff" stroke="#63b8ff" points="807.83,-379.28 799.46,-385.78 810.05,-385.92 807.83,-379.28"/>
</a>
</g>
</g>
<!-- Node15 -->
<g id="Node000015" class="node">
<title>Node15</title>
<g id="a_Node000015"><a xlink:href="_m_q_t_ttypes_8hpp.xhtml" target="_top" xlink:title=" ">
<polygon fill="white" stroke="#666666" points="623.92,-350.75 538.92,-350.75 538.92,-331.5 623.92,-331.5 623.92,-350.75"/>
<text text-anchor="middle" x="581.42" y="-337.25" font-family="Helvetica,sans-Serif" font-size="10.00">MQTTtypes.hpp</text>
</a>
</g>
</g>
<!-- Node1&#45;&gt;Node15 -->
<g id="edge23_Node000001_Node000015" class="edge">
<title>Node1&#45;&gt;Node15</title>
<g id="a_edge23_Node000001_Node000015"><a xlink:title=" ">
<path fill="none" stroke="#63b8ff" d="M721.79,-383.19C688.5,-373.45 642.57,-360.02 612.45,-351.2"/>
<polygon fill="#63b8ff" stroke="#63b8ff" points="720.52,-386.47 731.1,-385.92 722.48,-379.75 720.52,-386.47"/>
</a>
</g>
</g>
<!-- Node21 -->
<g id="Node000021" class="node">
<title>Node21</title>
<g id="a_Node000021"><a xlink:href="_machine_8cpp.xhtml" target="_top" xlink:title=" ">
<polygon fill="white" stroke="#666666" points="1339.8,-129.75 1269.05,-129.75 1269.05,-110.5 1339.8,-110.5 1339.8,-129.75"/>
<text text-anchor="middle" x="1304.42" y="-116.25" font-family="Helvetica,sans-Serif" font-size="10.00">Machine.cpp</text>
</a>
</g>
</g>
<!-- Node1&#45;&gt;Node21 -->
<g id="edge49_Node000001_Node000021" class="edge">
<title>Node1&#45;&gt;Node21</title>
<g id="a_edge49_Node000001_Node000021"><a xlink:title=" ">
<path fill="none" stroke="#63b8ff" d="M810.36,-396.09C944.07,-396.88 1317.42,-389.86 1317.42,-286.88 1317.42,-286.88 1317.42,-286.88 1317.42,-229.62 1317.42,-192.44 1309.8,-148.59 1306.23,-130.08"/>
<polygon fill="#63b8ff" stroke="#63b8ff" points="810.46,-392.59 800.44,-396.01 810.41,-399.59 810.46,-392.59"/>
</a>
</g>
</g>
<!-- Node25 -->
<g id="Node000025" class="node">
<title>Node25</title>
<g id="a_Node000025"><a xlink:href="secrets_8hpp.xhtml" target="_top" xlink:title=" ">
<polygon fill="white" stroke="#666666" points="1015.55,-240.25 949.3,-240.25 949.3,-221 1015.55,-221 1015.55,-240.25"/>
<text text-anchor="middle" x="982.42" y="-226.75" font-family="Helvetica,sans-Serif" font-size="10.00">secrets.hpp</text>
</a>
</g>
</g>
<!-- Node1&#45;&gt;Node25 -->
<g id="edge51_Node000001_Node000025" class="edge">
<title>Node1&#45;&gt;Node25</title>
<g id="a_edge51_Node000001_Node000025"><a xlink:title=" ">
<path fill="none" stroke="#63b8ff" d="M810.32,-392.41C844.97,-388 891.49,-377.18 923.42,-350.75 959.69,-320.73 975.62,-262.91 980.6,-240.66"/>
<polygon fill="#63b8ff" stroke="#63b8ff" points="810.11,-388.91 800.56,-393.5 810.89,-395.86 810.11,-388.91"/>
</a>
</g>
</g>
<!-- Node2&#45;&gt;Node3 -->
<g id="edge2_Node000002_Node000003" class="edge">
<title>Node2&#45;&gt;Node3</title>
<g id="a_edge2_Node000002_Node000003"><a xlink:title=" ">
<path fill="none" stroke="#63b8ff" d="M216.89,-322.27C192.37,-287.36 138.85,-211.16 120.64,-185.22"/>
<polygon fill="#63b8ff" stroke="#63b8ff" points="213.76,-323.91 222.37,-330.08 219.49,-319.89 213.76,-323.91"/>
</a>
</g>
</g>
<!-- Node3&#45;&gt;Node4 -->
<g id="edge3_Node000003_Node000004" class="edge">
<title>Node3&#45;&gt;Node4</title>
<g id="a_edge3_Node000003_Node000004"><a xlink:title=" ">
<path fill="none" stroke="#63b8ff" d="M170.79,-167.38C258.06,-156.55 423.9,-135.96 501.47,-126.33"/>
<polygon fill="#63b8ff" stroke="#63b8ff" points="170.52,-163.89 161.03,-168.59 171.38,-170.83 170.52,-163.89"/>
</a>
</g>
</g>
<!-- Node3&#45;&gt;Node7 -->
<g id="edge17_Node000003_Node000007" class="edge">
<title>Node3&#45;&gt;Node7</title>
<g id="a_edge17_Node000003_Node000007"><a xlink:title=" ">
<path fill="none" stroke="#63b8ff" d="M170.85,-164.81C244.72,-152.29 378.26,-129.69 492.42,-110.5 577.01,-96.29 676.69,-79.66 726.95,-71.28"/>
<polygon fill="#63b8ff" stroke="#63b8ff" points="170.28,-161.35 161.01,-166.48 171.45,-168.26 170.28,-161.35"/>
</a>
</g>
</g>
<!-- Node11 -->
<g id="Node000011" class="node">
<title>Node11</title>
<g id="a_Node000011"><a xlink:href="test__logic_8cpp.xhtml" target="_top" xlink:title=" ">
<polygon fill="white" stroke="#666666" points="394.42,-19.25 318.42,-19.25 318.42,0 394.42,0 394.42,-19.25"/>
<text text-anchor="middle" x="356.42" y="-5.75" font-family="Helvetica,sans-Serif" font-size="10.00">test_logic.cpp</text>
</a>
</g>
</g>
<!-- Node3&#45;&gt;Node11 -->
<g id="edge18_Node000003_Node000011" class="edge">
<title>Node3&#45;&gt;Node11</title>
<g id="a_edge18_Node000003_Node000011"><a xlink:title=" ">
<path fill="none" stroke="#63b8ff" d="M58.41,-163.45C23.39,-153.8 -12.16,-137.07 4.42,-110.5 38.06,-56.61 233.98,-25.97 318.09,-15.14"/>
<polygon fill="#63b8ff" stroke="#63b8ff" points="57.17,-166.74 67.73,-165.84 58.91,-159.96 57.17,-166.74"/>
</a>
</g>
</g>
<!-- Node12 -->
<g id="Node000012" class="node">
<title>Node12</title>
<g id="a_Node000012"><a xlink:href="test__mqtt_8cpp.xhtml" target="_top" xlink:title=" ">
<polygon fill="white" stroke="#666666" points="264.05,-74.5 188.8,-74.5 188.8,-55.25 264.05,-55.25 264.05,-74.5"/>
<text text-anchor="middle" x="226.42" y="-61" font-family="Helvetica,sans-Serif" font-size="10.00">test_mqtt.cpp</text>
</a>
</g>
</g>
<!-- Node3&#45;&gt;Node12 -->
<g id="edge19_Node000003_Node000012" class="edge">
<title>Node3&#45;&gt;Node12</title>
<g id="a_edge19_Node000003_Node000012"><a xlink:title=" ">
<path fill="none" stroke="#63b8ff" d="M131.81,-157.53C155.85,-134.24 198.4,-93.02 217.13,-74.88"/>
<polygon fill="#63b8ff" stroke="#63b8ff" points="129.42,-154.97 124.68,-164.44 134.29,-160 129.42,-154.97"/>
</a>
</g>
</g>
<!-- Node14 -->
<g id="Node000014" class="node">
<title>Node14</title>
<g id="a_Node000014"><a xlink:href="_l_c_d_wrapper_8cpp.xhtml" target="_top" xlink:title=" ">
<polygon fill="white" stroke="#666666" points="103.17,-129.75 13.67,-129.75 13.67,-110.5 103.17,-110.5 103.17,-129.75"/>
<text text-anchor="middle" x="58.42" y="-116.25" font-family="Helvetica,sans-Serif" font-size="10.00">LCDWrapper.cpp</text>
</a>
</g>
</g>
<!-- Node3&#45;&gt;Node14 -->
<g id="edge16_Node000003_Node000014" class="edge">
<title>Node3&#45;&gt;Node14</title>
<g id="a_edge16_Node000003_Node000014"><a xlink:title=" ">
<path fill="none" stroke="#63b8ff" d="M96.79,-157.61C87.18,-148.47 75.67,-137.53 67.78,-130.02"/>
<polygon fill="#63b8ff" stroke="#63b8ff" points="94.17,-159.94 103.83,-164.3 98.99,-154.87 94.17,-159.94"/>
</a>
</g>
</g>
<!-- Node4&#45;&gt;Node5 -->
<g id="edge4_Node000004_Node000005" class="edge">
<title>Node4&#45;&gt;Node5</title>
<g id="a_edge4_Node000004_Node000005"><a xlink:title=" ">
<path fill="none" stroke="#63b8ff" d="M596.76,-113.17C692.51,-102.48 891.62,-80.25 978.44,-70.56"/>
<polygon fill="#63b8ff" stroke="#63b8ff" points="596.39,-109.69 586.84,-114.28 597.17,-116.65 596.39,-109.69"/>
</a>
</g>
</g>
<!-- Node6 -->
<g id="Node000006" class="node">
<title>Node6</title>
<g id="a_Node000006"><a xlink:href="_o_t_a_8cpp.xhtml" target="_top" xlink:title=" ">
<polygon fill="white" stroke="#666666" points="913.55,-74.5 859.3,-74.5 859.3,-55.25 913.55,-55.25 913.55,-74.5"/>
<text text-anchor="middle" x="886.42" y="-61" font-family="Helvetica,sans-Serif" font-size="10.00">OTA.cpp</text>
</a>
</g>
</g>
<!-- Node4&#45;&gt;Node6 -->
<g id="edge5_Node000004_Node000006" class="edge">
<title>Node4&#45;&gt;Node6</title>
<g id="a_edge5_Node000004_Node000006"><a xlink:title=" ">
<path fill="none" stroke="#63b8ff" d="M596.86,-110.83C670.93,-99.33 802.08,-78.97 858.9,-70.15"/>
<polygon fill="#63b8ff" stroke="#63b8ff" points="596.32,-107.37 586.98,-112.36 597.4,-114.29 596.32,-107.37"/>
</a>
</g>
</g>
<!-- Node4&#45;&gt;Node7 -->
<g id="edge6_Node000004_Node000007" class="edge">
<title>Node4&#45;&gt;Node7</title>
<g id="a_edge6_Node000004_Node000007"><a xlink:title=" ">
<path fill="none" stroke="#63b8ff" d="M591.2,-107.35C632.41,-97.19 690.82,-82.79 726.85,-73.91"/>
<polygon fill="#63b8ff" stroke="#63b8ff" points="590.41,-103.94 581.54,-109.73 592.08,-110.73 590.41,-103.94"/>
</a>
</g>
</g>
<!-- Node8 -->
<g id="Node000008" class="node">
<title>Node8</title>
<g id="a_Node000008"><a xlink:href="main_8cpp.xhtml" target="_top" xlink:title=" ">
<polygon fill="white" stroke="#666666" points="954.92,-19.25 899.92,-19.25 899.92,0 954.92,0 954.92,-19.25"/>
<text text-anchor="middle" x="927.42" y="-5.75" font-family="Helvetica,sans-Serif" font-size="10.00">main.cpp</text>
</a>
</g>
</g>
<!-- Node4&#45;&gt;Node8 -->
<g id="edge8_Node000004_Node000008" class="edge">
<title>Node4&#45;&gt;Node8</title>
<g id="a_edge8_Node000004_Node000008"><a xlink:title=" ">
<path fill="none" stroke="#63b8ff" d="M575.66,-105.82C610.44,-91.82 667.66,-69.86 718.42,-55.25 782.43,-36.83 859.43,-22.3 899.73,-15.26"/>
<polygon fill="#63b8ff" stroke="#63b8ff" points="574.55,-102.49 566.6,-109.49 577.18,-108.98 574.55,-102.49"/>
</a>
</g>
</g>
<!-- Node9 -->
<g id="Node000009" class="node">
<title>Node9</title>
<g id="a_Node000009"><a xlink:href="test__common_8cpp.xhtml" target="_top" xlink:title=" ">
<polygon fill="white" stroke="#666666" points="670.05,-19.25 576.8,-19.25 576.8,0 670.05,0 670.05,-19.25"/>
<text text-anchor="middle" x="623.42" y="-5.75" font-family="Helvetica,sans-Serif" font-size="10.00">test_common.cpp</text>
</a>
</g>
</g>
<!-- Node4&#45;&gt;Node9 -->
<g id="edge9_Node000004_Node000009" class="edge">
<title>Node4&#45;&gt;Node9</title>
<g id="a_edge9_Node000004_Node000009"><a xlink:title=" ">
<path fill="none" stroke="#63b8ff" d="M595.81,-106.91C612.66,-100.24 629.52,-90.03 639.42,-74.5 650.49,-57.15 638.09,-32.62 629.74,-19.58"/>
<polygon fill="#63b8ff" stroke="#63b8ff" points="595.05,-103.46 586.81,-110.12 597.4,-110.06 595.05,-103.46"/>
</a>
</g>
</g>
<!-- Node10 -->
<g id="Node000010" class="node">
<title>Node10</title>
<g id="a_Node000010"><a xlink:href="test__common_8h.xhtml" target="_top" xlink:title=" ">
<polygon fill="white" stroke="#666666" points="630.8,-74.5 548.05,-74.5 548.05,-55.25 630.8,-55.25 630.8,-74.5"/>
<text text-anchor="middle" x="589.42" y="-61" font-family="Helvetica,sans-Serif" font-size="10.00">test_common.h</text>
</a>
</g>
</g>
<!-- Node4&#45;&gt;Node10 -->
<g id="edge10_Node000004_Node000010" class="edge">
<title>Node4&#45;&gt;Node10</title>
<g id="a_edge10_Node000004_Node000010"><a xlink:title=" ">
<path fill="none" stroke="#63b8ff" d="M558.43,-101.76C566.18,-92.78 575.33,-82.2 581.66,-74.86"/>
<polygon fill="#63b8ff" stroke="#63b8ff" points="555.9,-99.33 552.01,-109.19 561.2,-103.91 555.9,-99.33"/>
</a>
</g>
</g>
<!-- Node4&#45;&gt;Node11 -->
<g id="edge13_Node000004_Node000011" class="edge">
<title>Node4&#45;&gt;Node11</title>
<g id="a_edge13_Node000004_Node000011"><a xlink:title=" ">
<path fill="none" stroke="#63b8ff" d="M535.29,-100.08C528.28,-85.81 516.84,-66.82 501.42,-55.25 470.04,-31.69 426.07,-20.44 394.79,-15.15"/>
<polygon fill="#63b8ff" stroke="#63b8ff" points="531.99,-101.27 539.33,-108.91 538.35,-98.36 531.99,-101.27"/>
</a>
</g>
</g>
<!-- Node4&#45;&gt;Node12 -->
<g id="edge14_Node000004_Node000012" class="edge">
<title>Node4&#45;&gt;Node12</title>
<g id="a_edge14_Node000004_Node000012"><a xlink:title=" ">
<path fill="none" stroke="#63b8ff" d="M490.28,-110.2C426.29,-99.45 320.45,-81.67 264.24,-72.23"/>
<polygon fill="#63b8ff" stroke="#63b8ff" points="489.4,-113.6 499.84,-111.8 490.55,-106.69 489.4,-113.6"/>
</a>
</g>
</g>
<!-- Node13 -->
<g id="Node000013" class="node">
<title>Node13</title>
<g id="a_Node000013"><a xlink:href="test__savedconfig_8cpp.xhtml" target="_top" xlink:title=" ">
<polygon fill="white" stroke="#666666" points="492.17,-74.5 384.67,-74.5 384.67,-55.25 492.17,-55.25 492.17,-74.5"/>
<text text-anchor="middle" x="438.42" y="-61" font-family="Helvetica,sans-Serif" font-size="10.00">test_savedconfig.cpp</text>
</a>
</g>
</g>
<!-- Node4&#45;&gt;Node13 -->
<g id="edge15_Node000004_Node000013" class="edge">
<title>Node4&#45;&gt;Node13</title>
<g id="a_edge15_Node000004_Node000013"><a xlink:title=" ">
<path fill="none" stroke="#63b8ff" d="M515.56,-104.99C496.78,-95.47 472.57,-83.19 456.32,-74.95"/>
<polygon fill="#63b8ff" stroke="#63b8ff" points="513.76,-108.01 524.26,-109.41 516.93,-101.76 513.76,-108.01"/>
</a>
</g>
</g>
<!-- Node7&#45;&gt;Node8 -->
<g id="edge7_Node000007_Node000008" class="edge">
<title>Node7&#45;&gt;Node8</title>
<g id="a_edge7_Node000007_Node000008"><a xlink:title=" ">
<path fill="none" stroke="#63b8ff" d="M798.77,-51.41C829.73,-41.59 872.11,-28.16 899.63,-19.44"/>
<polygon fill="#63b8ff" stroke="#63b8ff" points="797.84,-48.03 789.37,-54.38 799.96,-54.7 797.84,-48.03"/>
</a>
</g>
</g>
<!-- Node10&#45;&gt;Node9 -->
<g id="edge11_Node000010_Node000009" class="edge">
<title>Node10&#45;&gt;Node9</title>
<g id="a_edge11_Node000010_Node000009"><a xlink:title=" ">
<path fill="none" stroke="#63b8ff" d="M601.06,-45.65C606.67,-36.86 613.15,-26.71 617.69,-19.61"/>
<polygon fill="#63b8ff" stroke="#63b8ff" points="598.29,-43.49 595.85,-53.81 604.19,-47.26 598.29,-43.49"/>
</a>
</g>
</g>
<!-- Node10&#45;&gt;Node11 -->
<g id="edge12_Node000010_Node000011" class="edge">
<title>Node10&#45;&gt;Node11</title>
<g id="a_edge12_Node000010_Node000011"><a xlink:title=" ">
<path fill="none" stroke="#63b8ff" d="M538.5,-52.24C495.26,-42.35 434.13,-28.38 394.89,-19.42"/>
<polygon fill="#63b8ff" stroke="#63b8ff" points="537.63,-55.63 548.16,-54.44 539.19,-48.8 537.63,-55.63"/>
</a>
</g>
</g>
<!-- Node16 -->
<g id="Node000016" class="node">
<title>Node16</title>
<g id="a_Node000016"><a xlink:href="_buffered_msg_8hpp.xhtml" target="_top" xlink:title=" ">
<polygon fill="white" stroke="#666666" points="589.8,-295.5 501.05,-295.5 501.05,-276.25 589.8,-276.25 589.8,-295.5"/>
<text text-anchor="middle" x="545.42" y="-282" font-family="Helvetica,sans-Serif" font-size="10.00">BufferedMsg.hpp</text>
</a>
</g>
</g>
<!-- Node15&#45;&gt;Node16 -->
<g id="edge24_Node000015_Node000016" class="edge">
<title>Node15&#45;&gt;Node16</title>
<g id="a_edge24_Node000015_Node000016"><a xlink:title=" ">
<path fill="none" stroke="#63b8ff" d="M569.11,-321.9C563.16,-313.11 556.3,-302.96 551.5,-295.86"/>
<polygon fill="#63b8ff" stroke="#63b8ff" points="566.13,-323.75 574.63,-330.08 571.93,-319.83 566.13,-323.75"/>
</a>
</g>
</g>
<!-- Node18 -->
<g id="Node000018" class="node">
<title>Node18</title>
<g id="a_Node000018"><a xlink:href="_fab_backend_8hpp.xhtml" target="_top" xlink:title=" ">
<polygon fill="white" stroke="#666666" points="623.8,-185 535.05,-185 535.05,-165.75 623.8,-165.75 623.8,-185"/>
<text text-anchor="middle" x="579.42" y="-171.5" font-family="Helvetica,sans-Serif" font-size="10.00">FabBackend.hpp</text>
</a>
</g>
</g>
<!-- Node15&#45;&gt;Node18 -->
<g id="edge47_Node000015_Node000018" class="edge">
<title>Node15&#45;&gt;Node18</title>
<g id="a_edge47_Node000015_Node000018"><a xlink:title=" ">
<path fill="none" stroke="#63b8ff" d="M590.55,-320.78C593.71,-313.09 596.85,-304.05 598.42,-295.5 605.97,-254.51 590.3,-205.26 582.95,-185.37"/>
<polygon fill="#63b8ff" stroke="#63b8ff" points="587.41,-319.23 586.56,-329.79 593.81,-322.07 587.41,-319.23"/>
</a>
</g>
</g>
<!-- Node24 -->
<g id="Node000024" class="node">
<title>Node24</title>
<g id="a_Node000024"><a xlink:href="_m_q_t_ttypes_8cpp.xhtml" target="_top" xlink:title=" ">
<polygon fill="white" stroke="#666666" points="482.92,-295.5 397.92,-295.5 397.92,-276.25 482.92,-276.25 482.92,-295.5"/>
<text text-anchor="middle" x="440.42" y="-282" font-family="Helvetica,sans-Serif" font-size="10.00">MQTTtypes.cpp</text>
</a>
</g>
</g>
<!-- Node15&#45;&gt;Node24 -->
<g id="edge48_Node000015_Node000024" class="edge">
<title>Node15&#45;&gt;Node24</title>
<g id="a_edge48_Node000015_Node000024"><a xlink:title=" ">
<path fill="none" stroke="#63b8ff" d="M546.79,-327.04C521.22,-317.39 487.09,-304.5 464.46,-295.95"/>
<polygon fill="#63b8ff" stroke="#63b8ff" points="545.5,-330.3 556.09,-330.56 547.97,-323.75 545.5,-330.3"/>
</a>
</g>
</g>
<!-- Node16&#45;&gt;Node13 -->
<g id="edge46_Node000016_Node000013" class="edge">
<title>Node16&#45;&gt;Node13</title>
<g id="a_edge46_Node000016_Node000013"><a xlink:title=" ">
<path fill="none" stroke="#63b8ff" d="M499.16,-271.74C482.75,-264.87 465.6,-254.78 454.42,-240.25 414.94,-188.93 430.09,-102.29 436.29,-74.64"/>
<polygon fill="#63b8ff" stroke="#63b8ff" points="497.77,-274.95 508.36,-275.25 500.27,-268.41 497.77,-274.95"/>
</a>
</g>
</g>
<!-- Node17 -->
<g id="Node000017" class="node">
<title>Node17</title>
<g id="a_Node000017"><a xlink:href="_buffered_msg_8cpp.xhtml" target="_top" xlink:title=" ">
<polygon fill="white" stroke="#666666" points="551.8,-240.25 463.05,-240.25 463.05,-221 551.8,-221 551.8,-240.25"/>
<text text-anchor="middle" x="507.42" y="-226.75" font-family="Helvetica,sans-Serif" font-size="10.00">BufferedMsg.cpp</text>
</a>
</g>
</g>
<!-- Node16&#45;&gt;Node17 -->
<g id="edge25_Node000016_Node000017" class="edge">
<title>Node16&#45;&gt;Node17</title>
<g id="a_edge25_Node000016_Node000017"><a xlink:title=" ">
<path fill="none" stroke="#63b8ff" d="M532.63,-266.94C526.31,-258.09 518.96,-247.79 513.84,-240.61"/>
<polygon fill="#63b8ff" stroke="#63b8ff" points="529.61,-268.74 538.27,-274.85 535.31,-264.68 529.61,-268.74"/>
</a>
</g>
</g>
<!-- Node16&#45;&gt;Node18 -->
<g id="edge26_Node000016_Node000018" class="edge">
<title>Node16&#45;&gt;Node18</title>
<g id="a_edge26_Node000016_Node000018"><a xlink:title=" ">
<path fill="none" stroke="#63b8ff" d="M552.22,-265.15C554.84,-257.41 557.83,-248.43 560.42,-240.25 566.64,-220.62 573.4,-197.41 576.94,-185.08"/>
<polygon fill="#63b8ff" stroke="#63b8ff" points="548.92,-263.99 548.99,-274.58 555.54,-266.25 548.92,-263.99"/>
</a>
</g>
</g>
<!-- Node22 -->
<g id="Node000022" class="node">
<title>Node22</title>
<g id="a_Node000022"><a xlink:href="_saved_config_8hpp.xhtml" target="_top" xlink:title=" ">
<polygon fill="white" stroke="#666666" points="733.8,-240.25 645.05,-240.25 645.05,-221 733.8,-221 733.8,-240.25"/>
<text text-anchor="middle" x="689.42" y="-226.75" font-family="Helvetica,sans-Serif" font-size="10.00">SavedConfig.hpp</text>
</a>
</g>
</g>
<!-- Node16&#45;&gt;Node22 -->
<g id="edge36_Node000016_Node000022" class="edge">
<title>Node16&#45;&gt;Node22</title>
<g id="a_edge36_Node000016_Node000022"><a xlink:title=" ">
<path fill="none" stroke="#63b8ff" d="M580.45,-271.92C606.59,-262.25 641.67,-249.29 664.88,-240.7"/>
<polygon fill="#63b8ff" stroke="#63b8ff" points="579.44,-268.57 571.27,-275.32 581.87,-275.13 579.44,-268.57"/>
</a>
</g>
</g>
<!-- Node18&#45;&gt;Node4 -->
<g id="edge29_Node000018_Node000004" class="edge">
<title>Node18&#45;&gt;Node4</title>
<g id="a_edge29_Node000018_Node000004"><a xlink:title=" ">
<path fill="none" stroke="#63b8ff" d="M567.11,-156.15C561.16,-147.36 554.3,-137.21 549.5,-130.11"/>
<polygon fill="#63b8ff" stroke="#63b8ff" points="564.13,-158 572.63,-164.33 569.93,-154.08 564.13,-158"/>
</a>
</g>
</g>
<!-- Node18&#45;&gt;Node5 -->
<g id="edge28_Node000018_Node000005" class="edge">
<title>Node18&#45;&gt;Node5</title>
<g id="a_edge28_Node000018_Node000005"><a xlink:title=" ">
<path fill="none" stroke="#63b8ff" d="M621.79,-162.15C668.71,-148.77 746.69,-127.03 814.42,-110.5 870.95,-96.71 936.73,-82.83 978.46,-74.3"/>
<polygon fill="#63b8ff" stroke="#63b8ff" points="620.95,-158.75 612.29,-164.86 622.87,-165.48 620.95,-158.75"/>
</a>
</g>
</g>
<!-- Node18&#45;&gt;Node7 -->
<g id="edge32_Node000018_Node000007" class="edge">
<title>Node18&#45;&gt;Node7</title>
<g id="a_edge32_Node000018_Node000007"><a xlink:title=" ">
<path fill="none" stroke="#63b8ff" d="M590.69,-155.97C600.22,-141.77 615.08,-122.57 632.42,-110.5 661.1,-90.54 699.6,-78.67 726.66,-72.26"/>
<polygon fill="#63b8ff" stroke="#63b8ff" points="587.74,-154.07 585.3,-164.38 593.64,-157.85 587.74,-154.07"/>
</a>
</g>
</g>
<!-- Node18&#45;&gt;Node11 -->
<g id="edge33_Node000018_Node000011" class="edge">
<title>Node18&#45;&gt;Node11</title>
<g id="a_edge33_Node000018_Node000011"><a xlink:title=" ">
<path fill="none" stroke="#63b8ff" d="M528.28,-162.37C501.97,-155.03 469.95,-144.23 443.42,-129.75 409.25,-111.09 397.05,-106.88 375.42,-74.5 363.86,-57.18 359.16,-32.64 357.4,-19.59"/>
<polygon fill="#63b8ff" stroke="#63b8ff" points="527.14,-165.69 537.71,-164.91 528.96,-158.93 527.14,-165.69"/>
</a>
</g>
</g>
<!-- Node18&#45;&gt;Node12 -->
<g id="edge34_Node000018_Node000012" class="edge">
<title>Node18&#45;&gt;Node12</title>
<g id="a_edge34_Node000018_Node000012"><a xlink:title=" ">
<path fill="none" stroke="#63b8ff" d="M523.68,-168.58C475.47,-162.44 404.43,-150.66 345.42,-129.75 304.98,-115.42 261.55,-88.94 240.07,-75"/>
<polygon fill="#63b8ff" stroke="#63b8ff" points="522.96,-172.02 533.31,-169.77 523.81,-165.07 522.96,-172.02"/>
</a>
</g>
</g>
<!-- Node18&#45;&gt;Node13 -->
<g id="edge35_Node000018_Node000013" class="edge">
<title>Node18&#45;&gt;Node13</title>
<g id="a_edge35_Node000018_Node000013"><a xlink:title=" ">
<path fill="none" stroke="#63b8ff" d="M523.92,-164.73C501.3,-158.25 476.51,-147.51 459.42,-129.75 444.69,-114.44 440.29,-88.62 438.98,-74.96"/>
<polygon fill="#63b8ff" stroke="#63b8ff" points="522.78,-168.05 533.34,-167.19 524.56,-161.28 522.78,-168.05"/>
</a>
</g>
</g>
<!-- Node19 -->
<g id="Node000019" class="node">
<title>Node19</title>
<g id="a_Node000019"><a xlink:href="_auth_provider_8cpp.xhtml" target="_top" xlink:title=" ">
<polygon fill="white" stroke="#666666" points="913.55,-129.75 823.3,-129.75 823.3,-110.5 913.55,-110.5 913.55,-129.75"/>
<text text-anchor="middle" x="868.42" y="-116.25" font-family="Helvetica,sans-Serif" font-size="10.00">AuthProvider.cpp</text>
</a>
</g>
</g>
<!-- Node18&#45;&gt;Node19 -->
<g id="edge27_Node000018_Node000019" class="edge">
<title>Node18&#45;&gt;Node19</title>
<g id="a_edge27_Node000018_Node000019"><a xlink:title=" ">
<path fill="none" stroke="#63b8ff" d="M635.49,-164.04C690.17,-153.97 772.29,-138.84 823,-129.49"/>
<polygon fill="#63b8ff" stroke="#63b8ff" points="634.95,-160.58 625.75,-165.84 636.22,-167.47 634.95,-160.58"/>
</a>
</g>
</g>
<!-- Node20 -->
<g id="Node000020" class="node">
<title>Node20</title>
<g id="a_Node000020"><a xlink:href="_fab_backend_8cpp.xhtml" target="_top" xlink:title=" ">
<polygon fill="white" stroke="#666666" points="729.8,-129.75 641.05,-129.75 641.05,-110.5 729.8,-110.5 729.8,-129.75"/>
<text text-anchor="middle" x="685.42" y="-116.25" font-family="Helvetica,sans-Serif" font-size="10.00">FabBackend.cpp</text>
</a>
</g>
</g>
<!-- Node18&#45;&gt;Node20 -->
<g id="edge30_Node000018_Node000020" class="edge">
<title>Node18&#45;&gt;Node20</title>
<g id="a_edge30_Node000018_Node000020"><a xlink:title=" ">
<path fill="none" stroke="#63b8ff" d="M607.56,-160.24C626.51,-150.72 650.96,-138.44 667.35,-130.2"/>
<polygon fill="#63b8ff" stroke="#63b8ff" points="606.12,-157.05 598.76,-164.66 609.27,-163.3 606.12,-157.05"/>
</a>
</g>
</g>
<!-- Node18&#45;&gt;Node21 -->
<g id="edge31_Node000018_Node000021" class="edge">
<title>Node18&#45;&gt;Node21</title>
<g id="a_edge31_Node000018_Node000021"><a xlink:title=" ">
<path fill="none" stroke="#63b8ff" d="M635.47,-170.6C781.22,-160.77 1164.83,-134.78 1222.42,-129.75 1237.68,-128.42 1254.51,-126.69 1268.93,-125.14"/>
<polygon fill="#63b8ff" stroke="#63b8ff" points="635.41,-167.1 625.67,-171.26 635.88,-174.08 635.41,-167.1"/>
</a>
</g>
</g>
<!-- Node22&#45;&gt;Node5 -->
<g id="edge37_Node000022_Node000005" class="edge">
<title>Node22&#45;&gt;Node5</title>
<g id="a_edge37_Node000022_Node000005"><a xlink:title=" ">
<path fill="none" stroke="#63b8ff" d="M745.58,-226.41C838.89,-220.48 1017.55,-206.46 1036.42,-185 1064.4,-153.19 1037.95,-96.92 1025.8,-74.99"/>
<polygon fill="#63b8ff" stroke="#63b8ff" points="745.37,-222.91 735.6,-227.03 745.8,-229.9 745.37,-222.91"/>
</a>
</g>
</g>
<!-- Node22&#45;&gt;Node7 -->
<g id="edge41_Node000022_Node000007" class="edge">
<title>Node22&#45;&gt;Node7</title>
<g id="a_edge41_Node000022_Node000007"><a xlink:title=" ">
<path fill="none" stroke="#63b8ff" d="M693.21,-209.5C696.18,-196.5 701.05,-179.51 708.42,-165.75 718.26,-147.39 728.33,-147.97 738.42,-129.75 748.5,-111.58 754.72,-87.79 757.57,-74.99"/>
<polygon fill="#63b8ff" stroke="#63b8ff" points="689.84,-208.52 691.24,-219.02 696.69,-209.94 689.84,-208.52"/>
</a>
</g>
</g>
<!-- Node22&#45;&gt;Node8 -->
<g id="edge42_Node000022_Node000008" class="edge">
<title>Node22&#45;&gt;Node8</title>
<g id="a_edge42_Node000022_Node000008"><a xlink:title=" ">
<path fill="none" stroke="#63b8ff" d="M745.49,-226.5C842.56,-220.55 1033.68,-206.26 1055.42,-185 1096.97,-144.38 1105.9,-102.02 1071.42,-55.25 1044.72,-19.01 988.89,-11.32 955.14,-10.18"/>
<polygon fill="#63b8ff" stroke="#63b8ff" points="745.42,-223 735.65,-227.09 745.84,-229.98 745.42,-223"/>
</a>
</g>
</g>
<!-- Node22&#45;&gt;Node11 -->
<g id="edge43_Node000022_Node000011" class="edge">
<title>Node22&#45;&gt;Node11</title>
<g id="a_edge43_Node000022_Node000011"><a xlink:title=" ">
<path fill="none" stroke="#63b8ff" d="M633.58,-226.77C571.15,-222.38 467.64,-211.48 382.42,-185 329.42,-168.53 319.08,-156.46 270.42,-129.75 228.95,-106.98 202.63,-115.73 179.42,-74.5 149.46,-21.26 257.72,-11.72 318.25,-10.44"/>
<polygon fill="#63b8ff" stroke="#63b8ff" points="633.02,-230.24 643.23,-227.42 633.49,-223.26 633.02,-230.24"/>
</a>
</g>
</g>
<!-- Node22&#45;&gt;Node12 -->
<g id="edge44_Node000022_Node000012" class="edge">
<title>Node22&#45;&gt;Node12</title>
<g id="a_edge44_Node000022_Node000012"><a xlink:title=" ">
<path fill="none" stroke="#63b8ff" d="M633.48,-224.16C555.01,-214.58 409.74,-189.72 301.42,-129.75 273.89,-114.51 247.19,-88.18 234.35,-74.57"/>
<polygon fill="#63b8ff" stroke="#63b8ff" points="632.71,-227.59 643.05,-225.29 633.53,-220.64 632.71,-227.59"/>
</a>
</g>
</g>
<!-- Node22&#45;&gt;Node13 -->
<g id="edge45_Node000022_Node000013" class="edge">
<title>Node22&#45;&gt;Node13</title>
<g id="a_edge45_Node000022_Node000013"><a xlink:title=" ">
<path fill="none" stroke="#63b8ff" d="M633.83,-219.05C601.59,-211.78 560.7,-200.61 526.42,-185 486.09,-166.64 465.86,-167.97 443.42,-129.75 433.29,-112.48 434.93,-87.92 436.81,-74.86"/>
<polygon fill="#63b8ff" stroke="#63b8ff" points="632.86,-222.42 643.38,-221.13 634.35,-215.58 632.86,-222.42"/>
</a>
</g>
</g>
<!-- Node22&#45;&gt;Node18 -->
<g id="edge39_Node000022_Node000018" class="edge">
<title>Node22&#45;&gt;Node18</title>
<g id="a_edge39_Node000022_Node000018"><a xlink:title=" ">
<path fill="none" stroke="#63b8ff" d="M660.5,-215.62C640.8,-206.08 615.27,-193.73 598.18,-185.45"/>
<polygon fill="#63b8ff" stroke="#63b8ff" points="658.88,-218.73 669.4,-219.93 661.93,-212.42 658.88,-218.73"/>
</a>
</g>
</g>
<!-- Node22&#45;&gt;Node20 -->
<g id="edge38_Node000022_Node000020" class="edge">
<title>Node22&#45;&gt;Node20</title>
<g id="a_edge38_Node000022_Node000020"><a xlink:title=" ">
<path fill="none" stroke="#63b8ff" d="M681.81,-209.87C679.24,-202.22 676.7,-193.32 675.42,-185 672.43,-165.47 678.28,-142.6 682.23,-130.22"/>
<polygon fill="#63b8ff" stroke="#63b8ff" points="678.48,-210.96 685.18,-219.17 685.06,-208.57 678.48,-210.96"/>
</a>
</g>
</g>
<!-- Node23 -->
<g id="Node000023" class="node">
<title>Node23</title>
<g id="a_Node000023"><a xlink:href="_saved_config_8cpp.xhtml" target="_top" xlink:title=" ">
<polygon fill="white" stroke="#666666" points="805.8,-185 717.05,-185 717.05,-165.75 805.8,-165.75 805.8,-185"/>
<text text-anchor="middle" x="761.42" y="-171.5" font-family="Helvetica,sans-Serif" font-size="10.00">SavedConfig.cpp</text>
</a>
</g>
</g>
<!-- Node22&#45;&gt;Node23 -->
<g id="edge40_Node000022_Node000023" class="edge">
<title>Node22&#45;&gt;Node23</title>
<g id="a_edge40_Node000022_Node000023"><a xlink:title=" ">
<path fill="none" stroke="#63b8ff" d="M710.6,-213.97C723.24,-204.62 738.83,-193.08 749.39,-185.27"/>
<polygon fill="#63b8ff" stroke="#63b8ff" points="708.81,-210.93 702.86,-219.69 712.98,-216.56 708.81,-210.93"/>
</a>
</g>
</g>
<!-- Node25&#45;&gt;Node4 -->
<g id="edge59_Node000025_Node000004" class="edge">
<title>Node25&#45;&gt;Node4</title>
<g id="a_edge59_Node000025_Node000004"><a xlink:title=" ">
<path fill="none" stroke="#63b8ff" d="M938,-217.49C911.23,-209.56 876.76,-198.23 847.42,-185 831.95,-178.02 830.4,-171.5 814.42,-165.75 773.1,-150.87 650.88,-134.29 585.62,-126.17"/>
<polygon fill="#63b8ff" stroke="#63b8ff" points="936.93,-220.82 947.51,-220.26 938.88,-214.1 936.93,-220.82"/>
</a>
</g>
</g>
<!-- Node25&#45;&gt;Node5 -->
<g id="edge58_Node000025_Node000005" class="edge">
<title>Node25&#45;&gt;Node5</title>
<g id="a_edge58_Node000025_Node000005"><a xlink:title=" ">
<path fill="none" stroke="#63b8ff" d="M1026.74,-228.22C1087.34,-223.47 1192.02,-204.35 1222.42,-129.75 1225.65,-121.83 1227.78,-117.17 1222.42,-110.5 1202.75,-86 1115.58,-74.14 1062.39,-69.09"/>
<polygon fill="#63b8ff" stroke="#63b8ff" points="1026.86,-224.7 1017.11,-228.87 1027.33,-231.69 1026.86,-224.7"/>
</a>
</g>
</g>
<!-- Node25&#45;&gt;Node7 -->
<g id="edge66_Node000025_Node000007" class="edge">
<title>Node25&#45;&gt;Node7</title>
<g id="a_edge66_Node000025_Node000007"><a xlink:title=" ">
<path fill="none" stroke="#63b8ff" d="M1009.45,-214.5C1019.9,-207.09 1030.71,-197.13 1036.42,-185 1054.54,-146.54 1014.26,-129.89 976.42,-110.5 944.59,-94.19 844.46,-78.02 792.09,-70.4"/>
<polygon fill="#63b8ff" stroke="#63b8ff" points="1007.85,-211.36 1001.37,-219.75 1011.67,-217.23 1007.85,-211.36"/>
</a>
</g>
</g>
<!-- Node25&#45;&gt;Node20 -->
<g id="edge60_Node000025_Node000020" class="edge">
<title>Node25&#45;&gt;Node20</title>
<g id="a_edge60_Node000025_Node000020"><a xlink:title=" ">
<path fill="none" stroke="#63b8ff" d="M955.66,-215.26C928.84,-201.28 886.1,-180.1 847.42,-165.75 806.95,-150.73 759.13,-138.16 725.98,-130.23"/>
<polygon fill="#63b8ff" stroke="#63b8ff" points="953.96,-218.33 964.44,-219.89 957.22,-212.13 953.96,-218.33"/>
</a>
</g>
</g>
<!-- Node25&#45;&gt;Node21 -->
<g id="edge61_Node000025_Node000021" class="edge">
<title>Node25&#45;&gt;Node21</title>
<g id="a_edge61_Node000025_Node000021"><a xlink:title=" ">
<path fill="none" stroke="#63b8ff" d="M1026.73,-226.35C1093.89,-220.73 1217.64,-207.61 1255.42,-185 1277.73,-171.65 1293.49,-143.98 1300.44,-129.85"/>
<polygon fill="#63b8ff" stroke="#63b8ff" points="1026.86,-222.83 1017.18,-227.13 1027.43,-229.8 1026.86,-222.83"/>
</a>
</g>
</g>
<!-- Node25&#45;&gt;Node23 -->
<g id="edge65_Node000025_Node000023" class="edge">
<title>Node25&#45;&gt;Node23</title>
<g id="a_edge65_Node000025_Node000023"><a xlink:title=" ">
<path fill="none" stroke="#63b8ff" d="M937.89,-218.9C897.12,-209.07 837.44,-194.69 799.01,-185.43"/>
<polygon fill="#63b8ff" stroke="#63b8ff" points="936.85,-222.24 947.39,-221.18 938.49,-215.44 936.85,-222.24"/>
</a>
</g>
</g>
<!-- Node26 -->
<g id="Node000026" class="node">
<title>Node26</title>
<g id="a_Node000026"><a xlink:href="_auth_provider_8hpp.xhtml" target="_top" xlink:title=" ">
<polygon fill="white" stroke="#666666" points="1027.55,-185 937.3,-185 937.3,-165.75 1027.55,-165.75 1027.55,-185"/>
<text text-anchor="middle" x="982.42" y="-171.5" font-family="Helvetica,sans-Serif" font-size="10.00">AuthProvider.hpp</text>
</a>
</g>
</g>
<!-- Node25&#45;&gt;Node26 -->
<g id="edge52_Node000025_Node000026" class="edge">
<title>Node25&#45;&gt;Node26</title>
<g id="a_edge52_Node000025_Node000026"><a xlink:title=" ">
<path fill="none" stroke="#63b8ff" d="M982.42,-209.38C982.42,-201.09 982.42,-191.92 982.42,-185.36"/>
<polygon fill="#63b8ff" stroke="#63b8ff" points="978.92,-209.32 982.42,-219.32 985.92,-209.32 978.92,-209.32"/>
</a>
</g>
</g>
<!-- Node27 -->
<g id="Node000027" class="node">
<title>Node27</title>
<g id="a_Node000027"><a xlink:href="_o_t_a_8hpp.xhtml" target="_top" xlink:title=" ">
<polygon fill="white" stroke="#666666" points="1213.55,-129.75 1159.3,-129.75 1159.3,-110.5 1213.55,-110.5 1213.55,-129.75"/>
<text text-anchor="middle" x="1186.42" y="-116.25" font-family="Helvetica,sans-Serif" font-size="10.00">OTA.hpp</text>
</a>
</g>
</g>
<!-- Node25&#45;&gt;Node27 -->
<g id="edge62_Node000025_Node000027" class="edge">
<title>Node25&#45;&gt;Node27</title>
<g id="a_edge62_Node000025_Node000027"><a xlink:title=" ">
<path fill="none" stroke="#63b8ff" d="M1027.08,-226.12C1062.15,-221.45 1110.69,-210.52 1145.42,-185 1164.96,-170.64 1177.6,-143.93 1183.16,-130.03"/>
<polygon fill="#63b8ff" stroke="#63b8ff" points="1026.76,-222.64 1017.25,-227.3 1027.6,-229.59 1026.76,-222.64"/>
</a>
</g>
</g>
<!-- Node26&#45;&gt;Node4 -->
<g id="edge55_Node000026_Node000004" class="edge">
<title>Node26&#45;&gt;Node4</title>
<g id="a_edge55_Node000026_Node000004"><a xlink:title=" ">
<path fill="none" stroke="#63b8ff" d="M925.84,-167.51C836.55,-156.68 664.96,-135.87 585.59,-126.24"/>
<polygon fill="#63b8ff" stroke="#63b8ff" points="925.25,-170.96 935.59,-168.69 926.09,-164.02 925.25,-170.96"/>
</a>
</g>
</g>
<!-- Node26&#45;&gt;Node5 -->
<g id="edge54_Node000026_Node000005" class="edge">
<title>Node26&#45;&gt;Node5</title>
<g id="a_edge54_Node000026_Node000005"><a xlink:title=" ">
<path fill="none" stroke="#63b8ff" d="M989.32,-154.68C997.61,-131.01 1011.17,-92.3 1017.27,-74.88"/>
<polygon fill="#63b8ff" stroke="#63b8ff" points="986.04,-153.47 986.03,-164.07 992.64,-155.79 986.04,-153.47"/>
</a>
</g>
</g>
<!-- Node26&#45;&gt;Node7 -->
<g id="edge56_Node000026_Node000007" class="edge">
<title>Node26&#45;&gt;Node7</title>
<g id="a_edge56_Node000026_Node000007"><a xlink:title=" ">
<path fill="none" stroke="#63b8ff" d="M978.95,-154.28C975.43,-140.01 968.56,-121.5 955.42,-110.5 930.95,-89.99 841.31,-76 792.18,-69.69"/>
<polygon fill="#63b8ff" stroke="#63b8ff" points="975.5,-154.87 980.94,-163.95 982.35,-153.45 975.5,-154.87"/>
</a>
</g>
</g>
<!-- Node26&#45;&gt;Node13 -->
<g id="edge57_Node000026_Node000013" class="edge">
<title>Node26&#45;&gt;Node13</title>
<g id="a_edge57_Node000026_Node000013"><a xlink:title=" ">
<path fill="none" stroke="#63b8ff" d="M925.67,-171.63C804.85,-165.43 530.09,-149.35 492.42,-129.75 468.47,-117.28 450.82,-89.21 442.96,-74.79"/>
<polygon fill="#63b8ff" stroke="#63b8ff" points="925.2,-175.11 935.36,-172.12 925.55,-168.12 925.2,-175.11"/>
</a>
</g>
</g>
<!-- Node26&#45;&gt;Node19 -->
<g id="edge53_Node000026_Node000019" class="edge">
<title>Node26&#45;&gt;Node19</title>
<g id="a_edge53_Node000026_Node000019"><a xlink:title=" ">
<path fill="none" stroke="#63b8ff" d="M952.74,-160.51C932.27,-150.95 905.66,-138.52 887.86,-130.2"/>
<polygon fill="#63b8ff" stroke="#63b8ff" points="951.17,-163.64 961.71,-164.7 954.14,-157.3 951.17,-163.64"/>
</a>
</g>
</g>
<!-- Node27&#45;&gt;Node6 -->
<g id="edge63_Node000027_Node000006" class="edge">
<title>Node27&#45;&gt;Node6</title>
<g id="a_edge63_Node000027_Node000006"><a xlink:title=" ">
<path fill="none" stroke="#63b8ff" d="M1147.94,-110.99C1147.09,-110.82 1146.26,-110.66 1145.42,-110.5 1061.17,-94.39 960.98,-77.87 913.71,-70.24"/>
<polygon fill="#63b8ff" stroke="#63b8ff" points="1147.13,-114.39 1157.62,-112.93 1148.51,-107.53 1147.13,-114.39"/>
</a>
</g>
</g>
<!-- Node27&#45;&gt;Node8 -->
<g id="edge64_Node000027_Node000008" class="edge">
<title>Node27&#45;&gt;Node8</title>
<g id="a_edge64_Node000027_Node000008"><a xlink:title=" ">
<path fill="none" stroke="#63b8ff" d="M1170.32,-102.49C1155.34,-87.95 1131.72,-67.33 1107.42,-55.25 1057.12,-30.23 991.76,-18.59 955.24,-13.71"/>
<polygon fill="#63b8ff" stroke="#63b8ff" points="1167.47,-104.58 1177.02,-109.17 1172.41,-99.63 1167.47,-104.58"/>
</a>
</g>
</g>
</g>
</svg>

<g id="navigator" transform="translate(0 0)" fill="#404254">
  <rect fill="#f2f5e9" fill-opacity="0.5" stroke="#606060" stroke-width=".5" x="0" y="0" width="60" height="60"/>
  <use id="zoomplus" xlink:href="#zoomPlus" x="17" y="9" onmousedown="handleZoom(evt,'in')"/>
  <use id="zoomminus" xlink:href="#zoomMin" x="42" y="9" onmousedown="handleZoom(evt,'out')"/>
  <use id="reset" xlink:href="#resetDef" x="30" y="36" onmousedown="handleReset()"/>
   <use id="arrowup" xlink:href="#arrowUp" x="0" y="0" onmousedown="handlePan(0,-1)"/>
  <use id="arrowright" xlink:href="#arrowRight" x="0" y="0" onmousedown="handlePan(1,0)"/>
  <use id="arrowdown" xlink:href="#arrowDown" x="0" y="0" onmousedown="handlePan(0,1)"/>
  <use id="arrowleft" xlink:href="#arrowLeft" x="0" y="0" onmousedown="handlePan(-1,0)"/>
</g>
<svg viewBox="0 0 15 15" width="100%" height="30px" preserveAspectRatio="xMaxYMin meet">
 <g id="arrow_out" transform="scale(0.3 0.3)">
  <a xlink:href="_machine_8hpp__dep__incl_org.svg" target="_base">
   <rect id="button" ry="5" rx="5" y="6" x="6" height="38" width="38"
        fill="#f2f5e9" fill-opacity="0.5" stroke="#606060" stroke-width="1.0"/>
   <path id="arrow"
     d="M 11.500037,31.436501 C 11.940474,20.09759 22.043105,11.32322 32.158766,21.979434 L 37.068811,17.246167 C 37.068811,17.246167 37.088388,32 37.088388,32 L 22.160133,31.978069 C 22.160133,31.978069 26.997745,27.140456 26.997745,27.140456 C 18.528582,18.264221 13.291696,25.230495 11.500037,31.436501 z"
     style="fill:#404040;"/>
  </a>
 </g>
</svg>

<style type='text/css'>
<![CDATA[
[data-mouse-over-selected='false'] { opacity: 0.7; }
[data-mouse-over-selected='true']  { opacity: 1.0; }
]]>
</style>
<script type="application/ecmascript"><![CDATA[
document.addEventListener('DOMContentLoaded', (event) => {
  highlightEdges();
  highlightAdjacentNodes();
});
]]></script>
</svg>
