<?xml version="1.0" encoding="UTF-8" standalone="no"?>
<!DOCTYPE svg PUBLIC "-//W3C//DTD SVG 1.1//EN"
 "http://www.w3.org/Graphics/SVG/1.1/DTD/svg11.dtd">
<!-- Generated by graphviz version 9.0.0 (20230911.1827)
 -->
<!-- Title: MachineConfig.hpp Pages: 1 -->
<!--zoomable 193 -->

<svg id="main" version="1.1" xmlns="http://www.w3.org/2000/svg" xmlns:xlink="http://www.w3.org/1999/xlink" xml:space="preserve" onload="init(evt)">
<style type="text/css"><![CDATA[
.node, .edge {opacity: 0.7;}
.node.selected, .edge.selected {opacity: 1;}
.edge:hover path { stroke: red; }
.edge:hover polygon { stroke: red; fill: red; }
]]></style>

<defs>
  <circle id="rim" cx="0" cy="0" r="7"/>
  <circle id="rim2" cx="0" cy="0" r="3.5"/>
  <g id="zoomPlus">
    <use xlink:href="#rim" fill="#404040"><set attributeName="fill" to="#808080" begin="zoomplus.mouseover" end="zoomplus.mouseout"/></use>
    <path d="M-4,0h8M0,-4v8" fill="none" stroke="white" stroke-width="1.5" pointer-events="none"/>
  </g>
  <g id="zoomMin">
    <use xlink:href="#rim" fill="#404040"><set attributeName="fill" to="#808080" begin="zoomminus.mouseover" end="zoomminus.mouseout"/></use>
    <path d="M-4,0h8" fill="none" stroke="white" stroke-width="1.5" pointer-events="none"/>
  </g>
  <g id="arrowUp" transform="translate(30 24)">
    <use xlink:href="#rim"/>
    <path pointer-events="none" fill="none" stroke="white" stroke-width="1.5" d="M0,-3.0v7 M-2.5,-0.5L0,-3.0L2.5,-0.5"/>
  </g>
  <g id="arrowRight" transform="rotate(90) translate(36 -43)">
    <use xlink:href="#rim"/>
    <path pointer-events="none" fill="none" stroke="white" stroke-width="1.5" d="M0,-3.0v7 M-2.5,-0.5L0,-3.0L2.5,-0.5"/>
  </g>
  <g id="arrowDown" transform="rotate(180) translate(-30 -48)">
    <use xlink:href="#rim"/>
    <path pointer-events="none" fill="none" stroke="white" stroke-width="1.5" d="M0,-3.0v7 M-2.5,-0.5L0,-3.0L2.5,-0.5"/>
  </g>
  <g id="arrowLeft" transform="rotate(270) translate(-36 17)">
    <use xlink:href="#rim"/>
    <path pointer-events="none" fill="none" stroke="white" stroke-width="1.5" d="M0,-3.0v7 M-2.5,-0.5L0,-3.0L2.5,-0.5"/>
  </g>
  <g id="resetDef">
    <use xlink:href="#rim2" fill="#404040"><set attributeName="fill" to="#808080" begin="reset.mouseover" end="reset.mouseout"/></use>
  </g>
</defs>
<script type="application/ecmascript">
var viewWidth = 522;
var viewHeight = 193;
var sectionId = 'dynsection-0';
</script>
<script type="application/ecmascript" xlink:href="svg.min.js"/>
<svg id="graph" class="graph">
<g id="viewport">
<title>MachineConfig.hpp</title>
<!-- Node1 -->
<g id="Node000001" class="node">
<title>Node1</title>
<g id="a_Node000001"><a xlink:title=" ">
<polygon fill="#999999" stroke="#666666" points="181.19,-185 83.44,-185 83.44,-165.75 181.19,-165.75 181.19,-185"/>
<text text-anchor="middle" x="132.32" y="-171.5" font-family="Helvetica,sans-Serif" font-size="10.00">MachineConfig.hpp</text>
</a>
</g>
</g>
<!-- Node2 -->
<g id="Node000002" class="node">
<title>Node2</title>
<g id="a_Node000002"><a xlink:title=" ">
<polygon fill="#e0e0e0" stroke="#999999" points="62.94,-74.5 17.69,-74.5 17.69,-55.25 62.94,-55.25 62.94,-74.5"/>
<text text-anchor="middle" x="40.32" y="-61" font-family="Helvetica,sans-Serif" font-size="10.00">chrono</text>
</a>
</g>
</g>
<!-- Node1&#45;&gt;Node2 -->
<g id="edge1_Node000001_Node000002" class="edge">
<title>Node1&#45;&gt;Node2</title>
<g id="a_edge1_Node000001_Node000002"><a xlink:title=" ">
<path fill="none" stroke="#63b8ff" d="M115.22,-165.31C101.62,-157.41 82.86,-144.85 70.32,-129.75 59.42,-116.63 51.51,-98.89 46.55,-85.43"/>
<polygon fill="#63b8ff" stroke="#63b8ff" points="50,-84.69 43.45,-76.37 43.37,-86.96 50,-84.69"/>
</a>
</g>
</g>
<!-- Node3 -->
<g id="Node000003" class="node">
<title>Node3</title>
<g id="a_Node000003"><a xlink:title=" ">
<polygon fill="#e0e0e0" stroke="#999999" points="181.94,-19.25 136.69,-19.25 136.69,0 181.94,0 181.94,-19.25"/>
<text text-anchor="middle" x="159.32" y="-5.75" font-family="Helvetica,sans-Serif" font-size="10.00">cstdint</text>
</a>
</g>
</g>
<!-- Node1&#45;&gt;Node3 -->
<g id="edge2_Node000001_Node000003" class="edge">
<title>Node1&#45;&gt;Node3</title>
<g id="a_edge2_Node000001_Node000003"><a xlink:title=" ">
<path fill="none" stroke="#63b8ff" d="M108.62,-165.25C63.66,-146.59 -26.53,-101.88 8.32,-55.25 35.07,-19.44 89.26,-11.17 124.91,-9.87"/>
<polygon fill="#63b8ff" stroke="#63b8ff" points="124.78,-13.37 134.71,-9.69 124.65,-6.37 124.78,-13.37"/>
</a>
</g>
</g>
<!-- Node4 -->
<g id="Node000004" class="node">
<title>Node4</title>
<g id="a_Node000004"><a xlink:title=" ">
<polygon fill="#e0e0e0" stroke="#999999" points="257.32,-74.5 217.32,-74.5 217.32,-55.25 257.32,-55.25 257.32,-74.5"/>
<text text-anchor="middle" x="237.32" y="-61" font-family="Helvetica,sans-Serif" font-size="10.00">string</text>
</a>
</g>
</g>
<!-- Node1&#45;&gt;Node4 -->
<g id="edge3_Node000001_Node000004" class="edge">
<title>Node1&#45;&gt;Node4</title>
<g id="a_edge3_Node000001_Node000004"><a xlink:title=" ">
<path fill="none" stroke="#63b8ff" d="M140.91,-165.5C158.37,-147.46 198.25,-106.25 220.87,-82.88"/>
<polygon fill="#63b8ff" stroke="#63b8ff" points="223.12,-85.58 227.56,-75.96 218.09,-80.72 223.12,-85.58"/>
</a>
</g>
</g>
<!-- Node5 -->
<g id="Node000005" class="node">
<title>Node5</title>
<g id="a_Node000005"><a xlink:href="pins_8hpp.xhtml" target="_top" xlink:title=" ">
<polygon fill="white" stroke="#666666" points="391.32,-129.75 339.32,-129.75 339.32,-110.5 391.32,-110.5 391.32,-129.75"/>
<text text-anchor="middle" x="365.32" y="-116.25" font-family="Helvetica,sans-Serif" font-size="10.00">pins.hpp</text>
</a>
</g>
</g>
<!-- Node1&#45;&gt;Node5 -->
<g id="edge4_Node000001_Node000005" class="edge">
<title>Node1&#45;&gt;Node5</title>
<g id="a_edge4_Node000001_Node000005"><a xlink:title=" ">
<path fill="none" stroke="#63b8ff" d="M172.11,-165.28C215.8,-155.3 285.42,-139.39 328.07,-129.64"/>
<polygon fill="#63b8ff" stroke="#63b8ff" points="328.64,-133.1 337.61,-127.46 327.08,-126.27 328.64,-133.1"/>
</a>
</g>
</g>
<!-- Node9 -->
<g id="Node000009" class="node">
<title>Node9</title>
<g id="a_Node000009"><a xlink:href="_machine_i_d_8hpp.xhtml" target="_top" xlink:title=" ">
<polygon fill="white" stroke="#666666" points="199.57,-74.5 119.07,-74.5 119.07,-55.25 199.57,-55.25 199.57,-74.5"/>
<text text-anchor="middle" x="159.32" y="-61" font-family="Helvetica,sans-Serif" font-size="10.00">MachineID.hpp</text>
</a>
</g>
</g>
<!-- Node1&#45;&gt;Node9 -->
<g id="edge10_Node000001_Node000009" class="edge">
<title>Node1&#45;&gt;Node9</title>
<g id="a_edge10_Node000001_Node000009"><a xlink:title=" ">
<path fill="none" stroke="#63b8ff" d="M134.53,-165.5C138.84,-148.17 148.47,-109.48 154.38,-85.74"/>
<polygon fill="#63b8ff" stroke="#63b8ff" points="157.7,-86.89 156.71,-76.35 150.9,-85.2 157.7,-86.89"/>
</a>
</g>
</g>
<!-- Node10 -->
<g id="Node000010" class="node">
<title>Node10</title>
<g id="a_Node000010"><a xlink:href="conf_8hpp.xhtml" target="_top" xlink:title=" ">
<polygon fill="white" stroke="#666666" points="131.69,-129.75 78.94,-129.75 78.94,-110.5 131.69,-110.5 131.69,-129.75"/>
<text text-anchor="middle" x="105.32" y="-116.25" font-family="Helvetica,sans-Serif" font-size="10.00">conf.hpp</text>
</a>
</g>
</g>
<!-- Node1&#45;&gt;Node10 -->
<g id="edge12_Node000001_Node000010" class="edge">
<title>Node1&#45;&gt;Node10</title>
<g id="a_edge12_Node000001_Node000010"><a xlink:title=" ">
<path fill="none" stroke="#63b8ff" d="M127.86,-165.58C124.36,-158.69 119.37,-148.84 114.97,-140.16"/>
<polygon fill="#63b8ff" stroke="#63b8ff" points="118.2,-138.8 110.56,-131.46 111.96,-141.96 118.2,-138.8"/>
</a>
</g>
</g>
<!-- Node5&#45;&gt;Node3 -->
<g id="edge5_Node000005_Node000003" class="edge">
<title>Node5&#45;&gt;Node3</title>
<g id="a_edge5_Node000005_Node000003"><a xlink:title=" ">
<path fill="none" stroke="#63b8ff" d="M372.95,-110.31C383.51,-97.02 399.82,-71.66 386.32,-55.25 362.32,-26.07 251.01,-15.68 193.67,-12.22"/>
<polygon fill="#63b8ff" stroke="#63b8ff" points="194,-8.73 183.82,-11.67 193.61,-15.72 194,-8.73"/>
</a>
</g>
</g>
<!-- Node6 -->
<g id="Node000006" class="node">
<title>Node6</title>
<g id="a_Node000006"><a xlink:title=" ">
<polygon fill="#e0e0e0" stroke="#999999" points="377.07,-74.5 275.57,-74.5 275.57,-55.25 377.07,-55.25 377.07,-74.5"/>
<text text-anchor="middle" x="326.32" y="-61" font-family="Helvetica,sans-Serif" font-size="10.00">Adafruit_NeoPixel.h</text>
</a>
</g>
</g>
<!-- Node5&#45;&gt;Node6 -->
<g id="edge6_Node000005_Node000006" class="edge">
<title>Node5&#45;&gt;Node6</title>
<g id="a_edge6_Node000005_Node000006"><a xlink:title=" ">
<path fill="none" stroke="#63b8ff" d="M358.88,-110.33C353.66,-103.21 346.13,-92.93 339.63,-84.05"/>
<polygon fill="#63b8ff" stroke="#63b8ff" points="342.53,-82.08 333.79,-76.08 336.88,-86.22 342.53,-82.08"/>
</a>
</g>
</g>
<!-- Node7 -->
<g id="Node000007" class="node">
<title>Node7</title>
<g id="a_Node000007"><a xlink:href="_pins_config_8hpp.xhtml" target="_top" xlink:title=" ">
<polygon fill="white" stroke="#666666" points="513.57,-74.5 433.07,-74.5 433.07,-55.25 513.57,-55.25 513.57,-74.5"/>
<text text-anchor="middle" x="473.32" y="-61" font-family="Helvetica,sans-Serif" font-size="10.00">PinsConfig.hpp</text>
</a>
</g>
</g>
<!-- Node5&#45;&gt;Node7 -->
<g id="edge7_Node000005_Node000007" class="edge">
<title>Node5&#45;&gt;Node7</title>
<g id="a_edge7_Node000005_Node000007"><a xlink:title=" ">
<path fill="none" stroke="#63b8ff" d="M383.64,-110.09C400.4,-101.83 425.45,-89.48 444.82,-79.93"/>
<polygon fill="#63b8ff" stroke="#63b8ff" points="446.13,-83.18 453.55,-75.62 443.03,-76.9 446.13,-83.18"/>
</a>
</g>
</g>
<!-- Node7&#45;&gt;Node3 -->
<g id="edge8_Node000007_Node000003" class="edge">
<title>Node7&#45;&gt;Node3</title>
<g id="a_edge8_Node000007_Node000003"><a xlink:title=" ">
<path fill="none" stroke="#63b8ff" d="M432.59,-56.97C370.03,-46.36 251.42,-26.24 193.24,-16.38"/>
<polygon fill="#63b8ff" stroke="#63b8ff" points="194.05,-12.96 183.6,-14.74 192.88,-19.87 194.05,-12.96"/>
</a>
</g>
</g>
<!-- Node8 -->
<g id="Node000008" class="node">
<title>Node8</title>
<g id="a_Node000008"><a xlink:title=" ">
<polygon fill="#e0e0e0" stroke="#999999" points="491.82,-19.25 454.82,-19.25 454.82,0 491.82,0 491.82,-19.25"/>
<text text-anchor="middle" x="473.32" y="-5.75" font-family="Helvetica,sans-Serif" font-size="10.00">array</text>
</a>
</g>
</g>
<!-- Node7&#45;&gt;Node8 -->
<g id="edge9_Node000007_Node000008" class="edge">
<title>Node7&#45;&gt;Node8</title>
<g id="a_edge9_Node000007_Node000008"><a xlink:title=" ">
<path fill="none" stroke="#63b8ff" d="M473.32,-55.08C473.32,-48.57 473.32,-39.42 473.32,-31.12"/>
<polygon fill="#63b8ff" stroke="#63b8ff" points="476.82,-31.12 473.32,-21.12 469.82,-31.12 476.82,-31.12"/>
</a>
</g>
</g>
<!-- Node9&#45;&gt;Node3 -->
<g id="edge11_Node000009_Node000003" class="edge">
<title>Node9&#45;&gt;Node3</title>
<g id="a_edge11_Node000009_Node000003"><a xlink:title=" ">
<path fill="none" stroke="#63b8ff" d="M159.32,-55.08C159.32,-48.57 159.32,-39.42 159.32,-31.12"/>
<polygon fill="#63b8ff" stroke="#63b8ff" points="162.82,-31.12 159.32,-21.12 155.82,-31.12 162.82,-31.12"/>
</a>
</g>
</g>
<!-- Node10&#45;&gt;Node2 -->
<g id="edge15_Node000010_Node000002" class="edge">
<title>Node10&#45;&gt;Node2</title>
<g id="a_edge15_Node000010_Node000002"><a xlink:title=" ">
<path fill="none" stroke="#63b8ff" d="M94.29,-110.09C84.9,-102.4 71.17,-91.15 59.91,-81.93"/>
<polygon fill="#63b8ff" stroke="#63b8ff" points="62.31,-79.36 52.35,-75.73 57.87,-84.78 62.31,-79.36"/>
</a>
</g>
</g>
<!-- Node10&#45;&gt;Node3 -->
<g id="edge13_Node000010_Node000003" class="edge">
<title>Node10&#45;&gt;Node3</title>
<g id="a_edge13_Node000010_Node000003"><a xlink:title=" ">
<path fill="none" stroke="#63b8ff" d="M104.05,-110.33C102.62,-97.51 101.52,-73.23 110.32,-55.25 115.93,-43.78 125.89,-33.86 135.37,-26.32"/>
<polygon fill="#63b8ff" stroke="#63b8ff" points="137.32,-29.23 143.29,-20.48 133.17,-23.59 137.32,-29.23"/>
</a>
</g>
</g>
<!-- Node10&#45;&gt;Node4 -->
<g id="edge14_Node000010_Node000004" class="edge">
<title>Node10&#45;&gt;Node4</title>
<g id="a_edge14_Node000010_Node000004"><a xlink:title=" ">
<path fill="none" stroke="#63b8ff" d="M127.71,-110.09C149.4,-101.34 182.46,-88.01 206.6,-78.27"/>
<polygon fill="#63b8ff" stroke="#63b8ff" points="207.62,-81.63 215.58,-74.64 205,-75.14 207.62,-81.63"/>
</a>
</g>
</g>
<!-- Node10&#45;&gt;Node9 -->
<g id="edge16_Node000010_Node000009" class="edge">
<title>Node10&#45;&gt;Node9</title>
<g id="a_edge16_Node000010_Node000009"><a xlink:title=" ">
<path fill="none" stroke="#63b8ff" d="M114.24,-110.33C121.77,-102.9 132.79,-92.04 142.04,-82.91"/>
<polygon fill="#63b8ff" stroke="#63b8ff" points="144.47,-85.44 149.13,-75.92 139.55,-80.45 144.47,-85.44"/>
</a>
</g>
</g>
</g>
</svg>

<g id="navigator" transform="translate(0 0)" fill="#404254">
  <rect fill="#f2f5e9" fill-opacity="0.5" stroke="#606060" stroke-width=".5" x="0" y="0" width="60" height="60"/>
  <use id="zoomplus" xlink:href="#zoomPlus" x="17" y="9" onmousedown="handleZoom(evt,'in')"/>
  <use id="zoomminus" xlink:href="#zoomMin" x="42" y="9" onmousedown="handleZoom(evt,'out')"/>
  <use id="reset" xlink:href="#resetDef" x="30" y="36" onmousedown="handleReset()"/>
   <use id="arrowup" xlink:href="#arrowUp" x="0" y="0" onmousedown="handlePan(0,-1)"/>
  <use id="arrowright" xlink:href="#arrowRight" x="0" y="0" onmousedown="handlePan(1,0)"/>
  <use id="arrowdown" xlink:href="#arrowDown" x="0" y="0" onmousedown="handlePan(0,1)"/>
  <use id="arrowleft" xlink:href="#arrowLeft" x="0" y="0" onmousedown="handlePan(-1,0)"/>
</g>
<svg viewBox="0 0 15 15" width="100%" height="30px" preserveAspectRatio="xMaxYMin meet">
 <g id="arrow_out" transform="scale(0.3 0.3)">
  <a xlink:href="_machine_config_8hpp__incl_org.svg" target="_base">
   <rect id="button" ry="5" rx="5" y="6" x="6" height="38" width="38"
        fill="#f2f5e9" fill-opacity="0.5" stroke="#606060" stroke-width="1.0"/>
   <path id="arrow"
     d="M 11.500037,31.436501 C 11.940474,20.09759 22.043105,11.32322 32.158766,21.979434 L 37.068811,17.246167 C 37.068811,17.246167 37.088388,32 37.088388,32 L 22.160133,31.978069 C 22.160133,31.978069 26.997745,27.140456 26.997745,27.140456 C 18.528582,18.264221 13.291696,25.230495 11.500037,31.436501 z"
     style="fill:#404040;"/>
  </a>
 </g>
</svg>

<style type='text/css'>
<![CDATA[
[data-mouse-over-selected='false'] { opacity: 0.7; }
[data-mouse-over-selected='true']  { opacity: 1.0; }
]]>
</style>
<script type="application/ecmascript"><![CDATA[
document.addEventListener('DOMContentLoaded', (event) => {
  highlightEdges();
  highlightAdjacentNodes();
});
]]></script>
</svg>
