<?xml version="1.0" encoding="UTF-8" standalone="no"?>
<!DOCTYPE svg PUBLIC "-//W3C//DTD SVG 1.1//EN"
 "http://www.w3.org/Graphics/SVG/1.1/DTD/svg11.dtd">
<!-- Generated by graphviz version 9.0.0 (20230911.1827)
 -->
<!-- Title: Machine.hpp Pages: 1 -->
<!--zoomable 304 -->

<svg id="main" version="1.1" xmlns="http://www.w3.org/2000/svg" xmlns:xlink="http://www.w3.org/1999/xlink" xml:space="preserve" onload="init(evt)">
<style type="text/css"><![CDATA[
.node, .edge {opacity: 0.7;}
.node.selected, .edge.selected {opacity: 1;}
.edge:hover path { stroke: red; }
.edge:hover polygon { stroke: red; fill: red; }
]]></style>

<defs>
  <circle id="rim" cx="0" cy="0" r="7"/>
  <circle id="rim2" cx="0" cy="0" r="3.5"/>
  <g id="zoomPlus">
    <use xlink:href="#rim" fill="#404040"><set attributeName="fill" to="#808080" begin="zoomplus.mouseover" end="zoomplus.mouseout"/></use>
    <path d="M-4,0h8M0,-4v8" fill="none" stroke="white" stroke-width="1.5" pointer-events="none"/>
  </g>
  <g id="zoomMin">
    <use xlink:href="#rim" fill="#404040"><set attributeName="fill" to="#808080" begin="zoomminus.mouseover" end="zoomminus.mouseout"/></use>
    <path d="M-4,0h8" fill="none" stroke="white" stroke-width="1.5" pointer-events="none"/>
  </g>
  <g id="arrowUp" transform="translate(30 24)">
    <use xlink:href="#rim"/>
    <path pointer-events="none" fill="none" stroke="white" stroke-width="1.5" d="M0,-3.0v7 M-2.5,-0.5L0,-3.0L2.5,-0.5"/>
  </g>
  <g id="arrowRight" transform="rotate(90) translate(36 -43)">
    <use xlink:href="#rim"/>
    <path pointer-events="none" fill="none" stroke="white" stroke-width="1.5" d="M0,-3.0v7 M-2.5,-0.5L0,-3.0L2.5,-0.5"/>
  </g>
  <g id="arrowDown" transform="rotate(180) translate(-30 -48)">
    <use xlink:href="#rim"/>
    <path pointer-events="none" fill="none" stroke="white" stroke-width="1.5" d="M0,-3.0v7 M-2.5,-0.5L0,-3.0L2.5,-0.5"/>
  </g>
  <g id="arrowLeft" transform="rotate(270) translate(-36 17)">
    <use xlink:href="#rim"/>
    <path pointer-events="none" fill="none" stroke="white" stroke-width="1.5" d="M0,-3.0v7 M-2.5,-0.5L0,-3.0L2.5,-0.5"/>
  </g>
  <g id="resetDef">
    <use xlink:href="#rim2" fill="#404040"><set attributeName="fill" to="#808080" begin="reset.mouseover" end="reset.mouseout"/></use>
  </g>
</defs>
<script type="application/ecmascript">
var viewWidth = 1003;
var viewHeight = 304;
var sectionId = 'dynsection-0';
</script>
<script type="application/ecmascript" xlink:href="svg.min.js"/>
<svg id="graph" class="graph">
<g id="viewport">
<title>Machine.hpp</title>
<!-- Node1 -->
<g id="Node000001" class="node">
<title>Node1</title>
<g id="a_Node000001"><a xlink:title=" ">
<polygon fill="#999999" stroke="#666666" points="633.38,-295.5 562.62,-295.5 562.62,-276.25 633.38,-276.25 633.38,-295.5"/>
<text text-anchor="middle" x="598" y="-282" font-family="Helvetica,sans-Serif" font-size="10.00">Machine.hpp</text>
</a>
</g>
</g>
<!-- Node2 -->
<g id="Node000002" class="node">
<title>Node2</title>
<g id="a_Node000002"><a xlink:href="_fab_user_8hpp.xhtml" target="_top" xlink:title=" ">
<polygon fill="white" stroke="#666666" points="455.75,-240.25 384.25,-240.25 384.25,-221 455.75,-221 455.75,-240.25"/>
<text text-anchor="middle" x="420" y="-226.75" font-family="Helvetica,sans-Serif" font-size="10.00">FabUser.hpp</text>
</a>
</g>
</g>
<!-- Node1&#45;&gt;Node2 -->
<g id="edge1_Node000001_Node000002" class="edge">
<title>Node1&#45;&gt;Node2</title>
<g id="a_edge1_Node000001_Node000002"><a xlink:title=" ">
<path fill="none" stroke="#63b8ff" d="M567.8,-275.84C538.52,-267.08 493.88,-253.73 461.31,-243.98"/>
<polygon fill="#63b8ff" stroke="#63b8ff" points="462.38,-240.65 451.79,-241.14 460.37,-247.36 462.38,-240.65"/>
</a>
</g>
</g>
<!-- Node8 -->
<g id="Node000008" class="node">
<title>Node8</title>
<g id="a_Node000008"><a xlink:title=" ">
<polygon fill="#e0e0e0" stroke="#999999" points="543.62,-19.25 498.38,-19.25 498.38,0 543.62,0 543.62,-19.25"/>
<text text-anchor="middle" x="521" y="-5.75" font-family="Helvetica,sans-Serif" font-size="10.00">cstdint</text>
</a>
</g>
</g>
<!-- Node1&#45;&gt;Node8 -->
<g id="edge39_Node000001_Node000008" class="edge">
<title>Node1&#45;&gt;Node8</title>
<g id="a_edge39_Node000001_Node000008"><a xlink:title=" ">
<path fill="none" stroke="#63b8ff" d="M562.38,-282.21C433.64,-272.13 0,-233.88 0,-176.38 0,-176.38 0,-176.38 0,-119.12 0,-19.41 370.43,-10.71 486.59,-10.44"/>
<polygon fill="#63b8ff" stroke="#63b8ff" points="486.43,-13.94 496.43,-10.44 486.43,-6.94 486.43,-13.94"/>
</a>
</g>
</g>
<!-- Node10 -->
<g id="Node000010" class="node">
<title>Node10</title>
<g id="a_Node000010"><a xlink:title=" ">
<polygon fill="#e0e0e0" stroke="#999999" points="594.62,-74.5 549.38,-74.5 549.38,-55.25 594.62,-55.25 594.62,-74.5"/>
<text text-anchor="middle" x="572" y="-61" font-family="Helvetica,sans-Serif" font-size="10.00">chrono</text>
</a>
</g>
</g>
<!-- Node1&#45;&gt;Node10 -->
<g id="edge38_Node000001_Node000010" class="edge">
<title>Node1&#45;&gt;Node10</title>
<g id="a_edge38_Node000001_Node000010"><a xlink:title=" ">
<path fill="none" stroke="#63b8ff" d="M596.95,-276.02C593.12,-243.76 579.85,-132.01 574.38,-85.96"/>
<polygon fill="#63b8ff" stroke="#63b8ff" points="577.87,-85.62 573.21,-76.1 570.92,-86.45 577.87,-85.62"/>
</a>
</g>
</g>
<!-- Node14 -->
<g id="Node000014" class="node">
<title>Node14</title>
<g id="a_Node000014"><a xlink:title=" ">
<polygon fill="#e0e0e0" stroke="#999999" points="935.5,-19.25 898.5,-19.25 898.5,0 935.5,0 935.5,-19.25"/>
<text text-anchor="middle" x="917" y="-5.75" font-family="Helvetica,sans-Serif" font-size="10.00">array</text>
</a>
</g>
</g>
<!-- Node1&#45;&gt;Node14 -->
<g id="edge37_Node000001_Node000014" class="edge">
<title>Node1&#45;&gt;Node14</title>
<g id="a_edge37_Node000001_Node000014"><a xlink:title=" ">
<path fill="none" stroke="#63b8ff" d="M633.66,-280.44C716.91,-269.1 917,-235.68 917,-176.38 917,-176.38 917,-176.38 917,-119.12 917,-88.41 917,-52.8 917,-30.99"/>
<polygon fill="#63b8ff" stroke="#63b8ff" points="920.5,-31.14 917,-21.14 913.5,-31.14 920.5,-31.14"/>
</a>
</g>
</g>
<!-- Node15 -->
<g id="Node000015" class="node">
<title>Node15</title>
<g id="a_Node000015"><a xlink:href="_machine_config_8hpp.xhtml" target="_top" xlink:title=" ">
<polygon fill="white" stroke="#666666" points="569.88,-185 472.12,-185 472.12,-165.75 569.88,-165.75 569.88,-185"/>
<text text-anchor="middle" x="521" y="-171.5" font-family="Helvetica,sans-Serif" font-size="10.00">MachineConfig.hpp</text>
</a>
</g>
</g>
<!-- Node1&#45;&gt;Node15 -->
<g id="edge20_Node000001_Node000015" class="edge">
<title>Node1&#45;&gt;Node15</title>
<g id="a_edge20_Node000001_Node000015"><a xlink:title=" ">
<path fill="none" stroke="#63b8ff" d="M591.7,-276C579.12,-258.27 550.68,-218.19 533.95,-194.63"/>
<polygon fill="#63b8ff" stroke="#63b8ff" points="536.91,-192.74 528.26,-186.61 531.2,-196.79 536.91,-192.74"/>
</a>
</g>
</g>
<!-- Node19 -->
<g id="Node000019" class="node">
<title>Node19</title>
<g id="a_Node000019"><a xlink:href="_tasks_8hpp.xhtml" target="_top" xlink:title=" ">
<polygon fill="white" stroke="#666666" points="762.5,-185 701.5,-185 701.5,-165.75 762.5,-165.75 762.5,-185"/>
<text text-anchor="middle" x="732" y="-171.5" font-family="Helvetica,sans-Serif" font-size="10.00">Tasks.hpp</text>
</a>
</g>
</g>
<!-- Node1&#45;&gt;Node19 -->
<g id="edge32_Node000001_Node000019" class="edge">
<title>Node1&#45;&gt;Node19</title>
<g id="a_edge32_Node000001_Node000019"><a xlink:title=" ">
<path fill="none" stroke="#63b8ff" d="M608.97,-276C631.54,-257.72 683.49,-215.65 712.14,-192.46"/>
<polygon fill="#63b8ff" stroke="#63b8ff" points="714.14,-195.34 719.71,-186.33 709.73,-189.9 714.14,-195.34"/>
</a>
</g>
</g>
<!-- Node22 -->
<g id="Node000022" class="node">
<title>Node22</title>
<g id="a_Node000022"><a xlink:title=" ">
<polygon fill="#e0e0e0" stroke="#999999" points="994.88,-240.25 945.12,-240.25 945.12,-221 994.88,-221 994.88,-240.25"/>
<text text-anchor="middle" x="970" y="-226.75" font-family="Helvetica,sans-Serif" font-size="10.00">optional</text>
</a>
</g>
</g>
<!-- Node1&#45;&gt;Node22 -->
<g id="edge40_Node000001_Node000022" class="edge">
<title>Node1&#45;&gt;Node22</title>
<g id="a_edge40_Node000001_Node000022"><a xlink:title=" ">
<path fill="none" stroke="#63b8ff" d="M633.64,-281.1C694.73,-274.4 823.31,-259.34 931,-240.25 931.99,-240.08 932.98,-239.89 933.99,-239.7"/>
<polygon fill="#63b8ff" stroke="#63b8ff" points="934.29,-243.21 943.4,-237.81 932.91,-236.35 934.29,-243.21"/>
</a>
</g>
</g>
<!-- Node3 -->
<g id="Node000003" class="node">
<title>Node3</title>
<g id="a_Node000003"><a xlink:title=" ">
<polygon fill="#e0e0e0" stroke="#999999" points="379.25,-129.75 322.75,-129.75 322.75,-110.5 379.25,-110.5 379.25,-129.75"/>
<text text-anchor="middle" x="351" y="-116.25" font-family="Helvetica,sans-Serif" font-size="10.00">Arduino.h</text>
</a>
</g>
</g>
<!-- Node2&#45;&gt;Node3 -->
<g id="edge2_Node000002_Node000003" class="edge">
<title>Node2&#45;&gt;Node3</title>
<g id="a_edge2_Node000002_Node000003"><a xlink:title=" ">
<path fill="none" stroke="#63b8ff" d="M414.35,-220.75C403.13,-203.1 377.82,-163.3 362.81,-139.7"/>
<polygon fill="#63b8ff" stroke="#63b8ff" points="365.86,-137.96 357.54,-131.4 359.95,-141.72 365.86,-137.96"/>
</a>
</g>
</g>
<!-- Node4 -->
<g id="Node000004" class="node">
<title>Node4</title>
<g id="a_Node000004"><a xlink:href="card_8hpp.xhtml" target="_top" xlink:title=" ">
<polygon fill="white" stroke="#666666" points="271.38,-185 218.62,-185 218.62,-165.75 271.38,-165.75 271.38,-185"/>
<text text-anchor="middle" x="245" y="-171.5" font-family="Helvetica,sans-Serif" font-size="10.00">card.hpp</text>
</a>
</g>
</g>
<!-- Node2&#45;&gt;Node4 -->
<g id="edge3_Node000002_Node000004" class="edge">
<title>Node2&#45;&gt;Node4</title>
<g id="a_edge3_Node000002_Node000004"><a xlink:title=" ">
<path fill="none" stroke="#63b8ff" d="M390.31,-220.59C360.57,-211.54 314.69,-197.58 282.46,-187.77"/>
<polygon fill="#63b8ff" stroke="#63b8ff" points="283.71,-184.49 273.12,-184.93 281.67,-191.19 283.71,-184.49"/>
</a>
</g>
</g>
<!-- Node5 -->
<g id="Node000005" class="node">
<title>Node5</title>
<g id="a_Node000005"><a xlink:title=" ">
<polygon fill="#e0e0e0" stroke="#999999" points="79.62,-129.75 28.38,-129.75 28.38,-110.5 79.62,-110.5 79.62,-129.75"/>
<text text-anchor="middle" x="54" y="-116.25" font-family="Helvetica,sans-Serif" font-size="10.00">sstream</text>
</a>
</g>
</g>
<!-- Node2&#45;&gt;Node5 -->
<g id="edge18_Node000002_Node000005" class="edge">
<title>Node2&#45;&gt;Node5</title>
<g id="a_edge18_Node000002_Node000005"><a xlink:title=" ">
<path fill="none" stroke="#63b8ff" d="M383.83,-223.97C341.58,-216.9 269.84,-203.45 210,-185 164.47,-170.96 113.76,-148.95 82.87,-134.78"/>
<polygon fill="#63b8ff" stroke="#63b8ff" points="84.73,-131.78 74.18,-130.75 81.79,-138.13 84.73,-131.78"/>
</a>
</g>
</g>
<!-- Node7 -->
<g id="Node000007" class="node">
<title>Node7</title>
<g id="a_Node000007"><a xlink:href="conf_8hpp.xhtml" target="_top" xlink:title=" ">
<polygon fill="white" stroke="#666666" points="304.38,-129.75 251.62,-129.75 251.62,-110.5 304.38,-110.5 304.38,-129.75"/>
<text text-anchor="middle" x="278" y="-116.25" font-family="Helvetica,sans-Serif" font-size="10.00">conf.hpp</text>
</a>
</g>
</g>
<!-- Node2&#45;&gt;Node7 -->
<g id="edge15_Node000002_Node000007" class="edge">
<title>Node2&#45;&gt;Node7</title>
<g id="a_edge15_Node000002_Node000007"><a xlink:title=" ">
<path fill="none" stroke="#63b8ff" d="M408.38,-220.75C384.35,-202.39 328.93,-160.04 298.65,-136.91"/>
<polygon fill="#63b8ff" stroke="#63b8ff" points="301.05,-134.34 290.98,-131.05 296.8,-139.9 301.05,-134.34"/>
</a>
</g>
</g>
<!-- Node2&#45;&gt;Node8 -->
<g id="edge17_Node000002_Node000008" class="edge">
<title>Node2&#45;&gt;Node8</title>
<g id="a_edge17_Node000002_Node000008"><a xlink:title=" ">
<path fill="none" stroke="#63b8ff" d="M455.96,-229.59C492.17,-227.54 547.11,-218.57 579,-185 619.45,-142.43 634.13,-105.66 604,-55.25 593.3,-37.34 572.66,-26.2 554.64,-19.53"/>
<polygon fill="#63b8ff" stroke="#63b8ff" points="555.9,-16.26 545.31,-16.41 553.68,-22.9 555.9,-16.26"/>
</a>
</g>
</g>
<!-- Node9 -->
<g id="Node000009" class="node">
<title>Node9</title>
<g id="a_Node000009"><a xlink:title=" ">
<polygon fill="#e0e0e0" stroke="#999999" points="479,-74.5 439,-74.5 439,-55.25 479,-55.25 479,-74.5"/>
<text text-anchor="middle" x="459" y="-61" font-family="Helvetica,sans-Serif" font-size="10.00">string</text>
</a>
</g>
</g>
<!-- Node2&#45;&gt;Node9 -->
<g id="edge19_Node000002_Node000009" class="edge">
<title>Node2&#45;&gt;Node9</title>
<g id="a_edge19_Node000002_Node000009"><a xlink:title=" ">
<path fill="none" stroke="#63b8ff" d="M422.1,-220.82C428.15,-195.39 445.79,-121.35 454.3,-85.62"/>
<polygon fill="#63b8ff" stroke="#63b8ff" points="457.63,-86.73 456.54,-76.19 450.82,-85.11 457.63,-86.73"/>
</a>
</g>
</g>
<!-- Node2&#45;&gt;Node14 -->
<g id="edge16_Node000002_Node000014" class="edge">
<title>Node2&#45;&gt;Node14</title>
<g id="a_edge16_Node000002_Node000014"><a xlink:title=" ">
<path fill="none" stroke="#63b8ff" d="M456.03,-228.97C520.68,-226.94 660.07,-218.67 772,-185 854.41,-160.21 901.29,-155.27 931,-74.5 936.34,-59.98 932.03,-42.82 926.83,-29.94"/>
<polygon fill="#63b8ff" stroke="#63b8ff" points="930.03,-28.53 922.68,-20.89 923.66,-31.44 930.03,-28.53"/>
</a>
</g>
</g>
<!-- Node4&#45;&gt;Node3 -->
<g id="edge6_Node000004_Node000003" class="edge">
<title>Node4&#45;&gt;Node3</title>
<g id="a_edge6_Node000004_Node000003"><a xlink:title=" ">
<path fill="none" stroke="#63b8ff" d="M262.98,-165.34C279.35,-157.12 303.79,-144.84 322.76,-135.31"/>
<polygon fill="#63b8ff" stroke="#63b8ff" points="324.21,-138.5 331.58,-130.88 321.07,-132.24 324.21,-138.5"/>
</a>
</g>
</g>
<!-- Node4&#45;&gt;Node5 -->
<g id="edge4_Node000004_Node000005" class="edge">
<title>Node4&#45;&gt;Node5</title>
<g id="a_edge4_Node000004_Node000005"><a xlink:title=" ">
<path fill="none" stroke="#63b8ff" d="M218.44,-166.97C185.28,-157.73 128.37,-141.86 90.96,-131.43"/>
<polygon fill="#63b8ff" stroke="#63b8ff" points="92.06,-128.1 81.48,-128.79 90.18,-134.84 92.06,-128.1"/>
</a>
</g>
</g>
<!-- Node6 -->
<g id="Node000006" class="node">
<title>Node6</title>
<g id="a_Node000006"><a xlink:title=" ">
<polygon fill="#e0e0e0" stroke="#999999" points="233.88,-129.75 184.12,-129.75 184.12,-110.5 233.88,-110.5 233.88,-129.75"/>
<text text-anchor="middle" x="209" y="-116.25" font-family="Helvetica,sans-Serif" font-size="10.00">iomanip</text>
</a>
</g>
</g>
<!-- Node4&#45;&gt;Node6 -->
<g id="edge5_Node000004_Node000006" class="edge">
<title>Node4&#45;&gt;Node6</title>
<g id="a_edge5_Node000004_Node000006"><a xlink:title=" ">
<path fill="none" stroke="#63b8ff" d="M239.06,-165.58C234.29,-158.53 227.44,-148.4 221.48,-139.58"/>
<polygon fill="#63b8ff" stroke="#63b8ff" points="224.42,-137.69 215.92,-131.36 218.62,-141.61 224.42,-137.69"/>
</a>
</g>
</g>
<!-- Node4&#45;&gt;Node7 -->
<g id="edge7_Node000004_Node000007" class="edge">
<title>Node4&#45;&gt;Node7</title>
<g id="a_edge7_Node000004_Node000007"><a xlink:title=" ">
<path fill="none" stroke="#63b8ff" d="M250.45,-165.58C254.77,-158.61 260.96,-148.62 266.38,-139.87"/>
<polygon fill="#63b8ff" stroke="#63b8ff" points="269.34,-141.74 271.64,-131.4 263.39,-138.05 269.34,-141.74"/>
</a>
</g>
</g>
<!-- Node12 -->
<g id="Node000012" class="node">
<title>Node12</title>
<g id="a_Node000012"><a xlink:href="_logging_8hpp.xhtml" target="_top" xlink:title=" ">
<polygon fill="white" stroke="#666666" points="166.25,-129.75 97.75,-129.75 97.75,-110.5 166.25,-110.5 166.25,-129.75"/>
<text text-anchor="middle" x="132" y="-116.25" font-family="Helvetica,sans-Serif" font-size="10.00">Logging.hpp</text>
</a>
</g>
</g>
<!-- Node4&#45;&gt;Node12 -->
<g id="edge13_Node000004_Node000012" class="edge">
<title>Node4&#45;&gt;Node12</title>
<g id="a_edge13_Node000004_Node000012"><a xlink:title=" ">
<path fill="none" stroke="#63b8ff" d="M225.83,-165.34C208.22,-157.04 181.84,-144.61 161.54,-135.04"/>
<polygon fill="#63b8ff" stroke="#63b8ff" points="163.17,-131.94 152.63,-130.85 160.19,-138.28 163.17,-131.94"/>
</a>
</g>
</g>
<!-- Node7&#45;&gt;Node8 -->
<g id="edge8_Node000007_Node000008" class="edge">
<title>Node7&#45;&gt;Node8</title>
<g id="a_edge8_Node000007_Node000008"><a xlink:title=" ">
<path fill="none" stroke="#63b8ff" d="M283.01,-110.13C291.29,-96.11 309.23,-69.23 332,-55.25 380.31,-25.6 446.67,-15.65 486.55,-12.31"/>
<polygon fill="#63b8ff" stroke="#63b8ff" points="486.79,-15.8 496.51,-11.58 486.28,-8.82 486.79,-15.8"/>
</a>
</g>
</g>
<!-- Node7&#45;&gt;Node9 -->
<g id="edge9_Node000007_Node000009" class="edge">
<title>Node7&#45;&gt;Node9</title>
<g id="a_edge9_Node000007_Node000009"><a xlink:title=" ">
<path fill="none" stroke="#63b8ff" d="M304.64,-111.33C332.92,-103.06 379.2,-89.5 427.95,-75.1"/>
<polygon fill="#63b8ff" stroke="#63b8ff" points="428.67,-78.54 437.27,-72.34 426.69,-71.82 428.67,-78.54"/>
</a>
</g>
</g>
<!-- Node7&#45;&gt;Node10 -->
<g id="edge10_Node000007_Node000010" class="edge">
<title>Node7&#45;&gt;Node10</title>
<g id="a_edge10_Node000007_Node000010"><a xlink:title=" ">
<path fill="none" stroke="#63b8ff" d="M304.69,-112.53C307.82,-111.81 310.98,-111.12 314,-110.5 393.79,-94.06 488.31,-78.77 537.83,-71.07"/>
<polygon fill="#63b8ff" stroke="#63b8ff" points="538.28,-74.54 547.63,-69.56 537.22,-67.63 538.28,-74.54"/>
</a>
</g>
</g>
<!-- Node11 -->
<g id="Node000011" class="node">
<title>Node11</title>
<g id="a_Node000011"><a xlink:href="_machine_i_d_8hpp.xhtml" target="_top" xlink:title=" ">
<polygon fill="white" stroke="#666666" points="421.25,-74.5 340.75,-74.5 340.75,-55.25 421.25,-55.25 421.25,-74.5"/>
<text text-anchor="middle" x="381" y="-61" font-family="Helvetica,sans-Serif" font-size="10.00">MachineID.hpp</text>
</a>
</g>
</g>
<!-- Node7&#45;&gt;Node11 -->
<g id="edge11_Node000007_Node000011" class="edge">
<title>Node7&#45;&gt;Node11</title>
<g id="a_edge11_Node000007_Node000011"><a xlink:title=" ">
<path fill="none" stroke="#63b8ff" d="M295.47,-110.09C311.31,-101.91 334.91,-89.71 353.31,-80.19"/>
<polygon fill="#63b8ff" stroke="#63b8ff" points="354.82,-83.35 362.1,-75.65 351.61,-77.13 354.82,-83.35"/>
</a>
</g>
</g>
<!-- Node11&#45;&gt;Node8 -->
<g id="edge12_Node000011_Node000008" class="edge">
<title>Node11&#45;&gt;Node8</title>
<g id="a_edge12_Node000011_Node000008"><a xlink:title=" ">
<path fill="none" stroke="#63b8ff" d="M404.75,-54.84C427.45,-46.21 461.89,-33.11 487.4,-23.41"/>
<polygon fill="#63b8ff" stroke="#63b8ff" points="488.55,-26.71 496.65,-19.89 486.06,-20.17 488.55,-26.71"/>
</a>
</g>
</g>
<!-- Node13 -->
<g id="Node000013" class="node">
<title>Node13</title>
<g id="a_Node000013"><a xlink:title=" ">
<polygon fill="#e0e0e0" stroke="#999999" points="160.62,-74.5 103.38,-74.5 103.38,-55.25 160.62,-55.25 160.62,-74.5"/>
<text text-anchor="middle" x="132" y="-61" font-family="Helvetica,sans-Serif" font-size="10.00">esp_log.h</text>
</a>
</g>
</g>
<!-- Node12&#45;&gt;Node13 -->
<g id="edge14_Node000012_Node000013" class="edge">
<title>Node12&#45;&gt;Node13</title>
<g id="a_edge14_Node000012_Node000013"><a xlink:title=" ">
<path fill="none" stroke="#63b8ff" d="M132,-110.33C132,-103.82 132,-94.67 132,-86.37"/>
<polygon fill="#63b8ff" stroke="#63b8ff" points="135.5,-86.37 132,-76.37 128.5,-86.37 135.5,-86.37"/>
</a>
</g>
</g>
<!-- Node15&#45;&gt;Node7 -->
<g id="edge31_Node000015_Node000007" class="edge">
<title>Node15&#45;&gt;Node7</title>
<g id="a_edge31_Node000015_Node000007"><a xlink:title=" ">
<path fill="none" stroke="#63b8ff" d="M477.32,-165.26C437.76,-156.94 377.58,-144.11 315.85,-130.13"/>
<polygon fill="#63b8ff" stroke="#63b8ff" points="316.72,-126.74 306.2,-127.93 315.17,-133.56 316.72,-126.74"/>
</a>
</g>
</g>
<!-- Node15&#45;&gt;Node8 -->
<g id="edge22_Node000015_Node000008" class="edge">
<title>Node15&#45;&gt;Node8</title>
<g id="a_edge22_Node000015_Node000008"><a xlink:title=" ">
<path fill="none" stroke="#63b8ff" d="M521,-165.57C521,-140.25 521,-66.75 521,-30.84"/>
<polygon fill="#63b8ff" stroke="#63b8ff" points="524.5,-30.99 521,-20.99 517.5,-30.99 524.5,-30.99"/>
</a>
</g>
</g>
<!-- Node15&#45;&gt;Node9 -->
<g id="edge23_Node000015_Node000009" class="edge">
<title>Node15&#45;&gt;Node9</title>
<g id="a_edge23_Node000015_Node000009"><a xlink:title=" ">
<path fill="none" stroke="#63b8ff" d="M515.93,-165.5C505.89,-147.93 483.31,-108.41 469.79,-84.77"/>
<polygon fill="#63b8ff" stroke="#63b8ff" points="472.9,-83.14 464.89,-76.19 466.82,-86.61 472.9,-83.14"/>
</a>
</g>
</g>
<!-- Node15&#45;&gt;Node10 -->
<g id="edge21_Node000015_Node000010" class="edge">
<title>Node15&#45;&gt;Node10</title>
<g id="a_edge21_Node000015_Node000010"><a xlink:title=" ">
<path fill="none" stroke="#63b8ff" d="M525.17,-165.5C533.39,-148.01 551.84,-108.77 562.97,-85.09"/>
<polygon fill="#63b8ff" stroke="#63b8ff" points="566.04,-86.79 567.12,-76.25 559.7,-83.81 566.04,-86.79"/>
</a>
</g>
</g>
<!-- Node15&#45;&gt;Node11 -->
<g id="edge30_Node000015_Node000011" class="edge">
<title>Node15&#45;&gt;Node11</title>
<g id="a_edge30_Node000015_Node000011"><a xlink:title=" ">
<path fill="none" stroke="#63b8ff" d="M509.54,-165.5C485.85,-147.14 431.21,-104.79 401.36,-81.66"/>
<polygon fill="#63b8ff" stroke="#63b8ff" points="403.86,-79.16 393.81,-75.8 399.57,-84.7 403.86,-79.16"/>
</a>
</g>
</g>
<!-- Node16 -->
<g id="Node000016" class="node">
<title>Node16</title>
<g id="a_Node000016"><a xlink:href="pins_8hpp.xhtml" target="_top" xlink:title=" ">
<polygon fill="white" stroke="#666666" points="753,-129.75 701,-129.75 701,-110.5 753,-110.5 753,-129.75"/>
<text text-anchor="middle" x="727" y="-116.25" font-family="Helvetica,sans-Serif" font-size="10.00">pins.hpp</text>
</a>
</g>
</g>
<!-- Node15&#45;&gt;Node16 -->
<g id="edge24_Node000015_Node000016" class="edge">
<title>Node15&#45;&gt;Node16</title>
<g id="a_edge24_Node000015_Node000016"><a xlink:title=" ">
<path fill="none" stroke="#63b8ff" d="M555.95,-165.34C593.08,-155.74 651.59,-140.62 689.63,-130.79"/>
<polygon fill="#63b8ff" stroke="#63b8ff" points="690.46,-134.19 699.26,-128.29 688.71,-127.41 690.46,-134.19"/>
</a>
</g>
</g>
<!-- Node16&#45;&gt;Node8 -->
<g id="edge25_Node000016_Node000008" class="edge">
<title>Node16&#45;&gt;Node8</title>
<g id="a_edge25_Node000016_Node000008"><a xlink:title=" ">
<path fill="none" stroke="#63b8ff" d="M716.22,-110.11C699.9,-96.78 667.56,-71.64 637,-55.25 610.53,-41.05 578.54,-29.1 554.87,-21.15"/>
<polygon fill="#63b8ff" stroke="#63b8ff" points="556,-17.84 545.41,-18.05 553.82,-24.49 556,-17.84"/>
</a>
</g>
</g>
<!-- Node17 -->
<g id="Node000017" class="node">
<title>Node17</title>
<g id="a_Node000017"><a xlink:title=" ">
<polygon fill="#e0e0e0" stroke="#999999" points="888.75,-74.5 787.25,-74.5 787.25,-55.25 888.75,-55.25 888.75,-74.5"/>
<text text-anchor="middle" x="838" y="-61" font-family="Helvetica,sans-Serif" font-size="10.00">Adafruit_NeoPixel.h</text>
</a>
</g>
</g>
<!-- Node16&#45;&gt;Node17 -->
<g id="edge26_Node000016_Node000017" class="edge">
<title>Node16&#45;&gt;Node17</title>
<g id="a_edge26_Node000016_Node000017"><a xlink:title=" ">
<path fill="none" stroke="#63b8ff" d="M745.83,-110.09C763.05,-101.83 788.8,-89.48 808.71,-79.93"/>
<polygon fill="#63b8ff" stroke="#63b8ff" points="810.21,-83.09 817.71,-75.61 807.18,-76.78 810.21,-83.09"/>
</a>
</g>
</g>
<!-- Node18 -->
<g id="Node000018" class="node">
<title>Node18</title>
<g id="a_Node000018"><a xlink:href="_pins_config_8hpp.xhtml" target="_top" xlink:title=" ">
<polygon fill="white" stroke="#666666" points="769.25,-74.5 688.75,-74.5 688.75,-55.25 769.25,-55.25 769.25,-74.5"/>
<text text-anchor="middle" x="729" y="-61" font-family="Helvetica,sans-Serif" font-size="10.00">PinsConfig.hpp</text>
</a>
</g>
</g>
<!-- Node16&#45;&gt;Node18 -->
<g id="edge27_Node000016_Node000018" class="edge">
<title>Node16&#45;&gt;Node18</title>
<g id="a_edge27_Node000016_Node000018"><a xlink:title=" ">
<path fill="none" stroke="#63b8ff" d="M727.33,-110.33C727.58,-103.74 727.93,-94.46 728.24,-86.07"/>
<polygon fill="#63b8ff" stroke="#63b8ff" points="731.73,-86.5 728.61,-76.37 724.73,-86.23 731.73,-86.5"/>
</a>
</g>
</g>
<!-- Node18&#45;&gt;Node8 -->
<g id="edge28_Node000018_Node000008" class="edge">
<title>Node18&#45;&gt;Node8</title>
<g id="a_edge28_Node000018_Node000008"><a xlink:title=" ">
<path fill="none" stroke="#63b8ff" d="M693.72,-54.84C654.96,-44.92 593.15,-29.1 554.93,-19.31"/>
<polygon fill="#63b8ff" stroke="#63b8ff" points="555.91,-15.95 545.35,-16.86 554.17,-22.73 555.91,-15.95"/>
</a>
</g>
</g>
<!-- Node18&#45;&gt;Node14 -->
<g id="edge29_Node000018_Node000014" class="edge">
<title>Node18&#45;&gt;Node14</title>
<g id="a_edge29_Node000018_Node000014"><a xlink:title=" ">
<path fill="none" stroke="#63b8ff" d="M760.89,-54.84C796.28,-44.82 852.93,-28.77 887.38,-19.02"/>
<polygon fill="#63b8ff" stroke="#63b8ff" points="888.02,-22.47 896.69,-16.38 886.11,-15.74 888.02,-22.47"/>
</a>
</g>
</g>
<!-- Node19&#45;&gt;Node3 -->
<g id="edge35_Node000019_Node000003" class="edge">
<title>Node19&#45;&gt;Node3</title>
<g id="a_edge35_Node000019_Node000003"><a xlink:title=" ">
<path fill="none" stroke="#63b8ff" d="M701.14,-170.06C632.39,-160.45 466.7,-137.3 390.52,-126.65"/>
<polygon fill="#63b8ff" stroke="#63b8ff" points="391.41,-123.24 381.02,-125.32 390.44,-130.17 391.41,-123.24"/>
</a>
</g>
</g>
<!-- Node19&#45;&gt;Node10 -->
<g id="edge33_Node000019_Node000010" class="edge">
<title>Node19&#45;&gt;Node10</title>
<g id="a_edge33_Node000019_Node000010"><a xlink:title=" ">
<path fill="none" stroke="#63b8ff" d="M718.63,-165.31C691.27,-146.76 628.61,-104.26 594.73,-81.29"/>
<polygon fill="#63b8ff" stroke="#63b8ff" points="596.71,-78.4 586.47,-75.69 592.78,-84.2 596.71,-78.4"/>
</a>
</g>
</g>
<!-- Node20 -->
<g id="Node000020" class="node">
<title>Node20</title>
<g id="a_Node000020"><a xlink:title=" ">
<polygon fill="#e0e0e0" stroke="#999999" points="829,-129.75 771,-129.75 771,-110.5 829,-110.5 829,-129.75"/>
<text text-anchor="middle" x="800" y="-116.25" font-family="Helvetica,sans-Serif" font-size="10.00">functional</text>
</a>
</g>
</g>
<!-- Node19&#45;&gt;Node20 -->
<g id="edge34_Node000019_Node000020" class="edge">
<title>Node19&#45;&gt;Node20</title>
<g id="a_edge34_Node000019_Node000020"><a xlink:title=" ">
<path fill="none" stroke="#63b8ff" d="M743.54,-165.34C753.46,-157.57 768.01,-146.17 779.86,-136.9"/>
<polygon fill="#63b8ff" stroke="#63b8ff" points="781.73,-139.88 787.44,-130.96 777.41,-134.37 781.73,-139.88"/>
</a>
</g>
</g>
<!-- Node21 -->
<g id="Node000021" class="node">
<title>Node21</title>
<g id="a_Node000021"><a xlink:title=" ">
<polygon fill="#e0e0e0" stroke="#999999" points="875.4,-129.75 846.6,-129.75 846.6,-110.5 875.4,-110.5 875.4,-129.75"/>
<text text-anchor="middle" x="861" y="-116.25" font-family="Helvetica,sans-Serif" font-size="10.00">list</text>
</a>
</g>
</g>
<!-- Node19&#45;&gt;Node21 -->
<g id="edge36_Node000019_Node000021" class="edge">
<title>Node19&#45;&gt;Node21</title>
<g id="a_edge36_Node000019_Node000021"><a xlink:title=" ">
<path fill="none" stroke="#63b8ff" d="M753.88,-165.34C776.6,-155.97 812.07,-141.32 835.9,-131.48"/>
<polygon fill="#63b8ff" stroke="#63b8ff" points="836.95,-134.84 844.86,-127.79 834.28,-128.37 836.95,-134.84"/>
</a>
</g>
</g>
</g>
</svg>

<g id="navigator" transform="translate(0 0)" fill="#404254">
  <rect fill="#f2f5e9" fill-opacity="0.5" stroke="#606060" stroke-width=".5" x="0" y="0" width="60" height="60"/>
  <use id="zoomplus" xlink:href="#zoomPlus" x="17" y="9" onmousedown="handleZoom(evt,'in')"/>
  <use id="zoomminus" xlink:href="#zoomMin" x="42" y="9" onmousedown="handleZoom(evt,'out')"/>
  <use id="reset" xlink:href="#resetDef" x="30" y="36" onmousedown="handleReset()"/>
   <use id="arrowup" xlink:href="#arrowUp" x="0" y="0" onmousedown="handlePan(0,-1)"/>
  <use id="arrowright" xlink:href="#arrowRight" x="0" y="0" onmousedown="handlePan(1,0)"/>
  <use id="arrowdown" xlink:href="#arrowDown" x="0" y="0" onmousedown="handlePan(0,1)"/>
  <use id="arrowleft" xlink:href="#arrowLeft" x="0" y="0" onmousedown="handlePan(-1,0)"/>
</g>
<svg viewBox="0 0 15 15" width="100%" height="30px" preserveAspectRatio="xMaxYMin meet">
 <g id="arrow_out" transform="scale(0.3 0.3)">
  <a xlink:href="_machine_8hpp__incl_org.svg" target="_base">
   <rect id="button" ry="5" rx="5" y="6" x="6" height="38" width="38"
        fill="#f2f5e9" fill-opacity="0.5" stroke="#606060" stroke-width="1.0"/>
   <path id="arrow"
     d="M 11.500037,31.436501 C 11.940474,20.09759 22.043105,11.32322 32.158766,21.979434 L 37.068811,17.246167 C 37.068811,17.246167 37.088388,32 37.088388,32 L 22.160133,31.978069 C 22.160133,31.978069 26.997745,27.140456 26.997745,27.140456 C 18.528582,18.264221 13.291696,25.230495 11.500037,31.436501 z"
     style="fill:#404040;"/>
  </a>
 </g>
</svg>

<style type='text/css'>
<![CDATA[
[data-mouse-over-selected='false'] { opacity: 0.7; }
[data-mouse-over-selected='true']  { opacity: 1.0; }
]]>
</style>
<script type="application/ecmascript"><![CDATA[
document.addEventListener('DOMContentLoaded', (event) => {
  highlightEdges();
  highlightAdjacentNodes();
});
]]></script>
</svg>
