<?xml version="1.0" encoding="UTF-8" standalone="no"?>
<!DOCTYPE svg PUBLIC "-//W3C//DTD SVG 1.1//EN"
 "http://www.w3.org/Graphics/SVG/1.1/DTD/svg11.dtd">
<!-- Generated by graphviz version 9.0.0 (20230911.1827)
 -->
<!-- Title: Machine.hpp Pages: 1 -->
<svg width="1487pt" height="414pt"
 viewBox="0.00 0.00 1486.75 414.00" xmlns="http://www.w3.org/2000/svg" xmlns:xlink="http://www.w3.org/1999/xlink">
<g id="graph0" class="graph" transform="scale(1 1) rotate(0) translate(4 410)">
<title>Machine.hpp</title>
<!-- Node1 -->
<g id="Node000001" class="node">
<title>Node1</title>
<g id="a_Node000001"><a xlink:title=" ">
<polygon fill="#999999" stroke="#666666" points="928.12,-406 857.38,-406 857.38,-386.75 928.12,-386.75 928.12,-406"/>
<text text-anchor="middle" x="892.75" y="-392.5" font-family="Helvetica,sans-Serif" font-size="10.00">Machine.hpp</text>
</a>
</g>
</g>
<!-- Node2 -->
<g id="Node000002" class="node">
<title>Node2</title>
<g id="a_Node000002"><a xlink:href="_board_info_8hpp.xhtml" target="_top" xlink:title=" ">
<polygon fill="white" stroke="#666666" points="127.75,-350.75 51.75,-350.75 51.75,-331.5 127.75,-331.5 127.75,-350.75"/>
<text text-anchor="middle" x="89.75" y="-337.25" font-family="Helvetica,sans-Serif" font-size="10.00">BoardInfo.hpp</text>
</a>
</g>
</g>
<!-- Node1&#45;&gt;Node2 -->
<g id="edge1_Node000001_Node000002" class="edge">
<title>Node1&#45;&gt;Node2</title>
<g id="a_edge1_Node000001_Node000002"><a xlink:title=" ">
<path fill="none" stroke="#63b8ff" d="M845.57,-394.29C726.95,-391.19 406.84,-380.53 141.75,-350.75 137.29,-350.25 132.64,-349.62 128.02,-348.94"/>
<polygon fill="#63b8ff" stroke="#63b8ff" points="845.47,-397.79 855.55,-394.55 845.64,-390.79 845.47,-397.79"/>
</a>
</g>
</g>
<!-- Node3 -->
<g id="Node000003" class="node">
<title>Node3</title>
<g id="a_Node000003"><a xlink:href="_l_c_d_wrapper_8hpp.xhtml" target="_top" xlink:title=" ">
<polygon fill="white" stroke="#666666" points="165.5,-185 76,-185 76,-165.75 165.5,-165.75 165.5,-185"/>
<text text-anchor="middle" x="120.75" y="-171.5" font-family="Helvetica,sans-Serif" font-size="10.00">LCDWrapper.hpp</text>
</a>
</g>
</g>
<!-- Node1&#45;&gt;Node3 -->
<g id="edge22_Node000001_Node000003" class="edge">
<title>Node1&#45;&gt;Node3</title>
<g id="a_edge22_Node000001_Node000003"><a xlink:title=" ">
<path fill="none" stroke="#63b8ff" d="M845.76,-392.86C748.09,-387.25 526.19,-372.51 453.75,-350.75 319.69,-310.47 176.5,-215.27 133.6,-185.46"/>
<polygon fill="#63b8ff" stroke="#63b8ff" points="845.35,-396.34 855.53,-393.41 845.74,-389.35 845.35,-396.34"/>
</a>
</g>
</g>
<!-- Node4 -->
<g id="Node000004" class="node">
<title>Node4</title>
<g id="a_Node000004"><a xlink:href="_board_logic_8hpp.xhtml" target="_top" xlink:title=" ">
<polygon fill="white" stroke="#666666" points="609.5,-129.75 526,-129.75 526,-110.5 609.5,-110.5 609.5,-129.75"/>
<text text-anchor="middle" x="567.75" y="-116.25" font-family="Helvetica,sans-Serif" font-size="10.00">BoardLogic.hpp</text>
</a>
</g>
</g>
<!-- Node1&#45;&gt;Node4 -->
<g id="edge21_Node000001_Node000004" class="edge">
<title>Node1&#45;&gt;Node4</title>
<g id="a_edge21_Node000001_Node000004"><a xlink:title=" ">
<path fill="none" stroke="#63b8ff" d="M845.41,-393.27C734.62,-387.07 467.75,-364.11 467.75,-286.88 467.75,-286.88 467.75,-286.88 467.75,-229.62 467.75,-181.72 521.11,-145.91 549.87,-130.08"/>
<polygon fill="#63b8ff" stroke="#63b8ff" points="845.2,-396.77 855.37,-393.81 845.57,-389.78 845.2,-396.77"/>
</a>
</g>
</g>
<!-- Node5 -->
<g id="Node000005" class="node">
<title>Node5</title>
<g id="a_Node000005"><a xlink:href="_board_logic_8cpp.xhtml" target="_top" xlink:title=" ">
<polygon fill="white" stroke="#666666" points="1122.5,-74.5 1039,-74.5 1039,-55.25 1122.5,-55.25 1122.5,-74.5"/>
<text text-anchor="middle" x="1080.75" y="-61" font-family="Helvetica,sans-Serif" font-size="10.00">BoardLogic.cpp</text>
</a>
</g>
</g>
<!-- Node1&#45;&gt;Node5 -->
<g id="edge20_Node000001_Node000005" class="edge">
<title>Node1&#45;&gt;Node5</title>
<g id="a_edge20_Node000001_Node000005"><a xlink:title=" ">
<path fill="none" stroke="#63b8ff" d="M939.86,-394.81C1049.52,-392.91 1318.83,-384.83 1401.75,-350.75 1442.88,-333.85 1478.75,-331.34 1478.75,-286.88 1478.75,-286.88 1478.75,-286.88 1478.75,-174.38 1478.75,-101.23 1225.4,-75.74 1122.97,-68.42"/>
<polygon fill="#63b8ff" stroke="#63b8ff" points="939.98,-391.3 930.04,-394.96 940.09,-398.3 939.98,-391.3"/>
</a>
</g>
</g>
<!-- Node7 -->
<g id="Node000007" class="node">
<title>Node7</title>
<g id="a_Node000007"><a xlink:href="globals_8hpp.xhtml" target="_top" xlink:title=" ">
<polygon fill="white" stroke="#666666" points="834.12,-74.5 769.38,-74.5 769.38,-55.25 834.12,-55.25 834.12,-74.5"/>
<text text-anchor="middle" x="801.75" y="-61" font-family="Helvetica,sans-Serif" font-size="10.00">globals.hpp</text>
</a>
</g>
</g>
<!-- Node1&#45;&gt;Node7 -->
<g id="edge50_Node000001_Node000007" class="edge">
<title>Node1&#45;&gt;Node7</title>
<g id="a_edge50_Node000001_Node000007"><a xlink:title=" ">
<path fill="none" stroke="#63b8ff" d="M926.35,-381.66C961.23,-364.92 1010.75,-333.03 1010.75,-286.88 1010.75,-286.88 1010.75,-286.88 1010.75,-229.62 1010.75,-175.53 1023.4,-149.34 985.75,-110.5 965.04,-89.14 881.64,-75.68 834.54,-69.62"/>
<polygon fill="#63b8ff" stroke="#63b8ff" points="925.08,-378.39 917.44,-385.73 927.99,-384.75 925.08,-378.39"/>
</a>
</g>
</g>
<!-- Node15 -->
<g id="Node000015" class="node">
<title>Node15</title>
<g id="a_Node000015"><a xlink:href="_m_q_t_ttypes_8hpp.xhtml" target="_top" xlink:title=" ">
<polygon fill="white" stroke="#666666" points="753.25,-350.75 668.25,-350.75 668.25,-331.5 753.25,-331.5 753.25,-350.75"/>
<text text-anchor="middle" x="710.75" y="-337.25" font-family="Helvetica,sans-Serif" font-size="10.00">MQTTtypes.hpp</text>
</a>
</g>
</g>
<!-- Node1&#45;&gt;Node15 -->
<g id="edge23_Node000001_Node000015" class="edge">
<title>Node1&#45;&gt;Node15</title>
<g id="a_edge23_Node000001_Node000015"><a xlink:title=" ">
<path fill="none" stroke="#63b8ff" d="M851.11,-383.19C817.82,-373.45 771.9,-360.02 741.78,-351.2"/>
<polygon fill="#63b8ff" stroke="#63b8ff" points="849.84,-386.47 860.42,-385.92 851.81,-379.75 849.84,-386.47"/>
</a>
</g>
</g>
<!-- Node21 -->
<g id="Node000021" class="node">
<title>Node21</title>
<g id="a_Node000021"><a xlink:href="_machine_8cpp.xhtml" target="_top" xlink:title=" ">
<polygon fill="white" stroke="#666666" points="1255.12,-129.75 1184.38,-129.75 1184.38,-110.5 1255.12,-110.5 1255.12,-129.75"/>
<text text-anchor="middle" x="1219.75" y="-116.25" font-family="Helvetica,sans-Serif" font-size="10.00">Machine.cpp</text>
</a>
</g>
</g>
<!-- Node1&#45;&gt;Node21 -->
<g id="edge49_Node000001_Node000021" class="edge">
<title>Node1&#45;&gt;Node21</title>
<g id="a_edge49_Node000001_Node000021"><a xlink:title=" ">
<path fill="none" stroke="#63b8ff" d="M939.63,-395.99C1072.29,-396.48 1440.75,-388.67 1440.75,-286.88 1440.75,-286.88 1440.75,-286.88 1440.75,-229.62 1440.75,-191.58 1416.11,-185.77 1383.75,-165.75 1362.42,-152.56 1297.1,-137.21 1255.62,-128.38"/>
<polygon fill="#63b8ff" stroke="#63b8ff" points="939.82,-392.49 929.8,-395.93 939.78,-399.49 939.82,-392.49"/>
</a>
</g>
</g>
<!-- Node25 -->
<g id="Node000025" class="node">
<title>Node25</title>
<g id="a_Node000025"><a xlink:href="secrets_8hpp.xhtml" target="_top" xlink:title=" ">
<polygon fill="white" stroke="#666666" points="1152.88,-240.25 1086.62,-240.25 1086.62,-221 1152.88,-221 1152.88,-240.25"/>
<text text-anchor="middle" x="1119.75" y="-226.75" font-family="Helvetica,sans-Serif" font-size="10.00">secrets.hpp</text>
</a>
</g>
</g>
<!-- Node1&#45;&gt;Node25 -->
<g id="edge51_Node000001_Node000025" class="edge">
<title>Node1&#45;&gt;Node25</title>
<g id="a_edge51_Node000001_Node000025"><a xlink:title=" ">
<path fill="none" stroke="#63b8ff" d="M939.62,-386.43C966.31,-379.72 999.37,-368.56 1024.75,-350.75 1068.93,-319.76 1103.02,-262.51 1115.05,-240.54"/>
<polygon fill="#63b8ff" stroke="#63b8ff" points="939.01,-382.98 930.09,-388.69 940.63,-389.79 939.01,-382.98"/>
</a>
</g>
</g>
<!-- Node2&#45;&gt;Node3 -->
<g id="edge2_Node000002_Node000003" class="edge">
<title>Node2&#45;&gt;Node3</title>
<g id="a_edge2_Node000002_Node000003"><a xlink:title=" ">
<path fill="none" stroke="#63b8ff" d="M93.48,-320.44C100.23,-284.75 114.25,-210.71 119.08,-185.22"/>
<polygon fill="#63b8ff" stroke="#63b8ff" points="90.12,-319.36 91.7,-329.83 97,-320.66 90.12,-319.36"/>
</a>
</g>
</g>
<!-- Node3&#45;&gt;Node4 -->
<g id="edge3_Node000003_Node000004" class="edge">
<title>Node3&#45;&gt;Node4</title>
<g id="a_edge3_Node000003_Node000004"><a xlink:title=" ">
<path fill="none" stroke="#63b8ff" d="M177.18,-168.64C253.26,-160.74 392.91,-145.68 511.75,-129.75 516.23,-129.15 520.92,-128.49 525.58,-127.8"/>
<polygon fill="#63b8ff" stroke="#63b8ff" points="177.07,-165.13 167.48,-169.64 177.79,-172.09 177.07,-165.13"/>
</a>
</g>
</g>
<!-- Node3&#45;&gt;Node7 -->
<g id="edge17_Node000003_Node000007" class="edge">
<title>Node3&#45;&gt;Node7</title>
<g id="a_edge17_Node000003_Node000007"><a xlink:title=" ">
<path fill="none" stroke="#63b8ff" d="M177.18,-165.19C253.98,-152.71 395.73,-129.74 516.75,-110.5 608.25,-95.96 716.34,-79.13 769.26,-70.91"/>
<polygon fill="#63b8ff" stroke="#63b8ff" points="176.68,-161.72 167.37,-166.78 177.8,-168.63 176.68,-161.72"/>
</a>
</g>
</g>
<!-- Node11 -->
<g id="Node000011" class="node">
<title>Node11</title>
<g id="a_Node000011"><a xlink:href="test__logic_8cpp.xhtml" target="_top" xlink:title=" ">
<polygon fill="white" stroke="#666666" points="439.75,-19.25 363.75,-19.25 363.75,0 439.75,0 439.75,-19.25"/>
<text text-anchor="middle" x="401.75" y="-5.75" font-family="Helvetica,sans-Serif" font-size="10.00">test_logic.cpp</text>
</a>
</g>
</g>
<!-- Node3&#45;&gt;Node11 -->
<g id="edge18_Node000003_Node000011" class="edge">
<title>Node3&#45;&gt;Node11</title>
<g id="a_edge18_Node000003_Node000011"><a xlink:title=" ">
<path fill="none" stroke="#63b8ff" d="M128,-155.11C133.56,-141.78 142.09,-124.08 152.75,-110.5 176.16,-80.67 183.97,-72.46 217.75,-55.25 264.61,-31.37 324.77,-19.91 363.3,-14.67"/>
<polygon fill="#63b8ff" stroke="#63b8ff" points="124.88,-153.48 124.45,-164.07 131.39,-156.06 124.88,-153.48"/>
</a>
</g>
</g>
<!-- Node12 -->
<g id="Node000012" class="node">
<title>Node12</title>
<g id="a_Node000012"><a xlink:href="test__mqtt_8cpp.xhtml" target="_top" xlink:title=" ">
<polygon fill="white" stroke="#666666" points="373.38,-74.5 298.12,-74.5 298.12,-55.25 373.38,-55.25 373.38,-74.5"/>
<text text-anchor="middle" x="335.75" y="-61" font-family="Helvetica,sans-Serif" font-size="10.00">test_mqtt.cpp</text>
</a>
</g>
</g>
<!-- Node3&#45;&gt;Node12 -->
<g id="edge19_Node000003_Node000012" class="edge">
<title>Node3&#45;&gt;Node12</title>
<g id="a_edge19_Node000003_Node000012"><a xlink:title=" ">
<path fill="none" stroke="#63b8ff" d="M132.91,-156.55C143.64,-142.13 160.53,-122.33 179.75,-110.5 216.33,-87.98 264.69,-76.45 297.81,-70.82"/>
<polygon fill="#63b8ff" stroke="#63b8ff" points="130.35,-154.11 127.39,-164.28 136.05,-158.18 130.35,-154.11"/>
</a>
</g>
</g>
<!-- Node14 -->
<g id="Node000014" class="node">
<title>Node14</title>
<g id="a_Node000014"><a xlink:href="_l_c_d_wrapper_8cpp.xhtml" target="_top" xlink:title=" ">
<polygon fill="white" stroke="#666666" points="89.5,-129.75 0,-129.75 0,-110.5 89.5,-110.5 89.5,-129.75"/>
<text text-anchor="middle" x="44.75" y="-116.25" font-family="Helvetica,sans-Serif" font-size="10.00">LCDWrapper.cpp</text>
</a>
</g>
</g>
<!-- Node3&#45;&gt;Node14 -->
<g id="edge16_Node000003_Node000014" class="edge">
<title>Node3&#45;&gt;Node14</title>
<g id="a_edge16_Node000003_Node000014"><a xlink:title=" ">
<path fill="none" stroke="#63b8ff" d="M98.46,-158.76C85.21,-149.47 68.86,-138.02 57.71,-130.2"/>
<polygon fill="#63b8ff" stroke="#63b8ff" points="96.42,-161.6 106.62,-164.47 100.44,-155.87 96.42,-161.6"/>
</a>
</g>
</g>
<!-- Node4&#45;&gt;Node5 -->
<g id="edge4_Node000004_Node000005" class="edge">
<title>Node4&#45;&gt;Node5</title>
<g id="a_edge4_Node000004_Node000005"><a xlink:title=" ">
<path fill="none" stroke="#63b8ff" d="M621.02,-113.6C723.37,-102.97 945.6,-79.9 1038.55,-70.26"/>
<polygon fill="#63b8ff" stroke="#63b8ff" points="620.82,-110.1 611.24,-114.61 621.54,-117.06 620.82,-110.1"/>
</a>
</g>
</g>
<!-- Node6 -->
<g id="Node000006" class="node">
<title>Node6</title>
<g id="a_Node000006"><a xlink:href="_o_t_a_8cpp.xhtml" target="_top" xlink:title=" ">
<polygon fill="white" stroke="#666666" points="982.88,-74.5 928.62,-74.5 928.62,-55.25 982.88,-55.25 982.88,-74.5"/>
<text text-anchor="middle" x="955.75" y="-61" font-family="Helvetica,sans-Serif" font-size="10.00">OTA.cpp</text>
</a>
</g>
</g>
<!-- Node4&#45;&gt;Node6 -->
<g id="edge5_Node000004_Node000006" class="edge">
<title>Node4&#45;&gt;Node6</title>
<g id="a_edge5_Node000004_Node000006"><a xlink:title=" ">
<path fill="none" stroke="#63b8ff" d="M620.96,-111.82C704.86,-100.31 864.9,-78.34 928.61,-69.6"/>
<polygon fill="#63b8ff" stroke="#63b8ff" points="620.57,-108.34 611.14,-113.17 621.52,-115.28 620.57,-108.34"/>
</a>
</g>
</g>
<!-- Node4&#45;&gt;Node7 -->
<g id="edge6_Node000004_Node000007" class="edge">
<title>Node4&#45;&gt;Node7</title>
<g id="a_edge6_Node000004_Node000007"><a xlink:title=" ">
<path fill="none" stroke="#63b8ff" d="M618.87,-107.49C664.58,-97.09 730.17,-82.16 769.12,-73.3"/>
<polygon fill="#63b8ff" stroke="#63b8ff" points="618.16,-104.06 609.19,-109.7 619.71,-110.89 618.16,-104.06"/>
</a>
</g>
</g>
<!-- Node8 -->
<g id="Node000008" class="node">
<title>Node8</title>
<g id="a_Node000008"><a xlink:href="main_8cpp.xhtml" target="_top" xlink:title=" ">
<polygon fill="white" stroke="#666666" points="799.25,-19.25 744.25,-19.25 744.25,0 799.25,0 799.25,-19.25"/>
<text text-anchor="middle" x="771.75" y="-5.75" font-family="Helvetica,sans-Serif" font-size="10.00">main.cpp</text>
</a>
</g>
</g>
<!-- Node4&#45;&gt;Node8 -->
<g id="edge8_Node000004_Node000008" class="edge">
<title>Node4&#45;&gt;Node8</title>
<g id="a_edge8_Node000004_Node000008"><a xlink:title=" ">
<path fill="none" stroke="#63b8ff" d="M619.53,-107.07C645.04,-99.84 675.65,-89.15 700.75,-74.5 726.81,-59.29 751.7,-33.42 763.92,-19.74"/>
<polygon fill="#63b8ff" stroke="#63b8ff" points="618.75,-103.66 610.03,-109.66 620.59,-110.41 618.75,-103.66"/>
</a>
</g>
</g>
<!-- Node9 -->
<g id="Node000009" class="node">
<title>Node9</title>
<g id="a_Node000009"><a xlink:href="test__common_8cpp.xhtml" target="_top" xlink:title=" ">
<polygon fill="white" stroke="#666666" points="703.38,-19.25 610.12,-19.25 610.12,0 703.38,0 703.38,-19.25"/>
<text text-anchor="middle" x="656.75" y="-5.75" font-family="Helvetica,sans-Serif" font-size="10.00">test_common.cpp</text>
</a>
</g>
</g>
<!-- Node4&#45;&gt;Node9 -->
<g id="edge9_Node000004_Node000009" class="edge">
<title>Node4&#45;&gt;Node9</title>
<g id="a_edge9_Node000004_Node000009"><a xlink:title=" ">
<path fill="none" stroke="#63b8ff" d="M615.17,-106.95C643.81,-98.53 676.36,-86.68 684.75,-74.5 697.11,-56.55 678.25,-32.26 665.96,-19.43"/>
<polygon fill="#63b8ff" stroke="#63b8ff" points="614.56,-103.48 605.9,-109.59 616.48,-110.21 614.56,-103.48"/>
</a>
</g>
</g>
<!-- Node10 -->
<g id="Node000010" class="node">
<title>Node10</title>
<g id="a_Node000010"><a xlink:href="test__common_8h.xhtml" target="_top" xlink:title=" ">
<polygon fill="white" stroke="#666666" points="676.12,-74.5 593.38,-74.5 593.38,-55.25 676.12,-55.25 676.12,-74.5"/>
<text text-anchor="middle" x="634.75" y="-61" font-family="Helvetica,sans-Serif" font-size="10.00">test_common.h</text>
</a>
</g>
</g>
<!-- Node4&#45;&gt;Node10 -->
<g id="edge10_Node000004_Node000010" class="edge">
<title>Node4&#45;&gt;Node10</title>
<g id="a_edge10_Node000004_Node000010"><a xlink:title=" ">
<path fill="none" stroke="#63b8ff" d="M587.8,-103.19C599.5,-93.89 613.82,-82.51 623.55,-74.77"/>
<polygon fill="#63b8ff" stroke="#63b8ff" points="585.95,-100.19 580.3,-109.15 590.31,-105.67 585.95,-100.19"/>
</a>
</g>
</g>
<!-- Node4&#45;&gt;Node11 -->
<g id="edge13_Node000004_Node000011" class="edge">
<title>Node4&#45;&gt;Node11</title>
<g id="a_edge13_Node000004_Node000011"><a xlink:title=" ">
<path fill="none" stroke="#63b8ff" d="M565.95,-98.98C563.67,-84.95 558.49,-66.77 546.75,-55.25 518.17,-27.21 472.41,-16.74 439.95,-12.85"/>
<polygon fill="#63b8ff" stroke="#63b8ff" points="562.47,-99.37 567.16,-108.88 569.42,-98.53 562.47,-99.37"/>
</a>
</g>
</g>
<!-- Node4&#45;&gt;Node12 -->
<g id="edge14_Node000004_Node000012" class="edge">
<title>Node4&#45;&gt;Node12</title>
<g id="a_edge14_Node000004_Node000012"><a xlink:title=" ">
<path fill="none" stroke="#63b8ff" d="M517.01,-107.48C473.81,-97.56 412.72,-83.54 373.67,-74.58"/>
<polygon fill="#63b8ff" stroke="#63b8ff" points="516.13,-110.87 526.66,-109.69 517.69,-104.04 516.13,-110.87"/>
</a>
</g>
</g>
<!-- Node13 -->
<g id="Node000013" class="node">
<title>Node13</title>
<g id="a_Node000013"><a xlink:href="test__savedconfig_8cpp.xhtml" target="_top" xlink:title=" ">
<polygon fill="white" stroke="#666666" points="537.5,-74.5 430,-74.5 430,-55.25 537.5,-55.25 537.5,-74.5"/>
<text text-anchor="middle" x="483.75" y="-61" font-family="Helvetica,sans-Serif" font-size="10.00">test_savedconfig.cpp</text>
</a>
</g>
</g>
<!-- Node4&#45;&gt;Node13 -->
<g id="edge15_Node000004_Node000013" class="edge">
<title>Node4&#45;&gt;Node13</title>
<g id="a_edge15_Node000004_Node000013"><a xlink:title=" ">
<path fill="none" stroke="#63b8ff" d="M543.98,-104.05C529.18,-94.67 510.64,-82.92 498.07,-74.95"/>
<polygon fill="#63b8ff" stroke="#63b8ff" points="541.9,-106.88 552.22,-109.28 545.65,-100.97 541.9,-106.88"/>
</a>
</g>
</g>
<!-- Node7&#45;&gt;Node8 -->
<g id="edge7_Node000007_Node000008" class="edge">
<title>Node7&#45;&gt;Node8</title>
<g id="a_edge7_Node000007_Node000008"><a xlink:title=" ">
<path fill="none" stroke="#63b8ff" d="M791.16,-45.08C786.28,-36.42 780.73,-26.56 776.81,-19.61"/>
<polygon fill="#63b8ff" stroke="#63b8ff" points="788.1,-46.77 796.05,-53.76 794.19,-43.33 788.1,-46.77"/>
</a>
</g>
</g>
<!-- Node10&#45;&gt;Node9 -->
<g id="edge11_Node000010_Node000009" class="edge">
<title>Node10&#45;&gt;Node9</title>
<g id="a_edge11_Node000010_Node000009"><a xlink:title=" ">
<path fill="none" stroke="#63b8ff" d="M642.75,-44.5C646.27,-35.99 650.23,-26.4 653.04,-19.61"/>
<polygon fill="#63b8ff" stroke="#63b8ff" points="639.54,-43.1 638.96,-53.68 646.01,-45.78 639.54,-43.1"/>
</a>
</g>
</g>
<!-- Node10&#45;&gt;Node11 -->
<g id="edge12_Node000010_Node000011" class="edge">
<title>Node10&#45;&gt;Node11</title>
<g id="a_edge12_Node000010_Node000011"><a xlink:title=" ">
<path fill="none" stroke="#63b8ff" d="M583.82,-52.24C540.58,-42.35 479.46,-28.38 440.21,-19.42"/>
<polygon fill="#63b8ff" stroke="#63b8ff" points="582.96,-55.63 593.49,-54.44 584.52,-48.8 582.96,-55.63"/>
</a>
</g>
</g>
<!-- Node16 -->
<g id="Node000016" class="node">
<title>Node16</title>
<g id="a_Node000016"><a xlink:href="_buffered_msg_8hpp.xhtml" target="_top" xlink:title=" ">
<polygon fill="white" stroke="#666666" points="710.12,-295.5 621.38,-295.5 621.38,-276.25 710.12,-276.25 710.12,-295.5"/>
<text text-anchor="middle" x="665.75" y="-282" font-family="Helvetica,sans-Serif" font-size="10.00">BufferedMsg.hpp</text>
</a>
</g>
</g>
<!-- Node15&#45;&gt;Node16 -->
<g id="edge24_Node000015_Node000016" class="edge">
<title>Node15&#45;&gt;Node16</title>
<g id="a_edge24_Node000015_Node000016"><a xlink:title=" ">
<path fill="none" stroke="#63b8ff" d="M696.07,-322.76C688.49,-313.78 679.54,-303.2 673.34,-295.86"/>
<polygon fill="#63b8ff" stroke="#63b8ff" points="693.21,-324.8 702.34,-330.18 698.56,-320.28 693.21,-324.8"/>
</a>
</g>
</g>
<!-- Node18 -->
<g id="Node000018" class="node">
<title>Node18</title>
<g id="a_Node000018"><a xlink:href="_fab_backend_8hpp.xhtml" target="_top" xlink:title=" ">
<polygon fill="white" stroke="#666666" points="763.12,-185 674.38,-185 674.38,-165.75 763.12,-165.75 763.12,-185"/>
<text text-anchor="middle" x="718.75" y="-171.5" font-family="Helvetica,sans-Serif" font-size="10.00">FabBackend.hpp</text>
</a>
</g>
</g>
<!-- Node15&#45;&gt;Node18 -->
<g id="edge47_Node000015_Node000018" class="edge">
<title>Node15&#45;&gt;Node18</title>
<g id="a_edge47_Node000015_Node000018"><a xlink:title=" ">
<path fill="none" stroke="#63b8ff" d="M715.11,-320.18C716.58,-312.5 718.03,-303.63 718.75,-295.5 722.4,-254.51 720.37,-205.26 719.29,-185.37"/>
<polygon fill="#63b8ff" stroke="#63b8ff" points="711.71,-319.31 713.12,-329.82 718.57,-320.73 711.71,-319.31"/>
</a>
</g>
</g>
<!-- Node24 -->
<g id="Node000024" class="node">
<title>Node24</title>
<g id="a_Node000024"><a xlink:href="_m_q_t_ttypes_8cpp.xhtml" target="_top" xlink:title=" ">
<polygon fill="white" stroke="#666666" points="603.25,-295.5 518.25,-295.5 518.25,-276.25 603.25,-276.25 603.25,-295.5"/>
<text text-anchor="middle" x="560.75" y="-282" font-family="Helvetica,sans-Serif" font-size="10.00">MQTTtypes.cpp</text>
</a>
</g>
</g>
<!-- Node15&#45;&gt;Node24 -->
<g id="edge48_Node000015_Node000024" class="edge">
<title>Node15&#45;&gt;Node24</title>
<g id="a_edge48_Node000015_Node000024"><a xlink:title=" ">
<path fill="none" stroke="#63b8ff" d="M674.63,-327.3C647.36,-317.62 610.61,-304.57 586.32,-295.95"/>
<polygon fill="#63b8ff" stroke="#63b8ff" points="673.28,-330.54 683.88,-330.59 675.63,-323.94 673.28,-330.54"/>
</a>
</g>
</g>
<!-- Node16&#45;&gt;Node13 -->
<g id="edge46_Node000016_Node000013" class="edge">
<title>Node16&#45;&gt;Node13</title>
<g id="a_edge46_Node000016_Node000013"><a xlink:title=" ">
<path fill="none" stroke="#63b8ff" d="M609.94,-274.44C560.41,-264.63 494.68,-250.03 486.75,-240.25 446.13,-190.16 471.03,-102.71 480.54,-74.74"/>
<polygon fill="#63b8ff" stroke="#63b8ff" points="609.21,-277.87 619.69,-276.35 610.55,-271 609.21,-277.87"/>
</a>
</g>
</g>
<!-- Node17 -->
<g id="Node000017" class="node">
<title>Node17</title>
<g id="a_Node000017"><a xlink:href="_buffered_msg_8cpp.xhtml" target="_top" xlink:title=" ">
<polygon fill="white" stroke="#666666" points="584.12,-240.25 495.38,-240.25 495.38,-221 584.12,-221 584.12,-240.25"/>
<text text-anchor="middle" x="539.75" y="-226.75" font-family="Helvetica,sans-Serif" font-size="10.00">BufferedMsg.cpp</text>
</a>
</g>
</g>
<!-- Node16&#45;&gt;Node17 -->
<g id="edge25_Node000016_Node000017" class="edge">
<title>Node16&#45;&gt;Node17</title>
<g id="a_edge25_Node000016_Node000017"><a xlink:title=" ">
<path fill="none" stroke="#63b8ff" d="M633.87,-271.4C611.13,-261.79 581.18,-249.13 561.23,-240.7"/>
<polygon fill="#63b8ff" stroke="#63b8ff" points="632.41,-274.58 642.98,-275.25 635.13,-268.14 632.41,-274.58"/>
</a>
</g>
</g>
<!-- Node16&#45;&gt;Node18 -->
<g id="edge26_Node000016_Node000018" class="edge">
<title>Node16&#45;&gt;Node18</title>
<g id="a_edge26_Node000016_Node000018"><a xlink:title=" ">
<path fill="none" stroke="#63b8ff" d="M681.42,-267.4C687.82,-259.54 694.86,-249.88 699.75,-240.25 709.08,-221.89 714.62,-198.18 717.13,-185.44"/>
<polygon fill="#63b8ff" stroke="#63b8ff" points="678.92,-264.94 675.09,-274.82 684.25,-269.48 678.92,-264.94"/>
</a>
</g>
</g>
<!-- Node22 -->
<g id="Node000022" class="node">
<title>Node22</title>
<g id="a_Node000022"><a xlink:href="_saved_config_8hpp.xhtml" target="_top" xlink:title=" ">
<polygon fill="white" stroke="#666666" points="691.12,-240.25 602.38,-240.25 602.38,-221 691.12,-221 691.12,-240.25"/>
<text text-anchor="middle" x="646.75" y="-226.75" font-family="Helvetica,sans-Serif" font-size="10.00">SavedConfig.hpp</text>
</a>
</g>
</g>
<!-- Node16&#45;&gt;Node22 -->
<g id="edge36_Node000016_Node000022" class="edge">
<title>Node16&#45;&gt;Node22</title>
<g id="a_edge36_Node000016_Node000022"><a xlink:title=" ">
<path fill="none" stroke="#63b8ff" d="M658.84,-265.5C655.8,-256.99 652.38,-247.4 649.96,-240.61"/>
<polygon fill="#63b8ff" stroke="#63b8ff" points="655.45,-266.41 662.1,-274.66 662.04,-264.06 655.45,-266.41"/>
</a>
</g>
</g>
<!-- Node18&#45;&gt;Node4 -->
<g id="edge29_Node000018_Node000004" class="edge">
<title>Node18&#45;&gt;Node4</title>
<g id="a_edge29_Node000018_Node000004"><a xlink:title=" ">
<path fill="none" stroke="#63b8ff" d="M682.39,-161.55C654.94,-151.87 617.94,-138.82 593.49,-130.2"/>
<polygon fill="#63b8ff" stroke="#63b8ff" points="681.11,-164.81 691.71,-164.84 683.44,-158.21 681.11,-164.81"/>
</a>
</g>
</g>
<!-- Node18&#45;&gt;Node5 -->
<g id="edge28_Node000018_Node000005" class="edge">
<title>Node18&#45;&gt;Node5</title>
<g id="a_edge28_Node000018_Node000005"><a xlink:title=" ">
<path fill="none" stroke="#63b8ff" d="M728.57,-155.93C737.5,-141.09 752.13,-121.05 770.75,-110.5 793.67,-97.52 959.46,-78.63 1038.74,-70.21"/>
<polygon fill="#63b8ff" stroke="#63b8ff" points="725.72,-153.86 723.84,-164.28 731.81,-157.3 725.72,-153.86"/>
</a>
</g>
</g>
<!-- Node18&#45;&gt;Node7 -->
<g id="edge32_Node000018_Node000007" class="edge">
<title>Node18&#45;&gt;Node7</title>
<g id="a_edge32_Node000018_Node000007"><a xlink:title=" ">
<path fill="none" stroke="#63b8ff" d="M721.27,-153.96C723.72,-140.59 728.51,-123.29 737.75,-110.5 749.17,-94.69 767.99,-82.54 782.28,-74.95"/>
<polygon fill="#63b8ff" stroke="#63b8ff" points="717.81,-153.39 719.78,-163.8 724.73,-154.43 717.81,-153.39"/>
</a>
</g>
</g>
<!-- Node18&#45;&gt;Node11 -->
<g id="edge33_Node000018_Node000011" class="edge">
<title>Node18&#45;&gt;Node11</title>
<g id="a_edge33_Node000018_Node000011"><a xlink:title=" ">
<path fill="none" stroke="#63b8ff" d="M662.96,-170.01C616.58,-164.8 549.68,-153.59 495.75,-129.75 457.88,-113.01 444.55,-108.38 420.75,-74.5 408.78,-57.46 404.25,-32.8 402.61,-19.67"/>
<polygon fill="#63b8ff" stroke="#63b8ff" points="662.48,-173.47 672.79,-171.04 663.21,-166.51 662.48,-173.47"/>
</a>
</g>
</g>
<!-- Node18&#45;&gt;Node12 -->
<g id="edge34_Node000018_Node000012" class="edge">
<title>Node18&#45;&gt;Node12</title>
<g id="a_edge34_Node000018_Node000012"><a xlink:title=" ">
<path fill="none" stroke="#63b8ff" d="M662.75,-170.22C585.82,-163.86 451.94,-150.23 407.75,-129.75 379.55,-116.68 354.32,-88.88 342.63,-74.66"/>
<polygon fill="#63b8ff" stroke="#63b8ff" points="662.37,-173.7 672.62,-171.02 662.93,-166.72 662.37,-173.7"/>
</a>
</g>
</g>
<!-- Node18&#45;&gt;Node13 -->
<g id="edge35_Node000018_Node000013" class="edge">
<title>Node18&#45;&gt;Node13</title>
<g id="a_edge35_Node000018_Node000013"><a xlink:title=" ">
<path fill="none" stroke="#63b8ff" d="M662.72,-174.49C618.89,-171.86 558.56,-161.91 516.75,-129.75 498.55,-115.75 489.46,-88.88 485.79,-74.87"/>
<polygon fill="#63b8ff" stroke="#63b8ff" points="662.38,-177.98 672.54,-174.96 662.72,-170.99 662.38,-177.98"/>
</a>
</g>
</g>
<!-- Node19 -->
<g id="Node000019" class="node">
<title>Node19</title>
<g id="a_Node000019"><a xlink:href="_auth_provider_8cpp.xhtml" target="_top" xlink:title=" ">
<polygon fill="white" stroke="#666666" points="976.88,-129.75 886.62,-129.75 886.62,-110.5 976.88,-110.5 976.88,-129.75"/>
<text text-anchor="middle" x="931.75" y="-116.25" font-family="Helvetica,sans-Serif" font-size="10.00">AuthProvider.cpp</text>
</a>
</g>
</g>
<!-- Node18&#45;&gt;Node19 -->
<g id="edge27_Node000018_Node000019" class="edge">
<title>Node18&#45;&gt;Node19</title>
<g id="a_edge27_Node000018_Node000019"><a xlink:title=" ">
<path fill="none" stroke="#63b8ff" d="M765.96,-162.57C805.03,-152.8 859.73,-139.13 895.44,-130.2"/>
<polygon fill="#63b8ff" stroke="#63b8ff" points="765.2,-159.15 756.35,-164.97 766.9,-165.94 765.2,-159.15"/>
</a>
</g>
</g>
<!-- Node20 -->
<g id="Node000020" class="node">
<title>Node20</title>
<g id="a_Node000020"><a xlink:href="_fab_backend_8cpp.xhtml" target="_top" xlink:title=" ">
<polygon fill="white" stroke="#666666" points="868.12,-129.75 779.38,-129.75 779.38,-110.5 868.12,-110.5 868.12,-129.75"/>
<text text-anchor="middle" x="823.75" y="-116.25" font-family="Helvetica,sans-Serif" font-size="10.00">FabBackend.cpp</text>
</a>
</g>
</g>
<!-- Node18&#45;&gt;Node20 -->
<g id="edge30_Node000018_Node000020" class="edge">
<title>Node18&#45;&gt;Node20</title>
<g id="a_edge30_Node000018_Node000020"><a xlink:title=" ">
<path fill="none" stroke="#63b8ff" d="M746.62,-160.24C765.39,-150.72 789.61,-138.44 805.85,-130.2"/>
<polygon fill="#63b8ff" stroke="#63b8ff" points="745.25,-157.01 737.91,-164.66 748.41,-163.26 745.25,-157.01"/>
</a>
</g>
</g>
<!-- Node18&#45;&gt;Node21 -->
<g id="edge31_Node000018_Node000021" class="edge">
<title>Node18&#45;&gt;Node21</title>
<g id="a_edge31_Node000018_Node000021"><a xlink:title=" ">
<path fill="none" stroke="#63b8ff" d="M774.36,-168.46C877.94,-157.45 1097.75,-134.09 1183.98,-124.93"/>
<polygon fill="#63b8ff" stroke="#63b8ff" points="774.29,-164.95 764.72,-169.49 775.03,-171.91 774.29,-164.95"/>
</a>
</g>
</g>
<!-- Node22&#45;&gt;Node5 -->
<g id="edge37_Node000022_Node000005" class="edge">
<title>Node22&#45;&gt;Node5</title>
<g id="a_edge37_Node000022_Node000005"><a xlink:title=" ">
<path fill="none" stroke="#63b8ff" d="M649.3,-209.23C651.77,-195.87 656.56,-178.58 665.75,-165.75 690.5,-131.22 704.2,-126.02 743.75,-110.5 770.7,-99.92 954.38,-79.34 1038.65,-70.3"/>
<polygon fill="#63b8ff" stroke="#63b8ff" points="645.85,-208.65 647.8,-219.06 652.77,-209.7 645.85,-208.65"/>
</a>
</g>
</g>
<!-- Node22&#45;&gt;Node7 -->
<g id="edge41_Node000022_Node000007" class="edge">
<title>Node22&#45;&gt;Node7</title>
<g id="a_edge41_Node000022_Node000007"><a xlink:title=" ">
<path fill="none" stroke="#63b8ff" d="M636.01,-210.88C629.92,-197.56 624.92,-179.66 632.75,-165.75 661.67,-114.37 728.68,-86.82 769.09,-74.36"/>
<polygon fill="#63b8ff" stroke="#63b8ff" points="632.74,-212.16 640.44,-219.44 638.96,-208.95 632.74,-212.16"/>
</a>
</g>
</g>
<!-- Node22&#45;&gt;Node8 -->
<g id="edge42_Node000022_Node000008" class="edge">
<title>Node22&#45;&gt;Node8</title>
<g id="a_edge42_Node000022_Node000008"><a xlink:title=" ">
<path fill="none" stroke="#63b8ff" d="M591.58,-217.97C559.72,-210.38 519.25,-199.22 484.75,-185 388.17,-145.18 218.07,-132.18 288.75,-55.25 320.74,-20.43 665.78,-24.67 712.75,-19.25 722.93,-18.07 734.06,-16.52 743.88,-15.05"/>
<polygon fill="#63b8ff" stroke="#63b8ff" points="590.46,-221.31 600.99,-220.17 592.05,-214.49 590.46,-221.31"/>
</a>
</g>
</g>
<!-- Node22&#45;&gt;Node11 -->
<g id="edge43_Node000022_Node000011" class="edge">
<title>Node22&#45;&gt;Node11</title>
<g id="a_edge43_Node000022_Node000011"><a xlink:title=" ">
<path fill="none" stroke="#63b8ff" d="M590.91,-219.55C535.47,-209.35 454.45,-193.85 423.75,-185 357.49,-165.89 321.86,-183.58 278.75,-129.75 257.93,-103.76 251.37,-82.33 270.75,-55.25 291.66,-26.04 332.82,-15.73 363.45,-12.2"/>
<polygon fill="#63b8ff" stroke="#63b8ff" points="590.02,-222.95 600.49,-221.31 591.28,-216.06 590.02,-222.95"/>
</a>
</g>
</g>
<!-- Node22&#45;&gt;Node12 -->
<g id="edge44_Node000022_Node000012" class="edge">
<title>Node22&#45;&gt;Node12</title>
<g id="a_edge44_Node000022_Node000012"><a xlink:title=" ">
<path fill="none" stroke="#63b8ff" d="M605.51,-217.15C581.18,-209.18 550.1,-197.94 523.75,-185 453.69,-150.6 377.14,-96.32 347.96,-74.95"/>
<polygon fill="#63b8ff" stroke="#63b8ff" points="604.14,-220.38 614.73,-220.11 606.28,-213.72 604.14,-220.38"/>
</a>
</g>
</g>
<!-- Node22&#45;&gt;Node13 -->
<g id="edge45_Node000022_Node000013" class="edge">
<title>Node22&#45;&gt;Node13</title>
<g id="a_edge45_Node000022_Node000013"><a xlink:title=" ">
<path fill="none" stroke="#63b8ff" d="M611.86,-216.21C576.75,-200.81 523.87,-172.11 495.75,-129.75 484.52,-112.83 483.15,-88.12 483.32,-74.95"/>
<polygon fill="#63b8ff" stroke="#63b8ff" points="610.18,-219.29 620.75,-219.97 612.9,-212.85 610.18,-219.29"/>
</a>
</g>
</g>
<!-- Node22&#45;&gt;Node18 -->
<g id="edge39_Node000022_Node000018" class="edge">
<title>Node22&#45;&gt;Node18</title>
<g id="a_edge39_Node000022_Node000018"><a xlink:title=" ">
<path fill="none" stroke="#63b8ff" d="M667.92,-213.97C680.56,-204.62 696.16,-193.08 706.72,-185.27"/>
<polygon fill="#63b8ff" stroke="#63b8ff" points="666.14,-210.93 660.18,-219.69 670.3,-216.56 666.14,-210.93"/>
</a>
</g>
</g>
<!-- Node22&#45;&gt;Node20 -->
<g id="edge38_Node000022_Node000020" class="edge">
<title>Node22&#45;&gt;Node20</title>
<g id="a_edge38_Node000022_Node000020"><a xlink:title=" ">
<path fill="none" stroke="#63b8ff" d="M700.23,-217.49C723.6,-210.5 750.47,-200.04 771.75,-185 793.24,-169.82 810.7,-143.46 818.82,-129.84"/>
<polygon fill="#63b8ff" stroke="#63b8ff" points="699.54,-214.05 690.88,-220.14 701.45,-220.78 699.54,-214.05"/>
</a>
</g>
</g>
<!-- Node23 -->
<g id="Node000023" class="node">
<title>Node23</title>
<g id="a_Node000023"><a xlink:href="_saved_config_8cpp.xhtml" target="_top" xlink:title=" ">
<polygon fill="white" stroke="#666666" points="907.12,-185 818.38,-185 818.38,-165.75 907.12,-165.75 907.12,-185"/>
<text text-anchor="middle" x="862.75" y="-171.5" font-family="Helvetica,sans-Serif" font-size="10.00">SavedConfig.cpp</text>
</a>
</g>
</g>
<!-- Node22&#45;&gt;Node23 -->
<g id="edge40_Node000022_Node000023" class="edge">
<title>Node22&#45;&gt;Node23</title>
<g id="a_edge40_Node000022_Node000023"><a xlink:title=" ">
<path fill="none" stroke="#63b8ff" d="M694.37,-217.88C734.01,-208.11 789.64,-194.4 825.93,-185.45"/>
<polygon fill="#63b8ff" stroke="#63b8ff" points="693.73,-214.44 684.86,-220.23 695.41,-221.23 693.73,-214.44"/>
</a>
</g>
</g>
<!-- Node25&#45;&gt;Node4 -->
<g id="edge59_Node000025_Node000004" class="edge">
<title>Node25&#45;&gt;Node4</title>
<g id="a_edge59_Node000025_Node000004"><a xlink:title=" ">
<path fill="none" stroke="#63b8ff" d="M1075.55,-221.55C1040.38,-214.31 990.33,-202.17 948.75,-185 933.06,-178.52 931.83,-171.22 915.75,-165.75 809.79,-129.71 676.65,-122.42 609.94,-121.17"/>
<polygon fill="#63b8ff" stroke="#63b8ff" points="1074.44,-224.9 1084.94,-223.43 1075.82,-218.04 1074.44,-224.9"/>
</a>
</g>
</g>
<!-- Node25&#45;&gt;Node5 -->
<g id="edge58_Node000025_Node000005" class="edge">
<title>Node25&#45;&gt;Node5</title>
<g id="a_edge58_Node000025_Node000005"><a xlink:title=" ">
<path fill="none" stroke="#63b8ff" d="M1164.25,-228.77C1232.02,-226.41 1356.17,-217.64 1383.75,-185 1389.27,-178.47 1386.7,-173.78 1383.75,-165.75 1372.62,-135.49 1364.74,-126.5 1336.75,-110.5 1300.96,-90.04 1185.81,-76.05 1122.84,-69.72"/>
<polygon fill="#63b8ff" stroke="#63b8ff" points="1164.48,-225.26 1154.6,-229.07 1164.7,-232.25 1164.48,-225.26"/>
</a>
</g>
</g>
<!-- Node25&#45;&gt;Node7 -->
<g id="edge67_Node000025_Node000007" class="edge">
<title>Node25&#45;&gt;Node7</title>
<g id="a_edge67_Node000025_Node000007"><a xlink:title=" ">
<path fill="none" stroke="#63b8ff" d="M1131.61,-211C1138.32,-198 1144.18,-180.42 1137.75,-165.75 1123.19,-132.55 1110.36,-126.34 1077.75,-110.5 1035.29,-89.87 898.03,-74.83 834.53,-68.79"/>
<polygon fill="#63b8ff" stroke="#63b8ff" points="1128.75,-208.96 1126.79,-219.37 1134.82,-212.45 1128.75,-208.96"/>
</a>
</g>
</g>
<!-- Node25&#45;&gt;Node20 -->
<g id="edge60_Node000025_Node000020" class="edge">
<title>Node25&#45;&gt;Node20</title>
<g id="a_edge60_Node000025_Node000020"><a xlink:title=" ">
<path fill="none" stroke="#63b8ff" d="M1085.26,-216.57C1050.76,-203.56 996.16,-183.07 948.75,-165.75 914.55,-153.26 874.95,-139.19 849.65,-130.25"/>
<polygon fill="#63b8ff" stroke="#63b8ff" points="1083.71,-219.73 1094.3,-219.99 1086.18,-213.18 1083.71,-219.73"/>
</a>
</g>
</g>
<!-- Node25&#45;&gt;Node21 -->
<g id="edge61_Node000025_Node000021" class="edge">
<title>Node25&#45;&gt;Node21</title>
<g id="a_edge61_Node000025_Node000021"><a xlink:title=" ">
<path fill="none" stroke="#63b8ff" d="M1139.9,-213.58C1149.63,-205.44 1161.24,-195.15 1170.75,-185 1187.77,-166.85 1204.81,-143.06 1213.61,-130.25"/>
<polygon fill="#63b8ff" stroke="#63b8ff" points="1137.96,-210.64 1132.44,-219.69 1142.39,-216.06 1137.96,-210.64"/>
</a>
</g>
</g>
<!-- Node25&#45;&gt;Node23 -->
<g id="edge66_Node000025_Node000023" class="edge">
<title>Node25&#45;&gt;Node23</title>
<g id="a_edge66_Node000025_Node000023"><a xlink:title=" ">
<path fill="none" stroke="#63b8ff" d="M1075.04,-220.36C1027.76,-210.56 953.66,-195.21 906.68,-185.48"/>
<polygon fill="#63b8ff" stroke="#63b8ff" points="1074.17,-223.75 1084.67,-222.36 1075.59,-216.9 1074.17,-223.75"/>
</a>
</g>
</g>
<!-- Node26 -->
<g id="Node000026" class="node">
<title>Node26</title>
<g id="a_Node000026"><a xlink:href="_auth_provider_8hpp.xhtml" target="_top" xlink:title=" ">
<polygon fill="white" stroke="#666666" points="1128.88,-185 1038.62,-185 1038.62,-165.75 1128.88,-165.75 1128.88,-185"/>
<text text-anchor="middle" x="1083.75" y="-171.5" font-family="Helvetica,sans-Serif" font-size="10.00">AuthProvider.hpp</text>
</a>
</g>
</g>
<!-- Node25&#45;&gt;Node26 -->
<g id="edge52_Node000025_Node000026" class="edge">
<title>Node25&#45;&gt;Node26</title>
<g id="a_edge52_Node000025_Node000026"><a xlink:title=" ">
<path fill="none" stroke="#63b8ff" d="M1107.43,-211.4C1101.49,-202.61 1094.63,-192.46 1089.82,-185.36"/>
<polygon fill="#63b8ff" stroke="#63b8ff" points="1104.46,-213.25 1112.96,-219.58 1110.26,-209.33 1104.46,-213.25"/>
</a>
</g>
</g>
<!-- Node27 -->
<g id="Node000027" class="node">
<title>Node27</title>
<g id="a_Node000027"><a xlink:href="_mock_m_q_t_t_broker_8cpp.xhtml" target="_top" xlink:title=" ">
<polygon fill="white" stroke="#666666" points="1374.88,-185 1260.62,-185 1260.62,-165.75 1374.88,-165.75 1374.88,-185"/>
<text text-anchor="middle" x="1317.75" y="-171.5" font-family="Helvetica,sans-Serif" font-size="10.00">MockMQTTBroker.cpp</text>
</a>
</g>
</g>
<!-- Node25&#45;&gt;Node27 -->
<g id="edge62_Node000025_Node000027" class="edge">
<title>Node25&#45;&gt;Node27</title>
<g id="a_edge62_Node000025_Node000027"><a xlink:title=" ">
<path fill="none" stroke="#63b8ff" d="M1164.11,-217.7C1200.39,-207.94 1250.94,-194.34 1284,-185.45"/>
<polygon fill="#63b8ff" stroke="#63b8ff" points="1163.55,-214.22 1154.8,-220.2 1165.37,-220.98 1163.55,-214.22"/>
</a>
</g>
</g>
<!-- Node28 -->
<g id="Node000028" class="node">
<title>Node28</title>
<g id="a_Node000028"><a xlink:href="_o_t_a_8hpp.xhtml" target="_top" xlink:title=" ">
<polygon fill="white" stroke="#666666" points="1327.88,-129.75 1273.62,-129.75 1273.62,-110.5 1327.88,-110.5 1327.88,-129.75"/>
<text text-anchor="middle" x="1300.75" y="-116.25" font-family="Helvetica,sans-Serif" font-size="10.00">OTA.hpp</text>
</a>
</g>
</g>
<!-- Node25&#45;&gt;Node28 -->
<g id="edge63_Node000025_Node000028" class="edge">
<title>Node25&#45;&gt;Node28</title>
<g id="a_edge63_Node000025_Node000028"><a xlink:title=" ">
<path fill="none" stroke="#63b8ff" d="M1144.67,-214.69C1182.76,-191.86 1254.33,-148.95 1285.55,-130.24"/>
<polygon fill="#63b8ff" stroke="#63b8ff" points="1142.95,-211.64 1136.17,-219.78 1146.55,-217.64 1142.95,-211.64"/>
</a>
</g>
</g>
<!-- Node26&#45;&gt;Node4 -->
<g id="edge55_Node000026_Node000004" class="edge">
<title>Node26&#45;&gt;Node4</title>
<g id="a_edge55_Node000026_Node000004"><a xlink:title=" ">
<path fill="none" stroke="#63b8ff" d="M1027.18,-168.54C922.84,-157.77 702.32,-135.01 609.9,-125.47"/>
<polygon fill="#63b8ff" stroke="#63b8ff" points="1026.6,-172 1036.91,-169.54 1027.32,-165.03 1026.6,-172"/>
</a>
</g>
</g>
<!-- Node26&#45;&gt;Node5 -->
<g id="edge54_Node000026_Node000005" class="edge">
<title>Node26&#45;&gt;Node5</title>
<g id="a_edge54_Node000026_Node000005"><a xlink:title=" ">
<path fill="none" stroke="#63b8ff" d="M1090.47,-154.66C1093.94,-142.05 1097.02,-125.34 1094.75,-110.5 1092.81,-97.82 1087.93,-83.79 1084.48,-74.91"/>
<polygon fill="#63b8ff" stroke="#63b8ff" points="1087.24,-153.26 1087.63,-163.85 1093.92,-155.33 1087.24,-153.26"/>
</a>
</g>
</g>
<!-- Node26&#45;&gt;Node7 -->
<g id="edge56_Node000026_Node000007" class="edge">
<title>Node26&#45;&gt;Node7</title>
<g id="a_edge56_Node000026_Node000007"><a xlink:title=" ">
<path fill="none" stroke="#63b8ff" d="M1080.44,-154.08C1077,-139.71 1070.16,-121.17 1056.75,-110.5 1022.81,-83.5 895.11,-71.85 834.31,-67.75"/>
<polygon fill="#63b8ff" stroke="#63b8ff" points="1076.99,-154.71 1082.36,-163.85 1083.86,-153.36 1076.99,-154.71"/>
</a>
</g>
</g>
<!-- Node26&#45;&gt;Node13 -->
<g id="edge57_Node000026_Node000013" class="edge">
<title>Node26&#45;&gt;Node13</title>
<g id="a_edge57_Node000026_Node000013"><a xlink:title=" ">
<path fill="none" stroke="#63b8ff" d="M1065.13,-158.19C1046.45,-142.97 1016.15,-121.02 985.75,-110.5 980.49,-108.68 666.38,-81.56 537.76,-70.51"/>
<polygon fill="#63b8ff" stroke="#63b8ff" points="1062.71,-160.72 1072.62,-164.46 1067.2,-155.35 1062.71,-160.72"/>
</a>
</g>
</g>
<!-- Node26&#45;&gt;Node19 -->
<g id="edge53_Node000026_Node000019" class="edge">
<title>Node26&#45;&gt;Node19</title>
<g id="a_edge53_Node000026_Node000019"><a xlink:title=" ">
<path fill="none" stroke="#63b8ff" d="M1047.15,-161.55C1019.51,-151.87 982.27,-138.82 957.66,-130.2"/>
<polygon fill="#63b8ff" stroke="#63b8ff" points="1045.94,-164.84 1056.54,-164.84 1048.26,-158.23 1045.94,-164.84"/>
</a>
</g>
</g>
<!-- Node28&#45;&gt;Node6 -->
<g id="edge64_Node000028_Node000006" class="edge">
<title>Node28&#45;&gt;Node6</title>
<g id="a_edge64_Node000028_Node000006"><a xlink:title=" ">
<path fill="none" stroke="#63b8ff" d="M1262.08,-110.35C1152.61,-90.04 1035.19,-75.25 983.07,-69.04"/>
<polygon fill="#63b8ff" stroke="#63b8ff" points="1261.36,-113.77 1271.84,-112.18 1262.66,-106.89 1261.36,-113.77"/>
</a>
</g>
</g>
<!-- Node28&#45;&gt;Node8 -->
<g id="edge65_Node000028_Node000008" class="edge">
<title>Node28&#45;&gt;Node8</title>
<g id="a_edge65_Node000028_Node000008"><a xlink:title=" ">
<path fill="none" stroke="#63b8ff" d="M1271.1,-105.44C1237.89,-90.7 1182.09,-67.69 1131.75,-55.25 1010.39,-25.25 860.79,-14.94 799.71,-11.83"/>
<polygon fill="#63b8ff" stroke="#63b8ff" points="1269.52,-108.57 1280.08,-109.48 1272.39,-102.18 1269.52,-108.57"/>
</a>
</g>
</g>
</g>
</svg>
