<?xml version="1.0" encoding="UTF-8" standalone="no"?>
<!DOCTYPE svg PUBLIC "-//W3C//DTD SVG 1.1//EN"
 "http://www.w3.org/Graphics/SVG/1.1/DTD/svg11.dtd">
<!-- Generated by graphviz version 9.0.0 (20230911.1827)
 -->
<!-- Title: MockMrfc522.cpp Pages: 1 -->
<svg width="866pt" height="359pt"
 viewBox="0.00 0.00 865.65 358.75" xmlns="http://www.w3.org/2000/svg" xmlns:xlink="http://www.w3.org/1999/xlink">
<g id="graph0" class="graph" transform="scale(1 1) rotate(0) translate(4 354.75)">
<title>MockMrfc522.cpp</title>
<!-- Node1 -->
<g id="Node000001" class="node">
<title>Node1</title>
<g id="a_Node000001"><a xlink:title=" ">
<polygon fill="#999999" stroke="#666666" points="697.88,-350.75 604.62,-350.75 604.62,-331.5 697.88,-331.5 697.88,-350.75"/>
<text text-anchor="middle" x="651.25" y="-337.25" font-family="Helvetica,sans-Serif" font-size="10.00">MockMrfc522.cpp</text>
</a>
</g>
</g>
<!-- Node2 -->
<g id="Node000002" class="node">
<title>Node2</title>
<g id="a_Node000002"><a xlink:href="_mock_mrfc522_8hpp.xhtml" target="_top" xlink:title=" ">
<polygon fill="white" stroke="#666666" points="550.38,-295.5 430.12,-295.5 430.12,-276.25 550.38,-276.25 550.38,-295.5"/>
<text text-anchor="middle" x="490.25" y="-282" font-family="Helvetica,sans-Serif" font-size="10.00">mock/MockMrfc522.hpp</text>
</a>
</g>
</g>
<!-- Node1&#45;&gt;Node2 -->
<g id="edge1_Node000001_Node000002" class="edge">
<title>Node1&#45;&gt;Node2</title>
<g id="a_edge1_Node000001_Node000002"><a xlink:title=" ">
<path fill="none" stroke="#63b8ff" d="M623.94,-331.09C597.69,-322.41 557.77,-309.21 528.39,-299.49"/>
<polygon fill="#63b8ff" stroke="#63b8ff" points="529.73,-296.24 519.13,-296.43 527.53,-302.89 529.73,-296.24"/>
</a>
</g>
</g>
<!-- Node21 -->
<g id="Node000021" class="node">
<title>Node21</title>
<g id="a_Node000021"><a xlink:href="_tasks_8hpp.xhtml" target="_top" xlink:title=" ">
<polygon fill="white" stroke="#666666" points="748.75,-240.25 687.75,-240.25 687.75,-221 748.75,-221 748.75,-240.25"/>
<text text-anchor="middle" x="718.25" y="-226.75" font-family="Helvetica,sans-Serif" font-size="10.00">Tasks.hpp</text>
</a>
</g>
</g>
<!-- Node1&#45;&gt;Node21 -->
<g id="edge33_Node000001_Node000021" class="edge">
<title>Node1&#45;&gt;Node21</title>
<g id="a_edge33_Node000001_Node000021"><a xlink:title=" ">
<path fill="none" stroke="#63b8ff" d="M652.38,-331.26C654.34,-318.33 659.27,-293.94 670.25,-276.25 677.09,-265.23 687.36,-255.17 696.64,-247.41"/>
<polygon fill="#63b8ff" stroke="#63b8ff" points="698.57,-250.35 704.25,-241.4 694.23,-244.85 698.57,-250.35"/>
</a>
</g>
</g>
<!-- Node24 -->
<g id="Node000024" class="node">
<title>Node24</title>
<g id="a_Node000024"><a xlink:title=" ">
<polygon fill="#e0e0e0" stroke="#999999" points="735.12,-295.5 679.38,-295.5 679.38,-276.25 735.12,-276.25 735.12,-295.5"/>
<text text-anchor="middle" x="707.25" y="-282" font-family="Helvetica,sans-Serif" font-size="10.00">algorithm</text>
</a>
</g>
</g>
<!-- Node1&#45;&gt;Node24 -->
<g id="edge34_Node000001_Node000024" class="edge">
<title>Node1&#45;&gt;Node24</title>
<g id="a_edge34_Node000001_Node000024"><a xlink:title=" ">
<path fill="none" stroke="#63b8ff" d="M660.75,-331.09C668.68,-323.55 680.2,-312.6 689.79,-303.48"/>
<polygon fill="#63b8ff" stroke="#63b8ff" points="691.96,-306.24 696.79,-296.82 687.14,-301.17 691.96,-306.24"/>
</a>
</g>
</g>
<!-- Node3 -->
<g id="Node000003" class="node">
<title>Node3</title>
<g id="a_Node000003"><a xlink:title=" ">
<polygon fill="#e0e0e0" stroke="#999999" points="639.5,-129.75 583,-129.75 583,-110.5 639.5,-110.5 639.5,-129.75"/>
<text text-anchor="middle" x="611.25" y="-116.25" font-family="Helvetica,sans-Serif" font-size="10.00">Arduino.h</text>
</a>
</g>
</g>
<!-- Node2&#45;&gt;Node3 -->
<g id="edge2_Node000002_Node000003" class="edge">
<title>Node2&#45;&gt;Node3</title>
<g id="a_edge2_Node000002_Node000003"><a xlink:title=" ">
<path fill="none" stroke="#63b8ff" d="M545.36,-275.83C568.71,-269.43 594.55,-258.59 612.25,-240.25 635.9,-215.74 637.06,-199.13 630.25,-165.75 628.46,-156.99 624.89,-147.82 621.32,-140.09"/>
<polygon fill="#63b8ff" stroke="#63b8ff" points="624.57,-138.75 616.98,-131.36 618.3,-141.87 624.57,-138.75"/>
</a>
</g>
</g>
<!-- Node4 -->
<g id="Node000004" class="node">
<title>Node4</title>
<g id="a_Node000004"><a xlink:title=" ">
<polygon fill="#e0e0e0" stroke="#999999" points="620.75,-185 583.75,-185 583.75,-165.75 620.75,-165.75 620.75,-185"/>
<text text-anchor="middle" x="602.25" y="-171.5" font-family="Helvetica,sans-Serif" font-size="10.00">array</text>
</a>
</g>
</g>
<!-- Node2&#45;&gt;Node4 -->
<g id="edge3_Node000002_Node000004" class="edge">
<title>Node2&#45;&gt;Node4</title>
<g id="a_edge3_Node000002_Node000004"><a xlink:title=" ">
<path fill="none" stroke="#63b8ff" d="M537.25,-275.77C557.91,-269.33 580.55,-258.46 594.25,-240.25 603.61,-227.81 605.15,-209.98 604.61,-196.33"/>
<polygon fill="#63b8ff" stroke="#63b8ff" points="608.13,-196.41 603.82,-186.74 601.16,-196.99 608.13,-196.41"/>
</a>
</g>
</g>
<!-- Node5 -->
<g id="Node000005" class="node">
<title>Node5</title>
<g id="a_Node000005"><a xlink:title=" ">
<polygon fill="#e0e0e0" stroke="#999999" points="50.5,-240.25 0,-240.25 0,-221 50.5,-221 50.5,-240.25"/>
<text text-anchor="middle" x="25.25" y="-226.75" font-family="Helvetica,sans-Serif" font-size="10.00">memory</text>
</a>
</g>
</g>
<!-- Node2&#45;&gt;Node5 -->
<g id="edge4_Node000002_Node000005" class="edge">
<title>Node2&#45;&gt;Node5</title>
<g id="a_edge4_Node000002_Node000005"><a xlink:title=" ">
<path fill="none" stroke="#63b8ff" d="M429.9,-281.4C348.41,-276.1 198.52,-264.19 61.86,-240.48"/>
<polygon fill="#63b8ff" stroke="#63b8ff" points="62.73,-237.08 52.27,-238.79 61.51,-243.97 62.73,-237.08"/>
</a>
</g>
</g>
<!-- Node6 -->
<g id="Node000006" class="node">
<title>Node6</title>
<g id="a_Node000006"><a xlink:title=" ">
<polygon fill="#e0e0e0" stroke="#999999" points="118.12,-240.25 68.38,-240.25 68.38,-221 118.12,-221 118.12,-240.25"/>
<text text-anchor="middle" x="93.25" y="-226.75" font-family="Helvetica,sans-Serif" font-size="10.00">optional</text>
</a>
</g>
</g>
<!-- Node2&#45;&gt;Node6 -->
<g id="edge5_Node000002_Node000006" class="edge">
<title>Node2&#45;&gt;Node6</title>
<g id="a_edge5_Node000002_Node000006"><a xlink:title=" ">
<path fill="none" stroke="#63b8ff" d="M429.84,-279.8C359.83,-273.39 240.85,-260.9 129.52,-240.46"/>
<polygon fill="#63b8ff" stroke="#63b8ff" points="130.38,-237.06 119.91,-238.66 129.1,-243.94 130.38,-237.06"/>
</a>
</g>
</g>
<!-- Node7 -->
<g id="Node000007" class="node">
<title>Node7</title>
<g id="a_Node000007"><a xlink:href="_fab_user_8hpp.xhtml" target="_top" xlink:title=" ">
<polygon fill="white" stroke="#666666" points="208,-240.25 136.5,-240.25 136.5,-221 208,-221 208,-240.25"/>
<text text-anchor="middle" x="172.25" y="-226.75" font-family="Helvetica,sans-Serif" font-size="10.00">FabUser.hpp</text>
</a>
</g>
</g>
<!-- Node2&#45;&gt;Node7 -->
<g id="edge6_Node000002_Node000007" class="edge">
<title>Node2&#45;&gt;Node7</title>
<g id="a_edge6_Node000002_Node000007"><a xlink:title=" ">
<path fill="none" stroke="#63b8ff" d="M431.59,-275.76C378.74,-267.44 298.61,-254.57 219.28,-240.57"/>
<polygon fill="#63b8ff" stroke="#63b8ff" points="220.04,-237.15 209.59,-238.85 218.82,-244.04 220.04,-237.15"/>
</a>
</g>
</g>
<!-- Node18 -->
<g id="Node000018" class="node">
<title>Node18</title>
<g id="a_Node000018"><a xlink:title=" ">
<polygon fill="#e0e0e0" stroke="#999999" points="362.62,-240.25 225.88,-240.25 225.88,-221 362.62,-221 362.62,-240.25"/>
<text text-anchor="middle" x="294.25" y="-226.75" font-family="Helvetica,sans-Serif" font-size="10.00">MFRC522DriverPinSimple.h</text>
</a>
</g>
</g>
<!-- Node2&#45;&gt;Node18 -->
<g id="edge25_Node000002_Node000018" class="edge">
<title>Node2&#45;&gt;Node18</title>
<g id="a_edge25_Node000002_Node000018"><a xlink:title=" ">
<path fill="none" stroke="#63b8ff" d="M457,-275.84C424.34,-266.97 374.31,-253.37 338.34,-243.6"/>
<polygon fill="#63b8ff" stroke="#63b8ff" points="339.69,-240.34 329.12,-241.1 337.85,-247.1 339.69,-240.34"/>
</a>
</g>
</g>
<!-- Node19 -->
<g id="Node000019" class="node">
<title>Node19</title>
<g id="a_Node000019"><a xlink:title=" ">
<polygon fill="#e0e0e0" stroke="#999999" points="489.75,-240.25 380.75,-240.25 380.75,-221 489.75,-221 489.75,-240.25"/>
<text text-anchor="middle" x="435.25" y="-226.75" font-family="Helvetica,sans-Serif" font-size="10.00">MFRC522DriverSPI.h</text>
</a>
</g>
</g>
<!-- Node2&#45;&gt;Node19 -->
<g id="edge26_Node000002_Node000019" class="edge">
<title>Node2&#45;&gt;Node19</title>
<g id="a_edge26_Node000002_Node000019"><a xlink:title=" ">
<path fill="none" stroke="#63b8ff" d="M481.17,-276.08C473.41,-268.57 462.04,-257.56 452.55,-248.38"/>
<polygon fill="#63b8ff" stroke="#63b8ff" points="455.24,-246.1 445.62,-241.66 450.37,-251.13 455.24,-246.1"/>
</a>
</g>
</g>
<!-- Node20 -->
<g id="Node000020" class="node">
<title>Node20</title>
<g id="a_Node000020"><a xlink:title=" ">
<polygon fill="#e0e0e0" stroke="#999999" points="585,-240.25 507.5,-240.25 507.5,-221 585,-221 585,-240.25"/>
<text text-anchor="middle" x="546.25" y="-226.75" font-family="Helvetica,sans-Serif" font-size="10.00">MFRC522v2.h</text>
</a>
</g>
</g>
<!-- Node2&#45;&gt;Node20 -->
<g id="edge27_Node000002_Node000020" class="edge">
<title>Node2&#45;&gt;Node20</title>
<g id="a_edge27_Node000002_Node000020"><a xlink:title=" ">
<path fill="none" stroke="#63b8ff" d="M499.75,-275.84C507.68,-268.3 519.2,-257.35 528.79,-248.23"/>
<polygon fill="#63b8ff" stroke="#63b8ff" points="530.96,-250.99 535.79,-241.57 526.14,-245.92 530.96,-250.99"/>
</a>
</g>
</g>
<!-- Node2&#45;&gt;Node21 -->
<g id="edge28_Node000002_Node000021" class="edge">
<title>Node2&#45;&gt;Node21</title>
<g id="a_edge28_Node000002_Node000021"><a xlink:title=" ">
<path fill="none" stroke="#63b8ff" d="M529.19,-275.78C570.2,-266.2 634.54,-251.18 676.56,-241.36"/>
<polygon fill="#63b8ff" stroke="#63b8ff" points="677.1,-244.83 686.04,-239.15 675.51,-238.01 677.1,-244.83"/>
</a>
</g>
</g>
<!-- Node7&#45;&gt;Node3 -->
<g id="edge7_Node000007_Node000003" class="edge">
<title>Node7&#45;&gt;Node3</title>
<g id="a_edge7_Node000007_Node000003"><a xlink:title=" ">
<path fill="none" stroke="#63b8ff" d="M208.07,-222.51C211.17,-221.97 214.26,-221.46 217.25,-221 356.11,-199.76 401.54,-238.92 531.25,-185 556.77,-174.39 580.8,-153.11 595.74,-138.03"/>
<polygon fill="#63b8ff" stroke="#63b8ff" points="597.99,-140.73 602.38,-131.09 592.94,-135.89 597.99,-140.73"/>
</a>
</g>
</g>
<!-- Node7&#45;&gt;Node4 -->
<g id="edge21_Node000007_Node000004" class="edge">
<title>Node7&#45;&gt;Node4</title>
<g id="a_edge21_Node000007_Node000004"><a xlink:title=" ">
<path fill="none" stroke="#63b8ff" d="M208.06,-222.47C211.16,-221.94 214.26,-221.44 217.25,-221 372.85,-198.18 414.5,-212.97 569.25,-185 570.27,-184.82 571.3,-184.62 572.35,-184.4"/>
<polygon fill="#63b8ff" stroke="#63b8ff" points="573.09,-187.82 582.04,-182.15 571.51,-181.01 573.09,-187.82"/>
</a>
</g>
</g>
<!-- Node8 -->
<g id="Node000008" class="node">
<title>Node8</title>
<g id="a_Node000008"><a xlink:href="card_8hpp.xhtml" target="_top" xlink:title=" ">
<polygon fill="white" stroke="#666666" points="280.62,-185 227.88,-185 227.88,-165.75 280.62,-165.75 280.62,-185"/>
<text text-anchor="middle" x="254.25" y="-171.5" font-family="Helvetica,sans-Serif" font-size="10.00">card.hpp</text>
</a>
</g>
</g>
<!-- Node7&#45;&gt;Node8 -->
<g id="edge8_Node000007_Node000008" class="edge">
<title>Node7&#45;&gt;Node8</title>
<g id="a_edge8_Node000007_Node000008"><a xlink:title=" ">
<path fill="none" stroke="#63b8ff" d="M186.16,-220.59C198.41,-212.64 216.5,-200.89 230.96,-191.5"/>
<polygon fill="#63b8ff" stroke="#63b8ff" points="232.52,-194.66 239,-186.28 228.71,-188.79 232.52,-194.66"/>
</a>
</g>
</g>
<!-- Node9 -->
<g id="Node000009" class="node">
<title>Node9</title>
<g id="a_Node000009"><a xlink:title=" ">
<polygon fill="#e0e0e0" stroke="#999999" points="185.88,-129.75 134.62,-129.75 134.62,-110.5 185.88,-110.5 185.88,-129.75"/>
<text text-anchor="middle" x="160.25" y="-116.25" font-family="Helvetica,sans-Serif" font-size="10.00">sstream</text>
</a>
</g>
</g>
<!-- Node7&#45;&gt;Node9 -->
<g id="edge23_Node000007_Node000009" class="edge">
<title>Node7&#45;&gt;Node9</title>
<g id="a_edge23_Node000007_Node000009"><a xlink:title=" ">
<path fill="none" stroke="#63b8ff" d="M171.27,-220.75C169.36,-203.5 165.11,-165.08 162.48,-141.31"/>
<polygon fill="#63b8ff" stroke="#63b8ff" points="165.99,-141.19 161.41,-131.63 159.03,-141.96 165.99,-141.19"/>
</a>
</g>
</g>
<!-- Node11 -->
<g id="Node000011" class="node">
<title>Node11</title>
<g id="a_Node000011"><a xlink:href="conf_8hpp.xhtml" target="_top" xlink:title=" ">
<polygon fill="white" stroke="#666666" points="411.62,-129.75 358.88,-129.75 358.88,-110.5 411.62,-110.5 411.62,-129.75"/>
<text text-anchor="middle" x="385.25" y="-116.25" font-family="Helvetica,sans-Serif" font-size="10.00">conf.hpp</text>
</a>
</g>
</g>
<!-- Node7&#45;&gt;Node11 -->
<g id="edge20_Node000007_Node000011" class="edge">
<title>Node7&#45;&gt;Node11</title>
<g id="a_edge20_Node000007_Node000011"><a xlink:title=" ">
<path fill="none" stroke="#63b8ff" d="M201.39,-220.53C225.54,-212.52 260.45,-199.84 289.25,-185 316.55,-170.93 345.61,-150.78 364.51,-136.9"/>
<polygon fill="#63b8ff" stroke="#63b8ff" points="366.51,-139.77 372.44,-130.99 362.33,-134.16 366.51,-139.77"/>
</a>
</g>
</g>
<!-- Node12 -->
<g id="Node000012" class="node">
<title>Node12</title>
<g id="a_Node000012"><a xlink:title=" ">
<polygon fill="#e0e0e0" stroke="#999999" points="407.88,-19.25 362.62,-19.25 362.62,0 407.88,0 407.88,-19.25"/>
<text text-anchor="middle" x="385.25" y="-5.75" font-family="Helvetica,sans-Serif" font-size="10.00">cstdint</text>
</a>
</g>
</g>
<!-- Node7&#45;&gt;Node12 -->
<g id="edge22_Node000007_Node000012" class="edge">
<title>Node7&#45;&gt;Node12</title>
<g id="a_edge22_Node000007_Node000012"><a xlink:title=" ">
<path fill="none" stroke="#63b8ff" d="M208.28,-221.05C238.72,-213.27 283.15,-200.63 320.25,-185 406.06,-148.84 455.48,-157.21 498.25,-74.5 516.07,-40.05 458.85,-23.05 419.44,-15.61"/>
<polygon fill="#63b8ff" stroke="#63b8ff" points="420.08,-12.17 409.63,-13.9 418.88,-19.06 420.08,-12.17"/>
</a>
</g>
</g>
<!-- Node13 -->
<g id="Node000013" class="node">
<title>Node13</title>
<g id="a_Node000013"><a xlink:title=" ">
<polygon fill="#e0e0e0" stroke="#999999" points="289.25,-74.5 249.25,-74.5 249.25,-55.25 289.25,-55.25 289.25,-74.5"/>
<text text-anchor="middle" x="269.25" y="-61" font-family="Helvetica,sans-Serif" font-size="10.00">string</text>
</a>
</g>
</g>
<!-- Node7&#45;&gt;Node13 -->
<g id="edge24_Node000007_Node000013" class="edge">
<title>Node7&#45;&gt;Node13</title>
<g id="a_edge24_Node000007_Node000013"><a xlink:title=" ">
<path fill="none" stroke="#63b8ff" d="M163.3,-220.79C143.27,-199.92 98.6,-146.65 125.25,-110.5 126.12,-109.32 195.88,-88.06 237.97,-75.32"/>
<polygon fill="#63b8ff" stroke="#63b8ff" points="238.77,-78.73 247.33,-72.49 236.75,-72.03 238.77,-78.73"/>
</a>
</g>
</g>
<!-- Node8&#45;&gt;Node3 -->
<g id="edge11_Node000008_Node000003" class="edge">
<title>Node8&#45;&gt;Node3</title>
<g id="a_edge11_Node000008_Node000003"><a xlink:title=" ">
<path fill="none" stroke="#63b8ff" d="M281.08,-170.37C343.42,-161.07 498.29,-137.97 571.59,-127.04"/>
<polygon fill="#63b8ff" stroke="#63b8ff" points="571.75,-130.56 581.13,-125.62 570.72,-123.63 571.75,-130.56"/>
</a>
</g>
</g>
<!-- Node8&#45;&gt;Node9 -->
<g id="edge9_Node000008_Node000009" class="edge">
<title>Node8&#45;&gt;Node9</title>
<g id="a_edge9_Node000008_Node000009"><a xlink:title=" ">
<path fill="none" stroke="#63b8ff" d="M238.3,-165.34C223.99,-157.23 202.72,-145.18 186,-135.71"/>
<polygon fill="#63b8ff" stroke="#63b8ff" points="188.02,-132.83 177.59,-130.95 184.57,-138.92 188.02,-132.83"/>
</a>
</g>
</g>
<!-- Node10 -->
<g id="Node000010" class="node">
<title>Node10</title>
<g id="a_Node000010"><a xlink:title=" ">
<polygon fill="#e0e0e0" stroke="#999999" points="254.12,-129.75 204.38,-129.75 204.38,-110.5 254.12,-110.5 254.12,-129.75"/>
<text text-anchor="middle" x="229.25" y="-116.25" font-family="Helvetica,sans-Serif" font-size="10.00">iomanip</text>
</a>
</g>
</g>
<!-- Node8&#45;&gt;Node10 -->
<g id="edge10_Node000008_Node000010" class="edge">
<title>Node8&#45;&gt;Node10</title>
<g id="a_edge10_Node000008_Node000010"><a xlink:title=" ">
<path fill="none" stroke="#63b8ff" d="M250.12,-165.58C246.92,-158.76 242.36,-149.06 238.32,-140.45"/>
<polygon fill="#63b8ff" stroke="#63b8ff" points="241.53,-139.04 234.11,-131.48 235.19,-142.02 241.53,-139.04"/>
</a>
</g>
</g>
<!-- Node8&#45;&gt;Node11 -->
<g id="edge12_Node000008_Node000011" class="edge">
<title>Node8&#45;&gt;Node11</title>
<g id="a_edge12_Node000008_Node000011"><a xlink:title=" ">
<path fill="none" stroke="#63b8ff" d="M276.47,-165.34C297.27,-156.89 328.6,-144.15 352.3,-134.52"/>
<polygon fill="#63b8ff" stroke="#63b8ff" points="353.57,-137.78 361.52,-130.77 350.93,-131.3 353.57,-137.78"/>
</a>
</g>
</g>
<!-- Node16 -->
<g id="Node000016" class="node">
<title>Node16</title>
<g id="a_Node000016"><a xlink:href="_logging_8hpp.xhtml" target="_top" xlink:title=" ">
<polygon fill="white" stroke="#666666" points="340.5,-129.75 272,-129.75 272,-110.5 340.5,-110.5 340.5,-129.75"/>
<text text-anchor="middle" x="306.25" y="-116.25" font-family="Helvetica,sans-Serif" font-size="10.00">Logging.hpp</text>
</a>
</g>
</g>
<!-- Node8&#45;&gt;Node16 -->
<g id="edge18_Node000008_Node000016" class="edge">
<title>Node8&#45;&gt;Node16</title>
<g id="a_edge18_Node000008_Node000016"><a xlink:title=" ">
<path fill="none" stroke="#63b8ff" d="M262.84,-165.58C270.09,-158.15 280.7,-147.29 289.62,-138.16"/>
<polygon fill="#63b8ff" stroke="#63b8ff" points="291.94,-140.79 296.42,-131.19 286.93,-135.9 291.94,-140.79"/>
</a>
</g>
</g>
<!-- Node11&#45;&gt;Node12 -->
<g id="edge13_Node000011_Node000012" class="edge">
<title>Node11&#45;&gt;Node12</title>
<g id="a_edge13_Node000011_Node000012"><a xlink:title=" ">
<path fill="none" stroke="#63b8ff" d="M370.12,-110.32C358.43,-102.56 343.13,-90.08 336.25,-74.5 328.13,-56.12 344.59,-38.24 360.58,-26.09"/>
<polygon fill="#63b8ff" stroke="#63b8ff" points="362.34,-29.13 368.51,-20.51 358.32,-23.4 362.34,-29.13"/>
</a>
</g>
</g>
<!-- Node11&#45;&gt;Node13 -->
<g id="edge14_Node000011_Node000013" class="edge">
<title>Node11&#45;&gt;Node13</title>
<g id="a_edge14_Node000011_Node000013"><a xlink:title=" ">
<path fill="none" stroke="#63b8ff" d="M365.57,-110.09C347.41,-101.75 320.17,-89.25 299.28,-79.66"/>
<polygon fill="#63b8ff" stroke="#63b8ff" points="300.95,-76.58 290.4,-75.58 298.03,-82.94 300.95,-76.58"/>
</a>
</g>
</g>
<!-- Node14 -->
<g id="Node000014" class="node">
<title>Node14</title>
<g id="a_Node000014"><a xlink:title=" ">
<polygon fill="#e0e0e0" stroke="#999999" points="488.88,-74.5 443.62,-74.5 443.62,-55.25 488.88,-55.25 488.88,-74.5"/>
<text text-anchor="middle" x="466.25" y="-61" font-family="Helvetica,sans-Serif" font-size="10.00">chrono</text>
</a>
</g>
</g>
<!-- Node11&#45;&gt;Node14 -->
<g id="edge15_Node000011_Node000014" class="edge">
<title>Node11&#45;&gt;Node14</title>
<g id="a_edge15_Node000011_Node000014"><a xlink:title=" ">
<path fill="none" stroke="#63b8ff" d="M398.99,-110.09C410.98,-102.21 428.62,-90.61 442.83,-81.27"/>
<polygon fill="#63b8ff" stroke="#63b8ff" points="444.74,-84.2 451.18,-75.78 440.9,-78.35 444.74,-84.2"/>
</a>
</g>
</g>
<!-- Node15 -->
<g id="Node000015" class="node">
<title>Node15</title>
<g id="a_Node000015"><a xlink:href="_machine_i_d_8hpp.xhtml" target="_top" xlink:title=" ">
<polygon fill="white" stroke="#666666" points="425.5,-74.5 345,-74.5 345,-55.25 425.5,-55.25 425.5,-74.5"/>
<text text-anchor="middle" x="385.25" y="-61" font-family="Helvetica,sans-Serif" font-size="10.00">MachineID.hpp</text>
</a>
</g>
</g>
<!-- Node11&#45;&gt;Node15 -->
<g id="edge16_Node000011_Node000015" class="edge">
<title>Node11&#45;&gt;Node15</title>
<g id="a_edge16_Node000011_Node000015"><a xlink:title=" ">
<path fill="none" stroke="#63b8ff" d="M385.25,-110.33C385.25,-103.82 385.25,-94.67 385.25,-86.37"/>
<polygon fill="#63b8ff" stroke="#63b8ff" points="388.75,-86.37 385.25,-76.37 381.75,-86.37 388.75,-86.37"/>
</a>
</g>
</g>
<!-- Node15&#45;&gt;Node12 -->
<g id="edge17_Node000015_Node000012" class="edge">
<title>Node15&#45;&gt;Node12</title>
<g id="a_edge17_Node000015_Node000012"><a xlink:title=" ">
<path fill="none" stroke="#63b8ff" d="M385.25,-55.08C385.25,-48.57 385.25,-39.42 385.25,-31.12"/>
<polygon fill="#63b8ff" stroke="#63b8ff" points="388.75,-31.12 385.25,-21.12 381.75,-31.12 388.75,-31.12"/>
</a>
</g>
</g>
<!-- Node17 -->
<g id="Node000017" class="node">
<title>Node17</title>
<g id="a_Node000017"><a xlink:title=" ">
<polygon fill="#e0e0e0" stroke="#999999" points="230.88,-74.5 173.62,-74.5 173.62,-55.25 230.88,-55.25 230.88,-74.5"/>
<text text-anchor="middle" x="202.25" y="-61" font-family="Helvetica,sans-Serif" font-size="10.00">esp_log.h</text>
</a>
</g>
</g>
<!-- Node16&#45;&gt;Node17 -->
<g id="edge19_Node000016_Node000017" class="edge">
<title>Node16&#45;&gt;Node17</title>
<g id="a_edge19_Node000016_Node000017"><a xlink:title=" ">
<path fill="none" stroke="#63b8ff" d="M288.61,-110.09C272.62,-101.91 248.79,-89.71 230.21,-80.19"/>
<polygon fill="#63b8ff" stroke="#63b8ff" points="231.82,-77.08 221.33,-75.64 228.63,-83.32 231.82,-77.08"/>
</a>
</g>
</g>
<!-- Node21&#45;&gt;Node3 -->
<g id="edge31_Node000021_Node000003" class="edge">
<title>Node21&#45;&gt;Node3</title>
<g id="a_edge31_Node000021_Node000003"><a xlink:title=" ">
<path fill="none" stroke="#63b8ff" d="M711.18,-220.57C701.07,-207.85 681.68,-184.15 663.25,-165.75 653.3,-155.81 641.45,-145.54 631.58,-137.36"/>
<polygon fill="#63b8ff" stroke="#63b8ff" points="633.98,-134.8 624.02,-131.19 629.55,-140.22 633.98,-134.8"/>
</a>
</g>
</g>
<!-- Node21&#45;&gt;Node14 -->
<g id="edge29_Node000021_Node000014" class="edge">
<title>Node21&#45;&gt;Node14</title>
<g id="a_edge29_Node000021_Node000014"><a xlink:title=" ">
<path fill="none" stroke="#63b8ff" d="M715.82,-220.68C709.19,-198.12 688.54,-138.69 648.25,-110.5 603.56,-79.23 539.35,-69.78 500.35,-66.98"/>
<polygon fill="#63b8ff" stroke="#63b8ff" points="500.81,-63.5 490.61,-66.4 500.39,-70.49 500.81,-63.5"/>
</a>
</g>
</g>
<!-- Node22 -->
<g id="Node000022" class="node">
<title>Node22</title>
<g id="a_Node000022"><a xlink:title=" ">
<polygon fill="#e0e0e0" stroke="#999999" points="811.25,-185 753.25,-185 753.25,-165.75 811.25,-165.75 811.25,-185"/>
<text text-anchor="middle" x="782.25" y="-171.5" font-family="Helvetica,sans-Serif" font-size="10.00">functional</text>
</a>
</g>
</g>
<!-- Node21&#45;&gt;Node22 -->
<g id="edge30_Node000021_Node000022" class="edge">
<title>Node21&#45;&gt;Node22</title>
<g id="a_edge30_Node000021_Node000022"><a xlink:title=" ">
<path fill="none" stroke="#63b8ff" d="M729.11,-220.59C738.36,-212.9 751.87,-201.65 762.96,-192.43"/>
<polygon fill="#63b8ff" stroke="#63b8ff" points="764.94,-195.33 770.39,-186.24 760.46,-189.95 764.94,-195.33"/>
</a>
</g>
</g>
<!-- Node23 -->
<g id="Node000023" class="node">
<title>Node23</title>
<g id="a_Node000023"><a xlink:title=" ">
<polygon fill="#e0e0e0" stroke="#999999" points="857.65,-185 828.85,-185 828.85,-165.75 857.65,-165.75 857.65,-185"/>
<text text-anchor="middle" x="843.25" y="-171.5" font-family="Helvetica,sans-Serif" font-size="10.00">list</text>
</a>
</g>
</g>
<!-- Node21&#45;&gt;Node23 -->
<g id="edge32_Node000021_Node000023" class="edge">
<title>Node21&#45;&gt;Node23</title>
<g id="a_edge32_Node000021_Node000023"><a xlink:title=" ">
<path fill="none" stroke="#63b8ff" d="M739.45,-220.59C761.24,-211.31 795.15,-196.86 818.24,-187.03"/>
<polygon fill="#63b8ff" stroke="#63b8ff" points="819.38,-190.35 827.21,-183.21 816.64,-183.91 819.38,-190.35"/>
</a>
</g>
</g>
</g>
</svg>
