<?xml version="1.0" encoding="UTF-8" standalone="no"?>
<!DOCTYPE svg PUBLIC "-//W3C//DTD SVG 1.1//EN"
 "http://www.w3.org/Graphics/SVG/1.1/DTD/svg11.dtd">
<!-- Generated by graphviz version 9.0.0 (20230911.1827)
 -->
<!-- Title: MockMQTTBroker.hpp Pages: 1 -->
<svg width="310pt" height="83pt"
 viewBox="0.00 0.00 309.75 82.50" xmlns="http://www.w3.org/2000/svg" xmlns:xlink="http://www.w3.org/1999/xlink">
<g id="graph0" class="graph" transform="scale(1 1) rotate(0) translate(4 78.5)">
<title>MockMQTTBroker.hpp</title>
<!-- Node1 -->
<g id="Node000001" class="node">
<title>Node1</title>
<g id="a_Node000001"><a xlink:title=" ">
<polygon fill="#999999" stroke="#666666" points="227.25,-74.5 113,-74.5 113,-55.25 227.25,-55.25 227.25,-74.5"/>
<text text-anchor="middle" x="170.12" y="-61" font-family="Helvetica,sans-Serif" font-size="10.00">MockMQTTBroker.hpp</text>
</a>
</g>
</g>
<!-- Node2 -->
<g id="Node000002" class="node">
<title>Node2</title>
<g id="a_Node000002"><a xlink:href="_mock_m_q_t_t_broker_8cpp.xhtml" target="_top" xlink:title=" ">
<polygon fill="white" stroke="#666666" points="114.25,-19.25 0,-19.25 0,0 114.25,0 114.25,-19.25"/>
<text text-anchor="middle" x="57.12" y="-5.75" font-family="Helvetica,sans-Serif" font-size="10.00">MockMQTTBroker.cpp</text>
</a>
</g>
</g>
<!-- Node1&#45;&gt;Node2 -->
<g id="edge1_Node000001_Node000002" class="edge">
<title>Node1&#45;&gt;Node2</title>
<g id="a_edge1_Node000001_Node000002"><a xlink:title=" ">
<path fill="none" stroke="#63b8ff" d="M140.7,-50.01C120.41,-40.45 94.03,-28.02 76.39,-19.7"/>
<polygon fill="#63b8ff" stroke="#63b8ff" points="139.05,-53.1 149.59,-54.2 142.03,-46.77 139.05,-53.1"/>
</a>
</g>
</g>
<!-- Node3 -->
<g id="Node000003" class="node">
<title>Node3</title>
<g id="a_Node000003"><a xlink:href="test__logic_8cpp.xhtml" target="_top" xlink:title=" ">
<polygon fill="white" stroke="#666666" points="208.12,-19.25 132.12,-19.25 132.12,0 208.12,0 208.12,-19.25"/>
<text text-anchor="middle" x="170.12" y="-5.75" font-family="Helvetica,sans-Serif" font-size="10.00">test_logic.cpp</text>
</a>
</g>
</g>
<!-- Node1&#45;&gt;Node3 -->
<g id="edge2_Node000001_Node000003" class="edge">
<title>Node1&#45;&gt;Node3</title>
<g id="a_edge2_Node000001_Node000003"><a xlink:title=" ">
<path fill="none" stroke="#63b8ff" d="M170.12,-43.63C170.12,-35.34 170.12,-26.17 170.12,-19.61"/>
<polygon fill="#63b8ff" stroke="#63b8ff" points="166.63,-43.57 170.13,-53.57 173.63,-43.57 166.63,-43.57"/>
</a>
</g>
</g>
<!-- Node4 -->
<g id="Node000004" class="node">
<title>Node4</title>
<g id="a_Node000004"><a xlink:href="test__mqtt_8cpp.xhtml" target="_top" xlink:title=" ">
<polygon fill="white" stroke="#666666" points="301.75,-19.25 226.5,-19.25 226.5,0 301.75,0 301.75,-19.25"/>
<text text-anchor="middle" x="264.12" y="-5.75" font-family="Helvetica,sans-Serif" font-size="10.00">test_mqtt.cpp</text>
</a>
</g>
</g>
<!-- Node1&#45;&gt;Node4 -->
<g id="edge3_Node000001_Node000004" class="edge">
<title>Node1&#45;&gt;Node4</title>
<g id="a_edge3_Node000001_Node000004"><a xlink:title=" ">
<path fill="none" stroke="#63b8ff" d="M195.78,-49.34C212.49,-39.88 233.76,-27.83 248.1,-19.7"/>
<polygon fill="#63b8ff" stroke="#63b8ff" points="194.36,-46.12 187.39,-54.1 197.81,-52.21 194.36,-46.12"/>
</a>
</g>
</g>
</g>
</svg>
