<?xml version="1.0" encoding="UTF-8" standalone="no"?>
<!DOCTYPE svg PUBLIC "-//W3C//DTD SVG 1.1//EN"
 "http://www.w3.org/Graphics/SVG/1.1/DTD/svg11.dtd">
<!-- Generated by graphviz version 9.0.0 (20230911.1827)
 -->
<!-- Title: MockMrfc522.cpp Pages: 1 -->
<!--zoomable 359 -->

<svg id="main" version="1.1" xmlns="http://www.w3.org/2000/svg" xmlns:xlink="http://www.w3.org/1999/xlink" xml:space="preserve" onload="init(evt)">
<style type="text/css"><![CDATA[
.node, .edge {opacity: 0.7;}
.node.selected, .edge.selected {opacity: 1;}
.edge:hover path { stroke: red; }
.edge:hover polygon { stroke: red; fill: red; }
]]></style>

<defs>
  <circle id="rim" cx="0" cy="0" r="7"/>
  <circle id="rim2" cx="0" cy="0" r="3.5"/>
  <g id="zoomPlus">
    <use xlink:href="#rim" fill="#404040"><set attributeName="fill" to="#808080" begin="zoomplus.mouseover" end="zoomplus.mouseout"/></use>
    <path d="M-4,0h8M0,-4v8" fill="none" stroke="white" stroke-width="1.5" pointer-events="none"/>
  </g>
  <g id="zoomMin">
    <use xlink:href="#rim" fill="#404040"><set attributeName="fill" to="#808080" begin="zoomminus.mouseover" end="zoomminus.mouseout"/></use>
    <path d="M-4,0h8" fill="none" stroke="white" stroke-width="1.5" pointer-events="none"/>
  </g>
  <g id="arrowUp" transform="translate(30 24)">
    <use xlink:href="#rim"/>
    <path pointer-events="none" fill="none" stroke="white" stroke-width="1.5" d="M0,-3.0v7 M-2.5,-0.5L0,-3.0L2.5,-0.5"/>
  </g>
  <g id="arrowRight" transform="rotate(90) translate(36 -43)">
    <use xlink:href="#rim"/>
    <path pointer-events="none" fill="none" stroke="white" stroke-width="1.5" d="M0,-3.0v7 M-2.5,-0.5L0,-3.0L2.5,-0.5"/>
  </g>
  <g id="arrowDown" transform="rotate(180) translate(-30 -48)">
    <use xlink:href="#rim"/>
    <path pointer-events="none" fill="none" stroke="white" stroke-width="1.5" d="M0,-3.0v7 M-2.5,-0.5L0,-3.0L2.5,-0.5"/>
  </g>
  <g id="arrowLeft" transform="rotate(270) translate(-36 17)">
    <use xlink:href="#rim"/>
    <path pointer-events="none" fill="none" stroke="white" stroke-width="1.5" d="M0,-3.0v7 M-2.5,-0.5L0,-3.0L2.5,-0.5"/>
  </g>
  <g id="resetDef">
    <use xlink:href="#rim2" fill="#404040"><set attributeName="fill" to="#808080" begin="reset.mouseover" end="reset.mouseout"/></use>
  </g>
</defs>
<script type="application/ecmascript">
var viewWidth = 804;
var viewHeight = 359;
var sectionId = 'dynsection-0';
</script>
<script type="application/ecmascript" xlink:href="svg.min.js"/>
<svg id="graph" class="graph">
<g id="viewport">
<title>MockMrfc522.cpp</title>
<!-- Node1 -->
<g id="Node000001" class="node">
<title>Node1</title>
<g id="a_Node000001"><a xlink:title=" ">
<polygon fill="#999999" stroke="#666666" points="712.52,-350.75 619.27,-350.75 619.27,-331.5 712.52,-331.5 712.52,-350.75"/>
<text text-anchor="middle" x="665.9" y="-337.25" font-family="Helvetica,sans-Serif" font-size="10.00">MockMrfc522.cpp</text>
</a>
</g>
</g>
<!-- Node2 -->
<g id="Node000002" class="node">
<title>Node2</title>
<g id="a_Node000002"><a xlink:href="_mock_mrfc522_8hpp.xhtml" target="_top" xlink:title=" ">
<polygon fill="white" stroke="#666666" points="576.02,-295.5 455.77,-295.5 455.77,-276.25 576.02,-276.25 576.02,-295.5"/>
<text text-anchor="middle" x="515.9" y="-282" font-family="Helvetica,sans-Serif" font-size="10.00">mock/MockMrfc522.hpp</text>
</a>
</g>
</g>
<!-- Node1&#45;&gt;Node2 -->
<g id="edge1_Node000001_Node000002" class="edge">
<title>Node1&#45;&gt;Node2</title>
<g id="a_edge1_Node000001_Node000002"><a xlink:title=" ">
<path fill="none" stroke="#63b8ff" d="M640.45,-331.09C616.21,-322.49 579.46,-309.44 552.16,-299.75"/>
<polygon fill="#63b8ff" stroke="#63b8ff" points="553.49,-296.51 542.89,-296.46 551.15,-303.1 553.49,-296.51"/>
</a>
</g>
</g>
<!-- Node22 -->
<g id="Node000022" class="node">
<title>Node22</title>
<g id="a_Node000022"><a xlink:href="_tasks_8hpp.xhtml" target="_top" xlink:title=" ">
<polygon fill="white" stroke="#666666" points="759.4,-240.25 698.4,-240.25 698.4,-221 759.4,-221 759.4,-240.25"/>
<text text-anchor="middle" x="728.9" y="-226.75" font-family="Helvetica,sans-Serif" font-size="10.00">Tasks.hpp</text>
</a>
</g>
</g>
<!-- Node1&#45;&gt;Node22 -->
<g id="edge34_Node000001_Node000022" class="edge">
<title>Node1&#45;&gt;Node22</title>
<g id="a_edge34_Node000001_Node000022"><a xlink:title=" ">
<path fill="none" stroke="#63b8ff" d="M667.12,-331.32C669.21,-318.47 674.3,-294.18 684.9,-276.25 691.07,-265.79 700.23,-255.97 708.59,-248.22"/>
<polygon fill="#63b8ff" stroke="#63b8ff" points="710.83,-250.91 716.04,-241.68 706.21,-245.65 710.83,-250.91"/>
</a>
</g>
</g>
<!-- Node25 -->
<g id="Node000025" class="node">
<title>Node25</title>
<g id="a_Node000025"><a xlink:title=" ">
<polygon fill="#e0e0e0" stroke="#999999" points="749.77,-295.5 694.02,-295.5 694.02,-276.25 749.77,-276.25 749.77,-295.5"/>
<text text-anchor="middle" x="721.9" y="-282" font-family="Helvetica,sans-Serif" font-size="10.00">algorithm</text>
</a>
</g>
</g>
<!-- Node1&#45;&gt;Node25 -->
<g id="edge35_Node000001_Node000025" class="edge">
<title>Node1&#45;&gt;Node25</title>
<g id="a_edge35_Node000001_Node000025"><a xlink:title=" ">
<path fill="none" stroke="#63b8ff" d="M675.4,-331.09C683.33,-323.55 694.84,-312.6 704.43,-303.48"/>
<polygon fill="#63b8ff" stroke="#63b8ff" points="706.6,-306.24 711.44,-296.82 701.78,-301.17 706.6,-306.24"/>
</a>
</g>
</g>
<!-- Node3 -->
<g id="Node000003" class="node">
<title>Node3</title>
<g id="a_Node000003"><a xlink:title=" ">
<polygon fill="#e0e0e0" stroke="#999999" points="525.15,-129.75 468.65,-129.75 468.65,-110.5 525.15,-110.5 525.15,-129.75"/>
<text text-anchor="middle" x="496.9" y="-116.25" font-family="Helvetica,sans-Serif" font-size="10.00">Arduino.h</text>
</a>
</g>
</g>
<!-- Node2&#45;&gt;Node3 -->
<g id="edge2_Node000002_Node000003" class="edge">
<title>Node2&#45;&gt;Node3</title>
<g id="a_edge2_Node000002_Node000003"><a xlink:title=" ">
<path fill="none" stroke="#63b8ff" d="M517.12,-275.79C519.56,-255.69 524.12,-206.08 515.9,-165.75 514.11,-156.99 510.54,-147.82 506.97,-140.09"/>
<polygon fill="#63b8ff" stroke="#63b8ff" points="510.21,-138.75 502.62,-131.36 503.94,-141.87 510.21,-138.75"/>
</a>
</g>
</g>
<!-- Node4 -->
<g id="Node000004" class="node">
<title>Node4</title>
<g id="a_Node000004"><a xlink:title=" ">
<polygon fill="#e0e0e0" stroke="#999999" points="506.4,-185 469.4,-185 469.4,-165.75 506.4,-165.75 506.4,-185"/>
<text text-anchor="middle" x="487.9" y="-171.5" font-family="Helvetica,sans-Serif" font-size="10.00">array</text>
</a>
</g>
</g>
<!-- Node2&#45;&gt;Node4 -->
<g id="edge3_Node000002_Node000004" class="edge">
<title>Node2&#45;&gt;Node4</title>
<g id="a_edge3_Node000002_Node000004"><a xlink:title=" ">
<path fill="none" stroke="#63b8ff" d="M513.6,-276C509.13,-258.67 499.15,-219.98 493.02,-196.24"/>
<polygon fill="#63b8ff" stroke="#63b8ff" points="496.48,-195.65 490.6,-186.84 489.71,-197.4 496.48,-195.65"/>
</a>
</g>
</g>
<!-- Node5 -->
<g id="Node000005" class="node">
<title>Node5</title>
<g id="a_Node000005"><a xlink:title=" ">
<polygon fill="#e0e0e0" stroke="#999999" points="613.15,-240.25 562.65,-240.25 562.65,-221 613.15,-221 613.15,-240.25"/>
<text text-anchor="middle" x="587.9" y="-226.75" font-family="Helvetica,sans-Serif" font-size="10.00">memory</text>
</a>
</g>
</g>
<!-- Node2&#45;&gt;Node5 -->
<g id="edge4_Node000002_Node000005" class="edge">
<title>Node2&#45;&gt;Node5</title>
<g id="a_edge4_Node000002_Node000005"><a xlink:title=" ">
<path fill="none" stroke="#63b8ff" d="M528.11,-275.84C538.72,-267.99 554.33,-256.45 566.94,-247.12"/>
<polygon fill="#63b8ff" stroke="#63b8ff" points="568.69,-250.19 574.65,-241.42 564.52,-244.56 568.69,-250.19"/>
</a>
</g>
</g>
<!-- Node6 -->
<g id="Node000006" class="node">
<title>Node6</title>
<g id="a_Node000006"><a xlink:title=" ">
<polygon fill="#e0e0e0" stroke="#999999" points="680.77,-240.25 631.02,-240.25 631.02,-221 680.77,-221 680.77,-240.25"/>
<text text-anchor="middle" x="655.9" y="-226.75" font-family="Helvetica,sans-Serif" font-size="10.00">optional</text>
</a>
</g>
</g>
<!-- Node2&#45;&gt;Node6 -->
<g id="edge5_Node000002_Node000006" class="edge">
<title>Node2&#45;&gt;Node6</title>
<g id="a_edge5_Node000002_Node000006"><a xlink:title=" ">
<path fill="none" stroke="#63b8ff" d="M539.65,-275.84C562.07,-267.31 595.96,-254.42 621.37,-244.76"/>
<polygon fill="#63b8ff" stroke="#63b8ff" points="622.51,-248.07 630.62,-241.24 620.02,-241.52 622.51,-248.07"/>
</a>
</g>
</g>
<!-- Node7 -->
<g id="Node000007" class="node">
<title>Node7</title>
<g id="a_Node000007"><a xlink:href="_fab_user_8hpp.xhtml" target="_top" xlink:title=" ">
<polygon fill="white" stroke="#666666" points="91.65,-240.25 20.15,-240.25 20.15,-221 91.65,-221 91.65,-240.25"/>
<text text-anchor="middle" x="55.9" y="-226.75" font-family="Helvetica,sans-Serif" font-size="10.00">FabUser.hpp</text>
</a>
</g>
</g>
<!-- Node2&#45;&gt;Node7 -->
<g id="edge6_Node000002_Node000007" class="edge">
<title>Node2&#45;&gt;Node7</title>
<g id="a_edge6_Node000002_Node000007"><a xlink:title=" ">
<path fill="none" stroke="#63b8ff" d="M455.56,-279.95C376.83,-273.19 234.55,-259.77 102.8,-240.41"/>
<polygon fill="#63b8ff" stroke="#63b8ff" points="103.61,-236.99 93.21,-238.99 102.59,-243.92 103.61,-236.99"/>
</a>
</g>
</g>
<!-- Node19 -->
<g id="Node000019" class="node">
<title>Node19</title>
<g id="a_Node000019"><a xlink:title=" ">
<polygon fill="#e0e0e0" stroke="#999999" points="246.27,-240.25 109.52,-240.25 109.52,-221 246.27,-221 246.27,-240.25"/>
<text text-anchor="middle" x="177.9" y="-226.75" font-family="Helvetica,sans-Serif" font-size="10.00">MFRC522DriverPinSimple.h</text>
</a>
</g>
</g>
<!-- Node2&#45;&gt;Node19 -->
<g id="edge26_Node000002_Node000019" class="edge">
<title>Node2&#45;&gt;Node19</title>
<g id="a_edge26_Node000002_Node000019"><a xlink:title=" ">
<path fill="none" stroke="#63b8ff" d="M458.18,-275.78C399.69,-266.57 309.19,-252.31 246.94,-242.5"/>
<polygon fill="#63b8ff" stroke="#63b8ff" points="247.58,-239.06 237.16,-240.96 246.49,-245.97 247.58,-239.06"/>
</a>
</g>
</g>
<!-- Node20 -->
<g id="Node000020" class="node">
<title>Node20</title>
<g id="a_Node000020"><a xlink:title=" ">
<polygon fill="#e0e0e0" stroke="#999999" points="373.4,-240.25 264.4,-240.25 264.4,-221 373.4,-221 373.4,-240.25"/>
<text text-anchor="middle" x="318.9" y="-226.75" font-family="Helvetica,sans-Serif" font-size="10.00">MFRC522DriverSPI.h</text>
</a>
</g>
</g>
<!-- Node2&#45;&gt;Node20 -->
<g id="edge27_Node000002_Node000020" class="edge">
<title>Node2&#45;&gt;Node20</title>
<g id="a_edge27_Node000002_Node000020"><a xlink:title=" ">
<path fill="none" stroke="#63b8ff" d="M482.48,-275.84C449.65,-266.97 399.36,-253.37 363.21,-243.6"/>
<polygon fill="#63b8ff" stroke="#63b8ff" points="364.51,-240.33 353.94,-241.1 362.68,-247.09 364.51,-240.33"/>
</a>
</g>
</g>
<!-- Node21 -->
<g id="Node000021" class="node">
<title>Node21</title>
<g id="a_Node000021"><a xlink:title=" ">
<polygon fill="#e0e0e0" stroke="#999999" points="468.65,-240.25 391.15,-240.25 391.15,-221 468.65,-221 468.65,-240.25"/>
<text text-anchor="middle" x="429.9" y="-226.75" font-family="Helvetica,sans-Serif" font-size="10.00">MFRC522v2.h</text>
</a>
</g>
</g>
<!-- Node2&#45;&gt;Node21 -->
<g id="edge28_Node000002_Node000021" class="edge">
<title>Node2&#45;&gt;Node21</title>
<g id="a_edge28_Node000002_Node000021"><a xlink:title=" ">
<path fill="none" stroke="#63b8ff" d="M501.31,-275.84C488.46,-267.89 469.48,-256.14 454.32,-246.75"/>
<polygon fill="#63b8ff" stroke="#63b8ff" points="456.19,-243.79 445.84,-241.5 452.5,-249.74 456.19,-243.79"/>
</a>
</g>
</g>
<!-- Node2&#45;&gt;Node22 -->
<g id="edge29_Node000002_Node000022" class="edge">
<title>Node2&#45;&gt;Node22</title>
<g id="a_edge29_Node000002_Node000022"><a xlink:title=" ">
<path fill="none" stroke="#63b8ff" d="M552.03,-275.84C589.41,-266.5 647.71,-251.92 687.07,-242.08"/>
<polygon fill="#63b8ff" stroke="#63b8ff" points="687.81,-245.51 696.66,-239.68 686.11,-238.71 687.81,-245.51"/>
</a>
</g>
</g>
<!-- Node7&#45;&gt;Node3 -->
<g id="edge7_Node000007_Node000003" class="edge">
<title>Node7&#45;&gt;Node3</title>
<g id="a_edge7_Node000007_Node000003"><a xlink:title=" ">
<path fill="none" stroke="#63b8ff" d="M91.71,-222.51C94.82,-221.97 97.91,-221.46 100.9,-221 240.63,-199.68 286.35,-239.21 416.9,-185 442.42,-174.4 466.45,-153.11 481.38,-138.03"/>
<polygon fill="#63b8ff" stroke="#63b8ff" points="483.64,-140.74 488.02,-131.09 478.58,-135.9 483.64,-140.74"/>
</a>
</g>
</g>
<!-- Node7&#45;&gt;Node4 -->
<g id="edge22_Node000007_Node000004" class="edge">
<title>Node7&#45;&gt;Node4</title>
<g id="a_edge22_Node000007_Node000004"><a xlink:title=" ">
<path fill="none" stroke="#63b8ff" d="M91.71,-222.47C94.81,-221.94 97.91,-221.44 100.9,-221 257.37,-198.09 299.26,-213.08 454.9,-185 455.92,-184.82 456.95,-184.62 457.99,-184.41"/>
<polygon fill="#63b8ff" stroke="#63b8ff" points="458.74,-187.83 467.69,-182.15 457.15,-181.01 458.74,-187.83"/>
</a>
</g>
</g>
<!-- Node8 -->
<g id="Node000008" class="node">
<title>Node8</title>
<g id="a_Node000008"><a xlink:href="card_8hpp.xhtml" target="_top" xlink:title=" ">
<polygon fill="white" stroke="#666666" points="215.27,-185 162.52,-185 162.52,-165.75 215.27,-165.75 215.27,-185"/>
<text text-anchor="middle" x="188.9" y="-171.5" font-family="Helvetica,sans-Serif" font-size="10.00">card.hpp</text>
</a>
</g>
</g>
<!-- Node7&#45;&gt;Node8 -->
<g id="edge8_Node000007_Node000008" class="edge">
<title>Node7&#45;&gt;Node8</title>
<g id="a_edge8_Node000007_Node000008"><a xlink:title=" ">
<path fill="none" stroke="#63b8ff" d="M78.46,-220.59C99.67,-212.1 131.67,-199.29 155.77,-189.64"/>
<polygon fill="#63b8ff" stroke="#63b8ff" points="156.84,-192.98 164.82,-186.02 154.23,-186.48 156.84,-192.98"/>
</a>
</g>
</g>
<!-- Node9 -->
<g id="Node000009" class="node">
<title>Node9</title>
<g id="a_Node000009"><a xlink:title=" ">
<polygon fill="#e0e0e0" stroke="#999999" points="68.52,-129.75 17.27,-129.75 17.27,-110.5 68.52,-110.5 68.52,-129.75"/>
<text text-anchor="middle" x="42.9" y="-116.25" font-family="Helvetica,sans-Serif" font-size="10.00">sstream</text>
</a>
</g>
</g>
<!-- Node7&#45;&gt;Node9 -->
<g id="edge24_Node000007_Node000009" class="edge">
<title>Node7&#45;&gt;Node9</title>
<g id="a_edge24_Node000007_Node000009"><a xlink:title=" ">
<path fill="none" stroke="#63b8ff" d="M54.83,-220.75C52.77,-203.5 48.16,-165.08 45.31,-141.31"/>
<polygon fill="#63b8ff" stroke="#63b8ff" points="48.82,-141.14 44.15,-131.63 41.87,-141.97 48.82,-141.14"/>
</a>
</g>
</g>
<!-- Node11 -->
<g id="Node000011" class="node">
<title>Node11</title>
<g id="a_Node000011"><a xlink:href="conf_8hpp.xhtml" target="_top" xlink:title=" ">
<polygon fill="white" stroke="#666666" points="375.27,-129.75 322.52,-129.75 322.52,-110.5 375.27,-110.5 375.27,-129.75"/>
<text text-anchor="middle" x="348.9" y="-116.25" font-family="Helvetica,sans-Serif" font-size="10.00">conf.hpp</text>
</a>
</g>
</g>
<!-- Node7&#45;&gt;Node11 -->
<g id="edge21_Node000007_Node000011" class="edge">
<title>Node7&#45;&gt;Node11</title>
<g id="a_edge21_Node000007_Node000011"><a xlink:title=" ">
<path fill="none" stroke="#63b8ff" d="M91.99,-222.37C126.49,-214.9 179.65,-201.96 223.9,-185 259.97,-171.17 299.31,-149.97 324.03,-135.84"/>
<polygon fill="#63b8ff" stroke="#63b8ff" points="325.77,-138.87 332.67,-130.83 322.26,-132.81 325.77,-138.87"/>
</a>
</g>
</g>
<!-- Node12 -->
<g id="Node000012" class="node">
<title>Node12</title>
<g id="a_Node000012"><a xlink:title=" ">
<polygon fill="#e0e0e0" stroke="#999999" points="303.52,-19.25 258.27,-19.25 258.27,0 303.52,0 303.52,-19.25"/>
<text text-anchor="middle" x="280.9" y="-5.75" font-family="Helvetica,sans-Serif" font-size="10.00">cstdint</text>
</a>
</g>
</g>
<!-- Node7&#45;&gt;Node12 -->
<g id="edge23_Node000007_Node000012" class="edge">
<title>Node7&#45;&gt;Node12</title>
<g id="a_edge23_Node000007_Node000012"><a xlink:title=" ">
<path fill="none" stroke="#63b8ff" d="M46.69,-220.61C26.6,-199.82 -17.45,-147.46 7.9,-110.5 62.21,-31.29 186.64,-14.65 246.93,-11.33"/>
<polygon fill="#63b8ff" stroke="#63b8ff" points="246.74,-14.84 256.57,-10.9 246.43,-7.85 246.74,-14.84"/>
</a>
</g>
</g>
<!-- Node13 -->
<g id="Node000013" class="node">
<title>Node13</title>
<g id="a_Node000013"><a xlink:title=" ">
<polygon fill="#e0e0e0" stroke="#999999" points="419.9,-74.5 379.9,-74.5 379.9,-55.25 419.9,-55.25 419.9,-74.5"/>
<text text-anchor="middle" x="399.9" y="-61" font-family="Helvetica,sans-Serif" font-size="10.00">string</text>
</a>
</g>
</g>
<!-- Node7&#45;&gt;Node13 -->
<g id="edge25_Node000007_Node000013" class="edge">
<title>Node7&#45;&gt;Node13</title>
<g id="a_edge25_Node000007_Node000013"><a xlink:title=" ">
<path fill="none" stroke="#63b8ff" d="M91.79,-222.69C141.61,-212.91 229.07,-195.12 259.9,-185 317.22,-166.18 345.1,-175.95 383.9,-129.75 394.14,-117.55 397.97,-99.71 399.34,-85.98"/>
<polygon fill="#63b8ff" stroke="#63b8ff" points="402.81,-86.51 399.92,-76.32 395.83,-86.09 402.81,-86.51"/>
</a>
</g>
</g>
<!-- Node8&#45;&gt;Node3 -->
<g id="edge11_Node000008_Node000003" class="edge">
<title>Node8&#45;&gt;Node3</title>
<g id="a_edge11_Node000008_Node000003"><a xlink:title=" ">
<path fill="none" stroke="#63b8ff" d="M215.69,-169.74C269.98,-160.36 393.19,-139.05 456.97,-128.03"/>
<polygon fill="#63b8ff" stroke="#63b8ff" points="457.41,-131.5 466.67,-126.35 456.22,-124.61 457.41,-131.5"/>
</a>
</g>
</g>
<!-- Node8&#45;&gt;Node9 -->
<g id="edge9_Node000008_Node000009" class="edge">
<title>Node8&#45;&gt;Node9</title>
<g id="a_edge9_Node000008_Node000009"><a xlink:title=" ">
<path fill="none" stroke="#63b8ff" d="M164.13,-165.34C140.64,-156.77 105.08,-143.81 78.54,-134.13"/>
<polygon fill="#63b8ff" stroke="#63b8ff" points="79.8,-130.86 69.21,-130.72 77.4,-137.44 79.8,-130.86"/>
</a>
</g>
</g>
<!-- Node10 -->
<g id="Node000010" class="node">
<title>Node10</title>
<g id="a_Node000010"><a xlink:title=" ">
<polygon fill="#e0e0e0" stroke="#999999" points="136.77,-129.75 87.02,-129.75 87.02,-110.5 136.77,-110.5 136.77,-129.75"/>
<text text-anchor="middle" x="111.9" y="-116.25" font-family="Helvetica,sans-Serif" font-size="10.00">iomanip</text>
</a>
</g>
</g>
<!-- Node8&#45;&gt;Node10 -->
<g id="edge10_Node000008_Node000010" class="edge">
<title>Node8&#45;&gt;Node10</title>
<g id="a_edge10_Node000008_Node000010"><a xlink:title=" ">
<path fill="none" stroke="#63b8ff" d="M175.83,-165.34C164.44,-157.46 147.67,-145.86 134.16,-136.52"/>
<polygon fill="#63b8ff" stroke="#63b8ff" points="136.48,-133.87 126.27,-131.06 132.5,-139.63 136.48,-133.87"/>
</a>
</g>
</g>
<!-- Node8&#45;&gt;Node11 -->
<g id="edge12_Node000008_Node000011" class="edge">
<title>Node8&#45;&gt;Node11</title>
<g id="a_edge12_Node000008_Node000011"><a xlink:title=" ">
<path fill="none" stroke="#63b8ff" d="M215.68,-165.46C241.87,-156.75 281.98,-143.4 311.35,-133.62"/>
<polygon fill="#63b8ff" stroke="#63b8ff" points="312.21,-137.02 320.59,-130.54 310,-130.38 312.21,-137.02"/>
</a>
</g>
</g>
<!-- Node16 -->
<g id="Node000016" class="node">
<title>Node16</title>
<g id="a_Node000016"><a xlink:href="_logging_8hpp.xhtml" target="_top" xlink:title=" ">
<polygon fill="white" stroke="#666666" points="223.15,-129.75 154.65,-129.75 154.65,-110.5 223.15,-110.5 223.15,-129.75"/>
<text text-anchor="middle" x="188.9" y="-116.25" font-family="Helvetica,sans-Serif" font-size="10.00">Logging.hpp</text>
</a>
</g>
</g>
<!-- Node8&#45;&gt;Node16 -->
<g id="edge18_Node000008_Node000016" class="edge">
<title>Node8&#45;&gt;Node16</title>
<g id="a_edge18_Node000008_Node000016"><a xlink:title=" ">
<path fill="none" stroke="#63b8ff" d="M188.9,-165.58C188.9,-159.07 188.9,-149.92 188.9,-141.62"/>
<polygon fill="#63b8ff" stroke="#63b8ff" points="192.4,-141.62 188.9,-131.62 185.4,-141.62 192.4,-141.62"/>
</a>
</g>
</g>
<!-- Node18 -->
<g id="Node000018" class="node">
<title>Node18</title>
<g id="a_Node000018"><a xlink:title=" ">
<polygon fill="#e0e0e0" stroke="#999999" points="304.52,-129.75 241.27,-129.75 241.27,-110.5 304.52,-110.5 304.52,-129.75"/>
<text text-anchor="middle" x="272.9" y="-116.25" font-family="Helvetica,sans-Serif" font-size="10.00">esp_mac.h</text>
</a>
</g>
</g>
<!-- Node8&#45;&gt;Node18 -->
<g id="edge20_Node000008_Node000018" class="edge">
<title>Node8&#45;&gt;Node18</title>
<g id="a_edge20_Node000008_Node000018"><a xlink:title=" ">
<path fill="none" stroke="#63b8ff" d="M203.15,-165.34C215.7,-157.39 234.23,-145.64 249.04,-136.25"/>
<polygon fill="#63b8ff" stroke="#63b8ff" points="250.73,-139.32 257.3,-131.01 246.98,-133.41 250.73,-139.32"/>
</a>
</g>
</g>
<!-- Node11&#45;&gt;Node12 -->
<g id="edge13_Node000011_Node000012" class="edge">
<title>Node11&#45;&gt;Node12</title>
<g id="a_edge13_Node000011_Node000012"><a xlink:title=" ">
<path fill="none" stroke="#63b8ff" d="M347.79,-110.24C345.86,-97.3 340.97,-72.89 329.9,-55.25 323.01,-44.29 312.72,-34.34 303.34,-26.64"/>
<polygon fill="#63b8ff" stroke="#63b8ff" points="305.67,-24.01 295.62,-20.65 301.38,-29.54 305.67,-24.01"/>
</a>
</g>
</g>
<!-- Node11&#45;&gt;Node13 -->
<g id="edge14_Node000011_Node000013" class="edge">
<title>Node11&#45;&gt;Node13</title>
<g id="a_edge14_Node000011_Node000013"><a xlink:title=" ">
<path fill="none" stroke="#63b8ff" d="M357.32,-110.33C364.44,-102.9 374.84,-92.04 383.58,-82.91"/>
<polygon fill="#63b8ff" stroke="#63b8ff" points="385.86,-85.6 390.24,-75.95 380.8,-80.75 385.86,-85.6"/>
</a>
</g>
</g>
<!-- Node14 -->
<g id="Node000014" class="node">
<title>Node14</title>
<g id="a_Node000014"><a xlink:title=" ">
<polygon fill="#e0e0e0" stroke="#999999" points="580.52,-74.5 535.27,-74.5 535.27,-55.25 580.52,-55.25 580.52,-74.5"/>
<text text-anchor="middle" x="557.9" y="-61" font-family="Helvetica,sans-Serif" font-size="10.00">chrono</text>
</a>
</g>
</g>
<!-- Node11&#45;&gt;Node14 -->
<g id="edge15_Node000011_Node000014" class="edge">
<title>Node11&#45;&gt;Node14</title>
<g id="a_edge15_Node000011_Node000014"><a xlink:title=" ">
<path fill="none" stroke="#63b8ff" d="M375.37,-112.38C413.12,-102.76 482.43,-85.1 523.93,-74.53"/>
<polygon fill="#63b8ff" stroke="#63b8ff" points="524.55,-77.98 533.38,-72.12 522.82,-71.2 524.55,-77.98"/>
</a>
</g>
</g>
<!-- Node15 -->
<g id="Node000015" class="node">
<title>Node15</title>
<g id="a_Node000015"><a xlink:href="_machine_i_d_8hpp.xhtml" target="_top" xlink:title=" ">
<polygon fill="white" stroke="#666666" points="321.15,-74.5 240.65,-74.5 240.65,-55.25 321.15,-55.25 321.15,-74.5"/>
<text text-anchor="middle" x="280.9" y="-61" font-family="Helvetica,sans-Serif" font-size="10.00">MachineID.hpp</text>
</a>
</g>
</g>
<!-- Node11&#45;&gt;Node15 -->
<g id="edge16_Node000011_Node000015" class="edge">
<title>Node11&#45;&gt;Node15</title>
<g id="a_edge16_Node000011_Node000015"><a xlink:title=" ">
<path fill="none" stroke="#63b8ff" d="M337.36,-110.09C327.43,-102.32 312.88,-90.92 301.04,-81.65"/>
<polygon fill="#63b8ff" stroke="#63b8ff" points="303.48,-79.12 293.45,-75.71 299.17,-84.63 303.48,-79.12"/>
</a>
</g>
</g>
<!-- Node15&#45;&gt;Node12 -->
<g id="edge17_Node000015_Node000012" class="edge">
<title>Node15&#45;&gt;Node12</title>
<g id="a_edge17_Node000015_Node000012"><a xlink:title=" ">
<path fill="none" stroke="#63b8ff" d="M280.9,-55.08C280.9,-48.57 280.9,-39.42 280.9,-31.12"/>
<polygon fill="#63b8ff" stroke="#63b8ff" points="284.4,-31.12 280.9,-21.12 277.4,-31.12 284.4,-31.12"/>
</a>
</g>
</g>
<!-- Node17 -->
<g id="Node000017" class="node">
<title>Node17</title>
<g id="a_Node000017"><a xlink:title=" ">
<polygon fill="#e0e0e0" stroke="#999999" points="217.52,-74.5 160.27,-74.5 160.27,-55.25 217.52,-55.25 217.52,-74.5"/>
<text text-anchor="middle" x="188.9" y="-61" font-family="Helvetica,sans-Serif" font-size="10.00">esp_log.h</text>
</a>
</g>
</g>
<!-- Node16&#45;&gt;Node17 -->
<g id="edge19_Node000016_Node000017" class="edge">
<title>Node16&#45;&gt;Node17</title>
<g id="a_edge19_Node000016_Node000017"><a xlink:title=" ">
<path fill="none" stroke="#63b8ff" d="M188.9,-110.33C188.9,-103.82 188.9,-94.67 188.9,-86.37"/>
<polygon fill="#63b8ff" stroke="#63b8ff" points="192.4,-86.37 188.9,-76.37 185.4,-86.37 192.4,-86.37"/>
</a>
</g>
</g>
<!-- Node22&#45;&gt;Node3 -->
<g id="edge32_Node000022_Node000003" class="edge">
<title>Node22&#45;&gt;Node3</title>
<g id="a_edge32_Node000022_Node000003"><a xlink:title=" ">
<path fill="none" stroke="#63b8ff" d="M709.51,-220.56C669,-201.61 575.11,-157.7 526.8,-135.11"/>
<polygon fill="#63b8ff" stroke="#63b8ff" points="528.3,-131.95 517.76,-130.88 525.33,-138.29 528.3,-131.95"/>
</a>
</g>
</g>
<!-- Node22&#45;&gt;Node14 -->
<g id="edge30_Node000022_Node000014" class="edge">
<title>Node22&#45;&gt;Node14</title>
<g id="a_edge30_Node000022_Node000014"><a xlink:title=" ">
<path fill="none" stroke="#63b8ff" d="M719.46,-220.59C691.83,-194.13 610.84,-116.57 575.14,-82.38"/>
<polygon fill="#63b8ff" stroke="#63b8ff" points="577.83,-80.12 568.19,-75.73 572.99,-85.18 577.83,-80.12"/>
</a>
</g>
</g>
<!-- Node23 -->
<g id="Node000023" class="node">
<title>Node23</title>
<g id="a_Node000023"><a xlink:title=" ">
<polygon fill="#e0e0e0" stroke="#999999" points="749.9,-185 691.9,-185 691.9,-165.75 749.9,-165.75 749.9,-185"/>
<text text-anchor="middle" x="720.9" y="-171.5" font-family="Helvetica,sans-Serif" font-size="10.00">functional</text>
</a>
</g>
</g>
<!-- Node22&#45;&gt;Node23 -->
<g id="edge31_Node000022_Node000023" class="edge">
<title>Node22&#45;&gt;Node23</title>
<g id="a_edge31_Node000022_Node000023"><a xlink:title=" ">
<path fill="none" stroke="#63b8ff" d="M727.57,-220.83C726.58,-214.24 725.19,-204.96 723.93,-196.57"/>
<polygon fill="#63b8ff" stroke="#63b8ff" points="727.42,-196.22 722.47,-186.86 720.5,-197.26 727.42,-196.22"/>
</a>
</g>
</g>
<!-- Node24 -->
<g id="Node000024" class="node">
<title>Node24</title>
<g id="a_Node000024"><a xlink:title=" ">
<polygon fill="#e0e0e0" stroke="#999999" points="796.3,-185 767.5,-185 767.5,-165.75 796.3,-165.75 796.3,-185"/>
<text text-anchor="middle" x="781.9" y="-171.5" font-family="Helvetica,sans-Serif" font-size="10.00">list</text>
</a>
</g>
</g>
<!-- Node22&#45;&gt;Node24 -->
<g id="edge33_Node000022_Node000024" class="edge">
<title>Node22&#45;&gt;Node24</title>
<g id="a_edge33_Node000022_Node000024"><a xlink:title=" ">
<path fill="none" stroke="#63b8ff" d="M737.65,-220.83C745.04,-213.4 755.86,-202.54 764.94,-193.41"/>
<polygon fill="#63b8ff" stroke="#63b8ff" points="767.31,-195.99 771.89,-186.43 762.35,-191.05 767.31,-195.99"/>
</a>
</g>
</g>
</g>
</svg>

<g id="navigator" transform="translate(0 0)" fill="#404254">
  <rect fill="#f2f5e9" fill-opacity="0.5" stroke="#606060" stroke-width=".5" x="0" y="0" width="60" height="60"/>
  <use id="zoomplus" xlink:href="#zoomPlus" x="17" y="9" onmousedown="handleZoom(evt,'in')"/>
  <use id="zoomminus" xlink:href="#zoomMin" x="42" y="9" onmousedown="handleZoom(evt,'out')"/>
  <use id="reset" xlink:href="#resetDef" x="30" y="36" onmousedown="handleReset()"/>
   <use id="arrowup" xlink:href="#arrowUp" x="0" y="0" onmousedown="handlePan(0,-1)"/>
  <use id="arrowright" xlink:href="#arrowRight" x="0" y="0" onmousedown="handlePan(1,0)"/>
  <use id="arrowdown" xlink:href="#arrowDown" x="0" y="0" onmousedown="handlePan(0,1)"/>
  <use id="arrowleft" xlink:href="#arrowLeft" x="0" y="0" onmousedown="handlePan(-1,0)"/>
</g>
<svg viewBox="0 0 15 15" width="100%" height="30px" preserveAspectRatio="xMaxYMin meet">
 <g id="arrow_out" transform="scale(0.3 0.3)">
  <a xlink:href="_mock_mrfc522_8cpp__incl_org.svg" target="_base">
   <rect id="button" ry="5" rx="5" y="6" x="6" height="38" width="38"
        fill="#f2f5e9" fill-opacity="0.5" stroke="#606060" stroke-width="1.0"/>
   <path id="arrow"
     d="M 11.500037,31.436501 C 11.940474,20.09759 22.043105,11.32322 32.158766,21.979434 L 37.068811,17.246167 C 37.068811,17.246167 37.088388,32 37.088388,32 L 22.160133,31.978069 C 22.160133,31.978069 26.997745,27.140456 26.997745,27.140456 C 18.528582,18.264221 13.291696,25.230495 11.500037,31.436501 z"
     style="fill:#404040;"/>
  </a>
 </g>
</svg>

<style type='text/css'>
<![CDATA[
[data-mouse-over-selected='false'] { opacity: 0.7; }
[data-mouse-over-selected='true']  { opacity: 1.0; }
]]>
</style>
<script type="application/ecmascript"><![CDATA[
document.addEventListener('DOMContentLoaded', (event) => {
  highlightEdges();
  highlightAdjacentNodes();
});
]]></script>
</svg>
