<?xml version="1.0" encoding="UTF-8" standalone="no"?>
<!DOCTYPE svg PUBLIC "-//W3C//DTD SVG 1.1//EN"
 "http://www.w3.org/Graphics/SVG/1.1/DTD/svg11.dtd">
<!-- Generated by graphviz version 9.0.0 (20230911.1827)
 -->
<!-- Title: MockMQTTBroker.cpp Pages: 1 -->
<!--zoomable 414 -->

<svg id="main" version="1.1" xmlns="http://www.w3.org/2000/svg" xmlns:xlink="http://www.w3.org/1999/xlink" xml:space="preserve" onload="init(evt)">
<style type="text/css"><![CDATA[
.node, .edge {opacity: 0.7;}
.node.selected, .edge.selected {opacity: 1;}
.edge:hover path { stroke: red; }
.edge:hover polygon { stroke: red; fill: red; }
]]></style>

<defs>
  <circle id="rim" cx="0" cy="0" r="7"/>
  <circle id="rim2" cx="0" cy="0" r="3.5"/>
  <g id="zoomPlus">
    <use xlink:href="#rim" fill="#404040"><set attributeName="fill" to="#808080" begin="zoomplus.mouseover" end="zoomplus.mouseout"/></use>
    <path d="M-4,0h8M0,-4v8" fill="none" stroke="white" stroke-width="1.5" pointer-events="none"/>
  </g>
  <g id="zoomMin">
    <use xlink:href="#rim" fill="#404040"><set attributeName="fill" to="#808080" begin="zoomminus.mouseover" end="zoomminus.mouseout"/></use>
    <path d="M-4,0h8" fill="none" stroke="white" stroke-width="1.5" pointer-events="none"/>
  </g>
  <g id="arrowUp" transform="translate(30 24)">
    <use xlink:href="#rim"/>
    <path pointer-events="none" fill="none" stroke="white" stroke-width="1.5" d="M0,-3.0v7 M-2.5,-0.5L0,-3.0L2.5,-0.5"/>
  </g>
  <g id="arrowRight" transform="rotate(90) translate(36 -43)">
    <use xlink:href="#rim"/>
    <path pointer-events="none" fill="none" stroke="white" stroke-width="1.5" d="M0,-3.0v7 M-2.5,-0.5L0,-3.0L2.5,-0.5"/>
  </g>
  <g id="arrowDown" transform="rotate(180) translate(-30 -48)">
    <use xlink:href="#rim"/>
    <path pointer-events="none" fill="none" stroke="white" stroke-width="1.5" d="M0,-3.0v7 M-2.5,-0.5L0,-3.0L2.5,-0.5"/>
  </g>
  <g id="arrowLeft" transform="rotate(270) translate(-36 17)">
    <use xlink:href="#rim"/>
    <path pointer-events="none" fill="none" stroke="white" stroke-width="1.5" d="M0,-3.0v7 M-2.5,-0.5L0,-3.0L2.5,-0.5"/>
  </g>
  <g id="resetDef">
    <use xlink:href="#rim2" fill="#404040"><set attributeName="fill" to="#808080" begin="reset.mouseover" end="reset.mouseout"/></use>
  </g>
</defs>
<script type="application/ecmascript">
var viewWidth = 1414;
var viewHeight = 414;
var sectionId = 'dynsection-0';
</script>
<script type="application/ecmascript" xlink:href="svg.min.js"/>
<svg id="graph" class="graph">
<g id="viewport">
<title>MockMQTTBroker.cpp</title>
<!-- Node1 -->
<g id="Node000001" class="node">
<title>Node1</title>
<g id="a_Node000001"><a xlink:title=" ">
<polygon fill="#999999" stroke="#666666" points="874.12,-406 759.88,-406 759.88,-386.75 874.12,-386.75 874.12,-406"/>
<text text-anchor="middle" x="817" y="-392.5" font-family="Helvetica,sans-Serif" font-size="10.00">MockMQTTBroker.cpp</text>
</a>
</g>
</g>
<!-- Node2 -->
<g id="Node000002" class="node">
<title>Node2</title>
<g id="a_Node000002"><a xlink:href="_mock_m_q_t_t_broker_8hpp.xhtml" target="_top" xlink:title=" ">
<polygon fill="white" stroke="#666666" points="283.62,-295.5 142.38,-295.5 142.38,-276.25 283.62,-276.25 283.62,-295.5"/>
<text text-anchor="middle" x="213" y="-282" font-family="Helvetica,sans-Serif" font-size="10.00">mock/MockMQTTBroker.hpp</text>
</a>
</g>
</g>
<!-- Node1&#45;&gt;Node2 -->
<g id="edge1_Node000001_Node000002" class="edge">
<title>Node1&#45;&gt;Node2</title>
<g id="a_edge1_Node000001_Node000002"><a xlink:title=" ">
<path fill="none" stroke="#63b8ff" d="M766.28,-386.26C655.97,-366.45 394.55,-319.49 274.82,-297.98"/>
<polygon fill="#63b8ff" stroke="#63b8ff" points="275.63,-294.57 265.17,-296.25 274.4,-301.46 275.63,-294.57"/>
</a>
</g>
</g>
<!-- Node13 -->
<g id="Node000013" class="node">
<title>Node13</title>
<g id="a_Node000013"><a xlink:href="conf_8hpp.xhtml" target="_top" xlink:title=" ">
<polygon fill="white" stroke="#666666" points="998.38,-129.75 945.62,-129.75 945.62,-110.5 998.38,-110.5 998.38,-129.75"/>
<text text-anchor="middle" x="972" y="-116.25" font-family="Helvetica,sans-Serif" font-size="10.00">conf.hpp</text>
</a>
</g>
</g>
<!-- Node1&#45;&gt;Node13 -->
<g id="edge23_Node000001_Node000013" class="edge">
<title>Node1&#45;&gt;Node13</title>
<g id="a_edge23_Node000001_Node000013"><a xlink:title=" ">
<path fill="none" stroke="#63b8ff" d="M826.6,-386.3C835.52,-377.62 848.91,-363.93 859,-350.75 911.3,-282.43 928.46,-265.43 959,-185 964.36,-170.88 967.67,-154.11 969.6,-141.3"/>
<polygon fill="#63b8ff" stroke="#63b8ff" points="973.05,-141.93 970.91,-131.56 966.11,-141 973.05,-141.93"/>
</a>
</g>
</g>
<!-- Node17 -->
<g id="Node000017" class="node">
<title>Node17</title>
<g id="a_Node000017"><a xlink:href="_logging_8hpp.xhtml" target="_top" xlink:title=" ">
<polygon fill="white" stroke="#666666" points="118.25,-129.75 49.75,-129.75 49.75,-110.5 118.25,-110.5 118.25,-129.75"/>
<text text-anchor="middle" x="84" y="-116.25" font-family="Helvetica,sans-Serif" font-size="10.00">Logging.hpp</text>
</a>
</g>
</g>
<!-- Node1&#45;&gt;Node17 -->
<g id="edge22_Node000001_Node000017" class="edge">
<title>Node1&#45;&gt;Node17</title>
<g id="a_edge22_Node000001_Node000017"><a xlink:title=" ">
<path fill="none" stroke="#63b8ff" d="M759.55,-393.79C573.58,-387.93 0,-363.6 0,-286.88 0,-286.88 0,-286.88 0,-229.62 0,-189.67 36.06,-155.49 60.93,-136.68"/>
<polygon fill="#63b8ff" stroke="#63b8ff" points="62.85,-139.6 68.9,-130.9 58.75,-133.93 62.85,-139.6"/>
</a>
</g>
</g>
<!-- Node21 -->
<g id="Node000021" class="node">
<title>Node21</title>
<g id="a_Node000021"><a xlink:href="secrets_8hpp.xhtml" target="_top" xlink:title=" ">
<polygon fill="white" stroke="#666666" points="850.12,-350.75 783.88,-350.75 783.88,-331.5 850.12,-331.5 850.12,-350.75"/>
<text text-anchor="middle" x="817" y="-337.25" font-family="Helvetica,sans-Serif" font-size="10.00">secrets.hpp</text>
</a>
</g>
</g>
<!-- Node1&#45;&gt;Node21 -->
<g id="edge24_Node000001_Node000021" class="edge">
<title>Node1&#45;&gt;Node21</title>
<g id="a_edge24_Node000001_Node000021"><a xlink:title=" ">
<path fill="none" stroke="#63b8ff" d="M817,-386.58C817,-380.07 817,-370.92 817,-362.62"/>
<polygon fill="#63b8ff" stroke="#63b8ff" points="820.5,-362.62 817,-352.62 813.5,-362.62 820.5,-362.62"/>
</a>
</g>
</g>
<!-- Node32 -->
<g id="Node000032" class="node">
<title>Node32</title>
<g id="a_Node000032"><a xlink:title=" ">
<polygon fill="#e0e0e0" stroke="#999999" points="1150.75,-350.75 1073.25,-350.75 1073.25,-331.5 1150.75,-331.5 1150.75,-350.75"/>
<text text-anchor="middle" x="1112" y="-337.25" font-family="Helvetica,sans-Serif" font-size="10.00">ArduinoJson.h</text>
</a>
</g>
</g>
<!-- Node1&#45;&gt;Node32 -->
<g id="edge61_Node000001_Node000032" class="edge">
<title>Node1&#45;&gt;Node32</title>
<g id="a_edge61_Node000001_Node000032"><a xlink:title=" ">
<path fill="none" stroke="#63b8ff" d="M867.38,-386.28C921.76,-376.46 1007.86,-360.92 1062.07,-351.14"/>
<polygon fill="#63b8ff" stroke="#63b8ff" points="1062.43,-354.63 1071.64,-349.41 1061.18,-347.74 1062.43,-354.63"/>
</a>
</g>
</g>
<!-- Node3 -->
<g id="Node000003" class="node">
<title>Node3</title>
<g id="a_Node000003"><a xlink:title=" ">
<polygon fill="#e0e0e0" stroke="#999999" points="174.12,-240.25 131.88,-240.25 131.88,-221 174.12,-221 174.12,-240.25"/>
<text text-anchor="middle" x="153" y="-226.75" font-family="Helvetica,sans-Serif" font-size="10.00">mutex</text>
</a>
</g>
</g>
<!-- Node2&#45;&gt;Node3 -->
<g id="edge2_Node000002_Node000003" class="edge">
<title>Node2&#45;&gt;Node3</title>
<g id="a_edge2_Node000002_Node000003"><a xlink:title=" ">
<path fill="none" stroke="#63b8ff" d="M202.82,-275.84C194.24,-268.22 181.73,-257.12 171.4,-247.95"/>
<polygon fill="#63b8ff" stroke="#63b8ff" points="173.96,-245.55 164.16,-241.53 169.32,-250.79 173.96,-245.55"/>
</a>
</g>
</g>
<!-- Node4 -->
<g id="Node000004" class="node">
<title>Node4</title>
<g id="a_Node000004"><a xlink:title=" ">
<polygon fill="#e0e0e0" stroke="#999999" points="419,-185 361,-185 361,-165.75 419,-165.75 419,-185"/>
<text text-anchor="middle" x="390" y="-171.5" font-family="Helvetica,sans-Serif" font-size="10.00">functional</text>
</a>
</g>
</g>
<!-- Node2&#45;&gt;Node4 -->
<g id="edge3_Node000002_Node000004" class="edge">
<title>Node2&#45;&gt;Node4</title>
<g id="a_edge3_Node000002_Node000004"><a xlink:title=" ">
<path fill="none" stroke="#63b8ff" d="M282.24,-275.77C360.63,-265.14 478.42,-248 485,-240.25 505.32,-216.33 464.42,-197.62 430.1,-186.79"/>
<polygon fill="#63b8ff" stroke="#63b8ff" points="431.31,-183.49 420.73,-183.98 429.3,-190.2 431.31,-183.49"/>
</a>
</g>
</g>
<!-- Node5 -->
<g id="Node000005" class="node">
<title>Node5</title>
<g id="a_Node000005"><a xlink:title=" ">
<polygon fill="#e0e0e0" stroke="#999999" points="234.12,-240.25 191.88,-240.25 191.88,-221 234.12,-221 234.12,-240.25"/>
<text text-anchor="middle" x="213" y="-226.75" font-family="Helvetica,sans-Serif" font-size="10.00">queue</text>
</a>
</g>
</g>
<!-- Node2&#45;&gt;Node5 -->
<g id="edge4_Node000002_Node000005" class="edge">
<title>Node2&#45;&gt;Node5</title>
<g id="a_edge4_Node000002_Node000005"><a xlink:title=" ">
<path fill="none" stroke="#63b8ff" d="M213,-276.08C213,-269.57 213,-260.42 213,-252.12"/>
<polygon fill="#63b8ff" stroke="#63b8ff" points="216.5,-252.12 213,-242.12 209.5,-252.12 216.5,-252.12"/>
</a>
</g>
</g>
<!-- Node6 -->
<g id="Node000006" class="node">
<title>Node6</title>
<g id="a_Node000006"><a xlink:title=" ">
<polygon fill="#e0e0e0" stroke="#999999" points="883,-74.5 843,-74.5 843,-55.25 883,-55.25 883,-74.5"/>
<text text-anchor="middle" x="863" y="-61" font-family="Helvetica,sans-Serif" font-size="10.00">string</text>
</a>
</g>
</g>
<!-- Node2&#45;&gt;Node6 -->
<g id="edge5_Node000002_Node000006" class="edge">
<title>Node2&#45;&gt;Node6</title>
<g id="a_edge5_Node000002_Node000006"><a xlink:title=" ">
<path fill="none" stroke="#63b8ff" d="M219.45,-275.8C225.69,-266.89 235.32,-252.84 243,-240.25 262.67,-207.98 256.42,-191.59 284,-165.75 326.26,-126.16 346.15,-125.79 402,-110.5 558.85,-67.56 755.59,-64.62 831.3,-65.27"/>
<polygon fill="#63b8ff" stroke="#63b8ff" points="831.24,-68.77 841.28,-65.39 831.32,-61.77 831.24,-68.77"/>
</a>
</g>
</g>
<!-- Node7 -->
<g id="Node000007" class="node">
<title>Node7</title>
<g id="a_Node000007"><a xlink:href="_base_rfid_wrapper_8hpp.xhtml" target="_top" xlink:title=" ">
<polygon fill="white" stroke="#666666" points="475.5,-240.25 366.5,-240.25 366.5,-221 475.5,-221 475.5,-240.25"/>
<text text-anchor="middle" x="421" y="-226.75" font-family="Helvetica,sans-Serif" font-size="10.00">BaseRfidWrapper.hpp</text>
</a>
</g>
</g>
<!-- Node2&#45;&gt;Node7 -->
<g id="edge6_Node000002_Node000007" class="edge">
<title>Node2&#45;&gt;Node7</title>
<g id="a_edge6_Node000002_Node000007"><a xlink:title=" ">
<path fill="none" stroke="#63b8ff" d="M248.28,-275.84C283.1,-266.93 336.5,-253.26 374.71,-243.48"/>
<polygon fill="#63b8ff" stroke="#63b8ff" points="375.26,-246.95 384.08,-241.08 373.52,-240.17 375.26,-246.95"/>
</a>
</g>
</g>
<!-- Node20 -->
<g id="Node000020" class="node">
<title>Node20</title>
<g id="a_Node000020"><a xlink:title=" ">
<polygon fill="#e0e0e0" stroke="#999999" points="113.5,-240.25 28.5,-240.25 28.5,-221 113.5,-221 113.5,-240.25"/>
<text text-anchor="middle" x="71" y="-226.75" font-family="Helvetica,sans-Serif" font-size="10.00">sMQTTBroker.h</text>
</a>
</g>
</g>
<!-- Node2&#45;&gt;Node20 -->
<g id="edge21_Node000002_Node000020" class="edge">
<title>Node2&#45;&gt;Node20</title>
<g id="a_edge21_Node000002_Node000020"><a xlink:title=" ">
<path fill="none" stroke="#63b8ff" d="M188.91,-275.84C166.06,-267.27 131.48,-254.31 105.67,-244.63"/>
<polygon fill="#63b8ff" stroke="#63b8ff" points="107.22,-241.47 96.62,-241.23 104.76,-248.02 107.22,-241.47"/>
</a>
</g>
</g>
<!-- Node8 -->
<g id="Node000008" class="node">
<title>Node8</title>
<g id="a_Node000008"><a xlink:title=" ">
<polygon fill="#e0e0e0" stroke="#999999" points="342.88,-185 293.12,-185 293.12,-165.75 342.88,-165.75 342.88,-185"/>
<text text-anchor="middle" x="318" y="-171.5" font-family="Helvetica,sans-Serif" font-size="10.00">optional</text>
</a>
</g>
</g>
<!-- Node7&#45;&gt;Node8 -->
<g id="edge7_Node000007_Node000008" class="edge">
<title>Node7&#45;&gt;Node8</title>
<g id="a_edge7_Node000007_Node000008"><a xlink:title=" ">
<path fill="none" stroke="#63b8ff" d="M403.53,-220.59C387.69,-212.41 364.09,-200.21 345.69,-190.69"/>
<polygon fill="#63b8ff" stroke="#63b8ff" points="347.39,-187.63 336.9,-186.15 344.18,-193.85 347.39,-187.63"/>
</a>
</g>
</g>
<!-- Node9 -->
<g id="Node000009" class="node">
<title>Node9</title>
<g id="a_Node000009"><a xlink:href="card_8hpp.xhtml" target="_top" xlink:title=" ">
<polygon fill="white" stroke="#666666" points="527.38,-185 474.62,-185 474.62,-165.75 527.38,-165.75 527.38,-185"/>
<text text-anchor="middle" x="501" y="-171.5" font-family="Helvetica,sans-Serif" font-size="10.00">card.hpp</text>
</a>
</g>
</g>
<!-- Node7&#45;&gt;Node9 -->
<g id="edge8_Node000007_Node000009" class="edge">
<title>Node7&#45;&gt;Node9</title>
<g id="a_edge8_Node000007_Node000009"><a xlink:title=" ">
<path fill="none" stroke="#63b8ff" d="M434.57,-220.59C446.41,-212.71 463.84,-201.11 477.87,-191.77"/>
<polygon fill="#63b8ff" stroke="#63b8ff" points="479.72,-194.75 486.1,-186.29 475.84,-188.92 479.72,-194.75"/>
</a>
</g>
</g>
<!-- Node10 -->
<g id="Node000010" class="node">
<title>Node10</title>
<g id="a_Node000010"><a xlink:title=" ">
<polygon fill="#e0e0e0" stroke="#999999" points="686.62,-129.75 635.38,-129.75 635.38,-110.5 686.62,-110.5 686.62,-129.75"/>
<text text-anchor="middle" x="661" y="-116.25" font-family="Helvetica,sans-Serif" font-size="10.00">sstream</text>
</a>
</g>
</g>
<!-- Node9&#45;&gt;Node10 -->
<g id="edge9_Node000009_Node000010" class="edge">
<title>Node9&#45;&gt;Node10</title>
<g id="a_edge9_Node000009_Node000010"><a xlink:title=" ">
<path fill="none" stroke="#63b8ff" d="M527.78,-165.46C554.21,-156.67 594.81,-143.15 624.25,-133.36"/>
<polygon fill="#63b8ff" stroke="#63b8ff" points="625.11,-136.76 633.49,-130.28 622.9,-130.12 625.11,-136.76"/>
</a>
</g>
</g>
<!-- Node11 -->
<g id="Node000011" class="node">
<title>Node11</title>
<g id="a_Node000011"><a xlink:title=" ">
<polygon fill="#e0e0e0" stroke="#999999" points="460.88,-129.75 411.12,-129.75 411.12,-110.5 460.88,-110.5 460.88,-129.75"/>
<text text-anchor="middle" x="436" y="-116.25" font-family="Helvetica,sans-Serif" font-size="10.00">iomanip</text>
</a>
</g>
</g>
<!-- Node9&#45;&gt;Node11 -->
<g id="edge10_Node000009_Node000011" class="edge">
<title>Node9&#45;&gt;Node11</title>
<g id="a_edge10_Node000009_Node000011"><a xlink:title=" ">
<path fill="none" stroke="#63b8ff" d="M489.97,-165.34C480.58,-157.65 466.85,-146.4 455.59,-137.18"/>
<polygon fill="#63b8ff" stroke="#63b8ff" points="457.99,-134.61 448.03,-130.98 453.55,-140.03 457.99,-134.61"/>
</a>
</g>
</g>
<!-- Node12 -->
<g id="Node000012" class="node">
<title>Node12</title>
<g id="a_Node000012"><a xlink:title=" ">
<polygon fill="#e0e0e0" stroke="#999999" points="617.25,-129.75 560.75,-129.75 560.75,-110.5 617.25,-110.5 617.25,-129.75"/>
<text text-anchor="middle" x="589" y="-116.25" font-family="Helvetica,sans-Serif" font-size="10.00">Arduino.h</text>
</a>
</g>
</g>
<!-- Node9&#45;&gt;Node12 -->
<g id="edge11_Node000009_Node000012" class="edge">
<title>Node9&#45;&gt;Node12</title>
<g id="a_edge11_Node000009_Node000012"><a xlink:title=" ">
<path fill="none" stroke="#63b8ff" d="M515.93,-165.34C529.2,-157.31 548.87,-145.41 564.45,-135.98"/>
<polygon fill="#63b8ff" stroke="#63b8ff" points="565.96,-139.16 572.7,-130.99 562.34,-133.17 565.96,-139.16"/>
</a>
</g>
</g>
<!-- Node9&#45;&gt;Node13 -->
<g id="edge12_Node000009_Node000013" class="edge">
<title>Node9&#45;&gt;Node13</title>
<g id="a_edge12_Node000009_Node000013"><a xlink:title=" ">
<path fill="none" stroke="#63b8ff" d="M527.69,-171.18C541.51,-169.54 558.66,-167.52 574,-165.75 706.23,-150.53 863.24,-133.12 934.04,-125.3"/>
<polygon fill="#63b8ff" stroke="#63b8ff" points="934.38,-128.79 943.94,-124.21 933.62,-121.83 934.38,-128.79"/>
</a>
</g>
</g>
<!-- Node9&#45;&gt;Node17 -->
<g id="edge18_Node000009_Node000017" class="edge">
<title>Node9&#45;&gt;Node17</title>
<g id="a_edge18_Node000009_Node000017"><a xlink:title=" ">
<path fill="none" stroke="#63b8ff" d="M474.28,-170.96C404.68,-162.07 217.14,-138.13 129.85,-126.98"/>
<polygon fill="#63b8ff" stroke="#63b8ff" points="130.34,-123.51 119.97,-125.72 129.45,-130.46 130.34,-123.51"/>
</a>
</g>
</g>
<!-- Node19 -->
<g id="Node000019" class="node">
<title>Node19</title>
<g id="a_Node000019"><a xlink:title=" ">
<polygon fill="#e0e0e0" stroke="#999999" points="542.62,-129.75 479.38,-129.75 479.38,-110.5 542.62,-110.5 542.62,-129.75"/>
<text text-anchor="middle" x="511" y="-116.25" font-family="Helvetica,sans-Serif" font-size="10.00">esp_mac.h</text>
</a>
</g>
</g>
<!-- Node9&#45;&gt;Node19 -->
<g id="edge20_Node000009_Node000019" class="edge">
<title>Node9&#45;&gt;Node19</title>
<g id="a_edge20_Node000009_Node000019"><a xlink:title=" ">
<path fill="none" stroke="#63b8ff" d="M502.65,-165.58C503.89,-158.99 505.63,-149.71 507.21,-141.32"/>
<polygon fill="#63b8ff" stroke="#63b8ff" points="510.63,-142.07 509.03,-131.6 503.75,-140.78 510.63,-142.07"/>
</a>
</g>
</g>
<!-- Node13&#45;&gt;Node6 -->
<g id="edge14_Node000013_Node000006" class="edge">
<title>Node13&#45;&gt;Node6</title>
<g id="a_edge14_Node000013_Node000006"><a xlink:title=" ">
<path fill="none" stroke="#63b8ff" d="M953.51,-110.09C936.6,-101.83 911.31,-89.48 891.76,-79.93"/>
<polygon fill="#63b8ff" stroke="#63b8ff" points="893.46,-76.86 882.94,-75.62 890.39,-83.15 893.46,-76.86"/>
</a>
</g>
</g>
<!-- Node14 -->
<g id="Node000014" class="node">
<title>Node14</title>
<g id="a_Node000014"><a xlink:title=" ">
<polygon fill="#e0e0e0" stroke="#999999" points="1114.62,-19.25 1069.38,-19.25 1069.38,0 1114.62,0 1114.62,-19.25"/>
<text text-anchor="middle" x="1092" y="-5.75" font-family="Helvetica,sans-Serif" font-size="10.00">cstdint</text>
</a>
</g>
</g>
<!-- Node13&#45;&gt;Node14 -->
<g id="edge13_Node000013_Node000014" class="edge">
<title>Node13&#45;&gt;Node14</title>
<g id="a_edge13_Node000013_Node000014"><a xlink:title=" ">
<path fill="none" stroke="#63b8ff" d="M972.85,-110.16C974.58,-96.67 979.64,-71.05 994,-55.25 1010.94,-36.6 1037.21,-25.22 1058.29,-18.62"/>
<polygon fill="#63b8ff" stroke="#63b8ff" points="1058.97,-22.07 1067.61,-15.93 1057.03,-15.34 1058.97,-22.07"/>
</a>
</g>
</g>
<!-- Node15 -->
<g id="Node000015" class="node">
<title>Node15</title>
<g id="a_Node000015"><a xlink:title=" ">
<polygon fill="#e0e0e0" stroke="#999999" points="946.62,-74.5 901.38,-74.5 901.38,-55.25 946.62,-55.25 946.62,-74.5"/>
<text text-anchor="middle" x="924" y="-61" font-family="Helvetica,sans-Serif" font-size="10.00">chrono</text>
</a>
</g>
</g>
<!-- Node13&#45;&gt;Node15 -->
<g id="edge15_Node000013_Node000015" class="edge">
<title>Node13&#45;&gt;Node15</title>
<g id="a_edge15_Node000013_Node000015"><a xlink:title=" ">
<path fill="none" stroke="#63b8ff" d="M964.07,-110.33C957.44,-102.98 947.78,-92.26 939.61,-83.19"/>
<polygon fill="#63b8ff" stroke="#63b8ff" points="942.41,-81.07 933.11,-75.98 937.21,-85.75 942.41,-81.07"/>
</a>
</g>
</g>
<!-- Node16 -->
<g id="Node000016" class="node">
<title>Node16</title>
<g id="a_Node000016"><a xlink:href="_machine_i_d_8hpp.xhtml" target="_top" xlink:title=" ">
<polygon fill="white" stroke="#666666" points="1083.25,-74.5 1002.75,-74.5 1002.75,-55.25 1083.25,-55.25 1083.25,-74.5"/>
<text text-anchor="middle" x="1043" y="-61" font-family="Helvetica,sans-Serif" font-size="10.00">MachineID.hpp</text>
</a>
</g>
</g>
<!-- Node13&#45;&gt;Node16 -->
<g id="edge16_Node000013_Node000016" class="edge">
<title>Node13&#45;&gt;Node16</title>
<g id="a_edge16_Node000013_Node000016"><a xlink:title=" ">
<path fill="none" stroke="#63b8ff" d="M984.04,-110.09C994.41,-102.32 1009.6,-90.92 1021.97,-81.65"/>
<polygon fill="#63b8ff" stroke="#63b8ff" points="1024.02,-84.48 1029.92,-75.68 1019.82,-78.88 1024.02,-84.48"/>
</a>
</g>
</g>
<!-- Node16&#45;&gt;Node14 -->
<g id="edge17_Node000016_Node000014" class="edge">
<title>Node16&#45;&gt;Node14</title>
<g id="a_edge17_Node000016_Node000014"><a xlink:title=" ">
<path fill="none" stroke="#63b8ff" d="M1051.09,-55.08C1057.86,-47.73 1067.72,-37.01 1076.06,-27.94"/>
<polygon fill="#63b8ff" stroke="#63b8ff" points="1078.51,-30.45 1082.71,-20.72 1073.36,-25.71 1078.51,-30.45"/>
</a>
</g>
</g>
<!-- Node18 -->
<g id="Node000018" class="node">
<title>Node18</title>
<g id="a_Node000018"><a xlink:title=" ">
<polygon fill="#e0e0e0" stroke="#999999" points="112.62,-74.5 55.38,-74.5 55.38,-55.25 112.62,-55.25 112.62,-74.5"/>
<text text-anchor="middle" x="84" y="-61" font-family="Helvetica,sans-Serif" font-size="10.00">esp_log.h</text>
</a>
</g>
</g>
<!-- Node17&#45;&gt;Node18 -->
<g id="edge19_Node000017_Node000018" class="edge">
<title>Node17&#45;&gt;Node18</title>
<g id="a_edge19_Node000017_Node000018"><a xlink:title=" ">
<path fill="none" stroke="#63b8ff" d="M84,-110.33C84,-103.82 84,-94.67 84,-86.37"/>
<polygon fill="#63b8ff" stroke="#63b8ff" points="87.5,-86.37 84,-76.37 80.5,-86.37 87.5,-86.37"/>
</a>
</g>
</g>
<!-- Node21&#45;&gt;Node13 -->
<g id="edge59_Node000021_Node000013" class="edge">
<title>Node21&#45;&gt;Node13</title>
<g id="a_edge59_Node000021_Node000013"><a xlink:title=" ">
<path fill="none" stroke="#63b8ff" d="M826.48,-331.11C843.81,-314.32 881.23,-276.62 907,-240.25 930.41,-207.21 951.69,-164.84 963.14,-140.56"/>
<polygon fill="#63b8ff" stroke="#63b8ff" points="966.27,-142.13 967.3,-131.59 959.92,-139.18 966.27,-142.13"/>
</a>
</g>
</g>
<!-- Node21&#45;&gt;Node14 -->
<g id="edge25_Node000021_Node000014" class="edge">
<title>Node21&#45;&gt;Node14</title>
<g id="a_edge25_Node000021_Node000014"><a xlink:title=" ">
<path fill="none" stroke="#63b8ff" d="M850.35,-337.55C974.95,-327.48 1406,-288.55 1406,-231.62 1406,-231.62 1406,-231.62 1406,-119.12 1406,-80.18 1380.27,-73.76 1346,-55.25 1274.7,-16.74 1177.26,-10.37 1126.28,-9.95"/>
<polygon fill="#63b8ff" stroke="#63b8ff" points="1126.46,-6.45 1116.46,-9.95 1126.46,-13.45 1126.46,-6.45"/>
</a>
</g>
</g>
<!-- Node22 -->
<g id="Node000022" class="node">
<title>Node22</title>
<g id="a_Node000022"><a xlink:title=" ">
<polygon fill="#e0e0e0" stroke="#999999" points="576.5,-19.25 539.5,-19.25 539.5,0 576.5,0 576.5,-19.25"/>
<text text-anchor="middle" x="558" y="-5.75" font-family="Helvetica,sans-Serif" font-size="10.00">array</text>
</a>
</g>
</g>
<!-- Node21&#45;&gt;Node22 -->
<g id="edge26_Node000021_Node000022" class="edge">
<title>Node21&#45;&gt;Node22</title>
<g id="a_edge26_Node000021_Node000022"><a xlink:title=" ">
<path fill="none" stroke="#63b8ff" d="M783.42,-339.93C701.54,-338.09 487.27,-324.91 336,-240.25 306.57,-223.78 296.43,-216.35 284,-185 240.8,-76.07 448.33,-29.08 527.96,-15.25"/>
<polygon fill="#63b8ff" stroke="#63b8ff" points="528.38,-18.73 537.67,-13.63 527.23,-11.83 528.38,-18.73"/>
</a>
</g>
</g>
<!-- Node23 -->
<g id="Node000023" class="node">
<title>Node23</title>
<g id="a_Node000023"><a xlink:title=" ">
<polygon fill="#e0e0e0" stroke="#999999" points="366.75,-295.5 301.25,-295.5 301.25,-276.25 366.75,-276.25 366.75,-295.5"/>
<text text-anchor="middle" x="334" y="-282" font-family="Helvetica,sans-Serif" font-size="10.00">string_view</text>
</a>
</g>
</g>
<!-- Node21&#45;&gt;Node23 -->
<g id="edge27_Node000021_Node000023" class="edge">
<title>Node21&#45;&gt;Node23</title>
<g id="a_edge27_Node000021_Node000023"><a xlink:title=" ">
<path fill="none" stroke="#63b8ff" d="M783.52,-337.61C710.31,-331.91 530.52,-316.84 381,-295.5 380.01,-295.36 379.01,-295.21 378.01,-295.06"/>
<polygon fill="#63b8ff" stroke="#63b8ff" points="379,-291.68 368.56,-293.53 377.87,-298.58 379,-291.68"/>
</a>
</g>
</g>
<!-- Node24 -->
<g id="Node000024" class="node">
<title>Node24</title>
<g id="a_Node000024"><a xlink:href="_machine_config_8hpp.xhtml" target="_top" xlink:title=" ">
<polygon fill="white" stroke="#666666" points="1150.88,-185 1053.12,-185 1053.12,-165.75 1150.88,-165.75 1150.88,-185"/>
<text text-anchor="middle" x="1102" y="-171.5" font-family="Helvetica,sans-Serif" font-size="10.00">MachineConfig.hpp</text>
</a>
</g>
</g>
<!-- Node21&#45;&gt;Node24 -->
<g id="edge28_Node000021_Node000024" class="edge">
<title>Node21&#45;&gt;Node24</title>
<g id="a_edge28_Node000021_Node000024"><a xlink:title=" ">
<path fill="none" stroke="#63b8ff" d="M850.54,-331.56C877.09,-324.05 914.62,-311.79 945,-295.5 999.99,-266.01 1056.32,-218.07 1084.16,-192.95"/>
<polygon fill="#63b8ff" stroke="#63b8ff" points="1086.33,-195.71 1091.35,-186.38 1081.61,-190.54 1086.33,-195.71"/>
</a>
</g>
</g>
<!-- Node28 -->
<g id="Node000028" class="node">
<title>Node28</title>
<g id="a_Node000028"><a xlink:href="_machine_8hpp.xhtml" target="_top" xlink:title=" ">
<polygon fill="white" stroke="#666666" points="789.38,-295.5 718.62,-295.5 718.62,-276.25 789.38,-276.25 789.38,-295.5"/>
<text text-anchor="middle" x="754" y="-282" font-family="Helvetica,sans-Serif" font-size="10.00">Machine.hpp</text>
</a>
</g>
</g>
<!-- Node21&#45;&gt;Node28 -->
<g id="edge40_Node000021_Node000028" class="edge">
<title>Node21&#45;&gt;Node28</title>
<g id="a_edge40_Node000021_Node000028"><a xlink:title=" ">
<path fill="none" stroke="#63b8ff" d="M806.31,-331.09C797.3,-323.47 784.17,-312.37 773.32,-303.2"/>
<polygon fill="#63b8ff" stroke="#63b8ff" points="775.58,-300.53 765.69,-296.75 771.06,-305.88 775.58,-300.53"/>
</a>
</g>
</g>
<!-- Node29 -->
<g id="Node000029" class="node">
<title>Node29</title>
<g id="a_Node000029"><a xlink:href="_fab_user_8hpp.xhtml" target="_top" xlink:title=" ">
<polygon fill="white" stroke="#666666" points="852.75,-240.25 781.25,-240.25 781.25,-221 852.75,-221 852.75,-240.25"/>
<text text-anchor="middle" x="817" y="-226.75" font-family="Helvetica,sans-Serif" font-size="10.00">FabUser.hpp</text>
</a>
</g>
</g>
<!-- Node21&#45;&gt;Node29 -->
<g id="edge60_Node000021_Node000029" class="edge">
<title>Node21&#45;&gt;Node29</title>
<g id="a_edge60_Node000021_Node000029"><a xlink:title=" ">
<path fill="none" stroke="#63b8ff" d="M817,-331.25C817,-314 817,-275.58 817,-251.81"/>
<polygon fill="#63b8ff" stroke="#63b8ff" points="820.5,-252.14 817,-242.14 813.5,-252.14 820.5,-252.14"/>
</a>
</g>
</g>
<!-- Node24&#45;&gt;Node6 -->
<g id="edge31_Node000024_Node000006" class="edge">
<title>Node24&#45;&gt;Node6</title>
<g id="a_edge31_Node000024_Node000006"><a xlink:title=" ">
<path fill="none" stroke="#63b8ff" d="M1089.71,-165.45C1068.11,-149.89 1024.03,-118.65 1007,-110.5 1001.78,-108 934.98,-87.64 894.22,-75.3"/>
<polygon fill="#63b8ff" stroke="#63b8ff" points="895.27,-71.96 884.69,-72.42 893.25,-78.66 895.27,-71.96"/>
</a>
</g>
</g>
<!-- Node24&#45;&gt;Node13 -->
<g id="edge39_Node000024_Node000013" class="edge">
<title>Node24&#45;&gt;Node13</title>
<g id="a_edge39_Node000024_Node000013"><a xlink:title=" ">
<path fill="none" stroke="#63b8ff" d="M1079.95,-165.34C1059.31,-156.89 1028.22,-144.15 1004.7,-134.52"/>
<polygon fill="#63b8ff" stroke="#63b8ff" points="1006.14,-131.33 995.56,-130.78 1003.49,-137.81 1006.14,-131.33"/>
</a>
</g>
</g>
<!-- Node24&#45;&gt;Node14 -->
<g id="edge30_Node000024_Node000014" class="edge">
<title>Node24&#45;&gt;Node14</title>
<g id="a_edge30_Node000024_Node000014"><a xlink:title=" ">
<path fill="none" stroke="#63b8ff" d="M1151.12,-167.39C1232.25,-153.86 1380.28,-119.59 1327,-55.25 1301.91,-24.95 1185.26,-15.06 1126.3,-11.96"/>
<polygon fill="#63b8ff" stroke="#63b8ff" points="1126.66,-8.47 1116.5,-11.49 1126.32,-15.47 1126.66,-8.47"/>
</a>
</g>
</g>
<!-- Node24&#45;&gt;Node15 -->
<g id="edge29_Node000024_Node000015" class="edge">
<title>Node24&#45;&gt;Node15</title>
<g id="a_edge29_Node000024_Node000015"><a xlink:title=" ">
<path fill="none" stroke="#63b8ff" d="M1095.34,-165.34C1084.9,-151.75 1063.47,-126 1040,-110.5 1014.51,-93.66 981.73,-81.8 957.53,-74.56"/>
<polygon fill="#63b8ff" stroke="#63b8ff" points="958.77,-71.27 948.19,-71.88 956.84,-78 958.77,-71.27"/>
</a>
</g>
</g>
<!-- Node24&#45;&gt;Node16 -->
<g id="edge38_Node000024_Node000016" class="edge">
<title>Node24&#45;&gt;Node16</title>
<g id="a_edge38_Node000024_Node000016"><a xlink:title=" ">
<path fill="none" stroke="#63b8ff" d="M1099.55,-165.32C1095.9,-152.58 1088.34,-128.88 1078,-110.5 1072.65,-100.98 1065.36,-91.34 1058.83,-83.46"/>
<polygon fill="#63b8ff" stroke="#63b8ff" points="1061.57,-81.28 1052.39,-76 1056.27,-85.86 1061.57,-81.28"/>
</a>
</g>
</g>
<!-- Node25 -->
<g id="Node000025" class="node">
<title>Node25</title>
<g id="a_Node000025"><a xlink:href="pins_8hpp.xhtml" target="_top" xlink:title=" ">
<polygon fill="white" stroke="#666666" points="1228,-129.75 1176,-129.75 1176,-110.5 1228,-110.5 1228,-129.75"/>
<text text-anchor="middle" x="1202" y="-116.25" font-family="Helvetica,sans-Serif" font-size="10.00">pins.hpp</text>
</a>
</g>
</g>
<!-- Node24&#45;&gt;Node25 -->
<g id="edge32_Node000024_Node000025" class="edge">
<title>Node24&#45;&gt;Node25</title>
<g id="a_edge32_Node000024_Node000025"><a xlink:title=" ">
<path fill="none" stroke="#63b8ff" d="M1118.96,-165.34C1134.26,-157.19 1157.03,-145.07 1174.86,-135.58"/>
<polygon fill="#63b8ff" stroke="#63b8ff" points="1176.44,-138.7 1183.62,-130.91 1173.15,-132.52 1176.44,-138.7"/>
</a>
</g>
</g>
<!-- Node25&#45;&gt;Node14 -->
<g id="edge33_Node000025_Node000014" class="edge">
<title>Node25&#45;&gt;Node14</title>
<g id="a_edge33_Node000025_Node000014"><a xlink:title=" ">
<path fill="none" stroke="#63b8ff" d="M1228.43,-114.36C1268.31,-106.04 1336.67,-86.68 1311,-55.25 1288.07,-27.18 1182.01,-16.32 1126.34,-12.49"/>
<polygon fill="#63b8ff" stroke="#63b8ff" points="1126.66,-9.01 1116.46,-11.86 1126.21,-15.99 1126.66,-9.01"/>
</a>
</g>
</g>
<!-- Node26 -->
<g id="Node000026" class="node">
<title>Node26</title>
<g id="a_Node000026"><a xlink:title=" ">
<polygon fill="#e0e0e0" stroke="#999999" points="1301.75,-74.5 1200.25,-74.5 1200.25,-55.25 1301.75,-55.25 1301.75,-74.5"/>
<text text-anchor="middle" x="1251" y="-61" font-family="Helvetica,sans-Serif" font-size="10.00">Adafruit_NeoPixel.h</text>
</a>
</g>
</g>
<!-- Node25&#45;&gt;Node26 -->
<g id="edge34_Node000025_Node000026" class="edge">
<title>Node25&#45;&gt;Node26</title>
<g id="a_edge34_Node000025_Node000026"><a xlink:title=" ">
<path fill="none" stroke="#63b8ff" d="M1210.09,-110.33C1216.86,-102.98 1226.72,-92.26 1235.06,-83.19"/>
<polygon fill="#63b8ff" stroke="#63b8ff" points="1237.51,-85.7 1241.71,-75.97 1232.36,-80.96 1237.51,-85.7"/>
</a>
</g>
</g>
<!-- Node27 -->
<g id="Node000027" class="node">
<title>Node27</title>
<g id="a_Node000027"><a xlink:href="_pins_config_8hpp.xhtml" target="_top" xlink:title=" ">
<polygon fill="white" stroke="#666666" points="1182.25,-74.5 1101.75,-74.5 1101.75,-55.25 1182.25,-55.25 1182.25,-74.5"/>
<text text-anchor="middle" x="1142" y="-61" font-family="Helvetica,sans-Serif" font-size="10.00">PinsConfig.hpp</text>
</a>
</g>
</g>
<!-- Node25&#45;&gt;Node27 -->
<g id="edge35_Node000025_Node000027" class="edge">
<title>Node25&#45;&gt;Node27</title>
<g id="a_edge35_Node000025_Node000027"><a xlink:title=" ">
<path fill="none" stroke="#63b8ff" d="M1191.82,-110.09C1183.24,-102.47 1170.73,-91.37 1160.4,-82.2"/>
<polygon fill="#63b8ff" stroke="#63b8ff" points="1162.96,-79.8 1153.16,-75.78 1158.32,-85.04 1162.96,-79.8"/>
</a>
</g>
</g>
<!-- Node27&#45;&gt;Node14 -->
<g id="edge36_Node000027_Node000014" class="edge">
<title>Node27&#45;&gt;Node14</title>
<g id="a_edge36_Node000027_Node000014"><a xlink:title=" ">
<path fill="none" stroke="#63b8ff" d="M1133.74,-55.08C1126.84,-47.73 1116.78,-37.01 1108.26,-27.94"/>
<polygon fill="#63b8ff" stroke="#63b8ff" points="1110.87,-25.61 1101.47,-20.71 1105.77,-30.4 1110.87,-25.61"/>
</a>
</g>
</g>
<!-- Node27&#45;&gt;Node22 -->
<g id="edge37_Node000027_Node000022" class="edge">
<title>Node27&#45;&gt;Node22</title>
<g id="a_edge37_Node000027_Node000022"><a xlink:title=" ">
<path fill="none" stroke="#63b8ff" d="M1101.39,-56.56C1098.21,-56.09 1095.06,-55.64 1092,-55.25 901.09,-30.85 670,-16.75 588.35,-12.23"/>
<polygon fill="#63b8ff" stroke="#63b8ff" points="588.67,-8.74 578.49,-11.69 588.29,-15.73 588.67,-8.74"/>
</a>
</g>
</g>
<!-- Node28&#45;&gt;Node8 -->
<g id="edge58_Node000028_Node000008" class="edge">
<title>Node28&#45;&gt;Node8</title>
<g id="a_edge58_Node000028_Node000008"><a xlink:title=" ">
<path fill="none" stroke="#63b8ff" d="M718.38,-284.75C632.67,-283.83 417.58,-277.75 358,-240.25 341.75,-230.02 330.98,-210.53 324.76,-195.75"/>
<polygon fill="#63b8ff" stroke="#63b8ff" points="328.1,-194.69 321.26,-186.6 321.56,-197.19 328.1,-194.69"/>
</a>
</g>
</g>
<!-- Node28&#45;&gt;Node14 -->
<g id="edge57_Node000028_Node000014" class="edge">
<title>Node28&#45;&gt;Node14</title>
<g id="a_edge57_Node000028_Node000014"><a xlink:title=" ">
<path fill="none" stroke="#63b8ff" d="M753.33,-276.14C751.22,-241.93 748.49,-116.03 816,-55.25 851.06,-23.68 992.03,-14.32 1057.84,-11.65"/>
<polygon fill="#63b8ff" stroke="#63b8ff" points="1057.84,-15.15 1067.7,-11.28 1057.57,-8.16 1057.84,-15.15"/>
</a>
</g>
</g>
<!-- Node28&#45;&gt;Node15 -->
<g id="edge56_Node000028_Node000015" class="edge">
<title>Node28&#45;&gt;Node15</title>
<g id="a_edge56_Node000028_Node000015"><a xlink:title=" ">
<path fill="none" stroke="#63b8ff" d="M789.64,-278.04C813.05,-271.84 842.78,-260.46 862,-240.25 904,-196.08 917.8,-121.62 922.13,-86.02"/>
<polygon fill="#63b8ff" stroke="#63b8ff" points="925.59,-86.6 923.17,-76.29 918.63,-85.86 925.59,-86.6"/>
</a>
</g>
</g>
<!-- Node28&#45;&gt;Node22 -->
<g id="edge55_Node000028_Node000022" class="edge">
<title>Node28&#45;&gt;Node22</title>
<g id="a_edge55_Node000028_Node000022"><a xlink:title=" ">
<path fill="none" stroke="#63b8ff" d="M718.38,-279.81C679.11,-273.5 614.54,-260.95 562,-240.25 521.8,-224.41 419.99,-169.04 402,-129.75 374.83,-70.41 475.62,-33.19 528.12,-18.2"/>
<polygon fill="#63b8ff" stroke="#63b8ff" points="528.95,-21.6 537.67,-15.58 527.1,-14.85 528.95,-21.6"/>
</a>
</g>
</g>
<!-- Node28&#45;&gt;Node24 -->
<g id="edge49_Node000028_Node000024" class="edge">
<title>Node28&#45;&gt;Node24</title>
<g id="a_edge49_Node000028_Node000024"><a xlink:title=" ">
<path fill="none" stroke="#63b8ff" d="M786.33,-275.78C817.36,-266.97 865.5,-253.09 907,-240.25 961.98,-223.23 1025.22,-202.26 1064.41,-189.09"/>
<polygon fill="#63b8ff" stroke="#63b8ff" points="1065.48,-192.43 1073.84,-185.92 1063.25,-185.79 1065.48,-192.43"/>
</a>
</g>
</g>
<!-- Node28&#45;&gt;Node29 -->
<g id="edge41_Node000028_Node000029" class="edge">
<title>Node28&#45;&gt;Node29</title>
<g id="a_edge41_Node000028_Node000029"><a xlink:title=" ">
<path fill="none" stroke="#63b8ff" d="M764.69,-275.84C773.7,-268.22 786.83,-257.12 797.68,-247.95"/>
<polygon fill="#63b8ff" stroke="#63b8ff" points="799.94,-250.63 805.31,-241.5 795.42,-245.28 799.94,-250.63"/>
</a>
</g>
</g>
<!-- Node30 -->
<g id="Node000030" class="node">
<title>Node30</title>
<g id="a_Node000030"><a xlink:href="_tasks_8hpp.xhtml" target="_top" xlink:title=" ">
<polygon fill="white" stroke="#666666" points="631.5,-240.25 570.5,-240.25 570.5,-221 631.5,-221 631.5,-240.25"/>
<text text-anchor="middle" x="601" y="-226.75" font-family="Helvetica,sans-Serif" font-size="10.00">Tasks.hpp</text>
</a>
</g>
</g>
<!-- Node28&#45;&gt;Node30 -->
<g id="edge50_Node000028_Node000030" class="edge">
<title>Node28&#45;&gt;Node30</title>
<g id="a_edge50_Node000028_Node000030"><a xlink:title=" ">
<path fill="none" stroke="#63b8ff" d="M728.05,-275.84C703.21,-267.2 665.5,-254.07 637.62,-244.37"/>
<polygon fill="#63b8ff" stroke="#63b8ff" points="639.11,-241.18 628.51,-241.2 636.81,-247.79 639.11,-241.18"/>
</a>
</g>
</g>
<!-- Node29&#45;&gt;Node6 -->
<g id="edge48_Node000029_Node000006" class="edge">
<title>Node29&#45;&gt;Node6</title>
<g id="a_edge48_Node000029_Node000006"><a xlink:title=" ">
<path fill="none" stroke="#63b8ff" d="M823.63,-220.54C829.63,-211.85 838.24,-198.15 843,-185 855.09,-151.57 859.94,-110.17 861.83,-86.02"/>
<polygon fill="#63b8ff" stroke="#63b8ff" points="865.31,-86.54 862.49,-76.33 858.32,-86.07 865.31,-86.54"/>
</a>
</g>
</g>
<!-- Node29&#45;&gt;Node9 -->
<g id="edge43_Node000029_Node000009" class="edge">
<title>Node29&#45;&gt;Node9</title>
<g id="a_edge43_Node000029_Node000009"><a xlink:title=" ">
<path fill="none" stroke="#63b8ff" d="M780.75,-223.52C720.44,-213.35 600.08,-193.07 538.77,-182.74"/>
<polygon fill="#63b8ff" stroke="#63b8ff" points="539.62,-179.33 529.18,-181.12 538.46,-186.24 539.62,-179.33"/>
</a>
</g>
</g>
<!-- Node29&#45;&gt;Node10 -->
<g id="edge47_Node000029_Node000010" class="edge">
<title>Node29&#45;&gt;Node10</title>
<g id="a_edge47_Node000029_Node000010"><a xlink:title=" ">
<path fill="none" stroke="#63b8ff" d="M803.97,-220.56C777.29,-202.01 716.19,-159.51 683.16,-136.54"/>
<polygon fill="#63b8ff" stroke="#63b8ff" points="685.34,-133.79 675.13,-130.95 681.34,-139.53 685.34,-133.79"/>
</a>
</g>
</g>
<!-- Node29&#45;&gt;Node12 -->
<g id="edge42_Node000029_Node000012" class="edge">
<title>Node29&#45;&gt;Node12</title>
<g id="a_edge42_Node000029_Node000012"><a xlink:title=" ">
<path fill="none" stroke="#63b8ff" d="M797.95,-220.56C758.14,-201.61 665.86,-157.7 618.39,-135.11"/>
<polygon fill="#63b8ff" stroke="#63b8ff" points="620.05,-132.03 609.52,-130.89 617.05,-138.35 620.05,-132.03"/>
</a>
</g>
</g>
<!-- Node29&#45;&gt;Node13 -->
<g id="edge44_Node000029_Node000013" class="edge">
<title>Node29&#45;&gt;Node13</title>
<g id="a_edge44_Node000029_Node000013"><a xlink:title=" ">
<path fill="none" stroke="#63b8ff" d="M829.76,-220.75C842.68,-211.75 863.24,-197.42 881,-185 904.49,-168.57 931.35,-149.71 949.76,-136.76"/>
<polygon fill="#63b8ff" stroke="#63b8ff" points="951.64,-139.72 957.81,-131.1 947.62,-133.99 951.64,-139.72"/>
</a>
</g>
</g>
<!-- Node29&#45;&gt;Node14 -->
<g id="edge46_Node000029_Node000014" class="edge">
<title>Node29&#45;&gt;Node14</title>
<g id="a_edge46_Node000029_Node000014"><a xlink:title=" ">
<path fill="none" stroke="#63b8ff" d="M814.55,-220.54C807.42,-191.92 789.92,-102.73 834,-55.25 863.78,-23.17 994.77,-14.1 1057.83,-11.58"/>
<polygon fill="#63b8ff" stroke="#63b8ff" points="1057.76,-15.08 1067.62,-11.22 1057.5,-8.09 1057.76,-15.08"/>
</a>
</g>
</g>
<!-- Node29&#45;&gt;Node22 -->
<g id="edge45_Node000029_Node000022" class="edge">
<title>Node29&#45;&gt;Node22</title>
<g id="a_edge45_Node000029_Node000022"><a xlink:title=" ">
<path fill="none" stroke="#63b8ff" d="M808.34,-220.91C796.08,-208.57 772.92,-185.34 753,-165.75 727.85,-141.01 723.03,-133.18 696,-110.5 657.46,-78.16 609.21,-44.7 581.16,-25.89"/>
<polygon fill="#63b8ff" stroke="#63b8ff" points="583.32,-23.12 573.06,-20.49 579.44,-28.95 583.32,-23.12"/>
</a>
</g>
</g>
<!-- Node30&#45;&gt;Node4 -->
<g id="edge52_Node000030_Node000004" class="edge">
<title>Node30&#45;&gt;Node4</title>
<g id="a_edge52_Node000030_Node000004"><a xlink:title=" ">
<path fill="none" stroke="#63b8ff" d="M570.32,-221.88C533.33,-212.55 471.08,-196.84 430.26,-186.54"/>
<polygon fill="#63b8ff" stroke="#63b8ff" points="431.38,-183.21 420.83,-184.15 429.66,-190 431.38,-183.21"/>
</a>
</g>
</g>
<!-- Node30&#45;&gt;Node12 -->
<g id="edge53_Node000030_Node000012" class="edge">
<title>Node30&#45;&gt;Node12</title>
<g id="a_edge53_Node000030_Node000012"><a xlink:title=" ">
<path fill="none" stroke="#63b8ff" d="M593.6,-220.75C586.99,-212.2 577.8,-198.61 574,-185 569.83,-170.05 574.35,-152.91 579.49,-140.16"/>
<polygon fill="#63b8ff" stroke="#63b8ff" points="582.59,-141.79 583.53,-131.24 576.21,-138.91 582.59,-141.79"/>
</a>
</g>
</g>
<!-- Node30&#45;&gt;Node15 -->
<g id="edge51_Node000030_Node000015" class="edge">
<title>Node30&#45;&gt;Node15</title>
<g id="a_edge51_Node000030_Node000015"><a xlink:title=" ">
<path fill="none" stroke="#63b8ff" d="M618.83,-220.59C672.32,-193.47 831.75,-112.64 896.36,-79.89"/>
<polygon fill="#63b8ff" stroke="#63b8ff" points="897.54,-83.21 904.88,-75.57 894.38,-76.97 897.54,-83.21"/>
</a>
</g>
</g>
<!-- Node31 -->
<g id="Node000031" class="node">
<title>Node31</title>
<g id="a_Node000031"><a xlink:title=" ">
<polygon fill="#e0e0e0" stroke="#999999" points="611.4,-185 582.6,-185 582.6,-165.75 611.4,-165.75 611.4,-185"/>
<text text-anchor="middle" x="597" y="-171.5" font-family="Helvetica,sans-Serif" font-size="10.00">list</text>
</a>
</g>
</g>
<!-- Node30&#45;&gt;Node31 -->
<g id="edge54_Node000030_Node000031" class="edge">
<title>Node30&#45;&gt;Node31</title>
<g id="a_edge54_Node000030_Node000031"><a xlink:title=" ">
<path fill="none" stroke="#63b8ff" d="M600.34,-220.83C599.84,-214.24 599.15,-204.96 598.52,-196.57"/>
<polygon fill="#63b8ff" stroke="#63b8ff" points="602.03,-196.58 597.79,-186.87 595.05,-197.1 602.03,-196.58"/>
</a>
</g>
</g>
</g>
</svg>

<g id="navigator" transform="translate(0 0)" fill="#404254">
  <rect fill="#f2f5e9" fill-opacity="0.5" stroke="#606060" stroke-width=".5" x="0" y="0" width="60" height="60"/>
  <use id="zoomplus" xlink:href="#zoomPlus" x="17" y="9" onmousedown="handleZoom(evt,'in')"/>
  <use id="zoomminus" xlink:href="#zoomMin" x="42" y="9" onmousedown="handleZoom(evt,'out')"/>
  <use id="reset" xlink:href="#resetDef" x="30" y="36" onmousedown="handleReset()"/>
   <use id="arrowup" xlink:href="#arrowUp" x="0" y="0" onmousedown="handlePan(0,-1)"/>
  <use id="arrowright" xlink:href="#arrowRight" x="0" y="0" onmousedown="handlePan(1,0)"/>
  <use id="arrowdown" xlink:href="#arrowDown" x="0" y="0" onmousedown="handlePan(0,1)"/>
  <use id="arrowleft" xlink:href="#arrowLeft" x="0" y="0" onmousedown="handlePan(-1,0)"/>
</g>
<svg viewBox="0 0 15 15" width="100%" height="30px" preserveAspectRatio="xMaxYMin meet">
 <g id="arrow_out" transform="scale(0.3 0.3)">
  <a xlink:href="_mock_m_q_t_t_broker_8cpp__incl_org.svg" target="_base">
   <rect id="button" ry="5" rx="5" y="6" x="6" height="38" width="38"
        fill="#f2f5e9" fill-opacity="0.5" stroke="#606060" stroke-width="1.0"/>
   <path id="arrow"
     d="M 11.500037,31.436501 C 11.940474,20.09759 22.043105,11.32322 32.158766,21.979434 L 37.068811,17.246167 C 37.068811,17.246167 37.088388,32 37.088388,32 L 22.160133,31.978069 C 22.160133,31.978069 26.997745,27.140456 26.997745,27.140456 C 18.528582,18.264221 13.291696,25.230495 11.500037,31.436501 z"
     style="fill:#404040;"/>
  </a>
 </g>
</svg>

<style type='text/css'>
<![CDATA[
[data-mouse-over-selected='false'] { opacity: 0.7; }
[data-mouse-over-selected='true']  { opacity: 1.0; }
]]>
</style>
<script type="application/ecmascript"><![CDATA[
document.addEventListener('DOMContentLoaded', (event) => {
  highlightEdges();
  highlightAdjacentNodes();
});
]]></script>
</svg>
