<?xml version="1.0" encoding="UTF-8" standalone="no"?>
<!DOCTYPE svg PUBLIC "-//W3C//DTD SVG 1.1//EN"
 "http://www.w3.org/Graphics/SVG/1.1/DTD/svg11.dtd">
<!-- Generated by graphviz version 9.0.0 (20230911.1827)
 -->
<!-- Title: MockMQTTBroker.cpp Pages: 1 -->
<svg width="751pt" height="359pt"
 viewBox="0.00 0.00 751.25 358.75" xmlns="http://www.w3.org/2000/svg" xmlns:xlink="http://www.w3.org/1999/xlink">
<g id="graph0" class="graph" transform="scale(1 1) rotate(0) translate(4 354.75)">
<title>MockMQTTBroker.cpp</title>
<!-- Node1 -->
<g id="Node000001" class="node">
<title>Node1</title>
<g id="a_Node000001"><a xlink:title=" ">
<polygon fill="#999999" stroke="#666666" points="610.62,-350.75 496.38,-350.75 496.38,-331.5 610.62,-331.5 610.62,-350.75"/>
<text text-anchor="middle" x="553.5" y="-337.25" font-family="Helvetica,sans-Serif" font-size="10.00">MockMQTTBroker.cpp</text>
</a>
</g>
</g>
<!-- Node2 -->
<g id="Node000002" class="node">
<title>Node2</title>
<g id="a_Node000002"><a xlink:href="_mock_m_q_t_t_broker_8hpp.xhtml" target="_top" xlink:title=" ">
<polygon fill="white" stroke="#666666" points="320.12,-295.5 178.88,-295.5 178.88,-276.25 320.12,-276.25 320.12,-295.5"/>
<text text-anchor="middle" x="249.5" y="-282" font-family="Helvetica,sans-Serif" font-size="10.00">mock/MockMQTTBroker.hpp</text>
</a>
</g>
</g>
<!-- Node1&#45;&gt;Node2 -->
<g id="edge1_Node000001_Node000002" class="edge">
<title>Node1&#45;&gt;Node2</title>
<g id="a_edge1_Node000001_Node000002"><a xlink:title=" ">
<path fill="none" stroke="#63b8ff" d="M501.59,-331.03C449.31,-321.87 368.6,-307.74 312.65,-297.94"/>
<polygon fill="#63b8ff" stroke="#63b8ff" points="313.4,-294.51 302.94,-296.24 312.19,-301.41 313.4,-294.51"/>
</a>
</g>
</g>
<!-- Node13 -->
<g id="Node000013" class="node">
<title>Node13</title>
<g id="a_Node000013"><a xlink:href="conf_8hpp.xhtml" target="_top" xlink:title=" ">
<polygon fill="white" stroke="#666666" points="541.88,-129.75 489.12,-129.75 489.12,-110.5 541.88,-110.5 541.88,-129.75"/>
<text text-anchor="middle" x="515.5" y="-116.25" font-family="Helvetica,sans-Serif" font-size="10.00">conf.hpp</text>
</a>
</g>
</g>
<!-- Node1&#45;&gt;Node13 -->
<g id="edge22_Node000001_Node000013" class="edge">
<title>Node1&#45;&gt;Node13</title>
<g id="a_edge22_Node000001_Node000013"><a xlink:title=" ">
<path fill="none" stroke="#63b8ff" d="M550.15,-331.02C546.98,-322.08 542.3,-308.02 539.5,-295.5 527.12,-240.22 520.08,-173.55 517.14,-140.99"/>
<polygon fill="#63b8ff" stroke="#63b8ff" points="520.67,-141.1 516.32,-131.43 513.69,-141.7 520.67,-141.1"/>
</a>
</g>
</g>
<!-- Node17 -->
<g id="Node000017" class="node">
<title>Node17</title>
<g id="a_Node000017"><a xlink:href="_logging_8hpp.xhtml" target="_top" xlink:title=" ">
<polygon fill="white" stroke="#666666" points="628.75,-129.75 560.25,-129.75 560.25,-110.5 628.75,-110.5 628.75,-129.75"/>
<text text-anchor="middle" x="594.5" y="-116.25" font-family="Helvetica,sans-Serif" font-size="10.00">Logging.hpp</text>
</a>
</g>
</g>
<!-- Node1&#45;&gt;Node17 -->
<g id="edge21_Node000001_Node000017" class="edge">
<title>Node1&#45;&gt;Node17</title>
<g id="a_edge21_Node000001_Node000017"><a xlink:title=" ">
<path fill="none" stroke="#63b8ff" d="M555.16,-331.27C561.21,-298.94 582.21,-186.78 590.8,-140.91"/>
<polygon fill="#63b8ff" stroke="#63b8ff" points="594.19,-141.81 592.59,-131.34 587.31,-140.52 594.19,-141.81"/>
</a>
</g>
</g>
<!-- Node20 -->
<g id="Node000020" class="node">
<title>Node20</title>
<g id="a_Node000020"><a xlink:title=" ">
<polygon fill="#e0e0e0" stroke="#999999" points="647.62,-295.5 581.38,-295.5 581.38,-276.25 647.62,-276.25 647.62,-295.5"/>
<text text-anchor="middle" x="614.5" y="-282" font-family="Helvetica,sans-Serif" font-size="10.00">secrets.hpp</text>
</a>
</g>
</g>
<!-- Node1&#45;&gt;Node20 -->
<g id="edge23_Node000001_Node000020" class="edge">
<title>Node1&#45;&gt;Node20</title>
<g id="a_edge23_Node000001_Node000020"><a xlink:title=" ">
<path fill="none" stroke="#63b8ff" d="M563.85,-331.09C572.58,-323.47 585.29,-312.37 595.8,-303.2"/>
<polygon fill="#63b8ff" stroke="#63b8ff" points="597.93,-305.98 603.16,-296.77 593.33,-300.71 597.93,-305.98"/>
</a>
</g>
</g>
<!-- Node21 -->
<g id="Node000021" class="node">
<title>Node21</title>
<g id="a_Node000021"><a xlink:title=" ">
<polygon fill="#e0e0e0" stroke="#999999" points="743.25,-295.5 665.75,-295.5 665.75,-276.25 743.25,-276.25 743.25,-295.5"/>
<text text-anchor="middle" x="704.5" y="-282" font-family="Helvetica,sans-Serif" font-size="10.00">ArduinoJson.h</text>
</a>
</g>
</g>
<!-- Node1&#45;&gt;Node21 -->
<g id="edge24_Node000001_Node000021" class="edge">
<title>Node1&#45;&gt;Node21</title>
<g id="a_edge24_Node000001_Node000021"><a xlink:title=" ">
<path fill="none" stroke="#63b8ff" d="M579.12,-331.09C603.52,-322.49 640.51,-309.44 668,-299.75"/>
<polygon fill="#63b8ff" stroke="#63b8ff" points="669.07,-303.08 677.33,-296.46 666.74,-296.48 669.07,-303.08"/>
</a>
</g>
</g>
<!-- Node3 -->
<g id="Node000003" class="node">
<title>Node3</title>
<g id="a_Node000003"><a xlink:title=" ">
<polygon fill="#e0e0e0" stroke="#999999" points="319.62,-240.25 277.38,-240.25 277.38,-221 319.62,-221 319.62,-240.25"/>
<text text-anchor="middle" x="298.5" y="-226.75" font-family="Helvetica,sans-Serif" font-size="10.00">mutex</text>
</a>
</g>
</g>
<!-- Node2&#45;&gt;Node3 -->
<g id="edge2_Node000002_Node000003" class="edge">
<title>Node2&#45;&gt;Node3</title>
<g id="a_edge2_Node000002_Node000003"><a xlink:title=" ">
<path fill="none" stroke="#63b8ff" d="M257.59,-276.08C264.36,-268.73 274.22,-258.01 282.56,-248.94"/>
<polygon fill="#63b8ff" stroke="#63b8ff" points="285.01,-251.45 289.21,-241.72 279.86,-246.71 285.01,-251.45"/>
</a>
</g>
</g>
<!-- Node4 -->
<g id="Node000004" class="node">
<title>Node4</title>
<g id="a_Node000004"><a xlink:title=" ">
<polygon fill="#e0e0e0" stroke="#999999" points="161.5,-240.25 103.5,-240.25 103.5,-221 161.5,-221 161.5,-240.25"/>
<text text-anchor="middle" x="132.5" y="-226.75" font-family="Helvetica,sans-Serif" font-size="10.00">functional</text>
</a>
</g>
</g>
<!-- Node2&#45;&gt;Node4 -->
<g id="edge3_Node000002_Node000004" class="edge">
<title>Node2&#45;&gt;Node4</title>
<g id="a_edge3_Node000002_Node000004"><a xlink:title=" ">
<path fill="none" stroke="#63b8ff" d="M229.65,-275.84C211.33,-267.5 183.85,-255 162.79,-245.41"/>
<polygon fill="#63b8ff" stroke="#63b8ff" points="164.37,-242.29 153.82,-241.33 161.47,-248.66 164.37,-242.29"/>
</a>
</g>
</g>
<!-- Node5 -->
<g id="Node000005" class="node">
<title>Node5</title>
<g id="a_Node000005"><a xlink:title=" ">
<polygon fill="#e0e0e0" stroke="#999999" points="221.62,-240.25 179.38,-240.25 179.38,-221 221.62,-221 221.62,-240.25"/>
<text text-anchor="middle" x="200.5" y="-226.75" font-family="Helvetica,sans-Serif" font-size="10.00">queue</text>
</a>
</g>
</g>
<!-- Node2&#45;&gt;Node5 -->
<g id="edge4_Node000002_Node000005" class="edge">
<title>Node2&#45;&gt;Node5</title>
<g id="a_edge4_Node000002_Node000005"><a xlink:title=" ">
<path fill="none" stroke="#63b8ff" d="M241.41,-276.08C234.64,-268.73 224.78,-258.01 216.44,-248.94"/>
<polygon fill="#63b8ff" stroke="#63b8ff" points="219.14,-246.71 209.79,-241.72 213.99,-251.45 219.14,-246.71"/>
</a>
</g>
</g>
<!-- Node6 -->
<g id="Node000006" class="node">
<title>Node6</title>
<g id="a_Node000006"><a xlink:title=" ">
<polygon fill="#e0e0e0" stroke="#999999" points="331.5,-74.5 291.5,-74.5 291.5,-55.25 331.5,-55.25 331.5,-74.5"/>
<text text-anchor="middle" x="311.5" y="-61" font-family="Helvetica,sans-Serif" font-size="10.00">string</text>
</a>
</g>
</g>
<!-- Node2&#45;&gt;Node6 -->
<g id="edge5_Node000002_Node000006" class="edge">
<title>Node2&#45;&gt;Node6</title>
<g id="a_edge5_Node000002_Node000006"><a xlink:title=" ">
<path fill="none" stroke="#63b8ff" d="M248.53,-276C246.02,-249.42 241.27,-168.7 268.5,-110.5 273.52,-99.77 282.19,-90.01 290.42,-82.37"/>
<polygon fill="#63b8ff" stroke="#63b8ff" points="292.57,-85.14 297.86,-75.96 288,-79.84 292.57,-85.14"/>
</a>
</g>
</g>
<!-- Node7 -->
<g id="Node000007" class="node">
<title>Node7</title>
<g id="a_Node000007"><a xlink:href="_base_rfid_wrapper_8hpp.xhtml" target="_top" xlink:title=" ">
<polygon fill="white" stroke="#666666" points="447,-240.25 338,-240.25 338,-221 447,-221 447,-240.25"/>
<text text-anchor="middle" x="392.5" y="-226.75" font-family="Helvetica,sans-Serif" font-size="10.00">BaseRfidWrapper.hpp</text>
</a>
</g>
</g>
<!-- Node2&#45;&gt;Node7 -->
<g id="edge6_Node000002_Node000007" class="edge">
<title>Node2&#45;&gt;Node7</title>
<g id="a_edge6_Node000002_Node000007"><a xlink:title=" ">
<path fill="none" stroke="#63b8ff" d="M273.76,-275.84C296.77,-267.27 331.59,-254.31 357.58,-244.63"/>
<polygon fill="#63b8ff" stroke="#63b8ff" points="358.55,-248 366.7,-241.23 356.11,-241.44 358.55,-248"/>
</a>
</g>
</g>
<!-- Node19 -->
<g id="Node000019" class="node">
<title>Node19</title>
<g id="a_Node000019"><a xlink:title=" ">
<polygon fill="#e0e0e0" stroke="#999999" points="85,-240.25 0,-240.25 0,-221 85,-221 85,-240.25"/>
<text text-anchor="middle" x="42.5" y="-226.75" font-family="Helvetica,sans-Serif" font-size="10.00">sMQTTBroker.h</text>
</a>
</g>
</g>
<!-- Node2&#45;&gt;Node19 -->
<g id="edge20_Node000002_Node000019" class="edge">
<title>Node2&#45;&gt;Node19</title>
<g id="a_edge20_Node000002_Node000019"><a xlink:title=" ">
<path fill="none" stroke="#63b8ff" d="M214.39,-275.84C179.74,-266.93 126.59,-253.26 88.57,-243.48"/>
<polygon fill="#63b8ff" stroke="#63b8ff" points="89.81,-240.18 79.25,-241.08 88.07,-246.96 89.81,-240.18"/>
</a>
</g>
</g>
<!-- Node8 -->
<g id="Node000008" class="node">
<title>Node8</title>
<g id="a_Node000008"><a xlink:title=" ">
<polygon fill="#e0e0e0" stroke="#999999" points="401.38,-185 351.62,-185 351.62,-165.75 401.38,-165.75 401.38,-185"/>
<text text-anchor="middle" x="376.5" y="-171.5" font-family="Helvetica,sans-Serif" font-size="10.00">optional</text>
</a>
</g>
</g>
<!-- Node7&#45;&gt;Node8 -->
<g id="edge7_Node000007_Node000008" class="edge">
<title>Node7&#45;&gt;Node8</title>
<g id="a_edge7_Node000007_Node000008"><a xlink:title=" ">
<path fill="none" stroke="#63b8ff" d="M389.86,-220.83C387.86,-214.17 385.02,-204.74 382.48,-196.28"/>
<polygon fill="#63b8ff" stroke="#63b8ff" points="385.86,-195.38 379.64,-186.81 379.16,-197.39 385.86,-195.38"/>
</a>
</g>
</g>
<!-- Node9 -->
<g id="Node000009" class="node">
<title>Node9</title>
<g id="a_Node000009"><a xlink:href="card_8hpp.xhtml" target="_top" xlink:title=" ">
<polygon fill="white" stroke="#666666" points="471.88,-185 419.12,-185 419.12,-165.75 471.88,-165.75 471.88,-185"/>
<text text-anchor="middle" x="445.5" y="-171.5" font-family="Helvetica,sans-Serif" font-size="10.00">card.hpp</text>
</a>
</g>
</g>
<!-- Node7&#45;&gt;Node9 -->
<g id="edge8_Node000007_Node000009" class="edge">
<title>Node7&#45;&gt;Node9</title>
<g id="a_edge8_Node000007_Node000009"><a xlink:title=" ">
<path fill="none" stroke="#63b8ff" d="M401.25,-220.83C408.65,-213.4 419.46,-202.54 428.55,-193.41"/>
<polygon fill="#63b8ff" stroke="#63b8ff" points="430.92,-195.99 435.49,-186.43 425.96,-191.05 430.92,-195.99"/>
</a>
</g>
</g>
<!-- Node10 -->
<g id="Node000010" class="node">
<title>Node10</title>
<g id="a_Node000010"><a xlink:title=" ">
<polygon fill="#e0e0e0" stroke="#999999" points="471.12,-129.75 419.88,-129.75 419.88,-110.5 471.12,-110.5 471.12,-129.75"/>
<text text-anchor="middle" x="445.5" y="-116.25" font-family="Helvetica,sans-Serif" font-size="10.00">sstream</text>
</a>
</g>
</g>
<!-- Node9&#45;&gt;Node10 -->
<g id="edge9_Node000009_Node000010" class="edge">
<title>Node9&#45;&gt;Node10</title>
<g id="a_edge9_Node000009_Node000010"><a xlink:title=" ">
<path fill="none" stroke="#63b8ff" d="M445.5,-165.58C445.5,-159.07 445.5,-149.92 445.5,-141.62"/>
<polygon fill="#63b8ff" stroke="#63b8ff" points="449,-141.62 445.5,-131.62 442,-141.62 449,-141.62"/>
</a>
</g>
</g>
<!-- Node11 -->
<g id="Node000011" class="node">
<title>Node11</title>
<g id="a_Node000011"><a xlink:title=" ">
<polygon fill="#e0e0e0" stroke="#999999" points="327.38,-129.75 277.62,-129.75 277.62,-110.5 327.38,-110.5 327.38,-129.75"/>
<text text-anchor="middle" x="302.5" y="-116.25" font-family="Helvetica,sans-Serif" font-size="10.00">iomanip</text>
</a>
</g>
</g>
<!-- Node9&#45;&gt;Node11 -->
<g id="edge10_Node000009_Node000011" class="edge">
<title>Node9&#45;&gt;Node11</title>
<g id="a_edge10_Node000009_Node000011"><a xlink:title=" ">
<path fill="none" stroke="#63b8ff" d="M421.24,-165.34C398.23,-156.77 363.41,-143.81 337.42,-134.13"/>
<polygon fill="#63b8ff" stroke="#63b8ff" points="338.89,-130.94 328.3,-130.73 336.45,-137.5 338.89,-130.94"/>
</a>
</g>
</g>
<!-- Node12 -->
<g id="Node000012" class="node">
<title>Node12</title>
<g id="a_Node000012"><a xlink:title=" ">
<polygon fill="#e0e0e0" stroke="#999999" points="401.75,-129.75 345.25,-129.75 345.25,-110.5 401.75,-110.5 401.75,-129.75"/>
<text text-anchor="middle" x="373.5" y="-116.25" font-family="Helvetica,sans-Serif" font-size="10.00">Arduino.h</text>
</a>
</g>
</g>
<!-- Node9&#45;&gt;Node12 -->
<g id="edge11_Node000009_Node000012" class="edge">
<title>Node9&#45;&gt;Node12</title>
<g id="a_edge11_Node000009_Node000012"><a xlink:title=" ">
<path fill="none" stroke="#63b8ff" d="M433.29,-165.34C422.67,-157.49 407.06,-145.95 394.46,-136.62"/>
<polygon fill="#63b8ff" stroke="#63b8ff" points="396.87,-134.06 386.75,-130.92 392.71,-139.69 396.87,-134.06"/>
</a>
</g>
</g>
<!-- Node9&#45;&gt;Node13 -->
<g id="edge12_Node000009_Node000013" class="edge">
<title>Node9&#45;&gt;Node13</title>
<g id="a_edge12_Node000009_Node000013"><a xlink:title=" ">
<path fill="none" stroke="#63b8ff" d="M457.37,-165.34C467.59,-157.57 482.57,-146.17 494.76,-136.9"/>
<polygon fill="#63b8ff" stroke="#63b8ff" points="496.76,-139.78 502.6,-130.94 492.52,-134.21 496.76,-139.78"/>
</a>
</g>
</g>
<!-- Node9&#45;&gt;Node17 -->
<g id="edge18_Node000009_Node000017" class="edge">
<title>Node9&#45;&gt;Node17</title>
<g id="a_edge18_Node000009_Node000017"><a xlink:title=" ">
<path fill="none" stroke="#63b8ff" d="M470.78,-165.34C494.86,-156.74 531.36,-143.69 558.48,-134"/>
<polygon fill="#63b8ff" stroke="#63b8ff" points="559.44,-137.37 567.67,-130.71 557.08,-130.78 559.44,-137.37"/>
</a>
</g>
</g>
<!-- Node13&#45;&gt;Node6 -->
<g id="edge14_Node000013_Node000006" class="edge">
<title>Node13&#45;&gt;Node6</title>
<g id="a_edge14_Node000013_Node000006"><a xlink:title=" ">
<path fill="none" stroke="#63b8ff" d="M488.83,-112.16C451.18,-102.34 382.6,-84.43 342.66,-74.01"/>
<polygon fill="#63b8ff" stroke="#63b8ff" points="343.75,-70.67 333.19,-71.54 341.98,-77.45 343.75,-70.67"/>
</a>
</g>
</g>
<!-- Node14 -->
<g id="Node000014" class="node">
<title>Node14</title>
<g id="a_Node000014"><a xlink:title=" ">
<polygon fill="#e0e0e0" stroke="#999999" points="549.12,-19.25 503.88,-19.25 503.88,0 549.12,0 549.12,-19.25"/>
<text text-anchor="middle" x="526.5" y="-5.75" font-family="Helvetica,sans-Serif" font-size="10.00">cstdint</text>
</a>
</g>
</g>
<!-- Node13&#45;&gt;Node14 -->
<g id="edge13_Node000013_Node000014" class="edge">
<title>Node13&#45;&gt;Node14</title>
<g id="a_edge13_Node000013_Node000014"><a xlink:title=" ">
<path fill="none" stroke="#63b8ff" d="M522.63,-110.2C529,-101.62 537.85,-88 541.5,-74.5 545.55,-59.51 541.03,-42.38 535.93,-29.63"/>
<polygon fill="#63b8ff" stroke="#63b8ff" points="539.22,-28.41 531.92,-20.73 532.83,-31.29 539.22,-28.41"/>
</a>
</g>
</g>
<!-- Node15 -->
<g id="Node000015" class="node">
<title>Node15</title>
<g id="a_Node000015"><a xlink:title=" ">
<polygon fill="#e0e0e0" stroke="#999999" points="434.12,-74.5 388.88,-74.5 388.88,-55.25 434.12,-55.25 434.12,-74.5"/>
<text text-anchor="middle" x="411.5" y="-61" font-family="Helvetica,sans-Serif" font-size="10.00">chrono</text>
</a>
</g>
</g>
<!-- Node13&#45;&gt;Node15 -->
<g id="edge15_Node000013_Node000015" class="edge">
<title>Node13&#45;&gt;Node15</title>
<g id="a_edge15_Node000013_Node000015"><a xlink:title=" ">
<path fill="none" stroke="#63b8ff" d="M497.86,-110.09C481.87,-101.91 458.04,-89.71 439.46,-80.19"/>
<polygon fill="#63b8ff" stroke="#63b8ff" points="441.07,-77.08 430.58,-75.64 437.88,-83.32 441.07,-77.08"/>
</a>
</g>
</g>
<!-- Node16 -->
<g id="Node000016" class="node">
<title>Node16</title>
<g id="a_Node000016"><a xlink:href="_machine_i_d_8hpp.xhtml" target="_top" xlink:title=" ">
<polygon fill="white" stroke="#666666" points="532.75,-74.5 452.25,-74.5 452.25,-55.25 532.75,-55.25 532.75,-74.5"/>
<text text-anchor="middle" x="492.5" y="-61" font-family="Helvetica,sans-Serif" font-size="10.00">MachineID.hpp</text>
</a>
</g>
</g>
<!-- Node13&#45;&gt;Node16 -->
<g id="edge16_Node000013_Node000016" class="edge">
<title>Node13&#45;&gt;Node16</title>
<g id="a_edge16_Node000013_Node000016"><a xlink:title=" ">
<path fill="none" stroke="#63b8ff" d="M511.7,-110.33C508.76,-103.51 504.56,-93.81 500.85,-85.2"/>
<polygon fill="#63b8ff" stroke="#63b8ff" points="504.16,-84.04 496.98,-76.25 497.73,-86.82 504.16,-84.04"/>
</a>
</g>
</g>
<!-- Node16&#45;&gt;Node14 -->
<g id="edge17_Node000016_Node000014" class="edge">
<title>Node16&#45;&gt;Node14</title>
<g id="a_edge17_Node000016_Node000014"><a xlink:title=" ">
<path fill="none" stroke="#63b8ff" d="M498.11,-55.08C502.62,-48.03 509.09,-37.9 514.71,-29.08"/>
<polygon fill="#63b8ff" stroke="#63b8ff" points="517.52,-31.2 519.95,-20.88 511.62,-27.43 517.52,-31.2"/>
</a>
</g>
</g>
<!-- Node18 -->
<g id="Node000018" class="node">
<title>Node18</title>
<g id="a_Node000018"><a xlink:title=" ">
<polygon fill="#e0e0e0" stroke="#999999" points="646.12,-74.5 588.88,-74.5 588.88,-55.25 646.12,-55.25 646.12,-74.5"/>
<text text-anchor="middle" x="617.5" y="-61" font-family="Helvetica,sans-Serif" font-size="10.00">esp_log.h</text>
</a>
</g>
</g>
<!-- Node17&#45;&gt;Node18 -->
<g id="edge19_Node000017_Node000018" class="edge">
<title>Node17&#45;&gt;Node18</title>
<g id="a_edge19_Node000017_Node000018"><a xlink:title=" ">
<path fill="none" stroke="#63b8ff" d="M598.3,-110.33C601.24,-103.51 605.44,-93.81 609.15,-85.2"/>
<polygon fill="#63b8ff" stroke="#63b8ff" points="612.27,-86.82 613.02,-76.25 605.84,-84.04 612.27,-86.82"/>
</a>
</g>
</g>
</g>
</svg>
