<?xml version="1.0" encoding="UTF-8" standalone="no"?>
<!DOCTYPE svg PUBLIC "-//W3C//DTD SVG 1.1//EN"
 "http://www.w3.org/Graphics/SVG/1.1/DTD/svg11.dtd">
<!-- Generated by graphviz version 9.0.0 (20230911.1827)
 -->
<!-- Title: MockMQTTBroker.hpp Pages: 1 -->
<svg width="637pt" height="304pt"
 viewBox="0.00 0.00 636.75 303.50" xmlns="http://www.w3.org/2000/svg" xmlns:xlink="http://www.w3.org/1999/xlink">
<g id="graph0" class="graph" transform="scale(1 1) rotate(0) translate(4 299.5)">
<title>MockMQTTBroker.hpp</title>
<!-- Node1 -->
<g id="Node000001" class="node">
<title>Node1</title>
<g id="a_Node000001"><a xlink:title=" ">
<polygon fill="#999999" stroke="#666666" points="238.25,-295.5 124,-295.5 124,-276.25 238.25,-276.25 238.25,-295.5"/>
<text text-anchor="middle" x="181.12" y="-282" font-family="Helvetica,sans-Serif" font-size="10.00">MockMQTTBroker.hpp</text>
</a>
</g>
</g>
<!-- Node2 -->
<g id="Node000002" class="node">
<title>Node2</title>
<g id="a_Node000002"><a xlink:title=" ">
<polygon fill="#e0e0e0" stroke="#999999" points="42.25,-240.25 0,-240.25 0,-221 42.25,-221 42.25,-240.25"/>
<text text-anchor="middle" x="21.12" y="-226.75" font-family="Helvetica,sans-Serif" font-size="10.00">mutex</text>
</a>
</g>
</g>
<!-- Node1&#45;&gt;Node2 -->
<g id="edge1_Node000001_Node000002" class="edge">
<title>Node1&#45;&gt;Node2</title>
<g id="a_edge1_Node000001_Node000002"><a xlink:title=" ">
<path fill="none" stroke="#63b8ff" d="M153.98,-275.84C126.15,-266.58 82.88,-252.18 53.34,-242.35"/>
<polygon fill="#63b8ff" stroke="#63b8ff" points="54.77,-239.14 44.18,-239.3 52.56,-245.78 54.77,-239.14"/>
</a>
</g>
</g>
<!-- Node3 -->
<g id="Node000003" class="node">
<title>Node3</title>
<g id="a_Node000003"><a xlink:title=" ">
<polygon fill="#e0e0e0" stroke="#999999" points="118.12,-240.25 60.12,-240.25 60.12,-221 118.12,-221 118.12,-240.25"/>
<text text-anchor="middle" x="89.12" y="-226.75" font-family="Helvetica,sans-Serif" font-size="10.00">functional</text>
</a>
</g>
</g>
<!-- Node1&#45;&gt;Node3 -->
<g id="edge2_Node000001_Node000003" class="edge">
<title>Node1&#45;&gt;Node3</title>
<g id="a_edge2_Node000001_Node000003"><a xlink:title=" ">
<path fill="none" stroke="#63b8ff" d="M165.52,-275.84C151.51,-267.73 130.69,-255.68 114.32,-246.21"/>
<polygon fill="#63b8ff" stroke="#63b8ff" points="116.53,-243.44 106.12,-241.46 113.02,-249.5 116.53,-243.44"/>
</a>
</g>
</g>
<!-- Node4 -->
<g id="Node000004" class="node">
<title>Node4</title>
<g id="a_Node000004"><a xlink:title=" ">
<polygon fill="#e0e0e0" stroke="#999999" points="178.25,-240.25 136,-240.25 136,-221 178.25,-221 178.25,-240.25"/>
<text text-anchor="middle" x="157.12" y="-226.75" font-family="Helvetica,sans-Serif" font-size="10.00">queue</text>
</a>
</g>
</g>
<!-- Node1&#45;&gt;Node4 -->
<g id="edge3_Node000001_Node000004" class="edge">
<title>Node1&#45;&gt;Node4</title>
<g id="a_edge3_Node000001_Node000004"><a xlink:title=" ">
<path fill="none" stroke="#63b8ff" d="M177.16,-276.08C174.09,-269.26 169.71,-259.56 165.84,-250.95"/>
<polygon fill="#63b8ff" stroke="#63b8ff" points="169.1,-249.67 161.8,-241.99 162.71,-252.54 169.1,-249.67"/>
</a>
</g>
</g>
<!-- Node5 -->
<g id="Node000005" class="node">
<title>Node5</title>
<g id="a_Node000005"><a xlink:title=" ">
<polygon fill="#e0e0e0" stroke="#999999" points="310.12,-74.5 270.12,-74.5 270.12,-55.25 310.12,-55.25 310.12,-74.5"/>
<text text-anchor="middle" x="290.12" y="-61" font-family="Helvetica,sans-Serif" font-size="10.00">string</text>
</a>
</g>
</g>
<!-- Node1&#45;&gt;Node5 -->
<g id="edge4_Node000001_Node000005" class="edge">
<title>Node1&#45;&gt;Node5</title>
<g id="a_edge4_Node000001_Node000005"><a xlink:title=" ">
<path fill="none" stroke="#63b8ff" d="M182.53,-275.9C187.61,-244.26 205.77,-138.3 225.12,-110.5 233.86,-97.95 247.35,-87.85 259.78,-80.46"/>
<polygon fill="#63b8ff" stroke="#63b8ff" points="261.47,-83.53 268.52,-75.63 258.08,-77.4 261.47,-83.53"/>
</a>
</g>
</g>
<!-- Node6 -->
<g id="Node000006" class="node">
<title>Node6</title>
<g id="a_Node000006"><a xlink:href="_base_rfid_wrapper_8hpp.xhtml" target="_top" xlink:title=" ">
<polygon fill="white" stroke="#666666" points="343.62,-240.25 234.62,-240.25 234.62,-221 343.62,-221 343.62,-240.25"/>
<text text-anchor="middle" x="289.12" y="-226.75" font-family="Helvetica,sans-Serif" font-size="10.00">BaseRfidWrapper.hpp</text>
</a>
</g>
</g>
<!-- Node1&#45;&gt;Node6 -->
<g id="edge5_Node000001_Node000006" class="edge">
<title>Node1&#45;&gt;Node6</title>
<g id="a_edge5_Node000001_Node000006"><a xlink:title=" ">
<path fill="none" stroke="#63b8ff" d="M199.45,-275.84C216.2,-267.58 241.26,-255.23 260.63,-245.68"/>
<polygon fill="#63b8ff" stroke="#63b8ff" points="261.94,-248.93 269.36,-241.37 258.84,-242.65 261.94,-248.93"/>
</a>
</g>
</g>
<!-- Node18 -->
<g id="Node000018" class="node">
<title>Node18</title>
<g id="a_Node000018"><a xlink:title=" ">
<polygon fill="#e0e0e0" stroke="#999999" points="446.62,-240.25 361.62,-240.25 361.62,-221 446.62,-221 446.62,-240.25"/>
<text text-anchor="middle" x="404.12" y="-226.75" font-family="Helvetica,sans-Serif" font-size="10.00">sMQTTBroker.h</text>
</a>
</g>
</g>
<!-- Node1&#45;&gt;Node18 -->
<g id="edge19_Node000001_Node000018" class="edge">
<title>Node1&#45;&gt;Node18</title>
<g id="a_edge19_Node000001_Node000018"><a xlink:title=" ">
<path fill="none" stroke="#63b8ff" d="M219.21,-275.78C256.73,-266.82 314.22,-253.09 355.13,-243.32"/>
<polygon fill="#63b8ff" stroke="#63b8ff" points="355.81,-246.76 364.73,-241.03 354.19,-239.95 355.81,-246.76"/>
</a>
</g>
</g>
<!-- Node7 -->
<g id="Node000007" class="node">
<title>Node7</title>
<g id="a_Node000007"><a xlink:title=" ">
<polygon fill="#e0e0e0" stroke="#999999" points="314,-185 264.25,-185 264.25,-165.75 314,-165.75 314,-185"/>
<text text-anchor="middle" x="289.12" y="-171.5" font-family="Helvetica,sans-Serif" font-size="10.00">optional</text>
</a>
</g>
</g>
<!-- Node6&#45;&gt;Node7 -->
<g id="edge6_Node000006_Node000007" class="edge">
<title>Node6&#45;&gt;Node7</title>
<g id="a_edge6_Node000006_Node000007"><a xlink:title=" ">
<path fill="none" stroke="#63b8ff" d="M289.12,-220.83C289.12,-214.32 289.12,-205.17 289.12,-196.87"/>
<polygon fill="#63b8ff" stroke="#63b8ff" points="292.63,-196.87 289.13,-186.87 285.63,-196.87 292.63,-196.87"/>
</a>
</g>
</g>
<!-- Node8 -->
<g id="Node000008" class="node">
<title>Node8</title>
<g id="a_Node000008"><a xlink:href="card_8hpp.xhtml" target="_top" xlink:title=" ">
<polygon fill="white" stroke="#666666" points="405.5,-185 352.75,-185 352.75,-165.75 405.5,-165.75 405.5,-185"/>
<text text-anchor="middle" x="379.12" y="-171.5" font-family="Helvetica,sans-Serif" font-size="10.00">card.hpp</text>
</a>
</g>
</g>
<!-- Node6&#45;&gt;Node8 -->
<g id="edge7_Node000006_Node000008" class="edge">
<title>Node6&#45;&gt;Node8</title>
<g id="a_edge7_Node000006_Node000008"><a xlink:title=" ">
<path fill="none" stroke="#63b8ff" d="M304.39,-220.59C317.97,-212.56 338.08,-200.66 354.02,-191.23"/>
<polygon fill="#63b8ff" stroke="#63b8ff" points="355.66,-194.33 362.48,-186.22 352.09,-188.3 355.66,-194.33"/>
</a>
</g>
</g>
<!-- Node9 -->
<g id="Node000009" class="node">
<title>Node9</title>
<g id="a_Node000009"><a xlink:title=" ">
<polygon fill="#e0e0e0" stroke="#999999" points="285.75,-129.75 234.5,-129.75 234.5,-110.5 285.75,-110.5 285.75,-129.75"/>
<text text-anchor="middle" x="260.12" y="-116.25" font-family="Helvetica,sans-Serif" font-size="10.00">sstream</text>
</a>
</g>
</g>
<!-- Node8&#45;&gt;Node9 -->
<g id="edge8_Node000008_Node000009" class="edge">
<title>Node8&#45;&gt;Node9</title>
<g id="a_edge8_Node000008_Node000009"><a xlink:title=" ">
<path fill="none" stroke="#63b8ff" d="M358.94,-165.34C340.22,-156.97 312.1,-144.38 290.64,-134.78"/>
<polygon fill="#63b8ff" stroke="#63b8ff" points="292.35,-131.71 281.79,-130.82 289.49,-138.1 292.35,-131.71"/>
</a>
</g>
</g>
<!-- Node10 -->
<g id="Node000010" class="node">
<title>Node10</title>
<g id="a_Node000010"><a xlink:title=" ">
<polygon fill="#e0e0e0" stroke="#999999" points="354,-129.75 304.25,-129.75 304.25,-110.5 354,-110.5 354,-129.75"/>
<text text-anchor="middle" x="329.12" y="-116.25" font-family="Helvetica,sans-Serif" font-size="10.00">iomanip</text>
</a>
</g>
</g>
<!-- Node8&#45;&gt;Node10 -->
<g id="edge9_Node000008_Node000010" class="edge">
<title>Node8&#45;&gt;Node10</title>
<g id="a_edge9_Node000008_Node000010"><a xlink:title=" ">
<path fill="none" stroke="#63b8ff" d="M370.87,-165.58C363.96,-158.23 353.9,-147.51 345.39,-138.44"/>
<polygon fill="#63b8ff" stroke="#63b8ff" points="347.99,-136.11 338.6,-131.21 342.89,-140.9 347.99,-136.11"/>
</a>
</g>
</g>
<!-- Node11 -->
<g id="Node000011" class="node">
<title>Node11</title>
<g id="a_Node000011"><a xlink:title=" ">
<polygon fill="#e0e0e0" stroke="#999999" points="428.38,-129.75 371.88,-129.75 371.88,-110.5 428.38,-110.5 428.38,-129.75"/>
<text text-anchor="middle" x="400.12" y="-116.25" font-family="Helvetica,sans-Serif" font-size="10.00">Arduino.h</text>
</a>
</g>
</g>
<!-- Node8&#45;&gt;Node11 -->
<g id="edge10_Node000008_Node000011" class="edge">
<title>Node8&#45;&gt;Node11</title>
<g id="a_edge10_Node000008_Node000011"><a xlink:title=" ">
<path fill="none" stroke="#63b8ff" d="M382.59,-165.58C385.25,-158.84 389.02,-149.27 392.39,-140.74"/>
<polygon fill="#63b8ff" stroke="#63b8ff" points="395.61,-142.1 396.03,-131.52 389.1,-139.54 395.61,-142.1"/>
</a>
</g>
</g>
<!-- Node12 -->
<g id="Node000012" class="node">
<title>Node12</title>
<g id="a_Node000012"><a xlink:href="conf_8hpp.xhtml" target="_top" xlink:title=" ">
<polygon fill="white" stroke="#666666" points="499.5,-129.75 446.75,-129.75 446.75,-110.5 499.5,-110.5 499.5,-129.75"/>
<text text-anchor="middle" x="473.12" y="-116.25" font-family="Helvetica,sans-Serif" font-size="10.00">conf.hpp</text>
</a>
</g>
</g>
<!-- Node8&#45;&gt;Node12 -->
<g id="edge11_Node000008_Node000012" class="edge">
<title>Node8&#45;&gt;Node12</title>
<g id="a_edge11_Node000008_Node000012"><a xlink:title=" ">
<path fill="none" stroke="#63b8ff" d="M395.07,-165.34C409.39,-157.23 430.66,-145.18 447.38,-135.71"/>
<polygon fill="#63b8ff" stroke="#63b8ff" points="448.81,-138.92 455.78,-130.95 445.36,-132.83 448.81,-138.92"/>
</a>
</g>
</g>
<!-- Node16 -->
<g id="Node000016" class="node">
<title>Node16</title>
<g id="a_Node000016"><a xlink:href="_logging_8hpp.xhtml" target="_top" xlink:title=" ">
<polygon fill="white" stroke="#666666" points="610.38,-129.75 541.88,-129.75 541.88,-110.5 610.38,-110.5 610.38,-129.75"/>
<text text-anchor="middle" x="576.12" y="-116.25" font-family="Helvetica,sans-Serif" font-size="10.00">Logging.hpp</text>
</a>
</g>
</g>
<!-- Node8&#45;&gt;Node16 -->
<g id="edge17_Node000008_Node000016" class="edge">
<title>Node8&#45;&gt;Node16</title>
<g id="a_edge17_Node000008_Node000016"><a xlink:title=" ">
<path fill="none" stroke="#63b8ff" d="M405.69,-167.19C437.91,-158.49 492.69,-143.68 531.44,-133.2"/>
<polygon fill="#63b8ff" stroke="#63b8ff" points="532.21,-136.62 540.95,-130.63 530.38,-129.86 532.21,-136.62"/>
</a>
</g>
</g>
<!-- Node12&#45;&gt;Node5 -->
<g id="edge13_Node000012_Node000005" class="edge">
<title>Node12&#45;&gt;Node5</title>
<g id="a_edge13_Node000012_Node000005"><a xlink:title=" ">
<path fill="none" stroke="#63b8ff" d="M446.52,-111.38C413.24,-101.7 356.38,-85.15 321.16,-74.9"/>
<polygon fill="#63b8ff" stroke="#63b8ff" points="322.57,-71.67 311.99,-72.24 320.61,-78.39 322.57,-71.67"/>
</a>
</g>
</g>
<!-- Node13 -->
<g id="Node000013" class="node">
<title>Node13</title>
<g id="a_Node000013"><a xlink:title=" ">
<polygon fill="#e0e0e0" stroke="#999999" points="469.75,-19.25 424.5,-19.25 424.5,0 469.75,0 469.75,-19.25"/>
<text text-anchor="middle" x="447.12" y="-5.75" font-family="Helvetica,sans-Serif" font-size="10.00">cstdint</text>
</a>
</g>
</g>
<!-- Node12&#45;&gt;Node13 -->
<g id="edge12_Node000012_Node000013" class="edge">
<title>Node12&#45;&gt;Node13</title>
<g id="a_edge12_Node000012_Node000013"><a xlink:title=" ">
<path fill="none" stroke="#63b8ff" d="M446.56,-110.52C429.99,-103.61 410.01,-92.12 400.12,-74.5 390.33,-57.03 406.84,-38.79 422.92,-26.3"/>
<polygon fill="#63b8ff" stroke="#63b8ff" points="424.85,-29.23 430.91,-20.54 420.75,-23.55 424.85,-29.23"/>
</a>
</g>
</g>
<!-- Node14 -->
<g id="Node000014" class="node">
<title>Node14</title>
<g id="a_Node000014"><a xlink:title=" ">
<polygon fill="#e0e0e0" stroke="#999999" points="454.75,-74.5 409.5,-74.5 409.5,-55.25 454.75,-55.25 454.75,-74.5"/>
<text text-anchor="middle" x="432.12" y="-61" font-family="Helvetica,sans-Serif" font-size="10.00">chrono</text>
</a>
</g>
</g>
<!-- Node12&#45;&gt;Node14 -->
<g id="edge14_Node000012_Node000014" class="edge">
<title>Node12&#45;&gt;Node14</title>
<g id="a_edge14_Node000012_Node000014"><a xlink:title=" ">
<path fill="none" stroke="#63b8ff" d="M466.35,-110.33C460.81,-103.13 452.78,-92.71 445.9,-83.76"/>
<polygon fill="#63b8ff" stroke="#63b8ff" points="448.84,-81.85 439.97,-76.06 443.29,-86.12 448.84,-81.85"/>
</a>
</g>
</g>
<!-- Node15 -->
<g id="Node000015" class="node">
<title>Node15</title>
<g id="a_Node000015"><a xlink:href="_machine_i_d_8hpp.xhtml" target="_top" xlink:title=" ">
<polygon fill="white" stroke="#666666" points="553.38,-74.5 472.88,-74.5 472.88,-55.25 553.38,-55.25 553.38,-74.5"/>
<text text-anchor="middle" x="513.12" y="-61" font-family="Helvetica,sans-Serif" font-size="10.00">MachineID.hpp</text>
</a>
</g>
</g>
<!-- Node12&#45;&gt;Node15 -->
<g id="edge15_Node000012_Node000015" class="edge">
<title>Node12&#45;&gt;Node15</title>
<g id="a_edge15_Node000012_Node000015"><a xlink:title=" ">
<path fill="none" stroke="#63b8ff" d="M479.73,-110.33C485.08,-103.21 492.8,-92.93 499.47,-84.05"/>
<polygon fill="#63b8ff" stroke="#63b8ff" points="502.26,-86.17 505.47,-76.07 496.66,-81.96 502.26,-86.17"/>
</a>
</g>
</g>
<!-- Node15&#45;&gt;Node13 -->
<g id="edge16_Node000015_Node000013" class="edge">
<title>Node15&#45;&gt;Node13</title>
<g id="a_edge16_Node000015_Node000013"><a xlink:title=" ">
<path fill="none" stroke="#63b8ff" d="M501.93,-54.84C492.39,-47.15 478.45,-35.9 467.02,-26.68"/>
<polygon fill="#63b8ff" stroke="#63b8ff" points="469.31,-24.03 459.33,-20.48 464.92,-29.48 469.31,-24.03"/>
</a>
</g>
</g>
<!-- Node17 -->
<g id="Node000017" class="node">
<title>Node17</title>
<g id="a_Node000017"><a xlink:title=" ">
<polygon fill="#e0e0e0" stroke="#999999" points="628.75,-74.5 571.5,-74.5 571.5,-55.25 628.75,-55.25 628.75,-74.5"/>
<text text-anchor="middle" x="600.12" y="-61" font-family="Helvetica,sans-Serif" font-size="10.00">esp_log.h</text>
</a>
</g>
</g>
<!-- Node16&#45;&gt;Node17 -->
<g id="edge18_Node000016_Node000017" class="edge">
<title>Node16&#45;&gt;Node17</title>
<g id="a_edge18_Node000016_Node000017"><a xlink:title=" ">
<path fill="none" stroke="#63b8ff" d="M580.09,-110.33C583.16,-103.51 587.54,-93.81 591.41,-85.2"/>
<polygon fill="#63b8ff" stroke="#63b8ff" points="594.54,-86.79 595.45,-76.24 588.15,-83.92 594.54,-86.79"/>
</a>
</g>
</g>
</g>
</svg>
