<?xml version="1.0" encoding="UTF-8" standalone="no"?>
<!DOCTYPE svg PUBLIC "-//W3C//DTD SVG 1.1//EN"
 "http://www.w3.org/Graphics/SVG/1.1/DTD/svg11.dtd">
<!-- Generated by graphviz version 9.0.0 (20230911.1827)
 -->
<!-- Title: MockMrfc522.hpp Pages: 1 -->
<svg width="768pt" height="304pt"
 viewBox="0.00 0.00 768.36 303.50" xmlns="http://www.w3.org/2000/svg" xmlns:xlink="http://www.w3.org/1999/xlink">
<g id="graph0" class="graph" transform="scale(1 1) rotate(0) translate(4 299.5)">
<title>MockMrfc522.hpp</title>
<!-- Node1 -->
<g id="Node000001" class="node">
<title>Node1</title>
<g id="a_Node000001"><a xlink:title=" ">
<polygon fill="#999999" stroke="#666666" points="404.12,-295.5 310.88,-295.5 310.88,-276.25 404.12,-276.25 404.12,-295.5"/>
<text text-anchor="middle" x="357.5" y="-282" font-family="Helvetica,sans-Serif" font-size="10.00">MockMrfc522.hpp</text>
</a>
</g>
</g>
<!-- Node2 -->
<g id="Node000002" class="node">
<title>Node2</title>
<g id="a_Node000002"><a xlink:title=" ">
<polygon fill="#e0e0e0" stroke="#999999" points="563.75,-129.75 507.25,-129.75 507.25,-110.5 563.75,-110.5 563.75,-129.75"/>
<text text-anchor="middle" x="535.5" y="-116.25" font-family="Helvetica,sans-Serif" font-size="10.00">Arduino.h</text>
</a>
</g>
</g>
<!-- Node1&#45;&gt;Node2 -->
<g id="edge1_Node000001_Node000002" class="edge">
<title>Node1&#45;&gt;Node2</title>
<g id="a_edge1_Node000001_Node000002"><a xlink:title=" ">
<path fill="none" stroke="#63b8ff" d="M358.15,-276.15C359.53,-262.98 363.76,-237.77 376.5,-221 408.48,-178.89 463.78,-150.04 500,-134.56"/>
<polygon fill="#63b8ff" stroke="#63b8ff" points="501.28,-137.82 509.18,-130.76 498.6,-131.35 501.28,-137.82"/>
</a>
</g>
</g>
<!-- Node3 -->
<g id="Node000003" class="node">
<title>Node3</title>
<g id="a_Node000003"><a xlink:title=" ">
<polygon fill="#e0e0e0" stroke="#999999" points="37,-185 0,-185 0,-165.75 37,-165.75 37,-185"/>
<text text-anchor="middle" x="18.5" y="-171.5" font-family="Helvetica,sans-Serif" font-size="10.00">array</text>
</a>
</g>
</g>
<!-- Node1&#45;&gt;Node3 -->
<g id="edge2_Node000001_Node000003" class="edge">
<title>Node1&#45;&gt;Node3</title>
<g id="a_edge2_Node000001_Node000003"><a xlink:title=" ">
<path fill="none" stroke="#63b8ff" d="M310.74,-282.13C260.21,-277.87 178.12,-267.11 112.5,-240.25 83.89,-228.54 55.09,-207.23 37.05,-192.47"/>
<polygon fill="#63b8ff" stroke="#63b8ff" points="39.72,-190.14 29.81,-186.4 35.22,-195.51 39.72,-190.14"/>
</a>
</g>
</g>
<!-- Node4 -->
<g id="Node000004" class="node">
<title>Node4</title>
<g id="a_Node000004"><a xlink:title=" ">
<polygon fill="#e0e0e0" stroke="#999999" points="261.75,-240.25 211.25,-240.25 211.25,-221 261.75,-221 261.75,-240.25"/>
<text text-anchor="middle" x="236.5" y="-226.75" font-family="Helvetica,sans-Serif" font-size="10.00">memory</text>
</a>
</g>
</g>
<!-- Node1&#45;&gt;Node4 -->
<g id="edge3_Node000001_Node000004" class="edge">
<title>Node1&#45;&gt;Node4</title>
<g id="a_edge3_Node000001_Node000004"><a xlink:title=" ">
<path fill="none" stroke="#63b8ff" d="M336.97,-275.84C317.94,-267.47 289.35,-254.88 267.53,-245.28"/>
<polygon fill="#63b8ff" stroke="#63b8ff" points="269.07,-242.14 258.51,-241.31 266.26,-248.54 269.07,-242.14"/>
</a>
</g>
</g>
<!-- Node5 -->
<g id="Node000005" class="node">
<title>Node5</title>
<g id="a_Node000005"><a xlink:title=" ">
<polygon fill="#e0e0e0" stroke="#999999" points="329.38,-240.25 279.62,-240.25 279.62,-221 329.38,-221 329.38,-240.25"/>
<text text-anchor="middle" x="304.5" y="-226.75" font-family="Helvetica,sans-Serif" font-size="10.00">optional</text>
</a>
</g>
</g>
<!-- Node1&#45;&gt;Node5 -->
<g id="edge4_Node000001_Node000005" class="edge">
<title>Node1&#45;&gt;Node5</title>
<g id="a_edge4_Node000001_Node000005"><a xlink:title=" ">
<path fill="none" stroke="#63b8ff" d="M348.75,-276.08C341.35,-268.65 330.54,-257.79 321.45,-248.66"/>
<polygon fill="#63b8ff" stroke="#63b8ff" points="324.04,-246.3 314.51,-241.68 319.08,-251.24 324.04,-246.3"/>
</a>
</g>
</g>
<!-- Node6 -->
<g id="Node000006" class="node">
<title>Node6</title>
<g id="a_Node000006"><a xlink:href="_fab_user_8hpp.xhtml" target="_top" xlink:title=" ">
<polygon fill="white" stroke="#666666" points="193.25,-240.25 121.75,-240.25 121.75,-221 193.25,-221 193.25,-240.25"/>
<text text-anchor="middle" x="157.5" y="-226.75" font-family="Helvetica,sans-Serif" font-size="10.00">FabUser.hpp</text>
</a>
</g>
</g>
<!-- Node1&#45;&gt;Node6 -->
<g id="edge5_Node000001_Node000006" class="edge">
<title>Node1&#45;&gt;Node6</title>
<g id="a_edge5_Node000001_Node000006"><a xlink:title=" ">
<path fill="none" stroke="#63b8ff" d="M323.57,-275.84C290.24,-266.97 239.19,-253.37 202.49,-243.6"/>
<polygon fill="#63b8ff" stroke="#63b8ff" points="203.62,-240.28 193.06,-241.09 201.82,-247.05 203.62,-240.28"/>
</a>
</g>
</g>
<!-- Node18 -->
<g id="Node000018" class="node">
<title>Node18</title>
<g id="a_Node000018"><a xlink:title=" ">
<polygon fill="#e0e0e0" stroke="#999999" points="521.88,-240.25 385.12,-240.25 385.12,-221 521.88,-221 521.88,-240.25"/>
<text text-anchor="middle" x="453.5" y="-226.75" font-family="Helvetica,sans-Serif" font-size="10.00">MFRC522DriverPinSimple.h</text>
</a>
</g>
</g>
<!-- Node1&#45;&gt;Node18 -->
<g id="edge25_Node000001_Node000018" class="edge">
<title>Node1&#45;&gt;Node18</title>
<g id="a_edge25_Node000001_Node000018"><a xlink:title=" ">
<path fill="none" stroke="#63b8ff" d="M373.79,-275.84C388.4,-267.73 410.13,-255.68 427.21,-246.21"/>
<polygon fill="#63b8ff" stroke="#63b8ff" points="428.76,-249.35 435.81,-241.44 425.37,-243.23 428.76,-249.35"/>
</a>
</g>
</g>
<!-- Node19 -->
<g id="Node000019" class="node">
<title>Node19</title>
<g id="a_Node000019"><a xlink:title=" ">
<polygon fill="#e0e0e0" stroke="#999999" points="649,-240.25 540,-240.25 540,-221 649,-221 649,-240.25"/>
<text text-anchor="middle" x="594.5" y="-226.75" font-family="Helvetica,sans-Serif" font-size="10.00">MFRC522DriverSPI.h</text>
</a>
</g>
</g>
<!-- Node1&#45;&gt;Node19 -->
<g id="edge26_Node000001_Node000019" class="edge">
<title>Node1&#45;&gt;Node19</title>
<g id="a_edge26_Node000001_Node000019"><a xlink:title=" ">
<path fill="none" stroke="#63b8ff" d="M397.97,-275.78C438.02,-266.78 499.48,-252.98 542.99,-243.2"/>
<polygon fill="#63b8ff" stroke="#63b8ff" points="543.73,-246.62 552.72,-241.01 542.19,-239.79 543.73,-246.62"/>
</a>
</g>
</g>
<!-- Node20 -->
<g id="Node000020" class="node">
<title>Node20</title>
<g id="a_Node000020"><a xlink:title=" ">
<polygon fill="#e0e0e0" stroke="#999999" points="744.25,-240.25 666.75,-240.25 666.75,-221 744.25,-221 744.25,-240.25"/>
<text text-anchor="middle" x="705.5" y="-226.75" font-family="Helvetica,sans-Serif" font-size="10.00">MFRC522v2.h</text>
</a>
</g>
</g>
<!-- Node1&#45;&gt;Node20 -->
<g id="edge27_Node000001_Node000020" class="edge">
<title>Node1&#45;&gt;Node20</title>
<g id="a_edge27_Node000001_Node000020"><a xlink:title=" ">
<path fill="none" stroke="#63b8ff" d="M404.5,-278.42C461.54,-270.46 560.92,-256.25 655.12,-240.77"/>
<polygon fill="#63b8ff" stroke="#63b8ff" points="655.49,-244.26 664.79,-239.17 654.35,-237.35 655.49,-244.26"/>
</a>
</g>
</g>
<!-- Node21 -->
<g id="Node000021" class="node">
<title>Node21</title>
<g id="a_Node000021"><a xlink:href="_tasks_8hpp.xhtml" target="_top" xlink:title=" ">
<polygon fill="white" stroke="#666666" points="664,-185 603,-185 603,-165.75 664,-165.75 664,-185"/>
<text text-anchor="middle" x="633.5" y="-171.5" font-family="Helvetica,sans-Serif" font-size="10.00">Tasks.hpp</text>
</a>
</g>
</g>
<!-- Node1&#45;&gt;Node21 -->
<g id="edge28_Node000001_Node000021" class="edge">
<title>Node1&#45;&gt;Node21</title>
<g id="a_edge28_Node000001_Node000021"><a xlink:title=" ">
<path fill="none" stroke="#63b8ff" d="M404.62,-283.02C504.57,-278.61 730.59,-265.88 753.5,-240.25 779.97,-210.62 719.74,-192.34 675.38,-183.29"/>
<polygon fill="#63b8ff" stroke="#63b8ff" points="676.2,-179.89 665.71,-181.43 674.87,-186.76 676.2,-179.89"/>
</a>
</g>
</g>
<!-- Node6&#45;&gt;Node2 -->
<g id="edge6_Node000006_Node000002" class="edge">
<title>Node6&#45;&gt;Node2</title>
<g id="a_edge6_Node000006_Node000002"><a xlink:title=" ">
<path fill="none" stroke="#63b8ff" d="M190.53,-220.52C219.76,-212.18 263.41,-199.03 300.5,-185 320.08,-177.59 323.65,-172.43 343.5,-165.75 350.77,-163.3 441.99,-142.41 496.03,-130.09"/>
<polygon fill="#63b8ff" stroke="#63b8ff" points="496.51,-133.57 505.48,-127.94 494.96,-126.75 496.51,-133.57"/>
</a>
</g>
</g>
<!-- Node6&#45;&gt;Node3 -->
<g id="edge21_Node000006_Node000003" class="edge">
<title>Node6&#45;&gt;Node3</title>
<g id="a_edge21_Node000006_Node000003"><a xlink:title=" ">
<path fill="none" stroke="#63b8ff" d="M133.92,-220.59C110.17,-211.49 73.47,-197.43 47.85,-187.62"/>
<polygon fill="#63b8ff" stroke="#63b8ff" points="49.29,-184.42 38.7,-184.11 46.78,-190.96 49.29,-184.42"/>
</a>
</g>
</g>
<!-- Node7 -->
<g id="Node000007" class="node">
<title>Node7</title>
<g id="a_Node000007"><a xlink:href="card_8hpp.xhtml" target="_top" xlink:title=" ">
<polygon fill="white" stroke="#666666" points="291.88,-185 239.12,-185 239.12,-165.75 291.88,-165.75 291.88,-185"/>
<text text-anchor="middle" x="265.5" y="-171.5" font-family="Helvetica,sans-Serif" font-size="10.00">card.hpp</text>
</a>
</g>
</g>
<!-- Node6&#45;&gt;Node7 -->
<g id="edge7_Node000006_Node000007" class="edge">
<title>Node6&#45;&gt;Node7</title>
<g id="a_edge7_Node000006_Node000007"><a xlink:title=" ">
<path fill="none" stroke="#63b8ff" d="M175.82,-220.59C192.58,-212.33 217.63,-199.98 237,-190.43"/>
<polygon fill="#63b8ff" stroke="#63b8ff" points="238.31,-193.68 245.73,-186.12 235.22,-187.4 238.31,-193.68"/>
</a>
</g>
</g>
<!-- Node8 -->
<g id="Node000008" class="node">
<title>Node8</title>
<g id="a_Node000008"><a xlink:title=" ">
<polygon fill="#e0e0e0" stroke="#999999" points="253.12,-129.75 201.88,-129.75 201.88,-110.5 253.12,-110.5 253.12,-129.75"/>
<text text-anchor="middle" x="227.5" y="-116.25" font-family="Helvetica,sans-Serif" font-size="10.00">sstream</text>
</a>
</g>
</g>
<!-- Node6&#45;&gt;Node8 -->
<g id="edge23_Node000006_Node000008" class="edge">
<title>Node6&#45;&gt;Node8</title>
<g id="a_edge23_Node000006_Node000008"><a xlink:title=" ">
<path fill="none" stroke="#63b8ff" d="M163.23,-220.75C174.61,-203.1 200.29,-163.3 215.52,-139.7"/>
<polygon fill="#63b8ff" stroke="#63b8ff" points="218.39,-141.7 220.87,-131.4 212.51,-137.9 218.39,-141.7"/>
</a>
</g>
</g>
<!-- Node10 -->
<g id="Node000010" class="node">
<title>Node10</title>
<g id="a_Node000010"><a xlink:href="conf_8hpp.xhtml" target="_top" xlink:title=" ">
<polygon fill="white" stroke="#666666" points="183.88,-129.75 131.12,-129.75 131.12,-110.5 183.88,-110.5 183.88,-129.75"/>
<text text-anchor="middle" x="157.5" y="-116.25" font-family="Helvetica,sans-Serif" font-size="10.00">conf.hpp</text>
</a>
</g>
</g>
<!-- Node6&#45;&gt;Node10 -->
<g id="edge20_Node000006_Node000010" class="edge">
<title>Node6&#45;&gt;Node10</title>
<g id="a_edge20_Node000006_Node000010"><a xlink:title=" ">
<path fill="none" stroke="#63b8ff" d="M157.5,-220.75C157.5,-203.5 157.5,-165.08 157.5,-141.31"/>
<polygon fill="#63b8ff" stroke="#63b8ff" points="161,-141.64 157.5,-131.64 154,-141.64 161,-141.64"/>
</a>
</g>
</g>
<!-- Node11 -->
<g id="Node000011" class="node">
<title>Node11</title>
<g id="a_Node000011"><a xlink:title=" ">
<polygon fill="#e0e0e0" stroke="#999999" points="184.12,-19.25 138.88,-19.25 138.88,0 184.12,0 184.12,-19.25"/>
<text text-anchor="middle" x="161.5" y="-5.75" font-family="Helvetica,sans-Serif" font-size="10.00">cstdint</text>
</a>
</g>
</g>
<!-- Node6&#45;&gt;Node11 -->
<g id="edge22_Node000006_Node000011" class="edge">
<title>Node6&#45;&gt;Node11</title>
<g id="a_edge22_Node000006_Node000011"><a xlink:title=" ">
<path fill="none" stroke="#63b8ff" d="M147.94,-220.54C121.26,-194.05 50.09,-114.97 84.5,-55.25 93.93,-38.89 111.91,-27.98 128.12,-21.04"/>
<polygon fill="#63b8ff" stroke="#63b8ff" points="128.95,-24.47 137,-17.59 126.41,-17.95 128.95,-24.47"/>
</a>
</g>
</g>
<!-- Node12 -->
<g id="Node000012" class="node">
<title>Node12</title>
<g id="a_Node000012"><a xlink:title=" ">
<polygon fill="#e0e0e0" stroke="#999999" points="133.5,-74.5 93.5,-74.5 93.5,-55.25 133.5,-55.25 133.5,-74.5"/>
<text text-anchor="middle" x="113.5" y="-61" font-family="Helvetica,sans-Serif" font-size="10.00">string</text>
</a>
</g>
</g>
<!-- Node6&#45;&gt;Node12 -->
<g id="edge24_Node000006_Node000012" class="edge">
<title>Node6&#45;&gt;Node12</title>
<g id="a_edge24_Node000006_Node000012"><a xlink:title=" ">
<path fill="none" stroke="#63b8ff" d="M153.71,-220.72C146.52,-203.48 130.88,-164.21 122.5,-129.75 118.97,-115.22 116.67,-98.48 115.28,-85.78"/>
<polygon fill="#63b8ff" stroke="#63b8ff" points="118.8,-85.77 114.33,-76.16 111.83,-86.46 118.8,-85.77"/>
</a>
</g>
</g>
<!-- Node7&#45;&gt;Node2 -->
<g id="edge10_Node000007_Node000002" class="edge">
<title>Node7&#45;&gt;Node2</title>
<g id="a_edge10_Node000007_Node000002"><a xlink:title=" ">
<path fill="none" stroke="#63b8ff" d="M292.16,-168.52C296.61,-167.57 301.18,-166.62 305.5,-165.75 387.12,-149.3 410.58,-147.49 495.63,-130.06"/>
<polygon fill="#63b8ff" stroke="#63b8ff" points="496.32,-133.5 505.41,-128.05 494.91,-126.64 496.32,-133.5"/>
</a>
</g>
</g>
<!-- Node7&#45;&gt;Node8 -->
<g id="edge8_Node000007_Node000008" class="edge">
<title>Node7&#45;&gt;Node8</title>
<g id="a_edge8_Node000007_Node000008"><a xlink:title=" ">
<path fill="none" stroke="#63b8ff" d="M259.23,-165.58C254.14,-158.46 246.8,-148.18 240.47,-139.3"/>
<polygon fill="#63b8ff" stroke="#63b8ff" points="243.45,-137.45 234.79,-131.34 237.75,-141.51 243.45,-137.45"/>
</a>
</g>
</g>
<!-- Node9 -->
<g id="Node000009" class="node">
<title>Node9</title>
<g id="a_Node000009"><a xlink:title=" ">
<polygon fill="#e0e0e0" stroke="#999999" points="402.38,-129.75 352.62,-129.75 352.62,-110.5 402.38,-110.5 402.38,-129.75"/>
<text text-anchor="middle" x="377.5" y="-116.25" font-family="Helvetica,sans-Serif" font-size="10.00">iomanip</text>
</a>
</g>
</g>
<!-- Node7&#45;&gt;Node9 -->
<g id="edge9_Node000007_Node000009" class="edge">
<title>Node7&#45;&gt;Node9</title>
<g id="a_edge9_Node000007_Node000009"><a xlink:title=" ">
<path fill="none" stroke="#63b8ff" d="M284.5,-165.34C301.96,-157.04 328.1,-144.61 348.22,-135.04"/>
<polygon fill="#63b8ff" stroke="#63b8ff" points="349.51,-138.31 357.04,-130.85 346.51,-131.99 349.51,-138.31"/>
</a>
</g>
</g>
<!-- Node7&#45;&gt;Node10 -->
<g id="edge11_Node000007_Node000010" class="edge">
<title>Node7&#45;&gt;Node10</title>
<g id="a_edge11_Node000007_Node000010"><a xlink:title=" ">
<path fill="none" stroke="#63b8ff" d="M247.18,-165.34C230.42,-157.08 205.37,-144.73 186,-135.18"/>
<polygon fill="#63b8ff" stroke="#63b8ff" points="187.78,-132.15 177.27,-130.87 184.69,-138.43 187.78,-132.15"/>
</a>
</g>
</g>
<!-- Node15 -->
<g id="Node000015" class="node">
<title>Node15</title>
<g id="a_Node000015"><a xlink:href="_logging_8hpp.xhtml" target="_top" xlink:title=" ">
<polygon fill="white" stroke="#666666" points="488.75,-129.75 420.25,-129.75 420.25,-110.5 488.75,-110.5 488.75,-129.75"/>
<text text-anchor="middle" x="454.5" y="-116.25" font-family="Helvetica,sans-Serif" font-size="10.00">Logging.hpp</text>
</a>
</g>
</g>
<!-- Node7&#45;&gt;Node15 -->
<g id="edge17_Node000007_Node000015" class="edge">
<title>Node7&#45;&gt;Node15</title>
<g id="a_edge17_Node000007_Node000015"><a xlink:title=" ">
<path fill="none" stroke="#63b8ff" d="M292.18,-166.86C323.16,-158.13 374.71,-143.61 411.39,-133.27"/>
<polygon fill="#63b8ff" stroke="#63b8ff" points="412.13,-136.7 420.81,-130.62 410.23,-129.96 412.13,-136.7"/>
</a>
</g>
</g>
<!-- Node17 -->
<g id="Node000017" class="node">
<title>Node17</title>
<g id="a_Node000017"><a xlink:title=" ">
<polygon fill="#e0e0e0" stroke="#999999" points="334.12,-129.75 270.88,-129.75 270.88,-110.5 334.12,-110.5 334.12,-129.75"/>
<text text-anchor="middle" x="302.5" y="-116.25" font-family="Helvetica,sans-Serif" font-size="10.00">esp_mac.h</text>
</a>
</g>
</g>
<!-- Node7&#45;&gt;Node17 -->
<g id="edge19_Node000007_Node000017" class="edge">
<title>Node7&#45;&gt;Node17</title>
<g id="a_edge19_Node000007_Node000017"><a xlink:title=" ">
<path fill="none" stroke="#63b8ff" d="M271.61,-165.58C276.56,-158.46 283.7,-148.18 289.87,-139.3"/>
<polygon fill="#63b8ff" stroke="#63b8ff" points="292.56,-141.56 295.39,-131.35 286.81,-137.57 292.56,-141.56"/>
</a>
</g>
</g>
<!-- Node10&#45;&gt;Node11 -->
<g id="edge12_Node000010_Node000011" class="edge">
<title>Node10&#45;&gt;Node11</title>
<g id="a_edge12_Node000010_Node000011"><a xlink:title=" ">
<path fill="none" stroke="#63b8ff" d="M157.83,-110.25C158.46,-93 159.88,-54.58 160.76,-30.81"/>
<polygon fill="#63b8ff" stroke="#63b8ff" points="164.24,-31.26 161.11,-21.14 157.25,-31 164.24,-31.26"/>
</a>
</g>
</g>
<!-- Node10&#45;&gt;Node12 -->
<g id="edge13_Node000010_Node000012" class="edge">
<title>Node10&#45;&gt;Node12</title>
<g id="a_edge13_Node000010_Node000012"><a xlink:title=" ">
<path fill="none" stroke="#63b8ff" d="M150.23,-110.33C144.22,-103.05 135.49,-92.48 128.04,-83.48"/>
<polygon fill="#63b8ff" stroke="#63b8ff" points="130.96,-81.51 121.89,-76.03 125.56,-85.96 130.96,-81.51"/>
</a>
</g>
</g>
<!-- Node13 -->
<g id="Node000013" class="node">
<title>Node13</title>
<g id="a_Node000013"><a xlink:title=" ">
<polygon fill="#e0e0e0" stroke="#999999" points="580.12,-74.5 534.88,-74.5 534.88,-55.25 580.12,-55.25 580.12,-74.5"/>
<text text-anchor="middle" x="557.5" y="-61" font-family="Helvetica,sans-Serif" font-size="10.00">chrono</text>
</a>
</g>
</g>
<!-- Node10&#45;&gt;Node13 -->
<g id="edge14_Node000010_Node000013" class="edge">
<title>Node10&#45;&gt;Node13</title>
<g id="a_edge14_Node000010_Node000013"><a xlink:title=" ">
<path fill="none" stroke="#63b8ff" d="M184.18,-112.19C186.98,-111.57 189.79,-110.99 192.5,-110.5 324.61,-86.39 359.27,-91.33 492.5,-74.5 502.57,-73.23 513.5,-71.8 523.48,-70.47"/>
<polygon fill="#63b8ff" stroke="#63b8ff" points="523.7,-73.97 533.15,-69.18 522.77,-67.03 523.7,-73.97"/>
</a>
</g>
</g>
<!-- Node14 -->
<g id="Node000014" class="node">
<title>Node14</title>
<g id="a_Node000014"><a xlink:href="_machine_i_d_8hpp.xhtml" target="_top" xlink:title=" ">
<polygon fill="white" stroke="#666666" points="269.75,-74.5 189.25,-74.5 189.25,-55.25 269.75,-55.25 269.75,-74.5"/>
<text text-anchor="middle" x="229.5" y="-61" font-family="Helvetica,sans-Serif" font-size="10.00">MachineID.hpp</text>
</a>
</g>
</g>
<!-- Node10&#45;&gt;Node14 -->
<g id="edge15_Node000010_Node000014" class="edge">
<title>Node10&#45;&gt;Node14</title>
<g id="a_edge15_Node000010_Node000014"><a xlink:title=" ">
<path fill="none" stroke="#63b8ff" d="M169.71,-110.09C180.33,-102.24 195.94,-90.7 208.54,-81.37"/>
<polygon fill="#63b8ff" stroke="#63b8ff" points="210.29,-84.44 216.25,-75.67 206.13,-78.81 210.29,-84.44"/>
</a>
</g>
</g>
<!-- Node14&#45;&gt;Node11 -->
<g id="edge16_Node000014_Node000011" class="edge">
<title>Node14&#45;&gt;Node11</title>
<g id="a_edge16_Node000014_Node000011"><a xlink:title=" ">
<path fill="none" stroke="#63b8ff" d="M217.96,-54.84C208.04,-47.07 193.49,-35.67 181.64,-26.4"/>
<polygon fill="#63b8ff" stroke="#63b8ff" points="184.09,-23.87 174.06,-20.46 179.77,-29.38 184.09,-23.87"/>
</a>
</g>
</g>
<!-- Node16 -->
<g id="Node000016" class="node">
<title>Node16</title>
<g id="a_Node000016"><a xlink:title=" ">
<polygon fill="#e0e0e0" stroke="#999999" points="483.12,-74.5 425.88,-74.5 425.88,-55.25 483.12,-55.25 483.12,-74.5"/>
<text text-anchor="middle" x="454.5" y="-61" font-family="Helvetica,sans-Serif" font-size="10.00">esp_log.h</text>
</a>
</g>
</g>
<!-- Node15&#45;&gt;Node16 -->
<g id="edge18_Node000015_Node000016" class="edge">
<title>Node15&#45;&gt;Node16</title>
<g id="a_edge18_Node000015_Node000016"><a xlink:title=" ">
<path fill="none" stroke="#63b8ff" d="M454.5,-110.33C454.5,-103.82 454.5,-94.67 454.5,-86.37"/>
<polygon fill="#63b8ff" stroke="#63b8ff" points="458,-86.37 454.5,-76.37 451,-86.37 458,-86.37"/>
</a>
</g>
</g>
<!-- Node21&#45;&gt;Node2 -->
<g id="edge31_Node000021_Node000002" class="edge">
<title>Node21&#45;&gt;Node2</title>
<g id="a_edge31_Node000021_Node000002"><a xlink:title=" ">
<path fill="none" stroke="#63b8ff" d="M616.88,-165.34C601.81,-157.16 579.36,-144.96 561.85,-135.44"/>
<polygon fill="#63b8ff" stroke="#63b8ff" points="563.99,-132.62 553.54,-130.93 560.65,-138.77 563.99,-132.62"/>
</a>
</g>
</g>
<!-- Node21&#45;&gt;Node13 -->
<g id="edge29_Node000021_Node000013" class="edge">
<title>Node21&#45;&gt;Node13</title>
<g id="a_edge29_Node000021_Node000013"><a xlink:title=" ">
<path fill="none" stroke="#63b8ff" d="M627.28,-165.5C614.87,-147.77 586.79,-107.69 570.29,-84.13"/>
<polygon fill="#63b8ff" stroke="#63b8ff" points="573.28,-82.3 564.67,-76.12 567.54,-86.31 573.28,-82.3"/>
</a>
</g>
</g>
<!-- Node22 -->
<g id="Node000022" class="node">
<title>Node22</title>
<g id="a_Node000022"><a xlink:title=" ">
<polygon fill="#e0e0e0" stroke="#999999" points="723.5,-129.75 665.5,-129.75 665.5,-110.5 723.5,-110.5 723.5,-129.75"/>
<text text-anchor="middle" x="694.5" y="-116.25" font-family="Helvetica,sans-Serif" font-size="10.00">functional</text>
</a>
</g>
</g>
<!-- Node21&#45;&gt;Node22 -->
<g id="edge30_Node000021_Node000022" class="edge">
<title>Node21&#45;&gt;Node22</title>
<g id="a_edge30_Node000021_Node000022"><a xlink:title=" ">
<path fill="none" stroke="#63b8ff" d="M643.85,-165.34C652.58,-157.72 665.29,-146.62 675.8,-137.45"/>
<polygon fill="#63b8ff" stroke="#63b8ff" points="677.93,-140.23 683.16,-131.02 673.33,-134.96 677.93,-140.23"/>
</a>
</g>
</g>
<!-- Node23 -->
<g id="Node000023" class="node">
<title>Node23</title>
<g id="a_Node000023"><a xlink:title=" ">
<polygon fill="#e0e0e0" stroke="#999999" points="647.9,-129.75 619.1,-129.75 619.1,-110.5 647.9,-110.5 647.9,-129.75"/>
<text text-anchor="middle" x="633.5" y="-116.25" font-family="Helvetica,sans-Serif" font-size="10.00">list</text>
</a>
</g>
</g>
<!-- Node21&#45;&gt;Node23 -->
<g id="edge32_Node000021_Node000023" class="edge">
<title>Node21&#45;&gt;Node23</title>
<g id="a_edge32_Node000021_Node000023"><a xlink:title=" ">
<path fill="none" stroke="#63b8ff" d="M633.5,-165.58C633.5,-159.07 633.5,-149.92 633.5,-141.62"/>
<polygon fill="#63b8ff" stroke="#63b8ff" points="637,-141.62 633.5,-131.62 630,-141.62 637,-141.62"/>
</a>
</g>
</g>
</g>
</svg>
