<?xml version="1.0" encoding="UTF-8" standalone="no"?>
<!DOCTYPE svg PUBLIC "-//W3C//DTD SVG 1.1//EN"
 "http://www.w3.org/Graphics/SVG/1.1/DTD/svg11.dtd">
<!-- Generated by graphviz version 9.0.0 (20230911.1827)
 -->
<!-- Title: MockMrfc522.hpp Pages: 1 -->
<svg width="822pt" height="304pt"
 viewBox="0.00 0.00 822.00 303.50" xmlns="http://www.w3.org/2000/svg" xmlns:xlink="http://www.w3.org/1999/xlink">
<g id="graph0" class="graph" transform="scale(1 1) rotate(0) translate(4 299.5)">
<title>MockMrfc522.hpp</title>
<!-- Node1 -->
<g id="Node000001" class="node">
<title>Node1</title>
<g id="a_Node000001"><a xlink:title=" ">
<polygon fill="#999999" stroke="#666666" points="424.88,-295.5 331.62,-295.5 331.62,-276.25 424.88,-276.25 424.88,-295.5"/>
<text text-anchor="middle" x="378.25" y="-282" font-family="Helvetica,sans-Serif" font-size="10.00">MockMrfc522.hpp</text>
</a>
</g>
</g>
<!-- Node2 -->
<g id="Node000002" class="node">
<title>Node2</title>
<g id="a_Node000002"><a xlink:title=" ">
<polygon fill="#e0e0e0" stroke="#999999" points="56.5,-129.75 0,-129.75 0,-110.5 56.5,-110.5 56.5,-129.75"/>
<text text-anchor="middle" x="28.25" y="-116.25" font-family="Helvetica,sans-Serif" font-size="10.00">Arduino.h</text>
</a>
</g>
</g>
<!-- Node1&#45;&gt;Node2 -->
<g id="edge1_Node000001_Node000002" class="edge">
<title>Node1&#45;&gt;Node2</title>
<g id="a_edge1_Node000001_Node000002"><a xlink:title=" ">
<path fill="none" stroke="#63b8ff" d="M331.13,-278.44C293.18,-272.09 239.11,-260.33 195.25,-240.25 135.64,-212.96 75.41,-163.32 46.27,-137.59"/>
<polygon fill="#63b8ff" stroke="#63b8ff" points="48.86,-135.2 39.07,-131.14 44.19,-140.42 48.86,-135.2"/>
</a>
</g>
</g>
<!-- Node3 -->
<g id="Node000003" class="node">
<title>Node3</title>
<g id="a_Node000003"><a xlink:title=" ">
<polygon fill="#e0e0e0" stroke="#999999" points="182.75,-185 145.75,-185 145.75,-165.75 182.75,-165.75 182.75,-185"/>
<text text-anchor="middle" x="164.25" y="-171.5" font-family="Helvetica,sans-Serif" font-size="10.00">array</text>
</a>
</g>
</g>
<!-- Node1&#45;&gt;Node3 -->
<g id="edge2_Node000001_Node000003" class="edge">
<title>Node1&#45;&gt;Node3</title>
<g id="a_edge2_Node000001_Node000003"><a xlink:title=" ">
<path fill="none" stroke="#63b8ff" d="M331.46,-278.88C298.4,-272.98 254.11,-261.63 220.25,-240.25 201.79,-228.59 185.95,-209.05 175.87,-194.65"/>
<polygon fill="#63b8ff" stroke="#63b8ff" points="178.91,-192.89 170.44,-186.51 173.08,-196.77 178.91,-192.89"/>
</a>
</g>
</g>
<!-- Node4 -->
<g id="Node000004" class="node">
<title>Node4</title>
<g id="a_Node000004"><a xlink:title=" ">
<polygon fill="#e0e0e0" stroke="#999999" points="369.5,-240.25 319,-240.25 319,-221 369.5,-221 369.5,-240.25"/>
<text text-anchor="middle" x="344.25" y="-226.75" font-family="Helvetica,sans-Serif" font-size="10.00">memory</text>
</a>
</g>
</g>
<!-- Node1&#45;&gt;Node4 -->
<g id="edge3_Node000001_Node000004" class="edge">
<title>Node1&#45;&gt;Node4</title>
<g id="a_edge3_Node000001_Node000004"><a xlink:title=" ">
<path fill="none" stroke="#63b8ff" d="M372.64,-276.08C368.13,-269.03 361.66,-258.9 356.04,-250.08"/>
<polygon fill="#63b8ff" stroke="#63b8ff" points="359.13,-248.43 350.8,-241.88 353.23,-252.2 359.13,-248.43"/>
</a>
</g>
</g>
<!-- Node5 -->
<g id="Node000005" class="node">
<title>Node5</title>
<g id="a_Node000005"><a xlink:title=" ">
<polygon fill="#e0e0e0" stroke="#999999" points="437.12,-240.25 387.38,-240.25 387.38,-221 437.12,-221 437.12,-240.25"/>
<text text-anchor="middle" x="412.25" y="-226.75" font-family="Helvetica,sans-Serif" font-size="10.00">optional</text>
</a>
</g>
</g>
<!-- Node1&#45;&gt;Node5 -->
<g id="edge4_Node000001_Node000005" class="edge">
<title>Node1&#45;&gt;Node5</title>
<g id="a_edge4_Node000001_Node000005"><a xlink:title=" ">
<path fill="none" stroke="#63b8ff" d="M383.86,-276.08C388.37,-269.03 394.84,-258.9 400.46,-250.08"/>
<polygon fill="#63b8ff" stroke="#63b8ff" points="403.27,-252.2 405.7,-241.88 397.37,-248.43 403.27,-252.2"/>
</a>
</g>
</g>
<!-- Node6 -->
<g id="Node000006" class="node">
<title>Node6</title>
<g id="a_Node000006"><a xlink:href="_fab_user_8hpp.xhtml" target="_top" xlink:title=" ">
<polygon fill="white" stroke="#666666" points="301,-240.25 229.5,-240.25 229.5,-221 301,-221 301,-240.25"/>
<text text-anchor="middle" x="265.25" y="-226.75" font-family="Helvetica,sans-Serif" font-size="10.00">FabUser.hpp</text>
</a>
</g>
</g>
<!-- Node1&#45;&gt;Node6 -->
<g id="edge5_Node000001_Node000006" class="edge">
<title>Node1&#45;&gt;Node6</title>
<g id="a_edge5_Node000001_Node000006"><a xlink:title=" ">
<path fill="none" stroke="#63b8ff" d="M359.08,-275.84C341.47,-267.54 315.09,-255.11 294.79,-245.54"/>
<polygon fill="#63b8ff" stroke="#63b8ff" points="296.42,-242.44 285.88,-241.35 293.44,-248.78 296.42,-242.44"/>
</a>
</g>
</g>
<!-- Node18 -->
<g id="Node000018" class="node">
<title>Node18</title>
<g id="a_Node000018"><a xlink:title=" ">
<polygon fill="#e0e0e0" stroke="#999999" points="591.62,-240.25 454.88,-240.25 454.88,-221 591.62,-221 591.62,-240.25"/>
<text text-anchor="middle" x="523.25" y="-226.75" font-family="Helvetica,sans-Serif" font-size="10.00">MFRC522DriverPinSimple.h</text>
</a>
</g>
</g>
<!-- Node1&#45;&gt;Node18 -->
<g id="edge25_Node000001_Node000018" class="edge">
<title>Node1&#45;&gt;Node18</title>
<g id="a_edge25_Node000001_Node000018"><a xlink:title=" ">
<path fill="none" stroke="#63b8ff" d="M402.85,-275.84C426.18,-267.27 461.49,-254.31 487.85,-244.63"/>
<polygon fill="#63b8ff" stroke="#63b8ff" points="488.93,-247.96 497.11,-241.22 486.52,-241.39 488.93,-247.96"/>
</a>
</g>
</g>
<!-- Node19 -->
<g id="Node000019" class="node">
<title>Node19</title>
<g id="a_Node000019"><a xlink:title=" ">
<polygon fill="#e0e0e0" stroke="#999999" points="718.75,-240.25 609.75,-240.25 609.75,-221 718.75,-221 718.75,-240.25"/>
<text text-anchor="middle" x="664.25" y="-226.75" font-family="Helvetica,sans-Serif" font-size="10.00">MFRC522DriverSPI.h</text>
</a>
</g>
</g>
<!-- Node1&#45;&gt;Node19 -->
<g id="edge26_Node000001_Node000019" class="edge">
<title>Node1&#45;&gt;Node19</title>
<g id="a_edge26_Node000001_Node000019"><a xlink:title=" ">
<path fill="none" stroke="#63b8ff" d="M425.16,-276.14C474.13,-267.02 551.08,-252.7 604.4,-242.77"/>
<polygon fill="#63b8ff" stroke="#63b8ff" points="604.72,-246.27 613.91,-241 603.44,-239.39 604.72,-246.27"/>
</a>
</g>
</g>
<!-- Node20 -->
<g id="Node000020" class="node">
<title>Node20</title>
<g id="a_Node000020"><a xlink:title=" ">
<polygon fill="#e0e0e0" stroke="#999999" points="814,-240.25 736.5,-240.25 736.5,-221 814,-221 814,-240.25"/>
<text text-anchor="middle" x="775.25" y="-226.75" font-family="Helvetica,sans-Serif" font-size="10.00">MFRC522v2.h</text>
</a>
</g>
</g>
<!-- Node1&#45;&gt;Node20 -->
<g id="edge27_Node000001_Node000020" class="edge">
<title>Node1&#45;&gt;Node20</title>
<g id="a_edge27_Node000001_Node000020"><a xlink:title=" ">
<path fill="none" stroke="#63b8ff" d="M425.35,-279.7C490.5,-272.36 612.05,-258 724.81,-240.72"/>
<polygon fill="#63b8ff" stroke="#63b8ff" points="725.2,-244.2 734.54,-239.22 724.13,-237.29 725.2,-244.2"/>
</a>
</g>
</g>
<!-- Node6&#45;&gt;Node2 -->
<g id="edge6_Node000006_Node000002" class="edge">
<title>Node6&#45;&gt;Node2</title>
<g id="a_edge6_Node000006_Node000002"><a xlink:title=" ">
<path fill="none" stroke="#63b8ff" d="M257.52,-220.79C244.98,-207.01 218.81,-180.44 191.25,-165.75 180.29,-159.91 112.57,-142.28 67.93,-131.01"/>
<polygon fill="#63b8ff" stroke="#63b8ff" points="68.87,-127.64 58.32,-128.59 67.16,-134.43 68.87,-127.64"/>
</a>
</g>
</g>
<!-- Node6&#45;&gt;Node3 -->
<g id="edge21_Node000006_Node000003" class="edge">
<title>Node6&#45;&gt;Node3</title>
<g id="a_edge21_Node000006_Node000003"><a xlink:title=" ">
<path fill="none" stroke="#63b8ff" d="M248.12,-220.59C232.59,-212.41 209.45,-200.21 191.41,-190.69"/>
<polygon fill="#63b8ff" stroke="#63b8ff" points="193.28,-187.73 182.81,-186.16 190.02,-193.92 193.28,-187.73"/>
</a>
</g>
</g>
<!-- Node7 -->
<g id="Node000007" class="node">
<title>Node7</title>
<g id="a_Node000007"><a xlink:href="card_8hpp.xhtml" target="_top" xlink:title=" ">
<polygon fill="white" stroke="#666666" points="291.62,-185 238.88,-185 238.88,-165.75 291.62,-165.75 291.62,-185"/>
<text text-anchor="middle" x="265.25" y="-171.5" font-family="Helvetica,sans-Serif" font-size="10.00">card.hpp</text>
</a>
</g>
</g>
<!-- Node6&#45;&gt;Node7 -->
<g id="edge7_Node000006_Node000007" class="edge">
<title>Node6&#45;&gt;Node7</title>
<g id="a_edge7_Node000006_Node000007"><a xlink:title=" ">
<path fill="none" stroke="#63b8ff" d="M265.25,-220.83C265.25,-214.32 265.25,-205.17 265.25,-196.87"/>
<polygon fill="#63b8ff" stroke="#63b8ff" points="268.75,-196.87 265.25,-186.87 261.75,-196.87 268.75,-196.87"/>
</a>
</g>
</g>
<!-- Node8 -->
<g id="Node000008" class="node">
<title>Node8</title>
<g id="a_Node000008"><a xlink:title=" ">
<polygon fill="#e0e0e0" stroke="#999999" points="431.88,-129.75 380.62,-129.75 380.62,-110.5 431.88,-110.5 431.88,-129.75"/>
<text text-anchor="middle" x="406.25" y="-116.25" font-family="Helvetica,sans-Serif" font-size="10.00">sstream</text>
</a>
</g>
</g>
<!-- Node6&#45;&gt;Node8 -->
<g id="edge23_Node000006_Node000008" class="edge">
<title>Node6&#45;&gt;Node8</title>
<g id="a_edge23_Node000006_Node000008"><a xlink:title=" ">
<path fill="none" stroke="#63b8ff" d="M276.79,-220.75C300.65,-202.39 355.68,-160.04 385.74,-136.91"/>
<polygon fill="#63b8ff" stroke="#63b8ff" points="387.56,-139.92 393.35,-131.05 383.29,-134.37 387.56,-139.92"/>
</a>
</g>
</g>
<!-- Node10 -->
<g id="Node000010" class="node">
<title>Node10</title>
<g id="a_Node000010"><a xlink:href="conf_8hpp.xhtml" target="_top" xlink:title=" ">
<polygon fill="white" stroke="#666666" points="362.62,-129.75 309.88,-129.75 309.88,-110.5 362.62,-110.5 362.62,-129.75"/>
<text text-anchor="middle" x="336.25" y="-116.25" font-family="Helvetica,sans-Serif" font-size="10.00">conf.hpp</text>
</a>
</g>
</g>
<!-- Node6&#45;&gt;Node10 -->
<g id="edge20_Node000006_Node000010" class="edge">
<title>Node6&#45;&gt;Node10</title>
<g id="a_edge20_Node000006_Node000010"><a xlink:title=" ">
<path fill="none" stroke="#63b8ff" d="M272.91,-220.7C280.3,-211.9 291.61,-197.93 300.25,-185 309.99,-170.43 319.66,-153.06 326.53,-140.11"/>
<polygon fill="#63b8ff" stroke="#63b8ff" points="329.55,-141.88 331.07,-131.4 323.34,-138.65 329.55,-141.88"/>
</a>
</g>
</g>
<!-- Node11 -->
<g id="Node000011" class="node">
<title>Node11</title>
<g id="a_Node000011"><a xlink:title=" ">
<polygon fill="#e0e0e0" stroke="#999999" points="399.88,-19.25 354.62,-19.25 354.62,0 399.88,0 399.88,-19.25"/>
<text text-anchor="middle" x="377.25" y="-5.75" font-family="Helvetica,sans-Serif" font-size="10.00">cstdint</text>
</a>
</g>
</g>
<!-- Node6&#45;&gt;Node11 -->
<g id="edge22_Node000006_Node000011" class="edge">
<title>Node6&#45;&gt;Node11</title>
<g id="a_edge22_Node000006_Node000011"><a xlink:title=" ">
<path fill="none" stroke="#63b8ff" d="M300.85,-220.52C336.5,-211.03 388.53,-196.02 406.25,-185 457.3,-153.25 471.57,-133.26 484.25,-74.5 486.05,-66.14 488.99,-62.37 484.25,-55.25 468.16,-31.1 436.26,-20 411.45,-14.91"/>
<polygon fill="#63b8ff" stroke="#63b8ff" points="412.25,-11.49 401.79,-13.18 411.01,-18.39 412.25,-11.49"/>
</a>
</g>
</g>
<!-- Node12 -->
<g id="Node000012" class="node">
<title>Node12</title>
<g id="a_Node000012"><a xlink:title=" ">
<polygon fill="#e0e0e0" stroke="#999999" points="475.25,-74.5 435.25,-74.5 435.25,-55.25 475.25,-55.25 475.25,-74.5"/>
<text text-anchor="middle" x="455.25" y="-61" font-family="Helvetica,sans-Serif" font-size="10.00">string</text>
</a>
</g>
</g>
<!-- Node6&#45;&gt;Node12 -->
<g id="edge24_Node000006_Node000012" class="edge">
<title>Node6&#45;&gt;Node12</title>
<g id="a_edge24_Node000006_Node000012"><a xlink:title=" ">
<path fill="none" stroke="#63b8ff" d="M297.57,-220.5C337.88,-207.37 405.79,-179.12 441.25,-129.75 450.38,-117.03 453.74,-99.48 454.89,-85.99"/>
<polygon fill="#63b8ff" stroke="#63b8ff" points="458.38,-86.26 455.37,-76.11 451.39,-85.93 458.38,-86.26"/>
</a>
</g>
</g>
<!-- Node7&#45;&gt;Node2 -->
<g id="edge10_Node000007_Node000002" class="edge">
<title>Node7&#45;&gt;Node2</title>
<g id="a_edge10_Node000007_Node000002"><a xlink:title=" ">
<path fill="none" stroke="#63b8ff" d="M238.38,-168.46C202,-160.44 134.75,-145.55 68.05,-130.37"/>
<polygon fill="#63b8ff" stroke="#63b8ff" points="68.93,-126.98 58.4,-128.17 67.37,-133.81 68.93,-126.98"/>
</a>
</g>
</g>
<!-- Node7&#45;&gt;Node8 -->
<g id="edge8_Node000007_Node000008" class="edge">
<title>Node7&#45;&gt;Node8</title>
<g id="a_edge8_Node000007_Node000008"><a xlink:title=" ">
<path fill="none" stroke="#63b8ff" d="M289.17,-165.34C311.75,-156.81 345.89,-143.92 371.48,-134.26"/>
<polygon fill="#63b8ff" stroke="#63b8ff" points="372.68,-137.54 380.8,-130.74 370.21,-131 372.68,-137.54"/>
</a>
</g>
</g>
<!-- Node9 -->
<g id="Node000009" class="node">
<title>Node9</title>
<g id="a_Node000009"><a xlink:title=" ">
<polygon fill="#e0e0e0" stroke="#999999" points="124.12,-129.75 74.38,-129.75 74.38,-110.5 124.12,-110.5 124.12,-129.75"/>
<text text-anchor="middle" x="99.25" y="-116.25" font-family="Helvetica,sans-Serif" font-size="10.00">iomanip</text>
</a>
</g>
</g>
<!-- Node7&#45;&gt;Node9 -->
<g id="edge9_Node000007_Node000009" class="edge">
<title>Node7&#45;&gt;Node9</title>
<g id="a_edge9_Node000007_Node000009"><a xlink:title=" ">
<path fill="none" stroke="#63b8ff" d="M238.58,-165.82C210.58,-156.84 166.39,-142.66 135.3,-132.69"/>
<polygon fill="#63b8ff" stroke="#63b8ff" points="136.53,-129.41 125.94,-129.69 134.39,-136.07 136.53,-129.41"/>
</a>
</g>
</g>
<!-- Node7&#45;&gt;Node10 -->
<g id="edge11_Node000007_Node000010" class="edge">
<title>Node7&#45;&gt;Node10</title>
<g id="a_edge11_Node000007_Node000010"><a xlink:title=" ">
<path fill="none" stroke="#63b8ff" d="M277.29,-165.34C287.66,-157.57 302.85,-146.17 315.22,-136.9"/>
<polygon fill="#63b8ff" stroke="#63b8ff" points="317.27,-139.73 323.17,-130.93 313.07,-134.13 317.27,-139.73"/>
</a>
</g>
</g>
<!-- Node15 -->
<g id="Node000015" class="node">
<title>Node15</title>
<g id="a_Node000015"><a xlink:href="_logging_8hpp.xhtml" target="_top" xlink:title=" ">
<polygon fill="white" stroke="#666666" points="210.5,-129.75 142,-129.75 142,-110.5 210.5,-110.5 210.5,-129.75"/>
<text text-anchor="middle" x="176.25" y="-116.25" font-family="Helvetica,sans-Serif" font-size="10.00">Logging.hpp</text>
</a>
</g>
</g>
<!-- Node7&#45;&gt;Node15 -->
<g id="edge17_Node000007_Node000015" class="edge">
<title>Node7&#45;&gt;Node15</title>
<g id="a_edge17_Node000007_Node000015"><a xlink:title=" ">
<path fill="none" stroke="#63b8ff" d="M250.15,-165.34C236.73,-157.31 216.84,-145.41 201.08,-135.98"/>
<polygon fill="#63b8ff" stroke="#63b8ff" points="203.1,-133.11 192.72,-130.98 199.5,-139.12 203.1,-133.11"/>
</a>
</g>
</g>
<!-- Node17 -->
<g id="Node000017" class="node">
<title>Node17</title>
<g id="a_Node000017"><a xlink:title=" ">
<polygon fill="#e0e0e0" stroke="#999999" points="291.88,-129.75 228.62,-129.75 228.62,-110.5 291.88,-110.5 291.88,-129.75"/>
<text text-anchor="middle" x="260.25" y="-116.25" font-family="Helvetica,sans-Serif" font-size="10.00">esp_mac.h</text>
</a>
</g>
</g>
<!-- Node7&#45;&gt;Node17 -->
<g id="edge19_Node000007_Node000017" class="edge">
<title>Node7&#45;&gt;Node17</title>
<g id="a_edge19_Node000007_Node000017"><a xlink:title=" ">
<path fill="none" stroke="#63b8ff" d="M264.42,-165.58C263.81,-158.99 262.93,-149.71 262.15,-141.32"/>
<polygon fill="#63b8ff" stroke="#63b8ff" points="265.65,-141.25 261.24,-131.62 258.69,-141.9 265.65,-141.25"/>
</a>
</g>
</g>
<!-- Node10&#45;&gt;Node11 -->
<g id="edge12_Node000010_Node000011" class="edge">
<title>Node10&#45;&gt;Node11</title>
<g id="a_edge12_Node000010_Node000011"><a xlink:title=" ">
<path fill="none" stroke="#63b8ff" d="M332.24,-110.02C327.22,-97.22 320.21,-73.45 328.25,-55.25 333.41,-43.57 343.31,-33.63 352.87,-26.11"/>
<polygon fill="#63b8ff" stroke="#63b8ff" points="354.83,-29.01 360.89,-20.32 350.74,-23.33 354.83,-29.01"/>
</a>
</g>
</g>
<!-- Node10&#45;&gt;Node12 -->
<g id="edge13_Node000010_Node000012" class="edge">
<title>Node10&#45;&gt;Node12</title>
<g id="a_edge13_Node000010_Node000012"><a xlink:title=" ">
<path fill="none" stroke="#63b8ff" d="M356.44,-110.09C375.16,-101.72 403.27,-89.13 424.73,-79.53"/>
<polygon fill="#63b8ff" stroke="#63b8ff" points="425.88,-82.85 433.58,-75.57 423.03,-76.46 425.88,-82.85"/>
</a>
</g>
</g>
<!-- Node13 -->
<g id="Node000013" class="node">
<title>Node13</title>
<g id="a_Node000013"><a xlink:title=" ">
<polygon fill="#e0e0e0" stroke="#999999" points="280.88,-74.5 235.62,-74.5 235.62,-55.25 280.88,-55.25 280.88,-74.5"/>
<text text-anchor="middle" x="258.25" y="-61" font-family="Helvetica,sans-Serif" font-size="10.00">chrono</text>
</a>
</g>
</g>
<!-- Node10&#45;&gt;Node13 -->
<g id="edge14_Node000010_Node000013" class="edge">
<title>Node10&#45;&gt;Node13</title>
<g id="a_edge14_Node000010_Node000013"><a xlink:title=" ">
<path fill="none" stroke="#63b8ff" d="M323.02,-110.09C311.48,-102.21 294.48,-90.61 280.8,-81.27"/>
<polygon fill="#63b8ff" stroke="#63b8ff" points="283.03,-78.55 272.8,-75.81 279.08,-84.33 283.03,-78.55"/>
</a>
</g>
</g>
<!-- Node14 -->
<g id="Node000014" class="node">
<title>Node14</title>
<g id="a_Node000014"><a xlink:href="_machine_i_d_8hpp.xhtml" target="_top" xlink:title=" ">
<polygon fill="white" stroke="#666666" points="417.5,-74.5 337,-74.5 337,-55.25 417.5,-55.25 417.5,-74.5"/>
<text text-anchor="middle" x="377.25" y="-61" font-family="Helvetica,sans-Serif" font-size="10.00">MachineID.hpp</text>
</a>
</g>
</g>
<!-- Node10&#45;&gt;Node14 -->
<g id="edge15_Node000010_Node000014" class="edge">
<title>Node10&#45;&gt;Node14</title>
<g id="a_edge15_Node000010_Node000014"><a xlink:title=" ">
<path fill="none" stroke="#63b8ff" d="M343.02,-110.33C348.57,-103.13 356.59,-92.71 363.48,-83.76"/>
<polygon fill="#63b8ff" stroke="#63b8ff" points="366.08,-86.12 369.41,-76.06 360.54,-81.85 366.08,-86.12"/>
</a>
</g>
</g>
<!-- Node14&#45;&gt;Node11 -->
<g id="edge16_Node000014_Node000011" class="edge">
<title>Node14&#45;&gt;Node11</title>
<g id="a_edge16_Node000014_Node000011"><a xlink:title=" ">
<path fill="none" stroke="#63b8ff" d="M377.25,-55.08C377.25,-48.57 377.25,-39.42 377.25,-31.12"/>
<polygon fill="#63b8ff" stroke="#63b8ff" points="380.75,-31.12 377.25,-21.12 373.75,-31.12 380.75,-31.12"/>
</a>
</g>
</g>
<!-- Node16 -->
<g id="Node000016" class="node">
<title>Node16</title>
<g id="a_Node000016"><a xlink:title=" ">
<polygon fill="#e0e0e0" stroke="#999999" points="204.88,-74.5 147.62,-74.5 147.62,-55.25 204.88,-55.25 204.88,-74.5"/>
<text text-anchor="middle" x="176.25" y="-61" font-family="Helvetica,sans-Serif" font-size="10.00">esp_log.h</text>
</a>
</g>
</g>
<!-- Node15&#45;&gt;Node16 -->
<g id="edge18_Node000015_Node000016" class="edge">
<title>Node15&#45;&gt;Node16</title>
<g id="a_edge18_Node000015_Node000016"><a xlink:title=" ">
<path fill="none" stroke="#63b8ff" d="M176.25,-110.33C176.25,-103.82 176.25,-94.67 176.25,-86.37"/>
<polygon fill="#63b8ff" stroke="#63b8ff" points="179.75,-86.37 176.25,-76.37 172.75,-86.37 179.75,-86.37"/>
</a>
</g>
</g>
</g>
</svg>
