<?xml version="1.0" encoding="UTF-8" standalone="no"?>
<!DOCTYPE svg PUBLIC "-//W3C//DTD SVG 1.1//EN"
 "http://www.w3.org/Graphics/SVG/1.1/DTD/svg11.dtd">
<!-- Generated by graphviz version 9.0.0 (20230911.1827)
 -->
<!-- Title: MockMrfc522.hpp Pages: 1 -->
<svg width="453pt" height="138pt"
 viewBox="0.00 0.00 453.25 137.75" xmlns="http://www.w3.org/2000/svg" xmlns:xlink="http://www.w3.org/1999/xlink">

<svg id="main" version="1.1" xmlns="http://www.w3.org/2000/svg" xmlns:xlink="http://www.w3.org/1999/xlink" xml:space="preserve" onload="init(evt)">
<style type="text/css"><![CDATA[
.node, .edge {opacity: 0.7;}
.node.selected, .edge.selected {opacity: 1;}
.edge:hover path { stroke: red; }
.edge:hover polygon { stroke: red; fill: red; }
]]></style>
<script type="application/ecmascript" xlink:href="svg.min.js"/>
<svg id="graph" class="graph">
<g id="graph0" class="graph" transform="scale(1 1) rotate(0) translate(4 133.75)">
<title>MockMrfc522.hpp</title>
<!-- Node1 -->
<g id="Node000001" class="node">
<title>Node1</title>
<g id="a_Node000001"><a xlink:title=" ">
<polygon fill="#999999" stroke="#666666" points="284.25,-129.75 191,-129.75 191,-110.5 284.25,-110.5 284.25,-129.75"/>
<text text-anchor="middle" x="237.62" y="-116.25" font-family="Helvetica,sans-Serif" font-size="10.00">MockMrfc522.hpp</text>
</a>
</g>
</g>
<!-- Node2 -->
<g id="Node000002" class="node">
<title>Node2</title>
<g id="a_Node000002"><a xlink:href="_mock_mrfc522_8cpp.xhtml" target="_top" xlink:title=" ">
<polygon fill="white" stroke="#666666" points="93.25,-74.5 0,-74.5 0,-55.25 93.25,-55.25 93.25,-74.5"/>
<text text-anchor="middle" x="46.62" y="-61" font-family="Helvetica,sans-Serif" font-size="10.00">MockMrfc522.cpp</text>
</a>
</g>
</g>
<!-- Node1&#45;&gt;Node2 -->
<g id="edge1_Node000001_Node000002" class="edge">
<title>Node1&#45;&gt;Node2</title>
<g id="a_edge1_Node000001_Node000002"><a xlink:title=" ">
<path fill="none" stroke="#63b8ff" d="M194.38,-107.07C159.41,-97.32 110.93,-83.8 79.18,-74.95"/>
<polygon fill="#63b8ff" stroke="#63b8ff" points="193.19,-110.37 203.77,-109.69 195.07,-103.63 193.19,-110.37"/>
</a>
</g>
</g>
<!-- Node3 -->
<g id="Node000003" class="node">
<title>Node3</title>
<g id="a_Node000003"><a xlink:href="globals_8hpp.xhtml" target="_top" xlink:title=" ">
<polygon fill="white" stroke="#666666" points="176,-74.5 111.25,-74.5 111.25,-55.25 176,-55.25 176,-74.5"/>
<text text-anchor="middle" x="143.62" y="-61" font-family="Helvetica,sans-Serif" font-size="10.00">globals.hpp</text>
</a>
</g>
</g>
<!-- Node1&#45;&gt;Node3 -->
<g id="edge2_Node000001_Node000003" class="edge">
<title>Node1&#45;&gt;Node3</title>
<g id="a_edge2_Node000001_Node000003"><a xlink:title=" ">
<path fill="none" stroke="#63b8ff" d="M211.97,-104.59C195.26,-95.13 173.99,-83.08 159.65,-74.95"/>
<polygon fill="#63b8ff" stroke="#63b8ff" points="209.94,-107.46 220.36,-109.35 213.39,-101.37 209.94,-107.46"/>
</a>
</g>
</g>
<!-- Node5 -->
<g id="Node000005" class="node">
<title>Node5</title>
<g id="a_Node000005"><a xlink:href="test__common_8cpp.xhtml" target="_top" xlink:title=" ">
<polygon fill="white" stroke="#666666" points="283.25,-19.25 190,-19.25 190,0 283.25,0 283.25,-19.25"/>
<text text-anchor="middle" x="236.62" y="-5.75" font-family="Helvetica,sans-Serif" font-size="10.00">test_common.cpp</text>
</a>
</g>
</g>
<!-- Node1&#45;&gt;Node5 -->
<g id="edge4_Node000001_Node000005" class="edge">
<title>Node1&#45;&gt;Node5</title>
<g id="a_edge4_Node000001_Node000005"><a xlink:title=" ">
<path fill="none" stroke="#63b8ff" d="M229.47,-99.41C226.71,-91.77 223.99,-82.86 222.62,-74.5 219.4,-54.78 227.23,-31.98 232.43,-19.66"/>
<polygon fill="#63b8ff" stroke="#63b8ff" points="226.19,-100.65 233.08,-108.71 232.72,-98.12 226.19,-100.65"/>
</a>
</g>
</g>
<!-- Node6 -->
<g id="Node000006" class="node">
<title>Node6</title>
<g id="a_Node000006"><a xlink:href="test__common_8h.xhtml" target="_top" xlink:title=" ">
<polygon fill="white" stroke="#666666" points="314,-74.5 231.25,-74.5 231.25,-55.25 314,-55.25 314,-74.5"/>
<text text-anchor="middle" x="272.62" y="-61" font-family="Helvetica,sans-Serif" font-size="10.00">test_common.h</text>
</a>
</g>
</g>
<!-- Node1&#45;&gt;Node6 -->
<g id="edge5_Node000001_Node000006" class="edge">
<title>Node1&#45;&gt;Node6</title>
<g id="a_edge5_Node000001_Node000006"><a xlink:title=" ">
<path fill="none" stroke="#63b8ff" d="M249.6,-100.9C255.38,-92.11 262.05,-81.96 266.72,-74.86"/>
<polygon fill="#63b8ff" stroke="#63b8ff" points="246.8,-98.79 244.24,-109.07 252.65,-102.63 246.8,-98.79"/>
</a>
</g>
</g>
<!-- Node7 -->
<g id="Node000007" class="node">
<title>Node7</title>
<g id="a_Node000007"><a xlink:href="test__logic_8cpp.xhtml" target="_top" xlink:title=" ">
<polygon fill="white" stroke="#666666" points="378.62,-19.25 302.62,-19.25 302.62,0 378.62,0 378.62,-19.25"/>
<text text-anchor="middle" x="340.62" y="-5.75" font-family="Helvetica,sans-Serif" font-size="10.00">test_logic.cpp</text>
</a>
</g>
</g>
<!-- Node1&#45;&gt;Node7 -->
<g id="edge8_Node000001_Node000007" class="edge">
<title>Node1&#45;&gt;Node7</title>
<g id="a_edge8_Node000001_Node000007"><a xlink:title=" ">
<path fill="none" stroke="#63b8ff" d="M278.61,-105.66C294.37,-98.62 311.29,-88.49 322.62,-74.5 335.83,-58.21 339.35,-32.8 340.29,-19.47"/>
<polygon fill="#63b8ff" stroke="#63b8ff" points="277.28,-102.42 269.37,-109.47 279.95,-108.9 277.28,-102.42"/>
</a>
</g>
</g>
<!-- Node8 -->
<g id="Node000008" class="node">
<title>Node8</title>
<g id="a_Node000008"><a xlink:href="test__mqtt_8cpp.xhtml" target="_top" xlink:title=" ">
<polygon fill="white" stroke="#666666" points="445.25,-74.5 370,-74.5 370,-55.25 445.25,-55.25 445.25,-74.5"/>
<text text-anchor="middle" x="407.62" y="-61" font-family="Helvetica,sans-Serif" font-size="10.00">test_mqtt.cpp</text>
</a>
</g>
</g>
<!-- Node1&#45;&gt;Node8 -->
<g id="edge9_Node000001_Node000008" class="edge">
<title>Node1&#45;&gt;Node8</title>
<g id="a_edge9_Node000001_Node000008"><a xlink:title=" ">
<path fill="none" stroke="#63b8ff" d="M277.33,-106.69C308.36,-96.97 350.75,-83.69 378.65,-74.95"/>
<polygon fill="#63b8ff" stroke="#63b8ff" points="276.4,-103.31 267.91,-109.64 278.5,-109.99 276.4,-103.31"/>
</a>
</g>
</g>
<!-- Node4 -->
<g id="Node000004" class="node">
<title>Node4</title>
<g id="a_Node000004"><a xlink:href="main_8cpp.xhtml" target="_top" xlink:title=" ">
<polygon fill="white" stroke="#666666" points="171.12,-19.25 116.12,-19.25 116.12,0 171.12,0 171.12,-19.25"/>
<text text-anchor="middle" x="143.62" y="-5.75" font-family="Helvetica,sans-Serif" font-size="10.00">main.cpp</text>
</a>
</g>
</g>
<!-- Node3&#45;&gt;Node4 -->
<g id="edge3_Node000003_Node000004" class="edge">
<title>Node3&#45;&gt;Node4</title>
<g id="a_edge3_Node000003_Node000004"><a xlink:title=" ">
<path fill="none" stroke="#63b8ff" d="M143.62,-43.63C143.62,-35.34 143.62,-26.17 143.62,-19.61"/>
<polygon fill="#63b8ff" stroke="#63b8ff" points="140.13,-43.57 143.63,-53.57 147.13,-43.57 140.13,-43.57"/>
</a>
</g>
</g>
<!-- Node6&#45;&gt;Node5 -->
<g id="edge6_Node000006_Node000005" class="edge">
<title>Node6&#45;&gt;Node5</title>
<g id="a_edge6_Node000006_Node000005"><a xlink:title=" ">
<path fill="none" stroke="#63b8ff" d="M260.31,-45.65C254.36,-36.86 247.5,-26.71 242.7,-19.61"/>
<polygon fill="#63b8ff" stroke="#63b8ff" points="257.33,-47.5 265.83,-53.83 263.13,-43.58 257.33,-47.5"/>
</a>
</g>
</g>
<!-- Node6&#45;&gt;Node7 -->
<g id="edge7_Node000006_Node000007" class="edge">
<title>Node6&#45;&gt;Node7</title>
<g id="a_edge7_Node000006_Node000007"><a xlink:title=" ">
<path fill="none" stroke="#63b8ff" d="M292.97,-47.94C304.85,-38.64 319.39,-27.26 329.26,-19.52"/>
<polygon fill="#63b8ff" stroke="#63b8ff" points="291.07,-44.99 285.35,-53.91 295.38,-50.5 291.07,-44.99"/>
</a>
</g>
</g>
</g>
</svg>
</svg>

<style type='text/css'>
<![CDATA[
[data-mouse-over-selected='false'] { opacity: 0.7; }
[data-mouse-over-selected='true']  { opacity: 1.0; }
]]>
</style>
<script type="application/ecmascript"><![CDATA[
document.addEventListener('DOMContentLoaded', (event) => {
  highlightEdges();
  highlightAdjacentNodes();
});
]]></script>
</svg>
