<?xml version="1.0" encoding="UTF-8" standalone="no"?>
<!DOCTYPE svg PUBLIC "-//W3C//DTD SVG 1.1//EN"
 "http://www.w3.org/Graphics/SVG/1.1/DTD/svg11.dtd">
<!-- Generated by graphviz version 9.0.0 (20230911.1827)
 -->
<!-- Title: Mrfc522Driver.hpp Pages: 1 -->
<svg width="1319pt" height="304pt"
 viewBox="0.00 0.00 1318.50 303.50" xmlns="http://www.w3.org/2000/svg" xmlns:xlink="http://www.w3.org/1999/xlink">
<g id="graph0" class="graph" transform="scale(1 1) rotate(0) translate(4 299.5)">
<title>Mrfc522Driver.hpp</title>
<!-- Node1 -->
<g id="Node000001" class="node">
<title>Node1</title>
<g id="a_Node000001"><a xlink:title=" ">
<polygon fill="#999999" stroke="#666666" points="842.12,-295.5 747.38,-295.5 747.38,-276.25 842.12,-276.25 842.12,-295.5"/>
<text text-anchor="middle" x="794.75" y="-282" font-family="Helvetica,sans-Serif" font-size="10.00">Mrfc522Driver.hpp</text>
</a>
</g>
</g>
<!-- Node2 -->
<g id="Node000002" class="node">
<title>Node2</title>
<g id="a_Node000002"><a xlink:title=" ">
<polygon fill="#e0e0e0" stroke="#999999" points="770,-129.75 713.5,-129.75 713.5,-110.5 770,-110.5 770,-129.75"/>
<text text-anchor="middle" x="741.75" y="-116.25" font-family="Helvetica,sans-Serif" font-size="10.00">Arduino.h</text>
</a>
</g>
</g>
<!-- Node1&#45;&gt;Node2 -->
<g id="edge1_Node000001_Node000002" class="edge">
<title>Node1&#45;&gt;Node2</title>
<g id="a_edge1_Node000001_Node000002"><a xlink:title=" ">
<path fill="none" stroke="#63b8ff" d="M785.67,-275.83C777.76,-267.39 766.65,-254.04 760.75,-240.25 746.77,-207.61 742.98,-165.96 742,-141.55"/>
<polygon fill="#63b8ff" stroke="#63b8ff" points="745.51,-141.62 741.75,-131.72 738.51,-141.8 745.51,-141.62"/>
</a>
</g>
</g>
<!-- Node3 -->
<g id="Node000003" class="node">
<title>Node3</title>
<g id="a_Node000003"><a xlink:title=" ">
<polygon fill="#e0e0e0" stroke="#999999" points="820,-240.25 769.5,-240.25 769.5,-221 820,-221 820,-240.25"/>
<text text-anchor="middle" x="794.75" y="-226.75" font-family="Helvetica,sans-Serif" font-size="10.00">memory</text>
</a>
</g>
</g>
<!-- Node1&#45;&gt;Node3 -->
<g id="edge2_Node000001_Node000003" class="edge">
<title>Node1&#45;&gt;Node3</title>
<g id="a_edge2_Node000001_Node000003"><a xlink:title=" ">
<path fill="none" stroke="#63b8ff" d="M794.75,-276.08C794.75,-269.57 794.75,-260.42 794.75,-252.12"/>
<polygon fill="#63b8ff" stroke="#63b8ff" points="798.25,-252.12 794.75,-242.12 791.25,-252.12 798.25,-252.12"/>
</a>
</g>
</g>
<!-- Node4 -->
<g id="Node000004" class="node">
<title>Node4</title>
<g id="a_Node000004"><a xlink:title=" ">
<polygon fill="#e0e0e0" stroke="#999999" points="281.25,-129.75 244.25,-129.75 244.25,-110.5 281.25,-110.5 281.25,-129.75"/>
<text text-anchor="middle" x="262.75" y="-116.25" font-family="Helvetica,sans-Serif" font-size="10.00">array</text>
</a>
</g>
</g>
<!-- Node1&#45;&gt;Node4 -->
<g id="edge3_Node000001_Node000004" class="edge">
<title>Node1&#45;&gt;Node4</title>
<g id="a_edge3_Node000001_Node000004"><a xlink:title=" ">
<path fill="none" stroke="#63b8ff" d="M747.12,-283.55C677.2,-280.58 543.18,-271.02 433.75,-240.25 376.45,-224.14 358.37,-222 311.75,-185 295.87,-172.4 282.26,-153.57 273.44,-139.62"/>
<polygon fill="#63b8ff" stroke="#63b8ff" points="276.62,-138.13 268.45,-131.38 270.64,-141.75 276.62,-138.13"/>
</a>
</g>
</g>
<!-- Node5 -->
<g id="Node000005" class="node">
<title>Node5</title>
<g id="a_Node000005"><a xlink:href="_fab_user_8hpp.xhtml" target="_top" xlink:title=" ">
<polygon fill="white" stroke="#666666" points="514.5,-240.25 443,-240.25 443,-221 514.5,-221 514.5,-240.25"/>
<text text-anchor="middle" x="478.75" y="-226.75" font-family="Helvetica,sans-Serif" font-size="10.00">FabUser.hpp</text>
</a>
</g>
</g>
<!-- Node1&#45;&gt;Node5 -->
<g id="edge4_Node000001_Node000005" class="edge">
<title>Node1&#45;&gt;Node5</title>
<g id="a_edge4_Node000001_Node000005"><a xlink:title=" ">
<path fill="none" stroke="#63b8ff" d="M747.1,-276.85C687.45,-266.79 585.9,-249.68 526.3,-239.64"/>
<polygon fill="#63b8ff" stroke="#63b8ff" points="526.9,-236.19 516.46,-237.98 525.74,-243.09 526.9,-236.19"/>
</a>
</g>
</g>
<!-- Node17 -->
<g id="Node000017" class="node">
<title>Node17</title>
<g id="a_Node000017"><a xlink:title=" ">
<polygon fill="#e0e0e0" stroke="#999999" points="933.12,-240.25 838.38,-240.25 838.38,-221 933.12,-221 933.12,-240.25"/>
<text text-anchor="middle" x="885.75" y="-226.75" font-family="Helvetica,sans-Serif" font-size="10.00">MFRC522Debug.h</text>
</a>
</g>
</g>
<!-- Node1&#45;&gt;Node17 -->
<g id="edge24_Node000001_Node000017" class="edge">
<title>Node1&#45;&gt;Node17</title>
<g id="a_edge24_Node000001_Node000017"><a xlink:title=" ">
<path fill="none" stroke="#63b8ff" d="M810.19,-275.84C823.91,-267.81 844.25,-255.91 860.37,-246.48"/>
<polygon fill="#63b8ff" stroke="#63b8ff" points="862.07,-249.54 868.93,-241.47 858.53,-243.5 862.07,-249.54"/>
</a>
</g>
</g>
<!-- Node18 -->
<g id="Node000018" class="node">
<title>Node18</title>
<g id="a_Node000018"><a xlink:title=" ">
<polygon fill="#e0e0e0" stroke="#999999" points="1088.12,-240.25 951.38,-240.25 951.38,-221 1088.12,-221 1088.12,-240.25"/>
<text text-anchor="middle" x="1019.75" y="-226.75" font-family="Helvetica,sans-Serif" font-size="10.00">MFRC522DriverPinSimple.h</text>
</a>
</g>
</g>
<!-- Node1&#45;&gt;Node18 -->
<g id="edge25_Node000001_Node000018" class="edge">
<title>Node1&#45;&gt;Node18</title>
<g id="a_edge25_Node000001_Node000018"><a xlink:title=" ">
<path fill="none" stroke="#63b8ff" d="M833.17,-275.78C871.03,-266.82 929.04,-253.09 970.32,-243.32"/>
<polygon fill="#63b8ff" stroke="#63b8ff" points="971.09,-246.74 980.01,-241.03 969.48,-239.93 971.09,-246.74"/>
</a>
</g>
</g>
<!-- Node19 -->
<g id="Node000019" class="node">
<title>Node19</title>
<g id="a_Node000019"><a xlink:title=" ">
<polygon fill="#e0e0e0" stroke="#999999" points="1215.25,-240.25 1106.25,-240.25 1106.25,-221 1215.25,-221 1215.25,-240.25"/>
<text text-anchor="middle" x="1160.75" y="-226.75" font-family="Helvetica,sans-Serif" font-size="10.00">MFRC522DriverSPI.h</text>
</a>
</g>
</g>
<!-- Node1&#45;&gt;Node19 -->
<g id="edge26_Node000001_Node000019" class="edge">
<title>Node1&#45;&gt;Node19</title>
<g id="a_edge26_Node000001_Node000019"><a xlink:title=" ">
<path fill="none" stroke="#63b8ff" d="M842.6,-277.91C907.06,-268.53 1022.09,-251.8 1094.74,-241.23"/>
<polygon fill="#63b8ff" stroke="#63b8ff" points="1095.14,-244.71 1104.53,-239.8 1094.13,-237.78 1095.14,-244.71"/>
</a>
</g>
</g>
<!-- Node20 -->
<g id="Node000020" class="node">
<title>Node20</title>
<g id="a_Node000020"><a xlink:title=" ">
<polygon fill="#e0e0e0" stroke="#999999" points="1310.5,-240.25 1233,-240.25 1233,-221 1310.5,-221 1310.5,-240.25"/>
<text text-anchor="middle" x="1271.75" y="-226.75" font-family="Helvetica,sans-Serif" font-size="10.00">MFRC522v2.h</text>
</a>
</g>
</g>
<!-- Node1&#45;&gt;Node20 -->
<g id="edge27_Node000001_Node000020" class="edge">
<title>Node1&#45;&gt;Node20</title>
<g id="a_edge27_Node000001_Node000020"><a xlink:title=" ">
<path fill="none" stroke="#63b8ff" d="M842.62,-281.14C920.17,-274.81 1078.27,-260.8 1221.4,-240.64"/>
<polygon fill="#63b8ff" stroke="#63b8ff" points="1221.64,-244.14 1231.05,-239.27 1220.66,-237.21 1221.64,-244.14"/>
</a>
</g>
</g>
<!-- Node21 -->
<g id="Node000021" class="node">
<title>Node21</title>
<g id="a_Node000021"><a xlink:href="pins_8hpp.xhtml" target="_top" xlink:title=" ">
<polygon fill="white" stroke="#666666" points="189.75,-240.25 137.75,-240.25 137.75,-221 189.75,-221 189.75,-240.25"/>
<text text-anchor="middle" x="163.75" y="-226.75" font-family="Helvetica,sans-Serif" font-size="10.00">pins.hpp</text>
</a>
</g>
</g>
<!-- Node1&#45;&gt;Node21 -->
<g id="edge28_Node000001_Node000021" class="edge">
<title>Node1&#45;&gt;Node21</title>
<g id="a_edge28_Node000001_Node000021"><a xlink:title=" ">
<path fill="none" stroke="#63b8ff" d="M747.15,-281.22C652.67,-273.9 434.75,-256.74 251.75,-240.25 235.18,-238.76 216.87,-236.98 201.26,-235.43"/>
<polygon fill="#63b8ff" stroke="#63b8ff" points="201.73,-231.96 191.43,-234.45 201.03,-238.93 201.73,-231.96"/>
</a>
</g>
</g>
<!-- Node5&#45;&gt;Node2 -->
<g id="edge5_Node000005_Node000002" class="edge">
<title>Node5&#45;&gt;Node2</title>
<g id="a_edge5_Node000005_Node000002"><a xlink:title=" ">
<path fill="none" stroke="#63b8ff" d="M500.72,-220.56C547.04,-201.45 654.88,-156.96 709.22,-134.54"/>
<polygon fill="#63b8ff" stroke="#63b8ff" points="710.35,-137.87 718.26,-130.82 707.68,-131.4 710.35,-137.87"/>
</a>
</g>
</g>
<!-- Node5&#45;&gt;Node4 -->
<g id="edge20_Node000005_Node000004" class="edge">
<title>Node5&#45;&gt;Node4</title>
<g id="a_edge20_Node000005_Node000004"><a xlink:title=" ">
<path fill="none" stroke="#63b8ff" d="M442.7,-221.2C414.92,-213.87 376.09,-201.78 344.75,-185 320.55,-172.04 296.15,-151.92 280.34,-137.74"/>
<polygon fill="#63b8ff" stroke="#63b8ff" points="282.94,-135.37 273.2,-131.19 278.2,-140.53 282.94,-135.37"/>
</a>
</g>
</g>
<!-- Node6 -->
<g id="Node000006" class="node">
<title>Node6</title>
<g id="a_Node000006"><a xlink:href="card_8hpp.xhtml" target="_top" xlink:title=" ">
<polygon fill="white" stroke="#666666" points="538.12,-185 485.38,-185 485.38,-165.75 538.12,-165.75 538.12,-185"/>
<text text-anchor="middle" x="511.75" y="-171.5" font-family="Helvetica,sans-Serif" font-size="10.00">card.hpp</text>
</a>
</g>
</g>
<!-- Node5&#45;&gt;Node6 -->
<g id="edge6_Node000005_Node000006" class="edge">
<title>Node5&#45;&gt;Node6</title>
<g id="a_edge6_Node000005_Node000006"><a xlink:title=" ">
<path fill="none" stroke="#63b8ff" d="M484.2,-220.83C488.52,-213.86 494.71,-203.87 500.13,-195.12"/>
<polygon fill="#63b8ff" stroke="#63b8ff" points="503.09,-196.99 505.39,-186.65 497.14,-193.3 503.09,-196.99"/>
</a>
</g>
</g>
<!-- Node7 -->
<g id="Node000007" class="node">
<title>Node7</title>
<g id="a_Node000007"><a xlink:title=" ">
<polygon fill="#e0e0e0" stroke="#999999" points="459.38,-129.75 408.12,-129.75 408.12,-110.5 459.38,-110.5 459.38,-129.75"/>
<text text-anchor="middle" x="433.75" y="-116.25" font-family="Helvetica,sans-Serif" font-size="10.00">sstream</text>
</a>
</g>
</g>
<!-- Node5&#45;&gt;Node7 -->
<g id="edge22_Node000005_Node000007" class="edge">
<title>Node5&#45;&gt;Node7</title>
<g id="a_edge22_Node000005_Node000007"><a xlink:title=" ">
<path fill="none" stroke="#63b8ff" d="M475.07,-220.75C467.85,-203.34 451.69,-164.37 441.85,-140.66"/>
<polygon fill="#63b8ff" stroke="#63b8ff" points="445.13,-139.42 438.06,-131.52 438.66,-142.1 445.13,-139.42"/>
</a>
</g>
</g>
<!-- Node9 -->
<g id="Node000009" class="node">
<title>Node9</title>
<g id="a_Node000009"><a xlink:href="conf_8hpp.xhtml" target="_top" xlink:title=" ">
<polygon fill="white" stroke="#666666" points="352.12,-129.75 299.38,-129.75 299.38,-110.5 352.12,-110.5 352.12,-129.75"/>
<text text-anchor="middle" x="325.75" y="-116.25" font-family="Helvetica,sans-Serif" font-size="10.00">conf.hpp</text>
</a>
</g>
</g>
<!-- Node5&#45;&gt;Node9 -->
<g id="edge19_Node000005_Node000009" class="edge">
<title>Node5&#45;&gt;Node9</title>
<g id="a_edge19_Node000005_Node000009"><a xlink:title=" ">
<path fill="none" stroke="#63b8ff" d="M442.6,-221.64C418.77,-214.96 387.97,-203.48 365.75,-185 351.45,-173.1 340.69,-154.72 333.96,-140.72"/>
<polygon fill="#63b8ff" stroke="#63b8ff" points="337.16,-139.31 329.87,-131.62 330.77,-142.17 337.16,-139.31"/>
</a>
</g>
</g>
<!-- Node10 -->
<g id="Node000010" class="node">
<title>Node10</title>
<g id="a_Node000010"><a xlink:title=" ">
<polygon fill="#e0e0e0" stroke="#999999" points="243.38,-19.25 198.12,-19.25 198.12,0 243.38,0 243.38,-19.25"/>
<text text-anchor="middle" x="220.75" y="-5.75" font-family="Helvetica,sans-Serif" font-size="10.00">cstdint</text>
</a>
</g>
</g>
<!-- Node5&#45;&gt;Node10 -->
<g id="edge21_Node000005_Node000010" class="edge">
<title>Node5&#45;&gt;Node10</title>
<g id="a_edge21_Node000005_Node000010"><a xlink:title=" ">
<path fill="none" stroke="#63b8ff" d="M514.72,-228.26C608.91,-223.38 850.69,-201.86 778.75,-110.5 713.47,-27.6 366.03,-13.5 254.94,-11.11"/>
<polygon fill="#63b8ff" stroke="#63b8ff" points="255.34,-7.62 245.27,-10.92 255.2,-14.62 255.34,-7.62"/>
</a>
</g>
</g>
<!-- Node11 -->
<g id="Node000011" class="node">
<title>Node11</title>
<g id="a_Node000011"><a xlink:title=" ">
<polygon fill="#e0e0e0" stroke="#999999" points="450.75,-74.5 410.75,-74.5 410.75,-55.25 450.75,-55.25 450.75,-74.5"/>
<text text-anchor="middle" x="430.75" y="-61" font-family="Helvetica,sans-Serif" font-size="10.00">string</text>
</a>
</g>
</g>
<!-- Node5&#45;&gt;Node11 -->
<g id="edge23_Node000005_Node000011" class="edge">
<title>Node5&#45;&gt;Node11</title>
<g id="a_edge23_Node000005_Node000011"><a xlink:title=" ">
<path fill="none" stroke="#63b8ff" d="M467.74,-220.57C449.25,-204.55 412.59,-169.16 398.75,-129.75 392.99,-113.34 403.14,-95.74 413.51,-83.18"/>
<polygon fill="#63b8ff" stroke="#63b8ff" points="416.08,-85.54 420.19,-75.78 410.89,-80.85 416.08,-85.54"/>
</a>
</g>
</g>
<!-- Node6&#45;&gt;Node2 -->
<g id="edge9_Node000006_Node000002" class="edge">
<title>Node6&#45;&gt;Node2</title>
<g id="a_edge9_Node000006_Node000002"><a xlink:title=" ">
<path fill="none" stroke="#63b8ff" d="M538.6,-168.18C573.85,-160.05 637.94,-145.25 701.96,-130.39"/>
<polygon fill="#63b8ff" stroke="#63b8ff" points="702.64,-133.83 711.59,-128.16 701.06,-127.01 702.64,-133.83"/>
</a>
</g>
</g>
<!-- Node6&#45;&gt;Node7 -->
<g id="edge7_Node000006_Node000007" class="edge">
<title>Node6&#45;&gt;Node7</title>
<g id="a_edge7_Node000006_Node000007"><a xlink:title=" ">
<path fill="none" stroke="#63b8ff" d="M498.52,-165.34C486.98,-157.46 469.98,-145.86 456.3,-136.52"/>
<polygon fill="#63b8ff" stroke="#63b8ff" points="458.53,-133.8 448.3,-131.06 454.58,-139.58 458.53,-133.8"/>
</a>
</g>
</g>
<!-- Node8 -->
<g id="Node000008" class="node">
<title>Node8</title>
<g id="a_Node000008"><a xlink:title=" ">
<polygon fill="#e0e0e0" stroke="#999999" points="613.62,-129.75 563.88,-129.75 563.88,-110.5 613.62,-110.5 613.62,-129.75"/>
<text text-anchor="middle" x="588.75" y="-116.25" font-family="Helvetica,sans-Serif" font-size="10.00">iomanip</text>
</a>
</g>
</g>
<!-- Node6&#45;&gt;Node8 -->
<g id="edge8_Node000006_Node000008" class="edge">
<title>Node6&#45;&gt;Node8</title>
<g id="a_edge8_Node000006_Node000008"><a xlink:title=" ">
<path fill="none" stroke="#63b8ff" d="M524.81,-165.34C536.21,-157.46 552.98,-145.86 566.49,-136.52"/>
<polygon fill="#63b8ff" stroke="#63b8ff" points="568.15,-139.63 574.38,-131.06 564.16,-133.87 568.15,-139.63"/>
</a>
</g>
</g>
<!-- Node6&#45;&gt;Node9 -->
<g id="edge10_Node000006_Node000009" class="edge">
<title>Node6&#45;&gt;Node9</title>
<g id="a_edge10_Node000006_Node000009"><a xlink:title=" ">
<path fill="none" stroke="#63b8ff" d="M485.1,-166.75C453.2,-157.61 399.55,-142.25 363.42,-131.91"/>
<polygon fill="#63b8ff" stroke="#63b8ff" points="364.38,-128.54 353.8,-129.16 362.46,-135.27 364.38,-128.54"/>
</a>
</g>
</g>
<!-- Node14 -->
<g id="Node000014" class="node">
<title>Node14</title>
<g id="a_Node000014"><a xlink:href="_logging_8hpp.xhtml" target="_top" xlink:title=" ">
<polygon fill="white" stroke="#666666" points="546,-129.75 477.5,-129.75 477.5,-110.5 546,-110.5 546,-129.75"/>
<text text-anchor="middle" x="511.75" y="-116.25" font-family="Helvetica,sans-Serif" font-size="10.00">Logging.hpp</text>
</a>
</g>
</g>
<!-- Node6&#45;&gt;Node14 -->
<g id="edge16_Node000006_Node000014" class="edge">
<title>Node6&#45;&gt;Node14</title>
<g id="a_edge16_Node000006_Node000014"><a xlink:title=" ">
<path fill="none" stroke="#63b8ff" d="M511.75,-165.58C511.75,-159.07 511.75,-149.92 511.75,-141.62"/>
<polygon fill="#63b8ff" stroke="#63b8ff" points="515.25,-141.62 511.75,-131.62 508.25,-141.62 515.25,-141.62"/>
</a>
</g>
</g>
<!-- Node16 -->
<g id="Node000016" class="node">
<title>Node16</title>
<g id="a_Node000016"><a xlink:title=" ">
<polygon fill="#e0e0e0" stroke="#999999" points="695.38,-129.75 632.12,-129.75 632.12,-110.5 695.38,-110.5 695.38,-129.75"/>
<text text-anchor="middle" x="663.75" y="-116.25" font-family="Helvetica,sans-Serif" font-size="10.00">esp_mac.h</text>
</a>
</g>
</g>
<!-- Node6&#45;&gt;Node16 -->
<g id="edge18_Node000006_Node000016" class="edge">
<title>Node6&#45;&gt;Node16</title>
<g id="a_edge18_Node000006_Node000016"><a xlink:title=" ">
<path fill="none" stroke="#63b8ff" d="M537.53,-165.34C562.1,-156.74 599.34,-143.69 627.01,-134"/>
<polygon fill="#63b8ff" stroke="#63b8ff" points="628.13,-137.31 636.41,-130.7 625.82,-130.71 628.13,-137.31"/>
</a>
</g>
</g>
<!-- Node9&#45;&gt;Node10 -->
<g id="edge11_Node000009_Node000010" class="edge">
<title>Node9&#45;&gt;Node10</title>
<g id="a_edge11_Node000009_Node000010"><a xlink:title=" ">
<path fill="none" stroke="#63b8ff" d="M299.23,-111.55C280.11,-104.79 255.07,-93.04 239.75,-74.5 229.48,-62.07 224.76,-44.25 222.59,-30.59"/>
<polygon fill="#63b8ff" stroke="#63b8ff" points="226.11,-30.48 221.42,-20.98 219.16,-31.34 226.11,-30.48"/>
</a>
</g>
</g>
<!-- Node9&#45;&gt;Node11 -->
<g id="edge12_Node000009_Node000011" class="edge">
<title>Node9&#45;&gt;Node11</title>
<g id="a_edge12_Node000009_Node000011"><a xlink:title=" ">
<path fill="none" stroke="#63b8ff" d="M343.56,-110.09C359.78,-101.87 383.99,-89.59 402.78,-80.06"/>
<polygon fill="#63b8ff" stroke="#63b8ff" points="404.17,-83.28 411.5,-75.64 401,-77.04 404.17,-83.28"/>
</a>
</g>
</g>
<!-- Node12 -->
<g id="Node000012" class="node">
<title>Node12</title>
<g id="a_Node000012"><a xlink:title=" ">
<polygon fill="#e0e0e0" stroke="#999999" points="392.38,-74.5 347.12,-74.5 347.12,-55.25 392.38,-55.25 392.38,-74.5"/>
<text text-anchor="middle" x="369.75" y="-61" font-family="Helvetica,sans-Serif" font-size="10.00">chrono</text>
</a>
</g>
</g>
<!-- Node9&#45;&gt;Node12 -->
<g id="edge13_Node000009_Node000012" class="edge">
<title>Node9&#45;&gt;Node12</title>
<g id="a_edge13_Node000009_Node000012"><a xlink:title=" ">
<path fill="none" stroke="#63b8ff" d="M333.02,-110.33C339.03,-103.05 347.76,-92.48 355.21,-83.48"/>
<polygon fill="#63b8ff" stroke="#63b8ff" points="357.69,-85.96 361.36,-76.03 352.29,-81.51 357.69,-85.96"/>
</a>
</g>
</g>
<!-- Node13 -->
<g id="Node000013" class="node">
<title>Node13</title>
<g id="a_Node000013"><a xlink:href="_machine_i_d_8hpp.xhtml" target="_top" xlink:title=" ">
<polygon fill="white" stroke="#666666" points="329,-74.5 248.5,-74.5 248.5,-55.25 329,-55.25 329,-74.5"/>
<text text-anchor="middle" x="288.75" y="-61" font-family="Helvetica,sans-Serif" font-size="10.00">MachineID.hpp</text>
</a>
</g>
</g>
<!-- Node9&#45;&gt;Node13 -->
<g id="edge14_Node000009_Node000013" class="edge">
<title>Node9&#45;&gt;Node13</title>
<g id="a_edge14_Node000009_Node000013"><a xlink:title=" ">
<path fill="none" stroke="#63b8ff" d="M319.64,-110.33C314.69,-103.21 307.55,-92.93 301.38,-84.05"/>
<polygon fill="#63b8ff" stroke="#63b8ff" points="304.44,-82.32 295.86,-76.1 298.69,-86.31 304.44,-82.32"/>
</a>
</g>
</g>
<!-- Node13&#45;&gt;Node10 -->
<g id="edge15_Node000013_Node000010" class="edge">
<title>Node13&#45;&gt;Node10</title>
<g id="a_edge15_Node000013_Node000010"><a xlink:title=" ">
<path fill="none" stroke="#63b8ff" d="M277.21,-54.84C267.29,-47.07 252.74,-35.67 240.89,-26.4"/>
<polygon fill="#63b8ff" stroke="#63b8ff" points="243.34,-23.87 233.31,-20.46 239.02,-29.38 243.34,-23.87"/>
</a>
</g>
</g>
<!-- Node15 -->
<g id="Node000015" class="node">
<title>Node15</title>
<g id="a_Node000015"><a xlink:title=" ">
<polygon fill="#e0e0e0" stroke="#999999" points="540.38,-74.5 483.12,-74.5 483.12,-55.25 540.38,-55.25 540.38,-74.5"/>
<text text-anchor="middle" x="511.75" y="-61" font-family="Helvetica,sans-Serif" font-size="10.00">esp_log.h</text>
</a>
</g>
</g>
<!-- Node14&#45;&gt;Node15 -->
<g id="edge17_Node000014_Node000015" class="edge">
<title>Node14&#45;&gt;Node15</title>
<g id="a_edge17_Node000014_Node000015"><a xlink:title=" ">
<path fill="none" stroke="#63b8ff" d="M511.75,-110.33C511.75,-103.82 511.75,-94.67 511.75,-86.37"/>
<polygon fill="#63b8ff" stroke="#63b8ff" points="515.25,-86.37 511.75,-76.37 508.25,-86.37 515.25,-86.37"/>
</a>
</g>
</g>
<!-- Node21&#45;&gt;Node10 -->
<g id="edge29_Node000021_Node000010" class="edge">
<title>Node21&#45;&gt;Node10</title>
<g id="a_edge29_Node000021_Node000010"><a xlink:title=" ">
<path fill="none" stroke="#63b8ff" d="M159,-220.55C153.14,-208.18 144.43,-185.33 148.75,-165.75 160.33,-113.28 191.52,-57.47 208.81,-29.27"/>
<polygon fill="#63b8ff" stroke="#63b8ff" points="211.74,-31.18 214.08,-20.85 205.8,-27.47 211.74,-31.18"/>
</a>
</g>
</g>
<!-- Node22 -->
<g id="Node000022" class="node">
<title>Node22</title>
<g id="a_Node000022"><a xlink:title=" ">
<polygon fill="#e0e0e0" stroke="#999999" points="101.5,-185 0,-185 0,-165.75 101.5,-165.75 101.5,-185"/>
<text text-anchor="middle" x="50.75" y="-171.5" font-family="Helvetica,sans-Serif" font-size="10.00">Adafruit_NeoPixel.h</text>
</a>
</g>
</g>
<!-- Node21&#45;&gt;Node22 -->
<g id="edge30_Node000021_Node000022" class="edge">
<title>Node21&#45;&gt;Node22</title>
<g id="a_edge30_Node000021_Node000022"><a xlink:title=" ">
<path fill="none" stroke="#63b8ff" d="M144.58,-220.59C126.97,-212.29 100.59,-199.86 80.29,-190.29"/>
<polygon fill="#63b8ff" stroke="#63b8ff" points="81.92,-187.19 71.38,-186.1 78.94,-193.53 81.92,-187.19"/>
</a>
</g>
</g>
<!-- Node23 -->
<g id="Node000023" class="node">
<title>Node23</title>
<g id="a_Node000023"><a xlink:href="_pins_config_8hpp.xhtml" target="_top" xlink:title=" ">
<polygon fill="white" stroke="#666666" points="238,-185 157.5,-185 157.5,-165.75 238,-165.75 238,-185"/>
<text text-anchor="middle" x="197.75" y="-171.5" font-family="Helvetica,sans-Serif" font-size="10.00">PinsConfig.hpp</text>
</a>
</g>
</g>
<!-- Node21&#45;&gt;Node23 -->
<g id="edge31_Node000021_Node000023" class="edge">
<title>Node21&#45;&gt;Node23</title>
<g id="a_edge31_Node000021_Node000023"><a xlink:title=" ">
<path fill="none" stroke="#63b8ff" d="M169.36,-220.83C173.87,-213.78 180.34,-203.65 185.96,-194.83"/>
<polygon fill="#63b8ff" stroke="#63b8ff" points="188.77,-196.95 191.2,-186.63 182.87,-193.18 188.77,-196.95"/>
</a>
</g>
</g>
<!-- Node23&#45;&gt;Node4 -->
<g id="edge33_Node000023_Node000004" class="edge">
<title>Node23&#45;&gt;Node4</title>
<g id="a_edge33_Node000023_Node000004"><a xlink:title=" ">
<path fill="none" stroke="#63b8ff" d="M208.78,-165.34C218.17,-157.65 231.9,-146.4 243.16,-137.18"/>
<polygon fill="#63b8ff" stroke="#63b8ff" points="245.2,-140.03 250.72,-130.98 240.76,-134.61 245.2,-140.03"/>
</a>
</g>
</g>
<!-- Node23&#45;&gt;Node10 -->
<g id="edge32_Node000023_Node000010" class="edge">
<title>Node23&#45;&gt;Node10</title>
<g id="a_edge32_Node000023_Node000010"><a xlink:title=" ">
<path fill="none" stroke="#63b8ff" d="M198.99,-165.57C202.54,-140.25 212.87,-66.75 217.91,-30.84"/>
<polygon fill="#63b8ff" stroke="#63b8ff" points="221.37,-31.36 219.3,-20.97 214.44,-30.39 221.37,-31.36"/>
</a>
</g>
</g>
</g>
</svg>
