<?xml version="1.0" encoding="UTF-8" standalone="no"?>
<!DOCTYPE svg PUBLIC "-//W3C//DTD SVG 1.1//EN"
 "http://www.w3.org/Graphics/SVG/1.1/DTD/svg11.dtd">
<!-- Generated by graphviz version 9.0.0 (20230911.1827)
 -->
<!-- Title: Mrfc522Driver.hpp Pages: 1 -->
<!--zoomable 304 -->

<svg id="main" version="1.1" xmlns="http://www.w3.org/2000/svg" xmlns:xlink="http://www.w3.org/1999/xlink" xml:space="preserve" onload="init(evt)">
<style type="text/css"><![CDATA[
.node, .edge {opacity: 0.7;}
.node.selected, .edge.selected {opacity: 1;}
.edge:hover path { stroke: red; }
.edge:hover polygon { stroke: red; fill: red; }
]]></style>

<defs>
  <circle id="rim" cx="0" cy="0" r="7"/>
  <circle id="rim2" cx="0" cy="0" r="3.5"/>
  <g id="zoomPlus">
    <use xlink:href="#rim" fill="#404040"><set attributeName="fill" to="#808080" begin="zoomplus.mouseover" end="zoomplus.mouseout"/></use>
    <path d="M-4,0h8M0,-4v8" fill="none" stroke="white" stroke-width="1.5" pointer-events="none"/>
  </g>
  <g id="zoomMin">
    <use xlink:href="#rim" fill="#404040"><set attributeName="fill" to="#808080" begin="zoomminus.mouseover" end="zoomminus.mouseout"/></use>
    <path d="M-4,0h8" fill="none" stroke="white" stroke-width="1.5" pointer-events="none"/>
  </g>
  <g id="arrowUp" transform="translate(30 24)">
    <use xlink:href="#rim"/>
    <path pointer-events="none" fill="none" stroke="white" stroke-width="1.5" d="M0,-3.0v7 M-2.5,-0.5L0,-3.0L2.5,-0.5"/>
  </g>
  <g id="arrowRight" transform="rotate(90) translate(36 -43)">
    <use xlink:href="#rim"/>
    <path pointer-events="none" fill="none" stroke="white" stroke-width="1.5" d="M0,-3.0v7 M-2.5,-0.5L0,-3.0L2.5,-0.5"/>
  </g>
  <g id="arrowDown" transform="rotate(180) translate(-30 -48)">
    <use xlink:href="#rim"/>
    <path pointer-events="none" fill="none" stroke="white" stroke-width="1.5" d="M0,-3.0v7 M-2.5,-0.5L0,-3.0L2.5,-0.5"/>
  </g>
  <g id="arrowLeft" transform="rotate(270) translate(-36 17)">
    <use xlink:href="#rim"/>
    <path pointer-events="none" fill="none" stroke="white" stroke-width="1.5" d="M0,-3.0v7 M-2.5,-0.5L0,-3.0L2.5,-0.5"/>
  </g>
  <g id="resetDef">
    <use xlink:href="#rim2" fill="#404040"><set attributeName="fill" to="#808080" begin="reset.mouseover" end="reset.mouseout"/></use>
  </g>
</defs>
<script type="application/ecmascript">
var viewWidth = 1147;
var viewHeight = 304;
var sectionId = 'dynsection-0';
</script>
<script type="application/ecmascript" xlink:href="svg.min.js"/>
<svg id="graph" class="graph">
<g id="viewport">
<title>Mrfc522Driver.hpp</title>
<!-- Node1 -->
<g id="Node000001" class="node">
<title>Node1</title>
<g id="a_Node000001"><a xlink:title=" ">
<polygon fill="#999999" stroke="#666666" points="670.62,-295.5 575.88,-295.5 575.88,-276.25 670.62,-276.25 670.62,-295.5"/>
<text text-anchor="middle" x="623.25" y="-282" font-family="Helvetica,sans-Serif" font-size="10.00">Mrfc522Driver.hpp</text>
</a>
</g>
</g>
<!-- Node2 -->
<g id="Node000002" class="node">
<title>Node2</title>
<g id="a_Node000002"><a xlink:title=" ">
<polygon fill="#e0e0e0" stroke="#999999" points="56.5,-129.75 0,-129.75 0,-110.5 56.5,-110.5 56.5,-129.75"/>
<text text-anchor="middle" x="28.25" y="-116.25" font-family="Helvetica,sans-Serif" font-size="10.00">Arduino.h</text>
</a>
</g>
</g>
<!-- Node1&#45;&gt;Node2 -->
<g id="edge1_Node000001_Node000002" class="edge">
<title>Node1&#45;&gt;Node2</title>
<g id="a_edge1_Node000001_Node000002"><a xlink:title=" ">
<path fill="none" stroke="#63b8ff" d="M575.45,-282.35C484.65,-276.03 282.61,-254.65 129.25,-185 99.97,-171.7 69.13,-151.09 49.34,-136.9"/>
<polygon fill="#63b8ff" stroke="#63b8ff" points="51.43,-134.1 41.29,-131.03 47.31,-139.75 51.43,-134.1"/>
</a>
</g>
</g>
<!-- Node3 -->
<g id="Node000003" class="node">
<title>Node3</title>
<g id="a_Node000003"><a xlink:title=" ">
<polygon fill="#e0e0e0" stroke="#999999" points="648.5,-240.25 598,-240.25 598,-221 648.5,-221 648.5,-240.25"/>
<text text-anchor="middle" x="623.25" y="-226.75" font-family="Helvetica,sans-Serif" font-size="10.00">memory</text>
</a>
</g>
</g>
<!-- Node1&#45;&gt;Node3 -->
<g id="edge2_Node000001_Node000003" class="edge">
<title>Node1&#45;&gt;Node3</title>
<g id="a_edge2_Node000001_Node000003"><a xlink:title=" ">
<path fill="none" stroke="#63b8ff" d="M623.25,-276.08C623.25,-269.57 623.25,-260.42 623.25,-252.12"/>
<polygon fill="#63b8ff" stroke="#63b8ff" points="626.75,-252.12 623.25,-242.12 619.75,-252.12 626.75,-252.12"/>
</a>
</g>
</g>
<!-- Node4 -->
<g id="Node000004" class="node">
<title>Node4</title>
<g id="a_Node000004"><a xlink:title=" ">
<polygon fill="#e0e0e0" stroke="#999999" points="511.75,-129.75 474.75,-129.75 474.75,-110.5 511.75,-110.5 511.75,-129.75"/>
<text text-anchor="middle" x="493.25" y="-116.25" font-family="Helvetica,sans-Serif" font-size="10.00">array</text>
</a>
</g>
</g>
<!-- Node1&#45;&gt;Node4 -->
<g id="edge3_Node000001_Node000004" class="edge">
<title>Node1&#45;&gt;Node4</title>
<g id="a_edge3_Node000001_Node000004"><a xlink:title=" ">
<path fill="none" stroke="#63b8ff" d="M578.83,-275.79C557.85,-269.28 534.2,-258.36 519.25,-240.25 495.85,-211.9 492.23,-167.2 492.33,-141.37"/>
<polygon fill="#63b8ff" stroke="#63b8ff" points="495.82,-141.67 492.58,-131.58 488.82,-141.49 495.82,-141.67"/>
</a>
</g>
</g>
<!-- Node5 -->
<g id="Node000005" class="node">
<title>Node5</title>
<g id="a_Node000005"><a xlink:href="_fab_user_8hpp.xhtml" target="_top" xlink:title=" ">
<polygon fill="white" stroke="#666666" points="396,-240.25 324.5,-240.25 324.5,-221 396,-221 396,-240.25"/>
<text text-anchor="middle" x="360.25" y="-226.75" font-family="Helvetica,sans-Serif" font-size="10.00">FabUser.hpp</text>
</a>
</g>
</g>
<!-- Node1&#45;&gt;Node5 -->
<g id="edge4_Node000001_Node000005" class="edge">
<title>Node1&#45;&gt;Node5</title>
<g id="a_edge4_Node000001_Node000005"><a xlink:title=" ">
<path fill="none" stroke="#63b8ff" d="M578.34,-275.78C530.66,-266.13 455.66,-250.94 407.22,-241.13"/>
<polygon fill="#63b8ff" stroke="#63b8ff" points="408.09,-237.74 397.59,-239.19 406.7,-244.6 408.09,-237.74"/>
</a>
</g>
</g>
<!-- Node16 -->
<g id="Node000016" class="node">
<title>Node16</title>
<g id="a_Node000016"><a xlink:title=" ">
<polygon fill="#e0e0e0" stroke="#999999" points="761.62,-240.25 666.88,-240.25 666.88,-221 761.62,-221 761.62,-240.25"/>
<text text-anchor="middle" x="714.25" y="-226.75" font-family="Helvetica,sans-Serif" font-size="10.00">MFRC522Debug.h</text>
</a>
</g>
</g>
<!-- Node1&#45;&gt;Node16 -->
<g id="edge23_Node000001_Node000016" class="edge">
<title>Node1&#45;&gt;Node16</title>
<g id="a_edge23_Node000001_Node000016"><a xlink:title=" ">
<path fill="none" stroke="#63b8ff" d="M638.69,-275.84C652.41,-267.81 672.75,-255.91 688.87,-246.48"/>
<polygon fill="#63b8ff" stroke="#63b8ff" points="690.57,-249.54 697.43,-241.47 687.03,-243.5 690.57,-249.54"/>
</a>
</g>
</g>
<!-- Node17 -->
<g id="Node000017" class="node">
<title>Node17</title>
<g id="a_Node000017"><a xlink:title=" ">
<polygon fill="#e0e0e0" stroke="#999999" points="916.62,-240.25 779.88,-240.25 779.88,-221 916.62,-221 916.62,-240.25"/>
<text text-anchor="middle" x="848.25" y="-226.75" font-family="Helvetica,sans-Serif" font-size="10.00">MFRC522DriverPinSimple.h</text>
</a>
</g>
</g>
<!-- Node1&#45;&gt;Node17 -->
<g id="edge24_Node000001_Node000017" class="edge">
<title>Node1&#45;&gt;Node17</title>
<g id="a_edge24_Node000001_Node000017"><a xlink:title=" ">
<path fill="none" stroke="#63b8ff" d="M661.67,-275.78C699.53,-266.82 757.54,-253.09 798.82,-243.32"/>
<polygon fill="#63b8ff" stroke="#63b8ff" points="799.59,-246.74 808.51,-241.03 797.98,-239.93 799.59,-246.74"/>
</a>
</g>
</g>
<!-- Node18 -->
<g id="Node000018" class="node">
<title>Node18</title>
<g id="a_Node000018"><a xlink:title=" ">
<polygon fill="#e0e0e0" stroke="#999999" points="1043.75,-240.25 934.75,-240.25 934.75,-221 1043.75,-221 1043.75,-240.25"/>
<text text-anchor="middle" x="989.25" y="-226.75" font-family="Helvetica,sans-Serif" font-size="10.00">MFRC522DriverSPI.h</text>
</a>
</g>
</g>
<!-- Node1&#45;&gt;Node18 -->
<g id="edge25_Node000001_Node000018" class="edge">
<title>Node1&#45;&gt;Node18</title>
<g id="a_edge25_Node000001_Node000018"><a xlink:title=" ">
<path fill="none" stroke="#63b8ff" d="M671.1,-277.91C735.56,-268.53 850.59,-251.8 923.24,-241.23"/>
<polygon fill="#63b8ff" stroke="#63b8ff" points="923.64,-244.71 933.03,-239.8 922.63,-237.78 923.64,-244.71"/>
</a>
</g>
</g>
<!-- Node19 -->
<g id="Node000019" class="node">
<title>Node19</title>
<g id="a_Node000019"><a xlink:title=" ">
<polygon fill="#e0e0e0" stroke="#999999" points="1139,-240.25 1061.5,-240.25 1061.5,-221 1139,-221 1139,-240.25"/>
<text text-anchor="middle" x="1100.25" y="-226.75" font-family="Helvetica,sans-Serif" font-size="10.00">MFRC522v2.h</text>
</a>
</g>
</g>
<!-- Node1&#45;&gt;Node19 -->
<g id="edge26_Node000001_Node000019" class="edge">
<title>Node1&#45;&gt;Node19</title>
<g id="a_edge26_Node000001_Node000019"><a xlink:title=" ">
<path fill="none" stroke="#63b8ff" d="M671.12,-281.14C748.67,-274.81 906.77,-260.8 1049.9,-240.64"/>
<polygon fill="#63b8ff" stroke="#63b8ff" points="1050.14,-244.14 1059.55,-239.27 1049.16,-237.21 1050.14,-244.14"/>
</a>
</g>
</g>
<!-- Node20 -->
<g id="Node000020" class="node">
<title>Node20</title>
<g id="a_Node000020"><a xlink:href="pins_8hpp.xhtml" target="_top" xlink:title=" ">
<polygon fill="white" stroke="#666666" points="580.25,-240.25 528.25,-240.25 528.25,-221 580.25,-221 580.25,-240.25"/>
<text text-anchor="middle" x="554.25" y="-226.75" font-family="Helvetica,sans-Serif" font-size="10.00">pins.hpp</text>
</a>
</g>
</g>
<!-- Node1&#45;&gt;Node20 -->
<g id="edge27_Node000001_Node000020" class="edge">
<title>Node1&#45;&gt;Node20</title>
<g id="a_edge27_Node000001_Node000020"><a xlink:title=" ">
<path fill="none" stroke="#63b8ff" d="M611.55,-275.84C601.47,-268.07 586.71,-256.67 574.69,-247.4"/>
<polygon fill="#63b8ff" stroke="#63b8ff" points="577.04,-244.79 566.98,-241.45 572.76,-250.33 577.04,-244.79"/>
</a>
</g>
</g>
<!-- Node5&#45;&gt;Node2 -->
<g id="edge5_Node000005_Node000002" class="edge">
<title>Node5&#45;&gt;Node2</title>
<g id="a_edge5_Node000005_Node000002"><a xlink:title=" ">
<path fill="none" stroke="#63b8ff" d="M324.31,-221.97C288.64,-214.03 232.6,-200.59 185.25,-185 139.99,-170.1 89.18,-148.5 57.95,-134.63"/>
<polygon fill="#63b8ff" stroke="#63b8ff" points="59.69,-131.58 49.14,-130.69 56.83,-137.97 59.69,-131.58"/>
</a>
</g>
</g>
<!-- Node5&#45;&gt;Node4 -->
<g id="edge19_Node000005_Node000004" class="edge">
<title>Node5&#45;&gt;Node4</title>
<g id="a_edge19_Node000005_Node000004"><a xlink:title=" ">
<path fill="none" stroke="#63b8ff" d="M377.08,-220.57C391.96,-212.22 413.94,-199.02 431.25,-185 448.81,-170.78 466.55,-151.96 478.52,-138.44"/>
<polygon fill="#63b8ff" stroke="#63b8ff" points="480.9,-141.03 484.82,-131.18 475.62,-136.43 480.9,-141.03"/>
</a>
</g>
</g>
<!-- Node6 -->
<g id="Node000006" class="node">
<title>Node6</title>
<g id="a_Node000006"><a xlink:href="card_8hpp.xhtml" target="_top" xlink:title=" ">
<polygon fill="white" stroke="#666666" points="246.62,-185 193.88,-185 193.88,-165.75 246.62,-165.75 246.62,-185"/>
<text text-anchor="middle" x="220.25" y="-171.5" font-family="Helvetica,sans-Serif" font-size="10.00">card.hpp</text>
</a>
</g>
</g>
<!-- Node5&#45;&gt;Node6 -->
<g id="edge6_Node000005_Node000006" class="edge">
<title>Node5&#45;&gt;Node6</title>
<g id="a_edge6_Node000005_Node000006"><a xlink:title=" ">
<path fill="none" stroke="#63b8ff" d="M336.5,-220.59C314.08,-212.06 280.19,-199.17 254.78,-189.51"/>
<polygon fill="#63b8ff" stroke="#63b8ff" points="256.12,-186.27 245.53,-185.99 253.63,-192.82 256.12,-186.27"/>
</a>
</g>
</g>
<!-- Node7 -->
<g id="Node000007" class="node">
<title>Node7</title>
<g id="a_Node000007"><a xlink:title=" ">
<polygon fill="#e0e0e0" stroke="#999999" points="280.88,-129.75 229.62,-129.75 229.62,-110.5 280.88,-110.5 280.88,-129.75"/>
<text text-anchor="middle" x="255.25" y="-116.25" font-family="Helvetica,sans-Serif" font-size="10.00">sstream</text>
</a>
</g>
</g>
<!-- Node5&#45;&gt;Node7 -->
<g id="edge21_Node000005_Node000007" class="edge">
<title>Node5&#45;&gt;Node7</title>
<g id="a_edge21_Node000005_Node000007"><a xlink:title=" ">
<path fill="none" stroke="#63b8ff" d="M351.66,-220.75C334.2,-202.71 294.32,-161.5 271.7,-138.13"/>
<polygon fill="#63b8ff" stroke="#63b8ff" points="274.48,-135.97 265.01,-131.21 269.45,-140.83 274.48,-135.97"/>
</a>
</g>
</g>
<!-- Node9 -->
<g id="Node000009" class="node">
<title>Node9</title>
<g id="a_Node000009"><a xlink:href="conf_8hpp.xhtml" target="_top" xlink:title=" ">
<polygon fill="white" stroke="#666666" points="351.62,-129.75 298.88,-129.75 298.88,-110.5 351.62,-110.5 351.62,-129.75"/>
<text text-anchor="middle" x="325.25" y="-116.25" font-family="Helvetica,sans-Serif" font-size="10.00">conf.hpp</text>
</a>
</g>
</g>
<!-- Node5&#45;&gt;Node9 -->
<g id="edge18_Node000005_Node000009" class="edge">
<title>Node5&#45;&gt;Node9</title>
<g id="a_edge18_Node000005_Node000009"><a xlink:title=" ">
<path fill="none" stroke="#63b8ff" d="M357.39,-220.75C351.8,-203.42 339.32,-164.73 331.66,-140.99"/>
<polygon fill="#63b8ff" stroke="#63b8ff" points="335.02,-140.01 328.62,-131.57 328.36,-142.16 335.02,-140.01"/>
</a>
</g>
</g>
<!-- Node10 -->
<g id="Node000010" class="node">
<title>Node10</title>
<g id="a_Node000010"><a xlink:title=" ">
<polygon fill="#e0e0e0" stroke="#999999" points="444.88,-19.25 399.62,-19.25 399.62,0 444.88,0 444.88,-19.25"/>
<text text-anchor="middle" x="422.25" y="-5.75" font-family="Helvetica,sans-Serif" font-size="10.00">cstdint</text>
</a>
</g>
</g>
<!-- Node5&#45;&gt;Node10 -->
<g id="edge20_Node000005_Node000010" class="edge">
<title>Node5&#45;&gt;Node10</title>
<g id="a_edge20_Node000005_Node000010"><a xlink:title=" ">
<path fill="none" stroke="#63b8ff" d="M364.62,-220.56C368.79,-211.66 375.04,-197.62 379.25,-185 397.55,-130.17 411.9,-63.3 418.42,-30.59"/>
<polygon fill="#63b8ff" stroke="#63b8ff" points="421.82,-31.45 420.3,-20.96 414.95,-30.1 421.82,-31.45"/>
</a>
</g>
</g>
<!-- Node11 -->
<g id="Node000011" class="node">
<title>Node11</title>
<g id="a_Node000011"><a xlink:title=" ">
<polygon fill="#e0e0e0" stroke="#999999" points="394.25,-74.5 354.25,-74.5 354.25,-55.25 394.25,-55.25 394.25,-74.5"/>
<text text-anchor="middle" x="374.25" y="-61" font-family="Helvetica,sans-Serif" font-size="10.00">string</text>
</a>
</g>
</g>
<!-- Node5&#45;&gt;Node11 -->
<g id="edge22_Node000005_Node000011" class="edge">
<title>Node5&#45;&gt;Node11</title>
<g id="a_edge22_Node000005_Node000011"><a xlink:title=" ">
<path fill="none" stroke="#63b8ff" d="M361,-220.82C363.17,-195.5 369.45,-122 372.52,-86.09"/>
<polygon fill="#63b8ff" stroke="#63b8ff" points="376,-86.49 373.36,-76.23 369.03,-85.9 376,-86.49"/>
</a>
</g>
</g>
<!-- Node6&#45;&gt;Node2 -->
<g id="edge9_Node000006_Node000002" class="edge">
<title>Node6&#45;&gt;Node2</title>
<g id="a_edge9_Node000006_Node000002"><a xlink:title=" ">
<path fill="none" stroke="#63b8ff" d="M193.55,-166.97C160.96,-157.93 105.56,-142.57 67.96,-132.14"/>
<polygon fill="#63b8ff" stroke="#63b8ff" points="68.94,-128.78 58.37,-129.48 67.07,-135.52 68.94,-128.78"/>
</a>
</g>
</g>
<!-- Node6&#45;&gt;Node7 -->
<g id="edge7_Node000006_Node000007" class="edge">
<title>Node6&#45;&gt;Node7</title>
<g id="a_edge7_Node000006_Node000007"><a xlink:title=" ">
<path fill="none" stroke="#63b8ff" d="M226.03,-165.58C230.66,-158.53 237.32,-148.4 243.12,-139.58"/>
<polygon fill="#63b8ff" stroke="#63b8ff" points="245.95,-141.65 248.51,-131.37 240.1,-137.81 245.95,-141.65"/>
</a>
</g>
</g>
<!-- Node8 -->
<g id="Node000008" class="node">
<title>Node8</title>
<g id="a_Node000008"><a xlink:title=" ">
<polygon fill="#e0e0e0" stroke="#999999" points="211.12,-129.75 161.38,-129.75 161.38,-110.5 211.12,-110.5 211.12,-129.75"/>
<text text-anchor="middle" x="186.25" y="-116.25" font-family="Helvetica,sans-Serif" font-size="10.00">iomanip</text>
</a>
</g>
</g>
<!-- Node6&#45;&gt;Node8 -->
<g id="edge8_Node000006_Node000008" class="edge">
<title>Node6&#45;&gt;Node8</title>
<g id="a_edge8_Node000006_Node000008"><a xlink:title=" ">
<path fill="none" stroke="#63b8ff" d="M214.64,-165.58C210.13,-158.53 203.66,-148.4 198.04,-139.58"/>
<polygon fill="#63b8ff" stroke="#63b8ff" points="201.13,-137.93 192.8,-131.38 195.23,-141.7 201.13,-137.93"/>
</a>
</g>
</g>
<!-- Node6&#45;&gt;Node9 -->
<g id="edge10_Node000006_Node000009" class="edge">
<title>Node6&#45;&gt;Node9</title>
<g id="a_edge10_Node000006_Node000009"><a xlink:title=" ">
<path fill="none" stroke="#63b8ff" d="M238.06,-165.34C254.28,-157.12 278.49,-144.84 297.28,-135.31"/>
<polygon fill="#63b8ff" stroke="#63b8ff" points="298.67,-138.53 306,-130.89 295.5,-132.29 298.67,-138.53"/>
</a>
</g>
</g>
<!-- Node14 -->
<g id="Node000014" class="node">
<title>Node14</title>
<g id="a_Node000014"><a xlink:href="_logging_8hpp.xhtml" target="_top" xlink:title=" ">
<polygon fill="white" stroke="#666666" points="143.5,-129.75 75,-129.75 75,-110.5 143.5,-110.5 143.5,-129.75"/>
<text text-anchor="middle" x="109.25" y="-116.25" font-family="Helvetica,sans-Serif" font-size="10.00">Logging.hpp</text>
</a>
</g>
</g>
<!-- Node6&#45;&gt;Node14 -->
<g id="edge16_Node000006_Node000014" class="edge">
<title>Node6&#45;&gt;Node14</title>
<g id="a_edge16_Node000006_Node000014"><a xlink:title=" ">
<path fill="none" stroke="#63b8ff" d="M201.42,-165.34C184.2,-157.08 158.45,-144.73 138.54,-135.18"/>
<polygon fill="#63b8ff" stroke="#63b8ff" points="140.07,-132.03 129.54,-130.86 137.04,-138.34 140.07,-132.03"/>
</a>
</g>
</g>
<!-- Node9&#45;&gt;Node10 -->
<g id="edge11_Node000009_Node000010" class="edge">
<title>Node9&#45;&gt;Node10</title>
<g id="a_edge11_Node000009_Node000010"><a xlink:title=" ">
<path fill="none" stroke="#63b8ff" d="M325.99,-110.34C327.51,-97.08 332.04,-71.77 345.25,-55.25 356.62,-41.03 373.83,-30.45 389.1,-23.17"/>
<polygon fill="#63b8ff" stroke="#63b8ff" points="390.17,-26.52 397.88,-19.26 387.32,-20.13 390.17,-26.52"/>
</a>
</g>
</g>
<!-- Node9&#45;&gt;Node11 -->
<g id="edge12_Node000009_Node000011" class="edge">
<title>Node9&#45;&gt;Node11</title>
<g id="a_edge12_Node000009_Node000011"><a xlink:title=" ">
<path fill="none" stroke="#63b8ff" d="M333.34,-110.33C340.11,-102.98 349.97,-92.26 358.31,-83.19"/>
<polygon fill="#63b8ff" stroke="#63b8ff" points="360.76,-85.7 364.96,-75.97 355.61,-80.96 360.76,-85.7"/>
</a>
</g>
</g>
<!-- Node12 -->
<g id="Node000012" class="node">
<title>Node12</title>
<g id="a_Node000012"><a xlink:title=" ">
<polygon fill="#e0e0e0" stroke="#999999" points="199.88,-74.5 154.62,-74.5 154.62,-55.25 199.88,-55.25 199.88,-74.5"/>
<text text-anchor="middle" x="177.25" y="-61" font-family="Helvetica,sans-Serif" font-size="10.00">chrono</text>
</a>
</g>
</g>
<!-- Node9&#45;&gt;Node12 -->
<g id="edge13_Node000009_Node000012" class="edge">
<title>Node9&#45;&gt;Node12</title>
<g id="a_edge13_Node000009_Node000012"><a xlink:title=" ">
<path fill="none" stroke="#63b8ff" d="M300.14,-110.09C275.5,-101.22 237.76,-87.65 210.6,-77.88"/>
<polygon fill="#63b8ff" stroke="#63b8ff" points="212.06,-74.68 201.47,-74.59 209.69,-81.27 212.06,-74.68"/>
</a>
</g>
</g>
<!-- Node13 -->
<g id="Node000013" class="node">
<title>Node13</title>
<g id="a_Node000013"><a xlink:href="_machine_i_d_8hpp.xhtml" target="_top" xlink:title=" ">
<polygon fill="white" stroke="#666666" points="298.5,-74.5 218,-74.5 218,-55.25 298.5,-55.25 298.5,-74.5"/>
<text text-anchor="middle" x="258.25" y="-61" font-family="Helvetica,sans-Serif" font-size="10.00">MachineID.hpp</text>
</a>
</g>
</g>
<!-- Node9&#45;&gt;Node13 -->
<g id="edge14_Node000009_Node000013" class="edge">
<title>Node9&#45;&gt;Node13</title>
<g id="a_edge14_Node000009_Node000013"><a xlink:title=" ">
<path fill="none" stroke="#63b8ff" d="M313.88,-110.09C304.2,-102.4 290.05,-91.15 278.44,-81.93"/>
<polygon fill="#63b8ff" stroke="#63b8ff" points="280.64,-79.2 270.63,-75.72 276.28,-84.68 280.64,-79.2"/>
</a>
</g>
</g>
<!-- Node13&#45;&gt;Node10 -->
<g id="edge15_Node000013_Node000010" class="edge">
<title>Node13&#45;&gt;Node10</title>
<g id="a_edge15_Node000013_Node000010"><a xlink:title=" ">
<path fill="none" stroke="#63b8ff" d="M286.07,-54.84C314.35,-45.66 358.2,-31.42 388.46,-21.6"/>
<polygon fill="#63b8ff" stroke="#63b8ff" points="389.46,-24.95 397.89,-18.53 387.3,-18.29 389.46,-24.95"/>
</a>
</g>
</g>
<!-- Node15 -->
<g id="Node000015" class="node">
<title>Node15</title>
<g id="a_Node000015"><a xlink:title=" ">
<polygon fill="#e0e0e0" stroke="#999999" points="136.88,-74.5 79.62,-74.5 79.62,-55.25 136.88,-55.25 136.88,-74.5"/>
<text text-anchor="middle" x="108.25" y="-61" font-family="Helvetica,sans-Serif" font-size="10.00">esp_log.h</text>
</a>
</g>
</g>
<!-- Node14&#45;&gt;Node15 -->
<g id="edge17_Node000014_Node000015" class="edge">
<title>Node14&#45;&gt;Node15</title>
<g id="a_edge17_Node000014_Node000015"><a xlink:title=" ">
<path fill="none" stroke="#63b8ff" d="M109.08,-110.33C108.96,-103.82 108.79,-94.67 108.63,-86.37"/>
<polygon fill="#63b8ff" stroke="#63b8ff" points="112.13,-86.3 108.45,-76.37 105.14,-86.44 112.13,-86.3"/>
</a>
</g>
</g>
<!-- Node20&#45;&gt;Node10 -->
<g id="edge28_Node000020_Node000010" class="edge">
<title>Node20&#45;&gt;Node10</title>
<g id="a_edge28_Node000020_Node000010"><a xlink:title=" ">
<path fill="none" stroke="#63b8ff" d="M572.32,-220.64C592.22,-209.39 620.17,-188.77 610.25,-165.75 579.92,-95.39 498.44,-46.95 453.34,-24.63"/>
<polygon fill="#63b8ff" stroke="#63b8ff" points="454.87,-21.48 444.34,-20.3 451.84,-27.79 454.87,-21.48"/>
</a>
</g>
</g>
<!-- Node21 -->
<g id="Node000021" class="node">
<title>Node21</title>
<g id="a_Node000021"><a xlink:title=" ">
<polygon fill="#e0e0e0" stroke="#999999" points="759,-185 657.5,-185 657.5,-165.75 759,-165.75 759,-185"/>
<text text-anchor="middle" x="708.25" y="-171.5" font-family="Helvetica,sans-Serif" font-size="10.00">Adafruit_NeoPixel.h</text>
</a>
</g>
</g>
<!-- Node20&#45;&gt;Node21 -->
<g id="edge29_Node000020_Node000021" class="edge">
<title>Node20&#45;&gt;Node21</title>
<g id="a_edge29_Node000020_Node000021"><a xlink:title=" ">
<path fill="none" stroke="#63b8ff" d="M580.37,-220.59C605.37,-211.95 643.33,-198.82 671.4,-189.12"/>
<polygon fill="#63b8ff" stroke="#63b8ff" points="672.26,-192.52 680.57,-185.95 669.97,-185.91 672.26,-192.52"/>
</a>
</g>
</g>
<!-- Node22 -->
<g id="Node000022" class="node">
<title>Node22</title>
<g id="a_Node000022"><a xlink:href="_pins_config_8hpp.xhtml" target="_top" xlink:title=" ">
<polygon fill="white" stroke="#666666" points="601.5,-185 521,-185 521,-165.75 601.5,-165.75 601.5,-185"/>
<text text-anchor="middle" x="561.25" y="-171.5" font-family="Helvetica,sans-Serif" font-size="10.00">PinsConfig.hpp</text>
</a>
</g>
</g>
<!-- Node20&#45;&gt;Node22 -->
<g id="edge30_Node000020_Node000022" class="edge">
<title>Node20&#45;&gt;Node22</title>
<g id="a_edge30_Node000020_Node000022"><a xlink:title=" ">
<path fill="none" stroke="#63b8ff" d="M555.41,-220.83C556.27,-214.24 557.49,-204.96 558.59,-196.57"/>
<polygon fill="#63b8ff" stroke="#63b8ff" points="562.04,-197.23 559.87,-186.86 555.1,-196.32 562.04,-197.23"/>
</a>
</g>
</g>
<!-- Node22&#45;&gt;Node4 -->
<g id="edge32_Node000022_Node000004" class="edge">
<title>Node22&#45;&gt;Node4</title>
<g id="a_edge32_Node000022_Node000004"><a xlink:title=" ">
<path fill="none" stroke="#63b8ff" d="M549.71,-165.34C539.79,-157.57 525.24,-146.17 513.39,-136.9"/>
<polygon fill="#63b8ff" stroke="#63b8ff" points="515.84,-134.37 505.81,-130.96 511.52,-139.88 515.84,-134.37"/>
</a>
</g>
</g>
<!-- Node22&#45;&gt;Node10 -->
<g id="edge31_Node000022_Node000010" class="edge">
<title>Node22&#45;&gt;Node10</title>
<g id="a_edge31_Node000022_Node000010"><a xlink:title=" ">
<path fill="none" stroke="#63b8ff" d="M556.22,-165.31C548.98,-152.56 534.88,-128.84 520.25,-110.5 495.16,-79.04 461.51,-46.48 440.88,-27.42"/>
<polygon fill="#63b8ff" stroke="#63b8ff" points="443.26,-24.84 433.52,-20.68 438.53,-30.01 443.26,-24.84"/>
</a>
</g>
</g>
</g>
</svg>

<g id="navigator" transform="translate(0 0)" fill="#404254">
  <rect fill="#f2f5e9" fill-opacity="0.5" stroke="#606060" stroke-width=".5" x="0" y="0" width="60" height="60"/>
  <use id="zoomplus" xlink:href="#zoomPlus" x="17" y="9" onmousedown="handleZoom(evt,'in')"/>
  <use id="zoomminus" xlink:href="#zoomMin" x="42" y="9" onmousedown="handleZoom(evt,'out')"/>
  <use id="reset" xlink:href="#resetDef" x="30" y="36" onmousedown="handleReset()"/>
   <use id="arrowup" xlink:href="#arrowUp" x="0" y="0" onmousedown="handlePan(0,-1)"/>
  <use id="arrowright" xlink:href="#arrowRight" x="0" y="0" onmousedown="handlePan(1,0)"/>
  <use id="arrowdown" xlink:href="#arrowDown" x="0" y="0" onmousedown="handlePan(0,1)"/>
  <use id="arrowleft" xlink:href="#arrowLeft" x="0" y="0" onmousedown="handlePan(-1,0)"/>
</g>
<svg viewBox="0 0 15 15" width="100%" height="30px" preserveAspectRatio="xMaxYMin meet">
 <g id="arrow_out" transform="scale(0.3 0.3)">
  <a xlink:href="_mrfc522_driver_8hpp__incl_org.svg" target="_base">
   <rect id="button" ry="5" rx="5" y="6" x="6" height="38" width="38"
        fill="#f2f5e9" fill-opacity="0.5" stroke="#606060" stroke-width="1.0"/>
   <path id="arrow"
     d="M 11.500037,31.436501 C 11.940474,20.09759 22.043105,11.32322 32.158766,21.979434 L 37.068811,17.246167 C 37.068811,17.246167 37.088388,32 37.088388,32 L 22.160133,31.978069 C 22.160133,31.978069 26.997745,27.140456 26.997745,27.140456 C 18.528582,18.264221 13.291696,25.230495 11.500037,31.436501 z"
     style="fill:#404040;"/>
  </a>
 </g>
</svg>

<style type='text/css'>
<![CDATA[
[data-mouse-over-selected='false'] { opacity: 0.7; }
[data-mouse-over-selected='true']  { opacity: 1.0; }
]]>
</style>
<script type="application/ecmascript"><![CDATA[
document.addEventListener('DOMContentLoaded', (event) => {
  highlightEdges();
  highlightAdjacentNodes();
});
]]></script>
</svg>
