<?xml version="1.0" encoding="UTF-8" standalone="no"?>
<!DOCTYPE svg PUBLIC "-//W3C//DTD SVG 1.1//EN"
 "http://www.w3.org/Graphics/SVG/1.1/DTD/svg11.dtd">
<!-- Generated by graphviz version 9.0.0 (20230911.1827)
 -->
<!-- Title: OTA.hpp Pages: 1 -->
<!--zoomable 414 -->

<svg id="main" version="1.1" xmlns="http://www.w3.org/2000/svg" xmlns:xlink="http://www.w3.org/1999/xlink" xml:space="preserve" onload="init(evt)">
<style type="text/css"><![CDATA[
.node, .edge {opacity: 0.7;}
.node.selected, .edge.selected {opacity: 1;}
.edge:hover path { stroke: red; }
.edge:hover polygon { stroke: red; fill: red; }
]]></style>

<defs>
  <circle id="rim" cx="0" cy="0" r="7"/>
  <circle id="rim2" cx="0" cy="0" r="3.5"/>
  <g id="zoomPlus">
    <use xlink:href="#rim" fill="#404040"><set attributeName="fill" to="#808080" begin="zoomplus.mouseover" end="zoomplus.mouseout"/></use>
    <path d="M-4,0h8M0,-4v8" fill="none" stroke="white" stroke-width="1.5" pointer-events="none"/>
  </g>
  <g id="zoomMin">
    <use xlink:href="#rim" fill="#404040"><set attributeName="fill" to="#808080" begin="zoomminus.mouseover" end="zoomminus.mouseout"/></use>
    <path d="M-4,0h8" fill="none" stroke="white" stroke-width="1.5" pointer-events="none"/>
  </g>
  <g id="arrowUp" transform="translate(30 24)">
    <use xlink:href="#rim"/>
    <path pointer-events="none" fill="none" stroke="white" stroke-width="1.5" d="M0,-3.0v7 M-2.5,-0.5L0,-3.0L2.5,-0.5"/>
  </g>
  <g id="arrowRight" transform="rotate(90) translate(36 -43)">
    <use xlink:href="#rim"/>
    <path pointer-events="none" fill="none" stroke="white" stroke-width="1.5" d="M0,-3.0v7 M-2.5,-0.5L0,-3.0L2.5,-0.5"/>
  </g>
  <g id="arrowDown" transform="rotate(180) translate(-30 -48)">
    <use xlink:href="#rim"/>
    <path pointer-events="none" fill="none" stroke="white" stroke-width="1.5" d="M0,-3.0v7 M-2.5,-0.5L0,-3.0L2.5,-0.5"/>
  </g>
  <g id="arrowLeft" transform="rotate(270) translate(-36 17)">
    <use xlink:href="#rim"/>
    <path pointer-events="none" fill="none" stroke="white" stroke-width="1.5" d="M0,-3.0v7 M-2.5,-0.5L0,-3.0L2.5,-0.5"/>
  </g>
  <g id="resetDef">
    <use xlink:href="#rim2" fill="#404040"><set attributeName="fill" to="#808080" begin="reset.mouseover" end="reset.mouseout"/></use>
  </g>
</defs>
<script type="application/ecmascript">
var viewWidth = 1226;
var viewHeight = 414;
var sectionId = 'dynsection-0';
</script>
<script type="application/ecmascript" xlink:href="svg.min.js"/>
<svg id="graph" class="graph">
<g id="viewport">
<title>OTA.hpp</title>
<!-- Node1 -->
<g id="Node000001" class="node">
<title>Node1</title>
<g id="a_Node000001"><a xlink:title=" ">
<polygon fill="#999999" stroke="#666666" points="479.12,-406 424.88,-406 424.88,-386.75 479.12,-386.75 479.12,-406"/>
<text text-anchor="middle" x="452" y="-392.5" font-family="Helvetica,sans-Serif" font-size="10.00">OTA.hpp</text>
</a>
</g>
</g>
<!-- Node2 -->
<g id="Node000002" class="node">
<title>Node2</title>
<g id="a_Node000002"><a xlink:title=" ">
<polygon fill="#e0e0e0" stroke="#999999" points="393.38,-350.75 316.62,-350.75 316.62,-331.5 393.38,-331.5 393.38,-350.75"/>
<text text-anchor="middle" x="355" y="-337.25" font-family="Helvetica,sans-Serif" font-size="10.00">ArduinoOTA.h</text>
</a>
</g>
</g>
<!-- Node1&#45;&gt;Node2 -->
<g id="edge1_Node000001_Node000002" class="edge">
<title>Node1&#45;&gt;Node2</title>
<g id="a_edge1_Node000001_Node000002"><a xlink:title=" ">
<path fill="none" stroke="#63b8ff" d="M435.55,-386.34C420.77,-378.23 398.82,-366.18 381.57,-356.71"/>
<polygon fill="#63b8ff" stroke="#63b8ff" points="383.31,-353.68 372.86,-351.93 379.94,-359.81 383.31,-353.68"/>
</a>
</g>
</g>
<!-- Node3 -->
<g id="Node000003" class="node">
<title>Node3</title>
<g id="a_Node000003"><a xlink:title=" ">
<polygon fill="#e0e0e0" stroke="#999999" points="492.25,-350.75 411.75,-350.75 411.75,-331.5 492.25,-331.5 492.25,-350.75"/>
<text text-anchor="middle" x="452" y="-337.25" font-family="Helvetica,sans-Serif" font-size="10.00">WiFiManager.h</text>
</a>
</g>
</g>
<!-- Node1&#45;&gt;Node3 -->
<g id="edge2_Node000001_Node000003" class="edge">
<title>Node1&#45;&gt;Node3</title>
<g id="a_edge2_Node000001_Node000003"><a xlink:title=" ">
<path fill="none" stroke="#63b8ff" d="M452,-386.58C452,-380.07 452,-370.92 452,-362.62"/>
<polygon fill="#63b8ff" stroke="#63b8ff" points="455.5,-362.62 452,-352.62 448.5,-362.62 455.5,-362.62"/>
</a>
</g>
</g>
<!-- Node4 -->
<g id="Node000004" class="node">
<title>Node4</title>
<g id="a_Node000004"><a xlink:href="secrets_8hpp.xhtml" target="_top" xlink:title=" ">
<polygon fill="white" stroke="#666666" points="576.12,-350.75 509.88,-350.75 509.88,-331.5 576.12,-331.5 576.12,-350.75"/>
<text text-anchor="middle" x="543" y="-337.25" font-family="Helvetica,sans-Serif" font-size="10.00">secrets.hpp</text>
</a>
</g>
</g>
<!-- Node1&#45;&gt;Node4 -->
<g id="edge3_Node000001_Node000004" class="edge">
<title>Node1&#45;&gt;Node4</title>
<g id="a_edge3_Node000001_Node000004"><a xlink:title=" ">
<path fill="none" stroke="#63b8ff" d="M467.44,-386.34C481.16,-378.31 501.5,-366.41 517.62,-356.98"/>
<polygon fill="#63b8ff" stroke="#63b8ff" points="519.32,-360.04 526.18,-351.97 515.78,-354 519.32,-360.04"/>
</a>
</g>
</g>
<!-- Node5 -->
<g id="Node000005" class="node">
<title>Node5</title>
<g id="a_Node000005"><a xlink:title=" ">
<polygon fill="#e0e0e0" stroke="#999999" points="336.62,-19.25 291.38,-19.25 291.38,0 336.62,0 336.62,-19.25"/>
<text text-anchor="middle" x="314" y="-5.75" font-family="Helvetica,sans-Serif" font-size="10.00">cstdint</text>
</a>
</g>
</g>
<!-- Node4&#45;&gt;Node5 -->
<g id="edge4_Node000004_Node000005" class="edge">
<title>Node4&#45;&gt;Node5</title>
<g id="a_edge4_Node000004_Node000005"><a xlink:title=" ">
<path fill="none" stroke="#63b8ff" d="M509.53,-333.23C506.65,-332.65 503.77,-332.06 501,-331.5 389.73,-308.98 0,-345.15 0,-231.62 0,-231.62 0,-231.62 0,-119.12 0,-83.35 18.34,-73.7 49,-55.25 87.4,-32.15 217.41,-18.59 279.91,-13.26"/>
<polygon fill="#63b8ff" stroke="#63b8ff" points="279.92,-16.77 289.6,-12.46 279.34,-9.79 279.92,-16.77"/>
</a>
</g>
</g>
<!-- Node6 -->
<g id="Node000006" class="node">
<title>Node6</title>
<g id="a_Node000006"><a xlink:title=" ">
<polygon fill="#e0e0e0" stroke="#999999" points="894.5,-19.25 857.5,-19.25 857.5,0 894.5,0 894.5,-19.25"/>
<text text-anchor="middle" x="876" y="-5.75" font-family="Helvetica,sans-Serif" font-size="10.00">array</text>
</a>
</g>
</g>
<!-- Node4&#45;&gt;Node6 -->
<g id="edge5_Node000004_Node000006" class="edge">
<title>Node4&#45;&gt;Node6</title>
<g id="a_edge5_Node000004_Node000006"><a xlink:title=" ">
<path fill="none" stroke="#63b8ff" d="M576.32,-337.47C699.78,-327.18 1124,-287.74 1124,-231.62 1124,-231.62 1124,-231.62 1124,-119.12 1124,-24.89 971.85,-11.71 905.9,-10.43"/>
<polygon fill="#63b8ff" stroke="#63b8ff" points="906.19,-6.93 896.15,-10.32 906.12,-13.93 906.19,-6.93"/>
</a>
</g>
</g>
<!-- Node7 -->
<g id="Node000007" class="node">
<title>Node7</title>
<g id="a_Node000007"><a xlink:title=" ">
<polygon fill="#e0e0e0" stroke="#999999" points="1217.75,-295.5 1152.25,-295.5 1152.25,-276.25 1217.75,-276.25 1217.75,-295.5"/>
<text text-anchor="middle" x="1185" y="-282" font-family="Helvetica,sans-Serif" font-size="10.00">string_view</text>
</a>
</g>
</g>
<!-- Node4&#45;&gt;Node7 -->
<g id="edge6_Node000004_Node000007" class="edge">
<title>Node4&#45;&gt;Node7</title>
<g id="a_edge6_Node000004_Node000007"><a xlink:title=" ">
<path fill="none" stroke="#63b8ff" d="M576.35,-338.87C666.94,-335.2 925.07,-322.94 1138,-295.5 1138.85,-295.39 1139.7,-295.28 1140.57,-295.16"/>
<polygon fill="#63b8ff" stroke="#63b8ff" points="1141.1,-298.62 1150.45,-293.63 1140.03,-291.7 1141.1,-298.62"/>
</a>
</g>
</g>
<!-- Node8 -->
<g id="Node000008" class="node">
<title>Node8</title>
<g id="a_Node000008"><a xlink:href="_machine_config_8hpp.xhtml" target="_top" xlink:title=" ">
<polygon fill="white" stroke="#666666" points="397.88,-185 300.12,-185 300.12,-165.75 397.88,-165.75 397.88,-185"/>
<text text-anchor="middle" x="349" y="-171.5" font-family="Helvetica,sans-Serif" font-size="10.00">MachineConfig.hpp</text>
</a>
</g>
</g>
<!-- Node4&#45;&gt;Node8 -->
<g id="edge7_Node000004_Node000008" class="edge">
<title>Node4&#45;&gt;Node8</title>
<g id="a_edge7_Node000004_Node000008"><a xlink:title=" ">
<path fill="none" stroke="#63b8ff" d="M509.38,-332.63C473.52,-324.07 419.75,-309.44 404,-295.5 374.09,-269.03 359.35,-222.95 353.03,-196.53"/>
<polygon fill="#63b8ff" stroke="#63b8ff" points="356.46,-195.81 350.9,-186.79 349.62,-197.31 356.46,-195.81"/>
</a>
</g>
</g>
<!-- Node15 -->
<g id="Node000015" class="node">
<title>Node15</title>
<g id="a_Node000015"><a xlink:href="conf_8hpp.xhtml" target="_top" xlink:title=" ">
<polygon fill="white" stroke="#666666" points="520.38,-129.75 467.62,-129.75 467.62,-110.5 520.38,-110.5 520.38,-129.75"/>
<text text-anchor="middle" x="494" y="-116.25" font-family="Helvetica,sans-Serif" font-size="10.00">conf.hpp</text>
</a>
</g>
</g>
<!-- Node4&#45;&gt;Node15 -->
<g id="edge45_Node000004_Node000015" class="edge">
<title>Node4&#45;&gt;Node15</title>
<g id="a_edge45_Node000004_Node000015"><a xlink:title=" ">
<path fill="none" stroke="#63b8ff" d="M526.94,-331C502.13,-315.87 455.44,-282.96 437,-240.25 421.03,-203.27 453.83,-160.95 475.97,-138.03"/>
<polygon fill="#63b8ff" stroke="#63b8ff" points="478.38,-140.57 483.02,-131.05 473.45,-135.6 478.38,-140.57"/>
</a>
</g>
</g>
<!-- Node16 -->
<g id="Node000016" class="node">
<title>Node16</title>
<g id="a_Node000016"><a xlink:href="_machine_8hpp.xhtml" target="_top" xlink:title=" ">
<polygon fill="white" stroke="#666666" points="578.38,-295.5 507.62,-295.5 507.62,-276.25 578.38,-276.25 578.38,-295.5"/>
<text text-anchor="middle" x="543" y="-282" font-family="Helvetica,sans-Serif" font-size="10.00">Machine.hpp</text>
</a>
</g>
</g>
<!-- Node4&#45;&gt;Node16 -->
<g id="edge24_Node000004_Node000016" class="edge">
<title>Node4&#45;&gt;Node16</title>
<g id="a_edge24_Node000004_Node000016"><a xlink:title=" ">
<path fill="none" stroke="#63b8ff" d="M543,-331.33C543,-324.82 543,-315.67 543,-307.37"/>
<polygon fill="#63b8ff" stroke="#63b8ff" points="546.5,-307.37 543,-297.37 539.5,-307.37 546.5,-307.37"/>
</a>
</g>
</g>
<!-- Node17 -->
<g id="Node000017" class="node">
<title>Node17</title>
<g id="a_Node000017"><a xlink:href="_fab_user_8hpp.xhtml" target="_top" xlink:title=" ">
<polygon fill="white" stroke="#666666" points="767.75,-240.25 696.25,-240.25 696.25,-221 767.75,-221 767.75,-240.25"/>
<text text-anchor="middle" x="732" y="-226.75" font-family="Helvetica,sans-Serif" font-size="10.00">FabUser.hpp</text>
</a>
</g>
</g>
<!-- Node4&#45;&gt;Node17 -->
<g id="edge46_Node000004_Node000017" class="edge">
<title>Node4&#45;&gt;Node17</title>
<g id="a_edge46_Node000004_Node000017"><a xlink:title=" ">
<path fill="none" stroke="#63b8ff" d="M558.79,-331.06C591.45,-312.31 666.68,-269.12 706.38,-246.33"/>
<polygon fill="#63b8ff" stroke="#63b8ff" points="707.88,-249.51 714.81,-241.49 704.4,-243.44 707.88,-249.51"/>
</a>
</g>
</g>
<!-- Node8&#45;&gt;Node5 -->
<g id="edge9_Node000008_Node000005" class="edge">
<title>Node8&#45;&gt;Node5</title>
<g id="a_edge9_Node000008_Node000005"><a xlink:title=" ">
<path fill="none" stroke="#63b8ff" d="M326.25,-165.3C294.53,-151.25 238.3,-120.92 215,-74.5 199.83,-44.28 245.54,-26.45 279.82,-17.62"/>
<polygon fill="#63b8ff" stroke="#63b8ff" points="280.53,-21.05 289.43,-15.31 278.89,-14.24 280.53,-21.05"/>
</a>
</g>
</g>
<!-- Node9 -->
<g id="Node000009" class="node">
<title>Node9</title>
<g id="a_Node000009"><a xlink:title=" ">
<polygon fill="#e0e0e0" stroke="#999999" points="466.62,-74.5 421.38,-74.5 421.38,-55.25 466.62,-55.25 466.62,-74.5"/>
<text text-anchor="middle" x="444" y="-61" font-family="Helvetica,sans-Serif" font-size="10.00">chrono</text>
</a>
</g>
</g>
<!-- Node8&#45;&gt;Node9 -->
<g id="edge8_Node000008_Node000009" class="edge">
<title>Node8&#45;&gt;Node9</title>
<g id="a_edge8_Node000008_Node000009"><a xlink:title=" ">
<path fill="none" stroke="#63b8ff" d="M353.18,-165.47C359.53,-152.49 372.52,-128.04 388,-110.5 397.57,-99.65 410.01,-89.45 420.74,-81.54"/>
<polygon fill="#63b8ff" stroke="#63b8ff" points="422.62,-84.5 428.74,-75.85 418.56,-78.79 422.62,-84.5"/>
</a>
</g>
</g>
<!-- Node10 -->
<g id="Node000010" class="node">
<title>Node10</title>
<g id="a_Node000010"><a xlink:title=" ">
<polygon fill="#e0e0e0" stroke="#999999" points="563,-74.5 523,-74.5 523,-55.25 563,-55.25 563,-74.5"/>
<text text-anchor="middle" x="543" y="-61" font-family="Helvetica,sans-Serif" font-size="10.00">string</text>
</a>
</g>
</g>
<!-- Node8&#45;&gt;Node10 -->
<g id="edge10_Node000008_Node000010" class="edge">
<title>Node8&#45;&gt;Node10</title>
<g id="a_edge10_Node000008_Node000010"><a xlink:title=" ">
<path fill="none" stroke="#63b8ff" d="M364.2,-165.31C385.33,-152.75 424.83,-129.49 459,-110.5 477.71,-100.1 499,-88.8 515.47,-80.16"/>
<polygon fill="#63b8ff" stroke="#63b8ff" points="516.94,-83.35 524.18,-75.62 513.7,-77.14 516.94,-83.35"/>
</a>
</g>
</g>
<!-- Node11 -->
<g id="Node000011" class="node">
<title>Node11</title>
<g id="a_Node000011"><a xlink:href="pins_8hpp.xhtml" target="_top" xlink:title=" ">
<polygon fill="white" stroke="#666666" points="155,-129.75 103,-129.75 103,-110.5 155,-110.5 155,-129.75"/>
<text text-anchor="middle" x="129" y="-116.25" font-family="Helvetica,sans-Serif" font-size="10.00">pins.hpp</text>
</a>
</g>
</g>
<!-- Node8&#45;&gt;Node11 -->
<g id="edge11_Node000008_Node000011" class="edge">
<title>Node8&#45;&gt;Node11</title>
<g id="a_edge11_Node000008_Node000011"><a xlink:title=" ">
<path fill="none" stroke="#63b8ff" d="M311.68,-165.34C271.2,-155.54 206.96,-139.99 166.44,-130.19"/>
<polygon fill="#63b8ff" stroke="#63b8ff" points="167.44,-126.83 156.9,-127.88 165.79,-133.63 167.44,-126.83"/>
</a>
</g>
</g>
<!-- Node14 -->
<g id="Node000014" class="node">
<title>Node14</title>
<g id="a_Node000014"><a xlink:href="_machine_i_d_8hpp.xhtml" target="_top" xlink:title=" ">
<polygon fill="white" stroke="#666666" points="403.25,-74.5 322.75,-74.5 322.75,-55.25 403.25,-55.25 403.25,-74.5"/>
<text text-anchor="middle" x="363" y="-61" font-family="Helvetica,sans-Serif" font-size="10.00">MachineID.hpp</text>
</a>
</g>
</g>
<!-- Node8&#45;&gt;Node14 -->
<g id="edge17_Node000008_Node000014" class="edge">
<title>Node8&#45;&gt;Node14</title>
<g id="a_edge17_Node000008_Node000014"><a xlink:title=" ">
<path fill="none" stroke="#63b8ff" d="M348.4,-165.64C347.72,-153.28 347.06,-130.02 350,-110.5 351.25,-102.23 353.62,-93.33 355.99,-85.68"/>
<polygon fill="#63b8ff" stroke="#63b8ff" points="359.25,-86.97 359.1,-76.38 352.61,-84.76 359.25,-86.97"/>
</a>
</g>
</g>
<!-- Node8&#45;&gt;Node15 -->
<g id="edge19_Node000008_Node000015" class="edge">
<title>Node8&#45;&gt;Node15</title>
<g id="a_edge19_Node000008_Node000015"><a xlink:title=" ">
<path fill="none" stroke="#63b8ff" d="M373.6,-165.34C396.93,-156.77 432.24,-143.81 458.6,-134.13"/>
<polygon fill="#63b8ff" stroke="#63b8ff" points="459.68,-137.46 467.86,-130.72 457.27,-130.89 459.68,-137.46"/>
</a>
</g>
</g>
<!-- Node11&#45;&gt;Node5 -->
<g id="edge12_Node000011_Node000005" class="edge">
<title>Node11&#45;&gt;Node5</title>
<g id="a_edge12_Node000011_Node000005"><a xlink:title=" ">
<path fill="none" stroke="#63b8ff" d="M104.85,-110.11C77.36,-98.52 38.5,-77.24 57,-55.25 85.07,-21.88 216.36,-13.46 279.67,-11.34"/>
<polygon fill="#63b8ff" stroke="#63b8ff" points="279.62,-14.84 289.51,-11.05 279.41,-7.85 279.62,-14.84"/>
</a>
</g>
</g>
<!-- Node12 -->
<g id="Node000012" class="node">
<title>Node12</title>
<g id="a_Node000012"><a xlink:title=" ">
<polygon fill="#e0e0e0" stroke="#999999" points="167.75,-74.5 66.25,-74.5 66.25,-55.25 167.75,-55.25 167.75,-74.5"/>
<text text-anchor="middle" x="117" y="-61" font-family="Helvetica,sans-Serif" font-size="10.00">Adafruit_NeoPixel.h</text>
</a>
</g>
</g>
<!-- Node11&#45;&gt;Node12 -->
<g id="edge13_Node000011_Node000012" class="edge">
<title>Node11&#45;&gt;Node12</title>
<g id="a_edge13_Node000011_Node000012"><a xlink:title=" ">
<path fill="none" stroke="#63b8ff" d="M127.02,-110.33C125.53,-103.74 123.44,-94.46 121.55,-86.07"/>
<polygon fill="#63b8ff" stroke="#63b8ff" points="124.97,-85.32 119.36,-76.34 118.14,-86.86 124.97,-85.32"/>
</a>
</g>
</g>
<!-- Node13 -->
<g id="Node000013" class="node">
<title>Node13</title>
<g id="a_Node000013"><a xlink:href="_pins_config_8hpp.xhtml" target="_top" xlink:title=" ">
<polygon fill="white" stroke="#666666" points="304.25,-74.5 223.75,-74.5 223.75,-55.25 304.25,-55.25 304.25,-74.5"/>
<text text-anchor="middle" x="264" y="-61" font-family="Helvetica,sans-Serif" font-size="10.00">PinsConfig.hpp</text>
</a>
</g>
</g>
<!-- Node11&#45;&gt;Node13 -->
<g id="edge14_Node000011_Node000013" class="edge">
<title>Node11&#45;&gt;Node13</title>
<g id="a_edge14_Node000011_Node000013"><a xlink:title=" ">
<path fill="none" stroke="#63b8ff" d="M151.9,-110.09C173.43,-101.6 205.91,-88.79 230.38,-79.14"/>
<polygon fill="#63b8ff" stroke="#63b8ff" points="231.56,-82.43 239.58,-75.51 228.99,-75.92 231.56,-82.43"/>
</a>
</g>
</g>
<!-- Node13&#45;&gt;Node5 -->
<g id="edge15_Node000013_Node000005" class="edge">
<title>Node13&#45;&gt;Node5</title>
<g id="a_edge15_Node000013_Node000005"><a xlink:title=" ">
<path fill="none" stroke="#63b8ff" d="M272.26,-55.08C279.16,-47.73 289.22,-37.01 297.74,-27.94"/>
<polygon fill="#63b8ff" stroke="#63b8ff" points="300.23,-30.4 304.53,-20.71 295.13,-25.61 300.23,-30.4"/>
</a>
</g>
</g>
<!-- Node13&#45;&gt;Node6 -->
<g id="edge16_Node000013_Node000006" class="edge">
<title>Node13&#45;&gt;Node6</title>
<g id="a_edge16_Node000013_Node000006"><a xlink:title=" ">
<path fill="none" stroke="#63b8ff" d="M304.61,-56.55C307.78,-56.08 310.94,-55.63 314,-55.25 516.24,-29.83 761.36,-16.24 845.75,-12.05"/>
<polygon fill="#63b8ff" stroke="#63b8ff" points="845.69,-15.56 855.5,-11.57 845.34,-8.57 845.69,-15.56"/>
</a>
</g>
</g>
<!-- Node14&#45;&gt;Node5 -->
<g id="edge18_Node000014_Node000005" class="edge">
<title>Node14&#45;&gt;Node5</title>
<g id="a_edge18_Node000014_Node000005"><a xlink:title=" ">
<path fill="none" stroke="#63b8ff" d="M354.91,-55.08C348.14,-47.73 338.28,-37.01 329.94,-27.94"/>
<polygon fill="#63b8ff" stroke="#63b8ff" points="332.64,-25.71 323.29,-20.72 327.49,-30.45 332.64,-25.71"/>
</a>
</g>
</g>
<!-- Node15&#45;&gt;Node5 -->
<g id="edge20_Node000015_Node000005" class="edge">
<title>Node15&#45;&gt;Node5</title>
<g id="a_edge20_Node000015_Node000005"><a xlink:title=" ">
<path fill="none" stroke="#63b8ff" d="M494.1,-110.36C493.76,-96.66 491.03,-70.2 476,-55.25 441.93,-21.38 384.66,-12.62 348.13,-10.68"/>
<polygon fill="#63b8ff" stroke="#63b8ff" points="348.69,-7.2 338.57,-10.32 348.43,-14.19 348.69,-7.2"/>
</a>
</g>
</g>
<!-- Node15&#45;&gt;Node9 -->
<g id="edge22_Node000015_Node000009" class="edge">
<title>Node15&#45;&gt;Node9</title>
<g id="a_edge22_Node000015_Node000009"><a xlink:title=" ">
<path fill="none" stroke="#63b8ff" d="M485.74,-110.33C478.84,-102.98 468.78,-92.26 460.26,-83.19"/>
<polygon fill="#63b8ff" stroke="#63b8ff" points="462.87,-80.86 453.47,-75.96 457.77,-85.65 462.87,-80.86"/>
</a>
</g>
</g>
<!-- Node15&#45;&gt;Node10 -->
<g id="edge21_Node000015_Node000010" class="edge">
<title>Node15&#45;&gt;Node10</title>
<g id="a_edge21_Node000015_Node000010"><a xlink:title=" ">
<path fill="none" stroke="#63b8ff" d="M502.09,-110.33C508.86,-102.98 518.72,-92.26 527.06,-83.19"/>
<polygon fill="#63b8ff" stroke="#63b8ff" points="529.51,-85.7 533.71,-75.97 524.36,-80.96 529.51,-85.7"/>
</a>
</g>
</g>
<!-- Node15&#45;&gt;Node14 -->
<g id="edge23_Node000015_Node000014" class="edge">
<title>Node15&#45;&gt;Node14</title>
<g id="a_edge23_Node000015_Node000014"><a xlink:title=" ">
<path fill="none" stroke="#63b8ff" d="M471.78,-110.09C450.98,-101.64 419.65,-88.9 395.95,-79.27"/>
<polygon fill="#63b8ff" stroke="#63b8ff" points="397.32,-76.05 386.73,-75.52 394.68,-82.53 397.32,-76.05"/>
</a>
</g>
</g>
<!-- Node16&#45;&gt;Node5 -->
<g id="edge43_Node000016_Node000005" class="edge">
<title>Node16&#45;&gt;Node5</title>
<g id="a_edge43_Node000016_Node000005"><a xlink:title=" ">
<path fill="none" stroke="#63b8ff" d="M548.19,-276.09C567.16,-242.76 628.67,-122.57 572,-55.25 543.81,-21.76 412.02,-13.41 348.46,-11.32"/>
<polygon fill="#63b8ff" stroke="#63b8ff" points="348.68,-7.82 338.58,-11.03 348.47,-14.82 348.68,-7.82"/>
</a>
</g>
</g>
<!-- Node16&#45;&gt;Node6 -->
<g id="edge41_Node000016_Node000006" class="edge">
<title>Node16&#45;&gt;Node6</title>
<g id="a_edge41_Node000016_Node000006"><a xlink:title=" ">
<path fill="none" stroke="#63b8ff" d="M551.69,-275.83C560.14,-266.94 573.23,-252.91 584,-240.25 631.52,-184.37 629.63,-157.43 686,-110.5 736.31,-68.62 807.03,-37.19 846.47,-21.59"/>
<polygon fill="#63b8ff" stroke="#63b8ff" points="847.72,-24.86 855.77,-17.98 845.19,-18.33 847.72,-24.86"/>
</a>
</g>
</g>
<!-- Node16&#45;&gt;Node8 -->
<g id="edge40_Node000016_Node000008" class="edge">
<title>Node16&#45;&gt;Node8</title>
<g id="a_edge40_Node000016_Node000008"><a xlink:title=" ">
<path fill="none" stroke="#63b8ff" d="M516.95,-275.82C495,-267.75 463.09,-254.95 437,-240.25 411.88,-226.1 385.42,-206.1 368.15,-192.26"/>
<polygon fill="#63b8ff" stroke="#63b8ff" points="370.71,-189.84 360.74,-186.25 366.3,-195.27 370.71,-189.84"/>
</a>
</g>
</g>
<!-- Node16&#45;&gt;Node9 -->
<g id="edge42_Node000016_Node000009" class="edge">
<title>Node16&#45;&gt;Node9</title>
<g id="a_edge42_Node000016_Node000009"><a xlink:title=" ">
<path fill="none" stroke="#63b8ff" d="M537.67,-275.8C521.05,-247.38 470.6,-160.24 459,-129.75 453.59,-115.54 449.75,-98.78 447.3,-85.99"/>
<polygon fill="#63b8ff" stroke="#63b8ff" points="450.77,-85.5 445.58,-76.26 443.88,-86.72 450.77,-85.5"/>
</a>
</g>
</g>
<!-- Node16&#45;&gt;Node17 -->
<g id="edge25_Node000016_Node000017" class="edge">
<title>Node16&#45;&gt;Node17</title>
<g id="a_edge25_Node000016_Node000017"><a xlink:title=" ">
<path fill="none" stroke="#63b8ff" d="M575.06,-275.84C606.42,-267.01 654.39,-253.49 689.04,-243.73"/>
<polygon fill="#63b8ff" stroke="#63b8ff" points="689.65,-247.19 698.32,-241.11 687.75,-240.46 689.65,-247.19"/>
</a>
</g>
</g>
<!-- Node25 -->
<g id="Node000025" class="node">
<title>Node25</title>
<g id="a_Node000025"><a xlink:title=" ">
<polygon fill="#e0e0e0" stroke="#999999" points="495.88,-240.25 446.12,-240.25 446.12,-221 495.88,-221 495.88,-240.25"/>
<text text-anchor="middle" x="471" y="-226.75" font-family="Helvetica,sans-Serif" font-size="10.00">optional</text>
</a>
</g>
</g>
<!-- Node16&#45;&gt;Node25 -->
<g id="edge44_Node000016_Node000025" class="edge">
<title>Node16&#45;&gt;Node25</title>
<g id="a_edge44_Node000016_Node000025"><a xlink:title=" ">
<path fill="none" stroke="#63b8ff" d="M530.79,-275.84C520.17,-267.99 504.56,-256.45 491.96,-247.12"/>
<polygon fill="#63b8ff" stroke="#63b8ff" points="494.37,-244.56 484.25,-241.42 490.21,-250.19 494.37,-244.56"/>
</a>
</g>
</g>
<!-- Node17&#45;&gt;Node5 -->
<g id="edge37_Node000017_Node000005" class="edge">
<title>Node17&#45;&gt;Node5</title>
<g id="a_edge37_Node000017_Node000005"><a xlink:title=" ">
<path fill="none" stroke="#63b8ff" d="M728.56,-220.86C716.61,-191.65 673.78,-97.11 605,-55.25 562.37,-29.3 415.46,-16.98 348.16,-12.59"/>
<polygon fill="#63b8ff" stroke="#63b8ff" points="348.65,-9.11 338.45,-11.98 348.21,-16.1 348.65,-9.11"/>
</a>
</g>
</g>
<!-- Node17&#45;&gt;Node6 -->
<g id="edge36_Node000017_Node000006" class="edge">
<title>Node17&#45;&gt;Node6</title>
<g id="a_edge36_Node000017_Node000006"><a xlink:title=" ">
<path fill="none" stroke="#63b8ff" d="M768.02,-224.47C847.12,-212.33 1031.78,-179.17 1067,-129.75 1112.37,-66.08 970.2,-29.18 905.88,-16.08"/>
<polygon fill="#63b8ff" stroke="#63b8ff" points="906.82,-12.7 896.33,-14.21 905.47,-19.57 906.82,-12.7"/>
</a>
</g>
</g>
<!-- Node17&#45;&gt;Node10 -->
<g id="edge39_Node000017_Node000010" class="edge">
<title>Node17&#45;&gt;Node10</title>
<g id="a_edge39_Node000017_Node000010"><a xlink:title=" ">
<path fill="none" stroke="#63b8ff" d="M695.9,-222.2C671.27,-215.69 639.05,-204.19 616,-185 583.02,-157.55 560.76,-111.15 550.15,-85.1"/>
<polygon fill="#63b8ff" stroke="#63b8ff" points="553.55,-84.16 546.65,-76.12 547.02,-86.7 553.55,-84.16"/>
</a>
</g>
</g>
<!-- Node17&#45;&gt;Node15 -->
<g id="edge35_Node000017_Node000015" class="edge">
<title>Node17&#45;&gt;Node15</title>
<g id="a_edge35_Node000017_Node000015"><a xlink:title=" ">
<path fill="none" stroke="#63b8ff" d="M696.06,-223.13C663.93,-216.42 616.17,-204.2 578,-185 552.83,-172.34 527.58,-151.83 511.43,-137.48"/>
<polygon fill="#63b8ff" stroke="#63b8ff" points="513.92,-135.01 504.17,-130.86 509.21,-140.18 513.92,-135.01"/>
</a>
</g>
</g>
<!-- Node18 -->
<g id="Node000018" class="node">
<title>Node18</title>
<g id="a_Node000018"><a xlink:title=" ">
<polygon fill="#e0e0e0" stroke="#999999" points="988.25,-129.75 931.75,-129.75 931.75,-110.5 988.25,-110.5 988.25,-129.75"/>
<text text-anchor="middle" x="960" y="-116.25" font-family="Helvetica,sans-Serif" font-size="10.00">Arduino.h</text>
</a>
</g>
</g>
<!-- Node17&#45;&gt;Node18 -->
<g id="edge26_Node000017_Node000018" class="edge">
<title>Node17&#45;&gt;Node18</title>
<g id="a_edge26_Node000017_Node000018"><a xlink:title=" ">
<path fill="none" stroke="#63b8ff" d="M754.75,-220.55C776.17,-211.86 809.05,-198.17 837,-185 870.75,-169.09 908.74,-149.02 933.45,-135.67"/>
<polygon fill="#63b8ff" stroke="#63b8ff" points="935.04,-138.79 942.16,-130.94 931.7,-132.63 935.04,-138.79"/>
</a>
</g>
</g>
<!-- Node19 -->
<g id="Node000019" class="node">
<title>Node19</title>
<g id="a_Node000019"><a xlink:href="card_8hpp.xhtml" target="_top" xlink:title=" ">
<polygon fill="white" stroke="#666666" points="828.38,-185 775.62,-185 775.62,-165.75 828.38,-165.75 828.38,-185"/>
<text text-anchor="middle" x="802" y="-171.5" font-family="Helvetica,sans-Serif" font-size="10.00">card.hpp</text>
</a>
</g>
</g>
<!-- Node17&#45;&gt;Node19 -->
<g id="edge27_Node000017_Node000019" class="edge">
<title>Node17&#45;&gt;Node19</title>
<g id="a_edge27_Node000017_Node000019"><a xlink:title=" ">
<path fill="none" stroke="#63b8ff" d="M743.87,-220.59C754.09,-212.82 769.07,-201.42 781.26,-192.15"/>
<polygon fill="#63b8ff" stroke="#63b8ff" points="783.26,-195.03 789.1,-186.19 779.02,-189.46 783.26,-195.03"/>
</a>
</g>
</g>
<!-- Node20 -->
<g id="Node000020" class="node">
<title>Node20</title>
<g id="a_Node000020"><a xlink:title=" ">
<polygon fill="#e0e0e0" stroke="#999999" points="1057.62,-129.75 1006.38,-129.75 1006.38,-110.5 1057.62,-110.5 1057.62,-129.75"/>
<text text-anchor="middle" x="1032" y="-116.25" font-family="Helvetica,sans-Serif" font-size="10.00">sstream</text>
</a>
</g>
</g>
<!-- Node17&#45;&gt;Node20 -->
<g id="edge38_Node000017_Node000020" class="edge">
<title>Node17&#45;&gt;Node20</title>
<g id="a_edge38_Node000017_Node000020"><a xlink:title=" ">
<path fill="none" stroke="#63b8ff" d="M761.57,-220.54C789.43,-211.86 832.27,-198.17 869,-185 914.76,-168.6 966.95,-147.76 999.69,-134.43"/>
<polygon fill="#63b8ff" stroke="#63b8ff" points="1000.67,-137.81 1008.61,-130.79 998.03,-131.33 1000.67,-137.81"/>
</a>
</g>
</g>
<!-- Node19&#45;&gt;Node15 -->
<g id="edge31_Node000019_Node000015" class="edge">
<title>Node19&#45;&gt;Node15</title>
<g id="a_edge31_Node000019_Node000015"><a xlink:title=" ">
<path fill="none" stroke="#63b8ff" d="M775.21,-169.74C720.23,-160.24 594.57,-138.51 531.52,-127.61"/>
<polygon fill="#63b8ff" stroke="#63b8ff" points="532.45,-124.22 522,-125.97 531.26,-131.12 532.45,-124.22"/>
</a>
</g>
</g>
<!-- Node19&#45;&gt;Node18 -->
<g id="edge30_Node000019_Node000018" class="edge">
<title>Node19&#45;&gt;Node18</title>
<g id="a_edge30_Node000019_Node000018"><a xlink:title=" ">
<path fill="none" stroke="#63b8ff" d="M828.8,-165.34C854.45,-156.7 893.39,-143.57 922.19,-133.87"/>
<polygon fill="#63b8ff" stroke="#63b8ff" points="923.27,-137.2 931.63,-130.69 921.04,-130.56 923.27,-137.2"/>
</a>
</g>
</g>
<!-- Node19&#45;&gt;Node20 -->
<g id="edge28_Node000019_Node000020" class="edge">
<title>Node19&#45;&gt;Node20</title>
<g id="a_edge28_Node000019_Node000020"><a xlink:title=" ">
<path fill="none" stroke="#63b8ff" d="M828.84,-168.38C864.49,-160.39 929.68,-145.66 995.1,-130.17"/>
<polygon fill="#63b8ff" stroke="#63b8ff" points="995.62,-133.64 1004.55,-127.93 994.01,-126.83 995.62,-133.64"/>
</a>
</g>
</g>
<!-- Node21 -->
<g id="Node000021" class="node">
<title>Node21</title>
<g id="a_Node000021"><a xlink:title=" ">
<polygon fill="#e0e0e0" stroke="#999999" points="826.88,-129.75 777.12,-129.75 777.12,-110.5 826.88,-110.5 826.88,-129.75"/>
<text text-anchor="middle" x="802" y="-116.25" font-family="Helvetica,sans-Serif" font-size="10.00">iomanip</text>
</a>
</g>
</g>
<!-- Node19&#45;&gt;Node21 -->
<g id="edge29_Node000019_Node000021" class="edge">
<title>Node19&#45;&gt;Node21</title>
<g id="a_edge29_Node000019_Node000021"><a xlink:title=" ">
<path fill="none" stroke="#63b8ff" d="M802,-165.58C802,-159.07 802,-149.92 802,-141.62"/>
<polygon fill="#63b8ff" stroke="#63b8ff" points="805.5,-141.62 802,-131.62 798.5,-141.62 805.5,-141.62"/>
</a>
</g>
</g>
<!-- Node22 -->
<g id="Node000022" class="node">
<title>Node22</title>
<g id="a_Node000022"><a xlink:href="_logging_8hpp.xhtml" target="_top" xlink:title=" ">
<polygon fill="white" stroke="#666666" points="913.25,-129.75 844.75,-129.75 844.75,-110.5 913.25,-110.5 913.25,-129.75"/>
<text text-anchor="middle" x="879" y="-116.25" font-family="Helvetica,sans-Serif" font-size="10.00">Logging.hpp</text>
</a>
</g>
</g>
<!-- Node19&#45;&gt;Node22 -->
<g id="edge32_Node000019_Node000022" class="edge">
<title>Node19&#45;&gt;Node22</title>
<g id="a_edge32_Node000019_Node000022"><a xlink:title=" ">
<path fill="none" stroke="#63b8ff" d="M815.06,-165.34C826.46,-157.46 843.23,-145.86 856.74,-136.52"/>
<polygon fill="#63b8ff" stroke="#63b8ff" points="858.4,-139.63 864.63,-131.06 854.41,-133.87 858.4,-139.63"/>
</a>
</g>
</g>
<!-- Node24 -->
<g id="Node000024" class="node">
<title>Node24</title>
<g id="a_Node000024"><a xlink:title=" ">
<polygon fill="#e0e0e0" stroke="#999999" points="758.62,-129.75 695.38,-129.75 695.38,-110.5 758.62,-110.5 758.62,-129.75"/>
<text text-anchor="middle" x="727" y="-116.25" font-family="Helvetica,sans-Serif" font-size="10.00">esp_mac.h</text>
</a>
</g>
</g>
<!-- Node19&#45;&gt;Node24 -->
<g id="edge34_Node000019_Node000024" class="edge">
<title>Node19&#45;&gt;Node24</title>
<g id="a_edge34_Node000019_Node000024"><a xlink:title=" ">
<path fill="none" stroke="#63b8ff" d="M789.28,-165.34C778.29,-157.54 762.16,-146.09 749.07,-136.79"/>
<polygon fill="#63b8ff" stroke="#63b8ff" points="751.2,-134.01 741.02,-131.08 747.15,-139.72 751.2,-134.01"/>
</a>
</g>
</g>
<!-- Node23 -->
<g id="Node000023" class="node">
<title>Node23</title>
<g id="a_Node000023"><a xlink:title=" ">
<polygon fill="#e0e0e0" stroke="#999999" points="907.62,-74.5 850.38,-74.5 850.38,-55.25 907.62,-55.25 907.62,-74.5"/>
<text text-anchor="middle" x="879" y="-61" font-family="Helvetica,sans-Serif" font-size="10.00">esp_log.h</text>
</a>
</g>
</g>
<!-- Node22&#45;&gt;Node23 -->
<g id="edge33_Node000022_Node000023" class="edge">
<title>Node22&#45;&gt;Node23</title>
<g id="a_edge33_Node000022_Node000023"><a xlink:title=" ">
<path fill="none" stroke="#63b8ff" d="M879,-110.33C879,-103.82 879,-94.67 879,-86.37"/>
<polygon fill="#63b8ff" stroke="#63b8ff" points="882.5,-86.37 879,-76.37 875.5,-86.37 882.5,-86.37"/>
</a>
</g>
</g>
</g>
</svg>

<g id="navigator" transform="translate(0 0)" fill="#404254">
  <rect fill="#f2f5e9" fill-opacity="0.5" stroke="#606060" stroke-width=".5" x="0" y="0" width="60" height="60"/>
  <use id="zoomplus" xlink:href="#zoomPlus" x="17" y="9" onmousedown="handleZoom(evt,'in')"/>
  <use id="zoomminus" xlink:href="#zoomMin" x="42" y="9" onmousedown="handleZoom(evt,'out')"/>
  <use id="reset" xlink:href="#resetDef" x="30" y="36" onmousedown="handleReset()"/>
   <use id="arrowup" xlink:href="#arrowUp" x="0" y="0" onmousedown="handlePan(0,-1)"/>
  <use id="arrowright" xlink:href="#arrowRight" x="0" y="0" onmousedown="handlePan(1,0)"/>
  <use id="arrowdown" xlink:href="#arrowDown" x="0" y="0" onmousedown="handlePan(0,1)"/>
  <use id="arrowleft" xlink:href="#arrowLeft" x="0" y="0" onmousedown="handlePan(-1,0)"/>
</g>
<svg viewBox="0 0 15 15" width="100%" height="30px" preserveAspectRatio="xMaxYMin meet">
 <g id="arrow_out" transform="scale(0.3 0.3)">
  <a xlink:href="_o_t_a_8hpp__incl_org.svg" target="_base">
   <rect id="button" ry="5" rx="5" y="6" x="6" height="38" width="38"
        fill="#f2f5e9" fill-opacity="0.5" stroke="#606060" stroke-width="1.0"/>
   <path id="arrow"
     d="M 11.500037,31.436501 C 11.940474,20.09759 22.043105,11.32322 32.158766,21.979434 L 37.068811,17.246167 C 37.068811,17.246167 37.088388,32 37.088388,32 L 22.160133,31.978069 C 22.160133,31.978069 26.997745,27.140456 26.997745,27.140456 C 18.528582,18.264221 13.291696,25.230495 11.500037,31.436501 z"
     style="fill:#404040;"/>
  </a>
 </g>
</svg>

<style type='text/css'>
<![CDATA[
[data-mouse-over-selected='false'] { opacity: 0.7; }
[data-mouse-over-selected='true']  { opacity: 1.0; }
]]>
</style>
<script type="application/ecmascript"><![CDATA[
document.addEventListener('DOMContentLoaded', (event) => {
  highlightEdges();
  highlightAdjacentNodes();
});
]]></script>
</svg>
