<?xml version="1.0" encoding="UTF-8" standalone="no"?>
<!DOCTYPE svg PUBLIC "-//W3C//DTD SVG 1.1//EN"
 "http://www.w3.org/Graphics/SVG/1.1/DTD/svg11.dtd">
<!-- Generated by graphviz version 9.0.0 (20230911.1827)
 -->
<!-- Title: OTA.hpp Pages: 1 -->
<!--zoomable 414 -->

<svg id="main" version="1.1" xmlns="http://www.w3.org/2000/svg" xmlns:xlink="http://www.w3.org/1999/xlink" xml:space="preserve" onload="init(evt)">
<style type="text/css"><![CDATA[
.node, .edge {opacity: 0.7;}
.node.selected, .edge.selected {opacity: 1;}
.edge:hover path { stroke: red; }
.edge:hover polygon { stroke: red; fill: red; }
]]></style>

<defs>
  <circle id="rim" cx="0" cy="0" r="7"/>
  <circle id="rim2" cx="0" cy="0" r="3.5"/>
  <g id="zoomPlus">
    <use xlink:href="#rim" fill="#404040"><set attributeName="fill" to="#808080" begin="zoomplus.mouseover" end="zoomplus.mouseout"/></use>
    <path d="M-4,0h8M0,-4v8" fill="none" stroke="white" stroke-width="1.5" pointer-events="none"/>
  </g>
  <g id="zoomMin">
    <use xlink:href="#rim" fill="#404040"><set attributeName="fill" to="#808080" begin="zoomminus.mouseover" end="zoomminus.mouseout"/></use>
    <path d="M-4,0h8" fill="none" stroke="white" stroke-width="1.5" pointer-events="none"/>
  </g>
  <g id="arrowUp" transform="translate(30 24)">
    <use xlink:href="#rim"/>
    <path pointer-events="none" fill="none" stroke="white" stroke-width="1.5" d="M0,-3.0v7 M-2.5,-0.5L0,-3.0L2.5,-0.5"/>
  </g>
  <g id="arrowRight" transform="rotate(90) translate(36 -43)">
    <use xlink:href="#rim"/>
    <path pointer-events="none" fill="none" stroke="white" stroke-width="1.5" d="M0,-3.0v7 M-2.5,-0.5L0,-3.0L2.5,-0.5"/>
  </g>
  <g id="arrowDown" transform="rotate(180) translate(-30 -48)">
    <use xlink:href="#rim"/>
    <path pointer-events="none" fill="none" stroke="white" stroke-width="1.5" d="M0,-3.0v7 M-2.5,-0.5L0,-3.0L2.5,-0.5"/>
  </g>
  <g id="arrowLeft" transform="rotate(270) translate(-36 17)">
    <use xlink:href="#rim"/>
    <path pointer-events="none" fill="none" stroke="white" stroke-width="1.5" d="M0,-3.0v7 M-2.5,-0.5L0,-3.0L2.5,-0.5"/>
  </g>
  <g id="resetDef">
    <use xlink:href="#rim2" fill="#404040"><set attributeName="fill" to="#808080" begin="reset.mouseover" end="reset.mouseout"/></use>
  </g>
</defs>
<script type="application/ecmascript">
var viewWidth = 1198;
var viewHeight = 414;
var sectionId = 'dynsection-0';
</script>
<script type="application/ecmascript" xlink:href="svg.min.js"/>
<svg id="graph" class="graph">
<g id="viewport">
<title>OTA.hpp</title>
<!-- Node1 -->
<g id="Node000001" class="node">
<title>Node1</title>
<g id="a_Node000001"><a xlink:title=" ">
<polygon fill="#999999" stroke="#666666" points="704.01,-406 649.76,-406 649.76,-386.75 704.01,-386.75 704.01,-406"/>
<text text-anchor="middle" x="676.88" y="-392.5" font-family="Helvetica,sans-Serif" font-size="10.00">OTA.hpp</text>
</a>
</g>
</g>
<!-- Node2 -->
<g id="Node000002" class="node">
<title>Node2</title>
<g id="a_Node000002"><a xlink:title=" ">
<polygon fill="#e0e0e0" stroke="#999999" points="618.26,-350.75 541.51,-350.75 541.51,-331.5 618.26,-331.5 618.26,-350.75"/>
<text text-anchor="middle" x="579.88" y="-337.25" font-family="Helvetica,sans-Serif" font-size="10.00">ArduinoOTA.h</text>
</a>
</g>
</g>
<!-- Node1&#45;&gt;Node2 -->
<g id="edge1_Node000001_Node000002" class="edge">
<title>Node1&#45;&gt;Node2</title>
<g id="a_edge1_Node000001_Node000002"><a xlink:title=" ">
<path fill="none" stroke="#63b8ff" d="M660.43,-386.34C645.66,-378.23 623.71,-366.18 606.45,-356.71"/>
<polygon fill="#63b8ff" stroke="#63b8ff" points="608.19,-353.68 597.74,-351.93 604.83,-359.81 608.19,-353.68"/>
</a>
</g>
</g>
<!-- Node3 -->
<g id="Node000003" class="node">
<title>Node3</title>
<g id="a_Node000003"><a xlink:title=" ">
<polygon fill="#e0e0e0" stroke="#999999" points="717.13,-350.75 636.63,-350.75 636.63,-331.5 717.13,-331.5 717.13,-350.75"/>
<text text-anchor="middle" x="676.88" y="-337.25" font-family="Helvetica,sans-Serif" font-size="10.00">WiFiManager.h</text>
</a>
</g>
</g>
<!-- Node1&#45;&gt;Node3 -->
<g id="edge2_Node000001_Node000003" class="edge">
<title>Node1&#45;&gt;Node3</title>
<g id="a_edge2_Node000001_Node000003"><a xlink:title=" ">
<path fill="none" stroke="#63b8ff" d="M676.88,-386.58C676.88,-380.07 676.88,-370.92 676.88,-362.62"/>
<polygon fill="#63b8ff" stroke="#63b8ff" points="680.38,-362.62 676.88,-352.62 673.38,-362.62 680.38,-362.62"/>
</a>
</g>
</g>
<!-- Node4 -->
<g id="Node000004" class="node">
<title>Node4</title>
<g id="a_Node000004"><a xlink:href="secrets_8hpp.xhtml" target="_top" xlink:title=" ">
<polygon fill="white" stroke="#666666" points="801.01,-350.75 734.76,-350.75 734.76,-331.5 801.01,-331.5 801.01,-350.75"/>
<text text-anchor="middle" x="767.88" y="-337.25" font-family="Helvetica,sans-Serif" font-size="10.00">secrets.hpp</text>
</a>
</g>
</g>
<!-- Node1&#45;&gt;Node4 -->
<g id="edge3_Node000001_Node000004" class="edge">
<title>Node1&#45;&gt;Node4</title>
<g id="a_edge3_Node000001_Node000004"><a xlink:title=" ">
<path fill="none" stroke="#63b8ff" d="M692.32,-386.34C706.05,-378.31 726.38,-366.41 742.5,-356.98"/>
<polygon fill="#63b8ff" stroke="#63b8ff" points="744.2,-360.04 751.06,-351.97 740.66,-354 744.2,-360.04"/>
</a>
</g>
</g>
<!-- Node5 -->
<g id="Node000005" class="node">
<title>Node5</title>
<g id="a_Node000005"><a xlink:title=" ">
<polygon fill="#e0e0e0" stroke="#999999" points="578.51,-19.25 533.26,-19.25 533.26,0 578.51,0 578.51,-19.25"/>
<text text-anchor="middle" x="555.88" y="-5.75" font-family="Helvetica,sans-Serif" font-size="10.00">cstdint</text>
</a>
</g>
</g>
<!-- Node4&#45;&gt;Node5 -->
<g id="edge4_Node000004_Node000005" class="edge">
<title>Node4&#45;&gt;Node5</title>
<g id="a_edge4_Node000004_Node000005"><a xlink:title=" ">
<path fill="none" stroke="#63b8ff" d="M783.91,-331.05C810.27,-314.81 859.88,-278.06 859.88,-231.62 859.88,-231.62 859.88,-231.62 859.88,-174.38 859.88,-136.33 890.95,-138.34 916.88,-110.5 932.09,-94.17 943.49,-95.18 951.88,-74.5 955.1,-66.57 957.58,-61.63 951.88,-55.25 927.95,-28.47 682.24,-15.77 590.33,-11.93"/>
<polygon fill="#63b8ff" stroke="#63b8ff" points="590.56,-8.44 580.42,-11.53 590.27,-15.43 590.56,-8.44"/>
</a>
</g>
</g>
<!-- Node6 -->
<g id="Node000006" class="node">
<title>Node6</title>
<g id="a_Node000006"><a xlink:title=" ">
<polygon fill="#e0e0e0" stroke="#999999" points="981.38,-19.25 944.38,-19.25 944.38,0 981.38,0 981.38,-19.25"/>
<text text-anchor="middle" x="962.88" y="-5.75" font-family="Helvetica,sans-Serif" font-size="10.00">array</text>
</a>
</g>
</g>
<!-- Node4&#45;&gt;Node6 -->
<g id="edge5_Node000004_Node000006" class="edge">
<title>Node4&#45;&gt;Node6</title>
<g id="a_edge5_Node000004_Node000006"><a xlink:title=" ">
<path fill="none" stroke="#63b8ff" d="M801.44,-336.28C885.04,-325.78 1095.88,-293.18 1095.88,-231.62 1095.88,-231.62 1095.88,-231.62 1095.88,-119.12 1095.88,-66.1 1031.63,-34.37 992.44,-19.95"/>
<polygon fill="#63b8ff" stroke="#63b8ff" points="993.68,-16.67 983.08,-16.68 991.37,-23.28 993.68,-16.67"/>
</a>
</g>
</g>
<!-- Node7 -->
<g id="Node000007" class="node">
<title>Node7</title>
<g id="a_Node000007"><a xlink:title=" ">
<polygon fill="#e0e0e0" stroke="#999999" points="1189.63,-295.5 1124.13,-295.5 1124.13,-276.25 1189.63,-276.25 1189.63,-295.5"/>
<text text-anchor="middle" x="1156.88" y="-282" font-family="Helvetica,sans-Serif" font-size="10.00">string_view</text>
</a>
</g>
</g>
<!-- Node4&#45;&gt;Node7 -->
<g id="edge6_Node000004_Node000007" class="edge">
<title>Node4&#45;&gt;Node7</title>
<g id="a_edge6_Node000004_Node000007"><a xlink:title=" ">
<path fill="none" stroke="#63b8ff" d="M801.46,-336.33C862.84,-329.26 997.19,-313.18 1109.88,-295.5 1110.87,-295.35 1111.86,-295.19 1112.87,-295.02"/>
<polygon fill="#63b8ff" stroke="#63b8ff" points="1113.03,-298.55 1122.3,-293.42 1111.86,-291.65 1113.03,-298.55"/>
</a>
</g>
</g>
<!-- Node8 -->
<g id="Node000008" class="node">
<title>Node8</title>
<g id="a_Node000008"><a xlink:href="_machine_config_8hpp.xhtml" target="_top" xlink:title=" ">
<polygon fill="white" stroke="#666666" points="648.76,-185 551.01,-185 551.01,-165.75 648.76,-165.75 648.76,-185"/>
<text text-anchor="middle" x="599.88" y="-171.5" font-family="Helvetica,sans-Serif" font-size="10.00">MachineConfig.hpp</text>
</a>
</g>
</g>
<!-- Node4&#45;&gt;Node8 -->
<g id="edge7_Node000004_Node000008" class="edge">
<title>Node4&#45;&gt;Node8</title>
<g id="a_edge7_Node000004_Node000008"><a xlink:title=" ">
<path fill="none" stroke="#63b8ff" d="M758.85,-331.32C731.96,-305.11 652.11,-227.28 616.89,-192.95"/>
<polygon fill="#63b8ff" stroke="#63b8ff" points="619.65,-190.75 610.04,-186.28 614.76,-195.77 619.65,-190.75"/>
</a>
</g>
</g>
<!-- Node15 -->
<g id="Node000015" class="node">
<title>Node15</title>
<g id="a_Node000015"><a xlink:href="conf_8hpp.xhtml" target="_top" xlink:title=" ">
<polygon fill="white" stroke="#666666" points="496.26,-129.75 443.51,-129.75 443.51,-110.5 496.26,-110.5 496.26,-129.75"/>
<text text-anchor="middle" x="469.88" y="-116.25" font-family="Helvetica,sans-Serif" font-size="10.00">conf.hpp</text>
</a>
</g>
</g>
<!-- Node4&#45;&gt;Node15 -->
<g id="edge50_Node000004_Node000015" class="edge">
<title>Node4&#45;&gt;Node15</title>
<g id="a_edge50_Node000004_Node000015"><a xlink:title=" ">
<path fill="none" stroke="#63b8ff" d="M754.23,-331.14C740.65,-322.19 719.25,-308 700.88,-295.5 629.73,-247.09 609.52,-238.2 541.88,-185 522.7,-169.92 501.98,-151.26 487.71,-138.01"/>
<polygon fill="#63b8ff" stroke="#63b8ff" points="490.15,-135.5 480.45,-131.21 485.36,-140.6 490.15,-135.5"/>
</a>
</g>
</g>
<!-- Node16 -->
<g id="Node000016" class="node">
<title>Node16</title>
<g id="a_Node000016"><a xlink:href="_machine_8hpp.xhtml" target="_top" xlink:title=" ">
<polygon fill="white" stroke="#666666" points="803.26,-295.5 732.51,-295.5 732.51,-276.25 803.26,-276.25 803.26,-295.5"/>
<text text-anchor="middle" x="767.88" y="-282" font-family="Helvetica,sans-Serif" font-size="10.00">Machine.hpp</text>
</a>
</g>
</g>
<!-- Node4&#45;&gt;Node16 -->
<g id="edge24_Node000004_Node000016" class="edge">
<title>Node4&#45;&gt;Node16</title>
<g id="a_edge24_Node000004_Node000016"><a xlink:title=" ">
<path fill="none" stroke="#63b8ff" d="M767.88,-331.33C767.88,-324.82 767.88,-315.67 767.88,-307.37"/>
<polygon fill="#63b8ff" stroke="#63b8ff" points="771.38,-307.37 767.88,-297.37 764.38,-307.37 771.38,-307.37"/>
</a>
</g>
</g>
<!-- Node17 -->
<g id="Node000017" class="node">
<title>Node17</title>
<g id="a_Node000017"><a xlink:href="_fab_user_8hpp.xhtml" target="_top" xlink:title=" ">
<polygon fill="white" stroke="#666666" points="432.63,-240.25 361.13,-240.25 361.13,-221 432.63,-221 432.63,-240.25"/>
<text text-anchor="middle" x="396.88" y="-226.75" font-family="Helvetica,sans-Serif" font-size="10.00">FabUser.hpp</text>
</a>
</g>
</g>
<!-- Node4&#45;&gt;Node17 -->
<g id="edge51_Node000004_Node000017" class="edge">
<title>Node4&#45;&gt;Node17</title>
<g id="a_edge51_Node000004_Node000017"><a xlink:title=" ">
<path fill="none" stroke="#63b8ff" d="M734.44,-333.12C731.55,-332.56 728.66,-332.01 725.88,-331.5 626.69,-313.35 596.5,-330.35 501.88,-295.5 470.37,-283.89 437.91,-262.41 417.58,-247.58"/>
<polygon fill="#63b8ff" stroke="#63b8ff" points="419.71,-244.8 409.6,-241.63 415.52,-250.41 419.71,-244.8"/>
</a>
</g>
</g>
<!-- Node8&#45;&gt;Node5 -->
<g id="edge9_Node000008_Node000005" class="edge">
<title>Node8&#45;&gt;Node5</title>
<g id="a_edge9_Node000008_Node000005"><a xlink:title=" ">
<path fill="none" stroke="#63b8ff" d="M595.28,-165.3C586.81,-148.1 568.86,-109.34 560.88,-74.5 557.57,-60.03 556.35,-43.28 555.94,-30.56"/>
<polygon fill="#63b8ff" stroke="#63b8ff" points="559.45,-30.88 555.78,-20.94 552.45,-31 559.45,-30.88"/>
</a>
</g>
</g>
<!-- Node9 -->
<g id="Node000009" class="node">
<title>Node9</title>
<g id="a_Node000009"><a xlink:title=" ">
<polygon fill="#e0e0e0" stroke="#999999" points="942.51,-74.5 897.26,-74.5 897.26,-55.25 942.51,-55.25 942.51,-74.5"/>
<text text-anchor="middle" x="919.88" y="-61" font-family="Helvetica,sans-Serif" font-size="10.00">chrono</text>
</a>
</g>
</g>
<!-- Node8&#45;&gt;Node9 -->
<g id="edge8_Node000008_Node000009" class="edge">
<title>Node8&#45;&gt;Node9</title>
<g id="a_edge8_Node000008_Node000009"><a xlink:title=" ">
<path fill="none" stroke="#63b8ff" d="M626.61,-165.31C684.71,-145.61 822.39,-98.93 886.26,-77.27"/>
<polygon fill="#63b8ff" stroke="#63b8ff" points="887.15,-80.67 895.5,-74.14 884.91,-74.04 887.15,-80.67"/>
</a>
</g>
</g>
<!-- Node10 -->
<g id="Node000010" class="node">
<title>Node10</title>
<g id="a_Node000010"><a xlink:title=" ">
<polygon fill="#e0e0e0" stroke="#999999" points="410.88,-74.5 370.88,-74.5 370.88,-55.25 410.88,-55.25 410.88,-74.5"/>
<text text-anchor="middle" x="390.88" y="-61" font-family="Helvetica,sans-Serif" font-size="10.00">string</text>
</a>
</g>
</g>
<!-- Node8&#45;&gt;Node10 -->
<g id="edge10_Node000008_Node000010" class="edge">
<title>Node8&#45;&gt;Node10</title>
<g id="a_edge10_Node000008_Node000010"><a xlink:title=" ">
<path fill="none" stroke="#63b8ff" d="M588.4,-165.44C571.04,-152.21 536.75,-127.19 504.88,-110.5 477.86,-96.35 445.31,-84.04 421.92,-75.95"/>
<polygon fill="#63b8ff" stroke="#63b8ff" points="423.26,-72.71 412.67,-72.82 421.02,-79.34 423.26,-72.71"/>
</a>
</g>
</g>
<!-- Node11 -->
<g id="Node000011" class="node">
<title>Node11</title>
<g id="a_Node000011"><a xlink:href="pins_8hpp.xhtml" target="_top" xlink:title=" ">
<polygon fill="white" stroke="#666666" points="717.88,-129.75 665.88,-129.75 665.88,-110.5 717.88,-110.5 717.88,-129.75"/>
<text text-anchor="middle" x="691.88" y="-116.25" font-family="Helvetica,sans-Serif" font-size="10.00">pins.hpp</text>
</a>
</g>
</g>
<!-- Node8&#45;&gt;Node11 -->
<g id="edge11_Node000008_Node000011" class="edge">
<title>Node8&#45;&gt;Node11</title>
<g id="a_edge11_Node000008_Node000011"><a xlink:title=" ">
<path fill="none" stroke="#63b8ff" d="M615.49,-165.34C629.5,-157.23 650.32,-145.18 666.68,-135.71"/>
<polygon fill="#63b8ff" stroke="#63b8ff" points="667.99,-139 674.89,-130.96 664.48,-132.94 667.99,-139"/>
</a>
</g>
</g>
<!-- Node14 -->
<g id="Node000014" class="node">
<title>Node14</title>
<g id="a_Node000014"><a xlink:href="_machine_i_d_8hpp.xhtml" target="_top" xlink:title=" ">
<polygon fill="white" stroke="#666666" points="509.13,-74.5 428.63,-74.5 428.63,-55.25 509.13,-55.25 509.13,-74.5"/>
<text text-anchor="middle" x="468.88" y="-61" font-family="Helvetica,sans-Serif" font-size="10.00">MachineID.hpp</text>
</a>
</g>
</g>
<!-- Node8&#45;&gt;Node14 -->
<g id="edge17_Node000008_Node000014" class="edge">
<title>Node8&#45;&gt;Node14</title>
<g id="a_edge17_Node000008_Node000014"><a xlink:title=" ">
<path fill="none" stroke="#63b8ff" d="M592.42,-165.49C581.3,-152.56 559.39,-128.15 537.88,-110.5 524.35,-99.39 507.93,-88.68 494.51,-80.54"/>
<polygon fill="#63b8ff" stroke="#63b8ff" points="496.61,-77.71 486.23,-75.62 493.04,-83.73 496.61,-77.71"/>
</a>
</g>
</g>
<!-- Node8&#45;&gt;Node15 -->
<g id="edge19_Node000008_Node000015" class="edge">
<title>Node8&#45;&gt;Node15</title>
<g id="a_edge19_Node000008_Node000015"><a xlink:title=" ">
<path fill="none" stroke="#63b8ff" d="M577.83,-165.34C557.19,-156.89 526.1,-144.15 502.58,-134.52"/>
<polygon fill="#63b8ff" stroke="#63b8ff" points="504.02,-131.33 493.44,-130.78 501.37,-137.81 504.02,-131.33"/>
</a>
</g>
</g>
<!-- Node11&#45;&gt;Node5 -->
<g id="edge12_Node000011_Node000005" class="edge">
<title>Node11&#45;&gt;Node5</title>
<g id="a_edge12_Node000011_Node000005"><a xlink:title=" ">
<path fill="none" stroke="#63b8ff" d="M679.31,-110.11C667.05,-101.24 647.97,-87.22 631.88,-74.5 611.96,-58.74 589.78,-39.95 574.55,-26.85"/>
<polygon fill="#63b8ff" stroke="#63b8ff" points="577.05,-24.38 567.19,-20.49 572.47,-29.68 577.05,-24.38"/>
</a>
</g>
</g>
<!-- Node12 -->
<g id="Node000012" class="node">
<title>Node12</title>
<g id="a_Node000012"><a xlink:title=" ">
<polygon fill="#e0e0e0" stroke="#999999" points="742.63,-74.5 641.13,-74.5 641.13,-55.25 742.63,-55.25 742.63,-74.5"/>
<text text-anchor="middle" x="691.88" y="-61" font-family="Helvetica,sans-Serif" font-size="10.00">Adafruit_NeoPixel.h</text>
</a>
</g>
</g>
<!-- Node11&#45;&gt;Node12 -->
<g id="edge13_Node000011_Node000012" class="edge">
<title>Node11&#45;&gt;Node12</title>
<g id="a_edge13_Node000011_Node000012"><a xlink:title=" ">
<path fill="none" stroke="#63b8ff" d="M691.88,-110.33C691.88,-103.82 691.88,-94.67 691.88,-86.37"/>
<polygon fill="#63b8ff" stroke="#63b8ff" points="695.38,-86.37 691.88,-76.37 688.38,-86.37 695.38,-86.37"/>
</a>
</g>
</g>
<!-- Node13 -->
<g id="Node000013" class="node">
<title>Node13</title>
<g id="a_Node000013"><a xlink:href="_pins_config_8hpp.xhtml" target="_top" xlink:title=" ">
<polygon fill="white" stroke="#666666" points="841.13,-74.5 760.63,-74.5 760.63,-55.25 841.13,-55.25 841.13,-74.5"/>
<text text-anchor="middle" x="800.88" y="-61" font-family="Helvetica,sans-Serif" font-size="10.00">PinsConfig.hpp</text>
</a>
</g>
</g>
<!-- Node11&#45;&gt;Node13 -->
<g id="edge14_Node000011_Node000013" class="edge">
<title>Node11&#45;&gt;Node13</title>
<g id="a_edge14_Node000011_Node000013"><a xlink:title=" ">
<path fill="none" stroke="#63b8ff" d="M710.37,-110.09C727.28,-101.83 752.57,-89.48 772.12,-79.93"/>
<polygon fill="#63b8ff" stroke="#63b8ff" points="773.49,-83.15 780.94,-75.62 770.42,-76.86 773.49,-83.15"/>
</a>
</g>
</g>
<!-- Node13&#45;&gt;Node5 -->
<g id="edge15_Node000013_Node000005" class="edge">
<title>Node13&#45;&gt;Node5</title>
<g id="a_edge15_Node000013_Node000005"><a xlink:title=" ">
<path fill="none" stroke="#63b8ff" d="M760.15,-55.02C712.56,-44.68 634.67,-27.75 590.08,-18.06"/>
<polygon fill="#63b8ff" stroke="#63b8ff" points="590.97,-14.67 580.45,-15.97 589.48,-21.51 590.97,-14.67"/>
</a>
</g>
</g>
<!-- Node13&#45;&gt;Node6 -->
<g id="edge16_Node000013_Node000006" class="edge">
<title>Node13&#45;&gt;Node6</title>
<g id="a_edge16_Node000013_Node000006"><a xlink:title=" ">
<path fill="none" stroke="#63b8ff" d="M828.36,-54.84C857.5,-45.26 903.36,-30.19 933.28,-20.36"/>
<polygon fill="#63b8ff" stroke="#63b8ff" points="934.05,-23.79 942.46,-17.34 931.87,-17.14 934.05,-23.79"/>
</a>
</g>
</g>
<!-- Node14&#45;&gt;Node5 -->
<g id="edge18_Node000014_Node000005" class="edge">
<title>Node14&#45;&gt;Node5</title>
<g id="a_edge18_Node000014_Node000005"><a xlink:title=" ">
<path fill="none" stroke="#63b8ff" d="M483.64,-54.84C496.76,-46.81 516.2,-34.91 531.61,-25.48"/>
<polygon fill="#63b8ff" stroke="#63b8ff" points="533.06,-28.7 539.76,-20.49 529.4,-22.73 533.06,-28.7"/>
</a>
</g>
</g>
<!-- Node15&#45;&gt;Node5 -->
<g id="edge20_Node000015_Node000005" class="edge">
<title>Node15&#45;&gt;Node5</title>
<g id="a_edge20_Node000015_Node000005"><a xlink:title=" ">
<path fill="none" stroke="#63b8ff" d="M443.21,-111.8C414.39,-103.28 371.3,-88.58 361.88,-74.5 357.13,-67.39 356.55,-61.94 361.88,-55.25 381.51,-30.59 471.63,-18.42 521.85,-13.46"/>
<polygon fill="#63b8ff" stroke="#63b8ff" points="521.96,-16.96 531.59,-12.54 521.31,-9.99 521.96,-16.96"/>
</a>
</g>
</g>
<!-- Node15&#45;&gt;Node9 -->
<g id="edge22_Node000015_Node000009" class="edge">
<title>Node15&#45;&gt;Node9</title>
<g id="a_edge22_Node000015_Node000009"><a xlink:title=" ">
<path fill="none" stroke="#63b8ff" d="M496.61,-116.04C558.66,-108.86 717.32,-90.45 849.88,-74.5 861.52,-73.1 874.25,-71.54 885.61,-70.14"/>
<polygon fill="#63b8ff" stroke="#63b8ff" points="885.87,-73.63 895.37,-68.93 885.01,-66.68 885.87,-73.63"/>
</a>
</g>
</g>
<!-- Node15&#45;&gt;Node10 -->
<g id="edge21_Node000015_Node000010" class="edge">
<title>Node15&#45;&gt;Node10</title>
<g id="a_edge21_Node000015_Node000010"><a xlink:title=" ">
<path fill="none" stroke="#63b8ff" d="M456.48,-110.09C444.79,-102.21 427.58,-90.61 413.72,-81.27"/>
<polygon fill="#63b8ff" stroke="#63b8ff" points="415.85,-78.49 405.6,-75.8 411.94,-84.29 415.85,-78.49"/>
</a>
</g>
</g>
<!-- Node15&#45;&gt;Node14 -->
<g id="edge23_Node000015_Node000014" class="edge">
<title>Node15&#45;&gt;Node14</title>
<g id="a_edge23_Node000015_Node000014"><a xlink:title=" ">
<path fill="none" stroke="#63b8ff" d="M469.72,-110.33C469.59,-103.82 469.42,-94.67 469.27,-86.37"/>
<polygon fill="#63b8ff" stroke="#63b8ff" points="472.77,-86.3 469.08,-76.37 465.77,-86.44 472.77,-86.3"/>
</a>
</g>
</g>
<!-- Node16&#45;&gt;Node5 -->
<g id="edge48_Node000016_Node000005" class="edge">
<title>Node16&#45;&gt;Node5</title>
<g id="a_edge48_Node000016_Node000005"><a xlink:title=" ">
<path fill="none" stroke="#63b8ff" d="M761.03,-276.07C738.59,-247.2 665.25,-152.81 604.88,-74.5 593.03,-59.13 579.62,-41.64 569.82,-28.85"/>
<polygon fill="#63b8ff" stroke="#63b8ff" points="572.62,-26.75 563.77,-20.93 567.07,-31 572.62,-26.75"/>
</a>
</g>
</g>
<!-- Node16&#45;&gt;Node6 -->
<g id="edge46_Node000016_Node000006" class="edge">
<title>Node16&#45;&gt;Node6</title>
<g id="a_edge46_Node000016_Node000006"><a xlink:title=" ">
<path fill="none" stroke="#63b8ff" d="M803.73,-279.24C881.32,-266.03 1057.88,-230.06 1057.88,-176.38 1057.88,-176.38 1057.88,-176.38 1057.88,-119.12 1057.88,-77.2 1017.24,-43.71 989.12,-25.54"/>
<polygon fill="#63b8ff" stroke="#63b8ff" points="991.07,-22.63 980.72,-20.36 987.39,-28.59 991.07,-22.63"/>
</a>
</g>
</g>
<!-- Node16&#45;&gt;Node8 -->
<g id="edge40_Node000016_Node000008" class="edge">
<title>Node16&#45;&gt;Node8</title>
<g id="a_edge40_Node000016_Node000008"><a xlink:title=" ">
<path fill="none" stroke="#63b8ff" d="M753.85,-275.81C724.99,-257.18 658.75,-214.4 623.29,-191.5"/>
<polygon fill="#63b8ff" stroke="#63b8ff" points="625.33,-188.64 615.03,-186.16 621.53,-194.52 625.33,-188.64"/>
</a>
</g>
</g>
<!-- Node16&#45;&gt;Node9 -->
<g id="edge47_Node000016_Node000009" class="edge">
<title>Node16&#45;&gt;Node9</title>
<g id="a_edge47_Node000016_Node000009"><a xlink:title=" ">
<path fill="none" stroke="#63b8ff" d="M776.13,-275.91C783.68,-267.3 794.74,-253.66 801.88,-240.25 830.49,-186.49 807.71,-157.94 845.88,-110.5 856.63,-97.14 872.52,-86.82 886.83,-79.48"/>
<polygon fill="#63b8ff" stroke="#63b8ff" points="888,-82.8 895.51,-75.32 884.98,-76.49 888,-82.8"/>
</a>
</g>
</g>
<!-- Node16&#45;&gt;Node17 -->
<g id="edge25_Node000016_Node000017" class="edge">
<title>Node16&#45;&gt;Node17</title>
<g id="a_edge25_Node000016_Node000017"><a xlink:title=" ">
<path fill="none" stroke="#63b8ff" d="M732.31,-279.77C665.03,-270.11 519.16,-249.18 443.9,-238.37"/>
<polygon fill="#63b8ff" stroke="#63b8ff" points="444.79,-234.96 434.39,-237.01 443.79,-241.89 444.79,-234.96"/>
</a>
</g>
</g>
<!-- Node25 -->
<g id="Node000025" class="node">
<title>Node25</title>
<g id="a_Node000025"><a xlink:href="_tasks_8hpp.xhtml" target="_top" xlink:title=" ">
<polygon fill="white" stroke="#666666" points="949.38,-185 888.38,-185 888.38,-165.75 949.38,-165.75 949.38,-185"/>
<text text-anchor="middle" x="918.88" y="-171.5" font-family="Helvetica,sans-Serif" font-size="10.00">Tasks.hpp</text>
</a>
</g>
</g>
<!-- Node16&#45;&gt;Node25 -->
<g id="edge41_Node000016_Node000025" class="edge">
<title>Node16&#45;&gt;Node25</title>
<g id="a_edge41_Node000016_Node000025"><a xlink:title=" ">
<path fill="none" stroke="#63b8ff" d="M782.42,-275.78C796.33,-266.97 817.82,-253.1 835.88,-240.25 857.93,-224.57 882.39,-205.54 899,-192.35"/>
<polygon fill="#63b8ff" stroke="#63b8ff" points="900.99,-195.24 906.62,-186.27 896.62,-189.77 900.99,-195.24"/>
</a>
</g>
</g>
<!-- Node28 -->
<g id="Node000028" class="node">
<title>Node28</title>
<g id="a_Node000028"><a xlink:title=" ">
<polygon fill="#e0e0e0" stroke="#999999" points="792.76,-240.25 743.01,-240.25 743.01,-221 792.76,-221 792.76,-240.25"/>
<text text-anchor="middle" x="767.88" y="-226.75" font-family="Helvetica,sans-Serif" font-size="10.00">optional</text>
</a>
</g>
</g>
<!-- Node16&#45;&gt;Node28 -->
<g id="edge49_Node000016_Node000028" class="edge">
<title>Node16&#45;&gt;Node28</title>
<g id="a_edge49_Node000016_Node000028"><a xlink:title=" ">
<path fill="none" stroke="#63b8ff" d="M767.88,-276.08C767.88,-269.57 767.88,-260.42 767.88,-252.12"/>
<polygon fill="#63b8ff" stroke="#63b8ff" points="771.38,-252.12 767.88,-242.12 764.38,-252.12 771.38,-252.12"/>
</a>
</g>
</g>
<!-- Node17&#45;&gt;Node5 -->
<g id="edge37_Node000017_Node000005" class="edge">
<title>Node17&#45;&gt;Node5</title>
<g id="a_edge37_Node000017_Node000005"><a xlink:title=" ">
<path fill="none" stroke="#63b8ff" d="M360.71,-225.78C247.37,-212.51 -87.01,-163.4 21.88,-55.25 57.35,-20.03 409.63,-12.49 521.78,-10.98"/>
<polygon fill="#63b8ff" stroke="#63b8ff" points="521.59,-14.49 531.54,-10.86 521.5,-7.49 521.59,-14.49"/>
</a>
</g>
</g>
<!-- Node17&#45;&gt;Node6 -->
<g id="edge36_Node000017_Node000006" class="edge">
<title>Node17&#45;&gt;Node6</title>
<g id="a_edge36_Node000017_Node000006"><a xlink:title=" ">
<path fill="none" stroke="#63b8ff" d="M432.92,-227.45C484.22,-223.47 580.64,-212.7 657.88,-185 672.9,-179.61 867.16,-66.52 937.59,-25.4"/>
<polygon fill="#63b8ff" stroke="#63b8ff" points="939.24,-28.49 946.11,-20.43 935.71,-22.45 939.24,-28.49"/>
</a>
</g>
</g>
<!-- Node17&#45;&gt;Node10 -->
<g id="edge39_Node000017_Node000010" class="edge">
<title>Node17&#45;&gt;Node10</title>
<g id="a_edge39_Node000017_Node000010"><a xlink:title=" ">
<path fill="none" stroke="#63b8ff" d="M390.28,-220.65C376.5,-200.8 347,-151.62 359.88,-110.5 362.94,-100.75 368.95,-91.27 374.88,-83.57"/>
<polygon fill="#63b8ff" stroke="#63b8ff" points="377.43,-85.97 381.14,-76.04 372.05,-81.49 377.43,-85.97"/>
</a>
</g>
</g>
<!-- Node17&#45;&gt;Node15 -->
<g id="edge35_Node000017_Node000015" class="edge">
<title>Node17&#45;&gt;Node15</title>
<g id="a_edge35_Node000017_Node000015"><a xlink:title=" ">
<path fill="none" stroke="#63b8ff" d="M402.86,-220.75C414.78,-203.02 441.75,-162.94 457.6,-139.38"/>
<polygon fill="#63b8ff" stroke="#63b8ff" points="460.3,-141.63 462.98,-131.38 454.49,-137.73 460.3,-141.63"/>
</a>
</g>
</g>
<!-- Node18 -->
<g id="Node000018" class="node">
<title>Node18</title>
<g id="a_Node000018"><a xlink:title=" ">
<polygon fill="#e0e0e0" stroke="#999999" points="425.13,-129.75 368.63,-129.75 368.63,-110.5 425.13,-110.5 425.13,-129.75"/>
<text text-anchor="middle" x="396.88" y="-116.25" font-family="Helvetica,sans-Serif" font-size="10.00">Arduino.h</text>
</a>
</g>
</g>
<!-- Node17&#45;&gt;Node18 -->
<g id="edge26_Node000017_Node000018" class="edge">
<title>Node17&#45;&gt;Node18</title>
<g id="a_edge26_Node000017_Node000018"><a xlink:title=" ">
<path fill="none" stroke="#63b8ff" d="M396.88,-220.75C396.88,-203.5 396.88,-165.08 396.88,-141.31"/>
<polygon fill="#63b8ff" stroke="#63b8ff" points="400.38,-141.64 396.88,-131.64 393.38,-141.64 400.38,-141.64"/>
</a>
</g>
</g>
<!-- Node19 -->
<g id="Node000019" class="node">
<title>Node19</title>
<g id="a_Node000019"><a xlink:href="card_8hpp.xhtml" target="_top" xlink:title=" ">
<polygon fill="white" stroke="#666666" points="275.26,-185 222.51,-185 222.51,-165.75 275.26,-165.75 275.26,-185"/>
<text text-anchor="middle" x="248.88" y="-171.5" font-family="Helvetica,sans-Serif" font-size="10.00">card.hpp</text>
</a>
</g>
</g>
<!-- Node17&#45;&gt;Node19 -->
<g id="edge27_Node000017_Node000019" class="edge">
<title>Node17&#45;&gt;Node19</title>
<g id="a_edge27_Node000017_Node000019"><a xlink:title=" ">
<path fill="none" stroke="#63b8ff" d="M371.78,-220.59C347.86,-211.99 311.6,-198.94 284.66,-189.25"/>
<polygon fill="#63b8ff" stroke="#63b8ff" points="286.13,-186.06 275.54,-185.96 283.76,-192.64 286.13,-186.06"/>
</a>
</g>
</g>
<!-- Node20 -->
<g id="Node000020" class="node">
<title>Node20</title>
<g id="a_Node000020"><a xlink:title=" ">
<polygon fill="#e0e0e0" stroke="#999999" points="312.51,-129.75 261.26,-129.75 261.26,-110.5 312.51,-110.5 312.51,-129.75"/>
<text text-anchor="middle" x="286.88" y="-116.25" font-family="Helvetica,sans-Serif" font-size="10.00">sstream</text>
</a>
</g>
</g>
<!-- Node17&#45;&gt;Node20 -->
<g id="edge38_Node000017_Node000020" class="edge">
<title>Node17&#45;&gt;Node20</title>
<g id="a_edge38_Node000017_Node000020"><a xlink:title=" ">
<path fill="none" stroke="#63b8ff" d="M378.04,-220.58C362.95,-212.69 341.9,-200.14 326.88,-185 313.78,-171.79 302.89,-153.55 295.8,-139.94"/>
<polygon fill="#63b8ff" stroke="#63b8ff" points="299.03,-138.57 291.45,-131.17 292.76,-141.68 299.03,-138.57"/>
</a>
</g>
</g>
<!-- Node19&#45;&gt;Node15 -->
<g id="edge31_Node000019_Node000015" class="edge">
<title>Node19&#45;&gt;Node15</title>
<g id="a_edge31_Node000019_Node000015"><a xlink:title=" ">
<path fill="none" stroke="#63b8ff" d="M275.54,-167.95C314.62,-158.54 387.62,-140.94 432.18,-130.21"/>
<polygon fill="#63b8ff" stroke="#63b8ff" points="432.76,-133.67 441.66,-127.93 431.12,-126.87 432.76,-133.67"/>
</a>
</g>
</g>
<!-- Node19&#45;&gt;Node18 -->
<g id="edge30_Node000019_Node000018" class="edge">
<title>Node19&#45;&gt;Node18</title>
<g id="a_edge30_Node000019_Node000018"><a xlink:title=" ">
<path fill="none" stroke="#63b8ff" d="M273.99,-165.34C297.91,-156.74 334.16,-143.69 361.1,-134"/>
<polygon fill="#63b8ff" stroke="#63b8ff" points="362,-137.39 370.23,-130.71 359.63,-130.81 362,-137.39"/>
</a>
</g>
</g>
<!-- Node19&#45;&gt;Node20 -->
<g id="edge28_Node000019_Node000020" class="edge">
<title>Node19&#45;&gt;Node20</title>
<g id="a_edge28_Node000019_Node000020"><a xlink:title=" ">
<path fill="none" stroke="#63b8ff" d="M255.16,-165.58C260.24,-158.46 267.58,-148.18 273.91,-139.3"/>
<polygon fill="#63b8ff" stroke="#63b8ff" points="276.63,-141.51 279.59,-131.34 270.93,-137.45 276.63,-141.51"/>
</a>
</g>
</g>
<!-- Node21 -->
<g id="Node000021" class="node">
<title>Node21</title>
<g id="a_Node000021"><a xlink:title=" ">
<polygon fill="#e0e0e0" stroke="#999999" points="161.76,-129.75 112.01,-129.75 112.01,-110.5 161.76,-110.5 161.76,-129.75"/>
<text text-anchor="middle" x="136.88" y="-116.25" font-family="Helvetica,sans-Serif" font-size="10.00">iomanip</text>
</a>
</g>
</g>
<!-- Node19&#45;&gt;Node21 -->
<g id="edge29_Node000019_Node000021" class="edge">
<title>Node19&#45;&gt;Node21</title>
<g id="a_edge29_Node000019_Node000021"><a xlink:title=" ">
<path fill="none" stroke="#63b8ff" d="M229.88,-165.34C212.42,-157.04 186.28,-144.61 166.16,-135.04"/>
<polygon fill="#63b8ff" stroke="#63b8ff" points="167.88,-131.99 157.34,-130.85 164.87,-138.31 167.88,-131.99"/>
</a>
</g>
</g>
<!-- Node22 -->
<g id="Node000022" class="node">
<title>Node22</title>
<g id="a_Node000022"><a xlink:href="_logging_8hpp.xhtml" target="_top" xlink:title=" ">
<polygon fill="white" stroke="#666666" points="94.13,-129.75 25.63,-129.75 25.63,-110.5 94.13,-110.5 94.13,-129.75"/>
<text text-anchor="middle" x="59.88" y="-116.25" font-family="Helvetica,sans-Serif" font-size="10.00">Logging.hpp</text>
</a>
</g>
</g>
<!-- Node19&#45;&gt;Node22 -->
<g id="edge32_Node000019_Node000022" class="edge">
<title>Node19&#45;&gt;Node22</title>
<g id="a_edge32_Node000019_Node000022"><a xlink:title=" ">
<path fill="none" stroke="#63b8ff" d="M222.2,-166.86C191.22,-158.13 139.68,-143.61 102.99,-133.27"/>
<polygon fill="#63b8ff" stroke="#63b8ff" points="104.15,-129.96 93.57,-130.62 102.25,-136.7 104.15,-129.96"/>
</a>
</g>
</g>
<!-- Node24 -->
<g id="Node000024" class="node">
<title>Node24</title>
<g id="a_Node000024"><a xlink:title=" ">
<polygon fill="#e0e0e0" stroke="#999999" points="243.51,-129.75 180.26,-129.75 180.26,-110.5 243.51,-110.5 243.51,-129.75"/>
<text text-anchor="middle" x="211.88" y="-116.25" font-family="Helvetica,sans-Serif" font-size="10.00">esp_mac.h</text>
</a>
</g>
</g>
<!-- Node19&#45;&gt;Node24 -->
<g id="edge34_Node000019_Node000024" class="edge">
<title>Node19&#45;&gt;Node24</title>
<g id="a_edge34_Node000019_Node000024"><a xlink:title=" ">
<path fill="none" stroke="#63b8ff" d="M242.77,-165.58C237.82,-158.46 230.68,-148.18 224.51,-139.3"/>
<polygon fill="#63b8ff" stroke="#63b8ff" points="227.57,-137.57 218.99,-131.35 221.82,-141.56 227.57,-137.57"/>
</a>
</g>
</g>
<!-- Node23 -->
<g id="Node000023" class="node">
<title>Node23</title>
<g id="a_Node000023"><a xlink:title=" ">
<polygon fill="#e0e0e0" stroke="#999999" points="88.51,-74.5 31.26,-74.5 31.26,-55.25 88.51,-55.25 88.51,-74.5"/>
<text text-anchor="middle" x="59.88" y="-61" font-family="Helvetica,sans-Serif" font-size="10.00">esp_log.h</text>
</a>
</g>
</g>
<!-- Node22&#45;&gt;Node23 -->
<g id="edge33_Node000022_Node000023" class="edge">
<title>Node22&#45;&gt;Node23</title>
<g id="a_edge33_Node000022_Node000023"><a xlink:title=" ">
<path fill="none" stroke="#63b8ff" d="M59.88,-110.33C59.88,-103.82 59.88,-94.67 59.88,-86.37"/>
<polygon fill="#63b8ff" stroke="#63b8ff" points="63.38,-86.37 59.88,-76.37 56.38,-86.37 63.38,-86.37"/>
</a>
</g>
</g>
<!-- Node25&#45;&gt;Node9 -->
<g id="edge42_Node000025_Node000009" class="edge">
<title>Node25&#45;&gt;Node9</title>
<g id="a_edge42_Node000025_Node000009"><a xlink:title=" ">
<path fill="none" stroke="#63b8ff" d="M918.23,-165.28C917.42,-152.89 916.23,-130.02 916.88,-110.5 917.15,-102.55 917.68,-93.81 918.23,-86.19"/>
<polygon fill="#63b8ff" stroke="#63b8ff" points="921.71,-86.5 918.99,-76.27 914.73,-85.97 921.71,-86.5"/>
</a>
</g>
</g>
<!-- Node25&#45;&gt;Node18 -->
<g id="edge44_Node000025_Node000018" class="edge">
<title>Node25&#45;&gt;Node18</title>
<g id="a_edge44_Node000025_Node000018"><a xlink:title=" ">
<path fill="none" stroke="#63b8ff" d="M888.13,-172.94C812.91,-169.14 613.5,-157.27 436.78,-129.82"/>
<polygon fill="#63b8ff" stroke="#63b8ff" points="437.36,-126.37 426.93,-128.26 436.27,-133.28 437.36,-126.37"/>
</a>
</g>
</g>
<!-- Node26 -->
<g id="Node000026" class="node">
<title>Node26</title>
<g id="a_Node000026"><a xlink:title=" ">
<polygon fill="#e0e0e0" stroke="#999999" points="983.88,-129.75 925.88,-129.75 925.88,-110.5 983.88,-110.5 983.88,-129.75"/>
<text text-anchor="middle" x="954.88" y="-116.25" font-family="Helvetica,sans-Serif" font-size="10.00">functional</text>
</a>
</g>
</g>
<!-- Node25&#45;&gt;Node26 -->
<g id="edge43_Node000025_Node000026" class="edge">
<title>Node25&#45;&gt;Node26</title>
<g id="a_edge43_Node000025_Node000026"><a xlink:title=" ">
<path fill="none" stroke="#63b8ff" d="M924.83,-165.58C929.59,-158.53 936.44,-148.4 942.4,-139.58"/>
<polygon fill="#63b8ff" stroke="#63b8ff" points="945.26,-141.61 947.96,-131.36 939.46,-137.69 945.26,-141.61"/>
</a>
</g>
</g>
<!-- Node27 -->
<g id="Node000027" class="node">
<title>Node27</title>
<g id="a_Node000027"><a xlink:title=" ">
<polygon fill="#e0e0e0" stroke="#999999" points="1030.28,-129.75 1001.48,-129.75 1001.48,-110.5 1030.28,-110.5 1030.28,-129.75"/>
<text text-anchor="middle" x="1015.88" y="-116.25" font-family="Helvetica,sans-Serif" font-size="10.00">list</text>
</a>
</g>
</g>
<!-- Node25&#45;&gt;Node27 -->
<g id="edge45_Node000025_Node000027" class="edge">
<title>Node25&#45;&gt;Node27</title>
<g id="a_edge45_Node000025_Node000027"><a xlink:title=" ">
<path fill="none" stroke="#63b8ff" d="M935.34,-165.34C950.64,-156.94 973.66,-144.3 991.18,-134.69"/>
<polygon fill="#63b8ff" stroke="#63b8ff" points="992.84,-137.76 999.93,-129.88 989.48,-131.63 992.84,-137.76"/>
</a>
</g>
</g>
</g>
</svg>

<g id="navigator" transform="translate(0 0)" fill="#404254">
  <rect fill="#f2f5e9" fill-opacity="0.5" stroke="#606060" stroke-width=".5" x="0" y="0" width="60" height="60"/>
  <use id="zoomplus" xlink:href="#zoomPlus" x="17" y="9" onmousedown="handleZoom(evt,'in')"/>
  <use id="zoomminus" xlink:href="#zoomMin" x="42" y="9" onmousedown="handleZoom(evt,'out')"/>
  <use id="reset" xlink:href="#resetDef" x="30" y="36" onmousedown="handleReset()"/>
   <use id="arrowup" xlink:href="#arrowUp" x="0" y="0" onmousedown="handlePan(0,-1)"/>
  <use id="arrowright" xlink:href="#arrowRight" x="0" y="0" onmousedown="handlePan(1,0)"/>
  <use id="arrowdown" xlink:href="#arrowDown" x="0" y="0" onmousedown="handlePan(0,1)"/>
  <use id="arrowleft" xlink:href="#arrowLeft" x="0" y="0" onmousedown="handlePan(-1,0)"/>
</g>
<svg viewBox="0 0 15 15" width="100%" height="30px" preserveAspectRatio="xMaxYMin meet">
 <g id="arrow_out" transform="scale(0.3 0.3)">
  <a xlink:href="_o_t_a_8hpp__incl_org.svg" target="_base">
   <rect id="button" ry="5" rx="5" y="6" x="6" height="38" width="38"
        fill="#f2f5e9" fill-opacity="0.5" stroke="#606060" stroke-width="1.0"/>
   <path id="arrow"
     d="M 11.500037,31.436501 C 11.940474,20.09759 22.043105,11.32322 32.158766,21.979434 L 37.068811,17.246167 C 37.068811,17.246167 37.088388,32 37.088388,32 L 22.160133,31.978069 C 22.160133,31.978069 26.997745,27.140456 26.997745,27.140456 C 18.528582,18.264221 13.291696,25.230495 11.500037,31.436501 z"
     style="fill:#404040;"/>
  </a>
 </g>
</svg>

<style type='text/css'>
<![CDATA[
[data-mouse-over-selected='false'] { opacity: 0.7; }
[data-mouse-over-selected='true']  { opacity: 1.0; }
]]>
</style>
<script type="application/ecmascript"><![CDATA[
document.addEventListener('DOMContentLoaded', (event) => {
  highlightEdges();
  highlightAdjacentNodes();
});
]]></script>
</svg>
