<?xml version="1.0" encoding="UTF-8" standalone="no"?>
<!DOCTYPE svg PUBLIC "-//W3C//DTD SVG 1.1//EN"
 "http://www.w3.org/Graphics/SVG/1.1/DTD/svg11.dtd">
<!-- Generated by graphviz version 9.0.0 (20230911.1827)
 -->
<!-- Title: RFIDWrapper.hpp Pages: 1 -->
<!--zoomable 304 -->

<svg id="main" version="1.1" xmlns="http://www.w3.org/2000/svg" xmlns:xlink="http://www.w3.org/1999/xlink" xml:space="preserve" onload="init(evt)">
<style type="text/css"><![CDATA[
.node, .edge {opacity: 0.7;}
.node.selected, .edge.selected {opacity: 1;}
.edge:hover path { stroke: red; }
.edge:hover polygon { stroke: red; fill: red; }
]]></style>

<defs>
  <circle id="rim" cx="0" cy="0" r="7"/>
  <circle id="rim2" cx="0" cy="0" r="3.5"/>
  <g id="zoomPlus">
    <use xlink:href="#rim" fill="#404040"><set attributeName="fill" to="#808080" begin="zoomplus.mouseover" end="zoomplus.mouseout"/></use>
    <path d="M-4,0h8M0,-4v8" fill="none" stroke="white" stroke-width="1.5" pointer-events="none"/>
  </g>
  <g id="zoomMin">
    <use xlink:href="#rim" fill="#404040"><set attributeName="fill" to="#808080" begin="zoomminus.mouseover" end="zoomminus.mouseout"/></use>
    <path d="M-4,0h8" fill="none" stroke="white" stroke-width="1.5" pointer-events="none"/>
  </g>
  <g id="arrowUp" transform="translate(30 24)">
    <use xlink:href="#rim"/>
    <path pointer-events="none" fill="none" stroke="white" stroke-width="1.5" d="M0,-3.0v7 M-2.5,-0.5L0,-3.0L2.5,-0.5"/>
  </g>
  <g id="arrowRight" transform="rotate(90) translate(36 -43)">
    <use xlink:href="#rim"/>
    <path pointer-events="none" fill="none" stroke="white" stroke-width="1.5" d="M0,-3.0v7 M-2.5,-0.5L0,-3.0L2.5,-0.5"/>
  </g>
  <g id="arrowDown" transform="rotate(180) translate(-30 -48)">
    <use xlink:href="#rim"/>
    <path pointer-events="none" fill="none" stroke="white" stroke-width="1.5" d="M0,-3.0v7 M-2.5,-0.5L0,-3.0L2.5,-0.5"/>
  </g>
  <g id="arrowLeft" transform="rotate(270) translate(-36 17)">
    <use xlink:href="#rim"/>
    <path pointer-events="none" fill="none" stroke="white" stroke-width="1.5" d="M0,-3.0v7 M-2.5,-0.5L0,-3.0L2.5,-0.5"/>
  </g>
  <g id="resetDef">
    <use xlink:href="#rim2" fill="#404040"><set attributeName="fill" to="#808080" begin="reset.mouseover" end="reset.mouseout"/></use>
  </g>
</defs>
<script type="application/ecmascript">
var viewWidth = 522;
var viewHeight = 304;
var sectionId = 'dynsection-0';
</script>
<script type="application/ecmascript" xlink:href="svg.min.js"/>
<svg id="graph" class="graph">
<g id="viewport">
<title>RFIDWrapper.hpp</title>
<!-- Node1 -->
<g id="Node000001" class="node">
<title>Node1</title>
<g id="a_Node000001"><a xlink:title=" ">
<polygon fill="#999999" stroke="#666666" points="248.88,-295.5 156.38,-295.5 156.38,-276.25 248.88,-276.25 248.88,-295.5"/>
<text text-anchor="middle" x="202.62" y="-282" font-family="Helvetica,sans-Serif" font-size="10.00">RFIDWrapper.hpp</text>
</a>
</g>
</g>
<!-- Node2 -->
<g id="Node000002" class="node">
<title>Node2</title>
<g id="a_Node000002"><a xlink:title=" ">
<polygon fill="#e0e0e0" stroke="#999999" points="45.25,-74.5 0,-74.5 0,-55.25 45.25,-55.25 45.25,-74.5"/>
<text text-anchor="middle" x="22.62" y="-61" font-family="Helvetica,sans-Serif" font-size="10.00">chrono</text>
</a>
</g>
</g>
<!-- Node1&#45;&gt;Node2 -->
<g id="edge1_Node000001_Node000002" class="edge">
<title>Node1&#45;&gt;Node2</title>
<g id="a_edge1_Node000001_Node000002"><a xlink:title=" ">
<path fill="none" stroke="#63b8ff" d="M188.51,-276.06C175.89,-267.77 157.32,-254.52 143.62,-240.25 95.25,-189.86 52.17,-118.48 33.07,-84.83"/>
<polygon fill="#63b8ff" stroke="#63b8ff" points="36.21,-83.28 28.28,-76.27 30.11,-86.7 36.21,-83.28"/>
</a>
</g>
</g>
<!-- Node3 -->
<g id="Node000003" class="node">
<title>Node3</title>
<g id="a_Node000003"><a xlink:title=" ">
<polygon fill="#e0e0e0" stroke="#999999" points="405.88,-240.25 355.38,-240.25 355.38,-221 405.88,-221 405.88,-240.25"/>
<text text-anchor="middle" x="380.62" y="-226.75" font-family="Helvetica,sans-Serif" font-size="10.00">memory</text>
</a>
</g>
</g>
<!-- Node1&#45;&gt;Node3 -->
<g id="edge2_Node000001_Node000003" class="edge">
<title>Node1&#45;&gt;Node3</title>
<g id="a_edge2_Node000001_Node000003"><a xlink:title=" ">
<path fill="none" stroke="#63b8ff" d="M232.82,-275.84C263.52,-266.66 311.12,-252.42 343.96,-242.59"/>
<polygon fill="#63b8ff" stroke="#63b8ff" points="344.88,-245.97 353.46,-239.75 342.88,-239.26 344.88,-245.97"/>
</a>
</g>
</g>
<!-- Node4 -->
<g id="Node000004" class="node">
<title>Node4</title>
<g id="a_Node000004"><a xlink:title=" ">
<polygon fill="#e0e0e0" stroke="#999999" points="345.5,-185 295.75,-185 295.75,-165.75 345.5,-165.75 345.5,-185"/>
<text text-anchor="middle" x="320.62" y="-171.5" font-family="Helvetica,sans-Serif" font-size="10.00">optional</text>
</a>
</g>
</g>
<!-- Node1&#45;&gt;Node4 -->
<g id="edge3_Node000001_Node000004" class="edge">
<title>Node1&#45;&gt;Node4</title>
<g id="a_edge3_Node000001_Node000004"><a xlink:title=" ">
<path fill="none" stroke="#63b8ff" d="M249.19,-275.85C270.35,-269.41 293.89,-258.51 308.62,-240.25 318.5,-228.01 321.18,-210.17 321.57,-196.46"/>
<polygon fill="#63b8ff" stroke="#63b8ff" points="325.08,-196.76 321.45,-186.81 318.08,-196.85 325.08,-196.76"/>
</a>
</g>
</g>
<!-- Node5 -->
<g id="Node000005" class="node">
<title>Node5</title>
<g id="a_Node000005"><a xlink:title=" ">
<polygon fill="#e0e0e0" stroke="#999999" points="103.62,-74.5 63.62,-74.5 63.62,-55.25 103.62,-55.25 103.62,-74.5"/>
<text text-anchor="middle" x="83.62" y="-61" font-family="Helvetica,sans-Serif" font-size="10.00">string</text>
</a>
</g>
</g>
<!-- Node1&#45;&gt;Node5 -->
<g id="edge4_Node000001_Node000005" class="edge">
<title>Node1&#45;&gt;Node5</title>
<g id="a_edge4_Node000001_Node000005"><a xlink:title=" ">
<path fill="none" stroke="#63b8ff" d="M193.22,-275.8C184.48,-267.13 171.39,-253.44 161.62,-240.25 127.72,-194.46 117.03,-182.95 96.62,-129.75 91.21,-115.64 87.91,-98.88 85.99,-86.07"/>
<polygon fill="#63b8ff" stroke="#63b8ff" points="89.48,-85.77 84.7,-76.31 82.54,-86.69 89.48,-85.77"/>
</a>
</g>
</g>
<!-- Node6 -->
<g id="Node000006" class="node">
<title>Node6</title>
<g id="a_Node000006"><a xlink:href="_base_rfid_wrapper_8hpp.xhtml" target="_top" xlink:title=" ">
<polygon fill="white" stroke="#666666" points="299.12,-240.25 190.12,-240.25 190.12,-221 299.12,-221 299.12,-240.25"/>
<text text-anchor="middle" x="244.62" y="-226.75" font-family="Helvetica,sans-Serif" font-size="10.00">BaseRfidWrapper.hpp</text>
</a>
</g>
</g>
<!-- Node1&#45;&gt;Node6 -->
<g id="edge5_Node000001_Node000006" class="edge">
<title>Node1&#45;&gt;Node6</title>
<g id="a_edge5_Node000001_Node000006"><a xlink:title=" ">
<path fill="none" stroke="#63b8ff" d="M209.56,-276.08C215.24,-268.88 223.46,-258.46 230.52,-249.51"/>
<polygon fill="#63b8ff" stroke="#63b8ff" points="233.16,-251.82 236.6,-241.8 227.66,-247.48 233.16,-251.82"/>
</a>
</g>
</g>
<!-- Node7 -->
<g id="Node000007" class="node">
<title>Node7</title>
<g id="a_Node000007"><a xlink:href="card_8hpp.xhtml" target="_top" xlink:title=" ">
<polygon fill="white" stroke="#666666" points="271,-185 218.25,-185 218.25,-165.75 271,-165.75 271,-185"/>
<text text-anchor="middle" x="244.62" y="-171.5" font-family="Helvetica,sans-Serif" font-size="10.00">card.hpp</text>
</a>
</g>
</g>
<!-- Node1&#45;&gt;Node7 -->
<g id="edge19_Node000001_Node000007" class="edge">
<title>Node1&#45;&gt;Node7</title>
<g id="a_edge19_Node000001_Node000007"><a xlink:title=" ">
<path fill="none" stroke="#63b8ff" d="M195.05,-275.85C185.38,-263.16 170.97,-239.51 180.62,-221 187.43,-207.96 199.98,-197.95 212.17,-190.75"/>
<polygon fill="#63b8ff" stroke="#63b8ff" points="213.72,-193.9 220.87,-186.08 210.4,-187.73 213.72,-193.9"/>
</a>
</g>
</g>
<!-- Node11 -->
<g id="Node000011" class="node">
<title>Node11</title>
<g id="a_Node000011"><a xlink:href="conf_8hpp.xhtml" target="_top" xlink:title=" ">
<polygon fill="white" stroke="#666666" points="158,-129.75 105.25,-129.75 105.25,-110.5 158,-110.5 158,-129.75"/>
<text text-anchor="middle" x="131.62" y="-116.25" font-family="Helvetica,sans-Serif" font-size="10.00">conf.hpp</text>
</a>
</g>
</g>
<!-- Node1&#45;&gt;Node11 -->
<g id="edge20_Node000001_Node000011" class="edge">
<title>Node1&#45;&gt;Node11</title>
<g id="a_edge20_Node000001_Node000011"><a xlink:title=" ">
<path fill="none" stroke="#63b8ff" d="M195.96,-276.02C189.61,-267.28 180.07,-253.35 173.62,-240.25 157.12,-206.74 143.99,-165.1 137.05,-140.97"/>
<polygon fill="#63b8ff" stroke="#63b8ff" points="140.47,-140.22 134.4,-131.54 133.73,-142.11 140.47,-140.22"/>
</a>
</g>
</g>
<!-- Node16 -->
<g id="Node000016" class="node">
<title>Node16</title>
<g id="a_Node000016"><a xlink:title=" ">
<polygon fill="#e0e0e0" stroke="#999999" points="513.75,-240.25 423.5,-240.25 423.5,-221 513.75,-221 513.75,-240.25"/>
<text text-anchor="middle" x="468.62" y="-226.75" font-family="Helvetica,sans-Serif" font-size="10.00">RFIDWrapper.tpp</text>
</a>
</g>
</g>
<!-- Node1&#45;&gt;Node16 -->
<g id="edge21_Node000001_Node000016" class="edge">
<title>Node1&#45;&gt;Node16</title>
<g id="a_edge21_Node000001_Node000016"><a xlink:title=" ">
<path fill="none" stroke="#63b8ff" d="M248.05,-275.78C293.48,-266.69 363.44,-252.68 412.36,-242.89"/>
<polygon fill="#63b8ff" stroke="#63b8ff" points="412.79,-246.37 421.9,-240.98 411.41,-239.51 412.79,-246.37"/>
</a>
</g>
</g>
<!-- Node6&#45;&gt;Node4 -->
<g id="edge6_Node000006_Node000004" class="edge">
<title>Node6&#45;&gt;Node4</title>
<g id="a_edge6_Node000006_Node000004"><a xlink:title=" ">
<path fill="none" stroke="#63b8ff" d="M257.52,-220.59C268.65,-212.79 285,-201.34 298.26,-192.04"/>
<polygon fill="#63b8ff" stroke="#63b8ff" points="300.25,-194.93 306.43,-186.32 296.23,-189.19 300.25,-194.93"/>
</a>
</g>
</g>
<!-- Node6&#45;&gt;Node7 -->
<g id="edge7_Node000006_Node000007" class="edge">
<title>Node6&#45;&gt;Node7</title>
<g id="a_edge7_Node000006_Node000007"><a xlink:title=" ">
<path fill="none" stroke="#63b8ff" d="M244.62,-220.83C244.62,-214.32 244.62,-205.17 244.62,-196.87"/>
<polygon fill="#63b8ff" stroke="#63b8ff" points="248.13,-196.87 244.63,-186.87 241.13,-196.87 248.13,-196.87"/>
</a>
</g>
</g>
<!-- Node8 -->
<g id="Node000008" class="node">
<title>Node8</title>
<g id="a_Node000008"><a xlink:title=" ">
<polygon fill="#e0e0e0" stroke="#999999" points="456.25,-129.75 405,-129.75 405,-110.5 456.25,-110.5 456.25,-129.75"/>
<text text-anchor="middle" x="430.62" y="-116.25" font-family="Helvetica,sans-Serif" font-size="10.00">sstream</text>
</a>
</g>
</g>
<!-- Node7&#45;&gt;Node8 -->
<g id="edge8_Node000007_Node000008" class="edge">
<title>Node7&#45;&gt;Node8</title>
<g id="a_edge8_Node000007_Node000008"><a xlink:title=" ">
<path fill="none" stroke="#63b8ff" d="M271.27,-166.75C303.36,-157.56 357.44,-142.08 393.57,-131.73"/>
<polygon fill="#63b8ff" stroke="#63b8ff" points="394.52,-135.1 403.17,-128.99 392.59,-128.37 394.52,-135.1"/>
</a>
</g>
</g>
<!-- Node9 -->
<g id="Node000009" class="node">
<title>Node9</title>
<g id="a_Node000009"><a xlink:title=" ">
<polygon fill="#e0e0e0" stroke="#999999" points="225.5,-129.75 175.75,-129.75 175.75,-110.5 225.5,-110.5 225.5,-129.75"/>
<text text-anchor="middle" x="200.62" y="-116.25" font-family="Helvetica,sans-Serif" font-size="10.00">iomanip</text>
</a>
</g>
</g>
<!-- Node7&#45;&gt;Node9 -->
<g id="edge9_Node000007_Node000009" class="edge">
<title>Node7&#45;&gt;Node9</title>
<g id="a_edge9_Node000007_Node000009"><a xlink:title=" ">
<path fill="none" stroke="#63b8ff" d="M237.36,-165.58C231.34,-158.3 222.61,-147.73 215.17,-138.73"/>
<polygon fill="#63b8ff" stroke="#63b8ff" points="218.08,-136.76 209.01,-131.28 212.68,-141.21 218.08,-136.76"/>
</a>
</g>
</g>
<!-- Node10 -->
<g id="Node000010" class="node">
<title>Node10</title>
<g id="a_Node000010"><a xlink:title=" ">
<polygon fill="#e0e0e0" stroke="#999999" points="299.88,-129.75 243.38,-129.75 243.38,-110.5 299.88,-110.5 299.88,-129.75"/>
<text text-anchor="middle" x="271.62" y="-116.25" font-family="Helvetica,sans-Serif" font-size="10.00">Arduino.h</text>
</a>
</g>
</g>
<!-- Node7&#45;&gt;Node10 -->
<g id="edge10_Node000007_Node000010" class="edge">
<title>Node7&#45;&gt;Node10</title>
<g id="a_edge10_Node000007_Node000010"><a xlink:title=" ">
<path fill="none" stroke="#63b8ff" d="M249.08,-165.58C252.58,-158.69 257.57,-148.84 261.97,-140.16"/>
<polygon fill="#63b8ff" stroke="#63b8ff" points="264.98,-141.96 266.39,-131.46 258.74,-138.8 264.98,-141.96"/>
</a>
</g>
</g>
<!-- Node7&#45;&gt;Node11 -->
<g id="edge11_Node000007_Node000011" class="edge">
<title>Node7&#45;&gt;Node11</title>
<g id="a_edge11_Node000007_Node000011"><a xlink:title=" ">
<path fill="none" stroke="#63b8ff" d="M225.46,-165.34C207.84,-157.04 181.47,-144.61 161.16,-135.04"/>
<polygon fill="#63b8ff" stroke="#63b8ff" points="162.8,-131.94 152.26,-130.85 159.81,-138.28 162.8,-131.94"/>
</a>
</g>
</g>
<!-- Node14 -->
<g id="Node000014" class="node">
<title>Node14</title>
<g id="a_Node000014"><a xlink:href="_logging_8hpp.xhtml" target="_top" xlink:title=" ">
<polygon fill="white" stroke="#666666" points="386.88,-129.75 318.38,-129.75 318.38,-110.5 386.88,-110.5 386.88,-129.75"/>
<text text-anchor="middle" x="352.62" y="-116.25" font-family="Helvetica,sans-Serif" font-size="10.00">Logging.hpp</text>
</a>
</g>
</g>
<!-- Node7&#45;&gt;Node14 -->
<g id="edge17_Node000007_Node000014" class="edge">
<title>Node7&#45;&gt;Node14</title>
<g id="a_edge17_Node000007_Node000014"><a xlink:title=" ">
<path fill="none" stroke="#63b8ff" d="M262.95,-165.34C279.7,-157.08 304.76,-144.73 324.13,-135.18"/>
<polygon fill="#63b8ff" stroke="#63b8ff" points="325.44,-138.43 332.86,-130.87 322.34,-132.15 325.44,-138.43"/>
</a>
</g>
</g>
<!-- Node11&#45;&gt;Node2 -->
<g id="edge14_Node000011_Node000002" class="edge">
<title>Node11&#45;&gt;Node2</title>
<g id="a_edge14_Node000011_Node000002"><a xlink:title=" ">
<path fill="none" stroke="#63b8ff" d="M113.13,-110.09C96.22,-101.83 70.94,-89.48 51.39,-79.93"/>
<polygon fill="#63b8ff" stroke="#63b8ff" points="53.09,-76.86 42.57,-75.62 50.01,-83.15 53.09,-76.86"/>
</a>
</g>
</g>
<!-- Node11&#45;&gt;Node5 -->
<g id="edge13_Node000011_Node000005" class="edge">
<title>Node11&#45;&gt;Node5</title>
<g id="a_edge13_Node000011_Node000005"><a xlink:title=" ">
<path fill="none" stroke="#63b8ff" d="M123.7,-110.33C117.07,-102.98 107.41,-92.26 99.24,-83.19"/>
<polygon fill="#63b8ff" stroke="#63b8ff" points="102.03,-81.07 92.74,-75.98 96.83,-85.75 102.03,-81.07"/>
</a>
</g>
</g>
<!-- Node12 -->
<g id="Node000012" class="node">
<title>Node12</title>
<g id="a_Node000012"><a xlink:title=" ">
<polygon fill="#e0e0e0" stroke="#999999" points="218.25,-19.25 173,-19.25 173,0 218.25,0 218.25,-19.25"/>
<text text-anchor="middle" x="195.62" y="-5.75" font-family="Helvetica,sans-Serif" font-size="10.00">cstdint</text>
</a>
</g>
</g>
<!-- Node11&#45;&gt;Node12 -->
<g id="edge12_Node000011_Node000012" class="edge">
<title>Node11&#45;&gt;Node12</title>
<g id="a_edge12_Node000011_Node000012"><a xlink:title=" ">
<path fill="none" stroke="#63b8ff" d="M158.35,-111.81C176.6,-105.27 199.43,-93.68 210.62,-74.5 218.7,-60.67 213.38,-42.76 206.94,-29.42"/>
<polygon fill="#63b8ff" stroke="#63b8ff" points="210.11,-27.93 202.26,-20.82 203.96,-31.28 210.11,-27.93"/>
</a>
</g>
</g>
<!-- Node13 -->
<g id="Node000013" class="node">
<title>Node13</title>
<g id="a_Node000013"><a xlink:href="_machine_i_d_8hpp.xhtml" target="_top" xlink:title=" ">
<polygon fill="white" stroke="#666666" points="201.88,-74.5 121.38,-74.5 121.38,-55.25 201.88,-55.25 201.88,-74.5"/>
<text text-anchor="middle" x="161.62" y="-61" font-family="Helvetica,sans-Serif" font-size="10.00">MachineID.hpp</text>
</a>
</g>
</g>
<!-- Node11&#45;&gt;Node13 -->
<g id="edge15_Node000011_Node000013" class="edge">
<title>Node11&#45;&gt;Node13</title>
<g id="a_edge15_Node000011_Node000013"><a xlink:title=" ">
<path fill="none" stroke="#63b8ff" d="M136.58,-110.33C140.51,-103.36 146.14,-93.37 151.06,-84.62"/>
<polygon fill="#63b8ff" stroke="#63b8ff" points="153.96,-86.61 155.82,-76.18 147.86,-83.17 153.96,-86.61"/>
</a>
</g>
</g>
<!-- Node13&#45;&gt;Node12 -->
<g id="edge16_Node000013_Node000012" class="edge">
<title>Node13&#45;&gt;Node12</title>
<g id="a_edge16_Node000013_Node000012"><a xlink:title=" ">
<path fill="none" stroke="#63b8ff" d="M167.24,-55.08C171.74,-48.03 178.21,-37.9 183.84,-29.08"/>
<polygon fill="#63b8ff" stroke="#63b8ff" points="186.64,-31.2 189.07,-20.88 180.74,-27.43 186.64,-31.2"/>
</a>
</g>
</g>
<!-- Node15 -->
<g id="Node000015" class="node">
<title>Node15</title>
<g id="a_Node000015"><a xlink:title=" ">
<polygon fill="#e0e0e0" stroke="#999999" points="381.25,-74.5 324,-74.5 324,-55.25 381.25,-55.25 381.25,-74.5"/>
<text text-anchor="middle" x="352.62" y="-61" font-family="Helvetica,sans-Serif" font-size="10.00">esp_log.h</text>
</a>
</g>
</g>
<!-- Node14&#45;&gt;Node15 -->
<g id="edge18_Node000014_Node000015" class="edge">
<title>Node14&#45;&gt;Node15</title>
<g id="a_edge18_Node000014_Node000015"><a xlink:title=" ">
<path fill="none" stroke="#63b8ff" d="M352.62,-110.33C352.62,-103.82 352.62,-94.67 352.62,-86.37"/>
<polygon fill="#63b8ff" stroke="#63b8ff" points="356.13,-86.37 352.63,-76.37 349.13,-86.37 356.13,-86.37"/>
</a>
</g>
</g>
</g>
</svg>

<g id="navigator" transform="translate(0 0)" fill="#404254">
  <rect fill="#f2f5e9" fill-opacity="0.5" stroke="#606060" stroke-width=".5" x="0" y="0" width="60" height="60"/>
  <use id="zoomplus" xlink:href="#zoomPlus" x="17" y="9" onmousedown="handleZoom(evt,'in')"/>
  <use id="zoomminus" xlink:href="#zoomMin" x="42" y="9" onmousedown="handleZoom(evt,'out')"/>
  <use id="reset" xlink:href="#resetDef" x="30" y="36" onmousedown="handleReset()"/>
   <use id="arrowup" xlink:href="#arrowUp" x="0" y="0" onmousedown="handlePan(0,-1)"/>
  <use id="arrowright" xlink:href="#arrowRight" x="0" y="0" onmousedown="handlePan(1,0)"/>
  <use id="arrowdown" xlink:href="#arrowDown" x="0" y="0" onmousedown="handlePan(0,1)"/>
  <use id="arrowleft" xlink:href="#arrowLeft" x="0" y="0" onmousedown="handlePan(-1,0)"/>
</g>
<svg viewBox="0 0 15 15" width="100%" height="30px" preserveAspectRatio="xMaxYMin meet">
 <g id="arrow_out" transform="scale(0.3 0.3)">
  <a xlink:href="_r_f_i_d_wrapper_8hpp__incl_org.svg" target="_base">
   <rect id="button" ry="5" rx="5" y="6" x="6" height="38" width="38"
        fill="#f2f5e9" fill-opacity="0.5" stroke="#606060" stroke-width="1.0"/>
   <path id="arrow"
     d="M 11.500037,31.436501 C 11.940474,20.09759 22.043105,11.32322 32.158766,21.979434 L 37.068811,17.246167 C 37.068811,17.246167 37.088388,32 37.088388,32 L 22.160133,31.978069 C 22.160133,31.978069 26.997745,27.140456 26.997745,27.140456 C 18.528582,18.264221 13.291696,25.230495 11.500037,31.436501 z"
     style="fill:#404040;"/>
  </a>
 </g>
</svg>

<style type='text/css'>
<![CDATA[
[data-mouse-over-selected='false'] { opacity: 0.7; }
[data-mouse-over-selected='true']  { opacity: 1.0; }
]]>
</style>
<script type="application/ecmascript"><![CDATA[
document.addEventListener('DOMContentLoaded', (event) => {
  highlightEdges();
  highlightAdjacentNodes();
});
]]></script>
</svg>
