<?xml version="1.0" encoding="UTF-8" standalone="no"?>
<!DOCTYPE svg PUBLIC "-//W3C//DTD SVG 1.1//EN"
 "http://www.w3.org/Graphics/SVG/1.1/DTD/svg11.dtd">
<!-- Generated by graphviz version 9.0.0 (20230911.1827)
 -->
<!-- Title: SavedConfig.hpp Pages: 1 -->
<svg width="1258pt" height="469pt"
 viewBox="0.00 0.00 1258.00 469.25" xmlns="http://www.w3.org/2000/svg" xmlns:xlink="http://www.w3.org/1999/xlink">
<g id="graph0" class="graph" transform="scale(1 1) rotate(0) translate(4 465.25)">
<title>SavedConfig.hpp</title>
<!-- Node1 -->
<g id="Node000001" class="node">
<title>Node1</title>
<g id="a_Node000001"><a xlink:title=" ">
<polygon fill="#999999" stroke="#666666" points="332.38,-461.25 243.62,-461.25 243.62,-442 332.38,-442 332.38,-461.25"/>
<text text-anchor="middle" x="288" y="-447.75" font-family="Helvetica,sans-Serif" font-size="10.00">SavedConfig.hpp</text>
</a>
</g>
</g>
<!-- Node2 -->
<g id="Node000002" class="node">
<title>Node2</title>
<g id="a_Node000002"><a xlink:title=" ">
<polygon fill="#e0e0e0" stroke="#999999" points="400.62,-19.25 355.38,-19.25 355.38,0 400.62,0 400.62,-19.25"/>
<text text-anchor="middle" x="378" y="-5.75" font-family="Helvetica,sans-Serif" font-size="10.00">cstdint</text>
</a>
</g>
</g>
<!-- Node1&#45;&gt;Node2 -->
<g id="edge1_Node000001_Node000002" class="edge">
<title>Node1&#45;&gt;Node2</title>
<g id="a_edge1_Node000001_Node000002"><a xlink:title=" ">
<path fill="none" stroke="#63b8ff" d="M243.5,-451.1C193.54,-449.72 111.65,-441.53 52,-406 20.55,-387.27 0,-378.73 0,-342.12 0,-342.12 0,-342.12 0,-119.12 0,-47.99 250.42,-20.77 343.61,-13.11"/>
<polygon fill="#63b8ff" stroke="#63b8ff" points="343.72,-16.61 353.41,-12.33 343.17,-9.63 343.72,-16.61"/>
</a>
</g>
</g>
<!-- Node3 -->
<g id="Node000003" class="node">
<title>Node3</title>
<g id="a_Node000003"><a xlink:title=" ">
<polygon fill="#e0e0e0" stroke="#999999" points="346.88,-240.25 297.12,-240.25 297.12,-221 346.88,-221 346.88,-240.25"/>
<text text-anchor="middle" x="322" y="-226.75" font-family="Helvetica,sans-Serif" font-size="10.00">optional</text>
</a>
</g>
</g>
<!-- Node1&#45;&gt;Node3 -->
<g id="edge2_Node000001_Node000003" class="edge">
<title>Node1&#45;&gt;Node3</title>
<g id="a_edge2_Node000001_Node000003"><a xlink:title=" ">
<path fill="none" stroke="#63b8ff" d="M284,-441.62C280.31,-432.76 275.08,-418.74 273,-406 271.62,-397.56 271.7,-395.21 273,-386.75 280.79,-336.21 302.07,-279.57 313.86,-250.73"/>
<polygon fill="#63b8ff" stroke="#63b8ff" points="316.94,-252.46 317.55,-241.88 310.47,-249.76 316.94,-252.46"/>
</a>
</g>
</g>
<!-- Node4 -->
<g id="Node000004" class="node">
<title>Node4</title>
<g id="a_Node000004"><a xlink:title=" ">
<polygon fill="#e0e0e0" stroke="#999999" points="153,-74.5 113,-74.5 113,-55.25 153,-55.25 153,-74.5"/>
<text text-anchor="middle" x="133" y="-61" font-family="Helvetica,sans-Serif" font-size="10.00">string</text>
</a>
</g>
</g>
<!-- Node1&#45;&gt;Node4 -->
<g id="edge3_Node000001_Node000004" class="edge">
<title>Node1&#45;&gt;Node4</title>
<g id="a_edge3_Node000001_Node000004"><a xlink:title=" ">
<path fill="none" stroke="#63b8ff" d="M243.31,-450.51C171.4,-447.71 38,-430.6 38,-342.12 38,-342.12 38,-342.12 38,-174.38 38,-132.45 78.64,-98.96 106.76,-80.79"/>
<polygon fill="#63b8ff" stroke="#63b8ff" points="108.49,-83.84 115.16,-75.61 104.82,-77.88 108.49,-83.84"/>
</a>
</g>
</g>
<!-- Node5 -->
<g id="Node000005" class="node">
<title>Node5</title>
<g id="a_Node000005"><a xlink:title=" ">
<polygon fill="#e0e0e0" stroke="#999999" points="727.12,-406 684.88,-406 684.88,-386.75 727.12,-386.75 727.12,-406"/>
<text text-anchor="middle" x="706" y="-392.5" font-family="Helvetica,sans-Serif" font-size="10.00">mutex</text>
</a>
</g>
</g>
<!-- Node1&#45;&gt;Node5 -->
<g id="edge4_Node000001_Node000005" class="edge">
<title>Node1&#45;&gt;Node5</title>
<g id="a_edge4_Node000001_Node000005"><a xlink:title=" ">
<path fill="none" stroke="#63b8ff" d="M332.79,-447.24C404.57,-441.41 549.62,-427.94 671,-406 671.83,-405.85 672.67,-405.69 673.52,-405.53"/>
<polygon fill="#63b8ff" stroke="#63b8ff" points="674.12,-408.98 683.14,-403.42 672.62,-402.14 674.12,-408.98"/>
</a>
</g>
</g>
<!-- Node6 -->
<g id="Node000006" class="node">
<title>Node6</title>
<g id="a_Node000006"><a xlink:title=" ">
<polygon fill="#e0e0e0" stroke="#999999" points="810.38,-406 745.62,-406 745.62,-386.75 810.38,-386.75 810.38,-406"/>
<text text-anchor="middle" x="778" y="-392.5" font-family="Helvetica,sans-Serif" font-size="10.00">EEPROM.h</text>
</a>
</g>
</g>
<!-- Node1&#45;&gt;Node6 -->
<g id="edge5_Node000001_Node000006" class="edge">
<title>Node1&#45;&gt;Node6</title>
<g id="a_edge5_Node000001_Node000006"><a xlink:title=" ">
<path fill="none" stroke="#63b8ff" d="M332.7,-447.71C411.62,-442.23 581,-428.97 734.48,-406.06"/>
<polygon fill="#63b8ff" stroke="#63b8ff" points="734.64,-409.58 744,-404.62 733.59,-402.65 734.64,-409.58"/>
</a>
</g>
</g>
<!-- Node7 -->
<g id="Node000007" class="node">
<title>Node7</title>
<g id="a_Node000007"><a xlink:title=" ">
<polygon fill="#e0e0e0" stroke="#999999" points="876.75,-295.5 799.25,-295.5 799.25,-276.25 876.75,-276.25 876.75,-295.5"/>
<text text-anchor="middle" x="838" y="-282" font-family="Helvetica,sans-Serif" font-size="10.00">ArduinoJson.h</text>
</a>
</g>
</g>
<!-- Node1&#45;&gt;Node7 -->
<g id="edge6_Node000001_Node000007" class="edge">
<title>Node1&#45;&gt;Node7</title>
<g id="a_edge6_Node000001_Node000007"><a xlink:title=" ">
<path fill="none" stroke="#63b8ff" d="M320.61,-441.53C382.19,-424.29 519.75,-385.46 635,-350.75 692.24,-333.51 758.21,-312.55 799.01,-299.46"/>
<polygon fill="#63b8ff" stroke="#63b8ff" points="799.93,-302.84 808.38,-296.44 797.79,-296.17 799.93,-302.84"/>
</a>
</g>
</g>
<!-- Node8 -->
<g id="Node000008" class="node">
<title>Node8</title>
<g id="a_Node000008"><a xlink:href="_machine_config_8hpp.xhtml" target="_top" xlink:title=" ">
<polygon fill="white" stroke="#666666" points="353.88,-185 256.12,-185 256.12,-165.75 353.88,-165.75 353.88,-185"/>
<text text-anchor="middle" x="305" y="-171.5" font-family="Helvetica,sans-Serif" font-size="10.00">MachineConfig.hpp</text>
</a>
</g>
</g>
<!-- Node1&#45;&gt;Node8 -->
<g id="edge7_Node000001_Node000008" class="edge">
<title>Node1&#45;&gt;Node8</title>
<g id="a_edge7_Node000001_Node000008"><a xlink:title=" ">
<path fill="none" stroke="#63b8ff" d="M259.14,-441.56C220.02,-427.26 155,-395.47 155,-342.12 155,-342.12 155,-342.12 155,-284.88 155,-233.32 213.89,-203.77 257.87,-188.9"/>
<polygon fill="#63b8ff" stroke="#63b8ff" points="258.8,-192.28 267.25,-185.89 256.66,-185.61 258.8,-192.28"/>
</a>
</g>
</g>
<!-- Node15 -->
<g id="Node000015" class="node">
<title>Node15</title>
<g id="a_Node000015"><a xlink:href="conf_8hpp.xhtml" target="_top" xlink:title=" ">
<polygon fill="white" stroke="#666666" points="308.38,-129.75 255.62,-129.75 255.62,-110.5 308.38,-110.5 308.38,-129.75"/>
<text text-anchor="middle" x="282" y="-116.25" font-family="Helvetica,sans-Serif" font-size="10.00">conf.hpp</text>
</a>
</g>
</g>
<!-- Node1&#45;&gt;Node15 -->
<g id="edge24_Node000001_Node000015" class="edge">
<title>Node1&#45;&gt;Node15</title>
<g id="a_edge24_Node000001_Node000015"><a xlink:title=" ">
<path fill="none" stroke="#63b8ff" d="M243.52,-442.46C192.85,-430.3 117,-402.07 117,-342.12 117,-342.12 117,-342.12 117,-284.88 117,-210.58 202.31,-158.47 250.25,-135.05"/>
<polygon fill="#63b8ff" stroke="#63b8ff" points="251.52,-138.32 259.06,-130.87 248.52,-131.99 251.52,-138.32"/>
</a>
</g>
</g>
<!-- Node16 -->
<g id="Node000016" class="node">
<title>Node16</title>
<g id="a_Node000016"><a xlink:href="_cached_cards_8hpp.xhtml" target="_top" xlink:title=" ">
<polygon fill="white" stroke="#666666" points="533.25,-295.5 440.75,-295.5 440.75,-276.25 533.25,-276.25 533.25,-295.5"/>
<text text-anchor="middle" x="487" y="-282" font-family="Helvetica,sans-Serif" font-size="10.00">CachedCards.hpp</text>
</a>
</g>
</g>
<!-- Node1&#45;&gt;Node16 -->
<g id="edge25_Node000001_Node000016" class="edge">
<title>Node1&#45;&gt;Node16</title>
<g id="a_edge25_Node000001_Node000016"><a xlink:title=" ">
<path fill="none" stroke="#63b8ff" d="M312.6,-441.54C331.76,-433.79 358.47,-421.45 379,-406 418.8,-376.05 455.58,-329.98 474.22,-304.81"/>
<polygon fill="#63b8ff" stroke="#63b8ff" points="476.91,-307.07 479.96,-296.92 471.25,-302.95 476.91,-307.07"/>
</a>
</g>
</g>
<!-- Node25 -->
<g id="Node000025" class="node">
<title>Node25</title>
<g id="a_Node000025"><a xlink:href="_buffered_msg_8hpp.xhtml" target="_top" xlink:title=" ">
<polygon fill="white" stroke="#666666" points="370.38,-406 281.62,-406 281.62,-386.75 370.38,-386.75 370.38,-406"/>
<text text-anchor="middle" x="326" y="-392.5" font-family="Helvetica,sans-Serif" font-size="10.00">BufferedMsg.hpp</text>
</a>
</g>
</g>
<!-- Node1&#45;&gt;Node25 -->
<g id="edge45_Node000001_Node000025" class="edge">
<title>Node1&#45;&gt;Node25</title>
<g id="a_edge45_Node000001_Node000025"><a xlink:title=" ">
<path fill="none" stroke="#63b8ff" d="M294.27,-441.83C299.36,-434.71 306.7,-424.43 313.03,-415.55"/>
<polygon fill="#63b8ff" stroke="#63b8ff" points="315.75,-417.76 318.71,-407.59 310.05,-413.7 315.75,-417.76"/>
</a>
</g>
</g>
<!-- Node8&#45;&gt;Node2 -->
<g id="edge9_Node000008_Node000002" class="edge">
<title>Node8&#45;&gt;Node2</title>
<g id="a_edge9_Node000008_Node000002"><a xlink:title=" ">
<path fill="none" stroke="#63b8ff" d="M285.48,-165.34C271.94,-157.9 254.97,-145.94 247,-129.75 243.22,-122.07 244.67,-118.73 247,-110.5 254.85,-82.76 259.42,-74.37 281,-55.25 299.18,-39.14 324.15,-27.83 344.21,-20.63"/>
<polygon fill="#63b8ff" stroke="#63b8ff" points="345.29,-23.96 353.63,-17.44 343.04,-17.33 345.29,-23.96"/>
</a>
</g>
</g>
<!-- Node8&#45;&gt;Node4 -->
<g id="edge10_Node000008_Node000004" class="edge">
<title>Node8&#45;&gt;Node4</title>
<g id="a_edge10_Node000008_Node000004"><a xlink:title=" ">
<path fill="none" stroke="#63b8ff" d="M283.35,-165.32C264.47,-157.06 236.63,-144 214,-129.75 191.2,-115.39 167.21,-95.85 151.32,-82.17"/>
<polygon fill="#63b8ff" stroke="#63b8ff" points="153.94,-79.81 144.11,-75.88 149.34,-85.09 153.94,-79.81"/>
</a>
</g>
</g>
<!-- Node9 -->
<g id="Node000009" class="node">
<title>Node9</title>
<g id="a_Node000009"><a xlink:title=" ">
<polygon fill="#e0e0e0" stroke="#999999" points="741.62,-74.5 696.38,-74.5 696.38,-55.25 741.62,-55.25 741.62,-74.5"/>
<text text-anchor="middle" x="719" y="-61" font-family="Helvetica,sans-Serif" font-size="10.00">chrono</text>
</a>
</g>
</g>
<!-- Node8&#45;&gt;Node9 -->
<g id="edge8_Node000008_Node000009" class="edge">
<title>Node8&#45;&gt;Node9</title>
<g id="a_edge8_Node000008_Node000009"><a xlink:title=" ">
<path fill="none" stroke="#63b8ff" d="M354.28,-166.61C394.5,-159.46 452.42,-147.28 501,-129.75 518.81,-123.32 521.24,-117.06 539,-110.5 599.28,-88.24 619.39,-90.95 685.01,-74.9"/>
<polygon fill="#63b8ff" stroke="#63b8ff" points="685.63,-78.36 694.48,-72.53 683.93,-71.57 685.63,-78.36"/>
</a>
</g>
</g>
<!-- Node10 -->
<g id="Node000010" class="node">
<title>Node10</title>
<g id="a_Node000010"><a xlink:href="pins_8hpp.xhtml" target="_top" xlink:title=" ">
<polygon fill="white" stroke="#666666" points="492,-129.75 440,-129.75 440,-110.5 492,-110.5 492,-129.75"/>
<text text-anchor="middle" x="466" y="-116.25" font-family="Helvetica,sans-Serif" font-size="10.00">pins.hpp</text>
</a>
</g>
</g>
<!-- Node8&#45;&gt;Node10 -->
<g id="edge11_Node000008_Node000010" class="edge">
<title>Node8&#45;&gt;Node10</title>
<g id="a_edge11_Node000008_Node000010"><a xlink:title=" ">
<path fill="none" stroke="#63b8ff" d="M332.31,-165.34C358.88,-156.55 399.45,-143.14 428.92,-133.39"/>
<polygon fill="#63b8ff" stroke="#63b8ff" points="429.79,-136.79 438.19,-130.32 427.6,-130.14 429.79,-136.79"/>
</a>
</g>
</g>
<!-- Node14 -->
<g id="Node000014" class="node">
<title>Node14</title>
<g id="a_Node000014"><a xlink:href="_machine_i_d_8hpp.xhtml" target="_top" xlink:title=" ">
<polygon fill="white" stroke="#666666" points="384.25,-74.5 303.75,-74.5 303.75,-55.25 384.25,-55.25 384.25,-74.5"/>
<text text-anchor="middle" x="344" y="-61" font-family="Helvetica,sans-Serif" font-size="10.00">MachineID.hpp</text>
</a>
</g>
</g>
<!-- Node8&#45;&gt;Node14 -->
<g id="edge17_Node000008_Node000014" class="edge">
<title>Node8&#45;&gt;Node14</title>
<g id="a_edge17_Node000008_Node000014"><a xlink:title=" ">
<path fill="none" stroke="#63b8ff" d="M308.19,-165.5C314.45,-148.09 328.45,-109.12 336.98,-85.41"/>
<polygon fill="#63b8ff" stroke="#63b8ff" points="340.16,-86.9 340.25,-76.3 333.58,-84.53 340.16,-86.9"/>
</a>
</g>
</g>
<!-- Node8&#45;&gt;Node15 -->
<g id="edge19_Node000008_Node000015" class="edge">
<title>Node8&#45;&gt;Node15</title>
<g id="a_edge19_Node000008_Node000015"><a xlink:title=" ">
<path fill="none" stroke="#63b8ff" d="M301.2,-165.58C298.26,-158.76 294.06,-149.06 290.35,-140.45"/>
<polygon fill="#63b8ff" stroke="#63b8ff" points="293.66,-139.29 286.48,-131.5 287.23,-142.07 293.66,-139.29"/>
</a>
</g>
</g>
<!-- Node10&#45;&gt;Node2 -->
<g id="edge12_Node000010_Node000002" class="edge">
<title>Node10&#45;&gt;Node2</title>
<g id="a_edge12_Node000010_Node000002"><a xlink:title=" ">
<path fill="none" stroke="#63b8ff" d="M461.48,-110.38C454.68,-97.61 441,-73.4 426,-55.25 417.52,-44.99 406.76,-34.79 397.59,-26.73"/>
<polygon fill="#63b8ff" stroke="#63b8ff" points="400.11,-24.28 390.23,-20.45 395.56,-29.6 400.11,-24.28"/>
</a>
</g>
</g>
<!-- Node11 -->
<g id="Node000011" class="node">
<title>Node11</title>
<g id="a_Node000011"><a xlink:title=" ">
<polygon fill="#e0e0e0" stroke="#999999" points="579.75,-74.5 478.25,-74.5 478.25,-55.25 579.75,-55.25 579.75,-74.5"/>
<text text-anchor="middle" x="529" y="-61" font-family="Helvetica,sans-Serif" font-size="10.00">Adafruit_NeoPixel.h</text>
</a>
</g>
</g>
<!-- Node10&#45;&gt;Node11 -->
<g id="edge13_Node000010_Node000011" class="edge">
<title>Node10&#45;&gt;Node11</title>
<g id="a_edge13_Node000010_Node000011"><a xlink:title=" ">
<path fill="none" stroke="#63b8ff" d="M476.69,-110.09C485.7,-102.47 498.83,-91.37 509.68,-82.2"/>
<polygon fill="#63b8ff" stroke="#63b8ff" points="511.94,-84.88 517.31,-75.75 507.42,-79.53 511.94,-84.88"/>
</a>
</g>
</g>
<!-- Node12 -->
<g id="Node000012" class="node">
<title>Node12</title>
<g id="a_Node000012"><a xlink:href="_pins_config_8hpp.xhtml" target="_top" xlink:title=" ">
<polygon fill="white" stroke="#666666" points="678.25,-74.5 597.75,-74.5 597.75,-55.25 678.25,-55.25 678.25,-74.5"/>
<text text-anchor="middle" x="638" y="-61" font-family="Helvetica,sans-Serif" font-size="10.00">PinsConfig.hpp</text>
</a>
</g>
</g>
<!-- Node10&#45;&gt;Node12 -->
<g id="edge14_Node000010_Node000012" class="edge">
<title>Node10&#45;&gt;Node12</title>
<g id="a_edge14_Node000010_Node000012"><a xlink:title=" ">
<path fill="none" stroke="#63b8ff" d="M492.5,-110.92C520.57,-102.23 565.23,-88.41 597.67,-78.36"/>
<polygon fill="#63b8ff" stroke="#63b8ff" points="598.63,-81.73 607.14,-75.43 596.56,-75.04 598.63,-81.73"/>
</a>
</g>
</g>
<!-- Node12&#45;&gt;Node2 -->
<g id="edge15_Node000012_Node000002" class="edge">
<title>Node12&#45;&gt;Node2</title>
<g id="a_edge15_Node000012_Node000002"><a xlink:title=" ">
<path fill="none" stroke="#63b8ff" d="M597.38,-55.55C546.42,-45.12 459.96,-27.41 412.22,-17.63"/>
<polygon fill="#63b8ff" stroke="#63b8ff" points="412.94,-14.21 402.44,-15.63 411.54,-21.07 412.94,-14.21"/>
</a>
</g>
</g>
<!-- Node13 -->
<g id="Node000013" class="node">
<title>Node13</title>
<g id="a_Node000013"><a xlink:title=" ">
<polygon fill="#e0e0e0" stroke="#999999" points="1150.5,-19.25 1113.5,-19.25 1113.5,0 1150.5,0 1150.5,-19.25"/>
<text text-anchor="middle" x="1132" y="-5.75" font-family="Helvetica,sans-Serif" font-size="10.00">array</text>
</a>
</g>
</g>
<!-- Node12&#45;&gt;Node13 -->
<g id="edge16_Node000012_Node000013" class="edge">
<title>Node12&#45;&gt;Node13</title>
<g id="a_edge16_Node000012_Node000013"><a xlink:title=" ">
<path fill="none" stroke="#63b8ff" d="M678.61,-56.49C681.44,-56.05 684.26,-55.63 687,-55.25 842.6,-33.78 1030.16,-18.38 1102.01,-12.86"/>
<polygon fill="#63b8ff" stroke="#63b8ff" points="1102.07,-16.36 1111.78,-12.12 1101.54,-9.38 1102.07,-16.36"/>
</a>
</g>
</g>
<!-- Node14&#45;&gt;Node2 -->
<g id="edge18_Node000014_Node000002" class="edge">
<title>Node14&#45;&gt;Node2</title>
<g id="a_edge18_Node000014_Node000002"><a xlink:title=" ">
<path fill="none" stroke="#63b8ff" d="M349.61,-55.08C354.12,-48.03 360.59,-37.9 366.21,-29.08"/>
<polygon fill="#63b8ff" stroke="#63b8ff" points="369.02,-31.2 371.45,-20.88 363.12,-27.43 369.02,-31.2"/>
</a>
</g>
</g>
<!-- Node15&#45;&gt;Node2 -->
<g id="edge20_Node000015_Node000002" class="edge">
<title>Node15&#45;&gt;Node2</title>
<g id="a_edge20_Node000015_Node000002"><a xlink:title=" ">
<path fill="none" stroke="#63b8ff" d="M281.55,-110.34C281.33,-97.09 282.71,-71.78 295,-55.25 307.2,-38.83 327.29,-27.8 344.64,-20.82"/>
<polygon fill="#63b8ff" stroke="#63b8ff" points="345.42,-24.26 353.58,-17.51 342.99,-17.7 345.42,-24.26"/>
</a>
</g>
</g>
<!-- Node15&#45;&gt;Node4 -->
<g id="edge21_Node000015_Node000004" class="edge">
<title>Node15&#45;&gt;Node4</title>
<g id="a_edge21_Node000015_Node000004"><a xlink:title=" ">
<path fill="none" stroke="#63b8ff" d="M256.72,-110.09C231.04,-100.91 191.22,-86.68 163.73,-76.86"/>
<polygon fill="#63b8ff" stroke="#63b8ff" points="165.15,-73.65 154.56,-73.58 162.8,-80.24 165.15,-73.65"/>
</a>
</g>
</g>
<!-- Node15&#45;&gt;Node9 -->
<g id="edge22_Node000015_Node000009" class="edge">
<title>Node15&#45;&gt;Node9</title>
<g id="a_edge22_Node000015_Node000009"><a xlink:title=" ">
<path fill="none" stroke="#63b8ff" d="M308.75,-117.6C372.32,-113.68 537.56,-101.73 684.99,-74.59"/>
<polygon fill="#63b8ff" stroke="#63b8ff" points="685.35,-78.08 694.54,-72.8 684.06,-71.2 685.35,-78.08"/>
</a>
</g>
</g>
<!-- Node15&#45;&gt;Node14 -->
<g id="edge23_Node000015_Node000014" class="edge">
<title>Node15&#45;&gt;Node14</title>
<g id="a_edge23_Node000015_Node000014"><a xlink:title=" ">
<path fill="none" stroke="#63b8ff" d="M292.52,-110.09C301.39,-102.47 314.31,-91.37 324.99,-82.2"/>
<polygon fill="#63b8ff" stroke="#63b8ff" points="327.18,-84.93 332.49,-75.76 322.62,-79.62 327.18,-84.93"/>
</a>
</g>
</g>
<!-- Node16&#45;&gt;Node3 -->
<g id="edge27_Node000016_Node000003" class="edge">
<title>Node16&#45;&gt;Node3</title>
<g id="a_edge27_Node000016_Node000003"><a xlink:title=" ">
<path fill="none" stroke="#63b8ff" d="M459.01,-275.84C431.09,-266.83 388.08,-252.95 357.71,-243.15"/>
<polygon fill="#63b8ff" stroke="#63b8ff" points="359.18,-239.95 348.59,-240.21 357.03,-246.61 359.18,-239.95"/>
</a>
</g>
</g>
<!-- Node16&#45;&gt;Node13 -->
<g id="edge26_Node000016_Node000013" class="edge">
<title>Node16&#45;&gt;Node13</title>
<g id="a_edge26_Node000016_Node000013"><a xlink:title=" ">
<path fill="none" stroke="#63b8ff" d="M533.66,-278.6C580.77,-271.62 655.35,-258.83 718,-240.25 843.1,-203.14 878.21,-197.05 990,-129.75 1039.84,-99.74 1090.11,-52.7 1115.34,-27.66"/>
<polygon fill="#63b8ff" stroke="#63b8ff" points="1117.82,-30.13 1122.39,-20.57 1112.86,-25.19 1117.82,-30.13"/>
</a>
</g>
</g>
<!-- Node16&#45;&gt;Node15 -->
<g id="edge43_Node000016_Node000015" class="edge">
<title>Node16&#45;&gt;Node15</title>
<g id="a_edge43_Node000016_Node000015"><a xlink:title=" ">
<path fill="none" stroke="#63b8ff" d="M470.37,-275.87C445.81,-262.77 398.19,-238.16 356,-221 308.74,-201.78 276.89,-226.35 247,-185 236.18,-170.04 249.09,-151.36 262.18,-138.08"/>
<polygon fill="#63b8ff" stroke="#63b8ff" points="264.56,-140.65 269.46,-131.26 259.77,-135.54 264.56,-140.65"/>
</a>
</g>
</g>
<!-- Node17 -->
<g id="Node000017" class="node">
<title>Node17</title>
<g id="a_Node000017"><a xlink:href="_fab_user_8hpp.xhtml" target="_top" xlink:title=" ">
<polygon fill="white" stroke="#666666" points="708.75,-240.25 637.25,-240.25 637.25,-221 708.75,-221 708.75,-240.25"/>
<text text-anchor="middle" x="673" y="-226.75" font-family="Helvetica,sans-Serif" font-size="10.00">FabUser.hpp</text>
</a>
</g>
</g>
<!-- Node16&#45;&gt;Node17 -->
<g id="edge28_Node000016_Node000017" class="edge">
<title>Node16&#45;&gt;Node17</title>
<g id="a_edge28_Node000016_Node000017"><a xlink:title=" ">
<path fill="none" stroke="#63b8ff" d="M518.55,-275.84C549.28,-267.04 596.21,-253.61 630.28,-243.86"/>
<polygon fill="#63b8ff" stroke="#63b8ff" points="631.19,-247.24 639.84,-241.12 629.26,-240.51 631.19,-247.24"/>
</a>
</g>
</g>
<!-- Node19 -->
<g id="Node000019" class="node">
<title>Node19</title>
<g id="a_Node000019"><a xlink:href="card_8hpp.xhtml" target="_top" xlink:title=" ">
<polygon fill="white" stroke="#666666" points="674.38,-185 621.62,-185 621.62,-165.75 674.38,-165.75 674.38,-185"/>
<text text-anchor="middle" x="648" y="-171.5" font-family="Helvetica,sans-Serif" font-size="10.00">card.hpp</text>
</a>
</g>
</g>
<!-- Node16&#45;&gt;Node19 -->
<g id="edge44_Node000016_Node000019" class="edge">
<title>Node16&#45;&gt;Node19</title>
<g id="a_edge44_Node000016_Node000019"><a xlink:title=" ">
<path fill="none" stroke="#63b8ff" d="M493.48,-275.96C503.61,-262.54 524.4,-237.01 547,-221 566.4,-207.26 590.71,-196.35 610.62,-188.77"/>
<polygon fill="#63b8ff" stroke="#63b8ff" points="611.56,-192.15 619.75,-185.42 609.15,-185.58 611.56,-192.15"/>
</a>
</g>
</g>
<!-- Node17&#45;&gt;Node2 -->
<g id="edge40_Node000017_Node000002" class="edge">
<title>Node17&#45;&gt;Node2</title>
<g id="a_edge40_Node000017_Node000002"><a xlink:title=" ">
<path fill="none" stroke="#63b8ff" d="M637.18,-223.53C585.45,-213 489.63,-186.81 431,-129.75 416.1,-115.25 395.3,-60.23 384.73,-30.3"/>
<polygon fill="#63b8ff" stroke="#63b8ff" points="388.07,-29.26 381.49,-20.96 381.46,-31.55 388.07,-29.26"/>
</a>
</g>
</g>
<!-- Node17&#45;&gt;Node4 -->
<g id="edge42_Node000017_Node000004" class="edge">
<title>Node17&#45;&gt;Node4</title>
<g id="a_edge42_Node000017_Node000004"><a xlink:title=" ">
<path fill="none" stroke="#63b8ff" d="M637,-228.64C547.44,-225.76 316.75,-215.5 247,-185 199.07,-164.04 161.48,-112.3 143.89,-84.41"/>
<polygon fill="#63b8ff" stroke="#63b8ff" points="146.94,-82.7 138.75,-75.98 140.97,-86.34 146.94,-82.7"/>
</a>
</g>
</g>
<!-- Node17&#45;&gt;Node13 -->
<g id="edge39_Node000017_Node000013" class="edge">
<title>Node17&#45;&gt;Node13</title>
<g id="a_edge39_Node000017_Node000013"><a xlink:title=" ">
<path fill="none" stroke="#63b8ff" d="M709.02,-229.89C806.66,-230.05 1074.14,-226.57 1150,-185 1183.53,-166.63 1203.35,-147.3 1193,-110.5 1184.1,-78.85 1162.08,-47.32 1147.09,-28.39"/>
<polygon fill="#63b8ff" stroke="#63b8ff" points="1149.99,-26.41 1140.95,-20.88 1144.57,-30.84 1149.99,-26.41"/>
</a>
</g>
</g>
<!-- Node17&#45;&gt;Node15 -->
<g id="edge38_Node000017_Node000015" class="edge">
<title>Node17&#45;&gt;Node15</title>
<g id="a_edge38_Node000017_Node000015"><a xlink:title=" ">
<path fill="none" stroke="#63b8ff" d="M636.89,-223.42C581.87,-213.83 479.67,-195.41 444,-185 396.75,-171.21 344.08,-149.12 311.99,-134.87"/>
<polygon fill="#63b8ff" stroke="#63b8ff" points="313.48,-131.71 302.92,-130.81 310.62,-138.09 313.48,-131.71"/>
</a>
</g>
</g>
<!-- Node18 -->
<g id="Node000018" class="node">
<title>Node18</title>
<g id="a_Node000018"><a xlink:title=" ">
<polygon fill="#e0e0e0" stroke="#999999" points="910.25,-129.75 853.75,-129.75 853.75,-110.5 910.25,-110.5 910.25,-129.75"/>
<text text-anchor="middle" x="882" y="-116.25" font-family="Helvetica,sans-Serif" font-size="10.00">Arduino.h</text>
</a>
</g>
</g>
<!-- Node17&#45;&gt;Node18 -->
<g id="edge29_Node000017_Node000018" class="edge">
<title>Node17&#45;&gt;Node18</title>
<g id="a_edge29_Node000017_Node000018"><a xlink:title=" ">
<path fill="none" stroke="#63b8ff" d="M690.46,-220.56C726.73,-201.73 810.47,-158.26 854.23,-135.54"/>
<polygon fill="#63b8ff" stroke="#63b8ff" points="855.84,-138.65 863.1,-130.94 852.61,-132.44 855.84,-138.65"/>
</a>
</g>
</g>
<!-- Node17&#45;&gt;Node19 -->
<g id="edge30_Node000017_Node000019" class="edge">
<title>Node17&#45;&gt;Node19</title>
<g id="a_edge30_Node000017_Node000019"><a xlink:title=" ">
<path fill="none" stroke="#63b8ff" d="M668.87,-220.83C665.67,-214.01 661.11,-204.31 657.07,-195.7"/>
<polygon fill="#63b8ff" stroke="#63b8ff" points="660.28,-194.29 652.86,-186.73 653.94,-197.27 660.28,-194.29"/>
</a>
</g>
</g>
<!-- Node20 -->
<g id="Node000020" class="node">
<title>Node20</title>
<g id="a_Node000020"><a xlink:title=" ">
<polygon fill="#e0e0e0" stroke="#999999" points="835.62,-129.75 784.38,-129.75 784.38,-110.5 835.62,-110.5 835.62,-129.75"/>
<text text-anchor="middle" x="810" y="-116.25" font-family="Helvetica,sans-Serif" font-size="10.00">sstream</text>
</a>
</g>
</g>
<!-- Node17&#45;&gt;Node20 -->
<g id="edge41_Node000017_Node000020" class="edge">
<title>Node17&#45;&gt;Node20</title>
<g id="a_edge41_Node000017_Node000020"><a xlink:title=" ">
<path fill="none" stroke="#63b8ff" d="M684.21,-220.75C707.29,-202.47 760.4,-160.4 789.69,-137.21"/>
<polygon fill="#63b8ff" stroke="#63b8ff" points="791.78,-140.02 797.45,-131.07 787.43,-134.53 791.78,-140.02"/>
</a>
</g>
</g>
<!-- Node19&#45;&gt;Node15 -->
<g id="edge34_Node000019_Node000015" class="edge">
<title>Node19&#45;&gt;Node15</title>
<g id="a_edge34_Node000019_Node000015"><a xlink:title=" ">
<path fill="none" stroke="#63b8ff" d="M621.38,-170.5C557.21,-161.17 393.79,-137.39 319.62,-126.6"/>
<polygon fill="#63b8ff" stroke="#63b8ff" points="320.41,-123.18 310.01,-125.2 319.41,-130.1 320.41,-123.18"/>
</a>
</g>
</g>
<!-- Node19&#45;&gt;Node18 -->
<g id="edge33_Node000019_Node000018" class="edge">
<title>Node19&#45;&gt;Node18</title>
<g id="a_edge33_Node000019_Node000018"><a xlink:title=" ">
<path fill="none" stroke="#63b8ff" d="M674.78,-168.36C710.69,-160.29 776.72,-145.41 842.37,-130.35"/>
<polygon fill="#63b8ff" stroke="#63b8ff" points="842.88,-133.82 851.85,-128.17 841.32,-127 842.88,-133.82"/>
</a>
</g>
</g>
<!-- Node19&#45;&gt;Node20 -->
<g id="edge31_Node000019_Node000020" class="edge">
<title>Node19&#45;&gt;Node20</title>
<g id="a_edge31_Node000019_Node000020"><a xlink:title=" ">
<path fill="none" stroke="#63b8ff" d="M674.75,-165.58C701.61,-156.75 743.18,-143.09 773.15,-133.24"/>
<polygon fill="#63b8ff" stroke="#63b8ff" points="774.17,-136.59 782.58,-130.14 771.98,-129.94 774.17,-136.59"/>
</a>
</g>
</g>
<!-- Node21 -->
<g id="Node000021" class="node">
<title>Node21</title>
<g id="a_Node000021"><a xlink:title=" ">
<polygon fill="#e0e0e0" stroke="#999999" points="597.88,-129.75 548.12,-129.75 548.12,-110.5 597.88,-110.5 597.88,-129.75"/>
<text text-anchor="middle" x="573" y="-116.25" font-family="Helvetica,sans-Serif" font-size="10.00">iomanip</text>
</a>
</g>
</g>
<!-- Node19&#45;&gt;Node21 -->
<g id="edge32_Node000019_Node000021" class="edge">
<title>Node19&#45;&gt;Node21</title>
<g id="a_edge32_Node000019_Node000021"><a xlink:title=" ">
<path fill="none" stroke="#63b8ff" d="M635.28,-165.34C624.29,-157.54 608.16,-146.09 595.07,-136.79"/>
<polygon fill="#63b8ff" stroke="#63b8ff" points="597.2,-134.01 587.02,-131.08 593.15,-139.72 597.2,-134.01"/>
</a>
</g>
</g>
<!-- Node22 -->
<g id="Node000022" class="node">
<title>Node22</title>
<g id="a_Node000022"><a xlink:href="_logging_8hpp.xhtml" target="_top" xlink:title=" ">
<polygon fill="white" stroke="#666666" points="766.25,-129.75 697.75,-129.75 697.75,-110.5 766.25,-110.5 766.25,-129.75"/>
<text text-anchor="middle" x="732" y="-116.25" font-family="Helvetica,sans-Serif" font-size="10.00">Logging.hpp</text>
</a>
</g>
</g>
<!-- Node19&#45;&gt;Node22 -->
<g id="edge35_Node000019_Node000022" class="edge">
<title>Node19&#45;&gt;Node22</title>
<g id="a_edge35_Node000019_Node000022"><a xlink:title=" ">
<path fill="none" stroke="#63b8ff" d="M662.25,-165.34C674.8,-157.39 693.33,-145.64 708.14,-136.25"/>
<polygon fill="#63b8ff" stroke="#63b8ff" points="709.83,-139.32 716.4,-131.01 706.08,-133.41 709.83,-139.32"/>
</a>
</g>
</g>
<!-- Node24 -->
<g id="Node000024" class="node">
<title>Node24</title>
<g id="a_Node000024"><a xlink:title=" ">
<polygon fill="#e0e0e0" stroke="#999999" points="679.62,-129.75 616.38,-129.75 616.38,-110.5 679.62,-110.5 679.62,-129.75"/>
<text text-anchor="middle" x="648" y="-116.25" font-family="Helvetica,sans-Serif" font-size="10.00">esp_mac.h</text>
</a>
</g>
</g>
<!-- Node19&#45;&gt;Node24 -->
<g id="edge37_Node000019_Node000024" class="edge">
<title>Node19&#45;&gt;Node24</title>
<g id="a_edge37_Node000019_Node000024"><a xlink:title=" ">
<path fill="none" stroke="#63b8ff" d="M648,-165.58C648,-159.07 648,-149.92 648,-141.62"/>
<polygon fill="#63b8ff" stroke="#63b8ff" points="651.5,-141.62 648,-131.62 644.5,-141.62 651.5,-141.62"/>
</a>
</g>
</g>
<!-- Node23 -->
<g id="Node000023" class="node">
<title>Node23</title>
<g id="a_Node000023"><a xlink:title=" ">
<polygon fill="#e0e0e0" stroke="#999999" points="816.62,-74.5 759.38,-74.5 759.38,-55.25 816.62,-55.25 816.62,-74.5"/>
<text text-anchor="middle" x="788" y="-61" font-family="Helvetica,sans-Serif" font-size="10.00">esp_log.h</text>
</a>
</g>
</g>
<!-- Node22&#45;&gt;Node23 -->
<g id="edge36_Node000022_Node000023" class="edge">
<title>Node22&#45;&gt;Node23</title>
<g id="a_edge36_Node000022_Node000023"><a xlink:title=" ">
<path fill="none" stroke="#63b8ff" d="M741.5,-110.09C749.43,-102.55 760.95,-91.6 770.54,-82.48"/>
<polygon fill="#63b8ff" stroke="#63b8ff" points="772.71,-85.24 777.54,-75.82 767.89,-80.17 772.71,-85.24"/>
</a>
</g>
</g>
<!-- Node25&#45;&gt;Node3 -->
<g id="edge46_Node000025_Node000003" class="edge">
<title>Node25&#45;&gt;Node3</title>
<g id="a_edge46_Node000025_Node000003"><a xlink:title=" ">
<path fill="none" stroke="#63b8ff" d="M325.78,-386.57C325.17,-361.25 323.37,-287.75 322.49,-251.84"/>
<polygon fill="#63b8ff" stroke="#63b8ff" points="326,-251.9 322.25,-241.99 319,-252.07 326,-251.9"/>
</a>
</g>
</g>
<!-- Node25&#45;&gt;Node4 -->
<g id="edge48_Node000025_Node000004" class="edge">
<title>Node25&#45;&gt;Node4</title>
<g id="a_edge48_Node000025_Node000004"><a xlink:title=" ">
<path fill="none" stroke="#63b8ff" d="M317.9,-386.55C289.15,-354.71 191.25,-241.66 145,-129.75 139.25,-115.83 136.23,-99.06 134.66,-86.19"/>
<polygon fill="#63b8ff" stroke="#63b8ff" points="138.16,-85.99 133.68,-76.39 131.19,-86.69 138.16,-85.99"/>
</a>
</g>
</g>
<!-- Node25&#45;&gt;Node7 -->
<g id="edge50_Node000025_Node000007" class="edge">
<title>Node25&#45;&gt;Node7</title>
<g id="a_edge50_Node000025_Node000007"><a xlink:title=" ">
<path fill="none" stroke="#63b8ff" d="M370.45,-391.71C425.32,-386.37 521.05,-374.41 600,-350.75 620.06,-344.74 623.14,-338.15 643,-331.5 669.37,-322.67 739.07,-307.42 787.56,-297.24"/>
<polygon fill="#63b8ff" stroke="#63b8ff" points="788.23,-300.68 797.3,-295.21 786.8,-293.83 788.23,-300.68"/>
</a>
</g>
</g>
<!-- Node25&#45;&gt;Node14 -->
<g id="edge51_Node000025_Node000014" class="edge">
<title>Node25&#45;&gt;Node14</title>
<g id="a_edge51_Node000025_Node000014"><a xlink:title=" ">
<path fill="none" stroke="#63b8ff" d="M323,-386.42C315.28,-362.85 294.84,-296.96 288,-240.25 286.97,-231.76 283.44,-228.24 288,-221 307.69,-189.71 343.31,-216.29 363,-185 382.54,-153.95 366.44,-109.62 354.33,-84.72"/>
<polygon fill="#63b8ff" stroke="#63b8ff" points="357.58,-83.38 349.88,-76.11 351.36,-86.6 357.58,-83.38"/>
</a>
</g>
</g>
<!-- Node26 -->
<g id="Node000026" class="node">
<title>Node26</title>
<g id="a_Node000026"><a xlink:title=" ">
<polygon fill="#e0e0e0" stroke="#999999" points="415.12,-350.75 372.88,-350.75 372.88,-331.5 415.12,-331.5 415.12,-350.75"/>
<text text-anchor="middle" x="394" y="-337.25" font-family="Helvetica,sans-Serif" font-size="10.00">queue</text>
</a>
</g>
</g>
<!-- Node25&#45;&gt;Node26 -->
<g id="edge47_Node000025_Node000026" class="edge">
<title>Node25&#45;&gt;Node26</title>
<g id="a_edge47_Node000025_Node000026"><a xlink:title=" ">
<path fill="none" stroke="#63b8ff" d="M337.54,-386.34C347.46,-378.57 362.01,-367.17 373.86,-357.9"/>
<polygon fill="#63b8ff" stroke="#63b8ff" points="375.73,-360.88 381.44,-351.96 371.41,-355.37 375.73,-360.88"/>
</a>
</g>
</g>
<!-- Node27 -->
<g id="Node000027" class="node">
<title>Node27</title>
<g id="a_Node000027"><a xlink:title=" ">
<polygon fill="#e0e0e0" stroke="#999999" points="385.25,-295.5 334.75,-295.5 334.75,-276.25 385.25,-276.25 385.25,-295.5"/>
<text text-anchor="middle" x="360" y="-282" font-family="Helvetica,sans-Serif" font-size="10.00">memory</text>
</a>
</g>
</g>
<!-- Node25&#45;&gt;Node27 -->
<g id="edge49_Node000025_Node000027" class="edge">
<title>Node25&#45;&gt;Node27</title>
<g id="a_edge49_Node000025_Node000027"><a xlink:title=" ">
<path fill="none" stroke="#63b8ff" d="M328.78,-386.5C334.21,-369.17 346.34,-330.48 353.78,-306.74"/>
<polygon fill="#63b8ff" stroke="#63b8ff" points="357.08,-307.91 356.73,-297.32 350.4,-305.82 357.08,-307.91"/>
</a>
</g>
</g>
<!-- Node28 -->
<g id="Node000028" class="node">
<title>Node28</title>
<g id="a_Node000028"><a xlink:href="_m_q_t_ttypes_8hpp.xhtml" target="_top" xlink:title=" ">
<polygon fill="white" stroke="#666666" points="590.5,-350.75 505.5,-350.75 505.5,-331.5 590.5,-331.5 590.5,-350.75"/>
<text text-anchor="middle" x="548" y="-337.25" font-family="Helvetica,sans-Serif" font-size="10.00">MQTTtypes.hpp</text>
</a>
</g>
</g>
<!-- Node25&#45;&gt;Node28 -->
<g id="edge52_Node000025_Node000028" class="edge">
<title>Node25&#45;&gt;Node28</title>
<g id="a_edge52_Node000025_Node000028"><a xlink:title=" ">
<path fill="none" stroke="#63b8ff" d="M363.91,-386.28C401.27,-377.32 458.5,-363.59 499.23,-353.82"/>
<polygon fill="#63b8ff" stroke="#63b8ff" points="499.87,-357.27 508.77,-351.53 498.23,-350.46 499.87,-357.27"/>
</a>
</g>
</g>
<!-- Node28&#45;&gt;Node4 -->
<g id="edge68_Node000028_Node000004" class="edge">
<title>Node28&#45;&gt;Node4</title>
<g id="a_edge68_Node000028_Node000004"><a xlink:title=" ">
<path fill="none" stroke="#63b8ff" d="M522.35,-331.11C498.64,-322.57 462.56,-309.08 432,-295.5 414.7,-287.81 411.45,-283.59 394,-276.25 348.14,-256.96 331.23,-264.88 288,-240.25 222.41,-202.88 203.14,-190.99 159,-129.75 149.35,-116.36 142.56,-98.88 138.34,-85.59"/>
<polygon fill="#63b8ff" stroke="#63b8ff" points="141.77,-84.87 135.61,-76.25 135.06,-86.83 141.77,-84.87"/>
</a>
</g>
</g>
<!-- Node28&#45;&gt;Node7 -->
<g id="edge53_Node000028_Node000007" class="edge">
<title>Node28&#45;&gt;Node7</title>
<g id="a_edge53_Node000028_Node000007"><a xlink:title=" ">
<path fill="none" stroke="#63b8ff" d="M590.79,-332.27C643.27,-322.63 732.08,-306.32 787.75,-296.1"/>
<polygon fill="#63b8ff" stroke="#63b8ff" points="788.07,-299.6 797.27,-294.35 786.8,-292.72 788.07,-299.6"/>
</a>
</g>
</g>
<!-- Node28&#45;&gt;Node17 -->
<g id="edge54_Node000028_Node000017" class="edge">
<title>Node28&#45;&gt;Node17</title>
<g id="a_edge54_Node000028_Node000017"><a xlink:title=" ">
<path fill="none" stroke="#63b8ff" d="M590.81,-334.55C615.99,-328.96 646.27,-317.79 664,-295.5 673.71,-283.29 675.52,-265.44 675.15,-251.72"/>
<polygon fill="#63b8ff" stroke="#63b8ff" points="678.66,-251.79 674.47,-242.06 671.68,-252.28 678.66,-251.79"/>
</a>
</g>
</g>
<!-- Node28&#45;&gt;Node19 -->
<g id="edge67_Node000028_Node000019" class="edge">
<title>Node28&#45;&gt;Node19</title>
<g id="a_edge67_Node000028_Node000019"><a xlink:title=" ">
<path fill="none" stroke="#63b8ff" d="M551.99,-331.25C557.72,-318.73 568.82,-295.29 580,-276.25 597.37,-246.68 620.29,-214.14 634.59,-194.49"/>
<polygon fill="#63b8ff" stroke="#63b8ff" points="637.21,-196.82 640.3,-186.69 631.57,-192.68 637.21,-196.82"/>
</a>
</g>
</g>
<!-- Node28&#45;&gt;Node27 -->
<g id="edge69_Node000028_Node000027" class="edge">
<title>Node28&#45;&gt;Node27</title>
<g id="a_edge69_Node000028_Node000027"><a xlink:title=" ">
<path fill="none" stroke="#63b8ff" d="M516.11,-331.09C482.93,-321.69 431.06,-307 396.32,-297.16"/>
<polygon fill="#63b8ff" stroke="#63b8ff" points="397.72,-293.92 387.15,-294.56 395.82,-300.66 397.72,-293.92"/>
</a>
</g>
</g>
<!-- Node29 -->
<g id="Node000029" class="node">
<title>Node29</title>
<g id="a_Node000029"><a xlink:href="_machine_8hpp.xhtml" target="_top" xlink:title=" ">
<polygon fill="white" stroke="#666666" points="781.38,-295.5 710.62,-295.5 710.62,-276.25 781.38,-276.25 781.38,-295.5"/>
<text text-anchor="middle" x="746" y="-282" font-family="Helvetica,sans-Serif" font-size="10.00">Machine.hpp</text>
</a>
</g>
</g>
<!-- Node28&#45;&gt;Node29 -->
<g id="edge55_Node000028_Node000029" class="edge">
<title>Node28&#45;&gt;Node29</title>
<g id="a_edge55_Node000028_Node000029"><a xlink:title=" ">
<path fill="none" stroke="#63b8ff" d="M581.59,-331.09C614.58,-322.22 665.13,-308.62 701.46,-298.85"/>
<polygon fill="#63b8ff" stroke="#63b8ff" points="702.04,-302.32 710.79,-296.35 700.22,-295.56 702.04,-302.32"/>
</a>
</g>
</g>
<!-- Node33 -->
<g id="Node000033" class="node">
<title>Node33</title>
<g id="a_Node000033"><a xlink:title=" ">
<polygon fill="#e0e0e0" stroke="#999999" points="654.75,-295.5 589.25,-295.5 589.25,-276.25 654.75,-276.25 654.75,-295.5"/>
<text text-anchor="middle" x="622" y="-282" font-family="Helvetica,sans-Serif" font-size="10.00">string_view</text>
</a>
</g>
</g>
<!-- Node28&#45;&gt;Node33 -->
<g id="edge70_Node000028_Node000033" class="edge">
<title>Node28&#45;&gt;Node33</title>
<g id="a_edge70_Node000028_Node000033"><a xlink:title=" ">
<path fill="none" stroke="#63b8ff" d="M560.55,-331.09C571.46,-323.24 587.5,-311.7 600.46,-302.37"/>
<polygon fill="#63b8ff" stroke="#63b8ff" points="602.33,-305.34 608.4,-296.66 598.24,-299.66 602.33,-305.34"/>
</a>
</g>
</g>
<!-- Node29&#45;&gt;Node2 -->
<g id="edge65_Node000029_Node000002" class="edge">
<title>Node29&#45;&gt;Node2</title>
<g id="a_edge65_Node000029_Node000002"><a xlink:title=" ">
<path fill="none" stroke="#63b8ff" d="M781.69,-275.94C846.29,-258.7 976,-218.81 976,-176.38 976,-176.38 976,-176.38 976,-119.12 976,-46.67 896.19,-73.24 826,-55.25 675.07,-16.56 487.56,-11.07 411.95,-10.53"/>
<polygon fill="#63b8ff" stroke="#63b8ff" points="412.32,-7.03 402.31,-10.49 412.29,-14.03 412.32,-7.03"/>
</a>
</g>
</g>
<!-- Node29&#45;&gt;Node3 -->
<g id="edge66_Node000029_Node000003" class="edge">
<title>Node29&#45;&gt;Node3</title>
<g id="a_edge66_Node000029_Node000003"><a xlink:title=" ">
<path fill="none" stroke="#63b8ff" d="M710.22,-280.38C630.39,-270.36 438.49,-246.25 358.24,-236.18"/>
<polygon fill="#63b8ff" stroke="#63b8ff" points="359.09,-232.76 348.74,-234.98 358.22,-239.7 359.09,-232.76"/>
</a>
</g>
</g>
<!-- Node29&#45;&gt;Node8 -->
<g id="edge57_Node000029_Node000008" class="edge">
<title>Node29&#45;&gt;Node8</title>
<g id="a_edge57_Node000029_Node000008"><a xlink:title=" ">
<path fill="none" stroke="#63b8ff" d="M710.28,-276.09C631.41,-256.68 442.31,-210.16 353.12,-188.21"/>
<polygon fill="#63b8ff" stroke="#63b8ff" points="354,-184.83 343.45,-185.83 352.32,-191.62 354,-184.83"/>
</a>
</g>
</g>
<!-- Node29&#45;&gt;Node9 -->
<g id="edge64_Node000029_Node000009" class="edge">
<title>Node29&#45;&gt;Node9</title>
<g id="a_edge64_Node000029_Node000009"><a xlink:title=" ">
<path fill="none" stroke="#63b8ff" d="M768.27,-275.88C826.44,-251.12 974.67,-179.28 919,-110.5 872.85,-53.49 828.73,-89.23 752.9,-74.82"/>
<polygon fill="#63b8ff" stroke="#63b8ff" points="753.98,-71.47 743.46,-72.76 752.48,-78.31 753.98,-71.47"/>
</a>
</g>
</g>
<!-- Node29&#45;&gt;Node13 -->
<g id="edge63_Node000029_Node000013" class="edge">
<title>Node29&#45;&gt;Node13</title>
<g id="a_edge63_Node000029_Node000013"><a xlink:title=" ">
<path fill="none" stroke="#63b8ff" d="M781.5,-277.68C784.37,-277.17 787.23,-276.69 790,-276.25 893.32,-259.93 1250,-280.98 1250,-176.38 1250,-176.38 1250,-176.38 1250,-119.12 1250,-70.95 1196.05,-38.32 1161.11,-22.24"/>
<polygon fill="#63b8ff" stroke="#63b8ff" points="1162.91,-19.2 1152.34,-18.39 1160.09,-25.61 1162.91,-19.2"/>
</a>
</g>
</g>
<!-- Node29&#45;&gt;Node17 -->
<g id="edge56_Node000029_Node000017" class="edge">
<title>Node29&#45;&gt;Node17</title>
<g id="a_edge56_Node000029_Node000017"><a xlink:title=" ">
<path fill="none" stroke="#63b8ff" d="M733.62,-275.84C722.85,-267.99 707.03,-256.45 694.25,-247.12"/>
<polygon fill="#63b8ff" stroke="#63b8ff" points="696.56,-244.48 686.42,-241.42 692.44,-250.14 696.56,-244.48"/>
</a>
</g>
</g>
<!-- Node30 -->
<g id="Node000030" class="node">
<title>Node30</title>
<g id="a_Node000030"><a xlink:href="_tasks_8hpp.xhtml" target="_top" xlink:title=" ">
<polygon fill="white" stroke="#666666" points="1140.5,-185 1079.5,-185 1079.5,-165.75 1140.5,-165.75 1140.5,-185"/>
<text text-anchor="middle" x="1110" y="-171.5" font-family="Helvetica,sans-Serif" font-size="10.00">Tasks.hpp</text>
</a>
</g>
</g>
<!-- Node29&#45;&gt;Node30 -->
<g id="edge58_Node000029_Node000030" class="edge">
<title>Node29&#45;&gt;Node30</title>
<g id="a_edge58_Node000029_Node000030"><a xlink:title=" ">
<path fill="none" stroke="#63b8ff" d="M781.51,-277.71C784.38,-277.2 787.23,-276.7 790,-276.25 911.65,-256.38 959.5,-304.01 1065,-240.25 1082.21,-229.85 1094.57,-210.08 1101.94,-195.28"/>
<polygon fill="#63b8ff" stroke="#63b8ff" points="1104.96,-197.09 1105.96,-186.54 1098.6,-194.16 1104.96,-197.09"/>
</a>
</g>
</g>
<!-- Node30&#45;&gt;Node9 -->
<g id="edge59_Node000030_Node000009" class="edge">
<title>Node30&#45;&gt;Node9</title>
<g id="a_edge59_Node000030_Node000009"><a xlink:title=" ">
<path fill="none" stroke="#63b8ff" d="M1091.48,-165.41C1062.41,-151.68 1004.03,-125.48 952,-110.5 867.79,-86.26 841,-94.06 753,-74.99"/>
<polygon fill="#63b8ff" stroke="#63b8ff" points="753.96,-71.62 743.44,-72.85 752.44,-78.45 753.96,-71.62"/>
</a>
</g>
</g>
<!-- Node30&#45;&gt;Node18 -->
<g id="edge61_Node000030_Node000018" class="edge">
<title>Node30&#45;&gt;Node18</title>
<g id="a_edge61_Node000030_Node000018"><a xlink:title=" ">
<path fill="none" stroke="#63b8ff" d="M1079.25,-167.19C1038.44,-157.66 966.32,-140.82 921.51,-130.35"/>
<polygon fill="#63b8ff" stroke="#63b8ff" points="922.48,-126.98 911.94,-128.12 920.89,-133.8 922.48,-126.98"/>
</a>
</g>
</g>
<!-- Node31 -->
<g id="Node000031" class="node">
<title>Node31</title>
<g id="a_Node000031"><a xlink:title=" ">
<polygon fill="#e0e0e0" stroke="#999999" points="1138,-129.75 1080,-129.75 1080,-110.5 1138,-110.5 1138,-129.75"/>
<text text-anchor="middle" x="1109" y="-116.25" font-family="Helvetica,sans-Serif" font-size="10.00">functional</text>
</a>
</g>
</g>
<!-- Node30&#45;&gt;Node31 -->
<g id="edge60_Node000030_Node000031" class="edge">
<title>Node30&#45;&gt;Node31</title>
<g id="a_edge60_Node000030_Node000031"><a xlink:title=" ">
<path fill="none" stroke="#63b8ff" d="M1109.83,-165.58C1109.71,-159.07 1109.54,-149.92 1109.38,-141.62"/>
<polygon fill="#63b8ff" stroke="#63b8ff" points="1112.88,-141.55 1109.2,-131.62 1105.89,-141.69 1112.88,-141.55"/>
</a>
</g>
</g>
<!-- Node32 -->
<g id="Node000032" class="node">
<title>Node32</title>
<g id="a_Node000032"><a xlink:title=" ">
<polygon fill="#e0e0e0" stroke="#999999" points="1184.4,-129.75 1155.6,-129.75 1155.6,-110.5 1184.4,-110.5 1184.4,-129.75"/>
<text text-anchor="middle" x="1170" y="-116.25" font-family="Helvetica,sans-Serif" font-size="10.00">list</text>
</a>
</g>
</g>
<!-- Node30&#45;&gt;Node32 -->
<g id="edge62_Node000030_Node000032" class="edge">
<title>Node30&#45;&gt;Node32</title>
<g id="a_edge62_Node000030_Node000032"><a xlink:title=" ">
<path fill="none" stroke="#63b8ff" d="M1120.18,-165.34C1128.76,-157.72 1141.27,-146.62 1151.6,-137.45"/>
<polygon fill="#63b8ff" stroke="#63b8ff" points="1153.68,-140.29 1158.84,-131.03 1149.04,-135.05 1153.68,-140.29"/>
</a>
</g>
</g>
</g>
</svg>
