<?xml version="1.0" encoding="UTF-8" standalone="no"?>
<!DOCTYPE svg PUBLIC "-//W3C//DTD SVG 1.1//EN"
 "http://www.w3.org/Graphics/SVG/1.1/DTD/svg11.dtd">
<!-- Generated by graphviz version 9.0.0 (20230911.1827)
 -->
<!-- Title: SavedConfig.hpp Pages: 1 -->
<!--zoomable 469 -->

<svg id="main" version="1.1" xmlns="http://www.w3.org/2000/svg" xmlns:xlink="http://www.w3.org/1999/xlink" xml:space="preserve" onload="init(evt)">
<style type="text/css"><![CDATA[
.node, .edge {opacity: 0.7;}
.node.selected, .edge.selected {opacity: 1;}
.edge:hover path { stroke: red; }
.edge:hover polygon { stroke: red; fill: red; }
]]></style>

<defs>
  <circle id="rim" cx="0" cy="0" r="7"/>
  <circle id="rim2" cx="0" cy="0" r="3.5"/>
  <g id="zoomPlus">
    <use xlink:href="#rim" fill="#404040"><set attributeName="fill" to="#808080" begin="zoomplus.mouseover" end="zoomplus.mouseout"/></use>
    <path d="M-4,0h8M0,-4v8" fill="none" stroke="white" stroke-width="1.5" pointer-events="none"/>
  </g>
  <g id="zoomMin">
    <use xlink:href="#rim" fill="#404040"><set attributeName="fill" to="#808080" begin="zoomminus.mouseover" end="zoomminus.mouseout"/></use>
    <path d="M-4,0h8" fill="none" stroke="white" stroke-width="1.5" pointer-events="none"/>
  </g>
  <g id="arrowUp" transform="translate(30 24)">
    <use xlink:href="#rim"/>
    <path pointer-events="none" fill="none" stroke="white" stroke-width="1.5" d="M0,-3.0v7 M-2.5,-0.5L0,-3.0L2.5,-0.5"/>
  </g>
  <g id="arrowRight" transform="rotate(90) translate(36 -43)">
    <use xlink:href="#rim"/>
    <path pointer-events="none" fill="none" stroke="white" stroke-width="1.5" d="M0,-3.0v7 M-2.5,-0.5L0,-3.0L2.5,-0.5"/>
  </g>
  <g id="arrowDown" transform="rotate(180) translate(-30 -48)">
    <use xlink:href="#rim"/>
    <path pointer-events="none" fill="none" stroke="white" stroke-width="1.5" d="M0,-3.0v7 M-2.5,-0.5L0,-3.0L2.5,-0.5"/>
  </g>
  <g id="arrowLeft" transform="rotate(270) translate(-36 17)">
    <use xlink:href="#rim"/>
    <path pointer-events="none" fill="none" stroke="white" stroke-width="1.5" d="M0,-3.0v7 M-2.5,-0.5L0,-3.0L2.5,-0.5"/>
  </g>
  <g id="resetDef">
    <use xlink:href="#rim2" fill="#404040"><set attributeName="fill" to="#808080" begin="reset.mouseover" end="reset.mouseout"/></use>
  </g>
</defs>
<script type="application/ecmascript">
var viewWidth = 1061;
var viewHeight = 469;
var sectionId = 'dynsection-0';
</script>
<script type="application/ecmascript" xlink:href="svg.min.js"/>
<svg id="graph" class="graph">
<g id="viewport">
<title>SavedConfig.hpp</title>
<!-- Node1 -->
<g id="Node000001" class="node">
<title>Node1</title>
<g id="a_Node000001"><a xlink:title=" ">
<polygon fill="#999999" stroke="#666666" points="272.15,-461.25 183.4,-461.25 183.4,-442 272.15,-442 272.15,-461.25"/>
<text text-anchor="middle" x="227.77" y="-447.75" font-family="Helvetica,sans-Serif" font-size="10.00">SavedConfig.hpp</text>
</a>
</g>
</g>
<!-- Node2 -->
<g id="Node000002" class="node">
<title>Node2</title>
<g id="a_Node000002"><a xlink:title=" ">
<polygon fill="#e0e0e0" stroke="#999999" points="291.4,-19.25 246.15,-19.25 246.15,0 291.4,0 291.4,-19.25"/>
<text text-anchor="middle" x="268.77" y="-5.75" font-family="Helvetica,sans-Serif" font-size="10.00">cstdint</text>
</a>
</g>
</g>
<!-- Node1&#45;&gt;Node2 -->
<g id="edge1_Node000001_Node000002" class="edge">
<title>Node1&#45;&gt;Node2</title>
<g id="a_edge1_Node000001_Node000002"><a xlink:title=" ">
<path fill="none" stroke="#63b8ff" d="M182.92,-448.69C116.77,-443.16 0.77,-422.06 0.77,-342.12 0.77,-342.12 0.77,-342.12 0.77,-119.12 0.77,-89.51 -2.31,-74.99 19.77,-55.25 51,-27.33 173.97,-16.24 234.6,-12.4"/>
<polygon fill="#63b8ff" stroke="#63b8ff" points="234.57,-15.91 244.34,-11.82 234.15,-8.92 234.57,-15.91"/>
</a>
</g>
</g>
<!-- Node3 -->
<g id="Node000003" class="node">
<title>Node3</title>
<g id="a_Node000003"><a xlink:title=" ">
<polygon fill="#e0e0e0" stroke="#999999" points="286.65,-350.75 236.9,-350.75 236.9,-331.5 286.65,-331.5 286.65,-350.75"/>
<text text-anchor="middle" x="261.77" y="-337.25" font-family="Helvetica,sans-Serif" font-size="10.00">optional</text>
</a>
</g>
</g>
<!-- Node1&#45;&gt;Node3 -->
<g id="edge2_Node000001_Node000003" class="edge">
<title>Node1&#45;&gt;Node3</title>
<g id="a_edge2_Node000001_Node000003"><a xlink:title=" ">
<path fill="none" stroke="#63b8ff" d="M182.9,-445.27C135.11,-437.69 69.67,-420.79 95.77,-386.75 111.4,-366.36 181.12,-353.21 225.09,-346.78"/>
<polygon fill="#63b8ff" stroke="#63b8ff" points="225.55,-350.25 234.97,-345.4 224.58,-343.32 225.55,-350.25"/>
</a>
</g>
</g>
<!-- Node4 -->
<g id="Node000004" class="node">
<title>Node4</title>
<g id="a_Node000004"><a xlink:title=" ">
<polygon fill="#e0e0e0" stroke="#999999" points="460.77,-74.5 420.77,-74.5 420.77,-55.25 460.77,-55.25 460.77,-74.5"/>
<text text-anchor="middle" x="440.77" y="-61" font-family="Helvetica,sans-Serif" font-size="10.00">string</text>
</a>
</g>
</g>
<!-- Node1&#45;&gt;Node4 -->
<g id="edge3_Node000001_Node000004" class="edge">
<title>Node1&#45;&gt;Node4</title>
<g id="a_edge3_Node000001_Node000004"><a xlink:title=" ">
<path fill="none" stroke="#63b8ff" d="M232.42,-441.57C238.29,-428.84 246.71,-405.14 238.77,-386.75 213.11,-327.32 132.77,-351.6 132.77,-286.88 132.77,-286.88 132.77,-286.88 132.77,-229.62 132.77,-191.58 160.4,-189.94 189.77,-165.75 269.37,-100.17 306.75,-103.72 409.66,-75.03"/>
<polygon fill="#63b8ff" stroke="#63b8ff" points="410.38,-78.46 419.05,-72.36 408.47,-71.73 410.38,-78.46"/>
</a>
</g>
</g>
<!-- Node5 -->
<g id="Node000005" class="node">
<title>Node5</title>
<g id="a_Node000005"><a xlink:title=" ">
<polygon fill="#e0e0e0" stroke="#999999" points="146.9,-406 104.65,-406 104.65,-386.75 146.9,-386.75 146.9,-406"/>
<text text-anchor="middle" x="125.77" y="-392.5" font-family="Helvetica,sans-Serif" font-size="10.00">mutex</text>
</a>
</g>
</g>
<!-- Node1&#45;&gt;Node5 -->
<g id="edge4_Node000001_Node000005" class="edge">
<title>Node1&#45;&gt;Node5</title>
<g id="a_edge4_Node000001_Node000005"><a xlink:title=" ">
<path fill="none" stroke="#63b8ff" d="M210.47,-441.59C194.79,-433.41 171.42,-421.21 153.19,-411.69"/>
<polygon fill="#63b8ff" stroke="#63b8ff" points="154.98,-408.68 144.5,-407.15 151.74,-414.88 154.98,-408.68"/>
</a>
</g>
</g>
<!-- Node6 -->
<g id="Node000006" class="node">
<title>Node6</title>
<g id="a_Node000006"><a xlink:title=" ">
<polygon fill="#e0e0e0" stroke="#999999" points="230.15,-406 165.4,-406 165.4,-386.75 230.15,-386.75 230.15,-406"/>
<text text-anchor="middle" x="197.77" y="-392.5" font-family="Helvetica,sans-Serif" font-size="10.00">EEPROM.h</text>
</a>
</g>
</g>
<!-- Node1&#45;&gt;Node6 -->
<g id="edge5_Node000001_Node000006" class="edge">
<title>Node1&#45;&gt;Node6</title>
<g id="a_edge5_Node000001_Node000006"><a xlink:title=" ">
<path fill="none" stroke="#63b8ff" d="M222.82,-441.83C218.89,-434.86 213.26,-424.87 208.33,-416.12"/>
<polygon fill="#63b8ff" stroke="#63b8ff" points="211.53,-414.67 203.57,-407.68 205.43,-418.11 211.53,-414.67"/>
</a>
</g>
</g>
<!-- Node7 -->
<g id="Node000007" class="node">
<title>Node7</title>
<g id="a_Node000007"><a xlink:title=" ">
<polygon fill="#e0e0e0" stroke="#999999" points="782.52,-295.5 705.02,-295.5 705.02,-276.25 782.52,-276.25 782.52,-295.5"/>
<text text-anchor="middle" x="743.77" y="-282" font-family="Helvetica,sans-Serif" font-size="10.00">ArduinoJson.h</text>
</a>
</g>
</g>
<!-- Node1&#45;&gt;Node7 -->
<g id="edge6_Node000001_Node000007" class="edge">
<title>Node1&#45;&gt;Node7</title>
<g id="a_edge6_Node000001_Node000007"><a xlink:title=" ">
<path fill="none" stroke="#63b8ff" d="M272.43,-444.86C349.9,-433.76 513.17,-405.54 640.77,-350.75 671.04,-337.75 702.8,-316.76 722.92,-302.42"/>
<polygon fill="#63b8ff" stroke="#63b8ff" points="724.79,-305.39 730.83,-296.68 720.68,-299.72 724.79,-305.39"/>
</a>
</g>
</g>
<!-- Node8 -->
<g id="Node000008" class="node">
<title>Node8</title>
<g id="a_Node000008"><a xlink:href="_machine_config_8hpp.xhtml" target="_top" xlink:title=" ">
<polygon fill="white" stroke="#666666" points="296.65,-185 198.9,-185 198.9,-165.75 296.65,-165.75 296.65,-185"/>
<text text-anchor="middle" x="247.77" y="-171.5" font-family="Helvetica,sans-Serif" font-size="10.00">MachineConfig.hpp</text>
</a>
</g>
</g>
<!-- Node1&#45;&gt;Node8 -->
<g id="edge7_Node000001_Node000008" class="edge">
<title>Node1&#45;&gt;Node8</title>
<g id="a_edge7_Node000001_Node000008"><a xlink:title=" ">
<path fill="none" stroke="#63b8ff" d="M240.97,-441.77C251.54,-433.83 265.58,-421.1 271.77,-406 275.02,-398.08 275.43,-394.48 271.77,-386.75 260.95,-363.92 238.59,-373.58 227.77,-350.75 203.25,-299 225.51,-229.26 239.08,-195.83"/>
<polygon fill="#63b8ff" stroke="#63b8ff" points="242.29,-197.22 242.99,-186.65 235.85,-194.48 242.29,-197.22"/>
</a>
</g>
</g>
<!-- Node15 -->
<g id="Node000015" class="node">
<title>Node15</title>
<g id="a_Node000015"><a xlink:href="conf_8hpp.xhtml" target="_top" xlink:title=" ">
<polygon fill="white" stroke="#666666" points="575.15,-129.75 522.4,-129.75 522.4,-110.5 575.15,-110.5 575.15,-129.75"/>
<text text-anchor="middle" x="548.77" y="-116.25" font-family="Helvetica,sans-Serif" font-size="10.00">conf.hpp</text>
</a>
</g>
</g>
<!-- Node1&#45;&gt;Node15 -->
<g id="edge24_Node000001_Node000015" class="edge">
<title>Node1&#45;&gt;Node15</title>
<g id="a_edge24_Node000001_Node000015"><a xlink:title=" ">
<path fill="none" stroke="#63b8ff" d="M182.98,-447.23C133.58,-441.49 63.89,-426.29 86.77,-386.75 181.3,-223.36 418.6,-151.69 511.06,-129.32"/>
<polygon fill="#63b8ff" stroke="#63b8ff" points="511.7,-132.77 520.63,-127.07 510.1,-125.95 511.7,-132.77"/>
</a>
</g>
</g>
<!-- Node16 -->
<g id="Node000016" class="node">
<title>Node16</title>
<g id="a_Node000016"><a xlink:href="_cached_cards_8hpp.xhtml" target="_top" xlink:title=" ">
<polygon fill="white" stroke="#666666" points="893.02,-295.5 800.52,-295.5 800.52,-276.25 893.02,-276.25 893.02,-295.5"/>
<text text-anchor="middle" x="846.77" y="-282" font-family="Helvetica,sans-Serif" font-size="10.00">CachedCards.hpp</text>
</a>
</g>
</g>
<!-- Node1&#45;&gt;Node16 -->
<g id="edge25_Node000001_Node000016" class="edge">
<title>Node1&#45;&gt;Node16</title>
<g id="a_edge25_Node000001_Node000016"><a xlink:title=" ">
<path fill="none" stroke="#63b8ff" d="M272.5,-446.61C330.45,-440.77 434.29,-428.15 520.77,-406 632.41,-377.41 759.19,-325.05 816.18,-300.39"/>
<polygon fill="#63b8ff" stroke="#63b8ff" points="817.46,-303.65 825.23,-296.45 814.67,-297.24 817.46,-303.65"/>
</a>
</g>
</g>
<!-- Node24 -->
<g id="Node000024" class="node">
<title>Node24</title>
<g id="a_Node000024"><a xlink:href="_buffered_msg_8hpp.xhtml" target="_top" xlink:title=" ">
<polygon fill="white" stroke="#666666" points="421.15,-406 332.4,-406 332.4,-386.75 421.15,-386.75 421.15,-406"/>
<text text-anchor="middle" x="376.77" y="-392.5" font-family="Helvetica,sans-Serif" font-size="10.00">BufferedMsg.hpp</text>
</a>
</g>
</g>
<!-- Node1&#45;&gt;Node24 -->
<g id="edge43_Node000001_Node000024" class="edge">
<title>Node1&#45;&gt;Node24</title>
<g id="a_edge43_Node000001_Node000024"><a xlink:title=" ">
<path fill="none" stroke="#63b8ff" d="M253.05,-441.59C277.13,-432.99 313.63,-419.94 340.75,-410.25"/>
<polygon fill="#63b8ff" stroke="#63b8ff" points="341.71,-413.62 349.95,-406.96 339.35,-407.03 341.71,-413.62"/>
</a>
</g>
</g>
<!-- Node8&#45;&gt;Node2 -->
<g id="edge9_Node000008_Node000002" class="edge">
<title>Node8&#45;&gt;Node2</title>
<g id="a_edge9_Node000008_Node000002"><a xlink:title=" ">
<path fill="none" stroke="#63b8ff" d="M210.12,-165.29C191.54,-158.71 170.8,-147.7 159.77,-129.75 155.29,-122.46 158.03,-118.88 159.77,-110.5 165.22,-84.29 165.55,-74.86 183.77,-55.25 197.86,-40.08 218.29,-29.13 235.59,-21.87"/>
<polygon fill="#63b8ff" stroke="#63b8ff" points="236.44,-25.29 244.46,-18.37 233.88,-18.78 236.44,-25.29"/>
</a>
</g>
</g>
<!-- Node8&#45;&gt;Node4 -->
<g id="edge10_Node000008_Node000004" class="edge">
<title>Node8&#45;&gt;Node4</title>
<g id="a_edge10_Node000008_Node000004"><a xlink:title=" ">
<path fill="none" stroke="#63b8ff" d="M254.16,-165.68C264.58,-152.08 286.51,-125.76 310.77,-110.5 319.36,-105.1 373.92,-87.17 409.58,-75.75"/>
<polygon fill="#63b8ff" stroke="#63b8ff" points="410.5,-79.13 418.97,-72.76 408.37,-72.46 410.5,-79.13"/>
</a>
</g>
</g>
<!-- Node9 -->
<g id="Node000009" class="node">
<title>Node9</title>
<g id="a_Node000009"><a xlink:title=" ">
<polygon fill="#e0e0e0" stroke="#999999" points="562.4,-74.5 517.15,-74.5 517.15,-55.25 562.4,-55.25 562.4,-74.5"/>
<text text-anchor="middle" x="539.77" y="-61" font-family="Helvetica,sans-Serif" font-size="10.00">chrono</text>
</a>
</g>
</g>
<!-- Node8&#45;&gt;Node9 -->
<g id="edge8_Node000008_Node000009" class="edge">
<title>Node8&#45;&gt;Node9</title>
<g id="a_edge8_Node000008_Node000009"><a xlink:title=" ">
<path fill="none" stroke="#63b8ff" d="M272.16,-165.31C324.32,-145.93 446.74,-100.44 506.19,-78.35"/>
<polygon fill="#63b8ff" stroke="#63b8ff" points="507.29,-81.68 515.45,-74.91 504.85,-75.12 507.29,-81.68"/>
</a>
</g>
</g>
<!-- Node10 -->
<g id="Node000010" class="node">
<title>Node10</title>
<g id="a_Node000010"><a xlink:href="pins_8hpp.xhtml" target="_top" xlink:title=" ">
<polygon fill="white" stroke="#666666" points="220.77,-129.75 168.77,-129.75 168.77,-110.5 220.77,-110.5 220.77,-129.75"/>
<text text-anchor="middle" x="194.77" y="-116.25" font-family="Helvetica,sans-Serif" font-size="10.00">pins.hpp</text>
</a>
</g>
</g>
<!-- Node8&#45;&gt;Node10 -->
<g id="edge11_Node000008_Node000010" class="edge">
<title>Node8&#45;&gt;Node10</title>
<g id="a_edge11_Node000008_Node000010"><a xlink:title=" ">
<path fill="none" stroke="#63b8ff" d="M239.02,-165.58C231.62,-158.15 220.81,-147.29 211.72,-138.16"/>
<polygon fill="#63b8ff" stroke="#63b8ff" points="214.31,-135.8 204.78,-131.18 209.35,-140.74 214.31,-135.8"/>
</a>
</g>
</g>
<!-- Node14 -->
<g id="Node000014" class="node">
<title>Node14</title>
<g id="a_Node000014"><a xlink:href="_machine_i_d_8hpp.xhtml" target="_top" xlink:title=" ">
<polygon fill="white" stroke="#666666" points="109.02,-74.5 28.52,-74.5 28.52,-55.25 109.02,-55.25 109.02,-74.5"/>
<text text-anchor="middle" x="68.77" y="-61" font-family="Helvetica,sans-Serif" font-size="10.00">MachineID.hpp</text>
</a>
</g>
</g>
<!-- Node8&#45;&gt;Node14 -->
<g id="edge17_Node000008_Node000014" class="edge">
<title>Node8&#45;&gt;Node14</title>
<g id="a_edge17_Node000008_Node000014"><a xlink:title=" ">
<path fill="none" stroke="#63b8ff" d="M209.3,-165.3C184.35,-158.22 151.92,-146.72 126.77,-129.75 108.58,-117.48 92.22,-98.35 81.55,-84.21"/>
<polygon fill="#63b8ff" stroke="#63b8ff" points="84.44,-82.24 75.73,-76.2 78.78,-86.35 84.44,-82.24"/>
</a>
</g>
</g>
<!-- Node8&#45;&gt;Node15 -->
<g id="edge19_Node000008_Node000015" class="edge">
<title>Node8&#45;&gt;Node15</title>
<g id="a_edge19_Node000008_Node000015"><a xlink:title=" ">
<path fill="none" stroke="#63b8ff" d="M296.95,-166.61C349.5,-158.17 435.2,-143.96 508.77,-129.75 509.58,-129.59 510.4,-129.43 511.23,-129.27"/>
<polygon fill="#63b8ff" stroke="#63b8ff" points="511.55,-132.78 520.64,-127.34 510.14,-125.92 511.55,-132.78"/>
</a>
</g>
</g>
<!-- Node10&#45;&gt;Node2 -->
<g id="edge12_Node000010_Node000002" class="edge">
<title>Node10&#45;&gt;Node2</title>
<g id="a_edge12_Node000010_Node000002"><a xlink:title=" ">
<path fill="none" stroke="#63b8ff" d="M191.95,-110.17C188.41,-97.13 183.9,-72.6 193.77,-55.25 202.78,-39.41 219.87,-28.61 235.47,-21.6"/>
<polygon fill="#63b8ff" stroke="#63b8ff" points="236.57,-24.93 244.5,-17.91 233.92,-18.45 236.57,-24.93"/>
</a>
</g>
</g>
<!-- Node11 -->
<g id="Node000011" class="node">
<title>Node11</title>
<g id="a_Node000011"><a xlink:title=" ">
<polygon fill="#e0e0e0" stroke="#999999" points="304.52,-74.5 203.02,-74.5 203.02,-55.25 304.52,-55.25 304.52,-74.5"/>
<text text-anchor="middle" x="253.77" y="-61" font-family="Helvetica,sans-Serif" font-size="10.00">Adafruit_NeoPixel.h</text>
</a>
</g>
</g>
<!-- Node10&#45;&gt;Node11 -->
<g id="edge13_Node000010_Node000011" class="edge">
<title>Node10&#45;&gt;Node11</title>
<g id="a_edge13_Node000010_Node000011"><a xlink:title=" ">
<path fill="none" stroke="#63b8ff" d="M204.78,-110.09C213.14,-102.55 225.27,-91.6 235.37,-82.48"/>
<polygon fill="#63b8ff" stroke="#63b8ff" points="237.71,-85.09 242.79,-75.79 233.02,-79.89 237.71,-85.09"/>
</a>
</g>
</g>
<!-- Node12 -->
<g id="Node000012" class="node">
<title>Node12</title>
<g id="a_Node000012"><a xlink:href="_pins_config_8hpp.xhtml" target="_top" xlink:title=" ">
<polygon fill="white" stroke="#666666" points="403.02,-74.5 322.52,-74.5 322.52,-55.25 403.02,-55.25 403.02,-74.5"/>
<text text-anchor="middle" x="362.77" y="-61" font-family="Helvetica,sans-Serif" font-size="10.00">PinsConfig.hpp</text>
</a>
</g>
</g>
<!-- Node10&#45;&gt;Node12 -->
<g id="edge14_Node000010_Node000012" class="edge">
<title>Node10&#45;&gt;Node12</title>
<g id="a_edge14_Node000010_Node000012"><a xlink:title=" ">
<path fill="none" stroke="#63b8ff" d="M221.02,-110.8C248.51,-102.09 291.99,-88.31 323.56,-78.3"/>
<polygon fill="#63b8ff" stroke="#63b8ff" points="324.26,-81.75 332.73,-75.4 322.14,-75.08 324.26,-81.75"/>
</a>
</g>
</g>
<!-- Node12&#45;&gt;Node2 -->
<g id="edge15_Node000012_Node000002" class="edge">
<title>Node12&#45;&gt;Node2</title>
<g id="a_edge15_Node000012_Node000002"><a xlink:title=" ">
<path fill="none" stroke="#63b8ff" d="M346.82,-54.84C332.51,-46.73 311.24,-34.68 294.52,-25.21"/>
<polygon fill="#63b8ff" stroke="#63b8ff" points="296.54,-22.33 286.11,-20.45 293.09,-28.42 296.54,-22.33"/>
</a>
</g>
</g>
<!-- Node13 -->
<g id="Node000013" class="node">
<title>Node13</title>
<g id="a_Node000013"><a xlink:title=" ">
<polygon fill="#e0e0e0" stroke="#999999" points="712.27,-19.25 675.27,-19.25 675.27,0 712.27,0 712.27,-19.25"/>
<text text-anchor="middle" x="693.77" y="-5.75" font-family="Helvetica,sans-Serif" font-size="10.00">array</text>
</a>
</g>
</g>
<!-- Node12&#45;&gt;Node13 -->
<g id="edge16_Node000012_Node000013" class="edge">
<title>Node12&#45;&gt;Node13</title>
<g id="a_edge16_Node000012_Node000013"><a xlink:title=" ">
<path fill="none" stroke="#63b8ff" d="M403.4,-56.67C406.23,-56.18 409.04,-55.71 411.77,-55.25 503.42,-39.93 612.07,-23.12 663.67,-15.21"/>
<polygon fill="#63b8ff" stroke="#63b8ff" points="664.09,-18.69 673.44,-13.72 663.03,-11.77 664.09,-18.69"/>
</a>
</g>
</g>
<!-- Node14&#45;&gt;Node2 -->
<g id="edge18_Node000014_Node000002" class="edge">
<title>Node14&#45;&gt;Node2</title>
<g id="a_edge18_Node000014_Node000002"><a xlink:title=" ">
<path fill="none" stroke="#63b8ff" d="M102.7,-54.84C139.66,-45 198.43,-29.35 235.24,-19.55"/>
<polygon fill="#63b8ff" stroke="#63b8ff" points="235.68,-23.06 244.45,-17.1 233.88,-16.29 235.68,-23.06"/>
</a>
</g>
</g>
<!-- Node15&#45;&gt;Node2 -->
<g id="edge20_Node000015_Node000002" class="edge">
<title>Node15&#45;&gt;Node2</title>
<g id="a_edge20_Node000015_Node000002"><a xlink:title=" ">
<path fill="none" stroke="#63b8ff" d="M556.94,-110.27C568.25,-96.92 585.79,-71.49 571.77,-55.25 537.36,-15.4 374.85,-10.5 303.04,-10.32"/>
<polygon fill="#63b8ff" stroke="#63b8ff" points="303.04,-6.82 293.04,-10.33 303.04,-13.82 303.04,-6.82"/>
</a>
</g>
</g>
<!-- Node15&#45;&gt;Node4 -->
<g id="edge21_Node000015_Node000004" class="edge">
<title>Node15&#45;&gt;Node4</title>
<g id="a_edge21_Node000015_Node000004"><a xlink:title=" ">
<path fill="none" stroke="#63b8ff" d="M530.45,-110.09C513.69,-101.83 488.64,-89.48 469.27,-79.93"/>
<polygon fill="#63b8ff" stroke="#63b8ff" points="471.06,-76.9 460.54,-75.62 467.96,-83.18 471.06,-76.9"/>
</a>
</g>
</g>
<!-- Node15&#45;&gt;Node9 -->
<g id="edge22_Node000015_Node000009" class="edge">
<title>Node15&#45;&gt;Node9</title>
<g id="a_edge22_Node000015_Node000009"><a xlink:title=" ">
<path fill="none" stroke="#63b8ff" d="M547.28,-110.33C546.17,-103.74 544.6,-94.46 543.18,-86.07"/>
<polygon fill="#63b8ff" stroke="#63b8ff" points="546.66,-85.63 541.54,-76.35 539.76,-86.8 546.66,-85.63"/>
</a>
</g>
</g>
<!-- Node15&#45;&gt;Node14 -->
<g id="edge23_Node000015_Node000014" class="edge">
<title>Node15&#45;&gt;Node14</title>
<g id="a_edge23_Node000015_Node000014"><a xlink:title=" ">
<path fill="none" stroke="#63b8ff" d="M521.93,-116.15C444.94,-107.61 222.34,-82.91 120.61,-71.63"/>
<polygon fill="#63b8ff" stroke="#63b8ff" points="121.23,-68.17 110.9,-70.55 120.45,-75.13 121.23,-68.17"/>
</a>
</g>
</g>
<!-- Node16&#45;&gt;Node13 -->
<g id="edge26_Node000016_Node000013" class="edge">
<title>Node16&#45;&gt;Node13</title>
<g id="a_edge26_Node000016_Node000013"><a xlink:title=" ">
<path fill="none" stroke="#63b8ff" d="M893.51,-280.69C954.29,-272.4 1052.77,-247.92 1052.77,-176.38 1052.77,-176.38 1052.77,-176.38 1052.77,-119.12 1052.77,-88.8 1052.5,-74.13 1028.77,-55.25 981.9,-17.97 796.77,-11.77 723.68,-10.79"/>
<polygon fill="#63b8ff" stroke="#63b8ff" points="724.11,-7.29 714.07,-10.68 724.03,-14.29 724.11,-7.29"/>
</a>
</g>
</g>
<!-- Node16&#45;&gt;Node15 -->
<g id="edge41_Node000016_Node000015" class="edge">
<title>Node16&#45;&gt;Node15</title>
<g id="a_edge41_Node000016_Node000015"><a xlink:title=" ">
<path fill="none" stroke="#63b8ff" d="M800.4,-276.99C753.09,-268.38 683.35,-253.98 659.77,-240.25 615.76,-214.61 578.72,-166.05 560.63,-139.54"/>
<polygon fill="#63b8ff" stroke="#63b8ff" points="563.55,-137.61 555.11,-131.21 557.72,-141.48 563.55,-137.61"/>
</a>
</g>
</g>
<!-- Node17 -->
<g id="Node000017" class="node">
<title>Node17</title>
<g id="a_Node000017"><a xlink:href="_fab_user_8hpp.xhtml" target="_top" xlink:title=" ">
<polygon fill="white" stroke="#666666" points="740.52,-240.25 669.02,-240.25 669.02,-221 740.52,-221 740.52,-240.25"/>
<text text-anchor="middle" x="704.77" y="-226.75" font-family="Helvetica,sans-Serif" font-size="10.00">FabUser.hpp</text>
</a>
</g>
</g>
<!-- Node16&#45;&gt;Node17 -->
<g id="edge27_Node000016_Node000017" class="edge">
<title>Node16&#45;&gt;Node17</title>
<g id="a_edge27_Node000016_Node000017"><a xlink:title=" ">
<path fill="none" stroke="#63b8ff" d="M822.68,-275.84C799.83,-267.27 765.25,-254.31 739.44,-244.63"/>
<polygon fill="#63b8ff" stroke="#63b8ff" points="740.99,-241.47 730.39,-241.23 738.53,-248.02 740.99,-241.47"/>
</a>
</g>
</g>
<!-- Node19 -->
<g id="Node000019" class="node">
<title>Node19</title>
<g id="a_Node000019"><a xlink:href="card_8hpp.xhtml" target="_top" xlink:title=" ">
<polygon fill="white" stroke="#666666" points="873.15,-185 820.4,-185 820.4,-165.75 873.15,-165.75 873.15,-185"/>
<text text-anchor="middle" x="846.77" y="-171.5" font-family="Helvetica,sans-Serif" font-size="10.00">card.hpp</text>
</a>
</g>
</g>
<!-- Node16&#45;&gt;Node19 -->
<g id="edge42_Node000016_Node000019" class="edge">
<title>Node16&#45;&gt;Node19</title>
<g id="a_edge42_Node000016_Node000019"><a xlink:title=" ">
<path fill="none" stroke="#63b8ff" d="M846.77,-276C846.77,-258.75 846.77,-220.33 846.77,-196.56"/>
<polygon fill="#63b8ff" stroke="#63b8ff" points="850.27,-196.89 846.77,-186.89 843.27,-196.89 850.27,-196.89"/>
</a>
</g>
</g>
<!-- Node17&#45;&gt;Node2 -->
<g id="edge38_Node000017_Node000002" class="edge">
<title>Node17&#45;&gt;Node2</title>
<g id="a_edge38_Node000017_Node000002"><a xlink:title=" ">
<path fill="none" stroke="#63b8ff" d="M701.84,-220.84C691.57,-191.57 654.2,-96.85 587.77,-55.25 540.74,-25.8 374.93,-15.19 302.75,-11.91"/>
<polygon fill="#63b8ff" stroke="#63b8ff" points="303.26,-8.43 293.12,-11.5 302.96,-15.42 303.26,-8.43"/>
</a>
</g>
</g>
<!-- Node17&#45;&gt;Node4 -->
<g id="edge40_Node000017_Node000004" class="edge">
<title>Node17&#45;&gt;Node4</title>
<g id="a_edge40_Node000017_Node000004"><a xlink:title=" ">
<path fill="none" stroke="#63b8ff" d="M683.09,-220.55C646.52,-204.77 570.97,-170.06 513.77,-129.75 493.25,-115.29 471.88,-96.01 457.6,-82.43"/>
<polygon fill="#63b8ff" stroke="#63b8ff" points="460.42,-80.28 450.79,-75.86 455.55,-85.32 460.42,-80.28"/>
</a>
</g>
</g>
<!-- Node17&#45;&gt;Node13 -->
<g id="edge37_Node000017_Node000013" class="edge">
<title>Node17&#45;&gt;Node13</title>
<g id="a_edge37_Node000017_Node000013"><a xlink:title=" ">
<path fill="none" stroke="#63b8ff" d="M704.33,-220.77C702.7,-188.51 697.09,-76.76 694.78,-30.71"/>
<polygon fill="#63b8ff" stroke="#63b8ff" points="698.28,-30.68 694.28,-20.86 691.29,-31.03 698.28,-30.68"/>
</a>
</g>
</g>
<!-- Node17&#45;&gt;Node15 -->
<g id="edge36_Node000017_Node000015" class="edge">
<title>Node17&#45;&gt;Node15</title>
<g id="a_edge36_Node000017_Node000015"><a xlink:title=" ">
<path fill="none" stroke="#63b8ff" d="M691.74,-220.56C665.06,-202.01 603.96,-159.51 570.94,-136.54"/>
<polygon fill="#63b8ff" stroke="#63b8ff" points="573.11,-133.79 562.9,-130.95 569.11,-139.53 573.11,-133.79"/>
</a>
</g>
</g>
<!-- Node18 -->
<g id="Node000018" class="node">
<title>Node18</title>
<g id="a_Node000018"><a xlink:title=" ">
<polygon fill="#e0e0e0" stroke="#999999" points="801.02,-129.75 744.52,-129.75 744.52,-110.5 801.02,-110.5 801.02,-129.75"/>
<text text-anchor="middle" x="772.77" y="-116.25" font-family="Helvetica,sans-Serif" font-size="10.00">Arduino.h</text>
</a>
</g>
</g>
<!-- Node17&#45;&gt;Node18 -->
<g id="edge28_Node000017_Node000018" class="edge">
<title>Node17&#45;&gt;Node18</title>
<g id="a_edge28_Node000017_Node000018"><a xlink:title=" ">
<path fill="none" stroke="#63b8ff" d="M710.33,-220.75C721.39,-203.1 746.34,-163.3 761.13,-139.7"/>
<polygon fill="#63b8ff" stroke="#63b8ff" points="763.98,-141.74 766.32,-131.41 758.05,-138.02 763.98,-141.74"/>
</a>
</g>
</g>
<!-- Node17&#45;&gt;Node19 -->
<g id="edge29_Node000017_Node000019" class="edge">
<title>Node17&#45;&gt;Node19</title>
<g id="a_edge29_Node000017_Node000019"><a xlink:title=" ">
<path fill="none" stroke="#63b8ff" d="M728.86,-220.59C751.71,-212.02 786.29,-199.06 812.1,-189.38"/>
<polygon fill="#63b8ff" stroke="#63b8ff" points="813.01,-192.77 821.15,-185.98 810.55,-186.22 813.01,-192.77"/>
</a>
</g>
</g>
<!-- Node20 -->
<g id="Node000020" class="node">
<title>Node20</title>
<g id="a_Node000020"><a xlink:title=" ">
<polygon fill="#e0e0e0" stroke="#999999" points="870.4,-129.75 819.15,-129.75 819.15,-110.5 870.4,-110.5 870.4,-129.75"/>
<text text-anchor="middle" x="844.77" y="-116.25" font-family="Helvetica,sans-Serif" font-size="10.00">sstream</text>
</a>
</g>
</g>
<!-- Node17&#45;&gt;Node20 -->
<g id="edge39_Node000017_Node000020" class="edge">
<title>Node17&#45;&gt;Node20</title>
<g id="a_edge39_Node000017_Node000020"><a xlink:title=" ">
<path fill="none" stroke="#63b8ff" d="M716.23,-220.75C739.92,-202.39 794.56,-160.04 824.41,-136.91"/>
<polygon fill="#63b8ff" stroke="#63b8ff" points="826.2,-139.95 831.96,-131.05 821.91,-134.41 826.2,-139.95"/>
</a>
</g>
</g>
<!-- Node19&#45;&gt;Node15 -->
<g id="edge33_Node000019_Node000015" class="edge">
<title>Node19&#45;&gt;Node15</title>
<g id="a_edge33_Node000019_Node000015"><a xlink:title=" ">
<path fill="none" stroke="#63b8ff" d="M820.06,-169.6C766.92,-160.11 647.77,-138.82 586.6,-127.88"/>
<polygon fill="#63b8ff" stroke="#63b8ff" points="587.47,-124.49 577.02,-126.17 586.24,-131.38 587.47,-124.49"/>
</a>
</g>
</g>
<!-- Node19&#45;&gt;Node18 -->
<g id="edge32_Node000019_Node000018" class="edge">
<title>Node19&#45;&gt;Node18</title>
<g id="a_edge32_Node000019_Node000018"><a xlink:title=" ">
<path fill="none" stroke="#63b8ff" d="M834.22,-165.34C823.31,-157.49 807.27,-145.95 794.31,-136.62"/>
<polygon fill="#63b8ff" stroke="#63b8ff" points="796.53,-133.91 786.37,-130.91 792.44,-139.59 796.53,-133.91"/>
</a>
</g>
</g>
<!-- Node19&#45;&gt;Node20 -->
<g id="edge30_Node000019_Node000020" class="edge">
<title>Node19&#45;&gt;Node20</title>
<g id="a_edge30_Node000019_Node000020"><a xlink:title=" ">
<path fill="none" stroke="#63b8ff" d="M846.44,-165.58C846.19,-158.99 845.84,-149.71 845.53,-141.32"/>
<polygon fill="#63b8ff" stroke="#63b8ff" points="849.04,-141.48 845.16,-131.62 842.04,-141.75 849.04,-141.48"/>
</a>
</g>
</g>
<!-- Node21 -->
<g id="Node000021" class="node">
<title>Node21</title>
<g id="a_Node000021"><a xlink:title=" ">
<polygon fill="#e0e0e0" stroke="#999999" points="938.65,-129.75 888.9,-129.75 888.9,-110.5 938.65,-110.5 938.65,-129.75"/>
<text text-anchor="middle" x="913.77" y="-116.25" font-family="Helvetica,sans-Serif" font-size="10.00">iomanip</text>
</a>
</g>
</g>
<!-- Node19&#45;&gt;Node21 -->
<g id="edge31_Node000019_Node000021" class="edge">
<title>Node19&#45;&gt;Node21</title>
<g id="a_edge31_Node000019_Node000021"><a xlink:title=" ">
<path fill="none" stroke="#63b8ff" d="M858.14,-165.34C867.82,-157.65 881.97,-146.4 893.58,-137.18"/>
<polygon fill="#63b8ff" stroke="#63b8ff" points="895.74,-139.93 901.39,-130.97 891.38,-134.45 895.74,-139.93"/>
</a>
</g>
</g>
<!-- Node22 -->
<g id="Node000022" class="node">
<title>Node22</title>
<g id="a_Node000022"><a xlink:href="_logging_8hpp.xhtml" target="_top" xlink:title=" ">
<polygon fill="white" stroke="#666666" points="1025.02,-129.75 956.52,-129.75 956.52,-110.5 1025.02,-110.5 1025.02,-129.75"/>
<text text-anchor="middle" x="990.77" y="-116.25" font-family="Helvetica,sans-Serif" font-size="10.00">Logging.hpp</text>
</a>
</g>
</g>
<!-- Node19&#45;&gt;Node22 -->
<g id="edge34_Node000019_Node000022" class="edge">
<title>Node19&#45;&gt;Node22</title>
<g id="a_edge34_Node000019_Node000022"><a xlink:title=" ">
<path fill="none" stroke="#63b8ff" d="M871.2,-165.34C894.37,-156.77 929.43,-143.81 955.61,-134.13"/>
<polygon fill="#63b8ff" stroke="#63b8ff" points="956.64,-137.48 964.8,-130.73 954.21,-130.91 956.64,-137.48"/>
</a>
</g>
</g>
<!-- Node23 -->
<g id="Node000023" class="node">
<title>Node23</title>
<g id="a_Node000023"><a xlink:title=" ">
<polygon fill="#e0e0e0" stroke="#999999" points="1019.4,-74.5 962.15,-74.5 962.15,-55.25 1019.4,-55.25 1019.4,-74.5"/>
<text text-anchor="middle" x="990.77" y="-61" font-family="Helvetica,sans-Serif" font-size="10.00">esp_log.h</text>
</a>
</g>
</g>
<!-- Node22&#45;&gt;Node23 -->
<g id="edge35_Node000022_Node000023" class="edge">
<title>Node22&#45;&gt;Node23</title>
<g id="a_edge35_Node000022_Node000023"><a xlink:title=" ">
<path fill="none" stroke="#63b8ff" d="M990.77,-110.33C990.77,-103.82 990.77,-94.67 990.77,-86.37"/>
<polygon fill="#63b8ff" stroke="#63b8ff" points="994.27,-86.37 990.77,-76.37 987.27,-86.37 994.27,-86.37"/>
</a>
</g>
</g>
<!-- Node24&#45;&gt;Node3 -->
<g id="edge44_Node000024_Node000003" class="edge">
<title>Node24&#45;&gt;Node3</title>
<g id="a_edge44_Node000024_Node000003"><a xlink:title=" ">
<path fill="none" stroke="#63b8ff" d="M357.26,-386.34C339.25,-378 312.25,-365.5 291.54,-355.91"/>
<polygon fill="#63b8ff" stroke="#63b8ff" points="293.29,-352.86 282.75,-351.84 290.35,-359.22 293.29,-352.86"/>
</a>
</g>
</g>
<!-- Node24&#45;&gt;Node4 -->
<g id="edge46_Node000024_Node000004" class="edge">
<title>Node24&#45;&gt;Node4</title>
<g id="a_edge46_Node000024_Node000004"><a xlink:title=" ">
<path fill="none" stroke="#63b8ff" d="M371.11,-386.28C359.52,-366.59 334.73,-318.35 341.77,-276.25 354.61,-199.41 358.51,-177.19 398.77,-110.5 404.99,-100.2 413.91,-90.29 421.93,-82.44"/>
<polygon fill="#63b8ff" stroke="#63b8ff" points="424.08,-85.22 429.01,-75.84 419.31,-80.1 424.08,-85.22"/>
</a>
</g>
</g>
<!-- Node24&#45;&gt;Node7 -->
<g id="edge48_Node000024_Node000007" class="edge">
<title>Node24&#45;&gt;Node7</title>
<g id="a_edge48_Node000024_Node000007"><a xlink:title=" ">
<path fill="none" stroke="#63b8ff" d="M421.49,-389.74C467.84,-383.17 542.02,-370.6 603.77,-350.75 644.86,-337.54 689.84,-315.56 717.44,-301.15"/>
<polygon fill="#63b8ff" stroke="#63b8ff" points="718.93,-304.32 726.13,-296.55 715.65,-298.14 718.93,-304.32"/>
</a>
</g>
</g>
<!-- Node24&#45;&gt;Node14 -->
<g id="edge49_Node000024_Node000014" class="edge">
<title>Node24&#45;&gt;Node14</title>
<g id="a_edge49_Node000024_Node000014"><a xlink:title=" ">
<path fill="none" stroke="#63b8ff" d="M365,-386.37C324.3,-354.8 187.37,-244.77 101.77,-129.75 91.4,-115.81 82.55,-98.14 76.63,-84.92"/>
<polygon fill="#63b8ff" stroke="#63b8ff" points="79.98,-83.85 72.82,-76.05 73.55,-86.62 79.98,-83.85"/>
</a>
</g>
</g>
<!-- Node25 -->
<g id="Node000025" class="node">
<title>Node25</title>
<g id="a_Node000025"><a xlink:title=" ">
<polygon fill="#e0e0e0" stroke="#999999" points="594.9,-350.75 552.65,-350.75 552.65,-331.5 594.9,-331.5 594.9,-350.75"/>
<text text-anchor="middle" x="573.77" y="-337.25" font-family="Helvetica,sans-Serif" font-size="10.00">queue</text>
</a>
</g>
</g>
<!-- Node24&#45;&gt;Node25 -->
<g id="edge45_Node000024_Node000025" class="edge">
<title>Node24&#45;&gt;Node25</title>
<g id="a_edge45_Node000024_Node000025"><a xlink:title=" ">
<path fill="none" stroke="#63b8ff" d="M411.36,-386.33C442.86,-378.06 490.93,-365.32 541.09,-351.46"/>
<polygon fill="#63b8ff" stroke="#63b8ff" points="541.99,-354.84 550.7,-348.8 540.12,-348.09 541.99,-354.84"/>
</a>
</g>
</g>
<!-- Node26 -->
<g id="Node000026" class="node">
<title>Node26</title>
<g id="a_Node000026"><a xlink:title=" ">
<polygon fill="#e0e0e0" stroke="#999999" points="401.02,-295.5 350.52,-295.5 350.52,-276.25 401.02,-276.25 401.02,-295.5"/>
<text text-anchor="middle" x="375.77" y="-282" font-family="Helvetica,sans-Serif" font-size="10.00">memory</text>
</a>
</g>
</g>
<!-- Node24&#45;&gt;Node26 -->
<g id="edge47_Node000024_Node000026" class="edge">
<title>Node24&#45;&gt;Node26</title>
<g id="a_edge47_Node000024_Node000026"><a xlink:title=" ">
<path fill="none" stroke="#63b8ff" d="M376.69,-386.5C376.53,-369.25 376.18,-330.83 375.96,-307.06"/>
<polygon fill="#63b8ff" stroke="#63b8ff" points="379.46,-307.36 375.87,-297.39 372.46,-307.42 379.46,-307.36"/>
</a>
</g>
</g>
<!-- Node27 -->
<g id="Node000027" class="node">
<title>Node27</title>
<g id="a_Node000027"><a xlink:href="_m_q_t_ttypes_8hpp.xhtml" target="_top" xlink:title=" ">
<polygon fill="white" stroke="#666666" points="534.27,-350.75 449.27,-350.75 449.27,-331.5 534.27,-331.5 534.27,-350.75"/>
<text text-anchor="middle" x="491.77" y="-337.25" font-family="Helvetica,sans-Serif" font-size="10.00">MQTTtypes.hpp</text>
</a>
</g>
</g>
<!-- Node24&#45;&gt;Node27 -->
<g id="edge50_Node000024_Node000027" class="edge">
<title>Node24&#45;&gt;Node27</title>
<g id="a_edge50_Node000024_Node000027"><a xlink:title=" ">
<path fill="none" stroke="#63b8ff" d="M396.28,-386.34C414.29,-378 441.29,-365.5 462,-355.91"/>
<polygon fill="#63b8ff" stroke="#63b8ff" points="463.19,-359.22 470.79,-351.84 460.25,-352.86 463.19,-359.22"/>
</a>
</g>
</g>
<!-- Node27&#45;&gt;Node4 -->
<g id="edge60_Node000027_Node000004" class="edge">
<title>Node27&#45;&gt;Node4</title>
<g id="a_edge60_Node000027_Node000004"><a xlink:title=" ">
<path fill="none" stroke="#63b8ff" d="M479.93,-331.14C469.91,-322.92 455.93,-309.88 447.77,-295.5 410.21,-229.31 414.4,-205.24 404.77,-129.75 403.69,-121.26 401.92,-118.57 404.77,-110.5 408.39,-100.25 415.48,-90.62 422.41,-82.95"/>
<polygon fill="#63b8ff" stroke="#63b8ff" points="424.71,-85.6 429.21,-76 419.71,-80.7 424.71,-85.6"/>
</a>
</g>
</g>
<!-- Node27&#45;&gt;Node7 -->
<g id="edge51_Node000027_Node000007" class="edge">
<title>Node27&#45;&gt;Node7</title>
<g id="a_edge51_Node000027_Node000007"><a xlink:title=" ">
<path fill="none" stroke="#63b8ff" d="M534.52,-331.09C578.5,-321.8 646.96,-307.33 693.51,-297.5"/>
<polygon fill="#63b8ff" stroke="#63b8ff" points="694.01,-300.97 703.07,-295.48 692.56,-294.12 694.01,-300.97"/>
</a>
</g>
</g>
<!-- Node27&#45;&gt;Node17 -->
<g id="edge52_Node000027_Node000017" class="edge">
<title>Node27&#45;&gt;Node17</title>
<g id="a_edge52_Node000027_Node000017"><a xlink:title=" ">
<path fill="none" stroke="#63b8ff" d="M501.82,-331.2C517.37,-317.76 548.63,-292.2 578.77,-276.25 604.47,-262.65 635.2,-251.67 659.88,-244"/>
<polygon fill="#63b8ff" stroke="#63b8ff" points="660.74,-247.4 669.3,-241.16 658.72,-240.7 660.74,-247.4"/>
</a>
</g>
</g>
<!-- Node27&#45;&gt;Node19 -->
<g id="edge59_Node000027_Node000019" class="edge">
<title>Node27&#45;&gt;Node19</title>
<g id="a_edge59_Node000027_Node000019"><a xlink:title=" ">
<path fill="none" stroke="#63b8ff" d="M509.08,-331.16C526.29,-322.22 553.43,-308.05 576.77,-295.5 592.41,-287.1 595.28,-282.82 611.77,-276.25 670.66,-252.8 691.86,-266.02 749.77,-240.25 778.35,-227.53 807.91,-206.77 826.77,-192.39"/>
<polygon fill="#63b8ff" stroke="#63b8ff" points="828.89,-195.17 834.64,-186.26 824.59,-189.64 828.89,-195.17"/>
</a>
</g>
</g>
<!-- Node27&#45;&gt;Node26 -->
<g id="edge61_Node000027_Node000026" class="edge">
<title>Node27&#45;&gt;Node26</title>
<g id="a_edge61_Node000027_Node000026"><a xlink:title=" ">
<path fill="none" stroke="#63b8ff" d="M472.09,-331.09C453.93,-322.75 426.69,-310.25 405.8,-300.66"/>
<polygon fill="#63b8ff" stroke="#63b8ff" points="407.47,-297.58 396.92,-296.58 404.55,-303.94 407.47,-297.58"/>
</a>
</g>
</g>
<!-- Node28 -->
<g id="Node000028" class="node">
<title>Node28</title>
<g id="a_Node000028"><a xlink:href="_machine_8hpp.xhtml" target="_top" xlink:title=" ">
<polygon fill="white" stroke="#666666" points="527.15,-295.5 456.4,-295.5 456.4,-276.25 527.15,-276.25 527.15,-295.5"/>
<text text-anchor="middle" x="491.77" y="-282" font-family="Helvetica,sans-Serif" font-size="10.00">Machine.hpp</text>
</a>
</g>
</g>
<!-- Node27&#45;&gt;Node28 -->
<g id="edge53_Node000027_Node000028" class="edge">
<title>Node27&#45;&gt;Node28</title>
<g id="a_edge53_Node000027_Node000028"><a xlink:title=" ">
<path fill="none" stroke="#63b8ff" d="M491.77,-331.33C491.77,-324.82 491.77,-315.67 491.77,-307.37"/>
<polygon fill="#63b8ff" stroke="#63b8ff" points="495.27,-307.37 491.77,-297.37 488.27,-307.37 495.27,-307.37"/>
</a>
</g>
</g>
<!-- Node29 -->
<g id="Node000029" class="node">
<title>Node29</title>
<g id="a_Node000029"><a xlink:title=" ">
<polygon fill="#e0e0e0" stroke="#999999" points="686.52,-295.5 621.02,-295.5 621.02,-276.25 686.52,-276.25 686.52,-295.5"/>
<text text-anchor="middle" x="653.77" y="-282" font-family="Helvetica,sans-Serif" font-size="10.00">string_view</text>
</a>
</g>
</g>
<!-- Node27&#45;&gt;Node29 -->
<g id="edge62_Node000027_Node000029" class="edge">
<title>Node27&#45;&gt;Node29</title>
<g id="a_edge62_Node000027_Node000029"><a xlink:title=" ">
<path fill="none" stroke="#63b8ff" d="M519.25,-331.09C545.67,-322.41 585.83,-309.21 615.39,-299.49"/>
<polygon fill="#63b8ff" stroke="#63b8ff" points="616.31,-302.87 624.72,-296.43 614.12,-296.22 616.31,-302.87"/>
</a>
</g>
</g>
<!-- Node28&#45;&gt;Node2 -->
<g id="edge58_Node000028_Node000002" class="edge">
<title>Node28&#45;&gt;Node2</title>
<g id="a_edge58_Node000028_Node000002"><a xlink:title=" ">
<path fill="none" stroke="#63b8ff" d="M494.16,-275.99C502.66,-242.29 527.86,-120.96 469.77,-55.25 448.08,-30.71 354.47,-18.44 303,-13.45"/>
<polygon fill="#63b8ff" stroke="#63b8ff" points="303.59,-9.98 293.31,-12.55 302.94,-16.95 303.59,-9.98"/>
</a>
</g>
</g>
<!-- Node28&#45;&gt;Node8 -->
<g id="edge55_Node000028_Node000008" class="edge">
<title>Node28&#45;&gt;Node8</title>
<g id="a_edge55_Node000028_Node000008"><a xlink:title=" ">
<path fill="none" stroke="#63b8ff" d="M471.39,-275.81C428.6,-256.78 329.2,-212.58 278.58,-190.08"/>
<polygon fill="#63b8ff" stroke="#63b8ff" points="280.21,-186.97 269.65,-186.1 277.37,-193.37 280.21,-186.97"/>
</a>
</g>
</g>
<!-- Node28&#45;&gt;Node9 -->
<g id="edge57_Node000028_Node000009" class="edge">
<title>Node28&#45;&gt;Node9</title>
<g id="a_edge57_Node000028_Node000009"><a xlink:title=" ">
<path fill="none" stroke="#63b8ff" d="M499.52,-275.9C518.49,-253.28 566.88,-191.35 583.77,-129.75 586.03,-121.5 587.02,-118.42 583.77,-110.5 579.17,-99.29 570.25,-89.39 561.64,-81.78"/>
<polygon fill="#63b8ff" stroke="#63b8ff" points="564.11,-79.28 554.14,-75.68 559.69,-84.71 564.11,-79.28"/>
</a>
</g>
</g>
<!-- Node28&#45;&gt;Node13 -->
<g id="edge56_Node000028_Node000013" class="edge">
<title>Node28&#45;&gt;Node13</title>
<g id="a_edge56_Node000028_Node000013"><a xlink:title=" ">
<path fill="none" stroke="#63b8ff" d="M505,-275.99C516.81,-267.65 534.15,-254.37 546.77,-240.25 609.2,-170.39 662.97,-71.29 684.15,-29.93"/>
<polygon fill="#63b8ff" stroke="#63b8ff" points="687.27,-31.51 688.66,-21.01 681.02,-28.35 687.27,-31.51"/>
</a>
</g>
</g>
<!-- Node28&#45;&gt;Node17 -->
<g id="edge54_Node000028_Node000017" class="edge">
<title>Node28&#45;&gt;Node17</title>
<g id="a_edge54_Node000028_Node000017"><a xlink:title=" ">
<path fill="none" stroke="#63b8ff" d="M527.42,-275.96C563.1,-267.04 618.19,-253.27 657.5,-243.44"/>
<polygon fill="#63b8ff" stroke="#63b8ff" points="658.33,-246.84 667.18,-241.02 656.63,-240.05 658.33,-246.84"/>
</a>
</g>
</g>
</g>
</svg>

<g id="navigator" transform="translate(0 0)" fill="#404254">
  <rect fill="#f2f5e9" fill-opacity="0.5" stroke="#606060" stroke-width=".5" x="0" y="0" width="60" height="60"/>
  <use id="zoomplus" xlink:href="#zoomPlus" x="17" y="9" onmousedown="handleZoom(evt,'in')"/>
  <use id="zoomminus" xlink:href="#zoomMin" x="42" y="9" onmousedown="handleZoom(evt,'out')"/>
  <use id="reset" xlink:href="#resetDef" x="30" y="36" onmousedown="handleReset()"/>
   <use id="arrowup" xlink:href="#arrowUp" x="0" y="0" onmousedown="handlePan(0,-1)"/>
  <use id="arrowright" xlink:href="#arrowRight" x="0" y="0" onmousedown="handlePan(1,0)"/>
  <use id="arrowdown" xlink:href="#arrowDown" x="0" y="0" onmousedown="handlePan(0,1)"/>
  <use id="arrowleft" xlink:href="#arrowLeft" x="0" y="0" onmousedown="handlePan(-1,0)"/>
</g>
<svg viewBox="0 0 15 15" width="100%" height="30px" preserveAspectRatio="xMaxYMin meet">
 <g id="arrow_out" transform="scale(0.3 0.3)">
  <a xlink:href="_saved_config_8hpp__incl_org.svg" target="_base">
   <rect id="button" ry="5" rx="5" y="6" x="6" height="38" width="38"
        fill="#f2f5e9" fill-opacity="0.5" stroke="#606060" stroke-width="1.0"/>
   <path id="arrow"
     d="M 11.500037,31.436501 C 11.940474,20.09759 22.043105,11.32322 32.158766,21.979434 L 37.068811,17.246167 C 37.068811,17.246167 37.088388,32 37.088388,32 L 22.160133,31.978069 C 22.160133,31.978069 26.997745,27.140456 26.997745,27.140456 C 18.528582,18.264221 13.291696,25.230495 11.500037,31.436501 z"
     style="fill:#404040;"/>
  </a>
 </g>
</svg>

<style type='text/css'>
<![CDATA[
[data-mouse-over-selected='false'] { opacity: 0.7; }
[data-mouse-over-selected='true']  { opacity: 1.0; }
]]>
</style>
<script type="application/ecmascript"><![CDATA[
document.addEventListener('DOMContentLoaded', (event) => {
  highlightEdges();
  highlightAdjacentNodes();
});
]]></script>
</svg>
