<?xml version="1.0" encoding="UTF-8" standalone="no"?>
<!DOCTYPE svg PUBLIC "-//W3C//DTD SVG 1.1//EN"
 "http://www.w3.org/Graphics/SVG/1.1/DTD/svg11.dtd">
<!-- Generated by graphviz version 9.0.0 (20230911.1827)
 -->
<!-- Title: SavedConfig.hpp Pages: 1 -->
<!--zoomable 248 -->

<svg id="main" version="1.1" xmlns="http://www.w3.org/2000/svg" xmlns:xlink="http://www.w3.org/1999/xlink" xml:space="preserve" onload="init(evt)">
<style type="text/css"><![CDATA[
.node, .edge {opacity: 0.7;}
.node.selected, .edge.selected {opacity: 1;}
.edge:hover path { stroke: red; }
.edge:hover polygon { stroke: red; fill: red; }
]]></style>

<defs>
  <circle id="rim" cx="0" cy="0" r="7"/>
  <circle id="rim2" cx="0" cy="0" r="3.5"/>
  <g id="zoomPlus">
    <use xlink:href="#rim" fill="#404040"><set attributeName="fill" to="#808080" begin="zoomplus.mouseover" end="zoomplus.mouseout"/></use>
    <path d="M-4,0h8M0,-4v8" fill="none" stroke="white" stroke-width="1.5" pointer-events="none"/>
  </g>
  <g id="zoomMin">
    <use xlink:href="#rim" fill="#404040"><set attributeName="fill" to="#808080" begin="zoomminus.mouseover" end="zoomminus.mouseout"/></use>
    <path d="M-4,0h8" fill="none" stroke="white" stroke-width="1.5" pointer-events="none"/>
  </g>
  <g id="arrowUp" transform="translate(30 24)">
    <use xlink:href="#rim"/>
    <path pointer-events="none" fill="none" stroke="white" stroke-width="1.5" d="M0,-3.0v7 M-2.5,-0.5L0,-3.0L2.5,-0.5"/>
  </g>
  <g id="arrowRight" transform="rotate(90) translate(36 -43)">
    <use xlink:href="#rim"/>
    <path pointer-events="none" fill="none" stroke="white" stroke-width="1.5" d="M0,-3.0v7 M-2.5,-0.5L0,-3.0L2.5,-0.5"/>
  </g>
  <g id="arrowDown" transform="rotate(180) translate(-30 -48)">
    <use xlink:href="#rim"/>
    <path pointer-events="none" fill="none" stroke="white" stroke-width="1.5" d="M0,-3.0v7 M-2.5,-0.5L0,-3.0L2.5,-0.5"/>
  </g>
  <g id="arrowLeft" transform="rotate(270) translate(-36 17)">
    <use xlink:href="#rim"/>
    <path pointer-events="none" fill="none" stroke="white" stroke-width="1.5" d="M0,-3.0v7 M-2.5,-0.5L0,-3.0L2.5,-0.5"/>
  </g>
  <g id="resetDef">
    <use xlink:href="#rim2" fill="#404040"><set attributeName="fill" to="#808080" begin="reset.mouseover" end="reset.mouseout"/></use>
  </g>
</defs>
<script type="application/ecmascript">
var viewWidth = 914;
var viewHeight = 248;
var sectionId = 'dynsection-1';
</script>
<script type="application/ecmascript" xlink:href="svg.min.js"/>
<svg id="graph" class="graph">
<g id="viewport">
<title>SavedConfig.hpp</title>
<!-- Node1 -->
<g id="Node000001" class="node">
<title>Node1</title>
<g id="a_Node000001"><a xlink:title=" ">
<polygon fill="#999999" stroke="#666666" points="389.25,-240.25 300.5,-240.25 300.5,-221 389.25,-221 389.25,-240.25"/>
<text text-anchor="middle" x="344.87" y="-226.75" font-family="Helvetica,sans-Serif" font-size="10.00">SavedConfig.hpp</text>
</a>
</g>
</g>
<!-- Node2 -->
<g id="Node000002" class="node">
<title>Node2</title>
<g id="a_Node000002"><a xlink:href="_board_logic_8cpp.xhtml" target="_top" xlink:title=" ">
<polygon fill="white" stroke="#666666" points="196.62,-74.5 113.12,-74.5 113.12,-55.25 196.62,-55.25 196.62,-74.5"/>
<text text-anchor="middle" x="154.87" y="-61" font-family="Helvetica,sans-Serif" font-size="10.00">BoardLogic.cpp</text>
</a>
</g>
</g>
<!-- Node1&#45;&gt;Node2 -->
<g id="edge1_Node000001_Node000002" class="edge">
<title>Node1&#45;&gt;Node2</title>
<g id="a_edge1_Node000001_Node000002"><a xlink:title=" ">
<path fill="none" stroke="#63b8ff" d="M288.84,-220.64C204.57,-205.84 51.63,-173.55 19.87,-129.75 14.85,-122.82 14.86,-117.43 19.87,-110.5 31,-95.09 77.6,-82.07 112.96,-74.15"/>
<polygon fill="#63b8ff" stroke="#63b8ff" points="288.07,-224.06 298.52,-222.31 289.26,-217.16 288.07,-224.06"/>
</a>
</g>
</g>
<!-- Node3 -->
<g id="Node000003" class="node">
<title>Node3</title>
<g id="a_Node000003"><a xlink:href="_fab_backend_8cpp.xhtml" target="_top" xlink:title=" ">
<polygon fill="white" stroke="#666666" points="117.25,-129.75 28.5,-129.75 28.5,-110.5 117.25,-110.5 117.25,-129.75"/>
<text text-anchor="middle" x="72.87" y="-116.25" font-family="Helvetica,sans-Serif" font-size="10.00">FabBackend.cpp</text>
</a>
</g>
</g>
<!-- Node1&#45;&gt;Node3 -->
<g id="edge2_Node000001_Node000003" class="edge">
<title>Node1&#45;&gt;Node3</title>
<g id="a_edge2_Node000001_Node000003"><a xlink:title=" ">
<path fill="none" stroke="#63b8ff" d="M311.73,-216.41C255.74,-194.07 143.83,-149.43 95.72,-130.24"/>
<polygon fill="#63b8ff" stroke="#63b8ff" points="310.16,-219.55 320.74,-220 312.75,-213.04 310.16,-219.55"/>
</a>
</g>
</g>
<!-- Node4 -->
<g id="Node000004" class="node">
<title>Node4</title>
<g id="a_Node000004"><a xlink:href="_fab_backend_8hpp.xhtml" target="_top" xlink:title=" ">
<polygon fill="white" stroke="#666666" points="389.25,-185 300.5,-185 300.5,-165.75 389.25,-165.75 389.25,-185"/>
<text text-anchor="middle" x="344.87" y="-171.5" font-family="Helvetica,sans-Serif" font-size="10.00">FabBackend.hpp</text>
</a>
</g>
</g>
<!-- Node1&#45;&gt;Node4 -->
<g id="edge3_Node000001_Node000004" class="edge">
<title>Node1&#45;&gt;Node4</title>
<g id="a_edge3_Node000001_Node000004"><a xlink:title=" ">
<path fill="none" stroke="#63b8ff" d="M344.87,-209.38C344.87,-201.09 344.87,-191.92 344.87,-185.36"/>
<polygon fill="#63b8ff" stroke="#63b8ff" points="341.37,-209.32 344.87,-219.32 348.37,-209.32 341.37,-209.32"/>
</a>
</g>
</g>
<!-- Node8 -->
<g id="Node000008" class="node">
<title>Node8</title>
<g id="a_Node000008"><a xlink:href="globals_8hpp.xhtml" target="_top" xlink:title=" ">
<polygon fill="white" stroke="#666666" points="95.25,-74.5 30.5,-74.5 30.5,-55.25 95.25,-55.25 95.25,-74.5"/>
<text text-anchor="middle" x="62.87" y="-61" font-family="Helvetica,sans-Serif" font-size="10.00">globals.hpp</text>
</a>
</g>
</g>
<!-- Node1&#45;&gt;Node8 -->
<g id="edge27_Node000001_Node000008" class="edge">
<title>Node1&#45;&gt;Node8</title>
<g id="a_edge27_Node000001_Node000008"><a xlink:title=" ">
<path fill="none" stroke="#63b8ff" d="M289.06,-229.87C231.77,-228.03 141.41,-219.22 71.87,-185 39.64,-169.14 27.16,-162.71 12.87,-129.75 3.24,-107.53 29.12,-86.33 47.14,-74.82"/>
<polygon fill="#63b8ff" stroke="#63b8ff" points="288.81,-233.36 298.9,-230.12 288.99,-226.36 288.81,-233.36"/>
</a>
</g>
</g>
<!-- Node9 -->
<g id="Node000009" class="node">
<title>Node9</title>
<g id="a_Node000009"><a xlink:href="main_8cpp.xhtml" target="_top" xlink:title=" ">
<polygon fill="white" stroke="#666666" points="90.37,-19.25 35.37,-19.25 35.37,0 90.37,0 90.37,-19.25"/>
<text text-anchor="middle" x="62.87" y="-5.75" font-family="Helvetica,sans-Serif" font-size="10.00">main.cpp</text>
</a>
</g>
</g>
<!-- Node1&#45;&gt;Node9 -->
<g id="edge28_Node000001_Node000009" class="edge">
<title>Node1&#45;&gt;Node9</title>
<g id="a_edge28_Node000001_Node000009"><a xlink:title=" ">
<path fill="none" stroke="#63b8ff" d="M289.21,-227.68C211.23,-223.96 74.56,-213.47 34.87,-185 -12.22,-151.22 -6.12,-106 21.87,-55.25 29.7,-41.06 42.94,-27.8 52.26,-19.48"/>
<polygon fill="#63b8ff" stroke="#63b8ff" points="288.61,-231.16 298.75,-228.12 288.92,-224.17 288.61,-231.16"/>
</a>
</g>
</g>
<!-- Node12 -->
<g id="Node000012" class="node">
<title>Node12</title>
<g id="a_Node000012"><a xlink:href="test__logic_8cpp.xhtml" target="_top" xlink:title=" ">
<polygon fill="white" stroke="#666666" points="450.87,-19.25 374.87,-19.25 374.87,0 450.87,0 450.87,-19.25"/>
<text text-anchor="middle" x="412.87" y="-5.75" font-family="Helvetica,sans-Serif" font-size="10.00">test_logic.cpp</text>
</a>
</g>
</g>
<!-- Node1&#45;&gt;Node12 -->
<g id="edge29_Node000001_Node000012" class="edge">
<title>Node1&#45;&gt;Node12</title>
<g id="a_edge29_Node000001_Node000012"><a xlink:title=" ">
<path fill="none" stroke="#63b8ff" d="M400.97,-224.28C483.3,-212.99 633.68,-178.47 694.87,-74.5 699.21,-67.13 700.43,-61.76 694.87,-55.25 663.97,-19.07 520.79,-12.06 451.14,-10.81"/>
<polygon fill="#63b8ff" stroke="#63b8ff" points="400.55,-220.8 391.08,-225.55 401.45,-227.74 400.55,-220.8"/>
</a>
</g>
</g>
<!-- Node13 -->
<g id="Node000013" class="node">
<title>Node13</title>
<g id="a_Node000013"><a xlink:href="test__mqtt_8cpp.xhtml" target="_top" xlink:title=" ">
<polygon fill="white" stroke="#666666" points="669.5,-19.25 594.25,-19.25 594.25,0 669.5,0 669.5,-19.25"/>
<text text-anchor="middle" x="631.87" y="-5.75" font-family="Helvetica,sans-Serif" font-size="10.00">test_mqtt.cpp</text>
</a>
</g>
</g>
<!-- Node1&#45;&gt;Node13 -->
<g id="edge30_Node000001_Node000013" class="edge">
<title>Node1&#45;&gt;Node13</title>
<g id="a_edge30_Node000001_Node000013"><a xlink:title=" ">
<path fill="none" stroke="#63b8ff" d="M400.74,-227.67C472.81,-222.16 597.71,-202 671.87,-129.75 698.5,-103.81 728.52,-87.4 709.87,-55.25 699.7,-37.71 679.74,-26.47 662.56,-19.66"/>
<polygon fill="#63b8ff" stroke="#63b8ff" points="400.89,-224.15 391.15,-228.33 401.37,-231.14 400.89,-224.15"/>
</a>
</g>
</g>
<!-- Node14 -->
<g id="Node000014" class="node">
<title>Node14</title>
<g id="a_Node000014"><a xlink:href="test__savedconfig_8cpp.xhtml" target="_top" xlink:title=" ">
<polygon fill="white" stroke="#666666" points="685.62,-74.5 578.12,-74.5 578.12,-55.25 685.62,-55.25 685.62,-74.5"/>
<text text-anchor="middle" x="631.87" y="-61" font-family="Helvetica,sans-Serif" font-size="10.00">test_savedconfig.cpp</text>
</a>
</g>
</g>
<!-- Node1&#45;&gt;Node14 -->
<g id="edge31_Node000001_Node000014" class="edge">
<title>Node1&#45;&gt;Node14</title>
<g id="a_edge31_Node000001_Node000014"><a xlink:title=" ">
<path fill="none" stroke="#63b8ff" d="M382.97,-216.78C428.49,-200.46 505.9,-169.56 564.87,-129.75 589.11,-113.38 612.75,-88 624.39,-74.7"/>
<polygon fill="#63b8ff" stroke="#63b8ff" points="381.8,-213.48 373.54,-220.11 384.13,-220.08 381.8,-213.48"/>
</a>
</g>
</g>
<!-- Node16 -->
<g id="Node000016" class="node">
<title>Node16</title>
<g id="a_Node000016"><a xlink:href="_saved_config_8cpp.xhtml" target="_top" xlink:title=" ">
<polygon fill="white" stroke="#666666" points="906.25,-185 817.5,-185 817.5,-165.75 906.25,-165.75 906.25,-185"/>
<text text-anchor="middle" x="861.87" y="-171.5" font-family="Helvetica,sans-Serif" font-size="10.00">SavedConfig.cpp</text>
</a>
</g>
</g>
<!-- Node1&#45;&gt;Node16 -->
<g id="edge26_Node000001_Node000016" class="edge">
<title>Node1&#45;&gt;Node16</title>
<g id="a_edge26_Node000001_Node000016"><a xlink:title=" ">
<path fill="none" stroke="#63b8ff" d="M400.98,-225.09C487.58,-217.89 658.95,-202.81 803.87,-185 808.22,-184.47 812.74,-183.87 817.25,-183.24"/>
<polygon fill="#63b8ff" stroke="#63b8ff" points="400.77,-221.6 391.09,-225.91 401.35,-228.57 400.77,-221.6"/>
</a>
</g>
</g>
<!-- Node4&#45;&gt;Node2 -->
<g id="edge5_Node000004_Node000002" class="edge">
<title>Node4&#45;&gt;Node2</title>
<g id="a_edge5_Node000004_Node000002"><a xlink:title=" ">
<path fill="none" stroke="#63b8ff" d="M288.78,-165.45C260.76,-158.96 227.46,-148 201.87,-129.75 181.25,-115.04 165.99,-88.48 159.04,-74.7"/>
<polygon fill="#63b8ff" stroke="#63b8ff" points="288.04,-168.87 298.55,-167.57 289.52,-162.03 288.04,-168.87"/>
</a>
</g>
</g>
<!-- Node4&#45;&gt;Node3 -->
<g id="edge20_Node000004_Node000003" class="edge">
<title>Node4&#45;&gt;Node3</title>
<g id="a_edge20_Node000004_Node000003"><a xlink:title=" ">
<path fill="none" stroke="#63b8ff" d="M289.17,-163.47C238.43,-153.54 164.46,-139.05 117.51,-129.86"/>
<polygon fill="#63b8ff" stroke="#63b8ff" points="288.29,-166.86 298.78,-165.35 289.63,-159.99 288.29,-166.86"/>
</a>
</g>
</g>
<!-- Node5 -->
<g id="Node000005" class="node">
<title>Node5</title>
<g id="a_Node000005"><a xlink:href="_auth_provider_8cpp.xhtml" target="_top" xlink:title=" ">
<polygon fill="white" stroke="#666666" points="390,-129.75 299.75,-129.75 299.75,-110.5 390,-110.5 390,-129.75"/>
<text text-anchor="middle" x="344.87" y="-116.25" font-family="Helvetica,sans-Serif" font-size="10.00">AuthProvider.cpp</text>
</a>
</g>
</g>
<!-- Node4&#45;&gt;Node5 -->
<g id="edge4_Node000004_Node000005" class="edge">
<title>Node4&#45;&gt;Node5</title>
<g id="a_edge4_Node000004_Node000005"><a xlink:title=" ">
<path fill="none" stroke="#63b8ff" d="M344.87,-154.13C344.87,-145.84 344.87,-136.67 344.87,-130.11"/>
<polygon fill="#63b8ff" stroke="#63b8ff" points="341.37,-154.07 344.87,-164.07 348.37,-154.07 341.37,-154.07"/>
</a>
</g>
</g>
<!-- Node6 -->
<g id="Node000006" class="node">
<title>Node6</title>
<g id="a_Node000006"><a xlink:href="_board_logic_8hpp.xhtml" target="_top" xlink:title=" ">
<polygon fill="white" stroke="#666666" points="491.62,-129.75 408.12,-129.75 408.12,-110.5 491.62,-110.5 491.62,-129.75"/>
<text text-anchor="middle" x="449.87" y="-116.25" font-family="Helvetica,sans-Serif" font-size="10.00">BoardLogic.hpp</text>
</a>
</g>
</g>
<!-- Node4&#45;&gt;Node6 -->
<g id="edge6_Node000004_Node000006" class="edge">
<title>Node4&#45;&gt;Node6</title>
<g id="a_edge6_Node000004_Node000006"><a xlink:title=" ">
<path fill="none" stroke="#63b8ff" d="M372.74,-160.24C391.52,-150.72 415.73,-138.44 431.97,-130.2"/>
<polygon fill="#63b8ff" stroke="#63b8ff" points="371.37,-157.01 364.03,-164.66 374.54,-163.26 371.37,-157.01"/>
</a>
</g>
</g>
<!-- Node4&#45;&gt;Node8 -->
<g id="edge22_Node000004_Node000008" class="edge">
<title>Node4&#45;&gt;Node8</title>
<g id="a_edge22_Node000004_Node000008"><a xlink:title=" ">
<path fill="none" stroke="#63b8ff" d="M289.08,-162.75C256.6,-155.13 215.22,-143.95 179.87,-129.75 140.79,-114.05 98.14,-88.39 76.75,-74.87"/>
<polygon fill="#63b8ff" stroke="#63b8ff" points="288.17,-166.13 298.7,-164.95 289.74,-159.3 288.17,-166.13"/>
</a>
</g>
</g>
<!-- Node4&#45;&gt;Node12 -->
<g id="edge23_Node000004_Node000012" class="edge">
<title>Node4&#45;&gt;Node12</title>
<g id="a_edge23_Node000004_Node000012"><a xlink:title=" ">
<path fill="none" stroke="#63b8ff" d="M400.84,-165.61C440.45,-158.14 488.61,-146.01 500.87,-129.75 510.99,-116.33 510.32,-80.6 492.87,-55.25 480.97,-37.96 460.07,-26.63 442.62,-19.72"/>
<polygon fill="#63b8ff" stroke="#63b8ff" points="400.37,-162.14 391.16,-167.37 401.63,-169.03 400.37,-162.14"/>
</a>
</g>
</g>
<!-- Node4&#45;&gt;Node13 -->
<g id="edge24_Node000004_Node000013" class="edge">
<title>Node4&#45;&gt;Node13</title>
<g id="a_edge24_Node000004_Node000013"><a xlink:title=" ">
<path fill="none" stroke="#63b8ff" d="M400.96,-167.17C491.33,-154.21 662.35,-123.66 694.87,-74.5 709.57,-52.29 676.52,-31.25 652.96,-19.73"/>
<polygon fill="#63b8ff" stroke="#63b8ff" points="400.48,-163.7 391.06,-168.56 401.45,-170.64 400.48,-163.7"/>
</a>
</g>
</g>
<!-- Node4&#45;&gt;Node14 -->
<g id="edge25_Node000004_Node000014" class="edge">
<title>Node4&#45;&gt;Node14</title>
<g id="a_edge25_Node000004_Node000014"><a xlink:title=" ">
<path fill="none" stroke="#63b8ff" d="M400.39,-166.47C438.93,-159.74 490.86,-148.18 533.87,-129.75 568.03,-115.11 603.43,-88.76 620.84,-74.92"/>
<polygon fill="#63b8ff" stroke="#63b8ff" points="400.17,-162.96 390.89,-168.07 401.33,-169.86 400.17,-162.96"/>
</a>
</g>
</g>
<!-- Node15 -->
<g id="Node000015" class="node">
<title>Node15</title>
<g id="a_Node000015"><a xlink:href="_machine_8cpp.xhtml" target="_top" xlink:title=" ">
<polygon fill="white" stroke="#666666" points="281.25,-129.75 210.5,-129.75 210.5,-110.5 281.25,-110.5 281.25,-129.75"/>
<text text-anchor="middle" x="245.87" y="-116.25" font-family="Helvetica,sans-Serif" font-size="10.00">Machine.cpp</text>
</a>
</g>
</g>
<!-- Node4&#45;&gt;Node15 -->
<g id="edge21_Node000004_Node000015" class="edge">
<title>Node4&#45;&gt;Node15</title>
<g id="a_edge21_Node000004_Node000015"><a xlink:title=" ">
<path fill="none" stroke="#63b8ff" d="M318.35,-160.11C300.68,-150.61 277.99,-138.4 262.75,-130.2"/>
<polygon fill="#63b8ff" stroke="#63b8ff" points="316.28,-162.97 326.74,-164.62 319.6,-156.81 316.28,-162.97"/>
</a>
</g>
</g>
<!-- Node6&#45;&gt;Node2 -->
<g id="edge7_Node000006_Node000002" class="edge">
<title>Node6&#45;&gt;Node2</title>
<g id="a_edge7_Node000006_Node000002"><a xlink:title=" ">
<path fill="none" stroke="#63b8ff" d="M396.91,-109.56C339.56,-99.21 249.25,-82.91 196.68,-73.42"/>
<polygon fill="#63b8ff" stroke="#63b8ff" points="395.97,-112.95 406.43,-111.28 397.21,-106.06 395.97,-112.95"/>
</a>
</g>
</g>
<!-- Node7 -->
<g id="Node000007" class="node">
<title>Node7</title>
<g id="a_Node000007"><a xlink:href="_o_t_a_8cpp.xhtml" target="_top" xlink:title=" ">
<polygon fill="white" stroke="#666666" points="484,-74.5 429.75,-74.5 429.75,-55.25 484,-55.25 484,-74.5"/>
<text text-anchor="middle" x="456.87" y="-61" font-family="Helvetica,sans-Serif" font-size="10.00">OTA.cpp</text>
</a>
</g>
</g>
<!-- Node6&#45;&gt;Node7 -->
<g id="edge8_Node000006_Node000007" class="edge">
<title>Node6&#45;&gt;Node7</title>
<g id="a_edge8_Node000006_Node000007"><a xlink:title=" ">
<path fill="none" stroke="#63b8ff" d="M452.5,-99.17C453.59,-90.8 454.82,-81.5 455.69,-74.86"/>
<polygon fill="#63b8ff" stroke="#63b8ff" points="449.06,-98.46 451.22,-108.83 456,-99.37 449.06,-98.46"/>
</a>
</g>
</g>
<!-- Node6&#45;&gt;Node8 -->
<g id="edge9_Node000006_Node000008" class="edge">
<title>Node6&#45;&gt;Node8</title>
<g id="a_edge9_Node000006_Node000008"><a xlink:title=" ">
<path fill="none" stroke="#63b8ff" d="M396.64,-110.25C266.23,-91.72 230.61,-95.52 103.87,-74.5 101.14,-74.05 98.32,-73.54 95.5,-73"/>
<polygon fill="#63b8ff" stroke="#63b8ff" points="395.98,-113.69 406.37,-111.65 396.97,-106.76 395.98,-113.69"/>
</a>
</g>
</g>
<!-- Node6&#45;&gt;Node9 -->
<g id="edge11_Node000006_Node000009" class="edge">
<title>Node6&#45;&gt;Node9</title>
<g id="a_edge11_Node000006_Node000009"><a xlink:title=" ">
<path fill="none" stroke="#63b8ff" d="M405.69,-107.06C373.11,-98.13 327.71,-85.64 287.87,-74.5 216.7,-54.6 133,-30.71 90.56,-18.56"/>
<polygon fill="#63b8ff" stroke="#63b8ff" points="404.62,-110.39 415.19,-109.66 406.47,-103.64 404.62,-110.39"/>
</a>
</g>
</g>
<!-- Node10 -->
<g id="Node000010" class="node">
<title>Node10</title>
<g id="a_Node000010"><a xlink:href="test__common_8cpp.xhtml" target="_top" xlink:title=" ">
<polygon fill="white" stroke="#666666" points="311.5,-19.25 218.25,-19.25 218.25,0 311.5,0 311.5,-19.25"/>
<text text-anchor="middle" x="264.87" y="-5.75" font-family="Helvetica,sans-Serif" font-size="10.00">test_common.cpp</text>
</a>
</g>
</g>
<!-- Node6&#45;&gt;Node10 -->
<g id="edge12_Node000006_Node000010" class="edge">
<title>Node6&#45;&gt;Node10</title>
<g id="a_edge12_Node000006_Node000010"><a xlink:title=" ">
<path fill="none" stroke="#63b8ff" d="M402.08,-107.21C367.99,-98.08 325.67,-85.26 310.87,-74.5 290.53,-59.71 275.67,-33.18 268.91,-19.43"/>
<polygon fill="#63b8ff" stroke="#63b8ff" points="400.78,-110.49 411.35,-109.65 402.57,-103.72 400.78,-110.49"/>
</a>
</g>
</g>
<!-- Node11 -->
<g id="Node000011" class="node">
<title>Node11</title>
<g id="a_Node000011"><a xlink:href="test__common_8h.xhtml" target="_top" xlink:title=" ">
<polygon fill="white" stroke="#666666" points="411.25,-74.5 328.5,-74.5 328.5,-55.25 411.25,-55.25 411.25,-74.5"/>
<text text-anchor="middle" x="369.87" y="-61" font-family="Helvetica,sans-Serif" font-size="10.00">test_common.h</text>
</a>
</g>
</g>
<!-- Node6&#45;&gt;Node11 -->
<g id="edge13_Node000006_Node000011" class="edge">
<title>Node6&#45;&gt;Node11</title>
<g id="a_edge13_Node000006_Node000011"><a xlink:title=" ">
<path fill="none" stroke="#63b8ff" d="M426.82,-103.78C412.8,-94.45 395.37,-82.85 383.51,-74.95"/>
<polygon fill="#63b8ff" stroke="#63b8ff" points="424.78,-106.63 435.04,-109.25 428.66,-100.8 424.78,-106.63"/>
</a>
</g>
</g>
<!-- Node6&#45;&gt;Node12 -->
<g id="edge17_Node000006_Node000012" class="edge">
<title>Node6&#45;&gt;Node12</title>
<g id="a_edge17_Node000006_Node000012"><a xlink:title=" ">
<path fill="none" stroke="#63b8ff" d="M396.84,-107.52C365.15,-99.39 329.27,-87.66 319.87,-74.5 301.43,-48.68 343.57,-29.96 377.01,-19.69"/>
<polygon fill="#63b8ff" stroke="#63b8ff" points="395.8,-110.87 406.35,-109.88 397.49,-104.08 395.8,-110.87"/>
</a>
</g>
</g>
<!-- Node6&#45;&gt;Node13 -->
<g id="edge18_Node000006_Node000013" class="edge">
<title>Node6&#45;&gt;Node13</title>
<g id="a_edge18_Node000006_Node000013"><a xlink:title=" ">
<path fill="none" stroke="#63b8ff" d="M474.92,-104.19C513.23,-81.36 585.2,-38.45 616.58,-19.74"/>
<polygon fill="#63b8ff" stroke="#63b8ff" points="473.17,-101.16 466.38,-109.29 476.76,-107.17 473.17,-101.16"/>
</a>
</g>
</g>
<!-- Node6&#45;&gt;Node14 -->
<g id="edge19_Node000006_Node000014" class="edge">
<title>Node6&#45;&gt;Node14</title>
<g id="a_edge19_Node000006_Node000014"><a xlink:title=" ">
<path fill="none" stroke="#63b8ff" d="M491.51,-106.94C524.8,-97.2 570.72,-83.77 600.85,-74.95"/>
<polygon fill="#63b8ff" stroke="#63b8ff" points="490.81,-103.5 482.2,-109.67 492.78,-110.22 490.81,-103.5"/>
</a>
</g>
</g>
<!-- Node8&#45;&gt;Node9 -->
<g id="edge10_Node000008_Node000009" class="edge">
<title>Node8&#45;&gt;Node9</title>
<g id="a_edge10_Node000008_Node000009"><a xlink:title=" ">
<path fill="none" stroke="#63b8ff" d="M62.87,-43.63C62.87,-35.34 62.87,-26.17 62.87,-19.61"/>
<polygon fill="#63b8ff" stroke="#63b8ff" points="59.37,-43.57 62.87,-53.57 66.37,-43.57 59.37,-43.57"/>
</a>
</g>
</g>
<!-- Node11&#45;&gt;Node10 -->
<g id="edge14_Node000011_Node000010" class="edge">
<title>Node11&#45;&gt;Node10</title>
<g id="a_edge14_Node000011_Node000010"><a xlink:title=" ">
<path fill="none" stroke="#63b8ff" d="M342,-49.74C323.23,-40.22 299.02,-27.94 282.77,-19.7"/>
<polygon fill="#63b8ff" stroke="#63b8ff" points="340.21,-52.76 350.71,-54.16 343.37,-46.51 340.21,-52.76"/>
</a>
</g>
</g>
<!-- Node11&#45;&gt;Node12 -->
<g id="edge15_Node000011_Node000012" class="edge">
<title>Node11&#45;&gt;Node12</title>
<g id="a_edge15_Node000011_Node000012"><a xlink:title=" ">
<path fill="none" stroke="#63b8ff" d="M384.12,-46.22C391.33,-37.31 399.76,-26.87 405.62,-19.61"/>
<polygon fill="#63b8ff" stroke="#63b8ff" points="381.48,-43.93 377.92,-53.9 386.93,-48.32 381.48,-43.93"/>
</a>
</g>
</g>
<!-- Node11&#45;&gt;Node13 -->
<g id="edge16_Node000011_Node000013" class="edge">
<title>Node11&#45;&gt;Node13</title>
<g id="a_edge16_Node000011_Node000013"><a xlink:title=" ">
<path fill="none" stroke="#63b8ff" d="M422.75,-53.13C473.54,-42.8 549.01,-27.47 594.04,-18.31"/>
<polygon fill="#63b8ff" stroke="#63b8ff" points="422.26,-49.66 413.16,-55.08 423.66,-56.52 422.26,-49.66"/>
</a>
</g>
</g>
</g>
</svg>

<g id="navigator" transform="translate(0 0)" fill="#404254">
  <rect fill="#f2f5e9" fill-opacity="0.5" stroke="#606060" stroke-width=".5" x="0" y="0" width="60" height="60"/>
  <use id="zoomplus" xlink:href="#zoomPlus" x="17" y="9" onmousedown="handleZoom(evt,'in')"/>
  <use id="zoomminus" xlink:href="#zoomMin" x="42" y="9" onmousedown="handleZoom(evt,'out')"/>
  <use id="reset" xlink:href="#resetDef" x="30" y="36" onmousedown="handleReset()"/>
   <use id="arrowup" xlink:href="#arrowUp" x="0" y="0" onmousedown="handlePan(0,-1)"/>
  <use id="arrowright" xlink:href="#arrowRight" x="0" y="0" onmousedown="handlePan(1,0)"/>
  <use id="arrowdown" xlink:href="#arrowDown" x="0" y="0" onmousedown="handlePan(0,1)"/>
  <use id="arrowleft" xlink:href="#arrowLeft" x="0" y="0" onmousedown="handlePan(-1,0)"/>
</g>
<svg viewBox="0 0 15 15" width="100%" height="30px" preserveAspectRatio="xMaxYMin meet">
 <g id="arrow_out" transform="scale(0.3 0.3)">
  <a xlink:href="_saved_config_8hpp__dep__incl_org.svg" target="_base">
   <rect id="button" ry="5" rx="5" y="6" x="6" height="38" width="38"
        fill="#f2f5e9" fill-opacity="0.5" stroke="#606060" stroke-width="1.0"/>
   <path id="arrow"
     d="M 11.500037,31.436501 C 11.940474,20.09759 22.043105,11.32322 32.158766,21.979434 L 37.068811,17.246167 C 37.068811,17.246167 37.088388,32 37.088388,32 L 22.160133,31.978069 C 22.160133,31.978069 26.997745,27.140456 26.997745,27.140456 C 18.528582,18.264221 13.291696,25.230495 11.500037,31.436501 z"
     style="fill:#404040;"/>
  </a>
 </g>
</svg>

<style type='text/css'>
<![CDATA[
[data-mouse-over-selected='false'] { opacity: 0.7; }
[data-mouse-over-selected='true']  { opacity: 1.0; }
]]>
</style>
<script type="application/ecmascript"><![CDATA[
document.addEventListener('DOMContentLoaded', (event) => {
  highlightEdges();
  highlightAdjacentNodes();
});
]]></script>
</svg>
