<?xml version="1.0" encoding="UTF-8" standalone="no"?>
<!DOCTYPE svg PUBLIC "-//W3C//DTD SVG 1.1//EN"
 "http://www.w3.org/Graphics/SVG/1.1/DTD/svg11.dtd">
<!-- Generated by graphviz version 9.0.0 (20230911.1827)
 -->
<!-- Title: Tasks.hpp Pages: 1 -->
<svg width="1085pt" height="138pt"
 viewBox="0.00 0.00 1084.62 137.75" xmlns="http://www.w3.org/2000/svg" xmlns:xlink="http://www.w3.org/1999/xlink">
<g id="graph0" class="graph" transform="scale(1 1) rotate(0) translate(4 133.75)">
<title>Tasks.hpp</title>
<!-- Node1 -->
<g id="Node000001" class="node">
<title>Node1</title>
<g id="a_Node000001"><a xlink:title=" ">
<polygon fill="#999999" stroke="#666666" points="590.25,-129.75 529.25,-129.75 529.25,-110.5 590.25,-110.5 590.25,-129.75"/>
<text text-anchor="middle" x="559.75" y="-116.25" font-family="Helvetica,sans-Serif" font-size="10.00">Tasks.hpp</text>
</a>
</g>
</g>
<!-- Node2 -->
<g id="Node000002" class="node">
<title>Node2</title>
<g id="a_Node000002"><a xlink:href="_board_logic_8cpp.xhtml" target="_top" xlink:title=" ">
<polygon fill="white" stroke="#666666" points="83.5,-74.5 0,-74.5 0,-55.25 83.5,-55.25 83.5,-74.5"/>
<text text-anchor="middle" x="41.75" y="-61" font-family="Helvetica,sans-Serif" font-size="10.00">BoardLogic.cpp</text>
</a>
</g>
</g>
<!-- Node1&#45;&gt;Node2 -->
<g id="edge1_Node000001_Node000002" class="edge">
<title>Node1&#45;&gt;Node2</title>
<g id="a_edge1_Node000001_Node000002"><a xlink:title=" ">
<path fill="none" stroke="#63b8ff" d="M517.66,-116.19C435.53,-110.21 248.28,-95.43 91.75,-74.5 89.22,-74.16 86.62,-73.79 84,-73.39"/>
<polygon fill="#63b8ff" stroke="#63b8ff" points="517.26,-119.67 527.48,-116.89 517.76,-112.68 517.26,-119.67"/>
</a>
</g>
</g>
<!-- Node3 -->
<g id="Node000003" class="node">
<title>Node3</title>
<g id="a_Node000003"><a xlink:href="_buzzer_8cpp.xhtml" target="_top" xlink:title=" ">
<polygon fill="white" stroke="#666666" points="164.38,-74.5 101.12,-74.5 101.12,-55.25 164.38,-55.25 164.38,-74.5"/>
<text text-anchor="middle" x="132.75" y="-61" font-family="Helvetica,sans-Serif" font-size="10.00">Buzzer.cpp</text>
</a>
</g>
</g>
<!-- Node1&#45;&gt;Node3 -->
<g id="edge2_Node000001_Node000003" class="edge">
<title>Node1&#45;&gt;Node3</title>
<g id="a_edge2_Node000001_Node000003"><a xlink:title=" ">
<path fill="none" stroke="#63b8ff" d="M517.97,-115.57C446.97,-109.24 298.32,-94.76 173.75,-74.5 170.73,-74.01 167.61,-73.45 164.48,-72.85"/>
<polygon fill="#63b8ff" stroke="#63b8ff" points="517.32,-119.02 527.59,-116.42 517.93,-112.05 517.32,-119.02"/>
</a>
</g>
</g>
<!-- Node4 -->
<g id="Node000004" class="node">
<title>Node4</title>
<g id="a_Node000004"><a xlink:href="_fab_backend_8cpp.xhtml" target="_top" xlink:title=" ">
<polygon fill="white" stroke="#666666" points="271.12,-74.5 182.38,-74.5 182.38,-55.25 271.12,-55.25 271.12,-74.5"/>
<text text-anchor="middle" x="226.75" y="-61" font-family="Helvetica,sans-Serif" font-size="10.00">FabBackend.cpp</text>
</a>
</g>
</g>
<!-- Node1&#45;&gt;Node4 -->
<g id="edge3_Node000001_Node000004" class="edge">
<title>Node1&#45;&gt;Node4</title>
<g id="a_edge3_Node000001_Node000004"><a xlink:title=" ">
<path fill="none" stroke="#63b8ff" d="M517.93,-112.44C454.94,-102.36 336.22,-83.38 271.53,-73.04"/>
<polygon fill="#63b8ff" stroke="#63b8ff" points="517.1,-115.85 527.52,-113.97 518.2,-108.94 517.1,-115.85"/>
</a>
</g>
</g>
<!-- Node5 -->
<g id="Node000005" class="node">
<title>Node5</title>
<g id="a_Node000005"><a xlink:href="_machine_8cpp.xhtml" target="_top" xlink:title=" ">
<polygon fill="white" stroke="#666666" points="360.12,-74.5 289.38,-74.5 289.38,-55.25 360.12,-55.25 360.12,-74.5"/>
<text text-anchor="middle" x="324.75" y="-61" font-family="Helvetica,sans-Serif" font-size="10.00">Machine.cpp</text>
</a>
</g>
</g>
<!-- Node1&#45;&gt;Node5 -->
<g id="edge4_Node000001_Node000005" class="edge">
<title>Node1&#45;&gt;Node5</title>
<g id="a_edge4_Node000001_Node000005"><a xlink:title=" ">
<path fill="none" stroke="#63b8ff" d="M517.95,-109.65C473.15,-99.5 402.78,-83.56 360.48,-73.97"/>
<polygon fill="#63b8ff" stroke="#63b8ff" points="517.03,-113.03 527.55,-111.83 518.57,-106.21 517.03,-113.03"/>
</a>
</g>
</g>
<!-- Node6 -->
<g id="Node000006" class="node">
<title>Node6</title>
<g id="a_Node000006"><a xlink:href="_mock_mrfc522_8cpp.xhtml" target="_top" xlink:title=" ">
<polygon fill="white" stroke="#666666" points="471.38,-74.5 378.12,-74.5 378.12,-55.25 471.38,-55.25 471.38,-74.5"/>
<text text-anchor="middle" x="424.75" y="-61" font-family="Helvetica,sans-Serif" font-size="10.00">MockMrfc522.cpp</text>
</a>
</g>
</g>
<!-- Node1&#45;&gt;Node6 -->
<g id="edge5_Node000001_Node000006" class="edge">
<title>Node1&#45;&gt;Node6</title>
<g id="a_edge5_Node000001_Node000006"><a xlink:title=" ">
<path fill="none" stroke="#63b8ff" d="M526.26,-105.91C501.82,-96.27 469.33,-83.46 447.76,-74.95"/>
<polygon fill="#63b8ff" stroke="#63b8ff" points="524.85,-109.12 535.44,-109.54 527.42,-102.61 524.85,-109.12"/>
</a>
</g>
</g>
<!-- Node7 -->
<g id="Node000007" class="node">
<title>Node7</title>
<g id="a_Node000007"><a xlink:href="_tasks_8cpp.xhtml" target="_top" xlink:title=" ">
<polygon fill="white" stroke="#666666" points="550.25,-74.5 489.25,-74.5 489.25,-55.25 550.25,-55.25 550.25,-74.5"/>
<text text-anchor="middle" x="519.75" y="-61" font-family="Helvetica,sans-Serif" font-size="10.00">Tasks.cpp</text>
</a>
</g>
</g>
<!-- Node1&#45;&gt;Node7 -->
<g id="edge6_Node000001_Node000007" class="edge">
<title>Node1&#45;&gt;Node7</title>
<g id="a_edge6_Node000001_Node000007"><a xlink:title=" ">
<path fill="none" stroke="#63b8ff" d="M546.28,-101.19C539.63,-92.34 531.89,-82.04 526.5,-74.86"/>
<polygon fill="#63b8ff" stroke="#63b8ff" points="543.43,-103.23 552.24,-109.12 549.03,-99.02 543.43,-103.23"/>
</a>
</g>
</g>
<!-- Node8 -->
<g id="Node000008" class="node">
<title>Node8</title>
<g id="a_Node000008"><a xlink:href="globals_8hpp.xhtml" target="_top" xlink:title=" ">
<polygon fill="white" stroke="#666666" points="633.12,-74.5 568.38,-74.5 568.38,-55.25 633.12,-55.25 633.12,-74.5"/>
<text text-anchor="middle" x="600.75" y="-61" font-family="Helvetica,sans-Serif" font-size="10.00">globals.hpp</text>
</a>
</g>
</g>
<!-- Node1&#45;&gt;Node8 -->
<g id="edge7_Node000001_Node000008" class="edge">
<title>Node1&#45;&gt;Node8</title>
<g id="a_edge7_Node000001_Node000008"><a xlink:title=" ">
<path fill="none" stroke="#63b8ff" d="M573.34,-101.47C580.21,-92.56 588.24,-82.12 593.83,-74.86"/>
<polygon fill="#63b8ff" stroke="#63b8ff" points="570.77,-99.07 567.44,-109.13 576.32,-103.34 570.77,-99.07"/>
</a>
</g>
</g>
<!-- Node9 -->
<g id="Node000009" class="node">
<title>Node9</title>
<g id="a_Node000009"><a xlink:href="main_8cpp.xhtml" target="_top" xlink:title=" ">
<polygon fill="white" stroke="#666666" points="658.25,-19.25 603.25,-19.25 603.25,0 658.25,0 658.25,-19.25"/>
<text text-anchor="middle" x="630.75" y="-5.75" font-family="Helvetica,sans-Serif" font-size="10.00">main.cpp</text>
</a>
</g>
</g>
<!-- Node1&#45;&gt;Node9 -->
<g id="edge9_Node000001_Node000009" class="edge">
<title>Node1&#45;&gt;Node9</title>
<g id="a_edge9_Node000001_Node000009"><a xlink:title=" ">
<path fill="none" stroke="#63b8ff" d="M601.29,-106.73C616.8,-99.85 632.8,-89.56 641.75,-74.5 652.1,-57.09 642.46,-32.58 635.82,-19.57"/>
<polygon fill="#63b8ff" stroke="#63b8ff" points="600.11,-103.43 592.13,-110.39 602.71,-109.93 600.11,-103.43"/>
</a>
</g>
</g>
<!-- Node10 -->
<g id="Node000010" class="node">
<title>Node10</title>
<g id="a_Node000010"><a xlink:href="test__chrono_8cpp.xhtml" target="_top" xlink:title=" ">
<polygon fill="white" stroke="#666666" points="774.25,-74.5 689.25,-74.5 689.25,-55.25 774.25,-55.25 774.25,-74.5"/>
<text text-anchor="middle" x="731.75" y="-61" font-family="Helvetica,sans-Serif" font-size="10.00">test_chrono.cpp</text>
</a>
</g>
</g>
<!-- Node1&#45;&gt;Node10 -->
<g id="edge10_Node000001_Node000010" class="edge">
<title>Node1&#45;&gt;Node10</title>
<g id="a_edge10_Node000001_Node000010"><a xlink:title=" ">
<path fill="none" stroke="#63b8ff" d="M599.92,-106.69C631.31,-96.97 674.21,-83.69 702.43,-74.95"/>
<polygon fill="#63b8ff" stroke="#63b8ff" points="598.89,-103.34 590.37,-109.64 600.96,-110.03 598.89,-103.34"/>
</a>
</g>
</g>
<!-- Node11 -->
<g id="Node000011" class="node">
<title>Node11</title>
<g id="a_Node000011"><a xlink:href="test__common_8cpp.xhtml" target="_top" xlink:title=" ">
<polygon fill="white" stroke="#666666" points="885.38,-74.5 792.12,-74.5 792.12,-55.25 885.38,-55.25 885.38,-74.5"/>
<text text-anchor="middle" x="838.75" y="-61" font-family="Helvetica,sans-Serif" font-size="10.00">test_common.cpp</text>
</a>
</g>
</g>
<!-- Node1&#45;&gt;Node11 -->
<g id="edge11_Node000001_Node000011" class="edge">
<title>Node1&#45;&gt;Node11</title>
<g id="a_edge11_Node000001_Node000011"><a xlink:title=" ">
<path fill="none" stroke="#63b8ff" d="M601.93,-111.07C652.94,-101.34 738.55,-85 791.66,-74.86"/>
<polygon fill="#63b8ff" stroke="#63b8ff" points="601.33,-107.63 592.16,-112.94 602.64,-114.5 601.33,-107.63"/>
</a>
</g>
</g>
<!-- Node12 -->
<g id="Node000012" class="node">
<title>Node12</title>
<g id="a_Node000012"><a xlink:href="test__mqtt_8cpp.xhtml" target="_top" xlink:title=" ">
<polygon fill="white" stroke="#666666" points="978.38,-74.5 903.12,-74.5 903.12,-55.25 978.38,-55.25 978.38,-74.5"/>
<text text-anchor="middle" x="940.75" y="-61" font-family="Helvetica,sans-Serif" font-size="10.00">test_mqtt.cpp</text>
</a>
</g>
</g>
<!-- Node1&#45;&gt;Node12 -->
<g id="edge12_Node000001_Node000012" class="edge">
<title>Node1&#45;&gt;Node12</title>
<g id="a_edge12_Node000001_Node000012"><a xlink:title=" ">
<path fill="none" stroke="#63b8ff" d="M601.43,-114.29C664.9,-106.77 789.49,-91.37 894.75,-74.5 897.48,-74.06 900.29,-73.59 903.12,-73.1"/>
<polygon fill="#63b8ff" stroke="#63b8ff" points="601.34,-110.78 591.82,-115.43 602.16,-117.73 601.34,-110.78"/>
</a>
</g>
</g>
<!-- Node13 -->
<g id="Node000013" class="node">
<title>Node13</title>
<g id="a_Node000013"><a xlink:href="test__tasks_8cpp.xhtml" target="_top" xlink:title=" ">
<polygon fill="white" stroke="#666666" points="1076.62,-74.5 996.88,-74.5 996.88,-55.25 1076.62,-55.25 1076.62,-74.5"/>
<text text-anchor="middle" x="1036.75" y="-61" font-family="Helvetica,sans-Serif" font-size="10.00">test_tasks.cpp</text>
</a>
</g>
</g>
<!-- Node1&#45;&gt;Node13 -->
<g id="edge13_Node000001_Node000013" class="edge">
<title>Node1&#45;&gt;Node13</title>
<g id="a_edge13_Node000001_Node000013"><a xlink:title=" ">
<path fill="none" stroke="#63b8ff" d="M601.82,-115.73C678.67,-109.3 846.83,-94.22 987.75,-74.5 990.57,-74.1 993.48,-73.67 996.41,-73.21"/>
<polygon fill="#63b8ff" stroke="#63b8ff" points="601.91,-112.21 592.23,-116.52 602.49,-119.18 601.91,-112.21"/>
</a>
</g>
</g>
<!-- Node8&#45;&gt;Node9 -->
<g id="edge8_Node000008_Node000009" class="edge">
<title>Node8&#45;&gt;Node9</title>
<g id="a_edge8_Node000008_Node000009"><a xlink:title=" ">
<path fill="none" stroke="#63b8ff" d="M611.34,-45.08C616.22,-36.42 621.77,-26.56 625.69,-19.61"/>
<polygon fill="#63b8ff" stroke="#63b8ff" points="608.31,-43.33 606.45,-53.76 614.4,-46.77 608.31,-43.33"/>
</a>
</g>
</g>
</g>
</svg>
