<?xml version="1.0" encoding="UTF-8" standalone="no"?>
<!DOCTYPE svg PUBLIC "-//W3C//DTD SVG 1.1//EN"
 "http://www.w3.org/Graphics/SVG/1.1/DTD/svg11.dtd">
<!-- Generated by graphviz version 9.0.0 (20230911.1827)
 -->
<!-- Title: Tasks.cpp Pages: 1 -->
<svg width="477pt" height="193pt"
 viewBox="0.00 0.00 477.25 193.00" xmlns="http://www.w3.org/2000/svg" xmlns:xlink="http://www.w3.org/1999/xlink">

<svg id="main" version="1.1" xmlns="http://www.w3.org/2000/svg" xmlns:xlink="http://www.w3.org/1999/xlink" xml:space="preserve" onload="init(evt)">
<style type="text/css"><![CDATA[
.node, .edge {opacity: 0.7;}
.node.selected, .edge.selected {opacity: 1;}
.edge:hover path { stroke: red; }
.edge:hover polygon { stroke: red; fill: red; }
]]></style>
<script type="application/ecmascript" xlink:href="svg.min.js"/>
<svg id="graph" class="graph">
<g id="graph0" class="graph" transform="scale(1 1) rotate(0) translate(4 189)">
<title>Tasks.cpp</title>
<!-- Node1 -->
<g id="Node000001" class="node">
<title>Node1</title>
<g id="a_Node000001"><a xlink:title=" ">
<polygon fill="#999999" stroke="#666666" points="259.5,-185 198.5,-185 198.5,-165.75 259.5,-165.75 259.5,-185"/>
<text text-anchor="middle" x="229" y="-171.5" font-family="Helvetica,sans-Serif" font-size="10.00">Tasks.cpp</text>
</a>
</g>
</g>
<!-- Node2 -->
<g id="Node000002" class="node">
<title>Node2</title>
<g id="a_Node000002"><a xlink:href="_tasks_8hpp.xhtml" target="_top" xlink:title=" ">
<polygon fill="white" stroke="#666666" points="68.5,-129.75 7.5,-129.75 7.5,-110.5 68.5,-110.5 68.5,-129.75"/>
<text text-anchor="middle" x="38" y="-116.25" font-family="Helvetica,sans-Serif" font-size="10.00">Tasks.hpp</text>
</a>
</g>
</g>
<!-- Node1&#45;&gt;Node2 -->
<g id="edge1_Node000001_Node000002" class="edge">
<title>Node1&#45;&gt;Node2</title>
<g id="a_edge1_Node000001_Node000002"><a xlink:title=" ">
<path fill="none" stroke="#63b8ff" d="M198.31,-165.82C166.25,-156.88 115.72,-142.79 79.97,-132.83"/>
<polygon fill="#63b8ff" stroke="#63b8ff" points="80.96,-129.47 70.39,-130.15 79.08,-136.21 80.96,-129.47"/>
</a>
</g>
</g>
<!-- Node5 -->
<g id="Node000005" class="node">
<title>Node5</title>
<g id="a_Node000005"><a xlink:title=" ">
<polygon fill="#e0e0e0" stroke="#999999" points="143.25,-129.75 86.75,-129.75 86.75,-110.5 143.25,-110.5 143.25,-129.75"/>
<text text-anchor="middle" x="115" y="-116.25" font-family="Helvetica,sans-Serif" font-size="10.00">Arduino.h</text>
</a>
</g>
</g>
<!-- Node1&#45;&gt;Node5 -->
<g id="edge4_Node000001_Node000005" class="edge">
<title>Node1&#45;&gt;Node5</title>
<g id="a_edge4_Node000001_Node000005"><a xlink:title=" ">
<path fill="none" stroke="#63b8ff" d="M209.66,-165.34C191.89,-157.04 165.28,-144.61 144.8,-135.04"/>
<polygon fill="#63b8ff" stroke="#63b8ff" points="146.35,-131.9 135.8,-130.84 143.38,-138.25 146.35,-131.9"/>
</a>
</g>
</g>
<!-- Node6 -->
<g id="Node000006" class="node">
<title>Node6</title>
<g id="a_Node000006"><a xlink:href="conf_8hpp.xhtml" target="_top" xlink:title=" ">
<polygon fill="white" stroke="#666666" points="214.38,-129.75 161.62,-129.75 161.62,-110.5 214.38,-110.5 214.38,-129.75"/>
<text text-anchor="middle" x="188" y="-116.25" font-family="Helvetica,sans-Serif" font-size="10.00">conf.hpp</text>
</a>
</g>
</g>
<!-- Node1&#45;&gt;Node6 -->
<g id="edge5_Node000001_Node000006" class="edge">
<title>Node1&#45;&gt;Node6</title>
<g id="a_edge5_Node000001_Node000006"><a xlink:title=" ">
<path fill="none" stroke="#63b8ff" d="M222.23,-165.58C216.68,-158.38 208.66,-147.96 201.77,-139.01"/>
<polygon fill="#63b8ff" stroke="#63b8ff" points="204.71,-137.1 195.84,-131.31 199.17,-141.37 204.71,-137.1"/>
</a>
</g>
</g>
<!-- Node10 -->
<g id="Node000010" class="node">
<title>Node10</title>
<g id="a_Node000010"><a xlink:title=" ">
<polygon fill="#e0e0e0" stroke="#999999" points="309.38,-129.75 232.62,-129.75 232.62,-110.5 309.38,-110.5 309.38,-129.75"/>
<text text-anchor="middle" x="271" y="-116.25" font-family="Helvetica,sans-Serif" font-size="10.00">ArduinoOTA.h</text>
</a>
</g>
</g>
<!-- Node1&#45;&gt;Node10 -->
<g id="edge11_Node000001_Node000010" class="edge">
<title>Node1&#45;&gt;Node10</title>
<g id="a_edge11_Node000001_Node000010"><a xlink:title=" ">
<path fill="none" stroke="#63b8ff" d="M235.94,-165.58C241.62,-158.38 249.84,-147.96 256.89,-139.01"/>
<polygon fill="#63b8ff" stroke="#63b8ff" points="259.53,-141.32 262.98,-131.3 254.04,-136.98 259.53,-141.32"/>
</a>
</g>
</g>
<!-- Node11 -->
<g id="Node000011" class="node">
<title>Node11</title>
<g id="a_Node000011"><a xlink:title=" ">
<polygon fill="#e0e0e0" stroke="#999999" points="382.88,-129.75 327.12,-129.75 327.12,-110.5 382.88,-110.5 382.88,-129.75"/>
<text text-anchor="middle" x="355" y="-116.25" font-family="Helvetica,sans-Serif" font-size="10.00">algorithm</text>
</a>
</g>
</g>
<!-- Node1&#45;&gt;Node11 -->
<g id="edge12_Node000001_Node000011" class="edge">
<title>Node1&#45;&gt;Node11</title>
<g id="a_edge12_Node000001_Node000011"><a xlink:title=" ">
<path fill="none" stroke="#63b8ff" d="M250.37,-165.34C270.29,-156.93 300.24,-144.27 323,-134.65"/>
<polygon fill="#63b8ff" stroke="#63b8ff" points="324.28,-137.91 332.13,-130.79 321.55,-131.46 324.28,-137.91"/>
</a>
</g>
</g>
<!-- Node12 -->
<g id="Node000012" class="node">
<title>Node12</title>
<g id="a_Node000012"><a xlink:href="_logging_8hpp.xhtml" target="_top" xlink:title=" ">
<polygon fill="white" stroke="#666666" points="469.25,-129.75 400.75,-129.75 400.75,-110.5 469.25,-110.5 469.25,-129.75"/>
<text text-anchor="middle" x="435" y="-116.25" font-family="Helvetica,sans-Serif" font-size="10.00">Logging.hpp</text>
</a>
</g>
</g>
<!-- Node1&#45;&gt;Node12 -->
<g id="edge13_Node000001_Node000012" class="edge">
<title>Node1&#45;&gt;Node12</title>
<g id="a_edge13_Node000001_Node000012"><a xlink:title=" ">
<path fill="none" stroke="#63b8ff" d="M259.84,-166.4C294.16,-157.53 349.98,-143.1 389.36,-132.92"/>
<polygon fill="#63b8ff" stroke="#63b8ff" points="390.23,-136.31 399.04,-130.42 388.48,-129.53 390.23,-136.31"/>
</a>
</g>
</g>
<!-- Node3 -->
<g id="Node000003" class="node">
<title>Node3</title>
<g id="a_Node000003"><a xlink:title=" ">
<polygon fill="#e0e0e0" stroke="#999999" points="121.62,-74.5 76.38,-74.5 76.38,-55.25 121.62,-55.25 121.62,-74.5"/>
<text text-anchor="middle" x="99" y="-61" font-family="Helvetica,sans-Serif" font-size="10.00">chrono</text>
</a>
</g>
</g>
<!-- Node2&#45;&gt;Node3 -->
<g id="edge2_Node000002_Node000003" class="edge">
<title>Node2&#45;&gt;Node3</title>
<g id="a_edge2_Node000002_Node000003"><a xlink:title=" ">
<path fill="none" stroke="#63b8ff" d="M48.35,-110.09C57.08,-102.47 69.79,-91.37 80.3,-82.2"/>
<polygon fill="#63b8ff" stroke="#63b8ff" points="82.43,-84.98 87.66,-75.77 77.83,-79.71 82.43,-84.98"/>
</a>
</g>
</g>
<!-- Node4 -->
<g id="Node000004" class="node">
<title>Node4</title>
<g id="a_Node000004"><a xlink:title=" ">
<polygon fill="#e0e0e0" stroke="#999999" points="58,-74.5 0,-74.5 0,-55.25 58,-55.25 58,-74.5"/>
<text text-anchor="middle" x="29" y="-61" font-family="Helvetica,sans-Serif" font-size="10.00">functional</text>
</a>
</g>
</g>
<!-- Node2&#45;&gt;Node4 -->
<g id="edge3_Node000002_Node000004" class="edge">
<title>Node2&#45;&gt;Node4</title>
<g id="a_edge3_Node000002_Node000004"><a xlink:title=" ">
<path fill="none" stroke="#63b8ff" d="M36.51,-110.33C35.4,-103.74 33.83,-94.46 32.41,-86.07"/>
<polygon fill="#63b8ff" stroke="#63b8ff" points="35.89,-85.63 30.77,-76.35 28.99,-86.8 35.89,-85.63"/>
</a>
</g>
</g>
<!-- Node6&#45;&gt;Node3 -->
<g id="edge8_Node000006_Node000003" class="edge">
<title>Node6&#45;&gt;Node3</title>
<g id="a_edge8_Node000006_Node000003"><a xlink:title=" ">
<path fill="none" stroke="#63b8ff" d="M172.9,-110.09C159.48,-102.06 139.59,-90.16 123.83,-80.73"/>
<polygon fill="#63b8ff" stroke="#63b8ff" points="125.85,-77.86 115.47,-75.73 122.25,-83.87 125.85,-77.86"/>
</a>
</g>
</g>
<!-- Node7 -->
<g id="Node000007" class="node">
<title>Node7</title>
<g id="a_Node000007"><a xlink:title=" ">
<polygon fill="#e0e0e0" stroke="#999999" points="235.62,-19.25 190.38,-19.25 190.38,0 235.62,0 235.62,-19.25"/>
<text text-anchor="middle" x="213" y="-5.75" font-family="Helvetica,sans-Serif" font-size="10.00">cstdint</text>
</a>
</g>
</g>
<!-- Node6&#45;&gt;Node7 -->
<g id="edge6_Node000006_Node000007" class="edge">
<title>Node6&#45;&gt;Node7</title>
<g id="a_edge6_Node000006_Node000007"><a xlink:title=" ">
<path fill="none" stroke="#63b8ff" d="M181.61,-110.26C173.42,-97.74 161.19,-74.3 169,-55.25 173.6,-44.04 182.52,-34.14 191.13,-26.53"/>
<polygon fill="#63b8ff" stroke="#63b8ff" points="193.08,-29.46 198.63,-20.43 188.66,-24.03 193.08,-29.46"/>
</a>
</g>
</g>
<!-- Node8 -->
<g id="Node000008" class="node">
<title>Node8</title>
<g id="a_Node000008"><a xlink:title=" ">
<polygon fill="#e0e0e0" stroke="#999999" points="218,-74.5 178,-74.5 178,-55.25 218,-55.25 218,-74.5"/>
<text text-anchor="middle" x="198" y="-61" font-family="Helvetica,sans-Serif" font-size="10.00">string</text>
</a>
</g>
</g>
<!-- Node6&#45;&gt;Node8 -->
<g id="edge7_Node000006_Node000008" class="edge">
<title>Node6&#45;&gt;Node8</title>
<g id="a_edge7_Node000006_Node000008"><a xlink:title=" ">
<path fill="none" stroke="#63b8ff" d="M189.65,-110.33C190.89,-103.74 192.63,-94.46 194.21,-86.07"/>
<polygon fill="#63b8ff" stroke="#63b8ff" points="197.63,-86.82 196.03,-76.35 190.75,-85.53 197.63,-86.82"/>
</a>
</g>
</g>
<!-- Node9 -->
<g id="Node000009" class="node">
<title>Node9</title>
<g id="a_Node000009"><a xlink:href="_machine_i_d_8hpp.xhtml" target="_top" xlink:title=" ">
<polygon fill="white" stroke="#666666" points="316.25,-74.5 235.75,-74.5 235.75,-55.25 316.25,-55.25 316.25,-74.5"/>
<text text-anchor="middle" x="276" y="-61" font-family="Helvetica,sans-Serif" font-size="10.00">MachineID.hpp</text>
</a>
</g>
</g>
<!-- Node6&#45;&gt;Node9 -->
<g id="edge9_Node000006_Node000009" class="edge">
<title>Node6&#45;&gt;Node9</title>
<g id="a_edge9_Node000006_Node000009"><a xlink:title=" ">
<path fill="none" stroke="#63b8ff" d="M202.93,-110.09C216.2,-102.06 235.87,-90.16 251.45,-80.73"/>
<polygon fill="#63b8ff" stroke="#63b8ff" points="252.96,-83.91 259.7,-75.74 249.34,-77.92 252.96,-83.91"/>
</a>
</g>
</g>
<!-- Node9&#45;&gt;Node7 -->
<g id="edge10_Node000009_Node000007" class="edge">
<title>Node9&#45;&gt;Node7</title>
<g id="a_edge10_Node000009_Node000007"><a xlink:title=" ">
<path fill="none" stroke="#63b8ff" d="M265.31,-54.84C256.3,-47.22 243.17,-36.12 232.32,-26.95"/>
<polygon fill="#63b8ff" stroke="#63b8ff" points="234.58,-24.28 224.69,-20.5 230.06,-29.63 234.58,-24.28"/>
</a>
</g>
</g>
<!-- Node13 -->
<g id="Node000013" class="node">
<title>Node13</title>
<g id="a_Node000013"><a xlink:title=" ">
<polygon fill="#e0e0e0" stroke="#999999" points="463.62,-74.5 406.38,-74.5 406.38,-55.25 463.62,-55.25 463.62,-74.5"/>
<text text-anchor="middle" x="435" y="-61" font-family="Helvetica,sans-Serif" font-size="10.00">esp_log.h</text>
</a>
</g>
</g>
<!-- Node12&#45;&gt;Node13 -->
<g id="edge14_Node000012_Node000013" class="edge">
<title>Node12&#45;&gt;Node13</title>
<g id="a_edge14_Node000012_Node000013"><a xlink:title=" ">
<path fill="none" stroke="#63b8ff" d="M435,-110.33C435,-103.82 435,-94.67 435,-86.37"/>
<polygon fill="#63b8ff" stroke="#63b8ff" points="438.5,-86.37 435,-76.37 431.5,-86.37 438.5,-86.37"/>
</a>
</g>
</g>
</g>
</svg>
</svg>

<style type='text/css'>
<![CDATA[
[data-mouse-over-selected='false'] { opacity: 0.7; }
[data-mouse-over-selected='true']  { opacity: 1.0; }
]]>
</style>
<script type="application/ecmascript"><![CDATA[
document.addEventListener('DOMContentLoaded', (event) => {
  highlightEdges();
  highlightAdjacentNodes();
});
]]></script>
</svg>
