<?xml version="1.0" encoding="UTF-8" standalone="no"?>
<!DOCTYPE svg PUBLIC "-//W3C//DTD SVG 1.1//EN"
 "http://www.w3.org/Graphics/SVG/1.1/DTD/svg11.dtd">
<!-- Generated by graphviz version 9.0.0 (20230911.1827)
 -->
<!-- Title: Tasks.cpp Pages: 1 -->
<svg width="614pt" height="193pt"
 viewBox="0.00 0.00 613.50 193.00" xmlns="http://www.w3.org/2000/svg" xmlns:xlink="http://www.w3.org/1999/xlink">
<g id="graph0" class="graph" transform="scale(1 1) rotate(0) translate(4 189)">
<title>Tasks.cpp</title>
<!-- Node1 -->
<g id="Node000001" class="node">
<title>Node1</title>
<g id="a_Node000001"><a xlink:title=" ">
<polygon fill="#999999" stroke="#666666" points="367.75,-185 306.75,-185 306.75,-165.75 367.75,-165.75 367.75,-185"/>
<text text-anchor="middle" x="337.25" y="-171.5" font-family="Helvetica,sans-Serif" font-size="10.00">Tasks.cpp</text>
</a>
</g>
</g>
<!-- Node2 -->
<g id="Node000002" class="node">
<title>Node2</title>
<g id="a_Node000002"><a xlink:href="_tasks_8hpp.xhtml" target="_top" xlink:title=" ">
<polygon fill="white" stroke="#666666" points="194.75,-129.75 133.75,-129.75 133.75,-110.5 194.75,-110.5 194.75,-129.75"/>
<text text-anchor="middle" x="164.25" y="-116.25" font-family="Helvetica,sans-Serif" font-size="10.00">Tasks.hpp</text>
</a>
</g>
</g>
<!-- Node1&#45;&gt;Node2 -->
<g id="edge1_Node000001_Node000002" class="edge">
<title>Node1&#45;&gt;Node2</title>
<g id="a_edge1_Node000001_Node000002"><a xlink:title=" ">
<path fill="none" stroke="#63b8ff" d="M307.9,-165.34C279.45,-156.58 236.05,-143.23 204.4,-133.48"/>
<polygon fill="#63b8ff" stroke="#63b8ff" points="205.77,-130.24 195.19,-130.65 203.72,-136.93 205.77,-130.24"/>
</a>
</g>
</g>
<!-- Node5 -->
<g id="Node000005" class="node">
<title>Node5</title>
<g id="a_Node000005"><a xlink:title=" ">
<polygon fill="#e0e0e0" stroke="#999999" points="56.5,-74.5 0,-74.5 0,-55.25 56.5,-55.25 56.5,-74.5"/>
<text text-anchor="middle" x="28.25" y="-61" font-family="Helvetica,sans-Serif" font-size="10.00">Arduino.h</text>
</a>
</g>
</g>
<!-- Node1&#45;&gt;Node5 -->
<g id="edge6_Node000001_Node000005" class="edge">
<title>Node1&#45;&gt;Node5</title>
<g id="a_edge6_Node000001_Node000005"><a xlink:title=" ">
<path fill="none" stroke="#63b8ff" d="M306.34,-171.53C264.08,-166.82 186.53,-155.29 125.25,-129.75 96.22,-117.65 66.56,-96.59 47.81,-81.97"/>
<polygon fill="#63b8ff" stroke="#63b8ff" points="50.01,-79.25 40.01,-75.75 45.64,-84.72 50.01,-79.25"/>
</a>
</g>
</g>
<!-- Node7 -->
<g id="Node000007" class="node">
<title>Node7</title>
<g id="a_Node000007"><a xlink:href="conf_8hpp.xhtml" target="_top" xlink:title=" ">
<polygon fill="white" stroke="#666666" points="280.62,-129.75 227.88,-129.75 227.88,-110.5 280.62,-110.5 280.62,-129.75"/>
<text text-anchor="middle" x="254.25" y="-116.25" font-family="Helvetica,sans-Serif" font-size="10.00">conf.hpp</text>
</a>
</g>
</g>
<!-- Node1&#45;&gt;Node7 -->
<g id="edge7_Node000001_Node000007" class="edge">
<title>Node1&#45;&gt;Node7</title>
<g id="a_edge7_Node000001_Node000007"><a xlink:title=" ">
<path fill="none" stroke="#63b8ff" d="M323.17,-165.34C310.77,-157.39 292.46,-145.64 277.82,-136.25"/>
<polygon fill="#63b8ff" stroke="#63b8ff" points="279.98,-133.47 269.67,-131.02 276.2,-139.37 279.98,-133.47"/>
</a>
</g>
</g>
<!-- Node11 -->
<g id="Node000011" class="node">
<title>Node11</title>
<g id="a_Node000011"><a xlink:title=" ">
<polygon fill="#e0e0e0" stroke="#999999" points="375.62,-129.75 298.88,-129.75 298.88,-110.5 375.62,-110.5 375.62,-129.75"/>
<text text-anchor="middle" x="337.25" y="-116.25" font-family="Helvetica,sans-Serif" font-size="10.00">ArduinoOTA.h</text>
</a>
</g>
</g>
<!-- Node1&#45;&gt;Node11 -->
<g id="edge13_Node000001_Node000011" class="edge">
<title>Node1&#45;&gt;Node11</title>
<g id="a_edge13_Node000001_Node000011"><a xlink:title=" ">
<path fill="none" stroke="#63b8ff" d="M337.25,-165.58C337.25,-159.07 337.25,-149.92 337.25,-141.62"/>
<polygon fill="#63b8ff" stroke="#63b8ff" points="340.75,-141.62 337.25,-131.62 333.75,-141.62 340.75,-141.62"/>
</a>
</g>
</g>
<!-- Node12 -->
<g id="Node000012" class="node">
<title>Node12</title>
<g id="a_Node000012"><a xlink:title=" ">
<polygon fill="#e0e0e0" stroke="#999999" points="449.12,-129.75 393.38,-129.75 393.38,-110.5 449.12,-110.5 449.12,-129.75"/>
<text text-anchor="middle" x="421.25" y="-116.25" font-family="Helvetica,sans-Serif" font-size="10.00">algorithm</text>
</a>
</g>
</g>
<!-- Node1&#45;&gt;Node12 -->
<g id="edge14_Node000001_Node000012" class="edge">
<title>Node1&#45;&gt;Node12</title>
<g id="a_edge14_Node000001_Node000012"><a xlink:title=" ">
<path fill="none" stroke="#63b8ff" d="M351.5,-165.34C364.05,-157.39 382.58,-145.64 397.39,-136.25"/>
<polygon fill="#63b8ff" stroke="#63b8ff" points="399.08,-139.32 405.65,-131.01 395.33,-133.41 399.08,-139.32"/>
</a>
</g>
</g>
<!-- Node13 -->
<g id="Node000013" class="node">
<title>Node13</title>
<g id="a_Node000013"><a xlink:title=" ">
<polygon fill="#e0e0e0" stroke="#999999" points="518.88,-129.75 467.62,-129.75 467.62,-110.5 518.88,-110.5 518.88,-129.75"/>
<text text-anchor="middle" x="493.25" y="-116.25" font-family="Helvetica,sans-Serif" font-size="10.00">sstream</text>
</a>
</g>
</g>
<!-- Node1&#45;&gt;Node13 -->
<g id="edge15_Node000001_Node000013" class="edge">
<title>Node1&#45;&gt;Node13</title>
<g id="a_edge15_Node000001_Node000013"><a xlink:title=" ">
<path fill="none" stroke="#63b8ff" d="M363.71,-165.34C389.19,-156.64 427.95,-143.42 456.43,-133.69"/>
<polygon fill="#63b8ff" stroke="#63b8ff" points="457.41,-137.06 465.75,-130.51 455.15,-130.43 457.41,-137.06"/>
</a>
</g>
</g>
<!-- Node14 -->
<g id="Node000014" class="node">
<title>Node14</title>
<g id="a_Node000014"><a xlink:href="_logging_8hpp.xhtml" target="_top" xlink:title=" ">
<polygon fill="white" stroke="#666666" points="605.5,-129.75 537,-129.75 537,-110.5 605.5,-110.5 605.5,-129.75"/>
<text text-anchor="middle" x="571.25" y="-116.25" font-family="Helvetica,sans-Serif" font-size="10.00">Logging.hpp</text>
</a>
</g>
</g>
<!-- Node1&#45;&gt;Node14 -->
<g id="edge16_Node000001_Node000014" class="edge">
<title>Node1&#45;&gt;Node14</title>
<g id="a_edge16_Node000001_Node000014"><a xlink:title=" ">
<path fill="none" stroke="#63b8ff" d="M367.84,-167.41C408.13,-158.25 479.29,-142.05 525.86,-131.45"/>
<polygon fill="#63b8ff" stroke="#63b8ff" points="526.4,-134.92 535.37,-129.29 524.85,-128.1 526.4,-134.92"/>
</a>
</g>
</g>
<!-- Node3 -->
<g id="Node000003" class="node">
<title>Node3</title>
<g id="a_Node000003"><a xlink:title=" ">
<polygon fill="#e0e0e0" stroke="#999999" points="241.88,-74.5 196.62,-74.5 196.62,-55.25 241.88,-55.25 241.88,-74.5"/>
<text text-anchor="middle" x="219.25" y="-61" font-family="Helvetica,sans-Serif" font-size="10.00">chrono</text>
</a>
</g>
</g>
<!-- Node2&#45;&gt;Node3 -->
<g id="edge2_Node000002_Node000003" class="edge">
<title>Node2&#45;&gt;Node3</title>
<g id="a_edge2_Node000002_Node000003"><a xlink:title=" ">
<path fill="none" stroke="#63b8ff" d="M173.33,-110.33C181.09,-102.82 192.46,-91.81 201.95,-82.63"/>
<polygon fill="#63b8ff" stroke="#63b8ff" points="204.13,-85.38 208.88,-75.91 199.26,-80.35 204.13,-85.38"/>
</a>
</g>
</g>
<!-- Node4 -->
<g id="Node000004" class="node">
<title>Node4</title>
<g id="a_Node000004"><a xlink:title=" ">
<polygon fill="#e0e0e0" stroke="#999999" points="132.25,-74.5 74.25,-74.5 74.25,-55.25 132.25,-55.25 132.25,-74.5"/>
<text text-anchor="middle" x="103.25" y="-61" font-family="Helvetica,sans-Serif" font-size="10.00">functional</text>
</a>
</g>
</g>
<!-- Node2&#45;&gt;Node4 -->
<g id="edge3_Node000002_Node000004" class="edge">
<title>Node2&#45;&gt;Node4</title>
<g id="a_edge3_Node000002_Node000004"><a xlink:title=" ">
<path fill="none" stroke="#63b8ff" d="M153.9,-110.09C145.17,-102.47 132.46,-91.37 121.95,-82.2"/>
<polygon fill="#63b8ff" stroke="#63b8ff" points="124.42,-79.71 114.59,-75.77 119.82,-84.98 124.42,-79.71"/>
</a>
</g>
</g>
<!-- Node2&#45;&gt;Node5 -->
<g id="edge4_Node000002_Node000005" class="edge">
<title>Node2&#45;&gt;Node5</title>
<g id="a_edge4_Node000002_Node000005"><a xlink:title=" ">
<path fill="none" stroke="#63b8ff" d="M141.18,-110.09C119.49,-101.6 86.77,-88.79 62.12,-79.14"/>
<polygon fill="#63b8ff" stroke="#63b8ff" points="63.43,-75.89 52.84,-75.5 60.88,-82.41 63.43,-75.89"/>
</a>
</g>
</g>
<!-- Node6 -->
<g id="Node000006" class="node">
<title>Node6</title>
<g id="a_Node000006"><a xlink:title=" ">
<polygon fill="#e0e0e0" stroke="#999999" points="178.65,-74.5 149.85,-74.5 149.85,-55.25 178.65,-55.25 178.65,-74.5"/>
<text text-anchor="middle" x="164.25" y="-61" font-family="Helvetica,sans-Serif" font-size="10.00">list</text>
</a>
</g>
</g>
<!-- Node2&#45;&gt;Node6 -->
<g id="edge5_Node000002_Node000006" class="edge">
<title>Node2&#45;&gt;Node6</title>
<g id="a_edge5_Node000002_Node000006"><a xlink:title=" ">
<path fill="none" stroke="#63b8ff" d="M164.25,-110.33C164.25,-103.82 164.25,-94.67 164.25,-86.37"/>
<polygon fill="#63b8ff" stroke="#63b8ff" points="167.75,-86.37 164.25,-76.37 160.75,-86.37 167.75,-86.37"/>
</a>
</g>
</g>
<!-- Node7&#45;&gt;Node3 -->
<g id="edge10_Node000007_Node000003" class="edge">
<title>Node7&#45;&gt;Node3</title>
<g id="a_edge10_Node000007_Node000003"><a xlink:title=" ">
<path fill="none" stroke="#63b8ff" d="M248.47,-110.33C243.84,-103.28 237.18,-93.15 231.38,-84.33"/>
<polygon fill="#63b8ff" stroke="#63b8ff" points="234.4,-82.56 225.99,-76.12 228.55,-86.4 234.4,-82.56"/>
</a>
</g>
</g>
<!-- Node8 -->
<g id="Node000008" class="node">
<title>Node8</title>
<g id="a_Node000008"><a xlink:title=" ">
<polygon fill="#e0e0e0" stroke="#999999" points="355.88,-19.25 310.62,-19.25 310.62,0 355.88,0 355.88,-19.25"/>
<text text-anchor="middle" x="333.25" y="-5.75" font-family="Helvetica,sans-Serif" font-size="10.00">cstdint</text>
</a>
</g>
</g>
<!-- Node7&#45;&gt;Node8 -->
<g id="edge8_Node000007_Node000008" class="edge">
<title>Node7&#45;&gt;Node8</title>
<g id="a_edge8_Node000007_Node000008"><a xlink:title=" ">
<path fill="none" stroke="#63b8ff" d="M258.08,-110.41C263.88,-97.67 275.66,-73.51 289.25,-55.25 296.69,-45.25 306.28,-35.26 314.61,-27.28"/>
<polygon fill="#63b8ff" stroke="#63b8ff" points="316.94,-29.9 321.88,-20.53 312.17,-24.77 316.94,-29.9"/>
</a>
</g>
</g>
<!-- Node9 -->
<g id="Node000009" class="node">
<title>Node9</title>
<g id="a_Node000009"><a xlink:title=" ">
<polygon fill="#e0e0e0" stroke="#999999" points="338.25,-74.5 298.25,-74.5 298.25,-55.25 338.25,-55.25 338.25,-74.5"/>
<text text-anchor="middle" x="318.25" y="-61" font-family="Helvetica,sans-Serif" font-size="10.00">string</text>
</a>
</g>
</g>
<!-- Node7&#45;&gt;Node9 -->
<g id="edge9_Node000007_Node000009" class="edge">
<title>Node7&#45;&gt;Node9</title>
<g id="a_edge9_Node000007_Node000009"><a xlink:title=" ">
<path fill="none" stroke="#63b8ff" d="M265.11,-110.09C274.36,-102.4 287.87,-91.15 298.96,-81.93"/>
<polygon fill="#63b8ff" stroke="#63b8ff" points="300.94,-84.83 306.39,-75.74 296.46,-79.45 300.94,-84.83"/>
</a>
</g>
</g>
<!-- Node10 -->
<g id="Node000010" class="node">
<title>Node10</title>
<g id="a_Node000010"><a xlink:href="_machine_i_d_8hpp.xhtml" target="_top" xlink:title=" ">
<polygon fill="white" stroke="#666666" points="436.5,-74.5 356,-74.5 356,-55.25 436.5,-55.25 436.5,-74.5"/>
<text text-anchor="middle" x="396.25" y="-61" font-family="Helvetica,sans-Serif" font-size="10.00">MachineID.hpp</text>
</a>
</g>
</g>
<!-- Node7&#45;&gt;Node10 -->
<g id="edge11_Node000007_Node000010" class="edge">
<title>Node7&#45;&gt;Node10</title>
<g id="a_edge11_Node000007_Node000010"><a xlink:title=" ">
<path fill="none" stroke="#63b8ff" d="M278.34,-110.09C301.19,-101.52 335.77,-88.56 361.58,-78.88"/>
<polygon fill="#63b8ff" stroke="#63b8ff" points="362.49,-82.27 370.63,-75.48 360.03,-75.72 362.49,-82.27"/>
</a>
</g>
</g>
<!-- Node10&#45;&gt;Node8 -->
<g id="edge12_Node000010_Node000008" class="edge">
<title>Node10&#45;&gt;Node8</title>
<g id="a_edge12_Node000010_Node000008"><a xlink:title=" ">
<path fill="none" stroke="#63b8ff" d="M385.56,-54.84C376.55,-47.22 363.42,-36.12 352.57,-26.95"/>
<polygon fill="#63b8ff" stroke="#63b8ff" points="354.83,-24.28 344.94,-20.5 350.31,-29.63 354.83,-24.28"/>
</a>
</g>
</g>
<!-- Node15 -->
<g id="Node000015" class="node">
<title>Node15</title>
<g id="a_Node000015"><a xlink:title=" ">
<polygon fill="#e0e0e0" stroke="#999999" points="599.88,-74.5 542.62,-74.5 542.62,-55.25 599.88,-55.25 599.88,-74.5"/>
<text text-anchor="middle" x="571.25" y="-61" font-family="Helvetica,sans-Serif" font-size="10.00">esp_log.h</text>
</a>
</g>
</g>
<!-- Node14&#45;&gt;Node15 -->
<g id="edge17_Node000014_Node000015" class="edge">
<title>Node14&#45;&gt;Node15</title>
<g id="a_edge17_Node000014_Node000015"><a xlink:title=" ">
<path fill="none" stroke="#63b8ff" d="M571.25,-110.33C571.25,-103.82 571.25,-94.67 571.25,-86.37"/>
<polygon fill="#63b8ff" stroke="#63b8ff" points="574.75,-86.37 571.25,-76.37 567.75,-86.37 574.75,-86.37"/>
</a>
</g>
</g>
</g>
</svg>
