<?xml version="1.0" encoding="UTF-8" standalone="no"?>
<!DOCTYPE svg PUBLIC "-//W3C//DTD SVG 1.1//EN"
 "http://www.w3.org/Graphics/SVG/1.1/DTD/svg11.dtd">
<!-- Generated by graphviz version 9.0.0 (20230911.1827)
 -->
<!-- Title: WhiteList.hpp Pages: 1 -->
<svg width="601pt" height="304pt"
 viewBox="0.00 0.00 600.88 303.50" xmlns="http://www.w3.org/2000/svg" xmlns:xlink="http://www.w3.org/1999/xlink">
<g id="graph0" class="graph" transform="scale(1 1) rotate(0) translate(4 299.5)">
<title>WhiteList.hpp</title>
<!-- Node1 -->
<g id="Node000001" class="node">
<title>Node1</title>
<g id="a_Node000001"><a xlink:title=" ">
<polygon fill="#999999" stroke="#666666" points="411.12,-295.5 335.88,-295.5 335.88,-276.25 411.12,-276.25 411.12,-295.5"/>
<text text-anchor="middle" x="373.5" y="-282" font-family="Helvetica,sans-Serif" font-size="10.00">WhiteList.hpp</text>
</a>
</g>
</g>
<!-- Node2 -->
<g id="Node000002" class="node">
<title>Node2</title>
<g id="a_Node000002"><a xlink:title=" ">
<polygon fill="#e0e0e0" stroke="#999999" points="37,-185 0,-185 0,-165.75 37,-165.75 37,-185"/>
<text text-anchor="middle" x="18.5" y="-171.5" font-family="Helvetica,sans-Serif" font-size="10.00">array</text>
</a>
</g>
</g>
<!-- Node1&#45;&gt;Node2 -->
<g id="edge1_Node000001_Node000002" class="edge">
<title>Node1&#45;&gt;Node2</title>
<g id="a_edge1_Node000001_Node000002"><a xlink:title=" ">
<path fill="none" stroke="#63b8ff" d="M335.51,-281.63C287.34,-276.66 202.29,-265 133.5,-240.25 99.37,-227.97 63.32,-206.33 40.87,-191.68"/>
<polygon fill="#63b8ff" stroke="#63b8ff" points="42.82,-188.78 32.55,-186.15 38.94,-194.6 42.82,-188.78"/>
</a>
</g>
</g>
<!-- Node3 -->
<g id="Node000003" class="node">
<title>Node3</title>
<g id="a_Node000003"><a xlink:title=" ">
<polygon fill="#e0e0e0" stroke="#999999" points="437.25,-240.25 371.75,-240.25 371.75,-221 437.25,-221 437.25,-240.25"/>
<text text-anchor="middle" x="404.5" y="-226.75" font-family="Helvetica,sans-Serif" font-size="10.00">string_view</text>
</a>
</g>
</g>
<!-- Node1&#45;&gt;Node3 -->
<g id="edge2_Node000001_Node000003" class="edge">
<title>Node1&#45;&gt;Node3</title>
<g id="a_edge2_Node000001_Node000003"><a xlink:title=" ">
<path fill="none" stroke="#63b8ff" d="M378.62,-276.08C382.68,-269.11 388.49,-259.12 393.59,-250.37"/>
<polygon fill="#63b8ff" stroke="#63b8ff" points="396.5,-252.32 398.51,-241.92 390.45,-248.8 396.5,-252.32"/>
</a>
</g>
</g>
<!-- Node4 -->
<g id="Node000004" class="node">
<title>Node4</title>
<g id="a_Node000004"><a xlink:title=" ">
<polygon fill="#e0e0e0" stroke="#999999" points="492,-240.25 455,-240.25 455,-221 492,-221 492,-240.25"/>
<text text-anchor="middle" x="473.5" y="-226.75" font-family="Helvetica,sans-Serif" font-size="10.00">tuple</text>
</a>
</g>
</g>
<!-- Node1&#45;&gt;Node4 -->
<g id="edge3_Node000001_Node000004" class="edge">
<title>Node1&#45;&gt;Node4</title>
<g id="a_edge3_Node000001_Node000004"><a xlink:title=" ">
<path fill="none" stroke="#63b8ff" d="M390.46,-275.84C405.76,-267.69 428.53,-255.57 446.36,-246.08"/>
<polygon fill="#63b8ff" stroke="#63b8ff" points="447.94,-249.2 455.12,-241.41 444.65,-243.02 447.94,-249.2"/>
</a>
</g>
</g>
<!-- Node5 -->
<g id="Node000005" class="node">
<title>Node5</title>
<g id="a_Node000005"><a xlink:title=" ">
<polygon fill="#e0e0e0" stroke="#999999" points="592.88,-240.25 510.12,-240.25 510.12,-221 592.88,-221 592.88,-240.25"/>
<text text-anchor="middle" x="551.5" y="-226.75" font-family="Helvetica,sans-Serif" font-size="10.00">unordered_map</text>
</a>
</g>
</g>
<!-- Node1&#45;&gt;Node5 -->
<g id="edge4_Node000001_Node000005" class="edge">
<title>Node1&#45;&gt;Node5</title>
<g id="a_edge4_Node000001_Node000005"><a xlink:title=" ">
<path fill="none" stroke="#63b8ff" d="M403.7,-275.84C432.98,-267.08 477.62,-253.73 510.19,-243.98"/>
<polygon fill="#63b8ff" stroke="#63b8ff" points="511.13,-247.36 519.71,-241.14 509.12,-240.65 511.13,-247.36"/>
</a>
</g>
</g>
<!-- Node6 -->
<g id="Node000006" class="node">
<title>Node6</title>
<g id="a_Node000006"><a xlink:href="_fab_user_8hpp.xhtml" target="_top" xlink:title=" ">
<polygon fill="white" stroke="#666666" points="214.25,-240.25 142.75,-240.25 142.75,-221 214.25,-221 214.25,-240.25"/>
<text text-anchor="middle" x="178.5" y="-226.75" font-family="Helvetica,sans-Serif" font-size="10.00">FabUser.hpp</text>
</a>
</g>
</g>
<!-- Node1&#45;&gt;Node6 -->
<g id="edge5_Node000001_Node000006" class="edge">
<title>Node1&#45;&gt;Node6</title>
<g id="a_edge5_Node000001_Node000006"><a xlink:title=" ">
<path fill="none" stroke="#63b8ff" d="M340.42,-275.84C308.06,-267.01 258.58,-253.49 222.83,-243.73"/>
<polygon fill="#63b8ff" stroke="#63b8ff" points="223.77,-240.36 213.2,-241.1 221.93,-247.11 223.77,-240.36"/>
</a>
</g>
</g>
<!-- Node11 -->
<g id="Node000011" class="node">
<title>Node11</title>
<g id="a_Node000011"><a xlink:href="conf_8hpp.xhtml" target="_top" xlink:title=" ">
<polygon fill="white" stroke="#666666" points="482.88,-129.75 430.12,-129.75 430.12,-110.5 482.88,-110.5 482.88,-129.75"/>
<text text-anchor="middle" x="456.5" y="-116.25" font-family="Helvetica,sans-Serif" font-size="10.00">conf.hpp</text>
</a>
</g>
</g>
<!-- Node1&#45;&gt;Node11 -->
<g id="edge24_Node000001_Node000011" class="edge">
<title>Node1&#45;&gt;Node11</title>
<g id="a_edge24_Node000001_Node000011"><a xlink:title=" ">
<path fill="none" stroke="#63b8ff" d="M369,-275.88C363.32,-263.23 355.12,-239.62 362.5,-221 376.79,-184.98 410.9,-154.39 433.86,-136.89"/>
<polygon fill="#63b8ff" stroke="#63b8ff" points="435.73,-139.86 441.7,-131.11 431.58,-134.22 435.73,-139.86"/>
</a>
</g>
</g>
<!-- Node6&#45;&gt;Node2 -->
<g id="edge20_Node000006_Node000002" class="edge">
<title>Node6&#45;&gt;Node2</title>
<g id="a_edge20_Node000006_Node000002"><a xlink:title=" ">
<path fill="none" stroke="#63b8ff" d="M151.36,-220.59C122.71,-211.06 77.69,-196.07 48.13,-186.24"/>
<polygon fill="#63b8ff" stroke="#63b8ff" points="49.28,-182.93 38.69,-183.09 47.07,-189.57 49.28,-182.93"/>
</a>
</g>
</g>
<!-- Node7 -->
<g id="Node000007" class="node">
<title>Node7</title>
<g id="a_Node000007"><a xlink:title=" ">
<polygon fill="#e0e0e0" stroke="#999999" points="187.75,-129.75 131.25,-129.75 131.25,-110.5 187.75,-110.5 187.75,-129.75"/>
<text text-anchor="middle" x="159.5" y="-116.25" font-family="Helvetica,sans-Serif" font-size="10.00">Arduino.h</text>
</a>
</g>
</g>
<!-- Node6&#45;&gt;Node7 -->
<g id="edge6_Node000006_Node000007" class="edge">
<title>Node6&#45;&gt;Node7</title>
<g id="a_edge6_Node000006_Node000007"><a xlink:title=" ">
<path fill="none" stroke="#63b8ff" d="M176.95,-220.75C173.93,-203.5 167.2,-165.08 163.04,-141.31"/>
<polygon fill="#63b8ff" stroke="#63b8ff" points="166.51,-140.86 161.34,-131.62 159.61,-142.07 166.51,-140.86"/>
</a>
</g>
</g>
<!-- Node8 -->
<g id="Node000008" class="node">
<title>Node8</title>
<g id="a_Node000008"><a xlink:href="card_8hpp.xhtml" target="_top" xlink:title=" ">
<polygon fill="white" stroke="#666666" points="277.88,-185 225.12,-185 225.12,-165.75 277.88,-165.75 277.88,-185"/>
<text text-anchor="middle" x="251.5" y="-171.5" font-family="Helvetica,sans-Serif" font-size="10.00">card.hpp</text>
</a>
</g>
</g>
<!-- Node6&#45;&gt;Node8 -->
<g id="edge7_Node000006_Node000008" class="edge">
<title>Node6&#45;&gt;Node8</title>
<g id="a_edge7_Node000006_Node000008"><a xlink:title=" ">
<path fill="none" stroke="#63b8ff" d="M190.88,-220.59C201.65,-212.74 217.47,-201.2 230.25,-191.87"/>
<polygon fill="#63b8ff" stroke="#63b8ff" points="232.06,-194.89 238.08,-186.17 227.94,-189.23 232.06,-194.89"/>
</a>
</g>
</g>
<!-- Node9 -->
<g id="Node000009" class="node">
<title>Node9</title>
<g id="a_Node000009"><a xlink:title=" ">
<polygon fill="#e0e0e0" stroke="#999999" points="257.12,-129.75 205.88,-129.75 205.88,-110.5 257.12,-110.5 257.12,-129.75"/>
<text text-anchor="middle" x="231.5" y="-116.25" font-family="Helvetica,sans-Serif" font-size="10.00">sstream</text>
</a>
</g>
</g>
<!-- Node6&#45;&gt;Node9 -->
<g id="edge22_Node000006_Node000009" class="edge">
<title>Node6&#45;&gt;Node9</title>
<g id="a_edge22_Node000006_Node000009"><a xlink:title=" ">
<path fill="none" stroke="#63b8ff" d="M182.84,-220.75C191.38,-203.26 210.55,-164.02 222.12,-140.34"/>
<polygon fill="#63b8ff" stroke="#63b8ff" points="225.19,-142.01 226.44,-131.49 218.9,-138.94 225.19,-142.01"/>
</a>
</g>
</g>
<!-- Node6&#45;&gt;Node11 -->
<g id="edge19_Node000006_Node000011" class="edge">
<title>Node6&#45;&gt;Node11</title>
<g id="a_edge19_Node000006_Node000011"><a xlink:title=" ">
<path fill="none" stroke="#63b8ff" d="M200.92,-220.58C222.82,-211.7 257.06,-197.67 286.5,-185 305.73,-176.72 310.05,-173.51 329.5,-165.75 359.38,-153.84 393.84,-141.83 419.32,-133.28"/>
<polygon fill="#63b8ff" stroke="#63b8ff" points="420.18,-136.69 428.56,-130.2 417.96,-130.04 420.18,-136.69"/>
</a>
</g>
</g>
<!-- Node12 -->
<g id="Node000012" class="node">
<title>Node12</title>
<g id="a_Node000012"><a xlink:title=" ">
<polygon fill="#e0e0e0" stroke="#999999" points="398.12,-19.25 352.88,-19.25 352.88,0 398.12,0 398.12,-19.25"/>
<text text-anchor="middle" x="375.5" y="-5.75" font-family="Helvetica,sans-Serif" font-size="10.00">cstdint</text>
</a>
</g>
</g>
<!-- Node6&#45;&gt;Node12 -->
<g id="edge21_Node000006_Node000012" class="edge">
<title>Node6&#45;&gt;Node12</title>
<g id="a_edge21_Node000006_Node000012"><a xlink:title=" ">
<path fill="none" stroke="#63b8ff" d="M160.65,-220.61C147.42,-212.96 130.08,-200.73 120.5,-185 103.12,-156.47 94.81,-139.99 110.5,-110.5 154.56,-27.69 280.12,-12.84 341.24,-10.65"/>
<polygon fill="#63b8ff" stroke="#63b8ff" points="341.14,-14.15 351.05,-10.4 340.97,-7.15 341.14,-14.15"/>
</a>
</g>
</g>
<!-- Node13 -->
<g id="Node000013" class="node">
<title>Node13</title>
<g id="a_Node000013"><a xlink:title=" ">
<polygon fill="#e0e0e0" stroke="#999999" points="317.5,-74.5 277.5,-74.5 277.5,-55.25 317.5,-55.25 317.5,-74.5"/>
<text text-anchor="middle" x="297.5" y="-61" font-family="Helvetica,sans-Serif" font-size="10.00">string</text>
</a>
</g>
</g>
<!-- Node6&#45;&gt;Node13 -->
<g id="edge23_Node000006_Node000013" class="edge">
<title>Node6&#45;&gt;Node13</title>
<g id="a_edge23_Node000006_Node000013"><a xlink:title=" ">
<path fill="none" stroke="#63b8ff" d="M168.28,-220.81C145.36,-200 94.03,-146.84 122.5,-110.5 161.62,-60.56 199.91,-88.79 266.35,-74.68"/>
<polygon fill="#63b8ff" stroke="#63b8ff" points="266.89,-78.15 275.78,-72.39 265.24,-71.34 266.89,-78.15"/>
</a>
</g>
</g>
<!-- Node8&#45;&gt;Node7 -->
<g id="edge10_Node000008_Node000007" class="edge">
<title>Node8&#45;&gt;Node7</title>
<g id="a_edge10_Node000008_Node000007"><a xlink:title=" ">
<path fill="none" stroke="#63b8ff" d="M235.89,-165.34C221.88,-157.23 201.07,-145.18 184.7,-135.71"/>
<polygon fill="#63b8ff" stroke="#63b8ff" points="186.9,-132.94 176.49,-130.96 183.39,-139 186.9,-132.94"/>
</a>
</g>
</g>
<!-- Node8&#45;&gt;Node9 -->
<g id="edge8_Node000008_Node000009" class="edge">
<title>Node8&#45;&gt;Node9</title>
<g id="a_edge8_Node000008_Node000009"><a xlink:title=" ">
<path fill="none" stroke="#63b8ff" d="M248.2,-165.58C245.67,-158.84 242.07,-149.27 238.87,-140.74"/>
<polygon fill="#63b8ff" stroke="#63b8ff" points="242.2,-139.66 235.41,-131.53 235.65,-142.12 242.2,-139.66"/>
</a>
</g>
</g>
<!-- Node10 -->
<g id="Node000010" class="node">
<title>Node10</title>
<g id="a_Node000010"><a xlink:title=" ">
<polygon fill="#e0e0e0" stroke="#999999" points="325.38,-129.75 275.62,-129.75 275.62,-110.5 325.38,-110.5 325.38,-129.75"/>
<text text-anchor="middle" x="300.5" y="-116.25" font-family="Helvetica,sans-Serif" font-size="10.00">iomanip</text>
</a>
</g>
</g>
<!-- Node8&#45;&gt;Node10 -->
<g id="edge9_Node000008_Node000010" class="edge">
<title>Node8&#45;&gt;Node10</title>
<g id="a_edge9_Node000008_Node000010"><a xlink:title=" ">
<path fill="none" stroke="#63b8ff" d="M259.59,-165.58C266.36,-158.23 276.22,-147.51 284.56,-138.44"/>
<polygon fill="#63b8ff" stroke="#63b8ff" points="287.01,-140.95 291.21,-131.22 281.86,-136.21 287.01,-140.95"/>
</a>
</g>
</g>
<!-- Node8&#45;&gt;Node11 -->
<g id="edge11_Node000008_Node000011" class="edge">
<title>Node8&#45;&gt;Node11</title>
<g id="a_edge11_Node000008_Node000011"><a xlink:title=" ">
<path fill="none" stroke="#63b8ff" d="M278.3,-167.41C314.14,-158.11 377.86,-141.55 418.6,-130.97"/>
<polygon fill="#63b8ff" stroke="#63b8ff" points="419.43,-134.37 428.23,-128.47 417.67,-127.6 419.43,-134.37"/>
</a>
</g>
</g>
<!-- Node16 -->
<g id="Node000016" class="node">
<title>Node16</title>
<g id="a_Node000016"><a xlink:href="_logging_8hpp.xhtml" target="_top" xlink:title=" ">
<polygon fill="white" stroke="#666666" points="411.75,-129.75 343.25,-129.75 343.25,-110.5 411.75,-110.5 411.75,-129.75"/>
<text text-anchor="middle" x="377.5" y="-116.25" font-family="Helvetica,sans-Serif" font-size="10.00">Logging.hpp</text>
</a>
</g>
</g>
<!-- Node8&#45;&gt;Node16 -->
<g id="edge17_Node000008_Node000016" class="edge">
<title>Node8&#45;&gt;Node16</title>
<g id="a_edge17_Node000008_Node000016"><a xlink:title=" ">
<path fill="none" stroke="#63b8ff" d="M272.87,-165.34C292.79,-156.93 322.74,-144.27 345.5,-134.65"/>
<polygon fill="#63b8ff" stroke="#63b8ff" points="346.78,-137.91 354.63,-130.79 344.05,-131.46 346.78,-137.91"/>
</a>
</g>
</g>
<!-- Node11&#45;&gt;Node12 -->
<g id="edge12_Node000011_Node000012" class="edge">
<title>Node11&#45;&gt;Node12</title>
<g id="a_edge12_Node000011_Node000012"><a xlink:title=" ">
<path fill="none" stroke="#63b8ff" d="M467.06,-110.03C480.6,-97.25 500.92,-73.5 488.5,-55.25 470.93,-29.42 435.88,-18.54 409.44,-13.96"/>
<polygon fill="#63b8ff" stroke="#63b8ff" points="410.26,-10.54 399.86,-12.53 409.23,-17.47 410.26,-10.54"/>
</a>
</g>
</g>
<!-- Node11&#45;&gt;Node13 -->
<g id="edge13_Node000011_Node000013" class="edge">
<title>Node11&#45;&gt;Node13</title>
<g id="a_edge13_Node000011_Node000013"><a xlink:title=" ">
<path fill="none" stroke="#63b8ff" d="M429.89,-110.21C401.95,-100.85 358.06,-86.16 328.55,-76.28"/>
<polygon fill="#63b8ff" stroke="#63b8ff" points="329.67,-72.96 319.07,-73.1 327.44,-79.59 329.67,-72.96"/>
</a>
</g>
</g>
<!-- Node14 -->
<g id="Node000014" class="node">
<title>Node14</title>
<g id="a_Node000014"><a xlink:title=" ">
<polygon fill="#e0e0e0" stroke="#999999" points="479.12,-74.5 433.88,-74.5 433.88,-55.25 479.12,-55.25 479.12,-74.5"/>
<text text-anchor="middle" x="456.5" y="-61" font-family="Helvetica,sans-Serif" font-size="10.00">chrono</text>
</a>
</g>
</g>
<!-- Node11&#45;&gt;Node14 -->
<g id="edge14_Node000011_Node000014" class="edge">
<title>Node11&#45;&gt;Node14</title>
<g id="a_edge14_Node000011_Node000014"><a xlink:title=" ">
<path fill="none" stroke="#63b8ff" d="M456.5,-110.33C456.5,-103.82 456.5,-94.67 456.5,-86.37"/>
<polygon fill="#63b8ff" stroke="#63b8ff" points="460,-86.37 456.5,-76.37 453,-86.37 460,-86.37"/>
</a>
</g>
</g>
<!-- Node15 -->
<g id="Node000015" class="node">
<title>Node15</title>
<g id="a_Node000015"><a xlink:href="_machine_i_d_8hpp.xhtml" target="_top" xlink:title=" ">
<polygon fill="white" stroke="#666666" points="415.75,-74.5 335.25,-74.5 335.25,-55.25 415.75,-55.25 415.75,-74.5"/>
<text text-anchor="middle" x="375.5" y="-61" font-family="Helvetica,sans-Serif" font-size="10.00">MachineID.hpp</text>
</a>
</g>
</g>
<!-- Node11&#45;&gt;Node15 -->
<g id="edge15_Node000011_Node000015" class="edge">
<title>Node11&#45;&gt;Node15</title>
<g id="a_edge15_Node000011_Node000015"><a xlink:title=" ">
<path fill="none" stroke="#63b8ff" d="M442.76,-110.09C430.77,-102.21 413.13,-90.61 398.92,-81.27"/>
<polygon fill="#63b8ff" stroke="#63b8ff" points="400.85,-78.35 390.57,-75.78 397.01,-84.2 400.85,-78.35"/>
</a>
</g>
</g>
<!-- Node15&#45;&gt;Node12 -->
<g id="edge16_Node000015_Node000012" class="edge">
<title>Node15&#45;&gt;Node12</title>
<g id="a_edge16_Node000015_Node000012"><a xlink:title=" ">
<path fill="none" stroke="#63b8ff" d="M375.5,-55.08C375.5,-48.57 375.5,-39.42 375.5,-31.12"/>
<polygon fill="#63b8ff" stroke="#63b8ff" points="379,-31.12 375.5,-21.12 372,-31.12 379,-31.12"/>
</a>
</g>
</g>
<!-- Node17 -->
<g id="Node000017" class="node">
<title>Node17</title>
<g id="a_Node000017"><a xlink:title=" ">
<polygon fill="#e0e0e0" stroke="#999999" points="259.12,-74.5 201.88,-74.5 201.88,-55.25 259.12,-55.25 259.12,-74.5"/>
<text text-anchor="middle" x="230.5" y="-61" font-family="Helvetica,sans-Serif" font-size="10.00">esp_log.h</text>
</a>
</g>
</g>
<!-- Node16&#45;&gt;Node17 -->
<g id="edge18_Node000016_Node000017" class="edge">
<title>Node16&#45;&gt;Node17</title>
<g id="a_edge18_Node000016_Node000017"><a xlink:title=" ">
<path fill="none" stroke="#63b8ff" d="M352.56,-110.09C328.81,-101.49 292.79,-88.44 266.04,-78.75"/>
<polygon fill="#63b8ff" stroke="#63b8ff" points="267.58,-75.58 256.98,-75.47 265.19,-82.16 267.58,-75.58"/>
</a>
</g>
</g>
</g>
</svg>
