<?xml version="1.0" encoding="UTF-8" standalone="no"?>
<!DOCTYPE svg PUBLIC "-//W3C//DTD SVG 1.1//EN"
 "http://www.w3.org/Graphics/SVG/1.1/DTD/svg11.dtd">
<!-- Generated by graphviz version 9.0.0 (20230911.1827)
 -->
<!-- Title: WhiteList.hpp Pages: 1 -->
<svg width="624pt" height="248pt"
 viewBox="0.00 0.00 623.50 248.25" xmlns="http://www.w3.org/2000/svg" xmlns:xlink="http://www.w3.org/1999/xlink">
<g id="graph0" class="graph" transform="scale(1 1) rotate(0) translate(4 244.25)">
<title>WhiteList.hpp</title>
<!-- Node1 -->
<g id="Node000001" class="node">
<title>Node1</title>
<g id="a_Node000001"><a xlink:title=" ">
<polygon fill="#999999" stroke="#666666" points="350.38,-240.25 275.12,-240.25 275.12,-221 350.38,-221 350.38,-240.25"/>
<text text-anchor="middle" x="312.75" y="-226.75" font-family="Helvetica,sans-Serif" font-size="10.00">WhiteList.hpp</text>
</a>
</g>
</g>
<!-- Node2 -->
<g id="Node000002" class="node">
<title>Node2</title>
<g id="a_Node000002"><a xlink:href="_auth_provider_8hpp.xhtml" target="_top" xlink:title=" ">
<polygon fill="white" stroke="#666666" points="357.88,-185 267.62,-185 267.62,-165.75 357.88,-165.75 357.88,-185"/>
<text text-anchor="middle" x="312.75" y="-171.5" font-family="Helvetica,sans-Serif" font-size="10.00">AuthProvider.hpp</text>
</a>
</g>
</g>
<!-- Node1&#45;&gt;Node2 -->
<g id="edge1_Node000001_Node000002" class="edge">
<title>Node1&#45;&gt;Node2</title>
<g id="a_edge1_Node000001_Node000002"><a xlink:title=" ">
<path fill="none" stroke="#63b8ff" d="M312.75,-209.38C312.75,-201.09 312.75,-191.92 312.75,-185.36"/>
<polygon fill="#63b8ff" stroke="#63b8ff" points="309.25,-209.32 312.75,-219.32 316.25,-209.32 309.25,-209.32"/>
</a>
</g>
</g>
<!-- Node3 -->
<g id="Node000003" class="node">
<title>Node3</title>
<g id="a_Node000003"><a xlink:href="_auth_provider_8cpp.xhtml" target="_top" xlink:title=" ">
<polygon fill="white" stroke="#666666" points="214.88,-129.75 124.62,-129.75 124.62,-110.5 214.88,-110.5 214.88,-129.75"/>
<text text-anchor="middle" x="169.75" y="-116.25" font-family="Helvetica,sans-Serif" font-size="10.00">AuthProvider.cpp</text>
</a>
</g>
</g>
<!-- Node2&#45;&gt;Node3 -->
<g id="edge2_Node000002_Node000003" class="edge">
<title>Node2&#45;&gt;Node3</title>
<g id="a_edge2_Node000002_Node000003"><a xlink:title=" ">
<path fill="none" stroke="#63b8ff" d="M277.97,-161.42C252,-151.75 217.18,-138.79 194.13,-130.2"/>
<polygon fill="#63b8ff" stroke="#63b8ff" points="276.48,-164.6 287.07,-164.81 278.92,-158.04 276.48,-164.6"/>
</a>
</g>
</g>
<!-- Node4 -->
<g id="Node000004" class="node">
<title>Node4</title>
<g id="a_Node000004"><a xlink:href="_board_logic_8cpp.xhtml" target="_top" xlink:title=" ">
<polygon fill="white" stroke="#666666" points="83.5,-74.5 0,-74.5 0,-55.25 83.5,-55.25 83.5,-74.5"/>
<text text-anchor="middle" x="41.75" y="-61" font-family="Helvetica,sans-Serif" font-size="10.00">BoardLogic.cpp</text>
</a>
</g>
</g>
<!-- Node2&#45;&gt;Node4 -->
<g id="edge3_Node000002_Node000004" class="edge">
<title>Node2&#45;&gt;Node4</title>
<g id="a_edge3_Node000002_Node000004"><a xlink:title=" ">
<path fill="none" stroke="#63b8ff" d="M294.43,-157.98C277.3,-143.48 250.42,-122.78 223.75,-110.5 178.24,-89.55 121.62,-77.65 83.73,-71.5"/>
<polygon fill="#63b8ff" stroke="#63b8ff" points="291.89,-160.41 301.73,-164.31 296.47,-155.12 291.89,-160.41"/>
</a>
</g>
</g>
<!-- Node5 -->
<g id="Node000005" class="node">
<title>Node5</title>
<g id="a_Node000005"><a xlink:href="_board_logic_8hpp.xhtml" target="_top" xlink:title=" ">
<polygon fill="white" stroke="#666666" points="354.5,-129.75 271,-129.75 271,-110.5 354.5,-110.5 354.5,-129.75"/>
<text text-anchor="middle" x="312.75" y="-116.25" font-family="Helvetica,sans-Serif" font-size="10.00">BoardLogic.hpp</text>
</a>
</g>
</g>
<!-- Node2&#45;&gt;Node5 -->
<g id="edge4_Node000002_Node000005" class="edge">
<title>Node2&#45;&gt;Node5</title>
<g id="a_edge4_Node000002_Node000005"><a xlink:title=" ">
<path fill="none" stroke="#63b8ff" d="M312.75,-154.13C312.75,-145.84 312.75,-136.67 312.75,-130.11"/>
<polygon fill="#63b8ff" stroke="#63b8ff" points="309.25,-154.07 312.75,-164.07 316.25,-154.07 309.25,-154.07"/>
</a>
</g>
</g>
<!-- Node7 -->
<g id="Node000007" class="node">
<title>Node7</title>
<g id="a_Node000007"><a xlink:href="globals_8hpp.xhtml" target="_top" xlink:title=" ">
<polygon fill="white" stroke="#666666" points="490.12,-74.5 425.38,-74.5 425.38,-55.25 490.12,-55.25 490.12,-74.5"/>
<text text-anchor="middle" x="457.75" y="-61" font-family="Helvetica,sans-Serif" font-size="10.00">globals.hpp</text>
</a>
</g>
</g>
<!-- Node2&#45;&gt;Node7 -->
<g id="edge18_Node000002_Node000007" class="edge">
<title>Node2&#45;&gt;Node7</title>
<g id="a_edge18_Node000002_Node000007"><a xlink:title=" ">
<path fill="none" stroke="#63b8ff" d="M333.64,-158.75C364.43,-135.7 421.04,-93.34 445.72,-74.88"/>
<polygon fill="#63b8ff" stroke="#63b8ff" points="331.74,-155.8 325.83,-164.59 335.93,-161.4 331.74,-155.8"/>
</a>
</g>
</g>
<!-- Node13 -->
<g id="Node000013" class="node">
<title>Node13</title>
<g id="a_Node000013"><a xlink:href="test__savedconfig_8cpp.xhtml" target="_top" xlink:title=" ">
<polygon fill="white" stroke="#666666" points="615.5,-74.5 508,-74.5 508,-55.25 615.5,-55.25 615.5,-74.5"/>
<text text-anchor="middle" x="561.75" y="-61" font-family="Helvetica,sans-Serif" font-size="10.00">test_savedconfig.cpp</text>
</a>
</g>
</g>
<!-- Node2&#45;&gt;Node13 -->
<g id="edge19_Node000002_Node000013" class="edge">
<title>Node2&#45;&gt;Node13</title>
<g id="a_edge19_Node000002_Node000013"><a xlink:title=" ">
<path fill="none" stroke="#63b8ff" d="M344.05,-160.73C395.62,-138.27 497.06,-94.06 540.83,-74.99"/>
<polygon fill="#63b8ff" stroke="#63b8ff" points="342.71,-157.5 334.94,-164.71 345.5,-163.92 342.71,-157.5"/>
</a>
</g>
</g>
<!-- Node5&#45;&gt;Node4 -->
<g id="edge5_Node000005_Node000004" class="edge">
<title>Node5&#45;&gt;Node4</title>
<g id="a_edge5_Node000005_Node000004"><a xlink:title=" ">
<path fill="none" stroke="#63b8ff" d="M259.49,-108.66C208.06,-98.55 131.21,-83.45 83.9,-74.16"/>
<polygon fill="#63b8ff" stroke="#63b8ff" points="258.73,-112.08 269.22,-110.57 260.08,-105.21 258.73,-112.08"/>
</a>
</g>
</g>
<!-- Node6 -->
<g id="Node000006" class="node">
<title>Node6</title>
<g id="a_Node000006"><a xlink:href="_o_t_a_8cpp.xhtml" target="_top" xlink:title=" ">
<polygon fill="white" stroke="#666666" points="369.88,-74.5 315.62,-74.5 315.62,-55.25 369.88,-55.25 369.88,-74.5"/>
<text text-anchor="middle" x="342.75" y="-61" font-family="Helvetica,sans-Serif" font-size="10.00">OTA.cpp</text>
</a>
</g>
</g>
<!-- Node5&#45;&gt;Node6 -->
<g id="edge6_Node000005_Node000006" class="edge">
<title>Node5&#45;&gt;Node6</title>
<g id="a_edge6_Node000005_Node000006"><a xlink:title=" ">
<path fill="none" stroke="#63b8ff" d="M323.34,-100.33C328.22,-91.67 333.77,-81.81 337.69,-74.86"/>
<polygon fill="#63b8ff" stroke="#63b8ff" points="320.31,-98.58 318.45,-109.01 326.4,-102.02 320.31,-98.58"/>
</a>
</g>
</g>
<!-- Node5&#45;&gt;Node7 -->
<g id="edge7_Node000005_Node000007" class="edge">
<title>Node5&#45;&gt;Node7</title>
<g id="a_edge7_Node000005_Node000007"><a xlink:title=" ">
<path fill="none" stroke="#63b8ff" d="M348.02,-106.17C374.34,-96.5 409.66,-83.54 433.03,-74.95"/>
<polygon fill="#63b8ff" stroke="#63b8ff" points="346.95,-102.84 338.77,-109.57 349.36,-109.41 346.95,-102.84"/>
</a>
</g>
</g>
<!-- Node8 -->
<g id="Node000008" class="node">
<title>Node8</title>
<g id="a_Node000008"><a xlink:href="main_8cpp.xhtml" target="_top" xlink:title=" ">
<polygon fill="white" stroke="#666666" points="446.25,-19.25 391.25,-19.25 391.25,0 446.25,0 446.25,-19.25"/>
<text text-anchor="middle" x="418.75" y="-5.75" font-family="Helvetica,sans-Serif" font-size="10.00">main.cpp</text>
</a>
</g>
</g>
<!-- Node5&#45;&gt;Node8 -->
<g id="edge9_Node000005_Node000008" class="edge">
<title>Node5&#45;&gt;Node8</title>
<g id="a_edge9_Node000005_Node000008"><a xlink:title=" ">
<path fill="none" stroke="#63b8ff" d="M339.87,-104.35C352.61,-96.56 367.45,-86.2 378.75,-74.5 395.11,-57.56 408.24,-32.86 414.59,-19.69"/>
<polygon fill="#63b8ff" stroke="#63b8ff" points="338.36,-101.18 331.5,-109.26 341.9,-107.22 338.36,-101.18"/>
</a>
</g>
</g>
<!-- Node9 -->
<g id="Node000009" class="node">
<title>Node9</title>
<g id="a_Node000009"><a xlink:href="test__common_8cpp.xhtml" target="_top" xlink:title=" ">
<polygon fill="white" stroke="#666666" points="344.38,-19.25 251.12,-19.25 251.12,0 344.38,0 344.38,-19.25"/>
<text text-anchor="middle" x="297.75" y="-5.75" font-family="Helvetica,sans-Serif" font-size="10.00">test_common.cpp</text>
</a>
</g>
</g>
<!-- Node5&#45;&gt;Node9 -->
<g id="edge10_Node000005_Node000009" class="edge">
<title>Node5&#45;&gt;Node9</title>
<g id="a_edge10_Node000005_Node000009"><a xlink:title=" ">
<path fill="none" stroke="#63b8ff" d="M309.98,-99.1C306.71,-75.4 301.39,-36.97 298.99,-19.63"/>
<polygon fill="#63b8ff" stroke="#63b8ff" points="306.48,-99.32 311.32,-108.75 313.41,-98.36 306.48,-99.32"/>
</a>
</g>
</g>
<!-- Node10 -->
<g id="Node000010" class="node">
<title>Node10</title>
<g id="a_Node000010"><a xlink:href="test__common_8h.xhtml" target="_top" xlink:title=" ">
<polygon fill="white" stroke="#666666" points="222.12,-74.5 139.38,-74.5 139.38,-55.25 222.12,-55.25 222.12,-74.5"/>
<text text-anchor="middle" x="180.75" y="-61" font-family="Helvetica,sans-Serif" font-size="10.00">test_common.h</text>
</a>
</g>
</g>
<!-- Node5&#45;&gt;Node10 -->
<g id="edge11_Node000005_Node000010" class="edge">
<title>Node5&#45;&gt;Node10</title>
<g id="a_edge11_Node000005_Node000010"><a xlink:title=" ">
<path fill="none" stroke="#63b8ff" d="M280,-105.91C256.1,-96.27 224.34,-83.46 203.25,-74.95"/>
<polygon fill="#63b8ff" stroke="#63b8ff" points="278.37,-109.03 288.95,-109.53 280.99,-102.54 278.37,-109.03"/>
</a>
</g>
</g>
<!-- Node11 -->
<g id="Node000011" class="node">
<title>Node11</title>
<g id="a_Node000011"><a xlink:href="test__logic_8cpp.xhtml" target="_top" xlink:title=" ">
<polygon fill="white" stroke="#666666" points="139.75,-19.25 63.75,-19.25 63.75,0 139.75,0 139.75,-19.25"/>
<text text-anchor="middle" x="101.75" y="-5.75" font-family="Helvetica,sans-Serif" font-size="10.00">test_logic.cpp</text>
</a>
</g>
</g>
<!-- Node5&#45;&gt;Node11 -->
<g id="edge15_Node000005_Node000011" class="edge">
<title>Node5&#45;&gt;Node11</title>
<g id="a_edge15_Node000005_Node000011"><a xlink:title=" ">
<path fill="none" stroke="#63b8ff" d="M259.74,-108.58C209.67,-98.23 140.79,-82.83 130.75,-74.5 113.5,-60.19 106.07,-33.45 103.25,-19.55"/>
<polygon fill="#63b8ff" stroke="#63b8ff" points="258.76,-111.95 269.26,-110.53 260.16,-105.1 258.76,-111.95"/>
</a>
</g>
</g>
<!-- Node12 -->
<g id="Node000012" class="node">
<title>Node12</title>
<g id="a_Node000012"><a xlink:href="test__mqtt_8cpp.xhtml" target="_top" xlink:title=" ">
<polygon fill="white" stroke="#666666" points="233.38,-19.25 158.12,-19.25 158.12,0 233.38,0 233.38,-19.25"/>
<text text-anchor="middle" x="195.75" y="-5.75" font-family="Helvetica,sans-Serif" font-size="10.00">test_mqtt.cpp</text>
</a>
</g>
</g>
<!-- Node5&#45;&gt;Node12 -->
<g id="edge16_Node000005_Node000012" class="edge">
<title>Node5&#45;&gt;Node12</title>
<g id="a_edge16_Node000005_Node000012"><a xlink:title=" ">
<path fill="none" stroke="#63b8ff" d="M294.92,-102.59C269.86,-79.36 225.11,-37.85 205.46,-19.63"/>
<polygon fill="#63b8ff" stroke="#63b8ff" points="292.35,-104.98 302.07,-109.22 297.11,-99.85 292.35,-104.98"/>
</a>
</g>
</g>
<!-- Node5&#45;&gt;Node13 -->
<g id="edge17_Node000005_Node000013" class="edge">
<title>Node5&#45;&gt;Node13</title>
<g id="a_edge17_Node000005_Node000013"><a xlink:title=" ">
<path fill="none" stroke="#63b8ff" d="M366.19,-107.7C411.97,-97.91 477.02,-84 519.3,-74.95"/>
<polygon fill="#63b8ff" stroke="#63b8ff" points="365.52,-104.26 356.47,-109.78 366.98,-111.11 365.52,-104.26"/>
</a>
</g>
</g>
<!-- Node7&#45;&gt;Node8 -->
<g id="edge8_Node000007_Node000008" class="edge">
<title>Node7&#45;&gt;Node8</title>
<g id="a_edge8_Node000007_Node000008"><a xlink:title=" ">
<path fill="none" stroke="#63b8ff" d="M444.61,-45.94C438.13,-37.09 430.59,-26.79 425.33,-19.61"/>
<polygon fill="#63b8ff" stroke="#63b8ff" points="441.68,-47.86 450.42,-53.86 447.33,-43.73 441.68,-47.86"/>
</a>
</g>
</g>
<!-- Node10&#45;&gt;Node9 -->
<g id="edge12_Node000010_Node000009" class="edge">
<title>Node10&#45;&gt;Node9</title>
<g id="a_edge12_Node000010_Node000009"><a xlink:title=" ">
<path fill="none" stroke="#63b8ff" d="M210.93,-50.14C231.97,-40.56 259.45,-28.06 277.81,-19.7"/>
<polygon fill="#63b8ff" stroke="#63b8ff" points="209.63,-46.89 201.98,-54.21 212.53,-53.26 209.63,-46.89"/>
</a>
</g>
</g>
<!-- Node10&#45;&gt;Node11 -->
<g id="edge13_Node000010_Node000011" class="edge">
<title>Node10&#45;&gt;Node11</title>
<g id="a_edge13_Node000010_Node000011"><a xlink:title=" ">
<path fill="none" stroke="#63b8ff" d="M157.99,-48.53C144.14,-39.2 126.93,-27.6 115.22,-19.7"/>
<polygon fill="#63b8ff" stroke="#63b8ff" points="155.85,-51.31 166.09,-54 159.76,-45.5 155.85,-51.31"/>
</a>
</g>
</g>
<!-- Node10&#45;&gt;Node12 -->
<g id="edge14_Node000010_Node000012" class="edge">
<title>Node10&#45;&gt;Node12</title>
<g id="a_edge14_Node000010_Node000012"><a xlink:title=" ">
<path fill="none" stroke="#63b8ff" d="M186.29,-44.21C188.67,-35.77 191.33,-26.33 193.22,-19.61"/>
<polygon fill="#63b8ff" stroke="#63b8ff" points="182.98,-43.05 183.64,-53.63 189.72,-44.95 182.98,-43.05"/>
</a>
</g>
</g>
</g>
</svg>
