<?xml version="1.0" encoding="UTF-8" standalone="no"?>
<!DOCTYPE svg PUBLIC "-//W3C//DTD SVG 1.1//EN"
 "http://www.w3.org/Graphics/SVG/1.1/DTD/svg11.dtd">
<!-- Generated by graphviz version 9.0.0 (20230911.1827)
 -->
<!-- Title: fabomatic::AuthProvider::tryLogin Pages: 1 -->
<!--zoomable 387 -->

<svg id="main" version="1.1" xmlns="http://www.w3.org/2000/svg" xmlns:xlink="http://www.w3.org/1999/xlink" xml:space="preserve" onload="init(evt)">
<style type="text/css"><![CDATA[
.node, .edge {opacity: 0.7;}
.node.selected, .edge.selected {opacity: 1;}
.edge:hover path { stroke: red; }
.edge:hover polygon { stroke: red; fill: red; }
]]></style>

<defs>
  <circle id="rim" cx="0" cy="0" r="7"/>
  <circle id="rim2" cx="0" cy="0" r="3.5"/>
  <g id="zoomPlus">
    <use xlink:href="#rim" fill="#404040"><set attributeName="fill" to="#808080" begin="zoomplus.mouseover" end="zoomplus.mouseout"/></use>
    <path d="M-4,0h8M0,-4v8" fill="none" stroke="white" stroke-width="1.5" pointer-events="none"/>
  </g>
  <g id="zoomMin">
    <use xlink:href="#rim" fill="#404040"><set attributeName="fill" to="#808080" begin="zoomminus.mouseover" end="zoomminus.mouseout"/></use>
    <path d="M-4,0h8" fill="none" stroke="white" stroke-width="1.5" pointer-events="none"/>
  </g>
  <g id="arrowUp" transform="translate(30 24)">
    <use xlink:href="#rim"/>
    <path pointer-events="none" fill="none" stroke="white" stroke-width="1.5" d="M0,-3.0v7 M-2.5,-0.5L0,-3.0L2.5,-0.5"/>
  </g>
  <g id="arrowRight" transform="rotate(90) translate(36 -43)">
    <use xlink:href="#rim"/>
    <path pointer-events="none" fill="none" stroke="white" stroke-width="1.5" d="M0,-3.0v7 M-2.5,-0.5L0,-3.0L2.5,-0.5"/>
  </g>
  <g id="arrowDown" transform="rotate(180) translate(-30 -48)">
    <use xlink:href="#rim"/>
    <path pointer-events="none" fill="none" stroke="white" stroke-width="1.5" d="M0,-3.0v7 M-2.5,-0.5L0,-3.0L2.5,-0.5"/>
  </g>
  <g id="arrowLeft" transform="rotate(270) translate(-36 17)">
    <use xlink:href="#rim"/>
    <path pointer-events="none" fill="none" stroke="white" stroke-width="1.5" d="M0,-3.0v7 M-2.5,-0.5L0,-3.0L2.5,-0.5"/>
  </g>
  <g id="resetDef">
    <use xlink:href="#rim2" fill="#404040"><set attributeName="fill" to="#808080" begin="reset.mouseover" end="reset.mouseout"/></use>
  </g>
</defs>
<script type="application/ecmascript">
var viewWidth = 772;
var viewHeight = 387;
var sectionId = 'dynsection-5';
</script>
<script type="application/ecmascript" xlink:href="svg.min.js"/>
<svg id="graph" class="graph">
<g id="viewport">
<title>fabomatic::AuthProvider::tryLogin</title>
<!-- Node1 -->
<g id="Node000001" class="node">
<title>Node1</title>
<g id="a_Node000001"><a xlink:title="Verifies the card ID against the server (if available) or the whitelist.">
<polygon fill="#999999" stroke="#666666" points="119.5,-131.88 0,-131.88 0,-101.38 119.5,-101.38 119.5,-131.88"/>
<text text-anchor="start" x="8" y="-118.38" font-family="Helvetica,sans-Serif" font-size="10.00">fabomatic::AuthProvider</text>
<text text-anchor="middle" x="59.75" y="-107.12" font-family="Helvetica,sans-Serif" font-size="10.00">::tryLogin</text>
</a>
</g>
</g>
<!-- Node2 -->
<g id="Node000002" class="node">
<title>Node2</title>
<g id="a_Node000002"><a xlink:href="classfabomatic_1_1_fab_backend.xhtml#a0e4d6d289b03582bf6ea9e78e15dd79e" target="_top" xlink:title="Checks if the card ID is known to the server.">
<polygon fill="white" stroke="#666666" points="273.5,-300.88 155.5,-300.88 155.5,-270.38 273.5,-270.38 273.5,-300.88"/>
<text text-anchor="start" x="163.5" y="-287.38" font-family="Helvetica,sans-Serif" font-size="10.00">fabomatic::FabBackend</text>
<text text-anchor="middle" x="214.5" y="-276.12" font-family="Helvetica,sans-Serif" font-size="10.00">::checkCard</text>
</a>
</g>
</g>
<!-- Node1&#45;&gt;Node2 -->
<g id="edge1_Node000001_Node000002" class="edge">
<title>Node1&#45;&gt;Node2</title>
<g id="a_edge1_Node000001_Node000002"><a xlink:title=" ">
<path fill="none" stroke="#63b8ff" d="M67.3,-132.2C80.19,-161.16 111.48,-223.7 155.5,-260.62 156.94,-261.84 158.46,-263 160.02,-264.11"/>
<polygon fill="#63b8ff" stroke="#63b8ff" points="157.81,-266.86 168.15,-269.16 161.5,-260.91 157.81,-266.86"/>
</a>
</g>
</g>
<!-- Node3 -->
<g id="Node000003" class="node">
<title>Node3</title>
<g id="a_Node000003"><a xlink:href="classfabomatic_1_1_fab_backend.xhtml#a1a45f556aadcbc428d14b7c7577ed43d" target="_top" xlink:title="Establishes a connection to the WiFi network and the MQTT server.">
<polygon fill="white" stroke="#666666" points="273.5,-251.88 155.5,-251.88 155.5,-221.38 273.5,-221.38 273.5,-251.88"/>
<text text-anchor="start" x="163.5" y="-238.38" font-family="Helvetica,sans-Serif" font-size="10.00">fabomatic::FabBackend</text>
<text text-anchor="middle" x="214.5" y="-227.12" font-family="Helvetica,sans-Serif" font-size="10.00">::connect</text>
</a>
</g>
</g>
<!-- Node1&#45;&gt;Node3 -->
<g id="edge2_Node000001_Node000003" class="edge">
<title>Node1&#45;&gt;Node3</title>
<g id="a_edge2_Node000001_Node000003"><a xlink:title=" ">
<path fill="none" stroke="#63b8ff" d="M80.72,-132.31C107.25,-153.15 154.3,-190.11 184.67,-213.98"/>
<polygon fill="#63b8ff" stroke="#63b8ff" points="182.31,-216.57 192.34,-220 186.63,-211.07 182.31,-216.57"/>
</a>
</g>
</g>
<!-- Node9 -->
<g id="Node000009" class="node">
<title>Node9</title>
<g id="a_Node000009"><a xlink:href="classfabomatic_1_1_fab_backend.xhtml#aef092e0e1db0c3539d5474fad2456255" target="_top" xlink:title="Indicates if the MQTT client is connected to the broker and backend is responsive.">
<polygon fill="white" stroke="#666666" points="273.5,-153.88 155.5,-153.88 155.5,-123.38 273.5,-123.38 273.5,-153.88"/>
<text text-anchor="start" x="163.5" y="-140.38" font-family="Helvetica,sans-Serif" font-size="10.00">fabomatic::FabBackend</text>
<text text-anchor="middle" x="214.5" y="-129.12" font-family="Helvetica,sans-Serif" font-size="10.00">::isOnline</text>
</a>
</g>
</g>
<!-- Node1&#45;&gt;Node9 -->
<g id="edge11_Node000001_Node000009" class="edge">
<title>Node1&#45;&gt;Node9</title>
<g id="a_edge11_Node000001_Node000009"><a xlink:title=" ">
<path fill="none" stroke="#63b8ff" d="M119.81,-125.13C127.68,-126.26 135.82,-127.44 143.85,-128.59"/>
<polygon fill="#63b8ff" stroke="#63b8ff" points="143.21,-132.04 153.6,-130 144.21,-125.11 143.21,-132.04"/>
</a>
</g>
</g>
<!-- Node11 -->
<g id="Node000011" class="node">
<title>Node11</title>
<g id="a_Node000011"><a xlink:href="classfabomatic_1_1_fab_backend.xhtml#a205b60a81c493f6fbdc695846be5d2ef" target="_top" xlink:title="when server is unresponsive, wait for a configurable time before to try again">
<polygon fill="white" stroke="#666666" points="581.5,-196.88 463.5,-196.88 463.5,-166.38 581.5,-166.38 581.5,-196.88"/>
<text text-anchor="start" x="471.5" y="-183.38" font-family="Helvetica,sans-Serif" font-size="10.00">fabomatic::FabBackend</text>
<text text-anchor="middle" x="522.5" y="-172.12" font-family="Helvetica,sans-Serif" font-size="10.00">::shouldFailFast</text>
</a>
</g>
</g>
<!-- Node1&#45;&gt;Node11 -->
<g id="edge13_Node000001_Node000011" class="edge">
<title>Node1&#45;&gt;Node11</title>
<g id="a_edge13_Node000001_Node000011"><a xlink:title=" ">
<path fill="none" stroke="#63b8ff" d="M119.93,-105.29C193.87,-93.59 323.34,-81.3 427.5,-114.62 454.57,-123.28 480.49,-142.91 498.23,-158.69"/>
<polygon fill="#63b8ff" stroke="#63b8ff" points="495.41,-160.85 505.14,-165.04 500.14,-155.7 495.41,-160.85"/>
</a>
</g>
</g>
<!-- Node12 -->
<g id="Node000012" class="node">
<title>Node12</title>
<g id="a_Node000012"><a xlink:href="structfabomatic_1_1_fab_user.xhtml#ab4b54f1830f1536824583e973d670582" target="_top" xlink:title=" ">
<polygon fill="white" stroke="#666666" points="264.88,-67.88 164.12,-67.88 164.12,-37.38 264.88,-37.38 264.88,-67.88"/>
<text text-anchor="start" x="172.12" y="-54.38" font-family="Helvetica,sans-Serif" font-size="10.00">fabomatic::FabUser</text>
<text text-anchor="middle" x="214.5" y="-43.12" font-family="Helvetica,sans-Serif" font-size="10.00">::toString</text>
</a>
</g>
</g>
<!-- Node1&#45;&gt;Node12 -->
<g id="edge15_Node000001_Node000012" class="edge">
<title>Node1&#45;&gt;Node12</title>
<g id="a_edge15_Node000001_Node000012"><a xlink:title=" ">
<path fill="none" stroke="#63b8ff" d="M98.12,-100.97C118.46,-92.45 143.85,-81.81 165.63,-72.68"/>
<polygon fill="#63b8ff" stroke="#63b8ff" points="166.72,-76.02 174.59,-68.93 164.02,-69.56 166.72,-76.02"/>
</a>
</g>
</g>
<!-- Node13 -->
<g id="Node000013" class="node">
<title>Node13</title>
<g id="a_Node000013"><a xlink:href="namespacefabomatic_1_1card.xhtml#aef091ec171625c69f9d4eab20ebaefec" target="_top" xlink:title="Returns a string representation of the UID.">
<polygon fill="white" stroke="#666666" points="272.38,-19.25 156.62,-19.25 156.62,0 272.38,0 272.38,-19.25"/>
<text text-anchor="middle" x="214.5" y="-5.75" font-family="Helvetica,sans-Serif" font-size="10.00">fabomatic::card::uid_str</text>
</a>
</g>
</g>
<!-- Node1&#45;&gt;Node13 -->
<g id="edge16_Node000001_Node000013" class="edge">
<title>Node1&#45;&gt;Node13</title>
<g id="a_edge16_Node000001_Node000013"><a xlink:title=" ">
<path fill="none" stroke="#63b8ff" d="M73.62,-101.09C90.53,-81.6 122.04,-48.34 155.5,-28.62 158.28,-26.99 161.22,-25.47 164.25,-24.07"/>
<polygon fill="#63b8ff" stroke="#63b8ff" points="165.42,-27.37 173.33,-20.31 162.75,-20.9 165.42,-27.37"/>
</a>
</g>
</g>
<!-- Node4 -->
<g id="Node000004" class="node">
<title>Node4</title>
<g id="a_Node000004"><a xlink:href="namespacefabomatic_1_1_tasks.xhtml#adc67d1313c6695d813feb935eafdaf60" target="_top" xlink:title=" ">
<polygon fill="white" stroke="#666666" points="764,-304.25 617.5,-304.25 617.5,-285 764,-285 764,-304.25"/>
<text text-anchor="middle" x="690.75" y="-290.75" font-family="Helvetica,sans-Serif" font-size="10.00">fabomatic::Tasks::arduinoNow</text>
</a>
</g>
</g>
<!-- Node3&#45;&gt;Node4 -->
<g id="edge3_Node000003_Node000004" class="edge">
<title>Node3&#45;&gt;Node4</title>
<g id="a_edge3_Node000003_Node000004"><a xlink:title=" ">
<path fill="none" stroke="#63b8ff" d="M261.38,-252.27C265.79,-254.95 269.94,-258.05 273.5,-261.62 302.42,-290.73 275.3,-323.97 309.5,-346.62 422.33,-421.37 595.52,-344.76 662.23,-309.93"/>
<polygon fill="#63b8ff" stroke="#63b8ff" points="663.49,-313.22 670.67,-305.43 660.19,-307.05 663.49,-313.22"/>
</a>
</g>
</g>
<!-- Node5 -->
<g id="Node000005" class="node">
<title>Node5</title>
<g id="a_Node000005"><a xlink:href="classfabomatic_1_1_fab_backend.xhtml#ad928751b2f967feaac0f2cb708c0d6e9" target="_top" xlink:title="Connects to the WiFi network.">
<polygon fill="white" stroke="#666666" points="427.5,-337.88 309.5,-337.88 309.5,-307.38 427.5,-307.38 427.5,-337.88"/>
<text text-anchor="start" x="317.5" y="-324.38" font-family="Helvetica,sans-Serif" font-size="10.00">fabomatic::FabBackend</text>
<text text-anchor="middle" x="368.5" y="-313.12" font-family="Helvetica,sans-Serif" font-size="10.00">::connectWiFi</text>
</a>
</g>
</g>
<!-- Node3&#45;&gt;Node5 -->
<g id="edge4_Node000003_Node000005" class="edge">
<title>Node3&#45;&gt;Node5</title>
<g id="a_edge4_Node000003_Node000005"><a xlink:title=" ">
<path fill="none" stroke="#63b8ff" d="M256.29,-252.23C262.22,-255.06 268.13,-258.21 273.5,-261.62 291.56,-273.12 291.77,-281.62 309.5,-293.62 313.6,-296.4 317.99,-299.07 322.47,-301.6"/>
<polygon fill="#63b8ff" stroke="#63b8ff" points="320.51,-304.52 330.98,-306.17 323.82,-298.36 320.51,-304.52"/>
</a>
</g>
</g>
<!-- Node6 -->
<g id="Node000006" class="node">
<title>Node6</title>
<g id="a_Node000006"><a xlink:href="namespacefabomatic_1_1_tasks.xhtml#a5c20f560f5934822d39ba116a16f3ab6" target="_top" xlink:title="Wait for a delay, allowing OTA updates.">
<polygon fill="white" stroke="#666666" points="581.12,-304.25 463.88,-304.25 463.88,-285 581.12,-285 581.12,-304.25"/>
<text text-anchor="middle" x="522.5" y="-290.75" font-family="Helvetica,sans-Serif" font-size="10.00">fabomatic::Tasks::delay</text>
</a>
</g>
</g>
<!-- Node3&#45;&gt;Node6 -->
<g id="edge8_Node000003_Node000006" class="edge">
<title>Node3&#45;&gt;Node6</title>
<g id="a_edge8_Node000003_Node000006"><a xlink:title=" ">
<path fill="none" stroke="#63b8ff" d="M273.73,-252.37C285.52,-255.31 297.87,-258.21 309.5,-260.62 356.87,-270.45 410.71,-279.05 452.27,-285.15"/>
<polygon fill="#63b8ff" stroke="#63b8ff" points="451.76,-288.61 462.16,-286.58 452.76,-281.68 451.76,-288.61"/>
</a>
</g>
</g>
<!-- Node7 -->
<g id="Node000007" class="node">
<title>Node7</title>
<g id="a_Node000007"><a xlink:href="classfabomatic_1_1_fab_backend.xhtml#a3ab102598ee93269de90a0170e024619" target="_top" xlink:title="Callback function for received MQTT messages.">
<polygon fill="white" stroke="#666666" points="427.5,-251.88 309.5,-251.88 309.5,-221.38 427.5,-221.38 427.5,-251.88"/>
<text text-anchor="start" x="317.5" y="-238.38" font-family="Helvetica,sans-Serif" font-size="10.00">fabomatic::FabBackend</text>
<text text-anchor="middle" x="368.5" y="-227.12" font-family="Helvetica,sans-Serif" font-size="10.00">::messageReceived</text>
</a>
</g>
</g>
<!-- Node3&#45;&gt;Node7 -->
<g id="edge9_Node000003_Node000007" class="edge">
<title>Node3&#45;&gt;Node7</title>
<g id="a_edge9_Node000003_Node000007"><a xlink:title=" ">
<path fill="none" stroke="#63b8ff" d="M273.83,-236.62C281.69,-236.62 289.8,-236.62 297.83,-236.62"/>
<polygon fill="#63b8ff" stroke="#63b8ff" points="297.56,-240.13 307.56,-236.63 297.56,-233.13 297.56,-240.13"/>
</a>
</g>
</g>
<!-- Node8 -->
<g id="Node000008" class="node">
<title>Node8</title>
<g id="a_Node000008"><a xlink:href="classfabomatic_1_1_fab_backend.xhtml#aee0cf549bea2daebc3e08742853d36c1" target="_top" xlink:title="Publishes a query on the MQTT server.">
<polygon fill="white" stroke="#666666" points="427.5,-202.88 309.5,-202.88 309.5,-172.38 427.5,-172.38 427.5,-202.88"/>
<text text-anchor="start" x="317.5" y="-189.38" font-family="Helvetica,sans-Serif" font-size="10.00">fabomatic::FabBackend</text>
<text text-anchor="middle" x="368.5" y="-178.12" font-family="Helvetica,sans-Serif" font-size="10.00">::publish</text>
</a>
</g>
</g>
<!-- Node3&#45;&gt;Node8 -->
<g id="edge10_Node000003_Node000008" class="edge">
<title>Node3&#45;&gt;Node8</title>
<g id="a_edge10_Node000003_Node000008"><a xlink:title=" ">
<path fill="none" stroke="#63b8ff" d="M264.01,-220.99C277.93,-216.5 293.27,-211.56 307.77,-206.88"/>
<polygon fill="#63b8ff" stroke="#63b8ff" points="308.78,-210.23 317.23,-203.83 306.63,-203.57 308.78,-210.23"/>
</a>
</g>
</g>
<!-- Node5&#45;&gt;Node6 -->
<g id="edge5_Node000005_Node000006" class="edge">
<title>Node5&#45;&gt;Node6</title>
<g id="a_edge5_Node000005_Node000006"><a xlink:title=" ">
<path fill="none" stroke="#63b8ff" d="M427.83,-311.88C436.88,-310.21 446.28,-308.48 455.48,-306.79"/>
<polygon fill="#63b8ff" stroke="#63b8ff" points="455.88,-310.27 465.08,-305.02 454.61,-303.39 455.88,-310.27"/>
</a>
</g>
</g>
<!-- Node6&#45;&gt;Node4 -->
<g id="edge6_Node000006_Node000004" class="edge">
<title>Node6&#45;&gt;Node4</title>
<g id="a_edge6_Node000006_Node000004"><a xlink:title=" ">
<path fill="none" stroke="#63b8ff" d="M581.18,-294.62C589.17,-294.62 597.52,-294.62 605.87,-294.62"/>
<polygon fill="#63b8ff" stroke="#63b8ff" points="605.72,-298.13 615.72,-294.63 605.72,-291.13 605.72,-298.13"/>
</a>
</g>
</g>
<!-- Node6&#45;&gt;Node6 -->
<g id="edge7_Node000006_Node000006" class="edge">
<title>Node6&#45;&gt;Node6</title>
<g id="a_edge7_Node000006_Node000006"><a xlink:title=" ">
<path fill="none" stroke="#63b8ff" d="M498.39,-304.54C487.39,-313.15 495.43,-322.25 522.5,-322.25 537.73,-322.25 546.93,-319.37 550.11,-315.32"/>
<polygon fill="#63b8ff" stroke="#63b8ff" points="553.5,-314.41 547.08,-305.98 546.84,-316.57 553.5,-314.41"/>
</a>
</g>
</g>
<!-- Node10 -->
<g id="Node000010" class="node">
<title>Node10</title>
<g id="a_Node000010"><a xlink:href="classfabomatic_1_1_fab_backend.xhtml#aacd5dfac21bd4b6ed71912198a038529" target="_top" xlink:title="Indicates if backend answers are received.">
<polygon fill="white" stroke="#666666" points="427.5,-153.88 309.5,-153.88 309.5,-123.38 427.5,-123.38 427.5,-153.88"/>
<text text-anchor="start" x="317.5" y="-140.38" font-family="Helvetica,sans-Serif" font-size="10.00">fabomatic::FabBackend</text>
<text text-anchor="middle" x="368.5" y="-129.12" font-family="Helvetica,sans-Serif" font-size="10.00">::isResponsive</text>
</a>
</g>
</g>
<!-- Node9&#45;&gt;Node10 -->
<g id="edge12_Node000009_Node000010" class="edge">
<title>Node9&#45;&gt;Node10</title>
<g id="a_edge12_Node000009_Node000010"><a xlink:title=" ">
<path fill="none" stroke="#63b8ff" d="M273.83,-138.62C281.69,-138.62 289.8,-138.62 297.83,-138.62"/>
<polygon fill="#63b8ff" stroke="#63b8ff" points="297.56,-142.13 307.56,-138.63 297.56,-135.13 297.56,-142.13"/>
</a>
</g>
</g>
<!-- Node11&#45;&gt;Node4 -->
<g id="edge14_Node000011_Node000004" class="edge">
<title>Node11&#45;&gt;Node4</title>
<g id="a_edge14_Node000011_Node000004"><a xlink:title=" ">
<path fill="none" stroke="#63b8ff" d="M546.62,-197.34C578.01,-218.68 633.87,-256.64 665.73,-278.3"/>
<polygon fill="#63b8ff" stroke="#63b8ff" points="663.68,-281.14 673.92,-283.86 667.61,-275.35 663.68,-281.14"/>
</a>
</g>
</g>
</g>
</svg>

<g id="navigator" transform="translate(0 0)" fill="#404254">
  <rect fill="#f2f5e9" fill-opacity="0.5" stroke="#606060" stroke-width=".5" x="0" y="0" width="60" height="60"/>
  <use id="zoomplus" xlink:href="#zoomPlus" x="17" y="9" onmousedown="handleZoom(evt,'in')"/>
  <use id="zoomminus" xlink:href="#zoomMin" x="42" y="9" onmousedown="handleZoom(evt,'out')"/>
  <use id="reset" xlink:href="#resetDef" x="30" y="36" onmousedown="handleReset()"/>
   <use id="arrowup" xlink:href="#arrowUp" x="0" y="0" onmousedown="handlePan(0,-1)"/>
  <use id="arrowright" xlink:href="#arrowRight" x="0" y="0" onmousedown="handlePan(1,0)"/>
  <use id="arrowdown" xlink:href="#arrowDown" x="0" y="0" onmousedown="handlePan(0,1)"/>
  <use id="arrowleft" xlink:href="#arrowLeft" x="0" y="0" onmousedown="handlePan(-1,0)"/>
</g>
<svg viewBox="0 0 15 15" width="100%" height="30px" preserveAspectRatio="xMaxYMin meet">
 <g id="arrow_out" transform="scale(0.3 0.3)">
  <a xlink:href="classfabomatic_1_1_auth_provider_aeae9923535dcf6cfa9eaf9e5f90e5e64_cgraph_org.svg" target="_base">
   <rect id="button" ry="5" rx="5" y="6" x="6" height="38" width="38"
        fill="#f2f5e9" fill-opacity="0.5" stroke="#606060" stroke-width="1.0"/>
   <path id="arrow"
     d="M 11.500037,31.436501 C 11.940474,20.09759 22.043105,11.32322 32.158766,21.979434 L 37.068811,17.246167 C 37.068811,17.246167 37.088388,32 37.088388,32 L 22.160133,31.978069 C 22.160133,31.978069 26.997745,27.140456 26.997745,27.140456 C 18.528582,18.264221 13.291696,25.230495 11.500037,31.436501 z"
     style="fill:#404040;"/>
  </a>
 </g>
</svg>

<style type='text/css'>
<![CDATA[
[data-mouse-over-selected='false'] { opacity: 0.7; }
[data-mouse-over-selected='true']  { opacity: 1.0; }
]]>
</style>
<script type="application/ecmascript"><![CDATA[
document.addEventListener('DOMContentLoaded', (event) => {
  highlightEdges();
  highlightAdjacentNodes();
});
]]></script>
</svg>
