<?xml version="1.0" encoding="UTF-8" standalone="no"?>
<!DOCTYPE svg PUBLIC "-//W3C//DTD SVG 1.1//EN"
 "http://www.w3.org/Graphics/SVG/1.1/DTD/svg11.dtd">
<!-- Generated by graphviz version 9.0.0 (20230911.1827)
 -->
<!-- Title: fabomatic::ServerMQTT::AliveQuery::payload Pages: 1 -->
<svg width="314pt" height="76pt"
 viewBox="0.00 0.00 313.75 75.88" xmlns="http://www.w3.org/2000/svg" xmlns:xlink="http://www.w3.org/1999/xlink">
<g id="graph0" class="graph" transform="scale(1 1) rotate(0) translate(4 71.88)">
<title>fabomatic::ServerMQTT::AliveQuery::payload</title>
<!-- Node1 -->
<g id="Node000001" class="node">
<title>Node1</title>
<g id="a_Node000001"><a xlink:title=" ">
<polygon fill="#999999" stroke="#666666" points="119.5,-45.88 0,-45.88 0,-15.37 119.5,-15.37 119.5,-45.88"/>
<text text-anchor="start" x="8" y="-32.38" font-family="Helvetica,sans-Serif" font-size="10.00">fabomatic::ServerMQTT</text>
<text text-anchor="middle" x="59.75" y="-21.12" font-family="Helvetica,sans-Serif" font-size="10.00">::AliveQuery::payload</text>
</a>
</g>
</g>
<!-- Node2 -->
<g id="Node000002" class="node">
<title>Node2</title>
<g id="a_Node000002"><a xlink:href="namespacefabomatic_1_1esp32.xhtml#ac8d867c42c073a3e44e6292db72e1f94" target="_top" xlink:title="Returns the ESP32 serial number as a string.">
<polygon fill="white" stroke="#666666" points="285.5,-67.88 175.75,-67.88 175.75,-37.38 285.5,-37.38 285.5,-67.88"/>
<text text-anchor="start" x="183.75" y="-54.38" font-family="Helvetica,sans-Serif" font-size="10.00">fabomatic::esp32::esp</text>
<text text-anchor="middle" x="230.62" y="-43.12" font-family="Helvetica,sans-Serif" font-size="10.00">_serial</text>
</a>
</g>
</g>
<!-- Node1&#45;&gt;Node2 -->
<g id="edge1_Node000001_Node000002" class="edge">
<title>Node1&#45;&gt;Node2</title>
<g id="a_edge1_Node000001_Node000002"><a xlink:title=" ">
<path fill="none" stroke="#63b8ff" d="M119.81,-38.32C134.22,-40.2 149.7,-42.21 164.37,-44.12"/>
<polygon fill="#63b8ff" stroke="#63b8ff" points="163.53,-47.54 173.9,-45.37 164.44,-40.6 163.53,-47.54"/>
</a>
</g>
</g>
<!-- Node3 -->
<g id="Node000003" class="node">
<title>Node3</title>
<g id="a_Node000003"><a xlink:href="namespacefabomatic_1_1esp32.xhtml#a07750a641e5cfe3207bbdf72813af628" target="_top" xlink:title=" ">
<polygon fill="white" stroke="#666666" points="305.75,-19.25 155.5,-19.25 155.5,0 305.75,0 305.75,-19.25"/>
<text text-anchor="middle" x="230.62" y="-5.75" font-family="Helvetica,sans-Serif" font-size="10.00">fabomatic::esp32::getFreeHeap</text>
</a>
</g>
</g>
<!-- Node1&#45;&gt;Node3 -->
<g id="edge2_Node000001_Node000003" class="edge">
<title>Node1&#45;&gt;Node3</title>
<g id="a_edge2_Node000001_Node000003"><a xlink:title=" ">
<path fill="none" stroke="#63b8ff" d="M119.81,-23.28C127.57,-22.32 135.64,-21.31 143.74,-20.31"/>
<polygon fill="#63b8ff" stroke="#63b8ff" points="144.16,-23.78 153.65,-19.07 143.3,-16.83 144.16,-23.78"/>
</a>
</g>
</g>
</g>
</svg>
