<?xml version="1.0" encoding="UTF-8" standalone="no"?>
<!DOCTYPE svg PUBLIC "-//W3C//DTD SVG 1.1//EN"
 "http://www.w3.org/Graphics/SVG/1.1/DTD/svg11.dtd">
<!-- Generated by graphviz version 9.0.0 (20230911.1827)
 -->
<!-- Title: fabomatic::BoardLogic::getMachineForTesting Pages: 1 -->
<svg width="536pt" height="235pt"
 viewBox="0.00 0.00 536.25 234.50" xmlns="http://www.w3.org/2000/svg" xmlns:xlink="http://www.w3.org/1999/xlink">
<g id="graph0" class="graph" transform="scale(1 1) rotate(0) translate(4 230.5)">
<title>fabomatic::BoardLogic::getMachineForTesting</title>
<!-- Node1 -->
<g id="Node000001" class="node">
<title>Node1</title>
<g id="a_Node000001"><a xlink:title="returns a modificable machine for testing only">
<polygon fill="#999999" stroke="#666666" points="528.25,-150.5 411,-150.5 411,-120 528.25,-120 528.25,-150.5"/>
<text text-anchor="start" x="419" y="-137" font-family="Helvetica,sans-Serif" font-size="10.00">fabomatic::BoardLogic</text>
<text text-anchor="middle" x="469.62" y="-125.75" font-family="Helvetica,sans-Serif" font-size="10.00">::getMachineForTesting</text>
</a>
</g>
</g>
<!-- Node2 -->
<g id="Node000002" class="node">
<title>Node2</title>
<g id="a_Node000002"><a xlink:href="namespacefabomatic_1_1tests.xhtml#a6a7645a865dc822746f972ea6f43224d" target="_top" xlink:title="Resets machine to initial state, clearing flags.">
<polygon fill="white" stroke="#666666" points="375,-125.88 230.75,-125.88 230.75,-106.62 375,-106.62 375,-125.88"/>
<text text-anchor="middle" x="302.88" y="-112.38" font-family="Helvetica,sans-Serif" font-size="10.00">fabomatic::tests::machine_init</text>
</a>
</g>
</g>
<!-- Node1&#45;&gt;Node2 -->
<g id="edge1_Node000001_Node000002" class="edge">
<title>Node1&#45;&gt;Node2</title>
<g id="a_edge1_Node000001_Node000002"><a xlink:title=" ">
<path fill="none" stroke="#63b8ff" d="M399.14,-127.24C391.25,-126.33 383.21,-125.4 375.3,-124.49"/>
<polygon fill="#63b8ff" stroke="#63b8ff" points="398.7,-130.71 409.04,-128.38 399.5,-123.76 398.7,-130.71"/>
</a>
</g>
</g>
<!-- Node3 -->
<g id="Node000003" class="node">
<title>Node3</title>
<g id="a_Node000003"><a xlink:href="namespacefabomatic_1_1tests.xhtml#a558e2287db01a4622581246a19dac397" target="_top" xlink:title=" ">
<polygon fill="white" stroke="#666666" points="188.38,-226.5 82.38,-226.5 82.38,-196 188.38,-196 188.38,-226.5"/>
<text text-anchor="start" x="90.38" y="-213" font-family="Helvetica,sans-Serif" font-size="10.00">fabomatic::tests::test</text>
<text text-anchor="middle" x="135.38" y="-201.75" font-family="Helvetica,sans-Serif" font-size="10.00">_machine_allowed</text>
</a>
</g>
</g>
<!-- Node1&#45;&gt;Node3 -->
<g id="edge12_Node000001_Node000003" class="edge">
<title>Node1&#45;&gt;Node3</title>
<g id="a_edge12_Node000001_Node000003"><a xlink:title=" ">
<path fill="none" stroke="#63b8ff" d="M405.83,-154.09C395.56,-156.96 385.01,-159.78 375,-162.25 311.35,-177.94 237.3,-192.59 188.77,-201.71"/>
<polygon fill="#63b8ff" stroke="#63b8ff" points="406.7,-157.48 415.36,-151.39 404.79,-150.75 406.7,-157.48"/>
</a>
</g>
</g>
<!-- Node5 -->
<g id="Node000005" class="node">
<title>Node5</title>
<g id="a_Node000005"><a xlink:href="namespacefabomatic_1_1tests.xhtml#a9a34631c2dc01cbdbbce146895c94e12" target="_top" xlink:title=" ">
<polygon fill="white" stroke="#666666" points="194.75,-177.5 76,-177.5 76,-147 194.75,-147 194.75,-177.5"/>
<text text-anchor="start" x="84" y="-164" font-family="Helvetica,sans-Serif" font-size="10.00">fabomatic::tests::test</text>
<text text-anchor="middle" x="135.38" y="-152.75" font-family="Helvetica,sans-Serif" font-size="10.00">_machine_maintenance</text>
</a>
</g>
</g>
<!-- Node1&#45;&gt;Node5 -->
<g id="edge13_Node000001_Node000005" class="edge">
<title>Node1&#45;&gt;Node5</title>
<g id="a_edge13_Node000001_Node000005"><a xlink:title=" ">
<path fill="none" stroke="#63b8ff" d="M399.4,-140.88C338.92,-145.79 252.09,-152.85 194.98,-157.49"/>
<polygon fill="#63b8ff" stroke="#63b8ff" points="399.56,-144.37 409.24,-140.08 398.99,-137.4 399.56,-144.37"/>
</a>
</g>
</g>
<!-- Node7 -->
<g id="Node000007" class="node">
<title>Node7</title>
<g id="a_Node000007"><a xlink:href="namespacefabomatic_1_1tests.xhtml#afa92fef9250d918ee02c79dbf2de2546" target="_top" xlink:title=" ">
<polygon fill="white" stroke="#666666" points="188.38,-30.5 82.38,-30.5 82.38,0 188.38,0 188.38,-30.5"/>
<text text-anchor="start" x="90.38" y="-17" font-family="Helvetica,sans-Serif" font-size="10.00">fabomatic::tests::test</text>
<text text-anchor="middle" x="135.38" y="-5.75" font-family="Helvetica,sans-Serif" font-size="10.00">_user_autologoff</text>
</a>
</g>
</g>
<!-- Node1&#45;&gt;Node7 -->
<g id="edge14_Node000001_Node000007" class="edge">
<title>Node1&#45;&gt;Node7</title>
<g id="a_edge14_Node000001_Node000007"><a xlink:title=" ">
<path fill="none" stroke="#63b8ff" d="M421.06,-115.36C406.36,-109.37 390.07,-102.89 375,-97.25 309.57,-72.75 233.04,-46.95 184.64,-30.98"/>
<polygon fill="#63b8ff" stroke="#63b8ff" points="419.47,-118.49 430.05,-119.04 422.12,-112.01 419.47,-118.49"/>
</a>
</g>
</g>
<!-- Node2&#45;&gt;Node3 -->
<g id="edge2_Node000002_Node000003" class="edge">
<title>Node2&#45;&gt;Node3</title>
<g id="a_edge2_Node000002_Node000003"><a xlink:title=" ">
<path fill="none" stroke="#63b8ff" d="M278.99,-132.89C257.77,-147.9 225.01,-170.04 194.75,-186.25 188.63,-189.53 181.98,-192.71 175.44,-195.64"/>
<polygon fill="#63b8ff" stroke="#63b8ff" points="280.81,-135.88 286.91,-127.22 276.74,-130.19 280.81,-135.88"/>
</a>
</g>
</g>
<!-- Node2&#45;&gt;Node5 -->
<g id="edge4_Node000002_Node000005" class="edge">
<title>Node2&#45;&gt;Node5</title>
<g id="a_edge4_Node000002_Node000005"><a xlink:title=" ">
<path fill="none" stroke="#63b8ff" d="M254.62,-129.39C235.34,-134.74 212.9,-140.98 192.78,-146.57"/>
<polygon fill="#63b8ff" stroke="#63b8ff" points="255.4,-132.8 264.1,-126.75 253.52,-126.06 255.4,-132.8"/>
</a>
</g>
</g>
<!-- Node6 -->
<g id="Node000006" class="node">
<title>Node6</title>
<g id="a_Node000006"><a xlink:href="namespacefabomatic_1_1tests.xhtml#a6f3dff17fd964aba76c35c514957a0a5" target="_top" xlink:title=" ">
<polygon fill="white" stroke="#666666" points="189.88,-79.5 80.88,-79.5 80.88,-49 189.88,-49 189.88,-79.5"/>
<text text-anchor="start" x="88.88" y="-66" font-family="Helvetica,sans-Serif" font-size="10.00">fabomatic::tests::test</text>
<text text-anchor="middle" x="135.38" y="-54.75" font-family="Helvetica,sans-Serif" font-size="10.00">_one_user_at_a_time</text>
</a>
</g>
</g>
<!-- Node2&#45;&gt;Node6 -->
<g id="edge6_Node000002_Node000006" class="edge">
<title>Node2&#45;&gt;Node6</title>
<g id="a_edge6_Node000002_Node000006"><a xlink:title=" ">
<path fill="none" stroke="#63b8ff" d="M259.18,-102.83C236.95,-95.85 209.64,-87.27 186.42,-79.98"/>
<polygon fill="#63b8ff" stroke="#63b8ff" points="257.93,-106.11 268.52,-105.77 260.03,-99.43 257.93,-106.11"/>
</a>
</g>
</g>
<!-- Node2&#45;&gt;Node7 -->
<g id="edge8_Node000002_Node000007" class="edge">
<title>Node2&#45;&gt;Node7</title>
<g id="a_edge8_Node000002_Node000007"><a xlink:title=" ">
<path fill="none" stroke="#63b8ff" d="M280.61,-99.1C259.61,-82.68 226.18,-57.86 194.75,-40.25 188.88,-36.96 182.5,-33.82 176.17,-30.94"/>
<polygon fill="#63b8ff" stroke="#63b8ff" points="278.39,-101.81 288.4,-105.27 282.73,-96.32 278.39,-101.81"/>
</a>
</g>
</g>
<!-- Node8 -->
<g id="Node000008" class="node">
<title>Node8</title>
<g id="a_Node000008"><a xlink:href="namespacefabomatic_1_1tests.xhtml#aab0f4e1439b281ffef8be51db9a81f9d" target="_top" xlink:title=" ">
<polygon fill="white" stroke="#666666" points="191.75,-128.5 79,-128.5 79,-98 191.75,-98 191.75,-128.5"/>
<text text-anchor="start" x="87" y="-115" font-family="Helvetica,sans-Serif" font-size="10.00">fabomatic::tests::test</text>
<text text-anchor="middle" x="135.38" y="-103.75" font-family="Helvetica,sans-Serif" font-size="10.00">_whitelist_no_network</text>
</a>
</g>
</g>
<!-- Node2&#45;&gt;Node8 -->
<g id="edge10_Node000002_Node000008" class="edge">
<title>Node2&#45;&gt;Node8</title>
<g id="a_edge10_Node000002_Node000008"><a xlink:title=" ">
<path fill="none" stroke="#63b8ff" d="M219.49,-114.76C210.26,-114.59 201.01,-114.42 192.23,-114.26"/>
<polygon fill="#63b8ff" stroke="#63b8ff" points="219.15,-118.25 229.21,-114.93 219.28,-111.25 219.15,-118.25"/>
</a>
</g>
</g>
<!-- Node4 -->
<g id="Node000004" class="node">
<title>Node4</title>
<g id="a_Node000004"><a xlink:href="test__logic_8cpp.xhtml#a4fc01d736fe50cf5b977f755b675f11d" target="_top" xlink:title=" ">
<polygon fill="white" stroke="#666666" points="40,-122.88 0,-122.88 0,-103.62 40,-103.62 40,-122.88"/>
<text text-anchor="middle" x="20" y="-109.38" font-family="Helvetica,sans-Serif" font-size="10.00">setup</text>
</a>
</g>
</g>
<!-- Node3&#45;&gt;Node4 -->
<g id="edge3_Node000003_Node000004" class="edge">
<title>Node3&#45;&gt;Node4</title>
<g id="a_edge3_Node000003_Node000004"><a xlink:title=" ">
<path fill="none" stroke="#63b8ff" d="M80.74,-189.69C79.11,-188.59 77.52,-187.44 76,-186.25 53.15,-168.33 34.86,-138.73 26.29,-123.3"/>
<polygon fill="#63b8ff" stroke="#63b8ff" points="78.85,-192.64 89.24,-194.73 82.43,-186.62 78.85,-192.64"/>
</a>
</g>
</g>
<!-- Node5&#45;&gt;Node4 -->
<g id="edge5_Node000005_Node000004" class="edge">
<title>Node5&#45;&gt;Node4</title>
<g id="a_edge5_Node000005_Node000004"><a xlink:title=" ">
<path fill="none" stroke="#63b8ff" d="M87.08,-142.03C83.33,-140.41 79.6,-138.81 76,-137.25 64.14,-132.12 50.87,-126.33 40.33,-121.72"/>
<polygon fill="#63b8ff" stroke="#63b8ff" points="85.65,-145.22 96.22,-145.95 88.42,-138.79 85.65,-145.22"/>
</a>
</g>
</g>
<!-- Node6&#45;&gt;Node4 -->
<g id="edge7_Node000006_Node000004" class="edge">
<title>Node6&#45;&gt;Node4</title>
<g id="a_edge7_Node000006_Node000004"><a xlink:title=" ">
<path fill="none" stroke="#63b8ff" d="M87.08,-84.47C83.33,-86.09 79.6,-87.69 76,-89.25 64.14,-94.38 50.87,-100.17 40.33,-104.78"/>
<polygon fill="#63b8ff" stroke="#63b8ff" points="88.42,-87.71 96.22,-80.55 85.65,-81.28 88.42,-87.71"/>
</a>
</g>
</g>
<!-- Node7&#45;&gt;Node4 -->
<g id="edge9_Node000007_Node000004" class="edge">
<title>Node7&#45;&gt;Node4</title>
<g id="a_edge9_Node000007_Node000004"><a xlink:title=" ">
<path fill="none" stroke="#63b8ff" d="M80.74,-36.81C79.11,-37.91 77.52,-39.06 76,-40.25 53.15,-58.17 34.86,-87.77 26.29,-103.2"/>
<polygon fill="#63b8ff" stroke="#63b8ff" points="82.43,-39.88 89.24,-31.77 78.85,-33.86 82.43,-39.88"/>
</a>
</g>
</g>
<!-- Node8&#45;&gt;Node4 -->
<g id="edge11_Node000008_Node000004" class="edge">
<title>Node8&#45;&gt;Node4</title>
<g id="a_edge11_Node000008_Node000004"><a xlink:title=" ">
<path fill="none" stroke="#63b8ff" d="M67.43,-113.25C57.57,-113.25 48.13,-113.25 40.38,-113.25"/>
<polygon fill="#63b8ff" stroke="#63b8ff" points="67.17,-116.75 77.17,-113.25 67.17,-109.75 67.17,-116.75"/>
</a>
</g>
</g>
</g>
</svg>
