<?xml version="1.0" encoding="UTF-8" standalone="no"?>
<!DOCTYPE svg PUBLIC "-//W3C//DTD SVG 1.1//EN"
 "http://www.w3.org/Graphics/SVG/1.1/DTD/svg11.dtd">
<!-- Generated by graphviz version 9.0.0 (20230911.1827)
 -->
<!-- Title: fabomatic::Machine::isAllowed Pages: 1 -->
<svg width="1519pt" height="980pt"
 viewBox="0.00 0.00 1518.75 980.13" xmlns="http://www.w3.org/2000/svg" xmlns:xlink="http://www.w3.org/1999/xlink">
<g id="graph0" class="graph" transform="scale(1 1) rotate(0) translate(4 976.13)">
<title>fabomatic::Machine::isAllowed</title>
<!-- Node1 -->
<g id="Node000001" class="node">
<title>Node1</title>
<g id="a_Node000001"><a xlink:title=" ">
<polygon fill="#999999" stroke="#666666" points="1510.75,-608.5 1410.75,-608.5 1410.75,-578 1510.75,-578 1510.75,-608.5"/>
<text text-anchor="start" x="1418.75" y="-595" font-family="Helvetica,sans-Serif" font-size="10.00">fabomatic::Machine</text>
<text text-anchor="middle" x="1460.75" y="-583.75" font-family="Helvetica,sans-Serif" font-size="10.00">::isAllowed</text>
</a>
</g>
</g>
<!-- Node2 -->
<g id="Node000002" class="node">
<title>Node2</title>
<g id="a_Node000002"><a xlink:href="classfabomatic_1_1_board_logic.xhtml#a51390e6bf10c4de427abd7f175a2e6a8" target="_top" xlink:title="Checks if the card UID is valid, and tries to check the user in to the machine.">
<polygon fill="white" stroke="#666666" points="1055.88,-252.5 943.12,-252.5 943.12,-222 1055.88,-222 1055.88,-252.5"/>
<text text-anchor="start" x="951.12" y="-239" font-family="Helvetica,sans-Serif" font-size="10.00">fabomatic::BoardLogic</text>
<text text-anchor="middle" x="999.5" y="-227.75" font-family="Helvetica,sans-Serif" font-size="10.00">::authorize</text>
</a>
</g>
</g>
<!-- Node1&#45;&gt;Node2 -->
<g id="edge1_Node000001_Node000002" class="edge">
<title>Node1&#45;&gt;Node2</title>
<g id="a_edge1_Node000001_Node000002"><a xlink:title=" ">
<path fill="none" stroke="#63b8ff" d="M1437.82,-569.51C1382.49,-510.81 1230.66,-357.02 1077.25,-266.25 1068.67,-261.17 1059.04,-256.7 1049.58,-252.89"/>
<polygon fill="#63b8ff" stroke="#63b8ff" points="1435.14,-571.77 1444.53,-576.68 1440.25,-566.98 1435.14,-571.77"/>
</a>
</g>
</g>
<!-- Node18 -->
<g id="Node000018" class="node">
<title>Node18</title>
<g id="a_Node000018"><a xlink:href="classfabomatic_1_1_board_logic.xhtml#ad05b4db308773e56d866fe87d34022d9" target="_top" xlink:title="Blinks the LED.">
<polygon fill="white" stroke="#666666" points="1055.88,-608.5 943.12,-608.5 943.12,-578 1055.88,-578 1055.88,-608.5"/>
<text text-anchor="start" x="951.12" y="-595" font-family="Helvetica,sans-Serif" font-size="10.00">fabomatic::BoardLogic</text>
<text text-anchor="middle" x="999.5" y="-583.75" font-family="Helvetica,sans-Serif" font-size="10.00">::blinkLed</text>
</a>
</g>
</g>
<!-- Node1&#45;&gt;Node18 -->
<g id="edge29_Node000001_Node000018" class="edge">
<title>Node1&#45;&gt;Node18</title>
<g id="a_edge29_Node000001_Node000018"><a xlink:title=" ">
<path fill="none" stroke="#63b8ff" d="M1399.27,-593.25C1309.63,-593.25 1142.76,-593.25 1056.05,-593.25"/>
<polygon fill="#63b8ff" stroke="#63b8ff" points="1399.09,-596.75 1409.09,-593.25 1399.09,-589.75 1399.09,-596.75"/>
</a>
</g>
</g>
<!-- Node24 -->
<g id="Node000024" class="node">
<title>Node24</title>
<g id="a_Node000024"><a xlink:href="classfabomatic_1_1_board_logic.xhtml#a47b4d515c0d3488eceb49769036bce8b" target="_top" xlink:title="Updates the LCD screen as per the current status.">
<polygon fill="white" stroke="#666666" points="1374.75,-727.5 1262,-727.5 1262,-697 1374.75,-697 1374.75,-727.5"/>
<text text-anchor="start" x="1270" y="-714" font-family="Helvetica,sans-Serif" font-size="10.00">fabomatic::BoardLogic</text>
<text text-anchor="middle" x="1318.38" y="-702.75" font-family="Helvetica,sans-Serif" font-size="10.00">::updateLCD</text>
</a>
</g>
</g>
<!-- Node1&#45;&gt;Node24 -->
<g id="edge36_Node000001_Node000024" class="edge">
<title>Node1&#45;&gt;Node24</title>
<g id="a_edge36_Node000001_Node000024"><a xlink:title=" ">
<path fill="none" stroke="#63b8ff" d="M1432.9,-616.01C1404.98,-639.68 1362.01,-676.11 1337.73,-696.69"/>
<polygon fill="#63b8ff" stroke="#63b8ff" points="1434.88,-618.92 1440.24,-609.79 1430.35,-613.58 1434.88,-618.92"/>
</a>
</g>
</g>
<!-- Node3 -->
<g id="Node000003" class="node">
<title>Node3</title>
<g id="a_Node000003"><a xlink:href="classfabomatic_1_1_board_logic.xhtml#a983c8de8b9c8881fc0a4e60dddc7f0c6" target="_top" xlink:title="Called when a RFID tag has been detected.">
<polygon fill="white" stroke="#666666" points="873.75,-333.5 761,-333.5 761,-303 873.75,-303 873.75,-333.5"/>
<text text-anchor="start" x="769" y="-320" font-family="Helvetica,sans-Serif" font-size="10.00">fabomatic::BoardLogic</text>
<text text-anchor="middle" x="817.38" y="-308.75" font-family="Helvetica,sans-Serif" font-size="10.00">::onNewCard</text>
</a>
</g>
</g>
<!-- Node2&#45;&gt;Node3 -->
<g id="edge2_Node000002_Node000003" class="edge">
<title>Node2&#45;&gt;Node3</title>
<g id="a_edge2_Node000002_Node000003"><a xlink:title=" ">
<path fill="none" stroke="#63b8ff" d="M953.65,-257.42C922.62,-271.37 881.93,-289.67 853.31,-302.54"/>
<polygon fill="#63b8ff" stroke="#63b8ff" points="954.7,-260.78 962.39,-253.49 951.83,-254.4 954.7,-260.78"/>
</a>
</g>
</g>
<!-- Node12 -->
<g id="Node000012" class="node">
<title>Node12</title>
<g id="a_Node000012"><a xlink:href="namespacefabomatic_1_1tests.xhtml#aab0f4e1439b281ffef8be51db9a81f9d" target="_top" xlink:title=" ">
<polygon fill="white" stroke="#666666" points="191.75,-337.5 79,-337.5 79,-307 191.75,-307 191.75,-337.5"/>
<text text-anchor="start" x="87" y="-324" font-family="Helvetica,sans-Serif" font-size="10.00">fabomatic::tests::test</text>
<text text-anchor="middle" x="135.38" y="-312.75" font-family="Helvetica,sans-Serif" font-size="10.00">_whitelist_no_network</text>
</a>
</g>
</g>
<!-- Node2&#45;&gt;Node12 -->
<g id="edge28_Node000002_Node000012" class="edge">
<title>Node2&#45;&gt;Node12</title>
<g id="a_edge28_Node000002_Node000012"><a xlink:title=" ">
<path fill="none" stroke="#63b8ff" d="M931.92,-222.09C818.1,-199.8 581.86,-169.56 411,-256.25 387.85,-268 397.84,-289.91 375,-302.25 318.3,-332.87 242.78,-333.74 192.02,-329.67"/>
<polygon fill="#63b8ff" stroke="#63b8ff" points="930.9,-225.46 941.4,-223.99 932.28,-218.6 930.9,-225.46"/>
</a>
</g>
</g>
<!-- Node4 -->
<g id="Node000004" class="node">
<title>Node4</title>
<g id="a_Node000004"><a xlink:href="classfabomatic_1_1_board_logic.xhtml#a25bdc3a49d850aa49f92faf951b68efb" target="_top" xlink:title="Checks if a new card is present.">
<polygon fill="white" stroke="#666666" points="699.5,-295.5 586.75,-295.5 586.75,-265 699.5,-265 699.5,-295.5"/>
<text text-anchor="start" x="594.75" y="-282" font-family="Helvetica,sans-Serif" font-size="10.00">fabomatic::BoardLogic</text>
<text text-anchor="middle" x="643.12" y="-270.75" font-family="Helvetica,sans-Serif" font-size="10.00">::checkRfid</text>
</a>
</g>
</g>
<!-- Node3&#45;&gt;Node4 -->
<g id="edge3_Node000003_Node000004" class="edge">
<title>Node3&#45;&gt;Node4</title>
<g id="a_edge3_Node000003_Node000004"><a xlink:title=" ">
<path fill="none" stroke="#63b8ff" d="M749.69,-303.54C733.19,-299.9 715.68,-296.04 699.77,-292.52"/>
<polygon fill="#63b8ff" stroke="#63b8ff" points="748.93,-306.95 759.45,-305.69 750.44,-300.12 748.93,-306.95"/>
</a>
</g>
</g>
<!-- Node5 -->
<g id="Node000005" class="node">
<title>Node5</title>
<g id="a_Node000005"><a xlink:href="namespacefabomatic_1_1tests.xhtml#a2600320f41c9fa343c66058ecb12b5ee" target="_top" xlink:title="Simulates RFID card tap.">
<polygon fill="white" stroke="#666666" points="537.25,-198.5 411,-198.5 411,-168 537.25,-168 537.25,-198.5"/>
<text text-anchor="start" x="419" y="-185" font-family="Helvetica,sans-Serif" font-size="10.00">fabomatic::tests::simulate</text>
<text text-anchor="middle" x="474.12" y="-173.75" font-family="Helvetica,sans-Serif" font-size="10.00">_rfid_card</text>
</a>
</g>
</g>
<!-- Node4&#45;&gt;Node5 -->
<g id="edge4_Node000004_Node000005" class="edge">
<title>Node4&#45;&gt;Node5</title>
<g id="a_edge4_Node000004_Node000005"><a xlink:title=" ">
<path fill="none" stroke="#63b8ff" d="M605.66,-259.07C574.47,-240.95 530.28,-215.29 502.17,-198.96"/>
<polygon fill="#63b8ff" stroke="#63b8ff" points="603.58,-261.91 613.98,-263.91 607.1,-255.86 603.58,-261.91"/>
</a>
</g>
</g>
<!-- Node4&#45;&gt;Node12 -->
<g id="edge27_Node000004_Node000012" class="edge">
<title>Node4&#45;&gt;Node12</title>
<g id="a_edge27_Node000004_Node000012"><a xlink:title=" ">
<path fill="none" stroke="#63b8ff" d="M613.44,-302.49C593.32,-316.7 565.13,-333.98 537.25,-342.25 406.62,-381.02 365.69,-368.17 230.75,-349.25 214.38,-346.95 196.87,-342.52 181.42,-337.9"/>
<polygon fill="#63b8ff" stroke="#63b8ff" points="615.37,-305.41 621.4,-296.69 611.26,-299.74 615.37,-305.41"/>
</a>
</g>
</g>
<!-- Node16 -->
<g id="Node000016" class="node">
<title>Node16</title>
<g id="a_Node000016"><a xlink:href="namespacefabomatic.xhtml#a3e5c190499522bddad3f3cc69274f16c" target="_top" xlink:title="periodic check for new RFID card">
<polygon fill="white" stroke="#666666" points="537.25,-332.88 411,-332.88 411,-313.62 537.25,-313.62 537.25,-332.88"/>
<text text-anchor="middle" x="474.12" y="-319.38" font-family="Helvetica,sans-Serif" font-size="10.00">fabomatic::taskCheckRfid</text>
</a>
</g>
</g>
<!-- Node4&#45;&gt;Node16 -->
<g id="edge25_Node000004_Node000016" class="edge">
<title>Node4&#45;&gt;Node16</title>
<g id="a_edge25_Node000004_Node000016"><a xlink:title=" ">
<path fill="none" stroke="#63b8ff" d="M575.52,-297.4C554.79,-302.74 532.62,-308.44 514.4,-313.14"/>
<polygon fill="#63b8ff" stroke="#63b8ff" points="576.24,-300.83 585.05,-294.95 574.49,-294.05 576.24,-300.83"/>
</a>
</g>
</g>
<!-- Node17 -->
<g id="Node000017" class="node">
<title>Node17</title>
<g id="a_Node000017"><a xlink:href="namespacefabomatic_1_1tests.xhtml#a294b4767ecf1e1d11cc31dafb2541d23" target="_top" xlink:title="periodic check for new RFID card">
<polygon fill="white" stroke="#666666" points="527.12,-295.5 421.12,-295.5 421.12,-265 527.12,-265 527.12,-295.5"/>
<text text-anchor="start" x="429.12" y="-282" font-family="Helvetica,sans-Serif" font-size="10.00">fabomatic::tests::test</text>
<text text-anchor="middle" x="474.12" y="-270.75" font-family="Helvetica,sans-Serif" font-size="10.00">_taskCheckRfid</text>
</a>
</g>
</g>
<!-- Node4&#45;&gt;Node17 -->
<g id="edge26_Node000004_Node000017" class="edge">
<title>Node4&#45;&gt;Node17</title>
<g id="a_edge26_Node000004_Node000017"><a xlink:title=" ">
<path fill="none" stroke="#63b8ff" d="M575.13,-280.25C559.23,-280.25 542.51,-280.25 527.38,-280.25"/>
<polygon fill="#63b8ff" stroke="#63b8ff" points="575,-283.75 585,-280.25 575,-276.75 575,-283.75"/>
</a>
</g>
</g>
<!-- Node6 -->
<g id="Node000006" class="node">
<title>Node6</title>
<g id="a_Node000006"><a xlink:href="namespacefabomatic_1_1tests.xhtml#a6a7645a865dc822746f972ea6f43224d" target="_top" xlink:title="Resets machine to initial state, clearing flags.">
<polygon fill="white" stroke="#666666" points="375,-230.88 230.75,-230.88 230.75,-211.62 375,-211.62 375,-230.88"/>
<text text-anchor="middle" x="302.88" y="-217.38" font-family="Helvetica,sans-Serif" font-size="10.00">fabomatic::tests::machine_init</text>
</a>
</g>
</g>
<!-- Node5&#45;&gt;Node6 -->
<g id="edge5_Node000005_Node000006" class="edge">
<title>Node5&#45;&gt;Node6</title>
<g id="a_edge5_Node000005_Node000006"><a xlink:title=" ">
<path fill="none" stroke="#63b8ff" d="M399.37,-199.81C382.12,-203.68 364.26,-207.69 348.72,-211.18"/>
<polygon fill="#63b8ff" stroke="#63b8ff" points="400.12,-203.23 409.11,-197.62 398.58,-196.4 400.12,-203.23"/>
</a>
</g>
</g>
<!-- Node7 -->
<g id="Node000007" class="node">
<title>Node7</title>
<g id="a_Node000007"><a xlink:href="namespacefabomatic_1_1tests.xhtml#a558e2287db01a4622581246a19dac397" target="_top" xlink:title=" ">
<polygon fill="white" stroke="#666666" points="188.38,-230.5 82.38,-230.5 82.38,-200 188.38,-200 188.38,-230.5"/>
<text text-anchor="start" x="90.38" y="-217" font-family="Helvetica,sans-Serif" font-size="10.00">fabomatic::tests::test</text>
<text text-anchor="middle" x="135.38" y="-205.75" font-family="Helvetica,sans-Serif" font-size="10.00">_machine_allowed</text>
</a>
</g>
</g>
<!-- Node5&#45;&gt;Node7 -->
<g id="edge18_Node000005_Node000007" class="edge">
<title>Node5&#45;&gt;Node7</title>
<g id="a_edge18_Node000005_Node000007"><a xlink:title=" ">
<path fill="none" stroke="#63b8ff" d="M399.27,-187.91C351.2,-191.22 287.18,-196.16 230.75,-202.25 217.1,-203.72 202.38,-205.61 188.72,-207.48"/>
<polygon fill="#63b8ff" stroke="#63b8ff" points="399.26,-191.42 409,-187.25 398.79,-184.44 399.26,-191.42"/>
</a>
</g>
</g>
<!-- Node9 -->
<g id="Node000009" class="node">
<title>Node9</title>
<g id="a_Node000009"><a xlink:href="namespacefabomatic_1_1tests.xhtml#a9a34631c2dc01cbdbbce146895c94e12" target="_top" xlink:title=" ">
<polygon fill="white" stroke="#666666" points="194.75,-181.5 76,-181.5 76,-151 194.75,-151 194.75,-181.5"/>
<text text-anchor="start" x="84" y="-168" font-family="Helvetica,sans-Serif" font-size="10.00">fabomatic::tests::test</text>
<text text-anchor="middle" x="135.38" y="-156.75" font-family="Helvetica,sans-Serif" font-size="10.00">_machine_maintenance</text>
</a>
</g>
</g>
<!-- Node5&#45;&gt;Node9 -->
<g id="edge19_Node000005_Node000009" class="edge">
<title>Node5&#45;&gt;Node9</title>
<g id="a_edge19_Node000005_Node000009"><a xlink:title=" ">
<path fill="none" stroke="#63b8ff" d="M399.52,-171.7C391.26,-170.72 382.96,-169.87 375,-169.25 313.66,-164.51 243.19,-164.26 194.82,-164.88"/>
<polygon fill="#63b8ff" stroke="#63b8ff" points="398.84,-175.14 409.2,-172.92 399.72,-168.2 398.84,-175.14"/>
</a>
</g>
</g>
<!-- Node10 -->
<g id="Node000010" class="node">
<title>Node10</title>
<g id="a_Node000010"><a xlink:href="namespacefabomatic_1_1tests.xhtml#a6f3dff17fd964aba76c35c514957a0a5" target="_top" xlink:title=" ">
<polygon fill="white" stroke="#666666" points="189.88,-132.5 80.88,-132.5 80.88,-102 189.88,-102 189.88,-132.5"/>
<text text-anchor="start" x="88.88" y="-119" font-family="Helvetica,sans-Serif" font-size="10.00">fabomatic::tests::test</text>
<text text-anchor="middle" x="135.38" y="-107.75" font-family="Helvetica,sans-Serif" font-size="10.00">_one_user_at_a_time</text>
</a>
</g>
</g>
<!-- Node5&#45;&gt;Node10 -->
<g id="edge22_Node000005_Node000010" class="edge">
<title>Node5&#45;&gt;Node10</title>
<g id="a_edge22_Node000005_Node000010"><a xlink:title=" ">
<path fill="none" stroke="#63b8ff" d="M399.47,-166.42C391.22,-164.63 382.94,-162.87 375,-161.25 311.64,-148.31 238.47,-135.07 190.03,-126.54"/>
<polygon fill="#63b8ff" stroke="#63b8ff" points="398.65,-169.82 409.17,-168.54 400.15,-162.98 398.65,-169.82"/>
</a>
</g>
</g>
<!-- Node11 -->
<g id="Node000011" class="node">
<title>Node11</title>
<g id="a_Node000011"><a xlink:href="namespacefabomatic_1_1tests.xhtml#afa92fef9250d918ee02c79dbf2de2546" target="_top" xlink:title=" ">
<polygon fill="white" stroke="#666666" points="188.38,-279.5 82.38,-279.5 82.38,-249 188.38,-249 188.38,-279.5"/>
<text text-anchor="start" x="90.38" y="-266" font-family="Helvetica,sans-Serif" font-size="10.00">fabomatic::tests::test</text>
<text text-anchor="middle" x="135.38" y="-254.75" font-family="Helvetica,sans-Serif" font-size="10.00">_user_autologoff</text>
</a>
</g>
</g>
<!-- Node5&#45;&gt;Node11 -->
<g id="edge23_Node000005_Node000011" class="edge">
<title>Node5&#45;&gt;Node11</title>
<g id="a_edge23_Node000005_Node000011"><a xlink:title=" ">
<path fill="none" stroke="#63b8ff" d="M439.14,-205.06C416.34,-219.29 388.14,-235.99 375,-240.25 313.01,-260.33 237.63,-264.83 188.4,-265.29"/>
<polygon fill="#63b8ff" stroke="#63b8ff" points="440.97,-208.05 447.57,-199.76 437.24,-202.12 440.97,-208.05"/>
</a>
</g>
</g>
<!-- Node5&#45;&gt;Node12 -->
<g id="edge24_Node000005_Node000012" class="edge">
<title>Node5&#45;&gt;Node12</title>
<g id="a_edge24_Node000005_Node000012"><a xlink:title=" ">
<path fill="none" stroke="#63b8ff" d="M435.37,-205.07C427.01,-210.57 418.44,-216.77 411,-223.25 392.47,-239.41 395.98,-252.43 375,-265.25 318.66,-299.66 243.07,-313.3 192.19,-318.7"/>
<polygon fill="#63b8ff" stroke="#63b8ff" points="437.15,-208.08 443.72,-199.77 433.4,-202.17 437.15,-208.08"/>
</a>
</g>
</g>
<!-- Node13 -->
<g id="Node000013" class="node">
<title>Node13</title>
<g id="a_Node000013"><a xlink:href="namespacefabomatic_1_1tests.xhtml#a0b99fa5582e6b0ecb416f4ed348e5606" target="_top" xlink:title=" ">
<polygon fill="white" stroke="#666666" points="358.5,-79.5 247.25,-79.5 247.25,-49 358.5,-49 358.5,-79.5"/>
<text text-anchor="start" x="255.25" y="-66" font-family="Helvetica,sans-Serif" font-size="10.00">fabomatic::tests::test</text>
<text text-anchor="middle" x="302.88" y="-54.75" font-family="Helvetica,sans-Serif" font-size="10.00">_backend_commands</text>
</a>
</g>
</g>
<!-- Node5&#45;&gt;Node13 -->
<g id="edge16_Node000005_Node000013" class="edge">
<title>Node5&#45;&gt;Node13</title>
<g id="a_edge16_Node000005_Node000013"><a xlink:title=" ">
<path fill="none" stroke="#63b8ff" d="M451.91,-159.56C433.21,-139.77 404.43,-111.89 375,-93.25 367,-88.18 357.97,-83.7 349.09,-79.86"/>
<polygon fill="#63b8ff" stroke="#63b8ff" points="449.12,-161.7 458.49,-166.64 454.25,-156.93 449.12,-161.7"/>
</a>
</g>
</g>
<!-- Node15 -->
<g id="Node000015" class="node">
<title>Node15</title>
<g id="a_Node000015"><a xlink:href="namespacefabomatic_1_1tests.xhtml#af8fa7ace86309b5f699540d8898660c7" target="_top" xlink:title=" ">
<polygon fill="white" stroke="#666666" points="355.88,-30.5 249.88,-30.5 249.88,0 355.88,0 355.88,-30.5"/>
<text text-anchor="start" x="257.88" y="-17" font-family="Helvetica,sans-Serif" font-size="10.00">fabomatic::tests::test</text>
<text text-anchor="middle" x="302.88" y="-5.75" font-family="Helvetica,sans-Serif" font-size="10.00">_messages_buffered</text>
</a>
</g>
</g>
<!-- Node5&#45;&gt;Node15 -->
<g id="edge20_Node000005_Node000015" class="edge">
<title>Node5&#45;&gt;Node15</title>
<g id="a_edge20_Node000005_Node000015"><a xlink:title=" ">
<path fill="none" stroke="#63b8ff" d="M461.81,-157.69C446.5,-125.87 416.27,-71.86 375,-40.25 369.39,-35.95 362.98,-32.35 356.36,-29.35"/>
<polygon fill="#63b8ff" stroke="#63b8ff" points="458.56,-159 465.96,-166.58 464.9,-156.04 458.56,-159"/>
</a>
</g>
</g>
<!-- Node6&#45;&gt;Node7 -->
<g id="edge6_Node000006_Node000007" class="edge">
<title>Node6&#45;&gt;Node7</title>
<g id="a_edge6_Node000006_Node000007"><a xlink:title=" ">
<path fill="none" stroke="#63b8ff" d="M219.35,-218.26C208.84,-217.88 198.32,-217.5 188.47,-217.14"/>
<polygon fill="#63b8ff" stroke="#63b8ff" points="219.09,-221.75 229.22,-218.62 219.35,-214.76 219.09,-221.75"/>
</a>
</g>
</g>
<!-- Node6&#45;&gt;Node9 -->
<g id="edge8_Node000006_Node000009" class="edge">
<title>Node6&#45;&gt;Node9</title>
<g id="a_edge8_Node000006_Node000009"><a xlink:title=" ">
<path fill="none" stroke="#63b8ff" d="M260.59,-207.53C237.27,-199.78 208.02,-190.06 183.76,-182"/>
<polygon fill="#63b8ff" stroke="#63b8ff" points="259.49,-210.85 270.08,-210.68 261.7,-204.21 259.49,-210.85"/>
</a>
</g>
</g>
<!-- Node6&#45;&gt;Node10 -->
<g id="edge10_Node000006_Node000010" class="edge">
<title>Node6&#45;&gt;Node10</title>
<g id="a_edge10_Node000006_Node000010"><a xlink:title=" ">
<path fill="none" stroke="#63b8ff" d="M281.68,-204.14C260.84,-187.03 226.92,-160.67 194.75,-142.25 189.01,-138.96 182.75,-135.84 176.54,-132.99"/>
<polygon fill="#63b8ff" stroke="#63b8ff" points="279.19,-206.62 289.12,-210.33 283.67,-201.24 279.19,-206.62"/>
</a>
</g>
</g>
<!-- Node6&#45;&gt;Node11 -->
<g id="edge12_Node000006_Node000011" class="edge">
<title>Node6&#45;&gt;Node11</title>
<g id="a_edge12_Node000006_Node000011"><a xlink:title=" ">
<path fill="none" stroke="#63b8ff" d="M252.01,-234.21C232.01,-239.4 208.96,-245.39 188.72,-250.65"/>
<polygon fill="#63b8ff" stroke="#63b8ff" points="252.81,-237.61 261.61,-231.71 251.05,-230.84 252.81,-237.61"/>
</a>
</g>
</g>
<!-- Node6&#45;&gt;Node12 -->
<g id="edge14_Node000006_Node000012" class="edge">
<title>Node6&#45;&gt;Node12</title>
<g id="a_edge14_Node000006_Node000012"><a xlink:title=" ">
<path fill="none" stroke="#63b8ff" d="M276.64,-237.34C255.02,-251.06 222.99,-271.2 194.75,-288.25 184.71,-294.31 173.61,-300.83 163.8,-306.51"/>
<polygon fill="#63b8ff" stroke="#63b8ff" points="278.52,-240.3 285.08,-231.98 274.76,-234.39 278.52,-240.3"/>
</a>
</g>
</g>
<!-- Node8 -->
<g id="Node000008" class="node">
<title>Node8</title>
<g id="a_Node000008"><a xlink:href="test__logic_8cpp.xhtml#a4fc01d736fe50cf5b977f755b675f11d" target="_top" xlink:title=" ">
<polygon fill="white" stroke="#666666" points="40,-224.88 0,-224.88 0,-205.62 40,-205.62 40,-224.88"/>
<text text-anchor="middle" x="20" y="-211.38" font-family="Helvetica,sans-Serif" font-size="10.00">setup</text>
</a>
</g>
</g>
<!-- Node7&#45;&gt;Node8 -->
<g id="edge7_Node000007_Node000008" class="edge">
<title>Node7&#45;&gt;Node8</title>
<g id="a_edge7_Node000007_Node000008"><a xlink:title=" ">
<path fill="none" stroke="#63b8ff" d="M70.51,-215.25C59.53,-215.25 48.92,-215.25 40.36,-215.25"/>
<polygon fill="#63b8ff" stroke="#63b8ff" points="70.49,-218.75 80.49,-215.25 70.49,-211.75 70.49,-218.75"/>
</a>
</g>
</g>
<!-- Node9&#45;&gt;Node8 -->
<g id="edge9_Node000009_Node000008" class="edge">
<title>Node9&#45;&gt;Node8</title>
<g id="a_edge9_Node000009_Node000008"><a xlink:title=" ">
<path fill="none" stroke="#63b8ff" d="M87.08,-186.47C83.33,-188.09 79.6,-189.69 76,-191.25 64.14,-196.38 50.87,-202.17 40.33,-206.78"/>
<polygon fill="#63b8ff" stroke="#63b8ff" points="88.42,-189.71 96.22,-182.55 85.65,-183.28 88.42,-189.71"/>
</a>
</g>
</g>
<!-- Node10&#45;&gt;Node8 -->
<g id="edge11_Node000010_Node000008" class="edge">
<title>Node10&#45;&gt;Node8</title>
<g id="a_edge11_Node000010_Node000008"><a xlink:title=" ">
<path fill="none" stroke="#63b8ff" d="M80.74,-138.81C79.11,-139.91 77.52,-141.06 76,-142.25 53.15,-160.17 34.86,-189.77 26.29,-205.2"/>
<polygon fill="#63b8ff" stroke="#63b8ff" points="82.43,-141.88 89.24,-133.77 78.85,-135.86 82.43,-141.88"/>
</a>
</g>
</g>
<!-- Node11&#45;&gt;Node8 -->
<g id="edge13_Node000011_Node000008" class="edge">
<title>Node11&#45;&gt;Node8</title>
<g id="a_edge13_Node000011_Node000008"><a xlink:title=" ">
<path fill="none" stroke="#63b8ff" d="M87.08,-244.03C83.33,-242.41 79.6,-240.81 76,-239.25 64.14,-234.12 50.87,-228.33 40.33,-223.72"/>
<polygon fill="#63b8ff" stroke="#63b8ff" points="85.65,-247.22 96.22,-247.95 88.42,-240.79 85.65,-247.22"/>
</a>
</g>
</g>
<!-- Node12&#45;&gt;Node8 -->
<g id="edge15_Node000012_Node000008" class="edge">
<title>Node12&#45;&gt;Node8</title>
<g id="a_edge15_Node000012_Node000008"><a xlink:title=" ">
<path fill="none" stroke="#63b8ff" d="M92.46,-300.61C86.67,-296.84 81,-292.69 76,-288.25 54.41,-269.07 35.72,-240.27 26.72,-225.22"/>
<polygon fill="#63b8ff" stroke="#63b8ff" points="90.57,-303.56 100.93,-305.78 94.22,-297.58 90.57,-303.56"/>
</a>
</g>
</g>
<!-- Node14 -->
<g id="Node000014" class="node">
<title>Node14</title>
<g id="a_Node000014"><a xlink:href="test__mqtt_8cpp.xhtml#a4fc01d736fe50cf5b977f755b675f11d" target="_top" xlink:title=" ">
<polygon fill="white" stroke="#666666" points="155.38,-73.88 115.38,-73.88 115.38,-54.62 155.38,-54.62 155.38,-73.88"/>
<text text-anchor="middle" x="135.38" y="-60.38" font-family="Helvetica,sans-Serif" font-size="10.00">setup</text>
</a>
</g>
</g>
<!-- Node13&#45;&gt;Node14 -->
<g id="edge17_Node000013_Node000014" class="edge">
<title>Node13&#45;&gt;Node14</title>
<g id="a_edge17_Node000013_Node000014"><a xlink:title=" ">
<path fill="none" stroke="#63b8ff" d="M235.51,-64.25C206.8,-64.25 175.35,-64.25 155.74,-64.25"/>
<polygon fill="#63b8ff" stroke="#63b8ff" points="235.25,-67.75 245.25,-64.25 235.25,-60.75 235.25,-67.75"/>
</a>
</g>
</g>
<!-- Node15&#45;&gt;Node8 -->
<g id="edge21_Node000015_Node000008" class="edge">
<title>Node15&#45;&gt;Node8</title>
<g id="a_edge21_Node000015_Node000008"><a xlink:title=" ">
<path fill="none" stroke="#63b8ff" d="M238.24,-6.68C188.55,-3.65 120.68,-8 76,-45.25 25.73,-87.16 20.96,-175.47 20.84,-205.22"/>
<polygon fill="#63b8ff" stroke="#63b8ff" points="237.76,-10.16 247.99,-7.41 238.27,-3.18 237.76,-10.16"/>
</a>
</g>
</g>
<!-- Node19 -->
<g id="Node000019" class="node">
<title>Node19</title>
<g id="a_Node000019"><a xlink:href="main_8cpp.xhtml#a4fc01d736fe50cf5b977f755b675f11d" target="_top" xlink:title=" ">
<polygon fill="white" stroke="#666666" points="663.12,-722.88 623.12,-722.88 623.12,-703.62 663.12,-703.62 663.12,-722.88"/>
<text text-anchor="middle" x="643.12" y="-709.38" font-family="Helvetica,sans-Serif" font-size="10.00">setup</text>
</a>
</g>
</g>
<!-- Node18&#45;&gt;Node19 -->
<g id="edge30_Node000018_Node000019" class="edge">
<title>Node18&#45;&gt;Node19</title>
<g id="a_edge30_Node000018_Node000019"><a xlink:title=" ">
<path fill="none" stroke="#63b8ff" d="M931.82,-611.27C916.69,-615.28 900.68,-619.46 885.75,-623.25 825.15,-638.62 807.35,-633.8 749,-656.25 715.54,-669.12 679.41,-690.63 659.5,-703.22"/>
<polygon fill="#63b8ff" stroke="#63b8ff" points="932.42,-614.73 941.19,-608.77 930.62,-607.96 932.42,-614.73"/>
</a>
</g>
</g>
<!-- Node20 -->
<g id="Node000020" class="node">
<title>Node20</title>
<g id="a_Node000020"><a xlink:href="namespacefabomatic.xhtml#a9bb86caf0357ce1dd9ffe2945dcfc6e4" target="_top" xlink:title="blink led">
<polygon fill="white" stroke="#666666" points="869.25,-570.88 765.5,-570.88 765.5,-551.62 869.25,-551.62 869.25,-570.88"/>
<text text-anchor="middle" x="817.38" y="-557.38" font-family="Helvetica,sans-Serif" font-size="10.00">fabomatic::taskBlink</text>
</a>
</g>
</g>
<!-- Node18&#45;&gt;Node20 -->
<g id="edge31_Node000018_Node000020" class="edge">
<title>Node18&#45;&gt;Node20</title>
<g id="a_edge31_Node000018_Node000020"><a xlink:title=" ">
<path fill="none" stroke="#63b8ff" d="M931.8,-581.4C911.28,-577.76 889.03,-573.8 869.71,-570.37"/>
<polygon fill="#63b8ff" stroke="#63b8ff" points="931.04,-584.82 941.5,-583.12 932.26,-577.93 931.04,-584.82"/>
</a>
</g>
</g>
<!-- Node21 -->
<g id="Node000021" class="node">
<title>Node21</title>
<g id="a_Node000021"><a xlink:href="namespacefabomatic.xhtml#a2c7ad2690e92eb8ab98b6fadaa4df2bd" target="_top" xlink:title=" ">
<polygon fill="white" stroke="#666666" points="713,-646.88 573.25,-646.88 573.25,-627.62 713,-627.62 713,-646.88"/>
<text text-anchor="middle" x="643.12" y="-633.38" font-family="Helvetica,sans-Serif" font-size="10.00">fabomatic::taskFactoryReset</text>
</a>
</g>
</g>
<!-- Node18&#45;&gt;Node21 -->
<g id="edge32_Node000018_Node000021" class="edge">
<title>Node18&#45;&gt;Node21</title>
<g id="a_edge32_Node000018_Node000021"><a xlink:title=" ">
<path fill="none" stroke="#63b8ff" d="M931.62,-601.05C881.36,-606.97 810.84,-615.41 749,-623.25 737.52,-624.71 725.34,-626.29 713.5,-627.86"/>
<polygon fill="#63b8ff" stroke="#63b8ff" points="931.96,-604.54 941.48,-599.89 931.14,-597.58 931.96,-604.54"/>
</a>
</g>
</g>
<!-- Node22 -->
<g id="Node000022" class="node">
<title>Node22</title>
<g id="a_Node000022"><a xlink:href="namespacefabomatic_1_1tests.xhtml#aec03a7ee459718d314b930fdd75d3cee" target="_top" xlink:title=" ">
<polygon fill="white" stroke="#666666" points="870.38,-915.5 764.38,-915.5 764.38,-885 870.38,-885 870.38,-915.5"/>
<text text-anchor="start" x="772.38" y="-902" font-family="Helvetica,sans-Serif" font-size="10.00">fabomatic::tests::test</text>
<text text-anchor="middle" x="817.38" y="-890.75" font-family="Helvetica,sans-Serif" font-size="10.00">_simple_methods</text>
</a>
</g>
</g>
<!-- Node18&#45;&gt;Node22 -->
<g id="edge33_Node000018_Node000022" class="edge">
<title>Node18&#45;&gt;Node22</title>
<g id="a_edge33_Node000018_Node000022"><a xlink:title=" ">
<path fill="none" stroke="#63b8ff" d="M932.88,-607.9C928.77,-610.52 924.99,-613.61 921.75,-617.25 864.6,-681.44 919.78,-728.33 885.75,-807.25 872.72,-837.46 848.5,-867.36 832.92,-884.8"/>
<polygon fill="#63b8ff" stroke="#63b8ff" points="934.44,-611.03 941.65,-603.28 931.17,-604.84 934.44,-611.03"/>
</a>
</g>
</g>
<!-- Node23 -->
<g id="Node000023" class="node">
<title>Node23</title>
<g id="a_Node000023"><a xlink:href="namespacefabomatic_1_1tests.xhtml#a7cd22311b16fc7c256a30ba4c2f6f387" target="_top" xlink:title="blink led">
<polygon fill="white" stroke="#666666" points="870.38,-533.5 764.38,-533.5 764.38,-503 870.38,-503 870.38,-533.5"/>
<text text-anchor="start" x="772.38" y="-520" font-family="Helvetica,sans-Serif" font-size="10.00">fabomatic::tests::test</text>
<text text-anchor="middle" x="817.38" y="-508.75" font-family="Helvetica,sans-Serif" font-size="10.00">_taskVarious</text>
</a>
</g>
</g>
<!-- Node18&#45;&gt;Node23 -->
<g id="edge35_Node000018_Node000023" class="edge">
<title>Node18&#45;&gt;Node23</title>
<g id="a_edge35_Node000018_Node000023"><a xlink:title=" ">
<path fill="none" stroke="#63b8ff" d="M955.6,-572.84C934.7,-563.16 909.1,-551.67 885.75,-542.25 878.73,-539.42 871.22,-536.57 863.87,-533.88"/>
<polygon fill="#63b8ff" stroke="#63b8ff" points="953.84,-575.88 964.38,-576.93 956.8,-569.54 953.84,-575.88"/>
</a>
</g>
</g>
<!-- Node22&#45;&gt;Node8 -->
<g id="edge34_Node000022_Node000008" class="edge">
<title>Node22&#45;&gt;Node8</title>
<g id="a_edge34_Node000022_Node000008"><a xlink:title=" ">
<path fill="none" stroke="#63b8ff" d="M753.14,-885.36C684.94,-870.62 572.97,-850.25 475.12,-850.25 475.12,-850.25 475.12,-850.25 301.88,-850.25 16.18,-850.25 18.74,-306.01 20.69,-225.22"/>
<polygon fill="#63b8ff" stroke="#63b8ff" points="752.11,-888.72 762.63,-887.44 753.61,-881.88 752.11,-888.72"/>
</a>
</g>
</g>
<!-- Node24&#45;&gt;Node22 -->
<g id="edge62_Node000024_Node000022" class="edge">
<title>Node24&#45;&gt;Node22</title>
<g id="a_edge62_Node000024_Node000022"><a xlink:title=" ">
<path fill="none" stroke="#63b8ff" d="M1302.34,-737.57C1269.44,-790.18 1185.25,-910.14 1077.25,-955.25 1013.48,-981.89 988.81,-971.98 921.75,-955.25 891.37,-947.67 860.14,-929.31 840.06,-915.88"/>
<polygon fill="#63b8ff" stroke="#63b8ff" points="1305.18,-739.63 1307.44,-729.28 1299.22,-735.97 1305.18,-739.63"/>
</a>
</g>
</g>
<!-- Node25 -->
<g id="Node000025" class="node">
<title>Node25</title>
<g id="a_Node000025"><a xlink:href="classfabomatic_1_1_board_logic.xhtml#a3c38d7a3ed7952c6d6297efdf50ea4dd" target="_top" xlink:title="Sets the board in the state given.">
<polygon fill="white" stroke="#666666" points="1226,-727.5 1113.25,-727.5 1113.25,-697 1226,-697 1226,-727.5"/>
<text text-anchor="start" x="1121.25" y="-714" font-family="Helvetica,sans-Serif" font-size="10.00">fabomatic::BoardLogic</text>
<text text-anchor="middle" x="1169.62" y="-702.75" font-family="Helvetica,sans-Serif" font-size="10.00">::changeStatus</text>
</a>
</g>
</g>
<!-- Node24&#45;&gt;Node25 -->
<g id="edge37_Node000024_Node000025" class="edge">
<title>Node24&#45;&gt;Node25</title>
<g id="a_edge37_Node000024_Node000025"><a xlink:title=" ">
<path fill="none" stroke="#63b8ff" d="M1250.51,-712.25C1242.37,-712.25 1234.13,-712.25 1226.18,-712.25"/>
<polygon fill="#63b8ff" stroke="#63b8ff" points="1250.38,-715.75 1260.38,-712.25 1250.38,-708.75 1250.38,-715.75"/>
</a>
</g>
</g>
<!-- Node25&#45;&gt;Node2 -->
<g id="edge38_Node000025_Node000002" class="edge">
<title>Node25&#45;&gt;Node2</title>
<g id="a_edge38_Node000025_Node000002"><a xlink:title=" ">
<path fill="none" stroke="#63b8ff" d="M1163.87,-685.47C1147.14,-591.65 1091.16,-282.57 1077.25,-266.25 1071.52,-259.53 1064.07,-254.36 1056.06,-250.39"/>
<polygon fill="#63b8ff" stroke="#63b8ff" points="1160.38,-685.8 1165.58,-695.04 1167.27,-684.58 1160.38,-685.8"/>
</a>
</g>
</g>
<!-- Node25&#45;&gt;Node3 -->
<g id="edge51_Node000025_Node000003" class="edge">
<title>Node25&#45;&gt;Node3</title>
<g id="a_edge51_Node000025_Node000003"><a xlink:title=" ">
<path fill="none" stroke="#63b8ff" d="M1168.05,-685.16C1165.38,-627.45 1151.11,-491.3 1077.25,-413.25 1023.37,-356.31 932.5,-333.34 874,-324.19"/>
<polygon fill="#63b8ff" stroke="#63b8ff" points="1164.55,-685.16 1168.42,-695.03 1171.55,-684.91 1164.55,-685.16"/>
</a>
</g>
</g>
<!-- Node25&#45;&gt;Node4 -->
<g id="edge39_Node000025_Node000004" class="edge">
<title>Node25&#45;&gt;Node4</title>
<g id="a_edge39_Node000025_Node000004"><a xlink:title=" ">
<path fill="none" stroke="#63b8ff" d="M1165.97,-685.2C1157.65,-606.29 1129.52,-378.8 1077.25,-329.25 1024.18,-278.95 804.42,-276.67 699.87,-278.57"/>
<polygon fill="#63b8ff" stroke="#63b8ff" points="1162.47,-685.44 1166.98,-695.03 1169.44,-684.73 1162.47,-685.44"/>
</a>
</g>
</g>
<!-- Node25&#45;&gt;Node19 -->
<g id="edge53_Node000025_Node000019" class="edge">
<title>Node25&#45;&gt;Node19</title>
<g id="a_edge53_Node000025_Node000019"><a xlink:title=" ">
<path fill="none" stroke="#63b8ff" d="M1101.75,-712.38C981.38,-712.61 734.2,-713.08 663.44,-713.21"/>
<polygon fill="#63b8ff" stroke="#63b8ff" points="1101.48,-715.88 1111.48,-712.36 1101.47,-708.88 1101.48,-715.88"/>
</a>
</g>
</g>
<!-- Node25&#45;&gt;Node22 -->
<g id="edge60_Node000025_Node000022" class="edge">
<title>Node25&#45;&gt;Node22</title>
<g id="a_edge60_Node000025_Node000022"><a xlink:title=" ">
<path fill="none" stroke="#63b8ff" d="M1166.52,-739.32C1161.14,-787.46 1142.32,-886.97 1077.25,-930.25 1006.8,-977.11 901.14,-939.5 849.3,-915.83"/>
<polygon fill="#63b8ff" stroke="#63b8ff" points="1169.99,-739.78 1167.49,-729.49 1163.02,-739.1 1169.99,-739.78"/>
</a>
</g>
</g>
<!-- Node26 -->
<g id="Node000026" class="node">
<title>Node26</title>
<g id="a_Node000026"><a xlink:href="namespacefabomatic.xhtml#aaa30fd4002cc95e50c035f2d3dcdb44d" target="_top" xlink:title=" ">
<polygon fill="white" stroke="#666666" points="1074.62,-645.88 924.38,-645.88 924.38,-626.62 1074.62,-626.62 1074.62,-645.88"/>
<text text-anchor="middle" x="999.5" y="-632.38" font-family="Helvetica,sans-Serif" font-size="10.00">fabomatic::configModeCallback</text>
</a>
</g>
</g>
<!-- Node25&#45;&gt;Node26 -->
<g id="edge40_Node000025_Node000026" class="edge">
<title>Node25&#45;&gt;Node26</title>
<g id="a_edge40_Node000025_Node000026"><a xlink:title=" ">
<path fill="none" stroke="#63b8ff" d="M1135.11,-690.88C1118.21,-680.7 1097.12,-668.89 1077.25,-660.25 1064.83,-654.85 1050.8,-650.1 1038.17,-646.27"/>
<polygon fill="#63b8ff" stroke="#63b8ff" points="1132.9,-693.62 1143.25,-695.86 1136.55,-687.65 1132.9,-693.62"/>
</a>
</g>
</g>
<!-- Node27 -->
<g id="Node000027" class="node">
<title>Node27</title>
<g id="a_Node000027"><a xlink:href="namespacefabomatic.xhtml#a8374c0d1cef777c26dc13b4abc9c52b6" target="_top" xlink:title="Open the ArduinoOTA configuration portal.">
<polygon fill="white" stroke="#666666" points="885.75,-684.88 749,-684.88 749,-665.62 885.75,-665.62 885.75,-684.88"/>
<text text-anchor="middle" x="817.38" y="-671.38" font-family="Helvetica,sans-Serif" font-size="10.00">fabomatic::openConfigPortal</text>
</a>
</g>
</g>
<!-- Node25&#45;&gt;Node27 -->
<g id="edge52_Node000025_Node000027" class="edge">
<title>Node25&#45;&gt;Node27</title>
<g id="a_edge52_Node000025_Node000027"><a xlink:title=" ">
<path fill="none" stroke="#63b8ff" d="M1101.91,-701.53C1093.62,-700.34 1085.25,-699.22 1077.25,-698.25 1012.52,-690.42 938.39,-684.1 886.09,-680.08"/>
<polygon fill="#63b8ff" stroke="#63b8ff" points="1101.23,-704.97 1111.64,-702.95 1102.25,-698.04 1101.23,-704.97"/>
</a>
</g>
</g>
<!-- Node28 -->
<g id="Node000028" class="node">
<title>Node28</title>
<g id="a_Node000028"><a xlink:href="classfabomatic_1_1_board_logic.xhtml#a98a15cc323f97adc394c29e897afc12d" target="_top" xlink:title="Removes the current machine user and changes the status to LoggedOut.">
<polygon fill="white" stroke="#666666" points="1055.88,-452.5 943.12,-452.5 943.12,-422 1055.88,-422 1055.88,-452.5"/>
<text text-anchor="start" x="951.12" y="-439" font-family="Helvetica,sans-Serif" font-size="10.00">fabomatic::BoardLogic</text>
<text text-anchor="middle" x="999.5" y="-427.75" font-family="Helvetica,sans-Serif" font-size="10.00">::logout</text>
</a>
</g>
</g>
<!-- Node25&#45;&gt;Node28 -->
<g id="edge44_Node000025_Node000028" class="edge">
<title>Node25&#45;&gt;Node28</title>
<g id="a_edge44_Node000025_Node000028"><a xlink:title=" ">
<path fill="none" stroke="#63b8ff" d="M1153.11,-686.87C1118.93,-630.96 1037.99,-498.58 1010.12,-452.99"/>
<polygon fill="#63b8ff" stroke="#63b8ff" points="1150.11,-688.68 1158.31,-695.39 1156.08,-685.03 1150.11,-688.68"/>
</a>
</g>
</g>
<!-- Node30 -->
<g id="Node000030" class="node">
<title>Node30</title>
<g id="a_Node000030"><a xlink:href="namespacefabomatic.xhtml#a53440db527e478f13eaa71bbd46120c3" target="_top" xlink:title="Initialization of the Arduino OTA library with settings for fabomatic.">
<polygon fill="white" stroke="#666666" points="871.12,-797.88 763.62,-797.88 763.62,-778.62 871.12,-778.62 871.12,-797.88"/>
<text text-anchor="middle" x="817.38" y="-784.38" font-family="Helvetica,sans-Serif" font-size="10.00">fabomatic::setupOTA</text>
</a>
</g>
</g>
<!-- Node25&#45;&gt;Node30 -->
<g id="edge54_Node000025_Node000030" class="edge">
<title>Node25&#45;&gt;Node30</title>
<g id="a_edge54_Node000025_Node000030"><a xlink:title=" ">
<path fill="none" stroke="#63b8ff" d="M1123.82,-732.2C1109.2,-738.08 1092.75,-744.06 1077.25,-748.25 1007.23,-767.2 923.97,-778.06 871.15,-783.56"/>
<polygon fill="#63b8ff" stroke="#63b8ff" points="1124.79,-735.58 1132.69,-728.53 1122.12,-729.11 1124.79,-735.58"/>
</a>
</g>
</g>
<!-- Node31 -->
<g id="Node000031" class="node">
<title>Node31</title>
<g id="a_Node000031"><a xlink:href="namespacefabomatic.xhtml#ae7de89faffd3bb8805727b8a1092a198" target="_top" xlink:title="Opens WiFi and server connection and updates board state accordingly.">
<polygon fill="white" stroke="#666666" points="876.38,-760.88 758.38,-760.88 758.38,-741.62 876.38,-741.62 876.38,-760.88"/>
<text text-anchor="middle" x="817.38" y="-747.38" font-family="Helvetica,sans-Serif" font-size="10.00">fabomatic::taskConnect</text>
</a>
</g>
</g>
<!-- Node25&#45;&gt;Node31 -->
<g id="edge56_Node000025_Node000031" class="edge">
<title>Node25&#45;&gt;Node31</title>
<g id="a_edge56_Node000025_Node000031"><a xlink:title=" ">
<path fill="none" stroke="#63b8ff" d="M1101.91,-722.91C1093.61,-724.11 1085.24,-725.25 1077.25,-726.25 1008.59,-734.82 929.36,-742.09 876.82,-746.54"/>
<polygon fill="#63b8ff" stroke="#63b8ff" points="1102.24,-726.4 1111.63,-721.48 1101.22,-719.48 1102.24,-726.4"/>
</a>
</g>
</g>
<!-- Node32 -->
<g id="Node000032" class="node">
<title>Node32</title>
<g id="a_Node000032"><a xlink:href="namespacefabomatic.xhtml#a86a02975f3cc660ebccdde8f217aa035" target="_top" xlink:title="periodic check if the machine must be powered off">
<polygon fill="white" stroke="#666666" points="1077.25,-920.88 921.75,-920.88 921.75,-901.62 1077.25,-901.62 1077.25,-920.88"/>
<text text-anchor="middle" x="999.5" y="-907.38" font-family="Helvetica,sans-Serif" font-size="10.00">fabomatic::taskPoweroffWarning</text>
</a>
</g>
</g>
<!-- Node25&#45;&gt;Node32 -->
<g id="edge58_Node000025_Node000032" class="edge">
<title>Node25&#45;&gt;Node32</title>
<g id="a_edge58_Node000025_Node000032"><a xlink:title=" ">
<path fill="none" stroke="#63b8ff" d="M1162.77,-738.88C1152.56,-778.78 1127.62,-853.61 1077.25,-893.25 1073.27,-896.38 1068.84,-898.98 1064.17,-901.15"/>
<polygon fill="#63b8ff" stroke="#63b8ff" points="1166.11,-739.94 1165.07,-729.4 1159.31,-738.29 1166.11,-739.94"/>
</a>
</g>
</g>
<!-- Node33 -->
<g id="Node000033" class="node">
<title>Node33</title>
<g id="a_Node000033"><a xlink:href="namespacefabomatic.xhtml#a525d1f233a2f797801a9a659c5044cb7" target="_top" xlink:title="checks the RFID chip status and re&#45;init it if necessary.">
<polygon fill="white" stroke="#666666" points="1070.5,-883.88 928.5,-883.88 928.5,-864.62 1070.5,-864.62 1070.5,-883.88"/>
<text text-anchor="middle" x="999.5" y="-870.38" font-family="Helvetica,sans-Serif" font-size="10.00">fabomatic::taskRfidWatchdog</text>
</a>
</g>
</g>
<!-- Node25&#45;&gt;Node33 -->
<g id="edge59_Node000025_Node000033" class="edge">
<title>Node25&#45;&gt;Node33</title>
<g id="a_edge59_Node000025_Node000033"><a xlink:title=" ">
<path fill="none" stroke="#63b8ff" d="M1159.01,-738.43C1145.72,-770.9 1118.58,-825.6 1077.25,-855.25 1072.23,-858.85 1066.61,-861.77 1060.74,-864.14"/>
<polygon fill="#63b8ff" stroke="#63b8ff" points="1162.18,-739.94 1162.59,-729.35 1155.67,-737.38 1162.18,-739.94"/>
</a>
</g>
</g>
<!-- Node34 -->
<g id="Node000034" class="node">
<title>Node34</title>
<g id="a_Node000034"><a xlink:href="namespacefabomatic_1_1tests.xhtml#a88a4242d48bfa4a0337df522d303c367" target="_top" xlink:title="Opens WiFi and server connection and updates board state accordingly.">
<polygon fill="white" stroke="#666666" points="1052.5,-846.5 946.5,-846.5 946.5,-816 1052.5,-816 1052.5,-846.5"/>
<text text-anchor="start" x="954.5" y="-833" font-family="Helvetica,sans-Serif" font-size="10.00">fabomatic::tests::test</text>
<text text-anchor="middle" x="999.5" y="-821.75" font-family="Helvetica,sans-Serif" font-size="10.00">_taskConnect</text>
</a>
</g>
</g>
<!-- Node25&#45;&gt;Node34 -->
<g id="edge61_Node000025_Node000034" class="edge">
<title>Node25&#45;&gt;Node34</title>
<g id="a_edge61_Node000025_Node000034"><a xlink:title=" ">
<path fill="none" stroke="#63b8ff" d="M1149.08,-736.49C1131.92,-756.43 1105.38,-784.24 1077.25,-802.25 1069.21,-807.4 1060.13,-811.84 1051.09,-815.58"/>
<polygon fill="#63b8ff" stroke="#63b8ff" points="1151.53,-739.01 1155.29,-729.1 1146.18,-734.5 1151.53,-739.01"/>
</a>
</g>
</g>
<!-- Node26&#45;&gt;Node27 -->
<g id="edge41_Node000026_Node000027" class="edge">
<title>Node26&#45;&gt;Node27</title>
<g id="a_edge41_Node000026_Node000027"><a xlink:title=" ">
<path fill="none" stroke="#63b8ff" d="M941.11,-648.68C916.52,-654 888.17,-660.14 864.92,-665.17"/>
<polygon fill="#63b8ff" stroke="#63b8ff" points="941.6,-652.15 950.63,-646.61 940.12,-645.31 941.6,-652.15"/>
</a>
</g>
</g>
<!-- Node27&#45;&gt;Node19 -->
<g id="edge42_Node000027_Node000019" class="edge">
<title>Node27&#45;&gt;Node19</title>
<g id="a_edge42_Node000027_Node000019"><a xlink:title=" ">
<path fill="none" stroke="#63b8ff" d="M759.65,-687.76C726.32,-695.12 686.32,-703.94 663.2,-709.04"/>
<polygon fill="#63b8ff" stroke="#63b8ff" points="760.18,-691.23 769.19,-685.66 758.67,-684.4 760.18,-691.23"/>
</a>
</g>
</g>
<!-- Node27&#45;&gt;Node21 -->
<g id="edge43_Node000027_Node000021" class="edge">
<title>Node27&#45;&gt;Node21</title>
<g id="a_edge43_Node000027_Node000021"><a xlink:title=" ">
<path fill="none" stroke="#63b8ff" d="M759.49,-662.7C736.84,-657.7 711.14,-652.03 689.75,-647.31"/>
<polygon fill="#63b8ff" stroke="#63b8ff" points="758.67,-666.1 769.19,-664.84 760.18,-659.27 758.67,-666.1"/>
</a>
</g>
</g>
<!-- Node28&#45;&gt;Node3 -->
<g id="edge46_Node000028_Node000003" class="edge">
<title>Node28&#45;&gt;Node3</title>
<g id="a_edge46_Node000028_Node000003"><a xlink:title=" ">
<path fill="none" stroke="#63b8ff" d="M973.6,-414.13C951.66,-394.58 918.22,-366.72 885.75,-347.25 877.56,-342.34 868.38,-337.82 859.51,-333.88"/>
<polygon fill="#63b8ff" stroke="#63b8ff" points="971.09,-416.58 980.86,-420.68 975.78,-411.38 971.09,-416.58"/>
</a>
</g>
</g>
<!-- Node28&#45;&gt;Node6 -->
<g id="edge45_Node000028_Node000006" class="edge">
<title>Node28&#45;&gt;Node6</title>
<g id="a_edge45_Node000028_Node000006"><a xlink:title=" ">
<path fill="none" stroke="#63b8ff" d="M961.71,-416.38C940.24,-405.21 912.24,-392.33 885.75,-385.25 681.07,-330.53 600.06,-437.87 411,-342.25 360.18,-316.55 322.6,-255.52 309.21,-231.36"/>
<polygon fill="#63b8ff" stroke="#63b8ff" points="959.88,-419.37 970.35,-420.98 963.17,-413.19 959.88,-419.37"/>
</a>
</g>
</g>
<!-- Node28&#45;&gt;Node11 -->
<g id="edge49_Node000028_Node000011" class="edge">
<title>Node28&#45;&gt;Node11</title>
<g id="a_edge49_Node000028_Node000011"><a xlink:title=" ">
<path fill="none" stroke="#63b8ff" d="M931.54,-450.42C916.54,-452.85 900.65,-455 885.75,-456.25 825.18,-461.32 809.36,-463.38 749,-456.25 595.59,-438.12 558.13,-422.32 411,-375.25 322.35,-346.89 221.77,-303.14 170.45,-279.95"/>
<polygon fill="#63b8ff" stroke="#63b8ff" points="932.04,-453.89 941.33,-448.78 930.88,-446.98 932.04,-453.89"/>
</a>
</g>
</g>
<!-- Node28&#45;&gt;Node12 -->
<g id="edge50_Node000028_Node000012" class="edge">
<title>Node28&#45;&gt;Node12</title>
<g id="a_edge50_Node000028_Node000012"><a xlink:title=" ">
<path fill="none" stroke="#63b8ff" d="M931.46,-424.87C916.46,-422.41 900.59,-420.03 885.75,-418.25 595.96,-383.52 511.62,-450.58 230.75,-371.25 204.99,-363.97 178.13,-349.22 159.69,-337.79"/>
<polygon fill="#63b8ff" stroke="#63b8ff" points="930.8,-428.31 941.24,-426.52 931.96,-421.41 930.8,-428.31"/>
</a>
</g>
</g>
<!-- Node28&#45;&gt;Node23 -->
<g id="edge48_Node000028_Node000023" class="edge">
<title>Node28&#45;&gt;Node23</title>
<g id="a_edge48_Node000028_Node000023"><a xlink:title=" ">
<path fill="none" stroke="#63b8ff" d="M954.9,-457.68C934.03,-467.37 908.66,-479.04 885.75,-489.25 875.86,-493.66 865.11,-498.33 855.17,-502.62"/>
<polygon fill="#63b8ff" stroke="#63b8ff" points="956.09,-460.98 963.68,-453.59 953.14,-454.63 956.09,-460.98"/>
</a>
</g>
</g>
<!-- Node29 -->
<g id="Node000029" class="node">
<title>Node29</title>
<g id="a_Node000029"><a xlink:href="namespacefabomatic.xhtml#af8ee1c3cd4edf1a1ba27899da63b611a" target="_top" xlink:title="periodic check if the user shall be logged off">
<polygon fill="white" stroke="#666666" points="885.75,-446.88 749,-446.88 749,-427.62 885.75,-427.62 885.75,-446.88"/>
<text text-anchor="middle" x="817.38" y="-433.38" font-family="Helvetica,sans-Serif" font-size="10.00">fabomatic::taskLogoffCheck</text>
</a>
</g>
</g>
<!-- Node28&#45;&gt;Node29 -->
<g id="edge47_Node000028_Node000029" class="edge">
<title>Node28&#45;&gt;Node29</title>
<g id="a_edge47_Node000028_Node000029"><a xlink:title=" ">
<path fill="none" stroke="#63b8ff" d="M931.79,-437.25C916.87,-437.25 901.03,-437.25 886.08,-437.25"/>
<polygon fill="#63b8ff" stroke="#63b8ff" points="931.47,-440.75 941.47,-437.25 931.47,-433.75 931.47,-440.75"/>
</a>
</g>
</g>
<!-- Node30&#45;&gt;Node19 -->
<g id="edge55_Node000030_Node000019" class="edge">
<title>Node30&#45;&gt;Node19</title>
<g id="a_edge55_Node000030_Node000019"><a xlink:title=" ">
<path fill="none" stroke="#63b8ff" d="M761.82,-774.87C757.44,-773.43 753.12,-771.89 749,-770.25 715.89,-757.05 679.93,-735.85 659.9,-723.37"/>
<polygon fill="#63b8ff" stroke="#63b8ff" points="760.72,-778.19 771.3,-777.77 762.77,-771.5 760.72,-778.19"/>
</a>
</g>
</g>
<!-- Node31&#45;&gt;Node19 -->
<g id="edge57_Node000031_Node000019" class="edge">
<title>Node31&#45;&gt;Node19</title>
<g id="a_edge57_Node000031_Node000019"><a xlink:title=" ">
<path fill="none" stroke="#63b8ff" d="M759.65,-738.74C726.32,-731.38 686.32,-722.56 663.2,-717.46"/>
<polygon fill="#63b8ff" stroke="#63b8ff" points="758.67,-742.1 769.19,-740.84 760.18,-735.27 758.67,-742.1"/>
</a>
</g>
</g>
</g>
</svg>
