<?xml version="1.0" encoding="UTF-8" standalone="no"?>
<!DOCTYPE svg PUBLIC "-//W3C//DTD SVG 1.1//EN"
 "http://www.w3.org/Graphics/SVG/1.1/DTD/svg11.dtd">
<!-- Generated by graphviz version 9.0.0 (20230911.1827)
 -->
<!-- Title: fabomatic::FabBackend::connect Pages: 1 -->
<svg width="616pt" height="203pt"
 viewBox="0.00 0.00 615.75 203.12" xmlns="http://www.w3.org/2000/svg" xmlns:xlink="http://www.w3.org/1999/xlink">
<g id="graph0" class="graph" transform="scale(1 1) rotate(0) translate(4 199.12)">
<title>fabomatic::FabBackend::connect</title>
<!-- Node1 -->
<g id="Node000001" class="node">
<title>Node1</title>
<g id="a_Node000001"><a xlink:title="Establishes a connection to the WiFi network and the MQTT server.">
<polygon fill="#999999" stroke="#666666" points="118,-122.5 0,-122.5 0,-92 118,-92 118,-122.5"/>
<text text-anchor="start" x="8" y="-109" font-family="Helvetica,sans-Serif" font-size="10.00">fabomatic::FabBackend</text>
<text text-anchor="middle" x="59" y="-97.75" font-family="Helvetica,sans-Serif" font-size="10.00">::connect</text>
</a>
</g>
</g>
<!-- Node2 -->
<g id="Node000002" class="node">
<title>Node2</title>
<g id="a_Node000002"><a xlink:href="namespacefabomatic_1_1_tasks.xhtml#adc67d1313c6695d813feb935eafdaf60" target="_top" xlink:title=" ">
<polygon fill="white" stroke="#666666" points="607.75,-174.88 461.25,-174.88 461.25,-155.62 607.75,-155.62 607.75,-174.88"/>
<text text-anchor="middle" x="534.5" y="-161.38" font-family="Helvetica,sans-Serif" font-size="10.00">fabomatic::Tasks::arduinoNow</text>
</a>
</g>
</g>
<!-- Node1&#45;&gt;Node2 -->
<g id="edge1_Node000001_Node000002" class="edge">
<title>Node1&#45;&gt;Node2</title>
<g id="a_edge1_Node000001_Node000002"><a xlink:title=" ">
<path fill="none" stroke="#63b8ff" d="M75.25,-122.81C92.56,-139.25 122.51,-164.17 154,-174.25 264.9,-209.73 403.49,-191.95 478.72,-177.52"/>
<polygon fill="#63b8ff" stroke="#63b8ff" points="479.17,-181 488.31,-175.63 477.82,-174.14 479.17,-181"/>
</a>
</g>
</g>
<!-- Node3 -->
<g id="Node000003" class="node">
<title>Node3</title>
<g id="a_Node000003"><a xlink:href="classfabomatic_1_1_fab_backend.xhtml#ad928751b2f967feaac0f2cb708c0d6e9" target="_top" xlink:title="Connects to the WiFi network.">
<polygon fill="white" stroke="#666666" points="272,-165.5 154,-165.5 154,-135 272,-135 272,-165.5"/>
<text text-anchor="start" x="162" y="-152" font-family="Helvetica,sans-Serif" font-size="10.00">fabomatic::FabBackend</text>
<text text-anchor="middle" x="213" y="-140.75" font-family="Helvetica,sans-Serif" font-size="10.00">::connectWiFi</text>
</a>
</g>
</g>
<!-- Node1&#45;&gt;Node3 -->
<g id="edge2_Node000001_Node000003" class="edge">
<title>Node1&#45;&gt;Node3</title>
<g id="a_edge2_Node000001_Node000003"><a xlink:title=" ">
<path fill="none" stroke="#63b8ff" d="M115.31,-122.9C125.15,-125.68 135.51,-128.61 145.63,-131.47"/>
<polygon fill="#63b8ff" stroke="#63b8ff" points="144.45,-134.78 155.02,-134.13 146.35,-128.04 144.45,-134.78"/>
</a>
</g>
</g>
<!-- Node4 -->
<g id="Node000004" class="node">
<title>Node4</title>
<g id="a_Node000004"><a xlink:href="namespacefabomatic_1_1_tasks.xhtml#a5c20f560f5934822d39ba116a16f3ab6" target="_top" xlink:title="Wait for a delay, allowing OTA updates.">
<polygon fill="white" stroke="#666666" points="425.25,-146.88 308,-146.88 308,-127.62 425.25,-127.62 425.25,-146.88"/>
<text text-anchor="middle" x="366.62" y="-133.38" font-family="Helvetica,sans-Serif" font-size="10.00">fabomatic::Tasks::delay</text>
</a>
</g>
</g>
<!-- Node1&#45;&gt;Node4 -->
<g id="edge6_Node000001_Node000004" class="edge">
<title>Node1&#45;&gt;Node4</title>
<g id="a_edge6_Node000001_Node000004"><a xlink:title=" ">
<path fill="none" stroke="#63b8ff" d="M118.08,-112.02C160.71,-115.63 219.99,-120.87 272,-126.25 279.95,-127.07 288.27,-127.98 296.53,-128.91"/>
<polygon fill="#63b8ff" stroke="#63b8ff" points="295.88,-132.36 306.21,-130.02 296.68,-125.41 295.88,-132.36"/>
</a>
</g>
</g>
<!-- Node5 -->
<g id="Node000005" class="node">
<title>Node5</title>
<g id="a_Node000005"><a xlink:href="classfabomatic_1_1_fab_backend.xhtml#a3ab102598ee93269de90a0170e024619" target="_top" xlink:title="Callback function for received MQTT messages.">
<polygon fill="white" stroke="#666666" points="272,-79.5 154,-79.5 154,-49 272,-49 272,-79.5"/>
<text text-anchor="start" x="162" y="-66" font-family="Helvetica,sans-Serif" font-size="10.00">fabomatic::FabBackend</text>
<text text-anchor="middle" x="213" y="-54.75" font-family="Helvetica,sans-Serif" font-size="10.00">::messageReceived</text>
</a>
</g>
</g>
<!-- Node1&#45;&gt;Node5 -->
<g id="edge7_Node000001_Node000005" class="edge">
<title>Node1&#45;&gt;Node5</title>
<g id="a_edge7_Node000001_Node000005"><a xlink:title=" ">
<path fill="none" stroke="#63b8ff" d="M115.31,-91.6C125.15,-88.82 135.51,-85.89 145.63,-83.03"/>
<polygon fill="#63b8ff" stroke="#63b8ff" points="146.35,-86.46 155.02,-80.37 144.45,-79.72 146.35,-86.46"/>
</a>
</g>
</g>
<!-- Node6 -->
<g id="Node000006" class="node">
<title>Node6</title>
<g id="a_Node000006"><a xlink:href="classfabomatic_1_1_fab_backend.xhtml#aee0cf549bea2daebc3e08742853d36c1" target="_top" xlink:title="Publishes a query on the MQTT server.">
<polygon fill="white" stroke="#666666" points="272,-30.5 154,-30.5 154,0 272,0 272,-30.5"/>
<text text-anchor="start" x="162" y="-17" font-family="Helvetica,sans-Serif" font-size="10.00">fabomatic::FabBackend</text>
<text text-anchor="middle" x="213" y="-5.75" font-family="Helvetica,sans-Serif" font-size="10.00">::publish</text>
</a>
</g>
</g>
<!-- Node1&#45;&gt;Node6 -->
<g id="edge8_Node000001_Node000006" class="edge">
<title>Node1&#45;&gt;Node6</title>
<g id="a_edge8_Node000001_Node000006"><a xlink:title=" ">
<path fill="none" stroke="#63b8ff" d="M79.36,-91.59C97.82,-77.12 126.76,-55.6 154,-40.25 156.64,-38.76 159.39,-37.3 162.19,-35.89"/>
<polygon fill="#63b8ff" stroke="#63b8ff" points="163.59,-39.09 171.09,-31.61 160.56,-32.79 163.59,-39.09"/>
</a>
</g>
</g>
<!-- Node3&#45;&gt;Node4 -->
<g id="edge3_Node000003_Node000004" class="edge">
<title>Node3&#45;&gt;Node4</title>
<g id="a_edge3_Node000003_Node000004"><a xlink:title=" ">
<path fill="none" stroke="#63b8ff" d="M272.19,-145.26C280.08,-144.58 288.24,-143.88 296.3,-143.19"/>
<polygon fill="#63b8ff" stroke="#63b8ff" points="296.42,-146.7 306.08,-142.35 295.82,-139.72 296.42,-146.7"/>
</a>
</g>
</g>
<!-- Node4&#45;&gt;Node2 -->
<g id="edge4_Node000004_Node000002" class="edge">
<title>Node4&#45;&gt;Node2</title>
<g id="a_edge4_Node000004_Node000002"><a xlink:title=" ">
<path fill="none" stroke="#63b8ff" d="M425.64,-147.04C437.51,-149.05 450.14,-151.18 462.41,-153.25"/>
<polygon fill="#63b8ff" stroke="#63b8ff" points="461.61,-156.66 472.06,-154.88 462.78,-149.76 461.61,-156.66"/>
</a>
</g>
</g>
<!-- Node4&#45;&gt;Node4 -->
<g id="edge5_Node000004_Node000004" class="edge">
<title>Node4&#45;&gt;Node4</title>
<g id="a_edge5_Node000004_Node000004"><a xlink:title=" ">
<path fill="none" stroke="#63b8ff" d="M342.57,-147.16C331.6,-155.77 339.62,-164.88 366.62,-164.88 381.81,-164.88 391,-161.99 394.17,-157.94"/>
<polygon fill="#63b8ff" stroke="#63b8ff" points="397.56,-157.04 391.14,-148.6 390.9,-159.19 397.56,-157.04"/>
</a>
</g>
</g>
</g>
</svg>
