<?xml version="1.0" encoding="UTF-8" standalone="no"?>
<!DOCTYPE svg PUBLIC "-//W3C//DTD SVG 1.1//EN"
 "http://www.w3.org/Graphics/SVG/1.1/DTD/svg11.dtd">
<!-- Generated by graphviz version 9.0.0 (20230911.1827)
 -->
<!-- Title: fabomatic::FabBackend::connect Pages: 1 -->
<svg width="1306pt" height="585pt"
 viewBox="0.00 0.00 1306.25 584.81" xmlns="http://www.w3.org/2000/svg" xmlns:xlink="http://www.w3.org/1999/xlink">
<g id="graph0" class="graph" transform="scale(1 1) rotate(0) translate(4 580.81)">
<title>fabomatic::FabBackend::connect</title>
<!-- Node1 -->
<g id="Node000001" class="node">
<title>Node1</title>
<g id="a_Node000001"><a xlink:title="Establishes a connection to the WiFi network and the MQTT server.">
<polygon fill="#999999" stroke="#666666" points="1298.25,-235.5 1180.25,-235.5 1180.25,-205 1298.25,-205 1298.25,-235.5"/>
<text text-anchor="start" x="1188.25" y="-222" font-family="Helvetica,sans-Serif" font-size="10.00">fabomatic::FabBackend</text>
<text text-anchor="middle" x="1239.25" y="-210.75" font-family="Helvetica,sans-Serif" font-size="10.00">::connect</text>
</a>
</g>
</g>
<!-- Node2 -->
<g id="Node000002" class="node">
<title>Node2</title>
<g id="a_Node000002"><a xlink:href="classfabomatic_1_1_fab_backend.xhtml#aaa691642839e9196217684949621f2a4" target="_top" xlink:title="Processes a query and returns the response.">
<polygon fill="white" stroke="#666666" points="1143.5,-435.5 1025.5,-435.5 1025.5,-405 1143.5,-405 1143.5,-435.5"/>
<text text-anchor="start" x="1033.5" y="-422" font-family="Helvetica,sans-Serif" font-size="10.00">fabomatic::FabBackend</text>
<text text-anchor="middle" x="1084.5" y="-410.75" font-family="Helvetica,sans-Serif" font-size="10.00">::processQuery</text>
</a>
</g>
</g>
<!-- Node1&#45;&gt;Node2 -->
<g id="edge1_Node000001_Node000002" class="edge">
<title>Node1&#45;&gt;Node2</title>
<g id="a_edge1_Node000001_Node000002"><a xlink:title=" ">
<path fill="none" stroke="#63b8ff" d="M1229.47,-246.74C1216.17,-283.35 1187.76,-349.62 1144.25,-391.25 1138.83,-396.44 1132.29,-400.88 1125.59,-404.62"/>
<polygon fill="#63b8ff" stroke="#63b8ff" points="1232.74,-247.98 1232.75,-237.39 1226.14,-245.66 1232.74,-247.98"/>
</a>
</g>
</g>
<!-- Node3 -->
<g id="Node000003" class="node">
<title>Node3</title>
<g id="a_Node000003"><a xlink:href="classfabomatic_1_1_board_logic.xhtml#aa0d3d3aa742eba1ffd00b97868ce7edc" target="_top" xlink:title="connects and polls the server for up&#45;to&#45;date machine information">
<polygon fill="white" stroke="#666666" points="1140.88,-349.5 1028.12,-349.5 1028.12,-319 1140.88,-319 1140.88,-349.5"/>
<text text-anchor="start" x="1036.12" y="-336" font-family="Helvetica,sans-Serif" font-size="10.00">fabomatic::BoardLogic</text>
<text text-anchor="middle" x="1084.5" y="-324.75" font-family="Helvetica,sans-Serif" font-size="10.00">::refreshFromServer</text>
</a>
</g>
</g>
<!-- Node1&#45;&gt;Node3 -->
<g id="edge2_Node000001_Node000003" class="edge">
<title>Node1&#45;&gt;Node3</title>
<g id="a_edge2_Node000001_Node000003"><a xlink:title=" ">
<path fill="none" stroke="#63b8ff" d="M1213.3,-243.65C1194.92,-260.34 1168.92,-282.83 1144.25,-300.25 1135.01,-306.78 1124.44,-313.19 1114.83,-318.66"/>
<polygon fill="#63b8ff" stroke="#63b8ff" points="1215.56,-246.33 1220.56,-236.99 1210.83,-241.17 1215.56,-246.33"/>
</a>
</g>
</g>
<!-- Node19 -->
<g id="Node000019" class="node">
<title>Node19</title>
<g id="a_Node000019"><a xlink:href="namespacefabomatic.xhtml#ae7de89faffd3bb8805727b8a1092a198" target="_top" xlink:title="Opens WiFi and server connection and updates board state accordingly.">
<polygon fill="white" stroke="#666666" points="988.75,-424.88 870.75,-424.88 870.75,-405.62 988.75,-405.62 988.75,-424.88"/>
<text text-anchor="middle" x="929.75" y="-411.38" font-family="Helvetica,sans-Serif" font-size="10.00">fabomatic::taskConnect</text>
</a>
</g>
</g>
<!-- Node1&#45;&gt;Node19 -->
<g id="edge32_Node000001_Node000019" class="edge">
<title>Node1&#45;&gt;Node19</title>
<g id="a_edge32_Node000001_Node000019"><a xlink:title=" ">
<path fill="none" stroke="#63b8ff" d="M1227.6,-245.89C1213.29,-277.18 1184.86,-329.45 1144.25,-358.25 1130.36,-368.1 1033.09,-391.69 974.75,-405.24"/>
<polygon fill="#63b8ff" stroke="#63b8ff" points="1230.62,-247.72 1231.46,-237.16 1224.22,-244.89 1230.62,-247.72"/>
</a>
</g>
</g>
<!-- Node21 -->
<g id="Node000021" class="node">
<title>Node21</title>
<g id="a_Node000021"><a xlink:href="namespacefabomatic_1_1tests.xhtml#a88a4242d48bfa4a0337df522d303c367" target="_top" xlink:title="Opens WiFi and server connection and updates board state accordingly.">
<polygon fill="white" stroke="#666666" points="982.75,-349.5 876.75,-349.5 876.75,-319 982.75,-319 982.75,-349.5"/>
<text text-anchor="start" x="884.75" y="-336" font-family="Helvetica,sans-Serif" font-size="10.00">fabomatic::tests::test</text>
<text text-anchor="middle" x="929.75" y="-324.75" font-family="Helvetica,sans-Serif" font-size="10.00">_taskConnect</text>
</a>
</g>
</g>
<!-- Node1&#45;&gt;Node21 -->
<g id="edge41_Node000001_Node000021" class="edge">
<title>Node1&#45;&gt;Node21</title>
<g id="a_edge41_Node000001_Node000021"><a xlink:title=" ">
<path fill="none" stroke="#63b8ff" d="M1187.21,-239.96C1173.29,-245.29 1158.21,-251.03 1144.25,-256.25 1085.48,-278.24 1017.36,-303 974.17,-318.61"/>
<polygon fill="#63b8ff" stroke="#63b8ff" points="1188.09,-243.37 1196.17,-236.52 1185.58,-236.84 1188.09,-243.37"/>
</a>
</g>
</g>
<!-- Node22 -->
<g id="Node000022" class="node">
<title>Node22</title>
<g id="a_Node000022"><a xlink:href="namespacefabomatic_1_1tests.xhtml#a95c3d2a5cfa25e610ac054894d766f73" target="_top" xlink:title=" ">
<polygon fill="white" stroke="#666666" points="683.75,-226.5 575.5,-226.5 575.5,-196 683.75,-196 683.75,-226.5"/>
<text text-anchor="start" x="583.5" y="-213" font-family="Helvetica,sans-Serif" font-size="10.00">fabomatic::tests::test</text>
<text text-anchor="middle" x="629.62" y="-201.75" font-family="Helvetica,sans-Serif" font-size="10.00">_check_transmission</text>
</a>
</g>
</g>
<!-- Node1&#45;&gt;Node22 -->
<g id="edge33_Node000001_Node000022" class="edge">
<title>Node1&#45;&gt;Node22</title>
<g id="a_edge33_Node000001_Node000022"><a xlink:title=" ">
<path fill="none" stroke="#63b8ff" d="M1168.4,-222.73C1160.26,-222.94 1152.07,-223.13 1144.25,-223.25 956.59,-226.24 909.4,-228.57 722,-218.25 709.77,-217.58 696.63,-216.67 684.23,-215.74"/>
<polygon fill="#63b8ff" stroke="#63b8ff" points="1168.43,-226.23 1178.33,-222.45 1168.23,-219.23 1168.43,-226.23"/>
</a>
</g>
</g>
<!-- Node23 -->
<g id="Node000023" class="node">
<title>Node23</title>
<g id="a_Node000023"><a xlink:href="namespacefabomatic_1_1tests.xhtml#a24369d35ba4a370e236b987ff7cb5637" target="_top" xlink:title=" ">
<polygon fill="white" stroke="#666666" points="982.75,-116.5 876.75,-116.5 876.75,-86 982.75,-86 982.75,-116.5"/>
<text text-anchor="start" x="884.75" y="-103" font-family="Helvetica,sans-Serif" font-size="10.00">fabomatic::tests::test</text>
<text text-anchor="middle" x="929.75" y="-91.75" font-family="Helvetica,sans-Serif" font-size="10.00">_degraded_use</text>
</a>
</g>
</g>
<!-- Node1&#45;&gt;Node23 -->
<g id="edge35_Node000001_Node000023" class="edge">
<title>Node1&#45;&gt;Node23</title>
<g id="a_edge35_Node000001_Node000023"><a xlink:title=" ">
<path fill="none" stroke="#63b8ff" d="M1212.9,-197.22C1194.94,-182.06 1169.62,-162.93 1144.25,-151.25 1092.21,-127.28 1027.57,-114.21 983.13,-107.51"/>
<polygon fill="#63b8ff" stroke="#63b8ff" points="1210.58,-199.84 1220.44,-203.73 1215.16,-194.55 1210.58,-199.84"/>
</a>
</g>
</g>
<!-- Node24 -->
<g id="Node000024" class="node">
<title>Node24</title>
<g id="a_Node000024"><a xlink:href="namespacefabomatic_1_1tests.xhtml#a438b9060c27d36e89506199205b342cb" target="_top" xlink:title=" ">
<polygon fill="white" stroke="#666666" points="982.75,-165.5 876.75,-165.5 876.75,-135 982.75,-135 982.75,-165.5"/>
<text text-anchor="start" x="884.75" y="-152" font-family="Helvetica,sans-Serif" font-size="10.00">fabomatic::tests::test</text>
<text text-anchor="middle" x="929.75" y="-140.75" font-family="Helvetica,sans-Serif" font-size="10.00">_fabserver_calls</text>
</a>
</g>
</g>
<!-- Node1&#45;&gt;Node24 -->
<g id="edge37_Node000001_Node000024" class="edge">
<title>Node1&#45;&gt;Node24</title>
<g id="a_edge37_Node000001_Node000024"><a xlink:title=" ">
<path fill="none" stroke="#63b8ff" d="M1201.61,-199.24C1184.67,-190.44 1163.97,-180.95 1144.25,-175.25 1090.65,-159.75 1026.84,-153.83 983.03,-151.58"/>
<polygon fill="#63b8ff" stroke="#63b8ff" points="1199.83,-202.25 1210.3,-203.87 1203.12,-196.07 1199.83,-202.25"/>
</a>
</g>
</g>
<!-- Node25 -->
<g id="Node000025" class="node">
<title>Node25</title>
<g id="a_Node000025"><a xlink:href="namespacefabomatic_1_1tests.xhtml#aba7f55ee91c2d2a647fca6c8cc106c97" target="_top" xlink:title=" ">
<polygon fill="white" stroke="#666666" points="682.62,-70.5 576.62,-70.5 576.62,-40 682.62,-40 682.62,-70.5"/>
<text text-anchor="start" x="584.62" y="-57" font-family="Helvetica,sans-Serif" font-size="10.00">fabomatic::tests::test</text>
<text text-anchor="middle" x="629.62" y="-45.75" font-family="Helvetica,sans-Serif" font-size="10.00">_start_broker</text>
</a>
</g>
</g>
<!-- Node1&#45;&gt;Node25 -->
<g id="edge39_Node000001_Node000025" class="edge">
<title>Node1&#45;&gt;Node25</title>
<g id="a_edge39_Node000001_Node000025"><a xlink:title=" ">
<path fill="none" stroke="#63b8ff" d="M1223.52,-195.2C1207.33,-169.98 1178.97,-131.93 1144.25,-111.25 996.09,-23 780.79,-35.72 682.75,-47.52"/>
<polygon fill="#63b8ff" stroke="#63b8ff" points="1220.45,-196.89 1228.7,-203.53 1226.39,-193.19 1220.45,-196.89"/>
</a>
</g>
</g>
<!-- Node26 -->
<g id="Node000026" class="node">
<title>Node26</title>
<g id="a_Node000026"><a xlink:href="classfabomatic_1_1_auth_provider.xhtml#aeae9923535dcf6cfa9eaf9e5f90e5e64" target="_top" xlink:title="Verifies the card ID against the server (if available) or the whitelist.">
<polygon fill="white" stroke="#666666" points="1144.25,-214.5 1024.75,-214.5 1024.75,-184 1144.25,-184 1144.25,-214.5"/>
<text text-anchor="start" x="1032.75" y="-201" font-family="Helvetica,sans-Serif" font-size="10.00">fabomatic::AuthProvider</text>
<text text-anchor="middle" x="1084.5" y="-189.75" font-family="Helvetica,sans-Serif" font-size="10.00">::tryLogin</text>
</a>
</g>
</g>
<!-- Node1&#45;&gt;Node26 -->
<g id="edge42_Node000001_Node000026" class="edge">
<title>Node1&#45;&gt;Node26</title>
<g id="a_edge42_Node000001_Node000026"><a xlink:title=" ">
<path fill="none" stroke="#63b8ff" d="M1168.74,-210.69C1160.65,-209.58 1152.46,-208.46 1144.53,-207.37"/>
<polygon fill="#63b8ff" stroke="#63b8ff" points="1168.18,-214.15 1178.57,-212.04 1169.14,-207.22 1168.18,-214.15"/>
</a>
</g>
</g>
<!-- Node30 -->
<g id="Node000030" class="node">
<title>Node30</title>
<g id="a_Node000030"><a xlink:href="classfabomatic_1_1_fab_backend.xhtml#a04951b9823ac466be2285640171013e5" target="_top" xlink:title="Waits for an answer from the MQTT server.">
<polygon fill="white" stroke="#666666" points="1143.5,-30.5 1025.5,-30.5 1025.5,0 1143.5,0 1143.5,-30.5"/>
<text text-anchor="start" x="1033.5" y="-17" font-family="Helvetica,sans-Serif" font-size="10.00">fabomatic::FabBackend</text>
<text text-anchor="middle" x="1084.5" y="-5.75" font-family="Helvetica,sans-Serif" font-size="10.00">::waitForAnswer</text>
</a>
</g>
</g>
<!-- Node1&#45;&gt;Node30 -->
<g id="edge50_Node000001_Node000030" class="edge">
<title>Node1&#45;&gt;Node30</title>
<g id="a_edge50_Node000001_Node000030"><a xlink:title=" ">
<path fill="none" stroke="#63b8ff" d="M1230.04,-194.04C1217.14,-156.58 1188.9,-87.49 1144.25,-44.25 1138.86,-39.03 1132.34,-34.57 1125.64,-30.83"/>
<polygon fill="#63b8ff" stroke="#63b8ff" points="1226.59,-194.77 1233.07,-203.15 1233.23,-192.56 1226.59,-194.77"/>
</a>
</g>
</g>
<!-- Node4 -->
<g id="Node000004" class="node">
<title>Node4</title>
<g id="a_Node000004"><a xlink:href="classfabomatic_1_1_board_logic.xhtml#a983c8de8b9c8881fc0a4e60dddc7f0c6" target="_top" xlink:title="Called when a RFID tag has been detected.">
<polygon fill="white" stroke="#666666" points="834.75,-495.5 722,-495.5 722,-465 834.75,-465 834.75,-495.5"/>
<text text-anchor="start" x="730" y="-482" font-family="Helvetica,sans-Serif" font-size="10.00">fabomatic::BoardLogic</text>
<text text-anchor="middle" x="778.38" y="-470.75" font-family="Helvetica,sans-Serif" font-size="10.00">::onNewCard</text>
</a>
</g>
</g>
<!-- Node3&#45;&gt;Node4 -->
<g id="edge3_Node000003_Node000004" class="edge">
<title>Node3&#45;&gt;Node4</title>
<g id="a_edge3_Node000003_Node000004"><a xlink:title=" ">
<path fill="none" stroke="#63b8ff" d="M1016.94,-351.17C959.12,-366.26 882.8,-387.32 870.75,-396.25 847.27,-413.64 856.39,-431.62 834.75,-451.25 829.12,-456.35 822.43,-460.84 815.68,-464.65"/>
<polygon fill="#63b8ff" stroke="#63b8ff" points="1017.6,-354.61 1026.4,-348.71 1015.84,-347.84 1017.6,-354.61"/>
</a>
</g>
</g>
<!-- Node3&#45;&gt;Node19 -->
<g id="edge29_Node000003_Node000019" class="edge">
<title>Node3&#45;&gt;Node19</title>
<g id="a_edge29_Node000003_Node000019"><a xlink:title=" ">
<path fill="none" stroke="#63b8ff" d="M1038.81,-355.12C1033.99,-357.72 1029.21,-360.45 1024.75,-363.25 1007.57,-374.01 1006.27,-381.06 988.75,-391.25 979.61,-396.56 969.07,-401.3 959.5,-405.13"/>
<polygon fill="#63b8ff" stroke="#63b8ff" points="1040.09,-358.39 1047.35,-350.68 1036.86,-352.18 1040.09,-358.39"/>
</a>
</g>
</g>
<!-- Node3&#45;&gt;Node21 -->
<g id="edge31_Node000003_Node000021" class="edge">
<title>Node3&#45;&gt;Node21</title>
<g id="a_edge31_Node000003_Node000021"><a xlink:title=" ">
<path fill="none" stroke="#63b8ff" d="M1016.46,-334.25C1005.33,-334.25 993.94,-334.25 983.23,-334.25"/>
<polygon fill="#63b8ff" stroke="#63b8ff" points="1016.41,-337.75 1026.41,-334.25 1016.41,-330.75 1016.41,-337.75"/>
</a>
</g>
</g>
<!-- Node5 -->
<g id="Node000005" class="node">
<title>Node5</title>
<g id="a_Node000005"><a xlink:href="classfabomatic_1_1_board_logic.xhtml#a25bdc3a49d850aa49f92faf951b68efb" target="_top" xlink:title="Checks if a new card is present.">
<polygon fill="white" stroke="#666666" points="686,-495.5 573.25,-495.5 573.25,-465 686,-465 686,-495.5"/>
<text text-anchor="start" x="581.25" y="-482" font-family="Helvetica,sans-Serif" font-size="10.00">fabomatic::BoardLogic</text>
<text text-anchor="middle" x="629.62" y="-470.75" font-family="Helvetica,sans-Serif" font-size="10.00">::checkRfid</text>
</a>
</g>
</g>
<!-- Node4&#45;&gt;Node5 -->
<g id="edge4_Node000004_Node000005" class="edge">
<title>Node4&#45;&gt;Node5</title>
<g id="a_edge4_Node000004_Node000005"><a xlink:title=" ">
<path fill="none" stroke="#63b8ff" d="M710.51,-480.25C702.37,-480.25 694.13,-480.25 686.18,-480.25"/>
<polygon fill="#63b8ff" stroke="#63b8ff" points="710.38,-483.75 720.38,-480.25 710.38,-476.75 710.38,-483.75"/>
</a>
</g>
</g>
<!-- Node6 -->
<g id="Node000006" class="node">
<title>Node6</title>
<g id="a_Node000006"><a xlink:href="namespacefabomatic_1_1tests.xhtml#a2600320f41c9fa343c66058ecb12b5ee" target="_top" xlink:title="Simulates RFID card tap.">
<polygon fill="white" stroke="#666666" points="537.25,-400.5 411,-400.5 411,-370 537.25,-370 537.25,-400.5"/>
<text text-anchor="start" x="419" y="-387" font-family="Helvetica,sans-Serif" font-size="10.00">fabomatic::tests::simulate</text>
<text text-anchor="middle" x="474.12" y="-375.75" font-family="Helvetica,sans-Serif" font-size="10.00">_rfid_card</text>
</a>
</g>
</g>
<!-- Node5&#45;&gt;Node6 -->
<g id="edge5_Node000005_Node000006" class="edge">
<title>Node5&#45;&gt;Node6</title>
<g id="a_edge5_Node000005_Node000006"><a xlink:title=" ">
<path fill="none" stroke="#63b8ff" d="M593.74,-458.66C565.35,-441.09 525.97,-416.71 500.51,-400.96"/>
<polygon fill="#63b8ff" stroke="#63b8ff" points="591.65,-461.48 601.99,-463.77 595.33,-455.53 591.65,-461.48"/>
</a>
</g>
</g>
<!-- Node13 -->
<g id="Node000013" class="node">
<title>Node13</title>
<g id="a_Node000013"><a xlink:href="namespacefabomatic_1_1tests.xhtml#aab0f4e1439b281ffef8be51db9a81f9d" target="_top" xlink:title=" ">
<polygon fill="white" stroke="#666666" points="191.75,-520.5 79,-520.5 79,-490 191.75,-490 191.75,-520.5"/>
<text text-anchor="start" x="87" y="-507" font-family="Helvetica,sans-Serif" font-size="10.00">fabomatic::tests::test</text>
<text text-anchor="middle" x="135.38" y="-495.75" font-family="Helvetica,sans-Serif" font-size="10.00">_whitelist_no_network</text>
</a>
</g>
</g>
<!-- Node5&#45;&gt;Node13 -->
<g id="edge28_Node000005_Node000013" class="edge">
<title>Node5&#45;&gt;Node13</title>
<g id="a_edge28_Node000005_Node000013"><a xlink:title=" ">
<path fill="none" stroke="#63b8ff" d="M604.88,-503.58C587.66,-518.83 562.96,-537.5 537.25,-546.25 408.28,-590.16 363.5,-581.88 230.75,-551.25 205.35,-545.39 178.88,-531.72 160.46,-520.8"/>
<polygon fill="#63b8ff" stroke="#63b8ff" points="607.04,-506.34 612.05,-497 602.31,-501.18 607.04,-506.34"/>
</a>
</g>
</g>
<!-- Node17 -->
<g id="Node000017" class="node">
<title>Node17</title>
<g id="a_Node000017"><a xlink:href="namespacefabomatic.xhtml#a3e5c190499522bddad3f3cc69274f16c" target="_top" xlink:title="periodic check for new RFID card">
<polygon fill="white" stroke="#666666" points="537.25,-488.88 411,-488.88 411,-469.62 537.25,-469.62 537.25,-488.88"/>
<text text-anchor="middle" x="474.12" y="-475.38" font-family="Helvetica,sans-Serif" font-size="10.00">fabomatic::taskCheckRfid</text>
</a>
</g>
</g>
<!-- Node5&#45;&gt;Node17 -->
<g id="edge26_Node000005_Node000017" class="edge">
<title>Node5&#45;&gt;Node17</title>
<g id="a_edge26_Node000005_Node000017"><a xlink:title=" ">
<path fill="none" stroke="#63b8ff" d="M561.38,-479.81C553.5,-479.76 545.49,-479.71 537.69,-479.66"/>
<polygon fill="#63b8ff" stroke="#63b8ff" points="561.24,-483.31 571.26,-479.88 561.28,-476.31 561.24,-483.31"/>
</a>
</g>
</g>
<!-- Node18 -->
<g id="Node000018" class="node">
<title>Node18</title>
<g id="a_Node000018"><a xlink:href="namespacefabomatic_1_1tests.xhtml#a294b4767ecf1e1d11cc31dafb2541d23" target="_top" xlink:title="periodic check for new RFID card">
<polygon fill="white" stroke="#666666" points="527.12,-537.5 421.12,-537.5 421.12,-507 527.12,-507 527.12,-537.5"/>
<text text-anchor="start" x="429.12" y="-524" font-family="Helvetica,sans-Serif" font-size="10.00">fabomatic::tests::test</text>
<text text-anchor="middle" x="474.12" y="-512.75" font-family="Helvetica,sans-Serif" font-size="10.00">_taskCheckRfid</text>
</a>
</g>
</g>
<!-- Node5&#45;&gt;Node18 -->
<g id="edge27_Node000005_Node000018" class="edge">
<title>Node5&#45;&gt;Node18</title>
<g id="a_edge27_Node000005_Node000018"><a xlink:title=" ">
<path fill="none" stroke="#63b8ff" d="M561.9,-498.51C550.42,-501.65 538.65,-504.87 527.61,-507.89"/>
<polygon fill="#63b8ff" stroke="#63b8ff" points="562.59,-501.95 571.31,-495.93 560.74,-495.19 562.59,-501.95"/>
</a>
</g>
</g>
<!-- Node7 -->
<g id="Node000007" class="node">
<title>Node7</title>
<g id="a_Node000007"><a xlink:href="namespacefabomatic_1_1tests.xhtml#a6a7645a865dc822746f972ea6f43224d" target="_top" xlink:title="Resets machine to initial state, clearing flags.">
<polygon fill="white" stroke="#666666" points="375,-394.88 230.75,-394.88 230.75,-375.62 375,-375.62 375,-394.88"/>
<text text-anchor="middle" x="302.88" y="-381.38" font-family="Helvetica,sans-Serif" font-size="10.00">fabomatic::tests::machine_init</text>
</a>
</g>
</g>
<!-- Node6&#45;&gt;Node7 -->
<g id="edge6_Node000006_Node000007" class="edge">
<title>Node6&#45;&gt;Node7</title>
<g id="a_edge6_Node000006_Node000007"><a xlink:title=" ">
<path fill="none" stroke="#63b8ff" d="M399.12,-385.25C391.21,-385.25 383.18,-385.25 375.3,-385.25"/>
<polygon fill="#63b8ff" stroke="#63b8ff" points="399.07,-388.75 409.07,-385.25 399.07,-381.75 399.07,-388.75"/>
</a>
</g>
</g>
<!-- Node8 -->
<g id="Node000008" class="node">
<title>Node8</title>
<g id="a_Node000008"><a xlink:href="namespacefabomatic_1_1tests.xhtml#a558e2287db01a4622581246a19dac397" target="_top" xlink:title=" ">
<polygon fill="white" stroke="#666666" points="188.38,-324.5 82.38,-324.5 82.38,-294 188.38,-294 188.38,-324.5"/>
<text text-anchor="start" x="90.38" y="-311" font-family="Helvetica,sans-Serif" font-size="10.00">fabomatic::tests::test</text>
<text text-anchor="middle" x="135.38" y="-299.75" font-family="Helvetica,sans-Serif" font-size="10.00">_machine_allowed</text>
</a>
</g>
</g>
<!-- Node6&#45;&gt;Node8 -->
<g id="edge19_Node000006_Node000008" class="edge">
<title>Node6&#45;&gt;Node8</title>
<g id="a_edge19_Node000006_Node000008"><a xlink:title=" ">
<path fill="none" stroke="#63b8ff" d="M416.85,-366.2C403.24,-361.95 388.67,-357.69 375,-354.25 311.42,-338.27 237.04,-325.1 188.43,-317.22"/>
<polygon fill="#63b8ff" stroke="#63b8ff" points="415.49,-369.44 426.08,-369.14 417.61,-362.77 415.49,-369.44"/>
</a>
</g>
</g>
<!-- Node10 -->
<g id="Node000010" class="node">
<title>Node10</title>
<g id="a_Node000010"><a xlink:href="namespacefabomatic_1_1tests.xhtml#a9a34631c2dc01cbdbbce146895c94e12" target="_top" xlink:title=" ">
<polygon fill="white" stroke="#666666" points="194.75,-471.5 76,-471.5 76,-441 194.75,-441 194.75,-471.5"/>
<text text-anchor="start" x="84" y="-458" font-family="Helvetica,sans-Serif" font-size="10.00">fabomatic::tests::test</text>
<text text-anchor="middle" x="135.38" y="-446.75" font-family="Helvetica,sans-Serif" font-size="10.00">_machine_maintenance</text>
</a>
</g>
</g>
<!-- Node6&#45;&gt;Node10 -->
<g id="edge20_Node000006_Node000010" class="edge">
<title>Node6&#45;&gt;Node10</title>
<g id="a_edge20_Node000006_Node000010"><a xlink:title=" ">
<path fill="none" stroke="#63b8ff" d="M424.09,-404.83C408.58,-410.46 391.25,-416.17 375,-420.25 314.46,-435.46 243.55,-445.16 194.86,-450.61"/>
<polygon fill="#63b8ff" stroke="#63b8ff" points="424.93,-408.26 433.08,-401.5 422.49,-401.69 424.93,-408.26"/>
</a>
</g>
</g>
<!-- Node11 -->
<g id="Node000011" class="node">
<title>Node11</title>
<g id="a_Node000011"><a xlink:href="namespacefabomatic_1_1tests.xhtml#a6f3dff17fd964aba76c35c514957a0a5" target="_top" xlink:title=" ">
<polygon fill="white" stroke="#666666" points="189.88,-422.5 80.88,-422.5 80.88,-392 189.88,-392 189.88,-422.5"/>
<text text-anchor="start" x="88.88" y="-409" font-family="Helvetica,sans-Serif" font-size="10.00">fabomatic::tests::test</text>
<text text-anchor="middle" x="135.38" y="-397.75" font-family="Helvetica,sans-Serif" font-size="10.00">_one_user_at_a_time</text>
</a>
</g>
</g>
<!-- Node6&#45;&gt;Node11 -->
<g id="edge23_Node000006_Node000011" class="edge">
<title>Node6&#45;&gt;Node11</title>
<g id="a_edge23_Node000006_Node000011"><a xlink:title=" ">
<path fill="none" stroke="#63b8ff" d="M399.43,-400.99C391.22,-402.3 382.95,-403.44 375,-404.25 311.73,-410.72 238.54,-410.51 190.08,-409.3"/>
<polygon fill="#63b8ff" stroke="#63b8ff" points="399.79,-404.47 409.07,-399.35 398.62,-397.57 399.79,-404.47"/>
</a>
</g>
</g>
<!-- Node12 -->
<g id="Node000012" class="node">
<title>Node12</title>
<g id="a_Node000012"><a xlink:href="namespacefabomatic_1_1tests.xhtml#afa92fef9250d918ee02c79dbf2de2546" target="_top" xlink:title=" ">
<polygon fill="white" stroke="#666666" points="188.38,-373.5 82.38,-373.5 82.38,-343 188.38,-343 188.38,-373.5"/>
<text text-anchor="start" x="90.38" y="-360" font-family="Helvetica,sans-Serif" font-size="10.00">fabomatic::tests::test</text>
<text text-anchor="middle" x="135.38" y="-348.75" font-family="Helvetica,sans-Serif" font-size="10.00">_user_autologoff</text>
</a>
</g>
</g>
<!-- Node6&#45;&gt;Node12 -->
<g id="edge24_Node000006_Node000012" class="edge">
<title>Node6&#45;&gt;Node12</title>
<g id="a_edge24_Node000006_Node000012"><a xlink:title=" ">
<path fill="none" stroke="#63b8ff" d="M399.41,-369.68C391.2,-368.34 382.94,-367.15 375,-366.25 311.16,-359.04 237.14,-357.63 188.68,-357.64"/>
<polygon fill="#63b8ff" stroke="#63b8ff" points="398.59,-373.09 409.04,-371.35 399.79,-366.2 398.59,-373.09"/>
</a>
</g>
</g>
<!-- Node6&#45;&gt;Node13 -->
<g id="edge25_Node000006_Node000013" class="edge">
<title>Node6&#45;&gt;Node13</title>
<g id="a_edge25_Node000006_Node000013"><a xlink:title=" ">
<path fill="none" stroke="#63b8ff" d="M439.62,-406.8C413.98,-423.17 381.88,-443.35 375,-446.25 314.84,-471.63 241.36,-487.75 191.96,-496.61"/>
<polygon fill="#63b8ff" stroke="#63b8ff" points="441.25,-409.91 447.79,-401.57 437.48,-404.01 441.25,-409.91"/>
</a>
</g>
</g>
<!-- Node14 -->
<g id="Node000014" class="node">
<title>Node14</title>
<g id="a_Node000014"><a xlink:href="namespacefabomatic_1_1tests.xhtml#a0b99fa5582e6b0ecb416f4ed348e5606" target="_top" xlink:title=" ">
<polygon fill="white" stroke="#666666" points="358.5,-232.5 247.25,-232.5 247.25,-202 358.5,-202 358.5,-232.5"/>
<text text-anchor="start" x="255.25" y="-219" font-family="Helvetica,sans-Serif" font-size="10.00">fabomatic::tests::test</text>
<text text-anchor="middle" x="302.88" y="-207.75" font-family="Helvetica,sans-Serif" font-size="10.00">_backend_commands</text>
</a>
</g>
</g>
<!-- Node6&#45;&gt;Node14 -->
<g id="edge17_Node000006_Node000014" class="edge">
<title>Node6&#45;&gt;Node14</title>
<g id="a_edge17_Node000006_Node000014"><a xlink:title=" ">
<path fill="none" stroke="#63b8ff" d="M461.81,-359.69C446.5,-327.87 416.27,-273.86 375,-242.25 370.12,-238.51 364.63,-235.3 358.92,-232.55"/>
<polygon fill="#63b8ff" stroke="#63b8ff" points="458.56,-361 465.96,-368.58 464.9,-358.04 458.56,-361"/>
</a>
</g>
</g>
<!-- Node16 -->
<g id="Node000016" class="node">
<title>Node16</title>
<g id="a_Node000016"><a xlink:href="namespacefabomatic_1_1tests.xhtml#af8fa7ace86309b5f699540d8898660c7" target="_top" xlink:title=" ">
<polygon fill="white" stroke="#666666" points="355.88,-281.5 249.88,-281.5 249.88,-251 355.88,-251 355.88,-281.5"/>
<text text-anchor="start" x="257.88" y="-268" font-family="Helvetica,sans-Serif" font-size="10.00">fabomatic::tests::test</text>
<text text-anchor="middle" x="302.88" y="-256.75" font-family="Helvetica,sans-Serif" font-size="10.00">_messages_buffered</text>
</a>
</g>
</g>
<!-- Node6&#45;&gt;Node16 -->
<g id="edge21_Node000006_Node000016" class="edge">
<title>Node6&#45;&gt;Node16</title>
<g id="a_edge21_Node000006_Node000016"><a xlink:title=" ">
<path fill="none" stroke="#63b8ff" d="M451.91,-361.56C433.21,-341.77 404.43,-313.89 375,-295.25 367,-290.18 357.97,-285.7 349.09,-281.86"/>
<polygon fill="#63b8ff" stroke="#63b8ff" points="449.12,-363.7 458.49,-368.64 454.25,-358.93 449.12,-363.7"/>
</a>
</g>
</g>
<!-- Node7&#45;&gt;Node8 -->
<g id="edge7_Node000007_Node000008" class="edge">
<title>Node7&#45;&gt;Node8</title>
<g id="a_edge7_Node000007_Node000008"><a xlink:title=" ">
<path fill="none" stroke="#63b8ff" d="M271.36,-370.33C250.01,-359.98 220.76,-346.01 194.75,-334.25 187.92,-331.16 180.6,-327.95 173.53,-324.9"/>
<polygon fill="#63b8ff" stroke="#63b8ff" points="269.57,-373.35 280.09,-374.57 272.63,-367.05 269.57,-373.35"/>
</a>
</g>
</g>
<!-- Node7&#45;&gt;Node10 -->
<g id="edge9_Node000007_Node000010" class="edge">
<title>Node7&#45;&gt;Node10</title>
<g id="a_edge9_Node000007_Node000010"><a xlink:title=" ">
<path fill="none" stroke="#63b8ff" d="M268.1,-399.76C247.02,-408.82 219.3,-420.72 194.75,-431.25 187.76,-434.25 180.3,-437.45 173.12,-440.52"/>
<polygon fill="#63b8ff" stroke="#63b8ff" points="269.28,-403.07 277.08,-395.9 266.51,-396.64 269.28,-403.07"/>
</a>
</g>
</g>
<!-- Node7&#45;&gt;Node11 -->
<g id="edge11_Node000007_Node000011" class="edge">
<title>Node7&#45;&gt;Node11</title>
<g id="a_edge11_Node000007_Node000011"><a xlink:title=" ">
<path fill="none" stroke="#63b8ff" d="M219.52,-396.2C209.57,-397.52 199.61,-398.84 190.22,-400.09"/>
<polygon fill="#63b8ff" stroke="#63b8ff" points="219.78,-399.69 229.23,-394.91 218.85,-392.76 219.78,-399.69"/>
</a>
</g>
</g>
<!-- Node7&#45;&gt;Node12 -->
<g id="edge13_Node000007_Node000012" class="edge">
<title>Node7&#45;&gt;Node12</title>
<g id="a_edge13_Node000007_Node000012"><a xlink:title=" ">
<path fill="none" stroke="#63b8ff" d="M229,-373.36C215.48,-371.15 201.59,-368.89 188.83,-366.81"/>
<polygon fill="#63b8ff" stroke="#63b8ff" points="228.32,-376.8 238.76,-374.95 229.45,-369.89 228.32,-376.8"/>
</a>
</g>
</g>
<!-- Node7&#45;&gt;Node13 -->
<g id="edge15_Node000007_Node000013" class="edge">
<title>Node7&#45;&gt;Node13</title>
<g id="a_edge15_Node000007_Node000013"><a xlink:title=" ">
<path fill="none" stroke="#63b8ff" d="M284.84,-403.56C264.82,-424.27 229.86,-457.99 194.75,-480.25 189.44,-483.61 183.6,-486.72 177.74,-489.52"/>
<polygon fill="#63b8ff" stroke="#63b8ff" points="287.29,-406.06 291.65,-396.4 282.22,-401.23 287.29,-406.06"/>
</a>
</g>
</g>
<!-- Node9 -->
<g id="Node000009" class="node">
<title>Node9</title>
<g id="a_Node000009"><a xlink:href="test__logic_8cpp.xhtml#a4fc01d736fe50cf5b977f755b675f11d" target="_top" xlink:title=" ">
<polygon fill="white" stroke="#666666" points="40,-391.88 0,-391.88 0,-372.62 40,-372.62 40,-391.88"/>
<text text-anchor="middle" x="20" y="-378.38" font-family="Helvetica,sans-Serif" font-size="10.00">setup</text>
</a>
</g>
</g>
<!-- Node8&#45;&gt;Node9 -->
<g id="edge8_Node000008_Node000009" class="edge">
<title>Node8&#45;&gt;Node9</title>
<g id="a_edge8_Node000008_Node000009"><a xlink:title=" ">
<path fill="none" stroke="#63b8ff" d="M83.1,-330.09C80.66,-331.43 78.28,-332.81 76,-334.25 58.4,-345.31 40.78,-361.9 30.39,-372.39"/>
<polygon fill="#63b8ff" stroke="#63b8ff" points="84.67,-333.21 92,-325.56 81.5,-326.98 84.67,-333.21"/>
</a>
</g>
</g>
<!-- Node10&#45;&gt;Node9 -->
<g id="edge10_Node000010_Node000009" class="edge">
<title>Node10&#45;&gt;Node9</title>
<g id="a_edge10_Node000010_Node000009"><a xlink:title=" ">
<path fill="none" stroke="#63b8ff" d="M82.96,-435.37C80.57,-434.05 78.24,-432.67 76,-431.25 58.3,-420 40.71,-403.05 30.35,-392.33"/>
<polygon fill="#63b8ff" stroke="#63b8ff" points="81.17,-438.39 91.66,-439.84 84.36,-432.16 81.17,-438.39"/>
</a>
</g>
</g>
<!-- Node11&#45;&gt;Node9 -->
<g id="edge12_Node000011_Node000009" class="edge">
<title>Node11&#45;&gt;Node9</title>
<g id="a_edge12_Node000011_Node000009"><a xlink:title=" ">
<path fill="none" stroke="#63b8ff" d="M69.53,-392.95C58.91,-390.61 48.69,-388.35 40.38,-386.52"/>
<polygon fill="#63b8ff" stroke="#63b8ff" points="68.68,-396.35 79.2,-395.08 70.19,-389.51 68.68,-396.35"/>
</a>
</g>
</g>
<!-- Node12&#45;&gt;Node9 -->
<g id="edge14_Node000012_Node000009" class="edge">
<title>Node12&#45;&gt;Node9</title>
<g id="a_edge14_Node000012_Node000009"><a xlink:title=" ">
<path fill="none" stroke="#63b8ff" d="M70.85,-371.7C59.76,-374.05 49.01,-376.32 40.36,-378.15"/>
<polygon fill="#63b8ff" stroke="#63b8ff" points="71.46,-375.15 80.52,-369.65 70.01,-368.3 71.46,-375.15"/>
</a>
</g>
</g>
<!-- Node13&#45;&gt;Node9 -->
<g id="edge16_Node000013_Node000009" class="edge">
<title>Node13&#45;&gt;Node9</title>
<g id="a_edge16_Node000013_Node000009"><a xlink:title=" ">
<path fill="none" stroke="#63b8ff" d="M79.85,-483.44C78.52,-482.42 77.23,-481.36 76,-480.25 47.85,-454.95 30.78,-411.72 24.16,-392.26"/>
<polygon fill="#63b8ff" stroke="#63b8ff" points="77.64,-486.17 87.92,-488.73 81.48,-480.32 77.64,-486.17"/>
</a>
</g>
</g>
<!-- Node15 -->
<g id="Node000015" class="node">
<title>Node15</title>
<g id="a_Node000015"><a xlink:href="test__mqtt_8cpp.xhtml#a4fc01d736fe50cf5b977f755b675f11d" target="_top" xlink:title=" ">
<polygon fill="white" stroke="#666666" points="155.38,-145.88 115.38,-145.88 115.38,-126.62 155.38,-126.62 155.38,-145.88"/>
<text text-anchor="middle" x="135.38" y="-132.38" font-family="Helvetica,sans-Serif" font-size="10.00">setup</text>
</a>
</g>
</g>
<!-- Node14&#45;&gt;Node15 -->
<g id="edge18_Node000014_Node000015" class="edge">
<title>Node14&#45;&gt;Node15</title>
<g id="a_edge18_Node000014_Node000015"><a xlink:title=" ">
<path fill="none" stroke="#63b8ff" d="M250.72,-197.23C243.95,-194.34 237.15,-191.3 230.75,-188.25 202.89,-174.95 171.74,-157.19 153.11,-146.25"/>
<polygon fill="#63b8ff" stroke="#63b8ff" points="249.3,-200.43 259.87,-201.06 252,-193.97 249.3,-200.43"/>
</a>
</g>
</g>
<!-- Node16&#45;&gt;Node9 -->
<g id="edge22_Node000016_Node000009" class="edge">
<title>Node16&#45;&gt;Node9</title>
<g id="a_edge22_Node000016_Node000009"><a xlink:title=" ">
<path fill="none" stroke="#63b8ff" d="M238.29,-256.51C190.03,-252.48 124.02,-254.51 76,-285.25 44.04,-305.71 28.78,-351.7 23.38,-372.13"/>
<polygon fill="#63b8ff" stroke="#63b8ff" points="237.75,-259.97 248.03,-257.44 238.41,-253 237.75,-259.97"/>
</a>
</g>
</g>
<!-- Node20 -->
<g id="Node000020" class="node">
<title>Node20</title>
<g id="a_Node000020"><a xlink:href="main_8cpp.xhtml#a4fc01d736fe50cf5b977f755b675f11d" target="_top" xlink:title=" ">
<polygon fill="white" stroke="#666666" points="798.38,-532.88 758.38,-532.88 758.38,-513.62 798.38,-513.62 798.38,-532.88"/>
<text text-anchor="middle" x="778.38" y="-519.38" font-family="Helvetica,sans-Serif" font-size="10.00">setup</text>
</a>
</g>
</g>
<!-- Node19&#45;&gt;Node20 -->
<g id="edge30_Node000019_Node000020" class="edge">
<title>Node19&#45;&gt;Node20</title>
<g id="a_edge30_Node000019_Node000020"><a xlink:title=" ">
<path fill="none" stroke="#63b8ff" d="M913.32,-434.03C896.04,-453.95 866.31,-485.15 834.75,-504.25 823.62,-510.99 809.78,-515.74 798.72,-518.8"/>
<polygon fill="#63b8ff" stroke="#63b8ff" points="915.98,-436.3 919.77,-426.41 910.64,-431.77 915.98,-436.3"/>
</a>
</g>
</g>
<!-- Node22&#45;&gt;Node15 -->
<g id="edge34_Node000022_Node000015" class="edge">
<title>Node22&#45;&gt;Node15</title>
<g id="a_edge34_Node000022_Node000015"><a xlink:title=" ">
<path fill="none" stroke="#63b8ff" d="M563.78,-201.37C450.81,-184.16 223.46,-149.52 155.8,-139.21"/>
<polygon fill="#63b8ff" stroke="#63b8ff" points="563.1,-204.81 573.51,-202.85 564.15,-197.89 563.1,-204.81"/>
</a>
</g>
</g>
<!-- Node23&#45;&gt;Node15 -->
<g id="edge36_Node000023_Node000015" class="edge">
<title>Node23&#45;&gt;Node15</title>
<g id="a_edge36_Node000023_Node000015"><a xlink:title=" ">
<path fill="none" stroke="#63b8ff" d="M865.27,-100.24C804.91,-99.37 711.59,-98.25 630.62,-98.25 630.62,-98.25 630.62,-98.25 473.12,-98.25 351.63,-98.25 207.03,-122.98 155.65,-132.54"/>
<polygon fill="#63b8ff" stroke="#63b8ff" points="864.95,-103.74 875,-100.38 865.05,-96.74 864.95,-103.74"/>
</a>
</g>
</g>
<!-- Node24&#45;&gt;Node15 -->
<g id="edge38_Node000024_Node000015" class="edge">
<title>Node24&#45;&gt;Node15</title>
<g id="a_edge38_Node000024_Node000015"><a xlink:title=" ">
<path fill="none" stroke="#63b8ff" d="M865.03,-145.52C804.7,-141.46 711.55,-136.25 630.62,-136.25 630.62,-136.25 630.62,-136.25 473.12,-136.25 352.4,-136.25 207.32,-136.25 155.74,-136.25"/>
<polygon fill="#63b8ff" stroke="#63b8ff" points="864.55,-149 874.77,-146.19 865.03,-142.02 864.55,-149"/>
</a>
</g>
</g>
<!-- Node25&#45;&gt;Node15 -->
<g id="edge40_Node000025_Node000015" class="edge">
<title>Node25&#45;&gt;Node15</title>
<g id="a_edge40_Node000025_Node000015"><a xlink:title=" ">
<path fill="none" stroke="#63b8ff" d="M564.84,-51.62C484.98,-48.94 344.83,-50.43 230.75,-84.25 199.72,-93.45 167.53,-113.96 149.92,-126.3"/>
<polygon fill="#63b8ff" stroke="#63b8ff" points="564.54,-55.11 574.66,-51.99 564.8,-48.12 564.54,-55.11"/>
</a>
</g>
</g>
<!-- Node26&#45;&gt;Node23 -->
<g id="edge46_Node000026_Node000023" class="edge">
<title>Node26&#45;&gt;Node23</title>
<g id="a_edge46_Node000026_Node000023"><a xlink:title=" ">
<path fill="none" stroke="#63b8ff" d="M1057.3,-176.19C1038.95,-160.78 1013.4,-140.75 988.75,-126.25 983.08,-122.91 976.88,-119.77 970.71,-116.91"/>
<polygon fill="#63b8ff" stroke="#63b8ff" points="1054.91,-178.75 1064.79,-182.57 1059.45,-173.42 1054.91,-178.75"/>
</a>
</g>
</g>
<!-- Node26&#45;&gt;Node24 -->
<g id="edge47_Node000026_Node000024" class="edge">
<title>Node26&#45;&gt;Node24</title>
<g id="a_edge47_Node000026_Node000024"><a xlink:title=" ">
<path fill="none" stroke="#63b8ff" d="M1023.81,-180.1C1009.25,-175.43 993.83,-170.49 979.82,-165.99"/>
<polygon fill="#63b8ff" stroke="#63b8ff" points="1022.72,-183.43 1033.31,-183.15 1024.85,-176.76 1022.72,-183.43"/>
</a>
</g>
</g>
<!-- Node27 -->
<g id="Node000027" class="node">
<title>Node27</title>
<g id="a_Node000027"><a xlink:href="classfabomatic_1_1_board_logic.xhtml#a51390e6bf10c4de427abd7f175a2e6a8" target="_top" xlink:title="Checks if the card UID is valid, and tries to check the user in to the machine.">
<polygon fill="white" stroke="#666666" points="986.12,-300.5 873.38,-300.5 873.38,-270 986.12,-270 986.12,-300.5"/>
<text text-anchor="start" x="881.38" y="-287" font-family="Helvetica,sans-Serif" font-size="10.00">fabomatic::BoardLogic</text>
<text text-anchor="middle" x="929.75" y="-275.75" font-family="Helvetica,sans-Serif" font-size="10.00">::authorize</text>
</a>
</g>
</g>
<!-- Node26&#45;&gt;Node27 -->
<g id="edge43_Node000026_Node000027" class="edge">
<title>Node26&#45;&gt;Node27</title>
<g id="a_edge43_Node000026_Node000027"><a xlink:title=" ">
<path fill="none" stroke="#63b8ff" d="M1045.97,-220.38C1019,-235.56 983.21,-255.71 958.72,-269.5"/>
<polygon fill="#63b8ff" stroke="#63b8ff" points="1047.52,-223.52 1054.52,-215.57 1044.09,-217.42 1047.52,-223.52"/>
</a>
</g>
</g>
<!-- Node28 -->
<g id="Node000028" class="node">
<title>Node28</title>
<g id="a_Node000028"><a xlink:href="namespacefabomatic_1_1tests.xhtml#aeb3e51f6d2841cd2869df4c0629f694d" target="_top" xlink:title=" ">
<polygon fill="white" stroke="#666666" points="982.75,-214.5 876.75,-214.5 876.75,-184 982.75,-184 982.75,-214.5"/>
<text text-anchor="start" x="884.75" y="-201" font-family="Helvetica,sans-Serif" font-size="10.00">fabomatic::tests::test</text>
<text text-anchor="middle" x="929.75" y="-189.75" font-family="Helvetica,sans-Serif" font-size="10.00">_rfid_cache</text>
</a>
</g>
</g>
<!-- Node26&#45;&gt;Node28 -->
<g id="edge48_Node000026_Node000028" class="edge">
<title>Node26&#45;&gt;Node28</title>
<g id="a_edge48_Node000026_Node000028"><a xlink:title=" ">
<path fill="none" stroke="#63b8ff" d="M1013.15,-199.25C1003.06,-199.25 992.83,-199.25 983.17,-199.25"/>
<polygon fill="#63b8ff" stroke="#63b8ff" points="1012.93,-202.75 1022.93,-199.25 1012.93,-195.75 1012.93,-202.75"/>
</a>
</g>
</g>
<!-- Node27&#45;&gt;Node4 -->
<g id="edge44_Node000027_Node000004" class="edge">
<title>Node27&#45;&gt;Node4</title>
<g id="a_edge44_Node000027_Node000004"><a xlink:title=" ">
<path fill="none" stroke="#63b8ff" d="M872.84,-307.97C872.12,-308.71 871.42,-309.47 870.75,-310.25 828.74,-359.43 874.87,-400.52 834.75,-451.25 830.58,-456.53 825.18,-460.95 819.39,-464.62"/>
<polygon fill="#63b8ff" stroke="#63b8ff" points="874.76,-310.92 880.3,-301.88 870.34,-305.5 874.76,-310.92"/>
</a>
</g>
</g>
<!-- Node27&#45;&gt;Node13 -->
<g id="edge45_Node000027_Node000013" class="edge">
<title>Node27&#45;&gt;Node13</title>
<g id="a_edge45_Node000027_Node000013"><a xlink:title=" ">
<path fill="none" stroke="#63b8ff" d="M867.59,-304.38C749.72,-341.52 495.27,-422.97 411,-460.25 394.26,-467.66 392.45,-474.74 375,-480.25 314.42,-499.37 241.34,-504.58 192.14,-505.67"/>
<polygon fill="#63b8ff" stroke="#63b8ff" points="868.63,-307.73 877.12,-301.39 866.53,-301.05 868.63,-307.73"/>
</a>
</g>
</g>
<!-- Node29 -->
<g id="Node000029" class="node">
<title>Node29</title>
<g id="a_Node000029"><a xlink:href="test__savedconfig_8cpp.xhtml#a4fc01d736fe50cf5b977f755b675f11d" target="_top" xlink:title=" ">
<polygon fill="white" stroke="#666666" points="798.38,-208.88 758.38,-208.88 758.38,-189.62 798.38,-189.62 798.38,-208.88"/>
<text text-anchor="middle" x="778.38" y="-195.38" font-family="Helvetica,sans-Serif" font-size="10.00">setup</text>
</a>
</g>
</g>
<!-- Node28&#45;&gt;Node29 -->
<g id="edge49_Node000028_Node000029" class="edge">
<title>Node28&#45;&gt;Node29</title>
<g id="a_edge49_Node000028_Node000029"><a xlink:title=" ">
<path fill="none" stroke="#63b8ff" d="M865.26,-199.25C841.27,-199.25 815.69,-199.25 798.75,-199.25"/>
<polygon fill="#63b8ff" stroke="#63b8ff" points="864.99,-202.75 874.99,-199.25 864.99,-195.75 864.99,-202.75"/>
</a>
</g>
</g>
</g>
</svg>
