<?xml version="1.0" encoding="UTF-8" standalone="no"?>
<!DOCTYPE svg PUBLIC "-//W3C//DTD SVG 1.1//EN"
 "http://www.w3.org/Graphics/SVG/1.1/DTD/svg11.dtd">
<!-- Generated by graphviz version 9.0.0 (20230911.1827)
 -->
<!-- Title: fabomatic::BoardLogic::beepFail Pages: 1 -->
<svg width="1183pt" height="595pt"
 viewBox="0.00 0.00 1183.00 594.50" xmlns="http://www.w3.org/2000/svg" xmlns:xlink="http://www.w3.org/1999/xlink">
<g id="graph0" class="graph" transform="scale(1 1) rotate(0) translate(4 590.5)">
<title>fabomatic::BoardLogic::beepFail</title>
<!-- Node1 -->
<g id="Node000001" class="node">
<title>Node1</title>
<g id="a_Node000001"><a xlink:title=" ">
<polygon fill="#999999" stroke="#666666" points="1175,-128.5 1062.25,-128.5 1062.25,-98 1175,-98 1175,-128.5"/>
<text text-anchor="start" x="1070.25" y="-115" font-family="Helvetica,sans-Serif" font-size="10.00">fabomatic::BoardLogic</text>
<text text-anchor="middle" x="1118.62" y="-103.75" font-family="Helvetica,sans-Serif" font-size="10.00">::beepFail</text>
</a>
</g>
</g>
<!-- Node2 -->
<g id="Node000002" class="node">
<title>Node2</title>
<g id="a_Node000002"><a xlink:href="classfabomatic_1_1_board_logic.xhtml#a51390e6bf10c4de427abd7f175a2e6a8" target="_top" xlink:title="Checks if the card UID is valid, and tries to check the user in to the machine.">
<polygon fill="white" stroke="#666666" points="1004.88,-228.5 892.12,-228.5 892.12,-198 1004.88,-198 1004.88,-228.5"/>
<text text-anchor="start" x="900.12" y="-215" font-family="Helvetica,sans-Serif" font-size="10.00">fabomatic::BoardLogic</text>
<text text-anchor="middle" x="948.5" y="-203.75" font-family="Helvetica,sans-Serif" font-size="10.00">::authorize</text>
</a>
</g>
</g>
<!-- Node1&#45;&gt;Node2 -->
<g id="edge1_Node000001_Node000002" class="edge">
<title>Node1&#45;&gt;Node2</title>
<g id="a_edge1_Node000001_Node000002"><a xlink:title=" ">
<path fill="none" stroke="#63b8ff" d="M1092.35,-136.25C1074.78,-151.38 1050.28,-170.78 1026.25,-184.25 1017.3,-189.26 1007.32,-193.75 997.59,-197.61"/>
<polygon fill="#63b8ff" stroke="#63b8ff" points="1094.52,-139.01 1099.73,-129.79 1089.9,-133.74 1094.52,-139.01"/>
</a>
</g>
</g>
<!-- Node18 -->
<g id="Node000018" class="node">
<title>Node18</title>
<g id="a_Node000018"><a xlink:href="main_8cpp.xhtml#a4fc01d736fe50cf5b977f755b675f11d" target="_top" xlink:title=" ">
<polygon fill="white" stroke="#666666" points="968.5,-141.88 928.5,-141.88 928.5,-122.62 968.5,-122.62 968.5,-141.88"/>
<text text-anchor="middle" x="948.5" y="-128.38" font-family="Helvetica,sans-Serif" font-size="10.00">setup</text>
</a>
</g>
</g>
<!-- Node1&#45;&gt;Node18 -->
<g id="edge29_Node000001_Node000018" class="edge">
<title>Node1&#45;&gt;Node18</title>
<g id="a_edge29_Node000001_Node000018"><a xlink:title=" ">
<path fill="none" stroke="#63b8ff" d="M1050.98,-120.78C1021.46,-124.12 988.95,-127.79 968.88,-130.06"/>
<polygon fill="#63b8ff" stroke="#63b8ff" points="1051.06,-124.29 1060.6,-119.69 1050.27,-117.34 1051.06,-124.29"/>
</a>
</g>
</g>
<!-- Node19 -->
<g id="Node000019" class="node">
<title>Node19</title>
<g id="a_Node000019"><a xlink:href="namespacefabomatic.xhtml#af8ee1c3cd4edf1a1ba27899da63b611a" target="_top" xlink:title="periodic check if the user shall be logged off">
<polygon fill="white" stroke="#666666" points="1016.88,-104.88 880.12,-104.88 880.12,-85.62 1016.88,-85.62 1016.88,-104.88"/>
<text text-anchor="middle" x="948.5" y="-91.38" font-family="Helvetica,sans-Serif" font-size="10.00">fabomatic::taskLogoffCheck</text>
</a>
</g>
</g>
<!-- Node1&#45;&gt;Node19 -->
<g id="edge30_Node000001_Node000019" class="edge">
<title>Node1&#45;&gt;Node19</title>
<g id="a_edge30_Node000001_Node000019"><a xlink:title=" ">
<path fill="none" stroke="#63b8ff" d="M1050.79,-106.09C1039.76,-104.91 1028.32,-103.69 1017.26,-102.5"/>
<polygon fill="#63b8ff" stroke="#63b8ff" points="1050.29,-109.56 1060.6,-107.15 1051.03,-102.6 1050.29,-109.56"/>
</a>
</g>
</g>
<!-- Node20 -->
<g id="Node000020" class="node">
<title>Node20</title>
<g id="a_Node000020"><a xlink:href="namespacefabomatic.xhtml#a86a02975f3cc660ebccdde8f217aa035" target="_top" xlink:title="periodic check if the machine must be powered off">
<polygon fill="white" stroke="#666666" points="1026.25,-67.88 870.75,-67.88 870.75,-48.62 1026.25,-48.62 1026.25,-67.88"/>
<text text-anchor="middle" x="948.5" y="-54.38" font-family="Helvetica,sans-Serif" font-size="10.00">fabomatic::taskPoweroffWarning</text>
</a>
</g>
</g>
<!-- Node1&#45;&gt;Node20 -->
<g id="edge31_Node000001_Node000020" class="edge">
<title>Node1&#45;&gt;Node20</title>
<g id="a_edge31_Node000001_Node000020"><a xlink:title=" ">
<path fill="none" stroke="#63b8ff" d="M1072.28,-93.28C1057.75,-87.31 1041.48,-81.09 1026.25,-76.25 1017.12,-73.35 1007.24,-70.69 997.71,-68.36"/>
<polygon fill="#63b8ff" stroke="#63b8ff" points="1070.54,-96.34 1081.11,-96.97 1073.23,-89.88 1070.54,-96.34"/>
</a>
</g>
</g>
<!-- Node21 -->
<g id="Node000021" class="node">
<title>Node21</title>
<g id="a_Node000021"><a xlink:href="namespacefabomatic_1_1tests.xhtml#aec03a7ee459718d314b930fdd75d3cee" target="_top" xlink:title=" ">
<polygon fill="white" stroke="#666666" points="831.38,-185.5 725.38,-185.5 725.38,-155 831.38,-155 831.38,-185.5"/>
<text text-anchor="start" x="733.38" y="-172" font-family="Helvetica,sans-Serif" font-size="10.00">fabomatic::tests::test</text>
<text text-anchor="middle" x="778.38" y="-160.75" font-family="Helvetica,sans-Serif" font-size="10.00">_simple_methods</text>
</a>
</g>
</g>
<!-- Node1&#45;&gt;Node21 -->
<g id="edge32_Node000001_Node000021" class="edge">
<title>Node1&#45;&gt;Node21</title>
<g id="a_edge32_Node000001_Node000021"><a xlink:title=" ">
<path fill="none" stroke="#63b8ff" d="M1076.51,-133.61C1061.1,-140.36 1043.22,-147.18 1026.25,-151.25 960.41,-167.04 882.14,-170.6 831.66,-170.99"/>
<polygon fill="#63b8ff" stroke="#63b8ff" points="1077.69,-136.92 1085.36,-129.61 1074.8,-130.54 1077.69,-136.92"/>
</a>
</g>
</g>
<!-- Node22 -->
<g id="Node000022" class="node">
<title>Node22</title>
<g id="a_Node000022"><a xlink:href="namespacefabomatic_1_1tests.xhtml#a7cd22311b16fc7c256a30ba4c2f6f387" target="_top" xlink:title="blink led">
<polygon fill="white" stroke="#666666" points="1001.5,-30.5 895.5,-30.5 895.5,0 1001.5,0 1001.5,-30.5"/>
<text text-anchor="start" x="903.5" y="-17" font-family="Helvetica,sans-Serif" font-size="10.00">fabomatic::tests::test</text>
<text text-anchor="middle" x="948.5" y="-5.75" font-family="Helvetica,sans-Serif" font-size="10.00">_taskVarious</text>
</a>
</g>
</g>
<!-- Node1&#45;&gt;Node22 -->
<g id="edge34_Node000001_Node000022" class="edge">
<title>Node1&#45;&gt;Node22</title>
<g id="a_edge34_Node000001_Node000022"><a xlink:title=" ">
<path fill="none" stroke="#63b8ff" d="M1094.21,-90.08C1076.74,-73.89 1051.61,-52.84 1026.25,-39.25 1018.62,-35.16 1010.18,-31.65 1001.78,-28.67"/>
<polygon fill="#63b8ff" stroke="#63b8ff" points="1091.37,-92.2 1101.04,-96.53 1096.18,-87.12 1091.37,-92.2"/>
</a>
</g>
</g>
<!-- Node3 -->
<g id="Node000003" class="node">
<title>Node3</title>
<g id="a_Node000003"><a xlink:href="classfabomatic_1_1_board_logic.xhtml#a983c8de8b9c8881fc0a4e60dddc7f0c6" target="_top" xlink:title="Called when a RFID tag has been detected.">
<polygon fill="white" stroke="#666666" points="834.75,-345.5 722,-345.5 722,-315 834.75,-315 834.75,-345.5"/>
<text text-anchor="start" x="730" y="-332" font-family="Helvetica,sans-Serif" font-size="10.00">fabomatic::BoardLogic</text>
<text text-anchor="middle" x="778.38" y="-320.75" font-family="Helvetica,sans-Serif" font-size="10.00">::onNewCard</text>
</a>
</g>
</g>
<!-- Node2&#45;&gt;Node3 -->
<g id="edge2_Node000002_Node000003" class="edge">
<title>Node2&#45;&gt;Node3</title>
<g id="a_edge2_Node000002_Node000003"><a xlink:title=" ">
<path fill="none" stroke="#63b8ff" d="M915.9,-235.24C882.63,-258.39 831.11,-294.25 801.79,-314.65"/>
<polygon fill="#63b8ff" stroke="#63b8ff" points="917.72,-238.24 923.93,-229.65 913.72,-232.49 917.72,-238.24"/>
</a>
</g>
</g>
<!-- Node12 -->
<g id="Node000012" class="node">
<title>Node12</title>
<g id="a_Node000012"><a xlink:href="namespacefabomatic_1_1tests.xhtml#aab0f4e1439b281ffef8be51db9a81f9d" target="_top" xlink:title=" ">
<polygon fill="white" stroke="#666666" points="191.75,-294.5 79,-294.5 79,-264 191.75,-264 191.75,-294.5"/>
<text text-anchor="start" x="87" y="-281" font-family="Helvetica,sans-Serif" font-size="10.00">fabomatic::tests::test</text>
<text text-anchor="middle" x="135.38" y="-269.75" font-family="Helvetica,sans-Serif" font-size="10.00">_whitelist_no_network</text>
</a>
</g>
</g>
<!-- Node2&#45;&gt;Node12 -->
<g id="edge28_Node000002_Node000012" class="edge">
<title>Node2&#45;&gt;Node12</title>
<g id="a_edge28_Node000002_Node000012"><a xlink:title=" ">
<path fill="none" stroke="#63b8ff" d="M880.53,-213.25C816.4,-213.25 716.9,-213.25 630.62,-213.25 630.62,-213.25 630.62,-213.25 473.12,-213.25 369.02,-213.25 250.13,-244 185.15,-263.53"/>
<polygon fill="#63b8ff" stroke="#63b8ff" points="880.18,-216.75 890.18,-213.25 880.18,-209.75 880.18,-216.75"/>
</a>
</g>
</g>
<!-- Node4 -->
<g id="Node000004" class="node">
<title>Node4</title>
<g id="a_Node000004"><a xlink:href="classfabomatic_1_1_board_logic.xhtml#a25bdc3a49d850aa49f92faf951b68efb" target="_top" xlink:title="Checks if a new card is present.">
<polygon fill="white" stroke="#666666" points="686,-399.5 573.25,-399.5 573.25,-369 686,-369 686,-399.5"/>
<text text-anchor="start" x="581.25" y="-386" font-family="Helvetica,sans-Serif" font-size="10.00">fabomatic::BoardLogic</text>
<text text-anchor="middle" x="629.62" y="-374.75" font-family="Helvetica,sans-Serif" font-size="10.00">::checkRfid</text>
</a>
</g>
</g>
<!-- Node3&#45;&gt;Node4 -->
<g id="edge3_Node000003_Node000004" class="edge">
<title>Node3&#45;&gt;Node4</title>
<g id="a_edge3_Node000003_Node000004"><a xlink:title=" ">
<path fill="none" stroke="#63b8ff" d="M724.18,-349.82C707.42,-355.99 689.15,-362.72 673.23,-368.57"/>
<polygon fill="#63b8ff" stroke="#63b8ff" points="725.33,-353.13 733.51,-346.39 722.91,-346.56 725.33,-353.13"/>
</a>
</g>
</g>
<!-- Node5 -->
<g id="Node000005" class="node">
<title>Node5</title>
<g id="a_Node000005"><a xlink:href="namespacefabomatic_1_1tests.xhtml#a2600320f41c9fa343c66058ecb12b5ee" target="_top" xlink:title="Simulates RFID card tap.">
<polygon fill="white" stroke="#666666" points="537.25,-399.5 411,-399.5 411,-369 537.25,-369 537.25,-399.5"/>
<text text-anchor="start" x="419" y="-386" font-family="Helvetica,sans-Serif" font-size="10.00">fabomatic::tests::simulate</text>
<text text-anchor="middle" x="474.12" y="-374.75" font-family="Helvetica,sans-Serif" font-size="10.00">_rfid_card</text>
</a>
</g>
</g>
<!-- Node4&#45;&gt;Node5 -->
<g id="edge4_Node000004_Node000005" class="edge">
<title>Node4&#45;&gt;Node5</title>
<g id="a_edge4_Node000004_Node000005"><a xlink:title=" ">
<path fill="none" stroke="#63b8ff" d="M561.38,-384.25C553.5,-384.25 545.49,-384.25 537.69,-384.25"/>
<polygon fill="#63b8ff" stroke="#63b8ff" points="561.26,-387.75 571.26,-384.25 561.26,-380.75 561.26,-387.75"/>
</a>
</g>
</g>
<!-- Node4&#45;&gt;Node12 -->
<g id="edge27_Node000004_Node000012" class="edge">
<title>Node4&#45;&gt;Node12</title>
<g id="a_edge27_Node000004_Node000012"><a xlink:title=" ">
<path fill="none" stroke="#63b8ff" d="M581.99,-364.21C531.86,-343.64 449.34,-312.54 375,-297.25 313.15,-284.53 240.62,-280.57 191.9,-279.45"/>
<polygon fill="#63b8ff" stroke="#63b8ff" points="580.51,-367.39 591.09,-367.98 583.19,-360.92 580.51,-367.39"/>
</a>
</g>
</g>
<!-- Node16 -->
<g id="Node000016" class="node">
<title>Node16</title>
<g id="a_Node000016"><a xlink:href="namespacefabomatic.xhtml#a3e5c190499522bddad3f3cc69274f16c" target="_top" xlink:title="periodic check for new RFID card">
<polygon fill="white" stroke="#666666" points="537.25,-485.88 411,-485.88 411,-466.62 537.25,-466.62 537.25,-485.88"/>
<text text-anchor="middle" x="474.12" y="-472.38" font-family="Helvetica,sans-Serif" font-size="10.00">fabomatic::taskCheckRfid</text>
</a>
</g>
</g>
<!-- Node4&#45;&gt;Node16 -->
<g id="edge25_Node000004_Node000016" class="edge">
<title>Node4&#45;&gt;Node16</title>
<g id="a_edge25_Node000004_Node000016"><a xlink:title=" ">
<path fill="none" stroke="#63b8ff" d="M604.7,-407.58C587.24,-423.5 562.33,-444.02 537.25,-457.25 530.67,-460.72 523.35,-463.67 516.11,-466.13"/>
<polygon fill="#63b8ff" stroke="#63b8ff" points="607.08,-410.15 612.01,-400.77 602.31,-405.03 607.08,-410.15"/>
</a>
</g>
</g>
<!-- Node17 -->
<g id="Node000017" class="node">
<title>Node17</title>
<g id="a_Node000017"><a xlink:href="namespacefabomatic_1_1tests.xhtml#a294b4767ecf1e1d11cc31dafb2541d23" target="_top" xlink:title="periodic check for new RFID card">
<polygon fill="white" stroke="#666666" points="527.12,-448.5 421.12,-448.5 421.12,-418 527.12,-418 527.12,-448.5"/>
<text text-anchor="start" x="429.12" y="-435" font-family="Helvetica,sans-Serif" font-size="10.00">fabomatic::tests::test</text>
<text text-anchor="middle" x="474.12" y="-423.75" font-family="Helvetica,sans-Serif" font-size="10.00">_taskCheckRfid</text>
</a>
</g>
</g>
<!-- Node4&#45;&gt;Node17 -->
<g id="edge26_Node000004_Node000017" class="edge">
<title>Node4&#45;&gt;Node17</title>
<g id="a_edge26_Node000004_Node000017"><a xlink:title=" ">
<path fill="none" stroke="#63b8ff" d="M569.08,-403.26C554.31,-407.97 538.65,-412.97 524.44,-417.51"/>
<polygon fill="#63b8ff" stroke="#63b8ff" points="569.73,-406.72 578.19,-400.35 567.6,-400.06 569.73,-406.72"/>
</a>
</g>
</g>
<!-- Node6 -->
<g id="Node000006" class="node">
<title>Node6</title>
<g id="a_Node000006"><a xlink:href="namespacefabomatic_1_1tests.xhtml#a6a7645a865dc822746f972ea6f43224d" target="_top" xlink:title="Resets machine to initial state, clearing flags.">
<polygon fill="white" stroke="#666666" points="375,-412.88 230.75,-412.88 230.75,-393.62 375,-393.62 375,-412.88"/>
<text text-anchor="middle" x="302.88" y="-399.38" font-family="Helvetica,sans-Serif" font-size="10.00">fabomatic::tests::machine_init</text>
</a>
</g>
</g>
<!-- Node5&#45;&gt;Node6 -->
<g id="edge5_Node000005_Node000006" class="edge">
<title>Node5&#45;&gt;Node6</title>
<g id="a_edge5_Node000005_Node000006"><a xlink:title=" ">
<path fill="none" stroke="#63b8ff" d="M399.39,-392.53C391.4,-393.42 383.27,-394.34 375.3,-395.23"/>
<polygon fill="#63b8ff" stroke="#63b8ff" points="399.53,-396.03 409.08,-391.44 398.75,-389.08 399.53,-396.03"/>
</a>
</g>
</g>
<!-- Node7 -->
<g id="Node000007" class="node">
<title>Node7</title>
<g id="a_Node000007"><a xlink:href="namespacefabomatic_1_1tests.xhtml#a558e2287db01a4622581246a19dac397" target="_top" xlink:title=" ">
<polygon fill="white" stroke="#666666" points="188.38,-490.5 82.38,-490.5 82.38,-460 188.38,-460 188.38,-490.5"/>
<text text-anchor="start" x="90.38" y="-477" font-family="Helvetica,sans-Serif" font-size="10.00">fabomatic::tests::test</text>
<text text-anchor="middle" x="135.38" y="-465.75" font-family="Helvetica,sans-Serif" font-size="10.00">_machine_allowed</text>
</a>
</g>
</g>
<!-- Node5&#45;&gt;Node7 -->
<g id="edge18_Node000005_Node000007" class="edge">
<title>Node5&#45;&gt;Node7</title>
<g id="a_edge18_Node000005_Node000007"><a xlink:title=" ">
<path fill="none" stroke="#63b8ff" d="M418.1,-405.1C415.66,-406.43 413.28,-407.81 411,-409.25 392.64,-420.82 394.64,-433.01 375,-442.25 315.4,-470.29 238.81,-476.32 188.7,-476.81"/>
<polygon fill="#63b8ff" stroke="#63b8ff" points="419.63,-408.25 427.02,-400.66 416.51,-401.99 419.63,-408.25"/>
</a>
</g>
</g>
<!-- Node9 -->
<g id="Node000009" class="node">
<title>Node9</title>
<g id="a_Node000009"><a xlink:href="namespacefabomatic_1_1tests.xhtml#a9a34631c2dc01cbdbbce146895c94e12" target="_top" xlink:title=" ">
<polygon fill="white" stroke="#666666" points="194.75,-441.5 76,-441.5 76,-411 194.75,-411 194.75,-441.5"/>
<text text-anchor="start" x="84" y="-428" font-family="Helvetica,sans-Serif" font-size="10.00">fabomatic::tests::test</text>
<text text-anchor="middle" x="135.38" y="-416.75" font-family="Helvetica,sans-Serif" font-size="10.00">_machine_maintenance</text>
</a>
</g>
</g>
<!-- Node5&#45;&gt;Node9 -->
<g id="edge19_Node000005_Node000009" class="edge">
<title>Node5&#45;&gt;Node9</title>
<g id="a_edge19_Node000005_Node000009"><a xlink:title=" ">
<path fill="none" stroke="#63b8ff" d="M423.02,-404.09C400.25,-413.02 377.74,-421.71 375,-422.25 314.41,-434.1 243.51,-433.51 194.83,-430.95"/>
<polygon fill="#63b8ff" stroke="#63b8ff" points="423.99,-407.46 432.02,-400.55 421.43,-400.95 423.99,-407.46"/>
</a>
</g>
</g>
<!-- Node10 -->
<g id="Node000010" class="node">
<title>Node10</title>
<g id="a_Node000010"><a xlink:href="namespacefabomatic_1_1tests.xhtml#a6f3dff17fd964aba76c35c514957a0a5" target="_top" xlink:title=" ">
<polygon fill="white" stroke="#666666" points="189.88,-392.5 80.88,-392.5 80.88,-362 189.88,-362 189.88,-392.5"/>
<text text-anchor="start" x="88.88" y="-379" font-family="Helvetica,sans-Serif" font-size="10.00">fabomatic::tests::test</text>
<text text-anchor="middle" x="135.38" y="-367.75" font-family="Helvetica,sans-Serif" font-size="10.00">_one_user_at_a_time</text>
</a>
</g>
</g>
<!-- Node5&#45;&gt;Node10 -->
<g id="edge22_Node000005_Node000010" class="edge">
<title>Node5&#45;&gt;Node10</title>
<g id="a_edge22_Node000005_Node000010"><a xlink:title=" ">
<path fill="none" stroke="#63b8ff" d="M399.11,-382.71C336,-381.4 246.78,-379.54 190.26,-378.37"/>
<polygon fill="#63b8ff" stroke="#63b8ff" points="398.99,-386.21 409.06,-382.92 399.14,-379.21 398.99,-386.21"/>
</a>
</g>
</g>
<!-- Node11 -->
<g id="Node000011" class="node">
<title>Node11</title>
<g id="a_Node000011"><a xlink:href="namespacefabomatic_1_1tests.xhtml#afa92fef9250d918ee02c79dbf2de2546" target="_top" xlink:title=" ">
<polygon fill="white" stroke="#666666" points="188.38,-343.5 82.38,-343.5 82.38,-313 188.38,-313 188.38,-343.5"/>
<text text-anchor="start" x="90.38" y="-330" font-family="Helvetica,sans-Serif" font-size="10.00">fabomatic::tests::test</text>
<text text-anchor="middle" x="135.38" y="-318.75" font-family="Helvetica,sans-Serif" font-size="10.00">_user_autologoff</text>
</a>
</g>
</g>
<!-- Node5&#45;&gt;Node11 -->
<g id="edge23_Node000005_Node000011" class="edge">
<title>Node5&#45;&gt;Node11</title>
<g id="a_edge23_Node000005_Node000011"><a xlink:title=" ">
<path fill="none" stroke="#63b8ff" d="M399.4,-371.99C335.67,-361.39 245.16,-346.34 188.65,-336.94"/>
<polygon fill="#63b8ff" stroke="#63b8ff" points="398.64,-375.41 409.08,-373.6 399.79,-368.51 398.64,-375.41"/>
</a>
</g>
</g>
<!-- Node5&#45;&gt;Node12 -->
<g id="edge24_Node000005_Node000012" class="edge">
<title>Node5&#45;&gt;Node12</title>
<g id="a_edge24_Node000005_Node000012"><a xlink:title=" ">
<path fill="none" stroke="#63b8ff" d="M430.72,-363.91C413.65,-356.19 393.63,-347.71 375,-341.25 313.53,-319.95 240.93,-302.08 192.09,-291.09"/>
<polygon fill="#63b8ff" stroke="#63b8ff" points="429.01,-366.97 439.56,-367.97 431.93,-360.61 429.01,-366.97"/>
</a>
</g>
</g>
<!-- Node13 -->
<g id="Node000013" class="node">
<title>Node13</title>
<g id="a_Node000013"><a xlink:href="namespacefabomatic_1_1tests.xhtml#a0b99fa5582e6b0ecb416f4ed348e5606" target="_top" xlink:title=" ">
<polygon fill="white" stroke="#666666" points="358.5,-586.5 247.25,-586.5 247.25,-556 358.5,-556 358.5,-586.5"/>
<text text-anchor="start" x="255.25" y="-573" font-family="Helvetica,sans-Serif" font-size="10.00">fabomatic::tests::test</text>
<text text-anchor="middle" x="302.88" y="-561.75" font-family="Helvetica,sans-Serif" font-size="10.00">_backend_commands</text>
</a>
</g>
</g>
<!-- Node5&#45;&gt;Node13 -->
<g id="edge16_Node000005_Node000013" class="edge">
<title>Node5&#45;&gt;Node13</title>
<g id="a_edge16_Node000005_Node000013"><a xlink:title=" ">
<path fill="none" stroke="#63b8ff" d="M413.15,-406.98C412.41,-407.71 411.69,-408.47 411,-409.25 369.37,-456.47 417.68,-499.97 375,-546.25 370.47,-551.16 364.93,-555.1 358.95,-558.27"/>
<polygon fill="#63b8ff" stroke="#63b8ff" points="415.12,-409.88 420.76,-400.91 410.76,-404.41 415.12,-409.88"/>
</a>
</g>
</g>
<!-- Node15 -->
<g id="Node000015" class="node">
<title>Node15</title>
<g id="a_Node000015"><a xlink:href="namespacefabomatic_1_1tests.xhtml#af8fa7ace86309b5f699540d8898660c7" target="_top" xlink:title=" ">
<polygon fill="white" stroke="#666666" points="355.88,-537.5 249.88,-537.5 249.88,-507 355.88,-507 355.88,-537.5"/>
<text text-anchor="start" x="257.88" y="-524" font-family="Helvetica,sans-Serif" font-size="10.00">fabomatic::tests::test</text>
<text text-anchor="middle" x="302.88" y="-512.75" font-family="Helvetica,sans-Serif" font-size="10.00">_messages_buffered</text>
</a>
</g>
</g>
<!-- Node5&#45;&gt;Node15 -->
<g id="edge20_Node000005_Node000015" class="edge">
<title>Node5&#45;&gt;Node15</title>
<g id="a_edge20_Node000005_Node000015"><a xlink:title=" ">
<path fill="none" stroke="#63b8ff" d="M414.22,-406.35C413.1,-407.28 412.03,-408.24 411,-409.25 381.96,-437.65 403.97,-464.78 375,-493.25 369.58,-498.58 363.04,-502.97 356.16,-506.58"/>
<polygon fill="#63b8ff" stroke="#63b8ff" points="415.97,-409.39 422.16,-400.8 411.96,-403.66 415.97,-409.39"/>
</a>
</g>
</g>
<!-- Node6&#45;&gt;Node7 -->
<g id="edge6_Node000006_Node000007" class="edge">
<title>Node6&#45;&gt;Node7</title>
<g id="a_edge6_Node000006_Node000007"><a xlink:title=" ">
<path fill="none" stroke="#63b8ff" d="M268.94,-417.79C247.77,-427.11 219.66,-439.45 194.75,-450.25 187.77,-453.28 180.31,-456.49 173.14,-459.56"/>
<polygon fill="#63b8ff" stroke="#63b8ff" points="270.21,-421.06 277.94,-413.82 267.38,-414.65 270.21,-421.06"/>
</a>
</g>
</g>
<!-- Node6&#45;&gt;Node9 -->
<g id="edge8_Node000006_Node000009" class="edge">
<title>Node6&#45;&gt;Node9</title>
<g id="a_edge8_Node000006_Node000009"><a xlink:title=" ">
<path fill="none" stroke="#63b8ff" d="M219.49,-414.7C211.23,-415.85 202.96,-417 195.02,-418.1"/>
<polygon fill="#63b8ff" stroke="#63b8ff" points="219.81,-418.19 229.23,-413.35 218.84,-411.26 219.81,-418.19"/>
</a>
</g>
</g>
<!-- Node6&#45;&gt;Node10 -->
<g id="edge10_Node000006_Node000010" class="edge">
<title>Node6&#45;&gt;Node10</title>
<g id="a_edge10_Node000006_Node000010"><a xlink:title=" ">
<path fill="none" stroke="#63b8ff" d="M226.7,-391.44C214.41,-389.51 201.9,-387.54 190.26,-385.71"/>
<polygon fill="#63b8ff" stroke="#63b8ff" points="225.97,-394.87 236.39,-392.96 227.06,-387.95 225.97,-394.87"/>
</a>
</g>
</g>
<!-- Node6&#45;&gt;Node11 -->
<g id="edge12_Node000006_Node000011" class="edge">
<title>Node6&#45;&gt;Node11</title>
<g id="a_edge12_Node000006_Node000011"><a xlink:title=" ">
<path fill="none" stroke="#63b8ff" d="M270.64,-388.35C249.33,-378.26 220.44,-364.74 194.75,-353.25 187.91,-350.19 180.58,-346.99 173.51,-343.94"/>
<polygon fill="#63b8ff" stroke="#63b8ff" points="269.13,-391.5 279.66,-392.63 272.13,-385.18 269.13,-391.5"/>
</a>
</g>
</g>
<!-- Node6&#45;&gt;Node12 -->
<g id="edge14_Node000006_Node000012" class="edge">
<title>Node6&#45;&gt;Node12</title>
<g id="a_edge14_Node000006_Node000012"><a xlink:title=" ">
<path fill="none" stroke="#63b8ff" d="M285.87,-385.07C266.15,-363.54 230.82,-327.64 194.75,-304.25 189.48,-300.83 183.66,-297.69 177.8,-294.89"/>
<polygon fill="#63b8ff" stroke="#63b8ff" points="283.02,-387.13 292.31,-392.22 288.22,-382.45 283.02,-387.13"/>
</a>
</g>
</g>
<!-- Node8 -->
<g id="Node000008" class="node">
<title>Node8</title>
<g id="a_Node000008"><a xlink:href="test__logic_8cpp.xhtml#a4fc01d736fe50cf5b977f755b675f11d" target="_top" xlink:title=" ">
<polygon fill="white" stroke="#666666" points="40,-386.88 0,-386.88 0,-367.62 40,-367.62 40,-386.88"/>
<text text-anchor="middle" x="20" y="-373.38" font-family="Helvetica,sans-Serif" font-size="10.00">setup</text>
</a>
</g>
</g>
<!-- Node7&#45;&gt;Node8 -->
<g id="edge7_Node000007_Node000008" class="edge">
<title>Node7&#45;&gt;Node8</title>
<g id="a_edge7_Node000007_Node000008"><a xlink:title=" ">
<path fill="none" stroke="#63b8ff" d="M80.74,-453.69C79.11,-452.59 77.52,-451.44 76,-450.25 53.15,-432.33 34.86,-402.73 26.29,-387.3"/>
<polygon fill="#63b8ff" stroke="#63b8ff" points="78.85,-456.64 89.24,-458.73 82.43,-450.62 78.85,-456.64"/>
</a>
</g>
</g>
<!-- Node9&#45;&gt;Node8 -->
<g id="edge9_Node000009_Node000008" class="edge">
<title>Node9&#45;&gt;Node8</title>
<g id="a_edge9_Node000009_Node000008"><a xlink:title=" ">
<path fill="none" stroke="#63b8ff" d="M87.08,-406.03C83.33,-404.41 79.6,-402.81 76,-401.25 64.14,-396.12 50.87,-390.33 40.33,-385.72"/>
<polygon fill="#63b8ff" stroke="#63b8ff" points="85.65,-409.22 96.22,-409.95 88.42,-402.79 85.65,-409.22"/>
</a>
</g>
</g>
<!-- Node10&#45;&gt;Node8 -->
<g id="edge11_Node000010_Node000008" class="edge">
<title>Node10&#45;&gt;Node8</title>
<g id="a_edge11_Node000010_Node000008"><a xlink:title=" ">
<path fill="none" stroke="#63b8ff" d="M69.2,-377.25C58.7,-377.25 48.6,-377.25 40.38,-377.25"/>
<polygon fill="#63b8ff" stroke="#63b8ff" points="69.16,-380.75 79.16,-377.25 69.16,-373.75 69.16,-380.75"/>
</a>
</g>
</g>
<!-- Node11&#45;&gt;Node8 -->
<g id="edge13_Node000011_Node000008" class="edge">
<title>Node11&#45;&gt;Node8</title>
<g id="a_edge13_Node000011_Node000008"><a xlink:title=" ">
<path fill="none" stroke="#63b8ff" d="M87.08,-348.47C83.33,-350.09 79.6,-351.69 76,-353.25 64.14,-358.38 50.87,-364.17 40.33,-368.78"/>
<polygon fill="#63b8ff" stroke="#63b8ff" points="88.42,-351.71 96.22,-344.55 85.65,-345.28 88.42,-351.71"/>
</a>
</g>
</g>
<!-- Node12&#45;&gt;Node8 -->
<g id="edge15_Node000012_Node000008" class="edge">
<title>Node12&#45;&gt;Node8</title>
<g id="a_edge15_Node000012_Node000008"><a xlink:title=" ">
<path fill="none" stroke="#63b8ff" d="M80.74,-300.81C79.11,-301.91 77.52,-303.06 76,-304.25 53.15,-322.17 34.86,-351.77 26.29,-367.2"/>
<polygon fill="#63b8ff" stroke="#63b8ff" points="82.43,-303.88 89.24,-295.77 78.85,-297.86 82.43,-303.88"/>
</a>
</g>
</g>
<!-- Node14 -->
<g id="Node000014" class="node">
<title>Node14</title>
<g id="a_Node000014"><a xlink:href="test__mqtt_8cpp.xhtml#a4fc01d736fe50cf5b977f755b675f11d" target="_top" xlink:title=" ">
<polygon fill="white" stroke="#666666" points="155.38,-580.88 115.38,-580.88 115.38,-561.62 155.38,-561.62 155.38,-580.88"/>
<text text-anchor="middle" x="135.38" y="-567.38" font-family="Helvetica,sans-Serif" font-size="10.00">setup</text>
</a>
</g>
</g>
<!-- Node13&#45;&gt;Node14 -->
<g id="edge17_Node000013_Node000014" class="edge">
<title>Node13&#45;&gt;Node14</title>
<g id="a_edge17_Node000013_Node000014"><a xlink:title=" ">
<path fill="none" stroke="#63b8ff" d="M235.51,-571.25C206.8,-571.25 175.35,-571.25 155.74,-571.25"/>
<polygon fill="#63b8ff" stroke="#63b8ff" points="235.25,-574.75 245.25,-571.25 235.25,-567.75 235.25,-574.75"/>
</a>
</g>
</g>
<!-- Node15&#45;&gt;Node8 -->
<g id="edge21_Node000015_Node000008" class="edge">
<title>Node15&#45;&gt;Node8</title>
<g id="a_edge21_Node000015_Node000008"><a xlink:title=" ">
<path fill="none" stroke="#63b8ff" d="M238.27,-531.81C189.42,-535.64 122.63,-532.85 76,-499.25 37.73,-471.68 25.57,-411.12 22.18,-387.23"/>
<polygon fill="#63b8ff" stroke="#63b8ff" points="238.51,-535.3 248.15,-530.91 237.88,-528.33 238.51,-535.3"/>
</a>
</g>
</g>
<!-- Node21&#45;&gt;Node8 -->
<g id="edge33_Node000021_Node000008" class="edge">
<title>Node21&#45;&gt;Node8</title>
<g id="a_edge33_Node000021_Node000008"><a xlink:title=" ">
<path fill="none" stroke="#63b8ff" d="M713.56,-171.25C652.39,-172.12 557.45,-173.25 475.12,-173.25 475.12,-173.25 475.12,-173.25 301.88,-173.25 195.08,-173.25 154.31,-182.63 76,-255.25 41.76,-287 27.38,-344.1 22.78,-367.17"/>
<polygon fill="#63b8ff" stroke="#63b8ff" points="713.5,-174.75 723.44,-171.11 713.39,-167.75 713.5,-174.75"/>
</a>
</g>
</g>
</g>
</svg>
