<?xml version="1.0" encoding="UTF-8" standalone="no"?>
<!DOCTYPE svg PUBLIC "-//W3C//DTD SVG 1.1//EN"
 "http://www.w3.org/Graphics/SVG/1.1/DTD/svg11.dtd">
<!-- Generated by graphviz version 9.0.0 (20230911.1827)
 -->
<!-- Title: fabomatic::ServerMQTT::MachineResponse Pages: 1 -->
<svg width="209pt" height="404pt"
 viewBox="0.00 0.00 208.50 403.50" xmlns="http://www.w3.org/2000/svg" xmlns:xlink="http://www.w3.org/1999/xlink">
<g id="graph0" class="graph" transform="scale(1 1) rotate(0) translate(4 399.5)">
<title>fabomatic::ServerMQTT::MachineResponse</title>
<!-- Node1 -->
<g id="Node000001" class="node">
<title>Node1</title>
<g id="a_Node000001"><a xlink:title=" ">
<polygon fill="#999999" stroke="none" points="129,-165 16,-165 16,0 129,0 129,-165"/>
<text text-anchor="start" x="20.75" y="-151.5" font-family="Helvetica,sans-Serif" font-size="10.00">fabomatic::ServerMQTT</text>
<text text-anchor="start" x="30.12" y="-140.25" font-family="Helvetica,sans-Serif" font-size="10.00">::MachineResponse</text>
<text text-anchor="start" x="22" y="-125.5" font-family="Helvetica,sans-Serif" font-size="10.00">+</text>
<text text-anchor="start" x="34" y="-125.5" font-family="Helvetica,sans-Serif" font-size="10.00">is_valid</text>
<text text-anchor="start" x="22" y="-110.5" font-family="Helvetica,sans-Serif" font-size="10.00">+</text>
<text text-anchor="start" x="34" y="-110.5" font-family="Helvetica,sans-Serif" font-size="10.00">maintenance</text>
<text text-anchor="start" x="22" y="-95.5" font-family="Helvetica,sans-Serif" font-size="10.00">+</text>
<text text-anchor="start" x="34" y="-95.5" font-family="Helvetica,sans-Serif" font-size="10.00">allowed</text>
<text text-anchor="start" x="22" y="-80.5" font-family="Helvetica,sans-Serif" font-size="10.00">+</text>
<text text-anchor="start" x="34" y="-80.5" font-family="Helvetica,sans-Serif" font-size="10.00">logoff</text>
<text text-anchor="start" x="22" y="-65.5" font-family="Helvetica,sans-Serif" font-size="10.00">+</text>
<text text-anchor="start" x="34" y="-65.5" font-family="Helvetica,sans-Serif" font-size="10.00">type</text>
<text text-anchor="start" x="22" y="-50.5" font-family="Helvetica,sans-Serif" font-size="10.00">+</text>
<text text-anchor="start" x="34" y="-50.5" font-family="Helvetica,sans-Serif" font-size="10.00">grace</text>
<text text-anchor="start" x="22" y="-35.5" font-family="Helvetica,sans-Serif" font-size="10.00">+</text>
<text text-anchor="start" x="34" y="-35.5" font-family="Helvetica,sans-Serif" font-size="10.00">MachineResponse()</text>
<text text-anchor="start" x="22" y="-20.5" font-family="Helvetica,sans-Serif" font-size="10.00">+</text>
<text text-anchor="start" x="34" y="-20.5" font-family="Helvetica,sans-Serif" font-size="10.00">MachineResponse()</text>
<text text-anchor="start" x="22" y="-5.5" font-family="Helvetica,sans-Serif" font-size="10.00">+</text>
<text text-anchor="start" x="34" y="-5.5" font-family="Helvetica,sans-Serif" font-size="10.00">fromJson()</text>
<polygon fill="#666666" stroke="#666666" points="16,-137 16,-137 129,-137 129,-137 16,-137"/>
<polygon fill="#666666" stroke="#666666" points="16,-47 16,-47 32,-47 32,-47 16,-47"/>
<polygon fill="#666666" stroke="#666666" points="32,-47 32,-47 129,-47 129,-47 32,-47"/>
<polygon fill="none" stroke="#666666" points="16,0 16,-165 129,-165 129,0 16,0"/>
</a>
</g>
</g>
<!-- Node2 -->
<g id="Node000002" class="node">
<title>Node2</title>
<g id="a_Node000002"><a xlink:href="classfabomatic_1_1_server_m_q_t_t_1_1_response.xhtml" target="_top" xlink:title=" ">
<polygon fill="white" stroke="none" points="113,-298.5 0,-298.5 0,-223.5 113,-223.5 113,-298.5"/>
<text text-anchor="start" x="4.75" y="-285" font-family="Helvetica,sans-Serif" font-size="10.00">fabomatic::ServerMQTT</text>
<text text-anchor="start" x="32.5" y="-273.75" font-family="Helvetica,sans-Serif" font-size="10.00">::Response</text>
<text text-anchor="start" x="15.5" y="-259" font-family="Helvetica,sans-Serif" font-size="10.00">+</text>
<text text-anchor="start" x="37" y="-259" font-family="Helvetica,sans-Serif" font-size="10.00">request_ok</text>
<text text-anchor="start" x="15.5" y="-244" font-family="Helvetica,sans-Serif" font-size="10.00">+</text>
<text text-anchor="start" x="37" y="-244" font-family="Helvetica,sans-Serif" font-size="10.00">Response()</text>
<text text-anchor="start" x="15.5" y="-229" font-family="Helvetica,sans-Serif" font-size="10.00">+</text>
<text text-anchor="start" x="37" y="-229" font-family="Helvetica,sans-Serif" font-size="10.00">Response()</text>
<polygon fill="#666666" stroke="#666666" points="0,-270.5 0,-270.5 113,-270.5 113,-270.5 0,-270.5"/>
<polygon fill="#666666" stroke="#666666" points="0,-255.5 0,-255.5 35,-255.5 35,-255.5 0,-255.5"/>
<polygon fill="#666666" stroke="#666666" points="35,-255.5 35,-255.5 113,-255.5 113,-255.5 35,-255.5"/>
<polygon fill="none" stroke="#666666" points="0,-223.5 0,-298.5 113,-298.5 113,-223.5 0,-223.5"/>
</a>
</g>
</g>
<!-- Node2&#45;&gt;Node1 -->
<g id="edge1_Node000001_Node000002" class="edge">
<title>Node2&#45;&gt;Node1</title>
<g id="a_edge1_Node000001_Node000002"><a xlink:title=" ">
<path fill="none" stroke="#63b8ff" d="M60.81,-212.5C62.14,-197.78 63.65,-181.11 65.13,-164.76"/>
<polygon fill="none" stroke="#63b8ff" points="57.33,-212.07 59.91,-222.35 64.3,-212.71 57.33,-212.07"/>
</a>
</g>
</g>
<!-- Node3 -->
<g id="Node000003" class="node">
<title>Node3</title>
<g id="a_Node000003"><a xlink:title=" ">
<polygon fill="white" stroke="none" points="183.5,-285.5 131.5,-285.5 131.5,-236.5 183.5,-236.5 183.5,-285.5"/>
<text text-anchor="start" x="136.5" y="-272" font-family="Helvetica,sans-Serif" font-size="10.00">std::string</text>
<text text-anchor="start" x="156" y="-257" font-family="Helvetica,sans-Serif" font-size="10.00"> </text>
<text text-anchor="start" x="156" y="-242" font-family="Helvetica,sans-Serif" font-size="10.00"> </text>
<polygon fill="#666666" stroke="#666666" points="131.5,-268.5 131.5,-268.5 183.5,-268.5 183.5,-268.5 131.5,-268.5"/>
<polygon fill="#666666" stroke="#666666" points="131.5,-253.5 131.5,-253.5 183.5,-253.5 183.5,-253.5 131.5,-253.5"/>
<polygon fill="none" stroke="#666666" points="131.5,-236.5 131.5,-285.5 183.5,-285.5 183.5,-236.5 131.5,-236.5"/>
</a>
</g>
</g>
<!-- Node3&#45;&gt;Node1 -->
<g id="edge2_Node000001_Node000003" class="edge">
<title>Node3&#45;&gt;Node1</title>
<g id="a_edge2_Node000001_Node000003"><a xlink:title=" ">
<path fill="none" stroke="#63b8ff" d="M146.21,-236.56C138.6,-220.75 128.01,-198.75 117.22,-176.36"/>
<polygon fill="none" stroke="#63b8ff" points="117.18,-176.27 110.97,-172.6 111.97,-165.46 118.18,-169.13 117.18,-176.27"/>
</a>
</g>
<text text-anchor="middle" x="157.25" y="-196" font-family="Helvetica,sans-Serif" font-size="10.00" fill="grey"> +description</text>
<text text-anchor="middle" x="157.25" y="-184.75" font-family="Helvetica,sans-Serif" font-size="10.00" fill="grey">+name</text>
</g>
<!-- Node4 -->
<g id="Node000004" class="node">
<title>Node4</title>
<g id="a_Node000004"><a xlink:title=" ">
<polygon fill="white" stroke="none" points="200.5,-395.5 114.5,-395.5 114.5,-335.5 200.5,-335.5 200.5,-395.5"/>
<text text-anchor="start" x="119.25" y="-382" font-family="Helvetica,sans-Serif" font-size="10.00">std::basic_string&lt;</text>
<text text-anchor="start" x="142.12" y="-370.75" font-family="Helvetica,sans-Serif" font-size="10.00"> Char &gt;</text>
<text text-anchor="start" x="156" y="-356" font-family="Helvetica,sans-Serif" font-size="10.00"> </text>
<text text-anchor="start" x="156" y="-341" font-family="Helvetica,sans-Serif" font-size="10.00"> </text>
<polygon fill="#666666" stroke="#666666" points="114.5,-367.5 114.5,-367.5 200.5,-367.5 200.5,-367.5 114.5,-367.5"/>
<polygon fill="#666666" stroke="#666666" points="114.5,-352.5 114.5,-352.5 200.5,-352.5 200.5,-352.5 114.5,-352.5"/>
<polygon fill="none" stroke="#666666" points="114.5,-335.5 114.5,-395.5 200.5,-395.5 200.5,-335.5 114.5,-335.5"/>
</a>
</g>
</g>
<!-- Node4&#45;&gt;Node3 -->
<g id="edge3_Node000003_Node000004" class="edge">
<title>Node4&#45;&gt;Node3</title>
<g id="a_edge3_Node000003_Node000004"><a xlink:title=" ">
<path fill="none" stroke="#63b8ff" d="M157.5,-324.43C157.5,-311.23 157.5,-296.98 157.5,-285.44"/>
<polygon fill="none" stroke="#63b8ff" points="154,-324.16 157.5,-334.16 161,-324.16 154,-324.16"/>
</a>
</g>
</g>
</g>
</svg>
