<?xml version="1.0" encoding="UTF-8" standalone="no"?>
<!DOCTYPE svg PUBLIC "-//W3C//DTD SVG 1.1//EN"
 "http://www.w3.org/Graphics/SVG/1.1/DTD/svg11.dtd">
<!-- Generated by graphviz version 9.0.0 (20230911.1827)
 -->
<!-- Title: fabomatic::BoardLogic::logout Pages: 1 -->
<svg width="731pt" height="701pt"
 viewBox="0.00 0.00 730.75 700.50" xmlns="http://www.w3.org/2000/svg" xmlns:xlink="http://www.w3.org/1999/xlink">
<g id="graph0" class="graph" transform="scale(1 1) rotate(0) translate(4 696.5)">
<title>fabomatic::BoardLogic::logout</title>
<!-- Node1 -->
<g id="Node000001" class="node">
<title>Node1</title>
<g id="a_Node000001"><a xlink:title="Removes the current machine user and changes the status to LoggedOut.">
<polygon fill="#999999" stroke="#666666" points="112.75,-361.5 0,-361.5 0,-331 112.75,-331 112.75,-361.5"/>
<text text-anchor="start" x="8" y="-348" font-family="Helvetica,sans-Serif" font-size="10.00">fabomatic::BoardLogic</text>
<text text-anchor="middle" x="56.38" y="-336.75" font-family="Helvetica,sans-Serif" font-size="10.00">::logout</text>
</a>
</g>
</g>
<!-- Node2 -->
<g id="Node000002" class="node">
<title>Node2</title>
<g id="a_Node000002"><a xlink:href="classfabomatic_1_1_board_logic.xhtml#a8e0c35d138333907cc217c9e141091cd" target="_top" xlink:title=" ">
<polygon fill="white" stroke="#666666" points="264.12,-692.5 151.38,-692.5 151.38,-662 264.12,-662 264.12,-692.5"/>
<text text-anchor="start" x="159.38" y="-679" font-family="Helvetica,sans-Serif" font-size="10.00">fabomatic::BoardLogic</text>
<text text-anchor="middle" x="207.75" y="-667.75" font-family="Helvetica,sans-Serif" font-size="10.00">::beepOk</text>
</a>
</g>
</g>
<!-- Node1&#45;&gt;Node2 -->
<g id="edge1_Node000001_Node000002" class="edge">
<title>Node1&#45;&gt;Node2</title>
<g id="a_edge1_Node000001_Node000002"><a xlink:title=" ">
<path fill="none" stroke="#63b8ff" d="M57.89,-361.74C60.29,-409.92 73.72,-559.26 148.75,-648.25 150.82,-650.71 153.16,-652.98 155.67,-655.08"/>
<polygon fill="#63b8ff" stroke="#63b8ff" points="153.35,-657.73 163.53,-660.67 157.41,-652.02 153.35,-657.73"/>
</a>
</g>
</g>
<!-- Node4 -->
<g id="Node000004" class="node">
<title>Node4</title>
<g id="a_Node000004"><a xlink:href="namespacefabomatic_1_1_tasks.xhtml#a5c20f560f5934822d39ba116a16f3ab6" target="_top" xlink:title="Wait for a delay, allowing OTA updates.">
<polygon fill="white" stroke="#666666" points="722.75,-643.88 605.5,-643.88 605.5,-624.62 722.75,-624.62 722.75,-643.88"/>
<text text-anchor="middle" x="664.12" y="-630.38" font-family="Helvetica,sans-Serif" font-size="10.00">fabomatic::Tasks::delay</text>
</a>
</g>
</g>
<!-- Node1&#45;&gt;Node4 -->
<g id="edge21_Node000001_Node000004" class="edge">
<title>Node1&#45;&gt;Node4</title>
<g id="a_edge21_Node000001_Node000004"><a xlink:title=" ">
<path fill="none" stroke="#63b8ff" d="M68.75,-361.72C84.86,-382.88 116.01,-421.18 148.75,-447.25 269.14,-543.09 304.34,-570.26 451.5,-615.25 497.61,-629.35 551.8,-634 593.81,-635.18"/>
<polygon fill="#63b8ff" stroke="#63b8ff" points="593.73,-638.68 603.8,-635.39 593.88,-631.68 593.73,-638.68"/>
</a>
</g>
</g>
<!-- Node5 -->
<g id="Node000005" class="node">
<title>Node5</title>
<g id="a_Node000005"><a xlink:href="classfabomatic_1_1_board_logic.xhtml#a3c38d7a3ed7952c6d6297efdf50ea4dd" target="_top" xlink:title="Sets the board in the state given.">
<polygon fill="white" stroke="#666666" points="264.12,-361.5 151.38,-361.5 151.38,-331 264.12,-331 264.12,-361.5"/>
<text text-anchor="start" x="159.38" y="-348" font-family="Helvetica,sans-Serif" font-size="10.00">fabomatic::BoardLogic</text>
<text text-anchor="middle" x="207.75" y="-336.75" font-family="Helvetica,sans-Serif" font-size="10.00">::changeStatus</text>
</a>
</g>
</g>
<!-- Node1&#45;&gt;Node5 -->
<g id="edge5_Node000001_Node000005" class="edge">
<title>Node1&#45;&gt;Node5</title>
<g id="a_edge5_Node000001_Node000005"><a xlink:title=" ">
<path fill="none" stroke="#63b8ff" d="M113,-346.25C121.75,-346.25 130.87,-346.25 139.84,-346.25"/>
<polygon fill="#63b8ff" stroke="#63b8ff" points="139.57,-349.75 149.57,-346.25 139.57,-342.75 139.57,-349.75"/>
</a>
</g>
</g>
<!-- Node7 -->
<g id="Node000007" class="node">
<title>Node7</title>
<g id="a_Node000007"><a xlink:href="classfabomatic_1_1_machine.xhtml#a39c30eaa242d5cc2ce784dbafeef87e8" target="_top" xlink:title=" ">
<polygon fill="white" stroke="#666666" points="560.5,-606.5 460.5,-606.5 460.5,-576 560.5,-576 560.5,-606.5"/>
<text text-anchor="start" x="468.5" y="-593" font-family="Helvetica,sans-Serif" font-size="10.00">fabomatic::Machine</text>
<text text-anchor="middle" x="510.5" y="-581.75" font-family="Helvetica,sans-Serif" font-size="10.00">::getActiveUser</text>
</a>
</g>
</g>
<!-- Node1&#45;&gt;Node7 -->
<g id="edge23_Node000001_Node000007" class="edge">
<title>Node1&#45;&gt;Node7</title>
<g id="a_edge23_Node000001_Node000007"><a xlink:title=" ">
<path fill="none" stroke="#63b8ff" d="M83.17,-361.87C145.41,-399.27 309.17,-496.08 451.5,-566.25 454.6,-567.78 457.81,-569.31 461.06,-570.81"/>
<polygon fill="#63b8ff" stroke="#63b8ff" points="459.56,-573.98 470.11,-574.91 462.44,-567.6 459.56,-573.98"/>
</a>
</g>
</g>
<!-- Node13 -->
<g id="Node000013" class="node">
<title>Node13</title>
<g id="a_Node000013"><a xlink:href="classfabomatic_1_1_machine.xhtml#a9c845a163660550fa779516a8be8681a" target="_top" xlink:title="Duration of the current usage, or 0s.">
<polygon fill="white" stroke="#666666" points="560.5,-30.5 460.5,-30.5 460.5,0 560.5,0 560.5,-30.5"/>
<text text-anchor="start" x="468.5" y="-17" font-family="Helvetica,sans-Serif" font-size="10.00">fabomatic::Machine</text>
<text text-anchor="middle" x="510.5" y="-5.75" font-family="Helvetica,sans-Serif" font-size="10.00">::getUsageDuration</text>
</a>
</g>
</g>
<!-- Node1&#45;&gt;Node13 -->
<g id="edge24_Node000001_Node000013" class="edge">
<title>Node1&#45;&gt;Node13</title>
<g id="a_edge24_Node000001_Node000013"><a xlink:title=" ">
<path fill="none" stroke="#63b8ff" d="M113.06,-331.69C170.64,-316.34 253.9,-293.16 266.75,-284.25 378.82,-206.54 343.64,-122.71 451.5,-39.25 452.64,-38.37 453.82,-37.51 455.02,-36.69"/>
<polygon fill="#63b8ff" stroke="#63b8ff" points="456.67,-39.78 463.45,-31.63 453.07,-33.77 456.67,-39.78"/>
</a>
</g>
</g>
<!-- Node20 -->
<g id="Node000020" class="node">
<title>Node20</title>
<g id="a_Node000020"><a xlink:href="classfabomatic_1_1_fab_backend.xhtml#aa312ecaa96c4ccd3fc4e822b5495c8fe" target="_top" xlink:title="Registers the end of machine usage.">
<polygon fill="white" stroke="#666666" points="266.75,-275.5 148.75,-275.5 148.75,-245 266.75,-245 266.75,-275.5"/>
<text text-anchor="start" x="156.75" y="-262" font-family="Helvetica,sans-Serif" font-size="10.00">fabomatic::FabBackend</text>
<text text-anchor="middle" x="207.75" y="-250.75" font-family="Helvetica,sans-Serif" font-size="10.00">::finishUse</text>
</a>
</g>
</g>
<!-- Node1&#45;&gt;Node20 -->
<g id="edge22_Node000001_Node000020" class="edge">
<title>Node1&#45;&gt;Node20</title>
<g id="a_edge22_Node000001_Node000020"><a xlink:title=" ">
<path fill="none" stroke="#63b8ff" d="M81.05,-330.62C99.29,-318.8 125.26,-302.41 148.75,-289.25 153.66,-286.5 158.86,-283.72 164.05,-281.02"/>
<polygon fill="#63b8ff" stroke="#63b8ff" points="165.28,-284.32 172.6,-276.66 162.1,-278.09 165.28,-284.32"/>
</a>
</g>
</g>
<!-- Node21 -->
<g id="Node000021" class="node">
<title>Node21</title>
<g id="a_Node000021"><a xlink:href="classfabomatic_1_1_machine.xhtml#a86cd6dfd9fefa7221a49cc07c78fc851" target="_top" xlink:title="Logoff the user and stop the usage timer.">
<polygon fill="white" stroke="#666666" points="257.75,-226.5 157.75,-226.5 157.75,-196 257.75,-196 257.75,-226.5"/>
<text text-anchor="start" x="165.75" y="-213" font-family="Helvetica,sans-Serif" font-size="10.00">fabomatic::Machine</text>
<text text-anchor="middle" x="207.75" y="-201.75" font-family="Helvetica,sans-Serif" font-size="10.00">::logout</text>
</a>
</g>
</g>
<!-- Node1&#45;&gt;Node21 -->
<g id="edge25_Node000001_Node000021" class="edge">
<title>Node1&#45;&gt;Node21</title>
<g id="a_edge25_Node000001_Node000021"><a xlink:title=" ">
<path fill="none" stroke="#63b8ff" d="M66.8,-330.77C81.65,-307.5 112.57,-263.32 148.75,-236.25 150.5,-234.94 152.32,-233.69 154.2,-232.49"/>
<polygon fill="#63b8ff" stroke="#63b8ff" points="155.7,-235.66 162.64,-227.66 152.22,-229.59 155.7,-235.66"/>
</a>
</g>
</g>
<!-- Node3 -->
<g id="Node000003" class="node">
<title>Node3</title>
<g id="a_Node000003"><a xlink:href="classfabomatic_1_1_buzzer.xhtml#af732a4349a272129c2f5f1ce2522ffd5" target="_top" xlink:title=" ">
<polygon fill="white" stroke="#666666" points="407.62,-692.5 310.62,-692.5 310.62,-662 407.62,-662 407.62,-692.5"/>
<text text-anchor="start" x="318.62" y="-679" font-family="Helvetica,sans-Serif" font-size="10.00">fabomatic::Buzzer::</text>
<text text-anchor="middle" x="359.12" y="-667.75" font-family="Helvetica,sans-Serif" font-size="10.00">beepOk</text>
</a>
</g>
</g>
<!-- Node2&#45;&gt;Node3 -->
<g id="edge2_Node000002_Node000003" class="edge">
<title>Node2&#45;&gt;Node3</title>
<g id="a_edge2_Node000002_Node000003"><a xlink:title=" ">
<path fill="none" stroke="#63b8ff" d="M264.37,-677.25C275.69,-677.25 287.64,-677.25 299.08,-677.25"/>
<polygon fill="#63b8ff" stroke="#63b8ff" points="298.79,-680.75 308.79,-677.25 298.79,-673.75 298.79,-680.75"/>
</a>
</g>
</g>
<!-- Node3&#45;&gt;Node4 -->
<g id="edge3_Node000003_Node000004" class="edge">
<title>Node3&#45;&gt;Node4</title>
<g id="a_edge3_Node000003_Node000004"><a xlink:title=" ">
<path fill="none" stroke="#63b8ff" d="M407.96,-670.77C450.41,-664.99 514.11,-656.23 569.5,-648.25 577.44,-647.11 585.76,-645.89 594.02,-644.67"/>
<polygon fill="#63b8ff" stroke="#63b8ff" points="594.33,-648.16 603.71,-643.23 593.3,-641.24 594.33,-648.16"/>
</a>
</g>
</g>
<!-- Node4&#45;&gt;Node4 -->
<g id="edge4_Node000004_Node000004" class="edge">
<title>Node4&#45;&gt;Node4</title>
<g id="a_edge4_Node000004_Node000004"><a xlink:title=" ">
<path fill="none" stroke="#63b8ff" d="M640.07,-644.16C629.1,-652.77 637.12,-661.88 664.12,-661.88 679.31,-661.88 688.5,-658.99 691.67,-654.94"/>
<polygon fill="#63b8ff" stroke="#63b8ff" points="695.06,-654.04 688.64,-645.6 688.4,-656.19 695.06,-654.04"/>
</a>
</g>
</g>
<!-- Node6 -->
<g id="Node000006" class="node">
<title>Node6</title>
<g id="a_Node000006"><a xlink:href="classfabomatic_1_1_board_logic.xhtml#a47b4d515c0d3488eceb49769036bce8b" target="_top" xlink:title="Updates the LCD screen as per the current status.">
<polygon fill="white" stroke="#666666" points="415.5,-361.5 302.75,-361.5 302.75,-331 415.5,-331 415.5,-361.5"/>
<text text-anchor="start" x="310.75" y="-348" font-family="Helvetica,sans-Serif" font-size="10.00">fabomatic::BoardLogic</text>
<text text-anchor="middle" x="359.12" y="-336.75" font-family="Helvetica,sans-Serif" font-size="10.00">::updateLCD</text>
</a>
</g>
</g>
<!-- Node5&#45;&gt;Node6 -->
<g id="edge6_Node000005_Node000006" class="edge">
<title>Node5&#45;&gt;Node6</title>
<g id="a_edge6_Node000005_Node000006"><a xlink:title=" ">
<path fill="none" stroke="#63b8ff" d="M264.37,-346.25C273.12,-346.25 282.24,-346.25 291.21,-346.25"/>
<polygon fill="#63b8ff" stroke="#63b8ff" points="290.94,-349.75 300.94,-346.25 290.94,-342.75 290.94,-349.75"/>
</a>
</g>
</g>
<!-- Node6&#45;&gt;Node7 -->
<g id="edge7_Node000006_Node000007" class="edge">
<title>Node6&#45;&gt;Node7</title>
<g id="a_edge7_Node000006_Node000007"><a xlink:title=" ">
<path fill="none" stroke="#63b8ff" d="M366.89,-361.81C377.43,-386.15 398.37,-434.76 415.5,-476.25 431.94,-516.07 421.44,-535.39 451.5,-566.25 452.36,-567.13 453.26,-567.99 454.19,-568.81"/>
<polygon fill="#63b8ff" stroke="#63b8ff" points="451.92,-571.49 462.04,-574.6 456.07,-565.85 451.92,-571.49"/>
</a>
</g>
</g>
<!-- Node8 -->
<g id="Node000008" class="node">
<title>Node8</title>
<g id="a_Node000008"><a xlink:href="classfabomatic_1_1_board_logic.xhtml#a462b4b6149ca7bf33b699eb3181c969f" target="_top" xlink:title=" ">
<polygon fill="white" stroke="#666666" points="566.88,-557.5 454.12,-557.5 454.12,-527 566.88,-527 566.88,-557.5"/>
<text text-anchor="start" x="462.12" y="-544" font-family="Helvetica,sans-Serif" font-size="10.00">fabomatic::BoardLogic</text>
<text text-anchor="middle" x="510.5" y="-532.75" font-family="Helvetica,sans-Serif" font-size="10.00">::getLcd</text>
</a>
</g>
</g>
<!-- Node6&#45;&gt;Node8 -->
<g id="edge8_Node000006_Node000008" class="edge">
<title>Node6&#45;&gt;Node8</title>
<g id="a_edge8_Node000006_Node000008"><a xlink:title=" ">
<path fill="none" stroke="#63b8ff" d="M364.59,-361.91C374.75,-394.91 402.57,-472.25 451.5,-517.25 452.71,-518.36 453.98,-519.43 455.29,-520.46"/>
<polygon fill="#63b8ff" stroke="#63b8ff" points="453,-523.14 463.27,-525.77 456.89,-517.31 453,-523.14"/>
</a>
</g>
</g>
<!-- Node9 -->
<g id="Node000009" class="node">
<title>Node9</title>
<g id="a_Node000009"><a xlink:href="classfabomatic_1_1_board_logic.xhtml#a164e40105242d0b7c56c6b4f21155101" target="_top" xlink:title="Gets the current machine.">
<polygon fill="white" stroke="#666666" points="566.88,-508.5 454.12,-508.5 454.12,-478 566.88,-478 566.88,-508.5"/>
<text text-anchor="start" x="462.12" y="-495" font-family="Helvetica,sans-Serif" font-size="10.00">fabomatic::BoardLogic</text>
<text text-anchor="middle" x="510.5" y="-483.75" font-family="Helvetica,sans-Serif" font-size="10.00">::getMachine</text>
</a>
</g>
</g>
<!-- Node6&#45;&gt;Node9 -->
<g id="edge10_Node000006_Node000009" class="edge">
<title>Node6&#45;&gt;Node9</title>
<g id="a_edge10_Node000006_Node000009"><a xlink:title=" ">
<path fill="none" stroke="#63b8ff" d="M368.21,-361.79C382.12,-387.19 412.84,-437.78 451.5,-468.25 453.18,-469.57 454.94,-470.84 456.76,-472.05"/>
<polygon fill="#63b8ff" stroke="#63b8ff" points="454.54,-474.81 464.93,-476.88 458.1,-468.78 454.54,-474.81"/>
</a>
</g>
</g>
<!-- Node10 -->
<g id="Node000010" class="node">
<title>Node10</title>
<g id="a_Node000010"><a xlink:href="classfabomatic_1_1_machine.xhtml#a1637e99f2d70262d2ab26f69ed4f0e47" target="_top" xlink:title=" ">
<polygon fill="white" stroke="#666666" points="560.5,-459.5 460.5,-459.5 460.5,-429 560.5,-429 560.5,-459.5"/>
<text text-anchor="start" x="468.5" y="-446" font-family="Helvetica,sans-Serif" font-size="10.00">fabomatic::Machine</text>
<text text-anchor="middle" x="510.5" y="-434.75" font-family="Helvetica,sans-Serif" font-size="10.00">::getMachineName</text>
</a>
</g>
</g>
<!-- Node6&#45;&gt;Node10 -->
<g id="edge11_Node000006_Node000010" class="edge">
<title>Node6&#45;&gt;Node10</title>
<g id="a_edge11_Node000006_Node000010"><a xlink:title=" ">
<path fill="none" stroke="#63b8ff" d="M376.96,-362C394.56,-377.89 423.47,-402.43 451.5,-419.25 453.93,-420.71 456.45,-422.12 459.04,-423.49"/>
<polygon fill="#63b8ff" stroke="#63b8ff" points="457.31,-426.54 467.82,-427.86 460.43,-420.28 457.31,-426.54"/>
</a>
</g>
</g>
<!-- Node11 -->
<g id="Node000011" class="node">
<title>Node11</title>
<g id="a_Node000011"><a xlink:href="classfabomatic_1_1_machine.xhtml#ad511c567c7cb7487d19019550c9a4e32" target="_top" xlink:title=" ">
<polygon fill="white" stroke="#666666" points="563.5,-410.5 457.5,-410.5 457.5,-380 563.5,-380 563.5,-410.5"/>
<text text-anchor="start" x="465.5" y="-397" font-family="Helvetica,sans-Serif" font-size="10.00">fabomatic::Machine</text>
<text text-anchor="middle" x="510.5" y="-385.75" font-family="Helvetica,sans-Serif" font-size="10.00">::getMaintenanceInfo</text>
</a>
</g>
</g>
<!-- Node6&#45;&gt;Node11 -->
<g id="edge12_Node000006_Node000011" class="edge">
<title>Node6&#45;&gt;Node11</title>
<g id="a_edge12_Node000006_Node000011"><a xlink:title=" ">
<path fill="none" stroke="#63b8ff" d="M407.8,-361.89C421.47,-366.37 436.55,-371.32 450.8,-376"/>
<polygon fill="#63b8ff" stroke="#63b8ff" points="449.48,-379.24 460.07,-379.04 451.66,-372.59 449.48,-379.24"/>
</a>
</g>
</g>
<!-- Node12 -->
<g id="Node000012" class="node">
<title>Node12</title>
<g id="a_Node000012"><a xlink:href="classfabomatic_1_1_machine.xhtml#a3c5304fd80e0cc1c2118a59c64222d6d" target="_top" xlink:title="Returns the current power state of the machine.">
<polygon fill="white" stroke="#666666" points="560.5,-361.5 460.5,-361.5 460.5,-331 560.5,-331 560.5,-361.5"/>
<text text-anchor="start" x="468.5" y="-348" font-family="Helvetica,sans-Serif" font-size="10.00">fabomatic::Machine</text>
<text text-anchor="middle" x="510.5" y="-336.75" font-family="Helvetica,sans-Serif" font-size="10.00">::getPowerState</text>
</a>
</g>
</g>
<!-- Node6&#45;&gt;Node12 -->
<g id="edge13_Node000006_Node000012" class="edge">
<title>Node6&#45;&gt;Node12</title>
<g id="a_edge13_Node000006_Node000012"><a xlink:title=" ">
<path fill="none" stroke="#63b8ff" d="M415.75,-346.25C426.58,-346.25 437.99,-346.25 448.98,-346.25"/>
<polygon fill="#63b8ff" stroke="#63b8ff" points="448.71,-349.75 458.71,-346.25 448.71,-342.75 448.71,-349.75"/>
</a>
</g>
</g>
<!-- Node6&#45;&gt;Node13 -->
<g id="edge14_Node000006_Node000013" class="edge">
<title>Node6&#45;&gt;Node13</title>
<g id="a_edge14_Node000006_Node000013"><a xlink:title=" ">
<path fill="none" stroke="#63b8ff" d="M401.25,-330.68C406.76,-327.02 411.78,-322.59 415.5,-317.25 486.73,-215.03 375.74,-138.16 451.5,-39.25 451.65,-39.05 451.81,-38.85 451.97,-38.65"/>
<polygon fill="#63b8ff" stroke="#63b8ff" points="454.23,-41.33 459.07,-31.91 449.41,-36.26 454.23,-41.33"/>
</a>
</g>
</g>
<!-- Node14 -->
<g id="Node000014" class="node">
<title>Node14</title>
<g id="a_Node000014"><a xlink:href="classfabomatic_1_1_machine.xhtml#a4b40dcb31af466acc85f66c845516c82" target="_top" xlink:title=" ">
<polygon fill="white" stroke="#666666" points="560.5,-312.5 460.5,-312.5 460.5,-282 560.5,-282 560.5,-312.5"/>
<text text-anchor="start" x="468.5" y="-299" font-family="Helvetica,sans-Serif" font-size="10.00">fabomatic::Machine</text>
<text text-anchor="middle" x="510.5" y="-287.75" font-family="Helvetica,sans-Serif" font-size="10.00">::isAllowed</text>
</a>
</g>
</g>
<!-- Node6&#45;&gt;Node14 -->
<g id="edge15_Node000006_Node000014" class="edge">
<title>Node6&#45;&gt;Node14</title>
<g id="a_edge15_Node000006_Node000014"><a xlink:title=" ">
<path fill="none" stroke="#63b8ff" d="M407.8,-330.61C421.47,-326.13 436.55,-321.18 450.8,-316.5"/>
<polygon fill="#63b8ff" stroke="#63b8ff" points="451.66,-319.91 460.07,-313.46 449.48,-313.26 451.66,-319.91"/>
</a>
</g>
</g>
<!-- Node15 -->
<g id="Node000015" class="node">
<title>Node15</title>
<g id="a_Node000015"><a xlink:href="classfabomatic_1_1_machine.xhtml#a9fd614d86b6108a5a7b54fc9eee0d9a6" target="_top" xlink:title="Indicates if the machine has been configured.">
<polygon fill="white" stroke="#666666" points="560.5,-263.5 460.5,-263.5 460.5,-233 560.5,-233 560.5,-263.5"/>
<text text-anchor="start" x="468.5" y="-250" font-family="Helvetica,sans-Serif" font-size="10.00">fabomatic::Machine</text>
<text text-anchor="middle" x="510.5" y="-238.75" font-family="Helvetica,sans-Serif" font-size="10.00">::isConfigured</text>
</a>
</g>
</g>
<!-- Node6&#45;&gt;Node15 -->
<g id="edge16_Node000006_Node000015" class="edge">
<title>Node6&#45;&gt;Node15</title>
<g id="a_edge16_Node000006_Node000015"><a xlink:title=" ">
<path fill="none" stroke="#63b8ff" d="M395.14,-330.65C402.22,-326.76 409.36,-322.25 415.5,-317.25 435.09,-301.29 431.32,-288.46 451.5,-273.25 453.24,-271.94 455.06,-270.68 456.94,-269.47"/>
<polygon fill="#63b8ff" stroke="#63b8ff" points="458.44,-272.65 465.37,-264.63 454.95,-266.57 458.44,-272.65"/>
</a>
</g>
</g>
<!-- Node16 -->
<g id="Node000016" class="node">
<title>Node16</title>
<g id="a_Node000016"><a xlink:href="classfabomatic_1_1_machine.xhtml#a34b0deb04494137cf321e94d50dedf90" target="_top" xlink:title=" ">
<polygon fill="white" stroke="#666666" points="569.12,-214.5 451.88,-214.5 451.88,-184 569.12,-184 569.12,-214.5"/>
<text text-anchor="start" x="459.88" y="-201" font-family="Helvetica,sans-Serif" font-size="10.00">fabomatic::Machine</text>
<text text-anchor="middle" x="510.5" y="-189.75" font-family="Helvetica,sans-Serif" font-size="10.00">::isMaintenanceNeeded</text>
</a>
</g>
</g>
<!-- Node6&#45;&gt;Node16 -->
<g id="edge17_Node000006_Node000016" class="edge">
<title>Node6&#45;&gt;Node16</title>
<g id="a_edge17_Node000006_Node000016"><a xlink:title=" ">
<path fill="none" stroke="#63b8ff" d="M399.04,-330.52C405.1,-326.83 410.87,-322.43 415.5,-317.25 445.02,-284.19 420.75,-256.17 451.5,-224.25 452.36,-223.36 453.25,-222.5 454.17,-221.67"/>
<polygon fill="#63b8ff" stroke="#63b8ff" points="456.06,-224.63 462.01,-215.86 451.89,-219.01 456.06,-224.63"/>
</a>
</g>
</g>
<!-- Node17 -->
<g id="Node000017" class="node">
<title>Node17</title>
<g id="a_Node000017"><a xlink:href="classfabomatic_1_1_fab_backend.xhtml#aef092e0e1db0c3539d5474fad2456255" target="_top" xlink:title="Checks if the client is online.">
<polygon fill="white" stroke="#666666" points="569.5,-165.5 451.5,-165.5 451.5,-135 569.5,-135 569.5,-165.5"/>
<text text-anchor="start" x="459.5" y="-152" font-family="Helvetica,sans-Serif" font-size="10.00">fabomatic::FabBackend</text>
<text text-anchor="middle" x="510.5" y="-140.75" font-family="Helvetica,sans-Serif" font-size="10.00">::isOnline</text>
</a>
</g>
</g>
<!-- Node6&#45;&gt;Node17 -->
<g id="edge18_Node000006_Node000017" class="edge">
<title>Node6&#45;&gt;Node17</title>
<g id="a_edge18_Node000006_Node000017"><a xlink:title=" ">
<path fill="none" stroke="#63b8ff" d="M400.15,-330.63C405.93,-326.95 411.33,-322.53 415.5,-317.25 455.85,-266.15 409.26,-224.79 451.5,-175.25 452.17,-174.47 452.87,-173.7 453.59,-172.97"/>
<polygon fill="#63b8ff" stroke="#63b8ff" points="455.51,-175.92 461.04,-166.88 451.08,-170.5 455.51,-175.92"/>
</a>
</g>
</g>
<!-- Node18 -->
<g id="Node000018" class="node">
<title>Node18</title>
<g id="a_Node000018"><a xlink:href="classfabomatic_1_1_machine.xhtml#a871958cc57845c8651cf1058ed9b30e4" target="_top" xlink:title="Indicates if the machine will power down in less than BEEP_REMAINING_MINUTES.">
<polygon fill="white" stroke="#666666" points="566.5,-116.5 454.5,-116.5 454.5,-86 566.5,-86 566.5,-116.5"/>
<text text-anchor="start" x="462.5" y="-103" font-family="Helvetica,sans-Serif" font-size="10.00">fabomatic::Machine</text>
<text text-anchor="middle" x="510.5" y="-91.75" font-family="Helvetica,sans-Serif" font-size="10.00">::isShutdownImminent</text>
</a>
</g>
</g>
<!-- Node6&#45;&gt;Node18 -->
<g id="edge19_Node000006_Node000018" class="edge">
<title>Node6&#45;&gt;Node18</title>
<g id="a_edge19_Node000006_Node000018"><a xlink:title=" ">
<path fill="none" stroke="#63b8ff" d="M400.71,-330.67C406.35,-327 411.56,-322.57 415.5,-317.25 466.9,-247.82 397.52,-193.69 451.5,-126.25 452.04,-125.58 452.6,-124.92 453.18,-124.28"/>
<polygon fill="#63b8ff" stroke="#63b8ff" points="455.28,-127.09 460.56,-117.9 450.7,-121.8 455.28,-127.09"/>
</a>
</g>
</g>
<!-- Node19 -->
<g id="Node000019" class="node">
<title>Node19</title>
<g id="a_Node000019"><a xlink:href="namespacefabomatic_1_1card.xhtml#aef091ec171625c69f9d4eab20ebaefec" target="_top" xlink:title="Returns a string representation of the UID.">
<polygon fill="white" stroke="#666666" points="568.38,-67.88 452.62,-67.88 452.62,-48.62 568.38,-48.62 568.38,-67.88"/>
<text text-anchor="middle" x="510.5" y="-54.38" font-family="Helvetica,sans-Serif" font-size="10.00">fabomatic::card::uid_str</text>
</a>
</g>
</g>
<!-- Node6&#45;&gt;Node19 -->
<g id="edge20_Node000006_Node000019" class="edge">
<title>Node6&#45;&gt;Node19</title>
<g id="a_edge20_Node000006_Node000019"><a xlink:title=" ">
<path fill="none" stroke="#63b8ff" d="M401.16,-330.61C406.68,-326.97 411.72,-322.55 415.5,-317.25 478.05,-229.38 381.89,-159.64 451.5,-77.25 452.17,-76.45 452.88,-75.69 453.62,-74.96"/>
<polygon fill="#63b8ff" stroke="#63b8ff" points="455.41,-77.99 461.31,-69.18 451.21,-72.39 455.41,-77.99"/>
</a>
</g>
</g>
<!-- Node8&#45;&gt;Node4 -->
<g id="edge9_Node000008_Node000004" class="edge">
<title>Node8&#45;&gt;Node4</title>
<g id="a_edge9_Node000008_Node000004"><a xlink:title=" ">
<path fill="none" stroke="#63b8ff" d="M551.05,-557.94C557.33,-560.82 563.68,-563.96 569.5,-567.25 595.76,-582.08 623.59,-602.7 642.01,-617.14"/>
<polygon fill="#63b8ff" stroke="#63b8ff" points="639.78,-619.83 649.79,-623.31 644.13,-614.35 639.78,-619.83"/>
</a>
</g>
</g>
</g>
</svg>
