<?xml version="1.0" encoding="UTF-8" standalone="no"?>
<!DOCTYPE svg PUBLIC "-//W3C//DTD SVG 1.1//EN"
 "http://www.w3.org/Graphics/SVG/1.1/DTD/svg11.dtd">
<!-- Generated by graphviz version 9.0.0 (20230911.1827)
 -->
<!-- Title: fabomatic::SavedConfig::setMachineID Pages: 1 -->
<!--zoomable 475 -->

<svg id="main" version="1.1" xmlns="http://www.w3.org/2000/svg" xmlns:xlink="http://www.w3.org/1999/xlink" xml:space="preserve" onload="init(evt)">
<style type="text/css"><![CDATA[
.node, .edge {opacity: 0.7;}
.node.selected, .edge.selected {opacity: 1;}
.edge:hover path { stroke: red; }
.edge:hover polygon { stroke: red; fill: red; }
]]></style>

<defs>
  <circle id="rim" cx="0" cy="0" r="7"/>
  <circle id="rim2" cx="0" cy="0" r="3.5"/>
  <g id="zoomPlus">
    <use xlink:href="#rim" fill="#404040"><set attributeName="fill" to="#808080" begin="zoomplus.mouseover" end="zoomplus.mouseout"/></use>
    <path d="M-4,0h8M0,-4v8" fill="none" stroke="white" stroke-width="1.5" pointer-events="none"/>
  </g>
  <g id="zoomMin">
    <use xlink:href="#rim" fill="#404040"><set attributeName="fill" to="#808080" begin="zoomminus.mouseover" end="zoomminus.mouseout"/></use>
    <path d="M-4,0h8" fill="none" stroke="white" stroke-width="1.5" pointer-events="none"/>
  </g>
  <g id="arrowUp" transform="translate(30 24)">
    <use xlink:href="#rim"/>
    <path pointer-events="none" fill="none" stroke="white" stroke-width="1.5" d="M0,-3.0v7 M-2.5,-0.5L0,-3.0L2.5,-0.5"/>
  </g>
  <g id="arrowRight" transform="rotate(90) translate(36 -43)">
    <use xlink:href="#rim"/>
    <path pointer-events="none" fill="none" stroke="white" stroke-width="1.5" d="M0,-3.0v7 M-2.5,-0.5L0,-3.0L2.5,-0.5"/>
  </g>
  <g id="arrowDown" transform="rotate(180) translate(-30 -48)">
    <use xlink:href="#rim"/>
    <path pointer-events="none" fill="none" stroke="white" stroke-width="1.5" d="M0,-3.0v7 M-2.5,-0.5L0,-3.0L2.5,-0.5"/>
  </g>
  <g id="arrowLeft" transform="rotate(270) translate(-36 17)">
    <use xlink:href="#rim"/>
    <path pointer-events="none" fill="none" stroke="white" stroke-width="1.5" d="M0,-3.0v7 M-2.5,-0.5L0,-3.0L2.5,-0.5"/>
  </g>
  <g id="resetDef">
    <use xlink:href="#rim2" fill="#404040"><set attributeName="fill" to="#808080" begin="reset.mouseover" end="reset.mouseout"/></use>
  </g>
</defs>
<script type="application/ecmascript">
var viewWidth = 786;
var viewHeight = 475;
var sectionId = 'dynsection-8';
</script>
<script type="application/ecmascript" xlink:href="svg.min.js"/>
<svg id="graph" class="graph">
<g id="viewport">
<title>fabomatic::SavedConfig::setMachineID</title>
<!-- Node1 -->
<g id="Node000001" class="node">
<title>Node1</title>
<g id="a_Node000001"><a xlink:title="Sets the machine ID (converting to string)">
<polygon fill="#999999" stroke="#666666" points="777.5,-218.5 659.5,-218.5 659.5,-188 777.5,-188 777.5,-218.5"/>
<text text-anchor="start" x="667.5" y="-205" font-family="Helvetica,sans-Serif" font-size="10.00">fabomatic::SavedConfig</text>
<text text-anchor="middle" x="718.5" y="-193.75" font-family="Helvetica,sans-Serif" font-size="10.00">::setMachineID</text>
</a>
</g>
</g>
<!-- Node2 -->
<g id="Node000002" class="node">
<title>Node2</title>
<g id="a_Node000002"><a xlink:href="classfabomatic_1_1_saved_config.xhtml#a3a6f62510c34ed7a4491022e4e43b9c2" target="_top" xlink:title="Returns the default configuration built from conf.hpp and secrets.hpp.">
<polygon fill="white" stroke="#666666" points="623.5,-218.5 505.5,-218.5 505.5,-188 623.5,-188 623.5,-218.5"/>
<text text-anchor="start" x="513.5" y="-205" font-family="Helvetica,sans-Serif" font-size="10.00">fabomatic::SavedConfig</text>
<text text-anchor="middle" x="564.5" y="-193.75" font-family="Helvetica,sans-Serif" font-size="10.00">::DefaultConfig</text>
</a>
</g>
</g>
<!-- Node1&#45;&gt;Node2 -->
<g id="edge1_Node000001_Node000002" class="edge">
<title>Node1&#45;&gt;Node2</title>
<g id="a_edge1_Node000001_Node000002"><a xlink:title=" ">
<path fill="none" stroke="#63b8ff" d="M647.93,-203.25C639.9,-203.25 631.78,-203.25 623.93,-203.25"/>
<polygon fill="#63b8ff" stroke="#63b8ff" points="647.65,-206.75 657.65,-203.25 647.65,-199.75 647.65,-206.75"/>
</a>
</g>
</g>
<!-- Node3 -->
<g id="Node000003" class="node">
<title>Node3</title>
<g id="a_Node000003"><a xlink:href="namespacefabomatic.xhtml#a412fca06536dbae1da1e3018a4fd03c6" target="_top" xlink:title=" ">
<polygon fill="white" stroke="#666666" points="461.62,-466.88 357.88,-466.88 357.88,-447.62 461.62,-447.62 461.62,-466.88"/>
<text text-anchor="middle" x="409.75" y="-453.38" font-family="Helvetica,sans-Serif" font-size="10.00">fabomatic::getConfig</text>
</a>
</g>
</g>
<!-- Node2&#45;&gt;Node3 -->
<g id="edge2_Node000002_Node000003" class="edge">
<title>Node2&#45;&gt;Node3</title>
<g id="a_edge2_Node000002_Node000003"><a xlink:title=" ">
<path fill="none" stroke="#63b8ff" d="M559.47,-230.04C551.04,-277.19 527.31,-375.45 469.5,-433.25 463.5,-439.25 455.8,-443.81 447.95,-447.26"/>
<polygon fill="#63b8ff" stroke="#63b8ff" points="562.88,-230.89 561.08,-220.45 555.97,-229.73 562.88,-230.89"/>
</a>
</g>
</g>
<!-- Node5 -->
<g id="Node000005" class="node">
<title>Node5</title>
<g id="a_Node000005"><a xlink:href="main_8cpp.xhtml#a4fc01d736fe50cf5b977f755b675f11d" target="_top" xlink:title=" ">
<polygon fill="white" stroke="#666666" points="89.88,-428.88 49.88,-428.88 49.88,-409.62 89.88,-409.62 89.88,-428.88"/>
<text text-anchor="middle" x="69.88" y="-415.38" font-family="Helvetica,sans-Serif" font-size="10.00">setup</text>
</a>
</g>
</g>
<!-- Node2&#45;&gt;Node5 -->
<g id="edge23_Node000002_Node000005" class="edge">
<title>Node2&#45;&gt;Node5</title>
<g id="a_edge23_Node000002_Node000005"><a xlink:title=" ">
<path fill="none" stroke="#63b8ff" d="M554.33,-228.87C541.01,-262.25 513.04,-319.91 469.5,-350.25 346.47,-435.98 151.39,-426.71 90.01,-421.26"/>
<polygon fill="#63b8ff" stroke="#63b8ff" points="557.43,-230.56 557.75,-219.97 550.9,-228.06 557.43,-230.56"/>
</a>
</g>
</g>
<!-- Node7 -->
<g id="Node000007" class="node">
<title>Node7</title>
<g id="a_Node000007"><a xlink:href="classfabomatic_1_1_board_logic.xhtml#ad4d15925f4f48caa25335db63aeab734" target="_top" xlink:title="Configures the board with the given references.">
<polygon fill="white" stroke="#666666" points="466.12,-304.5 353.38,-304.5 353.38,-274 466.12,-274 466.12,-304.5"/>
<text text-anchor="start" x="361.38" y="-291" font-family="Helvetica,sans-Serif" font-size="10.00">fabomatic::BoardLogic</text>
<text text-anchor="middle" x="409.75" y="-279.75" font-family="Helvetica,sans-Serif" font-size="10.00">::reconfigure</text>
</a>
</g>
</g>
<!-- Node2&#45;&gt;Node7 -->
<g id="edge6_Node000002_Node000007" class="edge">
<title>Node2&#45;&gt;Node7</title>
<g id="a_edge6_Node000002_Node000007"><a xlink:title=" ">
<path fill="none" stroke="#63b8ff" d="M525.97,-224.38C499,-239.56 463.21,-259.71 438.72,-273.5"/>
<polygon fill="#63b8ff" stroke="#63b8ff" points="527.52,-227.52 534.52,-219.57 524.09,-221.42 527.52,-227.52"/>
</a>
</g>
</g>
<!-- Node9 -->
<g id="Node000009" class="node">
<title>Node9</title>
<g id="a_Node000009"><a xlink:href="test__logic_8cpp.xhtml#a95c834d6178047ce9e1bce7cbfea2836" target="_top" xlink:title=" ">
<polygon fill="white" stroke="#666666" points="91,-368.88 48.75,-368.88 48.75,-349.62 91,-349.62 91,-368.88"/>
<text text-anchor="middle" x="69.88" y="-355.38" font-family="Helvetica,sans-Serif" font-size="10.00">setUp</text>
</a>
</g>
</g>
<!-- Node2&#45;&gt;Node9 -->
<g id="edge24_Node000002_Node000009" class="edge">
<title>Node2&#45;&gt;Node9</title>
<g id="a_edge24_Node000002_Node000009"><a xlink:title=" ">
<path fill="none" stroke="#63b8ff" d="M548.16,-228.31C531.66,-253.26 503.2,-290.96 469.5,-313.25 346.33,-394.74 153.79,-372.81 91.24,-362.86"/>
<polygon fill="#63b8ff" stroke="#63b8ff" points="550.99,-230.37 553.46,-220.07 545.11,-226.58 550.99,-230.37"/>
</a>
</g>
</g>
<!-- Node12 -->
<g id="Node000012" class="node">
<title>Node12</title>
<g id="a_Node000012"><a xlink:href="classfabomatic_1_1_fab_backend.xhtml#a044a94e7220ee295bfab801b6ca32e32" target="_top" xlink:title=" ">
<polygon fill="white" stroke="#666666" points="468.75,-218.5 350.75,-218.5 350.75,-188 468.75,-188 468.75,-218.5"/>
<text text-anchor="start" x="358.75" y="-205" font-family="Helvetica,sans-Serif" font-size="10.00">fabomatic::FabBackend</text>
<text text-anchor="middle" x="409.75" y="-193.75" font-family="Helvetica,sans-Serif" font-size="10.00">::saveBuffer</text>
</a>
</g>
</g>
<!-- Node2&#45;&gt;Node12 -->
<g id="edge12_Node000002_Node000012" class="edge">
<title>Node2&#45;&gt;Node12</title>
<g id="a_edge12_Node000002_Node000012"><a xlink:title=" ">
<path fill="none" stroke="#63b8ff" d="M494.03,-203.25C485.67,-203.25 477.2,-203.25 469.03,-203.25"/>
<polygon fill="#63b8ff" stroke="#63b8ff" points="493.8,-206.75 503.8,-203.25 493.8,-199.75 493.8,-206.75"/>
</a>
</g>
</g>
<!-- Node17 -->
<g id="Node000017" class="node">
<title>Node17</title>
<g id="a_Node000017"><a xlink:href="classfabomatic_1_1_auth_provider.xhtml#acb92a9381bc8e14bd57b819fc9162750" target="_top" xlink:title="Saves the cache of RFID to EEPROM.">
<polygon fill="white" stroke="#666666" points="469.5,-120.5 350,-120.5 350,-90 469.5,-90 469.5,-120.5"/>
<text text-anchor="start" x="358" y="-107" font-family="Helvetica,sans-Serif" font-size="10.00">fabomatic::AuthProvider</text>
<text text-anchor="middle" x="409.75" y="-95.75" font-family="Helvetica,sans-Serif" font-size="10.00">::saveCache</text>
</a>
</g>
</g>
<!-- Node2&#45;&gt;Node17 -->
<g id="edge18_Node000002_Node000017" class="edge">
<title>Node2&#45;&gt;Node17</title>
<g id="a_edge18_Node000002_Node000017"><a xlink:title=" ">
<path fill="none" stroke="#63b8ff" d="M531.46,-181.16C513.42,-168.88 490.37,-153.45 469.5,-140.25 459.26,-133.78 447.86,-126.91 437.84,-120.98"/>
<polygon fill="#63b8ff" stroke="#63b8ff" points="529.45,-184.03 539.68,-186.78 533.4,-178.25 529.45,-184.03"/>
</a>
</g>
</g>
<!-- Node18 -->
<g id="Node000018" class="node">
<title>Node18</title>
<g id="a_Node000018"><a xlink:href="namespacefabomatic_1_1tests.xhtml#a438b9060c27d36e89506199205b342cb" target="_top" xlink:title=" ">
<polygon fill="white" stroke="#666666" points="297.88,-120.5 191.88,-120.5 191.88,-90 297.88,-90 297.88,-120.5"/>
<text text-anchor="start" x="199.88" y="-107" font-family="Helvetica,sans-Serif" font-size="10.00">fabomatic::tests::test</text>
<text text-anchor="middle" x="244.88" y="-95.75" font-family="Helvetica,sans-Serif" font-size="10.00">_fabserver_calls</text>
</a>
</g>
</g>
<!-- Node2&#45;&gt;Node18 -->
<g id="edge27_Node000002_Node000018" class="edge">
<title>Node2&#45;&gt;Node18</title>
<g id="a_edge27_Node000002_Node000018"><a xlink:title=" ">
<path fill="none" stroke="#63b8ff" d="M501.67,-184.17C441.94,-165.74 352.53,-138.16 296.78,-120.96"/>
<polygon fill="#63b8ff" stroke="#63b8ff" points="500.43,-187.45 511.02,-187.06 502.5,-180.77 500.43,-187.45"/>
</a>
</g>
</g>
<!-- Node19 -->
<g id="Node000019" class="node">
<title>Node19</title>
<g id="a_Node000019"><a xlink:href="namespacefabomatic_1_1tests.xhtml#aeb3e51f6d2841cd2869df4c0629f694d" target="_top" xlink:title=" ">
<polygon fill="white" stroke="#666666" points="297.88,-71.5 191.88,-71.5 191.88,-41 297.88,-41 297.88,-71.5"/>
<text text-anchor="start" x="199.88" y="-58" font-family="Helvetica,sans-Serif" font-size="10.00">fabomatic::tests::test</text>
<text text-anchor="middle" x="244.88" y="-46.75" font-family="Helvetica,sans-Serif" font-size="10.00">_rfid_cache</text>
</a>
</g>
</g>
<!-- Node2&#45;&gt;Node19 -->
<g id="edge28_Node000002_Node000019" class="edge">
<title>Node2&#45;&gt;Node19</title>
<g id="a_edge28_Node000002_Node000019"><a xlink:title=" ">
<path fill="none" stroke="#63b8ff" d="M551.58,-177.51C536.75,-148.72 508.55,-103.24 469.5,-81.25 416.74,-51.54 345.89,-48.64 298.2,-50.98"/>
<polygon fill="#63b8ff" stroke="#63b8ff" points="548.35,-178.89 555.93,-186.29 554.63,-175.78 548.35,-178.89"/>
</a>
</g>
</g>
<!-- Node21 -->
<g id="Node000021" class="node">
<title>Node21</title>
<g id="a_Node000021"><a xlink:href="namespacefabomatic_1_1tests.xhtml#a6af06470faa8c9455927dad653cba48a" target="_top" xlink:title=" ">
<polygon fill="white" stroke="#666666" points="462.75,-30.5 356.75,-30.5 356.75,0 462.75,0 462.75,-30.5"/>
<text text-anchor="start" x="364.75" y="-17" font-family="Helvetica,sans-Serif" font-size="10.00">fabomatic::tests::test</text>
<text text-anchor="middle" x="409.75" y="-5.75" font-family="Helvetica,sans-Serif" font-size="10.00">_defaults</text>
</a>
</g>
</g>
<!-- Node2&#45;&gt;Node21 -->
<g id="edge25_Node000002_Node000021" class="edge">
<title>Node2&#45;&gt;Node21</title>
<g id="a_edge25_Node000002_Node000021"><a xlink:title=" ">
<path fill="none" stroke="#63b8ff" d="M553.05,-177.37C538.48,-143.89 509.31,-85.36 469.5,-47.25 462.87,-40.9 454.74,-35.43 446.66,-30.89"/>
<polygon fill="#63b8ff" stroke="#63b8ff" points="549.71,-178.46 556.84,-186.3 556.16,-175.73 549.71,-178.46"/>
</a>
</g>
</g>
<!-- Node4 -->
<g id="Node000004" class="node">
<title>Node4</title>
<g id="a_Node000004"><a xlink:href="namespacefabomatic.xhtml#a8374c0d1cef777c26dc13b4abc9c52b6" target="_top" xlink:title="Open the ArduinoOTA configuration portal.">
<polygon fill="white" stroke="#666666" points="313.25,-466.88 176.5,-466.88 176.5,-447.62 313.25,-447.62 313.25,-466.88"/>
<text text-anchor="middle" x="244.88" y="-453.38" font-family="Helvetica,sans-Serif" font-size="10.00">fabomatic::openConfigPortal</text>
</a>
</g>
</g>
<!-- Node3&#45;&gt;Node4 -->
<g id="edge3_Node000003_Node000004" class="edge">
<title>Node3&#45;&gt;Node4</title>
<g id="a_edge3_Node000003_Node000004"><a xlink:title=" ">
<path fill="none" stroke="#63b8ff" d="M346.25,-457.25C335.54,-457.25 324.36,-457.25 313.51,-457.25"/>
<polygon fill="#63b8ff" stroke="#63b8ff" points="346.15,-460.75 356.15,-457.25 346.15,-453.75 346.15,-460.75"/>
</a>
</g>
</g>
<!-- Node4&#45;&gt;Node5 -->
<g id="edge4_Node000004_Node000005" class="edge">
<title>Node4&#45;&gt;Node5</title>
<g id="a_edge4_Node000004_Node000005"><a xlink:title=" ">
<path fill="none" stroke="#63b8ff" d="M186.91,-444.74C153.43,-437.38 113.25,-428.56 90.03,-423.46"/>
<polygon fill="#63b8ff" stroke="#63b8ff" points="185.97,-448.11 196.49,-446.84 187.47,-441.28 185.97,-448.11"/>
</a>
</g>
</g>
<!-- Node6 -->
<g id="Node000006" class="node">
<title>Node6</title>
<g id="a_Node000006"><a xlink:href="namespacefabomatic.xhtml#a2c7ad2690e92eb8ab98b6fadaa4df2bd" target="_top" xlink:title=" ">
<polygon fill="white" stroke="#666666" points="139.75,-466.88 0,-466.88 0,-447.62 139.75,-447.62 139.75,-466.88"/>
<text text-anchor="middle" x="69.88" y="-453.38" font-family="Helvetica,sans-Serif" font-size="10.00">fabomatic::taskFactoryReset</text>
</a>
</g>
</g>
<!-- Node4&#45;&gt;Node6 -->
<g id="edge5_Node000004_Node000006" class="edge">
<title>Node4&#45;&gt;Node6</title>
<g id="a_edge5_Node000004_Node000006"><a xlink:title=" ">
<path fill="none" stroke="#63b8ff" d="M165.17,-457.25C156.79,-457.25 148.32,-457.25 140.07,-457.25"/>
<polygon fill="#63b8ff" stroke="#63b8ff" points="164.98,-460.75 174.98,-457.25 164.98,-453.75 164.98,-460.75"/>
</a>
</g>
</g>
<!-- Node8 -->
<g id="Node000008" class="node">
<title>Node8</title>
<g id="a_Node000008"><a xlink:href="classfabomatic_1_1_board_logic.xhtml#ab027de5833962ba124d3ee54ce698ea7" target="_top" xlink:title="Configures the board with the given references.">
<polygon fill="white" stroke="#666666" points="301.25,-353.5 188.5,-353.5 188.5,-323 301.25,-323 301.25,-353.5"/>
<text text-anchor="start" x="196.5" y="-340" font-family="Helvetica,sans-Serif" font-size="10.00">fabomatic::BoardLogic</text>
<text text-anchor="middle" x="244.88" y="-328.75" font-family="Helvetica,sans-Serif" font-size="10.00">::configure</text>
</a>
</g>
</g>
<!-- Node7&#45;&gt;Node8 -->
<g id="edge7_Node000007_Node000008" class="edge">
<title>Node7&#45;&gt;Node8</title>
<g id="a_edge7_Node000007_Node000008"><a xlink:title=" ">
<path fill="none" stroke="#63b8ff" d="M346.02,-308.12C330.22,-312.87 313.43,-317.93 298.2,-322.51"/>
<polygon fill="#63b8ff" stroke="#63b8ff" points="346.75,-311.56 355.32,-305.32 344.73,-304.85 346.75,-311.56"/>
</a>
</g>
</g>
<!-- Node10 -->
<g id="Node000010" class="node">
<title>Node10</title>
<g id="a_Node000010"><a xlink:href="namespacefabomatic_1_1tests.xhtml#aec03a7ee459718d314b930fdd75d3cee" target="_top" xlink:title=" ">
<polygon fill="white" stroke="#666666" points="297.88,-304.5 191.88,-304.5 191.88,-274 297.88,-274 297.88,-304.5"/>
<text text-anchor="start" x="199.88" y="-291" font-family="Helvetica,sans-Serif" font-size="10.00">fabomatic::tests::test</text>
<text text-anchor="middle" x="244.88" y="-279.75" font-family="Helvetica,sans-Serif" font-size="10.00">_simple_methods</text>
</a>
</g>
</g>
<!-- Node7&#45;&gt;Node10 -->
<g id="edge10_Node000007_Node000010" class="edge">
<title>Node7&#45;&gt;Node10</title>
<g id="a_edge10_Node000007_Node000010"><a xlink:title=" ">
<path fill="none" stroke="#63b8ff" d="M341.69,-289.25C327.18,-289.25 312.05,-289.25 298.2,-289.25"/>
<polygon fill="#63b8ff" stroke="#63b8ff" points="341.64,-292.75 351.64,-289.25 341.64,-285.75 341.64,-292.75"/>
</a>
</g>
</g>
<!-- Node8&#45;&gt;Node5 -->
<g id="edge8_Node000008_Node000005" class="edge">
<title>Node8&#45;&gt;Node5</title>
<g id="a_edge8_Node000008_Node000005"><a xlink:title=" ">
<path fill="none" stroke="#63b8ff" d="M200.44,-358.59C165.02,-375.17 116.66,-397.81 90.17,-410.21"/>
<polygon fill="#63b8ff" stroke="#63b8ff" points="201.58,-361.92 209.15,-354.51 198.61,-355.58 201.58,-361.92"/>
</a>
</g>
</g>
<!-- Node8&#45;&gt;Node9 -->
<g id="edge9_Node000008_Node000009" class="edge">
<title>Node8&#45;&gt;Node9</title>
<g id="a_edge9_Node000008_Node000009"><a xlink:title=" ">
<path fill="none" stroke="#63b8ff" d="M177.08,-346.36C146.41,-350.08 112.26,-354.23 91.17,-356.79"/>
<polygon fill="#63b8ff" stroke="#63b8ff" points="177.18,-349.87 186.68,-345.19 176.33,-342.92 177.18,-349.87"/>
</a>
</g>
</g>
<!-- Node11 -->
<g id="Node000011" class="node">
<title>Node11</title>
<g id="a_Node000011"><a xlink:href="test__logic_8cpp.xhtml#a4fc01d736fe50cf5b977f755b675f11d" target="_top" xlink:title=" ">
<polygon fill="white" stroke="#666666" points="89.88,-298.88 49.88,-298.88 49.88,-279.62 89.88,-279.62 89.88,-298.88"/>
<text text-anchor="middle" x="69.88" y="-285.38" font-family="Helvetica,sans-Serif" font-size="10.00">setup</text>
</a>
</g>
</g>
<!-- Node10&#45;&gt;Node11 -->
<g id="edge11_Node000010_Node000011" class="edge">
<title>Node10&#45;&gt;Node11</title>
<g id="a_edge11_Node000010_Node000011"><a xlink:title=" ">
<path fill="none" stroke="#63b8ff" d="M180.01,-289.25C148.17,-289.25 111.94,-289.25 90.26,-289.25"/>
<polygon fill="#63b8ff" stroke="#63b8ff" points="179.99,-292.75 189.99,-289.25 179.99,-285.75 179.99,-292.75"/>
</a>
</g>
</g>
<!-- Node13 -->
<g id="Node000013" class="node">
<title>Node13</title>
<g id="a_Node000013"><a xlink:href="namespacefabomatic.xhtml#a77b0a5de55b2f507f610f1d0c5196bc2" target="_top" xlink:title=" ">
<polygon fill="white" stroke="#666666" points="300.88,-255.88 188.88,-255.88 188.88,-236.62 300.88,-236.62 300.88,-255.88"/>
<text text-anchor="middle" x="244.88" y="-242.38" font-family="Helvetica,sans-Serif" font-size="10.00">fabomatic::taskIsAlive</text>
</a>
</g>
</g>
<!-- Node12&#45;&gt;Node13 -->
<g id="edge13_Node000012_Node000013" class="edge">
<title>Node12&#45;&gt;Node13</title>
<g id="a_edge13_Node000012_Node000013"><a xlink:title=" ">
<path fill="none" stroke="#63b8ff" d="M339.37,-221.57C320.39,-226.58 300.52,-231.82 284,-236.19"/>
<polygon fill="#63b8ff" stroke="#63b8ff" points="340.17,-224.98 348.95,-219.04 338.38,-218.21 340.17,-224.98"/>
</a>
</g>
</g>
<!-- Node14 -->
<g id="Node000014" class="node">
<title>Node14</title>
<g id="a_Node000014"><a xlink:href="namespacefabomatic_1_1tests.xhtml#a95c3d2a5cfa25e610ac054894d766f73" target="_top" xlink:title=" ">
<polygon fill="white" stroke="#666666" points="299,-218.5 190.75,-218.5 190.75,-188 299,-188 299,-218.5"/>
<text text-anchor="start" x="198.75" y="-205" font-family="Helvetica,sans-Serif" font-size="10.00">fabomatic::tests::test</text>
<text text-anchor="middle" x="244.88" y="-193.75" font-family="Helvetica,sans-Serif" font-size="10.00">_check_transmission</text>
</a>
</g>
</g>
<!-- Node12&#45;&gt;Node14 -->
<g id="edge14_Node000012_Node000014" class="edge">
<title>Node12&#45;&gt;Node14</title>
<g id="a_edge14_Node000012_Node000014"><a xlink:title=" ">
<path fill="none" stroke="#63b8ff" d="M338.94,-203.25C325.72,-203.25 312.09,-203.25 299.47,-203.25"/>
<polygon fill="#63b8ff" stroke="#63b8ff" points="338.89,-206.75 348.89,-203.25 338.89,-199.75 338.89,-206.75"/>
</a>
</g>
</g>
<!-- Node16 -->
<g id="Node000016" class="node">
<title>Node16</title>
<g id="a_Node000016"><a xlink:href="namespacefabomatic_1_1tests.xhtml#a675dfc88957b4e6871f32187a0da29b2" target="_top" xlink:title=" ">
<polygon fill="white" stroke="#666666" points="314,-169.5 175.75,-169.5 175.75,-139 314,-139 314,-169.5"/>
<text text-anchor="start" x="183.75" y="-156" font-family="Helvetica,sans-Serif" font-size="10.00">fabomatic::tests::test</text>
<text text-anchor="middle" x="244.88" y="-144.75" font-family="Helvetica,sans-Serif" font-size="10.00">_create_buffered_messages</text>
</a>
</g>
</g>
<!-- Node12&#45;&gt;Node16 -->
<g id="edge16_Node000012_Node000016" class="edge">
<title>Node12&#45;&gt;Node16</title>
<g id="a_edge16_Node000012_Node000016"><a xlink:title=" ">
<path fill="none" stroke="#63b8ff" d="M346.02,-184.38C330.22,-179.63 313.43,-174.57 298.2,-169.99"/>
<polygon fill="#63b8ff" stroke="#63b8ff" points="344.73,-187.65 355.32,-187.18 346.75,-180.94 344.73,-187.65"/>
</a>
</g>
</g>
<!-- Node15 -->
<g id="Node000015" class="node">
<title>Node15</title>
<g id="a_Node000015"><a xlink:href="test__mqtt_8cpp.xhtml#a4fc01d736fe50cf5b977f755b675f11d" target="_top" xlink:title=" ">
<polygon fill="white" stroke="#666666" points="89.88,-163.88 49.88,-163.88 49.88,-144.62 89.88,-144.62 89.88,-163.88"/>
<text text-anchor="middle" x="69.88" y="-150.38" font-family="Helvetica,sans-Serif" font-size="10.00">setup</text>
</a>
</g>
</g>
<!-- Node14&#45;&gt;Node15 -->
<g id="edge15_Node000014_Node000015" class="edge">
<title>Node14&#45;&gt;Node15</title>
<g id="a_edge15_Node000014_Node000015"><a xlink:title=" ">
<path fill="none" stroke="#63b8ff" d="M179.51,-185.02C147.69,-176.01 111.58,-165.78 90.04,-159.68"/>
<polygon fill="#63b8ff" stroke="#63b8ff" points="178.53,-188.38 189.1,-187.74 180.43,-181.64 178.53,-188.38"/>
</a>
</g>
</g>
<!-- Node16&#45;&gt;Node15 -->
<g id="edge17_Node000016_Node000015" class="edge">
<title>Node16&#45;&gt;Node15</title>
<g id="a_edge17_Node000016_Node000015"><a xlink:title=" ">
<path fill="none" stroke="#63b8ff" d="M164.2,-154.25C136.67,-154.25 108.21,-154.25 90.08,-154.25"/>
<polygon fill="#63b8ff" stroke="#63b8ff" points="163.99,-157.75 173.99,-154.25 163.99,-150.75 163.99,-157.75"/>
</a>
</g>
</g>
<!-- Node17&#45;&gt;Node18 -->
<g id="edge19_Node000017_Node000018" class="edge">
<title>Node17&#45;&gt;Node18</title>
<g id="a_edge19_Node000017_Node000018"><a xlink:title=" ">
<path fill="none" stroke="#63b8ff" d="M338.66,-105.25C325.05,-105.25 311.02,-105.25 298.11,-105.25"/>
<polygon fill="#63b8ff" stroke="#63b8ff" points="338.43,-108.75 348.43,-105.25 338.43,-101.75 338.43,-108.75"/>
</a>
</g>
</g>
<!-- Node17&#45;&gt;Node19 -->
<g id="edge21_Node000017_Node000019" class="edge">
<title>Node17&#45;&gt;Node19</title>
<g id="a_edge21_Node000017_Node000019"><a xlink:title=" ">
<path fill="none" stroke="#63b8ff" d="M346.02,-86.38C330.22,-81.63 313.43,-76.57 298.2,-71.99"/>
<polygon fill="#63b8ff" stroke="#63b8ff" points="344.73,-89.65 355.32,-89.18 346.75,-82.94 344.73,-89.65"/>
</a>
</g>
</g>
<!-- Node18&#45;&gt;Node15 -->
<g id="edge20_Node000018_Node000015" class="edge">
<title>Node18&#45;&gt;Node15</title>
<g id="a_edge20_Node000018_Node000015"><a xlink:title=" ">
<path fill="none" stroke="#63b8ff" d="M180.42,-123.22C148.49,-132.27 112.03,-142.59 90.26,-148.76"/>
<polygon fill="#63b8ff" stroke="#63b8ff" points="181.38,-126.59 190.04,-120.5 179.47,-119.85 181.38,-126.59"/>
</a>
</g>
</g>
<!-- Node20 -->
<g id="Node000020" class="node">
<title>Node20</title>
<g id="a_Node000020"><a xlink:href="test__savedconfig_8cpp.xhtml#a4fc01d736fe50cf5b977f755b675f11d" target="_top" xlink:title=" ">
<polygon fill="white" stroke="#666666" points="89.88,-44.88 49.88,-44.88 49.88,-25.62 89.88,-25.62 89.88,-44.88"/>
<text text-anchor="middle" x="69.88" y="-31.38" font-family="Helvetica,sans-Serif" font-size="10.00">setup</text>
</a>
</g>
</g>
<!-- Node19&#45;&gt;Node20 -->
<g id="edge22_Node000019_Node000020" class="edge">
<title>Node19&#45;&gt;Node20</title>
<g id="a_edge22_Node000019_Node000020"><a xlink:title=" ">
<path fill="none" stroke="#63b8ff" d="M180.42,-48.55C148.49,-44.67 112.03,-40.25 90.26,-37.6"/>
<polygon fill="#63b8ff" stroke="#63b8ff" points="179.65,-51.98 190,-49.71 180.49,-45.03 179.65,-51.98"/>
</a>
</g>
</g>
<!-- Node21&#45;&gt;Node20 -->
<g id="edge26_Node000021_Node000020" class="edge">
<title>Node21&#45;&gt;Node20</title>
<g id="a_edge26_Node000021_Node000020"><a xlink:title=" ">
<path fill="none" stroke="#63b8ff" d="M345.17,-19.01C266.96,-23.64 138.61,-31.24 90.18,-34.11"/>
<polygon fill="#63b8ff" stroke="#63b8ff" points="345.04,-22.53 354.82,-18.44 344.63,-15.54 345.04,-22.53"/>
</a>
</g>
</g>
</g>
</svg>

<g id="navigator" transform="translate(0 0)" fill="#404254">
  <rect fill="#f2f5e9" fill-opacity="0.5" stroke="#606060" stroke-width=".5" x="0" y="0" width="60" height="60"/>
  <use id="zoomplus" xlink:href="#zoomPlus" x="17" y="9" onmousedown="handleZoom(evt,'in')"/>
  <use id="zoomminus" xlink:href="#zoomMin" x="42" y="9" onmousedown="handleZoom(evt,'out')"/>
  <use id="reset" xlink:href="#resetDef" x="30" y="36" onmousedown="handleReset()"/>
   <use id="arrowup" xlink:href="#arrowUp" x="0" y="0" onmousedown="handlePan(0,-1)"/>
  <use id="arrowright" xlink:href="#arrowRight" x="0" y="0" onmousedown="handlePan(1,0)"/>
  <use id="arrowdown" xlink:href="#arrowDown" x="0" y="0" onmousedown="handlePan(0,1)"/>
  <use id="arrowleft" xlink:href="#arrowLeft" x="0" y="0" onmousedown="handlePan(-1,0)"/>
</g>
<svg viewBox="0 0 15 15" width="100%" height="30px" preserveAspectRatio="xMaxYMin meet">
 <g id="arrow_out" transform="scale(0.3 0.3)">
  <a xlink:href="classfabomatic_1_1_saved_config_a4ada414d31749dcd736a3fec3f759605_icgraph_org.svg" target="_base">
   <rect id="button" ry="5" rx="5" y="6" x="6" height="38" width="38"
        fill="#f2f5e9" fill-opacity="0.5" stroke="#606060" stroke-width="1.0"/>
   <path id="arrow"
     d="M 11.500037,31.436501 C 11.940474,20.09759 22.043105,11.32322 32.158766,21.979434 L 37.068811,17.246167 C 37.068811,17.246167 37.088388,32 37.088388,32 L 22.160133,31.978069 C 22.160133,31.978069 26.997745,27.140456 26.997745,27.140456 C 18.528582,18.264221 13.291696,25.230495 11.500037,31.436501 z"
     style="fill:#404040;"/>
  </a>
 </g>
</svg>

<style type='text/css'>
<![CDATA[
[data-mouse-over-selected='false'] { opacity: 0.7; }
[data-mouse-over-selected='true']  { opacity: 1.0; }
]]>
</style>
<script type="application/ecmascript"><![CDATA[
document.addEventListener('DOMContentLoaded', (event) => {
  highlightEdges();
  highlightAdjacentNodes();
});
]]></script>
</svg>
