<?xml version="1.0" encoding="UTF-8" standalone="no"?>
<!DOCTYPE svg PUBLIC "-//W3C//DTD SVG 1.1//EN"
 "http://www.w3.org/Graphics/SVG/1.1/DTD/svg11.dtd">
<!-- Generated by graphviz version 9.0.0 (20230911.1827)
 -->
<!-- Title: fabomatic::FabBackend Pages: 1 -->
<svg width="358pt" height="1165pt"
 viewBox="0.00 0.00 358.25 1165.00" xmlns="http://www.w3.org/2000/svg" xmlns:xlink="http://www.w3.org/1999/xlink">
<g id="graph0" class="graph" transform="scale(1 1) rotate(0) translate(4 1161)">
<title>fabomatic::FabBackend</title>
<!-- Node1 -->
<g id="Node000001" class="node">
<title>Node1</title>
<g id="a_Node000001"><a xlink:title="This class is used to exchange messages with the MQTT broker and the backend.">
<polygon fill="#999999" stroke="none" points="287,-409 175,-409 175,0 287,0 287,-409"/>
<text text-anchor="start" x="180" y="-395.5" font-family="Helvetica,sans-Serif" font-size="10.00">fabomatic::FabBackend</text>
<text text-anchor="start" x="180.5" y="-380.5" font-family="Helvetica,sans-Serif" font-size="10.00">&#45;</text>
<text text-anchor="start" x="189" y="-380.5" font-family="Helvetica,sans-Serif" font-size="10.00">client</text>
<text text-anchor="start" x="180.5" y="-365.5" font-family="Helvetica,sans-Serif" font-size="10.00">&#45;</text>
<text text-anchor="start" x="189" y="-365.5" font-family="Helvetica,sans-Serif" font-size="10.00">doc</text>
<text text-anchor="start" x="180.5" y="-350.5" font-family="Helvetica,sans-Serif" font-size="10.00">&#45;</text>
<text text-anchor="start" x="189" y="-350.5" font-family="Helvetica,sans-Serif" font-size="10.00">callback</text>
<text text-anchor="start" x="180.5" y="-335.5" font-family="Helvetica,sans-Serif" font-size="10.00">&#45;</text>
<text text-anchor="start" x="189" y="-335.5" font-family="Helvetica,sans-Serif" font-size="10.00">wifi_client</text>
<text text-anchor="start" x="180.5" y="-320.5" font-family="Helvetica,sans-Serif" font-size="10.00">&#45;</text>
<text text-anchor="start" x="189" y="-320.5" font-family="Helvetica,sans-Serif" font-size="10.00">online</text>
<text text-anchor="start" x="180.5" y="-305.5" font-family="Helvetica,sans-Serif" font-size="10.00">&#45;</text>
<text text-anchor="start" x="189" y="-305.5" font-family="Helvetica,sans-Serif" font-size="10.00">answer_pending</text>
<text text-anchor="start" x="180.5" y="-290.5" font-family="Helvetica,sans-Serif" font-size="10.00">&#45;</text>
<text text-anchor="start" x="189" y="-290.5" font-family="Helvetica,sans-Serif" font-size="10.00">channel</text>
<text text-anchor="start" x="180.5" y="-275.5" font-family="Helvetica,sans-Serif" font-size="10.00">&#45;</text>
<text text-anchor="start" x="189" y="-275.5" font-family="Helvetica,sans-Serif" font-size="10.00">MAX_MSG_SIZE</text>
<text text-anchor="start" x="179" y="-260.5" font-family="Helvetica,sans-Serif" font-size="10.00">+</text>
<text text-anchor="start" x="189" y="-260.5" font-family="Helvetica,sans-Serif" font-size="10.00">FabBackend()</text>
<text text-anchor="start" x="179" y="-245.5" font-family="Helvetica,sans-Serif" font-size="10.00">+</text>
<text text-anchor="start" x="189" y="-245.5" font-family="Helvetica,sans-Serif" font-size="10.00">checkCard()</text>
<text text-anchor="start" x="179" y="-230.5" font-family="Helvetica,sans-Serif" font-size="10.00">+</text>
<text text-anchor="start" x="189" y="-230.5" font-family="Helvetica,sans-Serif" font-size="10.00">checkMachine()</text>
<text text-anchor="start" x="179" y="-215.5" font-family="Helvetica,sans-Serif" font-size="10.00">+</text>
<text text-anchor="start" x="189" y="-215.5" font-family="Helvetica,sans-Serif" font-size="10.00">startUse()</text>
<text text-anchor="start" x="179" y="-200.5" font-family="Helvetica,sans-Serif" font-size="10.00">+</text>
<text text-anchor="start" x="189" y="-200.5" font-family="Helvetica,sans-Serif" font-size="10.00">inUse()</text>
<text text-anchor="start" x="179" y="-185.5" font-family="Helvetica,sans-Serif" font-size="10.00">+</text>
<text text-anchor="start" x="189" y="-185.5" font-family="Helvetica,sans-Serif" font-size="10.00">finishUse()</text>
<text text-anchor="start" x="179" y="-170.5" font-family="Helvetica,sans-Serif" font-size="10.00">+</text>
<text text-anchor="start" x="189" y="-170.5" font-family="Helvetica,sans-Serif" font-size="10.00">registerMaintenance()</text>
<text text-anchor="start" x="179" y="-155.5" font-family="Helvetica,sans-Serif" font-size="10.00">+</text>
<text text-anchor="start" x="189" y="-155.5" font-family="Helvetica,sans-Serif" font-size="10.00">alive()</text>
<text text-anchor="start" x="179" y="-140.5" font-family="Helvetica,sans-Serif" font-size="10.00">+</text>
<text text-anchor="start" x="189" y="-140.5" font-family="Helvetica,sans-Serif" font-size="10.00">publish()</text>
<text text-anchor="start" x="179" y="-125.5" font-family="Helvetica,sans-Serif" font-size="10.00">+</text>
<text text-anchor="start" x="189" y="-125.5" font-family="Helvetica,sans-Serif" font-size="10.00">isOnline()</text>
<text text-anchor="start" x="189" y="-110.5" font-family="Helvetica,sans-Serif" font-size="10.00">and 15 more...</text>
<text text-anchor="start" x="180.5" y="-95.5" font-family="Helvetica,sans-Serif" font-size="10.00">&#45;</text>
<text text-anchor="start" x="189" y="-95.5" font-family="Helvetica,sans-Serif" font-size="10.00">messageReceived()</text>
<text text-anchor="start" x="180.5" y="-80.5" font-family="Helvetica,sans-Serif" font-size="10.00">&#45;</text>
<text text-anchor="start" x="189" y="-80.5" font-family="Helvetica,sans-Serif" font-size="10.00">publish()</text>
<text text-anchor="start" x="180.5" y="-65.5" font-family="Helvetica,sans-Serif" font-size="10.00">&#45;</text>
<text text-anchor="start" x="189" y="-65.5" font-family="Helvetica,sans-Serif" font-size="10.00">waitForAnswer()</text>
<text text-anchor="start" x="180.5" y="-50.5" font-family="Helvetica,sans-Serif" font-size="10.00">&#45;</text>
<text text-anchor="start" x="189" y="-50.5" font-family="Helvetica,sans-Serif" font-size="10.00">publishWithReply()</text>
<text text-anchor="start" x="180.5" y="-35.5" font-family="Helvetica,sans-Serif" font-size="10.00">&#45;</text>
<text text-anchor="start" x="189" y="-35.5" font-family="Helvetica,sans-Serif" font-size="10.00">processQuery()</text>
<text text-anchor="start" x="180.5" y="-20.5" font-family="Helvetica,sans-Serif" font-size="10.00">&#45;</text>
<text text-anchor="start" x="189" y="-20.5" font-family="Helvetica,sans-Serif" font-size="10.00">processQuery()</text>
<text text-anchor="start" x="180.5" y="-5.5" font-family="Helvetica,sans-Serif" font-size="10.00">&#45;</text>
<text text-anchor="start" x="189" y="-5.5" font-family="Helvetica,sans-Serif" font-size="10.00">loadBuffer()</text>
<polygon fill="#666666" stroke="#666666" points="175,-392 175,-392 287,-392 287,-392 175,-392"/>
<polygon fill="#666666" stroke="#666666" points="175,-272 175,-272 187,-272 187,-272 175,-272"/>
<polygon fill="#666666" stroke="#666666" points="187,-272 187,-272 287,-272 287,-272 187,-272"/>
<polygon fill="none" stroke="#666666" points="175,0 175,-409 287,-409 287,0 175,0"/>
</a>
</g>
</g>
<!-- Node2 -->
<g id="Node000002" class="node">
<title>Node2</title>
<g id="a_Node000002"><a xlink:title=" ">
<polygon fill="white" stroke="none" points="252,-1060 200,-1060 200,-1011 252,-1011 252,-1060"/>
<text text-anchor="start" x="205" y="-1046.5" font-family="Helvetica,sans-Serif" font-size="10.00">std::string</text>
<text text-anchor="start" x="224.5" y="-1031.5" font-family="Helvetica,sans-Serif" font-size="10.00"> </text>
<text text-anchor="start" x="224.5" y="-1016.5" font-family="Helvetica,sans-Serif" font-size="10.00"> </text>
<polygon fill="#666666" stroke="#666666" points="200,-1043 200,-1043 252,-1043 252,-1043 200,-1043"/>
<polygon fill="#666666" stroke="#666666" points="200,-1028 200,-1028 252,-1028 252,-1028 200,-1028"/>
<polygon fill="none" stroke="#666666" points="200,-1011 200,-1060 252,-1060 252,-1011 200,-1011"/>
</a>
</g>
</g>
<!-- Node2&#45;&gt;Node1 -->
<g id="edge1_Node000001_Node000002" class="edge">
<title>Node2&#45;&gt;Node1</title>
<g id="a_edge1_Node000001_Node000002"><a xlink:title=" ">
<path fill="none" stroke="#63b8ff" d="M245.8,-1011.06C249.72,-1005.43 253.41,-999.24 256,-993 270.92,-957.03 270,-945.44 270,-906.5 270,-906.5 270,-906.5 270,-547.25 270,-506.53 267.23,-463.25 263.17,-421.66"/>
<polygon fill="none" stroke="#63b8ff" points="263.17,-421.66 258.59,-416.09 261.96,-409.72 266.55,-415.28 263.17,-421.66"/>
</a>
</g>
<text text-anchor="middle" x="310.12" y="-801.75" font-family="Helvetica,sans-Serif" font-size="10.00" fill="grey"> &#45;broker_hostname</text>
<text text-anchor="middle" x="310.12" y="-790.5" font-family="Helvetica,sans-Serif" font-size="10.00" fill="grey">&#45;last_query</text>
<text text-anchor="middle" x="310.12" y="-779.25" font-family="Helvetica,sans-Serif" font-size="10.00" fill="grey">&#45;last_reply</text>
<text text-anchor="middle" x="310.12" y="-768" font-family="Helvetica,sans-Serif" font-size="10.00" fill="grey">&#45;mqtt_client_name</text>
<text text-anchor="middle" x="310.12" y="-756.75" font-family="Helvetica,sans-Serif" font-size="10.00" fill="grey">&#45;mqtt_password</text>
<text text-anchor="middle" x="310.12" y="-745.5" font-family="Helvetica,sans-Serif" font-size="10.00" fill="grey">&#45;mqtt_user</text>
<text text-anchor="middle" x="310.12" y="-734.25" font-family="Helvetica,sans-Serif" font-size="10.00" fill="grey">&#45;response_topic</text>
<text text-anchor="middle" x="310.12" y="-723" font-family="Helvetica,sans-Serif" font-size="10.00" fill="grey">&#45;topic</text>
<text text-anchor="middle" x="310.12" y="-711.75" font-family="Helvetica,sans-Serif" font-size="10.00" fill="grey">&#45;wifi_password</text>
<text text-anchor="middle" x="310.12" y="-700.5" font-family="Helvetica,sans-Serif" font-size="10.00" fill="grey">&#45;wifi_ssid</text>
<text text-anchor="middle" x="310.12" y="-689.25" font-family="Helvetica,sans-Serif" font-size="10.00" fill="grey">...</text>
</g>
<!-- Node6 -->
<g id="Node000006" class="node">
<title>Node6</title>
<g id="a_Node000006"><a xlink:href="structfabomatic_1_1_buffered_msg.xhtml" target="_top" xlink:title="Message that can be saved in Flash for future replay.">
<polygon fill="white" stroke="none" points="238,-952.5 126,-952.5 126,-858.5 238,-858.5 238,-952.5"/>
<text text-anchor="start" x="131" y="-939" font-family="Helvetica,sans-Serif" font-size="10.00">fabomatic::BufferedMsg</text>
<text text-anchor="start" x="135.5" y="-924" font-family="Helvetica,sans-Serif" font-size="10.00">+</text>
<text text-anchor="start" x="151" y="-924" font-family="Helvetica,sans-Serif" font-size="10.00">wait_for_answer</text>
<text text-anchor="start" x="135.5" y="-909" font-family="Helvetica,sans-Serif" font-size="10.00">+</text>
<text text-anchor="start" x="151" y="-909" font-family="Helvetica,sans-Serif" font-size="10.00">BufferedMsg()</text>
<text text-anchor="start" x="135.5" y="-894" font-family="Helvetica,sans-Serif" font-size="10.00">+</text>
<text text-anchor="start" x="151" y="-894" font-family="Helvetica,sans-Serif" font-size="10.00">BufferedMsg()</text>
<text text-anchor="start" x="135.5" y="-879" font-family="Helvetica,sans-Serif" font-size="10.00">+</text>
<text text-anchor="start" x="151" y="-879" font-family="Helvetica,sans-Serif" font-size="10.00">BufferedMsg()</text>
<text text-anchor="start" x="135.5" y="-864" font-family="Helvetica,sans-Serif" font-size="10.00">+</text>
<text text-anchor="start" x="151" y="-864" font-family="Helvetica,sans-Serif" font-size="10.00">BufferedMsg()</text>
<polygon fill="#666666" stroke="#666666" points="126,-935.5 126,-935.5 238,-935.5 238,-935.5 126,-935.5"/>
<polygon fill="#666666" stroke="#666666" points="126,-920.5 126,-920.5 149,-920.5 149,-920.5 126,-920.5"/>
<polygon fill="#666666" stroke="#666666" points="149,-920.5 149,-920.5 238,-920.5 238,-920.5 149,-920.5"/>
<polygon fill="none" stroke="#666666" points="126,-858.5 126,-952.5 238,-952.5 238,-858.5 126,-858.5"/>
</a>
</g>
</g>
<!-- Node2&#45;&gt;Node6 -->
<g id="edge6_Node000006_Node000002" class="edge">
<title>Node2&#45;&gt;Node6</title>
<g id="a_edge6_Node000006_Node000002"><a xlink:title=" ">
<path fill="none" stroke="#63b8ff" d="M200.04,-1015.56C193.32,-1009.21 186.94,-1001.55 183.25,-993 179.53,-984.37 177.55,-974.8 176.69,-965.25"/>
<polygon fill="none" stroke="#63b8ff" points="176.69,-965.23 172.44,-959.41 176.18,-953.24 180.43,-959.07 176.69,-965.23"/>
</a>
</g>
<text text-anchor="middle" x="219.38" y="-983.5" font-family="Helvetica,sans-Serif" font-size="10.00" fill="grey"> +mqtt_message</text>
<text text-anchor="middle" x="219.38" y="-972.25" font-family="Helvetica,sans-Serif" font-size="10.00" fill="grey">+mqtt_topic</text>
</g>
<!-- Node3 -->
<g id="Node000003" class="node">
<title>Node3</title>
<g id="a_Node000003"><a xlink:title=" ">
<polygon fill="white" stroke="none" points="269,-1157 183,-1157 183,-1097 269,-1097 269,-1157"/>
<text text-anchor="start" x="187.75" y="-1143.5" font-family="Helvetica,sans-Serif" font-size="10.00">std::basic_string&lt;</text>
<text text-anchor="start" x="210.62" y="-1132.25" font-family="Helvetica,sans-Serif" font-size="10.00"> Char &gt;</text>
<text text-anchor="start" x="224.5" y="-1117.5" font-family="Helvetica,sans-Serif" font-size="10.00"> </text>
<text text-anchor="start" x="224.5" y="-1102.5" font-family="Helvetica,sans-Serif" font-size="10.00"> </text>
<polygon fill="#666666" stroke="#666666" points="183,-1129 183,-1129 269,-1129 269,-1129 183,-1129"/>
<polygon fill="#666666" stroke="#666666" points="183,-1114 183,-1114 269,-1114 269,-1114 183,-1114"/>
<polygon fill="none" stroke="#666666" points="183,-1097 183,-1157 269,-1157 269,-1097 183,-1097"/>
</a>
</g>
</g>
<!-- Node3&#45;&gt;Node2 -->
<g id="edge2_Node000002_Node000003" class="edge">
<title>Node3&#45;&gt;Node2</title>
<g id="a_edge2_Node000002_Node000003"><a xlink:title=" ">
<path fill="none" stroke="#63b8ff" d="M226,-1085.79C226,-1076.92 226,-1067.82 226,-1059.88"/>
<polygon fill="none" stroke="#63b8ff" points="222.5,-1085.68 226,-1095.68 229.5,-1085.68 222.5,-1085.68"/>
</a>
</g>
</g>
<!-- Node4 -->
<g id="Node000004" class="node">
<title>Node4</title>
<g id="a_Node000004"><a xlink:href="classfabomatic_1_1_buffer.xhtml" target="_top" xlink:title="Class containing the buffered messages for future replay.">
<polygon fill="white" stroke="none" points="238.5,-640.25 139.5,-640.25 139.5,-456.25 238.5,-456.25 238.5,-640.25"/>
<text text-anchor="start" x="152.62" y="-626.75" font-family="Helvetica,sans-Serif" font-size="10.00">fabomatic::Buffer</text>
<text text-anchor="start" x="143.5" y="-611.75" font-family="Helvetica,sans-Serif" font-size="10.00">+</text>
<text text-anchor="start" x="153.5" y="-611.75" font-family="Helvetica,sans-Serif" font-size="10.00">MAX_MESSAGES</text>
<text text-anchor="start" x="145" y="-596.75" font-family="Helvetica,sans-Serif" font-size="10.00">&#45;</text>
<text text-anchor="start" x="153.5" y="-596.75" font-family="Helvetica,sans-Serif" font-size="10.00">has_changed</text>
<text text-anchor="start" x="145" y="-581.75" font-family="Helvetica,sans-Serif" font-size="10.00">&#45;</text>
<text text-anchor="start" x="153.5" y="-581.75" font-family="Helvetica,sans-Serif" font-size="10.00">MAGIC_NUMBER</text>
<text text-anchor="start" x="143.5" y="-566.75" font-family="Helvetica,sans-Serif" font-size="10.00">+</text>
<text text-anchor="start" x="153.5" y="-566.75" font-family="Helvetica,sans-Serif" font-size="10.00">push_back()</text>
<text text-anchor="start" x="143.5" y="-551.75" font-family="Helvetica,sans-Serif" font-size="10.00">+</text>
<text text-anchor="start" x="153.5" y="-551.75" font-family="Helvetica,sans-Serif" font-size="10.00">push_front()</text>
<text text-anchor="start" x="143.5" y="-536.75" font-family="Helvetica,sans-Serif" font-size="10.00">+</text>
<text text-anchor="start" x="153.5" y="-536.75" font-family="Helvetica,sans-Serif" font-size="10.00">getMessage()</text>
<text text-anchor="start" x="143.5" y="-521.75" font-family="Helvetica,sans-Serif" font-size="10.00">+</text>
<text text-anchor="start" x="153.5" y="-521.75" font-family="Helvetica,sans-Serif" font-size="10.00">count()</text>
<text text-anchor="start" x="143.5" y="-506.75" font-family="Helvetica,sans-Serif" font-size="10.00">+</text>
<text text-anchor="start" x="153.5" y="-506.75" font-family="Helvetica,sans-Serif" font-size="10.00">toJson()</text>
<text text-anchor="start" x="143.5" y="-491.75" font-family="Helvetica,sans-Serif" font-size="10.00">+</text>
<text text-anchor="start" x="153.5" y="-491.75" font-family="Helvetica,sans-Serif" font-size="10.00">hasChanged()</text>
<text text-anchor="start" x="143.5" y="-476.75" font-family="Helvetica,sans-Serif" font-size="10.00">+</text>
<text text-anchor="start" x="153.5" y="-476.75" font-family="Helvetica,sans-Serif" font-size="10.00">setChanged()</text>
<text text-anchor="start" x="143.5" y="-461.75" font-family="Helvetica,sans-Serif" font-size="10.00">+</text>
<text text-anchor="start" x="153.5" y="-461.75" font-family="Helvetica,sans-Serif" font-size="10.00">fromJsonElement()</text>
<polygon fill="#666666" stroke="#666666" points="139.5,-623.25 139.5,-623.25 238.5,-623.25 238.5,-623.25 139.5,-623.25"/>
<polygon fill="#666666" stroke="#666666" points="139.5,-578.25 139.5,-578.25 151.5,-578.25 151.5,-578.25 139.5,-578.25"/>
<polygon fill="#666666" stroke="#666666" points="151.5,-578.25 151.5,-578.25 238.5,-578.25 238.5,-578.25 151.5,-578.25"/>
<polygon fill="none" stroke="#666666" points="139.5,-456.25 139.5,-640.25 238.5,-640.25 238.5,-456.25 139.5,-456.25"/>
</a>
</g>
</g>
<!-- Node4&#45;&gt;Node1 -->
<g id="edge3_Node000001_Node000004" class="edge">
<title>Node4&#45;&gt;Node1</title>
<g id="a_edge3_Node000001_Node000004"><a xlink:title=" ">
<path fill="none" stroke="#63b8ff" d="M200.14,-456.56C201.52,-445.41 202.96,-433.67 204.44,-421.6"/>
<polygon fill="none" stroke="#63b8ff" points="204.43,-421.72 201.19,-415.28 205.89,-409.81 209.13,-416.25 204.43,-421.72"/>
</a>
</g>
<text text-anchor="middle" x="216.62" y="-428.75" font-family="Helvetica,sans-Serif" font-size="10.00" fill="grey"> &#45;buffer</text>
</g>
<!-- Node5 -->
<g id="Node000005" class="node">
<title>Node5</title>
<g id="a_Node000005"><a xlink:title=" ">
<polygon fill="white" stroke="none" points="233.5,-779.38 128.5,-779.38 128.5,-719.38 233.5,-719.38 233.5,-779.38"/>
<text text-anchor="start" x="133.38" y="-765.88" font-family="Helvetica,sans-Serif" font-size="10.00">std::deque&lt; fabomatic</text>
<text text-anchor="start" x="147.25" y="-754.62" font-family="Helvetica,sans-Serif" font-size="10.00">::BufferedMsg &gt;</text>
<text text-anchor="start" x="179.5" y="-739.88" font-family="Helvetica,sans-Serif" font-size="10.00"> </text>
<text text-anchor="start" x="179.5" y="-724.88" font-family="Helvetica,sans-Serif" font-size="10.00"> </text>
<polygon fill="#666666" stroke="#666666" points="128.5,-751.38 128.5,-751.38 233.5,-751.38 233.5,-751.38 128.5,-751.38"/>
<polygon fill="#666666" stroke="#666666" points="128.5,-736.38 128.5,-736.38 233.5,-736.38 233.5,-736.38 128.5,-736.38"/>
<polygon fill="none" stroke="#666666" points="128.5,-719.38 128.5,-779.38 233.5,-779.38 233.5,-719.38 128.5,-719.38"/>
</a>
</g>
</g>
<!-- Node5&#45;&gt;Node4 -->
<g id="edge4_Node000004_Node000005" class="edge">
<title>Node5&#45;&gt;Node4</title>
<g id="a_edge4_Node000004_Node000005"><a xlink:title=" ">
<path fill="none" stroke="#63b8ff" d="M182.16,-719.42C182.88,-701.51 183.85,-677.32 184.84,-652.8"/>
<polygon fill="none" stroke="#63b8ff" points="184.84,-652.87 181.08,-646.72 185.32,-640.88 189.07,-647.04 184.84,-652.87"/>
</a>
</g>
<text text-anchor="middle" x="211.75" y="-660" font-family="Helvetica,sans-Serif" font-size="10.00" fill="grey"> &#45;msg_queue</text>
</g>
<!-- Node6&#45;&gt;Node5 -->
<g id="edge5_Node000005_Node000006" class="edge">
<title>Node6&#45;&gt;Node5</title>
<g id="a_edge5_Node000005_Node000006"><a xlink:title=" ">
<path fill="none" stroke="#63b8ff" d="M181.7,-858.67C181.57,-837.57 181.4,-812.69 181.27,-792.11"/>
<polygon fill="none" stroke="#63b8ff" points="181.27,-792.19 177.23,-786.21 181.19,-780.19 185.23,-786.16 181.27,-792.19"/>
</a>
</g>
<text text-anchor="middle" x="205" y="-831" font-family="Helvetica,sans-Serif" font-size="10.00" fill="grey"> +elements</text>
</g>
<!-- Node7 -->
<g id="Node000007" class="node">
<title>Node7</title>
<g id="a_Node000007"><a xlink:title=" ">
<polygon fill="white" stroke="none" points="76,-930 0,-930 0,-881 76,-881 76,-930"/>
<text text-anchor="start" x="4.62" y="-916.5" font-family="Helvetica,sans-Serif" font-size="10.00">std::deque&lt; T &gt;</text>
<text text-anchor="start" x="36.5" y="-901.5" font-family="Helvetica,sans-Serif" font-size="10.00"> </text>
<text text-anchor="start" x="36.5" y="-886.5" font-family="Helvetica,sans-Serif" font-size="10.00"> </text>
<polygon fill="#666666" stroke="#666666" points="0,-913 0,-913 76,-913 76,-913 0,-913"/>
<polygon fill="#666666" stroke="#666666" points="0,-898 0,-898 76,-898 76,-898 0,-898"/>
<polygon fill="none" stroke="#666666" points="0,-881 0,-930 76,-930 76,-881 0,-881"/>
</a>
</g>
</g>
<!-- Node7&#45;&gt;Node5 -->
<g id="edge7_Node000005_Node000007" class="edge">
<title>Node7&#45;&gt;Node5</title>
<g id="a_edge7_Node000005_Node000007"><a xlink:title=" ">
<path fill="none" stroke="orange" d="M40.72,-870.18C43.16,-856.45 47.74,-841.11 56.25,-829.25 74.33,-804.06 103.19,-785.06 128.59,-772.03"/>
<polygon fill="orange" stroke="orange" points="37.3,-869.33 39.34,-879.73 44.23,-870.33 37.3,-869.33"/>
</a>
</g>
<text text-anchor="middle" x="117.38" y="-831" font-family="Helvetica,sans-Serif" font-size="10.00" fill="grey"> &lt; fabomatic::BufferedMsg &gt;</text>
</g>
<!-- Node8 -->
<g id="Node000008" class="node">
<title>Node8</title>
<g id="a_Node000008"><a xlink:title=" ">
<polygon fill="white" stroke="none" points="46,-1060 30,-1060 30,-1011 46,-1011 46,-1060"/>
<text text-anchor="start" x="35" y="-1046.5" font-family="Helvetica,sans-Serif" font-size="10.00">T</text>
<text text-anchor="start" x="36.5" y="-1031.5" font-family="Helvetica,sans-Serif" font-size="10.00"> </text>
<text text-anchor="start" x="36.5" y="-1016.5" font-family="Helvetica,sans-Serif" font-size="10.00"> </text>
<polygon fill="#666666" stroke="#666666" points="30,-1043 30,-1043 46,-1043 46,-1043 30,-1043"/>
<polygon fill="#666666" stroke="#666666" points="30,-1028 30,-1028 46,-1028 46,-1028 30,-1028"/>
<polygon fill="none" stroke="#666666" points="30,-1011 30,-1060 46,-1060 46,-1011 30,-1011"/>
</a>
</g>
</g>
<!-- Node8&#45;&gt;Node7 -->
<g id="edge8_Node000007_Node000008" class="edge">
<title>Node8&#45;&gt;Node7</title>
<g id="a_edge8_Node000007_Node000008"><a xlink:title=" ">
<path fill="none" stroke="#63b8ff" d="M38,-1011.02C38,-991.9 38,-964.57 38,-942.65"/>
<polygon fill="none" stroke="#63b8ff" points="38,-942.73 34,-936.73 38,-930.73 42,-936.73 38,-942.73"/>
</a>
</g>
<text text-anchor="middle" x="62" y="-977.88" font-family="Helvetica,sans-Serif" font-size="10.00" fill="grey"> +elements</text>
</g>
</g>
</svg>
