<?xml version="1.0" encoding="UTF-8" standalone="no"?>
<!DOCTYPE svg PUBLIC "-//W3C//DTD SVG 1.1//EN"
 "http://www.w3.org/Graphics/SVG/1.1/DTD/svg11.dtd">
<!-- Generated by graphviz version 9.0.0 (20230911.1827)
 -->
<!-- Title: fabomatic::BoardLogic::refreshFromServer Pages: 1 -->
<svg width="587pt" height="680pt"
 viewBox="0.00 0.00 587.25 679.50" xmlns="http://www.w3.org/2000/svg" xmlns:xlink="http://www.w3.org/1999/xlink">
<g id="graph0" class="graph" transform="scale(1 1) rotate(0) translate(4 675.5)">
<title>fabomatic::BoardLogic::refreshFromServer</title>
<!-- Node1 -->
<g id="Node000001" class="node">
<title>Node1</title>
<g id="a_Node000001"><a xlink:title="connects and polls the server for up&#45;to&#45;date machine information">
<polygon fill="#999999" stroke="#666666" points="112.75,-422.5 0,-422.5 0,-392 112.75,-392 112.75,-422.5"/>
<text text-anchor="start" x="8" y="-409" font-family="Helvetica,sans-Serif" font-size="10.00">fabomatic::BoardLogic</text>
<text text-anchor="middle" x="56.38" y="-397.75" font-family="Helvetica,sans-Serif" font-size="10.00">::refreshFromServer</text>
</a>
</g>
</g>
<!-- Node2 -->
<g id="Node000002" class="node">
<title>Node2</title>
<g id="a_Node000002"><a xlink:href="classfabomatic_1_1_fab_backend.xhtml#a9b07e09fc8f9e46ec370f0927049d5a7" target="_top" xlink:title="Checks the machine status on the server.">
<polygon fill="white" stroke="#666666" points="269.38,-655.5 151.38,-655.5 151.38,-625 269.38,-625 269.38,-655.5"/>
<text text-anchor="start" x="159.38" y="-642" font-family="Helvetica,sans-Serif" font-size="10.00">fabomatic::FabBackend</text>
<text text-anchor="middle" x="210.38" y="-630.75" font-family="Helvetica,sans-Serif" font-size="10.00">::checkMachine</text>
</a>
</g>
</g>
<!-- Node1&#45;&gt;Node2 -->
<g id="edge1_Node000001_Node000002" class="edge">
<title>Node1&#45;&gt;Node2</title>
<g id="a_edge1_Node000001_Node000002"><a xlink:title=" ">
<path fill="none" stroke="#63b8ff" d="M60.09,-422.83C67.47,-460.8 91.35,-559.15 148.75,-615.25 149.78,-616.26 150.86,-617.23 151.97,-618.16"/>
<polygon fill="#63b8ff" stroke="#63b8ff" points="149.74,-620.86 159.94,-623.73 153.75,-615.13 149.74,-620.86"/>
</a>
</g>
</g>
<!-- Node3 -->
<g id="Node000003" class="node">
<title>Node3</title>
<g id="a_Node000003"><a xlink:href="classfabomatic_1_1_fab_backend.xhtml#a1a45f556aadcbc428d14b7c7577ed43d" target="_top" xlink:title="Establishes a connection to the WiFi network and the MQTT server.">
<polygon fill="white" stroke="#666666" points="269.38,-606.5 151.38,-606.5 151.38,-576 269.38,-576 269.38,-606.5"/>
<text text-anchor="start" x="159.38" y="-593" font-family="Helvetica,sans-Serif" font-size="10.00">fabomatic::FabBackend</text>
<text text-anchor="middle" x="210.38" y="-581.75" font-family="Helvetica,sans-Serif" font-size="10.00">::connect</text>
</a>
</g>
</g>
<!-- Node1&#45;&gt;Node3 -->
<g id="edge2_Node000001_Node000003" class="edge">
<title>Node1&#45;&gt;Node3</title>
<g id="a_edge2_Node000001_Node000003"><a xlink:title=" ">
<path fill="none" stroke="#63b8ff" d="M63,-422.91C74.64,-453.4 104.09,-521.29 148.75,-562.25 151.68,-564.93 154.9,-567.42 158.28,-569.7"/>
<polygon fill="#63b8ff" stroke="#63b8ff" points="156.47,-572.7 166.84,-574.86 160.08,-566.7 156.47,-572.7"/>
</a>
</g>
</g>
<!-- Node8 -->
<g id="Node000008" class="node">
<title>Node8</title>
<g id="a_Node000008"><a xlink:href="classfabomatic_1_1_machine.xhtml#a8bde1bdf40d146c521b623d54e2df1cf" target="_top" xlink:title="Returns the machine identifier.">
<polygon fill="white" stroke="#666666" points="417,-420.5 317,-420.5 317,-390 417,-390 417,-420.5"/>
<text text-anchor="start" x="325" y="-407" font-family="Helvetica,sans-Serif" font-size="10.00">fabomatic::Machine</text>
<text text-anchor="middle" x="367" y="-395.75" font-family="Helvetica,sans-Serif" font-size="10.00">::getMachineId</text>
</a>
</g>
</g>
<!-- Node1&#45;&gt;Node8 -->
<g id="edge9_Node000001_Node000008" class="edge">
<title>Node1&#45;&gt;Node8</title>
<g id="a_edge9_Node000001_Node000008"><a xlink:title=" ">
<path fill="none" stroke="#63b8ff" d="M63.5,-422.91C75.23,-450.45 103.79,-506.75 148.75,-529.25 197.74,-553.76 222.94,-553.62 272,-529.25 293.49,-518.58 330.41,-463.02 351,-430"/>
<polygon fill="#63b8ff" stroke="#63b8ff" points="353.77,-432.19 356.04,-421.84 347.81,-428.51 353.77,-432.19"/>
</a>
</g>
</g>
<!-- Node9 -->
<g id="Node000009" class="node">
<title>Node9</title>
<g id="a_Node000009"><a xlink:href="classfabomatic_1_1_machine.xhtml#addd23c892c39f3c1e26d611059273081" target="_top" xlink:title=" ">
<polygon fill="white" stroke="#666666" points="260.38,-520.5 160.38,-520.5 160.38,-490 260.38,-490 260.38,-520.5"/>
<text text-anchor="start" x="168.38" y="-507" font-family="Helvetica,sans-Serif" font-size="10.00">fabomatic::Machine</text>
<text text-anchor="middle" x="210.38" y="-495.75" font-family="Helvetica,sans-Serif" font-size="10.00">::setAllowed</text>
</a>
</g>
</g>
<!-- Node1&#45;&gt;Node9 -->
<g id="edge10_Node000001_Node000009" class="edge">
<title>Node1&#45;&gt;Node9</title>
<g id="a_edge10_Node000001_Node000009"><a xlink:title=" ">
<path fill="none" stroke="#63b8ff" d="M73.83,-422.79C91.35,-438.75 120.41,-463.55 148.75,-480.25 151.33,-481.77 154.02,-483.24 156.76,-484.66"/>
<polygon fill="#63b8ff" stroke="#63b8ff" points="154.99,-487.69 165.52,-488.88 158.03,-481.38 154.99,-487.69"/>
</a>
</g>
</g>
<!-- Node10 -->
<g id="Node000010" class="node">
<title>Node10</title>
<g id="a_Node000010"><a xlink:href="classfabomatic_1_1_machine.xhtml#ace7ccce1b3fabde562cfc7c5645dd6a3" target="_top" xlink:title="Sets the delay after which the user will be logged off automatically.">
<polygon fill="white" stroke="#666666" points="261.12,-471.5 159.62,-471.5 159.62,-441 261.12,-441 261.12,-471.5"/>
<text text-anchor="start" x="167.62" y="-458" font-family="Helvetica,sans-Serif" font-size="10.00">fabomatic::Machine</text>
<text text-anchor="middle" x="210.38" y="-446.75" font-family="Helvetica,sans-Serif" font-size="10.00">::setAutologoffDelay</text>
</a>
</g>
</g>
<!-- Node1&#45;&gt;Node10 -->
<g id="edge11_Node000001_Node000010" class="edge">
<title>Node1&#45;&gt;Node10</title>
<g id="a_edge11_Node000001_Node000010"><a xlink:title=" ">
<path fill="none" stroke="#63b8ff" d="M105.89,-422.89C119.8,-427.37 135.14,-432.32 149.65,-437"/>
<polygon fill="#63b8ff" stroke="#63b8ff" points="148.51,-440.31 159.1,-440.04 150.66,-433.64 148.51,-440.31"/>
</a>
</g>
</g>
<!-- Node11 -->
<g id="Node000011" class="node">
<title>Node11</title>
<g id="a_Node000011"><a xlink:href="classfabomatic_1_1_machine.xhtml#a30c12cef5abca43d82f7c378430a79b6" target="_top" xlink:title="Sets the idle period after which the machine will power off automatically.">
<polygon fill="white" stroke="#666666" points="260.38,-422.5 160.38,-422.5 160.38,-392 260.38,-392 260.38,-422.5"/>
<text text-anchor="start" x="168.38" y="-409" font-family="Helvetica,sans-Serif" font-size="10.00">fabomatic::Machine</text>
<text text-anchor="middle" x="210.38" y="-397.75" font-family="Helvetica,sans-Serif" font-size="10.00">::setGracePeriod</text>
</a>
</g>
</g>
<!-- Node1&#45;&gt;Node11 -->
<g id="edge12_Node000001_Node000011" class="edge">
<title>Node1&#45;&gt;Node11</title>
<g id="a_edge12_Node000001_Node000011"><a xlink:title=" ">
<path fill="none" stroke="#63b8ff" d="M113.11,-407.25C124.8,-407.25 137.17,-407.25 149.02,-407.25"/>
<polygon fill="#63b8ff" stroke="#63b8ff" points="148.66,-410.75 158.66,-407.25 148.66,-403.75 148.66,-410.75"/>
</a>
</g>
</g>
<!-- Node12 -->
<g id="Node000012" class="node">
<title>Node12</title>
<g id="a_Node000012"><a xlink:href="classfabomatic_1_1_machine.xhtml#ac8513321c0c184312c66087e7104d066" target="_top" xlink:title="Sets the machine name as per backend configuration.">
<polygon fill="white" stroke="#666666" points="260.38,-373.5 160.38,-373.5 160.38,-343 260.38,-343 260.38,-373.5"/>
<text text-anchor="start" x="168.38" y="-360" font-family="Helvetica,sans-Serif" font-size="10.00">fabomatic::Machine</text>
<text text-anchor="middle" x="210.38" y="-348.75" font-family="Helvetica,sans-Serif" font-size="10.00">::setMachineName</text>
</a>
</g>
</g>
<!-- Node1&#45;&gt;Node12 -->
<g id="edge13_Node000001_Node000012" class="edge">
<title>Node1&#45;&gt;Node12</title>
<g id="a_edge13_Node000001_Node000012"><a xlink:title=" ">
<path fill="none" stroke="#63b8ff" d="M105.89,-391.61C119.8,-387.13 135.14,-382.18 149.65,-377.5"/>
<polygon fill="#63b8ff" stroke="#63b8ff" points="150.66,-380.86 159.1,-374.46 148.51,-374.19 150.66,-380.86"/>
</a>
</g>
</g>
<!-- Node13 -->
<g id="Node000013" class="node">
<title>Node13</title>
<g id="a_Node000013"><a xlink:href="classfabomatic_1_1_machine.xhtml#a9d109ed7b9c5e40768bc4edf62377aa8" target="_top" xlink:title="Sets the machine type as per backend configuration.">
<polygon fill="white" stroke="#666666" points="260.38,-324.5 160.38,-324.5 160.38,-294 260.38,-294 260.38,-324.5"/>
<text text-anchor="start" x="168.38" y="-311" font-family="Helvetica,sans-Serif" font-size="10.00">fabomatic::Machine</text>
<text text-anchor="middle" x="210.38" y="-299.75" font-family="Helvetica,sans-Serif" font-size="10.00">::setMachineType</text>
</a>
</g>
</g>
<!-- Node1&#45;&gt;Node13 -->
<g id="edge14_Node000001_Node000013" class="edge">
<title>Node1&#45;&gt;Node13</title>
<g id="a_edge14_Node000001_Node000013"><a xlink:title=" ">
<path fill="none" stroke="#63b8ff" d="M73.83,-391.71C91.35,-375.75 120.41,-350.95 148.75,-334.25 151.33,-332.73 154.02,-331.26 156.76,-329.84"/>
<polygon fill="#63b8ff" stroke="#63b8ff" points="158.03,-333.12 165.52,-325.62 154.99,-326.81 158.03,-333.12"/>
</a>
</g>
</g>
<!-- Node14 -->
<g id="Node000014" class="node">
<title>Node14</title>
<g id="a_Node000014"><a xlink:href="classfabomatic_1_1_machine.xhtml#ab39e2dee601ccaeab1e02cf28a14306b" target="_top" xlink:title=" ">
<polygon fill="white" stroke="#666666" points="263.38,-275.5 157.38,-275.5 157.38,-245 263.38,-245 263.38,-275.5"/>
<text text-anchor="start" x="165.38" y="-262" font-family="Helvetica,sans-Serif" font-size="10.00">fabomatic::Machine</text>
<text text-anchor="middle" x="210.38" y="-250.75" font-family="Helvetica,sans-Serif" font-size="10.00">::setMaintenanceInfo</text>
</a>
</g>
</g>
<!-- Node1&#45;&gt;Node14 -->
<g id="edge15_Node000001_Node000014" class="edge">
<title>Node1&#45;&gt;Node14</title>
<g id="a_edge15_Node000001_Node000014"><a xlink:title=" ">
<path fill="none" stroke="#63b8ff" d="M65.41,-391.64C79.24,-366.15 109.85,-315.41 148.75,-285.25 150.44,-283.94 152.2,-282.69 154.02,-281.5"/>
<polygon fill="#63b8ff" stroke="#63b8ff" points="155.32,-284.79 162.21,-276.75 151.81,-278.74 155.32,-284.79"/>
</a>
</g>
</g>
<!-- Node15 -->
<g id="Node000015" class="node">
<title>Node15</title>
<g id="a_Node000015"><a xlink:href="classfabomatic_1_1_machine.xhtml#a921c78777a6cb9f7fdb9780a8c1aa8c0" target="_top" xlink:title=" ">
<polygon fill="white" stroke="#666666" points="272,-226.5 148.75,-226.5 148.75,-196 272,-196 272,-226.5"/>
<text text-anchor="start" x="156.75" y="-213" font-family="Helvetica,sans-Serif" font-size="10.00">fabomatic::Machine</text>
<text text-anchor="middle" x="210.38" y="-201.75" font-family="Helvetica,sans-Serif" font-size="10.00">::setMaintenanceNeeded</text>
</a>
</g>
</g>
<!-- Node1&#45;&gt;Node15 -->
<g id="edge16_Node000001_Node000015" class="edge">
<title>Node1&#45;&gt;Node15</title>
<g id="a_edge16_Node000001_Node000015"><a xlink:title=" ">
<path fill="none" stroke="#63b8ff" d="M61.79,-391.53C71.84,-358.41 99.46,-280.86 148.75,-236.25 149.99,-235.13 151.29,-234.05 152.63,-233.02"/>
<polygon fill="#63b8ff" stroke="#63b8ff" points="154.34,-236.08 160.8,-227.68 150.51,-230.23 154.34,-236.08"/>
</a>
</g>
</g>
<!-- Node16 -->
<g id="Node000016" class="node">
<title>Node16</title>
<g id="a_Node000016"><a xlink:href="classfabomatic_1_1_machine.xhtml#a39fbf9cad912d735cf84b75c0674646f" target="_top" xlink:title=" ">
<polygon fill="white" stroke="#666666" points="260.38,-177.5 160.38,-177.5 160.38,-147 260.38,-147 260.38,-177.5"/>
<text text-anchor="start" x="168.38" y="-164" font-family="Helvetica,sans-Serif" font-size="10.00">fabomatic::Machine</text>
<text text-anchor="middle" x="210.38" y="-152.75" font-family="Helvetica,sans-Serif" font-size="10.00">::toString</text>
</a>
</g>
</g>
<!-- Node1&#45;&gt;Node16 -->
<g id="edge17_Node000001_Node000016" class="edge">
<title>Node1&#45;&gt;Node16</title>
<g id="a_edge17_Node000001_Node000016"><a xlink:title=" ">
<path fill="none" stroke="#63b8ff" d="M59.66,-391.66C66.24,-352.18 88.72,-247.13 148.75,-187.25 149.77,-186.23 150.84,-185.25 151.95,-184.31"/>
<polygon fill="#63b8ff" stroke="#63b8ff" points="153.73,-187.34 159.87,-178.71 149.68,-181.63 153.73,-187.34"/>
</a>
</g>
</g>
<!-- Node4 -->
<g id="Node000004" class="node">
<title>Node4</title>
<g id="a_Node000004"><a xlink:href="classfabomatic_1_1_fab_backend.xhtml#ad928751b2f967feaac0f2cb708c0d6e9" target="_top" xlink:title="Connects to the WiFi network.">
<polygon fill="white" stroke="#666666" points="426,-671.5 308,-671.5 308,-641 426,-641 426,-671.5"/>
<text text-anchor="start" x="316" y="-658" font-family="Helvetica,sans-Serif" font-size="10.00">fabomatic::FabBackend</text>
<text text-anchor="middle" x="367" y="-646.75" font-family="Helvetica,sans-Serif" font-size="10.00">::connectWiFi</text>
</a>
</g>
</g>
<!-- Node3&#45;&gt;Node4 -->
<g id="edge3_Node000003_Node000004" class="edge">
<title>Node3&#45;&gt;Node4</title>
<g id="a_edge3_Node000003_Node000004"><a xlink:title=" ">
<path fill="none" stroke="#63b8ff" d="M249.56,-606.92C257.01,-610 264.75,-613.21 272,-616.25 287.27,-622.65 303.9,-629.7 318.87,-636.07"/>
<polygon fill="#63b8ff" stroke="#63b8ff" points="317.47,-639.28 328.04,-639.98 320.22,-632.84 317.47,-639.28"/>
</a>
</g>
</g>
<!-- Node5 -->
<g id="Node000005" class="node">
<title>Node5</title>
<g id="a_Node000005"><a xlink:href="namespacefabomatic_1_1_tasks.xhtml#a5c20f560f5934822d39ba116a16f3ab6" target="_top" xlink:title="Wait for a delay, allowing OTA updates.">
<polygon fill="white" stroke="#666666" points="579.25,-643.88 462,-643.88 462,-624.62 579.25,-624.62 579.25,-643.88"/>
<text text-anchor="middle" x="520.62" y="-630.38" font-family="Helvetica,sans-Serif" font-size="10.00">fabomatic::Tasks::delay</text>
</a>
</g>
</g>
<!-- Node3&#45;&gt;Node5 -->
<g id="edge6_Node000003_Node000005" class="edge">
<title>Node3&#45;&gt;Node5</title>
<g id="a_edge6_Node000003_Node000005"><a xlink:title=" ">
<path fill="none" stroke="#63b8ff" d="M269.72,-599.39C321.05,-606.55 395.86,-616.98 450.24,-624.57"/>
<polygon fill="#63b8ff" stroke="#63b8ff" points="449.64,-628.02 460.02,-625.94 450.6,-621.09 449.64,-628.02"/>
</a>
</g>
</g>
<!-- Node6 -->
<g id="Node000006" class="node">
<title>Node6</title>
<g id="a_Node000006"><a xlink:href="classfabomatic_1_1_fab_backend.xhtml#a3ab102598ee93269de90a0170e024619" target="_top" xlink:title="Callback function for received MQTT messages.">
<polygon fill="white" stroke="#666666" points="426,-585.5 308,-585.5 308,-555 426,-555 426,-585.5"/>
<text text-anchor="start" x="316" y="-572" font-family="Helvetica,sans-Serif" font-size="10.00">fabomatic::FabBackend</text>
<text text-anchor="middle" x="367" y="-560.75" font-family="Helvetica,sans-Serif" font-size="10.00">::messageReceived</text>
</a>
</g>
</g>
<!-- Node3&#45;&gt;Node6 -->
<g id="edge7_Node000003_Node000006" class="edge">
<title>Node3&#45;&gt;Node6</title>
<g id="a_edge7_Node000003_Node000006"><a xlink:title=" ">
<path fill="none" stroke="#63b8ff" d="M269.83,-583.31C278.55,-582.13 287.61,-580.9 296.53,-579.68"/>
<polygon fill="#63b8ff" stroke="#63b8ff" points="296.78,-583.18 306.22,-578.37 295.84,-576.25 296.78,-583.18"/>
</a>
</g>
</g>
<!-- Node7 -->
<g id="Node000007" class="node">
<title>Node7</title>
<g id="a_Node000007"><a xlink:href="classfabomatic_1_1_fab_backend.xhtml#aee0cf549bea2daebc3e08742853d36c1" target="_top" xlink:title="Publishes a query on the MQTT server.">
<polygon fill="white" stroke="#666666" points="426,-536.5 308,-536.5 308,-506 426,-506 426,-536.5"/>
<text text-anchor="start" x="316" y="-523" font-family="Helvetica,sans-Serif" font-size="10.00">fabomatic::FabBackend</text>
<text text-anchor="middle" x="367" y="-511.75" font-family="Helvetica,sans-Serif" font-size="10.00">::publish</text>
</a>
</g>
</g>
<!-- Node3&#45;&gt;Node7 -->
<g id="edge8_Node000003_Node000007" class="edge">
<title>Node3&#45;&gt;Node7</title>
<g id="a_edge8_Node000003_Node000007"><a xlink:title=" ">
<path fill="none" stroke="#63b8ff" d="M244.36,-575.6C262.98,-566.84 286.72,-555.79 308,-546.25 311.51,-544.68 315.14,-543.07 318.81,-541.46"/>
<polygon fill="#63b8ff" stroke="#63b8ff" points="319.96,-544.77 327.72,-537.57 317.16,-538.36 319.96,-544.77"/>
</a>
</g>
</g>
<!-- Node4&#45;&gt;Node5 -->
<g id="edge4_Node000004_Node000005" class="edge">
<title>Node4&#45;&gt;Node5</title>
<g id="a_edge4_Node000004_Node000005"><a xlink:title=" ">
<path fill="none" stroke="#63b8ff" d="M426.19,-647.81C434.08,-646.66 442.24,-645.48 450.3,-644.31"/>
<polygon fill="#63b8ff" stroke="#63b8ff" points="450.7,-647.79 460.09,-642.89 449.7,-640.86 450.7,-647.79"/>
</a>
</g>
</g>
<!-- Node5&#45;&gt;Node5 -->
<g id="edge5_Node000005_Node000005" class="edge">
<title>Node5&#45;&gt;Node5</title>
<g id="a_edge5_Node000005_Node000005"><a xlink:title=" ">
<path fill="none" stroke="#63b8ff" d="M496.57,-644.16C485.6,-652.77 493.62,-661.88 520.62,-661.88 535.81,-661.88 545,-658.99 548.17,-654.94"/>
<polygon fill="#63b8ff" stroke="#63b8ff" points="551.56,-654.04 545.14,-645.6 544.9,-656.19 551.56,-654.04"/>
</a>
</g>
</g>
<!-- Node16&#45;&gt;Node8 -->
<g id="edge19_Node000016_Node000008" class="edge">
<title>Node16&#45;&gt;Node8</title>
<g id="a_edge19_Node000016_Node000008"><a xlink:title=" ">
<path fill="none" stroke="#63b8ff" d="M260.81,-177.67C264.98,-180.37 268.81,-183.54 272,-187.25 315.6,-237.9 278.33,-273.36 308,-333.25 316.68,-350.78 330.24,-367.94 342.07,-381.1"/>
<polygon fill="#63b8ff" stroke="#63b8ff" points="339.5,-383.48 348.87,-388.43 344.63,-378.72 339.5,-383.48"/>
</a>
</g>
</g>
<!-- Node17 -->
<g id="Node000017" class="node">
<title>Node17</title>
<g id="a_Node000017"><a xlink:href="classfabomatic_1_1_machine.xhtml#aeee64b0919798272dfe45d40eb2e96be" target="_top" xlink:title=" ">
<polygon fill="white" stroke="#666666" points="417,-324.5 317,-324.5 317,-294 417,-294 417,-324.5"/>
<text text-anchor="start" x="325" y="-311" font-family="Helvetica,sans-Serif" font-size="10.00">fabomatic::Machine</text>
<text text-anchor="middle" x="367" y="-299.75" font-family="Helvetica,sans-Serif" font-size="10.00">::getGracePeriod</text>
</a>
</g>
</g>
<!-- Node16&#45;&gt;Node17 -->
<g id="edge18_Node000016_Node000017" class="edge">
<title>Node16&#45;&gt;Node17</title>
<g id="a_edge18_Node000016_Node000017"><a xlink:title=" ">
<path fill="none" stroke="#63b8ff" d="M260.09,-177.87C264.45,-180.54 268.52,-183.65 272,-187.25 303.93,-220.34 276.33,-250.91 308,-284.25 308.85,-285.14 309.74,-286.01 310.66,-286.84"/>
<polygon fill="#63b8ff" stroke="#63b8ff" points="308.36,-289.49 318.46,-292.68 312.55,-283.89 308.36,-289.49"/>
</a>
</g>
</g>
<!-- Node18 -->
<g id="Node000018" class="node">
<title>Node18</title>
<g id="a_Node000018"><a xlink:href="classfabomatic_1_1_machine.xhtml#a1637e99f2d70262d2ab26f69ed4f0e47" target="_top" xlink:title=" ">
<polygon fill="white" stroke="#666666" points="417,-275.5 317,-275.5 317,-245 417,-245 417,-275.5"/>
<text text-anchor="start" x="325" y="-262" font-family="Helvetica,sans-Serif" font-size="10.00">fabomatic::Machine</text>
<text text-anchor="middle" x="367" y="-250.75" font-family="Helvetica,sans-Serif" font-size="10.00">::getMachineName</text>
</a>
</g>
</g>
<!-- Node16&#45;&gt;Node18 -->
<g id="edge20_Node000016_Node000018" class="edge">
<title>Node16&#45;&gt;Node18</title>
<g id="a_edge20_Node000016_Node000018"><a xlink:title=" ">
<path fill="none" stroke="#63b8ff" d="M257.22,-177.99C262.45,-180.69 267.5,-183.76 272,-187.25 293.08,-203.58 287.05,-218.75 308,-235.25 309.68,-236.57 311.44,-237.84 313.26,-239.05"/>
<polygon fill="#63b8ff" stroke="#63b8ff" points="311.05,-241.81 321.44,-243.88 314.6,-235.78 311.05,-241.81"/>
</a>
</g>
</g>
<!-- Node19 -->
<g id="Node000019" class="node">
<title>Node19</title>
<g id="a_Node000019"><a xlink:href="classfabomatic_1_1_machine.xhtml#a3c5304fd80e0cc1c2118a59c64222d6d" target="_top" xlink:title="Returns the current power state of the machine.">
<polygon fill="white" stroke="#666666" points="417,-226.5 317,-226.5 317,-196 417,-196 417,-226.5"/>
<text text-anchor="start" x="325" y="-213" font-family="Helvetica,sans-Serif" font-size="10.00">fabomatic::Machine</text>
<text text-anchor="middle" x="367" y="-201.75" font-family="Helvetica,sans-Serif" font-size="10.00">::getPowerState</text>
</a>
</g>
</g>
<!-- Node16&#45;&gt;Node19 -->
<g id="edge21_Node000016_Node000019" class="edge">
<title>Node16&#45;&gt;Node19</title>
<g id="a_edge21_Node000016_Node000019"><a xlink:title=" ">
<path fill="none" stroke="#63b8ff" d="M260.72,-177.89C275.09,-182.44 290.95,-187.47 305.9,-192.2"/>
<polygon fill="#63b8ff" stroke="#63b8ff" points="304.56,-195.45 315.15,-195.13 306.67,-188.78 304.56,-195.45"/>
</a>
</g>
</g>
<!-- Node20 -->
<g id="Node000020" class="node">
<title>Node20</title>
<g id="a_Node000020"><a xlink:href="classfabomatic_1_1_machine.xhtml#a9c845a163660550fa779516a8be8681a" target="_top" xlink:title="Duration of the current usage, or 0s.">
<polygon fill="white" stroke="#666666" points="417,-177.5 317,-177.5 317,-147 417,-147 417,-177.5"/>
<text text-anchor="start" x="325" y="-164" font-family="Helvetica,sans-Serif" font-size="10.00">fabomatic::Machine</text>
<text text-anchor="middle" x="367" y="-152.75" font-family="Helvetica,sans-Serif" font-size="10.00">::getUsageDuration</text>
</a>
</g>
</g>
<!-- Node16&#45;&gt;Node20 -->
<g id="edge22_Node000016_Node000020" class="edge">
<title>Node16&#45;&gt;Node20</title>
<g id="a_edge22_Node000016_Node000020"><a xlink:title=" ">
<path fill="none" stroke="#63b8ff" d="M260.72,-162.25C274.95,-162.25 290.64,-162.25 305.46,-162.25"/>
<polygon fill="#63b8ff" stroke="#63b8ff" points="305.08,-165.75 315.08,-162.25 305.08,-158.75 305.08,-165.75"/>
</a>
</g>
</g>
<!-- Node21 -->
<g id="Node000021" class="node">
<title>Node21</title>
<g id="a_Node000021"><a xlink:href="classfabomatic_1_1_machine.xhtml#a74aa0b2cd34205ba57710affc56f5c3c" target="_top" xlink:title="Indicates is the machine is not used by anybody.">
<polygon fill="white" stroke="#666666" points="417,-128.5 317,-128.5 317,-98 417,-98 417,-128.5"/>
<text text-anchor="start" x="325" y="-115" font-family="Helvetica,sans-Serif" font-size="10.00">fabomatic::Machine</text>
<text text-anchor="middle" x="367" y="-103.75" font-family="Helvetica,sans-Serif" font-size="10.00">::isFree</text>
</a>
</g>
</g>
<!-- Node16&#45;&gt;Node21 -->
<g id="edge23_Node000016_Node000021" class="edge">
<title>Node16&#45;&gt;Node21</title>
<g id="a_edge23_Node000016_Node000021"><a xlink:title=" ">
<path fill="none" stroke="#63b8ff" d="M260.72,-146.61C275.09,-142.06 290.95,-137.03 305.9,-132.3"/>
<polygon fill="#63b8ff" stroke="#63b8ff" points="306.67,-135.72 315.15,-129.37 304.56,-129.05 306.67,-135.72"/>
</a>
</g>
</g>
<!-- Node22 -->
<g id="Node000022" class="node">
<title>Node22</title>
<g id="a_Node000022"><a xlink:href="classfabomatic_1_1_machine.xhtml#a871958cc57845c8651cf1058ed9b30e4" target="_top" xlink:title="Indicates if the machine will power down in less than BEEP_REMAINING_MINUTES.">
<polygon fill="white" stroke="#666666" points="423,-79.5 311,-79.5 311,-49 423,-49 423,-79.5"/>
<text text-anchor="start" x="319" y="-66" font-family="Helvetica,sans-Serif" font-size="10.00">fabomatic::Machine</text>
<text text-anchor="middle" x="367" y="-54.75" font-family="Helvetica,sans-Serif" font-size="10.00">::isShutdownImminent</text>
</a>
</g>
</g>
<!-- Node16&#45;&gt;Node22 -->
<g id="edge24_Node000016_Node000022" class="edge">
<title>Node16&#45;&gt;Node22</title>
<g id="a_edge24_Node000016_Node000022"><a xlink:title=" ">
<path fill="none" stroke="#63b8ff" d="M229.33,-146.59C248.07,-130.76 278.74,-106.27 308,-89.25 310.58,-87.75 313.26,-86.29 316,-84.87"/>
<polygon fill="#63b8ff" stroke="#63b8ff" points="317.25,-88.15 324.7,-80.62 314.18,-81.86 317.25,-88.15"/>
</a>
</g>
</g>
<!-- Node23 -->
<g id="Node000023" class="node">
<title>Node23</title>
<g id="a_Node000023"><a xlink:href="structfabomatic_1_1_fab_user.xhtml#ab4b54f1830f1536824583e973d670582" target="_top" xlink:title=" ">
<polygon fill="white" stroke="#666666" points="417.38,-30.5 316.62,-30.5 316.62,0 417.38,0 417.38,-30.5"/>
<text text-anchor="start" x="324.62" y="-17" font-family="Helvetica,sans-Serif" font-size="10.00">fabomatic::FabUser</text>
<text text-anchor="middle" x="367" y="-5.75" font-family="Helvetica,sans-Serif" font-size="10.00">::toString</text>
</a>
</g>
</g>
<!-- Node16&#45;&gt;Node23 -->
<g id="edge25_Node000016_Node000023" class="edge">
<title>Node16&#45;&gt;Node23</title>
<g id="a_edge25_Node000016_Node000023"><a xlink:title=" ">
<path fill="none" stroke="#63b8ff" d="M220.15,-146.73C235.18,-121.37 268.11,-70.82 308,-40.25 309.7,-38.95 311.47,-37.7 313.3,-36.51"/>
<polygon fill="#63b8ff" stroke="#63b8ff" points="314.64,-39.78 321.52,-31.73 311.12,-33.73 314.64,-39.78"/>
</a>
</g>
</g>
</g>
</svg>
