<?xml version="1.0" encoding="UTF-8" standalone="no"?>
<!DOCTYPE svg PUBLIC "-//W3C//DTD SVG 1.1//EN"
 "http://www.w3.org/Graphics/SVG/1.1/DTD/svg11.dtd">
<!-- Generated by graphviz version 9.0.0 (20230911.1827)
 -->
<!-- Title: fabomatic::MQTTInterface::MachineResponse Pages: 1 -->
<svg width="219pt" height="404pt"
 viewBox="0.00 0.00 218.50 403.50" xmlns="http://www.w3.org/2000/svg" xmlns:xlink="http://www.w3.org/1999/xlink">

<svg id="main" version="1.1" xmlns="http://www.w3.org/2000/svg" xmlns:xlink="http://www.w3.org/1999/xlink" xml:space="preserve" onload="init(evt)">
<style type="text/css"><![CDATA[
.node, .edge {opacity: 0.7;}
.node.selected, .edge.selected {opacity: 1;}
.edge:hover path { stroke: red; }
.edge:hover polygon { stroke: red; fill: red; }
]]></style>
<script type="application/ecmascript" xlink:href="svg.min.js"/>
<svg id="graph" class="graph">
<g id="graph0" class="graph" transform="scale(1 1) rotate(0) translate(4 399.5)">
<title>fabomatic::MQTTInterface::MachineResponse</title>
<!-- Node1 -->
<g id="Node000001" class="node">
<title>Node1</title>
<g id="a_Node000001"><a xlink:title="Backend response for machine status query.">
<polygon fill="#999999" stroke="none" points="139,-165 16,-165 16,0 139,0 139,-165"/>
<text text-anchor="start" x="20.88" y="-151.5" font-family="Helvetica,sans-Serif" font-size="10.00">fabomatic::MQTTInterface</text>
<text text-anchor="start" x="35.12" y="-140.25" font-family="Helvetica,sans-Serif" font-size="10.00">::MachineResponse</text>
<text text-anchor="start" x="24.5" y="-125.5" font-family="Helvetica,sans-Serif" font-size="10.00">+</text>
<text text-anchor="start" x="39" y="-125.5" font-family="Helvetica,sans-Serif" font-size="10.00">is_valid</text>
<text text-anchor="start" x="24.5" y="-110.5" font-family="Helvetica,sans-Serif" font-size="10.00">+</text>
<text text-anchor="start" x="39" y="-110.5" font-family="Helvetica,sans-Serif" font-size="10.00">maintenance</text>
<text text-anchor="start" x="24.5" y="-95.5" font-family="Helvetica,sans-Serif" font-size="10.00">+</text>
<text text-anchor="start" x="39" y="-95.5" font-family="Helvetica,sans-Serif" font-size="10.00">allowed</text>
<text text-anchor="start" x="24.5" y="-80.5" font-family="Helvetica,sans-Serif" font-size="10.00">+</text>
<text text-anchor="start" x="39" y="-80.5" font-family="Helvetica,sans-Serif" font-size="10.00">logoff</text>
<text text-anchor="start" x="24.5" y="-65.5" font-family="Helvetica,sans-Serif" font-size="10.00">+</text>
<text text-anchor="start" x="39" y="-65.5" font-family="Helvetica,sans-Serif" font-size="10.00">type</text>
<text text-anchor="start" x="24.5" y="-50.5" font-family="Helvetica,sans-Serif" font-size="10.00">+</text>
<text text-anchor="start" x="39" y="-50.5" font-family="Helvetica,sans-Serif" font-size="10.00">grace</text>
<text text-anchor="start" x="24.5" y="-35.5" font-family="Helvetica,sans-Serif" font-size="10.00">+</text>
<text text-anchor="start" x="39" y="-35.5" font-family="Helvetica,sans-Serif" font-size="10.00">MachineResponse()</text>
<text text-anchor="start" x="24.5" y="-20.5" font-family="Helvetica,sans-Serif" font-size="10.00">+</text>
<text text-anchor="start" x="39" y="-20.5" font-family="Helvetica,sans-Serif" font-size="10.00">MachineResponse()</text>
<text text-anchor="start" x="24.5" y="-5.5" font-family="Helvetica,sans-Serif" font-size="10.00">+</text>
<text text-anchor="start" x="39" y="-5.5" font-family="Helvetica,sans-Serif" font-size="10.00">fromJson()</text>
<polygon fill="#666666" stroke="#666666" points="16,-137 16,-137 139,-137 139,-137 16,-137"/>
<polygon fill="#666666" stroke="#666666" points="16,-47 16,-47 37,-47 37,-47 16,-47"/>
<polygon fill="#666666" stroke="#666666" points="37,-47 37,-47 139,-47 139,-47 37,-47"/>
<polygon fill="none" stroke="#666666" points="16,0 16,-165 139,-165 139,0 16,0"/>
</a>
</g>
</g>
<!-- Node2 -->
<g id="Node000002" class="node">
<title>Node2</title>
<g id="a_Node000002"><a xlink:href="classfabomatic_1_1_m_q_t_t_interface_1_1_response.xhtml" target="_top" xlink:title="Base class for server replies.">
<polygon fill="white" stroke="none" points="123,-298.5 0,-298.5 0,-223.5 123,-223.5 123,-298.5"/>
<text text-anchor="start" x="4.88" y="-285" font-family="Helvetica,sans-Serif" font-size="10.00">fabomatic::MQTTInterface</text>
<text text-anchor="start" x="37.5" y="-273.75" font-family="Helvetica,sans-Serif" font-size="10.00">::Response</text>
<text text-anchor="start" x="18" y="-259" font-family="Helvetica,sans-Serif" font-size="10.00">+</text>
<text text-anchor="start" x="42" y="-259" font-family="Helvetica,sans-Serif" font-size="10.00">request_ok</text>
<text text-anchor="start" x="18" y="-244" font-family="Helvetica,sans-Serif" font-size="10.00">+</text>
<text text-anchor="start" x="42" y="-244" font-family="Helvetica,sans-Serif" font-size="10.00">Response()</text>
<text text-anchor="start" x="18" y="-229" font-family="Helvetica,sans-Serif" font-size="10.00">+</text>
<text text-anchor="start" x="42" y="-229" font-family="Helvetica,sans-Serif" font-size="10.00">Response()</text>
<polygon fill="#666666" stroke="#666666" points="0,-270.5 0,-270.5 123,-270.5 123,-270.5 0,-270.5"/>
<polygon fill="#666666" stroke="#666666" points="0,-255.5 0,-255.5 40,-255.5 40,-255.5 0,-255.5"/>
<polygon fill="#666666" stroke="#666666" points="40,-255.5 40,-255.5 123,-255.5 123,-255.5 40,-255.5"/>
<polygon fill="none" stroke="#666666" points="0,-223.5 0,-298.5 123,-298.5 123,-223.5 0,-223.5"/>
</a>
</g>
</g>
<!-- Node2&#45;&gt;Node1 -->
<g id="edge1_Node000001_Node000002" class="edge">
<title>Node2&#45;&gt;Node1</title>
<g id="a_edge1_Node000001_Node000002"><a xlink:title=" ">
<path fill="none" stroke="#63b8ff" d="M65.81,-212.5C67.14,-197.78 68.65,-181.11 70.13,-164.76"/>
<polygon fill="none" stroke="#63b8ff" points="62.33,-212.07 64.91,-222.35 69.3,-212.71 62.33,-212.07"/>
</a>
</g>
</g>
<!-- Node3 -->
<g id="Node000003" class="node">
<title>Node3</title>
<g id="a_Node000003"><a xlink:title=" ">
<polygon fill="white" stroke="none" points="193.5,-285.5 141.5,-285.5 141.5,-236.5 193.5,-236.5 193.5,-285.5"/>
<text text-anchor="start" x="146.5" y="-272" font-family="Helvetica,sans-Serif" font-size="10.00">std::string</text>
<text text-anchor="start" x="166" y="-257" font-family="Helvetica,sans-Serif" font-size="10.00"> </text>
<text text-anchor="start" x="166" y="-242" font-family="Helvetica,sans-Serif" font-size="10.00"> </text>
<polygon fill="#666666" stroke="#666666" points="141.5,-268.5 141.5,-268.5 193.5,-268.5 193.5,-268.5 141.5,-268.5"/>
<polygon fill="#666666" stroke="#666666" points="141.5,-253.5 141.5,-253.5 193.5,-253.5 193.5,-253.5 141.5,-253.5"/>
<polygon fill="none" stroke="#666666" points="141.5,-236.5 141.5,-285.5 193.5,-285.5 193.5,-236.5 141.5,-236.5"/>
</a>
</g>
</g>
<!-- Node3&#45;&gt;Node1 -->
<g id="edge2_Node000001_Node000003" class="edge">
<title>Node3&#45;&gt;Node1</title>
<g id="a_edge2_Node000001_Node000003"><a xlink:title=" ">
<path fill="none" stroke="#63b8ff" d="M155.55,-236.56C147.45,-220.68 136.17,-198.55 124.69,-176.05"/>
<polygon fill="none" stroke="#63b8ff" points="124.74,-176.14 118.45,-172.61 119.29,-165.45 125.58,-168.98 124.74,-176.14"/>
</a>
</g>
<text text-anchor="middle" x="165.25" y="-196" font-family="Helvetica,sans-Serif" font-size="10.00" fill="grey"> +description</text>
<text text-anchor="middle" x="165.25" y="-184.75" font-family="Helvetica,sans-Serif" font-size="10.00" fill="grey">+name</text>
</g>
<!-- Node4 -->
<g id="Node000004" class="node">
<title>Node4</title>
<g id="a_Node000004"><a xlink:title=" ">
<polygon fill="white" stroke="none" points="210.5,-395.5 124.5,-395.5 124.5,-335.5 210.5,-335.5 210.5,-395.5"/>
<text text-anchor="start" x="129.25" y="-382" font-family="Helvetica,sans-Serif" font-size="10.00">std::basic_string&lt;</text>
<text text-anchor="start" x="152.12" y="-370.75" font-family="Helvetica,sans-Serif" font-size="10.00"> Char &gt;</text>
<text text-anchor="start" x="166" y="-356" font-family="Helvetica,sans-Serif" font-size="10.00"> </text>
<text text-anchor="start" x="166" y="-341" font-family="Helvetica,sans-Serif" font-size="10.00"> </text>
<polygon fill="#666666" stroke="#666666" points="124.5,-367.5 124.5,-367.5 210.5,-367.5 210.5,-367.5 124.5,-367.5"/>
<polygon fill="#666666" stroke="#666666" points="124.5,-352.5 124.5,-352.5 210.5,-352.5 210.5,-352.5 124.5,-352.5"/>
<polygon fill="none" stroke="#666666" points="124.5,-335.5 124.5,-395.5 210.5,-395.5 210.5,-335.5 124.5,-335.5"/>
</a>
</g>
</g>
<!-- Node4&#45;&gt;Node3 -->
<g id="edge3_Node000003_Node000004" class="edge">
<title>Node4&#45;&gt;Node3</title>
<g id="a_edge3_Node000003_Node000004"><a xlink:title=" ">
<path fill="none" stroke="#63b8ff" d="M167.5,-324.43C167.5,-311.23 167.5,-296.98 167.5,-285.44"/>
<polygon fill="none" stroke="#63b8ff" points="164,-324.16 167.5,-334.16 171,-324.16 164,-324.16"/>
</a>
</g>
</g>
</g>
</svg>
</svg>

<style type='text/css'>
<![CDATA[
[data-mouse-over-selected='false'] { opacity: 0.7; }
[data-mouse-over-selected='true']  { opacity: 1.0; }
]]>
</style>
<script type="application/ecmascript"><![CDATA[
document.addEventListener('DOMContentLoaded', (event) => {
  highlightEdges();
  highlightAdjacentNodes();
});
]]></script>
</svg>
