<?xml version="1.0" encoding="UTF-8" standalone="no"?>
<!DOCTYPE svg PUBLIC "-//W3C//DTD SVG 1.1//EN"
 "http://www.w3.org/Graphics/SVG/1.1/DTD/svg11.dtd">
<!-- Generated by graphviz version 9.0.0 (20230911.1827)
 -->
<!-- Title: fabomatic::BoardLogic::getRfid Pages: 1 -->
<!--zoomable 332 -->

<svg id="main" version="1.1" xmlns="http://www.w3.org/2000/svg" xmlns:xlink="http://www.w3.org/1999/xlink" xml:space="preserve" onload="init(evt)">
<style type="text/css"><![CDATA[
.node, .edge {opacity: 0.7;}
.node.selected, .edge.selected {opacity: 1;}
.edge:hover path { stroke: red; }
.edge:hover polygon { stroke: red; fill: red; }
]]></style>

<defs>
  <circle id="rim" cx="0" cy="0" r="7"/>
  <circle id="rim2" cx="0" cy="0" r="3.5"/>
  <g id="zoomPlus">
    <use xlink:href="#rim" fill="#404040"><set attributeName="fill" to="#808080" begin="zoomplus.mouseover" end="zoomplus.mouseout"/></use>
    <path d="M-4,0h8M0,-4v8" fill="none" stroke="white" stroke-width="1.5" pointer-events="none"/>
  </g>
  <g id="zoomMin">
    <use xlink:href="#rim" fill="#404040"><set attributeName="fill" to="#808080" begin="zoomminus.mouseover" end="zoomminus.mouseout"/></use>
    <path d="M-4,0h8" fill="none" stroke="white" stroke-width="1.5" pointer-events="none"/>
  </g>
  <g id="arrowUp" transform="translate(30 24)">
    <use xlink:href="#rim"/>
    <path pointer-events="none" fill="none" stroke="white" stroke-width="1.5" d="M0,-3.0v7 M-2.5,-0.5L0,-3.0L2.5,-0.5"/>
  </g>
  <g id="arrowRight" transform="rotate(90) translate(36 -43)">
    <use xlink:href="#rim"/>
    <path pointer-events="none" fill="none" stroke="white" stroke-width="1.5" d="M0,-3.0v7 M-2.5,-0.5L0,-3.0L2.5,-0.5"/>
  </g>
  <g id="arrowDown" transform="rotate(180) translate(-30 -48)">
    <use xlink:href="#rim"/>
    <path pointer-events="none" fill="none" stroke="white" stroke-width="1.5" d="M0,-3.0v7 M-2.5,-0.5L0,-3.0L2.5,-0.5"/>
  </g>
  <g id="arrowLeft" transform="rotate(270) translate(-36 17)">
    <use xlink:href="#rim"/>
    <path pointer-events="none" fill="none" stroke="white" stroke-width="1.5" d="M0,-3.0v7 M-2.5,-0.5L0,-3.0L2.5,-0.5"/>
  </g>
  <g id="resetDef">
    <use xlink:href="#rim2" fill="#404040"><set attributeName="fill" to="#808080" begin="reset.mouseover" end="reset.mouseout"/></use>
  </g>
</defs>
<script type="application/ecmascript">
var viewWidth = 1289;
var viewHeight = 332;
var sectionId = 'dynsection-23';
</script>
<script type="application/ecmascript" xlink:href="svg.min.js"/>
<svg id="graph" class="graph">
<g id="viewport">
<title>fabomatic::BoardLogic::getRfid</title>
<!-- Node1 -->
<g id="Node000001" class="node">
<title>Node1</title>
<g id="a_Node000001"><a xlink:title=" ">
<polygon fill="#999999" stroke="#666666" points="1281,-124.25 1168.25,-124.25 1168.25,-93.75 1281,-93.75 1281,-124.25"/>
<text text-anchor="start" x="1176.25" y="-110.75" font-family="Helvetica,sans-Serif" font-size="10.00">fabomatic::BoardLogic</text>
<text text-anchor="middle" x="1224.62" y="-99.5" font-family="Helvetica,sans-Serif" font-size="10.00">::getRfid</text>
</a>
</g>
</g>
<!-- Node2 -->
<g id="Node000002" class="node">
<title>Node2</title>
<g id="a_Node000002"><a xlink:href="classfabomatic_1_1_board_logic.xhtml#a25bdc3a49d850aa49f92faf951b68efb" target="_top" xlink:title="Checks if a new card is present.">
<polygon fill="white" stroke="#666666" points="686,-167.25 573.25,-167.25 573.25,-136.75 686,-136.75 686,-167.25"/>
<text text-anchor="start" x="581.25" y="-153.75" font-family="Helvetica,sans-Serif" font-size="10.00">fabomatic::BoardLogic</text>
<text text-anchor="middle" x="629.62" y="-142.5" font-family="Helvetica,sans-Serif" font-size="10.00">::checkRfid</text>
</a>
</g>
</g>
<!-- Node1&#45;&gt;Node2 -->
<g id="edge1_Node000001_Node000002" class="edge">
<title>Node1&#45;&gt;Node2</title>
<g id="a_edge1_Node000001_Node000002"><a xlink:title=" ">
<path fill="none" stroke="#63b8ff" d="M1160.83,-127.41C1151.33,-129.64 1141.58,-131.62 1132.25,-133 971.69,-156.83 779.24,-156.04 686.29,-153.84"/>
<polygon fill="#63b8ff" stroke="#63b8ff" points="1161.5,-130.85 1170.38,-125.06 1159.83,-124.06 1161.5,-130.85"/>
</a>
</g>
</g>
<!-- Node14 -->
<g id="Node000014" class="node">
<title>Node14</title>
<g id="a_Node000014"><a xlink:href="classfabomatic_1_1_board_logic.xhtml#a3e9fedd51e4895834a9ebea17cba4331" target="_top" xlink:title="Initializes LCD and RFID classes.">
<polygon fill="white" stroke="#666666" points="1132.25,-75.25 1019.5,-75.25 1019.5,-44.75 1132.25,-44.75 1132.25,-75.25"/>
<text text-anchor="start" x="1027.5" y="-61.75" font-family="Helvetica,sans-Serif" font-size="10.00">fabomatic::BoardLogic</text>
<text text-anchor="middle" x="1075.88" y="-50.5" font-family="Helvetica,sans-Serif" font-size="10.00">::initBoard</text>
</a>
</g>
</g>
<!-- Node1&#45;&gt;Node14 -->
<g id="edge24_Node000001_Node000014" class="edge">
<title>Node1&#45;&gt;Node14</title>
<g id="a_edge24_Node000001_Node000014"><a xlink:title=" ">
<path fill="none" stroke="#63b8ff" d="M1165.87,-89.72C1152,-85.08 1137.35,-80.19 1124.02,-75.74"/>
<polygon fill="#63b8ff" stroke="#63b8ff" points="1164.76,-93.03 1175.35,-92.88 1166.98,-86.39 1164.76,-93.03"/>
</a>
</g>
</g>
<!-- Node17 -->
<g id="Node000017" class="node">
<title>Node17</title>
<g id="a_Node000017"><a xlink:href="classfabomatic_1_1_board_logic.xhtml#a420a0d05a91a02c27ad3b63a030738a0" target="_top" xlink:title="Asks the user to keep the RFID tag on the reader as confirmation.">
<polygon fill="white" stroke="#666666" points="1132.25,-124.25 1019.5,-124.25 1019.5,-93.75 1132.25,-93.75 1132.25,-124.25"/>
<text text-anchor="start" x="1027.5" y="-110.75" font-family="Helvetica,sans-Serif" font-size="10.00">fabomatic::BoardLogic</text>
<text text-anchor="middle" x="1075.88" y="-99.5" font-family="Helvetica,sans-Serif" font-size="10.00">::longTap</text>
</a>
</g>
</g>
<!-- Node1&#45;&gt;Node17 -->
<g id="edge27_Node000001_Node000017" class="edge">
<title>Node1&#45;&gt;Node17</title>
<g id="a_edge27_Node000001_Node000017"><a xlink:title=" ">
<path fill="none" stroke="#63b8ff" d="M1156.76,-109C1148.62,-109 1140.38,-109 1132.43,-109"/>
<polygon fill="#63b8ff" stroke="#63b8ff" points="1156.63,-112.5 1166.63,-109 1156.63,-105.5 1156.63,-112.5"/>
</a>
</g>
</g>
<!-- Node3 -->
<g id="Node000003" class="node">
<title>Node3</title>
<g id="a_Node000003"><a xlink:href="namespacefabomatic_1_1tests.xhtml#a2600320f41c9fa343c66058ecb12b5ee" target="_top" xlink:title="Simulates RFID card tap.">
<polygon fill="white" stroke="#666666" points="537.25,-167.25 411,-167.25 411,-136.75 537.25,-136.75 537.25,-167.25"/>
<text text-anchor="start" x="419" y="-153.75" font-family="Helvetica,sans-Serif" font-size="10.00">fabomatic::tests::simulate</text>
<text text-anchor="middle" x="474.12" y="-142.5" font-family="Helvetica,sans-Serif" font-size="10.00">_rfid_card</text>
</a>
</g>
</g>
<!-- Node2&#45;&gt;Node3 -->
<g id="edge2_Node000002_Node000003" class="edge">
<title>Node2&#45;&gt;Node3</title>
<g id="a_edge2_Node000002_Node000003"><a xlink:title=" ">
<path fill="none" stroke="#63b8ff" d="M561.38,-152C553.5,-152 545.49,-152 537.69,-152"/>
<polygon fill="#63b8ff" stroke="#63b8ff" points="561.26,-155.5 571.26,-152 561.26,-148.5 561.26,-155.5"/>
</a>
</g>
</g>
<!-- Node10 -->
<g id="Node000010" class="node">
<title>Node10</title>
<g id="a_Node000010"><a xlink:href="namespacefabomatic_1_1tests.xhtml#aab0f4e1439b281ffef8be51db9a81f9d" target="_top" xlink:title=" ">
<polygon fill="white" stroke="#666666" points="191.75,-85.25 79,-85.25 79,-54.75 191.75,-54.75 191.75,-85.25"/>
<text text-anchor="start" x="87" y="-71.75" font-family="Helvetica,sans-Serif" font-size="10.00">fabomatic::tests::test</text>
<text text-anchor="middle" x="135.38" y="-60.5" font-family="Helvetica,sans-Serif" font-size="10.00">_whitelist_no_network</text>
</a>
</g>
</g>
<!-- Node2&#45;&gt;Node10 -->
<g id="edge23_Node000002_Node000010" class="edge">
<title>Node2&#45;&gt;Node10</title>
<g id="a_edge23_Node000002_Node000010"><a xlink:title=" ">
<path fill="none" stroke="#63b8ff" d="M562.16,-134.42C553.78,-132.24 545.32,-130.05 537.25,-128 465.28,-109.68 448.34,-99.72 375,-88 312.85,-78.07 240.69,-73.59 192.13,-71.58"/>
<polygon fill="#63b8ff" stroke="#63b8ff" points="561.07,-137.75 571.63,-136.89 562.83,-130.98 561.07,-137.75"/>
</a>
</g>
</g>
<!-- Node12 -->
<g id="Node000012" class="node">
<title>Node12</title>
<g id="a_Node000012"><a xlink:href="namespacefabomatic.xhtml#a3e5c190499522bddad3f3cc69274f16c" target="_top" xlink:title="periodic check for new RFID card">
<polygon fill="white" stroke="#666666" points="537.25,-253.62 411,-253.62 411,-234.38 537.25,-234.38 537.25,-253.62"/>
<text text-anchor="middle" x="474.12" y="-240.12" font-family="Helvetica,sans-Serif" font-size="10.00">fabomatic::taskCheckRfid</text>
</a>
</g>
</g>
<!-- Node2&#45;&gt;Node12 -->
<g id="edge21_Node000002_Node000012" class="edge">
<title>Node2&#45;&gt;Node12</title>
<g id="a_edge21_Node000002_Node000012"><a xlink:title=" ">
<path fill="none" stroke="#63b8ff" d="M604.7,-175.33C587.24,-191.25 562.33,-211.77 537.25,-225 530.67,-228.47 523.35,-231.42 516.11,-233.88"/>
<polygon fill="#63b8ff" stroke="#63b8ff" points="607.08,-177.9 612.01,-168.52 602.31,-172.78 607.08,-177.9"/>
</a>
</g>
</g>
<!-- Node13 -->
<g id="Node000013" class="node">
<title>Node13</title>
<g id="a_Node000013"><a xlink:href="namespacefabomatic_1_1tests.xhtml#a294b4767ecf1e1d11cc31dafb2541d23" target="_top" xlink:title="periodic check for new RFID card">
<polygon fill="white" stroke="#666666" points="527.12,-216.25 421.12,-216.25 421.12,-185.75 527.12,-185.75 527.12,-216.25"/>
<text text-anchor="start" x="429.12" y="-202.75" font-family="Helvetica,sans-Serif" font-size="10.00">fabomatic::tests::test</text>
<text text-anchor="middle" x="474.12" y="-191.5" font-family="Helvetica,sans-Serif" font-size="10.00">_taskCheckRfid</text>
</a>
</g>
</g>
<!-- Node2&#45;&gt;Node13 -->
<g id="edge22_Node000002_Node000013" class="edge">
<title>Node2&#45;&gt;Node13</title>
<g id="a_edge22_Node000002_Node000013"><a xlink:title=" ">
<path fill="none" stroke="#63b8ff" d="M569.08,-171.01C554.31,-175.72 538.65,-180.72 524.44,-185.26"/>
<polygon fill="#63b8ff" stroke="#63b8ff" points="569.73,-174.47 578.19,-168.1 567.6,-167.81 569.73,-174.47"/>
</a>
</g>
</g>
<!-- Node4 -->
<g id="Node000004" class="node">
<title>Node4</title>
<g id="a_Node000004"><a xlink:href="namespacefabomatic_1_1tests.xhtml#a6a7645a865dc822746f972ea6f43224d" target="_top" xlink:title="Resets machine to initial state, clearing flags.">
<polygon fill="white" stroke="#666666" points="375,-199.62 230.75,-199.62 230.75,-180.38 375,-180.38 375,-199.62"/>
<text text-anchor="middle" x="302.88" y="-186.12" font-family="Helvetica,sans-Serif" font-size="10.00">fabomatic::tests::machine_init</text>
</a>
</g>
</g>
<!-- Node3&#45;&gt;Node4 -->
<g id="edge3_Node000003_Node000004" class="edge">
<title>Node3&#45;&gt;Node4</title>
<g id="a_edge3_Node000003_Node000004"><a xlink:title=" ">
<path fill="none" stroke="#63b8ff" d="M399.37,-168.56C382.12,-172.43 364.26,-176.44 348.72,-179.93"/>
<polygon fill="#63b8ff" stroke="#63b8ff" points="400.12,-171.98 409.11,-166.37 398.58,-165.15 400.12,-171.98"/>
</a>
</g>
</g>
<!-- Node5 -->
<g id="Node000005" class="node">
<title>Node5</title>
<g id="a_Node000005"><a xlink:href="namespacefabomatic_1_1tests.xhtml#a558e2287db01a4622581246a19dac397" target="_top" xlink:title=" ">
<polygon fill="white" stroke="#666666" points="188.38,-232.25 82.38,-232.25 82.38,-201.75 188.38,-201.75 188.38,-232.25"/>
<text text-anchor="start" x="90.38" y="-218.75" font-family="Helvetica,sans-Serif" font-size="10.00">fabomatic::tests::test</text>
<text text-anchor="middle" x="135.38" y="-207.5" font-family="Helvetica,sans-Serif" font-size="10.00">_machine_allowed</text>
</a>
</g>
</g>
<!-- Node3&#45;&gt;Node5 -->
<g id="edge14_Node000003_Node000005" class="edge">
<title>Node3&#45;&gt;Node5</title>
<g id="a_edge14_Node000003_Node000005"><a xlink:title=" ">
<path fill="none" stroke="#63b8ff" d="M418.54,-172.68C415.95,-174.06 413.42,-175.5 411,-177 392.8,-188.27 394.88,-201.06 375,-209 314.57,-233.14 238.51,-230.68 188.72,-225.17"/>
<polygon fill="#63b8ff" stroke="#63b8ff" points="419.96,-175.88 427.39,-168.32 416.88,-169.59 419.96,-175.88"/>
</a>
</g>
</g>
<!-- Node7 -->
<g id="Node000007" class="node">
<title>Node7</title>
<g id="a_Node000007"><a xlink:href="namespacefabomatic_1_1tests.xhtml#a9a34631c2dc01cbdbbce146895c94e12" target="_top" xlink:title=" ">
<polygon fill="white" stroke="#666666" points="194.75,-183.25 76,-183.25 76,-152.75 194.75,-152.75 194.75,-183.25"/>
<text text-anchor="start" x="84" y="-169.75" font-family="Helvetica,sans-Serif" font-size="10.00">fabomatic::tests::test</text>
<text text-anchor="middle" x="135.38" y="-158.5" font-family="Helvetica,sans-Serif" font-size="10.00">_machine_maintenance</text>
</a>
</g>
</g>
<!-- Node3&#45;&gt;Node7 -->
<g id="edge15_Node000003_Node000007" class="edge">
<title>Node3&#45;&gt;Node7</title>
<g id="a_edge15_Node000003_Node000007"><a xlink:title=" ">
<path fill="none" stroke="#63b8ff" d="M399.43,-155.5C338.11,-158.41 251.98,-162.51 195.21,-165.2"/>
<polygon fill="#63b8ff" stroke="#63b8ff" points="399.24,-159.01 409.06,-155.04 398.91,-152.02 399.24,-159.01"/>
</a>
</g>
</g>
<!-- Node8 -->
<g id="Node000008" class="node">
<title>Node8</title>
<g id="a_Node000008"><a xlink:href="namespacefabomatic_1_1tests.xhtml#a6f3dff17fd964aba76c35c514957a0a5" target="_top" xlink:title=" ">
<polygon fill="white" stroke="#666666" points="189.88,-134.25 80.88,-134.25 80.88,-103.75 189.88,-103.75 189.88,-134.25"/>
<text text-anchor="start" x="88.88" y="-120.75" font-family="Helvetica,sans-Serif" font-size="10.00">fabomatic::tests::test</text>
<text text-anchor="middle" x="135.38" y="-109.5" font-family="Helvetica,sans-Serif" font-size="10.00">_one_user_at_a_time</text>
</a>
</g>
</g>
<!-- Node3&#45;&gt;Node8 -->
<g id="edge18_Node000003_Node000008" class="edge">
<title>Node3&#45;&gt;Node8</title>
<g id="a_edge18_Node000003_Node000008"><a xlink:title=" ">
<path fill="none" stroke="#63b8ff" d="M399.5,-144.79C336.37,-138.6 246.9,-129.83 190.26,-124.28"/>
<polygon fill="#63b8ff" stroke="#63b8ff" points="398.77,-148.23 409.07,-145.72 399.46,-141.26 398.77,-148.23"/>
</a>
</g>
</g>
<!-- Node9 -->
<g id="Node000009" class="node">
<title>Node9</title>
<g id="a_Node000009"><a xlink:href="namespacefabomatic_1_1tests.xhtml#afa92fef9250d918ee02c79dbf2de2546" target="_top" xlink:title=" ">
<polygon fill="white" stroke="#666666" points="188.38,-281.25 82.38,-281.25 82.38,-250.75 188.38,-250.75 188.38,-281.25"/>
<text text-anchor="start" x="90.38" y="-267.75" font-family="Helvetica,sans-Serif" font-size="10.00">fabomatic::tests::test</text>
<text text-anchor="middle" x="135.38" y="-256.5" font-family="Helvetica,sans-Serif" font-size="10.00">_user_autologoff</text>
</a>
</g>
</g>
<!-- Node3&#45;&gt;Node9 -->
<g id="edge19_Node000003_Node000009" class="edge">
<title>Node3&#45;&gt;Node9</title>
<g id="a_edge19_Node000003_Node000009"><a xlink:title=" ">
<path fill="none" stroke="#63b8ff" d="M415.64,-173.51C414.03,-174.62 412.48,-175.78 411,-177 388.41,-195.53 399.65,-216.32 375,-232 318.68,-267.81 239.91,-272.2 188.52,-270.42"/>
<polygon fill="#63b8ff" stroke="#63b8ff" points="417.23,-176.63 423.98,-168.47 413.61,-170.64 417.23,-176.63"/>
</a>
</g>
</g>
<!-- Node3&#45;&gt;Node10 -->
<g id="edge20_Node000003_Node000010" class="edge">
<title>Node3&#45;&gt;Node10</title>
<g id="a_edge20_Node000003_Node000010"><a xlink:title=" ">
<path fill="none" stroke="#63b8ff" d="M406.78,-133.34C396.17,-130.47 385.3,-127.6 375,-125 312.55,-109.22 240.45,-92.85 191.98,-82.12"/>
<polygon fill="#63b8ff" stroke="#63b8ff" points="405.68,-136.67 416.25,-135.92 407.52,-129.91 405.68,-136.67"/>
</a>
</g>
</g>
<!-- Node11 -->
<g id="Node000011" class="node">
<title>Node11</title>
<g id="a_Node000011"><a xlink:href="namespacefabomatic_1_1tests.xhtml#af8fa7ace86309b5f699540d8898660c7" target="_top" xlink:title=" ">
<polygon fill="white" stroke="#666666" points="355.88,-324.25 249.88,-324.25 249.88,-293.75 355.88,-293.75 355.88,-324.25"/>
<text text-anchor="start" x="257.88" y="-310.75" font-family="Helvetica,sans-Serif" font-size="10.00">fabomatic::tests::test</text>
<text text-anchor="middle" x="302.88" y="-299.5" font-family="Helvetica,sans-Serif" font-size="10.00">_messages_buffered</text>
</a>
</g>
</g>
<!-- Node3&#45;&gt;Node11 -->
<g id="edge16_Node000003_Node000011" class="edge">
<title>Node3&#45;&gt;Node11</title>
<g id="a_edge16_Node000003_Node000011"><a xlink:title=" ">
<path fill="none" stroke="#63b8ff" d="M413.7,-174.38C412.76,-175.22 411.86,-176.1 411,-177 377.51,-212.08 408.41,-244.85 375,-280 369.67,-285.61 363.11,-290.16 356.14,-293.85"/>
<polygon fill="#63b8ff" stroke="#63b8ff" points="415.67,-177.28 421.62,-168.51 411.5,-171.65 415.67,-177.28"/>
</a>
</g>
</g>
<!-- Node4&#45;&gt;Node5 -->
<g id="edge4_Node000004_Node000005" class="edge">
<title>Node4&#45;&gt;Node5</title>
<g id="a_edge4_Node000004_Node000005"><a xlink:title=" ">
<path fill="none" stroke="#63b8ff" d="M229,-201.89C215.48,-204.1 201.59,-206.36 188.83,-208.44"/>
<polygon fill="#63b8ff" stroke="#63b8ff" points="229.45,-205.36 238.76,-200.3 228.32,-198.45 229.45,-205.36"/>
</a>
</g>
</g>
<!-- Node4&#45;&gt;Node7 -->
<g id="edge6_Node000004_Node000007" class="edge">
<title>Node4&#45;&gt;Node7</title>
<g id="a_edge6_Node000004_Node000007"><a xlink:title=" ">
<path fill="none" stroke="#63b8ff" d="M219.49,-179.05C211.23,-177.95 202.96,-176.85 195.02,-175.8"/>
<polygon fill="#63b8ff" stroke="#63b8ff" points="218.85,-182.49 229.23,-180.34 219.78,-175.56 218.85,-182.49"/>
</a>
</g>
</g>
<!-- Node4&#45;&gt;Node8 -->
<g id="edge8_Node000004_Node000008" class="edge">
<title>Node4&#45;&gt;Node8</title>
<g id="a_edge8_Node000004_Node000008"><a xlink:title=" ">
<path fill="none" stroke="#63b8ff" d="M268.1,-175.49C247.02,-166.43 219.3,-154.53 194.75,-144 187.76,-141 180.3,-137.8 173.12,-134.73"/>
<polygon fill="#63b8ff" stroke="#63b8ff" points="266.51,-178.61 277.08,-179.35 269.28,-172.18 266.51,-178.61"/>
</a>
</g>
</g>
<!-- Node4&#45;&gt;Node9 -->
<g id="edge10_Node000004_Node000009" class="edge">
<title>Node4&#45;&gt;Node9</title>
<g id="a_edge10_Node000004_Node000009"><a xlink:title=" ">
<path fill="none" stroke="#63b8ff" d="M271.36,-204.92C250.01,-215.27 220.76,-229.24 194.75,-241 187.92,-244.09 180.6,-247.3 173.53,-250.35"/>
<polygon fill="#63b8ff" stroke="#63b8ff" points="272.63,-208.2 280.09,-200.68 269.57,-201.9 272.63,-208.2"/>
</a>
</g>
</g>
<!-- Node4&#45;&gt;Node10 -->
<g id="edge12_Node000004_Node000010" class="edge">
<title>Node4&#45;&gt;Node10</title>
<g id="a_edge12_Node000004_Node000010"><a xlink:title=" ">
<path fill="none" stroke="#63b8ff" d="M284.84,-171.69C264.82,-150.98 229.86,-117.26 194.75,-95 189.44,-91.64 183.6,-88.53 177.74,-85.73"/>
<polygon fill="#63b8ff" stroke="#63b8ff" points="282.22,-174.02 291.65,-178.85 287.29,-169.19 282.22,-174.02"/>
</a>
</g>
</g>
<!-- Node6 -->
<g id="Node000006" class="node">
<title>Node6</title>
<g id="a_Node000006"><a xlink:href="test__logic_8cpp.xhtml#a4fc01d736fe50cf5b977f755b675f11d" target="_top" xlink:title=" ">
<polygon fill="white" stroke="#666666" points="40,-201.62 0,-201.62 0,-182.38 40,-182.38 40,-201.62"/>
<text text-anchor="middle" x="20" y="-188.12" font-family="Helvetica,sans-Serif" font-size="10.00">setup</text>
</a>
</g>
</g>
<!-- Node5&#45;&gt;Node6 -->
<g id="edge5_Node000005_Node000006" class="edge">
<title>Node5&#45;&gt;Node6</title>
<g id="a_edge5_Node000005_Node000006"><a xlink:title=" ">
<path fill="none" stroke="#63b8ff" d="M70.85,-202.99C59.76,-200.55 49.01,-198.18 40.36,-196.27"/>
<polygon fill="#63b8ff" stroke="#63b8ff" points="70,-206.39 80.52,-205.13 71.51,-199.55 70,-206.39"/>
</a>
</g>
</g>
<!-- Node7&#45;&gt;Node6 -->
<g id="edge7_Node000007_Node000006" class="edge">
<title>Node7&#45;&gt;Node6</title>
<g id="a_edge7_Node000007_Node000006"><a xlink:title=" ">
<path fill="none" stroke="#63b8ff" d="M64.44,-182.8C55.69,-184.66 47.39,-186.41 40.43,-187.89"/>
<polygon fill="#63b8ff" stroke="#63b8ff" points="65.16,-186.23 74.21,-180.74 63.71,-179.38 65.16,-186.23"/>
</a>
</g>
</g>
<!-- Node8&#45;&gt;Node6 -->
<g id="edge9_Node000008_Node000006" class="edge">
<title>Node8&#45;&gt;Node6</title>
<g id="a_edge9_Node000008_Node000006"><a xlink:title=" ">
<path fill="none" stroke="#63b8ff" d="M83.1,-139.84C80.66,-141.18 78.28,-142.56 76,-144 58.4,-155.06 40.78,-171.65 30.39,-182.14"/>
<polygon fill="#63b8ff" stroke="#63b8ff" points="84.67,-142.96 92,-135.31 81.5,-136.73 84.67,-142.96"/>
</a>
</g>
</g>
<!-- Node9&#45;&gt;Node6 -->
<g id="edge11_Node000009_Node000006" class="edge">
<title>Node9&#45;&gt;Node6</title>
<g id="a_edge11_Node000009_Node000006"><a xlink:title=" ">
<path fill="none" stroke="#63b8ff" d="M82.96,-245.12C80.57,-243.8 78.24,-242.42 76,-241 58.3,-229.75 40.71,-212.8 30.35,-202.08"/>
<polygon fill="#63b8ff" stroke="#63b8ff" points="81.17,-248.14 91.66,-249.59 84.36,-241.91 81.17,-248.14"/>
</a>
</g>
</g>
<!-- Node10&#45;&gt;Node6 -->
<g id="edge13_Node000010_Node000006" class="edge">
<title>Node10&#45;&gt;Node6</title>
<g id="a_edge13_Node000010_Node000006"><a xlink:title=" ">
<path fill="none" stroke="#63b8ff" d="M79.85,-91.82C78.52,-92.84 77.23,-93.9 76,-95 48.01,-120.04 30.86,-162.83 24.19,-182.09"/>
<polygon fill="#63b8ff" stroke="#63b8ff" points="81.48,-94.94 87.93,-86.53 77.65,-89.08 81.48,-94.94"/>
</a>
</g>
</g>
<!-- Node11&#45;&gt;Node6 -->
<g id="edge17_Node000011_Node000006" class="edge">
<title>Node11&#45;&gt;Node6</title>
<g id="a_edge17_Node000011_Node000006"><a xlink:title=" ">
<path fill="none" stroke="#63b8ff" d="M238.26,-318.8C189.98,-322.86 123.95,-320.85 76,-290 43.68,-269.21 28.53,-222.38 23.27,-201.9"/>
<polygon fill="#63b8ff" stroke="#63b8ff" points="238.38,-322.31 248,-317.87 237.71,-315.34 238.38,-322.31"/>
</a>
</g>
</g>
<!-- Node15 -->
<g id="Node000015" class="node">
<title>Node15</title>
<g id="a_Node000015"><a xlink:href="main_8cpp.xhtml#a4fc01d736fe50cf5b977f755b675f11d" target="_top" xlink:title=" ">
<polygon fill="white" stroke="#666666" points="947.12,-72.62 907.12,-72.62 907.12,-53.38 947.12,-53.38 947.12,-72.62"/>
<text text-anchor="middle" x="927.12" y="-59.12" font-family="Helvetica,sans-Serif" font-size="10.00">setup</text>
</a>
</g>
</g>
<!-- Node14&#45;&gt;Node15 -->
<g id="edge25_Node000014_Node000015" class="edge">
<title>Node14&#45;&gt;Node15</title>
<g id="a_edge25_Node000014_Node000015"><a xlink:title=" ">
<path fill="none" stroke="#63b8ff" d="M1007.96,-61.37C985.88,-61.82 963,-62.29 947.43,-62.61"/>
<polygon fill="#63b8ff" stroke="#63b8ff" points="1007.96,-64.87 1017.88,-61.17 1007.81,-57.87 1007.96,-64.87"/>
</a>
</g>
</g>
<!-- Node16 -->
<g id="Node000016" class="node">
<title>Node16</title>
<g id="a_Node000016"><a xlink:href="test__logic_8cpp.xhtml#a95c834d6178047ce9e1bce7cbfea2836" target="_top" xlink:title=" ">
<polygon fill="white" stroke="#666666" points="948.25,-35.62 906,-35.62 906,-16.38 948.25,-16.38 948.25,-35.62"/>
<text text-anchor="middle" x="927.12" y="-22.12" font-family="Helvetica,sans-Serif" font-size="10.00">setUp</text>
</a>
</g>
</g>
<!-- Node14&#45;&gt;Node16 -->
<g id="edge26_Node000014_Node000016" class="edge">
<title>Node14&#45;&gt;Node16</title>
<g id="a_edge26_Node000014_Node000016"><a xlink:title=" ">
<path fill="none" stroke="#63b8ff" d="M1008.18,-44.55C986.53,-39.53 964.09,-34.33 948.5,-30.72"/>
<polygon fill="#63b8ff" stroke="#63b8ff" points="1007.39,-47.96 1017.92,-46.8 1008.97,-41.14 1007.39,-47.96"/>
</a>
</g>
</g>
<!-- Node18 -->
<g id="Node000018" class="node">
<title>Node18</title>
<g id="a_Node000018"><a xlink:href="classfabomatic_1_1_board_logic.xhtml#a51390e6bf10c4de427abd7f175a2e6a8" target="_top" xlink:title="Checks if the card UID is valid, and tries to check the user in to the machine.">
<polygon fill="white" stroke="#666666" points="983.5,-124.25 870.75,-124.25 870.75,-93.75 983.5,-93.75 983.5,-124.25"/>
<text text-anchor="start" x="878.75" y="-110.75" font-family="Helvetica,sans-Serif" font-size="10.00">fabomatic::BoardLogic</text>
<text text-anchor="middle" x="927.12" y="-99.5" font-family="Helvetica,sans-Serif" font-size="10.00">::authorize</text>
</a>
</g>
</g>
<!-- Node17&#45;&gt;Node18 -->
<g id="edge28_Node000017_Node000018" class="edge">
<title>Node17&#45;&gt;Node18</title>
<g id="a_edge28_Node000017_Node000018"><a xlink:title=" ">
<path fill="none" stroke="#63b8ff" d="M1008.01,-109C999.87,-109 991.63,-109 983.68,-109"/>
<polygon fill="#63b8ff" stroke="#63b8ff" points="1007.88,-112.5 1017.88,-109 1007.88,-105.5 1007.88,-112.5"/>
</a>
</g>
</g>
<!-- Node18&#45;&gt;Node10 -->
<g id="edge31_Node000018_Node000010" class="edge">
<title>Node18&#45;&gt;Node10</title>
<g id="a_edge31_Node000018_Node000010"><a xlink:title=" ">
<path fill="none" stroke="#63b8ff" d="M882.49,-88.62C813.34,-57.07 681.27,0 630.62,0 630.62,0 630.62,0 473.12,0 367.13,0 246.23,-33.65 182.05,-54.29"/>
<polygon fill="#63b8ff" stroke="#63b8ff" points="880.69,-91.65 891.24,-92.64 883.61,-85.29 880.69,-91.65"/>
</a>
</g>
</g>
<!-- Node19 -->
<g id="Node000019" class="node">
<title>Node19</title>
<g id="a_Node000019"><a xlink:href="classfabomatic_1_1_board_logic.xhtml#a983c8de8b9c8881fc0a4e60dddc7f0c6" target="_top" xlink:title="Called when a RFID tag has been detected.">
<polygon fill="white" stroke="#666666" points="834.75,-124.25 722,-124.25 722,-93.75 834.75,-93.75 834.75,-124.25"/>
<text text-anchor="start" x="730" y="-110.75" font-family="Helvetica,sans-Serif" font-size="10.00">fabomatic::BoardLogic</text>
<text text-anchor="middle" x="778.38" y="-99.5" font-family="Helvetica,sans-Serif" font-size="10.00">::onNewCard</text>
</a>
</g>
</g>
<!-- Node18&#45;&gt;Node19 -->
<g id="edge29_Node000018_Node000019" class="edge">
<title>Node18&#45;&gt;Node19</title>
<g id="a_edge29_Node000018_Node000019"><a xlink:title=" ">
<path fill="none" stroke="#63b8ff" d="M859.26,-109C851.12,-109 842.88,-109 834.93,-109"/>
<polygon fill="#63b8ff" stroke="#63b8ff" points="859.13,-112.5 869.13,-109 859.13,-105.5 859.13,-112.5"/>
</a>
</g>
</g>
<!-- Node19&#45;&gt;Node2 -->
<g id="edge30_Node000019_Node000002" class="edge">
<title>Node19&#45;&gt;Node2</title>
<g id="a_edge30_Node000019_Node000002"><a xlink:title=" ">
<path fill="none" stroke="#63b8ff" d="M713.19,-127.81C703.53,-130.64 693.64,-133.54 684.23,-136.29"/>
<polygon fill="#63b8ff" stroke="#63b8ff" points="713.91,-131.24 722.53,-125.07 711.95,-124.52 713.91,-131.24"/>
</a>
</g>
</g>
</g>
</svg>

<g id="navigator" transform="translate(0 0)" fill="#404254">
  <rect fill="#f2f5e9" fill-opacity="0.5" stroke="#606060" stroke-width=".5" x="0" y="0" width="60" height="60"/>
  <use id="zoomplus" xlink:href="#zoomPlus" x="17" y="9" onmousedown="handleZoom(evt,'in')"/>
  <use id="zoomminus" xlink:href="#zoomMin" x="42" y="9" onmousedown="handleZoom(evt,'out')"/>
  <use id="reset" xlink:href="#resetDef" x="30" y="36" onmousedown="handleReset()"/>
   <use id="arrowup" xlink:href="#arrowUp" x="0" y="0" onmousedown="handlePan(0,-1)"/>
  <use id="arrowright" xlink:href="#arrowRight" x="0" y="0" onmousedown="handlePan(1,0)"/>
  <use id="arrowdown" xlink:href="#arrowDown" x="0" y="0" onmousedown="handlePan(0,1)"/>
  <use id="arrowleft" xlink:href="#arrowLeft" x="0" y="0" onmousedown="handlePan(-1,0)"/>
</g>
<svg viewBox="0 0 15 15" width="100%" height="30px" preserveAspectRatio="xMaxYMin meet">
 <g id="arrow_out" transform="scale(0.3 0.3)">
  <a xlink:href="classfabomatic_1_1_board_logic_a7b151fca2de8263b021b8b6f26e5d0ab_icgraph_org.svg" target="_base">
   <rect id="button" ry="5" rx="5" y="6" x="6" height="38" width="38"
        fill="#f2f5e9" fill-opacity="0.5" stroke="#606060" stroke-width="1.0"/>
   <path id="arrow"
     d="M 11.500037,31.436501 C 11.940474,20.09759 22.043105,11.32322 32.158766,21.979434 L 37.068811,17.246167 C 37.068811,17.246167 37.088388,32 37.088388,32 L 22.160133,31.978069 C 22.160133,31.978069 26.997745,27.140456 26.997745,27.140456 C 18.528582,18.264221 13.291696,25.230495 11.500037,31.436501 z"
     style="fill:#404040;"/>
  </a>
 </g>
</svg>

<style type='text/css'>
<![CDATA[
[data-mouse-over-selected='false'] { opacity: 0.7; }
[data-mouse-over-selected='true']  { opacity: 1.0; }
]]>
</style>
<script type="application/ecmascript"><![CDATA[
document.addEventListener('DOMContentLoaded', (event) => {
  highlightEdges();
  highlightAdjacentNodes();
});
]]></script>
</svg>
