<?xml version="1.0" encoding="UTF-8" standalone="no"?>
<!DOCTYPE svg PUBLIC "-//W3C//DTD SVG 1.1//EN"
 "http://www.w3.org/Graphics/SVG/1.1/DTD/svg11.dtd">
<!-- Generated by graphviz version 9.0.0 (20230911.1827)
 -->
<!-- Title: fabomatic::MockMrfc522::setUid Pages: 1 -->
<!--zoomable 278 -->

<svg id="main" version="1.1" xmlns="http://www.w3.org/2000/svg" xmlns:xlink="http://www.w3.org/1999/xlink" xml:space="preserve" onload="init(evt)">
<style type="text/css"><![CDATA[
.node, .edge {opacity: 0.7;}
.node.selected, .edge.selected {opacity: 1;}
.edge:hover path { stroke: red; }
.edge:hover polygon { stroke: red; fill: red; }
]]></style>

<defs>
  <circle id="rim" cx="0" cy="0" r="7"/>
  <circle id="rim2" cx="0" cy="0" r="3.5"/>
  <g id="zoomPlus">
    <use xlink:href="#rim" fill="#404040"><set attributeName="fill" to="#808080" begin="zoomplus.mouseover" end="zoomplus.mouseout"/></use>
    <path d="M-4,0h8M0,-4v8" fill="none" stroke="white" stroke-width="1.5" pointer-events="none"/>
  </g>
  <g id="zoomMin">
    <use xlink:href="#rim" fill="#404040"><set attributeName="fill" to="#808080" begin="zoomminus.mouseover" end="zoomminus.mouseout"/></use>
    <path d="M-4,0h8" fill="none" stroke="white" stroke-width="1.5" pointer-events="none"/>
  </g>
  <g id="arrowUp" transform="translate(30 24)">
    <use xlink:href="#rim"/>
    <path pointer-events="none" fill="none" stroke="white" stroke-width="1.5" d="M0,-3.0v7 M-2.5,-0.5L0,-3.0L2.5,-0.5"/>
  </g>
  <g id="arrowRight" transform="rotate(90) translate(36 -43)">
    <use xlink:href="#rim"/>
    <path pointer-events="none" fill="none" stroke="white" stroke-width="1.5" d="M0,-3.0v7 M-2.5,-0.5L0,-3.0L2.5,-0.5"/>
  </g>
  <g id="arrowDown" transform="rotate(180) translate(-30 -48)">
    <use xlink:href="#rim"/>
    <path pointer-events="none" fill="none" stroke="white" stroke-width="1.5" d="M0,-3.0v7 M-2.5,-0.5L0,-3.0L2.5,-0.5"/>
  </g>
  <g id="arrowLeft" transform="rotate(270) translate(-36 17)">
    <use xlink:href="#rim"/>
    <path pointer-events="none" fill="none" stroke="white" stroke-width="1.5" d="M0,-3.0v7 M-2.5,-0.5L0,-3.0L2.5,-0.5"/>
  </g>
  <g id="resetDef">
    <use xlink:href="#rim2" fill="#404040"><set attributeName="fill" to="#808080" begin="reset.mouseover" end="reset.mouseout"/></use>
  </g>
</defs>
<script type="application/ecmascript">
var viewWidth = 704;
var viewHeight = 278;
var sectionId = 'dynsection-4';
</script>
<script type="application/ecmascript" xlink:href="svg.min.js"/>
<svg id="graph" class="graph">
<g id="viewport">
<title>fabomatic::MockMrfc522::setUid</title>
<!-- Node1 -->
<g id="Node000001" class="node">
<title>Node1</title>
<g id="a_Node000001"><a xlink:title=" ">
<polygon fill="#999999" stroke="#666666" points="695.75,-149.5 573.25,-149.5 573.25,-119 695.75,-119 695.75,-149.5"/>
<text text-anchor="start" x="581.25" y="-136" font-family="Helvetica,sans-Serif" font-size="10.00">fabomatic::MockMrfc522</text>
<text text-anchor="middle" x="634.5" y="-124.75" font-family="Helvetica,sans-Serif" font-size="10.00">::setUid</text>
</a>
</g>
</g>
<!-- Node2 -->
<g id="Node000002" class="node">
<title>Node2</title>
<g id="a_Node000002"><a xlink:href="namespacefabomatic_1_1tests.xhtml#a2600320f41c9fa343c66058ecb12b5ee" target="_top" xlink:title="Simulates RFID card tap.">
<polygon fill="white" stroke="#666666" points="537.25,-149.5 411,-149.5 411,-119 537.25,-119 537.25,-149.5"/>
<text text-anchor="start" x="419" y="-136" font-family="Helvetica,sans-Serif" font-size="10.00">fabomatic::tests::simulate</text>
<text text-anchor="middle" x="474.12" y="-124.75" font-family="Helvetica,sans-Serif" font-size="10.00">_rfid_card</text>
</a>
</g>
</g>
<!-- Node1&#45;&gt;Node2 -->
<g id="edge1_Node000001_Node000002" class="edge">
<title>Node1&#45;&gt;Node2</title>
<g id="a_edge1_Node000001_Node000002"><a xlink:title=" ">
<path fill="none" stroke="#63b8ff" d="M561.86,-134.25C553.78,-134.25 545.6,-134.25 537.65,-134.25"/>
<polygon fill="#63b8ff" stroke="#63b8ff" points="561.66,-137.75 571.66,-134.25 561.66,-130.75 561.66,-137.75"/>
</a>
</g>
</g>
<!-- Node3 -->
<g id="Node000003" class="node">
<title>Node3</title>
<g id="a_Node000003"><a xlink:href="namespacefabomatic_1_1tests.xhtml#a6a7645a865dc822746f972ea6f43224d" target="_top" xlink:title="Resets machine to initial state, clearing flags.">
<polygon fill="white" stroke="#666666" points="375,-143.88 230.75,-143.88 230.75,-124.62 375,-124.62 375,-143.88"/>
<text text-anchor="middle" x="302.88" y="-130.38" font-family="Helvetica,sans-Serif" font-size="10.00">fabomatic::tests::machine_init</text>
</a>
</g>
</g>
<!-- Node2&#45;&gt;Node3 -->
<g id="edge2_Node000002_Node000003" class="edge">
<title>Node2&#45;&gt;Node3</title>
<g id="a_edge2_Node000002_Node000003"><a xlink:title=" ">
<path fill="none" stroke="#63b8ff" d="M399.12,-134.25C391.21,-134.25 383.18,-134.25 375.3,-134.25"/>
<polygon fill="#63b8ff" stroke="#63b8ff" points="399.07,-137.75 409.07,-134.25 399.07,-130.75 399.07,-137.75"/>
</a>
</g>
</g>
<!-- Node4 -->
<g id="Node000004" class="node">
<title>Node4</title>
<g id="a_Node000004"><a xlink:href="namespacefabomatic_1_1tests.xhtml#a558e2287db01a4622581246a19dac397" target="_top" xlink:title=" ">
<polygon fill="white" stroke="#666666" points="188.38,-269.5 82.38,-269.5 82.38,-239 188.38,-239 188.38,-269.5"/>
<text text-anchor="start" x="90.38" y="-256" font-family="Helvetica,sans-Serif" font-size="10.00">fabomatic::tests::test</text>
<text text-anchor="middle" x="135.38" y="-244.75" font-family="Helvetica,sans-Serif" font-size="10.00">_machine_allowed</text>
</a>
</g>
</g>
<!-- Node2&#45;&gt;Node4 -->
<g id="edge13_Node000002_Node000004" class="edge">
<title>Node2&#45;&gt;Node4</title>
<g id="a_edge13_Node000002_Node000004"><a xlink:title=" ">
<path fill="none" stroke="#63b8ff" d="M443.16,-156.33C424.39,-169.27 399.24,-185.02 375,-195.25 313.47,-221.21 237.99,-237.48 188.61,-246.21"/>
<polygon fill="#63b8ff" stroke="#63b8ff" points="444.95,-159.35 451.12,-150.74 440.93,-153.62 444.95,-159.35"/>
</a>
</g>
</g>
<!-- Node6 -->
<g id="Node000006" class="node">
<title>Node6</title>
<g id="a_Node000006"><a xlink:href="namespacefabomatic_1_1tests.xhtml#a9a34631c2dc01cbdbbce146895c94e12" target="_top" xlink:title=" ">
<polygon fill="white" stroke="#666666" points="194.75,-220.5 76,-220.5 76,-190 194.75,-190 194.75,-220.5"/>
<text text-anchor="start" x="84" y="-207" font-family="Helvetica,sans-Serif" font-size="10.00">fabomatic::tests::test</text>
<text text-anchor="middle" x="135.38" y="-195.75" font-family="Helvetica,sans-Serif" font-size="10.00">_machine_maintenance</text>
</a>
</g>
</g>
<!-- Node2&#45;&gt;Node6 -->
<g id="edge14_Node000002_Node000006" class="edge">
<title>Node2&#45;&gt;Node6</title>
<g id="a_edge14_Node000002_Node000006"><a xlink:title=" ">
<path fill="none" stroke="#63b8ff" d="M424.09,-153.83C408.58,-159.46 391.25,-165.17 375,-169.25 314.46,-184.46 243.55,-194.16 194.86,-199.61"/>
<polygon fill="#63b8ff" stroke="#63b8ff" points="424.93,-157.26 433.08,-150.5 422.49,-150.69 424.93,-157.26"/>
</a>
</g>
</g>
<!-- Node7 -->
<g id="Node000007" class="node">
<title>Node7</title>
<g id="a_Node000007"><a xlink:href="namespacefabomatic_1_1tests.xhtml#a6f3dff17fd964aba76c35c514957a0a5" target="_top" xlink:title=" ">
<polygon fill="white" stroke="#666666" points="189.88,-171.5 80.88,-171.5 80.88,-141 189.88,-141 189.88,-171.5"/>
<text text-anchor="start" x="88.88" y="-158" font-family="Helvetica,sans-Serif" font-size="10.00">fabomatic::tests::test</text>
<text text-anchor="middle" x="135.38" y="-146.75" font-family="Helvetica,sans-Serif" font-size="10.00">_one_user_at_a_time</text>
</a>
</g>
</g>
<!-- Node2&#45;&gt;Node7 -->
<g id="edge17_Node000002_Node000007" class="edge">
<title>Node2&#45;&gt;Node7</title>
<g id="a_edge17_Node000002_Node000007"><a xlink:title=" ">
<path fill="none" stroke="#63b8ff" d="M399.43,-149.99C391.22,-151.3 382.95,-152.44 375,-153.25 311.73,-159.72 238.54,-159.51 190.08,-158.3"/>
<polygon fill="#63b8ff" stroke="#63b8ff" points="399.79,-153.47 409.07,-148.35 398.62,-146.57 399.79,-153.47"/>
</a>
</g>
</g>
<!-- Node8 -->
<g id="Node000008" class="node">
<title>Node8</title>
<g id="a_Node000008"><a xlink:href="namespacefabomatic_1_1tests.xhtml#afa92fef9250d918ee02c79dbf2de2546" target="_top" xlink:title=" ">
<polygon fill="white" stroke="#666666" points="188.38,-122.5 82.38,-122.5 82.38,-92 188.38,-92 188.38,-122.5"/>
<text text-anchor="start" x="90.38" y="-109" font-family="Helvetica,sans-Serif" font-size="10.00">fabomatic::tests::test</text>
<text text-anchor="middle" x="135.38" y="-97.75" font-family="Helvetica,sans-Serif" font-size="10.00">_user_autologoff</text>
</a>
</g>
</g>
<!-- Node2&#45;&gt;Node8 -->
<g id="edge18_Node000002_Node000008" class="edge">
<title>Node2&#45;&gt;Node8</title>
<g id="a_edge18_Node000002_Node000008"><a xlink:title=" ">
<path fill="none" stroke="#63b8ff" d="M399.41,-118.68C391.2,-117.34 382.94,-116.15 375,-115.25 311.16,-108.04 237.14,-106.63 188.68,-106.64"/>
<polygon fill="#63b8ff" stroke="#63b8ff" points="398.59,-122.09 409.04,-120.35 399.79,-115.2 398.59,-122.09"/>
</a>
</g>
</g>
<!-- Node9 -->
<g id="Node000009" class="node">
<title>Node9</title>
<g id="a_Node000009"><a xlink:href="namespacefabomatic_1_1tests.xhtml#aab0f4e1439b281ffef8be51db9a81f9d" target="_top" xlink:title=" ">
<polygon fill="white" stroke="#666666" points="191.75,-73.5 79,-73.5 79,-43 191.75,-43 191.75,-73.5"/>
<text text-anchor="start" x="87" y="-60" font-family="Helvetica,sans-Serif" font-size="10.00">fabomatic::tests::test</text>
<text text-anchor="middle" x="135.38" y="-48.75" font-family="Helvetica,sans-Serif" font-size="10.00">_whitelist_no_network</text>
</a>
</g>
</g>
<!-- Node2&#45;&gt;Node9 -->
<g id="edge19_Node000002_Node000009" class="edge">
<title>Node2&#45;&gt;Node9</title>
<g id="a_edge19_Node000002_Node000009"><a xlink:title=" ">
<path fill="none" stroke="#63b8ff" d="M418.94,-115.16C404.75,-110.55 389.39,-105.91 375,-102.25 312.94,-86.48 240.45,-73.93 191.8,-66.33"/>
<polygon fill="#63b8ff" stroke="#63b8ff" points="417.5,-118.37 428.09,-118.18 419.69,-111.72 417.5,-118.37"/>
</a>
</g>
</g>
<!-- Node10 -->
<g id="Node000010" class="node">
<title>Node10</title>
<g id="a_Node000010"><a xlink:href="namespacefabomatic_1_1tests.xhtml#af8fa7ace86309b5f699540d8898660c7" target="_top" xlink:title=" ">
<polygon fill="white" stroke="#666666" points="355.88,-30.5 249.88,-30.5 249.88,0 355.88,0 355.88,-30.5"/>
<text text-anchor="start" x="257.88" y="-17" font-family="Helvetica,sans-Serif" font-size="10.00">fabomatic::tests::test</text>
<text text-anchor="middle" x="302.88" y="-5.75" font-family="Helvetica,sans-Serif" font-size="10.00">_messages_buffered</text>
</a>
</g>
</g>
<!-- Node2&#45;&gt;Node10 -->
<g id="edge15_Node000002_Node000010" class="edge">
<title>Node2&#45;&gt;Node10</title>
<g id="a_edge15_Node000002_Node000010"><a xlink:title=" ">
<path fill="none" stroke="#63b8ff" d="M451.91,-110.56C433.21,-90.77 404.43,-62.89 375,-44.25 367,-39.18 357.97,-34.7 349.09,-30.86"/>
<polygon fill="#63b8ff" stroke="#63b8ff" points="449.12,-112.7 458.49,-117.64 454.25,-107.93 449.12,-112.7"/>
</a>
</g>
</g>
<!-- Node3&#45;&gt;Node4 -->
<g id="edge3_Node000003_Node000004" class="edge">
<title>Node3&#45;&gt;Node4</title>
<g id="a_edge3_Node000003_Node000004"><a xlink:title=" ">
<path fill="none" stroke="#63b8ff" d="M284.84,-152.56C264.82,-173.27 229.86,-206.99 194.75,-229.25 189.44,-232.61 183.6,-235.72 177.74,-238.52"/>
<polygon fill="#63b8ff" stroke="#63b8ff" points="287.29,-155.06 291.65,-145.4 282.22,-150.23 287.29,-155.06"/>
</a>
</g>
</g>
<!-- Node3&#45;&gt;Node6 -->
<g id="edge5_Node000003_Node000006" class="edge">
<title>Node3&#45;&gt;Node6</title>
<g id="a_edge5_Node000003_Node000006"><a xlink:title=" ">
<path fill="none" stroke="#63b8ff" d="M268.1,-148.76C247.02,-157.82 219.3,-169.72 194.75,-180.25 187.76,-183.25 180.3,-186.45 173.12,-189.52"/>
<polygon fill="#63b8ff" stroke="#63b8ff" points="269.28,-152.07 277.08,-144.9 266.51,-145.64 269.28,-152.07"/>
</a>
</g>
</g>
<!-- Node3&#45;&gt;Node7 -->
<g id="edge7_Node000003_Node000007" class="edge">
<title>Node3&#45;&gt;Node7</title>
<g id="a_edge7_Node000003_Node000007"><a xlink:title=" ">
<path fill="none" stroke="#63b8ff" d="M219.52,-145.2C209.57,-146.52 199.61,-147.84 190.22,-149.09"/>
<polygon fill="#63b8ff" stroke="#63b8ff" points="219.78,-148.69 229.23,-143.91 218.85,-141.76 219.78,-148.69"/>
</a>
</g>
</g>
<!-- Node3&#45;&gt;Node8 -->
<g id="edge9_Node000003_Node000008" class="edge">
<title>Node3&#45;&gt;Node8</title>
<g id="a_edge9_Node000003_Node000008"><a xlink:title=" ">
<path fill="none" stroke="#63b8ff" d="M229,-122.36C215.48,-120.15 201.59,-117.89 188.83,-115.81"/>
<polygon fill="#63b8ff" stroke="#63b8ff" points="228.32,-125.8 238.76,-123.95 229.45,-118.89 228.32,-125.8"/>
</a>
</g>
</g>
<!-- Node3&#45;&gt;Node9 -->
<g id="edge11_Node000003_Node000009" class="edge">
<title>Node3&#45;&gt;Node9</title>
<g id="a_edge11_Node000003_Node000009"><a xlink:title=" ">
<path fill="none" stroke="#63b8ff" d="M271.36,-119.33C250.01,-108.98 220.76,-95.01 194.75,-83.25 187.92,-80.16 180.6,-76.95 173.53,-73.9"/>
<polygon fill="#63b8ff" stroke="#63b8ff" points="269.57,-122.35 280.09,-123.57 272.63,-116.05 269.57,-122.35"/>
</a>
</g>
</g>
<!-- Node5 -->
<g id="Node000005" class="node">
<title>Node5</title>
<g id="a_Node000005"><a xlink:href="test__logic_8cpp.xhtml#a4fc01d736fe50cf5b977f755b675f11d" target="_top" xlink:title=" ">
<polygon fill="white" stroke="#666666" points="40,-140.88 0,-140.88 0,-121.62 40,-121.62 40,-140.88"/>
<text text-anchor="middle" x="20" y="-127.38" font-family="Helvetica,sans-Serif" font-size="10.00">setup</text>
</a>
</g>
</g>
<!-- Node4&#45;&gt;Node5 -->
<g id="edge4_Node000004_Node000005" class="edge">
<title>Node4&#45;&gt;Node5</title>
<g id="a_edge4_Node000004_Node000005"><a xlink:title=" ">
<path fill="none" stroke="#63b8ff" d="M79.85,-232.44C78.52,-231.42 77.23,-230.36 76,-229.25 47.85,-203.95 30.78,-160.72 24.16,-141.26"/>
<polygon fill="#63b8ff" stroke="#63b8ff" points="77.64,-235.17 87.92,-237.73 81.48,-229.32 77.64,-235.17"/>
</a>
</g>
</g>
<!-- Node6&#45;&gt;Node5 -->
<g id="edge6_Node000006_Node000005" class="edge">
<title>Node6&#45;&gt;Node5</title>
<g id="a_edge6_Node000006_Node000005"><a xlink:title=" ">
<path fill="none" stroke="#63b8ff" d="M82.96,-184.37C80.57,-183.05 78.24,-181.67 76,-180.25 58.3,-169 40.71,-152.05 30.35,-141.33"/>
<polygon fill="#63b8ff" stroke="#63b8ff" points="81.17,-187.39 91.66,-188.84 84.36,-181.16 81.17,-187.39"/>
</a>
</g>
</g>
<!-- Node7&#45;&gt;Node5 -->
<g id="edge8_Node000007_Node000005" class="edge">
<title>Node7&#45;&gt;Node5</title>
<g id="a_edge8_Node000007_Node000005"><a xlink:title=" ">
<path fill="none" stroke="#63b8ff" d="M69.53,-141.95C58.91,-139.61 48.69,-137.35 40.38,-135.52"/>
<polygon fill="#63b8ff" stroke="#63b8ff" points="68.68,-145.35 79.2,-144.08 70.19,-138.51 68.68,-145.35"/>
</a>
</g>
</g>
<!-- Node8&#45;&gt;Node5 -->
<g id="edge10_Node000008_Node000005" class="edge">
<title>Node8&#45;&gt;Node5</title>
<g id="a_edge10_Node000008_Node000005"><a xlink:title=" ">
<path fill="none" stroke="#63b8ff" d="M70.85,-120.7C59.76,-123.05 49.01,-125.32 40.36,-127.15"/>
<polygon fill="#63b8ff" stroke="#63b8ff" points="71.46,-124.15 80.52,-118.65 70.01,-117.3 71.46,-124.15"/>
</a>
</g>
</g>
<!-- Node9&#45;&gt;Node5 -->
<g id="edge12_Node000009_Node000005" class="edge">
<title>Node9&#45;&gt;Node5</title>
<g id="a_edge12_Node000009_Node000005"><a xlink:title=" ">
<path fill="none" stroke="#63b8ff" d="M83.1,-79.09C80.66,-80.43 78.28,-81.81 76,-83.25 58.4,-94.31 40.78,-110.9 30.39,-121.39"/>
<polygon fill="#63b8ff" stroke="#63b8ff" points="84.67,-82.21 92,-74.56 81.5,-75.98 84.67,-82.21"/>
</a>
</g>
</g>
<!-- Node10&#45;&gt;Node5 -->
<g id="edge16_Node000010_Node000005" class="edge">
<title>Node10&#45;&gt;Node5</title>
<g id="a_edge16_Node000010_Node000005"><a xlink:title=" ">
<path fill="none" stroke="#63b8ff" d="M238.29,-5.51C190.03,-1.48 124.02,-3.51 76,-34.25 44.04,-54.71 28.78,-100.7 23.38,-121.13"/>
<polygon fill="#63b8ff" stroke="#63b8ff" points="237.75,-8.97 248.03,-6.44 238.41,-2 237.75,-8.97"/>
</a>
</g>
</g>
</g>
</svg>

<g id="navigator" transform="translate(0 0)" fill="#404254">
  <rect fill="#f2f5e9" fill-opacity="0.5" stroke="#606060" stroke-width=".5" x="0" y="0" width="60" height="60"/>
  <use id="zoomplus" xlink:href="#zoomPlus" x="17" y="9" onmousedown="handleZoom(evt,'in')"/>
  <use id="zoomminus" xlink:href="#zoomMin" x="42" y="9" onmousedown="handleZoom(evt,'out')"/>
  <use id="reset" xlink:href="#resetDef" x="30" y="36" onmousedown="handleReset()"/>
   <use id="arrowup" xlink:href="#arrowUp" x="0" y="0" onmousedown="handlePan(0,-1)"/>
  <use id="arrowright" xlink:href="#arrowRight" x="0" y="0" onmousedown="handlePan(1,0)"/>
  <use id="arrowdown" xlink:href="#arrowDown" x="0" y="0" onmousedown="handlePan(0,1)"/>
  <use id="arrowleft" xlink:href="#arrowLeft" x="0" y="0" onmousedown="handlePan(-1,0)"/>
</g>
<svg viewBox="0 0 15 15" width="100%" height="30px" preserveAspectRatio="xMaxYMin meet">
 <g id="arrow_out" transform="scale(0.3 0.3)">
  <a xlink:href="classfabomatic_1_1_mock_mrfc522_aa5243105821375118132fe7a3e5d7ea3_icgraph_org.svg" target="_base">
   <rect id="button" ry="5" rx="5" y="6" x="6" height="38" width="38"
        fill="#f2f5e9" fill-opacity="0.5" stroke="#606060" stroke-width="1.0"/>
   <path id="arrow"
     d="M 11.500037,31.436501 C 11.940474,20.09759 22.043105,11.32322 32.158766,21.979434 L 37.068811,17.246167 C 37.068811,17.246167 37.088388,32 37.088388,32 L 22.160133,31.978069 C 22.160133,31.978069 26.997745,27.140456 26.997745,27.140456 C 18.528582,18.264221 13.291696,25.230495 11.500037,31.436501 z"
     style="fill:#404040;"/>
  </a>
 </g>
</svg>

<style type='text/css'>
<![CDATA[
[data-mouse-over-selected='false'] { opacity: 0.7; }
[data-mouse-over-selected='true']  { opacity: 1.0; }
]]>
</style>
<script type="application/ecmascript"><![CDATA[
document.addEventListener('DOMContentLoaded', (event) => {
  highlightEdges();
  highlightAdjacentNodes();
});
]]></script>
</svg>
