<?xml version="1.0" encoding="UTF-8" standalone="no"?>
<!DOCTYPE svg PUBLIC "-//W3C//DTD SVG 1.1//EN"
 "http://www.w3.org/Graphics/SVG/1.1/DTD/svg11.dtd">
<!-- Generated by graphviz version 9.0.0 (20230911.1827)
 -->
<!-- Title: fabomatic::Machine::getPowerState Pages: 1 -->
<svg width="1519pt" height="562pt"
 viewBox="0.00 0.00 1518.75 561.50" xmlns="http://www.w3.org/2000/svg" xmlns:xlink="http://www.w3.org/1999/xlink">
<g id="graph0" class="graph" transform="scale(1 1) rotate(0) translate(4 557.5)">
<title>fabomatic::Machine::getPowerState</title>
<!-- Node1 -->
<g id="Node000001" class="node">
<title>Node1</title>
<g id="a_Node000001"><a xlink:title="Returns the current power state of the machine.">
<polygon fill="#999999" stroke="#666666" points="1510.75,-116.5 1410.75,-116.5 1410.75,-86 1510.75,-86 1510.75,-116.5"/>
<text text-anchor="start" x="1418.75" y="-103" font-family="Helvetica,sans-Serif" font-size="10.00">fabomatic::Machine</text>
<text text-anchor="middle" x="1460.75" y="-91.75" font-family="Helvetica,sans-Serif" font-size="10.00">::getPowerState</text>
</a>
</g>
</g>
<!-- Node2 -->
<g id="Node000002" class="node">
<title>Node2</title>
<g id="a_Node000002"><a xlink:href="classfabomatic_1_1_board_logic.xhtml#a420a0d05a91a02c27ad3b63a030738a0" target="_top" xlink:title="Asks the user to keep the RFID tag on the reader as confirmation.">
<polygon fill="white" stroke="#666666" points="1226,-49.5 1113.25,-49.5 1113.25,-19 1226,-19 1226,-49.5"/>
<text text-anchor="start" x="1121.25" y="-36" font-family="Helvetica,sans-Serif" font-size="10.00">fabomatic::BoardLogic</text>
<text text-anchor="middle" x="1169.62" y="-24.75" font-family="Helvetica,sans-Serif" font-size="10.00">::longTap</text>
</a>
</g>
</g>
<!-- Node1&#45;&gt;Node2 -->
<g id="edge1_Node000001_Node000002" class="edge">
<title>Node1&#45;&gt;Node2</title>
<g id="a_edge1_Node000001_Node000002"><a xlink:title=" ">
<path fill="none" stroke="#63b8ff" d="M1399.63,-83.73C1391.29,-81.46 1382.83,-79.24 1374.75,-77.25 1324.81,-64.96 1267.47,-53.07 1226.3,-44.92"/>
<polygon fill="#63b8ff" stroke="#63b8ff" points="1398.43,-87.03 1409,-86.32 1400.29,-80.28 1398.43,-87.03"/>
</a>
</g>
</g>
<!-- Node19 -->
<g id="Node000019" class="node">
<title>Node19</title>
<g id="a_Node000019"><a xlink:href="classfabomatic_1_1_machine.xhtml#a39fbf9cad912d735cf84b75c0674646f" target="_top" xlink:title=" ">
<polygon fill="white" stroke="#666666" points="1368.38,-116.5 1268.38,-116.5 1268.38,-86 1368.38,-86 1368.38,-116.5"/>
<text text-anchor="start" x="1276.38" y="-103" font-family="Helvetica,sans-Serif" font-size="10.00">fabomatic::Machine</text>
<text text-anchor="middle" x="1318.38" y="-91.75" font-family="Helvetica,sans-Serif" font-size="10.00">::toString</text>
</a>
</g>
</g>
<!-- Node1&#45;&gt;Node19 -->
<g id="edge30_Node000001_Node000019" class="edge">
<title>Node1&#45;&gt;Node19</title>
<g id="a_edge30_Node000001_Node000019"><a xlink:title=" ">
<path fill="none" stroke="#63b8ff" d="M1398.91,-101.25C1388.72,-101.25 1378.27,-101.25 1368.42,-101.25"/>
<polygon fill="#63b8ff" stroke="#63b8ff" points="1398.75,-104.75 1408.75,-101.25 1398.75,-97.75 1398.75,-104.75"/>
</a>
</g>
</g>
<!-- Node24 -->
<g id="Node000024" class="node">
<title>Node24</title>
<g id="a_Node000024"><a xlink:href="classfabomatic_1_1_board_logic.xhtml#a47b4d515c0d3488eceb49769036bce8b" target="_top" xlink:title="Updates the LCD screen as per the current status.">
<polygon fill="white" stroke="#666666" points="1374.75,-320.5 1262,-320.5 1262,-290 1374.75,-290 1374.75,-320.5"/>
<text text-anchor="start" x="1270" y="-307" font-family="Helvetica,sans-Serif" font-size="10.00">fabomatic::BoardLogic</text>
<text text-anchor="middle" x="1318.38" y="-295.75" font-family="Helvetica,sans-Serif" font-size="10.00">::updateLCD</text>
</a>
</g>
</g>
<!-- Node1&#45;&gt;Node24 -->
<g id="edge36_Node000001_Node000024" class="edge">
<title>Node1&#45;&gt;Node24</title>
<g id="a_edge36_Node000001_Node000024"><a xlink:title=" ">
<path fill="none" stroke="#63b8ff" d="M1442.52,-126.29C1413.19,-168.91 1354.42,-254.32 1330.19,-289.53"/>
<polygon fill="#63b8ff" stroke="#63b8ff" points="1445.32,-128.39 1448.11,-118.17 1439.56,-124.42 1445.32,-128.39"/>
</a>
</g>
</g>
<!-- Node3 -->
<g id="Node000003" class="node">
<title>Node3</title>
<g id="a_Node000003"><a xlink:href="classfabomatic_1_1_board_logic.xhtml#a51390e6bf10c4de427abd7f175a2e6a8" target="_top" xlink:title="Checks if the card UID is valid, and tries to check the user in to the machine.">
<polygon fill="white" stroke="#666666" points="1055.88,-30.5 943.12,-30.5 943.12,0 1055.88,0 1055.88,-30.5"/>
<text text-anchor="start" x="951.12" y="-17" font-family="Helvetica,sans-Serif" font-size="10.00">fabomatic::BoardLogic</text>
<text text-anchor="middle" x="999.5" y="-5.75" font-family="Helvetica,sans-Serif" font-size="10.00">::authorize</text>
</a>
</g>
</g>
<!-- Node2&#45;&gt;Node3 -->
<g id="edge2_Node000002_Node000003" class="edge">
<title>Node2&#45;&gt;Node3</title>
<g id="a_edge2_Node000002_Node000003"><a xlink:title=" ">
<path fill="none" stroke="#63b8ff" d="M1101.76,-26.69C1086.67,-24.99 1070.82,-23.2 1056.25,-21.55"/>
<polygon fill="#63b8ff" stroke="#63b8ff" points="1101.27,-30.16 1111.6,-27.81 1102.06,-23.21 1101.27,-30.16"/>
</a>
</g>
</g>
<!-- Node4 -->
<g id="Node000004" class="node">
<title>Node4</title>
<g id="a_Node000004"><a xlink:href="classfabomatic_1_1_board_logic.xhtml#a983c8de8b9c8881fc0a4e60dddc7f0c6" target="_top" xlink:title="Called when a RFID tag has been detected.">
<polygon fill="white" stroke="#666666" points="873.75,-73.5 761,-73.5 761,-43 873.75,-43 873.75,-73.5"/>
<text text-anchor="start" x="769" y="-60" font-family="Helvetica,sans-Serif" font-size="10.00">fabomatic::BoardLogic</text>
<text text-anchor="middle" x="817.38" y="-48.75" font-family="Helvetica,sans-Serif" font-size="10.00">::onNewCard</text>
</a>
</g>
</g>
<!-- Node3&#45;&gt;Node4 -->
<g id="edge3_Node000003_Node000004" class="edge">
<title>Node3&#45;&gt;Node4</title>
<g id="a_edge3_Node000003_Node000004"><a xlink:title=" ">
<path fill="none" stroke="#63b8ff" d="M931.97,-31.13C912.91,-35.68 892.34,-40.59 874.01,-44.97"/>
<polygon fill="#63b8ff" stroke="#63b8ff" points="932.6,-34.58 941.51,-28.85 930.98,-27.77 932.6,-34.58"/>
</a>
</g>
</g>
<!-- Node13 -->
<g id="Node000013" class="node">
<title>Node13</title>
<g id="a_Node000013"><a xlink:href="namespacefabomatic_1_1tests.xhtml#aab0f4e1439b281ffef8be51db9a81f9d" target="_top" xlink:title=" ">
<polygon fill="white" stroke="#666666" points="191.75,-125.5 79,-125.5 79,-95 191.75,-95 191.75,-125.5"/>
<text text-anchor="start" x="87" y="-112" font-family="Helvetica,sans-Serif" font-size="10.00">fabomatic::tests::test</text>
<text text-anchor="middle" x="135.38" y="-100.75" font-family="Helvetica,sans-Serif" font-size="10.00">_whitelist_no_network</text>
</a>
</g>
</g>
<!-- Node3&#45;&gt;Node13 -->
<g id="edge29_Node000003_Node000013" class="edge">
<title>Node3&#45;&gt;Node13</title>
<g id="a_edge29_Node000003_Node000013"><a xlink:title=" ">
<path fill="none" stroke="#63b8ff" d="M931.17,-15.25C859.88,-15.25 744.07,-15.25 644.12,-15.25 644.12,-15.25 644.12,-15.25 473.12,-15.25 364.88,-15.25 331.6,0.08 230.75,-39.25 199.04,-51.62 168.77,-77.8 151.41,-94.68"/>
<polygon fill="#63b8ff" stroke="#63b8ff" points="931.13,-18.75 941.13,-15.25 931.13,-11.75 931.13,-18.75"/>
</a>
</g>
</g>
<!-- Node5 -->
<g id="Node000005" class="node">
<title>Node5</title>
<g id="a_Node000005"><a xlink:href="classfabomatic_1_1_board_logic.xhtml#a25bdc3a49d850aa49f92faf951b68efb" target="_top" xlink:title="Checks if a new card is present.">
<polygon fill="white" stroke="#666666" points="699.5,-172.5 586.75,-172.5 586.75,-142 699.5,-142 699.5,-172.5"/>
<text text-anchor="start" x="594.75" y="-159" font-family="Helvetica,sans-Serif" font-size="10.00">fabomatic::BoardLogic</text>
<text text-anchor="middle" x="643.12" y="-147.75" font-family="Helvetica,sans-Serif" font-size="10.00">::checkRfid</text>
</a>
</g>
</g>
<!-- Node4&#45;&gt;Node5 -->
<g id="edge4_Node000004_Node000005" class="edge">
<title>Node4&#45;&gt;Node5</title>
<g id="a_edge4_Node000004_Node000005"><a xlink:title=" ">
<path fill="none" stroke="#63b8ff" d="M779.49,-79.45C747.01,-98.12 700.47,-124.87 671.29,-141.64"/>
<polygon fill="#63b8ff" stroke="#63b8ff" points="780.84,-82.71 787.77,-74.69 777.36,-76.64 780.84,-82.71"/>
</a>
</g>
</g>
<!-- Node6 -->
<g id="Node000006" class="node">
<title>Node6</title>
<g id="a_Node000006"><a xlink:href="namespacefabomatic_1_1tests.xhtml#a2600320f41c9fa343c66058ecb12b5ee" target="_top" xlink:title="Simulates RFID card tap.">
<polygon fill="white" stroke="#666666" points="537.25,-258.5 411,-258.5 411,-228 537.25,-228 537.25,-258.5"/>
<text text-anchor="start" x="419" y="-245" font-family="Helvetica,sans-Serif" font-size="10.00">fabomatic::tests::simulate</text>
<text text-anchor="middle" x="474.12" y="-233.75" font-family="Helvetica,sans-Serif" font-size="10.00">_rfid_card</text>
</a>
</g>
</g>
<!-- Node5&#45;&gt;Node6 -->
<g id="edge5_Node000005_Node000006" class="edge">
<title>Node5&#45;&gt;Node6</title>
<g id="a_edge5_Node000005_Node000006"><a xlink:title=" ">
<path fill="none" stroke="#63b8ff" d="M601.87,-177.98C572.3,-193.21 532.72,-213.59 505.71,-227.5"/>
<polygon fill="#63b8ff" stroke="#63b8ff" points="603.25,-181.21 610.54,-173.52 600.04,-174.98 603.25,-181.21"/>
</a>
</g>
</g>
<!-- Node5&#45;&gt;Node13 -->
<g id="edge28_Node000005_Node000013" class="edge">
<title>Node5&#45;&gt;Node13</title>
<g id="a_edge28_Node000005_Node000013"><a xlink:title=" ">
<path fill="none" stroke="#63b8ff" d="M575.5,-144.34C562.83,-142.13 549.65,-139.98 537.25,-138.25 414.78,-121.15 269.72,-114.3 192.07,-111.71"/>
<polygon fill="#63b8ff" stroke="#63b8ff" points="574.52,-147.72 584.98,-146.04 575.75,-140.83 574.52,-147.72"/>
</a>
</g>
</g>
<!-- Node17 -->
<g id="Node000017" class="node">
<title>Node17</title>
<g id="a_Node000017"><a xlink:href="namespacefabomatic.xhtml#a3e5c190499522bddad3f3cc69274f16c" target="_top" xlink:title="periodic check for new RFID card">
<polygon fill="white" stroke="#666666" points="537.25,-166.88 411,-166.88 411,-147.62 537.25,-147.62 537.25,-166.88"/>
<text text-anchor="middle" x="474.12" y="-153.38" font-family="Helvetica,sans-Serif" font-size="10.00">fabomatic::taskCheckRfid</text>
</a>
</g>
</g>
<!-- Node5&#45;&gt;Node17 -->
<g id="edge26_Node000005_Node000017" class="edge">
<title>Node5&#45;&gt;Node17</title>
<g id="a_edge26_Node000005_Node000017"><a xlink:title=" ">
<path fill="none" stroke="#63b8ff" d="M575.3,-157.25C562.89,-157.25 549.97,-157.25 537.69,-157.25"/>
<polygon fill="#63b8ff" stroke="#63b8ff" points="575,-160.75 585,-157.25 575,-153.75 575,-160.75"/>
</a>
</g>
</g>
<!-- Node18 -->
<g id="Node000018" class="node">
<title>Node18</title>
<g id="a_Node000018"><a xlink:href="namespacefabomatic_1_1tests.xhtml#a294b4767ecf1e1d11cc31dafb2541d23" target="_top" xlink:title="periodic check for new RFID card">
<polygon fill="white" stroke="#666666" points="527.12,-307.5 421.12,-307.5 421.12,-277 527.12,-277 527.12,-307.5"/>
<text text-anchor="start" x="429.12" y="-294" font-family="Helvetica,sans-Serif" font-size="10.00">fabomatic::tests::test</text>
<text text-anchor="middle" x="474.12" y="-282.75" font-family="Helvetica,sans-Serif" font-size="10.00">_taskCheckRfid</text>
</a>
</g>
</g>
<!-- Node5&#45;&gt;Node18 -->
<g id="edge27_Node000005_Node000018" class="edge">
<title>Node5&#45;&gt;Node18</title>
<g id="a_edge27_Node000005_Node000018"><a xlink:title=" ">
<path fill="none" stroke="#63b8ff" d="M623.92,-181.75C604.69,-206.2 572.34,-243.46 537.25,-267.25 532.15,-270.71 526.5,-273.81 520.74,-276.54"/>
<polygon fill="#63b8ff" stroke="#63b8ff" points="626.6,-184.01 629.94,-173.95 621.06,-179.73 626.6,-184.01"/>
</a>
</g>
</g>
<!-- Node7 -->
<g id="Node000007" class="node">
<title>Node7</title>
<g id="a_Node000007"><a xlink:href="namespacefabomatic_1_1tests.xhtml#a6a7645a865dc822746f972ea6f43224d" target="_top" xlink:title="Resets machine to initial state, clearing flags.">
<polygon fill="white" stroke="#666666" points="375,-214.88 230.75,-214.88 230.75,-195.62 375,-195.62 375,-214.88"/>
<text text-anchor="middle" x="302.88" y="-201.38" font-family="Helvetica,sans-Serif" font-size="10.00">fabomatic::tests::machine_init</text>
</a>
</g>
</g>
<!-- Node6&#45;&gt;Node7 -->
<g id="edge6_Node000006_Node000007" class="edge">
<title>Node6&#45;&gt;Node7</title>
<g id="a_edge6_Node000006_Node000007"><a xlink:title=" ">
<path fill="none" stroke="#63b8ff" d="M399.37,-226.69C382.12,-222.82 364.26,-218.81 348.72,-215.32"/>
<polygon fill="#63b8ff" stroke="#63b8ff" points="398.58,-230.1 409.11,-228.88 400.12,-223.27 398.58,-230.1"/>
</a>
</g>
</g>
<!-- Node8 -->
<g id="Node000008" class="node">
<title>Node8</title>
<g id="a_Node000008"><a xlink:href="namespacefabomatic_1_1tests.xhtml#a558e2287db01a4622581246a19dac397" target="_top" xlink:title=" ">
<polygon fill="white" stroke="#666666" points="188.38,-296.5 82.38,-296.5 82.38,-266 188.38,-266 188.38,-296.5"/>
<text text-anchor="start" x="90.38" y="-283" font-family="Helvetica,sans-Serif" font-size="10.00">fabomatic::tests::test</text>
<text text-anchor="middle" x="135.38" y="-271.75" font-family="Helvetica,sans-Serif" font-size="10.00">_machine_allowed</text>
</a>
</g>
</g>
<!-- Node6&#45;&gt;Node8 -->
<g id="edge19_Node000006_Node000008" class="edge">
<title>Node6&#45;&gt;Node8</title>
<g id="a_edge19_Node000006_Node000008"><a xlink:title=" ">
<path fill="none" stroke="#63b8ff" d="M399.4,-251.57C335.67,-258.76 245.16,-268.97 188.65,-275.35"/>
<polygon fill="#63b8ff" stroke="#63b8ff" points="399.53,-255.08 409.07,-250.48 398.74,-248.12 399.53,-255.08"/>
</a>
</g>
</g>
<!-- Node10 -->
<g id="Node000010" class="node">
<title>Node10</title>
<g id="a_Node000010"><a xlink:href="namespacefabomatic_1_1tests.xhtml#a9a34631c2dc01cbdbbce146895c94e12" target="_top" xlink:title=" ">
<polygon fill="white" stroke="#666666" points="194.75,-247.5 76,-247.5 76,-217 194.75,-217 194.75,-247.5"/>
<text text-anchor="start" x="84" y="-234" font-family="Helvetica,sans-Serif" font-size="10.00">fabomatic::tests::test</text>
<text text-anchor="middle" x="135.38" y="-222.75" font-family="Helvetica,sans-Serif" font-size="10.00">_machine_maintenance</text>
</a>
</g>
</g>
<!-- Node6&#45;&gt;Node10 -->
<g id="edge20_Node000006_Node000010" class="edge">
<title>Node6&#45;&gt;Node10</title>
<g id="a_edge20_Node000006_Node000010"><a xlink:title=" ">
<path fill="none" stroke="#63b8ff" d="M399.43,-240.84C338.11,-238.84 251.98,-236.03 195.21,-234.17"/>
<polygon fill="#63b8ff" stroke="#63b8ff" points="398.95,-244.33 409.06,-241.16 399.18,-237.33 398.95,-244.33"/>
</a>
</g>
</g>
<!-- Node11 -->
<g id="Node000011" class="node">
<title>Node11</title>
<g id="a_Node000011"><a xlink:href="namespacefabomatic_1_1tests.xhtml#a6f3dff17fd964aba76c35c514957a0a5" target="_top" xlink:title=" ">
<polygon fill="white" stroke="#666666" points="189.88,-198.5 80.88,-198.5 80.88,-168 189.88,-168 189.88,-198.5"/>
<text text-anchor="start" x="88.88" y="-185" font-family="Helvetica,sans-Serif" font-size="10.00">fabomatic::tests::test</text>
<text text-anchor="middle" x="135.38" y="-173.75" font-family="Helvetica,sans-Serif" font-size="10.00">_one_user_at_a_time</text>
</a>
</g>
</g>
<!-- Node6&#45;&gt;Node11 -->
<g id="edge23_Node000006_Node000011" class="edge">
<title>Node6&#45;&gt;Node11</title>
<g id="a_edge23_Node000006_Node000011"><a xlink:title=" ">
<path fill="none" stroke="#63b8ff" d="M444.1,-221.03C425.46,-208.16 400.11,-193.18 375,-186.25 313.3,-169.21 239.16,-171.65 190.07,-176.26"/>
<polygon fill="#63b8ff" stroke="#63b8ff" points="442.06,-223.87 452.23,-226.82 446.12,-218.16 442.06,-223.87"/>
</a>
</g>
</g>
<!-- Node12 -->
<g id="Node000012" class="node">
<title>Node12</title>
<g id="a_Node000012"><a xlink:href="namespacefabomatic_1_1tests.xhtml#afa92fef9250d918ee02c79dbf2de2546" target="_top" xlink:title=" ">
<polygon fill="white" stroke="#666666" points="188.38,-431.5 82.38,-431.5 82.38,-401 188.38,-401 188.38,-431.5"/>
<text text-anchor="start" x="90.38" y="-418" font-family="Helvetica,sans-Serif" font-size="10.00">fabomatic::tests::test</text>
<text text-anchor="middle" x="135.38" y="-406.75" font-family="Helvetica,sans-Serif" font-size="10.00">_user_autologoff</text>
</a>
</g>
</g>
<!-- Node6&#45;&gt;Node12 -->
<g id="edge24_Node000006_Node000012" class="edge">
<title>Node6&#45;&gt;Node12</title>
<g id="a_edge24_Node000006_Node000012"><a xlink:title=" ">
<path fill="none" stroke="#63b8ff" d="M413.55,-265.62C412.67,-266.46 411.81,-267.34 411,-268.25 371.3,-312.6 420.94,-359.4 375,-397.25 323.2,-439.92 241.78,-436.32 188.74,-427.84"/>
<polygon fill="#63b8ff" stroke="#63b8ff" points="415.35,-268.65 421.1,-259.75 411.06,-263.12 415.35,-268.65"/>
</a>
</g>
</g>
<!-- Node6&#45;&gt;Node13 -->
<g id="edge25_Node000006_Node000013" class="edge">
<title>Node6&#45;&gt;Node13</title>
<g id="a_edge25_Node000006_Node000013"><a xlink:title=" ">
<path fill="none" stroke="#63b8ff" d="M448.27,-219.97C429.48,-203.55 402.32,-182.25 375,-169.25 315.85,-141.1 241.84,-125.49 192.06,-117.51"/>
<polygon fill="#63b8ff" stroke="#63b8ff" points="445.87,-222.52 455.66,-226.57 450.54,-217.3 445.87,-222.52"/>
</a>
</g>
</g>
<!-- Node14 -->
<g id="Node000014" class="node">
<title>Node14</title>
<g id="a_Node000014"><a xlink:href="namespacefabomatic_1_1tests.xhtml#a0b99fa5582e6b0ecb416f4ed348e5606" target="_top" xlink:title=" ">
<polygon fill="white" stroke="#666666" points="358.5,-388.5 247.25,-388.5 247.25,-358 358.5,-358 358.5,-388.5"/>
<text text-anchor="start" x="255.25" y="-375" font-family="Helvetica,sans-Serif" font-size="10.00">fabomatic::tests::test</text>
<text text-anchor="middle" x="302.88" y="-363.75" font-family="Helvetica,sans-Serif" font-size="10.00">_backend_commands</text>
</a>
</g>
</g>
<!-- Node6&#45;&gt;Node14 -->
<g id="edge17_Node000006_Node000014" class="edge">
<title>Node6&#45;&gt;Node14</title>
<g id="a_edge17_Node000006_Node000014"><a xlink:title=" ">
<path fill="none" stroke="#63b8ff" d="M414.24,-265.37C413.12,-266.29 412.04,-267.25 411,-268.25 382.88,-295.26 403.71,-321.87 375,-348.25 370.28,-352.59 364.76,-356.18 358.92,-359.16"/>
<polygon fill="#63b8ff" stroke="#63b8ff" points="415.98,-268.42 422.22,-259.86 412,-262.66 415.98,-268.42"/>
</a>
</g>
</g>
<!-- Node16 -->
<g id="Node000016" class="node">
<title>Node16</title>
<g id="a_Node000016"><a xlink:href="namespacefabomatic_1_1tests.xhtml#af8fa7ace86309b5f699540d8898660c7" target="_top" xlink:title=" ">
<polygon fill="white" stroke="#666666" points="355.88,-339.5 249.88,-339.5 249.88,-309 355.88,-309 355.88,-339.5"/>
<text text-anchor="start" x="257.88" y="-326" font-family="Helvetica,sans-Serif" font-size="10.00">fabomatic::tests::test</text>
<text text-anchor="middle" x="302.88" y="-314.75" font-family="Helvetica,sans-Serif" font-size="10.00">_messages_buffered</text>
</a>
</g>
</g>
<!-- Node6&#45;&gt;Node16 -->
<g id="edge21_Node000006_Node000016" class="edge">
<title>Node6&#45;&gt;Node16</title>
<g id="a_edge21_Node000006_Node000016"><a xlink:title=" ">
<path fill="none" stroke="#63b8ff" d="M419.7,-263.67C416.72,-265.14 413.8,-266.67 411,-268.25 393.57,-278.07 392.4,-285.39 375,-295.25 366.3,-300.18 356.59,-304.71 347.21,-308.65"/>
<polygon fill="#63b8ff" stroke="#63b8ff" points="421.02,-266.92 428.62,-259.53 418.08,-260.57 421.02,-266.92"/>
</a>
</g>
</g>
<!-- Node7&#45;&gt;Node8 -->
<g id="edge7_Node000007_Node000008" class="edge">
<title>Node7&#45;&gt;Node8</title>
<g id="a_edge7_Node000007_Node000008"><a xlink:title=" ">
<path fill="none" stroke="#63b8ff" d="M271.36,-220.17C250.01,-230.52 220.76,-244.49 194.75,-256.25 187.92,-259.34 180.6,-262.55 173.53,-265.6"/>
<polygon fill="#63b8ff" stroke="#63b8ff" points="272.63,-223.45 280.09,-215.93 269.57,-217.15 272.63,-223.45"/>
</a>
</g>
</g>
<!-- Node7&#45;&gt;Node10 -->
<g id="edge9_Node000007_Node000010" class="edge">
<title>Node7&#45;&gt;Node10</title>
<g id="a_edge9_Node000007_Node000010"><a xlink:title=" ">
<path fill="none" stroke="#63b8ff" d="M229,-217.14C217.64,-218.99 206.03,-220.89 195.03,-222.68"/>
<polygon fill="#63b8ff" stroke="#63b8ff" points="229.45,-220.61 238.76,-215.55 228.32,-213.7 229.45,-220.61"/>
</a>
</g>
</g>
<!-- Node7&#45;&gt;Node11 -->
<g id="edge11_Node000007_Node000011" class="edge">
<title>Node7&#45;&gt;Node11</title>
<g id="a_edge11_Node000007_Node000011"><a xlink:title=" ">
<path fill="none" stroke="#63b8ff" d="M219.52,-194.3C209.57,-192.98 199.61,-191.66 190.22,-190.41"/>
<polygon fill="#63b8ff" stroke="#63b8ff" points="218.85,-197.74 229.23,-195.59 219.78,-190.81 218.85,-197.74"/>
</a>
</g>
</g>
<!-- Node7&#45;&gt;Node12 -->
<g id="edge13_Node000007_Node000012" class="edge">
<title>Node7&#45;&gt;Node12</title>
<g id="a_edge13_Node000007_Node000012"><a xlink:title=" ">
<path fill="none" stroke="#63b8ff" d="M285.66,-223.71C270.08,-242.14 246.62,-271.73 230.75,-300.25 209.4,-338.62 225.53,-360.94 194.75,-392.25 191.68,-395.38 188.14,-398.11 184.36,-400.5"/>
<polygon fill="#63b8ff" stroke="#63b8ff" points="288.16,-226.18 292.02,-216.31 282.85,-221.61 288.16,-226.18"/>
</a>
</g>
</g>
<!-- Node7&#45;&gt;Node13 -->
<g id="edge15_Node000007_Node000013" class="edge">
<title>Node7&#45;&gt;Node13</title>
<g id="a_edge15_Node000007_Node000013"><a xlink:title=" ">
<path fill="none" stroke="#63b8ff" d="M274.86,-189.74C244.18,-172.13 194.41,-143.56 163.63,-125.9"/>
<polygon fill="#63b8ff" stroke="#63b8ff" points="272.75,-192.57 283.16,-194.51 276.23,-186.5 272.75,-192.57"/>
</a>
</g>
</g>
<!-- Node9 -->
<g id="Node000009" class="node">
<title>Node9</title>
<g id="a_Node000009"><a xlink:href="test__logic_8cpp.xhtml#a4fc01d736fe50cf5b977f755b675f11d" target="_top" xlink:title=" ">
<polygon fill="white" stroke="#666666" points="40,-290.88 0,-290.88 0,-271.62 40,-271.62 40,-290.88"/>
<text text-anchor="middle" x="20" y="-277.38" font-family="Helvetica,sans-Serif" font-size="10.00">setup</text>
</a>
</g>
</g>
<!-- Node8&#45;&gt;Node9 -->
<g id="edge8_Node000008_Node000009" class="edge">
<title>Node8&#45;&gt;Node9</title>
<g id="a_edge8_Node000008_Node000009"><a xlink:title=" ">
<path fill="none" stroke="#63b8ff" d="M70.51,-281.25C59.53,-281.25 48.92,-281.25 40.36,-281.25"/>
<polygon fill="#63b8ff" stroke="#63b8ff" points="70.49,-284.75 80.49,-281.25 70.49,-277.75 70.49,-284.75"/>
</a>
</g>
</g>
<!-- Node10&#45;&gt;Node9 -->
<g id="edge10_Node000010_Node000009" class="edge">
<title>Node10&#45;&gt;Node9</title>
<g id="a_edge10_Node000010_Node000009"><a xlink:title=" ">
<path fill="none" stroke="#63b8ff" d="M87.08,-252.47C83.33,-254.09 79.6,-255.69 76,-257.25 64.14,-262.38 50.87,-268.17 40.33,-272.78"/>
<polygon fill="#63b8ff" stroke="#63b8ff" points="88.42,-255.71 96.22,-248.55 85.65,-249.28 88.42,-255.71"/>
</a>
</g>
</g>
<!-- Node11&#45;&gt;Node9 -->
<g id="edge12_Node000011_Node000009" class="edge">
<title>Node11&#45;&gt;Node9</title>
<g id="a_edge12_Node000011_Node000009"><a xlink:title=" ">
<path fill="none" stroke="#63b8ff" d="M80.74,-204.81C79.11,-205.91 77.52,-207.06 76,-208.25 53.15,-226.17 34.86,-255.77 26.29,-271.2"/>
<polygon fill="#63b8ff" stroke="#63b8ff" points="82.43,-207.88 89.24,-199.77 78.85,-201.86 82.43,-207.88"/>
</a>
</g>
</g>
<!-- Node12&#45;&gt;Node9 -->
<g id="edge14_Node000012_Node000009" class="edge">
<title>Node12&#45;&gt;Node9</title>
<g id="a_edge14_Node000012_Node000009"><a xlink:title=" ">
<path fill="none" stroke="#63b8ff" d="M77.94,-393.98C77.28,-393.41 76.63,-392.84 76,-392.25 44.85,-363.21 28.99,-312.69 23.39,-291.29"/>
<polygon fill="#63b8ff" stroke="#63b8ff" points="75.83,-396.77 86.02,-399.68 79.87,-391.05 75.83,-396.77"/>
</a>
</g>
</g>
<!-- Node13&#45;&gt;Node9 -->
<g id="edge16_Node000013_Node000009" class="edge">
<title>Node13&#45;&gt;Node9</title>
<g id="a_edge16_Node000013_Node000009"><a xlink:title=" ">
<path fill="none" stroke="#63b8ff" d="M102.09,-132.99C92.85,-140.58 83.31,-149.6 76,-159.25 48.09,-196.11 30.34,-249.39 23.82,-271.28"/>
<polygon fill="#63b8ff" stroke="#63b8ff" points="104.24,-135.75 109.95,-126.83 99.93,-130.24 104.24,-135.75"/>
</a>
</g>
</g>
<!-- Node15 -->
<g id="Node000015" class="node">
<title>Node15</title>
<g id="a_Node000015"><a xlink:href="test__mqtt_8cpp.xhtml#a4fc01d736fe50cf5b977f755b675f11d" target="_top" xlink:title=" ">
<polygon fill="white" stroke="#666666" points="155.38,-382.88 115.38,-382.88 115.38,-363.62 155.38,-363.62 155.38,-382.88"/>
<text text-anchor="middle" x="135.38" y="-369.38" font-family="Helvetica,sans-Serif" font-size="10.00">setup</text>
</a>
</g>
</g>
<!-- Node14&#45;&gt;Node15 -->
<g id="edge18_Node000014_Node000015" class="edge">
<title>Node14&#45;&gt;Node15</title>
<g id="a_edge18_Node000014_Node000015"><a xlink:title=" ">
<path fill="none" stroke="#63b8ff" d="M235.51,-373.25C206.8,-373.25 175.35,-373.25 155.74,-373.25"/>
<polygon fill="#63b8ff" stroke="#63b8ff" points="235.25,-376.75 245.25,-373.25 235.25,-369.75 235.25,-376.75"/>
</a>
</g>
</g>
<!-- Node16&#45;&gt;Node9 -->
<g id="edge22_Node000016_Node000009" class="edge">
<title>Node16&#45;&gt;Node9</title>
<g id="a_edge22_Node000016_Node000009"><a xlink:title=" ">
<path fill="none" stroke="#63b8ff" d="M238.25,-324.42C192.48,-323.21 129.64,-318.81 76,-305.25 63.48,-302.08 50.18,-296.35 39.8,-291.29"/>
<polygon fill="#63b8ff" stroke="#63b8ff" points="237.91,-327.91 247.98,-324.63 238.06,-320.91 237.91,-327.91"/>
</a>
</g>
</g>
<!-- Node20 -->
<g id="Node000020" class="node">
<title>Node20</title>
<g id="a_Node000020"><a xlink:href="classfabomatic_1_1_board_logic.xhtml#aa0d3d3aa742eba1ffd00b97868ce7edc" target="_top" xlink:title="connects and polls the server for up&#45;to&#45;date machine information">
<polygon fill="white" stroke="#666666" points="1226,-116.5 1113.25,-116.5 1113.25,-86 1226,-86 1226,-116.5"/>
<text text-anchor="start" x="1121.25" y="-103" font-family="Helvetica,sans-Serif" font-size="10.00">fabomatic::BoardLogic</text>
<text text-anchor="middle" x="1169.62" y="-91.75" font-family="Helvetica,sans-Serif" font-size="10.00">::refreshFromServer</text>
</a>
</g>
</g>
<!-- Node19&#45;&gt;Node20 -->
<g id="edge31_Node000019_Node000020" class="edge">
<title>Node19&#45;&gt;Node20</title>
<g id="a_edge31_Node000019_Node000020"><a xlink:title=" ">
<path fill="none" stroke="#63b8ff" d="M1256.88,-101.25C1246.77,-101.25 1236.33,-101.25 1226.35,-101.25"/>
<polygon fill="#63b8ff" stroke="#63b8ff" points="1256.59,-104.75 1266.59,-101.25 1256.59,-97.75 1256.59,-104.75"/>
</a>
</g>
</g>
<!-- Node20&#45;&gt;Node4 -->
<g id="edge32_Node000020_Node000004" class="edge">
<title>Node20&#45;&gt;Node4</title>
<g id="a_edge32_Node000020_Node000004"><a xlink:title=" ">
<path fill="none" stroke="#63b8ff" d="M1104.42,-82.81C1095.35,-80.67 1086.11,-78.73 1077.25,-77.25 1007.79,-65.68 926.68,-61.16 874.02,-59.39"/>
<polygon fill="#63b8ff" stroke="#63b8ff" points="1103.33,-86.15 1113.88,-85.14 1105.01,-79.35 1103.33,-86.15"/>
</a>
</g>
</g>
<!-- Node21 -->
<g id="Node000021" class="node">
<title>Node21</title>
<g id="a_Node000021"><a xlink:href="namespacefabomatic.xhtml#ae7de89faffd3bb8805727b8a1092a198" target="_top" xlink:title="Opens WiFi and server connection and updates board state accordingly.">
<polygon fill="white" stroke="#666666" points="1058.5,-277.88 940.5,-277.88 940.5,-258.62 1058.5,-258.62 1058.5,-277.88"/>
<text text-anchor="middle" x="999.5" y="-264.38" font-family="Helvetica,sans-Serif" font-size="10.00">fabomatic::taskConnect</text>
</a>
</g>
</g>
<!-- Node20&#45;&gt;Node21 -->
<g id="edge33_Node000020_Node000021" class="edge">
<title>Node20&#45;&gt;Node21</title>
<g id="a_edge33_Node000020_Node000021"><a xlink:title=" ">
<path fill="none" stroke="#63b8ff" d="M1159.67,-127.3C1146.79,-160.76 1119.81,-218.21 1077.25,-249.25 1071.7,-253.29 1065.4,-256.48 1058.84,-259"/>
<polygon fill="#63b8ff" stroke="#63b8ff" points="1162.93,-128.56 1163.11,-117.96 1156.37,-126.13 1162.93,-128.56"/>
</a>
</g>
</g>
<!-- Node23 -->
<g id="Node000023" class="node">
<title>Node23</title>
<g id="a_Node000023"><a xlink:href="namespacefabomatic_1_1tests.xhtml#a88a4242d48bfa4a0337df522d303c367" target="_top" xlink:title="Opens WiFi and server connection and updates board state accordingly.">
<polygon fill="white" stroke="#666666" points="1052.5,-116.5 946.5,-116.5 946.5,-86 1052.5,-86 1052.5,-116.5"/>
<text text-anchor="start" x="954.5" y="-103" font-family="Helvetica,sans-Serif" font-size="10.00">fabomatic::tests::test</text>
<text text-anchor="middle" x="999.5" y="-91.75" font-family="Helvetica,sans-Serif" font-size="10.00">_taskConnect</text>
</a>
</g>
</g>
<!-- Node20&#45;&gt;Node23 -->
<g id="edge35_Node000020_Node000023" class="edge">
<title>Node20&#45;&gt;Node23</title>
<g id="a_edge35_Node000020_Node000023"><a xlink:title=" ">
<path fill="none" stroke="#63b8ff" d="M1101.98,-101.25C1085.64,-101.25 1068.38,-101.25 1052.82,-101.25"/>
<polygon fill="#63b8ff" stroke="#63b8ff" points="1101.6,-104.75 1111.6,-101.25 1101.6,-97.75 1101.6,-104.75"/>
</a>
</g>
</g>
<!-- Node22 -->
<g id="Node000022" class="node">
<title>Node22</title>
<g id="a_Node000022"><a xlink:href="main_8cpp.xhtml#a4fc01d736fe50cf5b977f755b675f11d" target="_top" xlink:title=" ">
<polygon fill="white" stroke="#666666" points="663.12,-428.88 623.12,-428.88 623.12,-409.62 663.12,-409.62 663.12,-428.88"/>
<text text-anchor="middle" x="643.12" y="-415.38" font-family="Helvetica,sans-Serif" font-size="10.00">setup</text>
</a>
</g>
</g>
<!-- Node21&#45;&gt;Node22 -->
<g id="edge34_Node000021_Node000022" class="edge">
<title>Node21&#45;&gt;Node22</title>
<g id="a_edge34_Node000021_Node000022"><a xlink:title=" ">
<path fill="none" stroke="#63b8ff" d="M929.84,-281.5C927.02,-282.93 924.31,-284.5 921.75,-286.25 898.52,-302.07 908.38,-321.58 885.75,-338.25 834.46,-376.04 809.35,-360.84 749,-381.25 718.91,-391.43 684.34,-404.16 663.37,-412"/>
<polygon fill="#63b8ff" stroke="#63b8ff" points="931.18,-284.73 938.99,-277.57 928.42,-278.3 931.18,-284.73"/>
</a>
</g>
</g>
<!-- Node25 -->
<g id="Node000025" class="node">
<title>Node25</title>
<g id="a_Node000025"><a xlink:href="classfabomatic_1_1_board_logic.xhtml#a3c38d7a3ed7952c6d6297efdf50ea4dd" target="_top" xlink:title="Sets the board in the state given.">
<polygon fill="white" stroke="#666666" points="1226,-320.5 1113.25,-320.5 1113.25,-290 1226,-290 1226,-320.5"/>
<text text-anchor="start" x="1121.25" y="-307" font-family="Helvetica,sans-Serif" font-size="10.00">fabomatic::BoardLogic</text>
<text text-anchor="middle" x="1169.62" y="-295.75" font-family="Helvetica,sans-Serif" font-size="10.00">::changeStatus</text>
</a>
</g>
</g>
<!-- Node24&#45;&gt;Node25 -->
<g id="edge37_Node000024_Node000025" class="edge">
<title>Node24&#45;&gt;Node25</title>
<g id="a_edge37_Node000024_Node000025"><a xlink:title=" ">
<path fill="none" stroke="#63b8ff" d="M1250.51,-305.25C1242.37,-305.25 1234.13,-305.25 1226.18,-305.25"/>
<polygon fill="#63b8ff" stroke="#63b8ff" points="1250.38,-308.75 1260.38,-305.25 1250.38,-301.75 1250.38,-308.75"/>
</a>
</g>
</g>
<!-- Node35 -->
<g id="Node000035" class="node">
<title>Node35</title>
<g id="a_Node000035"><a xlink:href="namespacefabomatic_1_1tests.xhtml#aec03a7ee459718d314b930fdd75d3cee" target="_top" xlink:title=" ">
<polygon fill="white" stroke="#666666" points="1052.5,-553.5 946.5,-553.5 946.5,-523 1052.5,-523 1052.5,-553.5"/>
<text text-anchor="start" x="954.5" y="-540" font-family="Helvetica,sans-Serif" font-size="10.00">fabomatic::tests::test</text>
<text text-anchor="middle" x="999.5" y="-528.75" font-family="Helvetica,sans-Serif" font-size="10.00">_simple_methods</text>
</a>
</g>
</g>
<!-- Node24&#45;&gt;Node35 -->
<g id="edge62_Node000024_Node000035" class="edge">
<title>Node24&#45;&gt;Node35</title>
<g id="a_edge62_Node000024_Node000035"><a xlink:title=" ">
<path fill="none" stroke="#63b8ff" d="M1293.55,-328.56C1252.18,-368.16 1163.23,-449.5 1077.25,-503.25 1065.7,-510.47 1052.41,-517.06 1040.18,-522.53"/>
<polygon fill="#63b8ff" stroke="#63b8ff" points="1295.78,-331.28 1300.55,-321.82 1290.92,-326.24 1295.78,-331.28"/>
</a>
</g>
</g>
<!-- Node25&#45;&gt;Node3 -->
<g id="edge38_Node000025_Node000003" class="edge">
<title>Node25&#45;&gt;Node3</title>
<g id="a_edge38_Node000025_Node000003"><a xlink:title=" ">
<path fill="none" stroke="#63b8ff" d="M1162.59,-278.37C1151.51,-233.35 1124.6,-141.35 1077.25,-77.25 1063.41,-58.51 1042.61,-42.19 1026.16,-31"/>
<polygon fill="#63b8ff" stroke="#63b8ff" points="1159.17,-279.12 1164.89,-288.04 1165.98,-277.5 1159.17,-279.12"/>
</a>
</g>
</g>
<!-- Node25&#45;&gt;Node4 -->
<g id="edge51_Node000025_Node000004" class="edge">
<title>Node25&#45;&gt;Node4</title>
<g id="a_edge51_Node000025_Node000004"><a xlink:title=" ">
<path fill="none" stroke="#63b8ff" d="M1158.19,-279.45C1144.33,-248.4 1116.86,-196.9 1077.25,-168.25 1019.15,-126.23 983.21,-162.18 921.75,-125.25 901.81,-113.27 904.83,-100.57 885.75,-87.25 878.44,-82.15 870.09,-77.67 861.82,-73.85"/>
<polygon fill="#63b8ff" stroke="#63b8ff" points="1154.92,-280.69 1162.09,-288.49 1161.35,-277.92 1154.92,-280.69"/>
</a>
</g>
</g>
<!-- Node25&#45;&gt;Node5 -->
<g id="edge39_Node000025_Node000005" class="edge">
<title>Node25&#45;&gt;Node5</title>
<g id="a_edge39_Node000025_Node000005"><a xlink:title=" ">
<path fill="none" stroke="#63b8ff" d="M1154.17,-279.83C1138.63,-255.14 1111.46,-218.87 1077.25,-201.25 1012.74,-168.03 801.36,-159.89 699.71,-157.9"/>
<polygon fill="#63b8ff" stroke="#63b8ff" points="1151.15,-281.59 1159.33,-288.32 1157.13,-277.96 1151.15,-281.59"/>
</a>
</g>
</g>
<!-- Node25&#45;&gt;Node21 -->
<g id="edge56_Node000025_Node000021" class="edge">
<title>Node25&#45;&gt;Node21</title>
<g id="a_edge56_Node000025_Node000021"><a xlink:title=" ">
<path fill="none" stroke="#63b8ff" d="M1102.01,-290.59C1083.38,-286.49 1063.56,-282.13 1046.42,-278.36"/>
<polygon fill="#63b8ff" stroke="#63b8ff" points="1101.11,-293.98 1111.63,-292.71 1102.62,-287.14 1101.11,-293.98"/>
</a>
</g>
</g>
<!-- Node25&#45;&gt;Node22 -->
<g id="edge53_Node000025_Node000022" class="edge">
<title>Node25&#45;&gt;Node22</title>
<g id="a_edge53_Node000025_Node000022"><a xlink:title=" ">
<path fill="none" stroke="#63b8ff" d="M1152.64,-329.93C1136.55,-352.47 1109.53,-384.58 1077.25,-400.25 1002.93,-436.32 737.64,-424.5 663.5,-420.4"/>
<polygon fill="#63b8ff" stroke="#63b8ff" points="1155.39,-332.11 1158.19,-321.89 1149.63,-328.13 1155.39,-332.11"/>
</a>
</g>
</g>
<!-- Node25&#45;&gt;Node23 -->
<g id="edge61_Node000025_Node000023" class="edge">
<title>Node25&#45;&gt;Node23</title>
<g id="a_edge61_Node000025_Node000023"><a xlink:title=" ">
<path fill="none" stroke="#63b8ff" d="M1161.43,-278.89C1149.8,-240.99 1123.38,-171.16 1077.25,-130.25 1070.22,-124.01 1061.71,-119.06 1052.95,-115.15"/>
<polygon fill="#63b8ff" stroke="#63b8ff" points="1157.96,-279.5 1164.14,-288.11 1164.68,-277.53 1157.96,-279.5"/>
</a>
</g>
</g>
<!-- Node26 -->
<g id="Node000026" class="node">
<title>Node26</title>
<g id="a_Node000026"><a xlink:href="namespacefabomatic.xhtml#aaa30fd4002cc95e50c035f2d3dcdb44d" target="_top" xlink:title=" ">
<polygon fill="white" stroke="#666666" points="1074.62,-466.88 924.38,-466.88 924.38,-447.62 1074.62,-447.62 1074.62,-466.88"/>
<text text-anchor="middle" x="999.5" y="-453.38" font-family="Helvetica,sans-Serif" font-size="10.00">fabomatic::configModeCallback</text>
</a>
</g>
</g>
<!-- Node25&#45;&gt;Node26 -->
<g id="edge40_Node000025_Node000026" class="edge">
<title>Node25&#45;&gt;Node26</title>
<g id="a_edge40_Node000025_Node000026"><a xlink:title=" ">
<path fill="none" stroke="#63b8ff" d="M1156.72,-330.9C1142,-359.85 1114.31,-406.4 1077.25,-433.25 1069,-439.23 1059.21,-443.75 1049.43,-447.16"/>
<polygon fill="#63b8ff" stroke="#63b8ff" points="1159.77,-332.62 1161.04,-322.1 1153.49,-329.53 1159.77,-332.62"/>
</a>
</g>
</g>
<!-- Node27 -->
<g id="Node000027" class="node">
<title>Node27</title>
<g id="a_Node000027"><a xlink:href="namespacefabomatic.xhtml#abb6b42355a3cffaa13e06fd3fea763b2" target="_top" xlink:title="Open the ArduinoOTA configuration portal.">
<polygon fill="white" stroke="#666666" points="885.75,-485.88 749,-485.88 749,-466.62 885.75,-466.62 885.75,-485.88"/>
<text text-anchor="middle" x="817.38" y="-472.38" font-family="Helvetica,sans-Serif" font-size="10.00">fabomatic::openConfigPortal</text>
</a>
</g>
</g>
<!-- Node25&#45;&gt;Node27 -->
<g id="edge52_Node000025_Node000027" class="edge">
<title>Node25&#45;&gt;Node27</title>
<g id="a_edge52_Node000025_Node000027"><a xlink:title=" ">
<path fill="none" stroke="#63b8ff" d="M1156.53,-331.29C1135.01,-377.08 1091.02,-468 1077.25,-476.25 1006.32,-518.77 903.62,-500.17 851.46,-486.34"/>
<polygon fill="#63b8ff" stroke="#63b8ff" points="1159.66,-332.87 1160.73,-322.33 1153.32,-329.9 1159.66,-332.87"/>
</a>
</g>
</g>
<!-- Node29 -->
<g id="Node000029" class="node">
<title>Node29</title>
<g id="a_Node000029"><a xlink:href="classfabomatic_1_1_board_logic.xhtml#a98a15cc323f97adc394c29e897afc12d" target="_top" xlink:title="Removes the current machine user and changes the status to LoggedOut.">
<polygon fill="white" stroke="#666666" points="1055.88,-240.5 943.12,-240.5 943.12,-210 1055.88,-210 1055.88,-240.5"/>
<text text-anchor="start" x="951.12" y="-227" font-family="Helvetica,sans-Serif" font-size="10.00">fabomatic::BoardLogic</text>
<text text-anchor="middle" x="999.5" y="-215.75" font-family="Helvetica,sans-Serif" font-size="10.00">::logout</text>
</a>
</g>
</g>
<!-- Node25&#45;&gt;Node29 -->
<g id="edge44_Node000025_Node000029" class="edge">
<title>Node25&#45;&gt;Node29</title>
<g id="a_edge44_Node000025_Node000029"><a xlink:title=" ">
<path fill="none" stroke="#63b8ff" d="M1137.08,-283.24C1119.95,-271.99 1098.07,-258.71 1077.25,-249.25 1070.51,-246.19 1063.28,-243.37 1056.04,-240.82"/>
<polygon fill="#63b8ff" stroke="#63b8ff" points="1135.06,-286.1 1145.32,-288.75 1138.95,-280.28 1135.06,-286.1"/>
</a>
</g>
</g>
<!-- Node32 -->
<g id="Node000032" class="node">
<title>Node32</title>
<g id="a_Node000032"><a xlink:href="namespacefabomatic.xhtml#a53440db527e478f13eaa71bbd46120c3" target="_top" xlink:title="Initialization of the Arduino OTA library with settings for fabomatic.">
<polygon fill="white" stroke="#666666" points="871.12,-409.88 763.62,-409.88 763.62,-390.62 871.12,-390.62 871.12,-409.88"/>
<text text-anchor="middle" x="817.38" y="-396.38" font-family="Helvetica,sans-Serif" font-size="10.00">fabomatic::setupOTA</text>
</a>
</g>
</g>
<!-- Node25&#45;&gt;Node32 -->
<g id="edge54_Node000025_Node000032" class="edge">
<title>Node25&#45;&gt;Node32</title>
<g id="a_edge54_Node000025_Node000032"><a xlink:title=" ">
<path fill="none" stroke="#63b8ff" d="M1101.75,-319.55C1040.62,-332.84 954.84,-352.05 921.75,-362.25 905.34,-367.31 901.84,-370.26 885.75,-376.25 873.18,-380.93 859.23,-385.93 847.29,-390.15"/>
<polygon fill="#63b8ff" stroke="#63b8ff" points="1102.35,-323.01 1111.38,-317.47 1100.87,-316.16 1102.35,-323.01"/>
</a>
</g>
</g>
<!-- Node33 -->
<g id="Node000033" class="node">
<title>Node33</title>
<g id="a_Node000033"><a xlink:href="namespacefabomatic.xhtml#a86a02975f3cc660ebccdde8f217aa035" target="_top" xlink:title="periodic check if the machine must be powered off">
<polygon fill="white" stroke="#666666" points="1077.25,-390.88 921.75,-390.88 921.75,-371.62 1077.25,-371.62 1077.25,-390.88"/>
<text text-anchor="middle" x="999.5" y="-377.38" font-family="Helvetica,sans-Serif" font-size="10.00">fabomatic::taskPoweroffWarning</text>
</a>
</g>
</g>
<!-- Node25&#45;&gt;Node33 -->
<g id="edge57_Node000025_Node000033" class="edge">
<title>Node25&#45;&gt;Node33</title>
<g id="a_edge57_Node000025_Node000033"><a xlink:title=" ">
<path fill="none" stroke="#63b8ff" d="M1135.11,-326.62C1118.21,-336.8 1097.12,-348.61 1077.25,-357.25 1064.83,-362.65 1050.8,-367.4 1038.17,-371.23"/>
<polygon fill="#63b8ff" stroke="#63b8ff" points="1136.55,-329.85 1143.25,-321.64 1132.9,-323.88 1136.55,-329.85"/>
</a>
</g>
</g>
<!-- Node34 -->
<g id="Node000034" class="node">
<title>Node34</title>
<g id="a_Node000034"><a xlink:href="namespacefabomatic.xhtml#a525d1f233a2f797801a9a659c5044cb7" target="_top" xlink:title="checks the RFID chip status and re&#45;init it if necessary.">
<polygon fill="white" stroke="#666666" points="1070.5,-314.88 928.5,-314.88 928.5,-295.62 1070.5,-295.62 1070.5,-314.88"/>
<text text-anchor="middle" x="999.5" y="-301.38" font-family="Helvetica,sans-Serif" font-size="10.00">fabomatic::taskRfidWatchdog</text>
</a>
</g>
</g>
<!-- Node25&#45;&gt;Node34 -->
<g id="edge58_Node000025_Node000034" class="edge">
<title>Node25&#45;&gt;Node34</title>
<g id="a_edge58_Node000025_Node000034"><a xlink:title=" ">
<path fill="none" stroke="#63b8ff" d="M1101.83,-305.25C1091.68,-305.25 1081.18,-305.25 1070.95,-305.25"/>
<polygon fill="#63b8ff" stroke="#63b8ff" points="1101.6,-308.75 1111.6,-305.25 1101.6,-301.75 1101.6,-308.75"/>
</a>
</g>
</g>
<!-- Node25&#45;&gt;Node35 -->
<g id="edge59_Node000025_Node000035" class="edge">
<title>Node25&#45;&gt;Node35</title>
<g id="a_edge59_Node000025_Node000035"><a xlink:title=" ">
<path fill="none" stroke="#63b8ff" d="M1157.05,-331.19C1132.55,-386.04 1077.69,-508.84 1077.25,-509.25 1070.3,-515.79 1061.73,-520.9 1052.87,-524.87"/>
<polygon fill="#63b8ff" stroke="#63b8ff" points="1160.15,-332.82 1161.03,-322.26 1153.76,-329.97 1160.15,-332.82"/>
</a>
</g>
</g>
<!-- Node26&#45;&gt;Node27 -->
<g id="edge41_Node000026_Node000027" class="edge">
<title>Node26&#45;&gt;Node27</title>
<g id="a_edge41_Node000026_Node000027"><a xlink:title=" ">
<path fill="none" stroke="#63b8ff" d="M912.65,-466.31C903.69,-467.25 894.68,-468.2 885.96,-469.12"/>
<polygon fill="#63b8ff" stroke="#63b8ff" points="912.85,-469.8 922.43,-465.27 912.12,-462.84 912.85,-469.8"/>
</a>
</g>
</g>
<!-- Node27&#45;&gt;Node22 -->
<g id="edge42_Node000027_Node000022" class="edge">
<title>Node27&#45;&gt;Node22</title>
<g id="a_edge42_Node000027_Node000022"><a xlink:title=" ">
<path fill="none" stroke="#63b8ff" d="M775.5,-462.72C740.13,-451.02 690.54,-434.61 663.53,-425.67"/>
<polygon fill="#63b8ff" stroke="#63b8ff" points="773.95,-465.9 784.54,-465.72 776.15,-459.25 773.95,-465.9"/>
</a>
</g>
</g>
<!-- Node28 -->
<g id="Node000028" class="node">
<title>Node28</title>
<g id="a_Node000028"><a xlink:href="namespacefabomatic.xhtml#a2c7ad2690e92eb8ab98b6fadaa4df2bd" target="_top" xlink:title=" ">
<polygon fill="white" stroke="#666666" points="713,-485.88 573.25,-485.88 573.25,-466.62 713,-466.62 713,-485.88"/>
<text text-anchor="middle" x="643.12" y="-472.38" font-family="Helvetica,sans-Serif" font-size="10.00">fabomatic::taskFactoryReset</text>
</a>
</g>
</g>
<!-- Node27&#45;&gt;Node28 -->
<g id="edge43_Node000027_Node000028" class="edge">
<title>Node27&#45;&gt;Node28</title>
<g id="a_edge43_Node000027_Node000028"><a xlink:title=" ">
<path fill="none" stroke="#63b8ff" d="M737.54,-476.25C729.51,-476.25 721.41,-476.25 713.5,-476.25"/>
<polygon fill="#63b8ff" stroke="#63b8ff" points="737.28,-479.75 747.28,-476.25 737.28,-472.75 737.28,-479.75"/>
</a>
</g>
</g>
<!-- Node29&#45;&gt;Node4 -->
<g id="edge46_Node000029_Node000004" class="edge">
<title>Node29&#45;&gt;Node4</title>
<g id="a_edge46_Node000029_Node000004"><a xlink:title=" ">
<path fill="none" stroke="#63b8ff" d="M967.28,-202.57C952.24,-190.57 934.7,-174.9 921.75,-158.25 900.02,-130.33 911.54,-111.47 885.75,-87.25 880.09,-81.93 873.3,-77.5 866.24,-73.84"/>
<polygon fill="#63b8ff" stroke="#63b8ff" points="965.02,-205.25 975.07,-208.61 969.31,-199.72 965.02,-205.25"/>
</a>
</g>
</g>
<!-- Node29&#45;&gt;Node7 -->
<g id="edge45_Node000029_Node000007" class="edge">
<title>Node29&#45;&gt;Node7</title>
<g id="a_edge45_Node000029_Node000007"><a xlink:title=" ">
<path fill="none" stroke="#63b8ff" d="M931.56,-221.37C916.5,-220.58 900.58,-219.82 885.75,-219.25 701.73,-212.14 484.81,-208.06 375.11,-206.3"/>
<polygon fill="#63b8ff" stroke="#63b8ff" points="931.2,-224.85 941.38,-221.89 931.58,-217.86 931.2,-224.85"/>
</a>
</g>
</g>
<!-- Node29&#45;&gt;Node12 -->
<g id="edge49_Node000029_Node000012" class="edge">
<title>Node29&#45;&gt;Node12</title>
<g id="a_edge49_Node000029_Node000012"><a xlink:title=" ">
<path fill="none" stroke="#63b8ff" d="M932.56,-242.35C928.75,-244.4 925.11,-246.69 921.75,-249.25 898.22,-267.19 909.87,-288.11 885.75,-305.25 885.75,-305.25 375,-428.25 375,-428.25 311.15,-435.83 237.14,-429.83 188.68,-423.92"/>
<polygon fill="#63b8ff" stroke="#63b8ff" points="934.01,-245.53 941.57,-238.11 931.03,-239.19 934.01,-245.53"/>
</a>
</g>
</g>
<!-- Node29&#45;&gt;Node13 -->
<g id="edge50_Node000029_Node000013" class="edge">
<title>Node29&#45;&gt;Node13</title>
<g id="a_edge50_Node000029_Node000013"><a xlink:title=" ">
<path fill="none" stroke="#63b8ff" d="M949.33,-205.39C893.18,-183.66 798.08,-149.73 713,-133.25 565.15,-104.61 525.51,-114.59 375,-109.25 312.28,-107.03 240.22,-107.78 191.84,-108.77"/>
<polygon fill="#63b8ff" stroke="#63b8ff" points="948.03,-208.64 958.62,-209.01 950.57,-202.11 948.03,-208.64"/>
</a>
</g>
</g>
<!-- Node30 -->
<g id="Node000030" class="node">
<title>Node30</title>
<g id="a_Node000030"><a xlink:href="namespacefabomatic.xhtml#af8ee1c3cd4edf1a1ba27899da63b611a" target="_top" xlink:title="periodic check if the user shall be logged off">
<polygon fill="white" stroke="#666666" points="885.75,-247.88 749,-247.88 749,-228.62 885.75,-228.62 885.75,-247.88"/>
<text text-anchor="middle" x="817.38" y="-234.38" font-family="Helvetica,sans-Serif" font-size="10.00">fabomatic::taskLogoffCheck</text>
</a>
</g>
</g>
<!-- Node29&#45;&gt;Node30 -->
<g id="edge47_Node000029_Node000030" class="edge">
<title>Node29&#45;&gt;Node30</title>
<g id="a_edge47_Node000029_Node000030"><a xlink:title=" ">
<path fill="none" stroke="#63b8ff" d="M931.79,-230.06C916.87,-231.14 901.03,-232.28 886.08,-233.36"/>
<polygon fill="#63b8ff" stroke="#63b8ff" points="931.76,-233.58 941.48,-229.37 931.25,-226.59 931.76,-233.58"/>
</a>
</g>
</g>
<!-- Node31 -->
<g id="Node000031" class="node">
<title>Node31</title>
<g id="a_Node000031"><a xlink:href="namespacefabomatic_1_1tests.xhtml#a7cd22311b16fc7c256a30ba4c2f6f387" target="_top" xlink:title="blink led">
<polygon fill="white" stroke="#666666" points="870.38,-296.5 764.38,-296.5 764.38,-266 870.38,-266 870.38,-296.5"/>
<text text-anchor="start" x="772.38" y="-283" font-family="Helvetica,sans-Serif" font-size="10.00">fabomatic::tests::test</text>
<text text-anchor="middle" x="817.38" y="-271.75" font-family="Helvetica,sans-Serif" font-size="10.00">_taskVarious</text>
</a>
</g>
</g>
<!-- Node29&#45;&gt;Node31 -->
<g id="edge48_Node000029_Node000031" class="edge">
<title>Node29&#45;&gt;Node31</title>
<g id="a_edge48_Node000029_Node000031"><a xlink:title=" ">
<path fill="none" stroke="#63b8ff" d="M936.87,-244.41C914.74,-251.29 890.05,-258.97 868.96,-265.52"/>
<polygon fill="#63b8ff" stroke="#63b8ff" points="937.89,-247.76 946.4,-241.45 935.81,-241.07 937.89,-247.76"/>
</a>
</g>
</g>
<!-- Node32&#45;&gt;Node22 -->
<g id="edge55_Node000032_Node000022" class="edge">
<title>Node32&#45;&gt;Node22</title>
<g id="a_edge55_Node000032_Node000022"><a xlink:title=" ">
<path fill="none" stroke="#63b8ff" d="M751.87,-407.36C720.29,-410.85 684.56,-414.79 663.21,-417.14"/>
<polygon fill="#63b8ff" stroke="#63b8ff" points="752.23,-410.85 761.78,-406.27 751.46,-403.89 752.23,-410.85"/>
</a>
</g>
</g>
<!-- Node35&#45;&gt;Node9 -->
<g id="edge60_Node000035_Node000009" class="edge">
<title>Node35&#45;&gt;Node9</title>
<g id="a_edge60_Node000035_Node000009"><a xlink:title=" ">
<path fill="none" stroke="#63b8ff" d="M934.89,-534.8C863.98,-531.25 745.88,-526.25 644.12,-526.25 644.12,-526.25 644.12,-526.25 301.88,-526.25 194.46,-526.25 150.78,-517.37 76,-440.25 33.71,-396.63 23.83,-318.93 21.61,-291.32"/>
<polygon fill="#63b8ff" stroke="#63b8ff" points="934.6,-538.29 944.77,-535.3 934.96,-531.3 934.6,-538.29"/>
</a>
</g>
</g>
</g>
</svg>
