<?xml version="1.0" encoding="UTF-8" standalone="no"?>
<!DOCTYPE svg PUBLIC "-//W3C//DTD SVG 1.1//EN"
 "http://www.w3.org/Graphics/SVG/1.1/DTD/svg11.dtd">
<!-- Generated by graphviz version 9.0.0 (20230911.1827)
 -->
<!-- Title: fabomatic::ServerMQTT::SimpleResponse Pages: 1 -->
<svg width="121pt" height="209pt"
 viewBox="0.00 0.00 121.00 209.00" xmlns="http://www.w3.org/2000/svg" xmlns:xlink="http://www.w3.org/1999/xlink">
<g id="graph0" class="graph" transform="scale(1 1) rotate(0) translate(4 205)">
<title>fabomatic::ServerMQTT::SimpleResponse</title>
<!-- Node1 -->
<g id="Node000001" class="node">
<title>Node1</title>
<g id="a_Node000001"><a xlink:title=" ">
<polygon fill="#999999" stroke="none" points="113,-90 0,-90 0,0 113,0 113,-90"/>
<text text-anchor="start" x="4.75" y="-76.5" font-family="Helvetica,sans-Serif" font-size="10.00">fabomatic::ServerMQTT</text>
<text text-anchor="start" x="17.5" y="-65.25" font-family="Helvetica,sans-Serif" font-size="10.00">::SimpleResponse</text>
<text text-anchor="start" x="55" y="-50.5" font-family="Helvetica,sans-Serif" font-size="10.00"> </text>
<text text-anchor="start" x="8" y="-35.5" font-family="Helvetica,sans-Serif" font-size="10.00">+</text>
<text text-anchor="start" x="22" y="-35.5" font-family="Helvetica,sans-Serif" font-size="10.00">SimpleResponse()</text>
<text text-anchor="start" x="8" y="-20.5" font-family="Helvetica,sans-Serif" font-size="10.00">+</text>
<text text-anchor="start" x="22" y="-20.5" font-family="Helvetica,sans-Serif" font-size="10.00">SimpleResponse()</text>
<text text-anchor="start" x="8" y="-5.5" font-family="Helvetica,sans-Serif" font-size="10.00">+</text>
<text text-anchor="start" x="22" y="-5.5" font-family="Helvetica,sans-Serif" font-size="10.00">fromJson()</text>
<polygon fill="#666666" stroke="#666666" points="0,-62 0,-62 113,-62 113,-62 0,-62"/>
<polygon fill="#666666" stroke="#666666" points="0,-47 0,-47 113,-47 113,-47 0,-47"/>
<polygon fill="none" stroke="#666666" points="0,0 0,-90 113,-90 113,0 0,0"/>
</a>
</g>
</g>
<!-- Node2 -->
<g id="Node000002" class="node">
<title>Node2</title>
<g id="a_Node000002"><a xlink:href="classfabomatic_1_1_server_m_q_t_t_1_1_response.xhtml" target="_top" xlink:title=" ">
<polygon fill="white" stroke="none" points="113,-201 0,-201 0,-126 113,-126 113,-201"/>
<text text-anchor="start" x="4.75" y="-187.5" font-family="Helvetica,sans-Serif" font-size="10.00">fabomatic::ServerMQTT</text>
<text text-anchor="start" x="32.5" y="-176.25" font-family="Helvetica,sans-Serif" font-size="10.00">::Response</text>
<text text-anchor="start" x="15.5" y="-161.5" font-family="Helvetica,sans-Serif" font-size="10.00">+</text>
<text text-anchor="start" x="37" y="-161.5" font-family="Helvetica,sans-Serif" font-size="10.00">request_ok</text>
<text text-anchor="start" x="15.5" y="-146.5" font-family="Helvetica,sans-Serif" font-size="10.00">+</text>
<text text-anchor="start" x="37" y="-146.5" font-family="Helvetica,sans-Serif" font-size="10.00">Response()</text>
<text text-anchor="start" x="15.5" y="-131.5" font-family="Helvetica,sans-Serif" font-size="10.00">+</text>
<text text-anchor="start" x="37" y="-131.5" font-family="Helvetica,sans-Serif" font-size="10.00">Response()</text>
<polygon fill="#666666" stroke="#666666" points="0,-173 0,-173 113,-173 113,-173 0,-173"/>
<polygon fill="#666666" stroke="#666666" points="0,-158 0,-158 35,-158 35,-158 0,-158"/>
<polygon fill="#666666" stroke="#666666" points="35,-158 35,-158 113,-158 113,-158 35,-158"/>
<polygon fill="none" stroke="#666666" points="0,-126 0,-201 113,-201 113,-126 0,-126"/>
</a>
</g>
</g>
<!-- Node2&#45;&gt;Node1 -->
<g id="edge1_Node000001_Node000002" class="edge">
<title>Node2&#45;&gt;Node1</title>
<g id="a_edge1_Node000001_Node000002"><a xlink:title=" ">
<path fill="none" stroke="#63b8ff" d="M56.5,-114.9C56.5,-106.66 56.5,-98.12 56.5,-89.99"/>
<polygon fill="none" stroke="#63b8ff" points="53,-114.76 56.5,-124.76 60,-114.76 53,-114.76"/>
</a>
</g>
</g>
</g>
</svg>
