<?xml version="1.0" encoding="UTF-8" standalone="no"?>
<!DOCTYPE svg PUBLIC "-//W3C//DTD SVG 1.1//EN"
 "http://www.w3.org/Graphics/SVG/1.1/DTD/svg11.dtd">
<!-- Generated by graphviz version 9.0.0 (20230911.1827)
 -->
<!-- Title: fabomatic::Buffer::toJson Pages: 1 -->
<!--zoomable 232 -->

<svg id="main" version="1.1" xmlns="http://www.w3.org/2000/svg" xmlns:xlink="http://www.w3.org/1999/xlink" xml:space="preserve" onload="init(evt)">
<style type="text/css"><![CDATA[
.node, .edge {opacity: 0.7;}
.node.selected, .edge.selected {opacity: 1;}
.edge:hover path { stroke: red; }
.edge:hover polygon { stroke: red; fill: red; }
]]></style>

<defs>
  <circle id="rim" cx="0" cy="0" r="7"/>
  <circle id="rim2" cx="0" cy="0" r="3.5"/>
  <g id="zoomPlus">
    <use xlink:href="#rim" fill="#404040"><set attributeName="fill" to="#808080" begin="zoomplus.mouseover" end="zoomplus.mouseout"/></use>
    <path d="M-4,0h8M0,-4v8" fill="none" stroke="white" stroke-width="1.5" pointer-events="none"/>
  </g>
  <g id="zoomMin">
    <use xlink:href="#rim" fill="#404040"><set attributeName="fill" to="#808080" begin="zoomminus.mouseover" end="zoomminus.mouseout"/></use>
    <path d="M-4,0h8" fill="none" stroke="white" stroke-width="1.5" pointer-events="none"/>
  </g>
  <g id="arrowUp" transform="translate(30 24)">
    <use xlink:href="#rim"/>
    <path pointer-events="none" fill="none" stroke="white" stroke-width="1.5" d="M0,-3.0v7 M-2.5,-0.5L0,-3.0L2.5,-0.5"/>
  </g>
  <g id="arrowRight" transform="rotate(90) translate(36 -43)">
    <use xlink:href="#rim"/>
    <path pointer-events="none" fill="none" stroke="white" stroke-width="1.5" d="M0,-3.0v7 M-2.5,-0.5L0,-3.0L2.5,-0.5"/>
  </g>
  <g id="arrowDown" transform="rotate(180) translate(-30 -48)">
    <use xlink:href="#rim"/>
    <path pointer-events="none" fill="none" stroke="white" stroke-width="1.5" d="M0,-3.0v7 M-2.5,-0.5L0,-3.0L2.5,-0.5"/>
  </g>
  <g id="arrowLeft" transform="rotate(270) translate(-36 17)">
    <use xlink:href="#rim"/>
    <path pointer-events="none" fill="none" stroke="white" stroke-width="1.5" d="M0,-3.0v7 M-2.5,-0.5L0,-3.0L2.5,-0.5"/>
  </g>
  <g id="resetDef">
    <use xlink:href="#rim2" fill="#404040"><set attributeName="fill" to="#808080" begin="reset.mouseover" end="reset.mouseout"/></use>
  </g>
</defs>
<script type="application/ecmascript">
var viewWidth = 783;
var viewHeight = 232;
var sectionId = 'dynsection-9';
</script>
<script type="application/ecmascript" xlink:href="svg.min.js"/>
<svg id="graph" class="graph">
<g id="viewport">
<title>fabomatic::Buffer::toJson</title>
<!-- Node1 -->
<g id="Node000001" class="node">
<title>Node1</title>
<g id="a_Node000001"><a xlink:title=" ">
<polygon fill="#999999" stroke="#666666" points="774.75,-185.7 681.5,-185.7 681.5,-155.2 774.75,-155.2 774.75,-185.7"/>
<text text-anchor="start" x="689.5" y="-172.2" font-family="Helvetica,sans-Serif" font-size="10.00">fabomatic::Buffer::</text>
<text text-anchor="middle" x="728.12" y="-160.95" font-family="Helvetica,sans-Serif" font-size="10.00">toJson</text>
</a>
</g>
</g>
<!-- Node2 -->
<g id="Node000002" class="node">
<title>Node2</title>
<g id="a_Node000002"><a xlink:href="namespacefabomatic_1_1tests.xhtml#a70d156a8423b7e9d4db345cff5eb528f" target="_top" xlink:title=" ">
<polygon fill="white" stroke="#666666" points="639.5,-214.7 533.5,-214.7 533.5,-184.2 639.5,-184.2 639.5,-214.7"/>
<text text-anchor="start" x="541.5" y="-201.2" font-family="Helvetica,sans-Serif" font-size="10.00">fabomatic::tests::test</text>
<text text-anchor="middle" x="586.5" y="-189.95" font-family="Helvetica,sans-Serif" font-size="10.00">_deserialization</text>
</a>
</g>
</g>
<!-- Node1&#45;&gt;Node2 -->
<g id="edge1_Node000001_Node000002" class="edge">
<title>Node1&#45;&gt;Node2</title>
<g id="a_edge1_Node000001_Node000002"><a xlink:title=" ">
<path fill="none" stroke="#63b8ff" d="M669.96,-182.32C659.99,-184.39 649.67,-186.54 639.84,-188.58"/>
<polygon fill="#63b8ff" stroke="#63b8ff" points="670.46,-185.79 679.54,-180.33 669.03,-178.94 670.46,-185.79"/>
</a>
</g>
</g>
<!-- Node5 -->
<g id="Node000005" class="node">
<title>Node5</title>
<g id="a_Node000005"><a xlink:href="classfabomatic_1_1_saved_config.xhtml#ae0af7670707ed5a51c69197eb6fadbe5" target="_top" xlink:title="Serialize the current configuration into a JsonDocument.">
<polygon fill="white" stroke="#666666" points="645.5,-161.7 527.5,-161.7 527.5,-131.2 645.5,-131.2 645.5,-161.7"/>
<text text-anchor="start" x="535.5" y="-148.2" font-family="Helvetica,sans-Serif" font-size="10.00">fabomatic::SavedConfig</text>
<text text-anchor="middle" x="586.5" y="-136.95" font-family="Helvetica,sans-Serif" font-size="10.00">::toJsonDocument</text>
</a>
</g>
</g>
<!-- Node1&#45;&gt;Node5 -->
<g id="edge4_Node000001_Node000005" class="edge">
<title>Node1&#45;&gt;Node5</title>
<g id="a_edge4_Node000001_Node000005"><a xlink:title=" ">
<path fill="none" stroke="#63b8ff" d="M669.94,-160.62C661.96,-159.25 653.75,-157.84 645.76,-156.46"/>
<polygon fill="#63b8ff" stroke="#63b8ff" points="669.08,-164.02 679.53,-162.27 670.27,-157.12 669.08,-164.02"/>
</a>
</g>
</g>
<!-- Node3 -->
<g id="Node000003" class="node">
<title>Node3</title>
<g id="a_Node000003"><a xlink:href="namespacefabomatic_1_1tests.xhtml#a4fbc6366f69847719d0f0cb626572493" target="_top" xlink:title=" ">
<polygon fill="white" stroke="#666666" points="330.75,-223.7 224.75,-223.7 224.75,-193.2 330.75,-193.2 330.75,-223.7"/>
<text text-anchor="start" x="232.75" y="-210.2" font-family="Helvetica,sans-Serif" font-size="10.00">fabomatic::tests::test</text>
<text text-anchor="middle" x="277.75" y="-198.95" font-family="Helvetica,sans-Serif" font-size="10.00">_buffered_msg</text>
</a>
</g>
</g>
<!-- Node2&#45;&gt;Node3 -->
<g id="edge2_Node000002_Node000003" class="edge">
<title>Node2&#45;&gt;Node3</title>
<g id="a_edge2_Node000002_Node000003"><a xlink:title=" ">
<path fill="none" stroke="#63b8ff" d="M521.82,-201.32C465.38,-202.97 383.94,-205.36 331.17,-206.91"/>
<polygon fill="#63b8ff" stroke="#63b8ff" points="521.71,-204.82 531.6,-201.03 521.51,-197.82 521.71,-204.82"/>
</a>
</g>
</g>
<!-- Node4 -->
<g id="Node000004" class="node">
<title>Node4</title>
<g id="a_Node000004"><a xlink:href="test__savedconfig_8cpp.xhtml#a4fc01d736fe50cf5b977f755b675f11d" target="_top" xlink:title=" ">
<polygon fill="white" stroke="#666666" points="40,-181.07 0,-181.07 0,-161.82 40,-161.82 40,-181.07"/>
<text text-anchor="middle" x="20" y="-167.57" font-family="Helvetica,sans-Serif" font-size="10.00">setup</text>
</a>
</g>
</g>
<!-- Node3&#45;&gt;Node4 -->
<g id="edge3_Node000003_Node000004" class="edge">
<title>Node3&#45;&gt;Node4</title>
<g id="a_edge3_Node000003_Node000004"><a xlink:title=" ">
<path fill="none" stroke="#63b8ff" d="M212.99,-199.22C156.22,-191.01 76.71,-179.51 40.43,-174.26"/>
<polygon fill="#63b8ff" stroke="#63b8ff" points="212.48,-202.69 222.88,-200.66 213.48,-195.76 212.48,-202.69"/>
</a>
</g>
</g>
<!-- Node6 -->
<g id="Node000006" class="node">
<title>Node6</title>
<g id="a_Node000006"><a xlink:href="classfabomatic_1_1_saved_config.xhtml#a312c74363068192ae80df24140f82874" target="_top" xlink:title="Saves the configuration to EEPROM.">
<polygon fill="white" stroke="#666666" points="491.5,-110.7 373.5,-110.7 373.5,-80.2 491.5,-80.2 491.5,-110.7"/>
<text text-anchor="start" x="381.5" y="-97.2" font-family="Helvetica,sans-Serif" font-size="10.00">fabomatic::SavedConfig</text>
<text text-anchor="middle" x="432.5" y="-85.95" font-family="Helvetica,sans-Serif" font-size="10.00">::SaveToEEPROM</text>
</a>
</g>
</g>
<!-- Node5&#45;&gt;Node6 -->
<g id="edge5_Node000005_Node000006" class="edge">
<title>Node5&#45;&gt;Node6</title>
<g id="a_edge5_Node000005_Node000006"><a xlink:title=" ">
<path fill="none" stroke="#63b8ff" d="M527.95,-127.14C512.18,-121.85 495.27,-116.18 480.19,-111.11"/>
<polygon fill="#63b8ff" stroke="#63b8ff" points="526.63,-130.39 537.22,-130.25 528.85,-123.75 526.63,-130.39"/>
</a>
</g>
</g>
<!-- Node13 -->
<g id="Node000013" class="node">
<title>Node13</title>
<g id="a_Node000013"><a xlink:href="classfabomatic_1_1_saved_config.xhtml#ad1d484179f439b28d608a9c6737bdc26" target="_top" xlink:title="Returns a json&#45;prettified fragment for logging.">
<polygon fill="white" stroke="#666666" points="491.5,-161.7 373.5,-161.7 373.5,-131.2 491.5,-131.2 491.5,-161.7"/>
<text text-anchor="start" x="381.5" y="-148.2" font-family="Helvetica,sans-Serif" font-size="10.00">fabomatic::SavedConfig</text>
<text text-anchor="middle" x="432.5" y="-136.95" font-family="Helvetica,sans-Serif" font-size="10.00">::toString</text>
</a>
</g>
</g>
<!-- Node5&#45;&gt;Node13 -->
<g id="edge16_Node000005_Node000013" class="edge">
<title>Node5&#45;&gt;Node13</title>
<g id="a_edge16_Node000005_Node000013"><a xlink:title=" ">
<path fill="none" stroke="#63b8ff" d="M515.93,-146.45C507.9,-146.45 499.78,-146.45 491.93,-146.45"/>
<polygon fill="#63b8ff" stroke="#63b8ff" points="515.65,-149.95 525.65,-146.45 515.65,-142.95 515.65,-149.95"/>
</a>
</g>
</g>
<!-- Node7 -->
<g id="Node000007" class="node">
<title>Node7</title>
<g id="a_Node000007"><a xlink:href="classfabomatic_1_1_auth_provider.xhtml#acb92a9381bc8e14bd57b819fc9162750" target="_top" xlink:title="Saves the cache of RFID to EEPROM.">
<polygon fill="white" stroke="#666666" points="337.5,-94.7 218,-94.7 218,-64.2 337.5,-64.2 337.5,-94.7"/>
<text text-anchor="start" x="226" y="-81.2" font-family="Helvetica,sans-Serif" font-size="10.00">fabomatic::AuthProvider</text>
<text text-anchor="middle" x="277.75" y="-69.95" font-family="Helvetica,sans-Serif" font-size="10.00">::saveCache</text>
</a>
</g>
</g>
<!-- Node6&#45;&gt;Node7 -->
<g id="edge6_Node000006_Node000007" class="edge">
<title>Node6&#45;&gt;Node7</title>
<g id="a_edge6_Node000006_Node000007"><a xlink:title=" ">
<path fill="none" stroke="#63b8ff" d="M361.99,-88.17C353.9,-87.32 345.71,-86.46 337.78,-85.63"/>
<polygon fill="#63b8ff" stroke="#63b8ff" points="361.5,-91.64 371.81,-89.2 362.23,-84.67 361.5,-91.64"/>
</a>
</g>
</g>
<!-- Node9 -->
<g id="Node000009" class="node">
<title>Node9</title>
<g id="a_Node000009"><a xlink:href="test__mqtt_8cpp.xhtml#a4fc01d736fe50cf5b977f755b675f11d" target="_top" xlink:title=" ">
<polygon fill="white" stroke="#666666" points="40,-40.07 0,-40.07 0,-20.82 40,-20.82 40,-40.07"/>
<text text-anchor="middle" x="20" y="-26.57" font-family="Helvetica,sans-Serif" font-size="10.00">setup</text>
</a>
</g>
</g>
<!-- Node6&#45;&gt;Node9 -->
<g id="edge13_Node000006_Node000009" class="edge">
<title>Node6&#45;&gt;Node9</title>
<g id="a_edge13_Node000006_Node000009"><a xlink:title=" ">
<path fill="none" stroke="#63b8ff" d="M389.42,-74.84C340.84,-52.39 257.85,-18.12 182,-6.45 135.44,0.71 122.12,3.18 76,-6.45 62.95,-9.17 49.2,-15.17 38.71,-20.49"/>
<polygon fill="#63b8ff" stroke="#63b8ff" points="387.92,-78.01 398.46,-79.08 390.89,-71.67 387.92,-78.01"/>
</a>
</g>
</g>
<!-- Node12 -->
<g id="Node000012" class="node">
<title>Node12</title>
<g id="a_Node000012"><a xlink:href="namespacefabomatic_1_1tests.xhtml#a0bbb6cee5561bf8ac1c4a9117d9d01b8" target="_top" xlink:title=" ">
<polygon fill="white" stroke="#666666" points="330.75,-159.7 224.75,-159.7 224.75,-129.2 330.75,-129.2 330.75,-159.7"/>
<text text-anchor="start" x="232.75" y="-146.2" font-family="Helvetica,sans-Serif" font-size="10.00">fabomatic::tests::test</text>
<text text-anchor="middle" x="277.75" y="-134.95" font-family="Helvetica,sans-Serif" font-size="10.00">_changes</text>
</a>
</g>
</g>
<!-- Node6&#45;&gt;Node12 -->
<g id="edge14_Node000006_Node000012" class="edge">
<title>Node6&#45;&gt;Node12</title>
<g id="a_edge14_Node000006_Node000012"><a xlink:title=" ">
<path fill="none" stroke="#63b8ff" d="M371.81,-114.6C357.25,-119.27 341.83,-124.21 327.82,-128.71"/>
<polygon fill="#63b8ff" stroke="#63b8ff" points="372.85,-117.94 381.31,-111.55 370.72,-111.27 372.85,-117.94"/>
</a>
</g>
</g>
<!-- Node8 -->
<g id="Node000008" class="node">
<title>Node8</title>
<g id="a_Node000008"><a xlink:href="namespacefabomatic_1_1tests.xhtml#a24369d35ba4a370e236b987ff7cb5637" target="_top" xlink:title=" ">
<polygon fill="white" stroke="#666666" points="182,-94.7 76,-94.7 76,-64.2 182,-64.2 182,-94.7"/>
<text text-anchor="start" x="84" y="-81.2" font-family="Helvetica,sans-Serif" font-size="10.00">fabomatic::tests::test</text>
<text text-anchor="middle" x="129" y="-69.95" font-family="Helvetica,sans-Serif" font-size="10.00">_degraded_use</text>
</a>
</g>
</g>
<!-- Node7&#45;&gt;Node8 -->
<g id="edge7_Node000007_Node000008" class="edge">
<title>Node7&#45;&gt;Node8</title>
<g id="a_edge7_Node000007_Node000008"><a xlink:title=" ">
<path fill="none" stroke="#63b8ff" d="M206.45,-79.45C198.29,-79.45 190.08,-79.45 182.22,-79.45"/>
<polygon fill="#63b8ff" stroke="#63b8ff" points="206.39,-82.95 216.39,-79.45 206.39,-75.95 206.39,-82.95"/>
</a>
</g>
</g>
<!-- Node10 -->
<g id="Node000010" class="node">
<title>Node10</title>
<g id="a_Node000010"><a xlink:href="namespacefabomatic_1_1tests.xhtml#a438b9060c27d36e89506199205b342cb" target="_top" xlink:title=" ">
<polygon fill="white" stroke="#666666" points="182,-45.7 76,-45.7 76,-15.2 182,-15.2 182,-45.7"/>
<text text-anchor="start" x="84" y="-32.2" font-family="Helvetica,sans-Serif" font-size="10.00">fabomatic::tests::test</text>
<text text-anchor="middle" x="129" y="-20.95" font-family="Helvetica,sans-Serif" font-size="10.00">_fabserver_calls</text>
</a>
</g>
</g>
<!-- Node7&#45;&gt;Node10 -->
<g id="edge9_Node000007_Node000010" class="edge">
<title>Node7&#45;&gt;Node10</title>
<g id="a_edge9_Node000007_Node000010"><a xlink:title=" ">
<path fill="none" stroke="#63b8ff" d="M219,-60.16C205.12,-55.53 190.47,-50.64 177.15,-46.19"/>
<polygon fill="#63b8ff" stroke="#63b8ff" points="217.88,-63.48 228.48,-63.33 220.1,-56.84 217.88,-63.48"/>
</a>
</g>
</g>
<!-- Node11 -->
<g id="Node000011" class="node">
<title>Node11</title>
<g id="a_Node000011"><a xlink:href="namespacefabomatic_1_1tests.xhtml#aeb3e51f6d2841cd2869df4c0629f694d" target="_top" xlink:title=" ">
<polygon fill="white" stroke="#666666" points="182,-143.7 76,-143.7 76,-113.2 182,-113.2 182,-143.7"/>
<text text-anchor="start" x="84" y="-130.2" font-family="Helvetica,sans-Serif" font-size="10.00">fabomatic::tests::test</text>
<text text-anchor="middle" x="129" y="-118.95" font-family="Helvetica,sans-Serif" font-size="10.00">_rfid_cache</text>
</a>
</g>
</g>
<!-- Node7&#45;&gt;Node11 -->
<g id="edge11_Node000007_Node000011" class="edge">
<title>Node7&#45;&gt;Node11</title>
<g id="a_edge11_Node000007_Node000011"><a xlink:title=" ">
<path fill="none" stroke="#63b8ff" d="M219,-98.73C205.12,-103.36 190.47,-108.26 177.15,-112.71"/>
<polygon fill="#63b8ff" stroke="#63b8ff" points="220.1,-102.05 228.48,-95.57 217.88,-95.41 220.1,-102.05"/>
</a>
</g>
</g>
<!-- Node8&#45;&gt;Node9 -->
<g id="edge8_Node000008_Node000009" class="edge">
<title>Node8&#45;&gt;Node9</title>
<g id="a_edge8_Node000008_Node000009"><a xlink:title=" ">
<path fill="none" stroke="#63b8ff" d="M83.59,-59.11C68.45,-52.18 52.31,-44.79 40.21,-39.24"/>
<polygon fill="#63b8ff" stroke="#63b8ff" points="81.92,-62.2 92.47,-63.18 84.84,-55.83 81.92,-62.2"/>
</a>
</g>
</g>
<!-- Node10&#45;&gt;Node9 -->
<g id="edge10_Node000010_Node000009" class="edge">
<title>Node10&#45;&gt;Node9</title>
<g id="a_edge10_Node000010_Node000009"><a xlink:title=" ">
<path fill="none" stroke="#63b8ff" d="M64.27,-30.45C55.63,-30.45 47.36,-30.45 40.41,-30.45"/>
<polygon fill="#63b8ff" stroke="#63b8ff" points="64.24,-33.95 74.24,-30.45 64.24,-26.95 64.24,-33.95"/>
</a>
</g>
</g>
<!-- Node11&#45;&gt;Node4 -->
<g id="edge12_Node000011_Node000004" class="edge">
<title>Node11&#45;&gt;Node4</title>
<g id="a_edge12_Node000011_Node000004"><a xlink:title=" ">
<path fill="none" stroke="#63b8ff" d="M78.75,-148.24C65.09,-153.73 51.06,-159.37 40.25,-163.71"/>
<polygon fill="#63b8ff" stroke="#63b8ff" points="79.69,-151.64 87.66,-144.66 77.08,-145.14 79.69,-151.64"/>
</a>
</g>
</g>
<!-- Node12&#45;&gt;Node4 -->
<g id="edge15_Node000012_Node000004" class="edge">
<title>Node12&#45;&gt;Node4</title>
<g id="a_edge15_Node000012_Node000004"><a xlink:title=" ">
<path fill="none" stroke="#63b8ff" d="M212.99,-151.18C156.22,-157.17 76.71,-165.57 40.43,-169.4"/>
<polygon fill="#63b8ff" stroke="#63b8ff" points="213.3,-154.67 222.87,-150.14 212.56,-147.71 213.3,-154.67"/>
</a>
</g>
</g>
</g>
</svg>

<g id="navigator" transform="translate(0 0)" fill="#404254">
  <rect fill="#f2f5e9" fill-opacity="0.5" stroke="#606060" stroke-width=".5" x="0" y="0" width="60" height="60"/>
  <use id="zoomplus" xlink:href="#zoomPlus" x="17" y="9" onmousedown="handleZoom(evt,'in')"/>
  <use id="zoomminus" xlink:href="#zoomMin" x="42" y="9" onmousedown="handleZoom(evt,'out')"/>
  <use id="reset" xlink:href="#resetDef" x="30" y="36" onmousedown="handleReset()"/>
   <use id="arrowup" xlink:href="#arrowUp" x="0" y="0" onmousedown="handlePan(0,-1)"/>
  <use id="arrowright" xlink:href="#arrowRight" x="0" y="0" onmousedown="handlePan(1,0)"/>
  <use id="arrowdown" xlink:href="#arrowDown" x="0" y="0" onmousedown="handlePan(0,1)"/>
  <use id="arrowleft" xlink:href="#arrowLeft" x="0" y="0" onmousedown="handlePan(-1,0)"/>
</g>
<svg viewBox="0 0 15 15" width="100%" height="30px" preserveAspectRatio="xMaxYMin meet">
 <g id="arrow_out" transform="scale(0.3 0.3)">
  <a xlink:href="classfabomatic_1_1_buffer_a72f029c82552ccea45eaf611f345c079_icgraph_org.svg" target="_base">
   <rect id="button" ry="5" rx="5" y="6" x="6" height="38" width="38"
        fill="#f2f5e9" fill-opacity="0.5" stroke="#606060" stroke-width="1.0"/>
   <path id="arrow"
     d="M 11.500037,31.436501 C 11.940474,20.09759 22.043105,11.32322 32.158766,21.979434 L 37.068811,17.246167 C 37.068811,17.246167 37.088388,32 37.088388,32 L 22.160133,31.978069 C 22.160133,31.978069 26.997745,27.140456 26.997745,27.140456 C 18.528582,18.264221 13.291696,25.230495 11.500037,31.436501 z"
     style="fill:#404040;"/>
  </a>
 </g>
</svg>

<style type='text/css'>
<![CDATA[
[data-mouse-over-selected='false'] { opacity: 0.7; }
[data-mouse-over-selected='true']  { opacity: 1.0; }
]]>
</style>
<script type="application/ecmascript"><![CDATA[
document.addEventListener('DOMContentLoaded', (event) => {
  highlightEdges();
  highlightAdjacentNodes();
});
]]></script>
</svg>
