<?xml version="1.0" encoding="UTF-8" standalone="no"?>
<!DOCTYPE svg PUBLIC "-//W3C//DTD SVG 1.1//EN"
 "http://www.w3.org/Graphics/SVG/1.1/DTD/svg11.dtd">
<!-- Generated by graphviz version 9.0.0 (20230911.1827)
 -->
<!-- Title: fabomatic::BoardLogic::getLcd Pages: 1 -->
<svg width="1532pt" height="635pt"
 viewBox="0.00 0.00 1531.50 635.46" xmlns="http://www.w3.org/2000/svg" xmlns:xlink="http://www.w3.org/1999/xlink">
<g id="graph0" class="graph" transform="scale(1 1) rotate(0) translate(4 631.46)">
<title>fabomatic::BoardLogic::getLcd</title>
<!-- Node1 -->
<g id="Node000001" class="node">
<title>Node1</title>
<g id="a_Node000001"><a xlink:title=" ">
<polygon fill="#999999" stroke="#666666" points="1523.5,-495.08 1410.75,-495.08 1410.75,-464.58 1523.5,-464.58 1523.5,-495.08"/>
<text text-anchor="start" x="1418.75" y="-481.58" font-family="Helvetica,sans-Serif" font-size="10.00">fabomatic::BoardLogic</text>
<text text-anchor="middle" x="1467.12" y="-470.33" font-family="Helvetica,sans-Serif" font-size="10.00">::getLcd</text>
</a>
</g>
</g>
<!-- Node2 -->
<g id="Node000002" class="node">
<title>Node2</title>
<g id="a_Node000002"><a xlink:href="classfabomatic_1_1_board_logic.xhtml#a3e9fedd51e4895834a9ebea17cba4331" target="_top" xlink:title="Initializes LCD and RFID classes.">
<polygon fill="white" stroke="#666666" points="1374.75,-595.08 1262,-595.08 1262,-564.58 1374.75,-564.58 1374.75,-595.08"/>
<text text-anchor="start" x="1270" y="-581.58" font-family="Helvetica,sans-Serif" font-size="10.00">fabomatic::BoardLogic</text>
<text text-anchor="middle" x="1318.38" y="-570.33" font-family="Helvetica,sans-Serif" font-size="10.00">::initBoard</text>
</a>
</g>
</g>
<!-- Node1&#45;&gt;Node2 -->
<g id="edge1_Node000001_Node000002" class="edge">
<title>Node1&#45;&gt;Node2</title>
<g id="a_edge1_Node000001_Node000002"><a xlink:title=" ">
<path fill="none" stroke="#63b8ff" d="M1433.9,-501.79C1406.13,-520.71 1366.74,-547.56 1342.14,-564.32"/>
<polygon fill="#63b8ff" stroke="#63b8ff" points="1435.65,-504.83 1441.94,-496.31 1431.71,-499.05 1435.65,-504.83"/>
</a>
</g>
</g>
<!-- Node5 -->
<g id="Node000005" class="node">
<title>Node5</title>
<g id="a_Node000005"><a xlink:href="classfabomatic_1_1_board_logic.xhtml#a420a0d05a91a02c27ad3b63a030738a0" target="_top" xlink:title="Asks the user to keep the RFID tag on the reader as confirmation.">
<polygon fill="white" stroke="#666666" points="1226,-148.08 1113.25,-148.08 1113.25,-117.58 1226,-117.58 1226,-148.08"/>
<text text-anchor="start" x="1121.25" y="-134.58" font-family="Helvetica,sans-Serif" font-size="10.00">fabomatic::BoardLogic</text>
<text text-anchor="middle" x="1169.62" y="-123.33" font-family="Helvetica,sans-Serif" font-size="10.00">::longTap</text>
</a>
</g>
</g>
<!-- Node1&#45;&gt;Node5 -->
<g id="edge4_Node000001_Node000005" class="edge">
<title>Node1&#45;&gt;Node5</title>
<g id="a_edge4_Node000001_Node000005"><a xlink:title=" ">
<path fill="none" stroke="#63b8ff" d="M1445.75,-455.91C1389.1,-389.38 1230.8,-203.49 1183.89,-148.41"/>
<polygon fill="#63b8ff" stroke="#63b8ff" points="1442.92,-457.98 1452.07,-463.32 1448.25,-453.44 1442.92,-457.98"/>
</a>
</g>
</g>
<!-- Node20 -->
<g id="Node000020" class="node">
<title>Node20</title>
<g id="a_Node000020"><a xlink:href="classfabomatic_1_1_board_logic.xhtml#a47b4d515c0d3488eceb49769036bce8b" target="_top" xlink:title="Updates the LCD screen as per the current status.">
<polygon fill="white" stroke="#666666" points="1374.75,-495.08 1262,-495.08 1262,-464.58 1374.75,-464.58 1374.75,-495.08"/>
<text text-anchor="start" x="1270" y="-481.58" font-family="Helvetica,sans-Serif" font-size="10.00">fabomatic::BoardLogic</text>
<text text-anchor="middle" x="1318.38" y="-470.33" font-family="Helvetica,sans-Serif" font-size="10.00">::updateLCD</text>
</a>
</g>
</g>
<!-- Node1&#45;&gt;Node20 -->
<g id="edge31_Node000001_Node000020" class="edge">
<title>Node1&#45;&gt;Node20</title>
<g id="a_edge31_Node000001_Node000020"><a xlink:title=" ">
<path fill="none" stroke="#63b8ff" d="M1399.26,-479.83C1391.12,-479.83 1382.88,-479.83 1374.93,-479.83"/>
<polygon fill="#63b8ff" stroke="#63b8ff" points="1399.13,-483.33 1409.13,-479.83 1399.13,-476.33 1399.13,-483.33"/>
</a>
</g>
</g>
<!-- Node3 -->
<g id="Node000003" class="node">
<title>Node3</title>
<g id="a_Node000003"><a xlink:href="main_8cpp.xhtml#a4fc01d736fe50cf5b977f755b675f11d" target="_top" xlink:title=" ">
<polygon fill="white" stroke="#666666" points="663.12,-461.46 623.12,-461.46 623.12,-442.21 663.12,-442.21 663.12,-461.46"/>
<text text-anchor="middle" x="643.12" y="-447.96" font-family="Helvetica,sans-Serif" font-size="10.00">setup</text>
</a>
</g>
</g>
<!-- Node2&#45;&gt;Node3 -->
<g id="edge2_Node000002_Node000003" class="edge">
<title>Node2&#45;&gt;Node3</title>
<g id="a_edge2_Node000002_Node000003"><a xlink:title=" ">
<path fill="none" stroke="#63b8ff" d="M1250.35,-588.31C1137.67,-599.08 907.14,-605.89 749,-507.83 729.23,-495.57 733.03,-481.67 713,-469.83 697.68,-460.77 677.8,-456.21 663.34,-453.95"/>
<polygon fill="#63b8ff" stroke="#63b8ff" points="1250.42,-591.82 1260.03,-587.34 1249.73,-584.85 1250.42,-591.82"/>
</a>
</g>
</g>
<!-- Node4 -->
<g id="Node000004" class="node">
<title>Node4</title>
<g id="a_Node000004"><a xlink:href="test__logic_8cpp.xhtml#a95c834d6178047ce9e1bce7cbfea2836" target="_top" xlink:title=" ">
<polygon fill="white" stroke="#666666" points="1190.75,-627.46 1148.5,-627.46 1148.5,-608.21 1190.75,-608.21 1190.75,-627.46"/>
<text text-anchor="middle" x="1169.62" y="-613.96" font-family="Helvetica,sans-Serif" font-size="10.00">setUp</text>
</a>
</g>
</g>
<!-- Node2&#45;&gt;Node4 -->
<g id="edge3_Node000002_Node000004" class="edge">
<title>Node2&#45;&gt;Node4</title>
<g id="a_edge3_Node000002_Node000004"><a xlink:title=" ">
<path fill="none" stroke="#63b8ff" d="M1250.98,-597.02C1229.23,-602.66 1206.66,-608.5 1191,-612.56"/>
<polygon fill="#63b8ff" stroke="#63b8ff" points="1251.63,-600.47 1260.43,-594.58 1249.87,-593.7 1251.63,-600.47"/>
</a>
</g>
</g>
<!-- Node6 -->
<g id="Node000006" class="node">
<title>Node6</title>
<g id="a_Node000006"><a xlink:href="classfabomatic_1_1_board_logic.xhtml#a51390e6bf10c4de427abd7f175a2e6a8" target="_top" xlink:title="Checks if the card UID is valid, and tries to check the user in to the machine.">
<polygon fill="white" stroke="#666666" points="1055.88,-35.08 943.12,-35.08 943.12,-4.58 1055.88,-4.58 1055.88,-35.08"/>
<text text-anchor="start" x="951.12" y="-21.58" font-family="Helvetica,sans-Serif" font-size="10.00">fabomatic::BoardLogic</text>
<text text-anchor="middle" x="999.5" y="-10.33" font-family="Helvetica,sans-Serif" font-size="10.00">::authorize</text>
</a>
</g>
</g>
<!-- Node5&#45;&gt;Node6 -->
<g id="edge5_Node000005_Node000006" class="edge">
<title>Node5&#45;&gt;Node6</title>
<g id="a_edge5_Node000005_Node000006"><a xlink:title=" ">
<path fill="none" stroke="#63b8ff" d="M1149.35,-108.53C1132.32,-88.55 1105.82,-60.87 1077.25,-43.83 1070.77,-39.97 1063.62,-36.67 1056.35,-33.87"/>
<polygon fill="#63b8ff" stroke="#63b8ff" points="1146.64,-110.75 1155.73,-116.2 1152.02,-106.27 1146.64,-110.75"/>
</a>
</g>
</g>
<!-- Node7 -->
<g id="Node000007" class="node">
<title>Node7</title>
<g id="a_Node000007"><a xlink:href="classfabomatic_1_1_board_logic.xhtml#a983c8de8b9c8881fc0a4e60dddc7f0c6" target="_top" xlink:title="Called when a RFID tag has been detected.">
<polygon fill="white" stroke="#666666" points="873.75,-148.08 761,-148.08 761,-117.58 873.75,-117.58 873.75,-148.08"/>
<text text-anchor="start" x="769" y="-134.58" font-family="Helvetica,sans-Serif" font-size="10.00">fabomatic::BoardLogic</text>
<text text-anchor="middle" x="817.38" y="-123.33" font-family="Helvetica,sans-Serif" font-size="10.00">::onNewCard</text>
</a>
</g>
</g>
<!-- Node6&#45;&gt;Node7 -->
<g id="edge6_Node000006_Node000007" class="edge">
<title>Node6&#45;&gt;Node7</title>
<g id="a_edge6_Node000006_Node000007"><a xlink:title=" ">
<path fill="none" stroke="#63b8ff" d="M932.37,-38.55C928.72,-40.18 925.15,-41.95 921.75,-43.83 885.93,-63.72 851.32,-97.38 832.63,-117.11"/>
<polygon fill="#63b8ff" stroke="#63b8ff" points="933.54,-41.85 941.46,-34.82 930.88,-35.37 933.54,-41.85"/>
</a>
</g>
</g>
<!-- Node16 -->
<g id="Node000016" class="node">
<title>Node16</title>
<g id="a_Node000016"><a xlink:href="namespacefabomatic_1_1tests.xhtml#aab0f4e1439b281ffef8be51db9a81f9d" target="_top" xlink:title=" ">
<polygon fill="white" stroke="#666666" points="191.75,-114.08 79,-114.08 79,-83.58 191.75,-83.58 191.75,-114.08"/>
<text text-anchor="start" x="87" y="-100.58" font-family="Helvetica,sans-Serif" font-size="10.00">fabomatic::tests::test</text>
<text text-anchor="middle" x="135.38" y="-89.33" font-family="Helvetica,sans-Serif" font-size="10.00">_whitelist_no_network</text>
</a>
</g>
</g>
<!-- Node6&#45;&gt;Node16 -->
<g id="edge30_Node000006_Node000016" class="edge">
<title>Node6&#45;&gt;Node16</title>
<g id="a_edge30_Node000006_Node000016"><a xlink:title=" ">
<path fill="none" stroke="#63b8ff" d="M931.21,-14.98C859.95,-10.28 744.18,-3.83 644.12,-3.83 644.12,-3.83 644.12,-3.83 473.12,-3.83 364.88,-3.83 331.6,11.5 230.75,-27.83 199.04,-40.2 168.77,-66.38 151.41,-83.26"/>
<polygon fill="#63b8ff" stroke="#63b8ff" points="930.96,-18.48 941.17,-15.65 931.43,-11.49 930.96,-18.48"/>
</a>
</g>
</g>
<!-- Node8 -->
<g id="Node000008" class="node">
<title>Node8</title>
<g id="a_Node000008"><a xlink:href="classfabomatic_1_1_board_logic.xhtml#a25bdc3a49d850aa49f92faf951b68efb" target="_top" xlink:title="Checks if a new card is present.">
<polygon fill="white" stroke="#666666" points="699.5,-143.08 586.75,-143.08 586.75,-112.58 699.5,-112.58 699.5,-143.08"/>
<text text-anchor="start" x="594.75" y="-129.58" font-family="Helvetica,sans-Serif" font-size="10.00">fabomatic::BoardLogic</text>
<text text-anchor="middle" x="643.12" y="-118.33" font-family="Helvetica,sans-Serif" font-size="10.00">::checkRfid</text>
</a>
</g>
</g>
<!-- Node7&#45;&gt;Node8 -->
<g id="edge7_Node000007_Node000008" class="edge">
<title>Node7&#45;&gt;Node8</title>
<g id="a_edge7_Node000007_Node000008"><a xlink:title=" ">
<path fill="none" stroke="#63b8ff" d="M749.69,-130.9C733.19,-130.42 715.68,-129.91 699.77,-129.45"/>
<polygon fill="#63b8ff" stroke="#63b8ff" points="749.32,-134.39 759.41,-131.18 749.52,-127.39 749.32,-134.39"/>
</a>
</g>
</g>
<!-- Node9 -->
<g id="Node000009" class="node">
<title>Node9</title>
<g id="a_Node000009"><a xlink:href="namespacefabomatic_1_1tests.xhtml#a2600320f41c9fa343c66058ecb12b5ee" target="_top" xlink:title="Simulates RFID card tap.">
<polygon fill="white" stroke="#666666" points="537.25,-224.08 411,-224.08 411,-193.58 537.25,-193.58 537.25,-224.08"/>
<text text-anchor="start" x="419" y="-210.58" font-family="Helvetica,sans-Serif" font-size="10.00">fabomatic::tests::simulate</text>
<text text-anchor="middle" x="474.12" y="-199.33" font-family="Helvetica,sans-Serif" font-size="10.00">_rfid_card</text>
</a>
</g>
</g>
<!-- Node8&#45;&gt;Node9 -->
<g id="edge8_Node000008_Node000009" class="edge">
<title>Node8&#45;&gt;Node9</title>
<g id="a_edge8_Node000008_Node000009"><a xlink:title=" ">
<path fill="none" stroke="#63b8ff" d="M605.58,-149.21C585.69,-160.45 560.47,-174.09 537.25,-184.83 531.06,-187.7 524.42,-190.52 517.87,-193.16"/>
<polygon fill="#63b8ff" stroke="#63b8ff" points="607.19,-152.32 614.14,-144.32 603.72,-146.24 607.19,-152.32"/>
</a>
</g>
</g>
<!-- Node8&#45;&gt;Node16 -->
<g id="edge29_Node000008_Node000016" class="edge">
<title>Node8&#45;&gt;Node16</title>
<g id="a_edge29_Node000008_Node000016"><a xlink:title=" ">
<path fill="none" stroke="#63b8ff" d="M583.91,-109.08C568.86,-104.97 552.58,-101.15 537.25,-98.83 415.28,-80.36 270.03,-87.47 192.21,-93.59"/>
<polygon fill="#63b8ff" stroke="#63b8ff" points="582.58,-112.34 593.16,-111.7 584.49,-105.61 582.58,-112.34"/>
</a>
</g>
</g>
<!-- Node18 -->
<g id="Node000018" class="node">
<title>Node18</title>
<g id="a_Node000018"><a xlink:href="namespacefabomatic.xhtml#a3e5c190499522bddad3f3cc69274f16c" target="_top" xlink:title="periodic check for new RFID card">
<polygon fill="white" stroke="#666666" points="537.25,-175.46 411,-175.46 411,-156.21 537.25,-156.21 537.25,-175.46"/>
<text text-anchor="middle" x="474.12" y="-161.96" font-family="Helvetica,sans-Serif" font-size="10.00">fabomatic::taskCheckRfid</text>
</a>
</g>
</g>
<!-- Node8&#45;&gt;Node18 -->
<g id="edge27_Node000008_Node000018" class="edge">
<title>Node8&#45;&gt;Node18</title>
<g id="a_edge27_Node000008_Node000018"><a xlink:title=" ">
<path fill="none" stroke="#63b8ff" d="M575.31,-143.04C556.51,-147.31 536.54,-151.86 519.42,-155.75"/>
<polygon fill="#63b8ff" stroke="#63b8ff" points="576.07,-146.45 585.04,-140.82 574.51,-139.63 576.07,-146.45"/>
</a>
</g>
</g>
<!-- Node19 -->
<g id="Node000019" class="node">
<title>Node19</title>
<g id="a_Node000019"><a xlink:href="namespacefabomatic_1_1tests.xhtml#a294b4767ecf1e1d11cc31dafb2541d23" target="_top" xlink:title="periodic check for new RFID card">
<polygon fill="white" stroke="#666666" points="527.12,-138.08 421.12,-138.08 421.12,-107.58 527.12,-107.58 527.12,-138.08"/>
<text text-anchor="start" x="429.12" y="-124.58" font-family="Helvetica,sans-Serif" font-size="10.00">fabomatic::tests::test</text>
<text text-anchor="middle" x="474.12" y="-113.33" font-family="Helvetica,sans-Serif" font-size="10.00">_taskCheckRfid</text>
</a>
</g>
</g>
<!-- Node8&#45;&gt;Node19 -->
<g id="edge28_Node000008_Node000019" class="edge">
<title>Node8&#45;&gt;Node19</title>
<g id="a_edge28_Node000008_Node000019"><a xlink:title=" ">
<path fill="none" stroke="#63b8ff" d="M575.13,-125.83C559.23,-125.35 542.51,-124.85 527.38,-124.4"/>
<polygon fill="#63b8ff" stroke="#63b8ff" points="574.9,-129.32 585,-126.12 575.11,-122.32 574.9,-129.32"/>
</a>
</g>
</g>
<!-- Node10 -->
<g id="Node000010" class="node">
<title>Node10</title>
<g id="a_Node000010"><a xlink:href="namespacefabomatic_1_1tests.xhtml#a6a7645a865dc822746f972ea6f43224d" target="_top" xlink:title="Resets machine to initial state, clearing flags.">
<polygon fill="white" stroke="#666666" points="375,-289.46 230.75,-289.46 230.75,-270.21 375,-270.21 375,-289.46"/>
<text text-anchor="middle" x="302.88" y="-275.96" font-family="Helvetica,sans-Serif" font-size="10.00">fabomatic::tests::machine_init</text>
</a>
</g>
</g>
<!-- Node9&#45;&gt;Node10 -->
<g id="edge9_Node000009_Node000010" class="edge">
<title>Node9&#45;&gt;Node10</title>
<g id="a_edge9_Node000009_Node000010"><a xlink:title=" ">
<path fill="none" stroke="#63b8ff" d="M429.09,-229.21C423,-232.08 416.84,-235.01 411,-237.83 394.89,-245.62 391.51,-248.96 375,-255.83 362.73,-260.94 348.94,-265.79 336.8,-269.77"/>
<polygon fill="#63b8ff" stroke="#63b8ff" points="430.25,-232.53 437.82,-225.11 427.28,-226.19 430.25,-232.53"/>
</a>
</g>
</g>
<!-- Node11 -->
<g id="Node000011" class="node">
<title>Node11</title>
<g id="a_Node000011"><a xlink:href="namespacefabomatic_1_1tests.xhtml#a558e2287db01a4622581246a19dac397" target="_top" xlink:title=" ">
<polygon fill="white" stroke="#666666" points="188.38,-222.08 82.38,-222.08 82.38,-191.58 188.38,-191.58 188.38,-222.08"/>
<text text-anchor="start" x="90.38" y="-208.58" font-family="Helvetica,sans-Serif" font-size="10.00">fabomatic::tests::test</text>
<text text-anchor="middle" x="135.38" y="-197.33" font-family="Helvetica,sans-Serif" font-size="10.00">_machine_allowed</text>
</a>
</g>
</g>
<!-- Node9&#45;&gt;Node11 -->
<g id="edge20_Node000009_Node000011" class="edge">
<title>Node9&#45;&gt;Node11</title>
<g id="a_edge20_Node000009_Node000011"><a xlink:title=" ">
<path fill="none" stroke="#63b8ff" d="M399.4,-208.39C335.67,-208.02 245.16,-207.48 188.65,-207.14"/>
<polygon fill="#63b8ff" stroke="#63b8ff" points="399.04,-211.89 409.06,-208.45 399.08,-204.89 399.04,-211.89"/>
</a>
</g>
</g>
<!-- Node13 -->
<g id="Node000013" class="node">
<title>Node13</title>
<g id="a_Node000013"><a xlink:href="namespacefabomatic_1_1tests.xhtml#a9a34631c2dc01cbdbbce146895c94e12" target="_top" xlink:title=" ">
<polygon fill="white" stroke="#666666" points="194.75,-320.08 76,-320.08 76,-289.58 194.75,-289.58 194.75,-320.08"/>
<text text-anchor="start" x="84" y="-306.58" font-family="Helvetica,sans-Serif" font-size="10.00">fabomatic::tests::test</text>
<text text-anchor="middle" x="135.38" y="-295.33" font-family="Helvetica,sans-Serif" font-size="10.00">_machine_maintenance</text>
</a>
</g>
</g>
<!-- Node9&#45;&gt;Node13 -->
<g id="edge21_Node000009_Node000013" class="edge">
<title>Node9&#45;&gt;Node13</title>
<g id="a_edge21_Node000009_Node000013"><a xlink:title=" ">
<path fill="none" stroke="#63b8ff" d="M454.89,-233.52C437.21,-255.23 408.24,-285.42 375,-298.83 317.17,-322.18 244.86,-320.15 195.09,-314.51"/>
<polygon fill="#63b8ff" stroke="#63b8ff" points="457.6,-235.73 461.04,-225.71 452.1,-231.4 457.6,-235.73"/>
</a>
</g>
</g>
<!-- Node14 -->
<g id="Node000014" class="node">
<title>Node14</title>
<g id="a_Node000014"><a xlink:href="namespacefabomatic_1_1tests.xhtml#a6f3dff17fd964aba76c35c514957a0a5" target="_top" xlink:title=" ">
<polygon fill="white" stroke="#666666" points="189.88,-271.08 80.88,-271.08 80.88,-240.58 189.88,-240.58 189.88,-271.08"/>
<text text-anchor="start" x="88.88" y="-257.58" font-family="Helvetica,sans-Serif" font-size="10.00">fabomatic::tests::test</text>
<text text-anchor="middle" x="135.38" y="-246.33" font-family="Helvetica,sans-Serif" font-size="10.00">_one_user_at_a_time</text>
</a>
</g>
</g>
<!-- Node9&#45;&gt;Node14 -->
<g id="edge24_Node000009_Node000014" class="edge">
<title>Node9&#45;&gt;Node14</title>
<g id="a_edge24_Node000009_Node000014"><a xlink:title=" ">
<path fill="none" stroke="#63b8ff" d="M399.5,-219.11C336.37,-227.92 246.9,-240.41 190.26,-248.31"/>
<polygon fill="#63b8ff" stroke="#63b8ff" points="399.65,-222.62 409.08,-217.77 398.69,-215.69 399.65,-222.62"/>
</a>
</g>
</g>
<!-- Node15 -->
<g id="Node000015" class="node">
<title>Node15</title>
<g id="a_Node000015"><a xlink:href="namespacefabomatic_1_1tests.xhtml#afa92fef9250d918ee02c79dbf2de2546" target="_top" xlink:title=" ">
<polygon fill="white" stroke="#666666" points="188.38,-370.08 82.38,-370.08 82.38,-339.58 188.38,-339.58 188.38,-370.08"/>
<text text-anchor="start" x="90.38" y="-356.58" font-family="Helvetica,sans-Serif" font-size="10.00">fabomatic::tests::test</text>
<text text-anchor="middle" x="135.38" y="-345.33" font-family="Helvetica,sans-Serif" font-size="10.00">_user_autologoff</text>
</a>
</g>
</g>
<!-- Node9&#45;&gt;Node15 -->
<g id="edge25_Node000009_Node000015" class="edge">
<title>Node9&#45;&gt;Node15</title>
<g id="a_edge25_Node000009_Node000015"><a xlink:title=" ">
<path fill="none" stroke="#63b8ff" d="M458.86,-234.41C442.41,-261.28 412.7,-302.4 375,-322.83 316.75,-354.4 239.16,-359.15 188.5,-358.18"/>
<polygon fill="#63b8ff" stroke="#63b8ff" points="461.85,-236.24 463.93,-225.85 455.83,-232.67 461.85,-236.24"/>
</a>
</g>
</g>
<!-- Node9&#45;&gt;Node16 -->
<g id="edge26_Node000009_Node000016" class="edge">
<title>Node9&#45;&gt;Node16</title>
<g id="a_edge26_Node000009_Node000016"><a xlink:title=" ">
<path fill="none" stroke="#63b8ff" d="M414.6,-187.4C413.37,-186.57 412.17,-185.72 411,-184.83 389.74,-168.74 397.84,-150.6 375,-136.83 319.14,-103.15 243.1,-96.36 192,-96.23"/>
<polygon fill="#63b8ff" stroke="#63b8ff" points="412.83,-190.41 423.23,-192.43 416.36,-184.37 412.83,-190.41"/>
</a>
</g>
</g>
<!-- Node17 -->
<g id="Node000017" class="node">
<title>Node17</title>
<g id="a_Node000017"><a xlink:href="namespacefabomatic_1_1tests.xhtml#af8fa7ace86309b5f699540d8898660c7" target="_top" xlink:title=" ">
<polygon fill="white" stroke="#666666" points="355.88,-176.08 249.88,-176.08 249.88,-145.58 355.88,-145.58 355.88,-176.08"/>
<text text-anchor="start" x="257.88" y="-162.58" font-family="Helvetica,sans-Serif" font-size="10.00">fabomatic::tests::test</text>
<text text-anchor="middle" x="302.88" y="-151.33" font-family="Helvetica,sans-Serif" font-size="10.00">_messages_buffered</text>
</a>
</g>
</g>
<!-- Node9&#45;&gt;Node17 -->
<g id="edge22_Node000009_Node000017" class="edge">
<title>Node9&#45;&gt;Node17</title>
<g id="a_edge22_Node000009_Node000017"><a xlink:title=" ">
<path fill="none" stroke="#63b8ff" d="M406.85,-190.04C390.06,-185.27 372.25,-180.22 356.26,-175.69"/>
<polygon fill="#63b8ff" stroke="#63b8ff" points="405.67,-193.34 416.25,-192.7 407.58,-186.61 405.67,-193.34"/>
</a>
</g>
</g>
<!-- Node10&#45;&gt;Node11 -->
<g id="edge10_Node000010_Node000011" class="edge">
<title>Node10&#45;&gt;Node11</title>
<g id="a_edge10_Node000010_Node000011"><a xlink:title=" ">
<path fill="none" stroke="#63b8ff" d="M269.38,-265.1C248.17,-255.53 219.87,-242.84 194.75,-231.83 187.78,-228.78 180.33,-225.56 173.16,-222.48"/>
<polygon fill="#63b8ff" stroke="#63b8ff" points="267.83,-268.24 278.39,-269.17 270.71,-261.87 267.83,-268.24"/>
</a>
</g>
</g>
<!-- Node10&#45;&gt;Node13 -->
<g id="edge12_Node000010_Node000013" class="edge">
<title>Node10&#45;&gt;Node13</title>
<g id="a_edge12_Node000010_Node000013"><a xlink:title=" ">
<path fill="none" stroke="#63b8ff" d="M223.81,-291.63C214.18,-293.08 204.47,-294.55 195.2,-295.95"/>
<polygon fill="#63b8ff" stroke="#63b8ff" points="224.18,-295.11 233.54,-290.16 223.13,-288.19 224.18,-295.11"/>
</a>
</g>
</g>
<!-- Node10&#45;&gt;Node14 -->
<g id="edge14_Node000010_Node000014" class="edge">
<title>Node10&#45;&gt;Node14</title>
<g id="a_edge14_Node000010_Node000014"><a xlink:title=" ">
<path fill="none" stroke="#63b8ff" d="M220.9,-268.09C210.47,-266.58 200,-265.06 190.16,-263.63"/>
<polygon fill="#63b8ff" stroke="#63b8ff" points="220.27,-271.54 230.67,-269.51 221.28,-264.61 220.27,-271.54"/>
</a>
</g>
</g>
<!-- Node10&#45;&gt;Node15 -->
<g id="edge16_Node000010_Node000015" class="edge">
<title>Node10&#45;&gt;Node15</title>
<g id="a_edge16_Node000010_Node000015"><a xlink:title=" ">
<path fill="none" stroke="#63b8ff" d="M269.76,-294.63C248.5,-304.39 219.99,-317.44 194.75,-328.83 187.27,-332.21 179.23,-335.81 171.59,-339.22"/>
<polygon fill="#63b8ff" stroke="#63b8ff" points="271.16,-297.83 278.78,-290.48 268.23,-291.47 271.16,-297.83"/>
</a>
</g>
</g>
<!-- Node10&#45;&gt;Node16 -->
<g id="edge18_Node000010_Node000016" class="edge">
<title>Node10&#45;&gt;Node16</title>
<g id="a_edge18_Node000010_Node000016"><a xlink:title=" ">
<path fill="none" stroke="#63b8ff" d="M285.38,-261.8C252.92,-226.29 181.24,-147.9 150.66,-114.45"/>
<polygon fill="#63b8ff" stroke="#63b8ff" points="282.39,-263.71 291.72,-268.73 287.55,-258.98 282.39,-263.71"/>
</a>
</g>
</g>
<!-- Node12 -->
<g id="Node000012" class="node">
<title>Node12</title>
<g id="a_Node000012"><a xlink:href="test__logic_8cpp.xhtml#a4fc01d736fe50cf5b977f755b675f11d" target="_top" xlink:title=" ">
<polygon fill="white" stroke="#666666" points="40,-265.46 0,-265.46 0,-246.21 40,-246.21 40,-265.46"/>
<text text-anchor="middle" x="20" y="-251.96" font-family="Helvetica,sans-Serif" font-size="10.00">setup</text>
</a>
</g>
</g>
<!-- Node11&#45;&gt;Node12 -->
<g id="edge11_Node000011_Node000012" class="edge">
<title>Node11&#45;&gt;Node12</title>
<g id="a_edge11_Node000011_Node000012"><a xlink:title=" ">
<path fill="none" stroke="#63b8ff" d="M87.08,-227.06C83.33,-228.67 79.6,-230.28 76,-231.83 64.14,-236.96 50.87,-242.75 40.33,-247.36"/>
<polygon fill="#63b8ff" stroke="#63b8ff" points="88.42,-230.29 96.22,-223.13 85.65,-223.86 88.42,-230.29"/>
</a>
</g>
</g>
<!-- Node13&#45;&gt;Node12 -->
<g id="edge13_Node000013_Node000012" class="edge">
<title>Node13&#45;&gt;Node12</title>
<g id="a_edge13_Node000013_Node000012"><a xlink:title=" ">
<path fill="none" stroke="#63b8ff" d="M87.08,-284.61C83.33,-283 79.6,-281.39 76,-279.83 64.14,-274.71 50.87,-268.92 40.33,-264.31"/>
<polygon fill="#63b8ff" stroke="#63b8ff" points="85.65,-287.81 96.22,-288.54 88.42,-281.37 85.65,-287.81"/>
</a>
</g>
</g>
<!-- Node14&#45;&gt;Node12 -->
<g id="edge15_Node000014_Node000012" class="edge">
<title>Node14&#45;&gt;Node12</title>
<g id="a_edge15_Node000014_Node000012"><a xlink:title=" ">
<path fill="none" stroke="#63b8ff" d="M69.2,-255.83C58.7,-255.83 48.6,-255.83 40.38,-255.83"/>
<polygon fill="#63b8ff" stroke="#63b8ff" points="69.16,-259.33 79.16,-255.83 69.16,-252.33 69.16,-259.33"/>
</a>
</g>
</g>
<!-- Node15&#45;&gt;Node12 -->
<g id="edge17_Node000015_Node000012" class="edge">
<title>Node15&#45;&gt;Node12</title>
<g id="a_edge17_Node000015_Node000012"><a xlink:title=" ">
<path fill="none" stroke="#63b8ff" d="M82.22,-333.33C80.06,-331.9 77.98,-330.4 76,-328.83 53.28,-310.75 34.94,-281.22 26.32,-265.84"/>
<polygon fill="#63b8ff" stroke="#63b8ff" points="80.36,-336.29 90.75,-338.34 83.9,-330.26 80.36,-336.29"/>
</a>
</g>
</g>
<!-- Node16&#45;&gt;Node12 -->
<g id="edge19_Node000016_Node000012" class="edge">
<title>Node16&#45;&gt;Node12</title>
<g id="a_edge19_Node000016_Node000012"><a xlink:title=" ">
<path fill="none" stroke="#63b8ff" d="M102.89,-121.36C93.5,-129.06 83.68,-138.18 76,-147.83 50.46,-179.95 31.92,-225.8 24.53,-245.83"/>
<polygon fill="#63b8ff" stroke="#63b8ff" points="104.79,-124.32 110.49,-115.39 100.47,-118.82 104.79,-124.32"/>
</a>
</g>
</g>
<!-- Node17&#45;&gt;Node12 -->
<g id="edge23_Node000017_Node000012" class="edge">
<title>Node17&#45;&gt;Node12</title>
<g id="a_edge23_Node000017_Node000012"><a xlink:title=" ">
<path fill="none" stroke="#63b8ff" d="M238.08,-153.83C190.46,-151.61 125.37,-155.15 76,-182.83 50.12,-197.35 32.7,-229.61 25.19,-245.94"/>
<polygon fill="#63b8ff" stroke="#63b8ff" points="237.78,-157.32 247.97,-154.4 238.19,-150.33 237.78,-157.32"/>
</a>
</g>
</g>
<!-- Node21 -->
<g id="Node000021" class="node">
<title>Node21</title>
<g id="a_Node000021"><a xlink:href="classfabomatic_1_1_board_logic.xhtml#a3c38d7a3ed7952c6d6297efdf50ea4dd" target="_top" xlink:title="Sets the board in the state given.">
<polygon fill="white" stroke="#666666" points="1226,-329.08 1113.25,-329.08 1113.25,-298.58 1226,-298.58 1226,-329.08"/>
<text text-anchor="start" x="1121.25" y="-315.58" font-family="Helvetica,sans-Serif" font-size="10.00">fabomatic::BoardLogic</text>
<text text-anchor="middle" x="1169.62" y="-304.33" font-family="Helvetica,sans-Serif" font-size="10.00">::changeStatus</text>
</a>
</g>
</g>
<!-- Node20&#45;&gt;Node21 -->
<g id="edge32_Node000020_Node000021" class="edge">
<title>Node20&#45;&gt;Node21</title>
<g id="a_edge32_Node000020_Node000021"><a xlink:title=" ">
<path fill="none" stroke="#63b8ff" d="M1296.02,-455.67C1265.49,-421.14 1210.23,-358.63 1184.5,-329.53"/>
<polygon fill="#63b8ff" stroke="#63b8ff" points="1293.32,-457.91 1302.57,-463.08 1298.57,-453.27 1293.32,-457.91"/>
</a>
</g>
</g>
<!-- Node32 -->
<g id="Node000032" class="node">
<title>Node32</title>
<g id="a_Node000032"><a xlink:href="namespacefabomatic_1_1tests.xhtml#aec03a7ee459718d314b930fdd75d3cee" target="_top" xlink:title=" ">
<polygon fill="white" stroke="#666666" points="1052.5,-552.08 946.5,-552.08 946.5,-521.58 1052.5,-521.58 1052.5,-552.08"/>
<text text-anchor="start" x="954.5" y="-538.58" font-family="Helvetica,sans-Serif" font-size="10.00">fabomatic::tests::test</text>
<text text-anchor="middle" x="999.5" y="-527.33" font-family="Helvetica,sans-Serif" font-size="10.00">_simple_methods</text>
</a>
</g>
</g>
<!-- Node20&#45;&gt;Node32 -->
<g id="edge58_Node000020_Node000032" class="edge">
<title>Node20&#45;&gt;Node32</title>
<g id="a_edge58_Node000020_Node000032"><a xlink:title=" ">
<path fill="none" stroke="#63b8ff" d="M1250.76,-491.82C1191.83,-502.42 1107.01,-517.67 1052.83,-527.42"/>
<polygon fill="#63b8ff" stroke="#63b8ff" points="1251.1,-495.31 1260.33,-490.09 1249.87,-488.42 1251.1,-495.31"/>
</a>
</g>
</g>
<!-- Node21&#45;&gt;Node3 -->
<g id="edge48_Node000021_Node000003" class="edge">
<title>Node21&#45;&gt;Node3</title>
<g id="a_edge48_Node000021_Node000003"><a xlink:title=" ">
<path fill="none" stroke="#63b8ff" d="M1101.76,-296.06C1048.67,-286 974.78,-281.41 921.75,-315.83 889.38,-336.84 915.57,-370.35 885.75,-394.83 868.3,-409.16 717.59,-438.21 663.42,-448.29"/>
<polygon fill="#63b8ff" stroke="#63b8ff" points="1100.78,-299.43 1111.28,-297.98 1102.17,-292.57 1100.78,-299.43"/>
</a>
</g>
</g>
<!-- Node21&#45;&gt;Node6 -->
<g id="edge33_Node000021_Node000006" class="edge">
<title>Node21&#45;&gt;Node6</title>
<g id="a_edge33_Node000021_Node000006"><a xlink:title=" ">
<path fill="none" stroke="#63b8ff" d="M1159.06,-287.51C1147.83,-256.4 1128.74,-203 1113.25,-156.83 1096.48,-106.86 1114.62,-81 1077.25,-43.83 1071.31,-37.93 1063.94,-33.47 1056.13,-30.11"/>
<polygon fill="#63b8ff" stroke="#63b8ff" points="1155.75,-288.65 1162.45,-296.87 1162.34,-286.27 1155.75,-288.65"/>
</a>
</g>
</g>
<!-- Node21&#45;&gt;Node7 -->
<g id="edge46_Node000021_Node000007" class="edge">
<title>Node21&#45;&gt;Node7</title>
<g id="a_edge46_Node000021_Node000007"><a xlink:title=" ">
<path fill="none" stroke="#63b8ff" d="M1156.9,-288.42C1142.37,-259.84 1114.83,-214.25 1077.25,-189.83 1015.51,-149.71 929.82,-137.48 874.24,-133.94"/>
<polygon fill="#63b8ff" stroke="#63b8ff" points="1153.62,-289.66 1161.17,-297.1 1159.9,-286.58 1153.62,-289.66"/>
</a>
</g>
</g>
<!-- Node21&#45;&gt;Node8 -->
<g id="edge34_Node000021_Node000008" class="edge">
<title>Node21&#45;&gt;Node8</title>
<g id="a_edge34_Node000021_Node000008"><a xlink:title=" ">
<path fill="none" stroke="#63b8ff" d="M1163.07,-287.1C1153.26,-247.11 1128.81,-172.51 1077.25,-135.83 961.58,-53.55 781.02,-88.25 694.14,-112.16"/>
<polygon fill="#63b8ff" stroke="#63b8ff" points="1159.66,-287.89 1165.32,-296.84 1166.48,-286.31 1159.66,-287.89"/>
</a>
</g>
</g>
<!-- Node22 -->
<g id="Node000022" class="node">
<title>Node22</title>
<g id="a_Node000022"><a xlink:href="namespacefabomatic.xhtml#aaa30fd4002cc95e50c035f2d3dcdb44d" target="_top" xlink:title=" ">
<polygon fill="white" stroke="#666666" points="1074.62,-465.46 924.38,-465.46 924.38,-446.21 1074.62,-446.21 1074.62,-465.46"/>
<text text-anchor="middle" x="999.5" y="-451.96" font-family="Helvetica,sans-Serif" font-size="10.00">fabomatic::configModeCallback</text>
</a>
</g>
</g>
<!-- Node21&#45;&gt;Node22 -->
<g id="edge35_Node000021_Node000022" class="edge">
<title>Node21&#45;&gt;Node22</title>
<g id="a_edge35_Node000021_Node000022"><a xlink:title=" ">
<path fill="none" stroke="#63b8ff" d="M1156.61,-339.61C1141.96,-368.13 1114.46,-413.29 1077.25,-437.83 1072.45,-441 1067.16,-443.61 1061.67,-445.76"/>
<polygon fill="#63b8ff" stroke="#63b8ff" points="1159.61,-341.44 1160.92,-330.93 1153.34,-338.33 1159.61,-341.44"/>
</a>
</g>
</g>
<!-- Node23 -->
<g id="Node000023" class="node">
<title>Node23</title>
<g id="a_Node000023"><a xlink:href="namespacefabomatic.xhtml#a8374c0d1cef777c26dc13b4abc9c52b6" target="_top" xlink:title="Open the ArduinoOTA configuration portal.">
<polygon fill="white" stroke="#666666" points="885.75,-498.46 749,-498.46 749,-479.21 885.75,-479.21 885.75,-498.46"/>
<text text-anchor="middle" x="817.38" y="-484.96" font-family="Helvetica,sans-Serif" font-size="10.00">fabomatic::openConfigPortal</text>
</a>
</g>
</g>
<!-- Node21&#45;&gt;Node23 -->
<g id="edge47_Node000021_Node000023" class="edge">
<title>Node21&#45;&gt;Node23</title>
<g id="a_edge47_Node000021_Node000023"><a xlink:title=" ">
<path fill="none" stroke="#63b8ff" d="M1162.09,-340.48C1151.38,-377.82 1126.2,-444.53 1077.25,-474.83 1012.57,-514.87 920.47,-508.15 865.34,-498.95"/>
<polygon fill="#63b8ff" stroke="#63b8ff" points="1165.44,-341.5 1164.68,-330.93 1158.69,-339.67 1165.44,-341.5"/>
</a>
</g>
</g>
<!-- Node25 -->
<g id="Node000025" class="node">
<title>Node25</title>
<g id="a_Node000025"><a xlink:href="classfabomatic_1_1_board_logic.xhtml#a98a15cc323f97adc394c29e897afc12d" target="_top" xlink:title="Removes the current machine user and changes the status to LoggedOut.">
<polygon fill="white" stroke="#666666" points="1055.88,-229.08 943.12,-229.08 943.12,-198.58 1055.88,-198.58 1055.88,-229.08"/>
<text text-anchor="start" x="951.12" y="-215.58" font-family="Helvetica,sans-Serif" font-size="10.00">fabomatic::BoardLogic</text>
<text text-anchor="middle" x="999.5" y="-204.33" font-family="Helvetica,sans-Serif" font-size="10.00">::logout</text>
</a>
</g>
</g>
<!-- Node21&#45;&gt;Node25 -->
<g id="edge39_Node000021_Node000025" class="edge">
<title>Node21&#45;&gt;Node25</title>
<g id="a_edge39_Node000021_Node000025"><a xlink:title=" ">
<path fill="none" stroke="#63b8ff" d="M1143.35,-290.83C1125.78,-275.71 1101.28,-256.3 1077.25,-242.83 1068.3,-237.82 1058.32,-233.33 1048.59,-229.47"/>
<polygon fill="#63b8ff" stroke="#63b8ff" points="1140.9,-293.34 1150.73,-297.29 1145.52,-288.07 1140.9,-293.34"/>
</a>
</g>
</g>
<!-- Node28 -->
<g id="Node000028" class="node">
<title>Node28</title>
<g id="a_Node000028"><a xlink:href="namespacefabomatic.xhtml#a7c95d667be308b87512da348c5f1a7f1" target="_top" xlink:title=" ">
<polygon fill="white" stroke="#666666" points="871.12,-461.46 763.62,-461.46 763.62,-442.21 871.12,-442.21 871.12,-461.46"/>
<text text-anchor="middle" x="817.38" y="-447.96" font-family="Helvetica,sans-Serif" font-size="10.00">fabomatic::setupOTA</text>
</a>
</g>
</g>
<!-- Node21&#45;&gt;Node28 -->
<g id="edge49_Node000021_Node000028" class="edge">
<title>Node21&#45;&gt;Node28</title>
<g id="a_edge49_Node000021_Node000028"><a xlink:title=" ">
<path fill="none" stroke="#63b8ff" d="M1101.45,-317.16C1038.3,-321.52 949.45,-331.19 921.75,-351.83 891.78,-374.17 913.47,-402.76 885.75,-427.83 879.12,-433.83 870.89,-438.35 862.48,-441.75"/>
<polygon fill="#63b8ff" stroke="#63b8ff" points="1101.67,-320.66 1111.42,-316.51 1101.21,-313.67 1101.67,-320.66"/>
</a>
</g>
</g>
<!-- Node29 -->
<g id="Node000029" class="node">
<title>Node29</title>
<g id="a_Node000029"><a xlink:href="namespacefabomatic.xhtml#ae7de89faffd3bb8805727b8a1092a198" target="_top" xlink:title="Opens WiFi and server connection and updates board state accordingly.">
<polygon fill="white" stroke="#666666" points="876.38,-385.46 758.38,-385.46 758.38,-366.21 876.38,-366.21 876.38,-385.46"/>
<text text-anchor="middle" x="817.38" y="-371.96" font-family="Helvetica,sans-Serif" font-size="10.00">fabomatic::taskConnect</text>
</a>
</g>
</g>
<!-- Node21&#45;&gt;Node29 -->
<g id="edge51_Node000021_Node000029" class="edge">
<title>Node21&#45;&gt;Node29</title>
<g id="a_edge51_Node000021_Node000029"><a xlink:title=" ">
<path fill="none" stroke="#63b8ff" d="M1127.87,-293.4C1076.02,-270.58 985.56,-241.64 921.75,-280.83 891.6,-299.35 912.31,-328.45 885.75,-351.83 878.95,-357.82 870.54,-362.35 862.01,-365.76"/>
<polygon fill="#63b8ff" stroke="#63b8ff" points="1126.39,-296.57 1136.94,-297.53 1129.29,-290.2 1126.39,-296.57"/>
</a>
</g>
</g>
<!-- Node30 -->
<g id="Node000030" class="node">
<title>Node30</title>
<g id="a_Node000030"><a xlink:href="namespacefabomatic.xhtml#a86a02975f3cc660ebccdde8f217aa035" target="_top" xlink:title="periodic check if the machine must be powered off">
<polygon fill="white" stroke="#666666" points="1077.25,-72.46 921.75,-72.46 921.75,-53.21 1077.25,-53.21 1077.25,-72.46"/>
<text text-anchor="middle" x="999.5" y="-58.96" font-family="Helvetica,sans-Serif" font-size="10.00">fabomatic::taskPoweroffWarning</text>
</a>
</g>
</g>
<!-- Node21&#45;&gt;Node30 -->
<g id="edge53_Node000021_Node000030" class="edge">
<title>Node21&#45;&gt;Node30</title>
<g id="a_edge53_Node000021_Node000030"><a xlink:title=" ">
<path fill="none" stroke="#63b8ff" d="M1159.58,-287.85C1139.73,-231.35 1092.84,-101.22 1077.25,-86.83 1070.69,-80.77 1062.61,-76.24 1054.18,-72.85"/>
<polygon fill="#63b8ff" stroke="#63b8ff" points="1156.17,-288.7 1162.78,-296.98 1162.78,-286.39 1156.17,-288.7"/>
</a>
</g>
</g>
<!-- Node31 -->
<g id="Node000031" class="node">
<title>Node31</title>
<g id="a_Node000031"><a xlink:href="namespacefabomatic.xhtml#a525d1f233a2f797801a9a659c5044cb7" target="_top" xlink:title="checks the RFID chip status and re&#45;init it if necessary.">
<polygon fill="white" stroke="#666666" points="1070.5,-428.46 928.5,-428.46 928.5,-409.21 1070.5,-409.21 1070.5,-428.46"/>
<text text-anchor="middle" x="999.5" y="-414.96" font-family="Helvetica,sans-Serif" font-size="10.00">fabomatic::taskRfidWatchdog</text>
</a>
</g>
</g>
<!-- Node21&#45;&gt;Node31 -->
<g id="edge54_Node000021_Node000031" class="edge">
<title>Node21&#45;&gt;Node31</title>
<g id="a_edge54_Node000021_Node000031"><a xlink:title=" ">
<path fill="none" stroke="#63b8ff" d="M1149.14,-338.07C1132.15,-357.59 1105.82,-384.27 1077.25,-399.83 1070.62,-403.44 1063.3,-406.38 1055.88,-408.77"/>
<polygon fill="#63b8ff" stroke="#63b8ff" points="1151.71,-340.45 1155.5,-330.56 1146.36,-335.93 1151.71,-340.45"/>
</a>
</g>
</g>
<!-- Node21&#45;&gt;Node32 -->
<g id="edge55_Node000021_Node000032" class="edge">
<title>Node21&#45;&gt;Node32</title>
<g id="a_edge55_Node000021_Node000032"><a xlink:title=" ">
<path fill="none" stroke="#63b8ff" d="M1162.85,-340.61C1152.59,-381.98 1127.4,-461.5 1077.25,-507.83 1070.24,-514.31 1061.64,-519.38 1052.77,-523.34"/>
<polygon fill="#63b8ff" stroke="#63b8ff" points="1166.22,-341.55 1165.11,-331.02 1159.41,-339.95 1166.22,-341.55"/>
</a>
</g>
</g>
<!-- Node33 -->
<g id="Node000033" class="node">
<title>Node33</title>
<g id="a_Node000033"><a xlink:href="namespacefabomatic_1_1tests.xhtml#a88a4242d48bfa4a0337df522d303c367" target="_top" xlink:title="Opens WiFi and server connection and updates board state accordingly.">
<polygon fill="white" stroke="#666666" points="1052.5,-391.08 946.5,-391.08 946.5,-360.58 1052.5,-360.58 1052.5,-391.08"/>
<text text-anchor="start" x="954.5" y="-377.58" font-family="Helvetica,sans-Serif" font-size="10.00">fabomatic::tests::test</text>
<text text-anchor="middle" x="999.5" y="-366.33" font-family="Helvetica,sans-Serif" font-size="10.00">_taskConnect</text>
</a>
</g>
</g>
<!-- Node21&#45;&gt;Node33 -->
<g id="edge57_Node000021_Node000033" class="edge">
<title>Node21&#45;&gt;Node33</title>
<g id="a_edge57_Node000021_Node000033"><a xlink:title=" ">
<path fill="none" stroke="#63b8ff" d="M1115.44,-333.45C1092.14,-342.04 1065.16,-351.99 1043.2,-360.08"/>
<polygon fill="#63b8ff" stroke="#63b8ff" points="1116.61,-336.75 1124.78,-330 1114.19,-330.18 1116.61,-336.75"/>
</a>
</g>
</g>
<!-- Node22&#45;&gt;Node23 -->
<g id="edge36_Node000022_Node000023" class="edge">
<title>Node22&#45;&gt;Node23</title>
<g id="a_edge36_Node000022_Node000023"><a xlink:title=" ">
<path fill="none" stroke="#63b8ff" d="M932.29,-467.96C912.92,-471.51 891.96,-475.35 873.37,-478.76"/>
<polygon fill="#63b8ff" stroke="#63b8ff" points="932.78,-471.43 941.99,-466.19 931.52,-464.55 932.78,-471.43"/>
</a>
</g>
</g>
<!-- Node23&#45;&gt;Node3 -->
<g id="edge37_Node000023_Node000003" class="edge">
<title>Node23&#45;&gt;Node3</title>
<g id="a_edge37_Node000023_Node000003"><a xlink:title=" ">
<path fill="none" stroke="#63b8ff" d="M758.38,-476.38C725.37,-469.28 686.17,-460.86 663.32,-455.96"/>
<polygon fill="#63b8ff" stroke="#63b8ff" points="757.32,-479.73 767.83,-478.4 758.79,-472.88 757.32,-479.73"/>
</a>
</g>
</g>
<!-- Node24 -->
<g id="Node000024" class="node">
<title>Node24</title>
<g id="a_Node000024"><a xlink:href="namespacefabomatic.xhtml#a2c7ad2690e92eb8ab98b6fadaa4df2bd" target="_top" xlink:title=" ">
<polygon fill="white" stroke="#666666" points="713,-498.46 573.25,-498.46 573.25,-479.21 713,-479.21 713,-498.46"/>
<text text-anchor="middle" x="643.12" y="-484.96" font-family="Helvetica,sans-Serif" font-size="10.00">fabomatic::taskFactoryReset</text>
</a>
</g>
</g>
<!-- Node23&#45;&gt;Node24 -->
<g id="edge38_Node000023_Node000024" class="edge">
<title>Node23&#45;&gt;Node24</title>
<g id="a_edge38_Node000023_Node000024"><a xlink:title=" ">
<path fill="none" stroke="#63b8ff" d="M737.54,-488.83C729.51,-488.83 721.41,-488.83 713.5,-488.83"/>
<polygon fill="#63b8ff" stroke="#63b8ff" points="737.28,-492.33 747.28,-488.83 737.28,-485.33 737.28,-492.33"/>
</a>
</g>
</g>
<!-- Node25&#45;&gt;Node7 -->
<g id="edge41_Node000025_Node000007" class="edge">
<title>Node25&#45;&gt;Node7</title>
<g id="a_edge41_Node000025_Node000007"><a xlink:title=" ">
<path fill="none" stroke="#63b8ff" d="M954.9,-193.41C934.03,-183.71 908.66,-172.04 885.75,-161.83 875.86,-157.43 865.11,-152.75 855.17,-148.47"/>
<polygon fill="#63b8ff" stroke="#63b8ff" points="953.14,-196.45 963.68,-197.5 956.09,-190.1 953.14,-196.45"/>
</a>
</g>
</g>
<!-- Node25&#45;&gt;Node10 -->
<g id="edge40_Node000025_Node000010" class="edge">
<title>Node25&#45;&gt;Node10</title>
<g id="a_edge40_Node000025_Node000010"><a xlink:title=" ">
<path fill="none" stroke="#63b8ff" d="M931.45,-226.11C916.45,-228.58 900.58,-230.99 885.75,-232.83 702.45,-255.64 485.23,-269.79 375.29,-276.06"/>
<polygon fill="#63b8ff" stroke="#63b8ff" points="931.95,-229.57 941.23,-224.46 930.79,-222.67 931.95,-229.57"/>
</a>
</g>
</g>
<!-- Node25&#45;&gt;Node15 -->
<g id="edge44_Node000025_Node000015" class="edge">
<title>Node25&#45;&gt;Node15</title>
<g id="a_edge44_Node000025_Node000015"><a xlink:title=" ">
<path fill="none" stroke="#63b8ff" d="M952.72,-234.94C941.79,-241.3 930.7,-248.99 921.75,-257.83 899.35,-279.95 912.52,-302.27 885.75,-318.83 826.9,-355.24 349.41,-356.01 188.84,-355.22"/>
<polygon fill="#63b8ff" stroke="#63b8ff" points="954.25,-238.08 961.32,-230.19 950.88,-231.95 954.25,-238.08"/>
</a>
</g>
</g>
<!-- Node25&#45;&gt;Node16 -->
<g id="edge45_Node000025_Node000016" class="edge">
<title>Node25&#45;&gt;Node16</title>
<g id="a_edge45_Node000025_Node000016"><a xlink:title=" ">
<path fill="none" stroke="#63b8ff" d="M931.56,-201.16C862.91,-187.76 764.1,-167.15 749,-156.83 725.49,-140.77 737.41,-118.5 713,-103.83 584,-26.35 525.48,-84.3 375,-83.83 310.89,-83.63 294.66,-78.79 230.75,-83.83 218.18,-84.83 204.76,-86.55 192.09,-88.49"/>
<polygon fill="#63b8ff" stroke="#63b8ff" points="930.75,-204.57 941.23,-203.04 932.08,-197.7 930.75,-204.57"/>
</a>
</g>
</g>
<!-- Node26 -->
<g id="Node000026" class="node">
<title>Node26</title>
<g id="a_Node000026"><a xlink:href="namespacefabomatic.xhtml#af8ee1c3cd4edf1a1ba27899da63b611a" target="_top" xlink:title="periodic check if the user shall be logged off">
<polygon fill="white" stroke="#666666" points="885.75,-223.46 749,-223.46 749,-204.21 885.75,-204.21 885.75,-223.46"/>
<text text-anchor="middle" x="817.38" y="-209.96" font-family="Helvetica,sans-Serif" font-size="10.00">fabomatic::taskLogoffCheck</text>
</a>
</g>
</g>
<!-- Node25&#45;&gt;Node26 -->
<g id="edge42_Node000025_Node000026" class="edge">
<title>Node25&#45;&gt;Node26</title>
<g id="a_edge42_Node000025_Node000026"><a xlink:title=" ">
<path fill="none" stroke="#63b8ff" d="M931.79,-213.83C916.87,-213.83 901.03,-213.83 886.08,-213.83"/>
<polygon fill="#63b8ff" stroke="#63b8ff" points="931.47,-217.33 941.47,-213.83 931.47,-210.33 931.47,-217.33"/>
</a>
</g>
</g>
<!-- Node27 -->
<g id="Node000027" class="node">
<title>Node27</title>
<g id="a_Node000027"><a xlink:href="namespacefabomatic_1_1tests.xhtml#a7cd22311b16fc7c256a30ba4c2f6f387" target="_top" xlink:title="blink led">
<polygon fill="white" stroke="#666666" points="870.38,-310.08 764.38,-310.08 764.38,-279.58 870.38,-279.58 870.38,-310.08"/>
<text text-anchor="start" x="772.38" y="-296.58" font-family="Helvetica,sans-Serif" font-size="10.00">fabomatic::tests::test</text>
<text text-anchor="middle" x="817.38" y="-285.33" font-family="Helvetica,sans-Serif" font-size="10.00">_taskVarious</text>
</a>
</g>
</g>
<!-- Node25&#45;&gt;Node27 -->
<g id="edge43_Node000025_Node000027" class="edge">
<title>Node25&#45;&gt;Node27</title>
<g id="a_edge43_Node000025_Node000027"><a xlink:title=" ">
<path fill="none" stroke="#63b8ff" d="M941.71,-233.76C934.89,-236.6 928.1,-239.65 921.75,-242.83 904.78,-251.34 902.52,-256.94 885.75,-265.83 876.86,-270.54 867.04,-275.11 857.71,-279.17"/>
<polygon fill="#63b8ff" stroke="#63b8ff" points="943,-237.02 950.97,-230.05 940.39,-230.52 943,-237.02"/>
</a>
</g>
</g>
<!-- Node28&#45;&gt;Node3 -->
<g id="edge50_Node000028_Node000003" class="edge">
<title>Node28&#45;&gt;Node3</title>
<g id="a_edge50_Node000028_Node000003"><a xlink:title=" ">
<path fill="none" stroke="#63b8ff" d="M751.87,-451.83C720.29,-451.83 684.56,-451.83 663.21,-451.83"/>
<polygon fill="#63b8ff" stroke="#63b8ff" points="751.78,-455.33 761.78,-451.83 751.78,-448.33 751.78,-455.33"/>
</a>
</g>
</g>
<!-- Node29&#45;&gt;Node3 -->
<g id="edge52_Node000029_Node000003" class="edge">
<title>Node29&#45;&gt;Node3</title>
<g id="a_edge52_Node000029_Node000003"><a xlink:title=" ">
<path fill="none" stroke="#63b8ff" d="M774.9,-389.74C766.26,-392.87 757.28,-396.32 749,-399.83 718.13,-412.93 683.49,-430.75 662.76,-441.76"/>
<polygon fill="#63b8ff" stroke="#63b8ff" points="775.88,-393.1 784.13,-386.46 773.54,-386.51 775.88,-393.1"/>
</a>
</g>
</g>
<!-- Node32&#45;&gt;Node12 -->
<g id="edge56_Node000032_Node000012" class="edge">
<title>Node32&#45;&gt;Node12</title>
<g id="a_edge56_Node000032_Node000012"><a xlink:title=" ">
<path fill="none" stroke="#63b8ff" d="M947.01,-556.27C878.78,-580.23 754.2,-617.83 644.12,-617.83 644.12,-617.83 644.12,-617.83 301.88,-617.83 118.52,-617.83 37.64,-324.36 23.35,-265.89"/>
<polygon fill="#63b8ff" stroke="#63b8ff" points="947.79,-559.7 956.04,-553.05 945.44,-553.11 947.79,-559.7"/>
</a>
</g>
</g>
</g>
</svg>
