<?xml version="1.0" encoding="UTF-8" standalone="no"?>
<!DOCTYPE svg PUBLIC "-//W3C//DTD SVG 1.1//EN"
 "http://www.w3.org/Graphics/SVG/1.1/DTD/svg11.dtd">
<!-- Generated by graphviz version 9.0.0 (20230911.1827)
 -->
<!-- Title: fabomatic::BoardLogic::updateLCD Pages: 1 -->
<!--zoomable 630 -->

<svg id="main" version="1.1" xmlns="http://www.w3.org/2000/svg" xmlns:xlink="http://www.w3.org/1999/xlink" xml:space="preserve" onload="init(evt)">
<style type="text/css"><![CDATA[
.node, .edge {opacity: 0.7;}
.node.selected, .edge.selected {opacity: 1;}
.edge:hover path { stroke: red; }
.edge:hover polygon { stroke: red; fill: red; }
]]></style>

<defs>
  <circle id="rim" cx="0" cy="0" r="7"/>
  <circle id="rim2" cx="0" cy="0" r="3.5"/>
  <g id="zoomPlus">
    <use xlink:href="#rim" fill="#404040"><set attributeName="fill" to="#808080" begin="zoomplus.mouseover" end="zoomplus.mouseout"/></use>
    <path d="M-4,0h8M0,-4v8" fill="none" stroke="white" stroke-width="1.5" pointer-events="none"/>
  </g>
  <g id="zoomMin">
    <use xlink:href="#rim" fill="#404040"><set attributeName="fill" to="#808080" begin="zoomminus.mouseover" end="zoomminus.mouseout"/></use>
    <path d="M-4,0h8" fill="none" stroke="white" stroke-width="1.5" pointer-events="none"/>
  </g>
  <g id="arrowUp" transform="translate(30 24)">
    <use xlink:href="#rim"/>
    <path pointer-events="none" fill="none" stroke="white" stroke-width="1.5" d="M0,-3.0v7 M-2.5,-0.5L0,-3.0L2.5,-0.5"/>
  </g>
  <g id="arrowRight" transform="rotate(90) translate(36 -43)">
    <use xlink:href="#rim"/>
    <path pointer-events="none" fill="none" stroke="white" stroke-width="1.5" d="M0,-3.0v7 M-2.5,-0.5L0,-3.0L2.5,-0.5"/>
  </g>
  <g id="arrowDown" transform="rotate(180) translate(-30 -48)">
    <use xlink:href="#rim"/>
    <path pointer-events="none" fill="none" stroke="white" stroke-width="1.5" d="M0,-3.0v7 M-2.5,-0.5L0,-3.0L2.5,-0.5"/>
  </g>
  <g id="arrowLeft" transform="rotate(270) translate(-36 17)">
    <use xlink:href="#rim"/>
    <path pointer-events="none" fill="none" stroke="white" stroke-width="1.5" d="M0,-3.0v7 M-2.5,-0.5L0,-3.0L2.5,-0.5"/>
  </g>
  <g id="resetDef">
    <use xlink:href="#rim2" fill="#404040"><set attributeName="fill" to="#808080" begin="reset.mouseover" end="reset.mouseout"/></use>
  </g>
</defs>
<script type="application/ecmascript">
var viewWidth = 611;
var viewHeight = 630;
var sectionId = 'dynsection-43';
</script>
<script type="application/ecmascript" xlink:href="svg.min.js"/>
<svg id="graph" class="graph">
<g id="viewport">
<title>fabomatic::BoardLogic::updateLCD</title>
<!-- Node1 -->
<g id="Node000001" class="node">
<title>Node1</title>
<g id="a_Node000001"><a xlink:title="Updates the LCD screen as per the current status.">
<polygon fill="#999999" stroke="#666666" points="112.75,-311.88 0,-311.88 0,-281.38 112.75,-281.38 112.75,-311.88"/>
<text text-anchor="start" x="8" y="-298.38" font-family="Helvetica,sans-Serif" font-size="10.00">fabomatic::BoardLogic</text>
<text text-anchor="middle" x="56.38" y="-287.12" font-family="Helvetica,sans-Serif" font-size="10.00">::updateLCD</text>
</a>
</g>
</g>
<!-- Node2 -->
<g id="Node000002" class="node">
<title>Node2</title>
<g id="a_Node000002"><a xlink:href="classfabomatic_1_1_machine.xhtml#a39c30eaa242d5cc2ce784dbafeef87e8" target="_top" xlink:title=" ">
<polygon fill="white" stroke="#666666" points="257.75,-621.88 157.75,-621.88 157.75,-591.38 257.75,-591.38 257.75,-621.88"/>
<text text-anchor="start" x="165.75" y="-608.38" font-family="Helvetica,sans-Serif" font-size="10.00">fabomatic::Machine</text>
<text text-anchor="middle" x="207.75" y="-597.12" font-family="Helvetica,sans-Serif" font-size="10.00">::getActiveUser</text>
</a>
</g>
</g>
<!-- Node1&#45;&gt;Node2 -->
<g id="edge1_Node000001_Node000002" class="edge">
<title>Node1&#45;&gt;Node2</title>
<g id="a_edge1_Node000001_Node000002"><a xlink:title=" ">
<path fill="none" stroke="#63b8ff" d="M58,-312.09C60.7,-358.81 74.89,-500.25 148.75,-581.62 149.46,-582.41 150.2,-583.16 150.96,-583.9"/>
<polygon fill="#63b8ff" stroke="#63b8ff" points="148.74,-586.61 158.78,-590.01 153.05,-581.09 148.74,-586.61"/>
</a>
</g>
</g>
<!-- Node3 -->
<g id="Node000003" class="node">
<title>Node3</title>
<g id="a_Node000003"><a xlink:href="classfabomatic_1_1_board_logic.xhtml#a462b4b6149ca7bf33b699eb3181c969f" target="_top" xlink:title=" ">
<polygon fill="white" stroke="#666666" points="264.12,-572.88 151.38,-572.88 151.38,-542.38 264.12,-542.38 264.12,-572.88"/>
<text text-anchor="start" x="159.38" y="-559.38" font-family="Helvetica,sans-Serif" font-size="10.00">fabomatic::BoardLogic</text>
<text text-anchor="middle" x="207.75" y="-548.12" font-family="Helvetica,sans-Serif" font-size="10.00">::getLcd</text>
</a>
</g>
</g>
<!-- Node1&#45;&gt;Node3 -->
<g id="edge2_Node000001_Node000003" class="edge">
<title>Node1&#45;&gt;Node3</title>
<g id="a_edge2_Node000001_Node000003"><a xlink:title=" ">
<path fill="none" stroke="#63b8ff" d="M59.24,-312.35C64.96,-353.8 85.81,-467.28 148.75,-532.62 149.61,-533.51 150.5,-534.37 151.42,-535.2"/>
<polygon fill="#63b8ff" stroke="#63b8ff" points="149.14,-537.87 159.26,-541.01 153.31,-532.24 149.14,-537.87"/>
</a>
</g>
</g>
<!-- Node6 -->
<g id="Node000006" class="node">
<title>Node6</title>
<g id="a_Node000006"><a xlink:href="classfabomatic_1_1_board_logic.xhtml#a164e40105242d0b7c56c6b4f21155101" target="_top" xlink:title="Gets the current machine.">
<polygon fill="white" stroke="#666666" points="264.12,-523.88 151.38,-523.88 151.38,-493.38 264.12,-493.38 264.12,-523.88"/>
<text text-anchor="start" x="159.38" y="-510.38" font-family="Helvetica,sans-Serif" font-size="10.00">fabomatic::BoardLogic</text>
<text text-anchor="middle" x="207.75" y="-499.12" font-family="Helvetica,sans-Serif" font-size="10.00">::getMachine</text>
</a>
</g>
</g>
<!-- Node1&#45;&gt;Node6 -->
<g id="edge6_Node000001_Node000006" class="edge">
<title>Node1&#45;&gt;Node6</title>
<g id="a_edge6_Node000001_Node000006"><a xlink:title=" ">
<path fill="none" stroke="#63b8ff" d="M61,-312.13C69.97,-347.24 96.32,-433.63 148.75,-483.62 149.8,-484.63 150.89,-485.59 152.03,-486.52"/>
<polygon fill="#63b8ff" stroke="#63b8ff" points="149.89,-489.29 160.11,-492.1 153.87,-483.53 149.89,-489.29"/>
</a>
</g>
</g>
<!-- Node7 -->
<g id="Node000007" class="node">
<title>Node7</title>
<g id="a_Node000007"><a xlink:href="classfabomatic_1_1_machine.xhtml#a1637e99f2d70262d2ab26f69ed4f0e47" target="_top" xlink:title=" ">
<polygon fill="white" stroke="#666666" points="257.75,-474.88 157.75,-474.88 157.75,-444.38 257.75,-444.38 257.75,-474.88"/>
<text text-anchor="start" x="165.75" y="-461.38" font-family="Helvetica,sans-Serif" font-size="10.00">fabomatic::Machine</text>
<text text-anchor="middle" x="207.75" y="-450.12" font-family="Helvetica,sans-Serif" font-size="10.00">::getMachineName</text>
</a>
</g>
</g>
<!-- Node1&#45;&gt;Node7 -->
<g id="edge7_Node000001_Node000007" class="edge">
<title>Node1&#45;&gt;Node7</title>
<g id="a_edge7_Node000001_Node000007"><a xlink:title=" ">
<path fill="none" stroke="#63b8ff" d="M63.91,-311.99C76.51,-339.93 106.65,-399.42 148.75,-434.62 150.2,-435.83 151.71,-436.99 153.27,-438.1"/>
<polygon fill="#63b8ff" stroke="#63b8ff" points="151.06,-440.85 161.41,-443.15 154.75,-434.9 151.06,-440.85"/>
</a>
</g>
</g>
<!-- Node8 -->
<g id="Node000008" class="node">
<title>Node8</title>
<g id="a_Node000008"><a xlink:href="classfabomatic_1_1_machine.xhtml#ad511c567c7cb7487d19019550c9a4e32" target="_top" xlink:title=" ">
<polygon fill="white" stroke="#666666" points="260.75,-425.88 154.75,-425.88 154.75,-395.38 260.75,-395.38 260.75,-425.88"/>
<text text-anchor="start" x="162.75" y="-412.38" font-family="Helvetica,sans-Serif" font-size="10.00">fabomatic::Machine</text>
<text text-anchor="middle" x="207.75" y="-401.12" font-family="Helvetica,sans-Serif" font-size="10.00">::getMaintenanceInfo</text>
</a>
</g>
</g>
<!-- Node1&#45;&gt;Node8 -->
<g id="edge8_Node000001_Node000008" class="edge">
<title>Node1&#45;&gt;Node8</title>
<g id="a_edge8_Node000001_Node000008"><a xlink:title=" ">
<path fill="none" stroke="#63b8ff" d="M70.21,-312.24C86.73,-331.55 117.09,-364.45 148.75,-385.62 150.82,-387.01 152.99,-388.35 155.21,-389.64"/>
<polygon fill="#63b8ff" stroke="#63b8ff" points="153.4,-392.64 163.87,-394.23 156.68,-386.45 153.4,-392.64"/>
</a>
</g>
</g>
<!-- Node9 -->
<g id="Node000009" class="node">
<title>Node9</title>
<g id="a_Node000009"><a xlink:href="classfabomatic_1_1_machine.xhtml#a3c5304fd80e0cc1c2118a59c64222d6d" target="_top" xlink:title="Returns the current power state of the machine.">
<polygon fill="white" stroke="#666666" points="257.75,-376.88 157.75,-376.88 157.75,-346.38 257.75,-346.38 257.75,-376.88"/>
<text text-anchor="start" x="165.75" y="-363.38" font-family="Helvetica,sans-Serif" font-size="10.00">fabomatic::Machine</text>
<text text-anchor="middle" x="207.75" y="-352.12" font-family="Helvetica,sans-Serif" font-size="10.00">::getPowerState</text>
</a>
</g>
</g>
<!-- Node1&#45;&gt;Node9 -->
<g id="edge9_Node000001_Node000009" class="edge">
<title>Node1&#45;&gt;Node9</title>
<g id="a_edge9_Node000001_Node000009"><a xlink:title=" ">
<path fill="none" stroke="#63b8ff" d="M93.53,-312.36C113.55,-321.07 138.65,-331.99 160.13,-341.34"/>
<polygon fill="#63b8ff" stroke="#63b8ff" points="158.71,-344.54 169.28,-345.32 161.5,-338.12 158.71,-344.54"/>
</a>
</g>
</g>
<!-- Node10 -->
<g id="Node000010" class="node">
<title>Node10</title>
<g id="a_Node000010"><a xlink:href="classfabomatic_1_1_machine.xhtml#a9c845a163660550fa779516a8be8681a" target="_top" xlink:title="Duration of the current usage, or 0s.">
<polygon fill="white" stroke="#666666" points="411.75,-333.88 311.75,-333.88 311.75,-303.38 411.75,-303.38 411.75,-333.88"/>
<text text-anchor="start" x="319.75" y="-320.38" font-family="Helvetica,sans-Serif" font-size="10.00">fabomatic::Machine</text>
<text text-anchor="middle" x="361.75" y="-309.12" font-family="Helvetica,sans-Serif" font-size="10.00">::getUsageDuration</text>
</a>
</g>
</g>
<!-- Node1&#45;&gt;Node10 -->
<g id="edge10_Node000001_Node000010" class="edge">
<title>Node1&#45;&gt;Node10</title>
<g id="a_edge10_Node000001_Node000010"><a xlink:title=" ">
<path fill="none" stroke="#63b8ff" d="M113.02,-300.66C166.04,-304.51 245.65,-310.28 300.23,-314.24"/>
<polygon fill="#63b8ff" stroke="#63b8ff" points="299.74,-317.71 309.97,-314.94 300.25,-310.73 299.74,-317.71"/>
</a>
</g>
</g>
<!-- Node11 -->
<g id="Node000011" class="node">
<title>Node11</title>
<g id="a_Node000011"><a xlink:href="classfabomatic_1_1_machine.xhtml#a4b40dcb31af466acc85f66c845516c82" target="_top" xlink:title=" ">
<polygon fill="white" stroke="#666666" points="257.75,-290.88 157.75,-290.88 157.75,-260.38 257.75,-260.38 257.75,-290.88"/>
<text text-anchor="start" x="165.75" y="-277.38" font-family="Helvetica,sans-Serif" font-size="10.00">fabomatic::Machine</text>
<text text-anchor="middle" x="207.75" y="-266.12" font-family="Helvetica,sans-Serif" font-size="10.00">::isAllowed</text>
</a>
</g>
</g>
<!-- Node1&#45;&gt;Node11 -->
<g id="edge12_Node000001_Node000011" class="edge">
<title>Node1&#45;&gt;Node11</title>
<g id="a_edge12_Node000001_Node000011"><a xlink:title=" ">
<path fill="none" stroke="#63b8ff" d="M113,-288.81C123.83,-287.28 135.24,-285.68 146.23,-284.13"/>
<polygon fill="#63b8ff" stroke="#63b8ff" points="146.56,-287.62 155.98,-282.76 145.59,-280.69 146.56,-287.62"/>
</a>
</g>
</g>
<!-- Node12 -->
<g id="Node000012" class="node">
<title>Node12</title>
<g id="a_Node000012"><a xlink:href="classfabomatic_1_1_machine.xhtml#a9fd614d86b6108a5a7b54fc9eee0d9a6" target="_top" xlink:title="Indicates if the machine has been configured.">
<polygon fill="white" stroke="#666666" points="257.75,-241.88 157.75,-241.88 157.75,-211.38 257.75,-211.38 257.75,-241.88"/>
<text text-anchor="start" x="165.75" y="-228.38" font-family="Helvetica,sans-Serif" font-size="10.00">fabomatic::Machine</text>
<text text-anchor="middle" x="207.75" y="-217.12" font-family="Helvetica,sans-Serif" font-size="10.00">::isConfigured</text>
</a>
</g>
</g>
<!-- Node1&#45;&gt;Node12 -->
<g id="edge13_Node000001_Node000012" class="edge">
<title>Node1&#45;&gt;Node12</title>
<g id="a_edge13_Node000001_Node000012"><a xlink:title=" ">
<path fill="none" stroke="#63b8ff" d="M88.06,-281.03C105.71,-272.18 128.36,-261.03 148.75,-251.62 152.09,-250.09 155.54,-248.52 159.03,-246.97"/>
<polygon fill="#63b8ff" stroke="#63b8ff" points="160.37,-250.2 168.11,-242.96 157.55,-243.79 160.37,-250.2"/>
</a>
</g>
</g>
<!-- Node13 -->
<g id="Node000013" class="node">
<title>Node13</title>
<g id="a_Node000013"><a xlink:href="classfabomatic_1_1_machine.xhtml#a34b0deb04494137cf321e94d50dedf90" target="_top" xlink:title=" ">
<polygon fill="white" stroke="#666666" points="266.38,-192.88 149.12,-192.88 149.12,-162.38 266.38,-162.38 266.38,-192.88"/>
<text text-anchor="start" x="157.12" y="-179.38" font-family="Helvetica,sans-Serif" font-size="10.00">fabomatic::Machine</text>
<text text-anchor="middle" x="207.75" y="-168.12" font-family="Helvetica,sans-Serif" font-size="10.00">::isMaintenanceNeeded</text>
</a>
</g>
</g>
<!-- Node1&#45;&gt;Node13 -->
<g id="edge14_Node000001_Node000013" class="edge">
<title>Node1&#45;&gt;Node13</title>
<g id="a_edge14_Node000001_Node000013"><a xlink:title=" ">
<path fill="none" stroke="#63b8ff" d="M69.18,-281.13C85.3,-260.85 115.95,-225.22 148.75,-202.62 150.69,-201.29 152.71,-200 154.79,-198.76"/>
<polygon fill="#63b8ff" stroke="#63b8ff" points="156.36,-201.89 163.48,-194.05 153.03,-195.74 156.36,-201.89"/>
</a>
</g>
</g>
<!-- Node14 -->
<g id="Node000014" class="node">
<title>Node14</title>
<g id="a_Node000014"><a xlink:href="classfabomatic_1_1_fab_backend.xhtml#aef092e0e1db0c3539d5474fad2456255" target="_top" xlink:title="Indicates if the MQTT client is connected to the broker and backend is responsive.">
<polygon fill="white" stroke="#666666" points="266.75,-143.88 148.75,-143.88 148.75,-113.38 266.75,-113.38 266.75,-143.88"/>
<text text-anchor="start" x="156.75" y="-130.38" font-family="Helvetica,sans-Serif" font-size="10.00">fabomatic::FabBackend</text>
<text text-anchor="middle" x="207.75" y="-119.12" font-family="Helvetica,sans-Serif" font-size="10.00">::isOnline</text>
</a>
</g>
</g>
<!-- Node1&#45;&gt;Node14 -->
<g id="edge15_Node000001_Node000014" class="edge">
<title>Node1&#45;&gt;Node14</title>
<g id="a_edge15_Node000001_Node000014"><a xlink:title=" ">
<path fill="none" stroke="#63b8ff" d="M63.57,-281.15C75.8,-252.38 105.65,-190.26 148.75,-153.62 150.19,-152.4 151.69,-151.23 153.25,-150.12"/>
<polygon fill="#63b8ff" stroke="#63b8ff" points="154.73,-153.31 161.35,-145.04 151.02,-147.38 154.73,-153.31"/>
</a>
</g>
</g>
<!-- Node15 -->
<g id="Node000015" class="node">
<title>Node15</title>
<g id="a_Node000015"><a xlink:href="classfabomatic_1_1_fab_backend.xhtml#aacd5dfac21bd4b6ed71912198a038529" target="_top" xlink:title="Indicates if backend answers are received.">
<polygon fill="white" stroke="#666666" points="420.75,-127.88 302.75,-127.88 302.75,-97.38 420.75,-97.38 420.75,-127.88"/>
<text text-anchor="start" x="310.75" y="-114.38" font-family="Helvetica,sans-Serif" font-size="10.00">fabomatic::FabBackend</text>
<text text-anchor="middle" x="361.75" y="-103.12" font-family="Helvetica,sans-Serif" font-size="10.00">::isResponsive</text>
</a>
</g>
</g>
<!-- Node1&#45;&gt;Node15 -->
<g id="edge17_Node000001_Node000015" class="edge">
<title>Node1&#45;&gt;Node15</title>
<g id="a_edge17_Node000001_Node000015"><a xlink:title=" ">
<path fill="none" stroke="#63b8ff" d="M59.27,-281.06C64.86,-242.88 85.08,-144.84 148.75,-104.62 194.92,-75.46 258.73,-82.77 304.25,-94.08"/>
<polygon fill="#63b8ff" stroke="#63b8ff" points="303.1,-97.39 313.66,-96.55 304.88,-90.62 303.1,-97.39"/>
</a>
</g>
</g>
<!-- Node16 -->
<g id="Node000016" class="node">
<title>Node16</title>
<g id="a_Node000016"><a xlink:href="classfabomatic_1_1_machine.xhtml#a871958cc57845c8651cf1058ed9b30e4" target="_top" xlink:title="Indicates if the machine will power down in less than BEEP_REMAINING_MINUTES.">
<polygon fill="white" stroke="#666666" points="417.75,-70.88 305.75,-70.88 305.75,-40.38 417.75,-40.38 417.75,-70.88"/>
<text text-anchor="start" x="313.75" y="-57.38" font-family="Helvetica,sans-Serif" font-size="10.00">fabomatic::Machine</text>
<text text-anchor="middle" x="361.75" y="-46.12" font-family="Helvetica,sans-Serif" font-size="10.00">::isShutdownImminent</text>
</a>
</g>
</g>
<!-- Node1&#45;&gt;Node16 -->
<g id="edge18_Node000001_Node000016" class="edge">
<title>Node1&#45;&gt;Node16</title>
<g id="a_edge18_Node000001_Node000016"><a xlink:title=" ">
<path fill="none" stroke="#63b8ff" d="M58.79,-280.89C63.38,-240.16 81.67,-130.98 148.75,-80.62 190.01,-49.65 249.08,-44.97 294.39,-47.15"/>
<polygon fill="#63b8ff" stroke="#63b8ff" points="293.89,-50.62 304.09,-47.74 294.32,-43.64 293.89,-50.62"/>
</a>
</g>
</g>
<!-- Node17 -->
<g id="Node000017" class="node">
<title>Node17</title>
<g id="a_Node000017"><a xlink:href="namespacefabomatic_1_1card.xhtml#aef091ec171625c69f9d4eab20ebaefec" target="_top" xlink:title="Returns a string representation of the UID.">
<polygon fill="white" stroke="#666666" points="265.62,-19.25 149.88,-19.25 149.88,0 265.62,0 265.62,-19.25"/>
<text text-anchor="middle" x="207.75" y="-5.75" font-family="Helvetica,sans-Serif" font-size="10.00">fabomatic::card::uid_str</text>
</a>
</g>
</g>
<!-- Node1&#45;&gt;Node17 -->
<g id="edge20_Node000001_Node000017" class="edge">
<title>Node1&#45;&gt;Node17</title>
<g id="a_edge20_Node000001_Node000017"><a xlink:title=" ">
<path fill="none" stroke="#63b8ff" d="M58.44,-281.04C62.31,-236.52 79.25,-107.28 148.75,-33.62 151.82,-30.37 155.39,-27.55 159.23,-25.1"/>
<polygon fill="#63b8ff" stroke="#63b8ff" points="160.7,-28.28 167.85,-20.46 157.38,-22.12 160.7,-28.28"/>
</a>
</g>
</g>
<!-- Node4 -->
<g id="Node000004" class="node">
<title>Node4</title>
<g id="a_Node000004"><a xlink:href="namespacefabomatic_1_1_tasks.xhtml#a5c20f560f5934822d39ba116a16f3ab6" target="_top" xlink:title="Wait for a delay, allowing OTA updates.">
<polygon fill="white" stroke="#666666" points="420.38,-469.25 303.12,-469.25 303.12,-450 420.38,-450 420.38,-469.25"/>
<text text-anchor="middle" x="361.75" y="-455.75" font-family="Helvetica,sans-Serif" font-size="10.00">fabomatic::Tasks::delay</text>
</a>
</g>
</g>
<!-- Node3&#45;&gt;Node4 -->
<g id="edge3_Node000003_Node000004" class="edge">
<title>Node3&#45;&gt;Node4</title>
<g id="a_edge3_Node000003_Node000004"><a xlink:title=" ">
<path fill="none" stroke="#63b8ff" d="M248.72,-541.99C254.89,-539.12 261.09,-535.97 266.75,-532.62 294.32,-516.34 322.96,-493.01 341.27,-477.14"/>
<polygon fill="#63b8ff" stroke="#63b8ff" points="343.51,-479.84 348.71,-470.6 338.89,-474.58 343.51,-479.84"/>
</a>
</g>
</g>
<!-- Node4&#45;&gt;Node4 -->
<g id="edge5_Node000004_Node000004" class="edge">
<title>Node4&#45;&gt;Node4</title>
<g id="a_edge5_Node000004_Node000004"><a xlink:title=" ">
<path fill="none" stroke="#63b8ff" d="M337.64,-469.54C326.64,-478.15 334.68,-487.25 361.75,-487.25 376.98,-487.25 386.18,-484.37 389.36,-480.32"/>
<polygon fill="#63b8ff" stroke="#63b8ff" points="392.75,-479.41 386.33,-470.98 386.09,-481.57 392.75,-479.41"/>
</a>
</g>
</g>
<!-- Node5 -->
<g id="Node000005" class="node">
<title>Node5</title>
<g id="a_Node000005"><a xlink:href="namespacefabomatic_1_1_tasks.xhtml#adc67d1313c6695d813feb935eafdaf60" target="_top" xlink:title=" ">
<polygon fill="white" stroke="#666666" points="603.25,-328.25 456.75,-328.25 456.75,-309 603.25,-309 603.25,-328.25"/>
<text text-anchor="middle" x="530" y="-314.75" font-family="Helvetica,sans-Serif" font-size="10.00">fabomatic::Tasks::arduinoNow</text>
</a>
</g>
</g>
<!-- Node4&#45;&gt;Node5 -->
<g id="edge4_Node000004_Node000005" class="edge">
<title>Node4&#45;&gt;Node5</title>
<g id="a_edge4_Node000004_Node000005"><a xlink:title=" ">
<path fill="none" stroke="#63b8ff" d="M374.44,-449.71C402.39,-426 473.38,-365.79 508.58,-335.94"/>
<polygon fill="#63b8ff" stroke="#63b8ff" points="510.58,-338.83 515.95,-329.7 506.06,-333.5 510.58,-338.83"/>
</a>
</g>
</g>
<!-- Node10&#45;&gt;Node5 -->
<g id="edge11_Node000010_Node000005" class="edge">
<title>Node10&#45;&gt;Node5</title>
<g id="a_edge11_Node000010_Node000005"><a xlink:title=" ">
<path fill="none" stroke="#63b8ff" d="M412.18,-318.62C422.59,-318.62 433.85,-318.62 445.12,-318.62"/>
<polygon fill="#63b8ff" stroke="#63b8ff" points="444.86,-322.13 454.86,-318.63 444.86,-315.13 444.86,-322.13"/>
</a>
</g>
</g>
<!-- Node14&#45;&gt;Node15 -->
<g id="edge16_Node000014_Node000015" class="edge">
<title>Node14&#45;&gt;Node15</title>
<g id="a_edge16_Node000014_Node000015"><a xlink:title=" ">
<path fill="none" stroke="#63b8ff" d="M267.08,-122.48C274.94,-121.66 283.05,-120.8 291.08,-119.96"/>
<polygon fill="#63b8ff" stroke="#63b8ff" points="291.24,-123.46 300.82,-118.93 290.51,-116.5 291.24,-123.46"/>
</a>
</g>
</g>
<!-- Node16&#45;&gt;Node5 -->
<g id="edge19_Node000016_Node000005" class="edge">
<title>Node16&#45;&gt;Node5</title>
<g id="a_edge19_Node000016_Node000005"><a xlink:title=" ">
<path fill="none" stroke="#63b8ff" d="M398.37,-71.33C406.43,-76.05 414.45,-81.82 420.75,-88.62 479.81,-152.44 512.08,-254.25 523.81,-297.78"/>
<polygon fill="#63b8ff" stroke="#63b8ff" points="520.36,-298.4 526.26,-307.19 527.13,-296.63 520.36,-298.4"/>
</a>
</g>
</g>
</g>
</svg>

<g id="navigator" transform="translate(0 0)" fill="#404254">
  <rect fill="#f2f5e9" fill-opacity="0.5" stroke="#606060" stroke-width=".5" x="0" y="0" width="60" height="60"/>
  <use id="zoomplus" xlink:href="#zoomPlus" x="17" y="9" onmousedown="handleZoom(evt,'in')"/>
  <use id="zoomminus" xlink:href="#zoomMin" x="42" y="9" onmousedown="handleZoom(evt,'out')"/>
  <use id="reset" xlink:href="#resetDef" x="30" y="36" onmousedown="handleReset()"/>
   <use id="arrowup" xlink:href="#arrowUp" x="0" y="0" onmousedown="handlePan(0,-1)"/>
  <use id="arrowright" xlink:href="#arrowRight" x="0" y="0" onmousedown="handlePan(1,0)"/>
  <use id="arrowdown" xlink:href="#arrowDown" x="0" y="0" onmousedown="handlePan(0,1)"/>
  <use id="arrowleft" xlink:href="#arrowLeft" x="0" y="0" onmousedown="handlePan(-1,0)"/>
</g>
<svg viewBox="0 0 15 15" width="100%" height="30px" preserveAspectRatio="xMaxYMin meet">
 <g id="arrow_out" transform="scale(0.3 0.3)">
  <a xlink:href="classfabomatic_1_1_board_logic_a47b4d515c0d3488eceb49769036bce8b_cgraph_org.svg" target="_base">
   <rect id="button" ry="5" rx="5" y="6" x="6" height="38" width="38"
        fill="#f2f5e9" fill-opacity="0.5" stroke="#606060" stroke-width="1.0"/>
   <path id="arrow"
     d="M 11.500037,31.436501 C 11.940474,20.09759 22.043105,11.32322 32.158766,21.979434 L 37.068811,17.246167 C 37.068811,17.246167 37.088388,32 37.088388,32 L 22.160133,31.978069 C 22.160133,31.978069 26.997745,27.140456 26.997745,27.140456 C 18.528582,18.264221 13.291696,25.230495 11.500037,31.436501 z"
     style="fill:#404040;"/>
  </a>
 </g>
</svg>

<style type='text/css'>
<![CDATA[
[data-mouse-over-selected='false'] { opacity: 0.7; }
[data-mouse-over-selected='true']  { opacity: 1.0; }
]]>
</style>
<script type="application/ecmascript"><![CDATA[
document.addEventListener('DOMContentLoaded', (event) => {
  highlightEdges();
  highlightAdjacentNodes();
});
]]></script>
</svg>
