<?xml version="1.0" encoding="UTF-8" standalone="no"?>
<!DOCTYPE svg PUBLIC "-//W3C//DTD SVG 1.1//EN"
 "http://www.w3.org/Graphics/SVG/1.1/DTD/svg11.dtd">
<!-- Generated by graphviz version 9.0.0 (20230911.1827)
 -->
<!-- Title: fabomatic::BoardLogic::refreshFromServer Pages: 1 -->
<svg width="770pt" height="603pt"
 viewBox="0.00 0.00 769.75 602.50" xmlns="http://www.w3.org/2000/svg" xmlns:xlink="http://www.w3.org/1999/xlink">
<g id="graph0" class="graph" transform="scale(1 1) rotate(0) translate(4 598.5)">
<title>fabomatic::BoardLogic::refreshFromServer</title>
<!-- Node1 -->
<g id="Node000001" class="node">
<title>Node1</title>
<g id="a_Node000001"><a xlink:title="connects and polls the server for up&#45;to&#45;date machine information">
<polygon fill="#999999" stroke="#666666" points="112.75,-361.5 0,-361.5 0,-331 112.75,-331 112.75,-361.5"/>
<text text-anchor="start" x="8" y="-348" font-family="Helvetica,sans-Serif" font-size="10.00">fabomatic::BoardLogic</text>
<text text-anchor="middle" x="56.38" y="-336.75" font-family="Helvetica,sans-Serif" font-size="10.00">::refreshFromServer</text>
</a>
</g>
</g>
<!-- Node2 -->
<g id="Node000002" class="node">
<title>Node2</title>
<g id="a_Node000002"><a xlink:href="classfabomatic_1_1_fab_backend.xhtml#a215d08460a8df6f20223a07b1e756332" target="_top" xlink:title="Checks the machine status on the server.">
<polygon fill="white" stroke="#666666" points="269.38,-594.5 151.38,-594.5 151.38,-564 269.38,-564 269.38,-594.5"/>
<text text-anchor="start" x="159.38" y="-581" font-family="Helvetica,sans-Serif" font-size="10.00">fabomatic::FabBackend</text>
<text text-anchor="middle" x="210.38" y="-569.75" font-family="Helvetica,sans-Serif" font-size="10.00">::checkMachine</text>
</a>
</g>
</g>
<!-- Node1&#45;&gt;Node2 -->
<g id="edge1_Node000001_Node000002" class="edge">
<title>Node1&#45;&gt;Node2</title>
<g id="a_edge1_Node000001_Node000002"><a xlink:title=" ">
<path fill="none" stroke="#63b8ff" d="M60.09,-361.83C67.47,-399.8 91.35,-498.15 148.75,-554.25 149.78,-555.26 150.86,-556.23 151.97,-557.16"/>
<polygon fill="#63b8ff" stroke="#63b8ff" points="149.74,-559.86 159.94,-562.73 153.75,-554.13 149.74,-559.86"/>
</a>
</g>
</g>
<!-- Node3 -->
<g id="Node000003" class="node">
<title>Node3</title>
<g id="a_Node000003"><a xlink:href="classfabomatic_1_1_fab_backend.xhtml#a1a45f556aadcbc428d14b7c7577ed43d" target="_top" xlink:title="Establishes a connection to the WiFi network and the MQTT server.">
<polygon fill="white" stroke="#666666" points="269.38,-545.5 151.38,-545.5 151.38,-515 269.38,-515 269.38,-545.5"/>
<text text-anchor="start" x="159.38" y="-532" font-family="Helvetica,sans-Serif" font-size="10.00">fabomatic::FabBackend</text>
<text text-anchor="middle" x="210.38" y="-520.75" font-family="Helvetica,sans-Serif" font-size="10.00">::connect</text>
</a>
</g>
</g>
<!-- Node1&#45;&gt;Node3 -->
<g id="edge2_Node000001_Node000003" class="edge">
<title>Node1&#45;&gt;Node3</title>
<g id="a_edge2_Node000001_Node000003"><a xlink:title=" ">
<path fill="none" stroke="#63b8ff" d="M63,-361.91C74.64,-392.4 104.09,-460.29 148.75,-501.25 151.68,-503.93 154.9,-506.42 158.28,-508.7"/>
<polygon fill="#63b8ff" stroke="#63b8ff" points="156.47,-511.7 166.84,-513.86 160.08,-505.7 156.47,-511.7"/>
</a>
</g>
</g>
<!-- Node9 -->
<g id="Node000009" class="node">
<title>Node9</title>
<g id="a_Node000009"><a xlink:href="classfabomatic_1_1_machine.xhtml#a8bde1bdf40d146c521b623d54e2df1cf" target="_top" xlink:title="Returns the machine identifier.">
<polygon fill="white" stroke="#666666" points="417,-355.5 317,-355.5 317,-325 417,-325 417,-355.5"/>
<text text-anchor="start" x="325" y="-342" font-family="Helvetica,sans-Serif" font-size="10.00">fabomatic::Machine</text>
<text text-anchor="middle" x="367" y="-330.75" font-family="Helvetica,sans-Serif" font-size="10.00">::getMachineId</text>
</a>
</g>
</g>
<!-- Node1&#45;&gt;Node9 -->
<g id="edge11_Node000001_Node000009" class="edge">
<title>Node1&#45;&gt;Node9</title>
<g id="a_edge11_Node000001_Node000009"><a xlink:title=" ">
<path fill="none" stroke="#63b8ff" d="M63.5,-361.91C75.23,-389.45 103.79,-445.75 148.75,-468.25 197.74,-492.76 227.03,-499.53 272,-468.25 309.75,-441.99 277.76,-405.89 308,-371.25 310.92,-367.91 314.28,-364.87 317.89,-362.12"/>
<polygon fill="#63b8ff" stroke="#63b8ff" points="319.64,-365.16 326,-356.69 315.74,-359.34 319.64,-365.16"/>
</a>
</g>
</g>
<!-- Node10 -->
<g id="Node000010" class="node">
<title>Node10</title>
<g id="a_Node000010"><a xlink:href="classfabomatic_1_1_machine.xhtml#addd23c892c39f3c1e26d611059273081" target="_top" xlink:title=" ">
<polygon fill="white" stroke="#666666" points="260.38,-459.5 160.38,-459.5 160.38,-429 260.38,-429 260.38,-459.5"/>
<text text-anchor="start" x="168.38" y="-446" font-family="Helvetica,sans-Serif" font-size="10.00">fabomatic::Machine</text>
<text text-anchor="middle" x="210.38" y="-434.75" font-family="Helvetica,sans-Serif" font-size="10.00">::setAllowed</text>
</a>
</g>
</g>
<!-- Node1&#45;&gt;Node10 -->
<g id="edge12_Node000001_Node000010" class="edge">
<title>Node1&#45;&gt;Node10</title>
<g id="a_edge12_Node000001_Node000010"><a xlink:title=" ">
<path fill="none" stroke="#63b8ff" d="M73.83,-361.79C91.35,-377.75 120.41,-402.55 148.75,-419.25 151.33,-420.77 154.02,-422.24 156.76,-423.66"/>
<polygon fill="#63b8ff" stroke="#63b8ff" points="154.99,-426.69 165.52,-427.88 158.03,-420.38 154.99,-426.69"/>
</a>
</g>
</g>
<!-- Node11 -->
<g id="Node000011" class="node">
<title>Node11</title>
<g id="a_Node000011"><a xlink:href="classfabomatic_1_1_machine.xhtml#ace7ccce1b3fabde562cfc7c5645dd6a3" target="_top" xlink:title="Sets the delay after which the user will be logged off automatically.">
<polygon fill="white" stroke="#666666" points="261.12,-410.5 159.62,-410.5 159.62,-380 261.12,-380 261.12,-410.5"/>
<text text-anchor="start" x="167.62" y="-397" font-family="Helvetica,sans-Serif" font-size="10.00">fabomatic::Machine</text>
<text text-anchor="middle" x="210.38" y="-385.75" font-family="Helvetica,sans-Serif" font-size="10.00">::setAutologoffDelay</text>
</a>
</g>
</g>
<!-- Node1&#45;&gt;Node11 -->
<g id="edge13_Node000001_Node000011" class="edge">
<title>Node1&#45;&gt;Node11</title>
<g id="a_edge13_Node000001_Node000011"><a xlink:title=" ">
<path fill="none" stroke="#63b8ff" d="M105.89,-361.89C119.8,-366.37 135.14,-371.32 149.65,-376"/>
<polygon fill="#63b8ff" stroke="#63b8ff" points="148.51,-379.31 159.1,-379.04 150.66,-372.64 148.51,-379.31"/>
</a>
</g>
</g>
<!-- Node12 -->
<g id="Node000012" class="node">
<title>Node12</title>
<g id="a_Node000012"><a xlink:href="classfabomatic_1_1_machine.xhtml#a30c12cef5abca43d82f7c378430a79b6" target="_top" xlink:title="Sets the idle period after which the machine will power off automatically.">
<polygon fill="white" stroke="#666666" points="260.38,-361.5 160.38,-361.5 160.38,-331 260.38,-331 260.38,-361.5"/>
<text text-anchor="start" x="168.38" y="-348" font-family="Helvetica,sans-Serif" font-size="10.00">fabomatic::Machine</text>
<text text-anchor="middle" x="210.38" y="-336.75" font-family="Helvetica,sans-Serif" font-size="10.00">::setGracePeriod</text>
</a>
</g>
</g>
<!-- Node1&#45;&gt;Node12 -->
<g id="edge14_Node000001_Node000012" class="edge">
<title>Node1&#45;&gt;Node12</title>
<g id="a_edge14_Node000001_Node000012"><a xlink:title=" ">
<path fill="none" stroke="#63b8ff" d="M113.11,-346.25C124.8,-346.25 137.17,-346.25 149.02,-346.25"/>
<polygon fill="#63b8ff" stroke="#63b8ff" points="148.66,-349.75 158.66,-346.25 148.66,-342.75 148.66,-349.75"/>
</a>
</g>
</g>
<!-- Node13 -->
<g id="Node000013" class="node">
<title>Node13</title>
<g id="a_Node000013"><a xlink:href="classfabomatic_1_1_machine.xhtml#ac8513321c0c184312c66087e7104d066" target="_top" xlink:title="Sets the machine name as per backend configuration.">
<polygon fill="white" stroke="#666666" points="260.38,-312.5 160.38,-312.5 160.38,-282 260.38,-282 260.38,-312.5"/>
<text text-anchor="start" x="168.38" y="-299" font-family="Helvetica,sans-Serif" font-size="10.00">fabomatic::Machine</text>
<text text-anchor="middle" x="210.38" y="-287.75" font-family="Helvetica,sans-Serif" font-size="10.00">::setMachineName</text>
</a>
</g>
</g>
<!-- Node1&#45;&gt;Node13 -->
<g id="edge15_Node000001_Node000013" class="edge">
<title>Node1&#45;&gt;Node13</title>
<g id="a_edge15_Node000001_Node000013"><a xlink:title=" ">
<path fill="none" stroke="#63b8ff" d="M105.89,-330.61C119.8,-326.13 135.14,-321.18 149.65,-316.5"/>
<polygon fill="#63b8ff" stroke="#63b8ff" points="150.66,-319.86 159.1,-313.46 148.51,-313.19 150.66,-319.86"/>
</a>
</g>
</g>
<!-- Node14 -->
<g id="Node000014" class="node">
<title>Node14</title>
<g id="a_Node000014"><a xlink:href="classfabomatic_1_1_machine.xhtml#a9d109ed7b9c5e40768bc4edf62377aa8" target="_top" xlink:title="Sets the machine type as per backend configuration.">
<polygon fill="white" stroke="#666666" points="260.38,-263.5 160.38,-263.5 160.38,-233 260.38,-233 260.38,-263.5"/>
<text text-anchor="start" x="168.38" y="-250" font-family="Helvetica,sans-Serif" font-size="10.00">fabomatic::Machine</text>
<text text-anchor="middle" x="210.38" y="-238.75" font-family="Helvetica,sans-Serif" font-size="10.00">::setMachineType</text>
</a>
</g>
</g>
<!-- Node1&#45;&gt;Node14 -->
<g id="edge16_Node000001_Node000014" class="edge">
<title>Node1&#45;&gt;Node14</title>
<g id="a_edge16_Node000001_Node000014"><a xlink:title=" ">
<path fill="none" stroke="#63b8ff" d="M73.83,-330.71C91.35,-314.75 120.41,-289.95 148.75,-273.25 151.33,-271.73 154.02,-270.26 156.76,-268.84"/>
<polygon fill="#63b8ff" stroke="#63b8ff" points="158.03,-272.12 165.52,-264.62 154.99,-265.81 158.03,-272.12"/>
</a>
</g>
</g>
<!-- Node15 -->
<g id="Node000015" class="node">
<title>Node15</title>
<g id="a_Node000015"><a xlink:href="classfabomatic_1_1_machine.xhtml#ab39e2dee601ccaeab1e02cf28a14306b" target="_top" xlink:title=" ">
<polygon fill="white" stroke="#666666" points="263.38,-214.5 157.38,-214.5 157.38,-184 263.38,-184 263.38,-214.5"/>
<text text-anchor="start" x="165.38" y="-201" font-family="Helvetica,sans-Serif" font-size="10.00">fabomatic::Machine</text>
<text text-anchor="middle" x="210.38" y="-189.75" font-family="Helvetica,sans-Serif" font-size="10.00">::setMaintenanceInfo</text>
</a>
</g>
</g>
<!-- Node1&#45;&gt;Node15 -->
<g id="edge17_Node000001_Node000015" class="edge">
<title>Node1&#45;&gt;Node15</title>
<g id="a_edge17_Node000001_Node000015"><a xlink:title=" ">
<path fill="none" stroke="#63b8ff" d="M65.41,-330.64C79.24,-305.15 109.85,-254.41 148.75,-224.25 150.44,-222.94 152.2,-221.69 154.02,-220.5"/>
<polygon fill="#63b8ff" stroke="#63b8ff" points="155.32,-223.79 162.21,-215.75 151.81,-217.74 155.32,-223.79"/>
</a>
</g>
</g>
<!-- Node16 -->
<g id="Node000016" class="node">
<title>Node16</title>
<g id="a_Node000016"><a xlink:href="classfabomatic_1_1_machine.xhtml#a921c78777a6cb9f7fdb9780a8c1aa8c0" target="_top" xlink:title=" ">
<polygon fill="white" stroke="#666666" points="272,-165.5 148.75,-165.5 148.75,-135 272,-135 272,-165.5"/>
<text text-anchor="start" x="156.75" y="-152" font-family="Helvetica,sans-Serif" font-size="10.00">fabomatic::Machine</text>
<text text-anchor="middle" x="210.38" y="-140.75" font-family="Helvetica,sans-Serif" font-size="10.00">::setMaintenanceNeeded</text>
</a>
</g>
</g>
<!-- Node1&#45;&gt;Node16 -->
<g id="edge18_Node000001_Node000016" class="edge">
<title>Node1&#45;&gt;Node16</title>
<g id="a_edge18_Node000001_Node000016"><a xlink:title=" ">
<path fill="none" stroke="#63b8ff" d="M61.79,-330.53C71.84,-297.41 99.46,-219.86 148.75,-175.25 149.99,-174.13 151.29,-173.05 152.63,-172.02"/>
<polygon fill="#63b8ff" stroke="#63b8ff" points="154.34,-175.08 160.8,-166.68 150.51,-169.23 154.34,-175.08"/>
</a>
</g>
</g>
<!-- Node17 -->
<g id="Node000017" class="node">
<title>Node17</title>
<g id="a_Node000017"><a xlink:href="classfabomatic_1_1_machine.xhtml#a39fbf9cad912d735cf84b75c0674646f" target="_top" xlink:title=" ">
<polygon fill="white" stroke="#666666" points="260.38,-116.5 160.38,-116.5 160.38,-86 260.38,-86 260.38,-116.5"/>
<text text-anchor="start" x="168.38" y="-103" font-family="Helvetica,sans-Serif" font-size="10.00">fabomatic::Machine</text>
<text text-anchor="middle" x="210.38" y="-91.75" font-family="Helvetica,sans-Serif" font-size="10.00">::toString</text>
</a>
</g>
</g>
<!-- Node1&#45;&gt;Node17 -->
<g id="edge19_Node000001_Node000017" class="edge">
<title>Node1&#45;&gt;Node17</title>
<g id="a_edge19_Node000001_Node000017"><a xlink:title=" ">
<path fill="none" stroke="#63b8ff" d="M59.66,-330.66C66.24,-291.18 88.72,-186.13 148.75,-126.25 149.77,-125.23 150.84,-124.25 151.95,-123.31"/>
<polygon fill="#63b8ff" stroke="#63b8ff" points="153.73,-126.34 159.87,-117.71 149.68,-120.63 153.73,-126.34"/>
</a>
</g>
</g>
<!-- Node4 -->
<g id="Node000004" class="node">
<title>Node4</title>
<g id="a_Node000004"><a xlink:href="namespacefabomatic_1_1_tasks.xhtml#adc67d1313c6695d813feb935eafdaf60" target="_top" xlink:title=" ">
<polygon fill="white" stroke="#666666" points="761.75,-410.88 615.25,-410.88 615.25,-391.62 761.75,-391.62 761.75,-410.88"/>
<text text-anchor="middle" x="688.5" y="-397.38" font-family="Helvetica,sans-Serif" font-size="10.00">fabomatic::Tasks::arduinoNow</text>
</a>
</g>
</g>
<!-- Node3&#45;&gt;Node4 -->
<g id="edge3_Node000003_Node000004" class="edge">
<title>Node3&#45;&gt;Node4</title>
<g id="a_edge3_Node000003_Node000004"><a xlink:title=" ">
<path fill="none" stroke="#63b8ff" d="M264.86,-545.99C278.78,-549.41 293.85,-552.52 308,-554.25 428.39,-568.98 474.06,-584.64 579.25,-524.25 623.46,-498.87 658.82,-448.74 676.06,-420.96"/>
<polygon fill="#63b8ff" stroke="#63b8ff" points="679,-422.86 681.16,-412.48 673,-419.24 679,-422.86"/>
</a>
</g>
</g>
<!-- Node5 -->
<g id="Node000005" class="node">
<title>Node5</title>
<g id="a_Node000005"><a xlink:href="classfabomatic_1_1_fab_backend.xhtml#ad928751b2f967feaac0f2cb708c0d6e9" target="_top" xlink:title="Connects to the WiFi network.">
<polygon fill="white" stroke="#666666" points="426,-545.5 308,-545.5 308,-515 426,-515 426,-545.5"/>
<text text-anchor="start" x="316" y="-532" font-family="Helvetica,sans-Serif" font-size="10.00">fabomatic::FabBackend</text>
<text text-anchor="middle" x="367" y="-520.75" font-family="Helvetica,sans-Serif" font-size="10.00">::connectWiFi</text>
</a>
</g>
</g>
<!-- Node3&#45;&gt;Node5 -->
<g id="edge4_Node000003_Node000005" class="edge">
<title>Node3&#45;&gt;Node5</title>
<g id="a_edge4_Node000003_Node000005"><a xlink:title=" ">
<path fill="none" stroke="#63b8ff" d="M269.83,-530.25C278.45,-530.25 287.41,-530.25 296.23,-530.25"/>
<polygon fill="#63b8ff" stroke="#63b8ff" points="296.2,-533.75 306.2,-530.25 296.2,-526.75 296.2,-533.75"/>
</a>
</g>
</g>
<!-- Node6 -->
<g id="Node000006" class="node">
<title>Node6</title>
<g id="a_Node000006"><a xlink:href="namespacefabomatic_1_1_tasks.xhtml#a5c20f560f5934822d39ba116a16f3ab6" target="_top" xlink:title="Wait for a delay, allowing OTA updates.">
<polygon fill="white" stroke="#666666" points="579.25,-496.88 462,-496.88 462,-477.62 579.25,-477.62 579.25,-496.88"/>
<text text-anchor="middle" x="520.62" y="-483.38" font-family="Helvetica,sans-Serif" font-size="10.00">fabomatic::Tasks::delay</text>
</a>
</g>
</g>
<!-- Node3&#45;&gt;Node6 -->
<g id="edge8_Node000003_Node000006" class="edge">
<title>Node3&#45;&gt;Node6</title>
<g id="a_edge8_Node000003_Node000006"><a xlink:title=" ">
<path fill="none" stroke="#63b8ff" d="M268.55,-514.51C281.45,-511.39 295.13,-508.41 308,-506.25 355.22,-498.31 408.96,-493.54 450.47,-490.76"/>
<polygon fill="#63b8ff" stroke="#63b8ff" points="450.57,-494.27 460.32,-490.13 450.12,-487.28 450.57,-494.27"/>
</a>
</g>
</g>
<!-- Node7 -->
<g id="Node000007" class="node">
<title>Node7</title>
<g id="a_Node000007"><a xlink:href="classfabomatic_1_1_fab_backend.xhtml#a3ab102598ee93269de90a0170e024619" target="_top" xlink:title="Callback function for received MQTT messages.">
<polygon fill="white" stroke="#666666" points="426,-459.5 308,-459.5 308,-429 426,-429 426,-459.5"/>
<text text-anchor="start" x="316" y="-446" font-family="Helvetica,sans-Serif" font-size="10.00">fabomatic::FabBackend</text>
<text text-anchor="middle" x="367" y="-434.75" font-family="Helvetica,sans-Serif" font-size="10.00">::messageReceived</text>
</a>
</g>
</g>
<!-- Node3&#45;&gt;Node7 -->
<g id="edge9_Node000003_Node000007" class="edge">
<title>Node3&#45;&gt;Node7</title>
<g id="a_edge9_Node000003_Node000007"><a xlink:title=" ">
<path fill="none" stroke="#63b8ff" d="M247.32,-514.63C255.61,-510.6 264.26,-506.03 272,-501.25 289.24,-490.59 290.85,-484.06 308,-473.25 312.47,-470.43 317.25,-467.68 322.07,-465.05"/>
<polygon fill="#63b8ff" stroke="#63b8ff" points="323.38,-468.32 330.61,-460.57 320.13,-462.12 323.38,-468.32"/>
</a>
</g>
</g>
<!-- Node8 -->
<g id="Node000008" class="node">
<title>Node8</title>
<g id="a_Node000008"><a xlink:href="classfabomatic_1_1_fab_backend.xhtml#aee0cf549bea2daebc3e08742853d36c1" target="_top" xlink:title="Publishes a query on the MQTT server.">
<polygon fill="white" stroke="#666666" points="426,-410.5 308,-410.5 308,-380 426,-380 426,-410.5"/>
<text text-anchor="start" x="316" y="-397" font-family="Helvetica,sans-Serif" font-size="10.00">fabomatic::FabBackend</text>
<text text-anchor="middle" x="367" y="-385.75" font-family="Helvetica,sans-Serif" font-size="10.00">::publish</text>
</a>
</g>
</g>
<!-- Node3&#45;&gt;Node8 -->
<g id="edge10_Node000003_Node000008" class="edge">
<title>Node3&#45;&gt;Node8</title>
<g id="a_edge10_Node000003_Node000008"><a xlink:title=" ">
<path fill="none" stroke="#63b8ff" d="M254.05,-514.64C260.6,-510.95 266.88,-506.52 272,-501.25 299.46,-473.01 279.99,-447.95 308,-420.25 309.01,-419.25 310.06,-418.29 311.16,-417.37"/>
<polygon fill="#63b8ff" stroke="#63b8ff" points="312.82,-420.48 318.95,-411.84 308.77,-414.77 312.82,-420.48"/>
</a>
</g>
</g>
<!-- Node5&#45;&gt;Node6 -->
<g id="edge5_Node000005_Node000006" class="edge">
<title>Node5&#45;&gt;Node6</title>
<g id="a_edge5_Node000005_Node000006"><a xlink:title=" ">
<path fill="none" stroke="#63b8ff" d="M423.17,-514.6C439.52,-509.97 457.26,-504.94 473.02,-500.47"/>
<polygon fill="#63b8ff" stroke="#63b8ff" points="473.97,-503.84 482.63,-497.74 472.06,-497.1 473.97,-503.84"/>
</a>
</g>
</g>
<!-- Node6&#45;&gt;Node4 -->
<g id="edge6_Node000006_Node000004" class="edge">
<title>Node6&#45;&gt;Node4</title>
<g id="a_edge6_Node000006_Node000004"><a xlink:title=" ">
<path fill="none" stroke="#63b8ff" d="M540.98,-477.22C569.74,-462.3 624.01,-434.17 657.81,-416.64"/>
<polygon fill="#63b8ff" stroke="#63b8ff" points="659.4,-419.76 666.67,-412.05 656.18,-413.54 659.4,-419.76"/>
</a>
</g>
</g>
<!-- Node6&#45;&gt;Node6 -->
<g id="edge7_Node000006_Node000006" class="edge">
<title>Node6&#45;&gt;Node6</title>
<g id="a_edge7_Node000006_Node000006"><a xlink:title=" ">
<path fill="none" stroke="#63b8ff" d="M496.57,-497.16C485.6,-505.77 493.62,-514.88 520.62,-514.88 535.81,-514.88 545,-511.99 548.17,-507.94"/>
<polygon fill="#63b8ff" stroke="#63b8ff" points="551.56,-507.04 545.14,-498.6 544.9,-509.19 551.56,-507.04"/>
</a>
</g>
</g>
<!-- Node17&#45;&gt;Node9 -->
<g id="edge21_Node000017_Node000009" class="edge">
<title>Node17&#45;&gt;Node9</title>
<g id="a_edge21_Node000017_Node000009"><a xlink:title=" ">
<path fill="none" stroke="#63b8ff" d="M260.71,-116.32C264.95,-119.1 268.82,-122.38 272,-126.25 324.57,-190.34 258.69,-242.62 308,-309.25 310.35,-312.42 313.12,-315.3 316.15,-317.91"/>
<polygon fill="#63b8ff" stroke="#63b8ff" points="313.91,-320.61 324.06,-323.67 318.04,-314.95 313.91,-320.61"/>
</a>
</g>
</g>
<!-- Node18 -->
<g id="Node000018" class="node">
<title>Node18</title>
<g id="a_Node000018"><a xlink:href="classfabomatic_1_1_machine.xhtml#aeee64b0919798272dfe45d40eb2e96be" target="_top" xlink:title=" ">
<polygon fill="white" stroke="#666666" points="417,-300.5 317,-300.5 317,-270 417,-270 417,-300.5"/>
<text text-anchor="start" x="325" y="-287" font-family="Helvetica,sans-Serif" font-size="10.00">fabomatic::Machine</text>
<text text-anchor="middle" x="367" y="-275.75" font-family="Helvetica,sans-Serif" font-size="10.00">::getGracePeriod</text>
</a>
</g>
</g>
<!-- Node17&#45;&gt;Node18 -->
<g id="edge20_Node000017_Node000018" class="edge">
<title>Node17&#45;&gt;Node18</title>
<g id="a_edge20_Node000017_Node000018"><a xlink:title=" ">
<path fill="none" stroke="#63b8ff" d="M260.73,-116.73C264.91,-119.43 268.77,-122.57 272,-126.25 312.71,-172.57 267.66,-213.61 308,-260.25 308.67,-261.03 309.38,-261.79 310.11,-262.52"/>
<polygon fill="#63b8ff" stroke="#63b8ff" points="307.62,-265.01 317.59,-268.58 312.02,-259.57 307.62,-265.01"/>
</a>
</g>
</g>
<!-- Node19 -->
<g id="Node000019" class="node">
<title>Node19</title>
<g id="a_Node000019"><a xlink:href="classfabomatic_1_1_machine.xhtml#a1637e99f2d70262d2ab26f69ed4f0e47" target="_top" xlink:title=" ">
<polygon fill="white" stroke="#666666" points="417,-251.5 317,-251.5 317,-221 417,-221 417,-251.5"/>
<text text-anchor="start" x="325" y="-238" font-family="Helvetica,sans-Serif" font-size="10.00">fabomatic::Machine</text>
<text text-anchor="middle" x="367" y="-226.75" font-family="Helvetica,sans-Serif" font-size="10.00">::getMachineName</text>
</a>
</g>
</g>
<!-- Node17&#45;&gt;Node19 -->
<g id="edge22_Node000017_Node000019" class="edge">
<title>Node17&#45;&gt;Node19</title>
<g id="a_edge22_Node000017_Node000019"><a xlink:title=" ">
<path fill="none" stroke="#63b8ff" d="M259.62,-116.86C264.13,-119.53 268.36,-122.64 272,-126.25 301.15,-155.12 279.08,-182.15 308,-211.25 309,-212.26 310.05,-213.22 311.13,-214.16"/>
<polygon fill="#63b8ff" stroke="#63b8ff" points="308.73,-216.74 318.89,-219.72 312.81,-211.05 308.73,-216.74"/>
</a>
</g>
</g>
<!-- Node20 -->
<g id="Node000020" class="node">
<title>Node20</title>
<g id="a_Node000020"><a xlink:href="classfabomatic_1_1_machine.xhtml#a3c5304fd80e0cc1c2118a59c64222d6d" target="_top" xlink:title="Returns the current power state of the machine.">
<polygon fill="white" stroke="#666666" points="417,-202.5 317,-202.5 317,-172 417,-172 417,-202.5"/>
<text text-anchor="start" x="325" y="-189" font-family="Helvetica,sans-Serif" font-size="10.00">fabomatic::Machine</text>
<text text-anchor="middle" x="367" y="-177.75" font-family="Helvetica,sans-Serif" font-size="10.00">::getPowerState</text>
</a>
</g>
</g>
<!-- Node17&#45;&gt;Node20 -->
<g id="edge23_Node000017_Node000020" class="edge">
<title>Node17&#45;&gt;Node20</title>
<g id="a_edge23_Node000017_Node000020"><a xlink:title=" ">
<path fill="none" stroke="#63b8ff" d="M254.67,-116.99C260.65,-119.77 266.59,-122.87 272,-126.25 290.15,-137.6 290.27,-146.25 308,-158.25 312.1,-161.02 316.49,-163.7 320.97,-166.23"/>
<polygon fill="#63b8ff" stroke="#63b8ff" points="319.01,-169.15 329.48,-170.8 322.32,-162.98 319.01,-169.15"/>
</a>
</g>
</g>
<!-- Node21 -->
<g id="Node000021" class="node">
<title>Node21</title>
<g id="a_Node000021"><a xlink:href="classfabomatic_1_1_machine.xhtml#a9c845a163660550fa779516a8be8681a" target="_top" xlink:title="Duration of the current usage, or 0s.">
<polygon fill="white" stroke="#666666" points="570.62,-245.5 470.62,-245.5 470.62,-215 570.62,-215 570.62,-245.5"/>
<text text-anchor="start" x="478.62" y="-232" font-family="Helvetica,sans-Serif" font-size="10.00">fabomatic::Machine</text>
<text text-anchor="middle" x="520.62" y="-220.75" font-family="Helvetica,sans-Serif" font-size="10.00">::getUsageDuration</text>
</a>
</g>
</g>
<!-- Node17&#45;&gt;Node21 -->
<g id="edge24_Node000017_Node000021" class="edge">
<title>Node17&#45;&gt;Node21</title>
<g id="a_edge24_Node000017_Node000021"><a xlink:title=" ">
<path fill="none" stroke="#63b8ff" d="M260.59,-113.4C314.4,-127.05 396.86,-149.13 426,-163.25 432.86,-166.57 464.78,-189.72 489.46,-207.89"/>
<polygon fill="#63b8ff" stroke="#63b8ff" points="487.15,-210.53 497.28,-213.65 491.31,-204.9 487.15,-210.53"/>
</a>
</g>
</g>
<!-- Node22 -->
<g id="Node000022" class="node">
<title>Node22</title>
<g id="a_Node000022"><a xlink:href="classfabomatic_1_1_machine.xhtml#a74aa0b2cd34205ba57710affc56f5c3c" target="_top" xlink:title="Indicates is the machine is not used by anybody.">
<polygon fill="white" stroke="#666666" points="417,-116.5 317,-116.5 317,-86 417,-86 417,-116.5"/>
<text text-anchor="start" x="325" y="-103" font-family="Helvetica,sans-Serif" font-size="10.00">fabomatic::Machine</text>
<text text-anchor="middle" x="367" y="-91.75" font-family="Helvetica,sans-Serif" font-size="10.00">::isFree</text>
</a>
</g>
</g>
<!-- Node17&#45;&gt;Node22 -->
<g id="edge26_Node000017_Node000022" class="edge">
<title>Node17&#45;&gt;Node22</title>
<g id="a_edge26_Node000017_Node000022"><a xlink:title=" ">
<path fill="none" stroke="#63b8ff" d="M260.72,-101.25C274.95,-101.25 290.64,-101.25 305.46,-101.25"/>
<polygon fill="#63b8ff" stroke="#63b8ff" points="305.08,-104.75 315.08,-101.25 305.08,-97.75 305.08,-104.75"/>
</a>
</g>
</g>
<!-- Node23 -->
<g id="Node000023" class="node">
<title>Node23</title>
<g id="a_Node000023"><a xlink:href="classfabomatic_1_1_machine.xhtml#a871958cc57845c8651cf1058ed9b30e4" target="_top" xlink:title="Indicates if the machine will power down in less than BEEP_REMAINING_MINUTES.">
<polygon fill="white" stroke="#666666" points="576.62,-178.5 464.62,-178.5 464.62,-148 576.62,-148 576.62,-178.5"/>
<text text-anchor="start" x="472.62" y="-165" font-family="Helvetica,sans-Serif" font-size="10.00">fabomatic::Machine</text>
<text text-anchor="middle" x="520.62" y="-153.75" font-family="Helvetica,sans-Serif" font-size="10.00">::isShutdownImminent</text>
</a>
</g>
</g>
<!-- Node17&#45;&gt;Node23 -->
<g id="edge27_Node000017_Node000023" class="edge">
<title>Node17&#45;&gt;Node23</title>
<g id="a_edge27_Node000017_Node000023"><a xlink:title=" ">
<path fill="none" stroke="#63b8ff" d="M252.41,-85.53C296.74,-71.06 368.7,-54.93 426,-77.25 457.57,-89.55 484.94,-118.01 501.8,-138.84"/>
<polygon fill="#63b8ff" stroke="#63b8ff" points="498.94,-140.86 507.85,-146.59 504.45,-136.56 498.94,-140.86"/>
</a>
</g>
</g>
<!-- Node24 -->
<g id="Node000024" class="node">
<title>Node24</title>
<g id="a_Node000024"><a xlink:href="structfabomatic_1_1_fab_user.xhtml#ab4b54f1830f1536824583e973d670582" target="_top" xlink:title=" ">
<polygon fill="white" stroke="#666666" points="417.38,-30.5 316.62,-30.5 316.62,0 417.38,0 417.38,-30.5"/>
<text text-anchor="start" x="324.62" y="-17" font-family="Helvetica,sans-Serif" font-size="10.00">fabomatic::FabUser</text>
<text text-anchor="middle" x="367" y="-5.75" font-family="Helvetica,sans-Serif" font-size="10.00">::toString</text>
</a>
</g>
</g>
<!-- Node17&#45;&gt;Node24 -->
<g id="edge29_Node000017_Node000024" class="edge">
<title>Node17&#45;&gt;Node24</title>
<g id="a_edge29_Node000017_Node000024"><a xlink:title=" ">
<path fill="none" stroke="#63b8ff" d="M236.93,-85.52C256.25,-73.79 283.54,-57.56 308,-44.25 313,-41.53 318.29,-38.75 323.56,-36.04"/>
<polygon fill="#63b8ff" stroke="#63b8ff" points="324.9,-39.29 332.23,-31.65 321.73,-33.05 324.9,-39.29"/>
</a>
</g>
</g>
<!-- Node21&#45;&gt;Node4 -->
<g id="edge25_Node000021_Node000004" class="edge">
<title>Node21&#45;&gt;Node4</title>
<g id="a_edge25_Node000021_Node000004"><a xlink:title=" ">
<path fill="none" stroke="#63b8ff" d="M536.64,-245.73C567.38,-277.42 637.37,-349.57 670.07,-383.28"/>
<polygon fill="#63b8ff" stroke="#63b8ff" points="667.35,-385.51 676.83,-390.25 672.38,-380.63 667.35,-385.51"/>
</a>
</g>
</g>
<!-- Node23&#45;&gt;Node4 -->
<g id="edge28_Node000023_Node000004" class="edge">
<title>Node23&#45;&gt;Node4</title>
<g id="a_edge28_Node000023_Node000004"><a xlink:title=" ">
<path fill="none" stroke="#63b8ff" d="M547.37,-178.97C558.09,-186.35 570.13,-195.82 579.25,-206.25 627.99,-262.02 664.34,-343.33 679.59,-380.86"/>
<polygon fill="#63b8ff" stroke="#63b8ff" points="676.29,-382.02 683.23,-390.02 682.79,-379.43 676.29,-382.02"/>
</a>
</g>
</g>
</g>
</svg>
