<?xml version="1.0" encoding="UTF-8" standalone="no"?>
<!DOCTYPE svg PUBLIC "-//W3C//DTD SVG 1.1//EN"
 "http://www.w3.org/Graphics/SVG/1.1/DTD/svg11.dtd">
<!-- Generated by graphviz version 9.0.0 (20230911.1827)
 -->
<!-- Title: fabomatic::MockMQTTBroker::isRunning Pages: 1 -->
<svg width="702pt" height="61pt"
 viewBox="0.00 0.00 701.50 60.50" xmlns="http://www.w3.org/2000/svg" xmlns:xlink="http://www.w3.org/1999/xlink">
<g id="graph0" class="graph" transform="scale(1 1) rotate(0) translate(4 56.5)">
<title>fabomatic::MockMQTTBroker::isRunning</title>
<!-- Node1 -->
<g id="Node000001" class="node">
<title>Node1</title>
<g id="a_Node000001"><a xlink:title="Checks if the MQTT broker is running.">
<polygon fill="#999999" stroke="#666666" points="693.5,-30.5 550,-30.5 550,0 693.5,0 693.5,-30.5"/>
<text text-anchor="start" x="558" y="-17" font-family="Helvetica,sans-Serif" font-size="10.00">fabomatic::MockMQTTBroker</text>
<text text-anchor="middle" x="621.75" y="-5.75" font-family="Helvetica,sans-Serif" font-size="10.00">::isRunning</text>
</a>
</g>
</g>
<!-- Node2 -->
<g id="Node000002" class="node">
<title>Node2</title>
<g id="a_Node000002"><a xlink:href="classfabomatic_1_1_mock_m_q_t_t_broker.xhtml#a4cd18cc3fb887b17e4668bbf99a531e5" target="_top" xlink:title="Main loop for the MQTT broker.">
<polygon fill="white" stroke="#666666" points="514,-52.5 370.5,-52.5 370.5,-22 514,-22 514,-52.5"/>
<text text-anchor="start" x="378.5" y="-39" font-family="Helvetica,sans-Serif" font-size="10.00">fabomatic::MockMQTTBroker</text>
<text text-anchor="middle" x="442.25" y="-27.75" font-family="Helvetica,sans-Serif" font-size="10.00">::mainLoop</text>
</a>
</g>
</g>
<!-- Node1&#45;&gt;Node2 -->
<g id="edge1_Node000001_Node000002" class="edge">
<title>Node1&#45;&gt;Node2</title>
<g id="a_edge1_Node000001_Node000002"><a xlink:title=" ">
<path fill="none" stroke="#63b8ff" d="M538.35,-25.46C530.36,-26.45 522.31,-27.45 514.44,-28.43"/>
<polygon fill="#63b8ff" stroke="#63b8ff" points="538.58,-28.96 548.07,-24.26 537.72,-22.01 538.58,-28.96"/>
</a>
</g>
</g>
<!-- Node4 -->
<g id="Node000004" class="node">
<title>Node4</title>
<g id="a_Node000004"><a xlink:href="namespacefabomatic_1_1tests.xhtml#aba7f55ee91c2d2a647fca6c8cc106c97" target="_top" xlink:title=" ">
<polygon fill="white" stroke="#666666" points="182,-30.5 76,-30.5 76,0 182,0 182,-30.5"/>
<text text-anchor="start" x="84" y="-17" font-family="Helvetica,sans-Serif" font-size="10.00">fabomatic::tests::test</text>
<text text-anchor="middle" x="129" y="-5.75" font-family="Helvetica,sans-Serif" font-size="10.00">_start_broker</text>
</a>
</g>
</g>
<!-- Node1&#45;&gt;Node4 -->
<g id="edge5_Node000001_Node000004" class="edge">
<title>Node1&#45;&gt;Node4</title>
<g id="a_edge5_Node000001_Node000004"><a xlink:title=" ">
<path fill="none" stroke="#63b8ff" d="M538.08,-13.55C529.94,-13.43 521.81,-13.32 514,-13.25 382.45,-12.02 349.55,-11.76 218,-13.25 206.39,-13.38 193.91,-13.61 182.11,-13.87"/>
<polygon fill="#63b8ff" stroke="#63b8ff" points="537.98,-17.05 548.04,-13.71 538.09,-10.05 537.98,-17.05"/>
</a>
</g>
</g>
<!-- Node3 -->
<g id="Node000003" class="node">
<title>Node3</title>
<g id="a_Node000003"><a xlink:href="namespacefabomatic_1_1tests.xhtml#af046ac0a4d53b62e8f3bf0cec2d07440" target="_top" xlink:title=" ">
<polygon fill="white" stroke="#666666" points="334.5,-52.5 218,-52.5 218,-22 334.5,-22 334.5,-52.5"/>
<text text-anchor="start" x="226" y="-39" font-family="Helvetica,sans-Serif" font-size="10.00">fabomatic::tests::thread</text>
<text text-anchor="middle" x="276.25" y="-27.75" font-family="Helvetica,sans-Serif" font-size="10.00">MQTTServer</text>
</a>
</g>
</g>
<!-- Node2&#45;&gt;Node3 -->
<g id="edge2_Node000002_Node000003" class="edge">
<title>Node2&#45;&gt;Node3</title>
<g id="a_edge2_Node000002_Node000003"><a xlink:title=" ">
<path fill="none" stroke="#63b8ff" d="M358.81,-37.25C350.68,-37.25 342.56,-37.25 334.77,-37.25"/>
<polygon fill="#63b8ff" stroke="#63b8ff" points="358.76,-40.75 368.76,-37.25 358.76,-33.75 358.76,-40.75"/>
</a>
</g>
</g>
<!-- Node3&#45;&gt;Node4 -->
<g id="edge3_Node000003_Node000004" class="edge">
<title>Node3&#45;&gt;Node4</title>
<g id="a_edge3_Node000003_Node000004"><a xlink:title=" ">
<path fill="none" stroke="#63b8ff" d="M206.72,-26.87C198.5,-25.62 190.21,-24.37 182.27,-23.17"/>
<polygon fill="#63b8ff" stroke="#63b8ff" points="205.94,-30.29 216.35,-28.33 206.98,-23.37 205.94,-30.29"/>
</a>
</g>
</g>
<!-- Node5 -->
<g id="Node000005" class="node">
<title>Node5</title>
<g id="a_Node000005"><a xlink:href="test__mqtt_8cpp.xhtml#a4fc01d736fe50cf5b977f755b675f11d" target="_top" xlink:title=" ">
<polygon fill="white" stroke="#666666" points="40,-24.88 0,-24.88 0,-5.63 40,-5.63 40,-24.88"/>
<text text-anchor="middle" x="20" y="-11.38" font-family="Helvetica,sans-Serif" font-size="10.00">setup</text>
</a>
</g>
</g>
<!-- Node4&#45;&gt;Node5 -->
<g id="edge4_Node000004_Node000005" class="edge">
<title>Node4&#45;&gt;Node5</title>
<g id="a_edge4_Node000004_Node000005"><a xlink:title=" ">
<path fill="none" stroke="#63b8ff" d="M64.27,-15.25C55.63,-15.25 47.36,-15.25 40.41,-15.25"/>
<polygon fill="#63b8ff" stroke="#63b8ff" points="64.24,-18.75 74.24,-15.25 64.24,-11.75 64.24,-18.75"/>
</a>
</g>
</g>
</g>
</svg>
