<?xml version="1.0" encoding="UTF-8" standalone="no"?>
<!DOCTYPE svg PUBLIC "-//W3C//DTD SVG 1.1//EN"
 "http://www.w3.org/Graphics/SVG/1.1/DTD/svg11.dtd">
<!-- Generated by graphviz version 9.0.0 (20230911.1827)
 -->
<!-- Title: fabomatic::BoardLogic::reconfigure Pages: 1 -->
<svg width="430pt" height="259pt"
 viewBox="0.00 0.00 430.25 259.46" xmlns="http://www.w3.org/2000/svg" xmlns:xlink="http://www.w3.org/1999/xlink">
<g id="graph0" class="graph" transform="scale(1 1) rotate(0) translate(4 255.46)">
<title>fabomatic::BoardLogic::reconfigure</title>
<!-- Node1 -->
<g id="Node000001" class="node">
<title>Node1</title>
<g id="a_Node000001"><a xlink:title="Configures the board with the given references.">
<polygon fill="#999999" stroke="#666666" points="112.75,-128.46 0,-128.46 0,-97.96 112.75,-97.96 112.75,-128.46"/>
<text text-anchor="start" x="8" y="-114.96" font-family="Helvetica,sans-Serif" font-size="10.00">fabomatic::BoardLogic</text>
<text text-anchor="middle" x="56.38" y="-103.71" font-family="Helvetica,sans-Serif" font-size="10.00">::reconfigure</text>
</a>
</g>
</g>
<!-- Node2 -->
<g id="Node000002" class="node">
<title>Node2</title>
<g id="a_Node000002"><a xlink:href="classfabomatic_1_1_buzzer.xhtml#ab94d2e6a23316fe30e909ab0e4481347" target="_top" xlink:title=" ">
<polygon fill="white" stroke="#666666" points="257,-251.46 160,-251.46 160,-220.96 257,-220.96 257,-251.46"/>
<text text-anchor="start" x="168" y="-237.96" font-family="Helvetica,sans-Serif" font-size="10.00">fabomatic::Buzzer::</text>
<text text-anchor="middle" x="208.5" y="-226.71" font-family="Helvetica,sans-Serif" font-size="10.00">configure</text>
</a>
</g>
</g>
<!-- Node1&#45;&gt;Node2 -->
<g id="edge1_Node000001_Node000002" class="edge">
<title>Node1&#45;&gt;Node2</title>
<g id="a_edge1_Node000001_Node000002"><a xlink:title=" ">
<path fill="none" stroke="#63b8ff" d="M68.48,-128.69C84.26,-149.77 115.03,-187.57 148.75,-211.21 150.74,-212.6 152.82,-213.94 154.96,-215.23"/>
<polygon fill="#63b8ff" stroke="#63b8ff" points="152.86,-218.07 163.32,-219.77 156.2,-211.92 152.86,-218.07"/>
</a>
</g>
</g>
<!-- Node3 -->
<g id="Node000003" class="node">
<title>Node3</title>
<g id="a_Node000003"><a xlink:href="classfabomatic_1_1_machine.xhtml#a75d5f7be60826db90c639b138a7153e3" target="_top" xlink:title="Configure the machine, it must be called before most methods.">
<polygon fill="white" stroke="#666666" points="258.5,-202.46 158.5,-202.46 158.5,-171.96 258.5,-171.96 258.5,-202.46"/>
<text text-anchor="start" x="166.5" y="-188.96" font-family="Helvetica,sans-Serif" font-size="10.00">fabomatic::Machine</text>
<text text-anchor="middle" x="208.5" y="-177.71" font-family="Helvetica,sans-Serif" font-size="10.00">::configure</text>
</a>
</g>
</g>
<!-- Node1&#45;&gt;Node3 -->
<g id="edge2_Node000001_Node000003" class="edge">
<title>Node1&#45;&gt;Node3</title>
<g id="a_edge2_Node000001_Node000003"><a xlink:title=" ">
<path fill="none" stroke="#63b8ff" d="M85.03,-128.88C102.99,-138.84 127,-151.77 148.75,-162.21 152.05,-163.79 155.47,-165.38 158.93,-166.95"/>
<polygon fill="#63b8ff" stroke="#63b8ff" points="157.41,-170.1 167.97,-170.95 160.24,-163.7 157.41,-170.1"/>
</a>
</g>
</g>
<!-- Node4 -->
<g id="Node000004" class="node">
<title>Node4</title>
<g id="a_Node000004"><a xlink:href="classfabomatic_1_1_fab_backend.xhtml#acf5644d920896038018f990568e710c3" target="_top" xlink:title="Configures the FabBackend with the given configuration.">
<polygon fill="white" stroke="#666666" points="267.5,-153.46 149.5,-153.46 149.5,-122.96 267.5,-122.96 267.5,-153.46"/>
<text text-anchor="start" x="157.5" y="-139.96" font-family="Helvetica,sans-Serif" font-size="10.00">fabomatic::FabBackend</text>
<text text-anchor="middle" x="208.5" y="-128.71" font-family="Helvetica,sans-Serif" font-size="10.00">::configure</text>
</a>
</g>
</g>
<!-- Node1&#45;&gt;Node4 -->
<g id="edge3_Node000001_Node000004" class="edge">
<title>Node1&#45;&gt;Node4</title>
<g id="a_edge3_Node000001_Node000004"><a xlink:title=" ">
<path fill="none" stroke="#63b8ff" d="M112.85,-122.45C121,-123.8 129.49,-125.22 137.88,-126.61"/>
<polygon fill="#63b8ff" stroke="#63b8ff" points="137.3,-130.07 147.74,-128.26 138.45,-123.16 137.3,-130.07"/>
</a>
</g>
</g>
<!-- Node6 -->
<g id="Node000006" class="node">
<title>Node6</title>
<g id="a_Node000006"><a xlink:href="classfabomatic_1_1_saved_config.xhtml#a3a6f62510c34ed7a4491022e4e43b9c2" target="_top" xlink:title="Returns the default configuration built from conf.hpp and secrets.hpp.">
<polygon fill="white" stroke="#666666" points="267.5,-104.46 149.5,-104.46 149.5,-73.96 267.5,-73.96 267.5,-104.46"/>
<text text-anchor="start" x="157.5" y="-90.96" font-family="Helvetica,sans-Serif" font-size="10.00">fabomatic::SavedConfig</text>
<text text-anchor="middle" x="208.5" y="-79.71" font-family="Helvetica,sans-Serif" font-size="10.00">::DefaultConfig</text>
</a>
</g>
</g>
<!-- Node1&#45;&gt;Node6 -->
<g id="edge5_Node000001_Node000006" class="edge">
<title>Node1&#45;&gt;Node6</title>
<g id="a_edge5_Node000001_Node000006"><a xlink:title=" ">
<path fill="none" stroke="#63b8ff" d="M112.85,-104.34C121,-103.03 129.49,-101.68 137.88,-100.34"/>
<polygon fill="#63b8ff" stroke="#63b8ff" points="138.42,-103.8 147.74,-98.76 137.31,-96.88 138.42,-103.8"/>
</a>
</g>
</g>
<!-- Node8 -->
<g id="Node000008" class="node">
<title>Node8</title>
<g id="a_Node000008"><a xlink:href="classfabomatic_1_1_auth_provider.xhtml#ac703cf6e2b6a2a10c946937e83df418d" target="_top" xlink:title="Loads the cache from EEPROM.">
<polygon fill="white" stroke="#666666" points="268.25,-55.46 148.75,-55.46 148.75,-24.96 268.25,-24.96 268.25,-55.46"/>
<text text-anchor="start" x="156.75" y="-41.96" font-family="Helvetica,sans-Serif" font-size="10.00">fabomatic::AuthProvider</text>
<text text-anchor="middle" x="208.5" y="-30.71" font-family="Helvetica,sans-Serif" font-size="10.00">::loadCache</text>
</a>
</g>
</g>
<!-- Node1&#45;&gt;Node8 -->
<g id="edge7_Node000001_Node000008" class="edge">
<title>Node1&#45;&gt;Node8</title>
<g id="a_edge7_Node000001_Node000008"><a xlink:title=" ">
<path fill="none" stroke="#63b8ff" d="M85.88,-97.47C103.75,-87.79 127.38,-75.35 148.75,-65.21 152.05,-63.64 155.48,-62.06 158.95,-60.5"/>
<polygon fill="#63b8ff" stroke="#63b8ff" points="160.25,-63.75 167.99,-56.51 157.43,-57.34 160.25,-63.75"/>
</a>
</g>
</g>
<!-- Node9 -->
<g id="Node000009" class="node">
<title>Node9</title>
<g id="a_Node000009"><a xlink:href="classfabomatic_1_1_saved_config.xhtml#aca3fe97dfa74c005d47ffef700392d99" target="_top" xlink:title="Loads the configuration from EEPROM if available and matching revision number.">
<polygon fill="white" stroke="#666666" points="422.25,-34.46 304.25,-34.46 304.25,-3.96 422.25,-3.96 422.25,-34.46"/>
<text text-anchor="start" x="312.25" y="-20.96" font-family="Helvetica,sans-Serif" font-size="10.00">fabomatic::SavedConfig</text>
<text text-anchor="middle" x="363.25" y="-9.71" font-family="Helvetica,sans-Serif" font-size="10.00">::LoadFromEEPROM</text>
</a>
</g>
</g>
<!-- Node1&#45;&gt;Node9 -->
<g id="edge9_Node000001_Node000009" class="edge">
<title>Node1&#45;&gt;Node9</title>
<g id="a_edge9_Node000001_Node000009"><a xlink:title=" ">
<path fill="none" stroke="#63b8ff" d="M66.18,-97.76C80.22,-74.88 110.09,-32.9 148.75,-16.21 193.89,3.29 249.57,1.77 292.75,-4.21"/>
<polygon fill="#63b8ff" stroke="#63b8ff" points="292.11,-7.65 302.52,-5.68 293.15,-0.73 292.11,-7.65"/>
</a>
</g>
</g>
<!-- Node5 -->
<g id="Node000005" class="node">
<title>Node5</title>
<g id="a_Node000005"><a xlink:href="classfabomatic_1_1_fab_backend.xhtml#a39353e6b4057e97b216a520fc7bef017" target="_top" xlink:title=" ">
<polygon fill="white" stroke="#666666" points="422.25,-153.46 304.25,-153.46 304.25,-122.96 422.25,-122.96 422.25,-153.46"/>
<text text-anchor="start" x="312.25" y="-139.96" font-family="Helvetica,sans-Serif" font-size="10.00">fabomatic::FabBackend</text>
<text text-anchor="middle" x="363.25" y="-128.71" font-family="Helvetica,sans-Serif" font-size="10.00">::loadBuffer</text>
</a>
</g>
</g>
<!-- Node4&#45;&gt;Node5 -->
<g id="edge4_Node000004_Node000005" class="edge">
<title>Node4&#45;&gt;Node5</title>
<g id="a_edge4_Node000004_Node000005"><a xlink:title=" ">
<path fill="none" stroke="#63b8ff" d="M267.68,-138.21C275.86,-138.21 284.32,-138.21 292.68,-138.21"/>
<polygon fill="#63b8ff" stroke="#63b8ff" points="292.46,-141.71 302.46,-138.21 292.46,-134.71 292.46,-141.71"/>
</a>
</g>
</g>
<!-- Node7 -->
<g id="Node000007" class="node">
<title>Node7</title>
<g id="a_Node000007"><a xlink:href="classfabomatic_1_1_saved_config.xhtml#a4ada414d31749dcd736a3fec3f759605" target="_top" xlink:title="Sets the machine ID (converting to string)">
<polygon fill="white" stroke="#666666" points="422.25,-104.46 304.25,-104.46 304.25,-73.96 422.25,-73.96 422.25,-104.46"/>
<text text-anchor="start" x="312.25" y="-90.96" font-family="Helvetica,sans-Serif" font-size="10.00">fabomatic::SavedConfig</text>
<text text-anchor="middle" x="363.25" y="-79.71" font-family="Helvetica,sans-Serif" font-size="10.00">::setMachineID</text>
</a>
</g>
</g>
<!-- Node6&#45;&gt;Node7 -->
<g id="edge6_Node000006_Node000007" class="edge">
<title>Node6&#45;&gt;Node7</title>
<g id="a_edge6_Node000006_Node000007"><a xlink:title=" ">
<path fill="none" stroke="#63b8ff" d="M267.68,-89.21C275.86,-89.21 284.32,-89.21 292.68,-89.21"/>
<polygon fill="#63b8ff" stroke="#63b8ff" points="292.46,-92.71 302.46,-89.21 292.46,-85.71 292.46,-92.71"/>
</a>
</g>
</g>
<!-- Node8&#45;&gt;Node9 -->
<g id="edge8_Node000008_Node000009" class="edge">
<title>Node8&#45;&gt;Node9</title>
<g id="a_edge8_Node000008_Node000009"><a xlink:title=" ">
<path fill="none" stroke="#63b8ff" d="M268.56,-32.09C276.43,-31.01 284.57,-29.89 292.6,-28.78"/>
<polygon fill="#63b8ff" stroke="#63b8ff" points="292.92,-32.27 302.35,-27.44 291.97,-25.34 292.92,-32.27"/>
</a>
</g>
</g>
</g>
</svg>
