<?xml version="1.0" encoding="UTF-8" standalone="no"?>
<!DOCTYPE svg PUBLIC "-//W3C//DTD SVG 1.1//EN"
 "http://www.w3.org/Graphics/SVG/1.1/DTD/svg11.dtd">
<!-- Generated by graphviz version 9.0.0 (20230911.1827)
 -->
<!-- Title: fabomatic::BoardLogic::checkRfid Pages: 1 -->
<svg width="694pt" height="391pt"
 viewBox="0.00 0.00 694.00 390.50" xmlns="http://www.w3.org/2000/svg" xmlns:xlink="http://www.w3.org/1999/xlink">
<g id="graph0" class="graph" transform="scale(1 1) rotate(0) translate(4 386.5)">
<title>fabomatic::BoardLogic::checkRfid</title>
<!-- Node1 -->
<g id="Node000001" class="node">
<title>Node1</title>
<g id="a_Node000001"><a xlink:title="Checks if a new card is present.">
<polygon fill="#999999" stroke="#666666" points="686,-92.5 573.25,-92.5 573.25,-62 686,-62 686,-92.5"/>
<text text-anchor="start" x="581.25" y="-79" font-family="Helvetica,sans-Serif" font-size="10.00">fabomatic::BoardLogic</text>
<text text-anchor="middle" x="629.62" y="-67.75" font-family="Helvetica,sans-Serif" font-size="10.00">::checkRfid</text>
</a>
</g>
</g>
<!-- Node2 -->
<g id="Node000002" class="node">
<title>Node2</title>
<g id="a_Node000002"><a xlink:href="namespacefabomatic_1_1tests.xhtml#a2600320f41c9fa343c66058ecb12b5ee" target="_top" xlink:title="Simulates RFID card tap.">
<polygon fill="white" stroke="#666666" points="537.25,-244.5 411,-244.5 411,-214 537.25,-214 537.25,-244.5"/>
<text text-anchor="start" x="419" y="-231" font-family="Helvetica,sans-Serif" font-size="10.00">fabomatic::tests::simulate</text>
<text text-anchor="middle" x="474.12" y="-219.75" font-family="Helvetica,sans-Serif" font-size="10.00">_rfid_card</text>
</a>
</g>
</g>
<!-- Node1&#45;&gt;Node2 -->
<g id="edge1_Node000001_Node000002" class="edge">
<title>Node1&#45;&gt;Node2</title>
<g id="a_edge1_Node000001_Node000002"><a xlink:title=" ">
<path fill="none" stroke="#63b8ff" d="M604.86,-100.79C573.06,-132.27 517.58,-187.21 490.66,-213.87"/>
<polygon fill="#63b8ff" stroke="#63b8ff" points="607.06,-103.53 611.7,-94.01 602.13,-98.56 607.06,-103.53"/>
</a>
</g>
</g>
<!-- Node9 -->
<g id="Node000009" class="node">
<title>Node9</title>
<g id="a_Node000009"><a xlink:href="namespacefabomatic_1_1tests.xhtml#aab0f4e1439b281ffef8be51db9a81f9d" target="_top" xlink:title=" ">
<polygon fill="white" stroke="#666666" points="191.75,-143.5 79,-143.5 79,-113 191.75,-113 191.75,-143.5"/>
<text text-anchor="start" x="87" y="-130" font-family="Helvetica,sans-Serif" font-size="10.00">fabomatic::tests::test</text>
<text text-anchor="middle" x="135.38" y="-118.75" font-family="Helvetica,sans-Serif" font-size="10.00">_whitelist_no_network</text>
</a>
</g>
</g>
<!-- Node1&#45;&gt;Node9 -->
<g id="edge22_Node000001_Node000009" class="edge">
<title>Node1&#45;&gt;Node9</title>
<g id="a_edge22_Node000001_Node000009"><a xlink:title=" ">
<path fill="none" stroke="#63b8ff" d="M561.89,-84.16C463.99,-94.31 283.23,-113.03 192.06,-122.48"/>
<polygon fill="#63b8ff" stroke="#63b8ff" points="562.02,-87.67 571.61,-83.16 561.3,-80.71 562.02,-87.67"/>
</a>
</g>
</g>
<!-- Node11 -->
<g id="Node000011" class="node">
<title>Node11</title>
<g id="a_Node000011"><a xlink:href="namespacefabomatic.xhtml#a3e5c190499522bddad3f3cc69274f16c" target="_top" xlink:title="periodic check for new RFID card">
<polygon fill="white" stroke="#666666" points="537.25,-67.88 411,-67.88 411,-48.62 537.25,-48.62 537.25,-67.88"/>
<text text-anchor="middle" x="474.12" y="-54.38" font-family="Helvetica,sans-Serif" font-size="10.00">fabomatic::taskCheckRfid</text>
</a>
</g>
</g>
<!-- Node1&#45;&gt;Node11 -->
<g id="edge20_Node000001_Node000011" class="edge">
<title>Node1&#45;&gt;Node11</title>
<g id="a_edge20_Node000001_Node000011"><a xlink:title=" ">
<path fill="none" stroke="#63b8ff" d="M561.38,-68.93C553.5,-67.95 545.49,-66.96 537.69,-65.99"/>
<polygon fill="#63b8ff" stroke="#63b8ff" points="560.92,-72.4 571.27,-70.15 561.78,-65.45 560.92,-72.4"/>
</a>
</g>
</g>
<!-- Node12 -->
<g id="Node000012" class="node">
<title>Node12</title>
<g id="a_Node000012"><a xlink:href="namespacefabomatic_1_1tests.xhtml#a294b4767ecf1e1d11cc31dafb2541d23" target="_top" xlink:title="periodic check for new RFID card">
<polygon fill="white" stroke="#666666" points="527.12,-30.5 421.12,-30.5 421.12,0 527.12,0 527.12,-30.5"/>
<text text-anchor="start" x="429.12" y="-17" font-family="Helvetica,sans-Serif" font-size="10.00">fabomatic::tests::test</text>
<text text-anchor="middle" x="474.12" y="-5.75" font-family="Helvetica,sans-Serif" font-size="10.00">_taskCheckRfid</text>
</a>
</g>
</g>
<!-- Node1&#45;&gt;Node12 -->
<g id="edge21_Node000001_Node000012" class="edge">
<title>Node1&#45;&gt;Node12</title>
<g id="a_edge21_Node000001_Node000012"><a xlink:title=" ">
<path fill="none" stroke="#63b8ff" d="M580.94,-57.15C566.9,-51.3 551.48,-44.96 537.25,-39.25 530.49,-36.54 523.29,-33.71 516.29,-30.98"/>
<polygon fill="#63b8ff" stroke="#63b8ff" points="579.4,-60.3 589.97,-60.92 582.09,-53.84 579.4,-60.3"/>
</a>
</g>
</g>
<!-- Node3 -->
<g id="Node000003" class="node">
<title>Node3</title>
<g id="a_Node000003"><a xlink:href="namespacefabomatic_1_1tests.xhtml#a6a7645a865dc822746f972ea6f43224d" target="_top" xlink:title="Resets machine to initial state, clearing flags.">
<polygon fill="white" stroke="#666666" points="375,-219.88 230.75,-219.88 230.75,-200.62 375,-200.62 375,-219.88"/>
<text text-anchor="middle" x="302.88" y="-206.38" font-family="Helvetica,sans-Serif" font-size="10.00">fabomatic::tests::machine_init</text>
</a>
</g>
</g>
<!-- Node2&#45;&gt;Node3 -->
<g id="edge2_Node000002_Node000003" class="edge">
<title>Node2&#45;&gt;Node3</title>
<g id="a_edge2_Node000002_Node000003"><a xlink:title=" ">
<path fill="none" stroke="#63b8ff" d="M399.39,-220.97C391.4,-220.08 383.27,-219.16 375.3,-218.27"/>
<polygon fill="#63b8ff" stroke="#63b8ff" points="398.75,-224.42 409.08,-222.06 399.53,-217.47 398.75,-224.42"/>
</a>
</g>
</g>
<!-- Node4 -->
<g id="Node000004" class="node">
<title>Node4</title>
<g id="a_Node000004"><a xlink:href="namespacefabomatic_1_1tests.xhtml#a558e2287db01a4622581246a19dac397" target="_top" xlink:title=" ">
<polygon fill="white" stroke="#666666" points="188.38,-339.5 82.38,-339.5 82.38,-309 188.38,-309 188.38,-339.5"/>
<text text-anchor="start" x="90.38" y="-326" font-family="Helvetica,sans-Serif" font-size="10.00">fabomatic::tests::test</text>
<text text-anchor="middle" x="135.38" y="-314.75" font-family="Helvetica,sans-Serif" font-size="10.00">_machine_allowed</text>
</a>
</g>
</g>
<!-- Node2&#45;&gt;Node4 -->
<g id="edge13_Node000002_Node000004" class="edge">
<title>Node2&#45;&gt;Node4</title>
<g id="a_edge13_Node000002_Node000004"><a xlink:title=" ">
<path fill="none" stroke="#63b8ff" d="M426.93,-249.24C410.7,-255.83 392.22,-262.84 375,-268.25 311.87,-288.08 237.39,-304.48 188.64,-314.3"/>
<polygon fill="#63b8ff" stroke="#63b8ff" points="427.93,-252.61 435.84,-245.57 425.26,-246.14 427.93,-252.61"/>
</a>
</g>
</g>
<!-- Node6 -->
<g id="Node000006" class="node">
<title>Node6</title>
<g id="a_Node000006"><a xlink:href="namespacefabomatic_1_1tests.xhtml#a9a34631c2dc01cbdbbce146895c94e12" target="_top" xlink:title=" ">
<polygon fill="white" stroke="#666666" points="194.75,-290.5 76,-290.5 76,-260 194.75,-260 194.75,-290.5"/>
<text text-anchor="start" x="84" y="-277" font-family="Helvetica,sans-Serif" font-size="10.00">fabomatic::tests::test</text>
<text text-anchor="middle" x="135.38" y="-265.75" font-family="Helvetica,sans-Serif" font-size="10.00">_machine_maintenance</text>
</a>
</g>
</g>
<!-- Node2&#45;&gt;Node6 -->
<g id="edge14_Node000002_Node000006" class="edge">
<title>Node2&#45;&gt;Node6</title>
<g id="a_edge14_Node000002_Node000006"><a xlink:title=" ">
<path fill="none" stroke="#63b8ff" d="M399.43,-240.7C391.19,-241.92 382.92,-243.13 375,-244.25 313.57,-252.93 243.12,-261.97 194.77,-268.04"/>
<polygon fill="#63b8ff" stroke="#63b8ff" points="399.74,-244.19 409.11,-239.25 398.7,-237.27 399.74,-244.19"/>
</a>
</g>
</g>
<!-- Node7 -->
<g id="Node000007" class="node">
<title>Node7</title>
<g id="a_Node000007"><a xlink:href="namespacefabomatic_1_1tests.xhtml#a6f3dff17fd964aba76c35c514957a0a5" target="_top" xlink:title=" ">
<polygon fill="white" stroke="#666666" points="189.88,-241.5 80.88,-241.5 80.88,-211 189.88,-211 189.88,-241.5"/>
<text text-anchor="start" x="88.88" y="-228" font-family="Helvetica,sans-Serif" font-size="10.00">fabomatic::tests::test</text>
<text text-anchor="middle" x="135.38" y="-216.75" font-family="Helvetica,sans-Serif" font-size="10.00">_one_user_at_a_time</text>
</a>
</g>
</g>
<!-- Node2&#45;&gt;Node7 -->
<g id="edge17_Node000002_Node000007" class="edge">
<title>Node2&#45;&gt;Node7</title>
<g id="a_edge17_Node000002_Node000007"><a xlink:title=" ">
<path fill="none" stroke="#63b8ff" d="M399.37,-229.86C351.34,-230.1 287.33,-230.15 230.75,-229.25 217.64,-229.04 203.5,-228.67 190.27,-228.26"/>
<polygon fill="#63b8ff" stroke="#63b8ff" points="399.11,-233.36 409.09,-229.8 399.07,-226.36 399.11,-233.36"/>
</a>
</g>
</g>
<!-- Node8 -->
<g id="Node000008" class="node">
<title>Node8</title>
<g id="a_Node000008"><a xlink:href="namespacefabomatic_1_1tests.xhtml#afa92fef9250d918ee02c79dbf2de2546" target="_top" xlink:title=" ">
<polygon fill="white" stroke="#666666" points="188.38,-192.5 82.38,-192.5 82.38,-162 188.38,-162 188.38,-192.5"/>
<text text-anchor="start" x="90.38" y="-179" font-family="Helvetica,sans-Serif" font-size="10.00">fabomatic::tests::test</text>
<text text-anchor="middle" x="135.38" y="-167.75" font-family="Helvetica,sans-Serif" font-size="10.00">_user_autologoff</text>
</a>
</g>
</g>
<!-- Node2&#45;&gt;Node8 -->
<g id="edge18_Node000002_Node000008" class="edge">
<title>Node2&#45;&gt;Node8</title>
<g id="a_edge18_Node000002_Node000008"><a xlink:title=" ">
<path fill="none" stroke="#63b8ff" d="M429.75,-209.11C413,-202.23 393.45,-195.26 375,-191.25 311.94,-177.54 237.45,-175.32 188.67,-175.69"/>
<polygon fill="#63b8ff" stroke="#63b8ff" points="428.35,-212.32 438.92,-213 431.08,-205.87 428.35,-212.32"/>
</a>
</g>
</g>
<!-- Node2&#45;&gt;Node9 -->
<g id="edge19_Node000002_Node000009" class="edge">
<title>Node2&#45;&gt;Node9</title>
<g id="a_edge19_Node000002_Node000009"><a xlink:title=" ">
<path fill="none" stroke="#63b8ff" d="M441.8,-207.31C423.18,-195.25 398.65,-181 375,-172.25 314.55,-149.89 241.12,-138.54 191.82,-133.03"/>
<polygon fill="#63b8ff" stroke="#63b8ff" points="439.69,-210.11 449.96,-212.72 443.56,-204.28 439.69,-210.11"/>
</a>
</g>
</g>
<!-- Node10 -->
<g id="Node000010" class="node">
<title>Node10</title>
<g id="a_Node000010"><a xlink:href="namespacefabomatic_1_1tests.xhtml#af8fa7ace86309b5f699540d8898660c7" target="_top" xlink:title=" ">
<polygon fill="white" stroke="#666666" points="355.88,-382.5 249.88,-382.5 249.88,-352 355.88,-352 355.88,-382.5"/>
<text text-anchor="start" x="257.88" y="-369" font-family="Helvetica,sans-Serif" font-size="10.00">fabomatic::tests::test</text>
<text text-anchor="middle" x="302.88" y="-357.75" font-family="Helvetica,sans-Serif" font-size="10.00">_messages_buffered</text>
</a>
</g>
</g>
<!-- Node2&#45;&gt;Node10 -->
<g id="edge15_Node000002_Node000010" class="edge">
<title>Node2&#45;&gt;Node10</title>
<g id="a_edge15_Node000002_Node000010"><a xlink:title=" ">
<path fill="none" stroke="#63b8ff" d="M456.13,-253.87C438.32,-278.12 408.33,-314.83 375,-338.25 367.69,-343.39 359.33,-347.82 350.98,-351.57"/>
<polygon fill="#63b8ff" stroke="#63b8ff" points="458.89,-256.02 461.89,-245.86 453.21,-251.94 458.89,-256.02"/>
</a>
</g>
</g>
<!-- Node3&#45;&gt;Node4 -->
<g id="edge3_Node000003_Node000004" class="edge">
<title>Node3&#45;&gt;Node4</title>
<g id="a_edge3_Node000003_Node000004"><a xlink:title=" ">
<path fill="none" stroke="#63b8ff" d="M283.98,-227.92C263.66,-247.29 228.89,-278.37 194.75,-299.25 189.3,-302.59 183.32,-305.69 177.33,-308.51"/>
<polygon fill="#63b8ff" stroke="#63b8ff" points="286.16,-230.69 290.91,-221.22 281.29,-225.65 286.16,-230.69"/>
</a>
</g>
</g>
<!-- Node3&#45;&gt;Node6 -->
<g id="edge5_Node000003_Node000006" class="edge">
<title>Node3&#45;&gt;Node6</title>
<g id="a_edge5_Node000003_Node000006"><a xlink:title=" ">
<path fill="none" stroke="#63b8ff" d="M265.7,-224.46C239.34,-234.81 203.63,-248.84 176.41,-259.53"/>
<polygon fill="#63b8ff" stroke="#63b8ff" points="266.94,-227.73 274.97,-220.82 264.38,-221.22 266.94,-227.73"/>
</a>
</g>
</g>
<!-- Node3&#45;&gt;Node7 -->
<g id="edge7_Node000003_Node000007" class="edge">
<title>Node3&#45;&gt;Node7</title>
<g id="a_edge7_Node000003_Node000007"><a xlink:title=" ">
<path fill="none" stroke="#63b8ff" d="M219.52,-218.21C209.57,-219.17 199.61,-220.14 190.22,-221.04"/>
<polygon fill="#63b8ff" stroke="#63b8ff" points="219.6,-221.72 229.22,-217.27 218.93,-214.75 219.6,-221.72"/>
</a>
</g>
</g>
<!-- Node3&#45;&gt;Node8 -->
<g id="edge9_Node000003_Node000008" class="edge">
<title>Node3&#45;&gt;Node8</title>
<g id="a_edge9_Node000003_Node000008"><a xlink:title=" ">
<path fill="none" stroke="#63b8ff" d="M240.36,-197.98C223.35,-194.59 205.05,-190.94 188.62,-187.67"/>
<polygon fill="#63b8ff" stroke="#63b8ff" points="239.34,-201.35 249.84,-199.87 240.71,-194.49 239.34,-201.35"/>
</a>
</g>
</g>
<!-- Node3&#45;&gt;Node9 -->
<g id="edge11_Node000003_Node000009" class="edge">
<title>Node3&#45;&gt;Node9</title>
<g id="a_edge11_Node000003_Node000009"><a xlink:title=" ">
<path fill="none" stroke="#63b8ff" d="M274.27,-194.73C252.83,-182.89 222.22,-166.41 194.75,-153.25 188.19,-150.11 181.13,-146.92 174.27,-143.93"/>
<polygon fill="#63b8ff" stroke="#63b8ff" points="272.53,-197.77 282.97,-199.57 275.93,-191.65 272.53,-197.77"/>
</a>
</g>
</g>
<!-- Node5 -->
<g id="Node000005" class="node">
<title>Node5</title>
<g id="a_Node000005"><a xlink:href="test__logic_8cpp.xhtml#a4fc01d736fe50cf5b977f755b675f11d" target="_top" xlink:title=" ">
<polygon fill="white" stroke="#666666" points="40,-259.88 0,-259.88 0,-240.62 40,-240.62 40,-259.88"/>
<text text-anchor="middle" x="20" y="-246.38" font-family="Helvetica,sans-Serif" font-size="10.00">setup</text>
</a>
</g>
</g>
<!-- Node4&#45;&gt;Node5 -->
<g id="edge4_Node000004_Node000005" class="edge">
<title>Node4&#45;&gt;Node5</title>
<g id="a_edge4_Node000004_Node000005"><a xlink:title=" ">
<path fill="none" stroke="#63b8ff" d="M82.96,-303.37C80.57,-302.05 78.24,-300.67 76,-299.25 58.3,-288 40.71,-271.05 30.35,-260.33"/>
<polygon fill="#63b8ff" stroke="#63b8ff" points="81.17,-306.39 91.66,-307.84 84.36,-300.16 81.17,-306.39"/>
</a>
</g>
</g>
<!-- Node6&#45;&gt;Node5 -->
<g id="edge6_Node000006_Node000005" class="edge">
<title>Node6&#45;&gt;Node5</title>
<g id="a_edge6_Node000006_Node000005"><a xlink:title=" ">
<path fill="none" stroke="#63b8ff" d="M64.73,-259.89C55.88,-257.94 47.47,-256.09 40.43,-254.53"/>
<polygon fill="#63b8ff" stroke="#63b8ff" points="63.7,-263.25 74.22,-261.98 65.21,-256.41 63.7,-263.25"/>
</a>
</g>
</g>
<!-- Node7&#45;&gt;Node5 -->
<g id="edge8_Node000007_Node000005" class="edge">
<title>Node7&#45;&gt;Node5</title>
<g id="a_edge8_Node000007_Node000005"><a xlink:title=" ">
<path fill="none" stroke="#63b8ff" d="M69.53,-239.98C58.91,-242.22 48.69,-244.39 40.38,-246.15"/>
<polygon fill="#63b8ff" stroke="#63b8ff" points="70.14,-243.43 79.19,-237.93 68.69,-236.58 70.14,-243.43"/>
</a>
</g>
</g>
<!-- Node8&#45;&gt;Node5 -->
<g id="edge10_Node000008_Node000005" class="edge">
<title>Node8&#45;&gt;Node5</title>
<g id="a_edge10_Node000008_Node000005"><a xlink:title=" ">
<path fill="none" stroke="#63b8ff" d="M83.1,-198.09C80.66,-199.43 78.28,-200.81 76,-202.25 58.4,-213.31 40.78,-229.9 30.39,-240.39"/>
<polygon fill="#63b8ff" stroke="#63b8ff" points="84.67,-201.21 92,-193.56 81.5,-194.98 84.67,-201.21"/>
</a>
</g>
</g>
<!-- Node9&#45;&gt;Node5 -->
<g id="edge12_Node000009_Node000005" class="edge">
<title>Node9&#45;&gt;Node5</title>
<g id="a_edge12_Node000009_Node000005"><a xlink:title=" ">
<path fill="none" stroke="#63b8ff" d="M79.85,-150.07C78.52,-151.09 77.23,-152.15 76,-153.25 48.01,-178.29 30.86,-221.08 24.19,-240.34"/>
<polygon fill="#63b8ff" stroke="#63b8ff" points="81.48,-153.19 87.93,-144.78 77.65,-147.33 81.48,-153.19"/>
</a>
</g>
</g>
<!-- Node10&#45;&gt;Node5 -->
<g id="edge16_Node000010_Node000005" class="edge">
<title>Node10&#45;&gt;Node5</title>
<g id="a_edge16_Node000010_Node000005"><a xlink:title=" ">
<path fill="none" stroke="#63b8ff" d="M238.26,-377.05C189.98,-381.11 123.95,-379.1 76,-348.25 43.68,-327.46 28.53,-280.63 23.27,-260.15"/>
<polygon fill="#63b8ff" stroke="#63b8ff" points="238.38,-380.56 248,-376.12 237.71,-373.59 238.38,-380.56"/>
</a>
</g>
</g>
</g>
</svg>
