<?xml version="1.0" encoding="UTF-8" standalone="no"?>
<!DOCTYPE svg PUBLIC "-//W3C//DTD SVG 1.1//EN"
 "http://www.w3.org/Graphics/SVG/1.1/DTD/svg11.dtd">
<!-- Generated by graphviz version 9.0.0 (20230911.1827)
 -->
<!-- Title: fabomatic::FabBackend::checkCard Pages: 1 -->
<!--zoomable 543 -->

<svg id="main" version="1.1" xmlns="http://www.w3.org/2000/svg" xmlns:xlink="http://www.w3.org/1999/xlink" xml:space="preserve" onload="init(evt)">
<style type="text/css"><![CDATA[
.node, .edge {opacity: 0.7;}
.node.selected, .edge.selected {opacity: 1;}
.edge:hover path { stroke: red; }
.edge:hover polygon { stroke: red; fill: red; }
]]></style>

<defs>
  <circle id="rim" cx="0" cy="0" r="7"/>
  <circle id="rim2" cx="0" cy="0" r="3.5"/>
  <g id="zoomPlus">
    <use xlink:href="#rim" fill="#404040"><set attributeName="fill" to="#808080" begin="zoomplus.mouseover" end="zoomplus.mouseout"/></use>
    <path d="M-4,0h8M0,-4v8" fill="none" stroke="white" stroke-width="1.5" pointer-events="none"/>
  </g>
  <g id="zoomMin">
    <use xlink:href="#rim" fill="#404040"><set attributeName="fill" to="#808080" begin="zoomminus.mouseover" end="zoomminus.mouseout"/></use>
    <path d="M-4,0h8" fill="none" stroke="white" stroke-width="1.5" pointer-events="none"/>
  </g>
  <g id="arrowUp" transform="translate(30 24)">
    <use xlink:href="#rim"/>
    <path pointer-events="none" fill="none" stroke="white" stroke-width="1.5" d="M0,-3.0v7 M-2.5,-0.5L0,-3.0L2.5,-0.5"/>
  </g>
  <g id="arrowRight" transform="rotate(90) translate(36 -43)">
    <use xlink:href="#rim"/>
    <path pointer-events="none" fill="none" stroke="white" stroke-width="1.5" d="M0,-3.0v7 M-2.5,-0.5L0,-3.0L2.5,-0.5"/>
  </g>
  <g id="arrowDown" transform="rotate(180) translate(-30 -48)">
    <use xlink:href="#rim"/>
    <path pointer-events="none" fill="none" stroke="white" stroke-width="1.5" d="M0,-3.0v7 M-2.5,-0.5L0,-3.0L2.5,-0.5"/>
  </g>
  <g id="arrowLeft" transform="rotate(270) translate(-36 17)">
    <use xlink:href="#rim"/>
    <path pointer-events="none" fill="none" stroke="white" stroke-width="1.5" d="M0,-3.0v7 M-2.5,-0.5L0,-3.0L2.5,-0.5"/>
  </g>
  <g id="resetDef">
    <use xlink:href="#rim2" fill="#404040"><set attributeName="fill" to="#808080" begin="reset.mouseover" end="reset.mouseout"/></use>
  </g>
</defs>
<script type="application/ecmascript">
var viewWidth = 1301;
var viewHeight = 543;
var sectionId = 'dynsection-3';
</script>
<script type="application/ecmascript" xlink:href="svg.min.js"/>
<svg id="graph" class="graph">
<g id="viewport">
<title>fabomatic::FabBackend::checkCard</title>
<!-- Node1 -->
<g id="Node000001" class="node">
<title>Node1</title>
<g id="a_Node000001"><a xlink:title="Checks if the card ID is known to the server.">
<polygon fill="#999999" stroke="#666666" points="1293,-346.88 1175,-346.88 1175,-316.38 1293,-316.38 1293,-346.88"/>
<text text-anchor="start" x="1183" y="-333.38" font-family="Helvetica,sans-Serif" font-size="10.00">fabomatic::FabBackend</text>
<text text-anchor="middle" x="1234" y="-322.12" font-family="Helvetica,sans-Serif" font-size="10.00">::checkCard</text>
</a>
</g>
</g>
<!-- Node2 -->
<g id="Node000002" class="node">
<title>Node2</title>
<g id="a_Node000002"><a xlink:href="namespacefabomatic_1_1tests.xhtml#a24369d35ba4a370e236b987ff7cb5637" target="_top" xlink:title=" ">
<polygon fill="white" stroke="#666666" points="980.12,-392.88 874.12,-392.88 874.12,-362.38 980.12,-362.38 980.12,-392.88"/>
<text text-anchor="start" x="882.12" y="-379.38" font-family="Helvetica,sans-Serif" font-size="10.00">fabomatic::tests::test</text>
<text text-anchor="middle" x="927.12" y="-368.12" font-family="Helvetica,sans-Serif" font-size="10.00">_degraded_use</text>
</a>
</g>
</g>
<!-- Node1&#45;&gt;Node2 -->
<g id="edge1_Node000001_Node000002" class="edge">
<title>Node1&#45;&gt;Node2</title>
<g id="a_edge1_Node000001_Node000002"><a xlink:title=" ">
<path fill="none" stroke="#63b8ff" d="M1163.38,-342.13C1107.66,-350.54 1030.75,-362.14 980.25,-369.76"/>
<polygon fill="#63b8ff" stroke="#63b8ff" points="1163.72,-345.62 1173.08,-340.67 1162.67,-338.7 1163.72,-345.62"/>
</a>
</g>
</g>
<!-- Node4 -->
<g id="Node000004" class="node">
<title>Node4</title>
<g id="a_Node000004"><a xlink:href="namespacefabomatic_1_1tests.xhtml#a438b9060c27d36e89506199205b342cb" target="_top" xlink:title=" ">
<polygon fill="white" stroke="#666666" points="980.12,-343.88 874.12,-343.88 874.12,-313.38 980.12,-313.38 980.12,-343.88"/>
<text text-anchor="start" x="882.12" y="-330.38" font-family="Helvetica,sans-Serif" font-size="10.00">fabomatic::tests::test</text>
<text text-anchor="middle" x="927.12" y="-319.12" font-family="Helvetica,sans-Serif" font-size="10.00">_fabserver_calls</text>
</a>
</g>
</g>
<!-- Node1&#45;&gt;Node4 -->
<g id="edge3_Node000001_Node000004" class="edge">
<title>Node1&#45;&gt;Node4</title>
<g id="a_edge3_Node000001_Node000004"><a xlink:title=" ">
<path fill="none" stroke="#63b8ff" d="M1163.38,-330.94C1107.66,-330.39 1030.75,-329.63 980.25,-329.14"/>
<polygon fill="#63b8ff" stroke="#63b8ff" points="1163.03,-334.44 1173.06,-331.04 1163.1,-327.44 1163.03,-334.44"/>
</a>
</g>
</g>
<!-- Node5 -->
<g id="Node000005" class="node">
<title>Node5</title>
<g id="a_Node000005"><a xlink:href="classfabomatic_1_1_auth_provider.xhtml#aeae9923535dcf6cfa9eaf9e5f90e5e64" target="_top" xlink:title="Verifies the card ID against the server (if available) or the whitelist.">
<polygon fill="white" stroke="#666666" points="1139,-303.88 1019.5,-303.88 1019.5,-273.38 1139,-273.38 1139,-303.88"/>
<text text-anchor="start" x="1027.5" y="-290.38" font-family="Helvetica,sans-Serif" font-size="10.00">fabomatic::AuthProvider</text>
<text text-anchor="middle" x="1079.25" y="-279.12" font-family="Helvetica,sans-Serif" font-size="10.00">::tryLogin</text>
</a>
</g>
</g>
<!-- Node1&#45;&gt;Node5 -->
<g id="edge5_Node000001_Node000005" class="edge">
<title>Node1&#45;&gt;Node5</title>
<g id="a_edge5_Node000001_Node000005"><a xlink:title=" ">
<path fill="none" stroke="#63b8ff" d="M1166.52,-312.91C1156.35,-310.05 1145.95,-307.12 1136.04,-304.33"/>
<polygon fill="#63b8ff" stroke="#63b8ff" points="1165.39,-316.23 1175.96,-315.57 1167.29,-309.49 1165.39,-316.23"/>
</a>
</g>
</g>
<!-- Node3 -->
<g id="Node000003" class="node">
<title>Node3</title>
<g id="a_Node000003"><a xlink:href="test__mqtt_8cpp.xhtml#a4fc01d736fe50cf5b977f755b675f11d" target="_top" xlink:title=" ">
<polygon fill="white" stroke="#666666" points="155.38,-501.25 115.38,-501.25 115.38,-482 155.38,-482 155.38,-501.25"/>
<text text-anchor="middle" x="135.38" y="-487.75" font-family="Helvetica,sans-Serif" font-size="10.00">setup</text>
</a>
</g>
</g>
<!-- Node2&#45;&gt;Node3 -->
<g id="edge2_Node000002_Node000003" class="edge">
<title>Node2&#45;&gt;Node3</title>
<g id="a_edge2_Node000002_Node000003"><a xlink:title=" ">
<path fill="none" stroke="#63b8ff" d="M915.67,-403.2C901.92,-433.25 874.73,-481.99 834.75,-505.62 756.12,-552.11 721.97,-529.62 630.62,-529.62 630.62,-529.62 630.62,-529.62 473.12,-529.62 351.63,-529.62 207.03,-504.9 155.65,-495.34"/>
<polygon fill="#63b8ff" stroke="#63b8ff" points="918.7,-405.01 919.52,-394.44 912.29,-402.19 918.7,-405.01"/>
</a>
</g>
</g>
<!-- Node4&#45;&gt;Node3 -->
<g id="edge4_Node000004_Node000003" class="edge">
<title>Node4&#45;&gt;Node3</title>
<g id="a_edge4_Node000004_Node000003"><a xlink:title=" ">
<path fill="none" stroke="#63b8ff" d="M880.02,-349.02C876.87,-350.55 873.75,-352.09 870.75,-353.62 761.16,-409.68 753.72,-491.62 630.62,-491.62 630.62,-491.62 630.62,-491.62 473.12,-491.62 352.4,-491.62 207.32,-491.62 155.74,-491.62"/>
<polygon fill="#63b8ff" stroke="#63b8ff" points="881.21,-352.33 888.77,-344.9 878.23,-346 881.21,-352.33"/>
</a>
</g>
</g>
<!-- Node5&#45;&gt;Node2 -->
<g id="edge34_Node000005_Node000002" class="edge">
<title>Node5&#45;&gt;Node2</title>
<g id="a_edge34_Node000005_Node000002"><a xlink:title=" ">
<path fill="none" stroke="#63b8ff" d="M1048.23,-310.83C1030,-323.82 1005.98,-340.08 983.5,-352.62 977.7,-355.86 971.4,-359.02 965.2,-361.94"/>
<polygon fill="#63b8ff" stroke="#63b8ff" points="1050.16,-313.75 1056.23,-305.07 1046.07,-308.07 1050.16,-313.75"/>
</a>
</g>
</g>
<!-- Node5&#45;&gt;Node4 -->
<g id="edge35_Node000005_Node000004" class="edge">
<title>Node5&#45;&gt;Node4</title>
<g id="a_edge35_Node000005_Node000004"><a xlink:title=" ">
<path fill="none" stroke="#63b8ff" d="M1008.41,-307.23C999.03,-309.73 989.53,-312.26 980.52,-314.67"/>
<polygon fill="#63b8ff" stroke="#63b8ff" points="1009.12,-310.67 1017.88,-304.71 1007.32,-303.9 1009.12,-310.67"/>
</a>
</g>
</g>
<!-- Node6 -->
<g id="Node000006" class="node">
<title>Node6</title>
<g id="a_Node000006"><a xlink:href="classfabomatic_1_1_board_logic.xhtml#a51390e6bf10c4de427abd7f175a2e6a8" target="_top" xlink:title="Checks if the card UID is valid, and tries to check the user in to the machine.">
<polygon fill="white" stroke="#666666" points="983.5,-167.88 870.75,-167.88 870.75,-137.38 983.5,-137.38 983.5,-167.88"/>
<text text-anchor="start" x="878.75" y="-154.38" font-family="Helvetica,sans-Serif" font-size="10.00">fabomatic::BoardLogic</text>
<text text-anchor="middle" x="927.12" y="-143.12" font-family="Helvetica,sans-Serif" font-size="10.00">::authorize</text>
</a>
</g>
</g>
<!-- Node5&#45;&gt;Node6 -->
<g id="edge6_Node000005_Node000006" class="edge">
<title>Node5&#45;&gt;Node6</title>
<g id="a_edge6_Node000005_Node000006"><a xlink:title=" ">
<path fill="none" stroke="#63b8ff" d="M1052.56,-265.35C1021.87,-237.55 971.38,-191.81 945.15,-168.04"/>
<polygon fill="#63b8ff" stroke="#63b8ff" points="1050.15,-267.89 1059.91,-272.01 1054.85,-262.7 1050.15,-267.89"/>
</a>
</g>
</g>
<!-- Node21 -->
<g id="Node000021" class="node">
<title>Node21</title>
<g id="a_Node000021"><a xlink:href="namespacefabomatic_1_1tests.xhtml#aeb3e51f6d2841cd2869df4c0629f694d" target="_top" xlink:title=" ">
<polygon fill="white" stroke="#666666" points="980.12,-81.88 874.12,-81.88 874.12,-51.38 980.12,-51.38 980.12,-81.88"/>
<text text-anchor="start" x="882.12" y="-68.38" font-family="Helvetica,sans-Serif" font-size="10.00">fabomatic::tests::test</text>
<text text-anchor="middle" x="927.12" y="-57.12" font-family="Helvetica,sans-Serif" font-size="10.00">_rfid_cache</text>
</a>
</g>
</g>
<!-- Node5&#45;&gt;Node21 -->
<g id="edge36_Node000005_Node000021" class="edge">
<title>Node5&#45;&gt;Node21</title>
<g id="a_edge36_Node000005_Node000021"><a xlink:title=" ">
<path fill="none" stroke="#63b8ff" d="M1065.08,-263.01C1047.98,-230.59 1016.39,-173.56 983.5,-128.62 971.23,-111.85 955.24,-94.33 943.6,-82.21"/>
<polygon fill="#63b8ff" stroke="#63b8ff" points="1061.87,-264.42 1069.61,-271.66 1068.08,-261.18 1061.87,-264.42"/>
</a>
</g>
</g>
<!-- Node7 -->
<g id="Node000007" class="node">
<title>Node7</title>
<g id="a_Node000007"><a xlink:href="classfabomatic_1_1_board_logic.xhtml#a983c8de8b9c8881fc0a4e60dddc7f0c6" target="_top" xlink:title="Called when a RFID tag has been detected.">
<polygon fill="white" stroke="#666666" points="834.75,-167.88 722,-167.88 722,-137.38 834.75,-137.38 834.75,-167.88"/>
<text text-anchor="start" x="730" y="-154.38" font-family="Helvetica,sans-Serif" font-size="10.00">fabomatic::BoardLogic</text>
<text text-anchor="middle" x="778.38" y="-143.12" font-family="Helvetica,sans-Serif" font-size="10.00">::onNewCard</text>
</a>
</g>
</g>
<!-- Node6&#45;&gt;Node7 -->
<g id="edge7_Node000006_Node000007" class="edge">
<title>Node6&#45;&gt;Node7</title>
<g id="a_edge7_Node000006_Node000007"><a xlink:title=" ">
<path fill="none" stroke="#63b8ff" d="M859.26,-152.62C851.12,-152.62 842.88,-152.62 834.93,-152.62"/>
<polygon fill="#63b8ff" stroke="#63b8ff" points="859.13,-156.13 869.13,-152.63 859.13,-149.13 859.13,-156.13"/>
</a>
</g>
</g>
<!-- Node16 -->
<g id="Node000016" class="node">
<title>Node16</title>
<g id="a_Node000016"><a xlink:href="namespacefabomatic_1_1tests.xhtml#aab0f4e1439b281ffef8be51db9a81f9d" target="_top" xlink:title=" ">
<polygon fill="white" stroke="#666666" points="191.75,-175.88 79,-175.88 79,-145.38 191.75,-145.38 191.75,-175.88"/>
<text text-anchor="start" x="87" y="-162.38" font-family="Helvetica,sans-Serif" font-size="10.00">fabomatic::tests::test</text>
<text text-anchor="middle" x="135.38" y="-151.12" font-family="Helvetica,sans-Serif" font-size="10.00">_whitelist_no_network</text>
</a>
</g>
</g>
<!-- Node6&#45;&gt;Node16 -->
<g id="edge33_Node000006_Node000016" class="edge">
<title>Node6&#45;&gt;Node16</title>
<g id="a_edge33_Node000006_Node000016"><a xlink:title=" ">
<path fill="none" stroke="#63b8ff" d="M890.97,-131.27C837.01,-100.57 729.6,-47.62 630.62,-47.62 630.62,-47.62 630.62,-47.62 473.12,-47.62 352.26,-47.62 219.07,-113.86 163.28,-144.91"/>
<polygon fill="#63b8ff" stroke="#63b8ff" points="889,-134.17 899.41,-136.15 892.51,-128.11 889,-134.17"/>
</a>
</g>
</g>
<!-- Node8 -->
<g id="Node000008" class="node">
<title>Node8</title>
<g id="a_Node000008"><a xlink:href="classfabomatic_1_1_board_logic.xhtml#a25bdc3a49d850aa49f92faf951b68efb" target="_top" xlink:title="Checks if a new card is present.">
<polygon fill="white" stroke="#666666" points="686,-167.88 573.25,-167.88 573.25,-137.38 686,-137.38 686,-167.88"/>
<text text-anchor="start" x="581.25" y="-154.38" font-family="Helvetica,sans-Serif" font-size="10.00">fabomatic::BoardLogic</text>
<text text-anchor="middle" x="629.62" y="-143.12" font-family="Helvetica,sans-Serif" font-size="10.00">::checkRfid</text>
</a>
</g>
</g>
<!-- Node7&#45;&gt;Node8 -->
<g id="edge8_Node000007_Node000008" class="edge">
<title>Node7&#45;&gt;Node8</title>
<g id="a_edge8_Node000007_Node000008"><a xlink:title=" ">
<path fill="none" stroke="#63b8ff" d="M710.51,-152.62C702.37,-152.62 694.13,-152.62 686.18,-152.62"/>
<polygon fill="#63b8ff" stroke="#63b8ff" points="710.38,-156.13 720.38,-152.63 710.38,-149.13 710.38,-156.13"/>
</a>
</g>
</g>
<!-- Node9 -->
<g id="Node000009" class="node">
<title>Node9</title>
<g id="a_Node000009"><a xlink:href="namespacefabomatic_1_1tests.xhtml#a2600320f41c9fa343c66058ecb12b5ee" target="_top" xlink:title="Simulates RFID card tap.">
<polygon fill="white" stroke="#666666" points="537.25,-295.88 411,-295.88 411,-265.38 537.25,-265.38 537.25,-295.88"/>
<text text-anchor="start" x="419" y="-282.38" font-family="Helvetica,sans-Serif" font-size="10.00">fabomatic::tests::simulate</text>
<text text-anchor="middle" x="474.12" y="-271.12" font-family="Helvetica,sans-Serif" font-size="10.00">_rfid_card</text>
</a>
</g>
</g>
<!-- Node8&#45;&gt;Node9 -->
<g id="edge9_Node000008_Node000009" class="edge">
<title>Node8&#45;&gt;Node9</title>
<g id="a_edge9_Node000008_Node000009"><a xlink:title=" ">
<path fill="none" stroke="#63b8ff" d="M601.19,-175.5C570.14,-201.4 520.4,-242.87 493.62,-265.2"/>
<polygon fill="#63b8ff" stroke="#63b8ff" points="603.2,-178.38 608.64,-169.29 598.72,-173.01 603.2,-178.38"/>
</a>
</g>
</g>
<!-- Node8&#45;&gt;Node16 -->
<g id="edge32_Node000008_Node000016" class="edge">
<title>Node8&#45;&gt;Node16</title>
<g id="a_edge32_Node000008_Node000016"><a xlink:title=" ">
<path fill="none" stroke="#63b8ff" d="M561.89,-153.71C463.99,-155.3 283.23,-158.24 192.06,-159.72"/>
<polygon fill="#63b8ff" stroke="#63b8ff" points="561.66,-157.21 571.6,-153.55 561.55,-150.21 561.66,-157.21"/>
</a>
</g>
</g>
<!-- Node19 -->
<g id="Node000019" class="node">
<title>Node19</title>
<g id="a_Node000019"><a xlink:href="namespacefabomatic.xhtml#a3e5c190499522bddad3f3cc69274f16c" target="_top" xlink:title="periodic check for new RFID card">
<polygon fill="white" stroke="#666666" points="537.25,-143.25 411,-143.25 411,-124 537.25,-124 537.25,-143.25"/>
<text text-anchor="middle" x="474.12" y="-129.75" font-family="Helvetica,sans-Serif" font-size="10.00">fabomatic::taskCheckRfid</text>
</a>
</g>
</g>
<!-- Node8&#45;&gt;Node19 -->
<g id="edge30_Node000008_Node000019" class="edge">
<title>Node8&#45;&gt;Node19</title>
<g id="a_edge30_Node000008_Node000019"><a xlink:title=" ">
<path fill="none" stroke="#63b8ff" d="M561.38,-144.3C553.5,-143.33 545.49,-142.34 537.69,-141.37"/>
<polygon fill="#63b8ff" stroke="#63b8ff" points="560.92,-147.77 571.27,-145.53 561.78,-140.82 560.92,-147.77"/>
</a>
</g>
</g>
<!-- Node20 -->
<g id="Node000020" class="node">
<title>Node20</title>
<g id="a_Node000020"><a xlink:href="namespacefabomatic_1_1tests.xhtml#a294b4767ecf1e1d11cc31dafb2541d23" target="_top" xlink:title="periodic check for new RFID card">
<polygon fill="white" stroke="#666666" points="527.12,-105.88 421.12,-105.88 421.12,-75.38 527.12,-75.38 527.12,-105.88"/>
<text text-anchor="start" x="429.12" y="-92.38" font-family="Helvetica,sans-Serif" font-size="10.00">fabomatic::tests::test</text>
<text text-anchor="middle" x="474.12" y="-81.12" font-family="Helvetica,sans-Serif" font-size="10.00">_taskCheckRfid</text>
</a>
</g>
</g>
<!-- Node8&#45;&gt;Node20 -->
<g id="edge31_Node000008_Node000020" class="edge">
<title>Node8&#45;&gt;Node20</title>
<g id="a_edge31_Node000008_Node000020"><a xlink:title=" ">
<path fill="none" stroke="#63b8ff" d="M580.94,-132.53C566.9,-126.68 551.48,-120.33 537.25,-114.62 530.49,-111.91 523.29,-109.08 516.29,-106.36"/>
<polygon fill="#63b8ff" stroke="#63b8ff" points="579.4,-135.67 589.97,-136.3 582.09,-129.21 579.4,-135.67"/>
</a>
</g>
</g>
<!-- Node10 -->
<g id="Node000010" class="node">
<title>Node10</title>
<g id="a_Node000010"><a xlink:href="namespacefabomatic_1_1tests.xhtml#a6a7645a865dc822746f972ea6f43224d" target="_top" xlink:title="Resets machine to initial state, clearing flags.">
<polygon fill="white" stroke="#666666" points="375,-290.25 230.75,-290.25 230.75,-271 375,-271 375,-290.25"/>
<text text-anchor="middle" x="302.88" y="-276.75" font-family="Helvetica,sans-Serif" font-size="10.00">fabomatic::tests::machine_init</text>
</a>
</g>
</g>
<!-- Node9&#45;&gt;Node10 -->
<g id="edge10_Node000009_Node000010" class="edge">
<title>Node9&#45;&gt;Node10</title>
<g id="a_edge10_Node000009_Node000010"><a xlink:title=" ">
<path fill="none" stroke="#63b8ff" d="M399.12,-280.62C391.21,-280.62 383.18,-280.62 375.3,-280.62"/>
<polygon fill="#63b8ff" stroke="#63b8ff" points="399.07,-284.13 409.07,-280.63 399.07,-277.13 399.07,-284.13"/>
</a>
</g>
</g>
<!-- Node11 -->
<g id="Node000011" class="node">
<title>Node11</title>
<g id="a_Node000011"><a xlink:href="namespacefabomatic_1_1tests.xhtml#a558e2287db01a4622581246a19dac397" target="_top" xlink:title=" ">
<polygon fill="white" stroke="#666666" points="188.38,-224.88 82.38,-224.88 82.38,-194.38 188.38,-194.38 188.38,-224.88"/>
<text text-anchor="start" x="90.38" y="-211.38" font-family="Helvetica,sans-Serif" font-size="10.00">fabomatic::tests::test</text>
<text text-anchor="middle" x="135.38" y="-200.12" font-family="Helvetica,sans-Serif" font-size="10.00">_machine_allowed</text>
</a>
</g>
</g>
<!-- Node9&#45;&gt;Node11 -->
<g id="edge23_Node000009_Node000011" class="edge">
<title>Node9&#45;&gt;Node11</title>
<g id="a_edge23_Node000009_Node000011"><a xlink:title=" ">
<path fill="none" stroke="#63b8ff" d="M410.95,-261.87C399.07,-258.58 386.69,-255.34 375,-252.62 311.44,-237.87 237.37,-225.22 188.82,-217.53"/>
<polygon fill="#63b8ff" stroke="#63b8ff" points="409.66,-265.15 420.23,-264.49 411.56,-258.41 409.66,-265.15"/>
</a>
</g>
</g>
<!-- Node13 -->
<g id="Node000013" class="node">
<title>Node13</title>
<g id="a_Node000013"><a xlink:href="namespacefabomatic_1_1tests.xhtml#a9a34631c2dc01cbdbbce146895c94e12" target="_top" xlink:title=" ">
<polygon fill="white" stroke="#666666" points="194.75,-371.88 76,-371.88 76,-341.38 194.75,-341.38 194.75,-371.88"/>
<text text-anchor="start" x="84" y="-358.38" font-family="Helvetica,sans-Serif" font-size="10.00">fabomatic::tests::test</text>
<text text-anchor="middle" x="135.38" y="-347.12" font-family="Helvetica,sans-Serif" font-size="10.00">_machine_maintenance</text>
</a>
</g>
</g>
<!-- Node9&#45;&gt;Node13 -->
<g id="edge24_Node000009_Node000013" class="edge">
<title>Node9&#45;&gt;Node13</title>
<g id="a_edge24_Node000009_Node000013"><a xlink:title=" ">
<path fill="none" stroke="#63b8ff" d="M427.91,-300.44C411.5,-307.01 392.65,-313.86 375,-318.62 314.66,-334.92 243.72,-345.12 194.96,-350.8"/>
<polygon fill="#63b8ff" stroke="#63b8ff" points="428.97,-303.79 436.9,-296.76 426.32,-297.31 428.97,-303.79"/>
</a>
</g>
</g>
<!-- Node14 -->
<g id="Node000014" class="node">
<title>Node14</title>
<g id="a_Node000014"><a xlink:href="namespacefabomatic_1_1tests.xhtml#a6f3dff17fd964aba76c35c514957a0a5" target="_top" xlink:title=" ">
<polygon fill="white" stroke="#666666" points="189.88,-322.88 80.88,-322.88 80.88,-292.38 189.88,-292.38 189.88,-322.88"/>
<text text-anchor="start" x="88.88" y="-309.38" font-family="Helvetica,sans-Serif" font-size="10.00">fabomatic::tests::test</text>
<text text-anchor="middle" x="135.38" y="-298.12" font-family="Helvetica,sans-Serif" font-size="10.00">_one_user_at_a_time</text>
</a>
</g>
</g>
<!-- Node9&#45;&gt;Node14 -->
<g id="edge27_Node000009_Node000014" class="edge">
<title>Node9&#45;&gt;Node14</title>
<g id="a_edge27_Node000009_Node000014"><a xlink:title=" ">
<path fill="none" stroke="#63b8ff" d="M399.41,-296.19C391.2,-297.54 382.94,-298.73 375,-299.62 311.77,-306.76 238.58,-308.22 190.1,-308.24"/>
<polygon fill="#63b8ff" stroke="#63b8ff" points="399.79,-299.68 409.04,-294.53 398.59,-292.78 399.79,-299.68"/>
</a>
</g>
</g>
<!-- Node15 -->
<g id="Node000015" class="node">
<title>Node15</title>
<g id="a_Node000015"><a xlink:href="namespacefabomatic_1_1tests.xhtml#afa92fef9250d918ee02c79dbf2de2546" target="_top" xlink:title=" ">
<polygon fill="white" stroke="#666666" points="188.38,-273.88 82.38,-273.88 82.38,-243.38 188.38,-243.38 188.38,-273.88"/>
<text text-anchor="start" x="90.38" y="-260.38" font-family="Helvetica,sans-Serif" font-size="10.00">fabomatic::tests::test</text>
<text text-anchor="middle" x="135.38" y="-249.12" font-family="Helvetica,sans-Serif" font-size="10.00">_user_autologoff</text>
</a>
</g>
</g>
<!-- Node9&#45;&gt;Node15 -->
<g id="edge28_Node000009_Node000015" class="edge">
<title>Node9&#45;&gt;Node15</title>
<g id="a_edge28_Node000009_Node000015"><a xlink:title=" ">
<path fill="none" stroke="#63b8ff" d="M399.43,-264.89C391.22,-263.57 382.95,-262.44 375,-261.62 311.11,-255.09 237.11,-255.37 188.66,-256.61"/>
<polygon fill="#63b8ff" stroke="#63b8ff" points="398.62,-268.3 409.07,-266.53 399.79,-261.4 398.62,-268.3"/>
</a>
</g>
</g>
<!-- Node9&#45;&gt;Node16 -->
<g id="edge29_Node000009_Node000016" class="edge">
<title>Node9&#45;&gt;Node16</title>
<g id="a_edge29_Node000009_Node000016"><a xlink:title=" ">
<path fill="none" stroke="#63b8ff" d="M442.04,-258.73C423.33,-246.38 398.63,-231.5 375,-221.62 314.64,-196.4 241.19,-179.54 191.86,-170.05"/>
<polygon fill="#63b8ff" stroke="#63b8ff" points="440,-261.57 450.25,-264.25 443.9,-255.76 440,-261.57"/>
</a>
</g>
</g>
<!-- Node17 -->
<g id="Node000017" class="node">
<title>Node17</title>
<g id="a_Node000017"><a xlink:href="namespacefabomatic_1_1tests.xhtml#a0b99fa5582e6b0ecb416f4ed348e5606" target="_top" xlink:title=" ">
<polygon fill="white" stroke="#666666" points="358.5,-463.88 247.25,-463.88 247.25,-433.38 358.5,-433.38 358.5,-463.88"/>
<text text-anchor="start" x="255.25" y="-450.38" font-family="Helvetica,sans-Serif" font-size="10.00">fabomatic::tests::test</text>
<text text-anchor="middle" x="302.88" y="-439.12" font-family="Helvetica,sans-Serif" font-size="10.00">_backend_commands</text>
</a>
</g>
</g>
<!-- Node9&#45;&gt;Node17 -->
<g id="edge21_Node000009_Node000017" class="edge">
<title>Node9&#45;&gt;Node17</title>
<g id="a_edge21_Node000009_Node000017"><a xlink:title=" ">
<path fill="none" stroke="#63b8ff" d="M461.81,-306.18C446.5,-338 416.27,-392.01 375,-423.62 370.12,-427.37 364.63,-430.58 358.92,-433.32"/>
<polygon fill="#63b8ff" stroke="#63b8ff" points="464.9,-307.84 465.96,-297.29 458.56,-304.88 464.9,-307.84"/>
</a>
</g>
</g>
<!-- Node18 -->
<g id="Node000018" class="node">
<title>Node18</title>
<g id="a_Node000018"><a xlink:href="namespacefabomatic_1_1tests.xhtml#af8fa7ace86309b5f699540d8898660c7" target="_top" xlink:title=" ">
<polygon fill="white" stroke="#666666" points="355.88,-414.88 249.88,-414.88 249.88,-384.38 355.88,-384.38 355.88,-414.88"/>
<text text-anchor="start" x="257.88" y="-401.38" font-family="Helvetica,sans-Serif" font-size="10.00">fabomatic::tests::test</text>
<text text-anchor="middle" x="302.88" y="-390.12" font-family="Helvetica,sans-Serif" font-size="10.00">_messages_buffered</text>
</a>
</g>
</g>
<!-- Node9&#45;&gt;Node18 -->
<g id="edge25_Node000009_Node000018" class="edge">
<title>Node9&#45;&gt;Node18</title>
<g id="a_edge25_Node000009_Node000018"><a xlink:title=" ">
<path fill="none" stroke="#63b8ff" d="M451.91,-304.32C433.21,-324.1 404.43,-351.98 375,-370.62 367,-375.69 357.97,-380.18 349.09,-384.02"/>
<polygon fill="#63b8ff" stroke="#63b8ff" points="454.25,-306.94 458.49,-297.23 449.12,-302.18 454.25,-306.94"/>
</a>
</g>
</g>
<!-- Node10&#45;&gt;Node11 -->
<g id="edge11_Node000010_Node000011" class="edge">
<title>Node10&#45;&gt;Node11</title>
<g id="a_edge11_Node000010_Node000011"><a xlink:title=" ">
<path fill="none" stroke="#63b8ff" d="M268.1,-266.11C247.02,-257.05 219.3,-245.15 194.75,-234.62 187.76,-231.63 180.3,-228.43 173.12,-225.36"/>
<polygon fill="#63b8ff" stroke="#63b8ff" points="266.51,-269.24 277.08,-269.97 269.28,-262.81 266.51,-269.24"/>
</a>
</g>
</g>
<!-- Node10&#45;&gt;Node13 -->
<g id="edge13_Node000010_Node000013" class="edge">
<title>Node10&#45;&gt;Node13</title>
<g id="a_edge13_Node000010_Node000013"><a xlink:title=" ">
<path fill="none" stroke="#63b8ff" d="M271.36,-295.55C250.01,-305.89 220.76,-319.87 194.75,-331.62 187.92,-334.71 180.6,-337.92 173.53,-340.98"/>
<polygon fill="#63b8ff" stroke="#63b8ff" points="272.63,-298.83 280.09,-291.31 269.57,-292.53 272.63,-298.83"/>
</a>
</g>
</g>
<!-- Node10&#45;&gt;Node14 -->
<g id="edge15_Node000010_Node000014" class="edge">
<title>Node10&#45;&gt;Node14</title>
<g id="a_edge15_Node000010_Node000014"><a xlink:title=" ">
<path fill="none" stroke="#63b8ff" d="M228.92,-292.53C215.89,-294.65 202.53,-296.83 190.16,-298.85"/>
<polygon fill="#63b8ff" stroke="#63b8ff" points="229.45,-295.99 238.76,-290.92 228.32,-289.08 229.45,-295.99"/>
</a>
</g>
</g>
<!-- Node10&#45;&gt;Node15 -->
<g id="edge17_Node000010_Node000015" class="edge">
<title>Node10&#45;&gt;Node15</title>
<g id="a_edge17_Node000010_Node000015"><a xlink:title=" ">
<path fill="none" stroke="#63b8ff" d="M219.35,-269.66C208.84,-268.26 198.32,-266.86 188.47,-265.55"/>
<polygon fill="#63b8ff" stroke="#63b8ff" points="218.85,-273.12 229.23,-270.97 219.78,-266.18 218.85,-273.12"/>
</a>
</g>
</g>
<!-- Node10&#45;&gt;Node16 -->
<g id="edge19_Node000010_Node000016" class="edge">
<title>Node10&#45;&gt;Node16</title>
<g id="a_edge19_Node000010_Node000016"><a xlink:title=" ">
<path fill="none" stroke="#63b8ff" d="M284.84,-262.32C264.82,-241.61 229.86,-207.89 194.75,-185.62 189.44,-182.26 183.6,-179.15 177.74,-176.36"/>
<polygon fill="#63b8ff" stroke="#63b8ff" points="282.22,-264.64 291.65,-269.48 287.29,-259.82 282.22,-264.64"/>
</a>
</g>
</g>
<!-- Node12 -->
<g id="Node000012" class="node">
<title>Node12</title>
<g id="a_Node000012"><a xlink:href="test__logic_8cpp.xhtml#a4fc01d736fe50cf5b977f755b675f11d" target="_top" xlink:title=" ">
<polygon fill="white" stroke="#666666" points="40,-292.25 0,-292.25 0,-273 40,-273 40,-292.25"/>
<text text-anchor="middle" x="20" y="-278.75" font-family="Helvetica,sans-Serif" font-size="10.00">setup</text>
</a>
</g>
</g>
<!-- Node11&#45;&gt;Node12 -->
<g id="edge12_Node000011_Node000012" class="edge">
<title>Node11&#45;&gt;Node12</title>
<g id="a_edge12_Node000011_Node000012"><a xlink:title=" ">
<path fill="none" stroke="#63b8ff" d="M83.1,-230.46C80.66,-231.8 78.28,-233.19 76,-234.62 58.4,-245.68 40.78,-262.27 30.39,-272.77"/>
<polygon fill="#63b8ff" stroke="#63b8ff" points="84.67,-233.59 92,-225.94 81.5,-227.35 84.67,-233.59"/>
</a>
</g>
</g>
<!-- Node13&#45;&gt;Node12 -->
<g id="edge14_Node000013_Node000012" class="edge">
<title>Node13&#45;&gt;Node12</title>
<g id="a_edge14_Node000013_Node000012"><a xlink:title=" ">
<path fill="none" stroke="#63b8ff" d="M82.96,-335.75C80.57,-334.42 78.24,-333.05 76,-331.62 58.3,-320.37 40.71,-303.43 30.35,-292.7"/>
<polygon fill="#63b8ff" stroke="#63b8ff" points="81.17,-338.76 91.66,-340.21 84.36,-332.53 81.17,-338.76"/>
</a>
</g>
</g>
<!-- Node14&#45;&gt;Node12 -->
<g id="edge16_Node000014_Node000012" class="edge">
<title>Node14&#45;&gt;Node12</title>
<g id="a_edge16_Node000014_Node000012"><a xlink:title=" ">
<path fill="none" stroke="#63b8ff" d="M69.53,-293.33C58.91,-290.99 48.69,-288.73 40.38,-286.9"/>
<polygon fill="#63b8ff" stroke="#63b8ff" points="68.68,-296.72 79.2,-295.46 70.19,-289.89 68.68,-296.72"/>
</a>
</g>
</g>
<!-- Node15&#45;&gt;Node12 -->
<g id="edge18_Node000015_Node000012" class="edge">
<title>Node15&#45;&gt;Node12</title>
<g id="a_edge18_Node000015_Node000012"><a xlink:title=" ">
<path fill="none" stroke="#63b8ff" d="M70.85,-272.07C59.76,-274.42 49.01,-276.69 40.36,-278.53"/>
<polygon fill="#63b8ff" stroke="#63b8ff" points="71.46,-275.52 80.52,-270.03 70.01,-268.67 71.46,-275.52"/>
</a>
</g>
</g>
<!-- Node16&#45;&gt;Node12 -->
<g id="edge20_Node000016_Node000012" class="edge">
<title>Node16&#45;&gt;Node12</title>
<g id="a_edge20_Node000016_Node000012"><a xlink:title=" ">
<path fill="none" stroke="#63b8ff" d="M79.85,-182.45C78.52,-183.46 77.23,-184.52 76,-185.62 48.01,-210.66 30.86,-253.46 24.19,-272.72"/>
<polygon fill="#63b8ff" stroke="#63b8ff" points="81.48,-185.56 87.93,-177.16 77.65,-179.71 81.48,-185.56"/>
</a>
</g>
</g>
<!-- Node17&#45;&gt;Node3 -->
<g id="edge22_Node000017_Node000003" class="edge">
<title>Node17&#45;&gt;Node3</title>
<g id="a_edge22_Node000017_Node000003"><a xlink:title=" ">
<path fill="none" stroke="#63b8ff" d="M235.89,-465.77C207.08,-473.25 175.44,-481.48 155.74,-486.59"/>
<polygon fill="#63b8ff" stroke="#63b8ff" points="236.5,-469.23 245.3,-463.32 234.74,-462.45 236.5,-469.23"/>
</a>
</g>
</g>
<!-- Node18&#45;&gt;Node12 -->
<g id="edge26_Node000018_Node000012" class="edge">
<title>Node18&#45;&gt;Node12</title>
<g id="a_edge26_Node000018_Node000012"><a xlink:title=" ">
<path fill="none" stroke="#63b8ff" d="M238.26,-409.43C189.98,-413.49 123.95,-411.47 76,-380.62 43.68,-359.83 28.53,-313.01 23.27,-292.53"/>
<polygon fill="#63b8ff" stroke="#63b8ff" points="238.38,-412.93 248,-408.49 237.71,-405.96 238.38,-412.93"/>
</a>
</g>
</g>
<!-- Node22 -->
<g id="Node000022" class="node">
<title>Node22</title>
<g id="a_Node000022"><a xlink:href="test__savedconfig_8cpp.xhtml#a4fc01d736fe50cf5b977f755b675f11d" target="_top" xlink:title=" ">
<polygon fill="white" stroke="#666666" points="798.38,-19.25 758.38,-19.25 758.38,0 798.38,0 798.38,-19.25"/>
<text text-anchor="middle" x="778.38" y="-5.75" font-family="Helvetica,sans-Serif" font-size="10.00">setup</text>
</a>
</g>
</g>
<!-- Node21&#45;&gt;Node22 -->
<g id="edge37_Node000021_Node000022" class="edge">
<title>Node21&#45;&gt;Node22</title>
<g id="a_edge37_Node000021_Node000022"><a xlink:title=" ">
<path fill="none" stroke="#63b8ff" d="M875.02,-46.78C848.65,-36.53 818.05,-24.65 798.7,-17.13"/>
<polygon fill="#63b8ff" stroke="#63b8ff" points="873.64,-49.99 884.23,-50.35 876.17,-43.47 873.64,-49.99"/>
</a>
</g>
</g>
</g>
</svg>

<g id="navigator" transform="translate(0 0)" fill="#404254">
  <rect fill="#f2f5e9" fill-opacity="0.5" stroke="#606060" stroke-width=".5" x="0" y="0" width="60" height="60"/>
  <use id="zoomplus" xlink:href="#zoomPlus" x="17" y="9" onmousedown="handleZoom(evt,'in')"/>
  <use id="zoomminus" xlink:href="#zoomMin" x="42" y="9" onmousedown="handleZoom(evt,'out')"/>
  <use id="reset" xlink:href="#resetDef" x="30" y="36" onmousedown="handleReset()"/>
   <use id="arrowup" xlink:href="#arrowUp" x="0" y="0" onmousedown="handlePan(0,-1)"/>
  <use id="arrowright" xlink:href="#arrowRight" x="0" y="0" onmousedown="handlePan(1,0)"/>
  <use id="arrowdown" xlink:href="#arrowDown" x="0" y="0" onmousedown="handlePan(0,1)"/>
  <use id="arrowleft" xlink:href="#arrowLeft" x="0" y="0" onmousedown="handlePan(-1,0)"/>
</g>
<svg viewBox="0 0 15 15" width="100%" height="30px" preserveAspectRatio="xMaxYMin meet">
 <g id="arrow_out" transform="scale(0.3 0.3)">
  <a xlink:href="classfabomatic_1_1_fab_backend_a0e4d6d289b03582bf6ea9e78e15dd79e_icgraph_org.svg" target="_base">
   <rect id="button" ry="5" rx="5" y="6" x="6" height="38" width="38"
        fill="#f2f5e9" fill-opacity="0.5" stroke="#606060" stroke-width="1.0"/>
   <path id="arrow"
     d="M 11.500037,31.436501 C 11.940474,20.09759 22.043105,11.32322 32.158766,21.979434 L 37.068811,17.246167 C 37.068811,17.246167 37.088388,32 37.088388,32 L 22.160133,31.978069 C 22.160133,31.978069 26.997745,27.140456 26.997745,27.140456 C 18.528582,18.264221 13.291696,25.230495 11.500037,31.436501 z"
     style="fill:#404040;"/>
  </a>
 </g>
</svg>

<style type='text/css'>
<![CDATA[
[data-mouse-over-selected='false'] { opacity: 0.7; }
[data-mouse-over-selected='true']  { opacity: 1.0; }
]]>
</style>
<script type="application/ecmascript"><![CDATA[
document.addEventListener('DOMContentLoaded', (event) => {
  highlightEdges();
  highlightAdjacentNodes();
});
]]></script>
</svg>
