<?xml version="1.0" encoding="UTF-8" standalone="no"?>
<!DOCTYPE svg PUBLIC "-//W3C//DTD SVG 1.1//EN"
 "http://www.w3.org/Graphics/SVG/1.1/DTD/svg11.dtd">
<!-- Generated by graphviz version 9.0.0 (20230911.1827)
 -->
<!-- Title: fabomatic::BaseRFIDWrapper Pages: 1 -->
<svg width="146pt" height="453pt"
 viewBox="0.00 0.00 146.00 453.00" xmlns="http://www.w3.org/2000/svg" xmlns:xlink="http://www.w3.org/1999/xlink">
<g id="graph0" class="graph" transform="scale(1 1) rotate(0) translate(4 449)">
<title>fabomatic::BaseRFIDWrapper</title>
<!-- Node1 -->
<g id="Node000001" class="node">
<title>Node1</title>
<g id="a_Node000001"><a xlink:title=" ">
<polygon fill="#999999" stroke="none" points="138,-445 0,-445 0,-291 138,-291 138,-445"/>
<text text-anchor="start" x="4.88" y="-431.5" font-family="Helvetica,sans-Serif" font-size="10.00">fabomatic::BaseRFIDWrapper</text>
<text text-anchor="start" x="67.5" y="-416.5" font-family="Helvetica,sans-Serif" font-size="10.00"> </text>
<text text-anchor="start" x="11" y="-401.5" font-family="Helvetica,sans-Serif" font-size="10.00">+</text>
<text text-anchor="start" x="28" y="-401.5" font-family="Helvetica,sans-Serif" font-size="10.00">~BaseRFIDWrapper()</text>
<text text-anchor="start" x="11" y="-386.5" font-family="Helvetica,sans-Serif" font-size="10.00">+</text>
<text text-anchor="start" x="28" y="-386.5" font-family="Helvetica,sans-Serif" font-size="10.00">rfidInit()</text>
<text text-anchor="start" x="11" y="-371.5" font-family="Helvetica,sans-Serif" font-size="10.00">+</text>
<text text-anchor="start" x="28" y="-371.5" font-family="Helvetica,sans-Serif" font-size="10.00">isNewCardPresent()</text>
<text text-anchor="start" x="11" y="-356.5" font-family="Helvetica,sans-Serif" font-size="10.00">+</text>
<text text-anchor="start" x="28" y="-356.5" font-family="Helvetica,sans-Serif" font-size="10.00">cardStillThere()</text>
<text text-anchor="start" x="11" y="-341.5" font-family="Helvetica,sans-Serif" font-size="10.00">+</text>
<text text-anchor="start" x="28" y="-341.5" font-family="Helvetica,sans-Serif" font-size="10.00">getUid()</text>
<text text-anchor="start" x="11" y="-326.5" font-family="Helvetica,sans-Serif" font-size="10.00">+</text>
<text text-anchor="start" x="28" y="-326.5" font-family="Helvetica,sans-Serif" font-size="10.00">readCardSerial()</text>
<text text-anchor="start" x="11" y="-311.5" font-family="Helvetica,sans-Serif" font-size="10.00">+</text>
<text text-anchor="start" x="28" y="-311.5" font-family="Helvetica,sans-Serif" font-size="10.00">selfTest()</text>
<text text-anchor="start" x="11" y="-296.5" font-family="Helvetica,sans-Serif" font-size="10.00">+</text>
<text text-anchor="start" x="28" y="-296.5" font-family="Helvetica,sans-Serif" font-size="10.00">reset()</text>
<polygon fill="#666666" stroke="#666666" points="0,-428 0,-428 138,-428 138,-428 0,-428"/>
<polygon fill="#666666" stroke="#666666" points="0,-413 0,-413 138,-413 138,-413 0,-413"/>
<polygon fill="none" stroke="#666666" points="0,-291 0,-445 138,-445 138,-291 0,-291"/>
</a>
</g>
</g>
<!-- Node2 -->
<g id="Node000002" class="node">
<title>Node2</title>
<g id="a_Node000002"><a xlink:href="classfabomatic_1_1_r_f_i_d_wrapper.xhtml" target="_top" xlink:title=" ">
<polygon fill="white" stroke="none" points="126.5,-255 11.5,-255 11.5,0 126.5,0 126.5,-255"/>
<text text-anchor="start" x="16.12" y="-241.5" font-family="Helvetica,sans-Serif" font-size="10.00">fabomatic::RFIDWrapper</text>
<text text-anchor="start" x="48" y="-230.25" font-family="Helvetica,sans-Serif" font-size="10.00">&lt; Driver &gt;</text>
<text text-anchor="start" x="19.5" y="-215.5" font-family="Helvetica,sans-Serif" font-size="10.00">&#45;</text>
<text text-anchor="start" x="30.5" y="-215.5" font-family="Helvetica,sans-Serif" font-size="10.00">driver</text>
<text text-anchor="start" x="18" y="-200.5" font-family="Helvetica,sans-Serif" font-size="10.00">+</text>
<text text-anchor="start" x="30.5" y="-200.5" font-family="Helvetica,sans-Serif" font-size="10.00">RFIDWrapper()</text>
<text text-anchor="start" x="18" y="-185.5" font-family="Helvetica,sans-Serif" font-size="10.00">+</text>
<text text-anchor="start" x="30.5" y="-185.5" font-family="Helvetica,sans-Serif" font-size="10.00">rfidInit()</text>
<text text-anchor="start" x="18" y="-170.5" font-family="Helvetica,sans-Serif" font-size="10.00">+</text>
<text text-anchor="start" x="30.5" y="-170.5" font-family="Helvetica,sans-Serif" font-size="10.00">isNewCardPresent()</text>
<text text-anchor="start" x="18" y="-155.5" font-family="Helvetica,sans-Serif" font-size="10.00">+</text>
<text text-anchor="start" x="30.5" y="-155.5" font-family="Helvetica,sans-Serif" font-size="10.00">cardStillThere()</text>
<text text-anchor="start" x="18" y="-140.5" font-family="Helvetica,sans-Serif" font-size="10.00">+</text>
<text text-anchor="start" x="30.5" y="-140.5" font-family="Helvetica,sans-Serif" font-size="10.00">readCardSerial()</text>
<text text-anchor="start" x="18" y="-125.5" font-family="Helvetica,sans-Serif" font-size="10.00">+</text>
<text text-anchor="start" x="30.5" y="-125.5" font-family="Helvetica,sans-Serif" font-size="10.00">selfTest()</text>
<text text-anchor="start" x="18" y="-110.5" font-family="Helvetica,sans-Serif" font-size="10.00">+</text>
<text text-anchor="start" x="30.5" y="-110.5" font-family="Helvetica,sans-Serif" font-size="10.00">reset()</text>
<text text-anchor="start" x="18" y="-95.5" font-family="Helvetica,sans-Serif" font-size="10.00">+</text>
<text text-anchor="start" x="30.5" y="-95.5" font-family="Helvetica,sans-Serif" font-size="10.00">getUid()</text>
<text text-anchor="start" x="18" y="-80.5" font-family="Helvetica,sans-Serif" font-size="10.00">+</text>
<text text-anchor="start" x="30.5" y="-80.5" font-family="Helvetica,sans-Serif" font-size="10.00">getDriver()</text>
<text text-anchor="start" x="18" y="-65.5" font-family="Helvetica,sans-Serif" font-size="10.00">+</text>
<text text-anchor="start" x="30.5" y="-65.5" font-family="Helvetica,sans-Serif" font-size="10.00">RFIDWrapper()</text>
<text text-anchor="start" x="18" y="-50.5" font-family="Helvetica,sans-Serif" font-size="10.00">+</text>
<text text-anchor="start" x="30.5" y="-50.5" font-family="Helvetica,sans-Serif" font-size="10.00">operator=()</text>
<text text-anchor="start" x="18" y="-35.5" font-family="Helvetica,sans-Serif" font-size="10.00">+</text>
<text text-anchor="start" x="30.5" y="-35.5" font-family="Helvetica,sans-Serif" font-size="10.00">RFIDWrapper()</text>
<text text-anchor="start" x="18" y="-20.5" font-family="Helvetica,sans-Serif" font-size="10.00">+</text>
<text text-anchor="start" x="30.5" y="-20.5" font-family="Helvetica,sans-Serif" font-size="10.00">operator=()</text>
<text text-anchor="start" x="18" y="-5.5" font-family="Helvetica,sans-Serif" font-size="10.00">+</text>
<text text-anchor="start" x="30.5" y="-5.5" font-family="Helvetica,sans-Serif" font-size="10.00">~RFIDWrapper()</text>
<polygon fill="#666666" stroke="#666666" points="11.5,-227 11.5,-227 126.5,-227 126.5,-227 11.5,-227"/>
<polygon fill="#666666" stroke="#666666" points="11.5,-212 11.5,-212 28.5,-212 28.5,-212 11.5,-212"/>
<polygon fill="#666666" stroke="#666666" points="28.5,-212 28.5,-212 126.5,-212 126.5,-212 28.5,-212"/>
<polygon fill="none" stroke="#666666" points="11.5,0 11.5,-255 126.5,-255 126.5,0 11.5,0"/>
</a>
</g>
</g>
<!-- Node1&#45;&gt;Node2 -->
<g id="edge1_Node000001_Node000002" class="edge">
<title>Node1&#45;&gt;Node2</title>
<g id="a_edge1_Node000001_Node000002"><a xlink:title=" ">
<path fill="none" stroke="#63b8ff" d="M69,-279.76C69,-271.54 69,-263.1 69,-254.62"/>
<polygon fill="none" stroke="#63b8ff" points="65.5,-279.7 69,-289.7 72.5,-279.7 65.5,-279.7"/>
</a>
</g>
</g>
</g>
</svg>
