<?xml version="1.0" encoding="UTF-8" standalone="no"?>
<!DOCTYPE svg PUBLIC "-//W3C//DTD SVG 1.1//EN"
 "http://www.w3.org/Graphics/SVG/1.1/DTD/svg11.dtd">
<!-- Generated by graphviz version 9.0.0 (20230911.1827)
 -->
<!-- Title: fabomatic::MQTT::MachineResponse Pages: 1 -->
<svg width="229pt" height="393pt"
 viewBox="0.00 0.00 228.50 392.50" xmlns="http://www.w3.org/2000/svg" xmlns:xlink="http://www.w3.org/1999/xlink">

<svg id="main" version="1.1" xmlns="http://www.w3.org/2000/svg" xmlns:xlink="http://www.w3.org/1999/xlink" xml:space="preserve" onload="init(evt)">
<style type="text/css"><![CDATA[
.node, .edge {opacity: 0.7;}
.node.selected, .edge.selected {opacity: 1;}
.edge:hover path { stroke: red; }
.edge:hover polygon { stroke: red; fill: red; }
]]></style>
<script type="application/ecmascript" xlink:href="svg.min.js"/>
<svg id="graph" class="graph">
<g id="graph0" class="graph" transform="scale(1 1) rotate(0) translate(4 388.5)">
<title>fabomatic::MQTT::MachineResponse</title>
<!-- Node1 -->
<g id="Node000001" class="node">
<title>Node1</title>
<g id="a_Node000001"><a xlink:title="Backend response for machine status query.">
<polygon fill="#999999" stroke="none" points="145.5,-165 19.5,-165 19.5,0 145.5,0 145.5,-165"/>
<text text-anchor="start" x="24.38" y="-151.5" font-family="Helvetica,sans-Serif" font-size="10.00">fabomatic::MQTT::Machine</text>
<text text-anchor="start" x="60.75" y="-140.25" font-family="Helvetica,sans-Serif" font-size="10.00">Response</text>
<text text-anchor="start" x="29" y="-125.5" font-family="Helvetica,sans-Serif" font-size="10.00">+</text>
<text text-anchor="start" x="44.5" y="-125.5" font-family="Helvetica,sans-Serif" font-size="10.00">is_valid</text>
<text text-anchor="start" x="29" y="-110.5" font-family="Helvetica,sans-Serif" font-size="10.00">+</text>
<text text-anchor="start" x="44.5" y="-110.5" font-family="Helvetica,sans-Serif" font-size="10.00">maintenance</text>
<text text-anchor="start" x="29" y="-95.5" font-family="Helvetica,sans-Serif" font-size="10.00">+</text>
<text text-anchor="start" x="44.5" y="-95.5" font-family="Helvetica,sans-Serif" font-size="10.00">allowed</text>
<text text-anchor="start" x="29" y="-80.5" font-family="Helvetica,sans-Serif" font-size="10.00">+</text>
<text text-anchor="start" x="44.5" y="-80.5" font-family="Helvetica,sans-Serif" font-size="10.00">logoff</text>
<text text-anchor="start" x="29" y="-65.5" font-family="Helvetica,sans-Serif" font-size="10.00">+</text>
<text text-anchor="start" x="44.5" y="-65.5" font-family="Helvetica,sans-Serif" font-size="10.00">type</text>
<text text-anchor="start" x="29" y="-50.5" font-family="Helvetica,sans-Serif" font-size="10.00">+</text>
<text text-anchor="start" x="44.5" y="-50.5" font-family="Helvetica,sans-Serif" font-size="10.00">grace</text>
<text text-anchor="start" x="29" y="-35.5" font-family="Helvetica,sans-Serif" font-size="10.00">+</text>
<text text-anchor="start" x="44.5" y="-35.5" font-family="Helvetica,sans-Serif" font-size="10.00">MachineResponse()</text>
<text text-anchor="start" x="29" y="-20.5" font-family="Helvetica,sans-Serif" font-size="10.00">+</text>
<text text-anchor="start" x="44.5" y="-20.5" font-family="Helvetica,sans-Serif" font-size="10.00">MachineResponse()</text>
<text text-anchor="start" x="29" y="-5.5" font-family="Helvetica,sans-Serif" font-size="10.00">+</text>
<text text-anchor="start" x="44.5" y="-5.5" font-family="Helvetica,sans-Serif" font-size="10.00">fromJson()</text>
<polygon fill="#666666" stroke="#666666" points="19.5,-137 19.5,-137 145.5,-137 145.5,-137 19.5,-137"/>
<polygon fill="#666666" stroke="#666666" points="19.5,-47 19.5,-47 42.5,-47 42.5,-47 19.5,-47"/>
<polygon fill="#666666" stroke="#666666" points="42.5,-47 42.5,-47 145.5,-47 145.5,-47 42.5,-47"/>
<polygon fill="none" stroke="#666666" points="19.5,0 19.5,-165 145.5,-165 145.5,0 19.5,0"/>
</a>
</g>
</g>
<!-- Node2 -->
<g id="Node000002" class="node">
<title>Node2</title>
<g id="a_Node000002"><a xlink:href="classfabomatic_1_1_m_q_t_t_1_1_response.xhtml" target="_top" xlink:title="Base class for server replies.">
<polygon fill="white" stroke="none" points="133,-287.5 0,-287.5 0,-223.5 133,-223.5 133,-287.5"/>
<text text-anchor="start" x="5" y="-274" font-family="Helvetica,sans-Serif" font-size="10.00">fabomatic::MQTT::Response</text>
<text text-anchor="start" x="20.5" y="-259" font-family="Helvetica,sans-Serif" font-size="10.00">+</text>
<text text-anchor="start" x="47" y="-259" font-family="Helvetica,sans-Serif" font-size="10.00">request_ok</text>
<text text-anchor="start" x="20.5" y="-244" font-family="Helvetica,sans-Serif" font-size="10.00">+</text>
<text text-anchor="start" x="47" y="-244" font-family="Helvetica,sans-Serif" font-size="10.00">Response()</text>
<text text-anchor="start" x="20.5" y="-229" font-family="Helvetica,sans-Serif" font-size="10.00">+</text>
<text text-anchor="start" x="47" y="-229" font-family="Helvetica,sans-Serif" font-size="10.00">Response()</text>
<polygon fill="#666666" stroke="#666666" points="0,-270.5 0,-270.5 133,-270.5 133,-270.5 0,-270.5"/>
<polygon fill="#666666" stroke="#666666" points="0,-255.5 0,-255.5 45,-255.5 45,-255.5 0,-255.5"/>
<polygon fill="#666666" stroke="#666666" points="45,-255.5 45,-255.5 133,-255.5 133,-255.5 45,-255.5"/>
<polygon fill="none" stroke="#666666" points="0,-223.5 0,-287.5 133,-287.5 133,-223.5 0,-223.5"/>
</a>
</g>
</g>
<!-- Node2&#45;&gt;Node1 -->
<g id="edge1_Node000001_Node000002" class="edge">
<title>Node2&#45;&gt;Node1</title>
<g id="a_edge1_Node000001_Node000002"><a xlink:title=" ">
<path fill="none" stroke="#63b8ff" d="M70.43,-212.48C71.78,-198.04 73.35,-181.33 74.89,-164.84"/>
<polygon fill="none" stroke="#63b8ff" points="66.99,-211.74 69.54,-222.03 73.95,-212.4 66.99,-211.74"/>
</a>
</g>
</g>
<!-- Node3 -->
<g id="Node000003" class="node">
<title>Node3</title>
<g id="a_Node000003"><a xlink:title=" ">
<polygon fill="white" stroke="none" points="203.5,-280 151.5,-280 151.5,-231 203.5,-231 203.5,-280"/>
<text text-anchor="start" x="156.5" y="-266.5" font-family="Helvetica,sans-Serif" font-size="10.00">std::string</text>
<text text-anchor="start" x="176" y="-251.5" font-family="Helvetica,sans-Serif" font-size="10.00"> </text>
<text text-anchor="start" x="176" y="-236.5" font-family="Helvetica,sans-Serif" font-size="10.00"> </text>
<polygon fill="#666666" stroke="#666666" points="151.5,-263 151.5,-263 203.5,-263 203.5,-263 151.5,-263"/>
<polygon fill="#666666" stroke="#666666" points="151.5,-248 151.5,-248 203.5,-248 203.5,-248 151.5,-248"/>
<polygon fill="none" stroke="#666666" points="151.5,-231 151.5,-280 203.5,-280 203.5,-231 151.5,-231"/>
</a>
</g>
</g>
<!-- Node3&#45;&gt;Node1 -->
<g id="edge2_Node000001_Node000003" class="edge">
<title>Node3&#45;&gt;Node1</title>
<g id="a_edge2_Node000001_Node000003"><a xlink:title=" ">
<path fill="none" stroke="#63b8ff" d="M164.49,-231.08C156.39,-216.5 145.38,-196.68 134.06,-176.3"/>
<polygon fill="none" stroke="#63b8ff" points="134.02,-176.24 127.61,-172.93 128.19,-165.75 134.6,-169.05 134.02,-176.24"/>
</a>
</g>
<text text-anchor="middle" x="176.25" y="-196" font-family="Helvetica,sans-Serif" font-size="10.00" fill="grey"> +description</text>
<text text-anchor="middle" x="176.25" y="-184.75" font-family="Helvetica,sans-Serif" font-size="10.00" fill="grey">+name</text>
</g>
<!-- Node4 -->
<g id="Node000004" class="node">
<title>Node4</title>
<g id="a_Node000004"><a xlink:title=" ">
<polygon fill="white" stroke="none" points="220.5,-384.5 134.5,-384.5 134.5,-324.5 220.5,-324.5 220.5,-384.5"/>
<text text-anchor="start" x="139.25" y="-371" font-family="Helvetica,sans-Serif" font-size="10.00">std::basic_string&lt;</text>
<text text-anchor="start" x="162.12" y="-359.75" font-family="Helvetica,sans-Serif" font-size="10.00"> Char &gt;</text>
<text text-anchor="start" x="176" y="-345" font-family="Helvetica,sans-Serif" font-size="10.00"> </text>
<text text-anchor="start" x="176" y="-330" font-family="Helvetica,sans-Serif" font-size="10.00"> </text>
<polygon fill="#666666" stroke="#666666" points="134.5,-356.5 134.5,-356.5 220.5,-356.5 220.5,-356.5 134.5,-356.5"/>
<polygon fill="#666666" stroke="#666666" points="134.5,-341.5 134.5,-341.5 220.5,-341.5 220.5,-341.5 134.5,-341.5"/>
<polygon fill="none" stroke="#666666" points="134.5,-324.5 134.5,-384.5 220.5,-384.5 220.5,-324.5 134.5,-324.5"/>
</a>
</g>
</g>
<!-- Node4&#45;&gt;Node3 -->
<g id="edge3_Node000003_Node000004" class="edge">
<title>Node4&#45;&gt;Node3</title>
<g id="a_edge3_Node000003_Node000004"><a xlink:title=" ">
<path fill="none" stroke="#63b8ff" d="M177.5,-313.16C177.5,-301.81 177.5,-289.85 177.5,-279.86"/>
<polygon fill="none" stroke="#63b8ff" points="174,-313.15 177.5,-323.15 181,-313.15 174,-313.15"/>
</a>
</g>
</g>
</g>
</svg>
</svg>

<style type='text/css'>
<![CDATA[
[data-mouse-over-selected='false'] { opacity: 0.7; }
[data-mouse-over-selected='true']  { opacity: 1.0; }
]]>
</style>
<script type="application/ecmascript"><![CDATA[
document.addEventListener('DOMContentLoaded', (event) => {
  highlightEdges();
  highlightAdjacentNodes();
});
]]></script>
</svg>
