<?xml version="1.0" encoding="UTF-8" standalone="no"?>
<!DOCTYPE svg PUBLIC "-//W3C//DTD SVG 1.1//EN"
 "http://www.w3.org/Graphics/SVG/1.1/DTD/svg11.dtd">
<!-- Generated by graphviz version 9.0.0 (20230911.1827)
 -->
<!-- Title: fabomatic::SavedConfig Pages: 1 -->
<svg width="637pt" height="978pt"
 viewBox="0.00 0.00 637.00 977.50" xmlns="http://www.w3.org/2000/svg" xmlns:xlink="http://www.w3.org/1999/xlink">
<g id="graph0" class="graph" transform="scale(1 1) rotate(0) translate(4 973.5)">
<title>fabomatic::SavedConfig</title>
<!-- Node1 -->
<g id="Node000001" class="node">
<title>Node1</title>
<g id="a_Node000001"><a xlink:title=" ">
<polygon fill="#999999" stroke="none" points="554,-244 441,-244 441,0 554,0 554,-244"/>
<text text-anchor="start" x="446.5" y="-230.5" font-family="Helvetica,sans-Serif" font-size="10.00">fabomatic::SavedConfig</text>
<text text-anchor="start" x="445" y="-215.5" font-family="Helvetica,sans-Serif" font-size="10.00">+</text>
<text text-anchor="start" x="455" y="-215.5" font-family="Helvetica,sans-Serif" font-size="10.00">magic_number</text>
<text text-anchor="start" x="445" y="-200.5" font-family="Helvetica,sans-Serif" font-size="10.00">+</text>
<text text-anchor="start" x="455" y="-200.5" font-family="Helvetica,sans-Serif" font-size="10.00">bootCount</text>
<text text-anchor="start" x="445" y="-185.5" font-family="Helvetica,sans-Serif" font-size="10.00">+</text>
<text text-anchor="start" x="455" y="-185.5" font-family="Helvetica,sans-Serif" font-size="10.00">disablePortal</text>
<text text-anchor="start" x="445" y="-170.5" font-family="Helvetica,sans-Serif" font-size="10.00">+</text>
<text text-anchor="start" x="455" y="-170.5" font-family="Helvetica,sans-Serif" font-size="10.00">MAGIC_NUMBER</text>
<text text-anchor="start" x="446.5" y="-155.5" font-family="Helvetica,sans-Serif" font-size="10.00">&#45;</text>
<text text-anchor="start" x="455" y="-155.5" font-family="Helvetica,sans-Serif" font-size="10.00">JSON_DOC_SIZE</text>
<text text-anchor="start" x="445" y="-140.5" font-family="Helvetica,sans-Serif" font-size="10.00">+</text>
<text text-anchor="start" x="455" y="-140.5" font-family="Helvetica,sans-Serif" font-size="10.00">SavedConfig()</text>
<text text-anchor="start" x="445" y="-125.5" font-family="Helvetica,sans-Serif" font-size="10.00">+</text>
<text text-anchor="start" x="455" y="-125.5" font-family="Helvetica,sans-Serif" font-size="10.00">SaveToEEPROM()</text>
<text text-anchor="start" x="445" y="-110.5" font-family="Helvetica,sans-Serif" font-size="10.00">+</text>
<text text-anchor="start" x="455" y="-110.5" font-family="Helvetica,sans-Serif" font-size="10.00">setMachineID()</text>
<text text-anchor="start" x="445" y="-95.5" font-family="Helvetica,sans-Serif" font-size="10.00">+</text>
<text text-anchor="start" x="455" y="-95.5" font-family="Helvetica,sans-Serif" font-size="10.00">getMachineID()</text>
<text text-anchor="start" x="445" y="-80.5" font-family="Helvetica,sans-Serif" font-size="10.00">+</text>
<text text-anchor="start" x="455" y="-80.5" font-family="Helvetica,sans-Serif" font-size="10.00">toString()</text>
<text text-anchor="start" x="445" y="-65.5" font-family="Helvetica,sans-Serif" font-size="10.00">+</text>
<text text-anchor="start" x="455" y="-65.5" font-family="Helvetica,sans-Serif" font-size="10.00">LoadFromEEPROM()</text>
<text text-anchor="start" x="445" y="-50.5" font-family="Helvetica,sans-Serif" font-size="10.00">+</text>
<text text-anchor="start" x="455" y="-50.5" font-family="Helvetica,sans-Serif" font-size="10.00">DefaultConfig()</text>
<text text-anchor="start" x="445" y="-35.5" font-family="Helvetica,sans-Serif" font-size="10.00">+</text>
<text text-anchor="start" x="455" y="-35.5" font-family="Helvetica,sans-Serif" font-size="10.00">IncrementBootCount()</text>
<text text-anchor="start" x="446.5" y="-20.5" font-family="Helvetica,sans-Serif" font-size="10.00">&#45;</text>
<text text-anchor="start" x="455" y="-20.5" font-family="Helvetica,sans-Serif" font-size="10.00">toJsonDocument()</text>
<text text-anchor="start" x="446.5" y="-5.5" font-family="Helvetica,sans-Serif" font-size="10.00">&#45;</text>
<text text-anchor="start" x="455" y="-5.5" font-family="Helvetica,sans-Serif" font-size="10.00">fromJsonDocument()</text>
<polygon fill="#666666" stroke="#666666" points="441,-227 441,-227 554,-227 554,-227 441,-227"/>
<polygon fill="#666666" stroke="#666666" points="441,-152 441,-152 453,-152 453,-152 441,-152"/>
<polygon fill="#666666" stroke="#666666" points="453,-152 453,-152 554,-152 554,-152 453,-152"/>
<polygon fill="none" stroke="#666666" points="441,0 441,-244 554,-244 554,0 441,0"/>
</a>
</g>
</g>
<!-- Node2 -->
<g id="Node000002" class="node">
<title>Node2</title>
<g id="a_Node000002"><a xlink:title=" ">
<polygon fill="white" stroke="none" points="525.5,-872.5 473.5,-872.5 473.5,-823.5 525.5,-823.5 525.5,-872.5"/>
<text text-anchor="start" x="478.5" y="-859" font-family="Helvetica,sans-Serif" font-size="10.00">std::string</text>
<text text-anchor="start" x="498" y="-844" font-family="Helvetica,sans-Serif" font-size="10.00"> </text>
<text text-anchor="start" x="498" y="-829" font-family="Helvetica,sans-Serif" font-size="10.00"> </text>
<polygon fill="#666666" stroke="#666666" points="473.5,-855.5 473.5,-855.5 525.5,-855.5 525.5,-855.5 473.5,-855.5"/>
<polygon fill="#666666" stroke="#666666" points="473.5,-840.5 473.5,-840.5 525.5,-840.5 525.5,-840.5 473.5,-840.5"/>
<polygon fill="none" stroke="#666666" points="473.5,-823.5 473.5,-872.5 525.5,-872.5 525.5,-823.5 473.5,-823.5"/>
</a>
</g>
</g>
<!-- Node2&#45;&gt;Node1 -->
<g id="edge1_Node000001_Node000002" class="edge">
<title>Node2&#45;&gt;Node1</title>
<g id="a_edge1_Node000001_Node000002"><a xlink:title=" ">
<path fill="none" stroke="#63b8ff" d="M519.3,-823.56C523.22,-817.93 526.91,-811.74 529.5,-805.5 544.42,-769.53 543.5,-757.94 543.5,-719 543.5,-719 543.5,-719 543.5,-382.25 543.5,-341.02 537.79,-296.65 530.39,-256.49"/>
<polygon fill="none" stroke="#63b8ff" points="530.4,-256.56 525.35,-251.41 528.16,-244.77 533.21,-249.91 530.4,-256.56"/>
</a>
</g>
<text text-anchor="middle" x="586.25" y="-603" font-family="Helvetica,sans-Serif" font-size="10.00" fill="grey"> +machine_id</text>
<text text-anchor="middle" x="586.25" y="-591.75" font-family="Helvetica,sans-Serif" font-size="10.00" fill="grey">+mqtt_password</text>
<text text-anchor="middle" x="586.25" y="-580.5" font-family="Helvetica,sans-Serif" font-size="10.00" fill="grey">+mqtt_server</text>
<text text-anchor="middle" x="586.25" y="-569.25" font-family="Helvetica,sans-Serif" font-size="10.00" fill="grey">+mqtt_switch_topic</text>
<text text-anchor="middle" x="586.25" y="-558" font-family="Helvetica,sans-Serif" font-size="10.00" fill="grey">+mqtt_user</text>
<text text-anchor="middle" x="586.25" y="-546.75" font-family="Helvetica,sans-Serif" font-size="10.00" fill="grey">+password</text>
<text text-anchor="middle" x="586.25" y="-535.5" font-family="Helvetica,sans-Serif" font-size="10.00" fill="grey">+ssid</text>
<text text-anchor="middle" x="586.25" y="-524.25" font-family="Helvetica,sans-Serif" font-size="10.00" fill="grey">&#45;json_buffer</text>
</g>
<!-- Node12 -->
<g id="Node000012" class="node">
<title>Node12</title>
<g id="a_Node000012"><a xlink:href="structfabomatic_1_1_buffered_msg.xhtml" target="_top" xlink:title=" ">
<polygon fill="white" stroke="none" points="513.5,-765 401.5,-765 401.5,-671 513.5,-671 513.5,-765"/>
<text text-anchor="start" x="406.5" y="-751.5" font-family="Helvetica,sans-Serif" font-size="10.00">fabomatic::BufferedMsg</text>
<text text-anchor="start" x="411" y="-736.5" font-family="Helvetica,sans-Serif" font-size="10.00">+</text>
<text text-anchor="start" x="426.5" y="-736.5" font-family="Helvetica,sans-Serif" font-size="10.00">wait_for_answer</text>
<text text-anchor="start" x="411" y="-721.5" font-family="Helvetica,sans-Serif" font-size="10.00">+</text>
<text text-anchor="start" x="426.5" y="-721.5" font-family="Helvetica,sans-Serif" font-size="10.00">BufferedMsg()</text>
<text text-anchor="start" x="411" y="-706.5" font-family="Helvetica,sans-Serif" font-size="10.00">+</text>
<text text-anchor="start" x="426.5" y="-706.5" font-family="Helvetica,sans-Serif" font-size="10.00">BufferedMsg()</text>
<text text-anchor="start" x="411" y="-691.5" font-family="Helvetica,sans-Serif" font-size="10.00">+</text>
<text text-anchor="start" x="426.5" y="-691.5" font-family="Helvetica,sans-Serif" font-size="10.00">BufferedMsg()</text>
<text text-anchor="start" x="411" y="-676.5" font-family="Helvetica,sans-Serif" font-size="10.00">+</text>
<text text-anchor="start" x="426.5" y="-676.5" font-family="Helvetica,sans-Serif" font-size="10.00">BufferedMsg()</text>
<polygon fill="#666666" stroke="#666666" points="401.5,-748 401.5,-748 513.5,-748 513.5,-748 401.5,-748"/>
<polygon fill="#666666" stroke="#666666" points="401.5,-733 401.5,-733 424.5,-733 424.5,-733 401.5,-733"/>
<polygon fill="#666666" stroke="#666666" points="424.5,-733 424.5,-733 513.5,-733 513.5,-733 424.5,-733"/>
<polygon fill="none" stroke="#666666" points="401.5,-671 401.5,-765 513.5,-765 513.5,-671 401.5,-671"/>
</a>
</g>
</g>
<!-- Node2&#45;&gt;Node12 -->
<g id="edge13_Node000012_Node000002" class="edge">
<title>Node2&#45;&gt;Node12</title>
<g id="a_edge13_Node000012_Node000002"><a xlink:title=" ">
<path fill="none" stroke="#63b8ff" d="M473.91,-828.52C467.02,-822.09 460.46,-814.26 456.75,-805.5 453.09,-796.85 451.26,-787.26 450.59,-777.7"/>
<polygon fill="none" stroke="#63b8ff" points="450.59,-777.69 446.47,-771.77 450.35,-765.7 454.47,-771.61 450.59,-777.69"/>
</a>
</g>
<text text-anchor="middle" x="492.88" y="-796" font-family="Helvetica,sans-Serif" font-size="10.00" fill="grey"> +mqtt_message</text>
<text text-anchor="middle" x="492.88" y="-784.75" font-family="Helvetica,sans-Serif" font-size="10.00" fill="grey">+mqtt_topic</text>
</g>
<!-- Node3 -->
<g id="Node000003" class="node">
<title>Node3</title>
<g id="a_Node000003"><a xlink:title=" ">
<polygon fill="white" stroke="none" points="542.5,-969.5 456.5,-969.5 456.5,-909.5 542.5,-909.5 542.5,-969.5"/>
<text text-anchor="start" x="461.25" y="-956" font-family="Helvetica,sans-Serif" font-size="10.00">std::basic_string&lt;</text>
<text text-anchor="start" x="484.12" y="-944.75" font-family="Helvetica,sans-Serif" font-size="10.00"> Char &gt;</text>
<text text-anchor="start" x="498" y="-930" font-family="Helvetica,sans-Serif" font-size="10.00"> </text>
<text text-anchor="start" x="498" y="-915" font-family="Helvetica,sans-Serif" font-size="10.00"> </text>
<polygon fill="#666666" stroke="#666666" points="456.5,-941.5 456.5,-941.5 542.5,-941.5 542.5,-941.5 456.5,-941.5"/>
<polygon fill="#666666" stroke="#666666" points="456.5,-926.5 456.5,-926.5 542.5,-926.5 542.5,-926.5 456.5,-926.5"/>
<polygon fill="none" stroke="#666666" points="456.5,-909.5 456.5,-969.5 542.5,-969.5 542.5,-909.5 456.5,-909.5"/>
</a>
</g>
</g>
<!-- Node3&#45;&gt;Node2 -->
<g id="edge2_Node000002_Node000003" class="edge">
<title>Node3&#45;&gt;Node2</title>
<g id="a_edge2_Node000002_Node000003"><a xlink:title=" ">
<path fill="none" stroke="#63b8ff" d="M499.5,-898.29C499.5,-889.42 499.5,-880.32 499.5,-872.38"/>
<polygon fill="none" stroke="#63b8ff" points="496,-898.18 499.5,-908.18 503,-898.18 496,-898.18"/>
</a>
</g>
</g>
<!-- Node4 -->
<g id="Node000004" class="node">
<title>Node4</title>
<g id="a_Node000004"><a xlink:title=" ">
<polygon fill="white" stroke="none" points="625.5,-407.75 571.5,-407.75 571.5,-358.75 625.5,-358.75 625.5,-407.75"/>
<text text-anchor="start" x="576.38" y="-394.25" font-family="Helvetica,sans-Serif" font-size="10.00">std::mutex</text>
<text text-anchor="start" x="597" y="-379.25" font-family="Helvetica,sans-Serif" font-size="10.00"> </text>
<text text-anchor="start" x="597" y="-364.25" font-family="Helvetica,sans-Serif" font-size="10.00"> </text>
<polygon fill="#666666" stroke="#666666" points="571.5,-390.75 571.5,-390.75 625.5,-390.75 625.5,-390.75 571.5,-390.75"/>
<polygon fill="#666666" stroke="#666666" points="571.5,-375.75 571.5,-375.75 625.5,-375.75 625.5,-375.75 571.5,-375.75"/>
<polygon fill="none" stroke="#666666" points="571.5,-358.75 571.5,-407.75 625.5,-407.75 625.5,-358.75 571.5,-358.75"/>
</a>
</g>
</g>
<!-- Node4&#45;&gt;Node1 -->
<g id="edge3_Node000001_Node000004" class="edge">
<title>Node4&#45;&gt;Node1</title>
<g id="a_edge3_Node000001_Node000004"><a xlink:title=" ">
<path fill="none" stroke="#63b8ff" d="M591.18,-359C583.36,-334.64 570.36,-295.34 557.5,-262 556.7,-259.93 555.89,-257.85 555.07,-255.76"/>
<polygon fill="none" stroke="#63b8ff" points="555.04,-255.67 549.11,-251.58 550.61,-244.52 556.54,-248.62 555.04,-255.67"/>
</a>
</g>
<text text-anchor="middle" x="590.88" y="-263.75" font-family="Helvetica,sans-Serif" font-size="10.00" fill="grey"> &#45;buffer_mutex</text>
</g>
<!-- Node5 -->
<g id="Node000005" class="node">
<title>Node5</title>
<g id="a_Node000005"><a xlink:href="structfabomatic_1_1_cached_cards.xhtml" target="_top" xlink:title=" ">
<polygon fill="white" stroke="none" points="247,-437.75 132,-437.75 132,-328.75 247,-328.75 247,-437.75"/>
<text text-anchor="start" x="136.62" y="-424.25" font-family="Helvetica,sans-Serif" font-size="10.00">fabomatic::CachedCards</text>
<text text-anchor="start" x="188" y="-409.25" font-family="Helvetica,sans-Serif" font-size="10.00"> </text>
<text text-anchor="start" x="144" y="-394.25" font-family="Helvetica,sans-Serif" font-size="10.00">+</text>
<text text-anchor="start" x="162" y="-394.25" font-family="Helvetica,sans-Serif" font-size="10.00">CachedCards()</text>
<text text-anchor="start" x="144" y="-379.25" font-family="Helvetica,sans-Serif" font-size="10.00">+</text>
<text text-anchor="start" x="162" y="-379.25" font-family="Helvetica,sans-Serif" font-size="10.00">operator[]()</text>
<text text-anchor="start" x="144" y="-364.25" font-family="Helvetica,sans-Serif" font-size="10.00">+</text>
<text text-anchor="start" x="162" y="-364.25" font-family="Helvetica,sans-Serif" font-size="10.00">find_uid()</text>
<text text-anchor="start" x="144" y="-349.25" font-family="Helvetica,sans-Serif" font-size="10.00">+</text>
<text text-anchor="start" x="162" y="-349.25" font-family="Helvetica,sans-Serif" font-size="10.00">set_at()</text>
<text text-anchor="start" x="144" y="-334.25" font-family="Helvetica,sans-Serif" font-size="10.00">+</text>
<text text-anchor="start" x="162" y="-334.25" font-family="Helvetica,sans-Serif" font-size="10.00">size()</text>
<polygon fill="#666666" stroke="#666666" points="132,-420.75 132,-420.75 247,-420.75 247,-420.75 132,-420.75"/>
<polygon fill="#666666" stroke="#666666" points="132,-405.75 132,-405.75 247,-405.75 247,-405.75 132,-405.75"/>
<polygon fill="none" stroke="#666666" points="132,-328.75 132,-437.75 247,-437.75 247,-328.75 132,-328.75"/>
</a>
</g>
</g>
<!-- Node5&#45;&gt;Node1 -->
<g id="edge4_Node000001_Node000005" class="edge">
<title>Node5&#45;&gt;Node1</title>
<g id="a_edge4_Node000001_Node000005"><a xlink:title=" ">
<path fill="none" stroke="#63b8ff" d="M246.71,-334.09C299.06,-290.03 376.51,-224.84 431.47,-178.58"/>
<polygon fill="none" stroke="#63b8ff" points="431.25,-178.77 433.26,-171.84 440.43,-171.04 438.41,-177.96 431.25,-178.77"/>
</a>
</g>
<text text-anchor="middle" x="353.62" y="-263.75" font-family="Helvetica,sans-Serif" font-size="10.00" fill="grey"> +cachedRfid</text>
</g>
<!-- Node6 -->
<g id="Node000006" class="node">
<title>Node6</title>
<g id="a_Node000006"><a xlink:title=" ">
<polygon fill="white" stroke="none" points="236,-603 143,-603 143,-532 236,-532 236,-603"/>
<text text-anchor="start" x="147.88" y="-589.5" font-family="Helvetica,sans-Serif" font-size="10.00">std::array&lt; card::uid</text>
<text text-anchor="start" x="147.88" y="-578.25" font-family="Helvetica,sans-Serif" font-size="10.00">_t, conf::rfid_tags::</text>
<text text-anchor="start" x="156.12" y="-567" font-family="Helvetica,sans-Serif" font-size="10.00">CACHE_LEN &gt;</text>
<text text-anchor="start" x="156" y="-552.5" font-family="Helvetica,sans-Serif" font-size="10.00">+</text>
<text text-anchor="start" x="175" y="-552.5" font-family="Helvetica,sans-Serif" font-size="10.00">elements</text>
<text text-anchor="start" x="188" y="-537.5" font-family="Helvetica,sans-Serif" font-size="10.00"> </text>
<polygon fill="#666666" stroke="#666666" points="143,-564 143,-564 236,-564 236,-564 143,-564"/>
<polygon fill="#666666" stroke="#666666" points="143,-549 143,-549 173,-549 173,-549 143,-549"/>
<polygon fill="#666666" stroke="#666666" points="173,-549 173,-549 236,-549 236,-549 173,-549"/>
<polygon fill="none" stroke="#666666" points="143,-532 143,-603 236,-603 236,-532 143,-532"/>
</a>
</g>
</g>
<!-- Node6&#45;&gt;Node5 -->
<g id="edge5_Node000005_Node000006" class="edge">
<title>Node6&#45;&gt;Node5</title>
<g id="a_edge5_Node000005_Node000006"><a xlink:title=" ">
<path fill="none" stroke="#63b8ff" d="M189.5,-532.22C189.5,-509.25 189.5,-478.27 189.5,-450.59"/>
<polygon fill="none" stroke="#63b8ff" points="189.5,-450.63 185.5,-444.63 189.5,-438.63 193.5,-444.63 189.5,-450.63"/>
</a>
</g>
<text text-anchor="middle" x="205.62" y="-495" font-family="Helvetica,sans-Serif" font-size="10.00" fill="grey"> +cards</text>
</g>
<!-- Node7 -->
<g id="Node000007" class="node">
<title>Node7</title>
<g id="a_Node000007"><a xlink:title=" ">
<polygon fill="white" stroke="none" points="225,-742.5 154,-742.5 154,-693.5 225,-693.5 225,-742.5"/>
<text text-anchor="start" x="158.75" y="-729" font-family="Helvetica,sans-Serif" font-size="10.00">std::array&lt; T &gt;</text>
<text text-anchor="start" x="188" y="-714" font-family="Helvetica,sans-Serif" font-size="10.00"> </text>
<text text-anchor="start" x="188" y="-699" font-family="Helvetica,sans-Serif" font-size="10.00"> </text>
<polygon fill="#666666" stroke="#666666" points="154,-725.5 154,-725.5 225,-725.5 225,-725.5 154,-725.5"/>
<polygon fill="#666666" stroke="#666666" points="154,-710.5 154,-710.5 225,-710.5 225,-710.5 154,-710.5"/>
<polygon fill="none" stroke="#666666" points="154,-693.5 154,-742.5 225,-742.5 225,-693.5 154,-693.5"/>
</a>
</g>
</g>
<!-- Node7&#45;&gt;Node6 -->
<g id="edge6_Node000006_Node000007" class="edge">
<title>Node7&#45;&gt;Node6</title>
<g id="a_edge6_Node000006_Node000007"><a xlink:title=" ">
<path fill="none" stroke="orange" d="M189.5,-682.4C189.5,-658.46 189.5,-626.74 189.5,-602.85"/>
<polygon fill="orange" stroke="orange" points="186,-682.28 189.5,-692.28 193,-682.28 186,-682.28"/>
</a>
</g>
<text text-anchor="start" x="189.5" y="-643.5" font-family="Helvetica,sans-Serif" font-size="10.00" fill="grey"> &lt; card::uid_t, conf</text>
<text text-anchor="middle" x="245.75" y="-632.25" font-family="Helvetica,sans-Serif" font-size="10.00" fill="grey">::rfid_tags::CACHE_LEN &gt;</text>
</g>
<!-- Node9 -->
<g id="Node000009" class="node">
<title>Node9</title>
<g id="a_Node000009"><a xlink:title=" ">
<polygon fill="white" stroke="none" points="105,-603 0,-603 0,-532 105,-532 105,-603"/>
<text text-anchor="start" x="4.88" y="-589.5" font-family="Helvetica,sans-Serif" font-size="10.00">std::array&lt; FabUser</text>
<text text-anchor="start" x="4.88" y="-578.25" font-family="Helvetica,sans-Serif" font-size="10.00">::UserLevel, conf::rfid</text>
<text text-anchor="start" x="4.88" y="-567" font-family="Helvetica,sans-Serif" font-size="10.00">_tags::CACHE_LEN &gt;</text>
<text text-anchor="start" x="16" y="-552.5" font-family="Helvetica,sans-Serif" font-size="10.00">+</text>
<text text-anchor="start" x="38" y="-552.5" font-family="Helvetica,sans-Serif" font-size="10.00">elements</text>
<text text-anchor="start" x="51" y="-537.5" font-family="Helvetica,sans-Serif" font-size="10.00"> </text>
<polygon fill="#666666" stroke="#666666" points="0,-564 0,-564 105,-564 105,-564 0,-564"/>
<polygon fill="#666666" stroke="#666666" points="0,-549 0,-549 36,-549 36,-549 0,-549"/>
<polygon fill="#666666" stroke="#666666" points="36,-549 36,-549 105,-549 105,-549 36,-549"/>
<polygon fill="none" stroke="#666666" points="0,-532 0,-603 105,-603 105,-532 0,-532"/>
</a>
</g>
</g>
<!-- Node7&#45;&gt;Node9 -->
<g id="edge9_Node000009_Node000007" class="edge">
<title>Node7&#45;&gt;Node9</title>
<g id="a_edge9_Node000009_Node000007"><a xlink:title=" ">
<path fill="none" stroke="orange" d="M143.5,-708.87C111.83,-700.62 72.01,-684.38 52,-653 42.69,-638.4 42.07,-619.31 44.11,-602.97"/>
<polygon fill="orange" stroke="orange" points="142.3,-712.18 152.84,-711.11 143.93,-705.37 142.3,-712.18"/>
</a>
</g>
<text text-anchor="start" x="52.5" y="-643.5" font-family="Helvetica,sans-Serif" font-size="10.00" fill="grey"> &lt; FabUser::UserLevel,</text>
<text text-anchor="middle" x="119.25" y="-632.25" font-family="Helvetica,sans-Serif" font-size="10.00" fill="grey"> conf::rfid_tags::CACHE_LEN &gt;</text>
</g>
<!-- Node8 -->
<g id="Node000008" class="node">
<title>Node8</title>
<g id="a_Node000008"><a xlink:title=" ">
<polygon fill="white" stroke="none" points="258.5,-872.5 242.5,-872.5 242.5,-823.5 258.5,-823.5 258.5,-872.5"/>
<text text-anchor="start" x="247.5" y="-859" font-family="Helvetica,sans-Serif" font-size="10.00">T</text>
<text text-anchor="start" x="249" y="-844" font-family="Helvetica,sans-Serif" font-size="10.00"> </text>
<text text-anchor="start" x="249" y="-829" font-family="Helvetica,sans-Serif" font-size="10.00"> </text>
<polygon fill="#666666" stroke="#666666" points="242.5,-855.5 242.5,-855.5 258.5,-855.5 258.5,-855.5 242.5,-855.5"/>
<polygon fill="#666666" stroke="#666666" points="242.5,-840.5 242.5,-840.5 258.5,-840.5 258.5,-840.5 242.5,-840.5"/>
<polygon fill="none" stroke="#666666" points="242.5,-823.5 242.5,-872.5 258.5,-872.5 258.5,-823.5 242.5,-823.5"/>
</a>
</g>
</g>
<!-- Node8&#45;&gt;Node7 -->
<g id="edge7_Node000007_Node000008" class="edge">
<title>Node8&#45;&gt;Node7</title>
<g id="a_edge7_Node000007_Node000008"><a xlink:title=" ">
<path fill="none" stroke="#63b8ff" d="M242.75,-839.75C234.86,-831.98 222.77,-818.93 215.5,-805.5 206.96,-789.72 200.86,-770.77 196.72,-754.63"/>
<polygon fill="none" stroke="#63b8ff" points="196.8,-754.96 191.52,-750.05 194.03,-743.28 199.31,-748.2 196.8,-754.96"/>
</a>
</g>
<text text-anchor="middle" x="239.5" y="-790.38" font-family="Helvetica,sans-Serif" font-size="10.00" fill="grey"> +elements</text>
</g>
<!-- Node13 -->
<g id="Node000013" class="node">
<title>Node13</title>
<g id="a_Node000013"><a xlink:title=" ">
<polygon fill="white" stroke="none" points="355.5,-742.5 279.5,-742.5 279.5,-693.5 355.5,-693.5 355.5,-742.5"/>
<text text-anchor="start" x="284.12" y="-729" font-family="Helvetica,sans-Serif" font-size="10.00">std::deque&lt; T &gt;</text>
<text text-anchor="start" x="316" y="-714" font-family="Helvetica,sans-Serif" font-size="10.00"> </text>
<text text-anchor="start" x="316" y="-699" font-family="Helvetica,sans-Serif" font-size="10.00"> </text>
<polygon fill="#666666" stroke="#666666" points="279.5,-725.5 279.5,-725.5 355.5,-725.5 355.5,-725.5 279.5,-725.5"/>
<polygon fill="#666666" stroke="#666666" points="279.5,-710.5 279.5,-710.5 355.5,-710.5 355.5,-710.5 279.5,-710.5"/>
<polygon fill="none" stroke="#666666" points="279.5,-693.5 279.5,-742.5 355.5,-742.5 355.5,-693.5 279.5,-693.5"/>
</a>
</g>
</g>
<!-- Node8&#45;&gt;Node13 -->
<g id="edge15_Node000013_Node000008" class="edge">
<title>Node8&#45;&gt;Node13</title>
<g id="a_edge15_Node000013_Node000008"><a xlink:title=" ">
<path fill="none" stroke="#63b8ff" d="M258.45,-831.81C268.44,-812.72 285.91,-779.35 299.26,-753.85"/>
<polygon fill="none" stroke="#63b8ff" points="299.27,-753.84 298.5,-746.66 304.83,-743.2 305.59,-750.37 299.27,-753.84"/>
</a>
</g>
<text text-anchor="middle" x="308.5" y="-790.38" font-family="Helvetica,sans-Serif" font-size="10.00" fill="grey"> +elements</text>
</g>
<!-- Node9&#45;&gt;Node5 -->
<g id="edge8_Node000005_Node000009" class="edge">
<title>Node9&#45;&gt;Node5</title>
<g id="a_edge8_Node000005_Node000009"><a xlink:title=" ">
<path fill="none" stroke="#63b8ff" d="M78.27,-532.22C96.08,-508.53 120.31,-476.3 141.6,-447.97"/>
<polygon fill="none" stroke="#63b8ff" points="141.55,-448.04 141.96,-440.84 148.76,-438.45 148.35,-445.65 141.55,-448.04"/>
</a>
</g>
<text text-anchor="middle" x="122.38" y="-495" font-family="Helvetica,sans-Serif" font-size="10.00" fill="grey"> +levels</text>
</g>
<!-- Node10 -->
<g id="Node000010" class="node">
<title>Node10</title>
<g id="a_Node000010"><a xlink:href="classfabomatic_1_1_buffer.xhtml" target="_top" xlink:title=" ">
<polygon fill="white" stroke="none" points="501,-475.25 402,-475.25 402,-291.25 501,-291.25 501,-475.25"/>
<text text-anchor="start" x="415.12" y="-461.75" font-family="Helvetica,sans-Serif" font-size="10.00">fabomatic::Buffer</text>
<text text-anchor="start" x="406" y="-446.75" font-family="Helvetica,sans-Serif" font-size="10.00">+</text>
<text text-anchor="start" x="416" y="-446.75" font-family="Helvetica,sans-Serif" font-size="10.00">MAX_MESSAGES</text>
<text text-anchor="start" x="407.5" y="-431.75" font-family="Helvetica,sans-Serif" font-size="10.00">&#45;</text>
<text text-anchor="start" x="416" y="-431.75" font-family="Helvetica,sans-Serif" font-size="10.00">has_changed</text>
<text text-anchor="start" x="407.5" y="-416.75" font-family="Helvetica,sans-Serif" font-size="10.00">&#45;</text>
<text text-anchor="start" x="416" y="-416.75" font-family="Helvetica,sans-Serif" font-size="10.00">MAGIC_NUMBER</text>
<text text-anchor="start" x="406" y="-401.75" font-family="Helvetica,sans-Serif" font-size="10.00">+</text>
<text text-anchor="start" x="416" y="-401.75" font-family="Helvetica,sans-Serif" font-size="10.00">push_back()</text>
<text text-anchor="start" x="406" y="-386.75" font-family="Helvetica,sans-Serif" font-size="10.00">+</text>
<text text-anchor="start" x="416" y="-386.75" font-family="Helvetica,sans-Serif" font-size="10.00">push_front()</text>
<text text-anchor="start" x="406" y="-371.75" font-family="Helvetica,sans-Serif" font-size="10.00">+</text>
<text text-anchor="start" x="416" y="-371.75" font-family="Helvetica,sans-Serif" font-size="10.00">getMessage()</text>
<text text-anchor="start" x="406" y="-356.75" font-family="Helvetica,sans-Serif" font-size="10.00">+</text>
<text text-anchor="start" x="416" y="-356.75" font-family="Helvetica,sans-Serif" font-size="10.00">count()</text>
<text text-anchor="start" x="406" y="-341.75" font-family="Helvetica,sans-Serif" font-size="10.00">+</text>
<text text-anchor="start" x="416" y="-341.75" font-family="Helvetica,sans-Serif" font-size="10.00">toJson()</text>
<text text-anchor="start" x="406" y="-326.75" font-family="Helvetica,sans-Serif" font-size="10.00">+</text>
<text text-anchor="start" x="416" y="-326.75" font-family="Helvetica,sans-Serif" font-size="10.00">hasChanged()</text>
<text text-anchor="start" x="406" y="-311.75" font-family="Helvetica,sans-Serif" font-size="10.00">+</text>
<text text-anchor="start" x="416" y="-311.75" font-family="Helvetica,sans-Serif" font-size="10.00">setChanged()</text>
<text text-anchor="start" x="406" y="-296.75" font-family="Helvetica,sans-Serif" font-size="10.00">+</text>
<text text-anchor="start" x="416" y="-296.75" font-family="Helvetica,sans-Serif" font-size="10.00">fromJsonElement()</text>
<polygon fill="#666666" stroke="#666666" points="402,-458.25 402,-458.25 501,-458.25 501,-458.25 402,-458.25"/>
<polygon fill="#666666" stroke="#666666" points="402,-413.25 402,-413.25 414,-413.25 414,-413.25 402,-413.25"/>
<polygon fill="#666666" stroke="#666666" points="414,-413.25 414,-413.25 501,-413.25 501,-413.25 414,-413.25"/>
<polygon fill="none" stroke="#666666" points="402,-291.25 402,-475.25 501,-475.25 501,-291.25 402,-291.25"/>
</a>
</g>
</g>
<!-- Node10&#45;&gt;Node1 -->
<g id="edge10_Node000001_Node000010" class="edge">
<title>Node10&#45;&gt;Node1</title>
<g id="a_edge10_Node000001_Node000010"><a xlink:title=" ">
<path fill="none" stroke="#63b8ff" d="M449.09,-291.39C449.71,-281.44 450.72,-271.48 452.25,-262 452.55,-260.12 452.88,-258.23 453.22,-256.34"/>
<polygon fill="none" stroke="#63b8ff" points="453.21,-256.4 450.48,-249.72 455.59,-244.63 458.32,-251.31 453.21,-256.4"/>
</a>
</g>
<text text-anchor="middle" x="490.12" y="-263.75" font-family="Helvetica,sans-Serif" font-size="10.00" fill="grey"> +message_buffer</text>
</g>
<!-- Node11 -->
<g id="Node000011" class="node">
<title>Node11</title>
<g id="a_Node000011"><a xlink:title=" ">
<polygon fill="white" stroke="none" points="504,-597.5 399,-597.5 399,-537.5 504,-537.5 504,-597.5"/>
<text text-anchor="start" x="403.88" y="-584" font-family="Helvetica,sans-Serif" font-size="10.00">std::deque&lt; fabomatic</text>
<text text-anchor="start" x="417.75" y="-572.75" font-family="Helvetica,sans-Serif" font-size="10.00">::BufferedMsg &gt;</text>
<text text-anchor="start" x="450" y="-558" font-family="Helvetica,sans-Serif" font-size="10.00"> </text>
<text text-anchor="start" x="450" y="-543" font-family="Helvetica,sans-Serif" font-size="10.00"> </text>
<polygon fill="#666666" stroke="#666666" points="399,-569.5 399,-569.5 504,-569.5 504,-569.5 399,-569.5"/>
<polygon fill="#666666" stroke="#666666" points="399,-554.5 399,-554.5 504,-554.5 504,-554.5 399,-554.5"/>
<polygon fill="none" stroke="#666666" points="399,-537.5 399,-597.5 504,-597.5 504,-537.5 399,-537.5"/>
</a>
</g>
</g>
<!-- Node11&#45;&gt;Node10 -->
<g id="edge11_Node000010_Node000011" class="edge">
<title>Node11&#45;&gt;Node10</title>
<g id="a_edge11_Node000010_Node000011"><a xlink:title=" ">
<path fill="none" stroke="#63b8ff" d="M451.5,-537.62C451.5,-523.74 451.5,-506.18 451.5,-487.92"/>
<polygon fill="none" stroke="#63b8ff" points="451.5,-487.79 447.5,-481.79 451.5,-475.79 455.5,-481.79 451.5,-487.79"/>
</a>
</g>
<text text-anchor="middle" x="479.25" y="-495" font-family="Helvetica,sans-Serif" font-size="10.00" fill="grey"> &#45;msg_queue</text>
</g>
<!-- Node12&#45;&gt;Node11 -->
<g id="edge12_Node000011_Node000012" class="edge">
<title>Node12&#45;&gt;Node11</title>
<g id="a_edge12_Node000011_Node000012"><a xlink:title=" ">
<path fill="none" stroke="#63b8ff" d="M455.65,-671.23C454.86,-651.66 453.94,-628.98 453.17,-609.92"/>
<polygon fill="none" stroke="#63b8ff" points="453.18,-609.97 448.94,-604.13 452.69,-597.98 456.93,-603.81 453.18,-609.97"/>
</a>
</g>
<text text-anchor="middle" x="478.5" y="-637.88" font-family="Helvetica,sans-Serif" font-size="10.00" fill="grey"> +elements</text>
</g>
<!-- Node13&#45;&gt;Node11 -->
<g id="edge14_Node000011_Node000013" class="edge">
<title>Node13&#45;&gt;Node11</title>
<g id="a_edge14_Node000011_Node000013"><a xlink:title=" ">
<path fill="none" stroke="orange" d="M314.76,-682.36C315.11,-665.35 318.23,-645.36 328.75,-630.5 345.45,-606.92 373.78,-591.78 399.02,-582.37"/>
<polygon fill="orange" stroke="orange" points="311.25,-682.1 314.88,-692.06 318.25,-682.01 311.25,-682.1"/>
</a>
</g>
<text text-anchor="middle" x="389.88" y="-637.88" font-family="Helvetica,sans-Serif" font-size="10.00" fill="grey"> &lt; fabomatic::BufferedMsg &gt;</text>
</g>
</g>
</svg>
