<?xml version="1.0" encoding="UTF-8" standalone="no"?>
<!DOCTYPE svg PUBLIC "-//W3C//DTD SVG 1.1//EN"
 "http://www.w3.org/Graphics/SVG/1.1/DTD/svg11.dtd">
<!-- Generated by graphviz version 9.0.0 (20230911.1827)
 -->
<!-- Title: fabomatic::MQTTInterface::AliveQuery::payload Pages: 1 -->
<svg width="324pt" height="76pt"
 viewBox="0.00 0.00 323.50 75.88" xmlns="http://www.w3.org/2000/svg" xmlns:xlink="http://www.w3.org/1999/xlink">
<g id="graph0" class="graph" transform="scale(1 1) rotate(0) translate(4 71.88)">
<title>fabomatic::MQTTInterface::AliveQuery::payload</title>
<!-- Node1 -->
<g id="Node000001" class="node">
<title>Node1</title>
<g id="a_Node000001"><a xlink:title=" ">
<polygon fill="#999999" stroke="#666666" points="129.25,-45.88 0,-45.88 0,-15.37 129.25,-15.37 129.25,-45.88"/>
<text text-anchor="start" x="8" y="-32.38" font-family="Helvetica,sans-Serif" font-size="10.00">fabomatic::MQTTInterface</text>
<text text-anchor="middle" x="64.62" y="-21.12" font-family="Helvetica,sans-Serif" font-size="10.00">::AliveQuery::payload</text>
</a>
</g>
</g>
<!-- Node2 -->
<g id="Node000002" class="node">
<title>Node2</title>
<g id="a_Node000002"><a xlink:href="namespacefabomatic_1_1esp32.xhtml#a96fcda8288dc79527ee9def9af138c95" target="_top" xlink:title="Returns the ESP32 serial number as a string.">
<polygon fill="white" stroke="#666666" points="295.25,-67.88 185.5,-67.88 185.5,-37.38 295.25,-37.38 295.25,-67.88"/>
<text text-anchor="start" x="193.5" y="-54.38" font-family="Helvetica,sans-Serif" font-size="10.00">fabomatic::esp32::esp</text>
<text text-anchor="middle" x="240.38" y="-43.12" font-family="Helvetica,sans-Serif" font-size="10.00">_serial_str</text>
</a>
</g>
</g>
<!-- Node1&#45;&gt;Node2 -->
<g id="edge1_Node000001_Node000002" class="edge">
<title>Node1&#45;&gt;Node2</title>
<g id="a_edge1_Node000001_Node000002"><a xlink:title=" ">
<path fill="none" stroke="#63b8ff" d="M129.34,-38.69C143.92,-40.54 159.45,-42.5 174.1,-44.36"/>
<polygon fill="#63b8ff" stroke="#63b8ff" points="173.24,-47.78 183.6,-45.56 174.12,-40.83 173.24,-47.78"/>
</a>
</g>
</g>
<!-- Node3 -->
<g id="Node000003" class="node">
<title>Node3</title>
<g id="a_Node000003"><a xlink:href="namespacefabomatic_1_1esp32.xhtml#a07750a641e5cfe3207bbdf72813af628" target="_top" xlink:title=" ">
<polygon fill="white" stroke="#666666" points="315.5,-19.25 165.25,-19.25 165.25,0 315.5,0 315.5,-19.25"/>
<text text-anchor="middle" x="240.38" y="-5.75" font-family="Helvetica,sans-Serif" font-size="10.00">fabomatic::esp32::getFreeHeap</text>
</a>
</g>
</g>
<!-- Node1&#45;&gt;Node3 -->
<g id="edge2_Node000001_Node000003" class="edge">
<title>Node1&#45;&gt;Node3</title>
<g id="a_edge2_Node000001_Node000003"><a xlink:title=" ">
<path fill="none" stroke="#63b8ff" d="M129.34,-22.92C137.17,-21.98 145.27,-21 153.37,-20.02"/>
<polygon fill="#63b8ff" stroke="#63b8ff" points="153.77,-23.5 163.27,-18.82 152.93,-16.55 153.77,-23.5"/>
</a>
</g>
</g>
</g>
</svg>
