<?xml version="1.0" encoding="UTF-8" standalone="no"?>
<!DOCTYPE svg PUBLIC "-//W3C//DTD SVG 1.1//EN"
 "http://www.w3.org/Graphics/SVG/1.1/DTD/svg11.dtd">
<!-- Generated by graphviz version 9.0.0 (20230911.1827)
 -->
<!-- Title: fabomatic::BoardLogic::authorize Pages: 1 -->
<svg width="765pt" height="1110pt"
 viewBox="0.00 0.00 764.50 1110.02" xmlns="http://www.w3.org/2000/svg" xmlns:xlink="http://www.w3.org/1999/xlink">
<g id="graph0" class="graph" transform="scale(1 1) rotate(0) translate(4 1106.02)">
<title>fabomatic::BoardLogic::authorize</title>
<!-- Node1 -->
<g id="Node000001" class="node">
<title>Node1</title>
<g id="a_Node000001"><a xlink:title="Checks if the card UID is valid, and tries to check the user in to the machine.">
<polygon fill="#999999" stroke="#666666" points="112.75,-356.53 0,-356.53 0,-326.03 112.75,-326.03 112.75,-356.53"/>
<text text-anchor="start" x="8" y="-343.03" font-family="Helvetica,sans-Serif" font-size="10.00">fabomatic::BoardLogic</text>
<text text-anchor="middle" x="56.38" y="-331.78" font-family="Helvetica,sans-Serif" font-size="10.00">::authorize</text>
</a>
</g>
</g>
<!-- Node2 -->
<g id="Node000002" class="node">
<title>Node2</title>
<g id="a_Node000002"><a xlink:href="classfabomatic_1_1_board_logic.xhtml#ac198a07d00fda36a527cd9db2d97efc1" target="_top" xlink:title=" ">
<polygon fill="white" stroke="#666666" points="266.75,-985.53 154,-985.53 154,-955.03 266.75,-955.03 266.75,-985.53"/>
<text text-anchor="start" x="162" y="-972.03" font-family="Helvetica,sans-Serif" font-size="10.00">fabomatic::BoardLogic</text>
<text text-anchor="middle" x="210.38" y="-960.78" font-family="Helvetica,sans-Serif" font-size="10.00">::beepFail</text>
</a>
</g>
</g>
<!-- Node1&#45;&gt;Node2 -->
<g id="edge1_Node000001_Node000002" class="edge">
<title>Node1&#45;&gt;Node2</title>
<g id="a_edge1_Node000001_Node000002"><a xlink:title=" ">
<path fill="none" stroke="#63b8ff" d="M59.2,-356.88C66.53,-417.47 95.99,-642.71 148.75,-821.28 161.87,-865.69 183.43,-915.08 196.99,-944.37"/>
<polygon fill="#63b8ff" stroke="#63b8ff" points="193.71,-945.61 201.12,-953.18 200.05,-942.64 193.71,-945.61"/>
</a>
</g>
</g>
<!-- Node4 -->
<g id="Node000004" class="node">
<title>Node4</title>
<g id="a_Node000004"><a xlink:href="namespacefabomatic_1_1_tasks.xhtml#a5c20f560f5934822d39ba116a16f3ab6" target="_top" xlink:title="Wait for a delay, allowing OTA updates.">
<polygon fill="white" stroke="#666666" points="756.5,-948.9 639.25,-948.9 639.25,-929.65 756.5,-929.65 756.5,-948.9"/>
<text text-anchor="middle" x="697.88" y="-935.4" font-family="Helvetica,sans-Serif" font-size="10.00">fabomatic::Tasks::delay</text>
</a>
</g>
</g>
<!-- Node1&#45;&gt;Node4 -->
<g id="edge24_Node000001_Node000004" class="edge">
<title>Node1&#45;&gt;Node4</title>
<g id="a_edge24_Node000001_Node000004"><a xlink:title=" ">
<path fill="none" stroke="#63b8ff" d="M57.48,-356.92C58.4,-446.21 67.08,-891.03 148.75,-994.28 274.33,-1153.02 421.67,-1112.71 603.25,-1023.28 635.41,-1007.44 664.82,-977.38 681.78,-957.85"/>
<polygon fill="#63b8ff" stroke="#63b8ff" points="684.32,-960.27 688.09,-950.37 678.97,-955.75 684.32,-960.27"/>
</a>
</g>
</g>
<!-- Node5 -->
<g id="Node000005" class="node">
<title>Node5</title>
<g id="a_Node000005"><a xlink:href="classfabomatic_1_1_board_logic.xhtml#a8e0c35d138333907cc217c9e141091cd" target="_top" xlink:title=" ">
<polygon fill="white" stroke="#666666" points="266.75,-812.53 154,-812.53 154,-782.03 266.75,-782.03 266.75,-812.53"/>
<text text-anchor="start" x="162" y="-799.03" font-family="Helvetica,sans-Serif" font-size="10.00">fabomatic::BoardLogic</text>
<text text-anchor="middle" x="210.38" y="-787.78" font-family="Helvetica,sans-Serif" font-size="10.00">::beepOk</text>
</a>
</g>
</g>
<!-- Node1&#45;&gt;Node5 -->
<g id="edge5_Node000001_Node000005" class="edge">
<title>Node1&#45;&gt;Node5</title>
<g id="a_edge5_Node000001_Node000005"><a xlink:title=" ">
<path fill="none" stroke="#63b8ff" d="M59.33,-356.84C66.22,-408.48 92.06,-578.14 148.75,-706.28 159.44,-730.45 176.43,-755.24 189.71,-772.83"/>
<polygon fill="#63b8ff" stroke="#63b8ff" points="186.84,-774.84 195.72,-780.62 192.38,-770.56 186.84,-774.84"/>
</a>
</g>
</g>
<!-- Node7 -->
<g id="Node000007" class="node">
<title>Node7</title>
<g id="a_Node000007"><a xlink:href="classfabomatic_1_1_board_logic.xhtml#a3c38d7a3ed7952c6d6297efdf50ea4dd" target="_top" xlink:title="Sets the board in the state given.">
<polygon fill="white" stroke="#666666" points="266.75,-471.53 154,-471.53 154,-441.03 266.75,-441.03 266.75,-471.53"/>
<text text-anchor="start" x="162" y="-458.03" font-family="Helvetica,sans-Serif" font-size="10.00">fabomatic::BoardLogic</text>
<text text-anchor="middle" x="210.38" y="-446.78" font-family="Helvetica,sans-Serif" font-size="10.00">::changeStatus</text>
</a>
</g>
</g>
<!-- Node1&#45;&gt;Node7 -->
<g id="edge8_Node000001_Node000007" class="edge">
<title>Node1&#45;&gt;Node7</title>
<g id="a_edge8_Node000001_Node000007"><a xlink:title=" ">
<path fill="none" stroke="#63b8ff" d="M78.19,-357.03C104.46,-376.9 149.8,-411.2 179.69,-433.82"/>
<polygon fill="#63b8ff" stroke="#63b8ff" points="177.52,-436.56 187.6,-439.81 181.74,-430.98 177.52,-436.56"/>
</a>
</g>
</g>
<!-- Node9 -->
<g id="Node000009" class="node">
<title>Node9</title>
<g id="a_Node000009"><a xlink:href="classfabomatic_1_1_machine.xhtml#a39c30eaa242d5cc2ce784dbafeef87e8" target="_top" xlink:title=" ">
<polygon fill="white" stroke="#666666" points="582.62,-590.53 482.62,-590.53 482.62,-560.03 582.62,-560.03 582.62,-590.53"/>
<text text-anchor="start" x="490.62" y="-577.03" font-family="Helvetica,sans-Serif" font-size="10.00">fabomatic::Machine</text>
<text text-anchor="middle" x="532.62" y="-565.78" font-family="Helvetica,sans-Serif" font-size="10.00">::getActiveUser</text>
</a>
</g>
</g>
<!-- Node1&#45;&gt;Node9 -->
<g id="edge25_Node000001_Node000009" class="edge">
<title>Node1&#45;&gt;Node9</title>
<g id="a_edge25_Node000001_Node000009"><a xlink:title=" ">
<path fill="none" stroke="#63b8ff" d="M63.17,-356.99C74.73,-386.07 103.5,-448.23 148.75,-480.28 246.77,-549.7 390.17,-568.59 470.78,-573.6"/>
<polygon fill="#63b8ff" stroke="#63b8ff" points="470.51,-577.09 480.7,-574.16 470.91,-570.1 470.51,-577.09"/>
</a>
</g>
</g>
<!-- Node16 -->
<g id="Node000016" class="node">
<title>Node16</title>
<g id="a_Node000016"><a xlink:href="classfabomatic_1_1_machine.xhtml#a4b40dcb31af466acc85f66c845516c82" target="_top" xlink:title=" ">
<polygon fill="white" stroke="#666666" points="582.62,-296.53 482.62,-296.53 482.62,-266.03 582.62,-266.03 582.62,-296.53"/>
<text text-anchor="start" x="490.62" y="-283.03" font-family="Helvetica,sans-Serif" font-size="10.00">fabomatic::Machine</text>
<text text-anchor="middle" x="532.62" y="-271.78" font-family="Helvetica,sans-Serif" font-size="10.00">::isAllowed</text>
</a>
</g>
</g>
<!-- Node1&#45;&gt;Node16 -->
<g id="edge26_Node000001_Node000016" class="edge">
<title>Node1&#45;&gt;Node16</title>
<g id="a_edge26_Node000001_Node000016"><a xlink:title=" ">
<path fill="none" stroke="#63b8ff" d="M113.17,-334.22C202.84,-322.87 378.33,-300.67 470.98,-288.95"/>
<polygon fill="#63b8ff" stroke="#63b8ff" points="471.15,-292.46 480.63,-287.73 470.27,-285.51 471.15,-292.46"/>
</a>
</g>
</g>
<!-- Node18 -->
<g id="Node000018" class="node">
<title>Node18</title>
<g id="a_Node000018"><a xlink:href="classfabomatic_1_1_machine.xhtml#a34b0deb04494137cf321e94d50dedf90" target="_top" xlink:title=" ">
<polygon fill="white" stroke="#666666" points="591.25,-210.53 474,-210.53 474,-180.03 591.25,-180.03 591.25,-210.53"/>
<text text-anchor="start" x="482" y="-197.03" font-family="Helvetica,sans-Serif" font-size="10.00">fabomatic::Machine</text>
<text text-anchor="middle" x="532.62" y="-185.78" font-family="Helvetica,sans-Serif" font-size="10.00">::isMaintenanceNeeded</text>
</a>
</g>
</g>
<!-- Node1&#45;&gt;Node18 -->
<g id="edge27_Node000001_Node000018" class="edge">
<title>Node1&#45;&gt;Node18</title>
<g id="a_edge27_Node000001_Node000018"><a xlink:title=" ">
<path fill="none" stroke="#63b8ff" d="M75.35,-325.69C92.91,-311.27 120.99,-290.3 148.75,-278.28 252.86,-233.21 383.84,-211.63 462.48,-202.07"/>
<polygon fill="#63b8ff" stroke="#63b8ff" points="462.67,-205.57 472.19,-200.92 461.85,-198.62 462.67,-205.57"/>
</a>
</g>
</g>
<!-- Node21 -->
<g id="Node000021" class="node">
<title>Node21</title>
<g id="a_Node000021"><a xlink:href="namespacefabomatic_1_1card.xhtml#aef091ec171625c69f9d4eab20ebaefec" target="_top" xlink:title="Returns a string representation of the UID.">
<polygon fill="white" stroke="#666666" points="590.5,-247.9 474.75,-247.9 474.75,-228.65 590.5,-228.65 590.5,-247.9"/>
<text text-anchor="middle" x="532.62" y="-234.4" font-family="Helvetica,sans-Serif" font-size="10.00">fabomatic::card::uid_str</text>
</a>
</g>
</g>
<!-- Node1&#45;&gt;Node21 -->
<g id="edge53_Node000001_Node000021" class="edge">
<title>Node1&#45;&gt;Node21</title>
<g id="a_edge53_Node000001_Node000021"><a xlink:title=" ">
<path fill="none" stroke="#63b8ff" d="M99.31,-325.67C114.71,-320.3 132.38,-314.57 148.75,-310.28 257.41,-281.78 386.23,-259.96 463.32,-248.14"/>
<polygon fill="#63b8ff" stroke="#63b8ff" points="463.45,-251.66 472.81,-246.7 462.4,-244.74 463.45,-251.66"/>
</a>
</g>
</g>
<!-- Node22 -->
<g id="Node000022" class="node">
<title>Node22</title>
<g id="a_Node000022"><a xlink:href="classfabomatic_1_1_machine.xhtml#ac0591da2ff437cd6c7cc91bd09b4dff7" target="_top" xlink:title="Try to login the user and start the usage timer.">
<polygon fill="white" stroke="#666666" points="260.38,-197.53 160.38,-197.53 160.38,-167.03 260.38,-167.03 260.38,-197.53"/>
<text text-anchor="start" x="168.38" y="-184.03" font-family="Helvetica,sans-Serif" font-size="10.00">fabomatic::Machine</text>
<text text-anchor="middle" x="210.38" y="-172.78" font-family="Helvetica,sans-Serif" font-size="10.00">::login</text>
</a>
</g>
</g>
<!-- Node1&#45;&gt;Node22 -->
<g id="edge28_Node000001_Node000022" class="edge">
<title>Node1&#45;&gt;Node22</title>
<g id="a_edge28_Node000001_Node000022"><a xlink:title=" ">
<path fill="none" stroke="#63b8ff" d="M64.91,-325.72C78.44,-299.18 109.15,-244.78 148.75,-211.28 151.97,-208.56 155.48,-206.02 159.15,-203.68"/>
<polygon fill="#63b8ff" stroke="#63b8ff" points="160.89,-206.72 167.8,-198.69 157.39,-200.66 160.89,-206.72"/>
</a>
</g>
</g>
<!-- Node23 -->
<g id="Node000023" class="node">
<title>Node23</title>
<g id="a_Node000023"><a xlink:href="classfabomatic_1_1_board_logic.xhtml#a420a0d05a91a02c27ad3b63a030738a0" target="_top" xlink:title="Asks the user to keep the RFID tag on the reader as confirmation.">
<polygon fill="white" stroke="#666666" points="423.38,-786.53 310.62,-786.53 310.62,-756.03 423.38,-756.03 423.38,-786.53"/>
<text text-anchor="start" x="318.62" y="-773.03" font-family="Helvetica,sans-Serif" font-size="10.00">fabomatic::BoardLogic</text>
<text text-anchor="middle" x="367" y="-761.78" font-family="Helvetica,sans-Serif" font-size="10.00">::longTap</text>
</a>
</g>
</g>
<!-- Node1&#45;&gt;Node23 -->
<g id="edge29_Node000001_Node000023" class="edge">
<title>Node1&#45;&gt;Node23</title>
<g id="a_edge29_Node000001_Node000023"><a xlink:title=" ">
<path fill="none" stroke="#63b8ff" d="M60.3,-356.97C68.52,-397.98 94.84,-510.45 148.75,-587.28 198.71,-658.48 282.65,-718.74 330.24,-749.46"/>
<polygon fill="#63b8ff" stroke="#63b8ff" points="328.22,-752.32 338.54,-754.74 331.98,-746.42 328.22,-752.32"/>
</a>
</g>
</g>
<!-- Node27 -->
<g id="Node000027" class="node">
<title>Node27</title>
<g id="a_Node000027"><a xlink:href="classfabomatic_1_1_fab_backend.xhtml#a4a2b36c40f955744965d385e8cad6fb7" target="_top" xlink:title="Registers a maintenance action.">
<polygon fill="white" stroke="#666666" points="269.38,-148.53 151.38,-148.53 151.38,-118.03 269.38,-118.03 269.38,-148.53"/>
<text text-anchor="start" x="159.38" y="-135.03" font-family="Helvetica,sans-Serif" font-size="10.00">fabomatic::FabBackend</text>
<text text-anchor="middle" x="210.38" y="-123.78" font-family="Helvetica,sans-Serif" font-size="10.00">::registerMaintenance</text>
</a>
</g>
</g>
<!-- Node1&#45;&gt;Node27 -->
<g id="edge39_Node000001_Node000027" class="edge">
<title>Node1&#45;&gt;Node27</title>
<g id="a_edge39_Node000001_Node000027"><a xlink:title=" ">
<path fill="none" stroke="#63b8ff" d="M61.12,-325.78C70.23,-291.14 96.76,-206.66 148.75,-158.28 149.83,-157.27 150.95,-156.31 152.12,-155.38"/>
<polygon fill="#63b8ff" stroke="#63b8ff" points="154.07,-158.28 160.4,-149.79 150.16,-152.48 154.07,-158.28"/>
</a>
</g>
</g>
<!-- Node28 -->
<g id="Node000028" class="node">
<title>Node28</title>
<g id="a_Node000028"><a xlink:href="classfabomatic_1_1_machine.xhtml#a921c78777a6cb9f7fdb9780a8c1aa8c0" target="_top" xlink:title=" ">
<polygon fill="white" stroke="#666666" points="272,-99.53 148.75,-99.53 148.75,-69.03 272,-69.03 272,-99.53"/>
<text text-anchor="start" x="156.75" y="-86.03" font-family="Helvetica,sans-Serif" font-size="10.00">fabomatic::Machine</text>
<text text-anchor="middle" x="210.38" y="-74.78" font-family="Helvetica,sans-Serif" font-size="10.00">::setMaintenanceNeeded</text>
</a>
</g>
</g>
<!-- Node1&#45;&gt;Node28 -->
<g id="edge40_Node000001_Node000028" class="edge">
<title>Node1&#45;&gt;Node28</title>
<g id="a_edge40_Node000001_Node000028"><a xlink:title=" ">
<path fill="none" stroke="#63b8ff" d="M59.27,-325.76C65.05,-284.87 86.05,-172.99 148.75,-109.28 149.63,-108.39 150.54,-107.52 151.49,-106.69"/>
<polygon fill="#63b8ff" stroke="#63b8ff" points="153.48,-109.57 159.51,-100.86 149.37,-103.91 153.48,-109.57"/>
</a>
</g>
</g>
<!-- Node29 -->
<g id="Node000029" class="node">
<title>Node29</title>
<g id="a_Node000029"><a xlink:href="classfabomatic_1_1_fab_backend.xhtml#a2b45b2e58a6358c640c48e636e3cb5db" target="_top" xlink:title="Registers the start of machine usage.">
<polygon fill="white" stroke="#666666" points="269.38,-50.53 151.38,-50.53 151.38,-20.03 269.38,-20.03 269.38,-50.53"/>
<text text-anchor="start" x="159.38" y="-37.03" font-family="Helvetica,sans-Serif" font-size="10.00">fabomatic::FabBackend</text>
<text text-anchor="middle" x="210.38" y="-25.78" font-family="Helvetica,sans-Serif" font-size="10.00">::startUse</text>
</a>
</g>
</g>
<!-- Node1&#45;&gt;Node29 -->
<g id="edge41_Node000001_Node000029" class="edge">
<title>Node1&#45;&gt;Node29</title>
<g id="a_edge41_Node000001_Node000029"><a xlink:title=" ">
<path fill="none" stroke="#63b8ff" d="M58.04,-325.64C60.82,-279.09 75.2,-139.7 148.75,-60.28 149.58,-59.38 150.45,-58.51 151.35,-57.68"/>
<polygon fill="#63b8ff" stroke="#63b8ff" points="153.17,-60.69 159.01,-51.86 148.93,-55.12 153.17,-60.69"/>
</a>
</g>
</g>
<!-- Node30 -->
<g id="Node000030" class="node">
<title>Node30</title>
<g id="a_Node000030"><a xlink:href="classfabomatic_1_1_auth_provider.xhtml#aeae9923535dcf6cfa9eaf9e5f90e5e64" target="_top" xlink:title="Verifies the card ID against the server (if available) or the whitelist.">
<polygon fill="white" stroke="#666666" points="270.12,-378.53 150.62,-378.53 150.62,-348.03 270.12,-348.03 270.12,-378.53"/>
<text text-anchor="start" x="158.62" y="-365.03" font-family="Helvetica,sans-Serif" font-size="10.00">fabomatic::AuthProvider</text>
<text text-anchor="middle" x="210.38" y="-353.78" font-family="Helvetica,sans-Serif" font-size="10.00">::tryLogin</text>
</a>
</g>
</g>
<!-- Node1&#45;&gt;Node30 -->
<g id="edge42_Node000001_Node000030" class="edge">
<title>Node1&#45;&gt;Node30</title>
<g id="a_edge42_Node000001_Node000030"><a xlink:title=" ">
<path fill="none" stroke="#63b8ff" d="M113.11,-349.35C121.54,-350.56 130.32,-351.84 139,-353.09"/>
<polygon fill="#63b8ff" stroke="#63b8ff" points="138.43,-356.55 148.83,-354.51 139.43,-349.62 138.43,-356.55"/>
</a>
</g>
</g>
<!-- Node3 -->
<g id="Node000003" class="node">
<title>Node3</title>
<g id="a_Node000003"><a xlink:href="classfabomatic_1_1_buzzer.xhtml#a02e292870e840139082bb966cb6dd0b2" target="_top" xlink:title=" ">
<polygon fill="white" stroke="#666666" points="415.5,-1047.53 318.5,-1047.53 318.5,-1017.03 415.5,-1017.03 415.5,-1047.53"/>
<text text-anchor="start" x="326.5" y="-1034.03" font-family="Helvetica,sans-Serif" font-size="10.00">fabomatic::Buzzer::</text>
<text text-anchor="middle" x="367" y="-1022.78" font-family="Helvetica,sans-Serif" font-size="10.00">beepFail</text>
</a>
</g>
</g>
<!-- Node2&#45;&gt;Node3 -->
<g id="edge2_Node000002_Node000003" class="edge">
<title>Node2&#45;&gt;Node3</title>
<g id="a_edge2_Node000002_Node000003"><a xlink:title=" ">
<path fill="none" stroke="#63b8ff" d="M250.39,-985.92C270.37,-993.93 294.91,-1003.77 316.23,-1012.32"/>
<polygon fill="#63b8ff" stroke="#63b8ff" points="314.74,-1015.49 325.32,-1015.97 317.34,-1009 314.74,-1015.49"/>
</a>
</g>
</g>
<!-- Node3&#45;&gt;Node4 -->
<g id="edge3_Node000003_Node000004" class="edge">
<title>Node3&#45;&gt;Node4</title>
<g id="a_edge3_Node000003_Node000004"><a xlink:title=" ">
<path fill="none" stroke="#63b8ff" d="M415.71,-1029.75C464.17,-1026 540.78,-1016.78 603.25,-994.28 629.14,-984.96 655.94,-968.38 674.2,-955.86"/>
<polygon fill="#63b8ff" stroke="#63b8ff" points="676,-958.87 682.17,-950.26 671.98,-953.15 676,-958.87"/>
</a>
</g>
</g>
<!-- Node4&#45;&gt;Node4 -->
<g id="edge4_Node000004_Node000004" class="edge">
<title>Node4&#45;&gt;Node4</title>
<g id="a_edge4_Node000004_Node000004"><a xlink:title=" ">
<path fill="none" stroke="#63b8ff" d="M672,-949.19C660.2,-957.8 668.83,-966.9 697.88,-966.9 714.21,-966.9 724.09,-964.02 727.51,-959.97"/>
<polygon fill="#63b8ff" stroke="#63b8ff" points="730.84,-958.91 724.24,-950.62 724.23,-961.22 730.84,-958.91"/>
</a>
</g>
</g>
<!-- Node6 -->
<g id="Node000006" class="node">
<title>Node6</title>
<g id="a_Node000006"><a xlink:href="classfabomatic_1_1_buzzer.xhtml#af732a4349a272129c2f5f1ce2522ffd5" target="_top" xlink:title=" ">
<polygon fill="white" stroke="#666666" points="415.5,-998.53 318.5,-998.53 318.5,-968.03 415.5,-968.03 415.5,-998.53"/>
<text text-anchor="start" x="326.5" y="-985.03" font-family="Helvetica,sans-Serif" font-size="10.00">fabomatic::Buzzer::</text>
<text text-anchor="middle" x="367" y="-973.78" font-family="Helvetica,sans-Serif" font-size="10.00">beepOk</text>
</a>
</g>
</g>
<!-- Node5&#45;&gt;Node6 -->
<g id="edge6_Node000005_Node000006" class="edge">
<title>Node5&#45;&gt;Node6</title>
<g id="a_edge6_Node000005_Node000006"><a xlink:title=" ">
<path fill="none" stroke="#63b8ff" d="M224.29,-812.82C251.24,-845.23 313.61,-920.26 345.87,-959.06"/>
<polygon fill="#63b8ff" stroke="#63b8ff" points="342.96,-961.04 352.04,-966.49 348.34,-956.56 342.96,-961.04"/>
</a>
</g>
</g>
<!-- Node6&#45;&gt;Node4 -->
<g id="edge7_Node000006_Node000004" class="edge">
<title>Node6&#45;&gt;Node4</title>
<g id="a_edge7_Node000006_Node000004"><a xlink:title=" ">
<path fill="none" stroke="#63b8ff" d="M415.85,-986.26C463.77,-988.17 539.38,-988.26 603.25,-975.28 625.01,-970.85 648.33,-961.9 666.25,-954.03"/>
<polygon fill="#63b8ff" stroke="#63b8ff" points="667.6,-957.26 675.27,-949.95 664.71,-950.89 667.6,-957.26"/>
</a>
</g>
</g>
<!-- Node8 -->
<g id="Node000008" class="node">
<title>Node8</title>
<g id="a_Node000008"><a xlink:href="classfabomatic_1_1_board_logic.xhtml#a47b4d515c0d3488eceb49769036bce8b" target="_top" xlink:title="Updates the LCD screen as per the current status.">
<polygon fill="white" stroke="#666666" points="423.38,-495.53 310.62,-495.53 310.62,-465.03 423.38,-465.03 423.38,-495.53"/>
<text text-anchor="start" x="318.62" y="-482.03" font-family="Helvetica,sans-Serif" font-size="10.00">fabomatic::BoardLogic</text>
<text text-anchor="middle" x="367" y="-470.78" font-family="Helvetica,sans-Serif" font-size="10.00">::updateLCD</text>
</a>
</g>
</g>
<!-- Node7&#45;&gt;Node8 -->
<g id="edge9_Node000007_Node000008" class="edge">
<title>Node7&#45;&gt;Node8</title>
<g id="a_edge9_Node000007_Node000008"><a xlink:title=" ">
<path fill="none" stroke="#63b8ff" d="M267.2,-464.94C277.49,-466.54 288.33,-468.22 298.92,-469.87"/>
<polygon fill="#63b8ff" stroke="#63b8ff" points="298.34,-473.32 308.76,-471.39 299.42,-466.4 298.34,-473.32"/>
</a>
</g>
</g>
<!-- Node8&#45;&gt;Node9 -->
<g id="edge10_Node000008_Node000009" class="edge">
<title>Node8&#45;&gt;Node9</title>
<g id="a_edge10_Node000008_Node000009"><a xlink:title=" ">
<path fill="none" stroke="#63b8ff" d="M399.13,-495.86C408.13,-500.93 417.75,-506.9 426,-513.28 444.15,-527.31 442.71,-537.86 462,-550.28 465.23,-552.36 468.66,-554.29 472.19,-556.09"/>
<polygon fill="#63b8ff" stroke="#63b8ff" points="470.42,-559.13 480.97,-560.15 473.36,-552.77 470.42,-559.13"/>
</a>
</g>
</g>
<!-- Node10 -->
<g id="Node000010" class="node">
<title>Node10</title>
<g id="a_Node000010"><a xlink:href="classfabomatic_1_1_board_logic.xhtml#a462b4b6149ca7bf33b699eb3181c969f" target="_top" xlink:title=" ">
<polygon fill="white" stroke="#666666" points="589,-639.53 476.25,-639.53 476.25,-609.03 589,-609.03 589,-639.53"/>
<text text-anchor="start" x="484.25" y="-626.03" font-family="Helvetica,sans-Serif" font-size="10.00">fabomatic::BoardLogic</text>
<text text-anchor="middle" x="532.62" y="-614.78" font-family="Helvetica,sans-Serif" font-size="10.00">::getLcd</text>
</a>
</g>
</g>
<!-- Node8&#45;&gt;Node10 -->
<g id="edge11_Node000008_Node000010" class="edge">
<title>Node8&#45;&gt;Node10</title>
<g id="a_edge11_Node000008_Node000010"><a xlink:title=" ">
<path fill="none" stroke="#63b8ff" d="M404.14,-495.97C412.08,-500.66 419.93,-506.43 426,-513.28 453.48,-544.29 431.95,-570.75 462,-599.28 463.41,-600.62 464.89,-601.88 466.44,-603.08"/>
<polygon fill="#63b8ff" stroke="#63b8ff" points="464.34,-605.89 474.63,-608.42 468.16,-600.03 464.34,-605.89"/>
</a>
</g>
</g>
<!-- Node11 -->
<g id="Node000011" class="node">
<title>Node11</title>
<g id="a_Node000011"><a xlink:href="classfabomatic_1_1_board_logic.xhtml#a164e40105242d0b7c56c6b4f21155101" target="_top" xlink:title="Gets the current machine.">
<polygon fill="white" stroke="#666666" points="589,-492.53 476.25,-492.53 476.25,-462.03 589,-462.03 589,-492.53"/>
<text text-anchor="start" x="484.25" y="-479.03" font-family="Helvetica,sans-Serif" font-size="10.00">fabomatic::BoardLogic</text>
<text text-anchor="middle" x="532.62" y="-467.78" font-family="Helvetica,sans-Serif" font-size="10.00">::getMachine</text>
</a>
</g>
</g>
<!-- Node8&#45;&gt;Node11 -->
<g id="edge13_Node000008_Node000011" class="edge">
<title>Node8&#45;&gt;Node11</title>
<g id="a_edge13_Node000008_Node000011"><a xlink:title=" ">
<path fill="none" stroke="#63b8ff" d="M423.85,-479.25C437.02,-479.01 451.18,-478.75 464.77,-478.5"/>
<polygon fill="#63b8ff" stroke="#63b8ff" points="464.58,-482.01 474.51,-478.33 464.45,-475.01 464.58,-482.01"/>
</a>
</g>
</g>
<!-- Node12 -->
<g id="Node000012" class="node">
<title>Node12</title>
<g id="a_Node000012"><a xlink:href="classfabomatic_1_1_machine.xhtml#a1637e99f2d70262d2ab26f69ed4f0e47" target="_top" xlink:title=" ">
<polygon fill="white" stroke="#666666" points="582.62,-443.53 482.62,-443.53 482.62,-413.03 582.62,-413.03 582.62,-443.53"/>
<text text-anchor="start" x="490.62" y="-430.03" font-family="Helvetica,sans-Serif" font-size="10.00">fabomatic::Machine</text>
<text text-anchor="middle" x="532.62" y="-418.78" font-family="Helvetica,sans-Serif" font-size="10.00">::getMachineName</text>
</a>
</g>
</g>
<!-- Node8&#45;&gt;Node12 -->
<g id="edge14_Node000008_Node000012" class="edge">
<title>Node8&#45;&gt;Node12</title>
<g id="a_edge14_Node000008_Node000012"><a xlink:title=" ">
<path fill="none" stroke="#63b8ff" d="M417.54,-464.54C434.52,-459.14 453.71,-453.04 471.44,-447.41"/>
<polygon fill="#63b8ff" stroke="#63b8ff" points="472.34,-450.79 480.81,-444.43 470.22,-444.12 472.34,-450.79"/>
</a>
</g>
</g>
<!-- Node13 -->
<g id="Node000013" class="node">
<title>Node13</title>
<g id="a_Node000013"><a xlink:href="classfabomatic_1_1_machine.xhtml#ad511c567c7cb7487d19019550c9a4e32" target="_top" xlink:title=" ">
<polygon fill="white" stroke="#666666" points="585.62,-394.53 479.62,-394.53 479.62,-364.03 585.62,-364.03 585.62,-394.53"/>
<text text-anchor="start" x="487.62" y="-381.03" font-family="Helvetica,sans-Serif" font-size="10.00">fabomatic::Machine</text>
<text text-anchor="middle" x="532.62" y="-369.78" font-family="Helvetica,sans-Serif" font-size="10.00">::getMaintenanceInfo</text>
</a>
</g>
</g>
<!-- Node8&#45;&gt;Node13 -->
<g id="edge15_Node000008_Node000013" class="edge">
<title>Node8&#45;&gt;Node13</title>
<g id="a_edge15_Node000008_Node000013"><a xlink:title=" ">
<path fill="none" stroke="#63b8ff" d="M411.66,-464.64C416.74,-461.91 421.66,-458.8 426,-455.28 447.55,-437.8 439.92,-421.08 462,-404.28 464.28,-402.54 466.69,-400.92 469.2,-399.4"/>
<polygon fill="#63b8ff" stroke="#63b8ff" points="470.7,-402.57 477.88,-394.78 467.41,-396.39 470.7,-402.57"/>
</a>
</g>
</g>
<!-- Node14 -->
<g id="Node000014" class="node">
<title>Node14</title>
<g id="a_Node000014"><a xlink:href="classfabomatic_1_1_machine.xhtml#a3c5304fd80e0cc1c2118a59c64222d6d" target="_top" xlink:title="Returns the current power state of the machine.">
<polygon fill="white" stroke="#666666" points="582.62,-786.53 482.62,-786.53 482.62,-756.03 582.62,-756.03 582.62,-786.53"/>
<text text-anchor="start" x="490.62" y="-773.03" font-family="Helvetica,sans-Serif" font-size="10.00">fabomatic::Machine</text>
<text text-anchor="middle" x="532.62" y="-761.78" font-family="Helvetica,sans-Serif" font-size="10.00">::getPowerState</text>
</a>
</g>
</g>
<!-- Node8&#45;&gt;Node14 -->
<g id="edge16_Node000008_Node000014" class="edge">
<title>Node8&#45;&gt;Node14</title>
<g id="a_edge16_Node000008_Node000014"><a xlink:title=" ">
<path fill="none" stroke="#63b8ff" d="M368.99,-495.89C372.67,-541.08 389.45,-673.36 462,-746.28 465.12,-749.41 468.66,-752.16 472.46,-754.56"/>
<polygon fill="#63b8ff" stroke="#63b8ff" points="470.51,-757.49 480.97,-759.14 473.82,-751.32 470.51,-757.49"/>
</a>
</g>
</g>
<!-- Node15 -->
<g id="Node000015" class="node">
<title>Node15</title>
<g id="a_Node000015"><a xlink:href="classfabomatic_1_1_machine.xhtml#a9c845a163660550fa779516a8be8681a" target="_top" xlink:title="Duration of the current usage, or 0s.">
<polygon fill="white" stroke="#666666" points="582.62,-345.53 482.62,-345.53 482.62,-315.03 582.62,-315.03 582.62,-345.53"/>
<text text-anchor="start" x="490.62" y="-332.03" font-family="Helvetica,sans-Serif" font-size="10.00">fabomatic::Machine</text>
<text text-anchor="middle" x="532.62" y="-320.78" font-family="Helvetica,sans-Serif" font-size="10.00">::getUsageDuration</text>
</a>
</g>
</g>
<!-- Node8&#45;&gt;Node15 -->
<g id="edge17_Node000008_Node000015" class="edge">
<title>Node8&#45;&gt;Node15</title>
<g id="a_edge17_Node000008_Node000015"><a xlink:title=" ">
<path fill="none" stroke="#63b8ff" d="M414.36,-464.65C418.64,-461.98 422.62,-458.87 426,-455.28 458.36,-420.87 428.58,-388.67 462,-355.28 465.13,-352.15 468.68,-349.41 472.48,-347.01"/>
<polygon fill="#63b8ff" stroke="#63b8ff" points="473.84,-350.25 481,-342.44 470.53,-344.09 473.84,-350.25"/>
</a>
</g>
</g>
<!-- Node8&#45;&gt;Node16 -->
<g id="edge18_Node000008_Node000016" class="edge">
<title>Node8&#45;&gt;Node16</title>
<g id="a_edge18_Node000008_Node000016"><a xlink:title=" ">
<path fill="none" stroke="#63b8ff" d="M415.33,-464.64C419.31,-461.98 422.96,-458.88 426,-455.28 469.91,-403.19 416.49,-356.97 462,-306.28 465,-302.93 468.49,-300.04 472.26,-297.53"/>
<polygon fill="#63b8ff" stroke="#63b8ff" points="473.77,-300.69 480.82,-292.78 470.38,-294.57 473.77,-300.69"/>
</a>
</g>
</g>
<!-- Node17 -->
<g id="Node000017" class="node">
<title>Node17</title>
<g id="a_Node000017"><a xlink:href="classfabomatic_1_1_machine.xhtml#a9fd614d86b6108a5a7b54fc9eee0d9a6" target="_top" xlink:title="Indicates if the machine has been configured.">
<polygon fill="white" stroke="#666666" points="582.62,-541.53 482.62,-541.53 482.62,-511.03 582.62,-511.03 582.62,-541.53"/>
<text text-anchor="start" x="490.62" y="-528.03" font-family="Helvetica,sans-Serif" font-size="10.00">fabomatic::Machine</text>
<text text-anchor="middle" x="532.62" y="-516.78" font-family="Helvetica,sans-Serif" font-size="10.00">::isConfigured</text>
</a>
</g>
</g>
<!-- Node8&#45;&gt;Node17 -->
<g id="edge19_Node000008_Node000017" class="edge">
<title>Node8&#45;&gt;Node17</title>
<g id="a_edge19_Node000008_Node000017"><a xlink:title=" ">
<path fill="none" stroke="#63b8ff" d="M423.85,-495.98C439.12,-500.27 455.74,-504.95 471.26,-509.31"/>
<polygon fill="#63b8ff" stroke="#63b8ff" points="470.29,-512.67 480.86,-512.01 472.18,-505.93 470.29,-512.67"/>
</a>
</g>
</g>
<!-- Node8&#45;&gt;Node18 -->
<g id="edge20_Node000008_Node000018" class="edge">
<title>Node8&#45;&gt;Node18</title>
<g id="a_edge20_Node000008_Node000018"><a xlink:title=" ">
<path fill="none" stroke="#63b8ff" d="M415.93,-464.72C419.73,-462.04 423.19,-458.92 426,-455.28 490.85,-371.3 394.04,-300.76 462,-219.28 462.82,-218.3 463.68,-217.35 464.58,-216.45"/>
<polygon fill="#63b8ff" stroke="#63b8ff" points="466.72,-219.22 472.38,-210.26 462.37,-213.73 466.72,-219.22"/>
</a>
</g>
</g>
<!-- Node19 -->
<g id="Node000019" class="node">
<title>Node19</title>
<g id="a_Node000019"><a xlink:href="classfabomatic_1_1_fab_backend.xhtml#aef092e0e1db0c3539d5474fad2456255" target="_top" xlink:title="Checks if the client is online.">
<polygon fill="white" stroke="#666666" points="591.62,-688.53 473.62,-688.53 473.62,-658.03 591.62,-658.03 591.62,-688.53"/>
<text text-anchor="start" x="481.62" y="-675.03" font-family="Helvetica,sans-Serif" font-size="10.00">fabomatic::FabBackend</text>
<text text-anchor="middle" x="532.62" y="-663.78" font-family="Helvetica,sans-Serif" font-size="10.00">::isOnline</text>
</a>
</g>
</g>
<!-- Node8&#45;&gt;Node19 -->
<g id="edge21_Node000008_Node000019" class="edge">
<title>Node8&#45;&gt;Node19</title>
<g id="a_edge21_Node000008_Node000019"><a xlink:title=" ">
<path fill="none" stroke="#63b8ff" d="M405.72,-495.94C413.33,-500.57 420.62,-506.31 426,-513.28 463.93,-562.45 419.98,-602.56 462,-648.28 462.72,-649.06 463.47,-649.83 464.24,-650.56"/>
<polygon fill="#63b8ff" stroke="#63b8ff" points="462.08,-653.31 472.13,-656.66 466.36,-647.77 462.08,-653.31"/>
</a>
</g>
</g>
<!-- Node20 -->
<g id="Node000020" class="node">
<title>Node20</title>
<g id="a_Node000020"><a xlink:href="classfabomatic_1_1_machine.xhtml#a871958cc57845c8651cf1058ed9b30e4" target="_top" xlink:title="Indicates if the machine will power down in less than BEEP_REMAINING_MINUTES.">
<polygon fill="white" stroke="#666666" points="588.62,-737.53 476.62,-737.53 476.62,-707.03 588.62,-707.03 588.62,-737.53"/>
<text text-anchor="start" x="484.62" y="-724.03" font-family="Helvetica,sans-Serif" font-size="10.00">fabomatic::Machine</text>
<text text-anchor="middle" x="532.62" y="-712.78" font-family="Helvetica,sans-Serif" font-size="10.00">::isShutdownImminent</text>
</a>
</g>
</g>
<!-- Node8&#45;&gt;Node20 -->
<g id="edge22_Node000008_Node000020" class="edge">
<title>Node8&#45;&gt;Node20</title>
<g id="a_edge22_Node000008_Node000020"><a xlink:title=" ">
<path fill="none" stroke="#63b8ff" d="M370.4,-495.83C377.26,-535.19 400.61,-639.7 462,-697.28 463.58,-698.76 465.26,-700.16 467.01,-701.47"/>
<polygon fill="#63b8ff" stroke="#63b8ff" points="464.7,-704.15 475.01,-706.57 468.46,-698.25 464.7,-704.15"/>
</a>
</g>
</g>
<!-- Node8&#45;&gt;Node21 -->
<g id="edge23_Node000008_Node000021" class="edge">
<title>Node8&#45;&gt;Node21</title>
<g id="a_edge23_Node000008_Node000021"><a xlink:title=" ">
<path fill="none" stroke="#63b8ff" d="M415.82,-464.63C419.65,-461.98 423.13,-458.88 426,-455.28 481.67,-385.27 401.55,-323.2 462,-257.28 463,-256.19 464.06,-255.16 465.16,-254.18"/>
<polygon fill="#63b8ff" stroke="#63b8ff" points="466.96,-257.19 473.22,-248.64 462.99,-251.43 466.96,-257.19"/>
</a>
</g>
</g>
<!-- Node10&#45;&gt;Node4 -->
<g id="edge12_Node000010_Node000004" class="edge">
<title>Node10&#45;&gt;Node4</title>
<g id="a_edge12_Node000010_Node000004"><a xlink:title=" ">
<path fill="none" stroke="#63b8ff" d="M589.36,-638.77C594.47,-641.66 599.23,-645.13 603.25,-649.28 678.38,-726.89 693.22,-865.16 696.15,-917.97"/>
<polygon fill="#63b8ff" stroke="#63b8ff" points="692.65,-917.87 696.6,-927.7 699.64,-917.55 692.65,-917.87"/>
</a>
</g>
</g>
<!-- Node23&#45;&gt;Node4 -->
<g id="edge30_Node000023_Node000004" class="edge">
<title>Node23&#45;&gt;Node4</title>
<g id="a_edge30_Node000023_Node000004"><a xlink:title=" ">
<path fill="none" stroke="#63b8ff" d="M371.04,-786.77C378.87,-821.97 403.39,-907.61 462,-942.28 521.27,-977.33 604.53,-964.84 654.35,-952.27"/>
<polygon fill="#63b8ff" stroke="#63b8ff" points="655.12,-955.69 663.9,-949.74 653.33,-948.92 655.12,-955.69"/>
</a>
</g>
</g>
<!-- Node23&#45;&gt;Node10 -->
<g id="edge31_Node000023_Node000010" class="edge">
<title>Node23&#45;&gt;Node10</title>
<g id="a_edge31_Node000023_Node000010"><a xlink:title=" ">
<path fill="none" stroke="#63b8ff" d="M376,-755.88C390.06,-730.24 421.58,-678.72 462,-649.28 463.98,-647.83 466.06,-646.47 468.2,-645.17"/>
<polygon fill="#63b8ff" stroke="#63b8ff" points="469.44,-648.48 476.6,-640.67 466.13,-642.31 469.44,-648.48"/>
</a>
</g>
</g>
<!-- Node23&#45;&gt;Node14 -->
<g id="edge32_Node000023_Node000014" class="edge">
<title>Node23&#45;&gt;Node14</title>
<g id="a_edge32_Node000023_Node000014"><a xlink:title=" ">
<path fill="none" stroke="#63b8ff" d="M423.85,-771.28C439.12,-771.28 455.74,-771.28 471.26,-771.28"/>
<polygon fill="#63b8ff" stroke="#63b8ff" points="470.81,-774.78 480.81,-771.28 470.81,-767.78 470.81,-774.78"/>
</a>
</g>
</g>
<!-- Node23&#45;&gt;Node19 -->
<g id="edge35_Node000023_Node000019" class="edge">
<title>Node23&#45;&gt;Node19</title>
<g id="a_edge35_Node000023_Node000019"><a xlink:title=" ">
<path fill="none" stroke="#63b8ff" d="M384.52,-755.8C402.45,-739.66 432.48,-714.5 462,-698.28 465,-696.63 468.13,-695.05 471.33,-693.55"/>
<polygon fill="#63b8ff" stroke="#63b8ff" points="472.56,-696.84 480.32,-689.63 469.76,-690.42 472.56,-696.84"/>
</a>
</g>
</g>
<!-- Node23&#45;&gt;Node20 -->
<g id="edge36_Node000023_Node000020" class="edge">
<title>Node23&#45;&gt;Node20</title>
<g id="a_edge36_Node000023_Node000020"><a xlink:title=" ">
<path fill="none" stroke="#63b8ff" d="M420.22,-755.64C435.5,-751.07 452.36,-746.02 468.25,-741.26"/>
<polygon fill="#63b8ff" stroke="#63b8ff" points="469.03,-744.68 477.61,-738.45 467.02,-737.97 469.03,-744.68"/>
</a>
</g>
</g>
<!-- Node24 -->
<g id="Node000024" class="node">
<title>Node24</title>
<g id="a_Node000024"><a xlink:href="classfabomatic_1_1_board_logic.xhtml#a7b151fca2de8263b021b8b6f26e5d0ab" target="_top" xlink:title=" ">
<polygon fill="white" stroke="#666666" points="589,-933.53 476.25,-933.53 476.25,-903.03 589,-903.03 589,-933.53"/>
<text text-anchor="start" x="484.25" y="-920.03" font-family="Helvetica,sans-Serif" font-size="10.00">fabomatic::BoardLogic</text>
<text text-anchor="middle" x="532.62" y="-908.78" font-family="Helvetica,sans-Serif" font-size="10.00">::getRfid</text>
</a>
</g>
</g>
<!-- Node23&#45;&gt;Node24 -->
<g id="edge33_Node000023_Node000024" class="edge">
<title>Node23&#45;&gt;Node24</title>
<g id="a_edge33_Node000023_Node000024"><a xlink:title=" ">
<path fill="none" stroke="#63b8ff" d="M376,-786.67C390.06,-812.31 421.58,-863.84 462,-893.28 463.98,-894.72 466.06,-896.09 468.2,-897.38"/>
<polygon fill="#63b8ff" stroke="#63b8ff" points="466.13,-900.25 476.6,-901.89 469.44,-894.08 466.13,-900.25"/>
</a>
</g>
</g>
<!-- Node25 -->
<g id="Node000025" class="node">
<title>Node25</title>
<g id="a_Node000025"><a xlink:href="classfabomatic_1_1_base_l_c_d_wrapper.xhtml#a55abec023866373c858c23b0379cd4ff" target="_top" xlink:title=" ">
<polygon fill="white" stroke="#666666" points="603.25,-884.53 462,-884.53 462,-854.03 603.25,-854.03 603.25,-884.53"/>
<text text-anchor="start" x="470" y="-871.03" font-family="Helvetica,sans-Serif" font-size="10.00">fabomatic::BaseLCDWrapper</text>
<text text-anchor="middle" x="532.62" y="-859.78" font-family="Helvetica,sans-Serif" font-size="10.00">::setRow</text>
</a>
</g>
</g>
<!-- Node23&#45;&gt;Node25 -->
<g id="edge37_Node000023_Node000025" class="edge">
<title>Node23&#45;&gt;Node25</title>
<g id="a_edge37_Node000023_Node000025"><a xlink:title=" ">
<path fill="none" stroke="#63b8ff" d="M384.52,-786.76C402.45,-802.9 432.48,-828.06 462,-844.28 465,-845.93 468.13,-847.5 471.33,-849"/>
<polygon fill="#63b8ff" stroke="#63b8ff" points="469.76,-852.14 480.32,-852.93 472.56,-845.72 469.76,-852.14"/>
</a>
</g>
</g>
<!-- Node26 -->
<g id="Node000026" class="node">
<title>Node26</title>
<g id="a_Node000026"><a xlink:href="classfabomatic_1_1_base_l_c_d_wrapper.xhtml#ac14c09e0b2b7e23464dc85aaab0ba63a" target="_top" xlink:title=" ">
<polygon fill="white" stroke="#666666" points="603.25,-835.53 462,-835.53 462,-805.03 603.25,-805.03 603.25,-835.53"/>
<text text-anchor="start" x="470" y="-822.03" font-family="Helvetica,sans-Serif" font-size="10.00">fabomatic::BaseLCDWrapper</text>
<text text-anchor="middle" x="532.62" y="-810.78" font-family="Helvetica,sans-Serif" font-size="10.00">::update</text>
</a>
</g>
</g>
<!-- Node23&#45;&gt;Node26 -->
<g id="edge38_Node000023_Node000026" class="edge">
<title>Node23&#45;&gt;Node26</title>
<g id="a_edge38_Node000023_Node000026"><a xlink:title=" ">
<path fill="none" stroke="#63b8ff" d="M420.22,-786.92C435.5,-791.49 452.36,-796.54 468.25,-801.3"/>
<polygon fill="#63b8ff" stroke="#63b8ff" points="467.02,-804.59 477.61,-804.1 469.03,-797.88 467.02,-804.59"/>
</a>
</g>
</g>
<!-- Node24&#45;&gt;Node4 -->
<g id="edge34_Node000024_Node000004" class="edge">
<title>Node24&#45;&gt;Node4</title>
<g id="a_edge34_Node000024_Node000004"><a xlink:title=" ">
<path fill="none" stroke="#63b8ff" d="M589.35,-925.45C601.71,-927.04 614.95,-928.74 627.77,-930.39"/>
<polygon fill="#63b8ff" stroke="#63b8ff" points="627.03,-933.82 637.4,-931.63 627.93,-926.88 627.03,-933.82"/>
</a>
</g>
</g>
<!-- Node30&#45;&gt;Node19 -->
<g id="edge50_Node000030_Node000019" class="edge">
<title>Node30&#45;&gt;Node19</title>
<g id="a_edge50_Node000030_Node000019"><a xlink:title=" ">
<path fill="none" stroke="#63b8ff" d="M227.08,-378.76C240.13,-392.15 258.65,-412.43 272,-432.28 291.97,-461.96 286.6,-475.61 308,-504.28 364.06,-579.37 382.03,-599.44 462,-648.28 464.58,-649.86 467.28,-651.35 470.05,-652.78"/>
<polygon fill="#63b8ff" stroke="#63b8ff" points="468.4,-655.87 478.94,-656.94 471.37,-649.53 468.4,-655.87"/>
</a>
</g>
</g>
<!-- Node30&#45;&gt;Node21 -->
<g id="edge52_Node000030_Node000021" class="edge">
<title>Node30&#45;&gt;Node21</title>
<g id="a_edge52_Node000030_Node000021"><a xlink:title=" ">
<path fill="none" stroke="#63b8ff" d="M255.23,-347.56C299.1,-331.4 368.19,-304.79 426,-277.28 442.53,-269.41 445.05,-264.18 462,-257.28 466.96,-255.26 472.21,-253.38 477.5,-251.66"/>
<polygon fill="#63b8ff" stroke="#63b8ff" points="478.38,-255.05 486.93,-248.78 476.34,-248.36 478.38,-255.05"/>
</a>
</g>
</g>
<!-- Node31 -->
<g id="Node000031" class="node">
<title>Node31</title>
<g id="a_Node000031"><a xlink:href="classfabomatic_1_1_fab_backend.xhtml#aec5c26ad6c62b7446ca18841910ef82d" target="_top" xlink:title="Checks if the card ID is known to the server.">
<polygon fill="white" stroke="#666666" points="426,-446.53 308,-446.53 308,-416.03 426,-416.03 426,-446.53"/>
<text text-anchor="start" x="316" y="-433.03" font-family="Helvetica,sans-Serif" font-size="10.00">fabomatic::FabBackend</text>
<text text-anchor="middle" x="367" y="-421.78" font-family="Helvetica,sans-Serif" font-size="10.00">::checkCard</text>
</a>
</g>
</g>
<!-- Node30&#45;&gt;Node31 -->
<g id="edge43_Node000030_Node000031" class="edge">
<title>Node30&#45;&gt;Node31</title>
<g id="a_edge43_Node000030_Node000031"><a xlink:title=" ">
<path fill="none" stroke="#63b8ff" d="M246.22,-378.9C264.57,-387.1 287.48,-397.29 308,-406.28 311.57,-407.84 315.27,-409.46 319,-411.07"/>
<polygon fill="#63b8ff" stroke="#63b8ff" points="317.51,-414.24 328.07,-415.01 320.29,-407.82 317.51,-414.24"/>
</a>
</g>
</g>
<!-- Node32 -->
<g id="Node000032" class="node">
<title>Node32</title>
<g id="a_Node000032"><a xlink:href="classfabomatic_1_1_fab_backend.xhtml#a1a45f556aadcbc428d14b7c7577ed43d" target="_top" xlink:title="Establishes a connection to the WiFi network and the MQTT server.">
<polygon fill="white" stroke="#666666" points="426,-112.53 308,-112.53 308,-82.03 426,-82.03 426,-112.53"/>
<text text-anchor="start" x="316" y="-99.03" font-family="Helvetica,sans-Serif" font-size="10.00">fabomatic::FabBackend</text>
<text text-anchor="middle" x="367" y="-87.78" font-family="Helvetica,sans-Serif" font-size="10.00">::connect</text>
</a>
</g>
</g>
<!-- Node30&#45;&gt;Node32 -->
<g id="edge44_Node000030_Node000032" class="edge">
<title>Node30&#45;&gt;Node32</title>
<g id="a_edge44_Node000030_Node000032"><a xlink:title=" ">
<path fill="none" stroke="#63b8ff" d="M220.36,-347.83C245.98,-303.75 319.6,-177.1 351.25,-122.65"/>
<polygon fill="#63b8ff" stroke="#63b8ff" points="354.23,-124.48 356.23,-114.08 348.18,-120.97 354.23,-124.48"/>
</a>
</g>
</g>
<!-- Node36 -->
<g id="Node000036" class="node">
<title>Node36</title>
<g id="a_Node000036"><a xlink:href="structfabomatic_1_1_fab_user.xhtml#ab4b54f1830f1536824583e973d670582" target="_top" xlink:title=" ">
<polygon fill="white" stroke="#666666" points="417.38,-397.53 316.62,-397.53 316.62,-367.03 417.38,-367.03 417.38,-397.53"/>
<text text-anchor="start" x="324.62" y="-384.03" font-family="Helvetica,sans-Serif" font-size="10.00">fabomatic::FabUser</text>
<text text-anchor="middle" x="367" y="-372.78" font-family="Helvetica,sans-Serif" font-size="10.00">::toString</text>
</a>
</g>
</g>
<!-- Node30&#45;&gt;Node36 -->
<g id="edge51_Node000030_Node000036" class="edge">
<title>Node30&#45;&gt;Node36</title>
<g id="a_edge51_Node000030_Node000036"><a xlink:title=" ">
<path fill="none" stroke="#63b8ff" d="M270.27,-370.52C281.67,-371.92 293.63,-373.39 305.08,-374.79"/>
<polygon fill="#63b8ff" stroke="#63b8ff" points="304.48,-378.24 314.83,-375.99 305.33,-371.3 304.48,-378.24"/>
</a>
</g>
</g>
<!-- Node32&#45;&gt;Node4 -->
<g id="edge47_Node000032_Node000004" class="edge">
<title>Node32&#45;&gt;Node4</title>
<g id="a_edge47_Node000032_Node000004"><a xlink:title=" ">
<path fill="none" stroke="#63b8ff" d="M381.74,-81.64C398.58,-63.79 428.97,-35.6 462,-24.28 521.39,-3.93 556.65,17.79 603.25,-24.28 671.93,-86.29 692.99,-786.08 696.36,-917.93"/>
<polygon fill="#63b8ff" stroke="#63b8ff" points="692.86,-917.74 696.61,-927.65 699.86,-917.57 692.86,-917.74"/>
</a>
</g>
</g>
<!-- Node33 -->
<g id="Node000033" class="node">
<title>Node33</title>
<g id="a_Node000033"><a xlink:href="classfabomatic_1_1_fab_backend.xhtml#ad928751b2f967feaac0f2cb708c0d6e9" target="_top" xlink:title="Connects to the WiFi network.">
<polygon fill="white" stroke="#666666" points="591.62,-161.53 473.62,-161.53 473.62,-131.03 591.62,-131.03 591.62,-161.53"/>
<text text-anchor="start" x="481.62" y="-148.03" font-family="Helvetica,sans-Serif" font-size="10.00">fabomatic::FabBackend</text>
<text text-anchor="middle" x="532.62" y="-136.78" font-family="Helvetica,sans-Serif" font-size="10.00">::connectWiFi</text>
</a>
</g>
</g>
<!-- Node32&#45;&gt;Node33 -->
<g id="edge45_Node000032_Node000033" class="edge">
<title>Node32&#45;&gt;Node33</title>
<g id="a_edge45_Node000032_Node000033"><a xlink:title=" ">
<path fill="none" stroke="#63b8ff" d="M420.22,-112.92C435.5,-117.49 452.36,-122.54 468.25,-127.3"/>
<polygon fill="#63b8ff" stroke="#63b8ff" points="467.02,-130.59 477.61,-130.1 469.03,-123.88 467.02,-130.59"/>
</a>
</g>
</g>
<!-- Node34 -->
<g id="Node000034" class="node">
<title>Node34</title>
<g id="a_Node000034"><a xlink:href="classfabomatic_1_1_fab_backend.xhtml#a3ab102598ee93269de90a0170e024619" target="_top" xlink:title="Callback function for received MQTT messages.">
<polygon fill="white" stroke="#666666" points="591.62,-112.53 473.62,-112.53 473.62,-82.03 591.62,-82.03 591.62,-112.53"/>
<text text-anchor="start" x="481.62" y="-99.03" font-family="Helvetica,sans-Serif" font-size="10.00">fabomatic::FabBackend</text>
<text text-anchor="middle" x="532.62" y="-87.78" font-family="Helvetica,sans-Serif" font-size="10.00">::messageReceived</text>
</a>
</g>
</g>
<!-- Node32&#45;&gt;Node34 -->
<g id="edge48_Node000032_Node000034" class="edge">
<title>Node32&#45;&gt;Node34</title>
<g id="a_edge48_Node000032_Node000034"><a xlink:title=" ">
<path fill="none" stroke="#63b8ff" d="M426.15,-97.28C437.77,-97.28 450.1,-97.28 462.06,-97.28"/>
<polygon fill="#63b8ff" stroke="#63b8ff" points="461.87,-100.78 471.87,-97.28 461.87,-93.78 461.87,-100.78"/>
</a>
</g>
</g>
<!-- Node35 -->
<g id="Node000035" class="node">
<title>Node35</title>
<g id="a_Node000035"><a xlink:href="classfabomatic_1_1_fab_backend.xhtml#aee0cf549bea2daebc3e08742853d36c1" target="_top" xlink:title="Publishes a query on the MQTT server.">
<polygon fill="white" stroke="#666666" points="591.62,-63.53 473.62,-63.53 473.62,-33.03 591.62,-33.03 591.62,-63.53"/>
<text text-anchor="start" x="481.62" y="-50.03" font-family="Helvetica,sans-Serif" font-size="10.00">fabomatic::FabBackend</text>
<text text-anchor="middle" x="532.62" y="-38.78" font-family="Helvetica,sans-Serif" font-size="10.00">::publish</text>
</a>
</g>
</g>
<!-- Node32&#45;&gt;Node35 -->
<g id="edge49_Node000032_Node000035" class="edge">
<title>Node32&#45;&gt;Node35</title>
<g id="a_edge49_Node000032_Node000035"><a xlink:title=" ">
<path fill="none" stroke="#63b8ff" d="M420.22,-81.64C435.5,-77.07 452.36,-72.02 468.25,-67.26"/>
<polygon fill="#63b8ff" stroke="#63b8ff" points="469.03,-70.68 477.61,-64.45 467.02,-63.97 469.03,-70.68"/>
</a>
</g>
</g>
<!-- Node33&#45;&gt;Node4 -->
<g id="edge46_Node000033_Node000004" class="edge">
<title>Node33&#45;&gt;Node4</title>
<g id="a_edge46_Node000033_Node000004"><a xlink:title=" ">
<path fill="none" stroke="#63b8ff" d="M591.84,-161.06C596.14,-163.89 600.04,-167.26 603.25,-171.28 698.77,-290.94 698.41,-806.52 697.19,-917.98"/>
<polygon fill="#63b8ff" stroke="#63b8ff" points="693.69,-917.71 697.06,-927.76 700.69,-917.8 693.69,-917.71"/>
</a>
</g>
</g>
</g>
</svg>
