<?xml version="1.0" encoding="UTF-8" standalone="no"?>
<!DOCTYPE svg PUBLIC "-//W3C//DTD SVG 1.1//EN"
 "http://www.w3.org/Graphics/SVG/1.1/DTD/svg11.dtd">
<!-- Generated by graphviz version 9.0.0 (20230911.1827)
 -->
<!-- Title: fabomatic::SavedConfig::toJsonDocument Pages: 1 -->
<svg width="654pt" height="173pt"
 viewBox="0.00 0.00 653.50 172.55" xmlns="http://www.w3.org/2000/svg" xmlns:xlink="http://www.w3.org/1999/xlink">
<g id="graph0" class="graph" transform="scale(1 1) rotate(0) translate(4 168.55)">
<title>fabomatic::SavedConfig::toJsonDocument</title>
<!-- Node1 -->
<g id="Node000001" class="node">
<title>Node1</title>
<g id="a_Node000001"><a xlink:title="Serialize the current configuration into a JsonDocument.">
<polygon fill="#999999" stroke="#666666" points="645.5,-75.5 527.5,-75.5 527.5,-45 645.5,-45 645.5,-75.5"/>
<text text-anchor="start" x="535.5" y="-62" font-family="Helvetica,sans-Serif" font-size="10.00">fabomatic::SavedConfig</text>
<text text-anchor="middle" x="586.5" y="-50.75" font-family="Helvetica,sans-Serif" font-size="10.00">::toJsonDocument</text>
</a>
</g>
</g>
<!-- Node2 -->
<g id="Node000002" class="node">
<title>Node2</title>
<g id="a_Node000002"><a xlink:href="classfabomatic_1_1_saved_config.xhtml#a312c74363068192ae80df24140f82874" target="_top" xlink:title="Saves the configuration to EEPROM.">
<polygon fill="white" stroke="#666666" points="491.5,-100.5 373.5,-100.5 373.5,-70 491.5,-70 491.5,-100.5"/>
<text text-anchor="start" x="381.5" y="-87" font-family="Helvetica,sans-Serif" font-size="10.00">fabomatic::SavedConfig</text>
<text text-anchor="middle" x="432.5" y="-75.75" font-family="Helvetica,sans-Serif" font-size="10.00">::SaveToEEPROM</text>
</a>
</g>
</g>
<!-- Node1&#45;&gt;Node2 -->
<g id="edge1_Node000001_Node000002" class="edge">
<title>Node1&#45;&gt;Node2</title>
<g id="a_edge1_Node000001_Node000002"><a xlink:title=" ">
<path fill="none" stroke="#63b8ff" d="M515.93,-71.69C507.9,-73.01 499.78,-74.35 491.93,-75.64"/>
<polygon fill="#63b8ff" stroke="#63b8ff" points="516.37,-75.17 525.67,-70.09 515.24,-68.26 516.37,-75.17"/>
</a>
</g>
</g>
<!-- Node10 -->
<g id="Node000010" class="node">
<title>Node10</title>
<g id="a_Node000010"><a xlink:href="classfabomatic_1_1_saved_config.xhtml#ad1d484179f439b28d608a9c6737bdc26" target="_top" xlink:title="Returns a json&#45;prettified fragment for logging.">
<polygon fill="white" stroke="#666666" points="491.5,-51.5 373.5,-51.5 373.5,-21 491.5,-21 491.5,-51.5"/>
<text text-anchor="start" x="381.5" y="-38" font-family="Helvetica,sans-Serif" font-size="10.00">fabomatic::SavedConfig</text>
<text text-anchor="middle" x="432.5" y="-26.75" font-family="Helvetica,sans-Serif" font-size="10.00">::toString</text>
</a>
</g>
</g>
<!-- Node1&#45;&gt;Node10 -->
<g id="edge12_Node000001_Node000010" class="edge">
<title>Node1&#45;&gt;Node10</title>
<g id="a_edge12_Node000001_Node000010"><a xlink:title=" ">
<path fill="none" stroke="#63b8ff" d="M515.93,-49.26C507.9,-48 499.78,-46.72 491.93,-45.48"/>
<polygon fill="#63b8ff" stroke="#63b8ff" points="515.25,-52.7 525.67,-50.8 516.34,-45.79 515.25,-52.7"/>
</a>
</g>
</g>
<!-- Node3 -->
<g id="Node000003" class="node">
<title>Node3</title>
<g id="a_Node000003"><a xlink:href="classfabomatic_1_1_auth_provider.xhtml#acb92a9381bc8e14bd57b819fc9162750" target="_top" xlink:title="Saves the cache of RFID to EEPROM.">
<polygon fill="white" stroke="#666666" points="337.5,-100.5 218,-100.5 218,-70 337.5,-70 337.5,-100.5"/>
<text text-anchor="start" x="226" y="-87" font-family="Helvetica,sans-Serif" font-size="10.00">fabomatic::AuthProvider</text>
<text text-anchor="middle" x="277.75" y="-75.75" font-family="Helvetica,sans-Serif" font-size="10.00">::saveCache</text>
</a>
</g>
</g>
<!-- Node2&#45;&gt;Node3 -->
<g id="edge2_Node000002_Node000003" class="edge">
<title>Node2&#45;&gt;Node3</title>
<g id="a_edge2_Node000002_Node000003"><a xlink:title=" ">
<path fill="none" stroke="#63b8ff" d="M361.99,-85.25C353.9,-85.25 345.71,-85.25 337.78,-85.25"/>
<polygon fill="#63b8ff" stroke="#63b8ff" points="361.8,-88.75 371.8,-85.25 361.8,-81.75 361.8,-88.75"/>
</a>
</g>
</g>
<!-- Node5 -->
<g id="Node000005" class="node">
<title>Node5</title>
<g id="a_Node000005"><a xlink:href="test__mqtt_8cpp.xhtml#a4fc01d736fe50cf5b977f755b675f11d" target="_top" xlink:title=" ">
<polygon fill="white" stroke="#666666" points="40,-143.88 0,-143.88 0,-124.62 40,-124.62 40,-143.88"/>
<text text-anchor="middle" x="20" y="-130.38" font-family="Helvetica,sans-Serif" font-size="10.00">setup</text>
</a>
</g>
</g>
<!-- Node2&#45;&gt;Node5 -->
<g id="edge9_Node000002_Node000005" class="edge">
<title>Node2&#45;&gt;Node5</title>
<g id="a_edge9_Node000002_Node000005"><a xlink:title=" ">
<path fill="none" stroke="#63b8ff" d="M380.44,-104.85C330.67,-122.83 252.4,-148.16 182,-158.25 135.37,-164.93 122.12,-167.87 76,-158.25 62.95,-155.53 49.2,-149.53 38.71,-144.21"/>
<polygon fill="#63b8ff" stroke="#63b8ff" points="381.62,-108.15 389.81,-101.42 379.21,-101.57 381.62,-108.15"/>
</a>
</g>
</g>
<!-- Node9 -->
<g id="Node000009" class="node">
<title>Node9</title>
<g id="a_Node000009"><a xlink:href="namespacefabomatic_1_1tests.xhtml#a0bbb6cee5561bf8ac1c4a9117d9d01b8" target="_top" xlink:title=" ">
<polygon fill="white" stroke="#666666" points="330.75,-30.5 224.75,-30.5 224.75,0 330.75,0 330.75,-30.5"/>
<text text-anchor="start" x="232.75" y="-17" font-family="Helvetica,sans-Serif" font-size="10.00">fabomatic::tests::test</text>
<text text-anchor="middle" x="277.75" y="-5.75" font-family="Helvetica,sans-Serif" font-size="10.00">_changes</text>
</a>
</g>
</g>
<!-- Node2&#45;&gt;Node9 -->
<g id="edge10_Node000002_Node000009" class="edge">
<title>Node2&#45;&gt;Node9</title>
<g id="a_edge10_Node000002_Node000009"><a xlink:title=" ">
<path fill="none" stroke="#63b8ff" d="M384.29,-65.07C380.63,-63.46 377,-61.84 373.5,-60.25 352.6,-50.79 329.32,-39.74 311.06,-30.96"/>
<polygon fill="#63b8ff" stroke="#63b8ff" points="382.64,-68.17 393.21,-68.97 385.45,-61.76 382.64,-68.17"/>
</a>
</g>
</g>
<!-- Node4 -->
<g id="Node000004" class="node">
<title>Node4</title>
<g id="a_Node000004"><a xlink:href="namespacefabomatic_1_1tests.xhtml#a24369d35ba4a370e236b987ff7cb5637" target="_top" xlink:title=" ">
<polygon fill="white" stroke="#666666" points="182,-149.5 76,-149.5 76,-119 182,-119 182,-149.5"/>
<text text-anchor="start" x="84" y="-136" font-family="Helvetica,sans-Serif" font-size="10.00">fabomatic::tests::test</text>
<text text-anchor="middle" x="129" y="-124.75" font-family="Helvetica,sans-Serif" font-size="10.00">_degraded_use</text>
</a>
</g>
</g>
<!-- Node3&#45;&gt;Node4 -->
<g id="edge3_Node000003_Node000004" class="edge">
<title>Node3&#45;&gt;Node4</title>
<g id="a_edge3_Node000003_Node000004"><a xlink:title=" ">
<path fill="none" stroke="#63b8ff" d="M219,-104.53C205.12,-109.17 190.47,-114.06 177.15,-118.51"/>
<polygon fill="#63b8ff" stroke="#63b8ff" points="220.1,-107.86 228.48,-101.37 217.88,-101.22 220.1,-107.86"/>
</a>
</g>
</g>
<!-- Node6 -->
<g id="Node000006" class="node">
<title>Node6</title>
<g id="a_Node000006"><a xlink:href="namespacefabomatic_1_1tests.xhtml#a438b9060c27d36e89506199205b342cb" target="_top" xlink:title=" ">
<polygon fill="white" stroke="#666666" points="182,-100.5 76,-100.5 76,-70 182,-70 182,-100.5"/>
<text text-anchor="start" x="84" y="-87" font-family="Helvetica,sans-Serif" font-size="10.00">fabomatic::tests::test</text>
<text text-anchor="middle" x="129" y="-75.75" font-family="Helvetica,sans-Serif" font-size="10.00">_fabserver_calls</text>
</a>
</g>
</g>
<!-- Node3&#45;&gt;Node6 -->
<g id="edge5_Node000003_Node000006" class="edge">
<title>Node3&#45;&gt;Node6</title>
<g id="a_edge5_Node000003_Node000006"><a xlink:title=" ">
<path fill="none" stroke="#63b8ff" d="M206.45,-85.25C198.29,-85.25 190.08,-85.25 182.22,-85.25"/>
<polygon fill="#63b8ff" stroke="#63b8ff" points="206.39,-88.75 216.39,-85.25 206.39,-81.75 206.39,-88.75"/>
</a>
</g>
</g>
<!-- Node7 -->
<g id="Node000007" class="node">
<title>Node7</title>
<g id="a_Node000007"><a xlink:href="namespacefabomatic_1_1tests.xhtml#aeb3e51f6d2841cd2869df4c0629f694d" target="_top" xlink:title=" ">
<polygon fill="white" stroke="#666666" points="182,-51.5 76,-51.5 76,-21 182,-21 182,-51.5"/>
<text text-anchor="start" x="84" y="-38" font-family="Helvetica,sans-Serif" font-size="10.00">fabomatic::tests::test</text>
<text text-anchor="middle" x="129" y="-26.75" font-family="Helvetica,sans-Serif" font-size="10.00">_rfid_cache</text>
</a>
</g>
</g>
<!-- Node3&#45;&gt;Node7 -->
<g id="edge7_Node000003_Node000007" class="edge">
<title>Node3&#45;&gt;Node7</title>
<g id="a_edge7_Node000003_Node000007"><a xlink:title=" ">
<path fill="none" stroke="#63b8ff" d="M219,-65.97C205.12,-61.33 190.47,-56.44 177.15,-51.99"/>
<polygon fill="#63b8ff" stroke="#63b8ff" points="217.88,-69.28 228.48,-69.13 220.1,-62.64 217.88,-69.28"/>
</a>
</g>
</g>
<!-- Node4&#45;&gt;Node5 -->
<g id="edge4_Node000004_Node000005" class="edge">
<title>Node4&#45;&gt;Node5</title>
<g id="a_edge4_Node000004_Node000005"><a xlink:title=" ">
<path fill="none" stroke="#63b8ff" d="M64.27,-134.25C55.63,-134.25 47.36,-134.25 40.41,-134.25"/>
<polygon fill="#63b8ff" stroke="#63b8ff" points="64.24,-137.75 74.24,-134.25 64.24,-130.75 64.24,-137.75"/>
</a>
</g>
</g>
<!-- Node6&#45;&gt;Node5 -->
<g id="edge6_Node000006_Node000005" class="edge">
<title>Node6&#45;&gt;Node5</title>
<g id="a_edge6_Node000006_Node000005"><a xlink:title=" ">
<path fill="none" stroke="#63b8ff" d="M83.59,-105.59C68.45,-112.52 52.31,-119.91 40.21,-125.45"/>
<polygon fill="#63b8ff" stroke="#63b8ff" points="84.84,-108.86 92.47,-101.52 81.92,-102.5 84.84,-108.86"/>
</a>
</g>
</g>
<!-- Node8 -->
<g id="Node000008" class="node">
<title>Node8</title>
<g id="a_Node000008"><a xlink:href="test__savedconfig_8cpp.xhtml#a4fc01d736fe50cf5b977f755b675f11d" target="_top" xlink:title=" ">
<polygon fill="white" stroke="#666666" points="40,-24.88 0,-24.88 0,-5.62 40,-5.62 40,-24.88"/>
<text text-anchor="middle" x="20" y="-11.38" font-family="Helvetica,sans-Serif" font-size="10.00">setup</text>
</a>
</g>
</g>
<!-- Node7&#45;&gt;Node8 -->
<g id="edge8_Node000007_Node000008" class="edge">
<title>Node7&#45;&gt;Node8</title>
<g id="a_edge8_Node000007_Node000008"><a xlink:title=" ">
<path fill="none" stroke="#63b8ff" d="M64.56,-23.8C55.82,-22.08 47.44,-20.44 40.41,-19.06"/>
<polygon fill="#63b8ff" stroke="#63b8ff" points="63.78,-27.21 74.27,-25.7 65.13,-20.34 63.78,-27.21"/>
</a>
</g>
</g>
<!-- Node9&#45;&gt;Node8 -->
<g id="edge11_Node000009_Node000008" class="edge">
<title>Node9&#45;&gt;Node8</title>
<g id="a_edge11_Node000009_Node000008"><a xlink:title=" ">
<path fill="none" stroke="#63b8ff" d="M213.02,-12.93C173.55,-11.83 121.83,-11 76,-12.25 64.15,-12.57 50.87,-13.29 40.33,-13.94"/>
<polygon fill="#63b8ff" stroke="#63b8ff" points="212.72,-16.42 222.82,-13.21 212.92,-9.42 212.72,-16.42"/>
</a>
</g>
</g>
</g>
</svg>
