<?xml version="1.0" encoding="UTF-8" standalone="no"?>
<!DOCTYPE svg PUBLIC "-//W3C//DTD SVG 1.1//EN"
 "http://www.w3.org/Graphics/SVG/1.1/DTD/svg11.dtd">
<!-- Generated by graphviz version 9.0.0 (20230911.1827)
 -->
<!-- Title: fabomatic::BoardLogic::authorize Pages: 1 -->
<svg width="926pt" height="1219pt"
 viewBox="0.00 0.00 926.00 1219.33" xmlns="http://www.w3.org/2000/svg" xmlns:xlink="http://www.w3.org/1999/xlink">
<g id="graph0" class="graph" transform="scale(1 1) rotate(0) translate(4 1215.33)">
<title>fabomatic::BoardLogic::authorize</title>
<!-- Node1 -->
<g id="Node000001" class="node">
<title>Node1</title>
<g id="a_Node000001"><a xlink:title="Checks if the card UID is valid, and tries to check the user in to the machine.">
<polygon fill="#999999" stroke="#666666" points="112.75,-472.5 0,-472.5 0,-442 112.75,-442 112.75,-472.5"/>
<text text-anchor="start" x="8" y="-459" font-family="Helvetica,sans-Serif" font-size="10.00">fabomatic::BoardLogic</text>
<text text-anchor="middle" x="56.38" y="-447.75" font-family="Helvetica,sans-Serif" font-size="10.00">::authorize</text>
</a>
</g>
</g>
<!-- Node2 -->
<g id="Node000002" class="node">
<title>Node2</title>
<g id="a_Node000002"><a xlink:href="classfabomatic_1_1_board_logic.xhtml#ac198a07d00fda36a527cd9db2d97efc1" target="_top" xlink:title=" ">
<polygon fill="white" stroke="#666666" points="266.75,-1088.5 154,-1088.5 154,-1058 266.75,-1058 266.75,-1088.5"/>
<text text-anchor="start" x="162" y="-1075" font-family="Helvetica,sans-Serif" font-size="10.00">fabomatic::BoardLogic</text>
<text text-anchor="middle" x="210.38" y="-1063.75" font-family="Helvetica,sans-Serif" font-size="10.00">::beepFail</text>
</a>
</g>
</g>
<!-- Node1&#45;&gt;Node2 -->
<g id="edge1_Node000001_Node000002" class="edge">
<title>Node1&#45;&gt;Node2</title>
<g id="a_edge1_Node000001_Node000002"><a xlink:title=" ">
<path fill="none" stroke="#63b8ff" d="M58.82,-472.79C64.81,-534.12 90.23,-764.88 148.75,-945.25 160.77,-982.29 181.12,-1022.49 194.89,-1047.76"/>
<polygon fill="#63b8ff" stroke="#63b8ff" points="191.71,-1049.25 199.62,-1056.3 197.84,-1045.86 191.71,-1049.25"/>
</a>
</g>
</g>
<!-- Node4 -->
<g id="Node000004" class="node">
<title>Node4</title>
<g id="a_Node000004"><a xlink:href="namespacefabomatic_1_1_tasks.xhtml#a5c20f560f5934822d39ba116a16f3ab6" target="_top" xlink:title="Wait for a delay, allowing OTA updates.">
<polygon fill="white" stroke="#666666" points="734.75,-920.88 617.5,-920.88 617.5,-901.62 734.75,-901.62 734.75,-920.88"/>
<text text-anchor="middle" x="676.12" y="-907.38" font-family="Helvetica,sans-Serif" font-size="10.00">fabomatic::Tasks::delay</text>
</a>
</g>
</g>
<!-- Node1&#45;&gt;Node4 -->
<g id="edge27_Node000001_Node000004" class="edge">
<title>Node1&#45;&gt;Node4</title>
<g id="a_edge27_Node000001_Node000004"><a xlink:title=" ">
<path fill="none" stroke="#63b8ff" d="M57.42,-472.97C57.98,-561.67 65,-999.22 148.75,-1097.25 273.7,-1243.49 432.15,-1245.39 580.75,-1123.25 617.57,-1092.99 597.61,-1065.89 616.75,-1022.25 631.19,-989.33 651.28,-952.7 663.73,-930.84"/>
<polygon fill="#63b8ff" stroke="#63b8ff" points="666.62,-932.84 668.57,-922.43 660.55,-929.35 666.62,-932.84"/>
</a>
</g>
</g>
<!-- Node6 -->
<g id="Node000006" class="node">
<title>Node6</title>
<g id="a_Node000006"><a xlink:href="classfabomatic_1_1_board_logic.xhtml#a8e0c35d138333907cc217c9e141091cd" target="_top" xlink:title=" ">
<polygon fill="white" stroke="#666666" points="266.75,-936.5 154,-936.5 154,-906 266.75,-906 266.75,-936.5"/>
<text text-anchor="start" x="162" y="-923" font-family="Helvetica,sans-Serif" font-size="10.00">fabomatic::BoardLogic</text>
<text text-anchor="middle" x="210.38" y="-911.75" font-family="Helvetica,sans-Serif" font-size="10.00">::beepOk</text>
</a>
</g>
</g>
<!-- Node1&#45;&gt;Node6 -->
<g id="edge6_Node000001_Node000006" class="edge">
<title>Node1&#45;&gt;Node6</title>
<g id="a_edge6_Node000001_Node000006"><a xlink:title=" ">
<path fill="none" stroke="#63b8ff" d="M61.86,-472.8C74.69,-517.04 112.92,-647.34 148.75,-754.25 165.58,-804.48 187.12,-862.48 199.47,-895.21"/>
<polygon fill="#63b8ff" stroke="#63b8ff" points="196.08,-896.16 202.89,-904.27 202.63,-893.68 196.08,-896.16"/>
</a>
</g>
</g>
<!-- Node8 -->
<g id="Node000008" class="node">
<title>Node8</title>
<g id="a_Node000008"><a xlink:href="classfabomatic_1_1_board_logic.xhtml#a3c38d7a3ed7952c6d6297efdf50ea4dd" target="_top" xlink:title="Sets the board in the state given.">
<polygon fill="white" stroke="#666666" points="266.75,-537.5 154,-537.5 154,-507 266.75,-507 266.75,-537.5"/>
<text text-anchor="start" x="162" y="-524" font-family="Helvetica,sans-Serif" font-size="10.00">fabomatic::BoardLogic</text>
<text text-anchor="middle" x="210.38" y="-512.75" font-family="Helvetica,sans-Serif" font-size="10.00">::changeStatus</text>
</a>
</g>
</g>
<!-- Node1&#45;&gt;Node8 -->
<g id="edge9_Node000001_Node000008" class="edge">
<title>Node1&#45;&gt;Node8</title>
<g id="a_edge9_Node000001_Node000008"><a xlink:title=" ">
<path fill="none" stroke="#63b8ff" d="M94.17,-472.98C114.63,-481.73 140.32,-492.72 162.24,-502.09"/>
<polygon fill="#63b8ff" stroke="#63b8ff" points="160.69,-505.24 171.26,-505.95 163.45,-498.8 160.69,-505.24"/>
</a>
</g>
</g>
<!-- Node10 -->
<g id="Node000010" class="node">
<title>Node10</title>
<g id="a_Node000010"><a xlink:href="classfabomatic_1_1_machine.xhtml#a39c30eaa242d5cc2ce784dbafeef87e8" target="_top" xlink:title=" ">
<polygon fill="white" stroke="#666666" points="571.38,-644.5 471.38,-644.5 471.38,-614 571.38,-614 571.38,-644.5"/>
<text text-anchor="start" x="479.38" y="-631" font-family="Helvetica,sans-Serif" font-size="10.00">fabomatic::Machine</text>
<text text-anchor="middle" x="521.38" y="-619.75" font-family="Helvetica,sans-Serif" font-size="10.00">::getActiveUser</text>
</a>
</g>
</g>
<!-- Node1&#45;&gt;Node10 -->
<g id="edge28_Node000001_Node000010" class="edge">
<title>Node1&#45;&gt;Node10</title>
<g id="a_edge28_Node000001_Node000010"><a xlink:title=" ">
<path fill="none" stroke="#63b8ff" d="M68.79,-472.8C84.48,-492.99 114.67,-527.81 148.75,-546.25 249.12,-600.56 383.12,-619.37 459.75,-625.86"/>
<polygon fill="#63b8ff" stroke="#63b8ff" points="459.33,-629.33 469.58,-626.64 459.89,-622.36 459.33,-629.33"/>
</a>
</g>
</g>
<!-- Node17 -->
<g id="Node000017" class="node">
<title>Node17</title>
<g id="a_Node000017"><a xlink:href="classfabomatic_1_1_machine.xhtml#a4b40dcb31af466acc85f66c845516c82" target="_top" xlink:title=" ">
<polygon fill="white" stroke="#666666" points="571.38,-325.5 471.38,-325.5 471.38,-295 571.38,-295 571.38,-325.5"/>
<text text-anchor="start" x="479.38" y="-312" font-family="Helvetica,sans-Serif" font-size="10.00">fabomatic::Machine</text>
<text text-anchor="middle" x="521.38" y="-300.75" font-family="Helvetica,sans-Serif" font-size="10.00">::isAllowed</text>
</a>
</g>
</g>
<!-- Node1&#45;&gt;Node17 -->
<g id="edge29_Node000001_Node000017" class="edge">
<title>Node1&#45;&gt;Node17</title>
<g id="a_edge29_Node000001_Node000017"><a xlink:title=" ">
<path fill="none" stroke="#63b8ff" d="M75.69,-441.67C93.51,-427.06 121.76,-405.26 148.75,-390.25 215.42,-353.18 233.71,-343.54 308,-326.25 358.31,-314.54 416.95,-310.85 459.85,-309.91"/>
<polygon fill="#63b8ff" stroke="#63b8ff" points="459.78,-313.41 469.72,-309.74 459.66,-306.41 459.78,-313.41"/>
</a>
</g>
</g>
<!-- Node19 -->
<g id="Node000019" class="node">
<title>Node19</title>
<g id="a_Node000019"><a xlink:href="classfabomatic_1_1_machine.xhtml#a34b0deb04494137cf321e94d50dedf90" target="_top" xlink:title=" ">
<polygon fill="white" stroke="#666666" points="580,-276.5 462.75,-276.5 462.75,-246 580,-246 580,-276.5"/>
<text text-anchor="start" x="470.75" y="-263" font-family="Helvetica,sans-Serif" font-size="10.00">fabomatic::Machine</text>
<text text-anchor="middle" x="521.38" y="-251.75" font-family="Helvetica,sans-Serif" font-size="10.00">::isMaintenanceNeeded</text>
</a>
</g>
</g>
<!-- Node1&#45;&gt;Node19 -->
<g id="edge30_Node000001_Node000019" class="edge">
<title>Node1&#45;&gt;Node19</title>
<g id="a_edge30_Node000001_Node000019"><a xlink:title=" ">
<path fill="none" stroke="#63b8ff" d="M64.05,-441.63C76.47,-414.6 105.82,-359.42 148.75,-332.25 241.73,-273.41 372.14,-261.18 451.19,-259.75"/>
<polygon fill="#63b8ff" stroke="#63b8ff" points="451,-263.25 460.96,-259.63 450.92,-256.25 451,-263.25"/>
</a>
</g>
</g>
<!-- Node22 -->
<g id="Node000022" class="node">
<title>Node22</title>
<g id="a_Node000022"><a xlink:href="namespacefabomatic_1_1card.xhtml#aef091ec171625c69f9d4eab20ebaefec" target="_top" xlink:title="Returns a string representation of the UID.">
<polygon fill="white" stroke="#666666" points="579.25,-362.88 463.5,-362.88 463.5,-343.62 579.25,-343.62 579.25,-362.88"/>
<text text-anchor="middle" x="521.38" y="-349.38" font-family="Helvetica,sans-Serif" font-size="10.00">fabomatic::card::uid_str</text>
</a>
</g>
</g>
<!-- Node1&#45;&gt;Node22 -->
<g id="edge59_Node000001_Node000022" class="edge">
<title>Node1&#45;&gt;Node22</title>
<g id="a_edge59_Node000001_Node000022"><a xlink:title=" ">
<path fill="none" stroke="#63b8ff" d="M113.17,-465.15C203.45,-476.72 376.45,-493.51 426,-460.25 461.08,-436.7 431.04,-401.01 462,-372.25 463.22,-371.12 464.51,-370.05 465.85,-369.05"/>
<polygon fill="#63b8ff" stroke="#63b8ff" points="467.33,-372.24 474.1,-364.09 463.72,-366.24 467.33,-372.24"/>
</a>
</g>
</g>
<!-- Node23 -->
<g id="Node000023" class="node">
<title>Node23</title>
<g id="a_Node000023"><a xlink:href="classfabomatic_1_1_machine.xhtml#ac0591da2ff437cd6c7cc91bd09b4dff7" target="_top" xlink:title="Try to login the user and start the usage timer.">
<polygon fill="white" stroke="#666666" points="726.12,-301.5 626.12,-301.5 626.12,-271 726.12,-271 726.12,-301.5"/>
<text text-anchor="start" x="634.12" y="-288" font-family="Helvetica,sans-Serif" font-size="10.00">fabomatic::Machine</text>
<text text-anchor="middle" x="676.12" y="-276.75" font-family="Helvetica,sans-Serif" font-size="10.00">::login</text>
</a>
</g>
</g>
<!-- Node1&#45;&gt;Node23 -->
<g id="edge31_Node000001_Node000023" class="edge">
<title>Node1&#45;&gt;Node23</title>
<g id="a_edge31_Node000001_Node000023"><a xlink:title=" ">
<path fill="none" stroke="#63b8ff" d="M62.81,-441.7C74.71,-409.1 105.51,-332.29 148.75,-279.25 257.23,-146.2 297.17,-101.25 462,-53.25 512.67,-38.49 536.98,-23.76 580.75,-53.25 650.63,-100.34 668.79,-208.94 673.49,-259.48"/>
<polygon fill="#63b8ff" stroke="#63b8ff" points="669.98,-259.53 674.28,-269.22 676.96,-258.97 669.98,-259.53"/>
</a>
</g>
</g>
<!-- Node24 -->
<g id="Node000024" class="node">
<title>Node24</title>
<g id="a_Node000024"><a xlink:href="classfabomatic_1_1_board_logic.xhtml#a420a0d05a91a02c27ad3b63a030738a0" target="_top" xlink:title="Asks the user to keep the RFID tag on the reader as confirmation.">
<polygon fill="white" stroke="#666666" points="423.38,-861.5 310.62,-861.5 310.62,-831 423.38,-831 423.38,-861.5"/>
<text text-anchor="start" x="318.62" y="-848" font-family="Helvetica,sans-Serif" font-size="10.00">fabomatic::BoardLogic</text>
<text text-anchor="middle" x="367" y="-836.75" font-family="Helvetica,sans-Serif" font-size="10.00">::longTap</text>
</a>
</g>
</g>
<!-- Node1&#45;&gt;Node24 -->
<g id="edge33_Node000001_Node000024" class="edge">
<title>Node1&#45;&gt;Node24</title>
<g id="a_edge33_Node000001_Node000024"><a xlink:title=" ">
<path fill="none" stroke="#63b8ff" d="M65.16,-472.9C79.78,-501.68 113.1,-564.41 148.75,-612.25 210.89,-695.62 298.6,-782.45 341.05,-822.9"/>
<polygon fill="#63b8ff" stroke="#63b8ff" points="338.4,-825.21 348.06,-829.55 343.21,-820.13 338.4,-825.21"/>
</a>
</g>
</g>
<!-- Node29 -->
<g id="Node000029" class="node">
<title>Node29</title>
<g id="a_Node000029"><a xlink:href="classfabomatic_1_1_fab_backend.xhtml#a1d2a3a95b98c66db4c9d4fc9c1d401ef" target="_top" xlink:title="Registers a maintenance action.">
<polygon fill="white" stroke="#666666" points="269.38,-128.5 151.38,-128.5 151.38,-98 269.38,-98 269.38,-128.5"/>
<text text-anchor="start" x="159.38" y="-115" font-family="Helvetica,sans-Serif" font-size="10.00">fabomatic::FabBackend</text>
<text text-anchor="middle" x="210.38" y="-103.75" font-family="Helvetica,sans-Serif" font-size="10.00">::registerMaintenance</text>
</a>
</g>
</g>
<!-- Node1&#45;&gt;Node29 -->
<g id="edge45_Node000001_Node000029" class="edge">
<title>Node1&#45;&gt;Node29</title>
<g id="a_edge45_Node000001_Node000029"><a xlink:title=" ">
<path fill="none" stroke="#63b8ff" d="M57.59,-441.75C59.08,-392.12 70.11,-234.96 148.75,-142.25 150.87,-139.75 153.26,-137.44 155.83,-135.33"/>
<polygon fill="#63b8ff" stroke="#63b8ff" points="157.7,-138.29 163.9,-129.7 153.7,-132.55 157.7,-138.29"/>
</a>
</g>
</g>
<!-- Node30 -->
<g id="Node000030" class="node">
<title>Node30</title>
<g id="a_Node000030"><a xlink:href="classfabomatic_1_1_machine.xhtml#a921c78777a6cb9f7fdb9780a8c1aa8c0" target="_top" xlink:title=" ">
<polygon fill="white" stroke="#666666" points="272,-79.5 148.75,-79.5 148.75,-49 272,-49 272,-79.5"/>
<text text-anchor="start" x="156.75" y="-66" font-family="Helvetica,sans-Serif" font-size="10.00">fabomatic::Machine</text>
<text text-anchor="middle" x="210.38" y="-54.75" font-family="Helvetica,sans-Serif" font-size="10.00">::setMaintenanceNeeded</text>
</a>
</g>
</g>
<!-- Node1&#45;&gt;Node30 -->
<g id="edge46_Node000001_Node000030" class="edge">
<title>Node1&#45;&gt;Node30</title>
<g id="a_edge46_Node000001_Node000030"><a xlink:title=" ">
<path fill="none" stroke="#63b8ff" d="M59.37,-441.58C67.66,-378.57 101.25,-144.34 148.75,-89.25 149.43,-88.46 150.15,-87.69 150.88,-86.95"/>
<polygon fill="#63b8ff" stroke="#63b8ff" points="152.9,-89.82 158.48,-80.81 148.5,-84.37 152.9,-89.82"/>
</a>
</g>
</g>
<!-- Node31 -->
<g id="Node000031" class="node">
<title>Node31</title>
<g id="a_Node000031"><a xlink:href="classfabomatic_1_1_fab_backend.xhtml#a96279ac5e1540441111f7ecb04ba7ce6" target="_top" xlink:title="Registers the start of machine usage.">
<polygon fill="white" stroke="#666666" points="269.38,-30.5 151.38,-30.5 151.38,0 269.38,0 269.38,-30.5"/>
<text text-anchor="start" x="159.38" y="-17" font-family="Helvetica,sans-Serif" font-size="10.00">fabomatic::FabBackend</text>
<text text-anchor="middle" x="210.38" y="-5.75" font-family="Helvetica,sans-Serif" font-size="10.00">::startUse</text>
</a>
</g>
</g>
<!-- Node1&#45;&gt;Node31 -->
<g id="edge47_Node000001_Node000031" class="edge">
<title>Node1&#45;&gt;Node31</title>
<g id="a_edge47_Node000001_Node000031"><a xlink:title=" ">
<path fill="none" stroke="#63b8ff" d="M58.85,-441.86C65.59,-374.21 95.54,-103.72 148.75,-40.25 149.31,-39.58 149.9,-38.93 150.5,-38.29"/>
<polygon fill="#63b8ff" stroke="#63b8ff" points="152.67,-41.03 158.1,-31.93 148.18,-35.66 152.67,-41.03"/>
</a>
</g>
</g>
<!-- Node32 -->
<g id="Node000032" class="node">
<title>Node32</title>
<g id="a_Node000032"><a xlink:href="classfabomatic_1_1_auth_provider.xhtml#aeae9923535dcf6cfa9eaf9e5f90e5e64" target="_top" xlink:title="Verifies the card ID against the server (if available) or the whitelist.">
<polygon fill="white" stroke="#666666" points="270.12,-429.5 150.62,-429.5 150.62,-399 270.12,-399 270.12,-429.5"/>
<text text-anchor="start" x="158.62" y="-416" font-family="Helvetica,sans-Serif" font-size="10.00">fabomatic::AuthProvider</text>
<text text-anchor="middle" x="210.38" y="-404.75" font-family="Helvetica,sans-Serif" font-size="10.00">::tryLogin</text>
</a>
</g>
</g>
<!-- Node1&#45;&gt;Node32 -->
<g id="edge48_Node000001_Node000032" class="edge">
<title>Node1&#45;&gt;Node32</title>
<g id="a_edge48_Node000001_Node000032"><a xlink:title=" ">
<path fill="none" stroke="#63b8ff" d="M112.68,-441.6C122.53,-438.82 132.88,-435.89 143,-433.03"/>
<polygon fill="#63b8ff" stroke="#63b8ff" points="143.73,-436.46 152.4,-430.37 141.82,-429.72 143.73,-436.46"/>
</a>
</g>
</g>
<!-- Node3 -->
<g id="Node000003" class="node">
<title>Node3</title>
<g id="a_Node000003"><a xlink:href="classfabomatic_1_1_buzzer.xhtml#a02e292870e840139082bb966cb6dd0b2" target="_top" xlink:title=" ">
<polygon fill="white" stroke="#666666" points="415.5,-1137.5 318.5,-1137.5 318.5,-1107 415.5,-1107 415.5,-1137.5"/>
<text text-anchor="start" x="326.5" y="-1124" font-family="Helvetica,sans-Serif" font-size="10.00">fabomatic::Buzzer::</text>
<text text-anchor="middle" x="367" y="-1112.75" font-family="Helvetica,sans-Serif" font-size="10.00">beepFail</text>
</a>
</g>
</g>
<!-- Node2&#45;&gt;Node3 -->
<g id="edge2_Node000002_Node000003" class="edge">
<title>Node2&#45;&gt;Node3</title>
<g id="a_edge2_Node000002_Node000003"><a xlink:title=" ">
<path fill="none" stroke="#63b8ff" d="M260.72,-1088.89C275.52,-1093.58 291.89,-1098.76 307.23,-1103.62"/>
<polygon fill="#63b8ff" stroke="#63b8ff" points="306.14,-1106.95 316.73,-1106.64 308.26,-1100.28 306.14,-1106.95"/>
</a>
</g>
</g>
<!-- Node3&#45;&gt;Node4 -->
<g id="edge3_Node000003_Node000004" class="edge">
<title>Node3&#45;&gt;Node4</title>
<g id="a_edge3_Node000003_Node000004"><a xlink:title=" ">
<path fill="none" stroke="#63b8ff" d="M415.67,-1127.39C462.05,-1129.86 532.41,-1126.61 580.75,-1092.25 609.26,-1071.98 600.61,-1053.29 616.75,-1022.25 633.34,-990.36 652.81,-953.43 664.55,-931.23"/>
<polygon fill="#63b8ff" stroke="#63b8ff" points="667.49,-933.15 669.07,-922.67 661.3,-929.88 667.49,-933.15"/>
</a>
</g>
</g>
<!-- Node4&#45;&gt;Node4 -->
<g id="edge5_Node000004_Node000004" class="edge">
<title>Node4&#45;&gt;Node4</title>
<g id="a_edge5_Node000004_Node000004"><a xlink:title=" ">
<path fill="none" stroke="#63b8ff" d="M651.9,-921.16C640.85,-929.77 648.92,-938.88 676.12,-938.88 691.43,-938.88 700.68,-935.99 703.87,-931.94"/>
<polygon fill="#63b8ff" stroke="#63b8ff" points="707.25,-931.02 700.82,-922.6 700.6,-933.19 707.25,-931.02"/>
</a>
</g>
</g>
<!-- Node5 -->
<g id="Node000005" class="node">
<title>Node5</title>
<g id="a_Node000005"><a xlink:href="namespacefabomatic_1_1_tasks.xhtml#aad4a932b189725b84a436888d9da5dc8" target="_top" xlink:title=" ">
<polygon fill="white" stroke="#666666" points="918,-687.88 771.5,-687.88 771.5,-668.62 918,-668.62 918,-687.88"/>
<text text-anchor="middle" x="844.75" y="-674.38" font-family="Helvetica,sans-Serif" font-size="10.00">fabomatic::Tasks::arduinoNow</text>
</a>
</g>
</g>
<!-- Node4&#45;&gt;Node5 -->
<g id="edge4_Node000004_Node000005" class="edge">
<title>Node4&#45;&gt;Node5</title>
<g id="a_edge4_Node000004_Node000005"><a xlink:title=" ">
<path fill="none" stroke="#63b8ff" d="M706.1,-901.13C716.28,-896.54 727.23,-890.3 735.5,-882.25 791.21,-828.01 824.64,-738.87 837.57,-698.84"/>
<polygon fill="#63b8ff" stroke="#63b8ff" points="840.84,-700.12 840.48,-689.53 834.16,-698.04 840.84,-700.12"/>
</a>
</g>
</g>
<!-- Node7 -->
<g id="Node000007" class="node">
<title>Node7</title>
<g id="a_Node000007"><a xlink:href="classfabomatic_1_1_buzzer.xhtml#af732a4349a272129c2f5f1ce2522ffd5" target="_top" xlink:title=" ">
<polygon fill="white" stroke="#666666" points="415.5,-989.5 318.5,-989.5 318.5,-959 415.5,-959 415.5,-989.5"/>
<text text-anchor="start" x="326.5" y="-976" font-family="Helvetica,sans-Serif" font-size="10.00">fabomatic::Buzzer::</text>
<text text-anchor="middle" x="367" y="-964.75" font-family="Helvetica,sans-Serif" font-size="10.00">beepOk</text>
</a>
</g>
</g>
<!-- Node6&#45;&gt;Node7 -->
<g id="edge7_Node000006_Node000007" class="edge">
<title>Node6&#45;&gt;Node7</title>
<g id="a_edge7_Node000006_Node000007"><a xlink:title=" ">
<path fill="none" stroke="#63b8ff" d="M256.93,-936.87C273.46,-942.53 292.32,-949 309.67,-954.94"/>
<polygon fill="#63b8ff" stroke="#63b8ff" points="308.21,-958.14 318.8,-958.07 310.48,-951.52 308.21,-958.14"/>
</a>
</g>
</g>
<!-- Node7&#45;&gt;Node4 -->
<g id="edge8_Node000007_Node000004" class="edge">
<title>Node7&#45;&gt;Node4</title>
<g id="a_edge8_Node000007_Node000004"><a xlink:title=" ">
<path fill="none" stroke="#63b8ff" d="M377.46,-989.93C392.2,-1012.67 423.08,-1053.89 462,-1070.25 510.65,-1090.7 534.88,-1096.36 580.75,-1070.25 594.52,-1062.41 643.19,-972.09 664.73,-931.17"/>
<polygon fill="#63b8ff" stroke="#63b8ff" points="667.79,-932.88 669.33,-922.39 661.59,-929.63 667.79,-932.88"/>
</a>
</g>
</g>
<!-- Node9 -->
<g id="Node000009" class="node">
<title>Node9</title>
<g id="a_Node000009"><a xlink:href="classfabomatic_1_1_board_logic.xhtml#a47b4d515c0d3488eceb49769036bce8b" target="_top" xlink:title="Updates the LCD screen as per the current status.">
<polygon fill="white" stroke="#666666" points="423.38,-537.5 310.62,-537.5 310.62,-507 423.38,-507 423.38,-537.5"/>
<text text-anchor="start" x="318.62" y="-524" font-family="Helvetica,sans-Serif" font-size="10.00">fabomatic::BoardLogic</text>
<text text-anchor="middle" x="367" y="-512.75" font-family="Helvetica,sans-Serif" font-size="10.00">::updateLCD</text>
</a>
</g>
</g>
<!-- Node8&#45;&gt;Node9 -->
<g id="edge10_Node000008_Node000009" class="edge">
<title>Node8&#45;&gt;Node9</title>
<g id="a_edge10_Node000008_Node000009"><a xlink:title=" ">
<path fill="none" stroke="#63b8ff" d="M267.2,-522.25C277.49,-522.25 288.33,-522.25 298.92,-522.25"/>
<polygon fill="#63b8ff" stroke="#63b8ff" points="298.75,-525.75 308.75,-522.25 298.75,-518.75 298.75,-525.75"/>
</a>
</g>
</g>
<!-- Node9&#45;&gt;Node10 -->
<g id="edge11_Node000009_Node000010" class="edge">
<title>Node9&#45;&gt;Node10</title>
<g id="a_edge11_Node000009_Node000010"><a xlink:title=" ">
<path fill="none" stroke="#63b8ff" d="M384.4,-537.88C402.47,-554.61 432.85,-581.28 462,-600.25 466.22,-603 470.74,-605.67 475.33,-608.2"/>
<polygon fill="#63b8ff" stroke="#63b8ff" points="473.56,-611.23 484.04,-612.81 476.83,-605.04 473.56,-611.23"/>
</a>
</g>
</g>
<!-- Node11 -->
<g id="Node000011" class="node">
<title>Node11</title>
<g id="a_Node000011"><a xlink:href="classfabomatic_1_1_board_logic.xhtml#a462b4b6149ca7bf33b699eb3181c969f" target="_top" xlink:title=" ">
<polygon fill="white" stroke="#666666" points="577.75,-742.5 465,-742.5 465,-712 577.75,-712 577.75,-742.5"/>
<text text-anchor="start" x="473" y="-729" font-family="Helvetica,sans-Serif" font-size="10.00">fabomatic::BoardLogic</text>
<text text-anchor="middle" x="521.38" y="-717.75" font-family="Helvetica,sans-Serif" font-size="10.00">::getLcd</text>
</a>
</g>
</g>
<!-- Node9&#45;&gt;Node11 -->
<g id="edge12_Node000009_Node000011" class="edge">
<title>Node9&#45;&gt;Node11</title>
<g id="a_edge12_Node000009_Node000011"><a xlink:title=" ">
<path fill="none" stroke="#63b8ff" d="M372.25,-537.96C382.28,-572.25 410.53,-654.58 462,-702.25 463.07,-703.24 464.18,-704.19 465.34,-705.12"/>
<polygon fill="#63b8ff" stroke="#63b8ff" points="463.29,-707.95 473.53,-710.66 467.21,-702.16 463.29,-707.95"/>
</a>
</g>
</g>
<!-- Node12 -->
<g id="Node000012" class="node">
<title>Node12</title>
<g id="a_Node000012"><a xlink:href="classfabomatic_1_1_board_logic.xhtml#a164e40105242d0b7c56c6b4f21155101" target="_top" xlink:title="Gets the current machine.">
<polygon fill="white" stroke="#666666" points="577.75,-411.5 465,-411.5 465,-381 577.75,-381 577.75,-411.5"/>
<text text-anchor="start" x="473" y="-398" font-family="Helvetica,sans-Serif" font-size="10.00">fabomatic::BoardLogic</text>
<text text-anchor="middle" x="521.38" y="-386.75" font-family="Helvetica,sans-Serif" font-size="10.00">::getMachine</text>
</a>
</g>
</g>
<!-- Node9&#45;&gt;Node12 -->
<g id="edge14_Node000009_Node000012" class="edge">
<title>Node9&#45;&gt;Node12</title>
<g id="a_edge14_Node000009_Node000012"><a xlink:title=" ">
<path fill="none" stroke="#63b8ff" d="M408.04,-506.55C414.54,-502.84 420.83,-498.42 426,-493.25 451.3,-467.95 435.97,-445.79 462,-421.25 463.06,-420.25 464.17,-419.29 465.31,-418.36"/>
<polygon fill="#63b8ff" stroke="#63b8ff" points="467.19,-421.31 473.47,-412.78 463.24,-415.54 467.19,-421.31"/>
</a>
</g>
</g>
<!-- Node13 -->
<g id="Node000013" class="node">
<title>Node13</title>
<g id="a_Node000013"><a xlink:href="classfabomatic_1_1_machine.xhtml#a1637e99f2d70262d2ab26f69ed4f0e47" target="_top" xlink:title=" ">
<polygon fill="white" stroke="#666666" points="571.38,-558.5 471.38,-558.5 471.38,-528 571.38,-528 571.38,-558.5"/>
<text text-anchor="start" x="479.38" y="-545" font-family="Helvetica,sans-Serif" font-size="10.00">fabomatic::Machine</text>
<text text-anchor="middle" x="521.38" y="-533.75" font-family="Helvetica,sans-Serif" font-size="10.00">::getMachineName</text>
</a>
</g>
</g>
<!-- Node9&#45;&gt;Node13 -->
<g id="edge15_Node000009_Node000013" class="edge">
<title>Node9&#45;&gt;Node13</title>
<g id="a_edge15_Node000009_Node000013"><a xlink:title=" ">
<path fill="none" stroke="#63b8ff" d="M423.87,-529.95C435.59,-531.56 447.99,-533.27 459.87,-534.91"/>
<polygon fill="#63b8ff" stroke="#63b8ff" points="459.17,-538.35 469.55,-536.25 460.12,-531.41 459.17,-538.35"/>
</a>
</g>
</g>
<!-- Node14 -->
<g id="Node000014" class="node">
<title>Node14</title>
<g id="a_Node000014"><a xlink:href="classfabomatic_1_1_machine.xhtml#ad511c567c7cb7487d19019550c9a4e32" target="_top" xlink:title=" ">
<polygon fill="white" stroke="#666666" points="574.38,-509.5 468.38,-509.5 468.38,-479 574.38,-479 574.38,-509.5"/>
<text text-anchor="start" x="476.38" y="-496" font-family="Helvetica,sans-Serif" font-size="10.00">fabomatic::Machine</text>
<text text-anchor="middle" x="521.38" y="-484.75" font-family="Helvetica,sans-Serif" font-size="10.00">::getMaintenanceInfo</text>
</a>
</g>
</g>
<!-- Node9&#45;&gt;Node14 -->
<g id="edge16_Node000009_Node000014" class="edge">
<title>Node9&#45;&gt;Node14</title>
<g id="a_edge16_Node000009_Node000014"><a xlink:title=" ">
<path fill="none" stroke="#63b8ff" d="M423.87,-511.98C434.59,-510.01 445.89,-507.94 456.82,-505.93"/>
<polygon fill="#63b8ff" stroke="#63b8ff" points="457.36,-509.39 466.56,-504.14 456.1,-502.5 457.36,-509.39"/>
</a>
</g>
</g>
<!-- Node15 -->
<g id="Node000015" class="node">
<title>Node15</title>
<g id="a_Node000015"><a xlink:href="classfabomatic_1_1_machine.xhtml#a3c5304fd80e0cc1c2118a59c64222d6d" target="_top" xlink:title="Returns the current power state of the machine.">
<polygon fill="white" stroke="#666666" points="571.38,-840.5 471.38,-840.5 471.38,-810 571.38,-810 571.38,-840.5"/>
<text text-anchor="start" x="479.38" y="-827" font-family="Helvetica,sans-Serif" font-size="10.00">fabomatic::Machine</text>
<text text-anchor="middle" x="521.38" y="-815.75" font-family="Helvetica,sans-Serif" font-size="10.00">::getPowerState</text>
</a>
</g>
</g>
<!-- Node9&#45;&gt;Node15 -->
<g id="edge17_Node000009_Node000015" class="edge">
<title>Node9&#45;&gt;Node15</title>
<g id="a_edge17_Node000009_Node000015"><a xlink:title=" ">
<path fill="none" stroke="#63b8ff" d="M368.93,-537.68C372.49,-583.64 389.03,-721.31 462,-800.25 462.72,-801.03 463.47,-801.79 464.24,-802.52"/>
<polygon fill="#63b8ff" stroke="#63b8ff" points="462.1,-805.29 472.16,-808.62 466.37,-799.74 462.1,-805.29"/>
</a>
</g>
</g>
<!-- Node16 -->
<g id="Node000016" class="node">
<title>Node16</title>
<g id="a_Node000016"><a xlink:href="classfabomatic_1_1_machine.xhtml#a9c845a163660550fa779516a8be8681a" target="_top" xlink:title="Duration of the current usage, or 0s.">
<polygon fill="white" stroke="#666666" points="726.12,-626.5 626.12,-626.5 626.12,-596 726.12,-596 726.12,-626.5"/>
<text text-anchor="start" x="634.12" y="-613" font-family="Helvetica,sans-Serif" font-size="10.00">fabomatic::Machine</text>
<text text-anchor="middle" x="676.12" y="-601.75" font-family="Helvetica,sans-Serif" font-size="10.00">::getUsageDuration</text>
</a>
</g>
</g>
<!-- Node9&#45;&gt;Node16 -->
<g id="edge18_Node000009_Node000016" class="edge">
<title>Node9&#45;&gt;Node16</title>
<g id="a_edge18_Node000009_Node000016"><a xlink:title=" ">
<path fill="none" stroke="#63b8ff" d="M396.04,-537.89C414.35,-547.54 439.02,-559.51 462,-567.25 512.28,-584.2 571.54,-595.79 614.79,-602.81"/>
<polygon fill="#63b8ff" stroke="#63b8ff" points="614.07,-606.24 624.49,-604.34 615.16,-599.32 614.07,-606.24"/>
</a>
</g>
</g>
<!-- Node9&#45;&gt;Node17 -->
<g id="edge20_Node000009_Node000017" class="edge">
<title>Node9&#45;&gt;Node17</title>
<g id="a_edge20_Node000009_Node000017"><a xlink:title=" ">
<path fill="none" stroke="#63b8ff" d="M386.67,-506.66C399.44,-495.07 415.83,-478.21 426,-460.25 454.7,-409.57 423.18,-377.67 462,-334.25 462.36,-333.85 462.72,-333.46 463.09,-333.07"/>
<polygon fill="#63b8ff" stroke="#63b8ff" points="465.15,-335.92 470.62,-326.85 460.69,-330.52 465.15,-335.92"/>
</a>
</g>
</g>
<!-- Node18 -->
<g id="Node000018" class="node">
<title>Node18</title>
<g id="a_Node000018"><a xlink:href="classfabomatic_1_1_machine.xhtml#a9fd614d86b6108a5a7b54fc9eee0d9a6" target="_top" xlink:title="Indicates if the machine has been configured.">
<polygon fill="white" stroke="#666666" points="571.38,-460.5 471.38,-460.5 471.38,-430 571.38,-430 571.38,-460.5"/>
<text text-anchor="start" x="479.38" y="-447" font-family="Helvetica,sans-Serif" font-size="10.00">fabomatic::Machine</text>
<text text-anchor="middle" x="521.38" y="-435.75" font-family="Helvetica,sans-Serif" font-size="10.00">::isConfigured</text>
</a>
</g>
</g>
<!-- Node9&#45;&gt;Node18 -->
<g id="edge21_Node000009_Node000018" class="edge">
<title>Node9&#45;&gt;Node18</title>
<g id="a_edge21_Node000009_Node000018"><a xlink:title=" ">
<path fill="none" stroke="#63b8ff" d="M400.83,-506.58C409.13,-502.42 417.97,-497.81 426,-493.25 442.51,-483.88 445.22,-479.13 462,-470.25 464.88,-468.73 467.87,-467.22 470.91,-465.75"/>
<polygon fill="#63b8ff" stroke="#63b8ff" points="472.36,-468.94 479.96,-461.55 469.42,-462.59 472.36,-468.94"/>
</a>
</g>
</g>
<!-- Node9&#45;&gt;Node19 -->
<g id="edge22_Node000009_Node000019" class="edge">
<title>Node9&#45;&gt;Node19</title>
<g id="a_edge22_Node000009_Node000019"><a xlink:title=" ">
<path fill="none" stroke="#63b8ff" d="M387.36,-506.64C400.29,-495.16 416.57,-478.44 426,-460.25 462.33,-390.13 412.03,-347.4 462,-286.25 462.55,-285.58 463.12,-284.92 463.71,-284.29"/>
<polygon fill="#63b8ff" stroke="#63b8ff" points="465.84,-287.07 471.19,-277.92 461.31,-281.74 465.84,-287.07"/>
</a>
</g>
</g>
<!-- Node20 -->
<g id="Node000020" class="node">
<title>Node20</title>
<g id="a_Node000020"><a xlink:href="classfabomatic_1_1_fab_backend.xhtml#aef092e0e1db0c3539d5474fad2456255" target="_top" xlink:title="Checks if the client is online.">
<polygon fill="white" stroke="#666666" points="580.38,-791.5 462.38,-791.5 462.38,-761 580.38,-761 580.38,-791.5"/>
<text text-anchor="start" x="470.38" y="-778" font-family="Helvetica,sans-Serif" font-size="10.00">fabomatic::FabBackend</text>
<text text-anchor="middle" x="521.38" y="-766.75" font-family="Helvetica,sans-Serif" font-size="10.00">::isOnline</text>
</a>
</g>
</g>
<!-- Node9&#45;&gt;Node20 -->
<g id="edge23_Node000009_Node000020" class="edge">
<title>Node9&#45;&gt;Node20</title>
<g id="a_edge23_Node000009_Node000020"><a xlink:title=" ">
<path fill="none" stroke="#63b8ff" d="M372.74,-538C386.96,-584.33 430.18,-718.95 462,-751.25 463,-752.27 464.05,-753.24 465.14,-754.18"/>
<polygon fill="#63b8ff" stroke="#63b8ff" points="462.77,-756.79 472.93,-759.79 466.86,-751.11 462.77,-756.79"/>
</a>
</g>
</g>
<!-- Node21 -->
<g id="Node000021" class="node">
<title>Node21</title>
<g id="a_Node000021"><a xlink:href="classfabomatic_1_1_machine.xhtml#a871958cc57845c8651cf1058ed9b30e4" target="_top" xlink:title="Indicates if the machine will power down in less than BEEP_REMAINING_MINUTES.">
<polygon fill="white" stroke="#666666" points="577.38,-693.5 465.38,-693.5 465.38,-663 577.38,-663 577.38,-693.5"/>
<text text-anchor="start" x="473.38" y="-680" font-family="Helvetica,sans-Serif" font-size="10.00">fabomatic::Machine</text>
<text text-anchor="middle" x="521.38" y="-668.75" font-family="Helvetica,sans-Serif" font-size="10.00">::isShutdownImminent</text>
</a>
</g>
</g>
<!-- Node9&#45;&gt;Node21 -->
<g id="edge24_Node000009_Node000021" class="edge">
<title>Node9&#45;&gt;Node21</title>
<g id="a_edge24_Node000009_Node000021"><a xlink:title=" ">
<path fill="none" stroke="#63b8ff" d="M375.47,-537.67C389.17,-564.51 420.75,-620.13 462,-653.25 463.51,-654.46 465.08,-655.62 466.71,-656.74"/>
<polygon fill="#63b8ff" stroke="#63b8ff" points="464.79,-659.67 475.16,-661.82 468.4,-653.67 464.79,-659.67"/>
</a>
</g>
</g>
<!-- Node9&#45;&gt;Node22 -->
<g id="edge26_Node000009_Node000022" class="edge">
<title>Node9&#45;&gt;Node22</title>
<g id="a_edge26_Node000009_Node000022"><a xlink:title=" ">
<path fill="none" stroke="#63b8ff" d="M410.01,-506.56C415.98,-502.91 421.59,-498.51 426,-493.25 462.07,-450.27 422.83,-412.43 462,-372.25 463,-371.22 464.07,-370.25 465.17,-369.32"/>
<polygon fill="#63b8ff" stroke="#63b8ff" points="466.75,-372.48 473.19,-364.07 462.91,-366.62 466.75,-372.48"/>
</a>
</g>
</g>
<!-- Node11&#45;&gt;Node4 -->
<g id="edge13_Node000011_Node000004" class="edge">
<title>Node11&#45;&gt;Node4</title>
<g id="a_edge13_Node000011_Node000004"><a xlink:title=" ">
<path fill="none" stroke="#63b8ff" d="M567.19,-742.87C572.04,-745.57 576.69,-748.69 580.75,-752.25 625.46,-791.46 654.88,-857.18 667.73,-890.51"/>
<polygon fill="#63b8ff" stroke="#63b8ff" points="664.42,-891.65 671.18,-899.8 670.98,-889.21 664.42,-891.65"/>
</a>
</g>
</g>
<!-- Node16&#45;&gt;Node5 -->
<g id="edge19_Node000016_Node000005" class="edge">
<title>Node16&#45;&gt;Node5</title>
<g id="a_edge19_Node000016_Node000005"><a xlink:title=" ">
<path fill="none" stroke="#63b8ff" d="M716.19,-626.96C744.09,-638.18 781.31,-653.14 808.35,-664.01"/>
<polygon fill="#63b8ff" stroke="#63b8ff" points="806.9,-667.2 817.48,-667.69 809.51,-660.71 806.9,-667.2"/>
</a>
</g>
</g>
<!-- Node21&#45;&gt;Node5 -->
<g id="edge25_Node000021_Node000005" class="edge">
<title>Node21&#45;&gt;Node5</title>
<g id="a_edge25_Node000021_Node000005"><a xlink:title=" ">
<path fill="none" stroke="#63b8ff" d="M577.62,-678.25C627.76,-678.25 702.42,-678.25 759.91,-678.25"/>
<polygon fill="#63b8ff" stroke="#63b8ff" points="759.65,-681.75 769.65,-678.25 759.65,-674.75 759.65,-681.75"/>
</a>
</g>
</g>
<!-- Node23&#45;&gt;Node5 -->
<g id="edge32_Node000023_Node000005" class="edge">
<title>Node23&#45;&gt;Node5</title>
<g id="a_edge32_Node000023_Node000005"><a xlink:title=" ">
<path fill="none" stroke="#63b8ff" d="M683.66,-301.62C709.65,-362.77 805.76,-588.87 835.15,-658.02"/>
<polygon fill="#63b8ff" stroke="#63b8ff" points="831.83,-659.16 838.96,-666.99 838.27,-656.42 831.83,-659.16"/>
</a>
</g>
</g>
<!-- Node24&#45;&gt;Node4 -->
<g id="edge35_Node000024_Node000004" class="edge">
<title>Node24&#45;&gt;Node4</title>
<g id="a_edge35_Node000024_Node000004"><a xlink:title=" ">
<path fill="none" stroke="#63b8ff" d="M376.25,-861.97C394.06,-895.24 436.57,-970.8 462,-984.25 508.66,-1008.92 530.81,-1001.31 580.75,-984.25 612.42,-973.43 641.7,-947.19 659,-929.31"/>
<polygon fill="#63b8ff" stroke="#63b8ff" points="661.18,-932.1 665.45,-922.41 656.07,-927.32 661.18,-932.1"/>
</a>
</g>
</g>
<!-- Node24&#45;&gt;Node5 -->
<g id="edge34_Node000024_Node000005" class="edge">
<title>Node24&#45;&gt;Node5</title>
<g id="a_edge34_Node000024_Node000005"><a xlink:title=" ">
<path fill="none" stroke="#63b8ff" d="M423.44,-855.93C467.12,-861.45 529.04,-864.58 580.75,-849.25 683.93,-818.66 784.53,-733.41 825.05,-696.11"/>
<polygon fill="#63b8ff" stroke="#63b8ff" points="827.37,-698.73 832.29,-689.34 822.59,-693.61 827.37,-698.73"/>
</a>
</g>
</g>
<!-- Node24&#45;&gt;Node11 -->
<g id="edge36_Node000024_Node000011" class="edge">
<title>Node24&#45;&gt;Node11</title>
<g id="a_edge36_Node000024_Node000011"><a xlink:title=" ">
<path fill="none" stroke="#63b8ff" d="M380.23,-830.77C396.91,-810.5 428.55,-774.89 462,-752.25 463.96,-750.92 466,-749.64 468.1,-748.41"/>
<polygon fill="#63b8ff" stroke="#63b8ff" points="469.71,-751.52 476.88,-743.71 466.41,-745.35 469.71,-751.52"/>
</a>
</g>
</g>
<!-- Node24&#45;&gt;Node15 -->
<g id="edge37_Node000024_Node000015" class="edge">
<title>Node24&#45;&gt;Node15</title>
<g id="a_edge37_Node000024_Node000015"><a xlink:title=" ">
<path fill="none" stroke="#63b8ff" d="M423.87,-838.55C435.59,-836.94 447.99,-835.23 459.87,-833.59"/>
<polygon fill="#63b8ff" stroke="#63b8ff" points="460.12,-837.09 469.55,-832.25 459.17,-830.15 460.12,-837.09"/>
</a>
</g>
</g>
<!-- Node24&#45;&gt;Node20 -->
<g id="edge40_Node000024_Node000020" class="edge">
<title>Node24&#45;&gt;Node20</title>
<g id="a_edge40_Node000024_Node000020"><a xlink:title=" ">
<path fill="none" stroke="#63b8ff" d="M400.04,-830.5C418.14,-821.71 441.24,-810.66 462,-801.25 465.52,-799.65 469.17,-798.03 472.85,-796.41"/>
<polygon fill="#63b8ff" stroke="#63b8ff" points="474.06,-799.7 481.83,-792.49 471.26,-793.28 474.06,-799.7"/>
</a>
</g>
</g>
<!-- Node24&#45;&gt;Node21 -->
<g id="edge41_Node000024_Node000021" class="edge">
<title>Node24&#45;&gt;Node21</title>
<g id="a_edge41_Node000024_Node000021"><a xlink:title=" ">
<path fill="none" stroke="#63b8ff" d="M374.49,-830.77C387.25,-802 418.26,-739.87 462,-703.25 463.45,-702.03 464.97,-700.87 466.55,-699.75"/>
<polygon fill="#63b8ff" stroke="#63b8ff" points="468.07,-702.92 474.73,-694.68 464.39,-696.97 468.07,-702.92"/>
</a>
</g>
</g>
<!-- Node25 -->
<g id="Node000025" class="node">
<title>Node25</title>
<g id="a_Node000025"><a xlink:href="classfabomatic_1_1_board_logic.xhtml#a7b151fca2de8263b021b8b6f26e5d0ab" target="_top" xlink:title=" ">
<polygon fill="white" stroke="#666666" points="577.75,-926.5 465,-926.5 465,-896 577.75,-896 577.75,-926.5"/>
<text text-anchor="start" x="473" y="-913" font-family="Helvetica,sans-Serif" font-size="10.00">fabomatic::BoardLogic</text>
<text text-anchor="middle" x="521.38" y="-901.75" font-family="Helvetica,sans-Serif" font-size="10.00">::getRfid</text>
</a>
</g>
</g>
<!-- Node24&#45;&gt;Node25 -->
<g id="edge38_Node000024_Node000025" class="edge">
<title>Node24&#45;&gt;Node25</title>
<g id="a_edge38_Node000024_Node000025"><a xlink:title=" ">
<path fill="none" stroke="#63b8ff" d="M404.89,-861.98C425.4,-870.73 451.14,-881.72 473.12,-891.09"/>
<polygon fill="#63b8ff" stroke="#63b8ff" points="471.6,-894.25 482.17,-894.95 474.35,-887.81 471.6,-894.25"/>
</a>
</g>
</g>
<!-- Node26 -->
<g id="Node000026" class="node">
<title>Node26</title>
<g id="a_Node000026"><a xlink:href="classfabomatic_1_1_l_c_d_wrapper.xhtml#a965b81b3102972fdfd7bd5889f703904" target="_top" xlink:title=" ">
<polygon fill="white" stroke="#666666" points="580.75,-975.5 462,-975.5 462,-945 580.75,-945 580.75,-975.5"/>
<text text-anchor="start" x="470" y="-962" font-family="Helvetica,sans-Serif" font-size="10.00">fabomatic::LCDWrapper</text>
<text text-anchor="middle" x="521.38" y="-950.75" font-family="Helvetica,sans-Serif" font-size="10.00">::setRow</text>
</a>
</g>
</g>
<!-- Node24&#45;&gt;Node26 -->
<g id="edge42_Node000024_Node000026" class="edge">
<title>Node24&#45;&gt;Node26</title>
<g id="a_edge42_Node000024_Node000026"><a xlink:title=" ">
<path fill="none" stroke="#63b8ff" d="M381.29,-861.85C398.37,-881.14 429.7,-914.02 462,-935.25 464.1,-936.63 466.28,-937.96 468.52,-939.24"/>
<polygon fill="#63b8ff" stroke="#63b8ff" points="466.78,-942.28 477.26,-943.82 470.03,-936.08 466.78,-942.28"/>
</a>
</g>
</g>
<!-- Node27 -->
<g id="Node000027" class="node">
<title>Node27</title>
<g id="a_Node000027"><a xlink:href="classfabomatic_1_1_l_c_d_wrapper.xhtml#aad6858b0cdc35041a714b582134e16f1" target="_top" xlink:title=" ">
<polygon fill="white" stroke="#666666" points="580.75,-1061.5 462,-1061.5 462,-1031 580.75,-1031 580.75,-1061.5"/>
<text text-anchor="start" x="470" y="-1048" font-family="Helvetica,sans-Serif" font-size="10.00">fabomatic::LCDWrapper</text>
<text text-anchor="middle" x="521.38" y="-1036.75" font-family="Helvetica,sans-Serif" font-size="10.00">::update</text>
</a>
</g>
</g>
<!-- Node24&#45;&gt;Node27 -->
<g id="edge43_Node000024_Node000027" class="edge">
<title>Node24&#45;&gt;Node27</title>
<g id="a_edge43_Node000024_Node000027"><a xlink:title=" ">
<path fill="none" stroke="#63b8ff" d="M376.72,-861.71C388.14,-881.99 408.73,-918.7 426,-950.25 442.23,-979.9 437.72,-993.73 462,-1017.25 464.68,-1019.85 467.64,-1022.26 470.77,-1024.49"/>
<polygon fill="#63b8ff" stroke="#63b8ff" points="468.9,-1027.45 479.22,-1029.82 472.63,-1021.52 468.9,-1027.45"/>
</a>
</g>
</g>
<!-- Node25&#45;&gt;Node4 -->
<g id="edge39_Node000025_Node000004" class="edge">
<title>Node25&#45;&gt;Node4</title>
<g id="a_edge39_Node000025_Node000004"><a xlink:title=" ">
<path fill="none" stroke="#63b8ff" d="M577.95,-911.25C586.99,-911.25 596.45,-911.25 605.76,-911.25"/>
<polygon fill="#63b8ff" stroke="#63b8ff" points="605.51,-914.75 615.5,-911.25 605.5,-907.75 605.51,-914.75"/>
</a>
</g>
</g>
<!-- Node28 -->
<g id="Node000028" class="node">
<title>Node28</title>
<g id="a_Node000028"><a xlink:href="classfabomatic_1_1_l_c_d_wrapper.xhtml#aa6ad05c9ac8fd3ad6de6553732709acd" target="_top" xlink:title=" ">
<polygon fill="white" stroke="#666666" points="735.5,-1061.5 616.75,-1061.5 616.75,-1031 735.5,-1031 735.5,-1061.5"/>
<text text-anchor="start" x="624.75" y="-1048" font-family="Helvetica,sans-Serif" font-size="10.00">fabomatic::LCDWrapper</text>
<text text-anchor="middle" x="676.12" y="-1036.75" font-family="Helvetica,sans-Serif" font-size="10.00">::clear</text>
</a>
</g>
</g>
<!-- Node27&#45;&gt;Node28 -->
<g id="edge44_Node000027_Node000028" class="edge">
<title>Node27&#45;&gt;Node28</title>
<g id="a_edge44_Node000027_Node000028"><a xlink:title=" ">
<path fill="none" stroke="#63b8ff" d="M581,-1046.25C588.89,-1046.25 597.05,-1046.25 605.11,-1046.25"/>
<polygon fill="#63b8ff" stroke="#63b8ff" points="604.9,-1049.75 614.9,-1046.25 604.9,-1042.75 604.9,-1049.75"/>
</a>
</g>
</g>
<!-- Node32&#45;&gt;Node20 -->
<g id="edge56_Node000032_Node000020" class="edge">
<title>Node32&#45;&gt;Node20</title>
<g id="a_edge56_Node000032_Node000020"><a xlink:title=" ">
<path fill="none" stroke="#63b8ff" d="M222.62,-429.84C269.3,-494.5 446.09,-738.76 462,-751.25 463.52,-752.44 465.11,-753.59 466.74,-754.69"/>
<polygon fill="#63b8ff" stroke="#63b8ff" points="464.85,-757.64 475.23,-759.74 468.42,-751.62 464.85,-757.64"/>
</a>
</g>
</g>
<!-- Node32&#45;&gt;Node22 -->
<g id="edge58_Node000032_Node000022" class="edge">
<title>Node32&#45;&gt;Node22</title>
<g id="a_edge58_Node000032_Node000022"><a xlink:title=" ">
<path fill="none" stroke="#63b8ff" d="M270.24,-403.85C313.42,-396.08 373.45,-384.99 426,-374.25 438.85,-371.62 452.64,-368.65 465.61,-365.77"/>
<polygon fill="#63b8ff" stroke="#63b8ff" points="466.27,-369.21 475.27,-363.62 464.75,-362.38 466.27,-369.21"/>
</a>
</g>
</g>
<!-- Node33 -->
<g id="Node000033" class="node">
<title>Node33</title>
<g id="a_Node000033"><a xlink:href="classfabomatic_1_1_fab_backend.xhtml#a0e4d6d289b03582bf6ea9e78e15dd79e" target="_top" xlink:title="Checks if the card ID is known to the server.">
<polygon fill="white" stroke="#666666" points="426,-365.5 308,-365.5 308,-335 426,-335 426,-365.5"/>
<text text-anchor="start" x="316" y="-352" font-family="Helvetica,sans-Serif" font-size="10.00">fabomatic::FabBackend</text>
<text text-anchor="middle" x="367" y="-340.75" font-family="Helvetica,sans-Serif" font-size="10.00">::checkCard</text>
</a>
</g>
</g>
<!-- Node32&#45;&gt;Node33 -->
<g id="edge49_Node000032_Node000033" class="edge">
<title>Node32&#45;&gt;Node33</title>
<g id="a_edge49_Node000032_Node000033"><a xlink:title=" ">
<path fill="none" stroke="#63b8ff" d="M249.2,-398.59C269.79,-390.07 295.49,-379.43 317.54,-370.31"/>
<polygon fill="#63b8ff" stroke="#63b8ff" points="318.73,-373.6 326.63,-366.55 316.05,-367.14 318.73,-373.6"/>
</a>
</g>
</g>
<!-- Node34 -->
<g id="Node000034" class="node">
<title>Node34</title>
<g id="a_Node000034"><a xlink:href="classfabomatic_1_1_fab_backend.xhtml#a1a45f556aadcbc428d14b7c7577ed43d" target="_top" xlink:title="Establishes a connection to the WiFi network and the MQTT server.">
<polygon fill="white" stroke="#666666" points="426,-190.5 308,-190.5 308,-160 426,-160 426,-190.5"/>
<text text-anchor="start" x="316" y="-177" font-family="Helvetica,sans-Serif" font-size="10.00">fabomatic::FabBackend</text>
<text text-anchor="middle" x="367" y="-165.75" font-family="Helvetica,sans-Serif" font-size="10.00">::connect</text>
</a>
</g>
</g>
<!-- Node32&#45;&gt;Node34 -->
<g id="edge50_Node000032_Node000034" class="edge">
<title>Node32&#45;&gt;Node34</title>
<g id="a_edge50_Node000032_Node000034"><a xlink:title=" ">
<path fill="none" stroke="#63b8ff" d="M221.52,-398.57C247.68,-358.14 317.59,-250.08 349.59,-200.61"/>
<polygon fill="#63b8ff" stroke="#63b8ff" points="352.5,-202.56 355,-192.26 346.62,-198.75 352.5,-202.56"/>
</a>
</g>
</g>
<!-- Node38 -->
<g id="Node000038" class="node">
<title>Node38</title>
<g id="a_Node000038"><a xlink:href="structfabomatic_1_1_fab_user.xhtml#ab4b54f1830f1536824583e973d670582" target="_top" xlink:title=" ">
<polygon fill="white" stroke="#666666" points="417.38,-451.5 316.62,-451.5 316.62,-421 417.38,-421 417.38,-451.5"/>
<text text-anchor="start" x="324.62" y="-438" font-family="Helvetica,sans-Serif" font-size="10.00">fabomatic::FabUser</text>
<text text-anchor="middle" x="367" y="-426.75" font-family="Helvetica,sans-Serif" font-size="10.00">::toString</text>
</a>
</g>
</g>
<!-- Node32&#45;&gt;Node38 -->
<g id="edge57_Node000032_Node000038" class="edge">
<title>Node32&#45;&gt;Node38</title>
<g id="a_edge57_Node000032_Node000038"><a xlink:title=" ">
<path fill="none" stroke="#63b8ff" d="M270.27,-422.63C281.67,-424.25 293.63,-425.95 305.08,-427.58"/>
<polygon fill="#63b8ff" stroke="#63b8ff" points="304.44,-431.03 314.83,-428.97 305.43,-424.1 304.44,-431.03"/>
</a>
</g>
</g>
<!-- Node34&#45;&gt;Node4 -->
<g id="edge53_Node000034_Node000004" class="edge">
<title>Node34&#45;&gt;Node4</title>
<g id="a_edge53_Node000034_Node000004"><a xlink:title=" ">
<path fill="none" stroke="#63b8ff" d="M426.24,-190.49C487.46,-206.77 575.67,-231.08 580.75,-237.25 637.19,-305.81 603.54,-547.43 616.75,-635.25 631.2,-731.32 658.3,-844.21 669.78,-890.18"/>
<polygon fill="#63b8ff" stroke="#63b8ff" points="666.37,-890.99 672.2,-899.83 673.16,-889.28 666.37,-890.99"/>
</a>
</g>
</g>
<!-- Node35 -->
<g id="Node000035" class="node">
<title>Node35</title>
<g id="a_Node000035"><a xlink:href="classfabomatic_1_1_fab_backend.xhtml#ad928751b2f967feaac0f2cb708c0d6e9" target="_top" xlink:title="Connects to the WiFi network.">
<polygon fill="white" stroke="#666666" points="580.38,-190.5 462.38,-190.5 462.38,-160 580.38,-160 580.38,-190.5"/>
<text text-anchor="start" x="470.38" y="-177" font-family="Helvetica,sans-Serif" font-size="10.00">fabomatic::FabBackend</text>
<text text-anchor="middle" x="521.38" y="-165.75" font-family="Helvetica,sans-Serif" font-size="10.00">::connectWiFi</text>
</a>
</g>
</g>
<!-- Node34&#45;&gt;Node35 -->
<g id="edge51_Node000034_Node000035" class="edge">
<title>Node34&#45;&gt;Node35</title>
<g id="a_edge51_Node000034_Node000035"><a xlink:title=" ">
<path fill="none" stroke="#63b8ff" d="M426.48,-175.25C434.41,-175.25 442.61,-175.25 450.71,-175.25"/>
<polygon fill="#63b8ff" stroke="#63b8ff" points="450.54,-178.75 460.54,-175.25 450.54,-171.75 450.54,-178.75"/>
</a>
</g>
</g>
<!-- Node36 -->
<g id="Node000036" class="node">
<title>Node36</title>
<g id="a_Node000036"><a xlink:href="classfabomatic_1_1_fab_backend.xhtml#a3ab102598ee93269de90a0170e024619" target="_top" xlink:title="Callback function for received MQTT messages.">
<polygon fill="white" stroke="#666666" points="580.38,-141.5 462.38,-141.5 462.38,-111 580.38,-111 580.38,-141.5"/>
<text text-anchor="start" x="470.38" y="-128" font-family="Helvetica,sans-Serif" font-size="10.00">fabomatic::FabBackend</text>
<text text-anchor="middle" x="521.38" y="-116.75" font-family="Helvetica,sans-Serif" font-size="10.00">::messageReceived</text>
</a>
</g>
</g>
<!-- Node34&#45;&gt;Node36 -->
<g id="edge54_Node000034_Node000036" class="edge">
<title>Node34&#45;&gt;Node36</title>
<g id="a_edge54_Node000034_Node000036"><a xlink:title=" ">
<path fill="none" stroke="#63b8ff" d="M416.63,-159.61C430.58,-155.13 445.96,-150.18 460.5,-145.5"/>
<polygon fill="#63b8ff" stroke="#63b8ff" points="461.53,-148.85 469.98,-142.46 459.39,-142.19 461.53,-148.85"/>
</a>
</g>
</g>
<!-- Node37 -->
<g id="Node000037" class="node">
<title>Node37</title>
<g id="a_Node000037"><a xlink:href="classfabomatic_1_1_fab_backend.xhtml#aee0cf549bea2daebc3e08742853d36c1" target="_top" xlink:title="Publishes a query on the MQTT server.">
<polygon fill="white" stroke="#666666" points="580.38,-92.5 462.38,-92.5 462.38,-62 580.38,-62 580.38,-92.5"/>
<text text-anchor="start" x="470.38" y="-79" font-family="Helvetica,sans-Serif" font-size="10.00">fabomatic::FabBackend</text>
<text text-anchor="middle" x="521.38" y="-67.75" font-family="Helvetica,sans-Serif" font-size="10.00">::publish</text>
</a>
</g>
</g>
<!-- Node34&#45;&gt;Node37 -->
<g id="edge55_Node000034_Node000037" class="edge">
<title>Node34&#45;&gt;Node37</title>
<g id="a_edge55_Node000034_Node000037"><a xlink:title=" ">
<path fill="none" stroke="#63b8ff" d="M385.39,-159.53C403.55,-143.66 433.34,-119.14 462,-102.25 464.58,-100.73 467.27,-99.25 470.02,-97.82"/>
<polygon fill="#63b8ff" stroke="#63b8ff" points="471.34,-101.07 478.78,-93.53 468.26,-94.78 471.34,-101.07"/>
</a>
</g>
</g>
<!-- Node35&#45;&gt;Node4 -->
<g id="edge52_Node000035_Node000004" class="edge">
<title>Node35&#45;&gt;Node4</title>
<g id="a_edge52_Node000035_Node000004"><a xlink:title=" ">
<path fill="none" stroke="#63b8ff" d="M566.79,-190.9C572.22,-194.52 577.13,-198.91 580.75,-204.25 634.74,-283.76 602.78,-540.16 616.75,-635.25 630.87,-731.36 658.15,-844.23 669.73,-890.19"/>
<polygon fill="#63b8ff" stroke="#63b8ff" points="666.32,-891.01 672.18,-899.84 673.11,-889.29 666.32,-891.01"/>
</a>
</g>
</g>
</g>
</svg>
