<?xml version="1.0" encoding="UTF-8" standalone="no"?>
<!DOCTYPE svg PUBLIC "-//W3C//DTD SVG 1.1//EN"
 "http://www.w3.org/Graphics/SVG/1.1/DTD/svg11.dtd">
<!-- Generated by graphviz version 9.0.0 (20230911.1827)
 -->
<!-- Title: fabomatic::FabBackend::checkCard Pages: 1 -->
<svg width="1301pt" height="380pt"
 viewBox="0.00 0.00 1301.00 379.88" xmlns="http://www.w3.org/2000/svg" xmlns:xlink="http://www.w3.org/1999/xlink">
<g id="graph0" class="graph" transform="scale(1 1) rotate(0) translate(4 375.88)">
<title>fabomatic::FabBackend::checkCard</title>
<!-- Node1 -->
<g id="Node000001" class="node">
<title>Node1</title>
<g id="a_Node000001"><a xlink:title="Checks if the card ID is known to the server.">
<polygon fill="#999999" stroke="#666666" points="1293,-116.88 1175,-116.88 1175,-86.38 1293,-86.38 1293,-116.88"/>
<text text-anchor="start" x="1183" y="-103.38" font-family="Helvetica,sans-Serif" font-size="10.00">fabomatic::FabBackend</text>
<text text-anchor="middle" x="1234" y="-92.12" font-family="Helvetica,sans-Serif" font-size="10.00">::checkCard</text>
</a>
</g>
</g>
<!-- Node2 -->
<g id="Node000002" class="node">
<title>Node2</title>
<g id="a_Node000002"><a xlink:href="namespacefabomatic_1_1tests.xhtml#a438b9060c27d36e89506199205b342cb" target="_top" xlink:title=" ">
<polygon fill="white" stroke="#666666" points="980.12,-141.88 874.12,-141.88 874.12,-111.38 980.12,-111.38 980.12,-141.88"/>
<text text-anchor="start" x="882.12" y="-128.38" font-family="Helvetica,sans-Serif" font-size="10.00">fabomatic::tests::test</text>
<text text-anchor="middle" x="927.12" y="-117.12" font-family="Helvetica,sans-Serif" font-size="10.00">_fabserver_calls</text>
</a>
</g>
</g>
<!-- Node1&#45;&gt;Node2 -->
<g id="edge1_Node000001_Node000002" class="edge">
<title>Node1&#45;&gt;Node2</title>
<g id="a_edge1_Node000001_Node000002"><a xlink:title=" ">
<path fill="none" stroke="#63b8ff" d="M1163.38,-107.33C1107.66,-111.9 1030.75,-118.21 980.25,-122.35"/>
<polygon fill="#63b8ff" stroke="#63b8ff" points="1163.39,-110.85 1173.07,-106.54 1162.82,-103.87 1163.39,-110.85"/>
</a>
</g>
</g>
<!-- Node4 -->
<g id="Node000004" class="node">
<title>Node4</title>
<g id="a_Node000004"><a xlink:href="classfabomatic_1_1_auth_provider.xhtml#aeae9923535dcf6cfa9eaf9e5f90e5e64" target="_top" xlink:title="Verifies the card ID against the server (if available) or the whitelist.">
<polygon fill="white" stroke="#666666" points="1139,-95.88 1019.5,-95.88 1019.5,-65.38 1139,-65.38 1139,-95.88"/>
<text text-anchor="start" x="1027.5" y="-82.38" font-family="Helvetica,sans-Serif" font-size="10.00">fabomatic::AuthProvider</text>
<text text-anchor="middle" x="1079.25" y="-71.12" font-family="Helvetica,sans-Serif" font-size="10.00">::tryLogin</text>
</a>
</g>
</g>
<!-- Node1&#45;&gt;Node4 -->
<g id="edge3_Node000001_Node000004" class="edge">
<title>Node1&#45;&gt;Node4</title>
<g id="a_edge3_Node000001_Node000004"><a xlink:title=" ">
<path fill="none" stroke="#63b8ff" d="M1163.49,-92.07C1155.4,-90.96 1147.21,-89.83 1139.28,-88.74"/>
<polygon fill="#63b8ff" stroke="#63b8ff" points="1162.93,-95.53 1173.32,-93.42 1163.89,-88.59 1162.93,-95.53"/>
</a>
</g>
</g>
<!-- Node3 -->
<g id="Node000003" class="node">
<title>Node3</title>
<g id="a_Node000003"><a xlink:href="test__mqtt_8cpp.xhtml#a4fc01d736fe50cf5b977f755b675f11d" target="_top" xlink:title=" ">
<polygon fill="white" stroke="#666666" points="798.38,-143.25 758.38,-143.25 758.38,-124 798.38,-124 798.38,-143.25"/>
<text text-anchor="middle" x="778.38" y="-129.75" font-family="Helvetica,sans-Serif" font-size="10.00">setup</text>
</a>
</g>
</g>
<!-- Node2&#45;&gt;Node3 -->
<g id="edge2_Node000002_Node000003" class="edge">
<title>Node2&#45;&gt;Node3</title>
<g id="a_edge2_Node000002_Node000003"><a xlink:title=" ">
<path fill="none" stroke="#63b8ff" d="M862.73,-129.65C839.52,-130.76 814.94,-131.93 798.54,-132.71"/>
<polygon fill="#63b8ff" stroke="#63b8ff" points="862.64,-133.16 872.46,-129.18 862.31,-126.17 862.64,-133.16"/>
</a>
</g>
</g>
<!-- Node4&#45;&gt;Node2 -->
<g id="edge30_Node000004_Node000002" class="edge">
<title>Node4&#45;&gt;Node2</title>
<g id="a_edge30_Node000004_Node000002"><a xlink:title=" ">
<path fill="none" stroke="#63b8ff" d="M1016.36,-99.59C1004.07,-103.36 991.29,-107.27 979.39,-110.92"/>
<polygon fill="#63b8ff" stroke="#63b8ff" points="1017.02,-103.05 1025.56,-96.77 1014.97,-96.35 1017.02,-103.05"/>
</a>
</g>
</g>
<!-- Node5 -->
<g id="Node000005" class="node">
<title>Node5</title>
<g id="a_Node000005"><a xlink:href="classfabomatic_1_1_board_logic.xhtml#a51390e6bf10c4de427abd7f175a2e6a8" target="_top" xlink:title="Checks if the card UID is valid, and tries to check the user in to the machine.">
<polygon fill="white" stroke="#666666" points="983.5,-92.88 870.75,-92.88 870.75,-62.38 983.5,-62.38 983.5,-92.88"/>
<text text-anchor="start" x="878.75" y="-79.38" font-family="Helvetica,sans-Serif" font-size="10.00">fabomatic::BoardLogic</text>
<text text-anchor="middle" x="927.12" y="-68.12" font-family="Helvetica,sans-Serif" font-size="10.00">::authorize</text>
</a>
</g>
</g>
<!-- Node4&#45;&gt;Node5 -->
<g id="edge4_Node000004_Node000005" class="edge">
<title>Node4&#45;&gt;Node5</title>
<g id="a_edge4_Node000004_Node000005"><a xlink:title=" ">
<path fill="none" stroke="#63b8ff" d="M1008.01,-79.22C999.93,-79.06 991.77,-78.9 983.91,-78.74"/>
<polygon fill="#63b8ff" stroke="#63b8ff" points="1007.77,-82.72 1017.83,-79.42 1007.91,-75.72 1007.77,-82.72"/>
</a>
</g>
</g>
<!-- Node19 -->
<g id="Node000019" class="node">
<title>Node19</title>
<g id="a_Node000019"><a xlink:href="namespacefabomatic_1_1tests.xhtml#aeb3e51f6d2841cd2869df4c0629f694d" target="_top" xlink:title=" ">
<polygon fill="white" stroke="#666666" points="980.12,-37.88 874.12,-37.88 874.12,-7.37 980.12,-7.37 980.12,-37.88"/>
<text text-anchor="start" x="882.12" y="-24.38" font-family="Helvetica,sans-Serif" font-size="10.00">fabomatic::tests::test</text>
<text text-anchor="middle" x="927.12" y="-13.12" font-family="Helvetica,sans-Serif" font-size="10.00">_rfid_cache</text>
</a>
</g>
</g>
<!-- Node4&#45;&gt;Node19 -->
<g id="edge31_Node000004_Node000019" class="edge">
<title>Node4&#45;&gt;Node19</title>
<g id="a_edge31_Node000004_Node000019"><a xlink:title=" ">
<path fill="none" stroke="#63b8ff" d="M1027.03,-60.84C1008.02,-53.49 986.73,-45.27 968.78,-38.33"/>
<polygon fill="#63b8ff" stroke="#63b8ff" points="1025.62,-64.04 1036.21,-64.38 1028.15,-57.52 1025.62,-64.04"/>
</a>
</g>
</g>
<!-- Node6 -->
<g id="Node000006" class="node">
<title>Node6</title>
<g id="a_Node000006"><a xlink:href="classfabomatic_1_1_board_logic.xhtml#a983c8de8b9c8881fc0a4e60dddc7f0c6" target="_top" xlink:title="Called when a RFID tag has been detected.">
<polygon fill="white" stroke="#666666" points="834.75,-105.88 722,-105.88 722,-75.38 834.75,-75.38 834.75,-105.88"/>
<text text-anchor="start" x="730" y="-92.38" font-family="Helvetica,sans-Serif" font-size="10.00">fabomatic::BoardLogic</text>
<text text-anchor="middle" x="778.38" y="-81.12" font-family="Helvetica,sans-Serif" font-size="10.00">::onNewCard</text>
</a>
</g>
</g>
<!-- Node5&#45;&gt;Node6 -->
<g id="edge5_Node000005_Node000006" class="edge">
<title>Node5&#45;&gt;Node6</title>
<g id="a_edge5_Node000005_Node000006"><a xlink:title=" ">
<path fill="none" stroke="#63b8ff" d="M859.26,-83.55C851.12,-84.27 842.88,-85 834.93,-85.7"/>
<polygon fill="#63b8ff" stroke="#63b8ff" points="859.49,-87.04 869.14,-82.67 858.87,-80.07 859.49,-87.04"/>
</a>
</g>
</g>
<!-- Node15 -->
<g id="Node000015" class="node">
<title>Node15</title>
<g id="a_Node000015"><a xlink:href="namespacefabomatic_1_1tests.xhtml#aab0f4e1439b281ffef8be51db9a81f9d" target="_top" xlink:title=" ">
<polygon fill="white" stroke="#666666" points="191.75,-132.88 79,-132.88 79,-102.38 191.75,-102.38 191.75,-132.88"/>
<text text-anchor="start" x="87" y="-119.38" font-family="Helvetica,sans-Serif" font-size="10.00">fabomatic::tests::test</text>
<text text-anchor="middle" x="135.38" y="-108.12" font-family="Helvetica,sans-Serif" font-size="10.00">_whitelist_no_network</text>
</a>
</g>
</g>
<!-- Node5&#45;&gt;Node15 -->
<g id="edge29_Node000005_Node000015" class="edge">
<title>Node5&#45;&gt;Node15</title>
<g id="a_edge29_Node000005_Node000015"><a xlink:title=" ">
<path fill="none" stroke="#63b8ff" d="M859.3,-66.95C799.54,-58.33 709.47,-47.62 630.62,-47.62 630.62,-47.62 630.62,-47.62 473.12,-47.62 367.13,-47.62 246.23,-81.28 182.05,-101.92"/>
<polygon fill="#63b8ff" stroke="#63b8ff" points="858.57,-70.38 868.97,-68.36 859.59,-63.45 858.57,-70.38"/>
</a>
</g>
</g>
<!-- Node7 -->
<g id="Node000007" class="node">
<title>Node7</title>
<g id="a_Node000007"><a xlink:href="classfabomatic_1_1_board_logic.xhtml#a25bdc3a49d850aa49f92faf951b68efb" target="_top" xlink:title="Checks if a new card is present.">
<polygon fill="white" stroke="#666666" points="686,-214.88 573.25,-214.88 573.25,-184.38 686,-184.38 686,-214.88"/>
<text text-anchor="start" x="581.25" y="-201.38" font-family="Helvetica,sans-Serif" font-size="10.00">fabomatic::BoardLogic</text>
<text text-anchor="middle" x="629.62" y="-190.12" font-family="Helvetica,sans-Serif" font-size="10.00">::checkRfid</text>
</a>
</g>
</g>
<!-- Node6&#45;&gt;Node7 -->
<g id="edge6_Node000006_Node000007" class="edge">
<title>Node6&#45;&gt;Node7</title>
<g id="a_edge6_Node000006_Node000007"><a xlink:title=" ">
<path fill="none" stroke="#63b8ff" d="M726.94,-111.57C725.25,-112.56 723.6,-113.58 722,-114.62 691.17,-134.78 660.99,-165.65 644.2,-184.12"/>
<polygon fill="#63b8ff" stroke="#63b8ff" points="728.41,-114.75 735.57,-106.95 725.1,-108.58 728.41,-114.75"/>
</a>
</g>
</g>
<!-- Node8 -->
<g id="Node000008" class="node">
<title>Node8</title>
<g id="a_Node000008"><a xlink:href="namespacefabomatic_1_1tests.xhtml#a2600320f41c9fa343c66058ecb12b5ee" target="_top" xlink:title="Simulates RFID card tap.">
<polygon fill="white" stroke="#666666" points="537.25,-214.88 411,-214.88 411,-184.38 537.25,-184.38 537.25,-214.88"/>
<text text-anchor="start" x="419" y="-201.38" font-family="Helvetica,sans-Serif" font-size="10.00">fabomatic::tests::simulate</text>
<text text-anchor="middle" x="474.12" y="-190.12" font-family="Helvetica,sans-Serif" font-size="10.00">_rfid_card</text>
</a>
</g>
</g>
<!-- Node7&#45;&gt;Node8 -->
<g id="edge7_Node000007_Node000008" class="edge">
<title>Node7&#45;&gt;Node8</title>
<g id="a_edge7_Node000007_Node000008"><a xlink:title=" ">
<path fill="none" stroke="#63b8ff" d="M561.38,-199.62C553.5,-199.62 545.49,-199.62 537.69,-199.62"/>
<polygon fill="#63b8ff" stroke="#63b8ff" points="561.26,-203.13 571.26,-199.63 561.26,-196.13 561.26,-203.13"/>
</a>
</g>
</g>
<!-- Node7&#45;&gt;Node15 -->
<g id="edge28_Node000007_Node000015" class="edge">
<title>Node7&#45;&gt;Node15</title>
<g id="a_edge28_Node000007_Node000015"><a xlink:title=" ">
<path fill="none" stroke="#63b8ff" d="M562.16,-182.04C553.78,-179.86 545.32,-177.68 537.25,-175.62 465.28,-157.3 448.34,-147.35 375,-135.62 312.85,-125.69 240.69,-121.21 192.13,-119.21"/>
<polygon fill="#63b8ff" stroke="#63b8ff" points="561.07,-185.37 571.63,-184.51 562.83,-178.6 561.07,-185.37"/>
</a>
</g>
</g>
<!-- Node17 -->
<g id="Node000017" class="node">
<title>Node17</title>
<g id="a_Node000017"><a xlink:href="namespacefabomatic.xhtml#a3e5c190499522bddad3f3cc69274f16c" target="_top" xlink:title="periodic check for new RFID card">
<polygon fill="white" stroke="#666666" points="537.25,-301.25 411,-301.25 411,-282 537.25,-282 537.25,-301.25"/>
<text text-anchor="middle" x="474.12" y="-287.75" font-family="Helvetica,sans-Serif" font-size="10.00">fabomatic::taskCheckRfid</text>
</a>
</g>
</g>
<!-- Node7&#45;&gt;Node17 -->
<g id="edge26_Node000007_Node000017" class="edge">
<title>Node7&#45;&gt;Node17</title>
<g id="a_edge26_Node000007_Node000017"><a xlink:title=" ">
<path fill="none" stroke="#63b8ff" d="M604.7,-222.95C587.24,-238.87 562.33,-259.39 537.25,-272.62 530.67,-276.1 523.35,-279.04 516.11,-281.5"/>
<polygon fill="#63b8ff" stroke="#63b8ff" points="607.08,-225.52 612.01,-216.14 602.31,-220.4 607.08,-225.52"/>
</a>
</g>
</g>
<!-- Node18 -->
<g id="Node000018" class="node">
<title>Node18</title>
<g id="a_Node000018"><a xlink:href="namespacefabomatic_1_1tests.xhtml#a294b4767ecf1e1d11cc31dafb2541d23" target="_top" xlink:title="periodic check for new RFID card">
<polygon fill="white" stroke="#666666" points="527.12,-263.88 421.12,-263.88 421.12,-233.38 527.12,-233.38 527.12,-263.88"/>
<text text-anchor="start" x="429.12" y="-250.38" font-family="Helvetica,sans-Serif" font-size="10.00">fabomatic::tests::test</text>
<text text-anchor="middle" x="474.12" y="-239.12" font-family="Helvetica,sans-Serif" font-size="10.00">_taskCheckRfid</text>
</a>
</g>
</g>
<!-- Node7&#45;&gt;Node18 -->
<g id="edge27_Node000007_Node000018" class="edge">
<title>Node7&#45;&gt;Node18</title>
<g id="a_edge27_Node000007_Node000018"><a xlink:title=" ">
<path fill="none" stroke="#63b8ff" d="M569.08,-218.63C554.31,-223.35 538.65,-228.35 524.44,-232.88"/>
<polygon fill="#63b8ff" stroke="#63b8ff" points="569.73,-222.1 578.19,-215.72 567.6,-215.43 569.73,-222.1"/>
</a>
</g>
</g>
<!-- Node9 -->
<g id="Node000009" class="node">
<title>Node9</title>
<g id="a_Node000009"><a xlink:href="namespacefabomatic_1_1tests.xhtml#a6a7645a865dc822746f972ea6f43224d" target="_top" xlink:title="Resets machine to initial state, clearing flags.">
<polygon fill="white" stroke="#666666" points="375,-247.25 230.75,-247.25 230.75,-228 375,-228 375,-247.25"/>
<text text-anchor="middle" x="302.88" y="-233.75" font-family="Helvetica,sans-Serif" font-size="10.00">fabomatic::tests::machine_init</text>
</a>
</g>
</g>
<!-- Node8&#45;&gt;Node9 -->
<g id="edge8_Node000008_Node000009" class="edge">
<title>Node8&#45;&gt;Node9</title>
<g id="a_edge8_Node000008_Node000009"><a xlink:title=" ">
<path fill="none" stroke="#63b8ff" d="M399.37,-216.18C382.12,-220.06 364.26,-224.07 348.72,-227.56"/>
<polygon fill="#63b8ff" stroke="#63b8ff" points="400.12,-219.6 409.11,-214 398.58,-212.77 400.12,-219.6"/>
</a>
</g>
</g>
<!-- Node10 -->
<g id="Node000010" class="node">
<title>Node10</title>
<g id="a_Node000010"><a xlink:href="namespacefabomatic_1_1tests.xhtml#a558e2287db01a4622581246a19dac397" target="_top" xlink:title=" ">
<polygon fill="white" stroke="#666666" points="188.38,-279.88 82.38,-279.88 82.38,-249.38 188.38,-249.38 188.38,-279.88"/>
<text text-anchor="start" x="90.38" y="-266.38" font-family="Helvetica,sans-Serif" font-size="10.00">fabomatic::tests::test</text>
<text text-anchor="middle" x="135.38" y="-255.12" font-family="Helvetica,sans-Serif" font-size="10.00">_machine_allowed</text>
</a>
</g>
</g>
<!-- Node8&#45;&gt;Node10 -->
<g id="edge19_Node000008_Node000010" class="edge">
<title>Node8&#45;&gt;Node10</title>
<g id="a_edge19_Node000008_Node000010"><a xlink:title=" ">
<path fill="none" stroke="#63b8ff" d="M418.54,-220.3C415.95,-221.68 413.42,-223.12 411,-224.62 392.8,-235.9 394.88,-248.68 375,-256.62 314.57,-280.77 238.51,-278.31 188.72,-272.79"/>
<polygon fill="#63b8ff" stroke="#63b8ff" points="419.96,-223.5 427.39,-215.95 416.88,-217.22 419.96,-223.5"/>
</a>
</g>
</g>
<!-- Node12 -->
<g id="Node000012" class="node">
<title>Node12</title>
<g id="a_Node000012"><a xlink:href="namespacefabomatic_1_1tests.xhtml#a9a34631c2dc01cbdbbce146895c94e12" target="_top" xlink:title=" ">
<polygon fill="white" stroke="#666666" points="194.75,-230.88 76,-230.88 76,-200.38 194.75,-200.38 194.75,-230.88"/>
<text text-anchor="start" x="84" y="-217.38" font-family="Helvetica,sans-Serif" font-size="10.00">fabomatic::tests::test</text>
<text text-anchor="middle" x="135.38" y="-206.12" font-family="Helvetica,sans-Serif" font-size="10.00">_machine_maintenance</text>
</a>
</g>
</g>
<!-- Node8&#45;&gt;Node12 -->
<g id="edge20_Node000008_Node000012" class="edge">
<title>Node8&#45;&gt;Node12</title>
<g id="a_edge20_Node000008_Node000012"><a xlink:title=" ">
<path fill="none" stroke="#63b8ff" d="M399.43,-203.13C338.11,-206.04 251.98,-210.13 195.21,-212.83"/>
<polygon fill="#63b8ff" stroke="#63b8ff" points="399.24,-206.64 409.06,-202.67 398.91,-199.65 399.24,-206.64"/>
</a>
</g>
</g>
<!-- Node13 -->
<g id="Node000013" class="node">
<title>Node13</title>
<g id="a_Node000013"><a xlink:href="namespacefabomatic_1_1tests.xhtml#a6f3dff17fd964aba76c35c514957a0a5" target="_top" xlink:title=" ">
<polygon fill="white" stroke="#666666" points="189.88,-181.88 80.88,-181.88 80.88,-151.38 189.88,-151.38 189.88,-181.88"/>
<text text-anchor="start" x="88.88" y="-168.38" font-family="Helvetica,sans-Serif" font-size="10.00">fabomatic::tests::test</text>
<text text-anchor="middle" x="135.38" y="-157.12" font-family="Helvetica,sans-Serif" font-size="10.00">_one_user_at_a_time</text>
</a>
</g>
</g>
<!-- Node8&#45;&gt;Node13 -->
<g id="edge23_Node000008_Node000013" class="edge">
<title>Node8&#45;&gt;Node13</title>
<g id="a_edge23_Node000008_Node000013"><a xlink:title=" ">
<path fill="none" stroke="#63b8ff" d="M399.5,-192.41C336.37,-186.22 246.9,-177.46 190.26,-171.91"/>
<polygon fill="#63b8ff" stroke="#63b8ff" points="398.77,-195.86 409.07,-193.35 399.46,-188.89 398.77,-195.86"/>
</a>
</g>
</g>
<!-- Node14 -->
<g id="Node000014" class="node">
<title>Node14</title>
<g id="a_Node000014"><a xlink:href="namespacefabomatic_1_1tests.xhtml#afa92fef9250d918ee02c79dbf2de2546" target="_top" xlink:title=" ">
<polygon fill="white" stroke="#666666" points="188.38,-328.88 82.38,-328.88 82.38,-298.38 188.38,-298.38 188.38,-328.88"/>
<text text-anchor="start" x="90.38" y="-315.38" font-family="Helvetica,sans-Serif" font-size="10.00">fabomatic::tests::test</text>
<text text-anchor="middle" x="135.38" y="-304.12" font-family="Helvetica,sans-Serif" font-size="10.00">_user_autologoff</text>
</a>
</g>
</g>
<!-- Node8&#45;&gt;Node14 -->
<g id="edge24_Node000008_Node000014" class="edge">
<title>Node8&#45;&gt;Node14</title>
<g id="a_edge24_Node000008_Node000014"><a xlink:title=" ">
<path fill="none" stroke="#63b8ff" d="M415.64,-221.13C414.03,-222.24 412.48,-223.41 411,-224.62 388.41,-243.15 399.65,-263.95 375,-279.62 318.68,-315.44 239.91,-319.82 188.52,-318.04"/>
<polygon fill="#63b8ff" stroke="#63b8ff" points="417.23,-224.26 423.98,-216.09 413.61,-218.26 417.23,-224.26"/>
</a>
</g>
</g>
<!-- Node8&#45;&gt;Node15 -->
<g id="edge25_Node000008_Node000015" class="edge">
<title>Node8&#45;&gt;Node15</title>
<g id="a_edge25_Node000008_Node000015"><a xlink:title=" ">
<path fill="none" stroke="#63b8ff" d="M406.78,-180.96C396.17,-178.1 385.3,-175.23 375,-172.62 312.55,-156.84 240.45,-140.48 191.98,-129.75"/>
<polygon fill="#63b8ff" stroke="#63b8ff" points="405.68,-184.29 416.25,-183.54 407.52,-177.54 405.68,-184.29"/>
</a>
</g>
</g>
<!-- Node16 -->
<g id="Node000016" class="node">
<title>Node16</title>
<g id="a_Node000016"><a xlink:href="namespacefabomatic_1_1tests.xhtml#af8fa7ace86309b5f699540d8898660c7" target="_top" xlink:title=" ">
<polygon fill="white" stroke="#666666" points="355.88,-371.88 249.88,-371.88 249.88,-341.38 355.88,-341.38 355.88,-371.88"/>
<text text-anchor="start" x="257.88" y="-358.38" font-family="Helvetica,sans-Serif" font-size="10.00">fabomatic::tests::test</text>
<text text-anchor="middle" x="302.88" y="-347.12" font-family="Helvetica,sans-Serif" font-size="10.00">_messages_buffered</text>
</a>
</g>
</g>
<!-- Node8&#45;&gt;Node16 -->
<g id="edge21_Node000008_Node000016" class="edge">
<title>Node8&#45;&gt;Node16</title>
<g id="a_edge21_Node000008_Node000016"><a xlink:title=" ">
<path fill="none" stroke="#63b8ff" d="M413.7,-222.01C412.76,-222.85 411.86,-223.72 411,-224.62 377.51,-259.7 408.41,-292.47 375,-327.62 369.67,-333.23 363.11,-337.79 356.14,-341.48"/>
<polygon fill="#63b8ff" stroke="#63b8ff" points="415.67,-224.9 421.62,-216.14 411.5,-219.28 415.67,-224.9"/>
</a>
</g>
</g>
<!-- Node9&#45;&gt;Node10 -->
<g id="edge9_Node000009_Node000010" class="edge">
<title>Node9&#45;&gt;Node10</title>
<g id="a_edge9_Node000009_Node000010"><a xlink:title=" ">
<path fill="none" stroke="#63b8ff" d="M229,-249.51C215.48,-251.72 201.59,-253.99 188.83,-256.07"/>
<polygon fill="#63b8ff" stroke="#63b8ff" points="229.45,-252.99 238.76,-247.92 228.32,-246.08 229.45,-252.99"/>
</a>
</g>
</g>
<!-- Node9&#45;&gt;Node12 -->
<g id="edge11_Node000009_Node000012" class="edge">
<title>Node9&#45;&gt;Node12</title>
<g id="a_edge11_Node000009_Node000012"><a xlink:title=" ">
<path fill="none" stroke="#63b8ff" d="M219.49,-226.67C211.23,-225.58 202.96,-224.48 195.02,-223.42"/>
<polygon fill="#63b8ff" stroke="#63b8ff" points="218.85,-230.12 229.23,-227.97 219.78,-223.18 218.85,-230.12"/>
</a>
</g>
</g>
<!-- Node9&#45;&gt;Node13 -->
<g id="edge13_Node000009_Node000013" class="edge">
<title>Node9&#45;&gt;Node13</title>
<g id="a_edge13_Node000009_Node000013"><a xlink:title=" ">
<path fill="none" stroke="#63b8ff" d="M268.1,-223.11C247.02,-214.05 219.3,-202.15 194.75,-191.62 187.76,-188.63 180.3,-185.43 173.12,-182.36"/>
<polygon fill="#63b8ff" stroke="#63b8ff" points="266.51,-226.24 277.08,-226.97 269.28,-219.81 266.51,-226.24"/>
</a>
</g>
</g>
<!-- Node9&#45;&gt;Node14 -->
<g id="edge15_Node000009_Node000014" class="edge">
<title>Node9&#45;&gt;Node14</title>
<g id="a_edge15_Node000009_Node000014"><a xlink:title=" ">
<path fill="none" stroke="#63b8ff" d="M271.36,-252.55C250.01,-262.89 220.76,-276.87 194.75,-288.62 187.92,-291.71 180.6,-294.92 173.53,-297.98"/>
<polygon fill="#63b8ff" stroke="#63b8ff" points="272.63,-255.83 280.09,-248.31 269.57,-249.53 272.63,-255.83"/>
</a>
</g>
</g>
<!-- Node9&#45;&gt;Node15 -->
<g id="edge17_Node000009_Node000015" class="edge">
<title>Node9&#45;&gt;Node15</title>
<g id="a_edge17_Node000009_Node000015"><a xlink:title=" ">
<path fill="none" stroke="#63b8ff" d="M284.84,-219.32C264.82,-198.61 229.86,-164.89 194.75,-142.62 189.44,-139.26 183.6,-136.15 177.74,-133.36"/>
<polygon fill="#63b8ff" stroke="#63b8ff" points="282.22,-221.64 291.65,-226.48 287.29,-216.82 282.22,-221.64"/>
</a>
</g>
</g>
<!-- Node11 -->
<g id="Node000011" class="node">
<title>Node11</title>
<g id="a_Node000011"><a xlink:href="test__logic_8cpp.xhtml#a4fc01d736fe50cf5b977f755b675f11d" target="_top" xlink:title=" ">
<polygon fill="white" stroke="#666666" points="40,-249.25 0,-249.25 0,-230 40,-230 40,-249.25"/>
<text text-anchor="middle" x="20" y="-235.75" font-family="Helvetica,sans-Serif" font-size="10.00">setup</text>
</a>
</g>
</g>
<!-- Node10&#45;&gt;Node11 -->
<g id="edge10_Node000010_Node000011" class="edge">
<title>Node10&#45;&gt;Node11</title>
<g id="a_edge10_Node000010_Node000011"><a xlink:title=" ">
<path fill="none" stroke="#63b8ff" d="M70.85,-250.62C59.76,-248.17 49.01,-245.8 40.36,-243.89"/>
<polygon fill="#63b8ff" stroke="#63b8ff" points="70,-254.01 80.52,-252.75 71.51,-247.18 70,-254.01"/>
</a>
</g>
</g>
<!-- Node12&#45;&gt;Node11 -->
<g id="edge12_Node000012_Node000011" class="edge">
<title>Node12&#45;&gt;Node11</title>
<g id="a_edge12_Node000012_Node000011"><a xlink:title=" ">
<path fill="none" stroke="#63b8ff" d="M64.44,-230.43C55.69,-232.28 47.39,-234.04 40.43,-235.51"/>
<polygon fill="#63b8ff" stroke="#63b8ff" points="65.16,-233.86 74.21,-228.36 63.71,-227.01 65.16,-233.86"/>
</a>
</g>
</g>
<!-- Node13&#45;&gt;Node11 -->
<g id="edge14_Node000013_Node000011" class="edge">
<title>Node13&#45;&gt;Node11</title>
<g id="a_edge14_Node000013_Node000011"><a xlink:title=" ">
<path fill="none" stroke="#63b8ff" d="M83.1,-187.46C80.66,-188.8 78.28,-190.19 76,-191.62 58.4,-202.68 40.78,-219.27 30.39,-229.77"/>
<polygon fill="#63b8ff" stroke="#63b8ff" points="84.67,-190.59 92,-182.94 81.5,-184.35 84.67,-190.59"/>
</a>
</g>
</g>
<!-- Node14&#45;&gt;Node11 -->
<g id="edge16_Node000014_Node000011" class="edge">
<title>Node14&#45;&gt;Node11</title>
<g id="a_edge16_Node000014_Node000011"><a xlink:title=" ">
<path fill="none" stroke="#63b8ff" d="M82.96,-292.75C80.57,-291.42 78.24,-290.05 76,-288.62 58.3,-277.37 40.71,-260.43 30.35,-249.7"/>
<polygon fill="#63b8ff" stroke="#63b8ff" points="81.17,-295.76 91.66,-297.21 84.36,-289.53 81.17,-295.76"/>
</a>
</g>
</g>
<!-- Node15&#45;&gt;Node11 -->
<g id="edge18_Node000015_Node000011" class="edge">
<title>Node15&#45;&gt;Node11</title>
<g id="a_edge18_Node000015_Node000011"><a xlink:title=" ">
<path fill="none" stroke="#63b8ff" d="M79.85,-139.45C78.52,-140.46 77.23,-141.52 76,-142.62 48.01,-167.66 30.86,-210.46 24.19,-229.72"/>
<polygon fill="#63b8ff" stroke="#63b8ff" points="81.48,-142.56 87.93,-134.16 77.65,-136.71 81.48,-142.56"/>
</a>
</g>
</g>
<!-- Node16&#45;&gt;Node11 -->
<g id="edge22_Node000016_Node000011" class="edge">
<title>Node16&#45;&gt;Node11</title>
<g id="a_edge22_Node000016_Node000011"><a xlink:title=" ">
<path fill="none" stroke="#63b8ff" d="M238.26,-366.43C189.98,-370.49 123.95,-368.47 76,-337.62 43.68,-316.83 28.53,-270.01 23.27,-249.53"/>
<polygon fill="#63b8ff" stroke="#63b8ff" points="238.38,-369.93 248,-365.49 237.71,-362.96 238.38,-369.93"/>
</a>
</g>
</g>
<!-- Node20 -->
<g id="Node000020" class="node">
<title>Node20</title>
<g id="a_Node000020"><a xlink:href="test__savedconfig_8cpp.xhtml#a4fc01d736fe50cf5b977f755b675f11d" target="_top" xlink:title=" ">
<polygon fill="white" stroke="#666666" points="798.38,-19.25 758.38,-19.25 758.38,0 798.38,0 798.38,-19.25"/>
<text text-anchor="middle" x="778.38" y="-5.75" font-family="Helvetica,sans-Serif" font-size="10.00">setup</text>
</a>
</g>
</g>
<!-- Node19&#45;&gt;Node20 -->
<g id="edge32_Node000019_Node000020" class="edge">
<title>Node19&#45;&gt;Node20</title>
<g id="a_edge32_Node000019_Node000020"><a xlink:title=" ">
<path fill="none" stroke="#63b8ff" d="M862.73,-17.01C839.52,-14.95 814.94,-12.78 798.54,-11.32"/>
<polygon fill="#63b8ff" stroke="#63b8ff" points="862.2,-20.48 872.47,-17.87 862.81,-13.5 862.2,-20.48"/>
</a>
</g>
</g>
</g>
</svg>
