<?xml version="1.0" encoding="UTF-8" standalone="no"?>
<!DOCTYPE svg PUBLIC "-//W3C//DTD SVG 1.1//EN"
 "http://www.w3.org/Graphics/SVG/1.1/DTD/svg11.dtd">
<!-- Generated by graphviz version 9.0.0 (20230911.1827)
 -->
<!-- Title: fabomatic::BoardLogic::beepFail Pages: 1 -->
<!--zoomable 546 -->

<svg id="main" version="1.1" xmlns="http://www.w3.org/2000/svg" xmlns:xlink="http://www.w3.org/1999/xlink" xml:space="preserve" onload="init(evt)">
<style type="text/css"><![CDATA[
.node, .edge {opacity: 0.7;}
.node.selected, .edge.selected {opacity: 1;}
.edge:hover path { stroke: red; }
.edge:hover polygon { stroke: red; fill: red; }
]]></style>

<defs>
  <circle id="rim" cx="0" cy="0" r="7"/>
  <circle id="rim2" cx="0" cy="0" r="3.5"/>
  <g id="zoomPlus">
    <use xlink:href="#rim" fill="#404040"><set attributeName="fill" to="#808080" begin="zoomplus.mouseover" end="zoomplus.mouseout"/></use>
    <path d="M-4,0h8M0,-4v8" fill="none" stroke="white" stroke-width="1.5" pointer-events="none"/>
  </g>
  <g id="zoomMin">
    <use xlink:href="#rim" fill="#404040"><set attributeName="fill" to="#808080" begin="zoomminus.mouseover" end="zoomminus.mouseout"/></use>
    <path d="M-4,0h8" fill="none" stroke="white" stroke-width="1.5" pointer-events="none"/>
  </g>
  <g id="arrowUp" transform="translate(30 24)">
    <use xlink:href="#rim"/>
    <path pointer-events="none" fill="none" stroke="white" stroke-width="1.5" d="M0,-3.0v7 M-2.5,-0.5L0,-3.0L2.5,-0.5"/>
  </g>
  <g id="arrowRight" transform="rotate(90) translate(36 -43)">
    <use xlink:href="#rim"/>
    <path pointer-events="none" fill="none" stroke="white" stroke-width="1.5" d="M0,-3.0v7 M-2.5,-0.5L0,-3.0L2.5,-0.5"/>
  </g>
  <g id="arrowDown" transform="rotate(180) translate(-30 -48)">
    <use xlink:href="#rim"/>
    <path pointer-events="none" fill="none" stroke="white" stroke-width="1.5" d="M0,-3.0v7 M-2.5,-0.5L0,-3.0L2.5,-0.5"/>
  </g>
  <g id="arrowLeft" transform="rotate(270) translate(-36 17)">
    <use xlink:href="#rim"/>
    <path pointer-events="none" fill="none" stroke="white" stroke-width="1.5" d="M0,-3.0v7 M-2.5,-0.5L0,-3.0L2.5,-0.5"/>
  </g>
  <g id="resetDef">
    <use xlink:href="#rim2" fill="#404040"><set attributeName="fill" to="#808080" begin="reset.mouseover" end="reset.mouseout"/></use>
  </g>
</defs>
<script type="application/ecmascript">
var viewWidth = 1183;
var viewHeight = 546;
var sectionId = 'dynsection-4';
</script>
<script type="application/ecmascript" xlink:href="svg.min.js"/>
<svg id="graph" class="graph">
<g id="viewport">
<title>fabomatic::BoardLogic::beepFail</title>
<!-- Node1 -->
<g id="Node000001" class="node">
<title>Node1</title>
<g id="a_Node000001"><a xlink:title=" ">
<polygon fill="#999999" stroke="#666666" points="1175,-128.5 1062.25,-128.5 1062.25,-98 1175,-98 1175,-128.5"/>
<text text-anchor="start" x="1070.25" y="-115" font-family="Helvetica,sans-Serif" font-size="10.00">fabomatic::BoardLogic</text>
<text text-anchor="middle" x="1118.62" y="-103.75" font-family="Helvetica,sans-Serif" font-size="10.00">::beepFail</text>
</a>
</g>
</g>
<!-- Node2 -->
<g id="Node000002" class="node">
<title>Node2</title>
<g id="a_Node000002"><a xlink:href="classfabomatic_1_1_board_logic.xhtml#a51390e6bf10c4de427abd7f175a2e6a8" target="_top" xlink:title="Checks if the card UID is valid, and tries to check the user in to the machine.">
<polygon fill="white" stroke="#666666" points="1004.88,-228.5 892.12,-228.5 892.12,-198 1004.88,-198 1004.88,-228.5"/>
<text text-anchor="start" x="900.12" y="-215" font-family="Helvetica,sans-Serif" font-size="10.00">fabomatic::BoardLogic</text>
<text text-anchor="middle" x="948.5" y="-203.75" font-family="Helvetica,sans-Serif" font-size="10.00">::authorize</text>
</a>
</g>
</g>
<!-- Node1&#45;&gt;Node2 -->
<g id="edge1_Node000001_Node000002" class="edge">
<title>Node1&#45;&gt;Node2</title>
<g id="a_edge1_Node000001_Node000002"><a xlink:title=" ">
<path fill="none" stroke="#63b8ff" d="M1092.35,-136.25C1074.78,-151.38 1050.28,-170.78 1026.25,-184.25 1017.3,-189.26 1007.32,-193.75 997.59,-197.61"/>
<polygon fill="#63b8ff" stroke="#63b8ff" points="1094.52,-139.01 1099.73,-129.79 1089.9,-133.74 1094.52,-139.01"/>
</a>
</g>
</g>
<!-- Node16 -->
<g id="Node000016" class="node">
<title>Node16</title>
<g id="a_Node000016"><a xlink:href="main_8cpp.xhtml#a4fc01d736fe50cf5b977f755b675f11d" target="_top" xlink:title=" ">
<polygon fill="white" stroke="#666666" points="968.5,-141.88 928.5,-141.88 928.5,-122.62 968.5,-122.62 968.5,-141.88"/>
<text text-anchor="middle" x="948.5" y="-128.38" font-family="Helvetica,sans-Serif" font-size="10.00">setup</text>
</a>
</g>
</g>
<!-- Node1&#45;&gt;Node16 -->
<g id="edge27_Node000001_Node000016" class="edge">
<title>Node1&#45;&gt;Node16</title>
<g id="a_edge27_Node000001_Node000016"><a xlink:title=" ">
<path fill="none" stroke="#63b8ff" d="M1050.98,-120.78C1021.46,-124.12 988.95,-127.79 968.88,-130.06"/>
<polygon fill="#63b8ff" stroke="#63b8ff" points="1051.06,-124.29 1060.6,-119.69 1050.27,-117.34 1051.06,-124.29"/>
</a>
</g>
</g>
<!-- Node17 -->
<g id="Node000017" class="node">
<title>Node17</title>
<g id="a_Node000017"><a xlink:href="namespacefabomatic.xhtml#af8ee1c3cd4edf1a1ba27899da63b611a" target="_top" xlink:title="periodic check if the user shall be logged off">
<polygon fill="white" stroke="#666666" points="1016.88,-104.88 880.12,-104.88 880.12,-85.62 1016.88,-85.62 1016.88,-104.88"/>
<text text-anchor="middle" x="948.5" y="-91.38" font-family="Helvetica,sans-Serif" font-size="10.00">fabomatic::taskLogoffCheck</text>
</a>
</g>
</g>
<!-- Node1&#45;&gt;Node17 -->
<g id="edge28_Node000001_Node000017" class="edge">
<title>Node1&#45;&gt;Node17</title>
<g id="a_edge28_Node000001_Node000017"><a xlink:title=" ">
<path fill="none" stroke="#63b8ff" d="M1050.79,-106.09C1039.76,-104.91 1028.32,-103.69 1017.26,-102.5"/>
<polygon fill="#63b8ff" stroke="#63b8ff" points="1050.29,-109.56 1060.6,-107.15 1051.03,-102.6 1050.29,-109.56"/>
</a>
</g>
</g>
<!-- Node18 -->
<g id="Node000018" class="node">
<title>Node18</title>
<g id="a_Node000018"><a xlink:href="namespacefabomatic.xhtml#a86a02975f3cc660ebccdde8f217aa035" target="_top" xlink:title="periodic check if the machine must be powered off">
<polygon fill="white" stroke="#666666" points="1026.25,-67.88 870.75,-67.88 870.75,-48.62 1026.25,-48.62 1026.25,-67.88"/>
<text text-anchor="middle" x="948.5" y="-54.38" font-family="Helvetica,sans-Serif" font-size="10.00">fabomatic::taskPoweroffWarning</text>
</a>
</g>
</g>
<!-- Node1&#45;&gt;Node18 -->
<g id="edge29_Node000001_Node000018" class="edge">
<title>Node1&#45;&gt;Node18</title>
<g id="a_edge29_Node000001_Node000018"><a xlink:title=" ">
<path fill="none" stroke="#63b8ff" d="M1072.28,-93.28C1057.75,-87.31 1041.48,-81.09 1026.25,-76.25 1017.12,-73.35 1007.24,-70.69 997.71,-68.36"/>
<polygon fill="#63b8ff" stroke="#63b8ff" points="1070.54,-96.34 1081.11,-96.97 1073.23,-89.88 1070.54,-96.34"/>
</a>
</g>
</g>
<!-- Node19 -->
<g id="Node000019" class="node">
<title>Node19</title>
<g id="a_Node000019"><a xlink:href="namespacefabomatic_1_1tests.xhtml#aec03a7ee459718d314b930fdd75d3cee" target="_top" xlink:title=" ">
<polygon fill="white" stroke="#666666" points="831.38,-185.5 725.38,-185.5 725.38,-155 831.38,-155 831.38,-185.5"/>
<text text-anchor="start" x="733.38" y="-172" font-family="Helvetica,sans-Serif" font-size="10.00">fabomatic::tests::test</text>
<text text-anchor="middle" x="778.38" y="-160.75" font-family="Helvetica,sans-Serif" font-size="10.00">_simple_methods</text>
</a>
</g>
</g>
<!-- Node1&#45;&gt;Node19 -->
<g id="edge30_Node000001_Node000019" class="edge">
<title>Node1&#45;&gt;Node19</title>
<g id="a_edge30_Node000001_Node000019"><a xlink:title=" ">
<path fill="none" stroke="#63b8ff" d="M1076.51,-133.61C1061.1,-140.36 1043.22,-147.18 1026.25,-151.25 960.41,-167.04 882.14,-170.6 831.66,-170.99"/>
<polygon fill="#63b8ff" stroke="#63b8ff" points="1077.69,-136.92 1085.36,-129.61 1074.8,-130.54 1077.69,-136.92"/>
</a>
</g>
</g>
<!-- Node20 -->
<g id="Node000020" class="node">
<title>Node20</title>
<g id="a_Node000020"><a xlink:href="namespacefabomatic_1_1tests.xhtml#a7cd22311b16fc7c256a30ba4c2f6f387" target="_top" xlink:title="blink led">
<polygon fill="white" stroke="#666666" points="1001.5,-30.5 895.5,-30.5 895.5,0 1001.5,0 1001.5,-30.5"/>
<text text-anchor="start" x="903.5" y="-17" font-family="Helvetica,sans-Serif" font-size="10.00">fabomatic::tests::test</text>
<text text-anchor="middle" x="948.5" y="-5.75" font-family="Helvetica,sans-Serif" font-size="10.00">_taskVarious</text>
</a>
</g>
</g>
<!-- Node1&#45;&gt;Node20 -->
<g id="edge32_Node000001_Node000020" class="edge">
<title>Node1&#45;&gt;Node20</title>
<g id="a_edge32_Node000001_Node000020"><a xlink:title=" ">
<path fill="none" stroke="#63b8ff" d="M1094.21,-90.08C1076.74,-73.89 1051.61,-52.84 1026.25,-39.25 1018.62,-35.16 1010.18,-31.65 1001.78,-28.67"/>
<polygon fill="#63b8ff" stroke="#63b8ff" points="1091.37,-92.2 1101.04,-96.53 1096.18,-87.12 1091.37,-92.2"/>
</a>
</g>
</g>
<!-- Node3 -->
<g id="Node000003" class="node">
<title>Node3</title>
<g id="a_Node000003"><a xlink:href="classfabomatic_1_1_board_logic.xhtml#a983c8de8b9c8881fc0a4e60dddc7f0c6" target="_top" xlink:title="Called when a RFID tag has been detected.">
<polygon fill="white" stroke="#666666" points="834.75,-326.5 722,-326.5 722,-296 834.75,-296 834.75,-326.5"/>
<text text-anchor="start" x="730" y="-313" font-family="Helvetica,sans-Serif" font-size="10.00">fabomatic::BoardLogic</text>
<text text-anchor="middle" x="778.38" y="-301.75" font-family="Helvetica,sans-Serif" font-size="10.00">::onNewCard</text>
</a>
</g>
</g>
<!-- Node2&#45;&gt;Node3 -->
<g id="edge2_Node000002_Node000003" class="edge">
<title>Node2&#45;&gt;Node3</title>
<g id="a_edge2_Node000002_Node000003"><a xlink:title=" ">
<path fill="none" stroke="#63b8ff" d="M910.76,-234.67C879.26,-253.03 834.6,-279.06 806.32,-295.54"/>
<polygon fill="#63b8ff" stroke="#63b8ff" points="912.3,-237.82 919.18,-229.76 908.78,-231.77 912.3,-237.82"/>
</a>
</g>
</g>
<!-- Node12 -->
<g id="Node000012" class="node">
<title>Node12</title>
<g id="a_Node000012"><a xlink:href="namespacefabomatic_1_1tests.xhtml#aab0f4e1439b281ffef8be51db9a81f9d" target="_top" xlink:title=" ">
<polygon fill="white" stroke="#666666" points="191.75,-294.5 79,-294.5 79,-264 191.75,-264 191.75,-294.5"/>
<text text-anchor="start" x="87" y="-281" font-family="Helvetica,sans-Serif" font-size="10.00">fabomatic::tests::test</text>
<text text-anchor="middle" x="135.38" y="-269.75" font-family="Helvetica,sans-Serif" font-size="10.00">_whitelist_no_network</text>
</a>
</g>
</g>
<!-- Node2&#45;&gt;Node12 -->
<g id="edge26_Node000002_Node000012" class="edge">
<title>Node2&#45;&gt;Node12</title>
<g id="a_edge26_Node000002_Node000012"><a xlink:title=" ">
<path fill="none" stroke="#63b8ff" d="M880.53,-213.25C816.4,-213.25 716.9,-213.25 630.62,-213.25 630.62,-213.25 630.62,-213.25 473.12,-213.25 369.02,-213.25 250.13,-244 185.15,-263.53"/>
<polygon fill="#63b8ff" stroke="#63b8ff" points="880.18,-216.75 890.18,-213.25 880.18,-209.75 880.18,-216.75"/>
</a>
</g>
</g>
<!-- Node4 -->
<g id="Node000004" class="node">
<title>Node4</title>
<g id="a_Node000004"><a xlink:href="classfabomatic_1_1_board_logic.xhtml#a25bdc3a49d850aa49f92faf951b68efb" target="_top" xlink:title="Checks if a new card is present.">
<polygon fill="white" stroke="#666666" points="686,-380.5 573.25,-380.5 573.25,-350 686,-350 686,-380.5"/>
<text text-anchor="start" x="581.25" y="-367" font-family="Helvetica,sans-Serif" font-size="10.00">fabomatic::BoardLogic</text>
<text text-anchor="middle" x="629.62" y="-355.75" font-family="Helvetica,sans-Serif" font-size="10.00">::checkRfid</text>
</a>
</g>
</g>
<!-- Node3&#45;&gt;Node4 -->
<g id="edge3_Node000003_Node000004" class="edge">
<title>Node3&#45;&gt;Node4</title>
<g id="a_edge3_Node000003_Node000004"><a xlink:title=" ">
<path fill="none" stroke="#63b8ff" d="M724.18,-330.82C707.42,-336.99 689.15,-343.72 673.23,-349.57"/>
<polygon fill="#63b8ff" stroke="#63b8ff" points="725.33,-334.13 733.51,-327.39 722.91,-327.56 725.33,-334.13"/>
</a>
</g>
</g>
<!-- Node5 -->
<g id="Node000005" class="node">
<title>Node5</title>
<g id="a_Node000005"><a xlink:href="namespacefabomatic_1_1tests.xhtml#a2600320f41c9fa343c66058ecb12b5ee" target="_top" xlink:title="Simulates RFID card tap.">
<polygon fill="white" stroke="#666666" points="537.25,-380.5 411,-380.5 411,-350 537.25,-350 537.25,-380.5"/>
<text text-anchor="start" x="419" y="-367" font-family="Helvetica,sans-Serif" font-size="10.00">fabomatic::tests::simulate</text>
<text text-anchor="middle" x="474.12" y="-355.75" font-family="Helvetica,sans-Serif" font-size="10.00">_rfid_card</text>
</a>
</g>
</g>
<!-- Node4&#45;&gt;Node5 -->
<g id="edge4_Node000004_Node000005" class="edge">
<title>Node4&#45;&gt;Node5</title>
<g id="a_edge4_Node000004_Node000005"><a xlink:title=" ">
<path fill="none" stroke="#63b8ff" d="M561.38,-365.25C553.5,-365.25 545.49,-365.25 537.69,-365.25"/>
<polygon fill="#63b8ff" stroke="#63b8ff" points="561.26,-368.75 571.26,-365.25 561.26,-361.75 561.26,-368.75"/>
</a>
</g>
</g>
<!-- Node4&#45;&gt;Node12 -->
<g id="edge25_Node000004_Node000012" class="edge">
<title>Node4&#45;&gt;Node12</title>
<g id="a_edge25_Node000004_Node000012"><a xlink:title=" ">
<path fill="none" stroke="#63b8ff" d="M575.56,-345.82C524.82,-328.19 445.79,-303.19 375,-291.25 313.03,-280.8 240.84,-278.52 192.22,-278.39"/>
<polygon fill="#63b8ff" stroke="#63b8ff" points="574.23,-349.06 584.83,-349.07 576.55,-342.46 574.23,-349.06"/>
</a>
</g>
</g>
<!-- Node14 -->
<g id="Node000014" class="node">
<title>Node14</title>
<g id="a_Node000014"><a xlink:href="namespacefabomatic.xhtml#a3e5c190499522bddad3f3cc69274f16c" target="_top" xlink:title="periodic check for new RFID card">
<polygon fill="white" stroke="#666666" points="537.25,-466.88 411,-466.88 411,-447.62 537.25,-447.62 537.25,-466.88"/>
<text text-anchor="middle" x="474.12" y="-453.38" font-family="Helvetica,sans-Serif" font-size="10.00">fabomatic::taskCheckRfid</text>
</a>
</g>
</g>
<!-- Node4&#45;&gt;Node14 -->
<g id="edge23_Node000004_Node000014" class="edge">
<title>Node4&#45;&gt;Node14</title>
<g id="a_edge23_Node000004_Node000014"><a xlink:title=" ">
<path fill="none" stroke="#63b8ff" d="M604.7,-388.58C587.24,-404.5 562.33,-425.02 537.25,-438.25 530.67,-441.72 523.35,-444.67 516.11,-447.13"/>
<polygon fill="#63b8ff" stroke="#63b8ff" points="607.08,-391.15 612.01,-381.77 602.31,-386.03 607.08,-391.15"/>
</a>
</g>
</g>
<!-- Node15 -->
<g id="Node000015" class="node">
<title>Node15</title>
<g id="a_Node000015"><a xlink:href="namespacefabomatic_1_1tests.xhtml#a294b4767ecf1e1d11cc31dafb2541d23" target="_top" xlink:title="periodic check for new RFID card">
<polygon fill="white" stroke="#666666" points="527.12,-429.5 421.12,-429.5 421.12,-399 527.12,-399 527.12,-429.5"/>
<text text-anchor="start" x="429.12" y="-416" font-family="Helvetica,sans-Serif" font-size="10.00">fabomatic::tests::test</text>
<text text-anchor="middle" x="474.12" y="-404.75" font-family="Helvetica,sans-Serif" font-size="10.00">_taskCheckRfid</text>
</a>
</g>
</g>
<!-- Node4&#45;&gt;Node15 -->
<g id="edge24_Node000004_Node000015" class="edge">
<title>Node4&#45;&gt;Node15</title>
<g id="a_edge24_Node000004_Node000015"><a xlink:title=" ">
<path fill="none" stroke="#63b8ff" d="M569.08,-384.26C554.31,-388.97 538.65,-393.97 524.44,-398.51"/>
<polygon fill="#63b8ff" stroke="#63b8ff" points="569.73,-387.72 578.19,-381.35 567.6,-381.06 569.73,-387.72"/>
</a>
</g>
</g>
<!-- Node6 -->
<g id="Node000006" class="node">
<title>Node6</title>
<g id="a_Node000006"><a xlink:href="namespacefabomatic_1_1tests.xhtml#a6a7645a865dc822746f972ea6f43224d" target="_top" xlink:title="Resets machine to initial state, clearing flags.">
<polygon fill="white" stroke="#666666" points="375,-374.88 230.75,-374.88 230.75,-355.62 375,-355.62 375,-374.88"/>
<text text-anchor="middle" x="302.88" y="-361.38" font-family="Helvetica,sans-Serif" font-size="10.00">fabomatic::tests::machine_init</text>
</a>
</g>
</g>
<!-- Node5&#45;&gt;Node6 -->
<g id="edge5_Node000005_Node000006" class="edge">
<title>Node5&#45;&gt;Node6</title>
<g id="a_edge5_Node000005_Node000006"><a xlink:title=" ">
<path fill="none" stroke="#63b8ff" d="M399.12,-365.25C391.21,-365.25 383.18,-365.25 375.3,-365.25"/>
<polygon fill="#63b8ff" stroke="#63b8ff" points="399.07,-368.75 409.07,-365.25 399.07,-361.75 399.07,-368.75"/>
</a>
</g>
</g>
<!-- Node7 -->
<g id="Node000007" class="node">
<title>Node7</title>
<g id="a_Node000007"><a xlink:href="namespacefabomatic_1_1tests.xhtml#a558e2287db01a4622581246a19dac397" target="_top" xlink:title=" ">
<polygon fill="white" stroke="#666666" points="188.38,-441.5 82.38,-441.5 82.38,-411 188.38,-411 188.38,-441.5"/>
<text text-anchor="start" x="90.38" y="-428" font-family="Helvetica,sans-Serif" font-size="10.00">fabomatic::tests::test</text>
<text text-anchor="middle" x="135.38" y="-416.75" font-family="Helvetica,sans-Serif" font-size="10.00">_machine_allowed</text>
</a>
</g>
</g>
<!-- Node5&#45;&gt;Node7 -->
<g id="edge16_Node000005_Node000007" class="edge">
<title>Node5&#45;&gt;Node7</title>
<g id="a_edge16_Node000005_Node000007"><a xlink:title=" ">
<path fill="none" stroke="#63b8ff" d="M424.14,-384.6C408.63,-390.08 391.29,-395.55 375,-399.25 311.78,-413.59 237.32,-420.47 188.6,-423.67"/>
<polygon fill="#63b8ff" stroke="#63b8ff" points="424.92,-388.05 433.12,-381.35 422.53,-381.46 424.92,-388.05"/>
</a>
</g>
</g>
<!-- Node9 -->
<g id="Node000009" class="node">
<title>Node9</title>
<g id="a_Node000009"><a xlink:href="namespacefabomatic_1_1tests.xhtml#a9a34631c2dc01cbdbbce146895c94e12" target="_top" xlink:title=" ">
<polygon fill="white" stroke="#666666" points="194.75,-392.5 76,-392.5 76,-362 194.75,-362 194.75,-392.5"/>
<text text-anchor="start" x="84" y="-379" font-family="Helvetica,sans-Serif" font-size="10.00">fabomatic::tests::test</text>
<text text-anchor="middle" x="135.38" y="-367.75" font-family="Helvetica,sans-Serif" font-size="10.00">_machine_maintenance</text>
</a>
</g>
</g>
<!-- Node5&#45;&gt;Node9 -->
<g id="edge17_Node000005_Node000009" class="edge">
<title>Node5&#45;&gt;Node9</title>
<g id="a_edge17_Node000005_Node000009"><a xlink:title=" ">
<path fill="none" stroke="#63b8ff" d="M399.44,-381.09C391.23,-382.38 382.96,-383.49 375,-384.25 313.73,-390.13 243.25,-386.83 194.86,-383.03"/>
<polygon fill="#63b8ff" stroke="#63b8ff" points="399.8,-384.58 409.08,-379.46 398.63,-377.67 399.8,-384.58"/>
</a>
</g>
</g>
<!-- Node10 -->
<g id="Node000010" class="node">
<title>Node10</title>
<g id="a_Node000010"><a xlink:href="namespacefabomatic_1_1tests.xhtml#a6f3dff17fd964aba76c35c514957a0a5" target="_top" xlink:title=" ">
<polygon fill="white" stroke="#666666" points="189.88,-343.5 80.88,-343.5 80.88,-313 189.88,-313 189.88,-343.5"/>
<text text-anchor="start" x="88.88" y="-330" font-family="Helvetica,sans-Serif" font-size="10.00">fabomatic::tests::test</text>
<text text-anchor="middle" x="135.38" y="-318.75" font-family="Helvetica,sans-Serif" font-size="10.00">_one_user_at_a_time</text>
</a>
</g>
</g>
<!-- Node5&#45;&gt;Node10 -->
<g id="edge20_Node000005_Node000010" class="edge">
<title>Node5&#45;&gt;Node10</title>
<g id="a_edge20_Node000005_Node000010"><a xlink:title=" ">
<path fill="none" stroke="#63b8ff" d="M399.55,-350.05C391.29,-348.63 382.98,-347.32 375,-346.25 311.79,-337.78 238.59,-332.99 190.11,-330.52"/>
<polygon fill="#63b8ff" stroke="#63b8ff" points="398.8,-353.47 409.26,-351.78 400.03,-346.58 398.8,-353.47"/>
</a>
</g>
</g>
<!-- Node11 -->
<g id="Node000011" class="node">
<title>Node11</title>
<g id="a_Node000011"><a xlink:href="namespacefabomatic_1_1tests.xhtml#afa92fef9250d918ee02c79dbf2de2546" target="_top" xlink:title=" ">
<polygon fill="white" stroke="#666666" points="188.38,-490.5 82.38,-490.5 82.38,-460 188.38,-460 188.38,-490.5"/>
<text text-anchor="start" x="90.38" y="-477" font-family="Helvetica,sans-Serif" font-size="10.00">fabomatic::tests::test</text>
<text text-anchor="middle" x="135.38" y="-465.75" font-family="Helvetica,sans-Serif" font-size="10.00">_user_autologoff</text>
</a>
</g>
</g>
<!-- Node5&#45;&gt;Node11 -->
<g id="edge21_Node000005_Node000011" class="edge">
<title>Node5&#45;&gt;Node11</title>
<g id="a_edge21_Node000005_Node000011"><a xlink:title=" ">
<path fill="none" stroke="#63b8ff" d="M418.1,-386.1C415.66,-387.43 413.28,-388.81 411,-390.25 392.64,-401.82 394.27,-413.26 375,-423.25 315.71,-453.98 239.05,-466.58 188.84,-471.73"/>
<polygon fill="#63b8ff" stroke="#63b8ff" points="419.63,-389.25 427.02,-381.66 416.51,-382.99 419.63,-389.25"/>
</a>
</g>
</g>
<!-- Node5&#45;&gt;Node12 -->
<g id="edge22_Node000005_Node000012" class="edge">
<title>Node5&#45;&gt;Node12</title>
<g id="a_edge22_Node000005_Node000012"><a xlink:title=" ">
<path fill="none" stroke="#63b8ff" d="M425.26,-345.47C409.43,-339.4 391.63,-333.06 375,-328.25 313.25,-310.39 240.7,-296.46 191.95,-288.1"/>
<polygon fill="#63b8ff" stroke="#63b8ff" points="423.85,-348.68 434.44,-349.06 426.4,-342.16 423.85,-348.68"/>
</a>
</g>
</g>
<!-- Node13 -->
<g id="Node000013" class="node">
<title>Node13</title>
<g id="a_Node000013"><a xlink:href="namespacefabomatic_1_1tests.xhtml#af8fa7ace86309b5f699540d8898660c7" target="_top" xlink:title=" ">
<polygon fill="white" stroke="#666666" points="355.88,-537.5 249.88,-537.5 249.88,-507 355.88,-507 355.88,-537.5"/>
<text text-anchor="start" x="257.88" y="-524" font-family="Helvetica,sans-Serif" font-size="10.00">fabomatic::tests::test</text>
<text text-anchor="middle" x="302.88" y="-512.75" font-family="Helvetica,sans-Serif" font-size="10.00">_messages_buffered</text>
</a>
</g>
</g>
<!-- Node5&#45;&gt;Node13 -->
<g id="edge18_Node000005_Node000013" class="edge">
<title>Node5&#45;&gt;Node13</title>
<g id="a_edge18_Node000005_Node000013"><a xlink:title=" ">
<path fill="none" stroke="#63b8ff" d="M413.7,-387.63C412.76,-388.47 411.86,-389.35 411,-390.25 377.51,-425.33 408.41,-458.1 375,-493.25 369.67,-498.86 363.11,-503.41 356.14,-507.1"/>
<polygon fill="#63b8ff" stroke="#63b8ff" points="415.67,-390.53 421.62,-381.76 411.5,-384.9 415.67,-390.53"/>
</a>
</g>
</g>
<!-- Node6&#45;&gt;Node7 -->
<g id="edge6_Node000006_Node000007" class="edge">
<title>Node6&#45;&gt;Node7</title>
<g id="a_edge6_Node000006_Node000007"><a xlink:title=" ">
<path fill="none" stroke="#63b8ff" d="M263.87,-379.26C238.54,-388.59 205.21,-400.88 178.98,-410.55"/>
<polygon fill="#63b8ff" stroke="#63b8ff" points="264.95,-382.59 273.13,-375.85 262.53,-376.02 264.95,-382.59"/>
</a>
</g>
</g>
<!-- Node6&#45;&gt;Node9 -->
<g id="edge8_Node000006_Node000009" class="edge">
<title>Node6&#45;&gt;Node9</title>
<g id="a_edge8_Node000006_Node000009"><a xlink:title=" ">
<path fill="none" stroke="#63b8ff" d="M219.49,-371.22C211.23,-371.82 202.96,-372.42 195.02,-373"/>
<polygon fill="#63b8ff" stroke="#63b8ff" points="219.5,-374.73 229.22,-370.52 218.99,-367.75 219.5,-374.73"/>
</a>
</g>
</g>
<!-- Node6&#45;&gt;Node10 -->
<g id="edge10_Node000006_Node000010" class="edge">
<title>Node6&#45;&gt;Node10</title>
<g id="a_edge10_Node000006_Node000010"><a xlink:title=" ">
<path fill="none" stroke="#63b8ff" d="M245.53,-352.65C227.69,-348.67 208.03,-344.27 190.37,-340.32"/>
<polygon fill="#63b8ff" stroke="#63b8ff" points="244.65,-356.04 255.17,-354.81 246.18,-349.21 244.65,-356.04"/>
</a>
</g>
</g>
<!-- Node6&#45;&gt;Node11 -->
<g id="edge12_Node000006_Node000011" class="edge">
<title>Node6&#45;&gt;Node11</title>
<g id="a_edge12_Node000006_Node000011"><a xlink:title=" ">
<path fill="none" stroke="#63b8ff" d="M282.91,-382.9C262.34,-401.38 227.99,-430.43 194.75,-450.25 189.16,-453.58 183.05,-456.71 176.95,-459.54"/>
<polygon fill="#63b8ff" stroke="#63b8ff" points="285.18,-385.56 290.21,-376.24 280.46,-380.39 285.18,-385.56"/>
</a>
</g>
</g>
<!-- Node6&#45;&gt;Node12 -->
<g id="edge14_Node000006_Node000012" class="edge">
<title>Node6&#45;&gt;Node12</title>
<g id="a_edge14_Node000006_Node000012"><a xlink:title=" ">
<path fill="none" stroke="#63b8ff" d="M275.83,-349.32C254.41,-336.48 223.08,-318.33 194.75,-304.25 188.33,-301.06 181.41,-297.88 174.65,-294.91"/>
<polygon fill="#63b8ff" stroke="#63b8ff" points="273.82,-352.2 284.2,-354.37 277.44,-346.2 273.82,-352.2"/>
</a>
</g>
</g>
<!-- Node8 -->
<g id="Node000008" class="node">
<title>Node8</title>
<g id="a_Node000008"><a xlink:href="test__logic_8cpp.xhtml#a4fc01d736fe50cf5b977f755b675f11d" target="_top" xlink:title=" ">
<polygon fill="white" stroke="#666666" points="40,-386.88 0,-386.88 0,-367.62 40,-367.62 40,-386.88"/>
<text text-anchor="middle" x="20" y="-373.38" font-family="Helvetica,sans-Serif" font-size="10.00">setup</text>
</a>
</g>
</g>
<!-- Node7&#45;&gt;Node8 -->
<g id="edge7_Node000007_Node000008" class="edge">
<title>Node7&#45;&gt;Node8</title>
<g id="a_edge7_Node000007_Node000008"><a xlink:title=" ">
<path fill="none" stroke="#63b8ff" d="M87.08,-406.03C83.33,-404.41 79.6,-402.81 76,-401.25 64.14,-396.12 50.87,-390.33 40.33,-385.72"/>
<polygon fill="#63b8ff" stroke="#63b8ff" points="85.65,-409.22 96.22,-409.95 88.42,-402.79 85.65,-409.22"/>
</a>
</g>
</g>
<!-- Node9&#45;&gt;Node8 -->
<g id="edge9_Node000009_Node000008" class="edge">
<title>Node9&#45;&gt;Node8</title>
<g id="a_edge9_Node000009_Node000008"><a xlink:title=" ">
<path fill="none" stroke="#63b8ff" d="M64.44,-377.25C55.69,-377.25 47.39,-377.25 40.43,-377.25"/>
<polygon fill="#63b8ff" stroke="#63b8ff" points="64.18,-380.75 74.18,-377.25 64.18,-373.75 64.18,-380.75"/>
</a>
</g>
</g>
<!-- Node10&#45;&gt;Node8 -->
<g id="edge11_Node000010_Node000008" class="edge">
<title>Node10&#45;&gt;Node8</title>
<g id="a_edge11_Node000010_Node000008"><a xlink:title=" ">
<path fill="none" stroke="#63b8ff" d="M87.08,-348.47C83.33,-350.09 79.6,-351.69 76,-353.25 64.14,-358.38 50.87,-364.17 40.33,-368.78"/>
<polygon fill="#63b8ff" stroke="#63b8ff" points="88.42,-351.71 96.22,-344.55 85.65,-345.28 88.42,-351.71"/>
</a>
</g>
</g>
<!-- Node11&#45;&gt;Node8 -->
<g id="edge13_Node000011_Node000008" class="edge">
<title>Node11&#45;&gt;Node8</title>
<g id="a_edge13_Node000011_Node000008"><a xlink:title=" ">
<path fill="none" stroke="#63b8ff" d="M80.74,-453.69C79.11,-452.59 77.52,-451.44 76,-450.25 53.15,-432.33 34.86,-402.73 26.29,-387.3"/>
<polygon fill="#63b8ff" stroke="#63b8ff" points="78.85,-456.64 89.24,-458.73 82.43,-450.62 78.85,-456.64"/>
</a>
</g>
</g>
<!-- Node12&#45;&gt;Node8 -->
<g id="edge15_Node000012_Node000008" class="edge">
<title>Node12&#45;&gt;Node8</title>
<g id="a_edge15_Node000012_Node000008"><a xlink:title=" ">
<path fill="none" stroke="#63b8ff" d="M80.74,-300.81C79.11,-301.91 77.52,-303.06 76,-304.25 53.15,-322.17 34.86,-351.77 26.29,-367.2"/>
<polygon fill="#63b8ff" stroke="#63b8ff" points="82.43,-303.88 89.24,-295.77 78.85,-297.86 82.43,-303.88"/>
</a>
</g>
</g>
<!-- Node13&#45;&gt;Node8 -->
<g id="edge19_Node000013_Node000008" class="edge">
<title>Node13&#45;&gt;Node8</title>
<g id="a_edge19_Node000013_Node000008"><a xlink:title=" ">
<path fill="none" stroke="#63b8ff" d="M238.27,-531.81C189.42,-535.64 122.63,-532.85 76,-499.25 37.73,-471.68 25.57,-411.12 22.18,-387.23"/>
<polygon fill="#63b8ff" stroke="#63b8ff" points="238.51,-535.3 248.15,-530.91 237.88,-528.33 238.51,-535.3"/>
</a>
</g>
</g>
<!-- Node19&#45;&gt;Node8 -->
<g id="edge31_Node000019_Node000008" class="edge">
<title>Node19&#45;&gt;Node8</title>
<g id="a_edge31_Node000019_Node000008"><a xlink:title=" ">
<path fill="none" stroke="#63b8ff" d="M713.56,-171.25C652.39,-172.12 557.45,-173.25 475.12,-173.25 475.12,-173.25 475.12,-173.25 301.88,-173.25 195.08,-173.25 154.31,-182.63 76,-255.25 41.76,-287 27.38,-344.1 22.78,-367.17"/>
<polygon fill="#63b8ff" stroke="#63b8ff" points="713.5,-174.75 723.44,-171.11 713.39,-167.75 713.5,-174.75"/>
</a>
</g>
</g>
</g>
</svg>

<g id="navigator" transform="translate(0 0)" fill="#404254">
  <rect fill="#f2f5e9" fill-opacity="0.5" stroke="#606060" stroke-width=".5" x="0" y="0" width="60" height="60"/>
  <use id="zoomplus" xlink:href="#zoomPlus" x="17" y="9" onmousedown="handleZoom(evt,'in')"/>
  <use id="zoomminus" xlink:href="#zoomMin" x="42" y="9" onmousedown="handleZoom(evt,'out')"/>
  <use id="reset" xlink:href="#resetDef" x="30" y="36" onmousedown="handleReset()"/>
   <use id="arrowup" xlink:href="#arrowUp" x="0" y="0" onmousedown="handlePan(0,-1)"/>
  <use id="arrowright" xlink:href="#arrowRight" x="0" y="0" onmousedown="handlePan(1,0)"/>
  <use id="arrowdown" xlink:href="#arrowDown" x="0" y="0" onmousedown="handlePan(0,1)"/>
  <use id="arrowleft" xlink:href="#arrowLeft" x="0" y="0" onmousedown="handlePan(-1,0)"/>
</g>
<svg viewBox="0 0 15 15" width="100%" height="30px" preserveAspectRatio="xMaxYMin meet">
 <g id="arrow_out" transform="scale(0.3 0.3)">
  <a xlink:href="classfabomatic_1_1_board_logic_ac198a07d00fda36a527cd9db2d97efc1_icgraph_org.svg" target="_base">
   <rect id="button" ry="5" rx="5" y="6" x="6" height="38" width="38"
        fill="#f2f5e9" fill-opacity="0.5" stroke="#606060" stroke-width="1.0"/>
   <path id="arrow"
     d="M 11.500037,31.436501 C 11.940474,20.09759 22.043105,11.32322 32.158766,21.979434 L 37.068811,17.246167 C 37.068811,17.246167 37.088388,32 37.088388,32 L 22.160133,31.978069 C 22.160133,31.978069 26.997745,27.140456 26.997745,27.140456 C 18.528582,18.264221 13.291696,25.230495 11.500037,31.436501 z"
     style="fill:#404040;"/>
  </a>
 </g>
</svg>

<style type='text/css'>
<![CDATA[
[data-mouse-over-selected='false'] { opacity: 0.7; }
[data-mouse-over-selected='true']  { opacity: 1.0; }
]]>
</style>
<script type="application/ecmascript"><![CDATA[
document.addEventListener('DOMContentLoaded', (event) => {
  highlightEdges();
  highlightAdjacentNodes();
});
]]></script>
</svg>
