<?xml version="1.0" encoding="UTF-8" standalone="no"?>
<!DOCTYPE svg PUBLIC "-//W3C//DTD SVG 1.1//EN"
 "http://www.w3.org/Graphics/SVG/1.1/DTD/svg11.dtd">
<!-- Generated by graphviz version 9.0.0 (20230911.1827)
 -->
<!-- Title: fabomatic::MQTTInterface::AliveQuery Pages: 1 -->
<svg width="131pt" height="254pt"
 viewBox="0.00 0.00 131.00 254.00" xmlns="http://www.w3.org/2000/svg" xmlns:xlink="http://www.w3.org/1999/xlink">

<svg id="main" version="1.1" xmlns="http://www.w3.org/2000/svg" xmlns:xlink="http://www.w3.org/1999/xlink" xml:space="preserve" onload="init(evt)">
<style type="text/css"><![CDATA[
.node, .edge {opacity: 0.7;}
.node.selected, .edge.selected {opacity: 1;}
.edge:hover path { stroke: red; }
.edge:hover polygon { stroke: red; fill: red; }
]]></style>
<script type="application/ecmascript" xlink:href="svg.min.js"/>
<svg id="graph" class="graph">
<g id="graph0" class="graph" transform="scale(1 1) rotate(0) translate(4 250)">
<title>fabomatic::MQTTInterface::AliveQuery</title>
<!-- Node1 -->
<g id="Node000001" class="node">
<title>Node1</title>
<g id="a_Node000001"><a xlink:title="board status notification">
<polygon fill="#999999" stroke="none" points="123,-105 0,-105 0,0 123,0 123,-105"/>
<text text-anchor="start" x="4.88" y="-91.5" font-family="Helvetica,sans-Serif" font-size="10.00">fabomatic::MQTTInterface</text>
<text text-anchor="start" x="35.62" y="-80.25" font-family="Helvetica,sans-Serif" font-size="10.00">::AliveQuery</text>
<text text-anchor="start" x="60" y="-65.5" font-family="Helvetica,sans-Serif" font-size="10.00"> </text>
<text text-anchor="start" x="14.5" y="-50.5" font-family="Helvetica,sans-Serif" font-size="10.00">+</text>
<text text-anchor="start" x="35" y="-50.5" font-family="Helvetica,sans-Serif" font-size="10.00">AliveQuery()</text>
<text text-anchor="start" x="14.5" y="-35.5" font-family="Helvetica,sans-Serif" font-size="10.00">+</text>
<text text-anchor="start" x="35" y="-35.5" font-family="Helvetica,sans-Serif" font-size="10.00">payload()</text>
<text text-anchor="start" x="14.5" y="-20.5" font-family="Helvetica,sans-Serif" font-size="10.00">+</text>
<text text-anchor="start" x="35" y="-20.5" font-family="Helvetica,sans-Serif" font-size="10.00">waitForReply()</text>
<text text-anchor="start" x="14.5" y="-5.5" font-family="Helvetica,sans-Serif" font-size="10.00">+</text>
<text text-anchor="start" x="35" y="-5.5" font-family="Helvetica,sans-Serif" font-size="10.00">buffered()</text>
<polygon fill="#666666" stroke="#666666" points="0,-77 0,-77 123,-77 123,-77 0,-77"/>
<polygon fill="#666666" stroke="#666666" points="0,-62 0,-62 123,-62 123,-62 0,-62"/>
<polygon fill="none" stroke="#666666" points="0,0 0,-105 123,-105 123,0 0,0"/>
</a>
</g>
</g>
<!-- Node2 -->
<g id="Node000002" class="node">
<title>Node2</title>
<g id="a_Node000002"><a xlink:href="classfabomatic_1_1_m_q_t_t_interface_1_1_query.xhtml" target="_top" xlink:title="base class for all MQTT request to the backend">
<polygon fill="white" stroke="none" points="123,-246 0,-246 0,-141 123,-141 123,-246"/>
<text text-anchor="start" x="4.88" y="-232.5" font-family="Helvetica,sans-Serif" font-size="10.00">fabomatic::MQTTInterface</text>
<text text-anchor="start" x="46.5" y="-221.25" font-family="Helvetica,sans-Serif" font-size="10.00">::Query</text>
<text text-anchor="start" x="60" y="-206.5" font-family="Helvetica,sans-Serif" font-size="10.00"> </text>
<text text-anchor="start" x="14.5" y="-191.5" font-family="Helvetica,sans-Serif" font-size="10.00">+</text>
<text text-anchor="start" x="35" y="-191.5" font-family="Helvetica,sans-Serif" font-size="10.00">waitForReply()</text>
<text text-anchor="start" x="14.5" y="-176.5" font-family="Helvetica,sans-Serif" font-size="10.00">+</text>
<text text-anchor="start" x="35" y="-176.5" font-family="Helvetica,sans-Serif" font-size="10.00">payload()</text>
<text text-anchor="start" x="14.5" y="-161.5" font-family="Helvetica,sans-Serif" font-size="10.00">+</text>
<text text-anchor="start" x="35" y="-161.5" font-family="Helvetica,sans-Serif" font-size="10.00">buffered()</text>
<text text-anchor="start" x="14.5" y="-146.5" font-family="Helvetica,sans-Serif" font-size="10.00">+</text>
<text text-anchor="start" x="35" y="-146.5" font-family="Helvetica,sans-Serif" font-size="10.00">~Query()</text>
<polygon fill="#666666" stroke="#666666" points="0,-218 0,-218 123,-218 123,-218 0,-218"/>
<polygon fill="#666666" stroke="#666666" points="0,-203 0,-203 123,-203 123,-203 0,-203"/>
<polygon fill="none" stroke="#666666" points="0,-141 0,-246 123,-246 123,-141 0,-141"/>
</a>
</g>
</g>
<!-- Node2&#45;&gt;Node1 -->
<g id="edge1_Node000001_Node000002" class="edge">
<title>Node2&#45;&gt;Node1</title>
<g id="a_edge1_Node000001_Node000002"><a xlink:title=" ">
<path fill="none" stroke="#63b8ff" d="M61.5,-129.79C61.5,-121.38 61.5,-112.83 61.5,-104.65"/>
<polygon fill="none" stroke="#63b8ff" points="58,-129.62 61.5,-139.62 65,-129.62 58,-129.62"/>
</a>
</g>
</g>
</g>
</svg>
</svg>

<style type='text/css'>
<![CDATA[
[data-mouse-over-selected='false'] { opacity: 0.7; }
[data-mouse-over-selected='true']  { opacity: 1.0; }
]]>
</style>
<script type="application/ecmascript"><![CDATA[
document.addEventListener('DOMContentLoaded', (event) => {
  highlightEdges();
  highlightAdjacentNodes();
});
]]></script>
</svg>
