<?xml version="1.0" encoding="UTF-8" standalone="no"?>
<!DOCTYPE svg PUBLIC "-//W3C//DTD SVG 1.1//EN"
 "http://www.w3.org/Graphics/SVG/1.1/DTD/svg11.dtd">
<!-- Generated by graphviz version 9.0.0 (20230911.1827)
 -->
<!-- Title: fabomatic::Led Pages: 1 -->
<svg width="119pt" height="370pt"
 viewBox="0.00 0.00 119.00 369.50" xmlns="http://www.w3.org/2000/svg" xmlns:xlink="http://www.w3.org/1999/xlink">

<svg id="main" version="1.1" xmlns="http://www.w3.org/2000/svg" xmlns:xlink="http://www.w3.org/1999/xlink" xml:space="preserve" onload="init(evt)">
<style type="text/css"><![CDATA[
.node, .edge {opacity: 0.7;}
.node.selected, .edge.selected {opacity: 1;}
.edge:hover path { stroke: red; }
.edge:hover polygon { stroke: red; fill: red; }
]]></style>
<script type="application/ecmascript" xlink:href="svg.min.js"/>
<svg id="graph" class="graph">
<g id="graph0" class="graph" transform="scale(1 1) rotate(0) translate(4 365.5)">
<title>fabomatic::Led</title>
<!-- Node1 -->
<g id="Node000001" class="node">
<title>Node1</title>
<g id="a_Node000001"><a xlink:title="RGB/LED/NeoPixel class.">
<polygon fill="#999999" stroke="none" points="89,-169 16,-169 16,0 89,0 89,-169"/>
<text text-anchor="start" x="20.62" y="-155.5" font-family="Helvetica,sans-Serif" font-size="10.00">fabomatic::Led</text>
<text text-anchor="start" x="21.5" y="-140.5" font-family="Helvetica,sans-Serif" font-size="10.00">&#45;</text>
<text text-anchor="start" x="30" y="-140.5" font-family="Helvetica,sans-Serif" font-size="10.00">pixel</text>
<text text-anchor="start" x="21.5" y="-125.5" font-family="Helvetica,sans-Serif" font-size="10.00">&#45;</text>
<text text-anchor="start" x="30" y="-125.5" font-family="Helvetica,sans-Serif" font-size="10.00">status</text>
<text text-anchor="start" x="21.5" y="-110.5" font-family="Helvetica,sans-Serif" font-size="10.00">&#45;</text>
<text text-anchor="start" x="30" y="-110.5" font-family="Helvetica,sans-Serif" font-size="10.00">isOn</text>
<text text-anchor="start" x="21.5" y="-95.5" font-family="Helvetica,sans-Serif" font-size="10.00">&#45;</text>
<text text-anchor="start" x="30" y="-95.5" font-family="Helvetica,sans-Serif" font-size="10.00">initialized</text>
<text text-anchor="start" x="20" y="-80.5" font-family="Helvetica,sans-Serif" font-size="10.00">+</text>
<text text-anchor="start" x="30" y="-80.5" font-family="Helvetica,sans-Serif" font-size="10.00">Led()</text>
<text text-anchor="start" x="20" y="-65.5" font-family="Helvetica,sans-Serif" font-size="10.00">+</text>
<text text-anchor="start" x="30" y="-65.5" font-family="Helvetica,sans-Serif" font-size="10.00">set()</text>
<text text-anchor="start" x="20" y="-50.5" font-family="Helvetica,sans-Serif" font-size="10.00">+</text>
<text text-anchor="start" x="30" y="-50.5" font-family="Helvetica,sans-Serif" font-size="10.00">setColor()</text>
<text text-anchor="start" x="20" y="-35.5" font-family="Helvetica,sans-Serif" font-size="10.00">+</text>
<text text-anchor="start" x="30" y="-35.5" font-family="Helvetica,sans-Serif" font-size="10.00">update()</text>
<text text-anchor="start" x="21.5" y="-20.5" font-family="Helvetica,sans-Serif" font-size="10.00">&#45;</text>
<text text-anchor="start" x="30" y="-20.5" font-family="Helvetica,sans-Serif" font-size="10.00">outputColor()</text>
<text text-anchor="start" x="21.5" y="-5.5" font-family="Helvetica,sans-Serif" font-size="10.00">&#45;</text>
<text text-anchor="start" x="30" y="-5.5" font-family="Helvetica,sans-Serif" font-size="10.00">init()</text>
<polygon fill="#666666" stroke="#666666" points="16,-152 16,-152 89,-152 89,-152 16,-152"/>
<polygon fill="#666666" stroke="#666666" points="16,-92 16,-92 28,-92 28,-92 16,-92"/>
<polygon fill="#666666" stroke="#666666" points="28,-92 28,-92 89,-92 89,-92 28,-92"/>
<polygon fill="none" stroke="#666666" points="16,0 16,-169 89,-169 89,0 16,0"/>
</a>
</g>
</g>
<!-- Node2 -->
<g id="Node000002" class="node">
<title>Node2</title>
<g id="a_Node000002"><a xlink:title=" ">
<polygon fill="white" stroke="none" points="105,-265.25 0,-265.25 0,-216.25 105,-216.25 105,-265.25"/>
<text text-anchor="start" x="4.88" y="-251.75" font-family="Helvetica,sans-Serif" font-size="10.00">std::array&lt; uint8_t, 3 &gt;</text>
<text text-anchor="start" x="51" y="-236.75" font-family="Helvetica,sans-Serif" font-size="10.00"> </text>
<text text-anchor="start" x="51" y="-221.75" font-family="Helvetica,sans-Serif" font-size="10.00"> </text>
<polygon fill="#666666" stroke="#666666" points="0,-248.25 0,-248.25 105,-248.25 105,-248.25 0,-248.25"/>
<polygon fill="#666666" stroke="#666666" points="0,-233.25 0,-233.25 105,-233.25 105,-233.25 0,-233.25"/>
<polygon fill="none" stroke="#666666" points="0,-216.25 0,-265.25 105,-265.25 105,-216.25 0,-216.25"/>
</a>
</g>
</g>
<!-- Node2&#45;&gt;Node1 -->
<g id="edge1_Node000001_Node000002" class="edge">
<title>Node2&#45;&gt;Node1</title>
<g id="a_edge1_Node000001_Node000002"><a xlink:title=" ">
<path fill="none" stroke="#63b8ff" d="M52.5,-216.32C52.5,-206.59 52.5,-194.59 52.5,-181.84"/>
<polygon fill="none" stroke="#63b8ff" points="52.5,-181.8 48.5,-175.8 52.5,-169.8 56.5,-175.8 52.5,-181.8"/>
</a>
</g>
<text text-anchor="middle" x="65.62" y="-188.75" font-family="Helvetica,sans-Serif" font-size="10.00" fill="grey"> &#45;color</text>
</g>
<!-- Node3 -->
<g id="Node000003" class="node">
<title>Node3</title>
<g id="a_Node000003"><a xlink:title=" ">
<polygon fill="white" stroke="none" points="88,-361.5 17,-361.5 17,-312.5 88,-312.5 88,-361.5"/>
<text text-anchor="start" x="21.75" y="-348" font-family="Helvetica,sans-Serif" font-size="10.00">std::array&lt; T &gt;</text>
<text text-anchor="start" x="51" y="-333" font-family="Helvetica,sans-Serif" font-size="10.00"> </text>
<text text-anchor="start" x="51" y="-318" font-family="Helvetica,sans-Serif" font-size="10.00"> </text>
<polygon fill="#666666" stroke="#666666" points="17,-344.5 17,-344.5 88,-344.5 88,-344.5 17,-344.5"/>
<polygon fill="#666666" stroke="#666666" points="17,-329.5 17,-329.5 88,-329.5 88,-329.5 17,-329.5"/>
<polygon fill="none" stroke="#666666" points="17,-312.5 17,-361.5 88,-361.5 88,-312.5 17,-312.5"/>
</a>
</g>
</g>
<!-- Node3&#45;&gt;Node2 -->
<g id="edge2_Node000002_Node000003" class="edge">
<title>Node3&#45;&gt;Node2</title>
<g id="a_edge2_Node000002_Node000003"><a xlink:title=" ">
<path fill="none" stroke="orange" d="M52.5,-301.19C52.5,-289.16 52.5,-275.99 52.5,-265.11"/>
<polygon fill="orange" stroke="orange" points="49,-301.19 52.5,-311.19 56,-301.19 49,-301.19"/>
</a>
</g>
<text text-anchor="middle" x="81.75" y="-285" font-family="Helvetica,sans-Serif" font-size="10.00" fill="grey"> &lt; uint8_t, 3 &gt;</text>
</g>
</g>
</svg>
</svg>

<style type='text/css'>
<![CDATA[
[data-mouse-over-selected='false'] { opacity: 0.7; }
[data-mouse-over-selected='true']  { opacity: 1.0; }
]]>
</style>
<script type="application/ecmascript"><![CDATA[
document.addEventListener('DOMContentLoaded', (event) => {
  highlightEdges();
  highlightAdjacentNodes();
});
]]></script>
</svg>
