<?xml version="1.0" encoding="UTF-8" standalone="no"?>
<!DOCTYPE svg PUBLIC "-//W3C//DTD SVG 1.1//EN"
 "http://www.w3.org/Graphics/SVG/1.1/DTD/svg11.dtd">
<!-- Generated by graphviz version 9.0.0 (20230911.1827)
 -->
<!-- Title: fabomatic::BoardLogic::blinkLed Pages: 1 -->
<svg width="373pt" height="199pt"
 viewBox="0.00 0.00 372.50 198.88" xmlns="http://www.w3.org/2000/svg" xmlns:xlink="http://www.w3.org/1999/xlink">
<g id="graph0" class="graph" transform="scale(1 1) rotate(0) translate(4 194.88)">
<title>fabomatic::BoardLogic::blinkLed</title>
<!-- Node1 -->
<g id="Node000001" class="node">
<title>Node1</title>
<g id="a_Node000001"><a xlink:title="Blinks the LED.">
<polygon fill="#999999" stroke="#666666" points="364.5,-122.5 251.75,-122.5 251.75,-92 364.5,-92 364.5,-122.5"/>
<text text-anchor="start" x="259.75" y="-109" font-family="Helvetica,sans-Serif" font-size="10.00">fabomatic::BoardLogic</text>
<text text-anchor="middle" x="308.12" y="-97.75" font-family="Helvetica,sans-Serif" font-size="10.00">::blinkLed</text>
</a>
</g>
</g>
<!-- Node2 -->
<g id="Node000002" class="node">
<title>Node2</title>
<g id="a_Node000002"><a xlink:href="main_8cpp.xhtml#a4fc01d736fe50cf5b977f755b675f11d" target="_top" xlink:title=" ">
<polygon fill="white" stroke="#666666" points="165.88,-190.88 125.88,-190.88 125.88,-171.62 165.88,-171.62 165.88,-190.88"/>
<text text-anchor="middle" x="145.88" y="-177.38" font-family="Helvetica,sans-Serif" font-size="10.00">setup</text>
</a>
</g>
</g>
<!-- Node1&#45;&gt;Node2 -->
<g id="edge1_Node000001_Node000002" class="edge">
<title>Node1&#45;&gt;Node2</title>
<g id="a_edge1_Node000001_Node000002"><a xlink:title=" ">
<path fill="none" stroke="#63b8ff" d="M276.11,-129.43C258.98,-140.85 236.93,-154.23 215.75,-163.25 199.6,-170.13 180.18,-174.91 166.08,-177.81"/>
<polygon fill="#63b8ff" stroke="#63b8ff" points="278.04,-132.35 284.33,-123.83 274.1,-126.56 278.04,-132.35"/>
</a>
</g>
</g>
<!-- Node3 -->
<g id="Node000003" class="node">
<title>Node3</title>
<g id="a_Node000003"><a xlink:href="namespacefabomatic.xhtml#a9bb86caf0357ce1dd9ffe2945dcfc6e4" target="_top" xlink:title="blink led">
<polygon fill="white" stroke="#666666" points="197.75,-153.88 94,-153.88 94,-134.62 197.75,-134.62 197.75,-153.88"/>
<text text-anchor="middle" x="145.88" y="-140.38" font-family="Helvetica,sans-Serif" font-size="10.00">fabomatic::taskBlink</text>
</a>
</g>
</g>
<!-- Node1&#45;&gt;Node3 -->
<g id="edge2_Node000001_Node000003" class="edge">
<title>Node1&#45;&gt;Node3</title>
<g id="a_edge2_Node000001_Node000003"><a xlink:title=" ">
<path fill="none" stroke="#63b8ff" d="M240.57,-122.62C223.67,-126.52 205.94,-130.61 190.5,-134.18"/>
<polygon fill="#63b8ff" stroke="#63b8ff" points="241.1,-126.09 250.05,-120.43 239.52,-119.27 241.1,-126.09"/>
</a>
</g>
</g>
<!-- Node4 -->
<g id="Node000004" class="node">
<title>Node4</title>
<g id="a_Node000004"><a xlink:href="namespacefabomatic.xhtml#a2c7ad2690e92eb8ab98b6fadaa4df2bd" target="_top" xlink:title=" ">
<polygon fill="white" stroke="#666666" points="215.75,-116.88 76,-116.88 76,-97.62 215.75,-97.62 215.75,-116.88"/>
<text text-anchor="middle" x="145.88" y="-103.38" font-family="Helvetica,sans-Serif" font-size="10.00">fabomatic::taskFactoryReset</text>
</a>
</g>
</g>
<!-- Node1&#45;&gt;Node4 -->
<g id="edge3_Node000001_Node000004" class="edge">
<title>Node1&#45;&gt;Node4</title>
<g id="a_edge3_Node000001_Node000004"><a xlink:title=" ">
<path fill="none" stroke="#63b8ff" d="M240.12,-107.25C232.22,-107.25 224.14,-107.25 216.21,-107.25"/>
<polygon fill="#63b8ff" stroke="#63b8ff" points="240.01,-110.75 250.01,-107.25 240.01,-103.75 240.01,-110.75"/>
</a>
</g>
</g>
<!-- Node5 -->
<g id="Node000005" class="node">
<title>Node5</title>
<g id="a_Node000005"><a xlink:href="namespacefabomatic_1_1tests.xhtml#aec03a7ee459718d314b930fdd75d3cee" target="_top" xlink:title=" ">
<polygon fill="white" stroke="#666666" points="198.88,-79.5 92.88,-79.5 92.88,-49 198.88,-49 198.88,-79.5"/>
<text text-anchor="start" x="100.88" y="-66" font-family="Helvetica,sans-Serif" font-size="10.00">fabomatic::tests::test</text>
<text text-anchor="middle" x="145.88" y="-54.75" font-family="Helvetica,sans-Serif" font-size="10.00">_simple_methods</text>
</a>
</g>
</g>
<!-- Node1&#45;&gt;Node5 -->
<g id="edge4_Node000001_Node000005" class="edge">
<title>Node1&#45;&gt;Node5</title>
<g id="a_edge4_Node000001_Node000005"><a xlink:title=" ">
<path fill="none" stroke="#63b8ff" d="M240.59,-89.4C226.76,-85.69 212.37,-81.82 199.14,-78.27"/>
<polygon fill="#63b8ff" stroke="#63b8ff" points="239.5,-92.73 250.07,-91.94 241.31,-85.97 239.5,-92.73"/>
</a>
</g>
</g>
<!-- Node7 -->
<g id="Node000007" class="node">
<title>Node7</title>
<g id="a_Node000007"><a xlink:href="namespacefabomatic_1_1tests.xhtml#a7cd22311b16fc7c256a30ba4c2f6f387" target="_top" xlink:title="blink led">
<polygon fill="white" stroke="#666666" points="198.88,-30.5 92.88,-30.5 92.88,0 198.88,0 198.88,-30.5"/>
<text text-anchor="start" x="100.88" y="-17" font-family="Helvetica,sans-Serif" font-size="10.00">fabomatic::tests::test</text>
<text text-anchor="middle" x="145.88" y="-5.75" font-family="Helvetica,sans-Serif" font-size="10.00">_taskVarious</text>
</a>
</g>
</g>
<!-- Node1&#45;&gt;Node7 -->
<g id="edge6_Node000001_Node000007" class="edge">
<title>Node1&#45;&gt;Node7</title>
<g id="a_edge6_Node000001_Node000007"><a xlink:title=" ">
<path fill="none" stroke="#63b8ff" d="M280.7,-84.74C263.14,-70.59 239.1,-52.72 215.75,-40.25 209.35,-36.83 202.39,-33.7 195.43,-30.89"/>
<polygon fill="#63b8ff" stroke="#63b8ff" points="278.14,-87.16 288.09,-90.79 282.57,-81.74 278.14,-87.16"/>
</a>
</g>
</g>
<!-- Node6 -->
<g id="Node000006" class="node">
<title>Node6</title>
<g id="a_Node000006"><a xlink:href="test__logic_8cpp.xhtml#a4fc01d736fe50cf5b977f755b675f11d" target="_top" xlink:title=" ">
<polygon fill="white" stroke="#666666" points="40,-73.88 0,-73.88 0,-54.62 40,-54.62 40,-73.88"/>
<text text-anchor="middle" x="20" y="-60.38" font-family="Helvetica,sans-Serif" font-size="10.00">setup</text>
</a>
</g>
</g>
<!-- Node5&#45;&gt;Node6 -->
<g id="edge5_Node000005_Node000006" class="edge">
<title>Node5&#45;&gt;Node6</title>
<g id="a_edge5_Node000005_Node000006"><a xlink:title=" ">
<path fill="none" stroke="#63b8ff" d="M81.33,-64.25C66.41,-64.25 51.62,-64.25 40.42,-64.25"/>
<polygon fill="#63b8ff" stroke="#63b8ff" points="81.19,-67.75 91.19,-64.25 81.19,-60.75 81.19,-67.75"/>
</a>
</g>
</g>
</g>
</svg>
