<?xml version="1.0" encoding="UTF-8" standalone="no"?>
<!DOCTYPE svg PUBLIC "-//W3C//DTD SVG 1.1//EN"
 "http://www.w3.org/Graphics/SVG/1.1/DTD/svg11.dtd">
<!-- Generated by graphviz version 9.0.0 (20230911.1827)
 -->
<!-- Title: fabomatic::Buffer Pages: 1 -->
<svg width="181pt" height="396pt"
 viewBox="0.00 0.00 181.25 395.50" xmlns="http://www.w3.org/2000/svg" xmlns:xlink="http://www.w3.org/1999/xlink">

<svg id="main" version="1.1" xmlns="http://www.w3.org/2000/svg" xmlns:xlink="http://www.w3.org/1999/xlink" xml:space="preserve" onload="init(evt)">
<style type="text/css"><![CDATA[
.node, .edge {opacity: 0.7;}
.node.selected, .edge.selected {opacity: 1;}
.edge:hover path { stroke: red; }
.edge:hover polygon { stroke: red; fill: red; }
]]></style>
<script type="application/ecmascript" xlink:href="svg.min.js"/>
<svg id="graph" class="graph">
<g id="graph0" class="graph" transform="scale(1 1) rotate(0) translate(4 391.5)">
<title>fabomatic::Buffer</title>
<!-- Node1 -->
<g id="Node000001" class="node">
<title>Node1</title>
<g id="a_Node000001"><a xlink:title="Class containing the buffered messages for future replay.">
<polygon fill="#999999" stroke="none" points="102,-184 3,-184 3,0 102,0 102,-184"/>
<text text-anchor="start" x="16.12" y="-170.5" font-family="Helvetica,sans-Serif" font-size="10.00">fabomatic::Buffer</text>
<text text-anchor="start" x="7" y="-155.5" font-family="Helvetica,sans-Serif" font-size="10.00">+</text>
<text text-anchor="start" x="17" y="-155.5" font-family="Helvetica,sans-Serif" font-size="10.00">MAX_MESSAGES</text>
<text text-anchor="start" x="8.5" y="-140.5" font-family="Helvetica,sans-Serif" font-size="10.00">&#45;</text>
<text text-anchor="start" x="17" y="-140.5" font-family="Helvetica,sans-Serif" font-size="10.00">has_changed</text>
<text text-anchor="start" x="8.5" y="-125.5" font-family="Helvetica,sans-Serif" font-size="10.00">&#45;</text>
<text text-anchor="start" x="17" y="-125.5" font-family="Helvetica,sans-Serif" font-size="10.00">MAGIC_NUMBER</text>
<text text-anchor="start" x="7" y="-110.5" font-family="Helvetica,sans-Serif" font-size="10.00">+</text>
<text text-anchor="start" x="17" y="-110.5" font-family="Helvetica,sans-Serif" font-size="10.00">push_back()</text>
<text text-anchor="start" x="7" y="-95.5" font-family="Helvetica,sans-Serif" font-size="10.00">+</text>
<text text-anchor="start" x="17" y="-95.5" font-family="Helvetica,sans-Serif" font-size="10.00">push_front()</text>
<text text-anchor="start" x="7" y="-80.5" font-family="Helvetica,sans-Serif" font-size="10.00">+</text>
<text text-anchor="start" x="17" y="-80.5" font-family="Helvetica,sans-Serif" font-size="10.00">getMessage()</text>
<text text-anchor="start" x="7" y="-65.5" font-family="Helvetica,sans-Serif" font-size="10.00">+</text>
<text text-anchor="start" x="17" y="-65.5" font-family="Helvetica,sans-Serif" font-size="10.00">count()</text>
<text text-anchor="start" x="7" y="-50.5" font-family="Helvetica,sans-Serif" font-size="10.00">+</text>
<text text-anchor="start" x="17" y="-50.5" font-family="Helvetica,sans-Serif" font-size="10.00">toJson()</text>
<text text-anchor="start" x="7" y="-35.5" font-family="Helvetica,sans-Serif" font-size="10.00">+</text>
<text text-anchor="start" x="17" y="-35.5" font-family="Helvetica,sans-Serif" font-size="10.00">hasChanged()</text>
<text text-anchor="start" x="7" y="-20.5" font-family="Helvetica,sans-Serif" font-size="10.00">+</text>
<text text-anchor="start" x="17" y="-20.5" font-family="Helvetica,sans-Serif" font-size="10.00">setChanged()</text>
<text text-anchor="start" x="7" y="-5.5" font-family="Helvetica,sans-Serif" font-size="10.00">+</text>
<text text-anchor="start" x="17" y="-5.5" font-family="Helvetica,sans-Serif" font-size="10.00">fromJsonElement()</text>
<polygon fill="#666666" stroke="#666666" points="3,-167 3,-167 102,-167 102,-167 3,-167"/>
<polygon fill="#666666" stroke="#666666" points="3,-122 3,-122 15,-122 15,-122 3,-122"/>
<polygon fill="#666666" stroke="#666666" points="15,-122 15,-122 102,-122 102,-122 15,-122"/>
<polygon fill="none" stroke="#666666" points="3,0 3,-184 102,-184 102,0 3,0"/>
</a>
</g>
</g>
<!-- Node2 -->
<g id="Node000002" class="node">
<title>Node2</title>
<g id="a_Node000002"><a xlink:title=" ">
<polygon fill="white" stroke="none" points="105,-291.25 0,-291.25 0,-231.25 105,-231.25 105,-291.25"/>
<text text-anchor="start" x="4.88" y="-277.75" font-family="Helvetica,sans-Serif" font-size="10.00">std::deque&lt; fabomatic</text>
<text text-anchor="start" x="18.75" y="-266.5" font-family="Helvetica,sans-Serif" font-size="10.00">::BufferedMsg &gt;</text>
<text text-anchor="start" x="51" y="-251.75" font-family="Helvetica,sans-Serif" font-size="10.00"> </text>
<text text-anchor="start" x="51" y="-236.75" font-family="Helvetica,sans-Serif" font-size="10.00"> </text>
<polygon fill="#666666" stroke="#666666" points="0,-263.25 0,-263.25 105,-263.25 105,-263.25 0,-263.25"/>
<polygon fill="#666666" stroke="#666666" points="0,-248.25 0,-248.25 105,-248.25 105,-248.25 0,-248.25"/>
<polygon fill="none" stroke="#666666" points="0,-231.25 0,-291.25 105,-291.25 105,-231.25 0,-231.25"/>
</a>
</g>
</g>
<!-- Node2&#45;&gt;Node1 -->
<g id="edge1_Node000001_Node000002" class="edge">
<title>Node2&#45;&gt;Node1</title>
<g id="a_edge1_Node000001_Node000002"><a xlink:title=" ">
<path fill="none" stroke="#63b8ff" d="M52.5,-231.5C52.5,-221.41 52.5,-209.42 52.5,-196.77"/>
<polygon fill="none" stroke="#63b8ff" points="52.5,-196.85 48.5,-190.85 52.5,-184.85 56.5,-190.85 52.5,-196.85"/>
</a>
</g>
<text text-anchor="middle" x="80.25" y="-203.75" font-family="Helvetica,sans-Serif" font-size="10.00" fill="grey"> &#45;msg_queue</text>
</g>
<!-- Node3 -->
<g id="Node000003" class="node">
<title>Node3</title>
<g id="a_Node000003"><a xlink:title=" ">
<polygon fill="white" stroke="none" points="90.5,-387.5 14.5,-387.5 14.5,-338.5 90.5,-338.5 90.5,-387.5"/>
<text text-anchor="start" x="19.12" y="-374" font-family="Helvetica,sans-Serif" font-size="10.00">std::deque&lt; T &gt;</text>
<text text-anchor="start" x="51" y="-359" font-family="Helvetica,sans-Serif" font-size="10.00"> </text>
<text text-anchor="start" x="51" y="-344" font-family="Helvetica,sans-Serif" font-size="10.00"> </text>
<polygon fill="#666666" stroke="#666666" points="14.5,-370.5 14.5,-370.5 90.5,-370.5 90.5,-370.5 14.5,-370.5"/>
<polygon fill="#666666" stroke="#666666" points="14.5,-355.5 14.5,-355.5 90.5,-355.5 90.5,-355.5 14.5,-355.5"/>
<polygon fill="none" stroke="#666666" points="14.5,-338.5 14.5,-387.5 90.5,-387.5 90.5,-338.5 14.5,-338.5"/>
</a>
</g>
</g>
<!-- Node3&#45;&gt;Node2 -->
<g id="edge2_Node000002_Node000003" class="edge">
<title>Node3&#45;&gt;Node2</title>
<g id="a_edge2_Node000002_Node000003"><a xlink:title=" ">
<path fill="none" stroke="orange" d="M52.5,-327.35C52.5,-315.55 52.5,-302.5 52.5,-291.2"/>
<polygon fill="orange" stroke="orange" points="49,-327.1 52.5,-337.1 56,-327.1 49,-327.1"/>
</a>
</g>
<text text-anchor="middle" x="112.88" y="-311" font-family="Helvetica,sans-Serif" font-size="10.00" fill="grey"> &lt; fabomatic::BufferedMsg &gt;</text>
</g>
</g>
</svg>
</svg>

<style type='text/css'>
<![CDATA[
[data-mouse-over-selected='false'] { opacity: 0.7; }
[data-mouse-over-selected='true']  { opacity: 1.0; }
]]>
</style>
<script type="application/ecmascript"><![CDATA[
document.addEventListener('DOMContentLoaded', (event) => {
  highlightEdges();
  highlightAdjacentNodes();
});
]]></script>
</svg>
