<?xml version="1.0" encoding="UTF-8" standalone="no"?>
<!DOCTYPE svg PUBLIC "-//W3C//DTD SVG 1.1//EN"
 "http://www.w3.org/Graphics/SVG/1.1/DTD/svg11.dtd">
<!-- Generated by graphviz version 9.0.0 (20230911.1827)
 -->
<!-- Title: fabomatic::BoardLogic::configure Pages: 1 -->
<!--zoomable 259 -->

<svg id="main" version="1.1" xmlns="http://www.w3.org/2000/svg" xmlns:xlink="http://www.w3.org/1999/xlink" xml:space="preserve" onload="init(evt)">
<style type="text/css"><![CDATA[
.node, .edge {opacity: 0.7;}
.node.selected, .edge.selected {opacity: 1;}
.edge:hover path { stroke: red; }
.edge:hover polygon { stroke: red; fill: red; }
]]></style>

<defs>
  <circle id="rim" cx="0" cy="0" r="7"/>
  <circle id="rim2" cx="0" cy="0" r="3.5"/>
  <g id="zoomPlus">
    <use xlink:href="#rim" fill="#404040"><set attributeName="fill" to="#808080" begin="zoomplus.mouseover" end="zoomplus.mouseout"/></use>
    <path d="M-4,0h8M0,-4v8" fill="none" stroke="white" stroke-width="1.5" pointer-events="none"/>
  </g>
  <g id="zoomMin">
    <use xlink:href="#rim" fill="#404040"><set attributeName="fill" to="#808080" begin="zoomminus.mouseover" end="zoomminus.mouseout"/></use>
    <path d="M-4,0h8" fill="none" stroke="white" stroke-width="1.5" pointer-events="none"/>
  </g>
  <g id="arrowUp" transform="translate(30 24)">
    <use xlink:href="#rim"/>
    <path pointer-events="none" fill="none" stroke="white" stroke-width="1.5" d="M0,-3.0v7 M-2.5,-0.5L0,-3.0L2.5,-0.5"/>
  </g>
  <g id="arrowRight" transform="rotate(90) translate(36 -43)">
    <use xlink:href="#rim"/>
    <path pointer-events="none" fill="none" stroke="white" stroke-width="1.5" d="M0,-3.0v7 M-2.5,-0.5L0,-3.0L2.5,-0.5"/>
  </g>
  <g id="arrowDown" transform="rotate(180) translate(-30 -48)">
    <use xlink:href="#rim"/>
    <path pointer-events="none" fill="none" stroke="white" stroke-width="1.5" d="M0,-3.0v7 M-2.5,-0.5L0,-3.0L2.5,-0.5"/>
  </g>
  <g id="arrowLeft" transform="rotate(270) translate(-36 17)">
    <use xlink:href="#rim"/>
    <path pointer-events="none" fill="none" stroke="white" stroke-width="1.5" d="M0,-3.0v7 M-2.5,-0.5L0,-3.0L2.5,-0.5"/>
  </g>
  <g id="resetDef">
    <use xlink:href="#rim2" fill="#404040"><set attributeName="fill" to="#808080" begin="reset.mouseover" end="reset.mouseout"/></use>
  </g>
</defs>
<script type="application/ecmascript">
var viewWidth = 579;
var viewHeight = 259;
var sectionId = 'dynsection-15';
</script>
<script type="application/ecmascript" xlink:href="svg.min.js"/>
<svg id="graph" class="graph">
<g id="viewport">
<title>fabomatic::BoardLogic::configure</title>
<!-- Node1 -->
<g id="Node000001" class="node">
<title>Node1</title>
<g id="a_Node000001"><a xlink:title="Configures the board with the given references.">
<polygon fill="#999999" stroke="#666666" points="112.75,-128.46 0,-128.46 0,-97.96 112.75,-97.96 112.75,-128.46"/>
<text text-anchor="start" x="8" y="-114.96" font-family="Helvetica,sans-Serif" font-size="10.00">fabomatic::BoardLogic</text>
<text text-anchor="middle" x="56.38" y="-103.71" font-family="Helvetica,sans-Serif" font-size="10.00">::configure</text>
</a>
</g>
</g>
<!-- Node2 -->
<g id="Node000002" class="node">
<title>Node2</title>
<g id="a_Node000002"><a xlink:href="classfabomatic_1_1_board_logic.xhtml#ad4d15925f4f48caa25335db63aeab734" target="_top" xlink:title="Configures the board with the given references.">
<polygon fill="white" stroke="#666666" points="261.5,-128.46 148.75,-128.46 148.75,-97.96 261.5,-97.96 261.5,-128.46"/>
<text text-anchor="start" x="156.75" y="-114.96" font-family="Helvetica,sans-Serif" font-size="10.00">fabomatic::BoardLogic</text>
<text text-anchor="middle" x="205.12" y="-103.71" font-family="Helvetica,sans-Serif" font-size="10.00">::reconfigure</text>
</a>
</g>
</g>
<!-- Node1&#45;&gt;Node2 -->
<g id="edge1_Node000001_Node000002" class="edge">
<title>Node1&#45;&gt;Node2</title>
<g id="a_edge1_Node000001_Node000002"><a xlink:title=" ">
<path fill="none" stroke="#63b8ff" d="M112.85,-113.21C120.8,-113.21 129.04,-113.21 137.18,-113.21"/>
<polygon fill="#63b8ff" stroke="#63b8ff" points="137.05,-116.71 147.05,-113.21 137.05,-109.71 137.05,-116.71"/>
</a>
</g>
</g>
<!-- Node3 -->
<g id="Node000003" class="node">
<title>Node3</title>
<g id="a_Node000003"><a xlink:href="classfabomatic_1_1_buzzer.xhtml#ab94d2e6a23316fe30e909ab0e4481347" target="_top" xlink:title=" ">
<polygon fill="white" stroke="#666666" points="405.75,-251.46 308.75,-251.46 308.75,-220.96 405.75,-220.96 405.75,-251.46"/>
<text text-anchor="start" x="316.75" y="-237.96" font-family="Helvetica,sans-Serif" font-size="10.00">fabomatic::Buzzer::</text>
<text text-anchor="middle" x="357.25" y="-226.71" font-family="Helvetica,sans-Serif" font-size="10.00">configure</text>
</a>
</g>
</g>
<!-- Node2&#45;&gt;Node3 -->
<g id="edge2_Node000002_Node000003" class="edge">
<title>Node2&#45;&gt;Node3</title>
<g id="a_edge2_Node000002_Node000003"><a xlink:title=" ">
<path fill="none" stroke="#63b8ff" d="M217.23,-128.69C233.01,-149.77 263.78,-187.57 297.5,-211.21 299.49,-212.6 301.57,-213.94 303.71,-215.23"/>
<polygon fill="#63b8ff" stroke="#63b8ff" points="301.61,-218.07 312.07,-219.77 304.95,-211.92 301.61,-218.07"/>
</a>
</g>
</g>
<!-- Node4 -->
<g id="Node000004" class="node">
<title>Node4</title>
<g id="a_Node000004"><a xlink:href="classfabomatic_1_1_machine.xhtml#a75d5f7be60826db90c639b138a7153e3" target="_top" xlink:title="Configure the machine, it must be called before most methods.">
<polygon fill="white" stroke="#666666" points="407.25,-202.46 307.25,-202.46 307.25,-171.96 407.25,-171.96 407.25,-202.46"/>
<text text-anchor="start" x="315.25" y="-188.96" font-family="Helvetica,sans-Serif" font-size="10.00">fabomatic::Machine</text>
<text text-anchor="middle" x="357.25" y="-177.71" font-family="Helvetica,sans-Serif" font-size="10.00">::configure</text>
</a>
</g>
</g>
<!-- Node2&#45;&gt;Node4 -->
<g id="edge3_Node000002_Node000004" class="edge">
<title>Node2&#45;&gt;Node4</title>
<g id="a_edge3_Node000002_Node000004"><a xlink:title=" ">
<path fill="none" stroke="#63b8ff" d="M233.78,-128.88C251.74,-138.84 275.75,-151.77 297.5,-162.21 300.8,-163.79 304.22,-165.38 307.68,-166.95"/>
<polygon fill="#63b8ff" stroke="#63b8ff" points="306.16,-170.1 316.72,-170.95 308.99,-163.7 306.16,-170.1"/>
</a>
</g>
</g>
<!-- Node5 -->
<g id="Node000005" class="node">
<title>Node5</title>
<g id="a_Node000005"><a xlink:href="classfabomatic_1_1_fab_backend.xhtml#acf5644d920896038018f990568e710c3" target="_top" xlink:title="Configures the FabBackend with the given configuration.">
<polygon fill="white" stroke="#666666" points="416.25,-153.46 298.25,-153.46 298.25,-122.96 416.25,-122.96 416.25,-153.46"/>
<text text-anchor="start" x="306.25" y="-139.96" font-family="Helvetica,sans-Serif" font-size="10.00">fabomatic::FabBackend</text>
<text text-anchor="middle" x="357.25" y="-128.71" font-family="Helvetica,sans-Serif" font-size="10.00">::configure</text>
</a>
</g>
</g>
<!-- Node2&#45;&gt;Node5 -->
<g id="edge4_Node000002_Node000005" class="edge">
<title>Node2&#45;&gt;Node5</title>
<g id="a_edge4_Node000002_Node000005"><a xlink:title=" ">
<path fill="none" stroke="#63b8ff" d="M261.6,-122.45C269.75,-123.8 278.24,-125.22 286.63,-126.61"/>
<polygon fill="#63b8ff" stroke="#63b8ff" points="286.05,-130.07 296.49,-128.26 287.2,-123.16 286.05,-130.07"/>
</a>
</g>
</g>
<!-- Node7 -->
<g id="Node000007" class="node">
<title>Node7</title>
<g id="a_Node000007"><a xlink:href="classfabomatic_1_1_saved_config.xhtml#a3a6f62510c34ed7a4491022e4e43b9c2" target="_top" xlink:title="Returns the default configuration built from conf.hpp and secrets.hpp.">
<polygon fill="white" stroke="#666666" points="416.25,-104.46 298.25,-104.46 298.25,-73.96 416.25,-73.96 416.25,-104.46"/>
<text text-anchor="start" x="306.25" y="-90.96" font-family="Helvetica,sans-Serif" font-size="10.00">fabomatic::SavedConfig</text>
<text text-anchor="middle" x="357.25" y="-79.71" font-family="Helvetica,sans-Serif" font-size="10.00">::DefaultConfig</text>
</a>
</g>
</g>
<!-- Node2&#45;&gt;Node7 -->
<g id="edge6_Node000002_Node000007" class="edge">
<title>Node2&#45;&gt;Node7</title>
<g id="a_edge6_Node000002_Node000007"><a xlink:title=" ">
<path fill="none" stroke="#63b8ff" d="M261.6,-104.34C269.75,-103.03 278.24,-101.68 286.63,-100.34"/>
<polygon fill="#63b8ff" stroke="#63b8ff" points="287.17,-103.8 296.49,-98.76 286.06,-96.88 287.17,-103.8"/>
</a>
</g>
</g>
<!-- Node9 -->
<g id="Node000009" class="node">
<title>Node9</title>
<g id="a_Node000009"><a xlink:href="classfabomatic_1_1_auth_provider.xhtml#ac703cf6e2b6a2a10c946937e83df418d" target="_top" xlink:title="Loads the cache from EEPROM.">
<polygon fill="white" stroke="#666666" points="417,-55.46 297.5,-55.46 297.5,-24.96 417,-24.96 417,-55.46"/>
<text text-anchor="start" x="305.5" y="-41.96" font-family="Helvetica,sans-Serif" font-size="10.00">fabomatic::AuthProvider</text>
<text text-anchor="middle" x="357.25" y="-30.71" font-family="Helvetica,sans-Serif" font-size="10.00">::loadCache</text>
</a>
</g>
</g>
<!-- Node2&#45;&gt;Node9 -->
<g id="edge8_Node000002_Node000009" class="edge">
<title>Node2&#45;&gt;Node9</title>
<g id="a_edge8_Node000002_Node000009"><a xlink:title=" ">
<path fill="none" stroke="#63b8ff" d="M234.63,-97.47C252.5,-87.79 276.13,-75.35 297.5,-65.21 300.8,-63.64 304.23,-62.06 307.7,-60.5"/>
<polygon fill="#63b8ff" stroke="#63b8ff" points="309,-63.75 316.74,-56.51 306.18,-57.34 309,-63.75"/>
</a>
</g>
</g>
<!-- Node10 -->
<g id="Node000010" class="node">
<title>Node10</title>
<g id="a_Node000010"><a xlink:href="classfabomatic_1_1_saved_config.xhtml#aca3fe97dfa74c005d47ffef700392d99" target="_top" xlink:title="Loads the configuration from EEPROM if available and matching revision number.">
<polygon fill="white" stroke="#666666" points="571,-34.46 453,-34.46 453,-3.96 571,-3.96 571,-34.46"/>
<text text-anchor="start" x="461" y="-20.96" font-family="Helvetica,sans-Serif" font-size="10.00">fabomatic::SavedConfig</text>
<text text-anchor="middle" x="512" y="-9.71" font-family="Helvetica,sans-Serif" font-size="10.00">::LoadFromEEPROM</text>
</a>
</g>
</g>
<!-- Node2&#45;&gt;Node10 -->
<g id="edge10_Node000002_Node000010" class="edge">
<title>Node2&#45;&gt;Node10</title>
<g id="a_edge10_Node000002_Node000010"><a xlink:title=" ">
<path fill="none" stroke="#63b8ff" d="M214.93,-97.76C228.97,-74.88 258.84,-32.9 297.5,-16.21 342.64,3.29 398.32,1.77 441.5,-4.21"/>
<polygon fill="#63b8ff" stroke="#63b8ff" points="440.86,-7.65 451.27,-5.68 441.9,-0.73 440.86,-7.65"/>
</a>
</g>
</g>
<!-- Node6 -->
<g id="Node000006" class="node">
<title>Node6</title>
<g id="a_Node000006"><a xlink:href="classfabomatic_1_1_fab_backend.xhtml#a39353e6b4057e97b216a520fc7bef017" target="_top" xlink:title=" ">
<polygon fill="white" stroke="#666666" points="571,-153.46 453,-153.46 453,-122.96 571,-122.96 571,-153.46"/>
<text text-anchor="start" x="461" y="-139.96" font-family="Helvetica,sans-Serif" font-size="10.00">fabomatic::FabBackend</text>
<text text-anchor="middle" x="512" y="-128.71" font-family="Helvetica,sans-Serif" font-size="10.00">::loadBuffer</text>
</a>
</g>
</g>
<!-- Node5&#45;&gt;Node6 -->
<g id="edge5_Node000005_Node000006" class="edge">
<title>Node5&#45;&gt;Node6</title>
<g id="a_edge5_Node000005_Node000006"><a xlink:title=" ">
<path fill="none" stroke="#63b8ff" d="M416.43,-138.21C424.61,-138.21 433.07,-138.21 441.43,-138.21"/>
<polygon fill="#63b8ff" stroke="#63b8ff" points="441.21,-141.71 451.21,-138.21 441.21,-134.71 441.21,-141.71"/>
</a>
</g>
</g>
<!-- Node8 -->
<g id="Node000008" class="node">
<title>Node8</title>
<g id="a_Node000008"><a xlink:href="classfabomatic_1_1_saved_config.xhtml#a4ada414d31749dcd736a3fec3f759605" target="_top" xlink:title="Sets the machine ID (converting to string)">
<polygon fill="white" stroke="#666666" points="571,-104.46 453,-104.46 453,-73.96 571,-73.96 571,-104.46"/>
<text text-anchor="start" x="461" y="-90.96" font-family="Helvetica,sans-Serif" font-size="10.00">fabomatic::SavedConfig</text>
<text text-anchor="middle" x="512" y="-79.71" font-family="Helvetica,sans-Serif" font-size="10.00">::setMachineID</text>
</a>
</g>
</g>
<!-- Node7&#45;&gt;Node8 -->
<g id="edge7_Node000007_Node000008" class="edge">
<title>Node7&#45;&gt;Node8</title>
<g id="a_edge7_Node000007_Node000008"><a xlink:title=" ">
<path fill="none" stroke="#63b8ff" d="M416.43,-89.21C424.61,-89.21 433.07,-89.21 441.43,-89.21"/>
<polygon fill="#63b8ff" stroke="#63b8ff" points="441.21,-92.71 451.21,-89.21 441.21,-85.71 441.21,-92.71"/>
</a>
</g>
</g>
<!-- Node9&#45;&gt;Node10 -->
<g id="edge9_Node000009_Node000010" class="edge">
<title>Node9&#45;&gt;Node10</title>
<g id="a_edge9_Node000009_Node000010"><a xlink:title=" ">
<path fill="none" stroke="#63b8ff" d="M417.31,-32.09C425.18,-31.01 433.32,-29.89 441.35,-28.78"/>
<polygon fill="#63b8ff" stroke="#63b8ff" points="441.67,-32.27 451.1,-27.44 440.72,-25.34 441.67,-32.27"/>
</a>
</g>
</g>
</g>
</svg>

<g id="navigator" transform="translate(0 0)" fill="#404254">
  <rect fill="#f2f5e9" fill-opacity="0.5" stroke="#606060" stroke-width=".5" x="0" y="0" width="60" height="60"/>
  <use id="zoomplus" xlink:href="#zoomPlus" x="17" y="9" onmousedown="handleZoom(evt,'in')"/>
  <use id="zoomminus" xlink:href="#zoomMin" x="42" y="9" onmousedown="handleZoom(evt,'out')"/>
  <use id="reset" xlink:href="#resetDef" x="30" y="36" onmousedown="handleReset()"/>
   <use id="arrowup" xlink:href="#arrowUp" x="0" y="0" onmousedown="handlePan(0,-1)"/>
  <use id="arrowright" xlink:href="#arrowRight" x="0" y="0" onmousedown="handlePan(1,0)"/>
  <use id="arrowdown" xlink:href="#arrowDown" x="0" y="0" onmousedown="handlePan(0,1)"/>
  <use id="arrowleft" xlink:href="#arrowLeft" x="0" y="0" onmousedown="handlePan(-1,0)"/>
</g>
<svg viewBox="0 0 15 15" width="100%" height="30px" preserveAspectRatio="xMaxYMin meet">
 <g id="arrow_out" transform="scale(0.3 0.3)">
  <a xlink:href="classfabomatic_1_1_board_logic_ab027de5833962ba124d3ee54ce698ea7_cgraph_org.svg" target="_base">
   <rect id="button" ry="5" rx="5" y="6" x="6" height="38" width="38"
        fill="#f2f5e9" fill-opacity="0.5" stroke="#606060" stroke-width="1.0"/>
   <path id="arrow"
     d="M 11.500037,31.436501 C 11.940474,20.09759 22.043105,11.32322 32.158766,21.979434 L 37.068811,17.246167 C 37.068811,17.246167 37.088388,32 37.088388,32 L 22.160133,31.978069 C 22.160133,31.978069 26.997745,27.140456 26.997745,27.140456 C 18.528582,18.264221 13.291696,25.230495 11.500037,31.436501 z"
     style="fill:#404040;"/>
  </a>
 </g>
</svg>

<style type='text/css'>
<![CDATA[
[data-mouse-over-selected='false'] { opacity: 0.7; }
[data-mouse-over-selected='true']  { opacity: 1.0; }
]]>
</style>
<script type="application/ecmascript"><![CDATA[
document.addEventListener('DOMContentLoaded', (event) => {
  highlightEdges();
  highlightAdjacentNodes();
});
]]></script>
</svg>
