<?xml version="1.0" encoding="UTF-8" standalone="no"?>
<!DOCTYPE svg PUBLIC "-//W3C//DTD SVG 1.1//EN"
 "http://www.w3.org/Graphics/SVG/1.1/DTD/svg11.dtd">
<!-- Generated by graphviz version 9.0.0 (20230911.1827)
 -->
<!-- Title: fabomatic::Buffer::toJson Pages: 1 -->
<svg width="783pt" height="195pt"
 viewBox="0.00 0.00 782.75 194.88" xmlns="http://www.w3.org/2000/svg" xmlns:xlink="http://www.w3.org/1999/xlink">
<g id="graph0" class="graph" transform="scale(1 1) rotate(0) translate(4 190.88)">
<title>fabomatic::Buffer::toJson</title>
<!-- Node1 -->
<g id="Node000001" class="node">
<title>Node1</title>
<g id="a_Node000001"><a xlink:title=" ">
<polygon fill="#999999" stroke="#666666" points="774.75,-161.88 681.5,-161.88 681.5,-131.38 774.75,-131.38 774.75,-161.88"/>
<text text-anchor="start" x="689.5" y="-148.38" font-family="Helvetica,sans-Serif" font-size="10.00">fabomatic::Buffer::</text>
<text text-anchor="middle" x="728.12" y="-137.12" font-family="Helvetica,sans-Serif" font-size="10.00">toJson</text>
</a>
</g>
</g>
<!-- Node2 -->
<g id="Node000002" class="node">
<title>Node2</title>
<g id="a_Node000002"><a xlink:href="namespacefabomatic_1_1tests.xhtml#a70d156a8423b7e9d4db345cff5eb528f" target="_top" xlink:title=" ">
<polygon fill="white" stroke="#666666" points="639.5,-186.88 533.5,-186.88 533.5,-156.38 639.5,-156.38 639.5,-186.88"/>
<text text-anchor="start" x="541.5" y="-173.38" font-family="Helvetica,sans-Serif" font-size="10.00">fabomatic::tests::test</text>
<text text-anchor="middle" x="586.5" y="-162.12" font-family="Helvetica,sans-Serif" font-size="10.00">_deserialization</text>
</a>
</g>
</g>
<!-- Node1&#45;&gt;Node2 -->
<g id="edge1_Node000001_Node000002" class="edge">
<title>Node1&#45;&gt;Node2</title>
<g id="a_edge1_Node000001_Node000002"><a xlink:title=" ">
<path fill="none" stroke="#63b8ff" d="M669.96,-156.86C659.99,-158.65 649.67,-160.49 639.84,-162.25"/>
<polygon fill="#63b8ff" stroke="#63b8ff" points="670.3,-160.35 679.53,-155.15 669.07,-153.46 670.3,-160.35"/>
</a>
</g>
</g>
<!-- Node5 -->
<g id="Node000005" class="node">
<title>Node5</title>
<g id="a_Node000005"><a xlink:href="classfabomatic_1_1_saved_config.xhtml#ae0af7670707ed5a51c69197eb6fadbe5" target="_top" xlink:title="Serialize the current configuration into a JsonDocument.">
<polygon fill="white" stroke="#666666" points="645.5,-137.88 527.5,-137.88 527.5,-107.38 645.5,-107.38 645.5,-137.88"/>
<text text-anchor="start" x="535.5" y="-124.38" font-family="Helvetica,sans-Serif" font-size="10.00">fabomatic::SavedConfig</text>
<text text-anchor="middle" x="586.5" y="-113.12" font-family="Helvetica,sans-Serif" font-size="10.00">::toJsonDocument</text>
</a>
</g>
</g>
<!-- Node1&#45;&gt;Node5 -->
<g id="edge4_Node000001_Node000005" class="edge">
<title>Node1&#45;&gt;Node5</title>
<g id="a_edge4_Node000001_Node000005"><a xlink:title=" ">
<path fill="none" stroke="#63b8ff" d="M669.94,-136.8C661.96,-135.42 653.75,-134.01 645.76,-132.64"/>
<polygon fill="#63b8ff" stroke="#63b8ff" points="669.08,-140.2 679.53,-138.44 670.27,-133.3 669.08,-140.2"/>
</a>
</g>
</g>
<!-- Node3 -->
<g id="Node000003" class="node">
<title>Node3</title>
<g id="a_Node000003"><a xlink:href="namespacefabomatic_1_1tests.xhtml#a4fbc6366f69847719d0f0cb626572493" target="_top" xlink:title=" ">
<polygon fill="white" stroke="#666666" points="330.75,-186.88 224.75,-186.88 224.75,-156.38 330.75,-156.38 330.75,-186.88"/>
<text text-anchor="start" x="232.75" y="-173.38" font-family="Helvetica,sans-Serif" font-size="10.00">fabomatic::tests::test</text>
<text text-anchor="middle" x="277.75" y="-162.12" font-family="Helvetica,sans-Serif" font-size="10.00">_buffered_msg</text>
</a>
</g>
</g>
<!-- Node2&#45;&gt;Node3 -->
<g id="edge2_Node000002_Node000003" class="edge">
<title>Node2&#45;&gt;Node3</title>
<g id="a_edge2_Node000002_Node000003"><a xlink:title=" ">
<path fill="none" stroke="#63b8ff" d="M521.82,-171.62C465.38,-171.62 383.94,-171.62 331.17,-171.62"/>
<polygon fill="#63b8ff" stroke="#63b8ff" points="521.6,-175.13 531.6,-171.63 521.6,-168.13 521.6,-175.13"/>
</a>
</g>
</g>
<!-- Node4 -->
<g id="Node000004" class="node">
<title>Node4</title>
<g id="a_Node000004"><a xlink:href="test__savedconfig_8cpp.xhtml#a4fc01d736fe50cf5b977f755b675f11d" target="_top" xlink:title=" ">
<polygon fill="white" stroke="#666666" points="40,-138.25 0,-138.25 0,-119 40,-119 40,-138.25"/>
<text text-anchor="middle" x="20" y="-124.75" font-family="Helvetica,sans-Serif" font-size="10.00">setup</text>
</a>
</g>
</g>
<!-- Node3&#45;&gt;Node4 -->
<g id="edge3_Node000003_Node000004" class="edge">
<title>Node3&#45;&gt;Node4</title>
<g id="a_edge3_Node000003_Node000004"><a xlink:title=" ">
<path fill="none" stroke="#63b8ff" d="M212.96,-170.73C173.05,-168.91 120.89,-164.23 76,-152.62 63.59,-149.42 50.41,-143.75 40.06,-138.73"/>
<polygon fill="#63b8ff" stroke="#63b8ff" points="212.75,-174.22 222.88,-171.12 213.03,-167.23 212.75,-174.22"/>
</a>
</g>
</g>
<!-- Node6 -->
<g id="Node000006" class="node">
<title>Node6</title>
<g id="a_Node000006"><a xlink:href="classfabomatic_1_1_saved_config.xhtml#a312c74363068192ae80df24140f82874" target="_top" xlink:title="Saves the configuration to EEPROM.">
<polygon fill="white" stroke="#666666" points="491.5,-91.88 373.5,-91.88 373.5,-61.38 491.5,-61.38 491.5,-91.88"/>
<text text-anchor="start" x="381.5" y="-78.38" font-family="Helvetica,sans-Serif" font-size="10.00">fabomatic::SavedConfig</text>
<text text-anchor="middle" x="432.5" y="-67.12" font-family="Helvetica,sans-Serif" font-size="10.00">::SaveToEEPROM</text>
</a>
</g>
</g>
<!-- Node5&#45;&gt;Node6 -->
<g id="edge5_Node000005_Node000006" class="edge">
<title>Node5&#45;&gt;Node6</title>
<g id="a_edge5_Node000005_Node000006"><a xlink:title=" ">
<path fill="none" stroke="#63b8ff" d="M522.84,-103.66C510.39,-99.89 497.45,-95.98 485.41,-92.33"/>
<polygon fill="#63b8ff" stroke="#63b8ff" points="521.58,-106.94 532.17,-106.48 523.61,-100.24 521.58,-106.94"/>
</a>
</g>
</g>
<!-- Node12 -->
<g id="Node000012" class="node">
<title>Node12</title>
<g id="a_Node000012"><a xlink:href="classfabomatic_1_1_saved_config.xhtml#ad1d484179f439b28d608a9c6737bdc26" target="_top" xlink:title="Returns a json&#45;prettified fragment for logging.">
<polygon fill="white" stroke="#666666" points="491.5,-140.88 373.5,-140.88 373.5,-110.38 491.5,-110.38 491.5,-140.88"/>
<text text-anchor="start" x="381.5" y="-127.38" font-family="Helvetica,sans-Serif" font-size="10.00">fabomatic::SavedConfig</text>
<text text-anchor="middle" x="432.5" y="-116.12" font-family="Helvetica,sans-Serif" font-size="10.00">::toString</text>
</a>
</g>
</g>
<!-- Node5&#45;&gt;Node12 -->
<g id="edge14_Node000005_Node000012" class="edge">
<title>Node5&#45;&gt;Node12</title>
<g id="a_edge14_Node000005_Node000012"><a xlink:title=" ">
<path fill="none" stroke="#63b8ff" d="M515.93,-124C507.9,-124.16 499.78,-124.32 491.93,-124.47"/>
<polygon fill="#63b8ff" stroke="#63b8ff" points="515.73,-127.5 525.65,-123.81 515.59,-120.5 515.73,-127.5"/>
</a>
</g>
</g>
<!-- Node7 -->
<g id="Node000007" class="node">
<title>Node7</title>
<g id="a_Node000007"><a xlink:href="classfabomatic_1_1_auth_provider.xhtml#acb92a9381bc8e14bd57b819fc9162750" target="_top" xlink:title="Saves the cache of RFID to EEPROM.">
<polygon fill="white" stroke="#666666" points="337.5,-91.88 218,-91.88 218,-61.38 337.5,-61.38 337.5,-91.88"/>
<text text-anchor="start" x="226" y="-78.38" font-family="Helvetica,sans-Serif" font-size="10.00">fabomatic::AuthProvider</text>
<text text-anchor="middle" x="277.75" y="-67.12" font-family="Helvetica,sans-Serif" font-size="10.00">::saveCache</text>
</a>
</g>
</g>
<!-- Node6&#45;&gt;Node7 -->
<g id="edge6_Node000006_Node000007" class="edge">
<title>Node6&#45;&gt;Node7</title>
<g id="a_edge6_Node000006_Node000007"><a xlink:title=" ">
<path fill="none" stroke="#63b8ff" d="M361.99,-76.62C353.9,-76.62 345.71,-76.62 337.78,-76.62"/>
<polygon fill="#63b8ff" stroke="#63b8ff" points="361.8,-80.13 371.8,-76.63 361.8,-73.13 361.8,-80.13"/>
</a>
</g>
</g>
<!-- Node9 -->
<g id="Node000009" class="node">
<title>Node9</title>
<g id="a_Node000009"><a xlink:href="test__mqtt_8cpp.xhtml#a4fc01d736fe50cf5b977f755b675f11d" target="_top" xlink:title=" ">
<polygon fill="white" stroke="#666666" points="40,-19.25 0,-19.25 0,0 40,0 40,-19.25"/>
<text text-anchor="middle" x="20" y="-5.75" font-family="Helvetica,sans-Serif" font-size="10.00">setup</text>
</a>
</g>
</g>
<!-- Node6&#45;&gt;Node9 -->
<g id="edge11_Node000006_Node000009" class="edge">
<title>Node6&#45;&gt;Node9</title>
<g id="a_edge11_Node000006_Node000009"><a xlink:title=" ">
<path fill="none" stroke="#63b8ff" d="M378.59,-57.21C328.69,-40.01 251.4,-16.18 182,-6.62 131.32,0.35 70.82,-4.18 40.44,-7.33"/>
<polygon fill="#63b8ff" stroke="#63b8ff" points="377.4,-60.51 388,-60.5 379.71,-53.9 377.4,-60.51"/>
</a>
</g>
</g>
<!-- Node11 -->
<g id="Node000011" class="node">
<title>Node11</title>
<g id="a_Node000011"><a xlink:href="namespacefabomatic_1_1tests.xhtml#a0bbb6cee5561bf8ac1c4a9117d9d01b8" target="_top" xlink:title=" ">
<polygon fill="white" stroke="#666666" points="182,-143.88 76,-143.88 76,-113.38 182,-113.38 182,-143.88"/>
<text text-anchor="start" x="84" y="-130.38" font-family="Helvetica,sans-Serif" font-size="10.00">fabomatic::tests::test</text>
<text text-anchor="middle" x="129" y="-119.12" font-family="Helvetica,sans-Serif" font-size="10.00">_changes</text>
</a>
</g>
</g>
<!-- Node6&#45;&gt;Node11 -->
<g id="edge12_Node000006_Node000011" class="edge">
<title>Node6&#45;&gt;Node11</title>
<g id="a_edge12_Node000006_Node000011"><a xlink:title=" ">
<path fill="none" stroke="#63b8ff" d="M363.59,-94.95C354.85,-97.02 345.99,-98.97 337.5,-100.62 285.05,-110.82 224.41,-118.54 182.29,-123.27"/>
<polygon fill="#63b8ff" stroke="#63b8ff" points="364.21,-98.4 373.1,-92.64 362.56,-91.6 364.21,-98.4"/>
</a>
</g>
</g>
<!-- Node8 -->
<g id="Node000008" class="node">
<title>Node8</title>
<g id="a_Node000008"><a xlink:href="namespacefabomatic_1_1tests.xhtml#a438b9060c27d36e89506199205b342cb" target="_top" xlink:title=" ">
<polygon fill="white" stroke="#666666" points="182,-45.88 76,-45.88 76,-15.37 182,-15.37 182,-45.88"/>
<text text-anchor="start" x="84" y="-32.38" font-family="Helvetica,sans-Serif" font-size="10.00">fabomatic::tests::test</text>
<text text-anchor="middle" x="129" y="-21.12" font-family="Helvetica,sans-Serif" font-size="10.00">_fabserver_calls</text>
</a>
</g>
</g>
<!-- Node7&#45;&gt;Node8 -->
<g id="edge7_Node000007_Node000008" class="edge">
<title>Node7&#45;&gt;Node8</title>
<g id="a_edge7_Node000007_Node000008"><a xlink:title=" ">
<path fill="none" stroke="#63b8ff" d="M215.83,-57.53C203.85,-53.78 191.43,-49.88 179.87,-46.26"/>
<polygon fill="#63b8ff" stroke="#63b8ff" points="214.62,-60.82 225.21,-60.47 216.72,-54.14 214.62,-60.82"/>
</a>
</g>
</g>
<!-- Node10 -->
<g id="Node000010" class="node">
<title>Node10</title>
<g id="a_Node000010"><a xlink:href="namespacefabomatic_1_1tests.xhtml#aeb3e51f6d2841cd2869df4c0629f694d" target="_top" xlink:title=" ">
<polygon fill="white" stroke="#666666" points="182,-94.88 76,-94.88 76,-64.38 182,-64.38 182,-94.88"/>
<text text-anchor="start" x="84" y="-81.38" font-family="Helvetica,sans-Serif" font-size="10.00">fabomatic::tests::test</text>
<text text-anchor="middle" x="129" y="-70.12" font-family="Helvetica,sans-Serif" font-size="10.00">_rfid_cache</text>
</a>
</g>
</g>
<!-- Node7&#45;&gt;Node10 -->
<g id="edge9_Node000007_Node000010" class="edge">
<title>Node7&#45;&gt;Node10</title>
<g id="a_edge9_Node000007_Node000010"><a xlink:title=" ">
<path fill="none" stroke="#63b8ff" d="M206.45,-78.06C198.29,-78.23 190.08,-78.4 182.22,-78.56"/>
<polygon fill="#63b8ff" stroke="#63b8ff" points="206.47,-81.56 216.39,-77.86 206.32,-74.56 206.47,-81.56"/>
</a>
</g>
</g>
<!-- Node8&#45;&gt;Node9 -->
<g id="edge8_Node000008_Node000009" class="edge">
<title>Node8&#45;&gt;Node9</title>
<g id="a_edge8_Node000008_Node000009"><a xlink:title=" ">
<path fill="none" stroke="#63b8ff" d="M64.56,-18.17C55.82,-16.46 47.44,-14.81 40.41,-13.43"/>
<polygon fill="#63b8ff" stroke="#63b8ff" points="63.78,-21.59 74.27,-20.08 65.13,-14.72 63.78,-21.59"/>
</a>
</g>
</g>
<!-- Node10&#45;&gt;Node4 -->
<g id="edge10_Node000010_Node000004" class="edge">
<title>Node10&#45;&gt;Node4</title>
<g id="a_edge10_Node000010_Node000004"><a xlink:title=" ">
<path fill="none" stroke="#63b8ff" d="M83.59,-99.96C68.45,-106.9 52.31,-114.29 40.21,-119.83"/>
<polygon fill="#63b8ff" stroke="#63b8ff" points="84.84,-103.24 92.47,-95.89 81.92,-96.88 84.84,-103.24"/>
</a>
</g>
</g>
<!-- Node11&#45;&gt;Node4 -->
<g id="edge13_Node000011_Node000004" class="edge">
<title>Node11&#45;&gt;Node4</title>
<g id="a_edge13_Node000011_Node000004"><a xlink:title=" ">
<path fill="none" stroke="#63b8ff" d="M64.27,-128.62C55.63,-128.62 47.36,-128.62 40.41,-128.62"/>
<polygon fill="#63b8ff" stroke="#63b8ff" points="64.24,-132.13 74.24,-128.63 64.24,-125.13 64.24,-132.13"/>
</a>
</g>
</g>
</g>
</svg>
