<?xml version="1.0" encoding="UTF-8" standalone="no"?>
<!DOCTYPE svg PUBLIC "-//W3C//DTD SVG 1.1//EN"
 "http://www.w3.org/Graphics/SVG/1.1/DTD/svg11.dtd">
<!-- Generated by graphviz version 9.0.0 (20230911.1827)
 -->
<!-- Title: fabomatic::LCDWrapper Pages: 1 -->
<svg width="470pt" height="871pt"
 viewBox="0.00 0.00 470.00 870.50" xmlns="http://www.w3.org/2000/svg" xmlns:xlink="http://www.w3.org/1999/xlink">
<g id="graph0" class="graph" transform="scale(1 1) rotate(0) translate(4 866.5)">
<title>fabomatic::LCDWrapper</title>
<!-- Node1 -->
<g id="Node000001" class="node">
<title>Node1</title>
<g id="a_Node000001"><a xlink:title="LCD display wrapper.">
<polygon fill="#999999" stroke="none" points="334.5,-379 184.5,-379 184.5,0 334.5,0 334.5,-379"/>
<text text-anchor="start" x="208.12" y="-365.5" font-family="Helvetica,sans-Serif" font-size="10.00">fabomatic::LCDWrapper</text>
<text text-anchor="start" x="190" y="-350.5" font-family="Helvetica,sans-Serif" font-size="10.00">&#45;</text>
<text text-anchor="start" x="198.5" y="-350.5" font-family="Helvetica,sans-Serif" font-size="10.00">lcd</text>
<text text-anchor="start" x="190" y="-335.5" font-family="Helvetica,sans-Serif" font-size="10.00">&#45;</text>
<text text-anchor="start" x="198.5" y="-335.5" font-family="Helvetica,sans-Serif" font-size="10.00">show_connection_status</text>
<text text-anchor="start" x="190" y="-320.5" font-family="Helvetica,sans-Serif" font-size="10.00">&#45;</text>
<text text-anchor="start" x="198.5" y="-320.5" font-family="Helvetica,sans-Serif" font-size="10.00">show_power_status</text>
<text text-anchor="start" x="190" y="-305.5" font-family="Helvetica,sans-Serif" font-size="10.00">&#45;</text>
<text text-anchor="start" x="198.5" y="-305.5" font-family="Helvetica,sans-Serif" font-size="10.00">forceUpdate</text>
<text text-anchor="start" x="190" y="-290.5" font-family="Helvetica,sans-Serif" font-size="10.00">&#45;</text>
<text text-anchor="start" x="198.5" y="-290.5" font-family="Helvetica,sans-Serif" font-size="10.00">HEIGHT_PX</text>
<text text-anchor="start" x="190" y="-275.5" font-family="Helvetica,sans-Serif" font-size="10.00">&#45;</text>
<text text-anchor="start" x="198.5" y="-275.5" font-family="Helvetica,sans-Serif" font-size="10.00">CHAR_ANTENNA</text>
<text text-anchor="start" x="190" y="-260.5" font-family="Helvetica,sans-Serif" font-size="10.00">&#45;</text>
<text text-anchor="start" x="198.5" y="-260.5" font-family="Helvetica,sans-Serif" font-size="10.00">CHAR_CONNECTION</text>
<text text-anchor="start" x="190" y="-245.5" font-family="Helvetica,sans-Serif" font-size="10.00">&#45;</text>
<text text-anchor="start" x="198.5" y="-245.5" font-family="Helvetica,sans-Serif" font-size="10.00">CHAR_NO_CONNECTION</text>
<text text-anchor="start" x="190" y="-230.5" font-family="Helvetica,sans-Serif" font-size="10.00">&#45;</text>
<text text-anchor="start" x="198.5" y="-230.5" font-family="Helvetica,sans-Serif" font-size="10.00">CHAR_POWERED_ON</text>
<text text-anchor="start" x="190" y="-215.5" font-family="Helvetica,sans-Serif" font-size="10.00">&#45;</text>
<text text-anchor="start" x="198.5" y="-215.5" font-family="Helvetica,sans-Serif" font-size="10.00">CHAR_POWERED_OFF</text>
<text text-anchor="start" x="190" y="-200.5" font-family="Helvetica,sans-Serif" font-size="10.00">&#45;</text>
<text text-anchor="start" x="198.5" y="-200.5" font-family="Helvetica,sans-Serif" font-size="10.00">CHAR_POWERING_OFF</text>
<text text-anchor="start" x="188.5" y="-185.5" font-family="Helvetica,sans-Serif" font-size="10.00">+</text>
<text text-anchor="start" x="198.5" y="-185.5" font-family="Helvetica,sans-Serif" font-size="10.00">LCDWrapper()</text>
<text text-anchor="start" x="188.5" y="-170.5" font-family="Helvetica,sans-Serif" font-size="10.00">+</text>
<text text-anchor="start" x="198.5" y="-170.5" font-family="Helvetica,sans-Serif" font-size="10.00">begin()</text>
<text text-anchor="start" x="188.5" y="-155.5" font-family="Helvetica,sans-Serif" font-size="10.00">+</text>
<text text-anchor="start" x="198.5" y="-155.5" font-family="Helvetica,sans-Serif" font-size="10.00">clear()</text>
<text text-anchor="start" x="188.5" y="-140.5" font-family="Helvetica,sans-Serif" font-size="10.00">+</text>
<text text-anchor="start" x="198.5" y="-140.5" font-family="Helvetica,sans-Serif" font-size="10.00">showConnection()</text>
<text text-anchor="start" x="188.5" y="-125.5" font-family="Helvetica,sans-Serif" font-size="10.00">+</text>
<text text-anchor="start" x="198.5" y="-125.5" font-family="Helvetica,sans-Serif" font-size="10.00">showPower()</text>
<text text-anchor="start" x="188.5" y="-110.5" font-family="Helvetica,sans-Serif" font-size="10.00">+</text>
<text text-anchor="start" x="198.5" y="-110.5" font-family="Helvetica,sans-Serif" font-size="10.00">setRow()</text>
<text text-anchor="start" x="188.5" y="-95.5" font-family="Helvetica,sans-Serif" font-size="10.00">+</text>
<text text-anchor="start" x="198.5" y="-95.5" font-family="Helvetica,sans-Serif" font-size="10.00">update()</text>
<text text-anchor="start" x="188.5" y="-80.5" font-family="Helvetica,sans-Serif" font-size="10.00">+</text>
<text text-anchor="start" x="198.5" y="-80.5" font-family="Helvetica,sans-Serif" font-size="10.00">convertSecondsToHHMMSS()</text>
<text text-anchor="start" x="190" y="-65.5" font-family="Helvetica,sans-Serif" font-size="10.00">&#45;</text>
<text text-anchor="start" x="198.5" y="-65.5" font-family="Helvetica,sans-Serif" font-size="10.00">backlightOn()</text>
<text text-anchor="start" x="190" y="-50.5" font-family="Helvetica,sans-Serif" font-size="10.00">&#45;</text>
<text text-anchor="start" x="198.5" y="-50.5" font-family="Helvetica,sans-Serif" font-size="10.00">backlightOff()</text>
<text text-anchor="start" x="190" y="-35.5" font-family="Helvetica,sans-Serif" font-size="10.00">&#45;</text>
<text text-anchor="start" x="198.5" y="-35.5" font-family="Helvetica,sans-Serif" font-size="10.00">prettyPrint()</text>
<text text-anchor="start" x="190" y="-20.5" font-family="Helvetica,sans-Serif" font-size="10.00">&#45;</text>
<text text-anchor="start" x="198.5" y="-20.5" font-family="Helvetica,sans-Serif" font-size="10.00">createChar()</text>
<text text-anchor="start" x="190" y="-5.5" font-family="Helvetica,sans-Serif" font-size="10.00">&#45;</text>
<text text-anchor="start" x="198.5" y="-5.5" font-family="Helvetica,sans-Serif" font-size="10.00">needsUpdate()</text>
<polygon fill="#666666" stroke="#666666" points="184.5,-362 184.5,-362 334.5,-362 334.5,-362 184.5,-362"/>
<polygon fill="#666666" stroke="#666666" points="184.5,-197 184.5,-197 196.5,-197 196.5,-197 184.5,-197"/>
<polygon fill="#666666" stroke="#666666" points="196.5,-197 196.5,-197 334.5,-197 334.5,-197 196.5,-197"/>
<polygon fill="none" stroke="#666666" points="184.5,0 184.5,-379 334.5,-379 334.5,0 184.5,0"/>
</a>
</g>
</g>
<!-- Node2 -->
<g id="Node000002" class="node">
<title>Node2</title>
<g id="a_Node000002"><a xlink:title=" ">
<polygon fill="white" stroke="none" points="89,-595 0,-595 0,-535 89,-535 89,-595"/>
<text text-anchor="start" x="4.75" y="-581.5" font-family="Helvetica,sans-Serif" font-size="10.00">std::array&lt; uint8_t,</text>
<text text-anchor="start" x="11.12" y="-570.25" font-family="Helvetica,sans-Serif" font-size="10.00"> HEIGHT_PX &gt;</text>
<text text-anchor="start" x="12" y="-555.5" font-family="Helvetica,sans-Serif" font-size="10.00">+</text>
<text text-anchor="start" x="30" y="-555.5" font-family="Helvetica,sans-Serif" font-size="10.00">elements</text>
<text text-anchor="start" x="43" y="-540.5" font-family="Helvetica,sans-Serif" font-size="10.00"> </text>
<polygon fill="#666666" stroke="#666666" points="0,-567 0,-567 89,-567 89,-567 0,-567"/>
<polygon fill="#666666" stroke="#666666" points="0,-552 0,-552 28,-552 28,-552 0,-552"/>
<polygon fill="#666666" stroke="#666666" points="28,-552 28,-552 89,-552 89,-552 28,-552"/>
<polygon fill="none" stroke="#666666" points="0,-535 0,-595 89,-595 89,-535 0,-535"/>
</a>
</g>
</g>
<!-- Node2&#45;&gt;Node1 -->
<g id="edge1_Node000001_Node000002" class="edge">
<title>Node2&#45;&gt;Node1</title>
<g id="a_edge1_Node000001_Node000002"><a xlink:title=" ">
<path fill="none" stroke="#63b8ff" d="M51.61,-535.09C60.69,-500.86 78.22,-442.73 102.75,-397 123.24,-358.81 150.49,-320.14 176.52,-286.74"/>
<polygon fill="none" stroke="#63b8ff" points="176.56,-286.69 177.14,-279.5 183.99,-277.26 183.42,-284.45 176.56,-286.69"/>
</a>
</g>
<text text-anchor="middle" x="145.88" y="-455" font-family="Helvetica,sans-Serif" font-size="10.00" fill="grey"> &#45;antenna_char</text>
<text text-anchor="middle" x="145.88" y="-443.75" font-family="Helvetica,sans-Serif" font-size="10.00" fill="grey">&#45;connection_char</text>
<text text-anchor="middle" x="145.88" y="-432.5" font-family="Helvetica,sans-Serif" font-size="10.00" fill="grey">&#45;noconnection_char</text>
<text text-anchor="middle" x="145.88" y="-421.25" font-family="Helvetica,sans-Serif" font-size="10.00" fill="grey">&#45;powered_off_char</text>
<text text-anchor="middle" x="145.88" y="-410" font-family="Helvetica,sans-Serif" font-size="10.00" fill="grey">&#45;powered_on_char</text>
<text text-anchor="middle" x="145.88" y="-398.75" font-family="Helvetica,sans-Serif" font-size="10.00" fill="grey">&#45;powering_off_char</text>
</g>
<!-- Node3 -->
<g id="Node000003" class="node">
<title>Node3</title>
<g id="a_Node000003"><a xlink:title=" ">
<polygon fill="white" stroke="none" points="138,-766.25 67,-766.25 67,-717.25 138,-717.25 138,-766.25"/>
<text text-anchor="start" x="71.75" y="-752.75" font-family="Helvetica,sans-Serif" font-size="10.00">std::array&lt; T &gt;</text>
<text text-anchor="start" x="101" y="-737.75" font-family="Helvetica,sans-Serif" font-size="10.00"> </text>
<text text-anchor="start" x="101" y="-722.75" font-family="Helvetica,sans-Serif" font-size="10.00"> </text>
<polygon fill="#666666" stroke="#666666" points="67,-749.25 67,-749.25 138,-749.25 138,-749.25 67,-749.25"/>
<polygon fill="#666666" stroke="#666666" points="67,-734.25 67,-734.25 138,-734.25 138,-734.25 67,-734.25"/>
<polygon fill="none" stroke="#666666" points="67,-717.25 67,-766.25 138,-766.25 138,-717.25 67,-717.25"/>
</a>
</g>
</g>
<!-- Node3&#45;&gt;Node2 -->
<g id="edge2_Node000002_Node000003" class="edge">
<title>Node3&#45;&gt;Node2</title>
<g id="a_edge2_Node000002_Node000003"><a xlink:title=" ">
<path fill="none" stroke="orange" d="M57.75,-720.43C49.82,-714.75 42.63,-707.74 38,-699.25 20.36,-666.92 27.14,-623.35 34.81,-594.97"/>
<polygon fill="orange" stroke="orange" points="55.69,-723.27 66.01,-725.7 59.46,-717.37 55.69,-723.27"/>
</a>
</g>
<text text-anchor="middle" x="93.25" y="-678.5" font-family="Helvetica,sans-Serif" font-size="10.00" fill="grey"> &lt; uint8_t, HEIGHT_PX &gt;</text>
</g>
<!-- Node6 -->
<g id="Node000006" class="node">
<title>Node6</title>
<g id="a_Node000006"><a xlink:title=" ">
<polygon fill="white" stroke="none" points="220,-600.5 111,-600.5 111,-529.5 220,-529.5 220,-600.5"/>
<text text-anchor="start" x="115.62" y="-587" font-family="Helvetica,sans-Serif" font-size="10.00">std::array&lt; std::array</text>
<text text-anchor="start" x="115.62" y="-575.75" font-family="Helvetica,sans-Serif" font-size="10.00">&lt; char, conf::lcd::COLS</text>
<text text-anchor="start" x="119.38" y="-564.5" font-family="Helvetica,sans-Serif" font-size="10.00"> &gt;, conf::lcd::ROWS &gt;</text>
<text text-anchor="start" x="128" y="-550" font-family="Helvetica,sans-Serif" font-size="10.00">+</text>
<text text-anchor="start" x="151" y="-550" font-family="Helvetica,sans-Serif" font-size="10.00">elements</text>
<text text-anchor="start" x="164" y="-535" font-family="Helvetica,sans-Serif" font-size="10.00"> </text>
<polygon fill="#666666" stroke="#666666" points="111,-561.5 111,-561.5 220,-561.5 220,-561.5 111,-561.5"/>
<polygon fill="#666666" stroke="#666666" points="111,-546.5 111,-546.5 149,-546.5 149,-546.5 111,-546.5"/>
<polygon fill="#666666" stroke="#666666" points="149,-546.5 149,-546.5 220,-546.5 220,-546.5 149,-546.5"/>
<polygon fill="none" stroke="#666666" points="111,-529.5 111,-600.5 220,-600.5 220,-529.5 111,-529.5"/>
</a>
</g>
</g>
<!-- Node3&#45;&gt;Node6 -->
<g id="edge6_Node000006_Node000003" class="edge">
<title>Node3&#45;&gt;Node6</title>
<g id="a_edge6_Node000006_Node000003"><a xlink:title=" ">
<path fill="none" stroke="orange" d="M141.37,-708.74C143.69,-705.72 145.78,-702.55 147.5,-699.25 163.51,-668.5 167,-628.59 167.11,-600.49"/>
<polygon fill="orange" stroke="orange" points="138.8,-706.36 134.81,-716.18 144.05,-710.99 138.8,-706.36"/>
</a>
</g>
<text text-anchor="start" x="159.5" y="-689.75" font-family="Helvetica,sans-Serif" font-size="10.00" fill="grey"> &lt; std::array&lt; char,</text>
<text text-anchor="start" x="159.5" y="-678.5" font-family="Helvetica,sans-Serif" font-size="10.00" fill="grey"> conf::lcd::COLS &gt;,</text>
<text text-anchor="middle" x="200" y="-667.25" font-family="Helvetica,sans-Serif" font-size="10.00" fill="grey"> conf::lcd::ROWS &gt;</text>
</g>
<!-- Node4 -->
<g id="Node000004" class="node">
<title>Node4</title>
<g id="a_Node000004"><a xlink:title=" ">
<polygon fill="white" stroke="none" points="110.5,-862.5 94.5,-862.5 94.5,-813.5 110.5,-813.5 110.5,-862.5"/>
<text text-anchor="start" x="99.5" y="-849" font-family="Helvetica,sans-Serif" font-size="10.00">T</text>
<text text-anchor="start" x="101" y="-834" font-family="Helvetica,sans-Serif" font-size="10.00"> </text>
<text text-anchor="start" x="101" y="-819" font-family="Helvetica,sans-Serif" font-size="10.00"> </text>
<polygon fill="#666666" stroke="#666666" points="94.5,-845.5 94.5,-845.5 110.5,-845.5 110.5,-845.5 94.5,-845.5"/>
<polygon fill="#666666" stroke="#666666" points="94.5,-830.5 94.5,-830.5 110.5,-830.5 110.5,-830.5 94.5,-830.5"/>
<polygon fill="none" stroke="#666666" points="94.5,-813.5 94.5,-862.5 110.5,-862.5 110.5,-813.5 94.5,-813.5"/>
</a>
</g>
</g>
<!-- Node4&#45;&gt;Node3 -->
<g id="edge3_Node000003_Node000004" class="edge">
<title>Node4&#45;&gt;Node3</title>
<g id="a_edge3_Node000003_Node000004"><a xlink:title=" ">
<path fill="none" stroke="#63b8ff" d="M102.5,-813.7C102.5,-803.28 102.5,-790.75 102.5,-779.14"/>
<polygon fill="none" stroke="#63b8ff" points="102.5,-779.01 98.5,-773.01 102.5,-767.01 106.5,-773.01 102.5,-779.01"/>
</a>
</g>
<text text-anchor="middle" x="126.5" y="-786" font-family="Helvetica,sans-Serif" font-size="10.00" fill="grey"> +elements</text>
</g>
<!-- Node5 -->
<g id="Node000005" class="node">
<title>Node5</title>
<g id="a_Node000005"><a xlink:href="structfabomatic_1_1pins__config_1_1lcd__config.xhtml" target="_top" xlink:title="LCD parallel interface pins definition.">
<polygon fill="white" stroke="none" points="344.5,-647.5 238.5,-647.5 238.5,-482.5 344.5,-482.5 344.5,-647.5"/>
<text text-anchor="start" x="243.5" y="-634" font-family="Helvetica,sans-Serif" font-size="10.00">fabomatic::pins_config</text>
<text text-anchor="start" x="267.5" y="-622.75" font-family="Helvetica,sans-Serif" font-size="10.00">::lcd_config</text>
<text text-anchor="start" x="253" y="-608" font-family="Helvetica,sans-Serif" font-size="10.00">+</text>
<text text-anchor="start" x="273.5" y="-608" font-family="Helvetica,sans-Serif" font-size="10.00">rs_pin</text>
<text text-anchor="start" x="253" y="-593" font-family="Helvetica,sans-Serif" font-size="10.00">+</text>
<text text-anchor="start" x="273.5" y="-593" font-family="Helvetica,sans-Serif" font-size="10.00">en_pin</text>
<text text-anchor="start" x="253" y="-578" font-family="Helvetica,sans-Serif" font-size="10.00">+</text>
<text text-anchor="start" x="273.5" y="-578" font-family="Helvetica,sans-Serif" font-size="10.00">d0_pin</text>
<text text-anchor="start" x="253" y="-563" font-family="Helvetica,sans-Serif" font-size="10.00">+</text>
<text text-anchor="start" x="273.5" y="-563" font-family="Helvetica,sans-Serif" font-size="10.00">d1_pin</text>
<text text-anchor="start" x="253" y="-548" font-family="Helvetica,sans-Serif" font-size="10.00">+</text>
<text text-anchor="start" x="273.5" y="-548" font-family="Helvetica,sans-Serif" font-size="10.00">d2_pin</text>
<text text-anchor="start" x="253" y="-533" font-family="Helvetica,sans-Serif" font-size="10.00">+</text>
<text text-anchor="start" x="273.5" y="-533" font-family="Helvetica,sans-Serif" font-size="10.00">d3_pin</text>
<text text-anchor="start" x="253" y="-518" font-family="Helvetica,sans-Serif" font-size="10.00">+</text>
<text text-anchor="start" x="273.5" y="-518" font-family="Helvetica,sans-Serif" font-size="10.00">bl_pin</text>
<text text-anchor="start" x="253" y="-503" font-family="Helvetica,sans-Serif" font-size="10.00">+</text>
<text text-anchor="start" x="273.5" y="-503" font-family="Helvetica,sans-Serif" font-size="10.00">active_low</text>
<text text-anchor="start" x="290" y="-488" font-family="Helvetica,sans-Serif" font-size="10.00"> </text>
<polygon fill="#666666" stroke="#666666" points="238.5,-619.5 238.5,-619.5 344.5,-619.5 344.5,-619.5 238.5,-619.5"/>
<polygon fill="#666666" stroke="#666666" points="238.5,-499.5 238.5,-499.5 271.5,-499.5 271.5,-499.5 238.5,-499.5"/>
<polygon fill="#666666" stroke="#666666" points="271.5,-499.5 271.5,-499.5 344.5,-499.5 344.5,-499.5 271.5,-499.5"/>
<polygon fill="none" stroke="#666666" points="238.5,-482.5 238.5,-647.5 344.5,-647.5 344.5,-482.5 238.5,-482.5"/>
</a>
</g>
</g>
<!-- Node5&#45;&gt;Node1 -->
<g id="edge4_Node000001_Node000005" class="edge">
<title>Node5&#45;&gt;Node1</title>
<g id="a_edge4_Node000001_Node000005"><a xlink:title=" ">
<path fill="none" stroke="#63b8ff" d="M284.56,-482.96C282.22,-455.68 279.5,-423.92 276.73,-391.58"/>
<polygon fill="none" stroke="#63b8ff" points="276.72,-391.54 272.23,-385.9 275.7,-379.58 280.2,-385.22 276.72,-391.54"/>
</a>
</g>
<text text-anchor="middle" x="297.88" y="-426.88" font-family="Helvetica,sans-Serif" font-size="10.00" fill="grey"> &#45;config</text>
</g>
<!-- Node6&#45;&gt;Node1 -->
<g id="edge5_Node000001_Node000006" class="edge">
<title>Node6&#45;&gt;Node1</title>
<g id="a_edge5_Node000001_Node000006"><a xlink:title=" ">
<path fill="none" stroke="#63b8ff" d="M174.17,-529.53C182.4,-496.86 195.46,-444.95 208.92,-391.48"/>
<polygon fill="none" stroke="#63b8ff" points="208.92,-391.47 206.51,-384.68 211.85,-379.83 214.26,-386.63 208.92,-391.47"/>
</a>
</g>
<text text-anchor="middle" x="223" y="-432.5" font-family="Helvetica,sans-Serif" font-size="10.00" fill="grey"> &#45;buffer</text>
<text text-anchor="middle" x="223" y="-421.25" font-family="Helvetica,sans-Serif" font-size="10.00" fill="grey">&#45;current</text>
</g>
<!-- Node7 -->
<g id="Node000007" class="node">
<title>Node7</title>
<g id="a_Node000007"><a xlink:href="structfabomatic_1_1_board_info.xhtml" target="_top" xlink:title="Helper struct representing the display state.">
<polygon fill="white" stroke="none" points="462,-604.5 363,-604.5 363,-525.5 462,-525.5 462,-604.5"/>
<text text-anchor="start" x="367.88" y="-591" font-family="Helvetica,sans-Serif" font-size="10.00">fabomatic::BoardInfo</text>
<text text-anchor="start" x="368" y="-576" font-family="Helvetica,sans-Serif" font-size="10.00">+</text>
<text text-anchor="start" x="379" y="-576" font-family="Helvetica,sans-Serif" font-size="10.00">server_connected</text>
<text text-anchor="start" x="368" y="-561" font-family="Helvetica,sans-Serif" font-size="10.00">+</text>
<text text-anchor="start" x="379" y="-561" font-family="Helvetica,sans-Serif" font-size="10.00">power_state</text>
<text text-anchor="start" x="368" y="-546" font-family="Helvetica,sans-Serif" font-size="10.00">+</text>
<text text-anchor="start" x="379" y="-546" font-family="Helvetica,sans-Serif" font-size="10.00">power_warning</text>
<text text-anchor="start" x="368" y="-531" font-family="Helvetica,sans-Serif" font-size="10.00">+</text>
<text text-anchor="start" x="379" y="-531" font-family="Helvetica,sans-Serif" font-size="10.00">operator==()</text>
<polygon fill="#666666" stroke="#666666" points="363,-587.5 363,-587.5 462,-587.5 462,-587.5 363,-587.5"/>
<polygon fill="#666666" stroke="#666666" points="363,-542.5 363,-542.5 377,-542.5 377,-542.5 363,-542.5"/>
<polygon fill="#666666" stroke="#666666" points="377,-542.5 377,-542.5 462,-542.5 462,-542.5 377,-542.5"/>
<polygon fill="none" stroke="#666666" points="363,-525.5 363,-604.5 462,-604.5 462,-525.5 363,-525.5"/>
</a>
</g>
</g>
<!-- Node7&#45;&gt;Node1 -->
<g id="edge7_Node000001_Node000007" class="edge">
<title>Node7&#45;&gt;Node1</title>
<g id="a_edge7_Node000001_Node000007"><a xlink:title=" ">
<path fill="none" stroke="#63b8ff" d="M396.85,-525.78C382.87,-491.66 361.26,-438.92 339.29,-385.29"/>
<polygon fill="none" stroke="#63b8ff" points="339.35,-385.42 333.37,-381.38 334.8,-374.31 340.77,-378.35 339.35,-385.42"/>
</a>
</g>
<text text-anchor="middle" x="393.38" y="-426.88" font-family="Helvetica,sans-Serif" font-size="10.00" fill="grey"> &#45;boardInfo</text>
</g>
</g>
</svg>
