<?xml version="1.0" encoding="UTF-8" standalone="no"?>
<!DOCTYPE svg PUBLIC "-//W3C//DTD SVG 1.1//EN"
 "http://www.w3.org/Graphics/SVG/1.1/DTD/svg11.dtd">
<!-- Generated by graphviz version 9.0.0 (20230911.1827)
 -->
<!-- Title: fabomatic::MQTT::StartUseQuery Pages: 1 -->
<svg width="136pt" height="258pt"
 viewBox="0.00 0.00 136.00 258.00" xmlns="http://www.w3.org/2000/svg" xmlns:xlink="http://www.w3.org/1999/xlink">
<g id="graph0" class="graph" transform="scale(1 1) rotate(0) translate(4 254)">
<title>fabomatic::MQTT::StartUseQuery</title>
<!-- Node1 -->
<g id="Node000001" class="node">
<title>Node1</title>
<g id="a_Node000001"><a xlink:title="start of machine use">
<polygon fill="#999999" stroke="none" points="128,-120 0,-120 0,0 128,0 128,-120"/>
<text text-anchor="start" x="4.75" y="-106.5" font-family="Helvetica,sans-Serif" font-size="10.00">fabomatic::MQTT::StartUse</text>
<text text-anchor="start" x="51.25" y="-95.25" font-family="Helvetica,sans-Serif" font-size="10.00">Query</text>
<text text-anchor="start" x="14" y="-80.5" font-family="Helvetica,sans-Serif" font-size="10.00">+</text>
<text text-anchor="start" x="34" y="-80.5" font-family="Helvetica,sans-Serif" font-size="10.00">uid</text>
<text text-anchor="start" x="14" y="-65.5" font-family="Helvetica,sans-Serif" font-size="10.00">+</text>
<text text-anchor="start" x="34" y="-65.5" font-family="Helvetica,sans-Serif" font-size="10.00">StartUseQuery()</text>
<text text-anchor="start" x="14" y="-50.5" font-family="Helvetica,sans-Serif" font-size="10.00">+</text>
<text text-anchor="start" x="34" y="-50.5" font-family="Helvetica,sans-Serif" font-size="10.00">StartUseQuery()</text>
<text text-anchor="start" x="14" y="-35.5" font-family="Helvetica,sans-Serif" font-size="10.00">+</text>
<text text-anchor="start" x="34" y="-35.5" font-family="Helvetica,sans-Serif" font-size="10.00">payload()</text>
<text text-anchor="start" x="14" y="-20.5" font-family="Helvetica,sans-Serif" font-size="10.00">+</text>
<text text-anchor="start" x="34" y="-20.5" font-family="Helvetica,sans-Serif" font-size="10.00">waitForReply()</text>
<text text-anchor="start" x="14" y="-5.5" font-family="Helvetica,sans-Serif" font-size="10.00">+</text>
<text text-anchor="start" x="34" y="-5.5" font-family="Helvetica,sans-Serif" font-size="10.00">buffered()</text>
<polygon fill="#666666" stroke="#666666" points="0,-92 0,-92 128,-92 128,-92 0,-92"/>
<polygon fill="#666666" stroke="#666666" points="0,-77 0,-77 32,-77 32,-77 0,-77"/>
<polygon fill="#666666" stroke="#666666" points="32,-77 32,-77 128,-77 128,-77 32,-77"/>
<polygon fill="none" stroke="#666666" points="0,0 0,-120 128,-120 128,0 0,0"/>
</a>
</g>
</g>
<!-- Node2 -->
<g id="Node000002" class="node">
<title>Node2</title>
<g id="a_Node000002"><a xlink:href="classfabomatic_1_1_m_q_t_t_1_1_query.xhtml" target="_top" xlink:title="base class for all MQTT request to the backend">
<polygon fill="white" stroke="none" points="121.5,-250 6.5,-250 6.5,-156 121.5,-156 121.5,-250"/>
<text text-anchor="start" x="11.5" y="-236.5" font-family="Helvetica,sans-Serif" font-size="10.00">fabomatic::MQTT::Query</text>
<text text-anchor="start" x="62.5" y="-221.5" font-family="Helvetica,sans-Serif" font-size="10.00"> </text>
<text text-anchor="start" x="19" y="-206.5" font-family="Helvetica,sans-Serif" font-size="10.00">+</text>
<text text-anchor="start" x="37.5" y="-206.5" font-family="Helvetica,sans-Serif" font-size="10.00">waitForReply()</text>
<text text-anchor="start" x="19" y="-191.5" font-family="Helvetica,sans-Serif" font-size="10.00">+</text>
<text text-anchor="start" x="37.5" y="-191.5" font-family="Helvetica,sans-Serif" font-size="10.00">payload()</text>
<text text-anchor="start" x="19" y="-176.5" font-family="Helvetica,sans-Serif" font-size="10.00">+</text>
<text text-anchor="start" x="37.5" y="-176.5" font-family="Helvetica,sans-Serif" font-size="10.00">buffered()</text>
<text text-anchor="start" x="19" y="-161.5" font-family="Helvetica,sans-Serif" font-size="10.00">+</text>
<text text-anchor="start" x="37.5" y="-161.5" font-family="Helvetica,sans-Serif" font-size="10.00">~Query()</text>
<polygon fill="#666666" stroke="#666666" points="6.5,-233 6.5,-233 121.5,-233 121.5,-233 6.5,-233"/>
<polygon fill="#666666" stroke="#666666" points="6.5,-218 6.5,-218 121.5,-218 121.5,-218 6.5,-218"/>
<polygon fill="none" stroke="#666666" points="6.5,-156 6.5,-250 121.5,-250 121.5,-156 6.5,-156"/>
</a>
</g>
</g>
<!-- Node2&#45;&gt;Node1 -->
<g id="edge1_Node000001_Node000002" class="edge">
<title>Node2&#45;&gt;Node1</title>
<g id="a_edge1_Node000001_Node000002"><a xlink:title=" ">
<path fill="none" stroke="#63b8ff" d="M64,-144.83C64,-136.62 64,-128.16 64,-119.92"/>
<polygon fill="none" stroke="#63b8ff" points="60.5,-144.71 64,-154.71 67.5,-144.71 60.5,-144.71"/>
</a>
</g>
</g>
</g>
</svg>
