<?xml version="1.0" encoding="UTF-8" standalone="no"?>
<!DOCTYPE svg PUBLIC "-//W3C//DTD SVG 1.1//EN"
 "http://www.w3.org/Graphics/SVG/1.1/DTD/svg11.dtd">
<!-- Generated by graphviz version 9.0.0 (20230911.1827)
 -->
<!-- Title: fabomatic::BoardLogic::getServer Pages: 1 -->
<!--zoomable 658 -->

<svg id="main" version="1.1" xmlns="http://www.w3.org/2000/svg" xmlns:xlink="http://www.w3.org/1999/xlink" xml:space="preserve" onload="init(evt)">
<style type="text/css"><![CDATA[
.node, .edge {opacity: 0.7;}
.node.selected, .edge.selected {opacity: 1;}
.edge:hover path { stroke: red; }
.edge:hover polygon { stroke: red; fill: red; }
]]></style>

<defs>
  <circle id="rim" cx="0" cy="0" r="7"/>
  <circle id="rim2" cx="0" cy="0" r="3.5"/>
  <g id="zoomPlus">
    <use xlink:href="#rim" fill="#404040"><set attributeName="fill" to="#808080" begin="zoomplus.mouseover" end="zoomplus.mouseout"/></use>
    <path d="M-4,0h8M0,-4v8" fill="none" stroke="white" stroke-width="1.5" pointer-events="none"/>
  </g>
  <g id="zoomMin">
    <use xlink:href="#rim" fill="#404040"><set attributeName="fill" to="#808080" begin="zoomminus.mouseover" end="zoomminus.mouseout"/></use>
    <path d="M-4,0h8" fill="none" stroke="white" stroke-width="1.5" pointer-events="none"/>
  </g>
  <g id="arrowUp" transform="translate(30 24)">
    <use xlink:href="#rim"/>
    <path pointer-events="none" fill="none" stroke="white" stroke-width="1.5" d="M0,-3.0v7 M-2.5,-0.5L0,-3.0L2.5,-0.5"/>
  </g>
  <g id="arrowRight" transform="rotate(90) translate(36 -43)">
    <use xlink:href="#rim"/>
    <path pointer-events="none" fill="none" stroke="white" stroke-width="1.5" d="M0,-3.0v7 M-2.5,-0.5L0,-3.0L2.5,-0.5"/>
  </g>
  <g id="arrowDown" transform="rotate(180) translate(-30 -48)">
    <use xlink:href="#rim"/>
    <path pointer-events="none" fill="none" stroke="white" stroke-width="1.5" d="M0,-3.0v7 M-2.5,-0.5L0,-3.0L2.5,-0.5"/>
  </g>
  <g id="arrowLeft" transform="rotate(270) translate(-36 17)">
    <use xlink:href="#rim"/>
    <path pointer-events="none" fill="none" stroke="white" stroke-width="1.5" d="M0,-3.0v7 M-2.5,-0.5L0,-3.0L2.5,-0.5"/>
  </g>
  <g id="resetDef">
    <use xlink:href="#rim2" fill="#404040"><set attributeName="fill" to="#808080" begin="reset.mouseover" end="reset.mouseout"/></use>
  </g>
</defs>
<script type="application/ecmascript">
var viewWidth = 389;
var viewHeight = 658;
var sectionId = 'dynsection-24';
</script>
<script type="application/ecmascript" xlink:href="svg.min.js"/>
<svg id="graph" class="graph">
<g id="viewport">
<title>fabomatic::BoardLogic::getServer</title>
<!-- Node1 -->
<g id="Node000001" class="node">
<title>Node1</title>
<g id="a_Node000001"><a xlink:title=" ">
<polygon fill="#999999" stroke="#666666" points="381,-373.5 268.25,-373.5 268.25,-343 381,-343 381,-373.5"/>
<text text-anchor="start" x="276.25" y="-360" font-family="Helvetica,sans-Serif" font-size="10.00">fabomatic::BoardLogic</text>
<text text-anchor="middle" x="324.62" y="-348.75" font-family="Helvetica,sans-Serif" font-size="10.00">::getServer</text>
</a>
</g>
</g>
<!-- Node2 -->
<g id="Node000002" class="node">
<title>Node2</title>
<g id="a_Node000002"><a xlink:href="main_8cpp.xhtml#a4fc01d736fe50cf5b977f755b675f11d" target="_top" xlink:title=" ">
<polygon fill="white" stroke="#666666" points="40,-619.88 0,-619.88 0,-600.62 40,-600.62 40,-619.88"/>
<text text-anchor="middle" x="20" y="-606.38" font-family="Helvetica,sans-Serif" font-size="10.00">setup</text>
</a>
</g>
</g>
<!-- Node1&#45;&gt;Node2 -->
<g id="edge1_Node000001_Node000002" class="edge">
<title>Node1&#45;&gt;Node2</title>
<g id="a_edge1_Node000001_Node000002"><a xlink:title=" ">
<path fill="none" stroke="#63b8ff" d="M323.97,-385.23C323.04,-441.73 311.92,-572.03 232.25,-629.25 173.48,-671.46 80.47,-637.68 40.41,-619.69"/>
<polygon fill="#63b8ff" stroke="#63b8ff" points="327.47,-385.27 324.02,-375.25 320.47,-385.23 327.47,-385.27"/>
</a>
</g>
</g>
<!-- Node3 -->
<g id="Node000003" class="node">
<title>Node3</title>
<g id="a_Node000003"><a xlink:href="test__logic_8cpp.xhtml#a95c834d6178047ce9e1bce7cbfea2836" target="_top" xlink:title=" ">
<polygon fill="white" stroke="#666666" points="175.25,-619.88 133,-619.88 133,-600.62 175.25,-600.62 175.25,-619.88"/>
<text text-anchor="middle" x="154.12" y="-606.38" font-family="Helvetica,sans-Serif" font-size="10.00">setUp</text>
</a>
</g>
</g>
<!-- Node1&#45;&gt;Node3 -->
<g id="edge2_Node000001_Node000003" class="edge">
<title>Node1&#45;&gt;Node3</title>
<g id="a_edge2_Node000001_Node000003"><a xlink:title=" ">
<path fill="none" stroke="#63b8ff" d="M321.15,-385.08C315.15,-433.98 295.3,-537.62 232.25,-592.25 216.56,-605.84 192.54,-609.66 175.49,-610.51"/>
<polygon fill="#63b8ff" stroke="#63b8ff" points="324.6,-385.71 322.23,-375.39 317.64,-384.94 324.6,-385.71"/>
</a>
</g>
</g>
<!-- Node4 -->
<g id="Node000004" class="node">
<title>Node4</title>
<g id="a_Node000004"><a xlink:href="namespacefabomatic.xhtml#ae7de89faffd3bb8805727b8a1092a198" target="_top" xlink:title="Opens WiFi and server connection and updates board state accordingly.">
<polygon fill="white" stroke="#666666" points="213.12,-582.88 95.12,-582.88 95.12,-563.62 213.12,-563.62 213.12,-582.88"/>
<text text-anchor="middle" x="154.12" y="-569.38" font-family="Helvetica,sans-Serif" font-size="10.00">fabomatic::taskConnect</text>
</a>
</g>
</g>
<!-- Node1&#45;&gt;Node4 -->
<g id="edge3_Node000001_Node000004" class="edge">
<title>Node1&#45;&gt;Node4</title>
<g id="a_edge3_Node000001_Node000004"><a xlink:title=" ">
<path fill="none" stroke="#63b8ff" d="M318.95,-385.04C310.02,-427.81 286.4,-511.2 232.25,-555.25 226.7,-559.76 220.23,-563.18 213.43,-565.77"/>
<polygon fill="#63b8ff" stroke="#63b8ff" points="322.35,-385.85 320.84,-375.36 315.49,-384.5 322.35,-385.85"/>
</a>
</g>
</g>
<!-- Node5 -->
<g id="Node000005" class="node">
<title>Node5</title>
<g id="a_Node000005"><a xlink:href="namespacefabomatic.xhtml#a77b0a5de55b2f507f610f1d0c5196bc2" target="_top" xlink:title=" ">
<polygon fill="white" stroke="#666666" points="210.12,-545.88 98.12,-545.88 98.12,-526.62 210.12,-526.62 210.12,-545.88"/>
<text text-anchor="middle" x="154.12" y="-532.38" font-family="Helvetica,sans-Serif" font-size="10.00">fabomatic::taskIsAlive</text>
</a>
</g>
</g>
<!-- Node1&#45;&gt;Node5 -->
<g id="edge5_Node000001_Node000005" class="edge">
<title>Node1&#45;&gt;Node5</title>
<g id="a_edge5_Node000001_Node000005"><a xlink:title=" ">
<path fill="none" stroke="#63b8ff" d="M316.01,-384.43C304.17,-420.33 277.84,-484.26 232.25,-518.25 225.75,-523.1 218.14,-526.67 210.29,-529.29"/>
<polygon fill="#63b8ff" stroke="#63b8ff" points="319.23,-385.86 318.9,-375.27 312.55,-383.76 319.23,-385.86"/>
</a>
</g>
</g>
<!-- Node6 -->
<g id="Node000006" class="node">
<title>Node6</title>
<g id="a_Node000006"><a xlink:href="namespacefabomatic.xhtml#a710739974eb0b1c5b53ffd75580ab54d" target="_top" xlink:title="sends the MQTT alive message">
<polygon fill="white" stroke="#666666" points="232.25,-508.88 76,-508.88 76,-489.62 232.25,-489.62 232.25,-508.88"/>
<text text-anchor="middle" x="154.12" y="-495.38" font-family="Helvetica,sans-Serif" font-size="10.00">fabomatic::taskMQTTClientLoop</text>
</a>
</g>
</g>
<!-- Node1&#45;&gt;Node6 -->
<g id="edge6_Node000001_Node000006" class="edge">
<title>Node1&#45;&gt;Node6</title>
<g id="a_edge6_Node000001_Node000006"><a xlink:title=" ">
<path fill="none" stroke="#63b8ff" d="M311.26,-383.91C296.42,-411.92 268.87,-456.01 232.25,-480.25 226.73,-483.9 220.57,-486.86 214.2,-489.24"/>
<polygon fill="#63b8ff" stroke="#63b8ff" points="314.36,-385.53 315.8,-375.04 308.13,-382.34 314.36,-385.53"/>
</a>
</g>
</g>
<!-- Node7 -->
<g id="Node000007" class="node">
<title>Node7</title>
<g id="a_Node000007"><a xlink:href="namespacefabomatic_1_1tests.xhtml#a95c3d2a5cfa25e610ac054894d766f73" target="_top" xlink:title=" ">
<polygon fill="white" stroke="#666666" points="208.25,-471.5 100,-471.5 100,-441 208.25,-441 208.25,-471.5"/>
<text text-anchor="start" x="108" y="-458" font-family="Helvetica,sans-Serif" font-size="10.00">fabomatic::tests::test</text>
<text text-anchor="middle" x="154.12" y="-446.75" font-family="Helvetica,sans-Serif" font-size="10.00">_check_transmission</text>
</a>
</g>
</g>
<!-- Node1&#45;&gt;Node7 -->
<g id="edge7_Node000001_Node000007" class="edge">
<title>Node1&#45;&gt;Node7</title>
<g id="a_edge7_Node000001_Node000007"><a xlink:title=" ">
<path fill="none" stroke="#63b8ff" d="M299.31,-381.74C281.84,-397.56 257.07,-417.89 232.25,-431.25 224.81,-435.25 216.63,-438.75 208.45,-441.77"/>
<polygon fill="#63b8ff" stroke="#63b8ff" points="301.67,-384.33 306.64,-374.97 296.92,-379.19 301.67,-384.33"/>
</a>
</g>
</g>
<!-- Node9 -->
<g id="Node000009" class="node">
<title>Node9</title>
<g id="a_Node000009"><a xlink:href="namespacefabomatic_1_1tests.xhtml#a675dfc88957b4e6871f32187a0da29b2" target="_top" xlink:title=" ">
<polygon fill="white" stroke="#666666" points="223.25,-422.5 85,-422.5 85,-392 223.25,-392 223.25,-422.5"/>
<text text-anchor="start" x="93" y="-409" font-family="Helvetica,sans-Serif" font-size="10.00">fabomatic::tests::test</text>
<text text-anchor="middle" x="154.12" y="-397.75" font-family="Helvetica,sans-Serif" font-size="10.00">_create_buffered_messages</text>
</a>
</g>
</g>
<!-- Node1&#45;&gt;Node9 -->
<g id="edge9_Node000001_Node000009" class="edge">
<title>Node1&#45;&gt;Node9</title>
<g id="a_edge9_Node000001_Node000009"><a xlink:title=" ">
<path fill="none" stroke="#63b8ff" d="M259.2,-376.98C242.72,-381.78 225.16,-386.88 209.26,-391.51"/>
<polygon fill="#63b8ff" stroke="#63b8ff" points="259.77,-380.46 268.39,-374.31 257.81,-373.74 259.77,-380.46"/>
</a>
</g>
</g>
<!-- Node10 -->
<g id="Node000010" class="node">
<title>Node10</title>
<g id="a_Node000010"><a xlink:href="namespacefabomatic_1_1tests.xhtml#a438b9060c27d36e89506199205b342cb" target="_top" xlink:title=" ">
<polygon fill="white" stroke="#666666" points="207.12,-373.5 101.12,-373.5 101.12,-343 207.12,-343 207.12,-373.5"/>
<text text-anchor="start" x="109.12" y="-360" font-family="Helvetica,sans-Serif" font-size="10.00">fabomatic::tests::test</text>
<text text-anchor="middle" x="154.12" y="-348.75" font-family="Helvetica,sans-Serif" font-size="10.00">_fabserver_calls</text>
</a>
</g>
</g>
<!-- Node1&#45;&gt;Node10 -->
<g id="edge11_Node000001_Node000010" class="edge">
<title>Node1&#45;&gt;Node10</title>
<g id="a_edge11_Node000001_Node000010"><a xlink:title=" ">
<path fill="none" stroke="#63b8ff" d="M256.83,-358.25C240.45,-358.25 223.16,-358.25 207.57,-358.25"/>
<polygon fill="#63b8ff" stroke="#63b8ff" points="256.47,-361.75 266.47,-358.25 256.47,-354.75 256.47,-361.75"/>
</a>
</g>
</g>
<!-- Node11 -->
<g id="Node000011" class="node">
<title>Node11</title>
<g id="a_Node000011"><a xlink:href="namespacefabomatic_1_1tests.xhtml#af8fa7ace86309b5f699540d8898660c7" target="_top" xlink:title=" ">
<polygon fill="white" stroke="#666666" points="207.12,-275.5 101.12,-275.5 101.12,-245 207.12,-245 207.12,-275.5"/>
<text text-anchor="start" x="109.12" y="-262" font-family="Helvetica,sans-Serif" font-size="10.00">fabomatic::tests::test</text>
<text text-anchor="middle" x="154.12" y="-250.75" font-family="Helvetica,sans-Serif" font-size="10.00">_messages_buffered</text>
</a>
</g>
</g>
<!-- Node1&#45;&gt;Node11 -->
<g id="edge13_Node000001_Node000011" class="edge">
<title>Node1&#45;&gt;Node11</title>
<g id="a_edge13_Node000001_Node000011"><a xlink:title=" ">
<path fill="none" stroke="#63b8ff" d="M299.31,-334.76C281.84,-318.94 257.07,-298.61 232.25,-285.25 224.44,-281.05 215.81,-277.4 207.22,-274.29"/>
<polygon fill="#63b8ff" stroke="#63b8ff" points="296.92,-337.31 306.64,-341.53 301.67,-332.17 296.92,-337.31"/>
</a>
</g>
</g>
<!-- Node13 -->
<g id="Node000013" class="node">
<title>Node13</title>
<g id="a_Node000013"><a xlink:href="namespacefabomatic_1_1tests.xhtml#a6f3dff17fd964aba76c35c514957a0a5" target="_top" xlink:title=" ">
<polygon fill="white" stroke="#666666" points="208.62,-226.5 99.62,-226.5 99.62,-196 208.62,-196 208.62,-226.5"/>
<text text-anchor="start" x="107.62" y="-213" font-family="Helvetica,sans-Serif" font-size="10.00">fabomatic::tests::test</text>
<text text-anchor="middle" x="154.12" y="-201.75" font-family="Helvetica,sans-Serif" font-size="10.00">_one_user_at_a_time</text>
</a>
</g>
</g>
<!-- Node1&#45;&gt;Node13 -->
<g id="edge15_Node000001_Node000013" class="edge">
<title>Node1&#45;&gt;Node13</title>
<g id="a_edge15_Node000001_Node000013"><a xlink:title=" ">
<path fill="none" stroke="#63b8ff" d="M310.68,-332.63C295.49,-305.03 267.79,-261.66 232.25,-236.25 225.27,-231.26 217.23,-227.22 209.04,-223.98"/>
<polygon fill="#63b8ff" stroke="#63b8ff" points="307.55,-334.2 315.35,-341.38 313.73,-330.91 307.55,-334.2"/>
</a>
</g>
</g>
<!-- Node14 -->
<g id="Node000014" class="node">
<title>Node14</title>
<g id="a_Node000014"><a xlink:href="namespacefabomatic_1_1tests.xhtml#aba7f55ee91c2d2a647fca6c8cc106c97" target="_top" xlink:title=" ">
<polygon fill="white" stroke="#666666" points="207.12,-324.5 101.12,-324.5 101.12,-294 207.12,-294 207.12,-324.5"/>
<text text-anchor="start" x="109.12" y="-311" font-family="Helvetica,sans-Serif" font-size="10.00">fabomatic::tests::test</text>
<text text-anchor="middle" x="154.12" y="-299.75" font-family="Helvetica,sans-Serif" font-size="10.00">_start_broker</text>
</a>
</g>
</g>
<!-- Node1&#45;&gt;Node14 -->
<g id="edge17_Node000001_Node000014" class="edge">
<title>Node1&#45;&gt;Node14</title>
<g id="a_edge17_Node000001_Node000014"><a xlink:title=" ">
<path fill="none" stroke="#63b8ff" d="M258.88,-339.42C241.89,-334.48 223.78,-329.22 207.53,-324.49"/>
<polygon fill="#63b8ff" stroke="#63b8ff" points="257.81,-342.76 268.39,-342.19 259.77,-336.04 257.81,-342.76"/>
</a>
</g>
</g>
<!-- Node15 -->
<g id="Node000015" class="node">
<title>Node15</title>
<g id="a_Node000015"><a xlink:href="namespacefabomatic_1_1tests.xhtml#a88a4242d48bfa4a0337df522d303c367" target="_top" xlink:title="Opens WiFi and server connection and updates board state accordingly.">
<polygon fill="white" stroke="#666666" points="207.12,-177.5 101.12,-177.5 101.12,-147 207.12,-147 207.12,-177.5"/>
<text text-anchor="start" x="109.12" y="-164" font-family="Helvetica,sans-Serif" font-size="10.00">fabomatic::tests::test</text>
<text text-anchor="middle" x="154.12" y="-152.75" font-family="Helvetica,sans-Serif" font-size="10.00">_taskConnect</text>
</a>
</g>
</g>
<!-- Node1&#45;&gt;Node15 -->
<g id="edge19_Node000001_Node000015" class="edge">
<title>Node1&#45;&gt;Node15</title>
<g id="a_edge19_Node000001_Node000015"><a xlink:title=" ">
<path fill="none" stroke="#63b8ff" d="M316.36,-331.71C304.76,-294.2 278.49,-225.94 232.25,-187.25 225.02,-181.2 216.29,-176.6 207.34,-173.11"/>
<polygon fill="#63b8ff" stroke="#63b8ff" points="313,-332.69 319.19,-341.28 319.71,-330.7 313,-332.69"/>
</a>
</g>
</g>
<!-- Node16 -->
<g id="Node000016" class="node">
<title>Node16</title>
<g id="a_Node000016"><a xlink:href="namespacefabomatic_1_1tests.xhtml#ae0c2cd74b089905fbdebeca807403606" target="_top" xlink:title="sends the MQTT alive message">
<polygon fill="white" stroke="#666666" points="207.12,-128.5 101.12,-128.5 101.12,-98 207.12,-98 207.12,-128.5"/>
<text text-anchor="start" x="109.12" y="-115" font-family="Helvetica,sans-Serif" font-size="10.00">fabomatic::tests::test</text>
<text text-anchor="middle" x="154.12" y="-103.75" font-family="Helvetica,sans-Serif" font-size="10.00">_taskMQTTAlive</text>
</a>
</g>
</g>
<!-- Node1&#45;&gt;Node16 -->
<g id="edge20_Node000001_Node000016" class="edge">
<title>Node1&#45;&gt;Node16</title>
<g id="a_edge20_Node000001_Node000016"><a xlink:title=" ">
<path fill="none" stroke="#63b8ff" d="M319.88,-331.56C312.04,-285.55 289.58,-191.16 232.25,-138.25 225.22,-131.76 216.48,-126.95 207.44,-123.39"/>
<polygon fill="#63b8ff" stroke="#63b8ff" points="316.39,-331.85 321.41,-341.18 323.3,-330.75 316.39,-331.85"/>
</a>
</g>
</g>
<!-- Node17 -->
<g id="Node000017" class="node">
<title>Node17</title>
<g id="a_Node000017"><a xlink:href="namespacefabomatic_1_1tests.xhtml#afa92fef9250d918ee02c79dbf2de2546" target="_top" xlink:title=" ">
<polygon fill="white" stroke="#666666" points="207.12,-79.5 101.12,-79.5 101.12,-49 207.12,-49 207.12,-79.5"/>
<text text-anchor="start" x="109.12" y="-66" font-family="Helvetica,sans-Serif" font-size="10.00">fabomatic::tests::test</text>
<text text-anchor="middle" x="154.12" y="-54.75" font-family="Helvetica,sans-Serif" font-size="10.00">_user_autologoff</text>
</a>
</g>
</g>
<!-- Node1&#45;&gt;Node17 -->
<g id="edge21_Node000001_Node000017" class="edge">
<title>Node1&#45;&gt;Node17</title>
<g id="a_edge21_Node000001_Node000017"><a xlink:title=" ">
<path fill="none" stroke="#63b8ff" d="M322.22,-331.45C317.95,-277.87 300.83,-156.88 232.25,-89.25 225.33,-82.43 216.54,-77.47 207.39,-73.86"/>
<polygon fill="#63b8ff" stroke="#63b8ff" points="318.71,-331.44 322.89,-341.18 325.69,-330.96 318.71,-331.44"/>
</a>
</g>
</g>
<!-- Node18 -->
<g id="Node000018" class="node">
<title>Node18</title>
<g id="a_Node000018"><a xlink:href="namespacefabomatic_1_1tests.xhtml#aab0f4e1439b281ffef8be51db9a81f9d" target="_top" xlink:title=" ">
<polygon fill="white" stroke="#666666" points="210.5,-30.5 97.75,-30.5 97.75,0 210.5,0 210.5,-30.5"/>
<text text-anchor="start" x="105.75" y="-17" font-family="Helvetica,sans-Serif" font-size="10.00">fabomatic::tests::test</text>
<text text-anchor="middle" x="154.12" y="-5.75" font-family="Helvetica,sans-Serif" font-size="10.00">_whitelist_no_network</text>
</a>
</g>
</g>
<!-- Node1&#45;&gt;Node18 -->
<g id="edge23_Node000001_Node000018" class="edge">
<title>Node1&#45;&gt;Node18</title>
<g id="a_edge23_Node000001_Node000018"><a xlink:title=" ">
<path fill="none" stroke="#63b8ff" d="M323.89,-331.3C322.98,-270.78 312.19,-122.93 232.25,-40.25 226.28,-34.08 218.78,-29.43 210.81,-25.92"/>
<polygon fill="#63b8ff" stroke="#63b8ff" points="320.39,-331.02 323.94,-341 327.39,-330.98 320.39,-331.02"/>
</a>
</g>
</g>
<!-- Node4&#45;&gt;Node2 -->
<g id="edge4_Node000004_Node000002" class="edge">
<title>Node4&#45;&gt;Node2</title>
<g id="a_edge4_Node000004_Node000002"><a xlink:title=" ">
<path fill="none" stroke="#63b8ff" d="M95.43,-586.03C88.85,-587.69 82.26,-589.44 76,-591.25 64.06,-594.7 50.9,-599.22 40.44,-602.98"/>
<polygon fill="#63b8ff" stroke="#63b8ff" points="96.08,-589.47 104.96,-583.69 94.41,-582.67 96.08,-589.47"/>
</a>
</g>
</g>
<!-- Node8 -->
<g id="Node000008" class="node">
<title>Node8</title>
<g id="a_Node000008"><a xlink:href="test__mqtt_8cpp.xhtml#a4fc01d736fe50cf5b977f755b675f11d" target="_top" xlink:title=" ">
<polygon fill="white" stroke="#666666" points="40,-391.88 0,-391.88 0,-372.62 40,-372.62 40,-391.88"/>
<text text-anchor="middle" x="20" y="-378.38" font-family="Helvetica,sans-Serif" font-size="10.00">setup</text>
</a>
</g>
</g>
<!-- Node7&#45;&gt;Node8 -->
<g id="edge8_Node000007_Node000008" class="edge">
<title>Node7&#45;&gt;Node8</title>
<g id="a_edge8_Node000007_Node000008"><a xlink:title=" ">
<path fill="none" stroke="#63b8ff" d="M88.99,-437.78C84.5,-435.79 80.12,-433.61 76,-431.25 57.58,-420.69 39.93,-403.22 29.79,-392.25"/>
<polygon fill="#63b8ff" stroke="#63b8ff" points="87.63,-441.01 98.21,-441.54 90.27,-434.52 87.63,-441.01"/>
</a>
</g>
</g>
<!-- Node9&#45;&gt;Node8 -->
<g id="edge10_Node000009_Node000008" class="edge">
<title>Node9&#45;&gt;Node8</title>
<g id="a_edge10_Node000009_Node000008"><a xlink:title=" ">
<path fill="none" stroke="#63b8ff" d="M73.69,-392.22C61.25,-389.87 49.48,-387.64 40.23,-385.89"/>
<polygon fill="#63b8ff" stroke="#63b8ff" points="72.78,-395.61 83.25,-394.03 74.08,-388.73 72.78,-395.61"/>
</a>
</g>
</g>
<!-- Node10&#45;&gt;Node8 -->
<g id="edge12_Node000010_Node000008" class="edge">
<title>Node10&#45;&gt;Node8</title>
<g id="a_edge12_Node000010_Node000008"><a xlink:title=" ">
<path fill="none" stroke="#63b8ff" d="M89.77,-369.76C71.74,-373.03 53.45,-376.36 40.27,-378.75"/>
<polygon fill="#63b8ff" stroke="#63b8ff" points="90.2,-373.24 99.42,-368.01 88.95,-366.35 90.2,-373.24"/>
</a>
</g>
</g>
<!-- Node12 -->
<g id="Node000012" class="node">
<title>Node12</title>
<g id="a_Node000012"><a xlink:href="test__logic_8cpp.xhtml#a4fc01d736fe50cf5b977f755b675f11d" target="_top" xlink:title=" ">
<polygon fill="white" stroke="#666666" points="40,-147.88 0,-147.88 0,-128.62 40,-128.62 40,-147.88"/>
<text text-anchor="middle" x="20" y="-134.38" font-family="Helvetica,sans-Serif" font-size="10.00">setup</text>
</a>
</g>
</g>
<!-- Node11&#45;&gt;Node12 -->
<g id="edge14_Node000011_Node000012" class="edge">
<title>Node11&#45;&gt;Node12</title>
<g id="a_edge14_Node000011_Node000012"><a xlink:title=" ">
<path fill="none" stroke="#63b8ff" d="M90.46,-244.53C85.3,-241.9 80.39,-238.83 76,-235.25 46.75,-211.39 30.15,-167.6 23.9,-148.08"/>
<polygon fill="#63b8ff" stroke="#63b8ff" points="88.69,-247.58 99.25,-248.46 91.55,-241.19 88.69,-247.58"/>
</a>
</g>
</g>
<!-- Node13&#45;&gt;Node12 -->
<g id="edge16_Node000013_Node000012" class="edge">
<title>Node13&#45;&gt;Node12</title>
<g id="a_edge16_Node000013_Node000012"><a xlink:title=" ">
<path fill="none" stroke="#63b8ff" d="M88.79,-192.63C84.37,-190.68 80.06,-188.55 76,-186.25 57.7,-175.88 40,-158.78 29.83,-148.03"/>
<polygon fill="#63b8ff" stroke="#63b8ff" points="87.25,-195.79 97.84,-196.32 89.9,-189.31 87.25,-195.79"/>
</a>
</g>
</g>
<!-- Node14&#45;&gt;Node8 -->
<g id="edge18_Node000014_Node000008" class="edge">
<title>Node14&#45;&gt;Node8</title>
<g id="a_edge18_Node000014_Node000008"><a xlink:title=" ">
<path fill="none" stroke="#63b8ff" d="M90.48,-327.13C85.47,-329.28 80.58,-331.65 76,-334.25 57.7,-344.62 40,-361.72 29.83,-372.47"/>
<polygon fill="#63b8ff" stroke="#63b8ff" points="91.46,-330.5 99.46,-323.56 88.88,-324 91.46,-330.5"/>
</a>
</g>
</g>
<!-- Node17&#45;&gt;Node12 -->
<g id="edge22_Node000017_Node000012" class="edge">
<title>Node17&#45;&gt;Node12</title>
<g id="a_edge22_Node000017_Node000012"><a xlink:title=" ">
<path fill="none" stroke="#63b8ff" d="M90.45,-82.08C85.45,-84.24 80.57,-86.63 76,-89.25 57.58,-99.81 39.93,-117.28 29.79,-128.25"/>
<polygon fill="#63b8ff" stroke="#63b8ff" points="91.44,-85.45 99.43,-78.49 88.84,-78.95 91.44,-85.45"/>
</a>
</g>
</g>
<!-- Node18&#45;&gt;Node12 -->
<g id="edge24_Node000018_Node000012" class="edge">
<title>Node18&#45;&gt;Node12</title>
<g id="a_edge24_Node000018_Node000012"><a xlink:title=" ">
<path fill="none" stroke="#63b8ff" d="M87.21,-32.68C83.24,-34.91 79.45,-37.42 76,-40.25 46.57,-64.36 30.06,-108.6 23.87,-128.32"/>
<polygon fill="#63b8ff" stroke="#63b8ff" points="88.6,-35.89 96.06,-28.36 85.53,-29.6 88.6,-35.89"/>
</a>
</g>
</g>
</g>
</svg>

<g id="navigator" transform="translate(0 0)" fill="#404254">
  <rect fill="#f2f5e9" fill-opacity="0.5" stroke="#606060" stroke-width=".5" x="0" y="0" width="60" height="60"/>
  <use id="zoomplus" xlink:href="#zoomPlus" x="17" y="9" onmousedown="handleZoom(evt,'in')"/>
  <use id="zoomminus" xlink:href="#zoomMin" x="42" y="9" onmousedown="handleZoom(evt,'out')"/>
  <use id="reset" xlink:href="#resetDef" x="30" y="36" onmousedown="handleReset()"/>
   <use id="arrowup" xlink:href="#arrowUp" x="0" y="0" onmousedown="handlePan(0,-1)"/>
  <use id="arrowright" xlink:href="#arrowRight" x="0" y="0" onmousedown="handlePan(1,0)"/>
  <use id="arrowdown" xlink:href="#arrowDown" x="0" y="0" onmousedown="handlePan(0,1)"/>
  <use id="arrowleft" xlink:href="#arrowLeft" x="0" y="0" onmousedown="handlePan(-1,0)"/>
</g>
<svg viewBox="0 0 15 15" width="100%" height="30px" preserveAspectRatio="xMaxYMin meet">
 <g id="arrow_out" transform="scale(0.3 0.3)">
  <a xlink:href="classfabomatic_1_1_board_logic_ac2feade03b2a74a1998dcec282a8eacb_icgraph_org.svg" target="_base">
   <rect id="button" ry="5" rx="5" y="6" x="6" height="38" width="38"
        fill="#f2f5e9" fill-opacity="0.5" stroke="#606060" stroke-width="1.0"/>
   <path id="arrow"
     d="M 11.500037,31.436501 C 11.940474,20.09759 22.043105,11.32322 32.158766,21.979434 L 37.068811,17.246167 C 37.068811,17.246167 37.088388,32 37.088388,32 L 22.160133,31.978069 C 22.160133,31.978069 26.997745,27.140456 26.997745,27.140456 C 18.528582,18.264221 13.291696,25.230495 11.500037,31.436501 z"
     style="fill:#404040;"/>
  </a>
 </g>
</svg>

<style type='text/css'>
<![CDATA[
[data-mouse-over-selected='false'] { opacity: 0.7; }
[data-mouse-over-selected='true']  { opacity: 1.0; }
]]>
</style>
<script type="application/ecmascript"><![CDATA[
document.addEventListener('DOMContentLoaded', (event) => {
  highlightEdges();
  highlightAdjacentNodes();
});
]]></script>
</svg>
