<?xml version="1.0" encoding="UTF-8" standalone="no"?>
<!DOCTYPE svg PUBLIC "-//W3C//DTD SVG 1.1//EN"
 "http://www.w3.org/Graphics/SVG/1.1/DTD/svg11.dtd">
<!-- Generated by graphviz version 9.0.0 (20230911.1827)
 -->
<!-- Title: fabomatic::FabBackend Pages: 1 -->
<!--zoomable 1009 -->

<svg id="main" version="1.1" xmlns="http://www.w3.org/2000/svg" xmlns:xlink="http://www.w3.org/1999/xlink" xml:space="preserve" onload="init(evt)">
<style type="text/css"><![CDATA[
.node, .edge {opacity: 0.7;}
.node.selected, .edge.selected {opacity: 1;}
.edge:hover path { stroke: red; }
.edge:hover polygon { stroke: red; fill: red; }
]]></style>

<defs>
  <circle id="rim" cx="0" cy="0" r="7"/>
  <circle id="rim2" cx="0" cy="0" r="3.5"/>
  <g id="zoomPlus">
    <use xlink:href="#rim" fill="#404040"><set attributeName="fill" to="#808080" begin="zoomplus.mouseover" end="zoomplus.mouseout"/></use>
    <path d="M-4,0h8M0,-4v8" fill="none" stroke="white" stroke-width="1.5" pointer-events="none"/>
  </g>
  <g id="zoomMin">
    <use xlink:href="#rim" fill="#404040"><set attributeName="fill" to="#808080" begin="zoomminus.mouseover" end="zoomminus.mouseout"/></use>
    <path d="M-4,0h8" fill="none" stroke="white" stroke-width="1.5" pointer-events="none"/>
  </g>
  <g id="arrowUp" transform="translate(30 24)">
    <use xlink:href="#rim"/>
    <path pointer-events="none" fill="none" stroke="white" stroke-width="1.5" d="M0,-3.0v7 M-2.5,-0.5L0,-3.0L2.5,-0.5"/>
  </g>
  <g id="arrowRight" transform="rotate(90) translate(36 -43)">
    <use xlink:href="#rim"/>
    <path pointer-events="none" fill="none" stroke="white" stroke-width="1.5" d="M0,-3.0v7 M-2.5,-0.5L0,-3.0L2.5,-0.5"/>
  </g>
  <g id="arrowDown" transform="rotate(180) translate(-30 -48)">
    <use xlink:href="#rim"/>
    <path pointer-events="none" fill="none" stroke="white" stroke-width="1.5" d="M0,-3.0v7 M-2.5,-0.5L0,-3.0L2.5,-0.5"/>
  </g>
  <g id="arrowLeft" transform="rotate(270) translate(-36 17)">
    <use xlink:href="#rim"/>
    <path pointer-events="none" fill="none" stroke="white" stroke-width="1.5" d="M0,-3.0v7 M-2.5,-0.5L0,-3.0L2.5,-0.5"/>
  </g>
  <g id="resetDef">
    <use xlink:href="#rim2" fill="#404040"><set attributeName="fill" to="#808080" begin="reset.mouseover" end="reset.mouseout"/></use>
  </g>
</defs>
<script type="application/ecmascript">
var viewWidth = 286;
var viewHeight = 1009;
var sectionId = 'dynsection-0';
</script>
<script type="application/ecmascript" xlink:href="svg.min.js"/>
<svg id="graph" class="graph">
<g id="viewport">
<title>fabomatic::FabBackend</title>
<!-- Node1 -->
<g id="Node000001" class="node">
<title>Node1</title>
<g id="a_Node000001"><a xlink:title="This class is used to exchange messages with the MQTT broker and the backend.">
<polygon fill="#999999" stroke="none" points="158,-454 46,-454 46,0 158,0 158,-454"/>
<text text-anchor="start" x="51" y="-440.5" font-family="Helvetica,sans-Serif" font-size="10.00">fabomatic::FabBackend</text>
<text text-anchor="start" x="51.5" y="-425.5" font-family="Helvetica,sans-Serif" font-size="10.00">&#45;</text>
<text text-anchor="start" x="60" y="-425.5" font-family="Helvetica,sans-Serif" font-size="10.00">client</text>
<text text-anchor="start" x="51.5" y="-410.5" font-family="Helvetica,sans-Serif" font-size="10.00">&#45;</text>
<text text-anchor="start" x="60" y="-410.5" font-family="Helvetica,sans-Serif" font-size="10.00">doc</text>
<text text-anchor="start" x="51.5" y="-395.5" font-family="Helvetica,sans-Serif" font-size="10.00">&#45;</text>
<text text-anchor="start" x="60" y="-395.5" font-family="Helvetica,sans-Serif" font-size="10.00">wifi_ssid</text>
<text text-anchor="start" x="51.5" y="-380.5" font-family="Helvetica,sans-Serif" font-size="10.00">&#45;</text>
<text text-anchor="start" x="60" y="-380.5" font-family="Helvetica,sans-Serif" font-size="10.00">wifi_password</text>
<text text-anchor="start" x="51.5" y="-365.5" font-family="Helvetica,sans-Serif" font-size="10.00">&#45;</text>
<text text-anchor="start" x="60" y="-365.5" font-family="Helvetica,sans-Serif" font-size="10.00">callback</text>
<text text-anchor="start" x="51.5" y="-350.5" font-family="Helvetica,sans-Serif" font-size="10.00">&#45;</text>
<text text-anchor="start" x="60" y="-350.5" font-family="Helvetica,sans-Serif" font-size="10.00">wifi_client</text>
<text text-anchor="start" x="51.5" y="-335.5" font-family="Helvetica,sans-Serif" font-size="10.00">&#45;</text>
<text text-anchor="start" x="60" y="-335.5" font-family="Helvetica,sans-Serif" font-size="10.00">mqtt_connected</text>
<text text-anchor="start" x="51.5" y="-320.5" font-family="Helvetica,sans-Serif" font-size="10.00">&#45;</text>
<text text-anchor="start" x="60" y="-320.5" font-family="Helvetica,sans-Serif" font-size="10.00">answer_pending</text>
<text text-anchor="start" x="51.5" y="-305.5" font-family="Helvetica,sans-Serif" font-size="10.00">&#45;</text>
<text text-anchor="start" x="60" y="-305.5" font-family="Helvetica,sans-Serif" font-size="10.00">channel</text>
<text text-anchor="start" x="51.5" y="-290.5" font-family="Helvetica,sans-Serif" font-size="10.00">&#45;</text>
<text text-anchor="start" x="60" y="-290.5" font-family="Helvetica,sans-Serif" font-size="10.00">last_unresponsive</text>
<text text-anchor="start" x="51.5" y="-275.5" font-family="Helvetica,sans-Serif" font-size="10.00">&#45;</text>
<text text-anchor="start" x="60" y="-275.5" font-family="Helvetica,sans-Serif" font-size="10.00">MAX_MSG_SIZE</text>
<text text-anchor="start" x="50" y="-260.5" font-family="Helvetica,sans-Serif" font-size="10.00">+</text>
<text text-anchor="start" x="60" y="-260.5" font-family="Helvetica,sans-Serif" font-size="10.00">FabBackend()</text>
<text text-anchor="start" x="50" y="-245.5" font-family="Helvetica,sans-Serif" font-size="10.00">+</text>
<text text-anchor="start" x="60" y="-245.5" font-family="Helvetica,sans-Serif" font-size="10.00">checkCard()</text>
<text text-anchor="start" x="50" y="-230.5" font-family="Helvetica,sans-Serif" font-size="10.00">+</text>
<text text-anchor="start" x="60" y="-230.5" font-family="Helvetica,sans-Serif" font-size="10.00">checkMachine()</text>
<text text-anchor="start" x="50" y="-215.5" font-family="Helvetica,sans-Serif" font-size="10.00">+</text>
<text text-anchor="start" x="60" y="-215.5" font-family="Helvetica,sans-Serif" font-size="10.00">startUse()</text>
<text text-anchor="start" x="50" y="-200.5" font-family="Helvetica,sans-Serif" font-size="10.00">+</text>
<text text-anchor="start" x="60" y="-200.5" font-family="Helvetica,sans-Serif" font-size="10.00">inUse()</text>
<text text-anchor="start" x="50" y="-185.5" font-family="Helvetica,sans-Serif" font-size="10.00">+</text>
<text text-anchor="start" x="60" y="-185.5" font-family="Helvetica,sans-Serif" font-size="10.00">finishUse()</text>
<text text-anchor="start" x="50" y="-170.5" font-family="Helvetica,sans-Serif" font-size="10.00">+</text>
<text text-anchor="start" x="60" y="-170.5" font-family="Helvetica,sans-Serif" font-size="10.00">registerMaintenance()</text>
<text text-anchor="start" x="50" y="-155.5" font-family="Helvetica,sans-Serif" font-size="10.00">+</text>
<text text-anchor="start" x="60" y="-155.5" font-family="Helvetica,sans-Serif" font-size="10.00">alive()</text>
<text text-anchor="start" x="50" y="-140.5" font-family="Helvetica,sans-Serif" font-size="10.00">+</text>
<text text-anchor="start" x="60" y="-140.5" font-family="Helvetica,sans-Serif" font-size="10.00">publish()</text>
<text text-anchor="start" x="50" y="-125.5" font-family="Helvetica,sans-Serif" font-size="10.00">+</text>
<text text-anchor="start" x="60" y="-125.5" font-family="Helvetica,sans-Serif" font-size="10.00">isOnline()</text>
<text text-anchor="start" x="60" y="-110.5" font-family="Helvetica,sans-Serif" font-size="10.00">and 18 more...</text>
<text text-anchor="start" x="51.5" y="-95.5" font-family="Helvetica,sans-Serif" font-size="10.00">&#45;</text>
<text text-anchor="start" x="60" y="-95.5" font-family="Helvetica,sans-Serif" font-size="10.00">messageReceived()</text>
<text text-anchor="start" x="51.5" y="-80.5" font-family="Helvetica,sans-Serif" font-size="10.00">&#45;</text>
<text text-anchor="start" x="60" y="-80.5" font-family="Helvetica,sans-Serif" font-size="10.00">publish()</text>
<text text-anchor="start" x="51.5" y="-65.5" font-family="Helvetica,sans-Serif" font-size="10.00">&#45;</text>
<text text-anchor="start" x="60" y="-65.5" font-family="Helvetica,sans-Serif" font-size="10.00">waitForAnswer()</text>
<text text-anchor="start" x="51.5" y="-50.5" font-family="Helvetica,sans-Serif" font-size="10.00">&#45;</text>
<text text-anchor="start" x="60" y="-50.5" font-family="Helvetica,sans-Serif" font-size="10.00">publishWithReply()</text>
<text text-anchor="start" x="51.5" y="-35.5" font-family="Helvetica,sans-Serif" font-size="10.00">&#45;</text>
<text text-anchor="start" x="60" y="-35.5" font-family="Helvetica,sans-Serif" font-size="10.00">processQuery()</text>
<text text-anchor="start" x="51.5" y="-20.5" font-family="Helvetica,sans-Serif" font-size="10.00">&#45;</text>
<text text-anchor="start" x="60" y="-20.5" font-family="Helvetica,sans-Serif" font-size="10.00">processQuery()</text>
<text text-anchor="start" x="51.5" y="-5.5" font-family="Helvetica,sans-Serif" font-size="10.00">&#45;</text>
<text text-anchor="start" x="60" y="-5.5" font-family="Helvetica,sans-Serif" font-size="10.00">loadBuffer()</text>
<polygon fill="#666666" stroke="#666666" points="46,-437 46,-437 158,-437 158,-437 46,-437"/>
<polygon fill="#666666" stroke="#666666" points="46,-272 46,-272 58,-272 58,-272 46,-272"/>
<polygon fill="#666666" stroke="#666666" points="58,-272 58,-272 158,-272 158,-272 58,-272"/>
<polygon fill="none" stroke="#666666" points="46,0 46,-454 158,-454 158,0 46,0"/>
</a>
</g>
</g>
<!-- Node2 -->
<g id="Node000002" class="node">
<title>Node2</title>
<g id="a_Node000002"><a xlink:title=" ">
<polygon fill="white" stroke="none" points="72,-730.25 20,-730.25 20,-681.25 72,-681.25 72,-730.25"/>
<text text-anchor="start" x="25" y="-716.75" font-family="Helvetica,sans-Serif" font-size="10.00">std::string</text>
<text text-anchor="start" x="44.5" y="-701.75" font-family="Helvetica,sans-Serif" font-size="10.00"> </text>
<text text-anchor="start" x="44.5" y="-686.75" font-family="Helvetica,sans-Serif" font-size="10.00"> </text>
<polygon fill="#666666" stroke="#666666" points="20,-713.25 20,-713.25 72,-713.25 72,-713.25 20,-713.25"/>
<polygon fill="#666666" stroke="#666666" points="20,-698.25 20,-698.25 72,-698.25 72,-698.25 20,-698.25"/>
<polygon fill="none" stroke="#666666" points="20,-681.25 20,-730.25 72,-730.25 72,-681.25 20,-681.25"/>
</a>
</g>
</g>
<!-- Node2&#45;&gt;Node1 -->
<g id="edge1_Node000001_Node000002" class="edge">
<title>Node2&#45;&gt;Node1</title>
<g id="a_edge1_Node000001_Node000002"><a xlink:title=" ">
<path fill="none" stroke="#63b8ff" d="M44.72,-681.53C42.76,-639.54 40.07,-548.29 48.75,-472 48.95,-470.21 49.17,-468.41 49.38,-466.61"/>
<polygon fill="none" stroke="#63b8ff" points="49.4,-466.52 46.2,-460.05 50.94,-454.62 54.13,-461.08 49.4,-466.52"/>
</a>
</g>
<text text-anchor="middle" x="89.12" y="-586.25" font-family="Helvetica,sans-Serif" font-size="10.00" fill="grey"> &#45;broker_hostname</text>
<text text-anchor="middle" x="89.12" y="-575" font-family="Helvetica,sans-Serif" font-size="10.00" fill="grey">&#45;last_query</text>
<text text-anchor="middle" x="89.12" y="-563.75" font-family="Helvetica,sans-Serif" font-size="10.00" fill="grey">&#45;last_reply</text>
<text text-anchor="middle" x="89.12" y="-552.5" font-family="Helvetica,sans-Serif" font-size="10.00" fill="grey">&#45;last_request</text>
<text text-anchor="middle" x="89.12" y="-541.25" font-family="Helvetica,sans-Serif" font-size="10.00" fill="grey">&#45;mqtt_client_name</text>
<text text-anchor="middle" x="89.12" y="-530" font-family="Helvetica,sans-Serif" font-size="10.00" fill="grey">&#45;mqtt_password</text>
<text text-anchor="middle" x="89.12" y="-518.75" font-family="Helvetica,sans-Serif" font-size="10.00" fill="grey">&#45;mqtt_user</text>
<text text-anchor="middle" x="89.12" y="-507.5" font-family="Helvetica,sans-Serif" font-size="10.00" fill="grey">&#45;request_topic</text>
<text text-anchor="middle" x="89.12" y="-496.25" font-family="Helvetica,sans-Serif" font-size="10.00" fill="grey">&#45;response_topic</text>
<text text-anchor="middle" x="89.12" y="-485" font-family="Helvetica,sans-Serif" font-size="10.00" fill="grey">&#45;topic</text>
<text text-anchor="middle" x="89.12" y="-473.75" font-family="Helvetica,sans-Serif" font-size="10.00" fill="grey">...</text>
</g>
<!-- Node3 -->
<g id="Node000003" class="node">
<title>Node3</title>
<g id="a_Node000003"><a xlink:title=" ">
<polygon fill="white" stroke="none" points="86,-905 0,-905 0,-845 86,-845 86,-905"/>
<text text-anchor="start" x="4.75" y="-891.5" font-family="Helvetica,sans-Serif" font-size="10.00">std::basic_string&lt;</text>
<text text-anchor="start" x="27.62" y="-880.25" font-family="Helvetica,sans-Serif" font-size="10.00"> Char &gt;</text>
<text text-anchor="start" x="41.5" y="-865.5" font-family="Helvetica,sans-Serif" font-size="10.00"> </text>
<text text-anchor="start" x="41.5" y="-850.5" font-family="Helvetica,sans-Serif" font-size="10.00"> </text>
<polygon fill="#666666" stroke="#666666" points="0,-877 0,-877 86,-877 86,-877 0,-877"/>
<polygon fill="#666666" stroke="#666666" points="0,-862 0,-862 86,-862 86,-862 0,-862"/>
<polygon fill="none" stroke="#666666" points="0,-845 0,-905 86,-905 86,-845 0,-845"/>
</a>
</g>
</g>
<!-- Node3&#45;&gt;Node2 -->
<g id="edge2_Node000002_Node000003" class="edge">
<title>Node3&#45;&gt;Node2</title>
<g id="a_edge2_Node000002_Node000003"><a xlink:title=" ">
<path fill="none" stroke="#63b8ff" d="M43.72,-833.89C44.3,-801.43 45.1,-756.85 45.58,-730.01"/>
<polygon fill="none" stroke="#63b8ff" points="40.22,-833.67 43.54,-843.74 47.22,-833.8 40.22,-833.67"/>
</a>
</g>
</g>
<!-- Node4 -->
<g id="Node000004" class="node">
<title>Node4</title>
<g id="a_Node000004"><a xlink:href="classfabomatic_1_1_buffer.xhtml" target="_top" xlink:title="Class containing the buffered messages for future replay.">
<polygon fill="white" stroke="none" points="204.5,-797.75 105.5,-797.75 105.5,-613.75 204.5,-613.75 204.5,-797.75"/>
<text text-anchor="start" x="118.62" y="-784.25" font-family="Helvetica,sans-Serif" font-size="10.00">fabomatic::Buffer</text>
<text text-anchor="start" x="109.5" y="-769.25" font-family="Helvetica,sans-Serif" font-size="10.00">+</text>
<text text-anchor="start" x="119.5" y="-769.25" font-family="Helvetica,sans-Serif" font-size="10.00">MAX_MESSAGES</text>
<text text-anchor="start" x="111" y="-754.25" font-family="Helvetica,sans-Serif" font-size="10.00">&#45;</text>
<text text-anchor="start" x="119.5" y="-754.25" font-family="Helvetica,sans-Serif" font-size="10.00">has_changed</text>
<text text-anchor="start" x="111" y="-739.25" font-family="Helvetica,sans-Serif" font-size="10.00">&#45;</text>
<text text-anchor="start" x="119.5" y="-739.25" font-family="Helvetica,sans-Serif" font-size="10.00">MAGIC_NUMBER</text>
<text text-anchor="start" x="109.5" y="-724.25" font-family="Helvetica,sans-Serif" font-size="10.00">+</text>
<text text-anchor="start" x="119.5" y="-724.25" font-family="Helvetica,sans-Serif" font-size="10.00">push_back()</text>
<text text-anchor="start" x="109.5" y="-709.25" font-family="Helvetica,sans-Serif" font-size="10.00">+</text>
<text text-anchor="start" x="119.5" y="-709.25" font-family="Helvetica,sans-Serif" font-size="10.00">push_front()</text>
<text text-anchor="start" x="109.5" y="-694.25" font-family="Helvetica,sans-Serif" font-size="10.00">+</text>
<text text-anchor="start" x="119.5" y="-694.25" font-family="Helvetica,sans-Serif" font-size="10.00">getMessage()</text>
<text text-anchor="start" x="109.5" y="-679.25" font-family="Helvetica,sans-Serif" font-size="10.00">+</text>
<text text-anchor="start" x="119.5" y="-679.25" font-family="Helvetica,sans-Serif" font-size="10.00">count()</text>
<text text-anchor="start" x="109.5" y="-664.25" font-family="Helvetica,sans-Serif" font-size="10.00">+</text>
<text text-anchor="start" x="119.5" y="-664.25" font-family="Helvetica,sans-Serif" font-size="10.00">toJson()</text>
<text text-anchor="start" x="109.5" y="-649.25" font-family="Helvetica,sans-Serif" font-size="10.00">+</text>
<text text-anchor="start" x="119.5" y="-649.25" font-family="Helvetica,sans-Serif" font-size="10.00">hasChanged()</text>
<text text-anchor="start" x="109.5" y="-634.25" font-family="Helvetica,sans-Serif" font-size="10.00">+</text>
<text text-anchor="start" x="119.5" y="-634.25" font-family="Helvetica,sans-Serif" font-size="10.00">setChanged()</text>
<text text-anchor="start" x="109.5" y="-619.25" font-family="Helvetica,sans-Serif" font-size="10.00">+</text>
<text text-anchor="start" x="119.5" y="-619.25" font-family="Helvetica,sans-Serif" font-size="10.00">fromJsonElement()</text>
<polygon fill="#666666" stroke="#666666" points="105.5,-780.75 105.5,-780.75 204.5,-780.75 204.5,-780.75 105.5,-780.75"/>
<polygon fill="#666666" stroke="#666666" points="105.5,-735.75 105.5,-735.75 117.5,-735.75 117.5,-735.75 105.5,-735.75"/>
<polygon fill="#666666" stroke="#666666" points="117.5,-735.75 117.5,-735.75 204.5,-735.75 204.5,-735.75 117.5,-735.75"/>
<polygon fill="none" stroke="#666666" points="105.5,-613.75 105.5,-797.75 204.5,-797.75 204.5,-613.75 105.5,-613.75"/>
</a>
</g>
</g>
<!-- Node4&#45;&gt;Node1 -->
<g id="edge3_Node000001_Node000004" class="edge">
<title>Node4&#45;&gt;Node1</title>
<g id="a_edge3_Node000001_Node000004"><a xlink:title=" ">
<path fill="none" stroke="#63b8ff" d="M147.08,-613.77C143.16,-570.75 138.17,-518.7 133,-472 132.8,-470.24 132.61,-468.46 132.41,-466.69"/>
<polygon fill="none" stroke="#63b8ff" points="132.42,-466.78 127.77,-461.27 131.07,-454.86 135.72,-460.37 132.42,-466.78"/>
</a>
</g>
<text text-anchor="middle" x="159.62" y="-530" font-family="Helvetica,sans-Serif" font-size="10.00" fill="grey"> &#45;buffer</text>
</g>
<!-- Node5 -->
<g id="Node000005" class="node">
<title>Node5</title>
<g id="a_Node000005"><a xlink:title=" ">
<polygon fill="white" stroke="none" points="209.5,-905 104.5,-905 104.5,-845 209.5,-845 209.5,-905"/>
<text text-anchor="start" x="109.38" y="-891.5" font-family="Helvetica,sans-Serif" font-size="10.00">std::deque&lt; fabomatic</text>
<text text-anchor="start" x="123.25" y="-880.25" font-family="Helvetica,sans-Serif" font-size="10.00">::BufferedMsg &gt;</text>
<text text-anchor="start" x="155.5" y="-865.5" font-family="Helvetica,sans-Serif" font-size="10.00"> </text>
<text text-anchor="start" x="155.5" y="-850.5" font-family="Helvetica,sans-Serif" font-size="10.00"> </text>
<polygon fill="#666666" stroke="#666666" points="104.5,-877 104.5,-877 209.5,-877 209.5,-877 104.5,-877"/>
<polygon fill="#666666" stroke="#666666" points="104.5,-862 104.5,-862 209.5,-862 209.5,-862 104.5,-862"/>
<polygon fill="none" stroke="#666666" points="104.5,-845 104.5,-905 209.5,-905 209.5,-845 104.5,-845"/>
</a>
</g>
</g>
<!-- Node5&#45;&gt;Node4 -->
<g id="edge4_Node000004_Node000005" class="edge">
<title>Node5&#45;&gt;Node4</title>
<g id="a_edge4_Node000004_Node000005"><a xlink:title=" ">
<path fill="none" stroke="#63b8ff" d="M156.66,-845.25C156.54,-835.16 156.39,-823.17 156.24,-810.52"/>
<polygon fill="none" stroke="#63b8ff" points="156.24,-810.6 152.17,-804.65 156.1,-798.6 160.17,-804.55 156.24,-810.6"/>
</a>
</g>
<text text-anchor="middle" x="183.75" y="-817.5" font-family="Helvetica,sans-Serif" font-size="10.00" fill="grey"> &#45;msg_queue</text>
</g>
<!-- Node6 -->
<g id="Node000006" class="node">
<title>Node6</title>
<g id="a_Node000006"><a xlink:title=" ">
<polygon fill="white" stroke="none" points="195,-1001.25 119,-1001.25 119,-952.25 195,-952.25 195,-1001.25"/>
<text text-anchor="start" x="123.62" y="-987.75" font-family="Helvetica,sans-Serif" font-size="10.00">std::deque&lt; T &gt;</text>
<text text-anchor="start" x="155.5" y="-972.75" font-family="Helvetica,sans-Serif" font-size="10.00"> </text>
<text text-anchor="start" x="155.5" y="-957.75" font-family="Helvetica,sans-Serif" font-size="10.00"> </text>
<polygon fill="#666666" stroke="#666666" points="119,-984.25 119,-984.25 195,-984.25 195,-984.25 119,-984.25"/>
<polygon fill="#666666" stroke="#666666" points="119,-969.25 119,-969.25 195,-969.25 195,-969.25 119,-969.25"/>
<polygon fill="none" stroke="#666666" points="119,-952.25 119,-1001.25 195,-1001.25 195,-952.25 119,-952.25"/>
</a>
</g>
</g>
<!-- Node6&#45;&gt;Node5 -->
<g id="edge5_Node000005_Node000006" class="edge">
<title>Node6&#45;&gt;Node5</title>
<g id="a_edge5_Node000005_Node000006"><a xlink:title=" ">
<path fill="none" stroke="orange" d="M157,-941.1C157,-929.3 157,-916.25 157,-904.95"/>
<polygon fill="orange" stroke="orange" points="153.5,-940.85 157,-950.85 160.5,-940.85 153.5,-940.85"/>
</a>
</g>
<text text-anchor="middle" x="217.38" y="-924.75" font-family="Helvetica,sans-Serif" font-size="10.00" fill="grey"> &lt; fabomatic::BufferedMsg &gt;</text>
</g>
</g>
</svg>

<g id="navigator" transform="translate(0 0)" fill="#404254">
  <rect fill="#f2f5e9" fill-opacity="0.5" stroke="#606060" stroke-width=".5" x="0" y="0" width="60" height="60"/>
  <use id="zoomplus" xlink:href="#zoomPlus" x="17" y="9" onmousedown="handleZoom(evt,'in')"/>
  <use id="zoomminus" xlink:href="#zoomMin" x="42" y="9" onmousedown="handleZoom(evt,'out')"/>
  <use id="reset" xlink:href="#resetDef" x="30" y="36" onmousedown="handleReset()"/>
   <use id="arrowup" xlink:href="#arrowUp" x="0" y="0" onmousedown="handlePan(0,-1)"/>
  <use id="arrowright" xlink:href="#arrowRight" x="0" y="0" onmousedown="handlePan(1,0)"/>
  <use id="arrowdown" xlink:href="#arrowDown" x="0" y="0" onmousedown="handlePan(0,1)"/>
  <use id="arrowleft" xlink:href="#arrowLeft" x="0" y="0" onmousedown="handlePan(-1,0)"/>
</g>
<svg viewBox="0 0 15 15" width="100%" height="30px" preserveAspectRatio="xMaxYMin meet">
 <g id="arrow_out" transform="scale(0.3 0.3)">
  <a xlink:href="classfabomatic_1_1_fab_backend__coll__graph_org.svg" target="_base">
   <rect id="button" ry="5" rx="5" y="6" x="6" height="38" width="38"
        fill="#f2f5e9" fill-opacity="0.5" stroke="#606060" stroke-width="1.0"/>
   <path id="arrow"
     d="M 11.500037,31.436501 C 11.940474,20.09759 22.043105,11.32322 32.158766,21.979434 L 37.068811,17.246167 C 37.068811,17.246167 37.088388,32 37.088388,32 L 22.160133,31.978069 C 22.160133,31.978069 26.997745,27.140456 26.997745,27.140456 C 18.528582,18.264221 13.291696,25.230495 11.500037,31.436501 z"
     style="fill:#404040;"/>
  </a>
 </g>
</svg>

<style type='text/css'>
<![CDATA[
[data-mouse-over-selected='false'] { opacity: 0.7; }
[data-mouse-over-selected='true']  { opacity: 1.0; }
]]>
</style>
<script type="application/ecmascript"><![CDATA[
document.addEventListener('DOMContentLoaded', (event) => {
  highlightEdges();
  highlightAdjacentNodes();
});
]]></script>
</svg>
