<?xml version="1.0" encoding="UTF-8" standalone="no"?>
<!DOCTYPE svg PUBLIC "-//W3C//DTD SVG 1.1//EN"
 "http://www.w3.org/Graphics/SVG/1.1/DTD/svg11.dtd">
<!-- Generated by graphviz version 9.0.0 (20230911.1827)
 -->
<!-- Title: fabomatic::BufferedQuery Pages: 1 -->
<svg width="241pt" height="393pt"
 viewBox="0.00 0.00 240.50 392.50" xmlns="http://www.w3.org/2000/svg" xmlns:xlink="http://www.w3.org/1999/xlink">

<svg id="main" version="1.1" xmlns="http://www.w3.org/2000/svg" xmlns:xlink="http://www.w3.org/1999/xlink" xml:space="preserve" onload="init(evt)">
<style type="text/css"><![CDATA[
.node, .edge {opacity: 0.7;}
.node.selected, .edge.selected {opacity: 1;}
.edge:hover path { stroke: red; }
.edge:hover polygon { stroke: red; fill: red; }
]]></style>
<script type="application/ecmascript" xlink:href="svg.min.js"/>
<svg id="graph" class="graph">
<g id="graph0" class="graph" transform="scale(1 1) rotate(0) translate(4 388.5)">
<title>fabomatic::BufferedQuery</title>
<!-- Node1 -->
<g id="Node000001" class="node">
<title>Node1</title>
<g id="a_Node000001"><a xlink:title="Query to be replayed.">
<polygon fill="#999999" stroke="none" points="157.5,-124 39.5,-124 39.5,0 157.5,0 157.5,-124"/>
<text text-anchor="start" x="44.12" y="-110.5" font-family="Helvetica,sans-Serif" font-size="10.00">fabomatic::BufferedQuery</text>
<text text-anchor="start" x="52" y="-95.5" font-family="Helvetica,sans-Serif" font-size="10.00">&#45;</text>
<text text-anchor="start" x="67.5" y="-95.5" font-family="Helvetica,sans-Serif" font-size="10.00">wait_for_answer</text>
<text text-anchor="start" x="50.5" y="-80.5" font-family="Helvetica,sans-Serif" font-size="10.00">+</text>
<text text-anchor="start" x="67.5" y="-80.5" font-family="Helvetica,sans-Serif" font-size="10.00">BufferedQuery()</text>
<text text-anchor="start" x="50.5" y="-65.5" font-family="Helvetica,sans-Serif" font-size="10.00">+</text>
<text text-anchor="start" x="67.5" y="-65.5" font-family="Helvetica,sans-Serif" font-size="10.00">BufferedQuery()</text>
<text text-anchor="start" x="50.5" y="-50.5" font-family="Helvetica,sans-Serif" font-size="10.00">+</text>
<text text-anchor="start" x="67.5" y="-50.5" font-family="Helvetica,sans-Serif" font-size="10.00">payload()</text>
<text text-anchor="start" x="50.5" y="-35.5" font-family="Helvetica,sans-Serif" font-size="10.00">+</text>
<text text-anchor="start" x="67.5" y="-35.5" font-family="Helvetica,sans-Serif" font-size="10.00">waitForReply()</text>
<text text-anchor="start" x="50.5" y="-20.5" font-family="Helvetica,sans-Serif" font-size="10.00">+</text>
<text text-anchor="start" x="67.5" y="-20.5" font-family="Helvetica,sans-Serif" font-size="10.00">buffered()</text>
<text text-anchor="start" x="50.5" y="-5.5" font-family="Helvetica,sans-Serif" font-size="10.00">+</text>
<text text-anchor="start" x="67.5" y="-5.5" font-family="Helvetica,sans-Serif" font-size="10.00">topic()</text>
<polygon fill="#666666" stroke="#666666" points="39.5,-107 39.5,-107 157.5,-107 157.5,-107 39.5,-107"/>
<polygon fill="#666666" stroke="#666666" points="39.5,-92 39.5,-92 65.5,-92 65.5,-92 39.5,-92"/>
<polygon fill="#666666" stroke="#666666" points="65.5,-92 65.5,-92 157.5,-92 157.5,-92 65.5,-92"/>
<polygon fill="none" stroke="#666666" points="39.5,0 39.5,-124 157.5,-124 157.5,0 39.5,0"/>
</a>
</g>
</g>
<!-- Node2 -->
<g id="Node000002" class="node">
<title>Node2</title>
<g id="a_Node000002"><a xlink:href="classfabomatic_1_1_m_q_t_t_interface_1_1_query.xhtml" target="_top" xlink:title="base class for all MQTT request to the backend">
<polygon fill="white" stroke="none" points="123,-287.5 0,-287.5 0,-182.5 123,-182.5 123,-287.5"/>
<text text-anchor="start" x="4.88" y="-274" font-family="Helvetica,sans-Serif" font-size="10.00">fabomatic::MQTTInterface</text>
<text text-anchor="start" x="46.5" y="-262.75" font-family="Helvetica,sans-Serif" font-size="10.00">::Query</text>
<text text-anchor="start" x="60" y="-248" font-family="Helvetica,sans-Serif" font-size="10.00"> </text>
<text text-anchor="start" x="14.5" y="-233" font-family="Helvetica,sans-Serif" font-size="10.00">+</text>
<text text-anchor="start" x="35" y="-233" font-family="Helvetica,sans-Serif" font-size="10.00">waitForReply()</text>
<text text-anchor="start" x="14.5" y="-218" font-family="Helvetica,sans-Serif" font-size="10.00">+</text>
<text text-anchor="start" x="35" y="-218" font-family="Helvetica,sans-Serif" font-size="10.00">payload()</text>
<text text-anchor="start" x="14.5" y="-203" font-family="Helvetica,sans-Serif" font-size="10.00">+</text>
<text text-anchor="start" x="35" y="-203" font-family="Helvetica,sans-Serif" font-size="10.00">buffered()</text>
<text text-anchor="start" x="14.5" y="-188" font-family="Helvetica,sans-Serif" font-size="10.00">+</text>
<text text-anchor="start" x="35" y="-188" font-family="Helvetica,sans-Serif" font-size="10.00">~Query()</text>
<polygon fill="#666666" stroke="#666666" points="0,-259.5 0,-259.5 123,-259.5 123,-259.5 0,-259.5"/>
<polygon fill="#666666" stroke="#666666" points="0,-244.5 0,-244.5 123,-244.5 123,-244.5 0,-244.5"/>
<polygon fill="none" stroke="#666666" points="0,-182.5 0,-287.5 123,-287.5 123,-182.5 0,-182.5"/>
</a>
</g>
</g>
<!-- Node2&#45;&gt;Node1 -->
<g id="edge1_Node000001_Node000002" class="edge">
<title>Node2&#45;&gt;Node1</title>
<g id="a_edge1_Node000001_Node000002"><a xlink:title=" ">
<path fill="none" stroke="#63b8ff" d="M75,-171.6C78.37,-156.05 81.97,-139.39 85.32,-123.91"/>
<polygon fill="none" stroke="#63b8ff" points="71.62,-170.7 72.92,-181.22 78.46,-172.18 71.62,-170.7"/>
</a>
</g>
</g>
<!-- Node3 -->
<g id="Node000003" class="node">
<title>Node3</title>
<g id="a_Node000003"><a xlink:title=" ">
<polygon fill="white" stroke="none" points="218,-259.5 141,-259.5 141,-210.5 218,-210.5 218,-259.5"/>
<text text-anchor="start" x="145.75" y="-246" font-family="Helvetica,sans-Serif" font-size="10.00">std::string_view</text>
<text text-anchor="start" x="178" y="-231" font-family="Helvetica,sans-Serif" font-size="10.00"> </text>
<text text-anchor="start" x="178" y="-216" font-family="Helvetica,sans-Serif" font-size="10.00"> </text>
<polygon fill="#666666" stroke="#666666" points="141,-242.5 141,-242.5 218,-242.5 218,-242.5 141,-242.5"/>
<polygon fill="#666666" stroke="#666666" points="141,-227.5 141,-227.5 218,-227.5 218,-227.5 141,-227.5"/>
<polygon fill="none" stroke="#666666" points="141,-210.5 141,-259.5 218,-259.5 218,-210.5 141,-210.5"/>
</a>
</g>
</g>
<!-- Node3&#45;&gt;Node1 -->
<g id="edge2_Node000001_Node000003" class="edge">
<title>Node3&#45;&gt;Node1</title>
<g id="a_edge2_Node000001_Node000003"><a xlink:title=" ">
<path fill="none" stroke="#63b8ff" d="M168.41,-210.58C159.16,-191.05 145.47,-162.15 132.65,-135.08"/>
<polygon fill="none" stroke="#63b8ff" points="132.74,-135.29 126.56,-131.58 127.61,-124.45 133.79,-128.16 132.74,-135.29"/>
</a>
</g>
<text text-anchor="middle" x="171" y="-155" font-family="Helvetica,sans-Serif" font-size="10.00" fill="grey"> &#45;mqtt_topic</text>
<text text-anchor="middle" x="171" y="-143.75" font-family="Helvetica,sans-Serif" font-size="10.00" fill="grey">&#45;mqtt_value</text>
</g>
<!-- Node4 -->
<g id="Node000004" class="node">
<title>Node4</title>
<g id="a_Node000004"><a xlink:title=" ">
<polygon fill="white" stroke="none" points="232.5,-384.5 126.5,-384.5 126.5,-324.5 232.5,-324.5 232.5,-384.5"/>
<text text-anchor="start" x="131.5" y="-371" font-family="Helvetica,sans-Serif" font-size="10.00">std::basic_string_view</text>
<text text-anchor="start" x="161.12" y="-359.75" font-family="Helvetica,sans-Serif" font-size="10.00">&lt; Char &gt;</text>
<text text-anchor="start" x="178" y="-345" font-family="Helvetica,sans-Serif" font-size="10.00"> </text>
<text text-anchor="start" x="178" y="-330" font-family="Helvetica,sans-Serif" font-size="10.00"> </text>
<polygon fill="#666666" stroke="#666666" points="126.5,-356.5 126.5,-356.5 232.5,-356.5 232.5,-356.5 126.5,-356.5"/>
<polygon fill="#666666" stroke="#666666" points="126.5,-341.5 126.5,-341.5 232.5,-341.5 232.5,-341.5 126.5,-341.5"/>
<polygon fill="none" stroke="#666666" points="126.5,-324.5 126.5,-384.5 232.5,-384.5 232.5,-324.5 126.5,-324.5"/>
</a>
</g>
</g>
<!-- Node4&#45;&gt;Node3 -->
<g id="edge3_Node000003_Node000004" class="edge">
<title>Node4&#45;&gt;Node3</title>
<g id="a_edge3_Node000003_Node000004"><a xlink:title=" ">
<path fill="none" stroke="#63b8ff" d="M179.5,-313.38C179.5,-295.36 179.5,-274.75 179.5,-259.32"/>
<polygon fill="none" stroke="#63b8ff" points="176,-313.24 179.5,-323.24 183,-313.24 176,-313.24"/>
</a>
</g>
</g>
</g>
</svg>
</svg>

<style type='text/css'>
<![CDATA[
[data-mouse-over-selected='false'] { opacity: 0.7; }
[data-mouse-over-selected='true']  { opacity: 1.0; }
]]>
</style>
<script type="application/ecmascript"><![CDATA[
document.addEventListener('DOMContentLoaded', (event) => {
  highlightEdges();
  highlightAdjacentNodes();
});
]]></script>
</svg>
