<?xml version="1.0" encoding="UTF-8" standalone="no"?>
<!DOCTYPE svg PUBLIC "-//W3C//DTD SVG 1.1//EN"
 "http://www.w3.org/Graphics/SVG/1.1/DTD/svg11.dtd">
<!-- Generated by graphviz version 9.0.0 (20230911.1827)
 -->
<!-- Title: fabomatic::BoardLogic::changeStatus Pages: 1 -->
<svg width="1234pt" height="823pt"
 viewBox="0.00 0.00 1234.00 822.50" xmlns="http://www.w3.org/2000/svg" xmlns:xlink="http://www.w3.org/1999/xlink">
<g id="graph0" class="graph" transform="scale(1 1) rotate(0) translate(4 818.5)">
<title>fabomatic::BoardLogic::changeStatus</title>
<!-- Node1 -->
<g id="Node000001" class="node">
<title>Node1</title>
<g id="a_Node000001"><a xlink:title="Sets the board in the state given.">
<polygon fill="#999999" stroke="#666666" points="1226,-262.5 1113.25,-262.5 1113.25,-232 1226,-232 1226,-262.5"/>
<text text-anchor="start" x="1121.25" y="-249" font-family="Helvetica,sans-Serif" font-size="10.00">fabomatic::BoardLogic</text>
<text text-anchor="middle" x="1169.62" y="-237.75" font-family="Helvetica,sans-Serif" font-size="10.00">::changeStatus</text>
</a>
</g>
</g>
<!-- Node2 -->
<g id="Node000002" class="node">
<title>Node2</title>
<g id="a_Node000002"><a xlink:href="classfabomatic_1_1_board_logic.xhtml#a51390e6bf10c4de427abd7f175a2e6a8" target="_top" xlink:title="Checks if the card UID is valid, and tries to check the user in to the machine.">
<polygon fill="white" stroke="#666666" points="1055.88,-557.5 943.12,-557.5 943.12,-527 1055.88,-527 1055.88,-557.5"/>
<text text-anchor="start" x="951.12" y="-544" font-family="Helvetica,sans-Serif" font-size="10.00">fabomatic::BoardLogic</text>
<text text-anchor="middle" x="999.5" y="-532.75" font-family="Helvetica,sans-Serif" font-size="10.00">::authorize</text>
</a>
</g>
</g>
<!-- Node1&#45;&gt;Node2 -->
<g id="edge1_Node000001_Node000002" class="edge">
<title>Node1&#45;&gt;Node2</title>
<g id="a_edge1_Node000001_Node000002"><a xlink:title=" ">
<path fill="none" stroke="#63b8ff" d="M1159.62,-273.68C1145.32,-313.93 1115.09,-392.26 1077.25,-452.25 1059.28,-480.73 1032.84,-509.66 1016.15,-526.77"/>
<polygon fill="#63b8ff" stroke="#63b8ff" points="1162.89,-274.95 1162.89,-264.35 1156.28,-272.64 1162.89,-274.95"/>
</a>
</g>
</g>
<!-- Node3 -->
<g id="Node000003" class="node">
<title>Node3</title>
<g id="a_Node000003"><a xlink:href="classfabomatic_1_1_board_logic.xhtml#a983c8de8b9c8881fc0a4e60dddc7f0c6" target="_top" xlink:title="Called when a RFID tag has been detected.">
<polygon fill="white" stroke="#666666" points="873.75,-600.5 761,-600.5 761,-570 873.75,-570 873.75,-600.5"/>
<text text-anchor="start" x="769" y="-587" font-family="Helvetica,sans-Serif" font-size="10.00">fabomatic::BoardLogic</text>
<text text-anchor="middle" x="817.38" y="-575.75" font-family="Helvetica,sans-Serif" font-size="10.00">::onNewCard</text>
</a>
</g>
</g>
<!-- Node1&#45;&gt;Node3 -->
<g id="edge39_Node000001_Node000003" class="edge">
<title>Node1&#45;&gt;Node3</title>
<g id="a_edge39_Node000001_Node000003"><a xlink:title=" ">
<path fill="none" stroke="#63b8ff" d="M1164.89,-274.11C1154.58,-344.01 1123.43,-528.71 1077.25,-566.25 1020.43,-612.44 931.43,-607.65 874.01,-597.98"/>
<polygon fill="#63b8ff" stroke="#63b8ff" points="1168.34,-274.72 1166.3,-264.32 1161.41,-273.72 1168.34,-274.72"/>
</a>
</g>
</g>
<!-- Node4 -->
<g id="Node000004" class="node">
<title>Node4</title>
<g id="a_Node000004"><a xlink:href="classfabomatic_1_1_board_logic.xhtml#a25bdc3a49d850aa49f92faf951b68efb" target="_top" xlink:title="Checks if a new card is present.">
<polygon fill="white" stroke="#666666" points="699.5,-641.5 586.75,-641.5 586.75,-611 699.5,-611 699.5,-641.5"/>
<text text-anchor="start" x="594.75" y="-628" font-family="Helvetica,sans-Serif" font-size="10.00">fabomatic::BoardLogic</text>
<text text-anchor="middle" x="643.12" y="-616.75" font-family="Helvetica,sans-Serif" font-size="10.00">::checkRfid</text>
</a>
</g>
</g>
<!-- Node1&#45;&gt;Node4 -->
<g id="edge27_Node000001_Node000004" class="edge">
<title>Node1&#45;&gt;Node4</title>
<g id="a_edge27_Node000001_Node000004"><a xlink:title=" ">
<path fill="none" stroke="#63b8ff" d="M1165.71,-273.87C1156.94,-348.53 1128.24,-557.21 1077.25,-599.25 969.28,-688.28 789.96,-662.33 699.68,-641.38"/>
<polygon fill="#63b8ff" stroke="#63b8ff" points="1169.15,-274.54 1166.81,-264.2 1162.2,-273.74 1169.15,-274.54"/>
</a>
</g>
</g>
<!-- Node16 -->
<g id="Node000016" class="node">
<title>Node16</title>
<g id="a_Node000016"><a xlink:href="namespacefabomatic.xhtml#aaa30fd4002cc95e50c035f2d3dcdb44d" target="_top" xlink:title=" ">
<polygon fill="white" stroke="#666666" points="1074.62,-294.88 924.38,-294.88 924.38,-275.62 1074.62,-275.62 1074.62,-294.88"/>
<text text-anchor="middle" x="999.5" y="-281.38" font-family="Helvetica,sans-Serif" font-size="10.00">fabomatic::configModeCallback</text>
</a>
</g>
</g>
<!-- Node1&#45;&gt;Node16 -->
<g id="edge28_Node000001_Node000016" class="edge">
<title>Node1&#45;&gt;Node16</title>
<g id="a_edge28_Node000001_Node000016"><a xlink:title=" ">
<path fill="none" stroke="#63b8ff" d="M1102.02,-262.3C1082.9,-266.63 1062.51,-271.23 1045.06,-275.18"/>
<polygon fill="#63b8ff" stroke="#63b8ff" points="1102.65,-265.75 1111.63,-260.13 1101.11,-258.92 1102.65,-265.75"/>
</a>
</g>
</g>
<!-- Node17 -->
<g id="Node000017" class="node">
<title>Node17</title>
<g id="a_Node000017"><a xlink:href="namespacefabomatic.xhtml#a8374c0d1cef777c26dc13b4abc9c52b6" target="_top" xlink:title="Open the ArduinoOTA configuration portal.">
<polygon fill="white" stroke="#666666" points="885.75,-256.88 749,-256.88 749,-237.62 885.75,-237.62 885.75,-256.88"/>
<text text-anchor="middle" x="817.38" y="-243.38" font-family="Helvetica,sans-Serif" font-size="10.00">fabomatic::openConfigPortal</text>
</a>
</g>
</g>
<!-- Node1&#45;&gt;Node17 -->
<g id="edge40_Node000001_Node000017" class="edge">
<title>Node1&#45;&gt;Node17</title>
<g id="a_edge40_Node000001_Node000017"><a xlink:title=" ">
<path fill="none" stroke="#63b8ff" d="M1101.94,-247.25C1040.07,-247.25 948.44,-247.25 886.22,-247.25"/>
<polygon fill="#63b8ff" stroke="#63b8ff" points="1101.61,-250.75 1111.61,-247.25 1101.61,-243.75 1101.61,-250.75"/>
</a>
</g>
</g>
<!-- Node18 -->
<g id="Node000018" class="node">
<title>Node18</title>
<g id="a_Node000018"><a xlink:href="main_8cpp.xhtml#a4fc01d736fe50cf5b977f755b675f11d" target="_top" xlink:title=" ">
<polygon fill="white" stroke="#666666" points="663.12,-200.88 623.12,-200.88 623.12,-181.62 663.12,-181.62 663.12,-200.88"/>
<text text-anchor="middle" x="643.12" y="-187.38" font-family="Helvetica,sans-Serif" font-size="10.00">setup</text>
</a>
</g>
</g>
<!-- Node1&#45;&gt;Node18 -->
<g id="edge41_Node000001_Node000018" class="edge">
<title>Node1&#45;&gt;Node18</title>
<g id="a_edge41_Node000001_Node000018"><a xlink:title=" ">
<path fill="none" stroke="#63b8ff" d="M1143.09,-224.55C1125.73,-210.39 1101.57,-193.05 1077.25,-183.25 941.38,-128.48 893.29,-127.92 749,-153.25 717.91,-158.71 683.89,-172.62 663.28,-182.01"/>
<polygon fill="#63b8ff" stroke="#63b8ff" points="1140.44,-226.9 1150.35,-230.63 1144.93,-221.53 1140.44,-226.9"/>
</a>
</g>
</g>
<!-- Node20 -->
<g id="Node000020" class="node">
<title>Node20</title>
<g id="a_Node000020"><a xlink:href="classfabomatic_1_1_board_logic.xhtml#a98a15cc323f97adc394c29e897afc12d" target="_top" xlink:title="Removes the current machine user and changes the status to LoggedOut.">
<polygon fill="white" stroke="#666666" points="1055.88,-443.5 943.12,-443.5 943.12,-413 1055.88,-413 1055.88,-443.5"/>
<text text-anchor="start" x="951.12" y="-430" font-family="Helvetica,sans-Serif" font-size="10.00">fabomatic::BoardLogic</text>
<text text-anchor="middle" x="999.5" y="-418.75" font-family="Helvetica,sans-Serif" font-size="10.00">::logout</text>
</a>
</g>
</g>
<!-- Node1&#45;&gt;Node20 -->
<g id="edge32_Node000001_Node000020" class="edge">
<title>Node1&#45;&gt;Node20</title>
<g id="a_edge32_Node000001_Node000020"><a xlink:title=" ">
<path fill="none" stroke="#63b8ff" d="M1146.22,-271.37C1111.17,-309.11 1044.35,-381.04 1014.97,-412.67"/>
<polygon fill="#63b8ff" stroke="#63b8ff" points="1148.73,-273.81 1152.97,-264.1 1143.6,-269.05 1148.73,-273.81"/>
</a>
</g>
</g>
<!-- Node23 -->
<g id="Node000023" class="node">
<title>Node23</title>
<g id="a_Node000023"><a xlink:href="namespacefabomatic.xhtml#a53440db527e478f13eaa71bbd46120c3" target="_top" xlink:title="Initialization of the Arduino OTA library with settings for fabomatic.">
<polygon fill="white" stroke="#666666" points="871.12,-181.88 763.62,-181.88 763.62,-162.62 871.12,-162.62 871.12,-181.88"/>
<text text-anchor="middle" x="817.38" y="-168.38" font-family="Helvetica,sans-Serif" font-size="10.00">fabomatic::setupOTA</text>
</a>
</g>
</g>
<!-- Node1&#45;&gt;Node23 -->
<g id="edge42_Node000001_Node000023" class="edge">
<title>Node1&#45;&gt;Node23</title>
<g id="a_edge42_Node000001_Node000023"><a xlink:title=" ">
<path fill="none" stroke="#63b8ff" d="M1116.33,-227.92C1103.66,-223.68 1090.06,-219.49 1077.25,-216.25 1006.98,-198.48 924.13,-185.81 871.44,-178.76"/>
<polygon fill="#63b8ff" stroke="#63b8ff" points="1115.17,-231.22 1125.76,-231.15 1117.43,-224.6 1115.17,-231.22"/>
</a>
</g>
</g>
<!-- Node24 -->
<g id="Node000024" class="node">
<title>Node24</title>
<g id="a_Node000024"><a xlink:href="namespacefabomatic.xhtml#ae7de89faffd3bb8805727b8a1092a198" target="_top" xlink:title="Opens WiFi and server connection and updates board state accordingly.">
<polygon fill="white" stroke="#666666" points="876.38,-218.88 758.38,-218.88 758.38,-199.62 876.38,-199.62 876.38,-218.88"/>
<text text-anchor="middle" x="817.38" y="-205.38" font-family="Helvetica,sans-Serif" font-size="10.00">fabomatic::taskConnect</text>
</a>
</g>
</g>
<!-- Node1&#45;&gt;Node24 -->
<g id="edge44_Node000001_Node000024" class="edge">
<title>Node1&#45;&gt;Node24</title>
<g id="a_edge44_Node000001_Node000024"><a xlink:title=" ">
<path fill="none" stroke="#63b8ff" d="M1101.78,-240C1036.72,-232.94 938.86,-222.32 876.82,-215.59"/>
<polygon fill="#63b8ff" stroke="#63b8ff" points="1101.3,-243.47 1111.62,-241.07 1102.06,-236.51 1101.3,-243.47"/>
</a>
</g>
</g>
<!-- Node25 -->
<g id="Node000025" class="node">
<title>Node25</title>
<g id="a_Node000025"><a xlink:href="namespacefabomatic.xhtml#a86a02975f3cc660ebccdde8f217aa035" target="_top" xlink:title="periodic check if the machine must be powered off">
<polygon fill="white" stroke="#666666" points="1077.25,-104.88 921.75,-104.88 921.75,-85.62 1077.25,-85.62 1077.25,-104.88"/>
<text text-anchor="middle" x="999.5" y="-91.38" font-family="Helvetica,sans-Serif" font-size="10.00">fabomatic::taskPoweroffWarning</text>
</a>
</g>
</g>
<!-- Node1&#45;&gt;Node25 -->
<g id="edge46_Node000001_Node000025" class="edge">
<title>Node1&#45;&gt;Node25</title>
<g id="a_edge46_Node000001_Node000025"><a xlink:title=" ">
<path fill="none" stroke="#63b8ff" d="M1156.72,-221.6C1142,-192.65 1114.31,-146.1 1077.25,-119.25 1069,-113.27 1059.21,-108.75 1049.43,-105.34"/>
<polygon fill="#63b8ff" stroke="#63b8ff" points="1153.49,-222.97 1161.04,-230.4 1159.77,-219.88 1153.49,-222.97"/>
</a>
</g>
</g>
<!-- Node26 -->
<g id="Node000026" class="node">
<title>Node26</title>
<g id="a_Node000026"><a xlink:href="namespacefabomatic.xhtml#a525d1f233a2f797801a9a659c5044cb7" target="_top" xlink:title="checks the RFID chip status and re&#45;init it if necessary.">
<polygon fill="white" stroke="#666666" points="1070.5,-67.88 928.5,-67.88 928.5,-48.62 1070.5,-48.62 1070.5,-67.88"/>
<text text-anchor="middle" x="999.5" y="-54.38" font-family="Helvetica,sans-Serif" font-size="10.00">fabomatic::taskRfidWatchdog</text>
</a>
</g>
</g>
<!-- Node1&#45;&gt;Node26 -->
<g id="edge47_Node000001_Node000026" class="edge">
<title>Node1&#45;&gt;Node26</title>
<g id="a_edge47_Node000001_Node000026"><a xlink:title=" ">
<path fill="none" stroke="#63b8ff" d="M1162.01,-220.96C1151.05,-182.98 1125.38,-113.24 1077.25,-76.25 1073.13,-73.08 1068.54,-70.46 1063.71,-68.28"/>
<polygon fill="#63b8ff" stroke="#63b8ff" points="1158.53,-221.49 1164.55,-230.2 1165.28,-219.63 1158.53,-221.49"/>
</a>
</g>
</g>
<!-- Node27 -->
<g id="Node000027" class="node">
<title>Node27</title>
<g id="a_Node000027"><a xlink:href="namespacefabomatic_1_1tests.xhtml#aec03a7ee459718d314b930fdd75d3cee" target="_top" xlink:title=" ">
<polygon fill="white" stroke="#666666" points="355.88,-314.5 249.88,-314.5 249.88,-284 355.88,-284 355.88,-314.5"/>
<text text-anchor="start" x="257.88" y="-301" font-family="Helvetica,sans-Serif" font-size="10.00">fabomatic::tests::test</text>
<text text-anchor="middle" x="302.88" y="-289.75" font-family="Helvetica,sans-Serif" font-size="10.00">_simple_methods</text>
</a>
</g>
</g>
<!-- Node1&#45;&gt;Node27 -->
<g id="edge48_Node000001_Node000027" class="edge">
<title>Node1&#45;&gt;Node27</title>
<g id="a_edge48_Node000001_Node000027"><a xlink:title=" ">
<path fill="none" stroke="#63b8ff" d="M1141.63,-269.74C1124.4,-282.6 1100.91,-297.48 1077.25,-304.25 941.55,-343.1 507.1,-314.76 356.14,-303.39"/>
<polygon fill="#63b8ff" stroke="#63b8ff" points="1143.55,-272.68 1149.33,-263.8 1139.27,-267.14 1143.55,-272.68"/>
</a>
</g>
</g>
<!-- Node28 -->
<g id="Node000028" class="node">
<title>Node28</title>
<g id="a_Node000028"><a xlink:href="namespacefabomatic_1_1tests.xhtml#a88a4242d48bfa4a0337df522d303c367" target="_top" xlink:title="Opens WiFi and server connection and updates board state accordingly.">
<polygon fill="white" stroke="#666666" points="1052.5,-30.5 946.5,-30.5 946.5,0 1052.5,0 1052.5,-30.5"/>
<text text-anchor="start" x="954.5" y="-17" font-family="Helvetica,sans-Serif" font-size="10.00">fabomatic::tests::test</text>
<text text-anchor="middle" x="999.5" y="-5.75" font-family="Helvetica,sans-Serif" font-size="10.00">_taskConnect</text>
</a>
</g>
</g>
<!-- Node1&#45;&gt;Node28 -->
<g id="edge50_Node000001_Node000028" class="edge">
<title>Node1&#45;&gt;Node28</title>
<g id="a_edge50_Node000001_Node000028"><a xlink:title=" ">
<path fill="none" stroke="#63b8ff" d="M1164.19,-220.41C1155.5,-176.25 1132.06,-88.29 1077.25,-39.25 1070.28,-33.01 1061.7,-28.4 1052.83,-24.98"/>
<polygon fill="#63b8ff" stroke="#63b8ff" points="1160.73,-220.95 1165.99,-230.14 1167.62,-219.67 1160.73,-220.95"/>
</a>
</g>
</g>
<!-- Node2&#45;&gt;Node3 -->
<g id="edge2_Node000002_Node000003" class="edge">
<title>Node2&#45;&gt;Node3</title>
<g id="a_edge2_Node000002_Node000003"><a xlink:title=" ">
<path fill="none" stroke="#63b8ff" d="M931.97,-558.13C912.91,-562.68 892.34,-567.59 874.01,-571.97"/>
<polygon fill="#63b8ff" stroke="#63b8ff" points="932.6,-561.58 941.51,-555.85 930.98,-554.77 932.6,-561.58"/>
</a>
</g>
</g>
<!-- Node12 -->
<g id="Node000012" class="node">
<title>Node12</title>
<g id="a_Node000012"><a xlink:href="namespacefabomatic_1_1tests.xhtml#aab0f4e1439b281ffef8be51db9a81f9d" target="_top" xlink:title=" ">
<polygon fill="white" stroke="#666666" points="191.75,-553.5 79,-553.5 79,-523 191.75,-523 191.75,-553.5"/>
<text text-anchor="start" x="87" y="-540" font-family="Helvetica,sans-Serif" font-size="10.00">fabomatic::tests::test</text>
<text text-anchor="middle" x="135.38" y="-528.75" font-family="Helvetica,sans-Serif" font-size="10.00">_whitelist_no_network</text>
</a>
</g>
</g>
<!-- Node2&#45;&gt;Node12 -->
<g id="edge26_Node000002_Node000012" class="edge">
<title>Node2&#45;&gt;Node12</title>
<g id="a_edge26_Node000002_Node000012"><a xlink:title=" ">
<path fill="none" stroke="#63b8ff" d="M931.73,-540.4C817.64,-537.34 577.8,-531.36 375,-529.25 310.89,-528.58 294.79,-526.2 230.75,-529.25 218.26,-529.84 204.86,-530.88 192.2,-532.04"/>
<polygon fill="#63b8ff" stroke="#63b8ff" points="931.43,-543.89 941.52,-540.66 931.62,-536.9 931.43,-543.89"/>
</a>
</g>
</g>
<!-- Node3&#45;&gt;Node4 -->
<g id="edge3_Node000003_Node000004" class="edge">
<title>Node3&#45;&gt;Node4</title>
<g id="a_edge3_Node000003_Node000004"><a xlink:title=" ">
<path fill="none" stroke="#63b8ff" d="M750.17,-601.01C733.53,-604.97 715.83,-609.18 699.77,-613.01"/>
<polygon fill="#63b8ff" stroke="#63b8ff" points="750.54,-604.52 759.45,-598.8 748.91,-597.71 750.54,-604.52"/>
</a>
</g>
</g>
<!-- Node5 -->
<g id="Node000005" class="node">
<title>Node5</title>
<g id="a_Node000005"><a xlink:href="namespacefabomatic_1_1tests.xhtml#a2600320f41c9fa343c66058ecb12b5ee" target="_top" xlink:title="Simulates RFID card tap.">
<polygon fill="white" stroke="#666666" points="537.25,-680.5 411,-680.5 411,-650 537.25,-650 537.25,-680.5"/>
<text text-anchor="start" x="419" y="-667" font-family="Helvetica,sans-Serif" font-size="10.00">fabomatic::tests::simulate</text>
<text text-anchor="middle" x="474.12" y="-655.75" font-family="Helvetica,sans-Serif" font-size="10.00">_rfid_card</text>
</a>
</g>
</g>
<!-- Node4&#45;&gt;Node5 -->
<g id="edge4_Node000004_Node000005" class="edge">
<title>Node4&#45;&gt;Node5</title>
<g id="a_edge4_Node000004_Node000005"><a xlink:title=" ">
<path fill="none" stroke="#63b8ff" d="M575.68,-641.77C563.15,-644.69 550.09,-647.74 537.69,-650.64"/>
<polygon fill="#63b8ff" stroke="#63b8ff" points="576.1,-645.26 585.04,-639.58 574.51,-638.45 576.1,-645.26"/>
</a>
</g>
</g>
<!-- Node4&#45;&gt;Node12 -->
<g id="edge25_Node000004_Node000012" class="edge">
<title>Node4&#45;&gt;Node12</title>
<g id="a_edge25_Node000004_Node000012"><a xlink:title=" ">
<path fill="none" stroke="#63b8ff" d="M593.77,-606.39C541.03,-585.84 453.63,-555 375,-542.25 313.04,-532.2 240.84,-532.65 192.22,-534.68"/>
<polygon fill="#63b8ff" stroke="#63b8ff" points="592.48,-609.64 603.07,-610.05 595.05,-603.13 592.48,-609.64"/>
</a>
</g>
</g>
<!-- Node14 -->
<g id="Node000014" class="node">
<title>Node14</title>
<g id="a_Node000014"><a xlink:href="namespacefabomatic.xhtml#a3e5c190499522bddad3f3cc69274f16c" target="_top" xlink:title="periodic check for new RFID card">
<polygon fill="white" stroke="#666666" points="537.25,-631.88 411,-631.88 411,-612.62 537.25,-612.62 537.25,-631.88"/>
<text text-anchor="middle" x="474.12" y="-618.38" font-family="Helvetica,sans-Serif" font-size="10.00">fabomatic::taskCheckRfid</text>
</a>
</g>
</g>
<!-- Node4&#45;&gt;Node14 -->
<g id="edge23_Node000004_Node000014" class="edge">
<title>Node4&#45;&gt;Node14</title>
<g id="a_edge23_Node000004_Node000014"><a xlink:title=" ">
<path fill="none" stroke="#63b8ff" d="M575.3,-624.65C562.89,-624.35 549.97,-624.04 537.69,-623.75"/>
<polygon fill="#63b8ff" stroke="#63b8ff" points="574.92,-628.14 585,-624.88 575.09,-621.14 574.92,-628.14"/>
</a>
</g>
</g>
<!-- Node15 -->
<g id="Node000015" class="node">
<title>Node15</title>
<g id="a_Node000015"><a xlink:href="namespacefabomatic_1_1tests.xhtml#a294b4767ecf1e1d11cc31dafb2541d23" target="_top" xlink:title="periodic check for new RFID card">
<polygon fill="white" stroke="#666666" points="527.12,-729.5 421.12,-729.5 421.12,-699 527.12,-699 527.12,-729.5"/>
<text text-anchor="start" x="429.12" y="-716" font-family="Helvetica,sans-Serif" font-size="10.00">fabomatic::tests::test</text>
<text text-anchor="middle" x="474.12" y="-704.75" font-family="Helvetica,sans-Serif" font-size="10.00">_taskCheckRfid</text>
</a>
</g>
</g>
<!-- Node4&#45;&gt;Node15 -->
<g id="edge24_Node000004_Node000015" class="edge">
<title>Node4&#45;&gt;Node15</title>
<g id="a_edge24_Node000004_Node000015"><a xlink:title=" ">
<path fill="none" stroke="#63b8ff" d="M608.9,-648.06C588.64,-660.89 561.98,-676.95 537.25,-689.25 530.69,-692.51 523.6,-695.68 516.63,-698.61"/>
<polygon fill="#63b8ff" stroke="#63b8ff" points="610.76,-651.02 617.3,-642.69 606.99,-645.13 610.76,-651.02"/>
</a>
</g>
</g>
<!-- Node6 -->
<g id="Node000006" class="node">
<title>Node6</title>
<g id="a_Node000006"><a xlink:href="namespacefabomatic_1_1tests.xhtml#a6a7645a865dc822746f972ea6f43224d" target="_top" xlink:title="Resets machine to initial state, clearing flags.">
<polygon fill="white" stroke="#666666" points="375,-651.88 230.75,-651.88 230.75,-632.62 375,-632.62 375,-651.88"/>
<text text-anchor="middle" x="302.88" y="-638.38" font-family="Helvetica,sans-Serif" font-size="10.00">fabomatic::tests::machine_init</text>
</a>
</g>
</g>
<!-- Node5&#45;&gt;Node6 -->
<g id="edge5_Node000005_Node000006" class="edge">
<title>Node5&#45;&gt;Node6</title>
<g id="a_edge5_Node000005_Node000006"><a xlink:title=" ">
<path fill="none" stroke="#63b8ff" d="M399.39,-655.23C391.4,-654.14 383.27,-653.04 375.3,-651.96"/>
<polygon fill="#63b8ff" stroke="#63b8ff" points="398.7,-658.67 409.08,-656.55 399.65,-651.73 398.7,-658.67"/>
</a>
</g>
</g>
<!-- Node7 -->
<g id="Node000007" class="node">
<title>Node7</title>
<g id="a_Node000007"><a xlink:href="namespacefabomatic_1_1tests.xhtml#a558e2287db01a4622581246a19dac397" target="_top" xlink:title=" ">
<polygon fill="white" stroke="#666666" points="188.38,-759.5 82.38,-759.5 82.38,-729 188.38,-729 188.38,-759.5"/>
<text text-anchor="start" x="90.38" y="-746" font-family="Helvetica,sans-Serif" font-size="10.00">fabomatic::tests::test</text>
<text text-anchor="middle" x="135.38" y="-734.75" font-family="Helvetica,sans-Serif" font-size="10.00">_machine_allowed</text>
</a>
</g>
</g>
<!-- Node5&#45;&gt;Node7 -->
<g id="edge16_Node000005_Node000007" class="edge">
<title>Node5&#45;&gt;Node7</title>
<g id="a_edge16_Node000005_Node000007"><a xlink:title=" ">
<path fill="none" stroke="#63b8ff" d="M416.41,-684.31C402.92,-688.52 388.51,-692.77 375,-696.25 311.37,-712.65 237,-726.84 188.41,-735.45"/>
<polygon fill="#63b8ff" stroke="#63b8ff" points="417.08,-687.76 425.56,-681.4 414.97,-681.09 417.08,-687.76"/>
</a>
</g>
</g>
<!-- Node9 -->
<g id="Node000009" class="node">
<title>Node9</title>
<g id="a_Node000009"><a xlink:href="namespacefabomatic_1_1tests.xhtml#a9a34631c2dc01cbdbbce146895c94e12" target="_top" xlink:title=" ">
<polygon fill="white" stroke="#666666" points="194.75,-710.5 76,-710.5 76,-680 194.75,-680 194.75,-710.5"/>
<text text-anchor="start" x="84" y="-697" font-family="Helvetica,sans-Serif" font-size="10.00">fabomatic::tests::test</text>
<text text-anchor="middle" x="135.38" y="-685.75" font-family="Helvetica,sans-Serif" font-size="10.00">_machine_maintenance</text>
</a>
</g>
</g>
<!-- Node5&#45;&gt;Node9 -->
<g id="edge17_Node000005_Node000009" class="edge">
<title>Node5&#45;&gt;Node9</title>
<g id="a_edge17_Node000005_Node000009"><a xlink:title=" ">
<path fill="none" stroke="#63b8ff" d="M399.44,-674.64C391.2,-675.57 382.93,-676.47 375,-677.25 313.6,-683.32 243.14,-688.4 194.79,-691.6"/>
<polygon fill="#63b8ff" stroke="#63b8ff" points="399.59,-678.14 409.12,-673.51 398.78,-671.19 399.59,-678.14"/>
</a>
</g>
</g>
<!-- Node10 -->
<g id="Node000010" class="node">
<title>Node10</title>
<g id="a_Node000010"><a xlink:href="namespacefabomatic_1_1tests.xhtml#a6f3dff17fd964aba76c35c514957a0a5" target="_top" xlink:title=" ">
<polygon fill="white" stroke="#666666" points="189.88,-661.5 80.88,-661.5 80.88,-631 189.88,-631 189.88,-661.5"/>
<text text-anchor="start" x="88.88" y="-648" font-family="Helvetica,sans-Serif" font-size="10.00">fabomatic::tests::test</text>
<text text-anchor="middle" x="135.38" y="-636.75" font-family="Helvetica,sans-Serif" font-size="10.00">_one_user_at_a_time</text>
</a>
</g>
</g>
<!-- Node5&#45;&gt;Node10 -->
<g id="edge20_Node000005_Node000010" class="edge">
<title>Node5&#45;&gt;Node10</title>
<g id="a_edge20_Node000005_Node000010"><a xlink:title=" ">
<path fill="none" stroke="#63b8ff" d="M399.48,-666.73C351.37,-667.03 287.22,-666.18 230.75,-661.25 217.53,-660.1 203.35,-658.2 190.11,-656.13"/>
<polygon fill="#63b8ff" stroke="#63b8ff" points="399.25,-670.23 409.22,-666.65 399.19,-663.23 399.25,-670.23"/>
</a>
</g>
</g>
<!-- Node11 -->
<g id="Node000011" class="node">
<title>Node11</title>
<g id="a_Node000011"><a xlink:href="namespacefabomatic_1_1tests.xhtml#afa92fef9250d918ee02c79dbf2de2546" target="_top" xlink:title=" ">
<polygon fill="white" stroke="#666666" points="188.38,-612.5 82.38,-612.5 82.38,-582 188.38,-582 188.38,-612.5"/>
<text text-anchor="start" x="90.38" y="-599" font-family="Helvetica,sans-Serif" font-size="10.00">fabomatic::tests::test</text>
<text text-anchor="middle" x="135.38" y="-587.75" font-family="Helvetica,sans-Serif" font-size="10.00">_user_autologoff</text>
</a>
</g>
</g>
<!-- Node5&#45;&gt;Node11 -->
<g id="edge21_Node000005_Node000011" class="edge">
<title>Node5&#45;&gt;Node11</title>
<g id="a_edge21_Node000005_Node000011"><a xlink:title=" ">
<path fill="none" stroke="#63b8ff" d="M420.15,-645.18C417.05,-643.88 413.97,-642.56 411,-641.25 394.64,-634.02 392.16,-628.3 375,-623.25 312.63,-604.9 237.66,-599.26 188.61,-597.65"/>
<polygon fill="#63b8ff" stroke="#63b8ff" points="418.81,-648.41 429.4,-648.95 421.46,-641.93 418.81,-648.41"/>
</a>
</g>
</g>
<!-- Node5&#45;&gt;Node12 -->
<g id="edge22_Node000005_Node000012" class="edge">
<title>Node5&#45;&gt;Node12</title>
<g id="a_edge22_Node000005_Node000012"><a xlink:title=" ">
<path fill="none" stroke="#63b8ff" d="M414.63,-643.78C413.39,-642.96 412.18,-642.12 411,-641.25 390.14,-625.79 396.85,-609.27 375,-595.25 319.26,-559.47 243.19,-546.13 192.06,-541.17"/>
<polygon fill="#63b8ff" stroke="#63b8ff" points="412.88,-646.81 423.29,-648.77 416.37,-640.75 412.88,-646.81"/>
</a>
</g>
</g>
<!-- Node13 -->
<g id="Node000013" class="node">
<title>Node13</title>
<g id="a_Node000013"><a xlink:href="namespacefabomatic_1_1tests.xhtml#af8fa7ace86309b5f699540d8898660c7" target="_top" xlink:title=" ">
<polygon fill="white" stroke="#666666" points="355.88,-814.5 249.88,-814.5 249.88,-784 355.88,-784 355.88,-814.5"/>
<text text-anchor="start" x="257.88" y="-801" font-family="Helvetica,sans-Serif" font-size="10.00">fabomatic::tests::test</text>
<text text-anchor="middle" x="302.88" y="-789.75" font-family="Helvetica,sans-Serif" font-size="10.00">_messages_buffered</text>
</a>
</g>
</g>
<!-- Node5&#45;&gt;Node13 -->
<g id="edge18_Node000005_Node000013" class="edge">
<title>Node5&#45;&gt;Node13</title>
<g id="a_edge18_Node000005_Node000013"><a xlink:title=" ">
<path fill="none" stroke="#63b8ff" d="M414.24,-687.37C413.12,-688.29 412.04,-689.25 411,-690.25 382.88,-717.26 403.06,-743.18 375,-770.25 369.43,-775.62 362.74,-780.05 355.71,-783.68"/>
<polygon fill="#63b8ff" stroke="#63b8ff" points="415.98,-690.42 422.22,-681.86 412,-684.66 415.98,-690.42"/>
</a>
</g>
</g>
<!-- Node6&#45;&gt;Node7 -->
<g id="edge6_Node000006_Node000007" class="edge">
<title>Node6&#45;&gt;Node7</title>
<g id="a_edge6_Node000006_Node000007"><a xlink:title=" ">
<path fill="none" stroke="#63b8ff" d="M280.99,-659.38C260.04,-676.03 226.43,-701.36 194.75,-719.25 188.89,-722.56 182.51,-725.71 176.19,-728.59"/>
<polygon fill="#63b8ff" stroke="#63b8ff" points="283.15,-662.12 288.75,-653.13 278.76,-656.67 283.15,-662.12"/>
</a>
</g>
</g>
<!-- Node6&#45;&gt;Node9 -->
<g id="edge8_Node000006_Node000009" class="edge">
<title>Node6&#45;&gt;Node9</title>
<g id="a_edge8_Node000006_Node000009"><a xlink:title=" ">
<path fill="none" stroke="#63b8ff" d="M259.4,-655.85C236.79,-663.09 208.88,-672.03 185.36,-679.56"/>
<polygon fill="#63b8ff" stroke="#63b8ff" points="260.46,-659.19 268.91,-652.81 258.32,-652.52 260.46,-659.19"/>
</a>
</g>
</g>
<!-- Node6&#45;&gt;Node10 -->
<g id="edge10_Node000006_Node000010" class="edge">
<title>Node6&#45;&gt;Node10</title>
<g id="a_edge10_Node000006_Node000010"><a xlink:title=" ">
<path fill="none" stroke="#63b8ff" d="M219.52,-644.24C209.57,-644.48 199.61,-644.72 190.22,-644.95"/>
<polygon fill="#63b8ff" stroke="#63b8ff" points="219.3,-647.75 229.21,-644.01 219.13,-640.75 219.3,-647.75"/>
</a>
</g>
</g>
<!-- Node6&#45;&gt;Node11 -->
<g id="edge12_Node000006_Node000011" class="edge">
<title>Node6&#45;&gt;Node11</title>
<g id="a_edge12_Node000006_Node000011"><a xlink:title=" ">
<path fill="none" stroke="#63b8ff" d="M253.8,-629.18C233.42,-623.64 209.6,-617.16 188.77,-611.5"/>
<polygon fill="#63b8ff" stroke="#63b8ff" points="252.71,-632.51 263.27,-631.75 254.54,-625.75 252.71,-632.51"/>
</a>
</g>
</g>
<!-- Node6&#45;&gt;Node12 -->
<g id="edge14_Node000006_Node000012" class="edge">
<title>Node6&#45;&gt;Node12</title>
<g id="a_edge14_Node000006_Node000012"><a xlink:title=" ">
<path fill="none" stroke="#63b8ff" d="M277.31,-626.11C255.69,-611.98 223.3,-590.99 194.75,-573.25 184.41,-566.82 172.94,-559.9 162.93,-553.93"/>
<polygon fill="#63b8ff" stroke="#63b8ff" points="275.17,-628.89 285.45,-631.44 279,-623.03 275.17,-628.89"/>
</a>
</g>
</g>
<!-- Node8 -->
<g id="Node000008" class="node">
<title>Node8</title>
<g id="a_Node000008"><a xlink:href="test__logic_8cpp.xhtml#a4fc01d736fe50cf5b977f755b675f11d" target="_top" xlink:title=" ">
<polygon fill="white" stroke="#666666" points="40,-655.88 0,-655.88 0,-636.62 40,-636.62 40,-655.88"/>
<text text-anchor="middle" x="20" y="-642.38" font-family="Helvetica,sans-Serif" font-size="10.00">setup</text>
</a>
</g>
</g>
<!-- Node7&#45;&gt;Node8 -->
<g id="edge7_Node000007_Node000008" class="edge">
<title>Node7&#45;&gt;Node8</title>
<g id="a_edge7_Node000007_Node000008"><a xlink:title=" ">
<path fill="none" stroke="#63b8ff" d="M80.74,-722.69C79.11,-721.59 77.52,-720.44 76,-719.25 53.15,-701.33 34.86,-671.73 26.29,-656.3"/>
<polygon fill="#63b8ff" stroke="#63b8ff" points="78.85,-725.64 89.24,-727.73 82.43,-719.62 78.85,-725.64"/>
</a>
</g>
</g>
<!-- Node9&#45;&gt;Node8 -->
<g id="edge9_Node000009_Node000008" class="edge">
<title>Node9&#45;&gt;Node8</title>
<g id="a_edge9_Node000009_Node000008"><a xlink:title=" ">
<path fill="none" stroke="#63b8ff" d="M87.08,-675.03C83.33,-673.41 79.6,-671.81 76,-670.25 64.14,-665.12 50.87,-659.33 40.33,-654.72"/>
<polygon fill="#63b8ff" stroke="#63b8ff" points="85.65,-678.22 96.22,-678.95 88.42,-671.79 85.65,-678.22"/>
</a>
</g>
</g>
<!-- Node10&#45;&gt;Node8 -->
<g id="edge11_Node000010_Node000008" class="edge">
<title>Node10&#45;&gt;Node8</title>
<g id="a_edge11_Node000010_Node000008"><a xlink:title=" ">
<path fill="none" stroke="#63b8ff" d="M69.2,-646.25C58.7,-646.25 48.6,-646.25 40.38,-646.25"/>
<polygon fill="#63b8ff" stroke="#63b8ff" points="69.16,-649.75 79.16,-646.25 69.16,-642.75 69.16,-649.75"/>
</a>
</g>
</g>
<!-- Node11&#45;&gt;Node8 -->
<g id="edge13_Node000011_Node000008" class="edge">
<title>Node11&#45;&gt;Node8</title>
<g id="a_edge13_Node000011_Node000008"><a xlink:title=" ">
<path fill="none" stroke="#63b8ff" d="M87.08,-617.47C83.33,-619.09 79.6,-620.69 76,-622.25 64.14,-627.38 50.87,-633.17 40.33,-637.78"/>
<polygon fill="#63b8ff" stroke="#63b8ff" points="88.42,-620.71 96.22,-613.55 85.65,-614.28 88.42,-620.71"/>
</a>
</g>
</g>
<!-- Node12&#45;&gt;Node8 -->
<g id="edge15_Node000012_Node000008" class="edge">
<title>Node12&#45;&gt;Node8</title>
<g id="a_edge15_Node000012_Node000008"><a xlink:title=" ">
<path fill="none" stroke="#63b8ff" d="M93.5,-559.97C87.35,-564.01 81.3,-568.48 76,-573.25 54.53,-592.57 35.79,-621.31 26.75,-636.32"/>
<polygon fill="#63b8ff" stroke="#63b8ff" points="95.21,-563.03 101.86,-554.78 91.52,-557.08 95.21,-563.03"/>
</a>
</g>
</g>
<!-- Node13&#45;&gt;Node8 -->
<g id="edge19_Node000013_Node000008" class="edge">
<title>Node13&#45;&gt;Node8</title>
<g id="a_edge19_Node000013_Node000008"><a xlink:title=" ">
<path fill="none" stroke="#63b8ff" d="M238.05,-806.17C189.07,-808.05 122.23,-802.8 76,-768.25 38.22,-740.01 25.77,-679.85 22.24,-656.14"/>
<polygon fill="#63b8ff" stroke="#63b8ff" points="238.15,-809.67 247.96,-805.67 237.79,-802.68 238.15,-809.67"/>
</a>
</g>
</g>
<!-- Node16&#45;&gt;Node17 -->
<g id="edge29_Node000016_Node000017" class="edge">
<title>Node16&#45;&gt;Node17</title>
<g id="a_edge29_Node000016_Node000017"><a xlink:title=" ">
<path fill="none" stroke="#63b8ff" d="M939.66,-272.84C915.82,-267.81 888.65,-262.08 866.08,-257.31"/>
<polygon fill="#63b8ff" stroke="#63b8ff" points="938.71,-276.21 949.22,-274.85 940.16,-269.37 938.71,-276.21"/>
</a>
</g>
</g>
<!-- Node17&#45;&gt;Node18 -->
<g id="edge30_Node000017_Node000018" class="edge">
<title>Node17&#45;&gt;Node18</title>
<g id="a_edge30_Node000017_Node000018"><a xlink:title=" ">
<path fill="none" stroke="#63b8ff" d="M768.35,-234.11C761.82,-232.21 755.23,-230.23 749,-228.25 718.82,-218.68 684.26,-206.19 663.33,-198.44"/>
<polygon fill="#63b8ff" stroke="#63b8ff" points="767.15,-237.41 777.73,-236.81 769.08,-230.68 767.15,-237.41"/>
</a>
</g>
</g>
<!-- Node19 -->
<g id="Node000019" class="node">
<title>Node19</title>
<g id="a_Node000019"><a xlink:href="namespacefabomatic.xhtml#a2c7ad2690e92eb8ab98b6fadaa4df2bd" target="_top" xlink:title=" ">
<polygon fill="white" stroke="#666666" points="713,-256.88 573.25,-256.88 573.25,-237.62 713,-237.62 713,-256.88"/>
<text text-anchor="middle" x="643.12" y="-243.38" font-family="Helvetica,sans-Serif" font-size="10.00">fabomatic::taskFactoryReset</text>
</a>
</g>
</g>
<!-- Node17&#45;&gt;Node19 -->
<g id="edge31_Node000017_Node000019" class="edge">
<title>Node17&#45;&gt;Node19</title>
<g id="a_edge31_Node000017_Node000019"><a xlink:title=" ">
<path fill="none" stroke="#63b8ff" d="M737.54,-247.25C729.51,-247.25 721.41,-247.25 713.5,-247.25"/>
<polygon fill="#63b8ff" stroke="#63b8ff" points="737.28,-250.75 747.28,-247.25 737.28,-243.75 737.28,-250.75"/>
</a>
</g>
</g>
<!-- Node20&#45;&gt;Node3 -->
<g id="edge34_Node000020_Node000003" class="edge">
<title>Node20&#45;&gt;Node3</title>
<g id="a_edge34_Node000020_Node000003"><a xlink:title=" ">
<path fill="none" stroke="#63b8ff" d="M972.24,-451.14C935.09,-483.52 868.14,-541.87 836.23,-569.69"/>
<polygon fill="#63b8ff" stroke="#63b8ff" points="974.19,-454.08 979.43,-444.87 969.59,-448.8 974.19,-454.08"/>
</a>
</g>
</g>
<!-- Node20&#45;&gt;Node6 -->
<g id="edge33_Node000020_Node000006" class="edge">
<title>Node20&#45;&gt;Node6</title>
<g id="a_edge33_Node000020_Node000006"><a xlink:title=" ">
<path fill="none" stroke="#63b8ff" d="M958.25,-448.94C937.06,-459.29 910.41,-471.45 885.75,-480.25 680.47,-553.52 619.15,-538.56 411,-603.25 382.65,-612.06 350.74,-623.94 329.18,-632.26"/>
<polygon fill="#63b8ff" stroke="#63b8ff" points="959.72,-452.12 967.13,-444.55 956.62,-445.85 959.72,-452.12"/>
</a>
</g>
</g>
<!-- Node20&#45;&gt;Node11 -->
<g id="edge37_Node000020_Node000011" class="edge">
<title>Node20&#45;&gt;Node11</title>
<g id="a_edge37_Node000020_Node000011"><a xlink:title=" ">
<path fill="none" stroke="#63b8ff" d="M931.93,-441.3C766.23,-473.78 337.91,-557.74 188.62,-587.01"/>
<polygon fill="#63b8ff" stroke="#63b8ff" points="932.3,-444.79 941.44,-439.43 930.96,-437.92 932.3,-444.79"/>
</a>
</g>
</g>
<!-- Node20&#45;&gt;Node12 -->
<g id="edge38_Node000020_Node000012" class="edge">
<title>Node20&#45;&gt;Node12</title>
<g id="a_edge38_Node000020_Node000012"><a xlink:title=" ">
<path fill="none" stroke="#63b8ff" d="M969.37,-405.83C947.6,-390.4 916.43,-370.99 885.75,-361.25 783.08,-328.66 751.85,-342.25 644.12,-342.25 644.12,-342.25 644.12,-342.25 473.12,-342.25 330.06,-342.25 193.53,-476.03 150.39,-522.54"/>
<polygon fill="#63b8ff" stroke="#63b8ff" points="967.31,-408.66 977.45,-411.7 971.42,-402.99 967.31,-408.66"/>
</a>
</g>
</g>
<!-- Node21 -->
<g id="Node000021" class="node">
<title>Node21</title>
<g id="a_Node000021"><a xlink:href="namespacefabomatic.xhtml#af8ee1c3cd4edf1a1ba27899da63b611a" target="_top" xlink:title="periodic check if the user shall be logged off">
<polygon fill="white" stroke="#666666" points="885.75,-437.88 749,-437.88 749,-418.62 885.75,-418.62 885.75,-437.88"/>
<text text-anchor="middle" x="817.38" y="-424.38" font-family="Helvetica,sans-Serif" font-size="10.00">fabomatic::taskLogoffCheck</text>
</a>
</g>
</g>
<!-- Node20&#45;&gt;Node21 -->
<g id="edge35_Node000020_Node000021" class="edge">
<title>Node20&#45;&gt;Node21</title>
<g id="a_edge35_Node000020_Node000021"><a xlink:title=" ">
<path fill="none" stroke="#63b8ff" d="M931.79,-428.25C916.87,-428.25 901.03,-428.25 886.08,-428.25"/>
<polygon fill="#63b8ff" stroke="#63b8ff" points="931.47,-431.75 941.47,-428.25 931.47,-424.75 931.47,-431.75"/>
</a>
</g>
</g>
<!-- Node22 -->
<g id="Node000022" class="node">
<title>Node22</title>
<g id="a_Node000022"><a xlink:href="namespacefabomatic_1_1tests.xhtml#a7cd22311b16fc7c256a30ba4c2f6f387" target="_top" xlink:title="blink led">
<polygon fill="white" stroke="#666666" points="870.38,-400.5 764.38,-400.5 764.38,-370 870.38,-370 870.38,-400.5"/>
<text text-anchor="start" x="772.38" y="-387" font-family="Helvetica,sans-Serif" font-size="10.00">fabomatic::tests::test</text>
<text text-anchor="middle" x="817.38" y="-375.75" font-family="Helvetica,sans-Serif" font-size="10.00">_taskVarious</text>
</a>
</g>
</g>
<!-- Node20&#45;&gt;Node22 -->
<g id="edge36_Node000020_Node000022" class="edge">
<title>Node20&#45;&gt;Node22</title>
<g id="a_edge36_Node000020_Node000022"><a xlink:title=" ">
<path fill="none" stroke="#63b8ff" d="M931.95,-412.36C911.72,-407.53 889.78,-402.3 870.63,-397.72"/>
<polygon fill="#63b8ff" stroke="#63b8ff" points="930.98,-415.73 941.51,-414.65 932.6,-408.92 930.98,-415.73"/>
</a>
</g>
</g>
<!-- Node23&#45;&gt;Node18 -->
<g id="edge43_Node000023_Node000018" class="edge">
<title>Node23&#45;&gt;Node18</title>
<g id="a_edge43_Node000023_Node000018"><a xlink:title=" ">
<path fill="none" stroke="#63b8ff" d="M751.87,-179.36C720.29,-182.85 684.56,-186.79 663.21,-189.14"/>
<polygon fill="#63b8ff" stroke="#63b8ff" points="752.23,-182.85 761.78,-178.27 751.46,-175.89 752.23,-182.85"/>
</a>
</g>
</g>
<!-- Node24&#45;&gt;Node18 -->
<g id="edge45_Node000024_Node000018" class="edge">
<title>Node24&#45;&gt;Node18</title>
<g id="a_edge45_Node000024_Node000018"><a xlink:title=" ">
<path fill="none" stroke="#63b8ff" d="M746.65,-201.96C716.42,-198.81 683.41,-195.35 663.23,-193.25"/>
<polygon fill="#63b8ff" stroke="#63b8ff" points="746.24,-205.44 756.55,-203 746.97,-198.48 746.24,-205.44"/>
</a>
</g>
</g>
<!-- Node27&#45;&gt;Node8 -->
<g id="edge49_Node000027_Node000008" class="edge">
<title>Node27&#45;&gt;Node8</title>
<g id="a_edge49_Node000027_Node000008"><a xlink:title=" ">
<path fill="none" stroke="#63b8ff" d="M243.94,-319.98C239.32,-322.49 234.86,-325.24 230.75,-328.25 143.98,-391.78 131.69,-422.26 76,-514.25 50.29,-556.73 31.18,-613.4 24.05,-636.16"/>
<polygon fill="#63b8ff" stroke="#63b8ff" points="245.47,-323.12 252.87,-315.54 242.36,-316.85 245.47,-323.12"/>
</a>
</g>
</g>
</g>
</svg>
