<?xml version="1.0" encoding="UTF-8" standalone="no"?>
<!DOCTYPE svg PUBLIC "-//W3C//DTD SVG 1.1//EN"
 "http://www.w3.org/Graphics/SVG/1.1/DTD/svg11.dtd">
<!-- Generated by graphviz version 9.0.0 (20230911.1827)
 -->
<!-- Title: fabomatic::Buffer::fromJsonElement Pages: 1 -->
<svg width="473pt" height="88pt"
 viewBox="0.00 0.00 473.25 87.50" xmlns="http://www.w3.org/2000/svg" xmlns:xlink="http://www.w3.org/1999/xlink">

<svg id="main" version="1.1" xmlns="http://www.w3.org/2000/svg" xmlns:xlink="http://www.w3.org/1999/xlink" xml:space="preserve" onload="init(evt)">
<style type="text/css"><![CDATA[
.node, .edge {opacity: 0.7;}
.node.selected, .edge.selected {opacity: 1;}
.edge:hover path { stroke: red; }
.edge:hover polygon { stroke: red; fill: red; }
]]></style>
<script type="application/ecmascript" xlink:href="svg.min.js"/>
<svg id="graph" class="graph">
<g id="graph0" class="graph" transform="scale(1 1) rotate(0) translate(4 83.5)">
<title>fabomatic::Buffer::fromJsonElement</title>
<!-- Node1 -->
<g id="Node000001" class="node">
<title>Node1</title>
<g id="a_Node000001"><a xlink:title=" ">
<polygon fill="#999999" stroke="#666666" points="465.25,-54.5 372,-54.5 372,-24 465.25,-24 465.25,-54.5"/>
<text text-anchor="start" x="380" y="-41" font-family="Helvetica,sans-Serif" font-size="10.00">fabomatic::Buffer::</text>
<text text-anchor="middle" x="418.62" y="-29.75" font-family="Helvetica,sans-Serif" font-size="10.00">fromJsonElement</text>
</a>
</g>
</g>
<!-- Node2 -->
<g id="Node000002" class="node">
<title>Node2</title>
<g id="a_Node000002"><a xlink:href="classfabomatic_1_1_saved_config.xhtml#a1a3af8c6a917eeef7481ab1e5e242468" target="_top" xlink:title="Deserialize a JsonDocument into a SavedConfig.">
<polygon fill="white" stroke="#666666" points="336,-79.5 218,-79.5 218,-49 336,-49 336,-79.5"/>
<text text-anchor="start" x="226" y="-66" font-family="Helvetica,sans-Serif" font-size="10.00">fabomatic::SavedConfig</text>
<text text-anchor="middle" x="277" y="-54.75" font-family="Helvetica,sans-Serif" font-size="10.00">::fromJsonDocument</text>
</a>
</g>
</g>
<!-- Node1&#45;&gt;Node2 -->
<g id="edge1_Node000001_Node000002" class="edge">
<title>Node1&#45;&gt;Node2</title>
<g id="a_edge1_Node000001_Node000002"><a xlink:title=" ">
<path fill="none" stroke="#63b8ff" d="M360.44,-49.49C352.46,-50.92 344.25,-52.39 336.26,-53.82"/>
<polygon fill="#63b8ff" stroke="#63b8ff" points="360.8,-52.98 370.03,-47.77 359.57,-46.09 360.8,-52.98"/>
</a>
</g>
</g>
<!-- Node3 -->
<g id="Node000003" class="node">
<title>Node3</title>
<g id="a_Node000003"><a xlink:href="namespacefabomatic_1_1tests.xhtml#a70d156a8423b7e9d4db345cff5eb528f" target="_top" xlink:title=" ">
<polygon fill="white" stroke="#666666" points="330,-30.5 224,-30.5 224,0 330,0 330,-30.5"/>
<text text-anchor="start" x="232" y="-17" font-family="Helvetica,sans-Serif" font-size="10.00">fabomatic::tests::test</text>
<text text-anchor="middle" x="277" y="-5.75" font-family="Helvetica,sans-Serif" font-size="10.00">_deserialization</text>
</a>
</g>
</g>
<!-- Node1&#45;&gt;Node3 -->
<g id="edge2_Node000001_Node000003" class="edge">
<title>Node1&#45;&gt;Node3</title>
<g id="a_edge2_Node000001_Node000003"><a xlink:title=" ">
<path fill="none" stroke="#63b8ff" d="M360.46,-29.42C350.49,-27.71 340.17,-25.94 330.34,-24.25"/>
<polygon fill="#63b8ff" stroke="#63b8ff" points="359.58,-32.82 370.03,-31.07 360.77,-25.93 359.58,-32.82"/>
</a>
</g>
</g>
<!-- Node4 -->
<g id="Node000004" class="node">
<title>Node4</title>
<g id="a_Node000004"><a xlink:href="namespacefabomatic_1_1tests.xhtml#a4fbc6366f69847719d0f0cb626572493" target="_top" xlink:title=" ">
<polygon fill="white" stroke="#666666" points="182,-30.5 76,-30.5 76,0 182,0 182,-30.5"/>
<text text-anchor="start" x="84" y="-17" font-family="Helvetica,sans-Serif" font-size="10.00">fabomatic::tests::test</text>
<text text-anchor="middle" x="129" y="-5.75" font-family="Helvetica,sans-Serif" font-size="10.00">_buffered_msg</text>
</a>
</g>
</g>
<!-- Node3&#45;&gt;Node4 -->
<g id="edge3_Node000003_Node000004" class="edge">
<title>Node3&#45;&gt;Node4</title>
<g id="a_edge3_Node000003_Node000004"><a xlink:title=" ">
<path fill="none" stroke="#63b8ff" d="M212.51,-15.25C202.46,-15.25 192.18,-15.25 182.42,-15.25"/>
<polygon fill="#63b8ff" stroke="#63b8ff" points="212.19,-18.75 222.19,-15.25 212.19,-11.75 212.19,-18.75"/>
</a>
</g>
</g>
<!-- Node5 -->
<g id="Node000005" class="node">
<title>Node5</title>
<g id="a_Node000005"><a xlink:href="test__savedconfig_8cpp.xhtml#a4fc01d736fe50cf5b977f755b675f11d" target="_top" xlink:title=" ">
<polygon fill="white" stroke="#666666" points="40,-24.88 0,-24.88 0,-5.63 40,-5.63 40,-24.88"/>
<text text-anchor="middle" x="20" y="-11.38" font-family="Helvetica,sans-Serif" font-size="10.00">setup</text>
</a>
</g>
</g>
<!-- Node4&#45;&gt;Node5 -->
<g id="edge4_Node000004_Node000005" class="edge">
<title>Node4&#45;&gt;Node5</title>
<g id="a_edge4_Node000004_Node000005"><a xlink:title=" ">
<path fill="none" stroke="#63b8ff" d="M64.27,-15.25C55.63,-15.25 47.36,-15.25 40.41,-15.25"/>
<polygon fill="#63b8ff" stroke="#63b8ff" points="64.24,-18.75 74.24,-15.25 64.24,-11.75 64.24,-18.75"/>
</a>
</g>
</g>
</g>
</svg>
</svg>

<style type='text/css'>
<![CDATA[
[data-mouse-over-selected='false'] { opacity: 0.7; }
[data-mouse-over-selected='true']  { opacity: 1.0; }
]]>
</style>
<script type="application/ecmascript"><![CDATA[
document.addEventListener('DOMContentLoaded', (event) => {
  highlightEdges();
  highlightAdjacentNodes();
});
]]></script>
</svg>
