<?xml version="1.0" encoding="UTF-8" standalone="no"?>
<!DOCTYPE svg PUBLIC "-//W3C//DTD SVG 1.1//EN"
 "http://www.w3.org/Graphics/SVG/1.1/DTD/svg11.dtd">
<!-- Generated by graphviz version 9.0.0 (20230911.1827)
 -->
<!-- Title: fabomatic::FabBackend::finishUse Pages: 1 -->
<svg width="1195pt" height="558pt"
 viewBox="0.00 0.00 1195.00 558.25" xmlns="http://www.w3.org/2000/svg" xmlns:xlink="http://www.w3.org/1999/xlink">
<g id="graph0" class="graph" transform="scale(1 1) rotate(0) translate(4 554.25)">
<title>fabomatic::FabBackend::finishUse</title>
<!-- Node1 -->
<g id="Node000001" class="node">
<title>Node1</title>
<g id="a_Node000001"><a xlink:title="Registers the end of machine usage.">
<polygon fill="#999999" stroke="#666666" points="1187,-92.5 1069,-92.5 1069,-62 1187,-62 1187,-92.5"/>
<text text-anchor="start" x="1077" y="-79" font-family="Helvetica,sans-Serif" font-size="10.00">fabomatic::FabBackend</text>
<text text-anchor="middle" x="1128" y="-67.75" font-family="Helvetica,sans-Serif" font-size="10.00">::finishUse</text>
</a>
</g>
</g>
<!-- Node2 -->
<g id="Node000002" class="node">
<title>Node2</title>
<g id="a_Node000002"><a xlink:href="classfabomatic_1_1_board_logic.xhtml#a98a15cc323f97adc394c29e897afc12d" target="_top" xlink:title="Removes the current machine user and changes the status to LoggedOut.">
<polygon fill="white" stroke="#666666" points="1033,-235.5 920.25,-235.5 920.25,-205 1033,-205 1033,-235.5"/>
<text text-anchor="start" x="928.25" y="-222" font-family="Helvetica,sans-Serif" font-size="10.00">fabomatic::BoardLogic</text>
<text text-anchor="middle" x="976.62" y="-210.75" font-family="Helvetica,sans-Serif" font-size="10.00">::logout</text>
</a>
</g>
</g>
<!-- Node1&#45;&gt;Node2 -->
<g id="edge1_Node000001_Node000002" class="edge">
<title>Node1&#45;&gt;Node2</title>
<g id="a_edge1_Node000001_Node000002"><a xlink:title=" ">
<path fill="none" stroke="#63b8ff" d="M1102.68,-100.53C1072.01,-129.89 1020.13,-179.56 993.88,-204.69"/>
<polygon fill="#63b8ff" stroke="#63b8ff" points="1104.83,-103.32 1109.64,-93.87 1099.99,-98.26 1104.83,-103.32"/>
</a>
</g>
</g>
<!-- Node20 -->
<g id="Node000020" class="node">
<title>Node20</title>
<g id="a_Node000020"><a xlink:href="namespacefabomatic_1_1tests.xhtml#a675dfc88957b4e6871f32187a0da29b2" target="_top" xlink:title=" ">
<polygon fill="white" stroke="#666666" points="711.5,-73.5 573.25,-73.5 573.25,-43 711.5,-43 711.5,-73.5"/>
<text text-anchor="start" x="581.25" y="-60" font-family="Helvetica,sans-Serif" font-size="10.00">fabomatic::tests::test</text>
<text text-anchor="middle" x="642.38" y="-48.75" font-family="Helvetica,sans-Serif" font-size="10.00">_create_buffered_messages</text>
</a>
</g>
</g>
<!-- Node1&#45;&gt;Node20 -->
<g id="edge33_Node000001_Node000020" class="edge">
<title>Node1&#45;&gt;Node20</title>
<g id="a_edge33_Node000001_Node000020"><a xlink:title=" ">
<path fill="none" stroke="#63b8ff" d="M1057.21,-74.51C964.89,-70.88 803.2,-64.53 711.65,-60.93"/>
<polygon fill="#63b8ff" stroke="#63b8ff" points="1057.02,-78 1067.15,-74.9 1057.3,-71.01 1057.02,-78"/>
</a>
</g>
</g>
<!-- Node21 -->
<g id="Node000021" class="node">
<title>Node21</title>
<g id="a_Node000021"><a xlink:href="namespacefabomatic_1_1tests.xhtml#a24369d35ba4a370e236b987ff7cb5637" target="_top" xlink:title=" ">
<polygon fill="white" stroke="#666666" points="1029.62,-30.5 923.62,-30.5 923.62,0 1029.62,0 1029.62,-30.5"/>
<text text-anchor="start" x="931.62" y="-17" font-family="Helvetica,sans-Serif" font-size="10.00">fabomatic::tests::test</text>
<text text-anchor="middle" x="976.62" y="-5.75" font-family="Helvetica,sans-Serif" font-size="10.00">_degraded_use</text>
</a>
</g>
</g>
<!-- Node1&#45;&gt;Node21 -->
<g id="edge35_Node000001_Node000021" class="edge">
<title>Node1&#45;&gt;Node21</title>
<g id="a_edge35_Node000001_Node000021"><a xlink:title=" ">
<path fill="none" stroke="#63b8ff" d="M1078.9,-57.29C1058.4,-48.77 1034.81,-38.99 1015.57,-31"/>
<polygon fill="#63b8ff" stroke="#63b8ff" points="1077.33,-60.42 1087.91,-61.02 1080.01,-53.96 1077.33,-60.42"/>
</a>
</g>
</g>
<!-- Node22 -->
<g id="Node000022" class="node">
<title>Node22</title>
<g id="a_Node000022"><a xlink:href="namespacefabomatic_1_1tests.xhtml#a438b9060c27d36e89506199205b342cb" target="_top" xlink:title=" ">
<polygon fill="white" stroke="#666666" points="695.38,-122.5 589.38,-122.5 589.38,-92 695.38,-92 695.38,-122.5"/>
<text text-anchor="start" x="597.38" y="-109" font-family="Helvetica,sans-Serif" font-size="10.00">fabomatic::tests::test</text>
<text text-anchor="middle" x="642.38" y="-97.75" font-family="Helvetica,sans-Serif" font-size="10.00">_fabserver_calls</text>
</a>
</g>
</g>
<!-- Node1&#45;&gt;Node22 -->
<g id="edge37_Node000001_Node000022" class="edge">
<title>Node1&#45;&gt;Node22</title>
<g id="a_edge37_Node000001_Node000022"><a xlink:title=" ">
<path fill="none" stroke="#63b8ff" d="M1057.41,-81.57C959.47,-87.64 783.19,-98.58 695.64,-104.01"/>
<polygon fill="#63b8ff" stroke="#63b8ff" points="1057.39,-85.07 1067.15,-80.96 1056.96,-78.09 1057.39,-85.07"/>
</a>
</g>
</g>
<!-- Node3 -->
<g id="Node000003" class="node">
<title>Node3</title>
<g id="a_Node000003"><a xlink:href="namespacefabomatic_1_1tests.xhtml#a6a7645a865dc822746f972ea6f43224d" target="_top" xlink:title="Resets machine to initial state, clearing flags.">
<polygon fill="white" stroke="#666666" points="375,-407.88 230.75,-407.88 230.75,-388.62 375,-388.62 375,-407.88"/>
<text text-anchor="middle" x="302.88" y="-394.38" font-family="Helvetica,sans-Serif" font-size="10.00">fabomatic::tests::machine_init</text>
</a>
</g>
</g>
<!-- Node2&#45;&gt;Node3 -->
<g id="edge2_Node000002_Node000003" class="edge">
<title>Node2&#45;&gt;Node3</title>
<g id="a_edge2_Node000002_Node000003"><a xlink:title=" ">
<path fill="none" stroke="#63b8ff" d="M963.23,-245.47C948.22,-273.48 920.41,-318.18 884.25,-344.25 754.15,-438.03 696.45,-423.9 537.25,-443.25 481.55,-450.02 466.01,-454.33 411,-443.25 377.98,-436.6 342.45,-419.47 321.74,-408.37"/>
<polygon fill="#63b8ff" stroke="#63b8ff" points="966.14,-247.46 967.64,-236.97 959.93,-244.23 966.14,-247.46"/>
</a>
</g>
</g>
<!-- Node8 -->
<g id="Node000008" class="node">
<title>Node8</title>
<g id="a_Node000008"><a xlink:href="namespacefabomatic_1_1tests.xhtml#afa92fef9250d918ee02c79dbf2de2546" target="_top" xlink:title=" ">
<polygon fill="white" stroke="#666666" points="188.38,-299.5 82.38,-299.5 82.38,-269 188.38,-269 188.38,-299.5"/>
<text text-anchor="start" x="90.38" y="-286" font-family="Helvetica,sans-Serif" font-size="10.00">fabomatic::tests::test</text>
<text text-anchor="middle" x="135.38" y="-274.75" font-family="Helvetica,sans-Serif" font-size="10.00">_user_autologoff</text>
</a>
</g>
</g>
<!-- Node2&#45;&gt;Node8 -->
<g id="edge31_Node000002_Node000008" class="edge">
<title>Node2&#45;&gt;Node8</title>
<g id="a_edge31_Node000002_Node000008"><a xlink:title=" ">
<path fill="none" stroke="#63b8ff" d="M908.39,-214.73C749.65,-202.54 355.61,-177.44 230.75,-217.25 199.16,-227.32 169.09,-252.24 151.7,-268.69"/>
<polygon fill="#63b8ff" stroke="#63b8ff" points="908.11,-218.22 918.35,-215.5 908.65,-211.24 908.11,-218.22"/>
</a>
</g>
</g>
<!-- Node9 -->
<g id="Node000009" class="node">
<title>Node9</title>
<g id="a_Node000009"><a xlink:href="namespacefabomatic_1_1tests.xhtml#aab0f4e1439b281ffef8be51db9a81f9d" target="_top" xlink:title=" ">
<polygon fill="white" stroke="#666666" points="191.75,-495.5 79,-495.5 79,-465 191.75,-465 191.75,-495.5"/>
<text text-anchor="start" x="87" y="-482" font-family="Helvetica,sans-Serif" font-size="10.00">fabomatic::tests::test</text>
<text text-anchor="middle" x="135.38" y="-470.75" font-family="Helvetica,sans-Serif" font-size="10.00">_whitelist_no_network</text>
</a>
</g>
</g>
<!-- Node2&#45;&gt;Node9 -->
<g id="edge32_Node000002_Node000009" class="edge">
<title>Node2&#45;&gt;Node9</title>
<g id="a_edge32_Node000002_Node000009"><a xlink:title=" ">
<path fill="none" stroke="#63b8ff" d="M966.64,-246.35C953.18,-282.57 924.94,-348.64 884.25,-393.25 798.13,-487.66 771.16,-550.25 643.38,-550.25 643.38,-550.25 643.38,-550.25 473.12,-550.25 367.13,-550.25 246.23,-516.6 182.05,-495.96"/>
<polygon fill="#63b8ff" stroke="#63b8ff" points="969.87,-247.72 969.97,-237.13 963.28,-245.34 969.87,-247.72"/>
</a>
</g>
</g>
<!-- Node10 -->
<g id="Node000010" class="node">
<title>Node10</title>
<g id="a_Node000010"><a xlink:href="classfabomatic_1_1_board_logic.xhtml#a983c8de8b9c8881fc0a4e60dddc7f0c6" target="_top" xlink:title="Called when a RFID tag has been detected.">
<polygon fill="white" stroke="#666666" points="872.25,-335.5 759.5,-335.5 759.5,-305 872.25,-305 872.25,-335.5"/>
<text text-anchor="start" x="767.5" y="-322" font-family="Helvetica,sans-Serif" font-size="10.00">fabomatic::BoardLogic</text>
<text text-anchor="middle" x="815.88" y="-310.75" font-family="Helvetica,sans-Serif" font-size="10.00">::onNewCard</text>
</a>
</g>
</g>
<!-- Node2&#45;&gt;Node10 -->
<g id="edge13_Node000002_Node000010" class="edge">
<title>Node2&#45;&gt;Node10</title>
<g id="a_edge13_Node000002_Node000010"><a xlink:title=" ">
<path fill="none" stroke="#63b8ff" d="M941.19,-241.94C911.22,-260.82 868.52,-287.72 841.77,-304.57"/>
<polygon fill="#63b8ff" stroke="#63b8ff" points="942.94,-244.97 949.54,-236.68 939.21,-239.05 942.94,-244.97"/>
</a>
</g>
</g>
<!-- Node18 -->
<g id="Node000018" class="node">
<title>Node18</title>
<g id="a_Node000018"><a xlink:href="namespacefabomatic.xhtml#af8ee1c3cd4edf1a1ba27899da63b611a" target="_top" xlink:title="periodic check if the user shall be logged off">
<polygon fill="white" stroke="#666666" points="884.25,-191.88 747.5,-191.88 747.5,-172.62 884.25,-172.62 884.25,-191.88"/>
<text text-anchor="middle" x="815.88" y="-178.38" font-family="Helvetica,sans-Serif" font-size="10.00">fabomatic::taskLogoffCheck</text>
</a>
</g>
</g>
<!-- Node2&#45;&gt;Node18 -->
<g id="edge29_Node000002_Node000018" class="edge">
<title>Node2&#45;&gt;Node18</title>
<g id="a_edge29_Node000002_Node000018"><a xlink:title=" ">
<path fill="none" stroke="#63b8ff" d="M909.12,-204.33C892.19,-200.28 874.45,-196.03 859.1,-192.36"/>
<polygon fill="#63b8ff" stroke="#63b8ff" points="908.09,-207.68 918.63,-206.61 909.72,-200.88 908.09,-207.68"/>
</a>
</g>
</g>
<!-- Node19 -->
<g id="Node000019" class="node">
<title>Node19</title>
<g id="a_Node000019"><a xlink:href="namespacefabomatic_1_1tests.xhtml#a7cd22311b16fc7c256a30ba4c2f6f387" target="_top" xlink:title="blink led">
<polygon fill="white" stroke="#666666" points="868.88,-154.5 762.88,-154.5 762.88,-124 868.88,-124 868.88,-154.5"/>
<text text-anchor="start" x="770.88" y="-141" font-family="Helvetica,sans-Serif" font-size="10.00">fabomatic::tests::test</text>
<text text-anchor="middle" x="815.88" y="-129.75" font-family="Helvetica,sans-Serif" font-size="10.00">_taskVarious</text>
</a>
</g>
</g>
<!-- Node2&#45;&gt;Node19 -->
<g id="edge30_Node000002_Node000019" class="edge">
<title>Node2&#45;&gt;Node19</title>
<g id="a_edge30_Node000002_Node000019"><a xlink:title=" ">
<path fill="none" stroke="#63b8ff" d="M943.98,-198.15C926.82,-186.78 904.94,-173.24 884.25,-163.25 878.1,-160.28 871.48,-157.48 864.88,-154.91"/>
<polygon fill="#63b8ff" stroke="#63b8ff" points="941.99,-201.03 952.24,-203.71 945.9,-195.22 941.99,-201.03"/>
</a>
</g>
</g>
<!-- Node4 -->
<g id="Node000004" class="node">
<title>Node4</title>
<g id="a_Node000004"><a xlink:href="namespacefabomatic_1_1tests.xhtml#a558e2287db01a4622581246a19dac397" target="_top" xlink:title=" ">
<polygon fill="white" stroke="#666666" points="188.38,-397.5 82.38,-397.5 82.38,-367 188.38,-367 188.38,-397.5"/>
<text text-anchor="start" x="90.38" y="-384" font-family="Helvetica,sans-Serif" font-size="10.00">fabomatic::tests::test</text>
<text text-anchor="middle" x="135.38" y="-372.75" font-family="Helvetica,sans-Serif" font-size="10.00">_machine_allowed</text>
</a>
</g>
</g>
<!-- Node3&#45;&gt;Node4 -->
<g id="edge3_Node000003_Node000004" class="edge">
<title>Node3&#45;&gt;Node4</title>
<g id="a_edge3_Node000003_Node000004"><a xlink:title=" ">
<path fill="none" stroke="#63b8ff" d="M219.35,-390.27C208.84,-389.26 198.32,-388.24 188.47,-387.29"/>
<polygon fill="#63b8ff" stroke="#63b8ff" points="218.93,-393.75 229.22,-391.23 219.6,-386.78 218.93,-393.75"/>
</a>
</g>
</g>
<!-- Node6 -->
<g id="Node000006" class="node">
<title>Node6</title>
<g id="a_Node000006"><a xlink:href="namespacefabomatic_1_1tests.xhtml#a9a34631c2dc01cbdbbce146895c94e12" target="_top" xlink:title=" ">
<polygon fill="white" stroke="#666666" points="194.75,-348.5 76,-348.5 76,-318 194.75,-318 194.75,-348.5"/>
<text text-anchor="start" x="84" y="-335" font-family="Helvetica,sans-Serif" font-size="10.00">fabomatic::tests::test</text>
<text text-anchor="middle" x="135.38" y="-323.75" font-family="Helvetica,sans-Serif" font-size="10.00">_machine_maintenance</text>
</a>
</g>
</g>
<!-- Node3&#45;&gt;Node6 -->
<g id="edge5_Node000003_Node000006" class="edge">
<title>Node3&#45;&gt;Node6</title>
<g id="a_edge5_Node000003_Node000006"><a xlink:title=" ">
<path fill="none" stroke="#63b8ff" d="M265.7,-384.04C239.34,-373.69 203.63,-359.66 176.41,-348.97"/>
<polygon fill="#63b8ff" stroke="#63b8ff" points="264.38,-387.28 274.97,-387.68 266.94,-380.77 264.38,-387.28"/>
</a>
</g>
</g>
<!-- Node7 -->
<g id="Node000007" class="node">
<title>Node7</title>
<g id="a_Node000007"><a xlink:href="namespacefabomatic_1_1tests.xhtml#a6f3dff17fd964aba76c35c514957a0a5" target="_top" xlink:title=" ">
<polygon fill="white" stroke="#666666" points="189.88,-446.5 80.88,-446.5 80.88,-416 189.88,-416 189.88,-446.5"/>
<text text-anchor="start" x="88.88" y="-433" font-family="Helvetica,sans-Serif" font-size="10.00">fabomatic::tests::test</text>
<text text-anchor="middle" x="135.38" y="-421.75" font-family="Helvetica,sans-Serif" font-size="10.00">_one_user_at_a_time</text>
</a>
</g>
</g>
<!-- Node3&#45;&gt;Node7 -->
<g id="edge7_Node000003_Node000007" class="edge">
<title>Node3&#45;&gt;Node7</title>
<g id="a_edge7_Node000003_Node000007"><a xlink:title=" ">
<path fill="none" stroke="#63b8ff" d="M240.21,-410.55C223.84,-413.81 206.28,-417.31 190.35,-420.49"/>
<polygon fill="#63b8ff" stroke="#63b8ff" points="240.71,-414.01 249.84,-408.63 239.34,-407.15 240.71,-414.01"/>
</a>
</g>
</g>
<!-- Node3&#45;&gt;Node8 -->
<g id="edge9_Node000003_Node000008" class="edge">
<title>Node3&#45;&gt;Node8</title>
<g id="a_edge9_Node000003_Node000008"><a xlink:title=" ">
<path fill="none" stroke="#63b8ff" d="M283.98,-380.58C263.66,-361.21 228.89,-330.13 194.75,-309.25 189.3,-305.91 183.32,-302.81 177.33,-299.99"/>
<polygon fill="#63b8ff" stroke="#63b8ff" points="281.29,-382.85 290.91,-387.28 286.16,-377.81 281.29,-382.85"/>
</a>
</g>
</g>
<!-- Node3&#45;&gt;Node9 -->
<g id="edge11_Node000003_Node000009" class="edge">
<title>Node3&#45;&gt;Node9</title>
<g id="a_edge11_Node000003_Node000009"><a xlink:title=" ">
<path fill="none" stroke="#63b8ff" d="M274.27,-413.77C252.83,-425.61 222.22,-442.09 194.75,-455.25 188.19,-458.39 181.13,-461.58 174.27,-464.57"/>
<polygon fill="#63b8ff" stroke="#63b8ff" points="275.93,-416.85 282.97,-408.93 272.53,-410.73 275.93,-416.85"/>
</a>
</g>
</g>
<!-- Node5 -->
<g id="Node000005" class="node">
<title>Node5</title>
<g id="a_Node000005"><a xlink:href="test__logic_8cpp.xhtml#a4fc01d736fe50cf5b977f755b675f11d" target="_top" xlink:title=" ">
<polygon fill="white" stroke="#666666" points="40,-366.88 0,-366.88 0,-347.62 40,-347.62 40,-366.88"/>
<text text-anchor="middle" x="20" y="-353.38" font-family="Helvetica,sans-Serif" font-size="10.00">setup</text>
</a>
</g>
</g>
<!-- Node4&#45;&gt;Node5 -->
<g id="edge4_Node000004_Node000005" class="edge">
<title>Node4&#45;&gt;Node5</title>
<g id="a_edge4_Node000004_Node000005"><a xlink:title=" ">
<path fill="none" stroke="#63b8ff" d="M70.85,-368.24C59.76,-365.8 49.01,-363.43 40.36,-361.52"/>
<polygon fill="#63b8ff" stroke="#63b8ff" points="70,-371.64 80.52,-370.38 71.51,-364.8 70,-371.64"/>
</a>
</g>
</g>
<!-- Node6&#45;&gt;Node5 -->
<g id="edge6_Node000006_Node000005" class="edge">
<title>Node6&#45;&gt;Node5</title>
<g id="a_edge6_Node000006_Node000005"><a xlink:title=" ">
<path fill="none" stroke="#63b8ff" d="M64.44,-348.05C55.69,-349.91 47.39,-351.66 40.43,-353.14"/>
<polygon fill="#63b8ff" stroke="#63b8ff" points="65.16,-351.48 74.21,-345.99 63.71,-344.63 65.16,-351.48"/>
</a>
</g>
</g>
<!-- Node7&#45;&gt;Node5 -->
<g id="edge8_Node000007_Node000005" class="edge">
<title>Node7&#45;&gt;Node5</title>
<g id="a_edge8_Node000007_Node000005"><a xlink:title=" ">
<path fill="none" stroke="#63b8ff" d="M82.96,-410.37C80.57,-409.05 78.24,-407.67 76,-406.25 58.3,-395 40.71,-378.05 30.35,-367.33"/>
<polygon fill="#63b8ff" stroke="#63b8ff" points="81.17,-413.39 91.66,-414.84 84.36,-407.16 81.17,-413.39"/>
</a>
</g>
</g>
<!-- Node8&#45;&gt;Node5 -->
<g id="edge10_Node000008_Node000005" class="edge">
<title>Node8&#45;&gt;Node5</title>
<g id="a_edge10_Node000008_Node000005"><a xlink:title=" ">
<path fill="none" stroke="#63b8ff" d="M83.1,-305.09C80.66,-306.43 78.28,-307.81 76,-309.25 58.4,-320.31 40.78,-336.9 30.39,-347.39"/>
<polygon fill="#63b8ff" stroke="#63b8ff" points="84.67,-308.21 92,-300.56 81.5,-301.98 84.67,-308.21"/>
</a>
</g>
</g>
<!-- Node9&#45;&gt;Node5 -->
<g id="edge12_Node000009_Node000005" class="edge">
<title>Node9&#45;&gt;Node5</title>
<g id="a_edge12_Node000009_Node000005"><a xlink:title=" ">
<path fill="none" stroke="#63b8ff" d="M79.85,-458.44C78.52,-457.42 77.23,-456.36 76,-455.25 47.85,-429.95 30.78,-386.72 24.16,-367.26"/>
<polygon fill="#63b8ff" stroke="#63b8ff" points="77.64,-461.17 87.92,-463.73 81.48,-455.32 77.64,-461.17"/>
</a>
</g>
</g>
<!-- Node11 -->
<g id="Node000011" class="node">
<title>Node11</title>
<g id="a_Node000011"><a xlink:href="classfabomatic_1_1_board_logic.xhtml#a25bdc3a49d850aa49f92faf951b68efb" target="_top" xlink:title="Checks if a new card is present.">
<polygon fill="white" stroke="#666666" points="698.75,-391.5 586,-391.5 586,-361 698.75,-361 698.75,-391.5"/>
<text text-anchor="start" x="594" y="-378" font-family="Helvetica,sans-Serif" font-size="10.00">fabomatic::BoardLogic</text>
<text text-anchor="middle" x="642.38" y="-366.75" font-family="Helvetica,sans-Serif" font-size="10.00">::checkRfid</text>
</a>
</g>
</g>
<!-- Node10&#45;&gt;Node11 -->
<g id="edge14_Node000010_Node000011" class="edge">
<title>Node10&#45;&gt;Node11</title>
<g id="a_edge14_Node000010_Node000011"><a xlink:title=" ">
<path fill="none" stroke="#63b8ff" d="M755.91,-339.5C734.91,-346.36 711.53,-354 691.54,-360.52"/>
<polygon fill="#63b8ff" stroke="#63b8ff" points="756.79,-342.9 765.21,-336.47 754.62,-336.24 756.79,-342.9"/>
</a>
</g>
</g>
<!-- Node11&#45;&gt;Node9 -->
<g id="edge28_Node000011_Node000009" class="edge">
<title>Node11&#45;&gt;Node9</title>
<g id="a_edge28_Node000011_Node000009"><a xlink:title=" ">
<path fill="none" stroke="#63b8ff" d="M612.63,-398.72C592.54,-413.39 564.53,-431.87 537.25,-443.25 421.78,-491.4 271.8,-490.3 192.02,-485.29"/>
<polygon fill="#63b8ff" stroke="#63b8ff" points="614.68,-401.55 620.61,-392.77 610.5,-395.94 614.68,-401.55"/>
</a>
</g>
</g>
<!-- Node12 -->
<g id="Node000012" class="node">
<title>Node12</title>
<g id="a_Node000012"><a xlink:href="namespacefabomatic_1_1tests.xhtml#a2600320f41c9fa343c66058ecb12b5ee" target="_top" xlink:title="Simulates RFID card tap.">
<polygon fill="white" stroke="#666666" points="537.25,-348.5 411,-348.5 411,-318 537.25,-318 537.25,-348.5"/>
<text text-anchor="start" x="419" y="-335" font-family="Helvetica,sans-Serif" font-size="10.00">fabomatic::tests::simulate</text>
<text text-anchor="middle" x="474.12" y="-323.75" font-family="Helvetica,sans-Serif" font-size="10.00">_rfid_card</text>
</a>
</g>
</g>
<!-- Node11&#45;&gt;Node12 -->
<g id="edge15_Node000011_Node000012" class="edge">
<title>Node11&#45;&gt;Node12</title>
<g id="a_edge15_Node000011_Node000012"><a xlink:title=" ">
<path fill="none" stroke="#63b8ff" d="M574.52,-358.96C561.77,-355.66 548.49,-352.22 535.94,-348.98"/>
<polygon fill="#63b8ff" stroke="#63b8ff" points="573.53,-362.32 584.09,-361.43 575.28,-355.54 573.53,-362.32"/>
</a>
</g>
</g>
<!-- Node16 -->
<g id="Node000016" class="node">
<title>Node16</title>
<g id="a_Node000016"><a xlink:href="namespacefabomatic.xhtml#a3e5c190499522bddad3f3cc69274f16c" target="_top" xlink:title="periodic check for new RFID card">
<polygon fill="white" stroke="#666666" points="537.25,-385.88 411,-385.88 411,-366.62 537.25,-366.62 537.25,-385.88"/>
<text text-anchor="middle" x="474.12" y="-372.38" font-family="Helvetica,sans-Serif" font-size="10.00">fabomatic::taskCheckRfid</text>
</a>
</g>
</g>
<!-- Node11&#45;&gt;Node16 -->
<g id="edge26_Node000011_Node000016" class="edge">
<title>Node11&#45;&gt;Node16</title>
<g id="a_edge26_Node000011_Node000016"><a xlink:title=" ">
<path fill="none" stroke="#63b8ff" d="M574.17,-376.25C562.11,-376.25 549.59,-376.25 537.67,-376.25"/>
<polygon fill="#63b8ff" stroke="#63b8ff" points="574.04,-379.75 584.04,-376.25 574.04,-372.75 574.04,-379.75"/>
</a>
</g>
</g>
<!-- Node17 -->
<g id="Node000017" class="node">
<title>Node17</title>
<g id="a_Node000017"><a xlink:href="namespacefabomatic_1_1tests.xhtml#a294b4767ecf1e1d11cc31dafb2541d23" target="_top" xlink:title="periodic check for new RFID card">
<polygon fill="white" stroke="#666666" points="527.12,-434.5 421.12,-434.5 421.12,-404 527.12,-404 527.12,-434.5"/>
<text text-anchor="start" x="429.12" y="-421" font-family="Helvetica,sans-Serif" font-size="10.00">fabomatic::tests::test</text>
<text text-anchor="middle" x="474.12" y="-409.75" font-family="Helvetica,sans-Serif" font-size="10.00">_taskCheckRfid</text>
</a>
</g>
</g>
<!-- Node11&#45;&gt;Node17 -->
<g id="edge27_Node000011_Node000017" class="edge">
<title>Node11&#45;&gt;Node17</title>
<g id="a_edge27_Node000011_Node000017"><a xlink:title=" ">
<path fill="none" stroke="#63b8ff" d="M574.8,-393.47C559.04,-397.55 542.45,-401.84 527.43,-405.72"/>
<polygon fill="#63b8ff" stroke="#63b8ff" points="575.28,-396.96 584.09,-391.07 573.53,-390.18 575.28,-396.96"/>
</a>
</g>
</g>
<!-- Node12&#45;&gt;Node3 -->
<g id="edge16_Node000012_Node000003" class="edge">
<title>Node12&#45;&gt;Node3</title>
<g id="a_edge16_Node000012_Node000003"><a xlink:title=" ">
<path fill="none" stroke="#63b8ff" d="M420.66,-353.21C417.38,-354.55 414.14,-355.9 411,-357.25 394.74,-364.22 391.41,-367.63 375,-374.25 362.55,-379.27 348.61,-384.14 336.38,-388.16"/>
<polygon fill="#63b8ff" stroke="#63b8ff" points="421.81,-356.52 429.78,-349.54 419.2,-350.02 421.81,-356.52"/>
</a>
</g>
</g>
<!-- Node12&#45;&gt;Node4 -->
<g id="edge19_Node000012_Node000004" class="edge">
<title>Node12&#45;&gt;Node4</title>
<g id="a_edge19_Node000012_Node000004"><a xlink:title=" ">
<path fill="none" stroke="#63b8ff" d="M399.4,-343.98C335.67,-353.25 245.16,-366.42 188.65,-374.64"/>
<polygon fill="#63b8ff" stroke="#63b8ff" points="399.68,-347.47 409.08,-342.57 398.68,-340.55 399.68,-347.47"/>
</a>
</g>
</g>
<!-- Node12&#45;&gt;Node6 -->
<g id="edge20_Node000012_Node000006" class="edge">
<title>Node12&#45;&gt;Node6</title>
<g id="a_edge20_Node000012_Node000006"><a xlink:title=" ">
<path fill="none" stroke="#63b8ff" d="M399.43,-333.25C338.11,-333.25 251.98,-333.25 195.21,-333.25"/>
<polygon fill="#63b8ff" stroke="#63b8ff" points="399.06,-336.75 409.06,-333.25 399.06,-329.75 399.06,-336.75"/>
</a>
</g>
</g>
<!-- Node12&#45;&gt;Node7 -->
<g id="edge23_Node000012_Node000007" class="edge">
<title>Node12&#45;&gt;Node7</title>
<g id="a_edge23_Node000012_Node000007"><a xlink:title=" ">
<path fill="none" stroke="#63b8ff" d="M413.87,-354.98C412.89,-355.71 411.93,-356.47 411,-357.25 387.2,-377.27 401.6,-401.14 375,-417.25 319.09,-451.11 241.65,-448.6 190.34,-441.66"/>
<polygon fill="#63b8ff" stroke="#63b8ff" points="415.44,-358.12 421.98,-349.78 411.67,-352.23 415.44,-358.12"/>
</a>
</g>
</g>
<!-- Node12&#45;&gt;Node8 -->
<g id="edge24_Node000012_Node000008" class="edge">
<title>Node12&#45;&gt;Node8</title>
<g id="a_edge24_Node000012_Node000008"><a xlink:title=" ">
<path fill="none" stroke="#63b8ff" d="M399.4,-322.52C335.67,-313.25 245.16,-300.08 188.65,-291.86"/>
<polygon fill="#63b8ff" stroke="#63b8ff" points="398.68,-325.95 409.08,-323.93 399.68,-319.03 398.68,-325.95"/>
</a>
</g>
</g>
<!-- Node12&#45;&gt;Node9 -->
<g id="edge25_Node000012_Node000009" class="edge">
<title>Node12&#45;&gt;Node9</title>
<g id="a_edge25_Node000012_Node000009"><a xlink:title=" ">
<path fill="none" stroke="#63b8ff" d="M412.86,-355.52C412.22,-356.08 411.6,-356.66 411,-357.25 380.83,-386.84 408.28,-419.21 375,-445.25 323.07,-485.89 244.71,-489.78 192.11,-486.74"/>
<polygon fill="#63b8ff" stroke="#63b8ff" points="414.61,-358.57 420.61,-349.84 410.47,-352.93 414.61,-358.57"/>
</a>
</g>
</g>
<!-- Node13 -->
<g id="Node000013" class="node">
<title>Node13</title>
<g id="a_Node000013"><a xlink:href="namespacefabomatic_1_1tests.xhtml#a0b99fa5582e6b0ecb416f4ed348e5606" target="_top" xlink:title=" ">
<polygon fill="white" stroke="#666666" points="358.5,-167.5 247.25,-167.5 247.25,-137 358.5,-137 358.5,-167.5"/>
<text text-anchor="start" x="255.25" y="-154" font-family="Helvetica,sans-Serif" font-size="10.00">fabomatic::tests::test</text>
<text text-anchor="middle" x="302.88" y="-142.75" font-family="Helvetica,sans-Serif" font-size="10.00">_backend_commands</text>
</a>
</g>
</g>
<!-- Node12&#45;&gt;Node13 -->
<g id="edge17_Node000012_Node000013" class="edge">
<title>Node12&#45;&gt;Node13</title>
<g id="a_edge17_Node000012_Node000013"><a xlink:title=" ">
<path fill="none" stroke="#63b8ff" d="M454.03,-308.88C434.86,-284.85 404.07,-247.45 375,-217.25 357.95,-199.53 337.03,-180.73 322.3,-167.93"/>
<polygon fill="#63b8ff" stroke="#63b8ff" points="451.12,-310.85 460.08,-316.51 456.61,-306.5 451.12,-310.85"/>
</a>
</g>
</g>
<!-- Node15 -->
<g id="Node000015" class="node">
<title>Node15</title>
<g id="a_Node000015"><a xlink:href="namespacefabomatic_1_1tests.xhtml#af8fa7ace86309b5f699540d8898660c7" target="_top" xlink:title=" ">
<polygon fill="white" stroke="#666666" points="355.88,-256.5 249.88,-256.5 249.88,-226 355.88,-226 355.88,-256.5"/>
<text text-anchor="start" x="257.88" y="-243" font-family="Helvetica,sans-Serif" font-size="10.00">fabomatic::tests::test</text>
<text text-anchor="middle" x="302.88" y="-231.75" font-family="Helvetica,sans-Serif" font-size="10.00">_messages_buffered</text>
</a>
</g>
</g>
<!-- Node12&#45;&gt;Node15 -->
<g id="edge21_Node000012_Node000015" class="edge">
<title>Node12&#45;&gt;Node15</title>
<g id="a_edge21_Node000012_Node000015"><a xlink:title=" ">
<path fill="none" stroke="#63b8ff" d="M441.94,-311.14C423.08,-298.3 398.26,-282.33 375,-270.25 365.77,-265.46 355.56,-260.89 345.83,-256.86"/>
<polygon fill="#63b8ff" stroke="#63b8ff" points="439.75,-313.88 449.97,-316.67 443.72,-308.11 439.75,-313.88"/>
</a>
</g>
</g>
<!-- Node14 -->
<g id="Node000014" class="node">
<title>Node14</title>
<g id="a_Node000014"><a xlink:href="test__mqtt_8cpp.xhtml#a4fc01d736fe50cf5b977f755b675f11d" target="_top" xlink:title=" ">
<polygon fill="white" stroke="#666666" points="155.38,-92.88 115.38,-92.88 115.38,-73.62 155.38,-73.62 155.38,-92.88"/>
<text text-anchor="middle" x="135.38" y="-79.38" font-family="Helvetica,sans-Serif" font-size="10.00">setup</text>
</a>
</g>
</g>
<!-- Node13&#45;&gt;Node14 -->
<g id="edge18_Node000013_Node000014" class="edge">
<title>Node13&#45;&gt;Node14</title>
<g id="a_edge18_Node000013_Node000014"><a xlink:title=" ">
<path fill="none" stroke="#63b8ff" d="M254.05,-132.31C221.34,-118.68 179.73,-101.32 155.76,-91.33"/>
<polygon fill="#63b8ff" stroke="#63b8ff" points="252.35,-135.39 262.92,-136.01 255.04,-128.93 252.35,-135.39"/>
</a>
</g>
</g>
<!-- Node15&#45;&gt;Node5 -->
<g id="edge22_Node000015_Node000005" class="edge">
<title>Node15&#45;&gt;Node5</title>
<g id="a_edge22_Node000015_Node000005"><a xlink:title=" ">
<path fill="none" stroke="#63b8ff" d="M238.29,-231.51C190.03,-227.48 124.02,-229.51 76,-260.25 44.04,-280.71 28.78,-326.7 23.38,-347.13"/>
<polygon fill="#63b8ff" stroke="#63b8ff" points="237.75,-234.97 248.03,-232.44 238.41,-228 237.75,-234.97"/>
</a>
</g>
</g>
<!-- Node20&#45;&gt;Node14 -->
<g id="edge34_Node000020_Node000014" class="edge">
<title>Node20&#45;&gt;Node14</title>
<g id="a_edge34_Node000020_Node000014"><a xlink:title=" ">
<path fill="none" stroke="#63b8ff" d="M561.71,-62.19C441.7,-68.14 221.52,-79.03 155.55,-82.3"/>
<polygon fill="#63b8ff" stroke="#63b8ff" points="561.68,-65.7 571.49,-61.71 561.33,-58.71 561.68,-65.7"/>
</a>
</g>
</g>
<!-- Node21&#45;&gt;Node14 -->
<g id="edge36_Node000021_Node000014" class="edge">
<title>Node21&#45;&gt;Node14</title>
<g id="a_edge36_Node000021_Node000014"><a xlink:title=" ">
<path fill="none" stroke="#63b8ff" d="M912.08,-15.25C845.21,-15.25 736.89,-15.25 643.38,-15.25 643.38,-15.25 643.38,-15.25 473.12,-15.25 350.26,-15.25 207.08,-59.28 155.83,-76.48"/>
<polygon fill="#63b8ff" stroke="#63b8ff" points="911.75,-18.75 921.75,-15.25 911.75,-11.75 911.75,-18.75"/>
</a>
</g>
</g>
<!-- Node22&#45;&gt;Node14 -->
<g id="edge38_Node000022_Node000014" class="edge">
<title>Node22&#45;&gt;Node14</title>
<g id="a_edge38_Node000022_Node000014"><a xlink:title=" ">
<path fill="none" stroke="#63b8ff" d="M577.81,-104.23C462.57,-98.75 224.69,-87.45 155.59,-84.16"/>
<polygon fill="#63b8ff" stroke="#63b8ff" points="577.57,-107.72 587.72,-104.7 577.9,-100.73 577.57,-107.72"/>
</a>
</g>
</g>
</g>
</svg>
