<?xml version="1.0" encoding="UTF-8" standalone="no"?>
<!DOCTYPE svg PUBLIC "-//W3C//DTD SVG 1.1//EN"
 "http://www.w3.org/Graphics/SVG/1.1/DTD/svg11.dtd">
<!-- Generated by graphviz version 9.0.0 (20230911.1827)
 -->
<!-- Title: fabomatic::MQTTInterface::Response Pages: 1 -->
<svg width="413pt" height="314pt"
 viewBox="0.00 0.00 413.00 314.00" xmlns="http://www.w3.org/2000/svg" xmlns:xlink="http://www.w3.org/1999/xlink">
<g id="graph0" class="graph" transform="scale(1 1) rotate(0) translate(4 310)">
<title>fabomatic::MQTTInterface::Response</title>
<!-- Node1 -->
<g id="Node000001" class="node">
<title>Node1</title>
<g id="a_Node000001"><a xlink:title="Base class for server replies.">
<polygon fill="#999999" stroke="none" points="264,-306 141,-306 141,-231 264,-231 264,-306"/>
<text text-anchor="start" x="145.88" y="-292.5" font-family="Helvetica,sans-Serif" font-size="10.00">fabomatic::MQTTInterface</text>
<text text-anchor="start" x="178.5" y="-281.25" font-family="Helvetica,sans-Serif" font-size="10.00">::Response</text>
<text text-anchor="start" x="159" y="-266.5" font-family="Helvetica,sans-Serif" font-size="10.00">+</text>
<text text-anchor="start" x="183" y="-266.5" font-family="Helvetica,sans-Serif" font-size="10.00">request_ok</text>
<text text-anchor="start" x="159" y="-251.5" font-family="Helvetica,sans-Serif" font-size="10.00">+</text>
<text text-anchor="start" x="183" y="-251.5" font-family="Helvetica,sans-Serif" font-size="10.00">Response()</text>
<text text-anchor="start" x="159" y="-236.5" font-family="Helvetica,sans-Serif" font-size="10.00">+</text>
<text text-anchor="start" x="183" y="-236.5" font-family="Helvetica,sans-Serif" font-size="10.00">Response()</text>
<polygon fill="#666666" stroke="#666666" points="141,-278 141,-278 264,-278 264,-278 141,-278"/>
<polygon fill="#666666" stroke="#666666" points="141,-263 141,-263 181,-263 181,-263 141,-263"/>
<polygon fill="#666666" stroke="#666666" points="181,-263 181,-263 264,-263 264,-263 181,-263"/>
<polygon fill="none" stroke="#666666" points="141,-231 141,-306 264,-306 264,-231 141,-231"/>
</a>
</g>
</g>
<!-- Node2 -->
<g id="Node000002" class="node">
<title>Node2</title>
<g id="a_Node000002"><a xlink:href="classfabomatic_1_1_m_q_t_t_interface_1_1_machine_response.xhtml" target="_top" xlink:title="Backend response for machine status query.">
<polygon fill="white" stroke="none" points="123,-195 0,-195 0,0 123,0 123,-195"/>
<text text-anchor="start" x="4.88" y="-181.5" font-family="Helvetica,sans-Serif" font-size="10.00">fabomatic::MQTTInterface</text>
<text text-anchor="start" x="19.12" y="-170.25" font-family="Helvetica,sans-Serif" font-size="10.00">::MachineResponse</text>
<text text-anchor="start" x="8.5" y="-155.5" font-family="Helvetica,sans-Serif" font-size="10.00">+</text>
<text text-anchor="start" x="23" y="-155.5" font-family="Helvetica,sans-Serif" font-size="10.00">is_valid</text>
<text text-anchor="start" x="8.5" y="-140.5" font-family="Helvetica,sans-Serif" font-size="10.00">+</text>
<text text-anchor="start" x="23" y="-140.5" font-family="Helvetica,sans-Serif" font-size="10.00">maintenance</text>
<text text-anchor="start" x="8.5" y="-125.5" font-family="Helvetica,sans-Serif" font-size="10.00">+</text>
<text text-anchor="start" x="23" y="-125.5" font-family="Helvetica,sans-Serif" font-size="10.00">allowed</text>
<text text-anchor="start" x="8.5" y="-110.5" font-family="Helvetica,sans-Serif" font-size="10.00">+</text>
<text text-anchor="start" x="23" y="-110.5" font-family="Helvetica,sans-Serif" font-size="10.00">logoff</text>
<text text-anchor="start" x="8.5" y="-95.5" font-family="Helvetica,sans-Serif" font-size="10.00">+</text>
<text text-anchor="start" x="23" y="-95.5" font-family="Helvetica,sans-Serif" font-size="10.00">name</text>
<text text-anchor="start" x="8.5" y="-80.5" font-family="Helvetica,sans-Serif" font-size="10.00">+</text>
<text text-anchor="start" x="23" y="-80.5" font-family="Helvetica,sans-Serif" font-size="10.00">type</text>
<text text-anchor="start" x="8.5" y="-65.5" font-family="Helvetica,sans-Serif" font-size="10.00">+</text>
<text text-anchor="start" x="23" y="-65.5" font-family="Helvetica,sans-Serif" font-size="10.00">grace</text>
<text text-anchor="start" x="8.5" y="-50.5" font-family="Helvetica,sans-Serif" font-size="10.00">+</text>
<text text-anchor="start" x="23" y="-50.5" font-family="Helvetica,sans-Serif" font-size="10.00">description</text>
<text text-anchor="start" x="8.5" y="-35.5" font-family="Helvetica,sans-Serif" font-size="10.00">+</text>
<text text-anchor="start" x="23" y="-35.5" font-family="Helvetica,sans-Serif" font-size="10.00">MachineResponse()</text>
<text text-anchor="start" x="8.5" y="-20.5" font-family="Helvetica,sans-Serif" font-size="10.00">+</text>
<text text-anchor="start" x="23" y="-20.5" font-family="Helvetica,sans-Serif" font-size="10.00">MachineResponse()</text>
<text text-anchor="start" x="8.5" y="-5.5" font-family="Helvetica,sans-Serif" font-size="10.00">+</text>
<text text-anchor="start" x="23" y="-5.5" font-family="Helvetica,sans-Serif" font-size="10.00">fromJson()</text>
<polygon fill="#666666" stroke="#666666" points="0,-167 0,-167 123,-167 123,-167 0,-167"/>
<polygon fill="#666666" stroke="#666666" points="0,-47 0,-47 21,-47 21,-47 0,-47"/>
<polygon fill="#666666" stroke="#666666" points="21,-47 21,-47 123,-47 123,-47 21,-47"/>
<polygon fill="none" stroke="#666666" points="0,0 0,-195 123,-195 123,0 0,0"/>
</a>
</g>
</g>
<!-- Node1&#45;&gt;Node2 -->
<g id="edge1_Node000001_Node000002" class="edge">
<title>Node1&#45;&gt;Node2</title>
<g id="a_edge1_Node000001_Node000002"><a xlink:title=" ">
<path fill="none" stroke="#63b8ff" d="M157,-223.09C148.29,-214.02 139.42,-204.38 131.5,-195 128.56,-191.52 125.61,-187.93 122.67,-184.26"/>
<polygon fill="none" stroke="#63b8ff" points="154.39,-225.43 163.87,-230.15 159.4,-220.54 154.39,-225.43"/>
</a>
</g>
</g>
<!-- Node3 -->
<g id="Node000003" class="node">
<title>Node3</title>
<g id="a_Node000003"><a xlink:href="classfabomatic_1_1_m_q_t_t_interface_1_1_simple_response.xhtml" target="_top" xlink:title="Default response for all other messages.">
<polygon fill="white" stroke="none" points="264,-142.5 141,-142.5 141,-52.5 264,-52.5 264,-142.5"/>
<text text-anchor="start" x="145.88" y="-129" font-family="Helvetica,sans-Serif" font-size="10.00">fabomatic::MQTTInterface</text>
<text text-anchor="start" x="163.5" y="-117.75" font-family="Helvetica,sans-Serif" font-size="10.00">::SimpleResponse</text>
<text text-anchor="start" x="201" y="-103" font-family="Helvetica,sans-Serif" font-size="10.00"> </text>
<text text-anchor="start" x="151.5" y="-88" font-family="Helvetica,sans-Serif" font-size="10.00">+</text>
<text text-anchor="start" x="168" y="-88" font-family="Helvetica,sans-Serif" font-size="10.00">SimpleResponse()</text>
<text text-anchor="start" x="151.5" y="-73" font-family="Helvetica,sans-Serif" font-size="10.00">+</text>
<text text-anchor="start" x="168" y="-73" font-family="Helvetica,sans-Serif" font-size="10.00">SimpleResponse()</text>
<text text-anchor="start" x="151.5" y="-58" font-family="Helvetica,sans-Serif" font-size="10.00">+</text>
<text text-anchor="start" x="168" y="-58" font-family="Helvetica,sans-Serif" font-size="10.00">fromJson()</text>
<polygon fill="#666666" stroke="#666666" points="141,-114.5 141,-114.5 264,-114.5 264,-114.5 141,-114.5"/>
<polygon fill="#666666" stroke="#666666" points="141,-99.5 141,-99.5 264,-99.5 264,-99.5 141,-99.5"/>
<polygon fill="none" stroke="#666666" points="141,-52.5 141,-142.5 264,-142.5 264,-52.5 141,-52.5"/>
</a>
</g>
</g>
<!-- Node1&#45;&gt;Node3 -->
<g id="edge2_Node000001_Node000003" class="edge">
<title>Node1&#45;&gt;Node3</title>
<g id="a_edge2_Node000001_Node000003"><a xlink:title=" ">
<path fill="none" stroke="#63b8ff" d="M202.5,-219.78C202.5,-195.52 202.5,-166.22 202.5,-142.5"/>
<polygon fill="none" stroke="#63b8ff" points="199,-219.73 202.5,-229.73 206,-219.73 199,-219.73"/>
</a>
</g>
</g>
<!-- Node4 -->
<g id="Node000004" class="node">
<title>Node4</title>
<g id="a_Node000004"><a xlink:href="classfabomatic_1_1_m_q_t_t_interface_1_1_user_response.xhtml" target="_top" xlink:title="Backend response for a user authentication query.">
<polygon fill="white" stroke="none" points="405,-180 282,-180 282,-15 405,-15 405,-180"/>
<text text-anchor="start" x="286.88" y="-166.5" font-family="Helvetica,sans-Serif" font-size="10.00">fabomatic::MQTTInterface</text>
<text text-anchor="start" x="309" y="-155.25" font-family="Helvetica,sans-Serif" font-size="10.00">::UserResponse</text>
<text text-anchor="start" x="294.5" y="-140.5" font-family="Helvetica,sans-Serif" font-size="10.00">+</text>
<text text-anchor="start" x="313" y="-140.5" font-family="Helvetica,sans-Serif" font-size="10.00">result</text>
<text text-anchor="start" x="294.5" y="-125.5" font-family="Helvetica,sans-Serif" font-size="10.00">+</text>
<text text-anchor="start" x="313" y="-125.5" font-family="Helvetica,sans-Serif" font-size="10.00">holder_name</text>
<text text-anchor="start" x="294.5" y="-110.5" font-family="Helvetica,sans-Serif" font-size="10.00">+</text>
<text text-anchor="start" x="313" y="-110.5" font-family="Helvetica,sans-Serif" font-size="10.00">user_level</text>
<text text-anchor="start" x="294.5" y="-95.5" font-family="Helvetica,sans-Serif" font-size="10.00">+</text>
<text text-anchor="start" x="313" y="-95.5" font-family="Helvetica,sans-Serif" font-size="10.00">UserResponse()</text>
<text text-anchor="start" x="294.5" y="-80.5" font-family="Helvetica,sans-Serif" font-size="10.00">+</text>
<text text-anchor="start" x="313" y="-80.5" font-family="Helvetica,sans-Serif" font-size="10.00">UserResponse()</text>
<text text-anchor="start" x="294.5" y="-65.5" font-family="Helvetica,sans-Serif" font-size="10.00">+</text>
<text text-anchor="start" x="313" y="-65.5" font-family="Helvetica,sans-Serif" font-size="10.00">UserResponse()</text>
<text text-anchor="start" x="294.5" y="-50.5" font-family="Helvetica,sans-Serif" font-size="10.00">+</text>
<text text-anchor="start" x="313" y="-50.5" font-family="Helvetica,sans-Serif" font-size="10.00">getResult()</text>
<text text-anchor="start" x="294.5" y="-35.5" font-family="Helvetica,sans-Serif" font-size="10.00">+</text>
<text text-anchor="start" x="313" y="-35.5" font-family="Helvetica,sans-Serif" font-size="10.00">toString()</text>
<text text-anchor="start" x="294.5" y="-20.5" font-family="Helvetica,sans-Serif" font-size="10.00">+</text>
<text text-anchor="start" x="313" y="-20.5" font-family="Helvetica,sans-Serif" font-size="10.00">fromJson()</text>
<polygon fill="#666666" stroke="#666666" points="282,-152 282,-152 405,-152 405,-152 282,-152"/>
<polygon fill="#666666" stroke="#666666" points="282,-107 282,-107 311,-107 311,-107 282,-107"/>
<polygon fill="#666666" stroke="#666666" points="311,-107 311,-107 405,-107 405,-107 311,-107"/>
<polygon fill="none" stroke="#666666" points="282,-15 282,-180 405,-180 405,-15 282,-15"/>
</a>
</g>
</g>
<!-- Node1&#45;&gt;Node4 -->
<g id="edge3_Node000001_Node000004" class="edge">
<title>Node1&#45;&gt;Node4</title>
<g id="a_edge3_Node000001_Node000004"><a xlink:title=" ">
<path fill="none" stroke="#63b8ff" d="M248,-223.09C256.71,-214.02 265.58,-204.38 273.5,-195 277.57,-190.18 281.67,-185.13 285.72,-179.99"/>
<polygon fill="none" stroke="#63b8ff" points="245.6,-220.54 241.13,-230.15 250.61,-225.43 245.6,-220.54"/>
</a>
</g>
</g>
</g>
</svg>
