<?xml version="1.0" encoding="UTF-8" standalone="no"?>
<!DOCTYPE svg PUBLIC "-//W3C//DTD SVG 1.1//EN"
 "http://www.w3.org/Graphics/SVG/1.1/DTD/svg11.dtd">
<!-- Generated by graphviz version 9.0.0 (20230911.1827)
 -->
<!-- Title: fabomatic::MockMQTTBroker Pages: 1 -->
<svg width="443pt" height="444pt"
 viewBox="0.00 0.00 442.50 444.00" xmlns="http://www.w3.org/2000/svg" xmlns:xlink="http://www.w3.org/1999/xlink">
<g id="graph0" class="graph" transform="scale(1 1) rotate(0) translate(4 440)">
<title>fabomatic::MockMQTTBroker</title>
<!-- Node1 -->
<g id="Node000001" class="node">
<title>Node1</title>
<g id="a_Node000001"><a xlink:title="This class implements an MQTT broker with predefined responses to FabBackend requests.">
<polygon fill="#999999" stroke="none" points="216,-199 79,-199 79,0 216,0 216,-199"/>
<text text-anchor="start" x="83.75" y="-185.5" font-family="Helvetica,sans-Serif" font-size="10.00">fabomatic::MockMQTTBroker</text>
<text text-anchor="start" x="92.5" y="-170.5" font-family="Helvetica,sans-Serif" font-size="10.00">&#45;</text>
<text text-anchor="start" x="109" y="-170.5" font-family="Helvetica,sans-Serif" font-size="10.00">callback</text>
<text text-anchor="start" x="92.5" y="-155.5" font-family="Helvetica,sans-Serif" font-size="10.00">&#45;</text>
<text text-anchor="start" x="109" y="-155.5" font-family="Helvetica,sans-Serif" font-size="10.00">is_running</text>
<text text-anchor="start" x="92.5" y="-140.5" font-family="Helvetica,sans-Serif" font-size="10.00">&#45;</text>
<text text-anchor="start" x="109" y="-140.5" font-family="Helvetica,sans-Serif" font-size="10.00">generate_replies</text>
<text text-anchor="start" x="91" y="-125.5" font-family="Helvetica,sans-Serif" font-size="10.00">+</text>
<text text-anchor="start" x="109" y="-125.5" font-family="Helvetica,sans-Serif" font-size="10.00">MockMQTTBroker()</text>
<text text-anchor="start" x="91" y="-110.5" font-family="Helvetica,sans-Serif" font-size="10.00">+</text>
<text text-anchor="start" x="109" y="-110.5" font-family="Helvetica,sans-Serif" font-size="10.00">isRunning()</text>
<text text-anchor="start" x="91" y="-95.5" font-family="Helvetica,sans-Serif" font-size="10.00">+</text>
<text text-anchor="start" x="109" y="-95.5" font-family="Helvetica,sans-Serif" font-size="10.00">start()</text>
<text text-anchor="start" x="91" y="-80.5" font-family="Helvetica,sans-Serif" font-size="10.00">+</text>
<text text-anchor="start" x="109" y="-80.5" font-family="Helvetica,sans-Serif" font-size="10.00">onEvent()</text>
<text text-anchor="start" x="91" y="-65.5" font-family="Helvetica,sans-Serif" font-size="10.00">+</text>
<text text-anchor="start" x="109" y="-65.5" font-family="Helvetica,sans-Serif" font-size="10.00">defaultReplies()</text>
<text text-anchor="start" x="91" y="-50.5" font-family="Helvetica,sans-Serif" font-size="10.00">+</text>
<text text-anchor="start" x="109" y="-50.5" font-family="Helvetica,sans-Serif" font-size="10.00">configureReplies()</text>
<text text-anchor="start" x="91" y="-35.5" font-family="Helvetica,sans-Serif" font-size="10.00">+</text>
<text text-anchor="start" x="109" y="-35.5" font-family="Helvetica,sans-Serif" font-size="10.00">processQueries()</text>
<text text-anchor="start" x="91" y="-20.5" font-family="Helvetica,sans-Serif" font-size="10.00">+</text>
<text text-anchor="start" x="109" y="-20.5" font-family="Helvetica,sans-Serif" font-size="10.00">mainLoop()</text>
<text text-anchor="start" x="91" y="-5.5" font-family="Helvetica,sans-Serif" font-size="10.00">+</text>
<text text-anchor="start" x="109" y="-5.5" font-family="Helvetica,sans-Serif" font-size="10.00">generateReplies()</text>
<polygon fill="#666666" stroke="#666666" points="79,-182 79,-182 216,-182 216,-182 79,-182"/>
<polygon fill="#666666" stroke="#666666" points="79,-137 79,-137 107,-137 107,-137 79,-137"/>
<polygon fill="#666666" stroke="#666666" points="107,-137 107,-137 216,-137 216,-137 107,-137"/>
<polygon fill="none" stroke="#666666" points="79,0 79,-199 216,-199 216,0 79,0"/>
</a>
</g>
</g>
<!-- Node2 -->
<g id="Node000002" class="node">
<title>Node2</title>
<g id="a_Node000002"><a xlink:title=" ">
<polygon fill="white" stroke="none" points="71,-312 0,-312 0,-263 71,-263 71,-312"/>
<text text-anchor="start" x="4.75" y="-298.5" font-family="Helvetica,sans-Serif" font-size="10.00">sMQTTBroker</text>
<text text-anchor="start" x="34" y="-283.5" font-family="Helvetica,sans-Serif" font-size="10.00"> </text>
<text text-anchor="start" x="34" y="-268.5" font-family="Helvetica,sans-Serif" font-size="10.00"> </text>
<polygon fill="#666666" stroke="#666666" points="0,-295 0,-295 71,-295 71,-295 0,-295"/>
<polygon fill="#666666" stroke="#666666" points="0,-280 0,-280 71,-280 71,-280 0,-280"/>
<polygon fill="none" stroke="#666666" points="0,-263 0,-312 71,-312 71,-263 0,-263"/>
</a>
</g>
</g>
<!-- Node2&#45;&gt;Node1 -->
<g id="edge1_Node000001_Node000002" class="edge">
<title>Node2&#45;&gt;Node1</title>
<g id="a_edge1_Node000001_Node000002"><a xlink:title=" ">
<path fill="none" stroke="#63b8ff" d="M55.25,-253.7C64.62,-238.14 76.37,-218.63 88.31,-198.81"/>
<polygon fill="none" stroke="#63b8ff" points="52.4,-251.65 50.24,-262.02 58.4,-255.26 52.4,-251.65"/>
</a>
</g>
</g>
<!-- Node3 -->
<g id="Node000003" class="node">
<title>Node3</title>
<g id="a_Node000003"><a xlink:title=" ">
<polygon fill="white" stroke="none" points="143.5,-312 89.5,-312 89.5,-263 143.5,-263 143.5,-312"/>
<text text-anchor="start" x="94.38" y="-298.5" font-family="Helvetica,sans-Serif" font-size="10.00">std::mutex</text>
<text text-anchor="start" x="115" y="-283.5" font-family="Helvetica,sans-Serif" font-size="10.00"> </text>
<text text-anchor="start" x="115" y="-268.5" font-family="Helvetica,sans-Serif" font-size="10.00"> </text>
<polygon fill="#666666" stroke="#666666" points="89.5,-295 89.5,-295 143.5,-295 143.5,-295 89.5,-295"/>
<polygon fill="#666666" stroke="#666666" points="89.5,-280 89.5,-280 143.5,-280 143.5,-280 89.5,-280"/>
<polygon fill="none" stroke="#666666" points="89.5,-263 89.5,-312 143.5,-312 143.5,-263 89.5,-263"/>
</a>
</g>
</g>
<!-- Node3&#45;&gt;Node1 -->
<g id="edge2_Node000001_Node000003" class="edge">
<title>Node3&#45;&gt;Node1</title>
<g id="a_edge2_Node000001_Node000003"><a xlink:title=" ">
<path fill="none" stroke="#63b8ff" d="M119.4,-263.29C121.15,-249.77 123.53,-232.39 126,-217 126.28,-215.25 126.57,-213.49 126.86,-211.72"/>
<polygon fill="none" stroke="#63b8ff" points="126.86,-211.69 123.91,-205.11 128.85,-199.85 131.8,-206.43 126.86,-211.69"/>
</a>
</g>
<text text-anchor="middle" x="142.25" y="-224.38" font-family="Helvetica,sans-Serif" font-size="10.00" fill="grey"> &#45;mutex</text>
</g>
<!-- Node4 -->
<g id="Node000004" class="node">
<title>Node4</title>
<g id="a_Node000004"><a xlink:title=" ">
<polygon fill="white" stroke="none" points="213.5,-312 161.5,-312 161.5,-263 213.5,-263 213.5,-312"/>
<text text-anchor="start" x="166.5" y="-298.5" font-family="Helvetica,sans-Serif" font-size="10.00">std::string</text>
<text text-anchor="start" x="186" y="-283.5" font-family="Helvetica,sans-Serif" font-size="10.00"> </text>
<text text-anchor="start" x="186" y="-268.5" font-family="Helvetica,sans-Serif" font-size="10.00"> </text>
<polygon fill="#666666" stroke="#666666" points="161.5,-295 161.5,-295 213.5,-295 213.5,-295 161.5,-295"/>
<polygon fill="#666666" stroke="#666666" points="161.5,-280 161.5,-280 213.5,-280 213.5,-280 161.5,-280"/>
<polygon fill="none" stroke="#666666" points="161.5,-263 161.5,-312 213.5,-312 213.5,-263 161.5,-263"/>
</a>
</g>
</g>
<!-- Node4&#45;&gt;Node1 -->
<g id="edge3_Node000001_Node000004" class="edge">
<title>Node4&#45;&gt;Node1</title>
<g id="a_edge3_Node000001_Node000004"><a xlink:title=" ">
<path fill="none" stroke="#63b8ff" d="M182.51,-263.32C179.56,-249.59 175.58,-231.09 171.36,-211.47"/>
<polygon fill="none" stroke="#63b8ff" points="171.35,-211.42 166.18,-206.39 168.83,-199.69 174,-204.71 171.35,-211.42"/>
</a>
</g>
<text text-anchor="middle" x="196.62" y="-230" font-family="Helvetica,sans-Serif" font-size="10.00" fill="grey"> &#45;payload</text>
<text text-anchor="middle" x="196.62" y="-218.75" font-family="Helvetica,sans-Serif" font-size="10.00" fill="grey">&#45;topic</text>
</g>
<!-- Node5 -->
<g id="Node000005" class="node">
<title>Node5</title>
<g id="a_Node000005"><a xlink:title=" ">
<polygon fill="white" stroke="none" points="230.5,-436 144.5,-436 144.5,-376 230.5,-376 230.5,-436"/>
<text text-anchor="start" x="149.25" y="-422.5" font-family="Helvetica,sans-Serif" font-size="10.00">std::basic_string&lt;</text>
<text text-anchor="start" x="172.12" y="-411.25" font-family="Helvetica,sans-Serif" font-size="10.00"> Char &gt;</text>
<text text-anchor="start" x="186" y="-396.5" font-family="Helvetica,sans-Serif" font-size="10.00"> </text>
<text text-anchor="start" x="186" y="-381.5" font-family="Helvetica,sans-Serif" font-size="10.00"> </text>
<polygon fill="#666666" stroke="#666666" points="144.5,-408 144.5,-408 230.5,-408 230.5,-408 144.5,-408"/>
<polygon fill="#666666" stroke="#666666" points="144.5,-393 144.5,-393 230.5,-393 230.5,-393 144.5,-393"/>
<polygon fill="none" stroke="#666666" points="144.5,-376 144.5,-436 230.5,-436 230.5,-376 144.5,-376"/>
</a>
</g>
</g>
<!-- Node5&#45;&gt;Node4 -->
<g id="edge4_Node000004_Node000005" class="edge">
<title>Node5&#45;&gt;Node4</title>
<g id="a_edge4_Node000004_Node000005"><a xlink:title=" ">
<path fill="none" stroke="#63b8ff" d="M187.5,-364.75C187.5,-347.1 187.5,-327.01 187.5,-311.89"/>
<polygon fill="none" stroke="#63b8ff" points="184,-364.69 187.5,-374.69 191,-364.69 184,-364.69"/>
</a>
</g>
</g>
<!-- Node6 -->
<g id="Node000006" class="node">
<title>Node6</title>
<g id="a_Node000006"><a xlink:title=" ">
<polygon fill="white" stroke="none" points="361.5,-317.5 231.5,-317.5 231.5,-257.5 361.5,-257.5 361.5,-317.5"/>
<text text-anchor="start" x="236.12" y="-304" font-family="Helvetica,sans-Serif" font-size="10.00">std::queue&lt; fabomatic</text>
<text text-anchor="start" x="236.12" y="-292.75" font-family="Helvetica,sans-Serif" font-size="10.00">::MockMQTTBroker::query &gt;</text>
<text text-anchor="start" x="295" y="-278" font-family="Helvetica,sans-Serif" font-size="10.00"> </text>
<text text-anchor="start" x="295" y="-263" font-family="Helvetica,sans-Serif" font-size="10.00"> </text>
<polygon fill="#666666" stroke="#666666" points="231.5,-289.5 231.5,-289.5 361.5,-289.5 361.5,-289.5 231.5,-289.5"/>
<polygon fill="#666666" stroke="#666666" points="231.5,-274.5 231.5,-274.5 361.5,-274.5 361.5,-274.5 231.5,-274.5"/>
<polygon fill="none" stroke="#666666" points="231.5,-257.5 231.5,-317.5 361.5,-317.5 361.5,-257.5 231.5,-257.5"/>
</a>
</g>
</g>
<!-- Node6&#45;&gt;Node1 -->
<g id="edge5_Node000001_Node000006" class="edge">
<title>Node6&#45;&gt;Node1</title>
<g id="a_edge5_Node000001_Node000006"><a xlink:title=" ">
<path fill="none" stroke="#63b8ff" d="M273.55,-257.85C260.03,-240.98 242.09,-218.58 223.98,-195.98"/>
<polygon fill="none" stroke="#63b8ff" points="224.02,-196.02 217.14,-193.84 216.51,-186.65 223.39,-188.83 224.02,-196.02"/>
</a>
</g>
<text text-anchor="middle" x="275.88" y="-224.38" font-family="Helvetica,sans-Serif" font-size="10.00" fill="grey"> &#45;queries</text>
</g>
<!-- Node7 -->
<g id="Node000007" class="node">
<title>Node7</title>
<g id="a_Node000007"><a xlink:title=" ">
<polygon fill="white" stroke="none" points="334.5,-430.5 258.5,-430.5 258.5,-381.5 334.5,-381.5 334.5,-430.5"/>
<text text-anchor="start" x="263.12" y="-417" font-family="Helvetica,sans-Serif" font-size="10.00">std::queue&lt; T &gt;</text>
<text text-anchor="start" x="295" y="-402" font-family="Helvetica,sans-Serif" font-size="10.00"> </text>
<text text-anchor="start" x="295" y="-387" font-family="Helvetica,sans-Serif" font-size="10.00"> </text>
<polygon fill="#666666" stroke="#666666" points="258.5,-413.5 258.5,-413.5 334.5,-413.5 334.5,-413.5 258.5,-413.5"/>
<polygon fill="#666666" stroke="#666666" points="258.5,-398.5 258.5,-398.5 334.5,-398.5 334.5,-398.5 258.5,-398.5"/>
<polygon fill="none" stroke="#666666" points="258.5,-381.5 258.5,-430.5 334.5,-430.5 334.5,-381.5 258.5,-381.5"/>
</a>
</g>
</g>
<!-- Node7&#45;&gt;Node6 -->
<g id="edge6_Node000006_Node000007" class="edge">
<title>Node7&#45;&gt;Node6</title>
<g id="a_edge6_Node000006_Node000007"><a xlink:title=" ">
<path fill="none" stroke="orange" d="M296.5,-370.54C296.5,-353.53 296.5,-333.26 296.5,-317.12"/>
<polygon fill="orange" stroke="orange" points="293,-370.19 296.5,-380.19 300,-370.19 293,-370.19"/>
</a>
</g>
<text text-anchor="start" x="296.5" y="-348.5" font-family="Helvetica,sans-Serif" font-size="10.00" fill="grey"> &lt; fabomatic::MockMQTTBroker</text>
<text text-anchor="middle" x="365.5" y="-337.25" font-family="Helvetica,sans-Serif" font-size="10.00" fill="grey">::query &gt;</text>
</g>
</g>
</svg>
