<?xml version="1.0" encoding="UTF-8" standalone="no"?>
<!DOCTYPE svg PUBLIC "-//W3C//DTD SVG 1.1//EN"
 "http://www.w3.org/Graphics/SVG/1.1/DTD/svg11.dtd">
<!-- Generated by graphviz version 9.0.0 (20230911.1827)
 -->
<!-- Title: fabomatic::BoardLogic::getServer Pages: 1 -->
<svg width="389pt" height="628pt"
 viewBox="0.00 0.00 389.00 627.88" xmlns="http://www.w3.org/2000/svg" xmlns:xlink="http://www.w3.org/1999/xlink">
<g id="graph0" class="graph" transform="scale(1 1) rotate(0) translate(4 623.88)">
<title>fabomatic::BoardLogic::getServer</title>
<!-- Node1 -->
<g id="Node000001" class="node">
<title>Node1</title>
<g id="a_Node000001"><a xlink:title=" ">
<polygon fill="#999999" stroke="#666666" points="381,-348.5 268.25,-348.5 268.25,-318 381,-318 381,-348.5"/>
<text text-anchor="start" x="276.25" y="-335" font-family="Helvetica,sans-Serif" font-size="10.00">fabomatic::BoardLogic</text>
<text text-anchor="middle" x="324.62" y="-323.75" font-family="Helvetica,sans-Serif" font-size="10.00">::getServer</text>
</a>
</g>
</g>
<!-- Node2 -->
<g id="Node000002" class="node">
<title>Node2</title>
<g id="a_Node000002"><a xlink:href="test__logic_8cpp.xhtml#a95c834d6178047ce9e1bce7cbfea2836" target="_top" xlink:title=" ">
<polygon fill="white" stroke="#666666" points="175.25,-619.88 133,-619.88 133,-600.62 175.25,-600.62 175.25,-619.88"/>
<text text-anchor="middle" x="154.12" y="-606.38" font-family="Helvetica,sans-Serif" font-size="10.00">setUp</text>
</a>
</g>
</g>
<!-- Node1&#45;&gt;Node2 -->
<g id="edge1_Node000001_Node000002" class="edge">
<title>Node1&#45;&gt;Node2</title>
<g id="a_edge1_Node000001_Node000002"><a xlink:title=" ">
<path fill="none" stroke="#63b8ff" d="M322.29,-360.27C318.17,-413.12 301.3,-530.4 232.25,-592.25 216.79,-606.1 192.73,-609.88 175.6,-610.64"/>
<polygon fill="#63b8ff" stroke="#63b8ff" points="325.78,-360.58 322.96,-350.37 318.8,-360.11 325.78,-360.58"/>
</a>
</g>
</g>
<!-- Node3 -->
<g id="Node000003" class="node">
<title>Node3</title>
<g id="a_Node000003"><a xlink:href="namespacefabomatic.xhtml#ae7de89faffd3bb8805727b8a1092a198" target="_top" xlink:title="Opens WiFi and server connection and updates board state accordingly.">
<polygon fill="white" stroke="#666666" points="213.12,-582.88 95.12,-582.88 95.12,-563.62 213.12,-563.62 213.12,-582.88"/>
<text text-anchor="middle" x="154.12" y="-569.38" font-family="Helvetica,sans-Serif" font-size="10.00">fabomatic::taskConnect</text>
</a>
</g>
</g>
<!-- Node1&#45;&gt;Node3 -->
<g id="edge2_Node000001_Node000003" class="edge">
<title>Node1&#45;&gt;Node3</title>
<g id="a_edge2_Node000001_Node000003"><a xlink:title=" ">
<path fill="none" stroke="#63b8ff" d="M320.47,-360.35C313.49,-407.43 292.29,-504.19 232.25,-555.25 226.8,-559.88 220.39,-563.38 213.62,-566"/>
<polygon fill="#63b8ff" stroke="#63b8ff" points="323.93,-360.86 321.81,-350.48 316.99,-359.92 323.93,-360.86"/>
</a>
</g>
</g>
<!-- Node5 -->
<g id="Node000005" class="node">
<title>Node5</title>
<g id="a_Node000005"><a xlink:href="namespacefabomatic.xhtml#a77b0a5de55b2f507f610f1d0c5196bc2" target="_top" xlink:title=" ">
<polygon fill="white" stroke="#666666" points="210.12,-545.88 98.12,-545.88 98.12,-526.62 210.12,-526.62 210.12,-545.88"/>
<text text-anchor="middle" x="154.12" y="-532.38" font-family="Helvetica,sans-Serif" font-size="10.00">fabomatic::taskIsAlive</text>
</a>
</g>
</g>
<!-- Node1&#45;&gt;Node5 -->
<g id="edge4_Node000001_Node000005" class="edge">
<title>Node1&#45;&gt;Node5</title>
<g id="a_edge4_Node000001_Node000005"><a xlink:title=" ">
<path fill="none" stroke="#63b8ff" d="M318.1,-359.86C308.23,-400.48 283.61,-477.51 232.25,-518.25 225.89,-523.29 218.37,-526.97 210.56,-529.63"/>
<polygon fill="#63b8ff" stroke="#63b8ff" points="321.49,-360.74 320.31,-350.21 314.67,-359.17 321.49,-360.74"/>
</a>
</g>
</g>
<!-- Node6 -->
<g id="Node000006" class="node">
<title>Node6</title>
<g id="a_Node000006"><a xlink:href="namespacefabomatic.xhtml#a710739974eb0b1c5b53ffd75580ab54d" target="_top" xlink:title="sends the MQTT alive message">
<polygon fill="white" stroke="#666666" points="232.25,-508.88 76,-508.88 76,-489.62 232.25,-489.62 232.25,-508.88"/>
<text text-anchor="middle" x="154.12" y="-495.38" font-family="Helvetica,sans-Serif" font-size="10.00">fabomatic::taskMQTTClientLoop</text>
</a>
</g>
</g>
<!-- Node1&#45;&gt;Node6 -->
<g id="edge5_Node000001_Node000006" class="edge">
<title>Node1&#45;&gt;Node6</title>
<g id="a_edge5_Node000001_Node000006"><a xlink:title=" ">
<path fill="none" stroke="#63b8ff" d="M314.42,-359.64C301.42,-392.96 274.45,-449.61 232.25,-480.25 227.23,-483.9 221.59,-486.85 215.71,-489.24"/>
<polygon fill="#63b8ff" stroke="#63b8ff" points="317.68,-360.92 317.91,-350.33 311.13,-358.47 317.68,-360.92"/>
</a>
</g>
</g>
<!-- Node7 -->
<g id="Node000007" class="node">
<title>Node7</title>
<g id="a_Node000007"><a xlink:href="namespacefabomatic_1_1tests.xhtml#a95c3d2a5cfa25e610ac054894d766f73" target="_top" xlink:title=" ">
<polygon fill="white" stroke="#666666" points="208.25,-471.5 100,-471.5 100,-441 208.25,-441 208.25,-471.5"/>
<text text-anchor="start" x="108" y="-458" font-family="Helvetica,sans-Serif" font-size="10.00">fabomatic::tests::test</text>
<text text-anchor="middle" x="154.12" y="-446.75" font-family="Helvetica,sans-Serif" font-size="10.00">_check_transmission</text>
</a>
</g>
</g>
<!-- Node1&#45;&gt;Node7 -->
<g id="edge6_Node000001_Node000007" class="edge">
<title>Node1&#45;&gt;Node7</title>
<g id="a_edge6_Node000001_Node000007"><a xlink:title=" ">
<path fill="none" stroke="#63b8ff" d="M306.4,-357.91C289.77,-380.02 262.68,-411.88 232.25,-431.25 225.01,-435.86 216.84,-439.69 208.59,-442.86"/>
<polygon fill="#63b8ff" stroke="#63b8ff" points="309.09,-360.16 312.18,-350.03 303.44,-356.02 309.09,-360.16"/>
</a>
</g>
</g>
<!-- Node9 -->
<g id="Node000009" class="node">
<title>Node9</title>
<g id="a_Node000009"><a xlink:href="namespacefabomatic_1_1tests.xhtml#a675dfc88957b4e6871f32187a0da29b2" target="_top" xlink:title=" ">
<polygon fill="white" stroke="#666666" points="223.25,-422.5 85,-422.5 85,-392 223.25,-392 223.25,-422.5"/>
<text text-anchor="start" x="93" y="-409" font-family="Helvetica,sans-Serif" font-size="10.00">fabomatic::tests::test</text>
<text text-anchor="middle" x="154.12" y="-397.75" font-family="Helvetica,sans-Serif" font-size="10.00">_create_buffered_messages</text>
</a>
</g>
</g>
<!-- Node1&#45;&gt;Node9 -->
<g id="edge8_Node000001_Node000009" class="edge">
<title>Node1&#45;&gt;Node9</title>
<g id="a_edge8_Node000001_Node000009"><a xlink:title=" ">
<path fill="none" stroke="#63b8ff" d="M287.66,-354.46C271.12,-363.71 251.04,-374.24 232.25,-382.25 224.48,-385.56 216.12,-388.69 207.86,-391.55"/>
<polygon fill="#63b8ff" stroke="#63b8ff" points="289.17,-357.63 296.14,-349.65 285.71,-351.54 289.17,-357.63"/>
</a>
</g>
</g>
<!-- Node10 -->
<g id="Node000010" class="node">
<title>Node10</title>
<g id="a_Node000010"><a xlink:href="namespacefabomatic_1_1tests.xhtml#a438b9060c27d36e89506199205b342cb" target="_top" xlink:title=" ">
<polygon fill="white" stroke="#666666" points="207.12,-373.5 101.12,-373.5 101.12,-343 207.12,-343 207.12,-373.5"/>
<text text-anchor="start" x="109.12" y="-360" font-family="Helvetica,sans-Serif" font-size="10.00">fabomatic::tests::test</text>
<text text-anchor="middle" x="154.12" y="-348.75" font-family="Helvetica,sans-Serif" font-size="10.00">_fabserver_calls</text>
</a>
</g>
</g>
<!-- Node1&#45;&gt;Node10 -->
<g id="edge10_Node000001_Node000010" class="edge">
<title>Node1&#45;&gt;Node10</title>
<g id="a_edge10_Node000001_Node000010"><a xlink:title=" ">
<path fill="none" stroke="#63b8ff" d="M256.83,-343.16C240.45,-345.59 223.16,-348.16 207.57,-350.47"/>
<polygon fill="#63b8ff" stroke="#63b8ff" points="257.11,-346.66 266.49,-341.73 256.08,-339.73 257.11,-346.66"/>
</a>
</g>
</g>
<!-- Node11 -->
<g id="Node000011" class="node">
<title>Node11</title>
<g id="a_Node000011"><a xlink:href="namespacefabomatic_1_1tests.xhtml#af8fa7ace86309b5f699540d8898660c7" target="_top" xlink:title=" ">
<polygon fill="white" stroke="#666666" points="207.12,-275.5 101.12,-275.5 101.12,-245 207.12,-245 207.12,-275.5"/>
<text text-anchor="start" x="109.12" y="-262" font-family="Helvetica,sans-Serif" font-size="10.00">fabomatic::tests::test</text>
<text text-anchor="middle" x="154.12" y="-250.75" font-family="Helvetica,sans-Serif" font-size="10.00">_messages_buffered</text>
</a>
</g>
</g>
<!-- Node1&#45;&gt;Node11 -->
<g id="edge12_Node000001_Node000011" class="edge">
<title>Node1&#45;&gt;Node11</title>
<g id="a_edge12_Node000001_Node000011"><a xlink:title=" ">
<path fill="none" stroke="#63b8ff" d="M286.88,-312.12C270.48,-303.16 250.71,-293.03 232.25,-285.25 224.34,-281.92 215.82,-278.75 207.43,-275.87"/>
<polygon fill="#63b8ff" stroke="#63b8ff" points="284.86,-315 295.3,-316.78 288.25,-308.87 284.86,-315"/>
</a>
</g>
</g>
<!-- Node13 -->
<g id="Node000013" class="node">
<title>Node13</title>
<g id="a_Node000013"><a xlink:href="namespacefabomatic_1_1tests.xhtml#a6f3dff17fd964aba76c35c514957a0a5" target="_top" xlink:title=" ">
<polygon fill="white" stroke="#666666" points="208.62,-226.5 99.62,-226.5 99.62,-196 208.62,-196 208.62,-226.5"/>
<text text-anchor="start" x="107.62" y="-213" font-family="Helvetica,sans-Serif" font-size="10.00">fabomatic::tests::test</text>
<text text-anchor="middle" x="154.12" y="-201.75" font-family="Helvetica,sans-Serif" font-size="10.00">_one_user_at_a_time</text>
</a>
</g>
</g>
<!-- Node1&#45;&gt;Node13 -->
<g id="edge14_Node000001_Node000013" class="edge">
<title>Node1&#45;&gt;Node13</title>
<g id="a_edge14_Node000001_Node000013"><a xlink:title=" ">
<path fill="none" stroke="#63b8ff" d="M306.35,-308.85C289.67,-286.97 262.56,-255.44 232.25,-236.25 225.11,-231.73 217.09,-227.96 208.98,-224.83"/>
<polygon fill="#63b8ff" stroke="#63b8ff" points="303.36,-310.7 312.13,-316.64 308.98,-306.53 303.36,-310.7"/>
</a>
</g>
</g>
<!-- Node14 -->
<g id="Node000014" class="node">
<title>Node14</title>
<g id="a_Node000014"><a xlink:href="namespacefabomatic_1_1tests.xhtml#aba7f55ee91c2d2a647fca6c8cc106c97" target="_top" xlink:title=" ">
<polygon fill="white" stroke="#666666" points="207.12,-324.5 101.12,-324.5 101.12,-294 207.12,-294 207.12,-324.5"/>
<text text-anchor="start" x="109.12" y="-311" font-family="Helvetica,sans-Serif" font-size="10.00">fabomatic::tests::test</text>
<text text-anchor="middle" x="154.12" y="-299.75" font-family="Helvetica,sans-Serif" font-size="10.00">_start_broker</text>
</a>
</g>
</g>
<!-- Node1&#45;&gt;Node14 -->
<g id="edge16_Node000001_Node000014" class="edge">
<title>Node1&#45;&gt;Node14</title>
<g id="a_edge16_Node000001_Node000014"><a xlink:title=" ">
<path fill="none" stroke="#63b8ff" d="M256.83,-323.74C240.45,-321.4 223.16,-318.94 207.57,-316.72"/>
<polygon fill="#63b8ff" stroke="#63b8ff" points="256.09,-327.17 266.49,-325.11 257.08,-320.24 256.09,-327.17"/>
</a>
</g>
</g>
<!-- Node15 -->
<g id="Node000015" class="node">
<title>Node15</title>
<g id="a_Node000015"><a xlink:href="namespacefabomatic_1_1tests.xhtml#a88a4242d48bfa4a0337df522d303c367" target="_top" xlink:title="Opens WiFi and server connection and updates board state accordingly.">
<polygon fill="white" stroke="#666666" points="207.12,-177.5 101.12,-177.5 101.12,-147 207.12,-147 207.12,-177.5"/>
<text text-anchor="start" x="109.12" y="-164" font-family="Helvetica,sans-Serif" font-size="10.00">fabomatic::tests::test</text>
<text text-anchor="middle" x="154.12" y="-152.75" font-family="Helvetica,sans-Serif" font-size="10.00">_taskConnect</text>
</a>
</g>
</g>
<!-- Node1&#45;&gt;Node15 -->
<g id="edge18_Node000001_Node000015" class="edge">
<title>Node1&#45;&gt;Node15</title>
<g id="a_edge18_Node000001_Node000015"><a xlink:title=" ">
<path fill="none" stroke="#63b8ff" d="M313.82,-306.99C300.31,-274.33 272.95,-219 232.25,-187.25 224.93,-181.54 216.25,-177.11 207.41,-173.68"/>
<polygon fill="#63b8ff" stroke="#63b8ff" points="310.5,-308.13 317.45,-316.12 317,-305.53 310.5,-308.13"/>
</a>
</g>
</g>
<!-- Node16 -->
<g id="Node000016" class="node">
<title>Node16</title>
<g id="a_Node000016"><a xlink:href="namespacefabomatic_1_1tests.xhtml#ae0c2cd74b089905fbdebeca807403606" target="_top" xlink:title="sends the MQTT alive message">
<polygon fill="white" stroke="#666666" points="207.12,-128.5 101.12,-128.5 101.12,-98 207.12,-98 207.12,-128.5"/>
<text text-anchor="start" x="109.12" y="-115" font-family="Helvetica,sans-Serif" font-size="10.00">fabomatic::tests::test</text>
<text text-anchor="middle" x="154.12" y="-103.75" font-family="Helvetica,sans-Serif" font-size="10.00">_taskMQTTAlive</text>
</a>
</g>
</g>
<!-- Node1&#45;&gt;Node16 -->
<g id="edge19_Node000001_Node000016" class="edge">
<title>Node1&#45;&gt;Node16</title>
<g id="a_edge19_Node000001_Node000016"><a xlink:title=" ">
<path fill="none" stroke="#63b8ff" d="M318.22,-306.35C308.43,-264.46 283.79,-183.73 232.25,-138.25 225.18,-132.01 216.53,-127.32 207.6,-123.81"/>
<polygon fill="#63b8ff" stroke="#63b8ff" points="314.8,-307.07 320.37,-316.07 321.63,-305.55 314.8,-307.07"/>
</a>
</g>
</g>
<!-- Node17 -->
<g id="Node000017" class="node">
<title>Node17</title>
<g id="a_Node000017"><a xlink:href="namespacefabomatic_1_1tests.xhtml#afa92fef9250d918ee02c79dbf2de2546" target="_top" xlink:title=" ">
<polygon fill="white" stroke="#666666" points="207.12,-79.5 101.12,-79.5 101.12,-49 207.12,-49 207.12,-79.5"/>
<text text-anchor="start" x="109.12" y="-66" font-family="Helvetica,sans-Serif" font-size="10.00">fabomatic::tests::test</text>
<text text-anchor="middle" x="154.12" y="-54.75" font-family="Helvetica,sans-Serif" font-size="10.00">_user_autologoff</text>
</a>
</g>
</g>
<!-- Node1&#45;&gt;Node17 -->
<g id="edge20_Node000001_Node000017" class="edge">
<title>Node1&#45;&gt;Node17</title>
<g id="a_edge20_Node000001_Node000017"><a xlink:title=" ">
<path fill="none" stroke="#63b8ff" d="M321.09,-306.18C314.98,-256.23 294.94,-149.19 232.25,-89.25 225.33,-82.64 216.65,-77.77 207.62,-74.19"/>
<polygon fill="#63b8ff" stroke="#63b8ff" points="317.61,-306.53 322.2,-316.09 324.57,-305.76 317.61,-306.53"/>
</a>
</g>
</g>
<!-- Node18 -->
<g id="Node000018" class="node">
<title>Node18</title>
<g id="a_Node000018"><a xlink:href="namespacefabomatic_1_1tests.xhtml#aab0f4e1439b281ffef8be51db9a81f9d" target="_top" xlink:title=" ">
<polygon fill="white" stroke="#666666" points="210.5,-30.5 97.75,-30.5 97.75,0 210.5,0 210.5,-30.5"/>
<text text-anchor="start" x="105.75" y="-17" font-family="Helvetica,sans-Serif" font-size="10.00">fabomatic::tests::test</text>
<text text-anchor="middle" x="154.12" y="-5.75" font-family="Helvetica,sans-Serif" font-size="10.00">_whitelist_no_network</text>
</a>
</g>
</g>
<!-- Node1&#45;&gt;Node18 -->
<g id="edge22_Node000001_Node000018" class="edge">
<title>Node1&#45;&gt;Node18</title>
<g id="a_edge22_Node000001_Node000018"><a xlink:title=" ">
<path fill="none" stroke="#63b8ff" d="M323.1,-306.47C320.52,-249.48 306.42,-115.26 232.25,-40.25 226.21,-34.14 218.67,-29.53 210.69,-26.04"/>
<polygon fill="#63b8ff" stroke="#63b8ff" points="319.59,-306.34 323.45,-316.21 326.59,-306.09 319.59,-306.34"/>
</a>
</g>
</g>
<!-- Node4 -->
<g id="Node000004" class="node">
<title>Node4</title>
<g id="a_Node000004"><a xlink:href="main_8cpp.xhtml#a4fc01d736fe50cf5b977f755b675f11d" target="_top" xlink:title=" ">
<polygon fill="white" stroke="#666666" points="40,-582.88 0,-582.88 0,-563.62 40,-563.62 40,-582.88"/>
<text text-anchor="middle" x="20" y="-569.38" font-family="Helvetica,sans-Serif" font-size="10.00">setup</text>
</a>
</g>
</g>
<!-- Node3&#45;&gt;Node4 -->
<g id="edge3_Node000003_Node000004" class="edge">
<title>Node3&#45;&gt;Node4</title>
<g id="a_edge3_Node000003_Node000004"><a xlink:title=" ">
<path fill="none" stroke="#63b8ff" d="M83.31,-573.25C67.55,-573.25 52.08,-573.25 40.49,-573.25"/>
<polygon fill="#63b8ff" stroke="#63b8ff" points="83.27,-576.75 93.27,-573.25 83.27,-569.75 83.27,-576.75"/>
</a>
</g>
</g>
<!-- Node8 -->
<g id="Node000008" class="node">
<title>Node8</title>
<g id="a_Node000008"><a xlink:href="test__mqtt_8cpp.xhtml#a4fc01d736fe50cf5b977f755b675f11d" target="_top" xlink:title=" ">
<polygon fill="white" stroke="#666666" points="40,-391.88 0,-391.88 0,-372.62 40,-372.62 40,-391.88"/>
<text text-anchor="middle" x="20" y="-378.38" font-family="Helvetica,sans-Serif" font-size="10.00">setup</text>
</a>
</g>
</g>
<!-- Node7&#45;&gt;Node8 -->
<g id="edge7_Node000007_Node000008" class="edge">
<title>Node7&#45;&gt;Node8</title>
<g id="a_edge7_Node000007_Node000008"><a xlink:title=" ">
<path fill="none" stroke="#63b8ff" d="M88.99,-437.78C84.5,-435.79 80.12,-433.61 76,-431.25 57.58,-420.69 39.93,-403.22 29.79,-392.25"/>
<polygon fill="#63b8ff" stroke="#63b8ff" points="87.63,-441.01 98.21,-441.54 90.27,-434.52 87.63,-441.01"/>
</a>
</g>
</g>
<!-- Node9&#45;&gt;Node8 -->
<g id="edge9_Node000009_Node000008" class="edge">
<title>Node9&#45;&gt;Node8</title>
<g id="a_edge9_Node000009_Node000008"><a xlink:title=" ">
<path fill="none" stroke="#63b8ff" d="M73.69,-392.22C61.25,-389.87 49.48,-387.64 40.23,-385.89"/>
<polygon fill="#63b8ff" stroke="#63b8ff" points="72.78,-395.61 83.25,-394.03 74.08,-388.73 72.78,-395.61"/>
</a>
</g>
</g>
<!-- Node10&#45;&gt;Node8 -->
<g id="edge11_Node000010_Node000008" class="edge">
<title>Node10&#45;&gt;Node8</title>
<g id="a_edge11_Node000010_Node000008"><a xlink:title=" ">
<path fill="none" stroke="#63b8ff" d="M89.77,-369.76C71.74,-373.03 53.45,-376.36 40.27,-378.75"/>
<polygon fill="#63b8ff" stroke="#63b8ff" points="90.2,-373.24 99.42,-368.01 88.95,-366.35 90.2,-373.24"/>
</a>
</g>
</g>
<!-- Node12 -->
<g id="Node000012" class="node">
<title>Node12</title>
<g id="a_Node000012"><a xlink:href="test__logic_8cpp.xhtml#a4fc01d736fe50cf5b977f755b675f11d" target="_top" xlink:title=" ">
<polygon fill="white" stroke="#666666" points="40,-147.88 0,-147.88 0,-128.62 40,-128.62 40,-147.88"/>
<text text-anchor="middle" x="20" y="-134.38" font-family="Helvetica,sans-Serif" font-size="10.00">setup</text>
</a>
</g>
</g>
<!-- Node11&#45;&gt;Node12 -->
<g id="edge13_Node000011_Node000012" class="edge">
<title>Node11&#45;&gt;Node12</title>
<g id="a_edge13_Node000011_Node000012"><a xlink:title=" ">
<path fill="none" stroke="#63b8ff" d="M90.46,-244.53C85.3,-241.9 80.39,-238.83 76,-235.25 46.75,-211.39 30.15,-167.6 23.9,-148.08"/>
<polygon fill="#63b8ff" stroke="#63b8ff" points="88.69,-247.58 99.25,-248.46 91.55,-241.19 88.69,-247.58"/>
</a>
</g>
</g>
<!-- Node13&#45;&gt;Node12 -->
<g id="edge15_Node000013_Node000012" class="edge">
<title>Node13&#45;&gt;Node12</title>
<g id="a_edge15_Node000013_Node000012"><a xlink:title=" ">
<path fill="none" stroke="#63b8ff" d="M88.79,-192.63C84.37,-190.68 80.06,-188.55 76,-186.25 57.7,-175.88 40,-158.78 29.83,-148.03"/>
<polygon fill="#63b8ff" stroke="#63b8ff" points="87.25,-195.79 97.84,-196.32 89.9,-189.31 87.25,-195.79"/>
</a>
</g>
</g>
<!-- Node14&#45;&gt;Node8 -->
<g id="edge17_Node000014_Node000008" class="edge">
<title>Node14&#45;&gt;Node8</title>
<g id="a_edge17_Node000014_Node000008"><a xlink:title=" ">
<path fill="none" stroke="#63b8ff" d="M90.48,-327.13C85.47,-329.28 80.58,-331.65 76,-334.25 57.7,-344.62 40,-361.72 29.83,-372.47"/>
<polygon fill="#63b8ff" stroke="#63b8ff" points="91.46,-330.5 99.46,-323.56 88.88,-324 91.46,-330.5"/>
</a>
</g>
</g>
<!-- Node17&#45;&gt;Node12 -->
<g id="edge21_Node000017_Node000012" class="edge">
<title>Node17&#45;&gt;Node12</title>
<g id="a_edge21_Node000017_Node000012"><a xlink:title=" ">
<path fill="none" stroke="#63b8ff" d="M90.45,-82.08C85.45,-84.24 80.57,-86.63 76,-89.25 57.58,-99.81 39.93,-117.28 29.79,-128.25"/>
<polygon fill="#63b8ff" stroke="#63b8ff" points="91.44,-85.45 99.43,-78.49 88.84,-78.95 91.44,-85.45"/>
</a>
</g>
</g>
<!-- Node18&#45;&gt;Node12 -->
<g id="edge23_Node000018_Node000012" class="edge">
<title>Node18&#45;&gt;Node12</title>
<g id="a_edge23_Node000018_Node000012"><a xlink:title=" ">
<path fill="none" stroke="#63b8ff" d="M87.21,-32.68C83.24,-34.91 79.45,-37.42 76,-40.25 46.57,-64.36 30.06,-108.6 23.87,-128.32"/>
<polygon fill="#63b8ff" stroke="#63b8ff" points="88.6,-35.89 96.06,-28.36 85.53,-29.6 88.6,-35.89"/>
</a>
</g>
</g>
</g>
</svg>
