<?xml version="1.0" encoding="UTF-8" standalone="no"?>
<!DOCTYPE svg PUBLIC "-//W3C//DTD SVG 1.1//EN"
 "http://www.w3.org/Graphics/SVG/1.1/DTD/svg11.dtd">
<!-- Generated by graphviz version 9.0.0 (20230911.1827)
 -->
<!-- Title: fabomatic::SavedConfig::toJsonDocument Pages: 1 -->
<svg width="284pt" height="88pt"
 viewBox="0.00 0.00 283.75 87.50" xmlns="http://www.w3.org/2000/svg" xmlns:xlink="http://www.w3.org/1999/xlink">
<g id="graph0" class="graph" transform="scale(1 1) rotate(0) translate(4 83.5)">
<title>fabomatic::SavedConfig::toJsonDocument</title>
<!-- Node1 -->
<g id="Node000001" class="node">
<title>Node1</title>
<g id="a_Node000001"><a xlink:title="Serialize the current configuration into a JsonDocument.">
<polygon fill="#999999" stroke="#666666" points="118,-54.5 0,-54.5 0,-24 118,-24 118,-54.5"/>
<text text-anchor="start" x="8" y="-41" font-family="Helvetica,sans-Serif" font-size="10.00">fabomatic::SavedConfig</text>
<text text-anchor="middle" x="59" y="-29.75" font-family="Helvetica,sans-Serif" font-size="10.00">::toJsonDocument</text>
</a>
</g>
</g>
<!-- Node2 -->
<g id="Node000002" class="node">
<title>Node2</title>
<g id="a_Node000002"><a xlink:href="structfabomatic_1_1_cached_cards.xhtml#a128c3db6758b1e630855e673a44c585f" target="_top" xlink:title=" ">
<polygon fill="white" stroke="#666666" points="275.75,-79.5 154,-79.5 154,-49 275.75,-49 275.75,-79.5"/>
<text text-anchor="start" x="162" y="-66" font-family="Helvetica,sans-Serif" font-size="10.00">fabomatic::CachedCards</text>
<text text-anchor="middle" x="214.88" y="-54.75" font-family="Helvetica,sans-Serif" font-size="10.00">::size</text>
</a>
</g>
</g>
<!-- Node1&#45;&gt;Node2 -->
<g id="edge1_Node000001_Node000002" class="edge">
<title>Node1&#45;&gt;Node2</title>
<g id="a_edge1_Node000001_Node000002"><a xlink:title=" ">
<path fill="none" stroke="#63b8ff" d="M118.17,-48.7C126.04,-49.98 134.19,-51.3 142.25,-52.61"/>
<polygon fill="#63b8ff" stroke="#63b8ff" points="141.64,-56.06 152.08,-54.21 142.77,-49.15 141.64,-56.06"/>
</a>
</g>
</g>
<!-- Node3 -->
<g id="Node000003" class="node">
<title>Node3</title>
<g id="a_Node000003"><a xlink:href="classfabomatic_1_1_buffer.xhtml#a72f029c82552ccea45eaf611f345c079" target="_top" xlink:title=" ">
<polygon fill="white" stroke="#666666" points="261.5,-30.5 168.25,-30.5 168.25,0 261.5,0 261.5,-30.5"/>
<text text-anchor="start" x="176.25" y="-17" font-family="Helvetica,sans-Serif" font-size="10.00">fabomatic::Buffer::</text>
<text text-anchor="middle" x="214.88" y="-5.75" font-family="Helvetica,sans-Serif" font-size="10.00">toJson</text>
</a>
</g>
</g>
<!-- Node1&#45;&gt;Node3 -->
<g id="edge2_Node000001_Node000003" class="edge">
<title>Node1&#45;&gt;Node3</title>
<g id="a_edge2_Node000001_Node000003"><a xlink:title=" ">
<path fill="none" stroke="#63b8ff" d="M118.17,-30.18C130.81,-28.2 144.18,-26.12 156.77,-24.16"/>
<polygon fill="#63b8ff" stroke="#63b8ff" points="157.25,-27.62 166.59,-22.62 156.17,-20.71 157.25,-27.62"/>
</a>
</g>
</g>
</g>
</svg>
