<?xml version="1.0" encoding="UTF-8" standalone="no"?>
<!DOCTYPE svg PUBLIC "-//W3C//DTD SVG 1.1//EN"
 "http://www.w3.org/Graphics/SVG/1.1/DTD/svg11.dtd">
<!-- Generated by graphviz version 9.0.0 (20230911.1827)
 -->
<!-- Title: fabomatic::FabBackend::hasBufferedMsg Pages: 1 -->
<svg width="376pt" height="186pt"
 viewBox="0.00 0.00 376.25 185.50" xmlns="http://www.w3.org/2000/svg" xmlns:xlink="http://www.w3.org/1999/xlink">
<g id="graph0" class="graph" transform="scale(1 1) rotate(0) translate(4 181.5)">
<title>fabomatic::FabBackend::hasBufferedMsg</title>
<!-- Node1 -->
<g id="Node000001" class="node">
<title>Node1</title>
<g id="a_Node000001"><a xlink:title=" ">
<polygon fill="#999999" stroke="#666666" points="368.25,-103.5 250.25,-103.5 250.25,-73 368.25,-73 368.25,-103.5"/>
<text text-anchor="start" x="258.25" y="-90" font-family="Helvetica,sans-Serif" font-size="10.00">fabomatic::FabBackend</text>
<text text-anchor="middle" x="309.25" y="-78.75" font-family="Helvetica,sans-Serif" font-size="10.00">::hasBufferedMsg</text>
</a>
</g>
</g>
<!-- Node2 -->
<g id="Node000002" class="node">
<title>Node2</title>
<g id="a_Node000002"><a xlink:href="classfabomatic_1_1_fab_backend.xhtml#aaa691642839e9196217684949621f2a4" target="_top" xlink:title="Processes a query and returns the response.">
<polygon fill="white" stroke="#666666" points="204.12,-177.5 86.12,-177.5 86.12,-147 204.12,-147 204.12,-177.5"/>
<text text-anchor="start" x="94.12" y="-164" font-family="Helvetica,sans-Serif" font-size="10.00">fabomatic::FabBackend</text>
<text text-anchor="middle" x="145.12" y="-152.75" font-family="Helvetica,sans-Serif" font-size="10.00">::processQuery</text>
</a>
</g>
</g>
<!-- Node1&#45;&gt;Node2 -->
<g id="edge1_Node000001_Node000002" class="edge">
<title>Node1&#45;&gt;Node2</title>
<g id="a_edge1_Node000001_Node000002"><a xlink:title=" ">
<path fill="none" stroke="#63b8ff" d="M270.66,-109.26C253.68,-118.38 233.21,-128.87 214.25,-137.25 206.99,-140.46 199.18,-143.6 191.52,-146.52"/>
<polygon fill="#63b8ff" stroke="#63b8ff" points="272.29,-112.36 279.41,-104.51 268.95,-106.2 272.29,-112.36"/>
</a>
</g>
</g>
<!-- Node3 -->
<g id="Node000003" class="node">
<title>Node3</title>
<g id="a_Node000003"><a xlink:href="namespacefabomatic_1_1tests.xhtml#a95c3d2a5cfa25e610ac054894d766f73" target="_top" xlink:title=" ">
<polygon fill="white" stroke="#666666" points="199.25,-128.5 91,-128.5 91,-98 199.25,-98 199.25,-128.5"/>
<text text-anchor="start" x="99" y="-115" font-family="Helvetica,sans-Serif" font-size="10.00">fabomatic::tests::test</text>
<text text-anchor="middle" x="145.12" y="-103.75" font-family="Helvetica,sans-Serif" font-size="10.00">_check_transmission</text>
</a>
</g>
</g>
<!-- Node1&#45;&gt;Node3 -->
<g id="edge2_Node000001_Node000003" class="edge">
<title>Node1&#45;&gt;Node3</title>
<g id="a_edge2_Node000001_Node000003"><a xlink:title=" ">
<path fill="none" stroke="#63b8ff" d="M238.82,-98.96C225.74,-100.97 212.25,-103.05 199.74,-104.98"/>
<polygon fill="#63b8ff" stroke="#63b8ff" points="239.33,-102.42 248.68,-97.44 238.26,-95.5 239.33,-102.42"/>
</a>
</g>
</g>
<!-- Node5 -->
<g id="Node000005" class="node">
<title>Node5</title>
<g id="a_Node000005"><a xlink:href="namespacefabomatic_1_1tests.xhtml#a675dfc88957b4e6871f32187a0da29b2" target="_top" xlink:title=" ">
<polygon fill="white" stroke="#666666" points="214.25,-79.5 76,-79.5 76,-49 214.25,-49 214.25,-79.5"/>
<text text-anchor="start" x="84" y="-66" font-family="Helvetica,sans-Serif" font-size="10.00">fabomatic::tests::test</text>
<text text-anchor="middle" x="145.12" y="-54.75" font-family="Helvetica,sans-Serif" font-size="10.00">_create_buffered_messages</text>
</a>
</g>
</g>
<!-- Node1&#45;&gt;Node5 -->
<g id="edge4_Node000001_Node000005" class="edge">
<title>Node1&#45;&gt;Node5</title>
<g id="a_edge4_Node000001_Node000005"><a xlink:title=" ">
<path fill="none" stroke="#63b8ff" d="M238.91,-77.99C230.85,-76.79 222.63,-75.57 214.57,-74.38"/>
<polygon fill="#63b8ff" stroke="#63b8ff" points="238.28,-81.43 248.68,-79.43 239.3,-74.5 238.28,-81.43"/>
</a>
</g>
</g>
<!-- Node6 -->
<g id="Node000006" class="node">
<title>Node6</title>
<g id="a_Node000006"><a xlink:href="namespacefabomatic_1_1tests.xhtml#a24369d35ba4a370e236b987ff7cb5637" target="_top" xlink:title=" ">
<polygon fill="white" stroke="#666666" points="198.12,-30.5 92.12,-30.5 92.12,0 198.12,0 198.12,-30.5"/>
<text text-anchor="start" x="100.12" y="-17" font-family="Helvetica,sans-Serif" font-size="10.00">fabomatic::tests::test</text>
<text text-anchor="middle" x="145.12" y="-5.75" font-family="Helvetica,sans-Serif" font-size="10.00">_degraded_use</text>
</a>
</g>
</g>
<!-- Node1&#45;&gt;Node6 -->
<g id="edge6_Node000001_Node000006" class="edge">
<title>Node1&#45;&gt;Node6</title>
<g id="a_edge6_Node000001_Node000006"><a xlink:title=" ">
<path fill="none" stroke="#63b8ff" d="M269.87,-67.33C253.02,-58.49 232.88,-48.39 214.25,-40.25 206.86,-37.02 198.91,-33.85 191.14,-30.9"/>
<polygon fill="#63b8ff" stroke="#63b8ff" points="268.07,-70.34 278.55,-71.93 271.35,-64.15 268.07,-70.34"/>
</a>
</g>
</g>
<!-- Node4 -->
<g id="Node000004" class="node">
<title>Node4</title>
<g id="a_Node000004"><a xlink:href="test__mqtt_8cpp.xhtml#a4fc01d736fe50cf5b977f755b675f11d" target="_top" xlink:title=" ">
<polygon fill="white" stroke="#666666" points="40,-73.88 0,-73.88 0,-54.62 40,-54.62 40,-73.88"/>
<text text-anchor="middle" x="20" y="-60.38" font-family="Helvetica,sans-Serif" font-size="10.00">setup</text>
</a>
</g>
</g>
<!-- Node3&#45;&gt;Node4 -->
<g id="edge3_Node000003_Node000004" class="edge">
<title>Node3&#45;&gt;Node4</title>
<g id="a_edge3_Node000003_Node000004"><a xlink:title=" ">
<path fill="none" stroke="#63b8ff" d="M89.61,-93.57C84.99,-91.81 80.41,-90.02 76,-88.25 64.11,-83.48 50.95,-77.75 40.48,-73.09"/>
<polygon fill="#63b8ff" stroke="#63b8ff" points="88.36,-96.84 98.95,-97.1 90.83,-90.29 88.36,-96.84"/>
</a>
</g>
</g>
<!-- Node5&#45;&gt;Node4 -->
<g id="edge5_Node000005_Node000004" class="edge">
<title>Node5&#45;&gt;Node4</title>
<g id="a_edge5_Node000005_Node000004"><a xlink:title=" ">
<path fill="none" stroke="#63b8ff" d="M64.36,-64.25C55.56,-64.25 47.32,-64.25 40.42,-64.25"/>
<polygon fill="#63b8ff" stroke="#63b8ff" points="64.21,-67.75 74.21,-64.25 64.21,-60.75 64.21,-67.75"/>
</a>
</g>
</g>
<!-- Node6&#45;&gt;Node4 -->
<g id="edge7_Node000006_Node000004" class="edge">
<title>Node6&#45;&gt;Node4</title>
<g id="a_edge7_Node000006_Node000004"><a xlink:title=" ">
<path fill="none" stroke="#63b8ff" d="M89.61,-34.93C84.99,-36.69 80.41,-38.48 76,-40.25 64.11,-45.02 50.95,-50.75 40.48,-55.41"/>
<polygon fill="#63b8ff" stroke="#63b8ff" points="90.83,-38.21 98.95,-31.4 88.36,-31.66 90.83,-38.21"/>
</a>
</g>
</g>
</g>
</svg>
