<?xml version="1.0" encoding="UTF-8" standalone="no"?>
<!DOCTYPE svg PUBLIC "-//W3C//DTD SVG 1.1//EN"
 "http://www.w3.org/Graphics/SVG/1.1/DTD/svg11.dtd">
<!-- Generated by graphviz version 9.0.0 (20230911.1827)
 -->
<!-- Title: fabomatic::MQTT::UserResponse Pages: 1 -->
<svg width="229pt" height="355pt"
 viewBox="0.00 0.00 228.50 355.25" xmlns="http://www.w3.org/2000/svg" xmlns:xlink="http://www.w3.org/1999/xlink">
<g id="graph0" class="graph" transform="scale(1 1) rotate(0) translate(4 351.25)">
<title>fabomatic::MQTT::UserResponse</title>
<!-- Node1 -->
<g id="Node000001" class="node">
<title>Node1</title>
<g id="a_Node000001"><a xlink:title="Backend response for a user authentication query.">
<polygon fill="#999999" stroke="none" points="159.5,-139 5.5,-139 5.5,0 159.5,0 159.5,-139"/>
<text text-anchor="start" x="10.5" y="-125.5" font-family="Helvetica,sans-Serif" font-size="10.00">fabomatic::MQTT::UserResponse</text>
<text text-anchor="start" x="26" y="-110.5" font-family="Helvetica,sans-Serif" font-size="10.00">+</text>
<text text-anchor="start" x="52.5" y="-110.5" font-family="Helvetica,sans-Serif" font-size="10.00">result</text>
<text text-anchor="start" x="26" y="-95.5" font-family="Helvetica,sans-Serif" font-size="10.00">+</text>
<text text-anchor="start" x="52.5" y="-95.5" font-family="Helvetica,sans-Serif" font-size="10.00">user_level</text>
<text text-anchor="start" x="26" y="-80.5" font-family="Helvetica,sans-Serif" font-size="10.00">+</text>
<text text-anchor="start" x="52.5" y="-80.5" font-family="Helvetica,sans-Serif" font-size="10.00">UserResponse()</text>
<text text-anchor="start" x="26" y="-65.5" font-family="Helvetica,sans-Serif" font-size="10.00">+</text>
<text text-anchor="start" x="52.5" y="-65.5" font-family="Helvetica,sans-Serif" font-size="10.00">UserResponse()</text>
<text text-anchor="start" x="26" y="-50.5" font-family="Helvetica,sans-Serif" font-size="10.00">+</text>
<text text-anchor="start" x="52.5" y="-50.5" font-family="Helvetica,sans-Serif" font-size="10.00">UserResponse()</text>
<text text-anchor="start" x="26" y="-35.5" font-family="Helvetica,sans-Serif" font-size="10.00">+</text>
<text text-anchor="start" x="52.5" y="-35.5" font-family="Helvetica,sans-Serif" font-size="10.00">getResult()</text>
<text text-anchor="start" x="26" y="-20.5" font-family="Helvetica,sans-Serif" font-size="10.00">+</text>
<text text-anchor="start" x="52.5" y="-20.5" font-family="Helvetica,sans-Serif" font-size="10.00">toString()</text>
<text text-anchor="start" x="26" y="-5.5" font-family="Helvetica,sans-Serif" font-size="10.00">+</text>
<text text-anchor="start" x="52.5" y="-5.5" font-family="Helvetica,sans-Serif" font-size="10.00">fromJson()</text>
<polygon fill="#666666" stroke="#666666" points="5.5,-122 5.5,-122 159.5,-122 159.5,-122 5.5,-122"/>
<polygon fill="#666666" stroke="#666666" points="5.5,-92 5.5,-92 50.5,-92 50.5,-92 5.5,-92"/>
<polygon fill="#666666" stroke="#666666" points="50.5,-92 50.5,-92 159.5,-92 159.5,-92 50.5,-92"/>
<polygon fill="none" stroke="#666666" points="5.5,0 5.5,-139 159.5,-139 159.5,0 5.5,0"/>
</a>
</g>
</g>
<!-- Node2 -->
<g id="Node000002" class="node">
<title>Node2</title>
<g id="a_Node000002"><a xlink:href="classfabomatic_1_1_m_q_t_t_1_1_response.xhtml" target="_top" xlink:title="Base class for server replies.">
<polygon fill="white" stroke="none" points="133,-250.25 0,-250.25 0,-186.25 133,-186.25 133,-250.25"/>
<text text-anchor="start" x="5" y="-236.75" font-family="Helvetica,sans-Serif" font-size="10.00">fabomatic::MQTT::Response</text>
<text text-anchor="start" x="20.5" y="-221.75" font-family="Helvetica,sans-Serif" font-size="10.00">+</text>
<text text-anchor="start" x="47" y="-221.75" font-family="Helvetica,sans-Serif" font-size="10.00">request_ok</text>
<text text-anchor="start" x="20.5" y="-206.75" font-family="Helvetica,sans-Serif" font-size="10.00">+</text>
<text text-anchor="start" x="47" y="-206.75" font-family="Helvetica,sans-Serif" font-size="10.00">Response()</text>
<text text-anchor="start" x="20.5" y="-191.75" font-family="Helvetica,sans-Serif" font-size="10.00">+</text>
<text text-anchor="start" x="47" y="-191.75" font-family="Helvetica,sans-Serif" font-size="10.00">Response()</text>
<polygon fill="#666666" stroke="#666666" points="0,-233.25 0,-233.25 133,-233.25 133,-233.25 0,-233.25"/>
<polygon fill="#666666" stroke="#666666" points="0,-218.25 0,-218.25 45,-218.25 45,-218.25 0,-218.25"/>
<polygon fill="#666666" stroke="#666666" points="45,-218.25 45,-218.25 133,-218.25 133,-218.25 45,-218.25"/>
<polygon fill="none" stroke="#666666" points="0,-186.25 0,-250.25 133,-250.25 133,-186.25 0,-186.25"/>
</a>
</g>
</g>
<!-- Node2&#45;&gt;Node1 -->
<g id="edge1_Node000001_Node000002" class="edge">
<title>Node2&#45;&gt;Node1</title>
<g id="a_edge1_Node000001_Node000002"><a xlink:title=" ">
<path fill="none" stroke="#63b8ff" d="M71.09,-175.13C72.33,-163.74 73.71,-151.12 75.06,-138.7"/>
<polygon fill="none" stroke="#63b8ff" points="67.62,-174.66 70.02,-184.98 74.58,-175.42 67.62,-174.66"/>
</a>
</g>
</g>
<!-- Node3 -->
<g id="Node000003" class="node">
<title>Node3</title>
<g id="a_Node000003"><a xlink:title=" ">
<polygon fill="white" stroke="none" points="203.5,-242.75 151.5,-242.75 151.5,-193.75 203.5,-193.75 203.5,-242.75"/>
<text text-anchor="start" x="156.5" y="-229.25" font-family="Helvetica,sans-Serif" font-size="10.00">std::string</text>
<text text-anchor="start" x="176" y="-214.25" font-family="Helvetica,sans-Serif" font-size="10.00"> </text>
<text text-anchor="start" x="176" y="-199.25" font-family="Helvetica,sans-Serif" font-size="10.00"> </text>
<polygon fill="#666666" stroke="#666666" points="151.5,-225.75 151.5,-225.75 203.5,-225.75 203.5,-225.75 151.5,-225.75"/>
<polygon fill="#666666" stroke="#666666" points="151.5,-210.75 151.5,-210.75 203.5,-210.75 203.5,-210.75 151.5,-210.75"/>
<polygon fill="none" stroke="#666666" points="151.5,-193.75 151.5,-242.75 203.5,-242.75 203.5,-193.75 151.5,-193.75"/>
</a>
</g>
</g>
<!-- Node3&#45;&gt;Node1 -->
<g id="edge2_Node000001_Node000003" class="edge">
<title>Node3&#45;&gt;Node1</title>
<g id="a_edge2_Node000001_Node000003"><a xlink:title=" ">
<path fill="none" stroke="#63b8ff" d="M162.45,-194C154.51,-181.73 144.25,-165.89 133.75,-149.66"/>
<polygon fill="none" stroke="#63b8ff" points="133.84,-149.81 127.23,-146.95 127.32,-139.74 133.94,-142.6 133.84,-149.81"/>
</a>
</g>
<text text-anchor="middle" x="175.38" y="-158.75" font-family="Helvetica,sans-Serif" font-size="10.00" fill="grey"> +holder_name</text>
</g>
<!-- Node4 -->
<g id="Node000004" class="node">
<title>Node4</title>
<g id="a_Node000004"><a xlink:title=" ">
<polygon fill="white" stroke="none" points="220.5,-347.25 134.5,-347.25 134.5,-287.25 220.5,-287.25 220.5,-347.25"/>
<text text-anchor="start" x="139.25" y="-333.75" font-family="Helvetica,sans-Serif" font-size="10.00">std::basic_string&lt;</text>
<text text-anchor="start" x="162.12" y="-322.5" font-family="Helvetica,sans-Serif" font-size="10.00"> Char &gt;</text>
<text text-anchor="start" x="176" y="-307.75" font-family="Helvetica,sans-Serif" font-size="10.00"> </text>
<text text-anchor="start" x="176" y="-292.75" font-family="Helvetica,sans-Serif" font-size="10.00"> </text>
<polygon fill="#666666" stroke="#666666" points="134.5,-319.25 134.5,-319.25 220.5,-319.25 220.5,-319.25 134.5,-319.25"/>
<polygon fill="#666666" stroke="#666666" points="134.5,-304.25 134.5,-304.25 220.5,-304.25 220.5,-304.25 134.5,-304.25"/>
<polygon fill="none" stroke="#666666" points="134.5,-287.25 134.5,-347.25 220.5,-347.25 220.5,-287.25 134.5,-287.25"/>
</a>
</g>
</g>
<!-- Node4&#45;&gt;Node3 -->
<g id="edge3_Node000003_Node000004" class="edge">
<title>Node4&#45;&gt;Node3</title>
<g id="a_edge3_Node000003_Node000004"><a xlink:title=" ">
<path fill="none" stroke="#63b8ff" d="M177.5,-275.91C177.5,-264.56 177.5,-252.6 177.5,-242.61"/>
<polygon fill="none" stroke="#63b8ff" points="174,-275.9 177.5,-285.9 181,-275.9 174,-275.9"/>
</a>
</g>
</g>
</g>
</svg>
