<?xml version="1.0" encoding="UTF-8" standalone="no"?>
<!DOCTYPE svg PUBLIC "-//W3C//DTD SVG 1.1//EN"
 "http://www.w3.org/Graphics/SVG/1.1/DTD/svg11.dtd">
<!-- Generated by graphviz version 9.0.0 (20230911.1827)
 -->
<!-- Title: fabomatic::MQTT::Response Pages: 1 -->
<svg width="488pt" height="303pt"
 viewBox="0.00 0.00 488.00 303.00" xmlns="http://www.w3.org/2000/svg" xmlns:xlink="http://www.w3.org/1999/xlink">
<g id="graph0" class="graph" transform="scale(1 1) rotate(0) translate(4 299)">
<title>fabomatic::MQTT::Response</title>
<!-- Node1 -->
<g id="Node000001" class="node">
<title>Node1</title>
<g id="a_Node000001"><a xlink:title="Base class for server replies.">
<polygon fill="#999999" stroke="none" points="292.5,-295 159.5,-295 159.5,-231 292.5,-231 292.5,-295"/>
<text text-anchor="start" x="164.5" y="-281.5" font-family="Helvetica,sans-Serif" font-size="10.00">fabomatic::MQTT::Response</text>
<text text-anchor="start" x="180" y="-266.5" font-family="Helvetica,sans-Serif" font-size="10.00">+</text>
<text text-anchor="start" x="206.5" y="-266.5" font-family="Helvetica,sans-Serif" font-size="10.00">request_ok</text>
<text text-anchor="start" x="180" y="-251.5" font-family="Helvetica,sans-Serif" font-size="10.00">+</text>
<text text-anchor="start" x="206.5" y="-251.5" font-family="Helvetica,sans-Serif" font-size="10.00">Response()</text>
<text text-anchor="start" x="180" y="-236.5" font-family="Helvetica,sans-Serif" font-size="10.00">+</text>
<text text-anchor="start" x="206.5" y="-236.5" font-family="Helvetica,sans-Serif" font-size="10.00">Response()</text>
<polygon fill="#666666" stroke="#666666" points="159.5,-278 159.5,-278 292.5,-278 292.5,-278 159.5,-278"/>
<polygon fill="#666666" stroke="#666666" points="159.5,-263 159.5,-263 204.5,-263 204.5,-263 159.5,-263"/>
<polygon fill="#666666" stroke="#666666" points="204.5,-263 204.5,-263 292.5,-263 292.5,-263 204.5,-263"/>
<polygon fill="none" stroke="#666666" points="159.5,-231 159.5,-295 292.5,-295 292.5,-231 159.5,-231"/>
</a>
</g>
</g>
<!-- Node2 -->
<g id="Node000002" class="node">
<title>Node2</title>
<g id="a_Node000002"><a xlink:href="classfabomatic_1_1_m_q_t_t_1_1_machine_response.xhtml" target="_top" xlink:title="Backend response for machine status query.">
<polygon fill="white" stroke="none" points="126,-195 0,-195 0,0 126,0 126,-195"/>
<text text-anchor="start" x="4.88" y="-181.5" font-family="Helvetica,sans-Serif" font-size="10.00">fabomatic::MQTT::Machine</text>
<text text-anchor="start" x="41.25" y="-170.25" font-family="Helvetica,sans-Serif" font-size="10.00">Response</text>
<text text-anchor="start" x="9.5" y="-155.5" font-family="Helvetica,sans-Serif" font-size="10.00">+</text>
<text text-anchor="start" x="25" y="-155.5" font-family="Helvetica,sans-Serif" font-size="10.00">is_valid</text>
<text text-anchor="start" x="9.5" y="-140.5" font-family="Helvetica,sans-Serif" font-size="10.00">+</text>
<text text-anchor="start" x="25" y="-140.5" font-family="Helvetica,sans-Serif" font-size="10.00">maintenance</text>
<text text-anchor="start" x="9.5" y="-125.5" font-family="Helvetica,sans-Serif" font-size="10.00">+</text>
<text text-anchor="start" x="25" y="-125.5" font-family="Helvetica,sans-Serif" font-size="10.00">allowed</text>
<text text-anchor="start" x="9.5" y="-110.5" font-family="Helvetica,sans-Serif" font-size="10.00">+</text>
<text text-anchor="start" x="25" y="-110.5" font-family="Helvetica,sans-Serif" font-size="10.00">logoff</text>
<text text-anchor="start" x="9.5" y="-95.5" font-family="Helvetica,sans-Serif" font-size="10.00">+</text>
<text text-anchor="start" x="25" y="-95.5" font-family="Helvetica,sans-Serif" font-size="10.00">name</text>
<text text-anchor="start" x="9.5" y="-80.5" font-family="Helvetica,sans-Serif" font-size="10.00">+</text>
<text text-anchor="start" x="25" y="-80.5" font-family="Helvetica,sans-Serif" font-size="10.00">type</text>
<text text-anchor="start" x="9.5" y="-65.5" font-family="Helvetica,sans-Serif" font-size="10.00">+</text>
<text text-anchor="start" x="25" y="-65.5" font-family="Helvetica,sans-Serif" font-size="10.00">grace</text>
<text text-anchor="start" x="9.5" y="-50.5" font-family="Helvetica,sans-Serif" font-size="10.00">+</text>
<text text-anchor="start" x="25" y="-50.5" font-family="Helvetica,sans-Serif" font-size="10.00">description</text>
<text text-anchor="start" x="9.5" y="-35.5" font-family="Helvetica,sans-Serif" font-size="10.00">+</text>
<text text-anchor="start" x="25" y="-35.5" font-family="Helvetica,sans-Serif" font-size="10.00">MachineResponse()</text>
<text text-anchor="start" x="9.5" y="-20.5" font-family="Helvetica,sans-Serif" font-size="10.00">+</text>
<text text-anchor="start" x="25" y="-20.5" font-family="Helvetica,sans-Serif" font-size="10.00">MachineResponse()</text>
<text text-anchor="start" x="9.5" y="-5.5" font-family="Helvetica,sans-Serif" font-size="10.00">+</text>
<text text-anchor="start" x="25" y="-5.5" font-family="Helvetica,sans-Serif" font-size="10.00">fromJson()</text>
<polygon fill="#666666" stroke="#666666" points="0,-167 0,-167 126,-167 126,-167 0,-167"/>
<polygon fill="#666666" stroke="#666666" points="0,-47 0,-47 23,-47 23,-47 0,-47"/>
<polygon fill="#666666" stroke="#666666" points="23,-47 23,-47 126,-47 126,-47 23,-47"/>
<polygon fill="none" stroke="#666666" points="0,0 0,-195 126,-195 126,0 0,0"/>
</a>
</g>
</g>
<!-- Node1&#45;&gt;Node2 -->
<g id="edge1_Node000001_Node000002" class="edge">
<title>Node1&#45;&gt;Node2</title>
<g id="a_edge1_Node000001_Node000002"><a xlink:title=" ">
<path fill="none" stroke="#63b8ff" d="M169.46,-224.4C157.54,-215.39 145.42,-205.36 135,-195 131.89,-191.91 128.8,-188.67 125.75,-185.34"/>
<polygon fill="none" stroke="#63b8ff" points="167.17,-227.06 177.3,-230.18 171.33,-221.43 167.17,-227.06"/>
</a>
</g>
</g>
<!-- Node3 -->
<g id="Node000003" class="node">
<title>Node3</title>
<g id="a_Node000003"><a xlink:href="classfabomatic_1_1_m_q_t_t_1_1_simple_response.xhtml" target="_top" xlink:title="Default response for all other messages.">
<polygon fill="white" stroke="none" points="307.5,-137 144.5,-137 144.5,-58 307.5,-58 307.5,-137"/>
<text text-anchor="start" x="149.5" y="-123.5" font-family="Helvetica,sans-Serif" font-size="10.00">fabomatic::MQTT::SimpleResponse</text>
<text text-anchor="start" x="224.5" y="-108.5" font-family="Helvetica,sans-Serif" font-size="10.00"> </text>
<text text-anchor="start" x="165" y="-93.5" font-family="Helvetica,sans-Serif" font-size="10.00">+</text>
<text text-anchor="start" x="191.5" y="-93.5" font-family="Helvetica,sans-Serif" font-size="10.00">SimpleResponse()</text>
<text text-anchor="start" x="165" y="-78.5" font-family="Helvetica,sans-Serif" font-size="10.00">+</text>
<text text-anchor="start" x="191.5" y="-78.5" font-family="Helvetica,sans-Serif" font-size="10.00">SimpleResponse()</text>
<text text-anchor="start" x="165" y="-63.5" font-family="Helvetica,sans-Serif" font-size="10.00">+</text>
<text text-anchor="start" x="191.5" y="-63.5" font-family="Helvetica,sans-Serif" font-size="10.00">fromJson()</text>
<polygon fill="#666666" stroke="#666666" points="144.5,-120 144.5,-120 307.5,-120 307.5,-120 144.5,-120"/>
<polygon fill="#666666" stroke="#666666" points="144.5,-105 144.5,-105 307.5,-105 307.5,-105 144.5,-105"/>
<polygon fill="none" stroke="#666666" points="144.5,-58 144.5,-137 307.5,-137 307.5,-58 144.5,-58"/>
</a>
</g>
</g>
<!-- Node1&#45;&gt;Node3 -->
<g id="edge2_Node000001_Node000003" class="edge">
<title>Node1&#45;&gt;Node3</title>
<g id="a_edge2_Node000001_Node000003"><a xlink:title=" ">
<path fill="none" stroke="#63b8ff" d="M226,-220.01C226,-194.37 226,-161.84 226,-136.9"/>
<polygon fill="none" stroke="#63b8ff" points="222.5,-219.73 226,-229.73 229.5,-219.73 222.5,-219.73"/>
</a>
</g>
</g>
<!-- Node4 -->
<g id="Node000004" class="node">
<title>Node4</title>
<g id="a_Node000004"><a xlink:href="classfabomatic_1_1_m_q_t_t_1_1_user_response.xhtml" target="_top" xlink:title="Backend response for a user authentication query.">
<polygon fill="white" stroke="none" points="480,-174.5 326,-174.5 326,-20.5 480,-20.5 480,-174.5"/>
<text text-anchor="start" x="331" y="-161" font-family="Helvetica,sans-Serif" font-size="10.00">fabomatic::MQTT::UserResponse</text>
<text text-anchor="start" x="346.5" y="-146" font-family="Helvetica,sans-Serif" font-size="10.00">+</text>
<text text-anchor="start" x="373" y="-146" font-family="Helvetica,sans-Serif" font-size="10.00">result</text>
<text text-anchor="start" x="346.5" y="-131" font-family="Helvetica,sans-Serif" font-size="10.00">+</text>
<text text-anchor="start" x="373" y="-131" font-family="Helvetica,sans-Serif" font-size="10.00">holder_name</text>
<text text-anchor="start" x="346.5" y="-116" font-family="Helvetica,sans-Serif" font-size="10.00">+</text>
<text text-anchor="start" x="373" y="-116" font-family="Helvetica,sans-Serif" font-size="10.00">user_level</text>
<text text-anchor="start" x="346.5" y="-101" font-family="Helvetica,sans-Serif" font-size="10.00">+</text>
<text text-anchor="start" x="373" y="-101" font-family="Helvetica,sans-Serif" font-size="10.00">UserResponse()</text>
<text text-anchor="start" x="346.5" y="-86" font-family="Helvetica,sans-Serif" font-size="10.00">+</text>
<text text-anchor="start" x="373" y="-86" font-family="Helvetica,sans-Serif" font-size="10.00">UserResponse()</text>
<text text-anchor="start" x="346.5" y="-71" font-family="Helvetica,sans-Serif" font-size="10.00">+</text>
<text text-anchor="start" x="373" y="-71" font-family="Helvetica,sans-Serif" font-size="10.00">UserResponse()</text>
<text text-anchor="start" x="346.5" y="-56" font-family="Helvetica,sans-Serif" font-size="10.00">+</text>
<text text-anchor="start" x="373" y="-56" font-family="Helvetica,sans-Serif" font-size="10.00">getResult()</text>
<text text-anchor="start" x="346.5" y="-41" font-family="Helvetica,sans-Serif" font-size="10.00">+</text>
<text text-anchor="start" x="373" y="-41" font-family="Helvetica,sans-Serif" font-size="10.00">toString()</text>
<text text-anchor="start" x="346.5" y="-26" font-family="Helvetica,sans-Serif" font-size="10.00">+</text>
<text text-anchor="start" x="373" y="-26" font-family="Helvetica,sans-Serif" font-size="10.00">fromJson()</text>
<polygon fill="#666666" stroke="#666666" points="326,-157.5 326,-157.5 480,-157.5 480,-157.5 326,-157.5"/>
<polygon fill="#666666" stroke="#666666" points="326,-112.5 326,-112.5 371,-112.5 371,-112.5 326,-112.5"/>
<polygon fill="#666666" stroke="#666666" points="371,-112.5 371,-112.5 480,-112.5 480,-112.5 371,-112.5"/>
<polygon fill="none" stroke="#666666" points="326,-20.5 326,-174.5 480,-174.5 480,-20.5 326,-20.5"/>
</a>
</g>
</g>
<!-- Node1&#45;&gt;Node4 -->
<g id="edge3_Node000001_Node000004" class="edge">
<title>Node1&#45;&gt;Node4</title>
<g id="a_edge3_Node000001_Node000004"><a xlink:title=" ">
<path fill="none" stroke="#63b8ff" d="M281.11,-224.28C293.31,-215.16 305.9,-205.11 317,-195 324.13,-188.5 331.3,-181.46 338.28,-174.25"/>
<polygon fill="none" stroke="#63b8ff" points="279.09,-221.42 273.11,-230.16 283.24,-227.06 279.09,-221.42"/>
</a>
</g>
</g>
</g>
</svg>
