<?xml version="1.0" encoding="UTF-8" standalone="no"?>
<!DOCTYPE svg PUBLIC "-//W3C//DTD SVG 1.1//EN"
 "http://www.w3.org/Graphics/SVG/1.1/DTD/svg11.dtd">
<!-- Generated by graphviz version 9.0.0 (20230911.1827)
 -->
<!-- Title: fabomatic::FabBackend::checkMachine Pages: 1 -->
<!--zoomable 452 -->

<svg id="main" version="1.1" xmlns="http://www.w3.org/2000/svg" xmlns:xlink="http://www.w3.org/1999/xlink" xml:space="preserve" onload="init(evt)">
<style type="text/css"><![CDATA[
.node, .edge {opacity: 0.7;}
.node.selected, .edge.selected {opacity: 1;}
.edge:hover path { stroke: red; }
.edge:hover polygon { stroke: red; fill: red; }
]]></style>

<defs>
  <circle id="rim" cx="0" cy="0" r="7"/>
  <circle id="rim2" cx="0" cy="0" r="3.5"/>
  <g id="zoomPlus">
    <use xlink:href="#rim" fill="#404040"><set attributeName="fill" to="#808080" begin="zoomplus.mouseover" end="zoomplus.mouseout"/></use>
    <path d="M-4,0h8M0,-4v8" fill="none" stroke="white" stroke-width="1.5" pointer-events="none"/>
  </g>
  <g id="zoomMin">
    <use xlink:href="#rim" fill="#404040"><set attributeName="fill" to="#808080" begin="zoomminus.mouseover" end="zoomminus.mouseout"/></use>
    <path d="M-4,0h8" fill="none" stroke="white" stroke-width="1.5" pointer-events="none"/>
  </g>
  <g id="arrowUp" transform="translate(30 24)">
    <use xlink:href="#rim"/>
    <path pointer-events="none" fill="none" stroke="white" stroke-width="1.5" d="M0,-3.0v7 M-2.5,-0.5L0,-3.0L2.5,-0.5"/>
  </g>
  <g id="arrowRight" transform="rotate(90) translate(36 -43)">
    <use xlink:href="#rim"/>
    <path pointer-events="none" fill="none" stroke="white" stroke-width="1.5" d="M0,-3.0v7 M-2.5,-0.5L0,-3.0L2.5,-0.5"/>
  </g>
  <g id="arrowDown" transform="rotate(180) translate(-30 -48)">
    <use xlink:href="#rim"/>
    <path pointer-events="none" fill="none" stroke="white" stroke-width="1.5" d="M0,-3.0v7 M-2.5,-0.5L0,-3.0L2.5,-0.5"/>
  </g>
  <g id="arrowLeft" transform="rotate(270) translate(-36 17)">
    <use xlink:href="#rim"/>
    <path pointer-events="none" fill="none" stroke="white" stroke-width="1.5" d="M0,-3.0v7 M-2.5,-0.5L0,-3.0L2.5,-0.5"/>
  </g>
  <g id="resetDef">
    <use xlink:href="#rim2" fill="#404040"><set attributeName="fill" to="#808080" begin="reset.mouseover" end="reset.mouseout"/></use>
  </g>
</defs>
<script type="application/ecmascript">
var viewWidth = 1151;
var viewHeight = 452;
var sectionId = 'dynsection-3';
</script>
<script type="application/ecmascript" xlink:href="svg.min.js"/>
<svg id="graph" class="graph">
<g id="viewport">
<title>fabomatic::FabBackend::checkMachine</title>
<!-- Node1 -->
<g id="Node000001" class="node">
<title>Node1</title>
<g id="a_Node000001"><a xlink:title="Checks the machine status on the server.">
<polygon fill="#999999" stroke="#666666" points="1142.75,-66.88 1024.75,-66.88 1024.75,-36.38 1142.75,-36.38 1142.75,-66.88"/>
<text text-anchor="start" x="1032.75" y="-53.38" font-family="Helvetica,sans-Serif" font-size="10.00">fabomatic::FabBackend</text>
<text text-anchor="middle" x="1083.75" y="-42.12" font-family="Helvetica,sans-Serif" font-size="10.00">::checkMachine</text>
</a>
</g>
</g>
<!-- Node2 -->
<g id="Node000002" class="node">
<title>Node2</title>
<g id="a_Node000002"><a xlink:href="classfabomatic_1_1_board_logic.xhtml#aa0d3d3aa742eba1ffd00b97868ce7edc" target="_top" xlink:title="connects and polls the server for up&#45;to&#45;date machine information">
<polygon fill="white" stroke="#666666" points="988.75,-100.88 876,-100.88 876,-70.38 988.75,-70.38 988.75,-100.88"/>
<text text-anchor="start" x="884" y="-87.38" font-family="Helvetica,sans-Serif" font-size="10.00">fabomatic::BoardLogic</text>
<text text-anchor="middle" x="932.38" y="-76.12" font-family="Helvetica,sans-Serif" font-size="10.00">::refreshFromServer</text>
</a>
</g>
</g>
<!-- Node1&#45;&gt;Node2 -->
<g id="edge1_Node000001_Node000002" class="edge">
<title>Node1&#45;&gt;Node2</title>
<g id="a_edge1_Node000001_Node000002"><a xlink:title=" ">
<path fill="none" stroke="#63b8ff" d="M1013.54,-67.38C1005.38,-69.24 997.13,-71.11 989.19,-72.92"/>
<polygon fill="#63b8ff" stroke="#63b8ff" points="1014.12,-70.84 1023.09,-65.2 1012.57,-64.01 1014.12,-70.84"/>
</a>
</g>
</g>
<!-- Node19 -->
<g id="Node000019" class="node">
<title>Node19</title>
<g id="a_Node000019"><a xlink:href="namespacefabomatic_1_1tests.xhtml#a438b9060c27d36e89506199205b342cb" target="_top" xlink:title=" ">
<polygon fill="white" stroke="#666666" points="985.38,-42.88 879.38,-42.88 879.38,-12.37 985.38,-12.37 985.38,-42.88"/>
<text text-anchor="start" x="887.38" y="-29.38" font-family="Helvetica,sans-Serif" font-size="10.00">fabomatic::tests::test</text>
<text text-anchor="middle" x="932.38" y="-18.12" font-family="Helvetica,sans-Serif" font-size="10.00">_fabserver_calls</text>
</a>
</g>
</g>
<!-- Node1&#45;&gt;Node19 -->
<g id="edge29_Node000001_Node000019" class="edge">
<title>Node1&#45;&gt;Node19</title>
<g id="a_edge29_Node000001_Node000019"><a xlink:title=" ">
<path fill="none" stroke="#63b8ff" d="M1013.36,-40.48C1004.09,-38.99 994.71,-37.48 985.8,-36.05"/>
<polygon fill="#63b8ff" stroke="#63b8ff" points="1012.65,-43.91 1023.08,-42.04 1013.76,-37 1012.65,-43.91"/>
</a>
</g>
</g>
<!-- Node3 -->
<g id="Node000003" class="node">
<title>Node3</title>
<g id="a_Node000003"><a xlink:href="classfabomatic_1_1_board_logic.xhtml#a983c8de8b9c8881fc0a4e60dddc7f0c6" target="_top" xlink:title="Called when a RFID tag has been detected.">
<polygon fill="white" stroke="#666666" points="837.38,-153.88 724.62,-153.88 724.62,-123.38 837.38,-123.38 837.38,-153.88"/>
<text text-anchor="start" x="732.62" y="-140.38" font-family="Helvetica,sans-Serif" font-size="10.00">fabomatic::BoardLogic</text>
<text text-anchor="middle" x="781" y="-129.12" font-family="Helvetica,sans-Serif" font-size="10.00">::onNewCard</text>
</a>
</g>
</g>
<!-- Node2&#45;&gt;Node3 -->
<g id="edge2_Node000002_Node000003" class="edge">
<title>Node2&#45;&gt;Node3</title>
<g id="a_edge2_Node000002_Node000003"><a xlink:title=" ">
<path fill="none" stroke="#63b8ff" d="M876.69,-105.03C860.08,-110.92 842.04,-117.32 826.21,-122.94"/>
<polygon fill="#63b8ff" stroke="#63b8ff" points="877.69,-108.39 885.94,-101.75 875.34,-101.79 877.69,-108.39"/>
</a>
</g>
</g>
<!-- Node16 -->
<g id="Node000016" class="node">
<title>Node16</title>
<g id="a_Node000016"><a xlink:href="namespacefabomatic.xhtml#ae7de89faffd3bb8805727b8a1092a198" target="_top" xlink:title="Opens WiFi and server connection and updates board state accordingly.">
<polygon fill="white" stroke="#666666" points="840,-105.25 722,-105.25 722,-86 840,-86 840,-105.25"/>
<text text-anchor="middle" x="781" y="-91.75" font-family="Helvetica,sans-Serif" font-size="10.00">fabomatic::taskConnect</text>
</a>
</g>
</g>
<!-- Node2&#45;&gt;Node16 -->
<g id="edge26_Node000002_Node000016" class="edge">
<title>Node2&#45;&gt;Node16</title>
<g id="a_edge26_Node000002_Node000016"><a xlink:title=" ">
<path fill="none" stroke="#63b8ff" d="M864.51,-90.1C856.48,-90.64 848.32,-91.19 840.42,-91.71"/>
<polygon fill="#63b8ff" stroke="#63b8ff" points="864.5,-93.61 874.24,-89.45 864.03,-86.63 864.5,-93.61"/>
</a>
</g>
</g>
<!-- Node18 -->
<g id="Node000018" class="node">
<title>Node18</title>
<g id="a_Node000018"><a xlink:href="namespacefabomatic_1_1tests.xhtml#a88a4242d48bfa4a0337df522d303c367" target="_top" xlink:title="Opens WiFi and server connection and updates board state accordingly.">
<polygon fill="white" stroke="#666666" points="834,-67.88 728,-67.88 728,-37.38 834,-37.38 834,-67.88"/>
<text text-anchor="start" x="736" y="-54.38" font-family="Helvetica,sans-Serif" font-size="10.00">fabomatic::tests::test</text>
<text text-anchor="middle" x="781" y="-43.12" font-family="Helvetica,sans-Serif" font-size="10.00">_taskConnect</text>
</a>
</g>
</g>
<!-- Node2&#45;&gt;Node18 -->
<g id="edge28_Node000002_Node000018" class="edge">
<title>Node2&#45;&gt;Node18</title>
<g id="a_edge28_Node000002_Node000018"><a xlink:title=" ">
<path fill="none" stroke="#63b8ff" d="M864.76,-70.91C854.52,-68.65 844.07,-66.34 834.2,-64.16"/>
<polygon fill="#63b8ff" stroke="#63b8ff" points="863.76,-74.27 874.28,-73.01 865.27,-67.44 863.76,-74.27"/>
</a>
</g>
</g>
<!-- Node4 -->
<g id="Node000004" class="node">
<title>Node4</title>
<g id="a_Node000004"><a xlink:href="classfabomatic_1_1_board_logic.xhtml#a25bdc3a49d850aa49f92faf951b68efb" target="_top" xlink:title="Checks if a new card is present.">
<polygon fill="white" stroke="#666666" points="686,-153.88 573.25,-153.88 573.25,-123.38 686,-123.38 686,-153.88"/>
<text text-anchor="start" x="581.25" y="-140.38" font-family="Helvetica,sans-Serif" font-size="10.00">fabomatic::BoardLogic</text>
<text text-anchor="middle" x="629.62" y="-129.12" font-family="Helvetica,sans-Serif" font-size="10.00">::checkRfid</text>
</a>
</g>
</g>
<!-- Node3&#45;&gt;Node4 -->
<g id="edge3_Node000003_Node000004" class="edge">
<title>Node3&#45;&gt;Node4</title>
<g id="a_edge3_Node000003_Node000004"><a xlink:title=" ">
<path fill="none" stroke="#63b8ff" d="M713.14,-138.62C704.17,-138.62 695.04,-138.62 686.29,-138.62"/>
<polygon fill="#63b8ff" stroke="#63b8ff" points="712.86,-142.13 722.86,-138.63 712.86,-135.13 712.86,-142.13"/>
</a>
</g>
</g>
<!-- Node5 -->
<g id="Node000005" class="node">
<title>Node5</title>
<g id="a_Node000005"><a xlink:href="namespacefabomatic_1_1tests.xhtml#a2600320f41c9fa343c66058ecb12b5ee" target="_top" xlink:title="Simulates RFID card tap.">
<polygon fill="white" stroke="#666666" points="537.25,-305.88 411,-305.88 411,-275.38 537.25,-275.38 537.25,-305.88"/>
<text text-anchor="start" x="419" y="-292.38" font-family="Helvetica,sans-Serif" font-size="10.00">fabomatic::tests::simulate</text>
<text text-anchor="middle" x="474.12" y="-281.12" font-family="Helvetica,sans-Serif" font-size="10.00">_rfid_card</text>
</a>
</g>
</g>
<!-- Node4&#45;&gt;Node5 -->
<g id="edge4_Node000004_Node000005" class="edge">
<title>Node4&#45;&gt;Node5</title>
<g id="a_edge4_Node000004_Node000005"><a xlink:title=" ">
<path fill="none" stroke="#63b8ff" d="M604.86,-162.16C573.06,-193.64 517.58,-248.58 490.66,-275.24"/>
<polygon fill="#63b8ff" stroke="#63b8ff" points="607.06,-164.91 611.7,-155.38 602.13,-159.93 607.06,-164.91"/>
</a>
</g>
</g>
<!-- Node12 -->
<g id="Node000012" class="node">
<title>Node12</title>
<g id="a_Node000012"><a xlink:href="namespacefabomatic_1_1tests.xhtml#aab0f4e1439b281ffef8be51db9a81f9d" target="_top" xlink:title=" ">
<polygon fill="white" stroke="#666666" points="191.75,-204.88 79,-204.88 79,-174.38 191.75,-174.38 191.75,-204.88"/>
<text text-anchor="start" x="87" y="-191.38" font-family="Helvetica,sans-Serif" font-size="10.00">fabomatic::tests::test</text>
<text text-anchor="middle" x="135.38" y="-180.12" font-family="Helvetica,sans-Serif" font-size="10.00">_whitelist_no_network</text>
</a>
</g>
</g>
<!-- Node4&#45;&gt;Node12 -->
<g id="edge25_Node000004_Node000012" class="edge">
<title>Node4&#45;&gt;Node12</title>
<g id="a_edge25_Node000004_Node000012"><a xlink:title=" ">
<path fill="none" stroke="#63b8ff" d="M561.89,-145.54C463.99,-155.68 283.23,-174.41 192.06,-183.86"/>
<polygon fill="#63b8ff" stroke="#63b8ff" points="562.02,-149.04 571.61,-144.53 561.3,-142.08 562.02,-149.04"/>
</a>
</g>
</g>
<!-- Node14 -->
<g id="Node000014" class="node">
<title>Node14</title>
<g id="a_Node000014"><a xlink:href="namespacefabomatic.xhtml#a3e5c190499522bddad3f3cc69274f16c" target="_top" xlink:title="periodic check for new RFID card">
<polygon fill="white" stroke="#666666" points="537.25,-129.25 411,-129.25 411,-110 537.25,-110 537.25,-129.25"/>
<text text-anchor="middle" x="474.12" y="-115.75" font-family="Helvetica,sans-Serif" font-size="10.00">fabomatic::taskCheckRfid</text>
</a>
</g>
</g>
<!-- Node4&#45;&gt;Node14 -->
<g id="edge23_Node000004_Node000014" class="edge">
<title>Node4&#45;&gt;Node14</title>
<g id="a_edge23_Node000004_Node000014"><a xlink:title=" ">
<path fill="none" stroke="#63b8ff" d="M561.38,-130.3C553.5,-129.33 545.49,-128.34 537.69,-127.37"/>
<polygon fill="#63b8ff" stroke="#63b8ff" points="560.92,-133.77 571.27,-131.53 561.78,-126.82 560.92,-133.77"/>
</a>
</g>
</g>
<!-- Node15 -->
<g id="Node000015" class="node">
<title>Node15</title>
<g id="a_Node000015"><a xlink:href="namespacefabomatic_1_1tests.xhtml#a294b4767ecf1e1d11cc31dafb2541d23" target="_top" xlink:title="periodic check for new RFID card">
<polygon fill="white" stroke="#666666" points="527.12,-91.88 421.12,-91.88 421.12,-61.38 527.12,-61.38 527.12,-91.88"/>
<text text-anchor="start" x="429.12" y="-78.38" font-family="Helvetica,sans-Serif" font-size="10.00">fabomatic::tests::test</text>
<text text-anchor="middle" x="474.12" y="-67.12" font-family="Helvetica,sans-Serif" font-size="10.00">_taskCheckRfid</text>
</a>
</g>
</g>
<!-- Node4&#45;&gt;Node15 -->
<g id="edge24_Node000004_Node000015" class="edge">
<title>Node4&#45;&gt;Node15</title>
<g id="a_edge24_Node000004_Node000015"><a xlink:title=" ">
<path fill="none" stroke="#63b8ff" d="M580.94,-118.53C566.9,-112.68 551.48,-106.33 537.25,-100.62 530.49,-97.91 523.29,-95.08 516.29,-92.36"/>
<polygon fill="#63b8ff" stroke="#63b8ff" points="579.4,-121.67 589.97,-122.3 582.09,-115.21 579.4,-121.67"/>
</a>
</g>
</g>
<!-- Node6 -->
<g id="Node000006" class="node">
<title>Node6</title>
<g id="a_Node000006"><a xlink:href="namespacefabomatic_1_1tests.xhtml#a6a7645a865dc822746f972ea6f43224d" target="_top" xlink:title="Resets machine to initial state, clearing flags.">
<polygon fill="white" stroke="#666666" points="375,-281.25 230.75,-281.25 230.75,-262 375,-262 375,-281.25"/>
<text text-anchor="middle" x="302.88" y="-267.75" font-family="Helvetica,sans-Serif" font-size="10.00">fabomatic::tests::machine_init</text>
</a>
</g>
</g>
<!-- Node5&#45;&gt;Node6 -->
<g id="edge5_Node000005_Node000006" class="edge">
<title>Node5&#45;&gt;Node6</title>
<g id="a_edge5_Node000005_Node000006"><a xlink:title=" ">
<path fill="none" stroke="#63b8ff" d="M399.39,-282.35C391.4,-281.45 383.27,-280.54 375.3,-279.64"/>
<polygon fill="#63b8ff" stroke="#63b8ff" points="398.75,-285.8 409.08,-283.44 399.53,-278.84 398.75,-285.8"/>
</a>
</g>
</g>
<!-- Node7 -->
<g id="Node000007" class="node">
<title>Node7</title>
<g id="a_Node000007"><a xlink:href="namespacefabomatic_1_1tests.xhtml#a558e2287db01a4622581246a19dac397" target="_top" xlink:title=" ">
<polygon fill="white" stroke="#666666" points="188.38,-400.88 82.38,-400.88 82.38,-370.38 188.38,-370.38 188.38,-400.88"/>
<text text-anchor="start" x="90.38" y="-387.38" font-family="Helvetica,sans-Serif" font-size="10.00">fabomatic::tests::test</text>
<text text-anchor="middle" x="135.38" y="-376.12" font-family="Helvetica,sans-Serif" font-size="10.00">_machine_allowed</text>
</a>
</g>
</g>
<!-- Node5&#45;&gt;Node7 -->
<g id="edge16_Node000005_Node000007" class="edge">
<title>Node5&#45;&gt;Node7</title>
<g id="a_edge16_Node000005_Node000007"><a xlink:title=" ">
<path fill="none" stroke="#63b8ff" d="M424.34,-310.36C408.72,-316.32 391.25,-322.61 375,-327.62 311.66,-347.19 237.22,-364.38 188.54,-374.87"/>
<polygon fill="#63b8ff" stroke="#63b8ff" points="425.34,-313.73 433.41,-306.86 422.82,-307.2 425.34,-313.73"/>
</a>
</g>
</g>
<!-- Node9 -->
<g id="Node000009" class="node">
<title>Node9</title>
<g id="a_Node000009"><a xlink:href="namespacefabomatic_1_1tests.xhtml#a9a34631c2dc01cbdbbce146895c94e12" target="_top" xlink:title=" ">
<polygon fill="white" stroke="#666666" points="194.75,-351.88 76,-351.88 76,-321.38 194.75,-321.38 194.75,-351.88"/>
<text text-anchor="start" x="84" y="-338.38" font-family="Helvetica,sans-Serif" font-size="10.00">fabomatic::tests::test</text>
<text text-anchor="middle" x="135.38" y="-327.12" font-family="Helvetica,sans-Serif" font-size="10.00">_machine_maintenance</text>
</a>
</g>
</g>
<!-- Node5&#45;&gt;Node9 -->
<g id="edge17_Node000005_Node000009" class="edge">
<title>Node5&#45;&gt;Node9</title>
<g id="a_edge17_Node000005_Node000009"><a xlink:title=" ">
<path fill="none" stroke="#63b8ff" d="M399.41,-301.21C391.18,-302.37 382.91,-303.53 375,-304.62 313.72,-313.11 243.54,-322.48 195.23,-328.87"/>
<polygon fill="#63b8ff" stroke="#63b8ff" points="399.67,-304.71 409.08,-299.84 398.69,-297.78 399.67,-304.71"/>
</a>
</g>
</g>
<!-- Node10 -->
<g id="Node000010" class="node">
<title>Node10</title>
<g id="a_Node000010"><a xlink:href="namespacefabomatic_1_1tests.xhtml#a6f3dff17fd964aba76c35c514957a0a5" target="_top" xlink:title=" ">
<polygon fill="white" stroke="#666666" points="189.88,-302.88 80.88,-302.88 80.88,-272.38 189.88,-272.38 189.88,-302.88"/>
<text text-anchor="start" x="88.88" y="-289.38" font-family="Helvetica,sans-Serif" font-size="10.00">fabomatic::tests::test</text>
<text text-anchor="middle" x="135.38" y="-278.12" font-family="Helvetica,sans-Serif" font-size="10.00">_one_user_at_a_time</text>
</a>
</g>
</g>
<!-- Node5&#45;&gt;Node10 -->
<g id="edge20_Node000005_Node000010" class="edge">
<title>Node5&#45;&gt;Node10</title>
<g id="a_edge20_Node000005_Node000010"><a xlink:title=" ">
<path fill="none" stroke="#63b8ff" d="M399.37,-291.23C351.34,-291.48 287.33,-291.52 230.75,-290.62 217.64,-290.42 203.5,-290.05 190.27,-289.63"/>
<polygon fill="#63b8ff" stroke="#63b8ff" points="399.11,-294.73 409.09,-291.18 399.07,-287.73 399.11,-294.73"/>
</a>
</g>
</g>
<!-- Node11 -->
<g id="Node000011" class="node">
<title>Node11</title>
<g id="a_Node000011"><a xlink:href="namespacefabomatic_1_1tests.xhtml#afa92fef9250d918ee02c79dbf2de2546" target="_top" xlink:title=" ">
<polygon fill="white" stroke="#666666" points="188.38,-253.88 82.38,-253.88 82.38,-223.38 188.38,-223.38 188.38,-253.88"/>
<text text-anchor="start" x="90.38" y="-240.38" font-family="Helvetica,sans-Serif" font-size="10.00">fabomatic::tests::test</text>
<text text-anchor="middle" x="135.38" y="-229.12" font-family="Helvetica,sans-Serif" font-size="10.00">_user_autologoff</text>
</a>
</g>
</g>
<!-- Node5&#45;&gt;Node11 -->
<g id="edge21_Node000005_Node000011" class="edge">
<title>Node5&#45;&gt;Node11</title>
<g id="a_edge21_Node000005_Node000011"><a xlink:title=" ">
<path fill="none" stroke="#63b8ff" d="M429.75,-270.48C413,-263.6 393.45,-256.64 375,-252.62 311.94,-238.92 237.45,-236.7 188.67,-237.07"/>
<polygon fill="#63b8ff" stroke="#63b8ff" points="428.35,-273.69 438.92,-274.37 431.08,-267.25 428.35,-273.69"/>
</a>
</g>
</g>
<!-- Node5&#45;&gt;Node12 -->
<g id="edge22_Node000005_Node000012" class="edge">
<title>Node5&#45;&gt;Node12</title>
<g id="a_edge22_Node000005_Node000012"><a xlink:title=" ">
<path fill="none" stroke="#63b8ff" d="M442.24,-268.49C423.6,-256.15 398.9,-241.51 375,-232.62 314.63,-210.17 241.19,-199.2 191.86,-194"/>
<polygon fill="#63b8ff" stroke="#63b8ff" points="440.16,-271.31 450.41,-274.03 444.09,-265.52 440.16,-271.31"/>
</a>
</g>
</g>
<!-- Node13 -->
<g id="Node000013" class="node">
<title>Node13</title>
<g id="a_Node000013"><a xlink:href="namespacefabomatic_1_1tests.xhtml#af8fa7ace86309b5f699540d8898660c7" target="_top" xlink:title=" ">
<polygon fill="white" stroke="#666666" points="355.88,-443.88 249.88,-443.88 249.88,-413.38 355.88,-413.38 355.88,-443.88"/>
<text text-anchor="start" x="257.88" y="-430.38" font-family="Helvetica,sans-Serif" font-size="10.00">fabomatic::tests::test</text>
<text text-anchor="middle" x="302.88" y="-419.12" font-family="Helvetica,sans-Serif" font-size="10.00">_messages_buffered</text>
</a>
</g>
</g>
<!-- Node5&#45;&gt;Node13 -->
<g id="edge18_Node000005_Node000013" class="edge">
<title>Node5&#45;&gt;Node13</title>
<g id="a_edge18_Node000005_Node000013"><a xlink:title=" ">
<path fill="none" stroke="#63b8ff" d="M456.13,-315.25C438.32,-339.5 408.33,-376.21 375,-399.62 367.69,-404.76 359.33,-409.2 350.98,-412.94"/>
<polygon fill="#63b8ff" stroke="#63b8ff" points="458.89,-317.4 461.89,-307.23 453.21,-313.31 458.89,-317.4"/>
</a>
</g>
</g>
<!-- Node6&#45;&gt;Node7 -->
<g id="edge6_Node000006_Node000007" class="edge">
<title>Node6&#45;&gt;Node7</title>
<g id="a_edge6_Node000006_Node000007"><a xlink:title=" ">
<path fill="none" stroke="#63b8ff" d="M283.98,-289.3C263.66,-308.66 228.89,-339.74 194.75,-360.62 189.3,-363.96 183.32,-367.07 177.33,-369.88"/>
<polygon fill="#63b8ff" stroke="#63b8ff" points="286.16,-292.06 290.91,-282.59 281.29,-287.03 286.16,-292.06"/>
</a>
</g>
</g>
<!-- Node6&#45;&gt;Node9 -->
<g id="edge8_Node000006_Node000009" class="edge">
<title>Node6&#45;&gt;Node9</title>
<g id="a_edge8_Node000006_Node000009"><a xlink:title=" ">
<path fill="none" stroke="#63b8ff" d="M265.7,-285.83C239.34,-296.18 203.63,-310.21 176.41,-320.9"/>
<polygon fill="#63b8ff" stroke="#63b8ff" points="266.94,-289.11 274.97,-282.19 264.38,-282.59 266.94,-289.11"/>
</a>
</g>
</g>
<!-- Node6&#45;&gt;Node10 -->
<g id="edge10_Node000006_Node000010" class="edge">
<title>Node6&#45;&gt;Node10</title>
<g id="a_edge10_Node000006_Node000010"><a xlink:title=" ">
<path fill="none" stroke="#63b8ff" d="M219.52,-279.59C209.57,-280.55 199.61,-281.51 190.22,-282.42"/>
<polygon fill="#63b8ff" stroke="#63b8ff" points="219.6,-283.1 229.22,-278.65 218.93,-276.13 219.6,-283.1"/>
</a>
</g>
</g>
<!-- Node6&#45;&gt;Node11 -->
<g id="edge12_Node000006_Node000011" class="edge">
<title>Node6&#45;&gt;Node11</title>
<g id="a_edge12_Node000006_Node000011"><a xlink:title=" ">
<path fill="none" stroke="#63b8ff" d="M240.36,-259.36C223.35,-255.97 205.05,-252.32 188.62,-249.04"/>
<polygon fill="#63b8ff" stroke="#63b8ff" points="239.34,-262.73 249.84,-261.25 240.71,-255.86 239.34,-262.73"/>
</a>
</g>
</g>
<!-- Node6&#45;&gt;Node12 -->
<g id="edge14_Node000006_Node000012" class="edge">
<title>Node6&#45;&gt;Node12</title>
<g id="a_edge14_Node000006_Node000012"><a xlink:title=" ">
<path fill="none" stroke="#63b8ff" d="M274.27,-256.11C252.83,-244.26 222.22,-227.79 194.75,-214.62 188.19,-211.48 181.13,-208.3 174.27,-205.3"/>
<polygon fill="#63b8ff" stroke="#63b8ff" points="272.53,-259.15 282.97,-260.94 275.93,-253.03 272.53,-259.15"/>
</a>
</g>
</g>
<!-- Node8 -->
<g id="Node000008" class="node">
<title>Node8</title>
<g id="a_Node000008"><a xlink:href="test__logic_8cpp.xhtml#a4fc01d736fe50cf5b977f755b675f11d" target="_top" xlink:title=" ">
<polygon fill="white" stroke="#666666" points="40,-321.25 0,-321.25 0,-302 40,-302 40,-321.25"/>
<text text-anchor="middle" x="20" y="-307.75" font-family="Helvetica,sans-Serif" font-size="10.00">setup</text>
</a>
</g>
</g>
<!-- Node7&#45;&gt;Node8 -->
<g id="edge7_Node000007_Node000008" class="edge">
<title>Node7&#45;&gt;Node8</title>
<g id="a_edge7_Node000007_Node000008"><a xlink:title=" ">
<path fill="none" stroke="#63b8ff" d="M82.96,-364.75C80.57,-363.42 78.24,-362.05 76,-360.62 58.3,-349.37 40.71,-332.43 30.35,-321.7"/>
<polygon fill="#63b8ff" stroke="#63b8ff" points="81.17,-367.76 91.66,-369.21 84.36,-361.53 81.17,-367.76"/>
</a>
</g>
</g>
<!-- Node9&#45;&gt;Node8 -->
<g id="edge9_Node000009_Node000008" class="edge">
<title>Node9&#45;&gt;Node8</title>
<g id="a_edge9_Node000009_Node000008"><a xlink:title=" ">
<path fill="none" stroke="#63b8ff" d="M64.73,-321.27C55.88,-319.32 47.47,-317.46 40.43,-315.91"/>
<polygon fill="#63b8ff" stroke="#63b8ff" points="63.7,-324.62 74.22,-323.36 65.21,-317.79 63.7,-324.62"/>
</a>
</g>
</g>
<!-- Node10&#45;&gt;Node8 -->
<g id="edge11_Node000010_Node000008" class="edge">
<title>Node10&#45;&gt;Node8</title>
<g id="a_edge11_Node000010_Node000008"><a xlink:title=" ">
<path fill="none" stroke="#63b8ff" d="M69.53,-301.35C58.91,-303.6 48.69,-305.76 40.38,-307.52"/>
<polygon fill="#63b8ff" stroke="#63b8ff" points="70.14,-304.8 79.19,-299.31 68.69,-297.95 70.14,-304.8"/>
</a>
</g>
</g>
<!-- Node11&#45;&gt;Node8 -->
<g id="edge13_Node000011_Node000008" class="edge">
<title>Node11&#45;&gt;Node8</title>
<g id="a_edge13_Node000011_Node000008"><a xlink:title=" ">
<path fill="none" stroke="#63b8ff" d="M83.1,-259.46C80.66,-260.8 78.28,-262.19 76,-263.62 58.4,-274.68 40.78,-291.27 30.39,-301.77"/>
<polygon fill="#63b8ff" stroke="#63b8ff" points="84.67,-262.59 92,-254.94 81.5,-256.35 84.67,-262.59"/>
</a>
</g>
</g>
<!-- Node12&#45;&gt;Node8 -->
<g id="edge15_Node000012_Node000008" class="edge">
<title>Node12&#45;&gt;Node8</title>
<g id="a_edge15_Node000012_Node000008"><a xlink:title=" ">
<path fill="none" stroke="#63b8ff" d="M79.85,-211.45C78.52,-212.46 77.23,-213.52 76,-214.62 48.01,-239.66 30.86,-282.46 24.19,-301.72"/>
<polygon fill="#63b8ff" stroke="#63b8ff" points="81.48,-214.56 87.93,-206.16 77.65,-208.71 81.48,-214.56"/>
</a>
</g>
</g>
<!-- Node13&#45;&gt;Node8 -->
<g id="edge19_Node000013_Node000008" class="edge">
<title>Node13&#45;&gt;Node8</title>
<g id="a_edge19_Node000013_Node000008"><a xlink:title=" ">
<path fill="none" stroke="#63b8ff" d="M238.26,-438.43C189.98,-442.49 123.95,-440.47 76,-409.62 43.68,-388.83 28.53,-342.01 23.27,-321.53"/>
<polygon fill="#63b8ff" stroke="#63b8ff" points="238.38,-441.93 248,-437.49 237.71,-434.96 238.38,-441.93"/>
</a>
</g>
</g>
<!-- Node17 -->
<g id="Node000017" class="node">
<title>Node17</title>
<g id="a_Node000017"><a xlink:href="main_8cpp.xhtml#a4fc01d736fe50cf5b977f755b675f11d" target="_top" xlink:title=" ">
<polygon fill="white" stroke="#666666" points="649.62,-105.25 609.62,-105.25 609.62,-86 649.62,-86 649.62,-105.25"/>
<text text-anchor="middle" x="629.62" y="-91.75" font-family="Helvetica,sans-Serif" font-size="10.00">setup</text>
</a>
</g>
</g>
<!-- Node16&#45;&gt;Node17 -->
<g id="edge27_Node000016_Node000017" class="edge">
<title>Node16&#45;&gt;Node17</title>
<g id="a_edge27_Node000016_Node000017"><a xlink:title=" ">
<path fill="none" stroke="#63b8ff" d="M710.61,-95.62C688.3,-95.62 665.36,-95.62 649.8,-95.62"/>
<polygon fill="#63b8ff" stroke="#63b8ff" points="710.31,-99.13 720.31,-95.63 710.31,-92.13 710.31,-99.13"/>
</a>
</g>
</g>
<!-- Node20 -->
<g id="Node000020" class="node">
<title>Node20</title>
<g id="a_Node000020"><a xlink:href="test__mqtt_8cpp.xhtml#a4fc01d736fe50cf5b977f755b675f11d" target="_top" xlink:title=" ">
<polygon fill="white" stroke="#666666" points="801,-19.25 761,-19.25 761,0 801,0 801,-19.25"/>
<text text-anchor="middle" x="781" y="-5.75" font-family="Helvetica,sans-Serif" font-size="10.00">setup</text>
</a>
</g>
</g>
<!-- Node19&#45;&gt;Node20 -->
<g id="edge30_Node000019_Node000020" class="edge">
<title>Node19&#45;&gt;Node20</title>
<g id="a_edge30_Node000019_Node000020"><a xlink:title=" ">
<path fill="none" stroke="#63b8ff" d="M867.89,-19.97C843.89,-17.08 818.31,-14 801.38,-11.96"/>
<polygon fill="#63b8ff" stroke="#63b8ff" points="867.28,-23.43 877.63,-21.15 868.12,-16.48 867.28,-23.43"/>
</a>
</g>
</g>
</g>
</svg>

<g id="navigator" transform="translate(0 0)" fill="#404254">
  <rect fill="#f2f5e9" fill-opacity="0.5" stroke="#606060" stroke-width=".5" x="0" y="0" width="60" height="60"/>
  <use id="zoomplus" xlink:href="#zoomPlus" x="17" y="9" onmousedown="handleZoom(evt,'in')"/>
  <use id="zoomminus" xlink:href="#zoomMin" x="42" y="9" onmousedown="handleZoom(evt,'out')"/>
  <use id="reset" xlink:href="#resetDef" x="30" y="36" onmousedown="handleReset()"/>
   <use id="arrowup" xlink:href="#arrowUp" x="0" y="0" onmousedown="handlePan(0,-1)"/>
  <use id="arrowright" xlink:href="#arrowRight" x="0" y="0" onmousedown="handlePan(1,0)"/>
  <use id="arrowdown" xlink:href="#arrowDown" x="0" y="0" onmousedown="handlePan(0,1)"/>
  <use id="arrowleft" xlink:href="#arrowLeft" x="0" y="0" onmousedown="handlePan(-1,0)"/>
</g>
<svg viewBox="0 0 15 15" width="100%" height="30px" preserveAspectRatio="xMaxYMin meet">
 <g id="arrow_out" transform="scale(0.3 0.3)">
  <a xlink:href="classfabomatic_1_1_fab_backend_a9b07e09fc8f9e46ec370f0927049d5a7_icgraph_org.svg" target="_base">
   <rect id="button" ry="5" rx="5" y="6" x="6" height="38" width="38"
        fill="#f2f5e9" fill-opacity="0.5" stroke="#606060" stroke-width="1.0"/>
   <path id="arrow"
     d="M 11.500037,31.436501 C 11.940474,20.09759 22.043105,11.32322 32.158766,21.979434 L 37.068811,17.246167 C 37.068811,17.246167 37.088388,32 37.088388,32 L 22.160133,31.978069 C 22.160133,31.978069 26.997745,27.140456 26.997745,27.140456 C 18.528582,18.264221 13.291696,25.230495 11.500037,31.436501 z"
     style="fill:#404040;"/>
  </a>
 </g>
</svg>

<style type='text/css'>
<![CDATA[
[data-mouse-over-selected='false'] { opacity: 0.7; }
[data-mouse-over-selected='true']  { opacity: 1.0; }
]]>
</style>
<script type="application/ecmascript"><![CDATA[
document.addEventListener('DOMContentLoaded', (event) => {
  highlightEdges();
  highlightAdjacentNodes();
});
]]></script>
</svg>
