<?xml version="1.0" encoding="UTF-8" standalone="no"?>
<!DOCTYPE svg PUBLIC "-//W3C//DTD SVG 1.1//EN"
 "http://www.w3.org/Graphics/SVG/1.1/DTD/svg11.dtd">
<!-- Generated by graphviz version 9.0.0 (20230911.1827)
 -->
<!-- Title: fabomatic::ServerMQTT::UserQuery Pages: 1 -->
<svg width="121pt" height="269pt"
 viewBox="0.00 0.00 121.00 269.00" xmlns="http://www.w3.org/2000/svg" xmlns:xlink="http://www.w3.org/1999/xlink">
<g id="graph0" class="graph" transform="scale(1 1) rotate(0) translate(4 265)">
<title>fabomatic::ServerMQTT::UserQuery</title>
<!-- Node1 -->
<g id="Node000001" class="node">
<title>Node1</title>
<g id="a_Node000001"><a xlink:title=" ">
<polygon fill="#999999" stroke="none" points="113,-120 0,-120 0,0 113,0 113,-120"/>
<text text-anchor="start" x="4.75" y="-106.5" font-family="Helvetica,sans-Serif" font-size="10.00">fabomatic::ServerMQTT</text>
<text text-anchor="start" x="31" y="-95.25" font-family="Helvetica,sans-Serif" font-size="10.00">::UserQuery</text>
<text text-anchor="start" x="12" y="-80.5" font-family="Helvetica,sans-Serif" font-size="10.00">+</text>
<text text-anchor="start" x="30" y="-80.5" font-family="Helvetica,sans-Serif" font-size="10.00">uid</text>
<text text-anchor="start" x="12" y="-65.5" font-family="Helvetica,sans-Serif" font-size="10.00">+</text>
<text text-anchor="start" x="30" y="-65.5" font-family="Helvetica,sans-Serif" font-size="10.00">UserQuery()</text>
<text text-anchor="start" x="12" y="-50.5" font-family="Helvetica,sans-Serif" font-size="10.00">+</text>
<text text-anchor="start" x="30" y="-50.5" font-family="Helvetica,sans-Serif" font-size="10.00">UserQuery()</text>
<text text-anchor="start" x="12" y="-35.5" font-family="Helvetica,sans-Serif" font-size="10.00">+</text>
<text text-anchor="start" x="30" y="-35.5" font-family="Helvetica,sans-Serif" font-size="10.00">waitForReply()</text>
<text text-anchor="start" x="12" y="-20.5" font-family="Helvetica,sans-Serif" font-size="10.00">+</text>
<text text-anchor="start" x="30" y="-20.5" font-family="Helvetica,sans-Serif" font-size="10.00">payload()</text>
<text text-anchor="start" x="12" y="-5.5" font-family="Helvetica,sans-Serif" font-size="10.00">+</text>
<text text-anchor="start" x="30" y="-5.5" font-family="Helvetica,sans-Serif" font-size="10.00">buffered()</text>
<polygon fill="#666666" stroke="#666666" points="0,-92 0,-92 113,-92 113,-92 0,-92"/>
<polygon fill="#666666" stroke="#666666" points="0,-77 0,-77 28,-77 28,-77 0,-77"/>
<polygon fill="#666666" stroke="#666666" points="28,-77 28,-77 113,-77 113,-77 28,-77"/>
<polygon fill="none" stroke="#666666" points="0,0 0,-120 113,-120 113,0 0,0"/>
</a>
</g>
</g>
<!-- Node2 -->
<g id="Node000002" class="node">
<title>Node2</title>
<g id="a_Node000002"><a xlink:href="classfabomatic_1_1_server_m_q_t_t_1_1_query.xhtml" target="_top" xlink:title=" ">
<polygon fill="white" stroke="none" points="113,-261 0,-261 0,-156 113,-156 113,-261"/>
<text text-anchor="start" x="4.75" y="-247.5" font-family="Helvetica,sans-Serif" font-size="10.00">fabomatic::ServerMQTT</text>
<text text-anchor="start" x="41.5" y="-236.25" font-family="Helvetica,sans-Serif" font-size="10.00">::Query</text>
<text text-anchor="start" x="55" y="-221.5" font-family="Helvetica,sans-Serif" font-size="10.00"> </text>
<text text-anchor="start" x="12" y="-206.5" font-family="Helvetica,sans-Serif" font-size="10.00">+</text>
<text text-anchor="start" x="30" y="-206.5" font-family="Helvetica,sans-Serif" font-size="10.00">waitForReply()</text>
<text text-anchor="start" x="12" y="-191.5" font-family="Helvetica,sans-Serif" font-size="10.00">+</text>
<text text-anchor="start" x="30" y="-191.5" font-family="Helvetica,sans-Serif" font-size="10.00">payload()</text>
<text text-anchor="start" x="12" y="-176.5" font-family="Helvetica,sans-Serif" font-size="10.00">+</text>
<text text-anchor="start" x="30" y="-176.5" font-family="Helvetica,sans-Serif" font-size="10.00">buffered()</text>
<text text-anchor="start" x="12" y="-161.5" font-family="Helvetica,sans-Serif" font-size="10.00">+</text>
<text text-anchor="start" x="30" y="-161.5" font-family="Helvetica,sans-Serif" font-size="10.00">~Query()</text>
<polygon fill="#666666" stroke="#666666" points="0,-233 0,-233 113,-233 113,-233 0,-233"/>
<polygon fill="#666666" stroke="#666666" points="0,-218 0,-218 113,-218 113,-218 0,-218"/>
<polygon fill="none" stroke="#666666" points="0,-156 0,-261 113,-261 113,-156 0,-156"/>
</a>
</g>
</g>
<!-- Node2&#45;&gt;Node1 -->
<g id="edge1_Node000001_Node000002" class="edge">
<title>Node2&#45;&gt;Node1</title>
<g id="a_edge1_Node000001_Node000002"><a xlink:title=" ">
<path fill="none" stroke="#63b8ff" d="M56.5,-144.79C56.5,-136.56 56.5,-128.15 56.5,-119.99"/>
<polygon fill="none" stroke="#63b8ff" points="53,-144.75 56.5,-154.75 60,-144.75 53,-144.75"/>
</a>
</g>
</g>
</g>
</svg>
