<?xml version="1.0" encoding="UTF-8" standalone="no"?>
<!DOCTYPE svg PUBLIC "-//W3C//DTD SVG 1.1//EN"
 "http://www.w3.org/Graphics/SVG/1.1/DTD/svg11.dtd">
<!-- Generated by graphviz version 9.0.0 (20230911.1827)
 -->
<!-- Title: fabomatic::FabBackend::loop Pages: 1 -->
<svg width="542pt" height="201pt"
 viewBox="0.00 0.00 541.50 200.50" xmlns="http://www.w3.org/2000/svg" xmlns:xlink="http://www.w3.org/1999/xlink">
<g id="graph0" class="graph" transform="scale(1 1) rotate(0) translate(4 196.5)">
<title>fabomatic::FabBackend::loop</title>
<!-- Node1 -->
<g id="Node000001" class="node">
<title>Node1</title>
<g id="a_Node000001"><a xlink:title="Main loop for the MQTT client.">
<polygon fill="#999999" stroke="#666666" points="533.5,-111.5 415.5,-111.5 415.5,-81 533.5,-81 533.5,-111.5"/>
<text text-anchor="start" x="423.5" y="-98" font-family="Helvetica,sans-Serif" font-size="10.00">fabomatic::FabBackend</text>
<text text-anchor="middle" x="474.5" y="-86.75" font-family="Helvetica,sans-Serif" font-size="10.00">::loop</text>
</a>
</g>
</g>
<!-- Node2 -->
<g id="Node000002" class="node">
<title>Node2</title>
<g id="a_Node000002"><a xlink:href="namespacefabomatic_1_1tests.xhtml#a225ff05e4b787d9faae285c48e13e335" target="_top" xlink:title=" ">
<polygon fill="white" stroke="#666666" points="366,-181.88 236.75,-181.88 236.75,-162.62 366,-162.62 366,-181.88"/>
<text text-anchor="middle" x="301.38" y="-168.38" font-family="Helvetica,sans-Serif" font-size="10.00">fabomatic::tests::busyWait</text>
</a>
</g>
</g>
<!-- Node1&#45;&gt;Node2 -->
<g id="edge1_Node000001_Node000002" class="edge">
<title>Node1&#45;&gt;Node2</title>
<g id="a_edge1_Node000001_Node000002"><a xlink:title=" ">
<path fill="none" stroke="#63b8ff" d="M438.96,-117.58C421.55,-127.75 399.86,-139.56 379.5,-148.25 366.99,-153.59 352.89,-158.33 340.2,-162.16"/>
<polygon fill="#63b8ff" stroke="#63b8ff" points="440.55,-120.7 447.37,-112.59 436.98,-114.68 440.55,-120.7"/>
</a>
</g>
</g>
<!-- Node5 -->
<g id="Node000005" class="node">
<title>Node5</title>
<g id="a_Node000005"><a xlink:href="namespacefabomatic_1_1tests.xhtml#a24369d35ba4a370e236b987ff7cb5637" target="_top" xlink:title=" ">
<polygon fill="white" stroke="#666666" points="184.62,-143.5 78.62,-143.5 78.62,-113 184.62,-113 184.62,-143.5"/>
<text text-anchor="start" x="86.62" y="-130" font-family="Helvetica,sans-Serif" font-size="10.00">fabomatic::tests::test</text>
<text text-anchor="middle" x="131.62" y="-118.75" font-family="Helvetica,sans-Serif" font-size="10.00">_degraded_use</text>
</a>
</g>
</g>
<!-- Node1&#45;&gt;Node5 -->
<g id="edge7_Node000001_Node000005" class="edge">
<title>Node1&#45;&gt;Node5</title>
<g id="a_edge7_Node000001_Node000005"><a xlink:title=" ">
<path fill="none" stroke="#63b8ff" d="M403.94,-111.5C395.73,-112.94 387.45,-114.24 379.5,-115.25 312.65,-123.72 234.94,-126.69 184.84,-127.72"/>
<polygon fill="#63b8ff" stroke="#63b8ff" points="404.36,-114.98 413.56,-109.72 403.09,-108.09 404.36,-114.98"/>
</a>
</g>
</g>
<!-- Node6 -->
<g id="Node000006" class="node">
<title>Node6</title>
<g id="a_Node000006"><a xlink:href="namespacefabomatic.xhtml#a710739974eb0b1c5b53ffd75580ab54d" target="_top" xlink:title="sends the MQTT alive message">
<polygon fill="white" stroke="#666666" points="379.5,-105.88 223.25,-105.88 223.25,-86.62 379.5,-86.62 379.5,-105.88"/>
<text text-anchor="middle" x="301.38" y="-92.38" font-family="Helvetica,sans-Serif" font-size="10.00">fabomatic::taskMQTTClientLoop</text>
</a>
</g>
</g>
<!-- Node1&#45;&gt;Node6 -->
<g id="edge6_Node000001_Node000006" class="edge">
<title>Node1&#45;&gt;Node6</title>
<g id="a_edge6_Node000001_Node000006"><a xlink:title=" ">
<path fill="none" stroke="#63b8ff" d="M403.74,-96.25C395.88,-96.25 387.84,-96.25 379.89,-96.25"/>
<polygon fill="#63b8ff" stroke="#63b8ff" points="403.57,-99.75 413.57,-96.25 403.57,-92.75 403.57,-99.75"/>
</a>
</g>
</g>
<!-- Node7 -->
<g id="Node000007" class="node">
<title>Node7</title>
<g id="a_Node000007"><a xlink:href="namespacefabomatic_1_1tests.xhtml#a438b9060c27d36e89506199205b342cb" target="_top" xlink:title=" ">
<polygon fill="white" stroke="#666666" points="184.62,-86.5 78.62,-86.5 78.62,-56 184.62,-56 184.62,-86.5"/>
<text text-anchor="start" x="86.62" y="-73" font-family="Helvetica,sans-Serif" font-size="10.00">fabomatic::tests::test</text>
<text text-anchor="middle" x="131.62" y="-61.75" font-family="Helvetica,sans-Serif" font-size="10.00">_fabserver_calls</text>
</a>
</g>
</g>
<!-- Node1&#45;&gt;Node7 -->
<g id="edge8_Node000001_Node000007" class="edge">
<title>Node1&#45;&gt;Node7</title>
<g id="a_edge8_Node000001_Node000007"><a xlink:title=" ">
<path fill="none" stroke="#63b8ff" d="M403.97,-80.78C395.75,-79.37 387.46,-78.14 379.5,-77.25 312.61,-69.74 234.91,-69.18 184.82,-69.88"/>
<polygon fill="#63b8ff" stroke="#63b8ff" points="403.13,-84.19 413.59,-82.53 404.38,-77.3 403.13,-84.19"/>
</a>
</g>
</g>
<!-- Node8 -->
<g id="Node000008" class="node">
<title>Node8</title>
<g id="a_Node000008"><a xlink:href="namespacefabomatic_1_1tests.xhtml#ae0c2cd74b089905fbdebeca807403606" target="_top" xlink:title="sends the MQTT alive message">
<polygon fill="white" stroke="#666666" points="354.38,-30.5 248.38,-30.5 248.38,0 354.38,0 354.38,-30.5"/>
<text text-anchor="start" x="256.38" y="-17" font-family="Helvetica,sans-Serif" font-size="10.00">fabomatic::tests::test</text>
<text text-anchor="middle" x="301.38" y="-5.75" font-family="Helvetica,sans-Serif" font-size="10.00">_taskMQTTAlive</text>
</a>
</g>
</g>
<!-- Node1&#45;&gt;Node8 -->
<g id="edge10_Node000001_Node000008" class="edge">
<title>Node1&#45;&gt;Node8</title>
<g id="a_edge10_Node000001_Node000008"><a xlink:title=" ">
<path fill="none" stroke="#63b8ff" d="M437.99,-75C420.66,-65.05 399.32,-53.4 379.5,-44.25 369.24,-39.51 357.97,-34.94 347.28,-30.88"/>
<polygon fill="#63b8ff" stroke="#63b8ff" points="435.98,-77.88 446.38,-79.88 439.49,-71.83 435.98,-77.88"/>
</a>
</g>
</g>
<!-- Node3 -->
<g id="Node000003" class="node">
<title>Node3</title>
<g id="a_Node000003"><a xlink:href="namespacefabomatic_1_1tests.xhtml#a0b99fa5582e6b0ecb416f4ed348e5606" target="_top" xlink:title=" ">
<polygon fill="white" stroke="#666666" points="187.25,-192.5 76,-192.5 76,-162 187.25,-162 187.25,-192.5"/>
<text text-anchor="start" x="84" y="-179" font-family="Helvetica,sans-Serif" font-size="10.00">fabomatic::tests::test</text>
<text text-anchor="middle" x="131.62" y="-167.75" font-family="Helvetica,sans-Serif" font-size="10.00">_backend_commands</text>
</a>
</g>
</g>
<!-- Node2&#45;&gt;Node3 -->
<g id="edge2_Node000002_Node000003" class="edge">
<title>Node2&#45;&gt;Node3</title>
<g id="a_edge2_Node000002_Node000003"><a xlink:title=" ">
<path fill="none" stroke="#63b8ff" d="M225.01,-174.5C212.41,-174.87 199.55,-175.26 187.58,-175.61"/>
<polygon fill="#63b8ff" stroke="#63b8ff" points="225.07,-178 234.96,-174.2 224.86,-171 225.07,-178"/>
</a>
</g>
</g>
<!-- Node2&#45;&gt;Node5 -->
<g id="edge4_Node000002_Node000005" class="edge">
<title>Node2&#45;&gt;Node5</title>
<g id="a_edge4_Node000002_Node000005"><a xlink:title=" ">
<path fill="none" stroke="#63b8ff" d="M250.76,-159.24C230.03,-153.8 205.92,-147.48 184.92,-141.97"/>
<polygon fill="#63b8ff" stroke="#63b8ff" points="249.86,-162.62 260.43,-161.77 251.64,-155.85 249.86,-162.62"/>
</a>
</g>
</g>
<!-- Node4 -->
<g id="Node000004" class="node">
<title>Node4</title>
<g id="a_Node000004"><a xlink:href="test__mqtt_8cpp.xhtml#a4fc01d736fe50cf5b977f755b675f11d" target="_top" xlink:title=" ">
<polygon fill="white" stroke="#666666" points="40,-137.88 0,-137.88 0,-118.62 40,-118.62 40,-137.88"/>
<text text-anchor="middle" x="20" y="-124.38" font-family="Helvetica,sans-Serif" font-size="10.00">setup</text>
</a>
</g>
</g>
<!-- Node3&#45;&gt;Node4 -->
<g id="edge3_Node000003_Node000004" class="edge">
<title>Node3&#45;&gt;Node4</title>
<g id="a_edge3_Node000003_Node000004"><a xlink:title=" ">
<path fill="none" stroke="#63b8ff" d="M85.5,-157.08C69.75,-150.04 52.89,-142.51 40.36,-136.91"/>
<polygon fill="#63b8ff" stroke="#63b8ff" points="83.7,-160.11 94.26,-160.99 86.55,-153.72 83.7,-160.11"/>
</a>
</g>
</g>
<!-- Node5&#45;&gt;Node4 -->
<g id="edge5_Node000005_Node000004" class="edge">
<title>Node5&#45;&gt;Node4</title>
<g id="a_edge5_Node000005_Node000004"><a xlink:title=" ">
<path fill="none" stroke="#63b8ff" d="M66.96,-128.25C57.31,-128.25 48.04,-128.25 40.39,-128.25"/>
<polygon fill="#63b8ff" stroke="#63b8ff" points="66.87,-131.75 76.87,-128.25 66.87,-124.75 66.87,-131.75"/>
</a>
</g>
</g>
<!-- Node7&#45;&gt;Node4 -->
<g id="edge9_Node000007_Node000004" class="edge">
<title>Node7&#45;&gt;Node4</title>
<g id="a_edge9_Node000007_Node000004"><a xlink:title=" ">
<path fill="none" stroke="#63b8ff" d="M90.61,-92.06C73.51,-100.95 54.34,-110.92 40.45,-118.14"/>
<polygon fill="#63b8ff" stroke="#63b8ff" points="91.78,-95.39 99.04,-87.67 88.55,-89.18 91.78,-95.39"/>
</a>
</g>
</g>
</g>
</svg>
