<?xml version="1.0" encoding="UTF-8" standalone="no"?>
<!DOCTYPE svg PUBLIC "-//W3C//DTD SVG 1.1//EN"
 "http://www.w3.org/Graphics/SVG/1.1/DTD/svg11.dtd">
<!-- Generated by graphviz version 9.0.0 (20230911.1827)
 -->
<!-- Title: fabomatic::FabBackend::processQuery Pages: 1 -->
<!--zoomable 445 -->

<svg id="main" version="1.1" xmlns="http://www.w3.org/2000/svg" xmlns:xlink="http://www.w3.org/1999/xlink" xml:space="preserve" onload="init(evt)">
<style type="text/css"><![CDATA[
.node, .edge {opacity: 0.7;}
.node.selected, .edge.selected {opacity: 1;}
.edge:hover path { stroke: red; }
.edge:hover polygon { stroke: red; fill: red; }
]]></style>

<defs>
  <circle id="rim" cx="0" cy="0" r="7"/>
  <circle id="rim2" cx="0" cy="0" r="3.5"/>
  <g id="zoomPlus">
    <use xlink:href="#rim" fill="#404040"><set attributeName="fill" to="#808080" begin="zoomplus.mouseover" end="zoomplus.mouseout"/></use>
    <path d="M-4,0h8M0,-4v8" fill="none" stroke="white" stroke-width="1.5" pointer-events="none"/>
  </g>
  <g id="zoomMin">
    <use xlink:href="#rim" fill="#404040"><set attributeName="fill" to="#808080" begin="zoomminus.mouseover" end="zoomminus.mouseout"/></use>
    <path d="M-4,0h8" fill="none" stroke="white" stroke-width="1.5" pointer-events="none"/>
  </g>
  <g id="arrowUp" transform="translate(30 24)">
    <use xlink:href="#rim"/>
    <path pointer-events="none" fill="none" stroke="white" stroke-width="1.5" d="M0,-3.0v7 M-2.5,-0.5L0,-3.0L2.5,-0.5"/>
  </g>
  <g id="arrowRight" transform="rotate(90) translate(36 -43)">
    <use xlink:href="#rim"/>
    <path pointer-events="none" fill="none" stroke="white" stroke-width="1.5" d="M0,-3.0v7 M-2.5,-0.5L0,-3.0L2.5,-0.5"/>
  </g>
  <g id="arrowDown" transform="rotate(180) translate(-30 -48)">
    <use xlink:href="#rim"/>
    <path pointer-events="none" fill="none" stroke="white" stroke-width="1.5" d="M0,-3.0v7 M-2.5,-0.5L0,-3.0L2.5,-0.5"/>
  </g>
  <g id="arrowLeft" transform="rotate(270) translate(-36 17)">
    <use xlink:href="#rim"/>
    <path pointer-events="none" fill="none" stroke="white" stroke-width="1.5" d="M0,-3.0v7 M-2.5,-0.5L0,-3.0L2.5,-0.5"/>
  </g>
  <g id="resetDef">
    <use xlink:href="#rim2" fill="#404040"><set attributeName="fill" to="#808080" begin="reset.mouseover" end="reset.mouseout"/></use>
  </g>
</defs>
<script type="application/ecmascript">
var viewWidth = 770;
var viewHeight = 445;
var sectionId = 'dynsection-21';
</script>
<script type="application/ecmascript" xlink:href="svg.min.js"/>
<svg id="graph" class="graph">
<g id="viewport">
<title>fabomatic::FabBackend::processQuery</title>
<!-- Node1 -->
<g id="Node000001" class="node">
<title>Node1</title>
<g id="a_Node000001"><a xlink:title="Processes a query.">
<polygon fill="#999999" stroke="#666666" points="118,-198.5 0,-198.5 0,-168 118,-168 118,-198.5"/>
<text text-anchor="start" x="8" y="-185" font-family="Helvetica,sans-Serif" font-size="10.00">fabomatic::FabBackend</text>
<text text-anchor="middle" x="59" y="-173.75" font-family="Helvetica,sans-Serif" font-size="10.00">::processQuery</text>
</a>
</g>
</g>
<!-- Node2 -->
<g id="Node000002" class="node">
<title>Node2</title>
<g id="a_Node000002"><a xlink:href="classfabomatic_1_1_fab_backend.xhtml#a1a45f556aadcbc428d14b7c7577ed43d" target="_top" xlink:title="Establishes a connection to the WiFi network and the MQTT server.">
<polygon fill="white" stroke="#666666" points="272,-350.5 154,-350.5 154,-320 272,-320 272,-350.5"/>
<text text-anchor="start" x="162" y="-337" font-family="Helvetica,sans-Serif" font-size="10.00">fabomatic::FabBackend</text>
<text text-anchor="middle" x="213" y="-325.75" font-family="Helvetica,sans-Serif" font-size="10.00">::connect</text>
</a>
</g>
</g>
<!-- Node1&#45;&gt;Node2 -->
<g id="edge1_Node000001_Node000002" class="edge">
<title>Node1&#45;&gt;Node2</title>
<g id="a_edge1_Node000001_Node000002"><a xlink:title=" ">
<path fill="none" stroke="#63b8ff" d="M70.23,-198.71C86.21,-222.1 118.92,-267.07 154,-298.25 160.14,-303.71 167.16,-308.9 174.15,-313.58"/>
<polygon fill="#63b8ff" stroke="#63b8ff" points="172,-316.35 182.31,-318.8 175.77,-310.46 172,-316.35"/>
</a>
</g>
</g>
<!-- Node4 -->
<g id="Node000004" class="node">
<title>Node4</title>
<g id="a_Node000004"><a xlink:href="namespacefabomatic_1_1_tasks.xhtml#a5c20f560f5934822d39ba116a16f3ab6" target="_top" xlink:title="Wait for a delay, allowing OTA updates.">
<polygon fill="white" stroke="#666666" points="579.25,-319.88 462,-319.88 462,-300.62 579.25,-300.62 579.25,-319.88"/>
<text text-anchor="middle" x="520.62" y="-306.38" font-family="Helvetica,sans-Serif" font-size="10.00">fabomatic::Tasks::delay</text>
</a>
</g>
</g>
<!-- Node1&#45;&gt;Node4 -->
<g id="edge9_Node000001_Node000004" class="edge">
<title>Node1&#45;&gt;Node4</title>
<g id="a_edge9_Node000001_Node000004"><a xlink:title=" ">
<path fill="none" stroke="#63b8ff" d="M118.34,-197.88C130.13,-200.73 142.44,-203.65 154,-206.25 274.41,-233.37 309.58,-221.28 426,-262.25 449.77,-270.61 475.1,-283.9 493.41,-294.37"/>
<polygon fill="#63b8ff" stroke="#63b8ff" points="491.61,-297.38 502.01,-299.4 495.14,-291.33 491.61,-297.38"/>
</a>
</g>
</g>
<!-- Node7 -->
<g id="Node000007" class="node">
<title>Node7</title>
<g id="a_Node000007"><a xlink:href="classfabomatic_1_1_fab_backend.xhtml#aee0cf549bea2daebc3e08742853d36c1" target="_top" xlink:title="Publishes a query on the MQTT server.">
<polygon fill="white" stroke="#666666" points="426,-301.5 308,-301.5 308,-271 426,-271 426,-301.5"/>
<text text-anchor="start" x="316" y="-288" font-family="Helvetica,sans-Serif" font-size="10.00">fabomatic::FabBackend</text>
<text text-anchor="middle" x="367" y="-276.75" font-family="Helvetica,sans-Serif" font-size="10.00">::publish</text>
</a>
</g>
</g>
<!-- Node1&#45;&gt;Node7 -->
<g id="edge15_Node000001_Node000007" class="edge">
<title>Node1&#45;&gt;Node7</title>
<g id="a_edge15_Node000001_Node000007"><a xlink:title=" ">
<path fill="none" stroke="#63b8ff" d="M74.61,-198.95C91.8,-216.34 122.07,-243.7 154,-257.25 198.95,-276.33 253.63,-283.46 296.2,-285.89"/>
<polygon fill="#63b8ff" stroke="#63b8ff" points="295.92,-289.38 306.08,-286.36 296.26,-282.38 295.92,-289.38"/>
</a>
</g>
</g>
<!-- Node8 -->
<g id="Node000008" class="node">
<title>Node8</title>
<g id="a_Node000008"><a xlink:href="classfabomatic_1_1_fab_backend.xhtml#ad558116614ee45601f4665d395838727" target="_top" xlink:title="Disconnects from the MQTT server.">
<polygon fill="white" stroke="#666666" points="426,-215.5 308,-215.5 308,-185 426,-185 426,-215.5"/>
<text text-anchor="start" x="316" y="-202" font-family="Helvetica,sans-Serif" font-size="10.00">fabomatic::FabBackend</text>
<text text-anchor="middle" x="367" y="-190.75" font-family="Helvetica,sans-Serif" font-size="10.00">::disconnect</text>
</a>
</g>
</g>
<!-- Node1&#45;&gt;Node8 -->
<g id="edge10_Node000001_Node000008" class="edge">
<title>Node1&#45;&gt;Node8</title>
<g id="a_edge10_Node000001_Node000008"><a xlink:title=" ">
<path fill="none" stroke="#63b8ff" d="M118.28,-186.49C169.03,-189.31 242.71,-193.4 296.52,-196.39"/>
<polygon fill="#63b8ff" stroke="#63b8ff" points="295.99,-199.87 306.17,-196.93 296.38,-192.88 295.99,-199.87"/>
</a>
</g>
</g>
<!-- Node9 -->
<g id="Node000009" class="node">
<title>Node9</title>
<g id="a_Node000009"><a xlink:href="classfabomatic_1_1_fab_backend.xhtml#ac80b4835d858bea27da461b18df5f570" target="_top" xlink:title=" ">
<polygon fill="white" stroke="#666666" points="272,-177.5 154,-177.5 154,-147 272,-147 272,-177.5"/>
<text text-anchor="start" x="162" y="-164" font-family="Helvetica,sans-Serif" font-size="10.00">fabomatic::FabBackend</text>
<text text-anchor="middle" x="213" y="-152.75" font-family="Helvetica,sans-Serif" font-size="10.00">::hasBufferedMsg</text>
</a>
</g>
</g>
<!-- Node1&#45;&gt;Node9 -->
<g id="edge12_Node000001_Node000009" class="edge">
<title>Node1&#45;&gt;Node9</title>
<g id="a_edge12_Node000001_Node000009"><a xlink:title=" ">
<path fill="none" stroke="#63b8ff" d="M118.33,-175.19C126.19,-174.11 134.3,-172.98 142.33,-171.88"/>
<polygon fill="#63b8ff" stroke="#63b8ff" points="142.65,-175.37 152.07,-170.53 141.69,-168.43 142.65,-175.37"/>
</a>
</g>
</g>
<!-- Node11 -->
<g id="Node000011" class="node">
<title>Node11</title>
<g id="a_Node000011"><a xlink:href="classfabomatic_1_1_fab_backend.xhtml#aef092e0e1db0c3539d5474fad2456255" target="_top" xlink:title="Checks if the client is online.">
<polygon fill="white" stroke="#666666" points="272,-128.5 154,-128.5 154,-98 272,-98 272,-128.5"/>
<text text-anchor="start" x="162" y="-115" font-family="Helvetica,sans-Serif" font-size="10.00">fabomatic::FabBackend</text>
<text text-anchor="middle" x="213" y="-103.75" font-family="Helvetica,sans-Serif" font-size="10.00">::isOnline</text>
</a>
</g>
</g>
<!-- Node1&#45;&gt;Node11 -->
<g id="edge14_Node000001_Node000011" class="edge">
<title>Node1&#45;&gt;Node11</title>
<g id="a_edge14_Node000001_Node000011"><a xlink:title=" ">
<path fill="none" stroke="#63b8ff" d="M92.05,-167.52C110.15,-158.73 133.25,-147.69 154,-138.25 157.5,-136.66 161.13,-135.03 164.79,-133.42"/>
<polygon fill="#63b8ff" stroke="#63b8ff" points="165.94,-136.73 173.7,-129.51 163.13,-130.32 165.94,-136.73"/>
</a>
</g>
</g>
<!-- Node12 -->
<g id="Node000012" class="node">
<title>Node12</title>
<g id="a_Node000012"><a xlink:href="classfabomatic_1_1_buffer.xhtml#aad578ef8cbecdafb8c5ade345df415a3" target="_top" xlink:title=" ">
<polygon fill="white" stroke="#666666" points="259.62,-79.5 166.38,-79.5 166.38,-49 259.62,-49 259.62,-79.5"/>
<text text-anchor="start" x="174.38" y="-66" font-family="Helvetica,sans-Serif" font-size="10.00">fabomatic::Buffer::</text>
<text text-anchor="middle" x="213" y="-54.75" font-family="Helvetica,sans-Serif" font-size="10.00">push_back</text>
</a>
</g>
</g>
<!-- Node1&#45;&gt;Node12 -->
<g id="edge16_Node000001_Node000012" class="edge">
<title>Node1&#45;&gt;Node12</title>
<g id="a_edge16_Node000001_Node000012"><a xlink:title=" ">
<path fill="none" stroke="#63b8ff" d="M72.24,-167.78C88.92,-147.53 120.58,-111.93 154,-89.25 156.06,-87.85 158.22,-86.5 160.43,-85.2"/>
<polygon fill="#63b8ff" stroke="#63b8ff" points="161.91,-88.38 169.08,-80.58 158.61,-82.21 161.91,-88.38"/>
</a>
</g>
</g>
<!-- Node13 -->
<g id="Node000013" class="node">
<title>Node13</title>
<g id="a_Node000013"><a xlink:href="classfabomatic_1_1_fab_backend.xhtml#a4d0b8d49942ff06c02abbcbfe7a4784a" target="_top" xlink:title=" ">
<polygon fill="white" stroke="#666666" points="272,-30.5 154,-30.5 154,0 272,0 272,-30.5"/>
<text text-anchor="start" x="162" y="-17" font-family="Helvetica,sans-Serif" font-size="10.00">fabomatic::FabBackend</text>
<text text-anchor="middle" x="213" y="-5.75" font-family="Helvetica,sans-Serif" font-size="10.00">::transmitBuffer</text>
</a>
</g>
</g>
<!-- Node1&#45;&gt;Node13 -->
<g id="edge17_Node000001_Node000013" class="edge">
<title>Node1&#45;&gt;Node13</title>
<g id="a_edge17_Node000001_Node000013"><a xlink:title=" ">
<path fill="none" stroke="#63b8ff" d="M66.49,-167.78C79.28,-139.02 110.3,-76.92 154,-40.25 155.44,-39.04 156.95,-37.88 158.52,-36.76"/>
<polygon fill="#63b8ff" stroke="#63b8ff" points="160,-39.96 166.65,-31.71 156.31,-34.02 160,-39.96"/>
</a>
</g>
</g>
<!-- Node3 -->
<g id="Node000003" class="node">
<title>Node3</title>
<g id="a_Node000003"><a xlink:href="classfabomatic_1_1_fab_backend.xhtml#ad928751b2f967feaac0f2cb708c0d6e9" target="_top" xlink:title="Connects to the WiFi network.">
<polygon fill="white" stroke="#666666" points="426,-436.5 308,-436.5 308,-406 426,-406 426,-436.5"/>
<text text-anchor="start" x="316" y="-423" font-family="Helvetica,sans-Serif" font-size="10.00">fabomatic::FabBackend</text>
<text text-anchor="middle" x="367" y="-411.75" font-family="Helvetica,sans-Serif" font-size="10.00">::connectWiFi</text>
</a>
</g>
</g>
<!-- Node2&#45;&gt;Node3 -->
<g id="edge2_Node000002_Node000003" class="edge">
<title>Node2&#45;&gt;Node3</title>
<g id="a_edge2_Node000002_Node000003"><a xlink:title=" ">
<path fill="none" stroke="#63b8ff" d="M238.42,-350.81C257.2,-362.59 283.94,-378.97 308,-392.25 312.99,-395 318.26,-397.8 323.53,-400.51"/>
<polygon fill="#63b8ff" stroke="#63b8ff" points="321.69,-403.51 332.2,-404.92 324.87,-397.27 321.69,-403.51"/>
</a>
</g>
</g>
<!-- Node2&#45;&gt;Node4 -->
<g id="edge6_Node000002_Node000004" class="edge">
<title>Node2&#45;&gt;Node4</title>
<g id="a_edge6_Node000002_Node000004"><a xlink:title=" ">
<path fill="none" stroke="#63b8ff" d="M264.76,-350.9C308.11,-361.93 371.87,-372.56 426,-359.25 451.73,-352.92 478.24,-338.13 496.45,-326.45"/>
<polygon fill="#63b8ff" stroke="#63b8ff" points="498.24,-329.46 504.64,-321.02 494.37,-323.63 498.24,-329.46"/>
</a>
</g>
</g>
<!-- Node6 -->
<g id="Node000006" class="node">
<title>Node6</title>
<g id="a_Node000006"><a xlink:href="classfabomatic_1_1_fab_backend.xhtml#a3ab102598ee93269de90a0170e024619" target="_top" xlink:title="Callback function for received MQTT messages.">
<polygon fill="white" stroke="#666666" points="426,-350.5 308,-350.5 308,-320 426,-320 426,-350.5"/>
<text text-anchor="start" x="316" y="-337" font-family="Helvetica,sans-Serif" font-size="10.00">fabomatic::FabBackend</text>
<text text-anchor="middle" x="367" y="-325.75" font-family="Helvetica,sans-Serif" font-size="10.00">::messageReceived</text>
</a>
</g>
</g>
<!-- Node2&#45;&gt;Node6 -->
<g id="edge7_Node000002_Node000006" class="edge">
<title>Node2&#45;&gt;Node6</title>
<g id="a_edge7_Node000002_Node000006"><a xlink:title=" ">
<path fill="none" stroke="#63b8ff" d="M272.33,-335.25C280.19,-335.25 288.3,-335.25 296.33,-335.25"/>
<polygon fill="#63b8ff" stroke="#63b8ff" points="296.06,-338.75 306.06,-335.25 296.06,-331.75 296.06,-338.75"/>
</a>
</g>
</g>
<!-- Node2&#45;&gt;Node7 -->
<g id="edge8_Node000002_Node000007" class="edge">
<title>Node2&#45;&gt;Node7</title>
<g id="a_edge8_Node000002_Node000007"><a xlink:title=" ">
<path fill="none" stroke="#63b8ff" d="M262.51,-319.61C276.43,-315.13 291.77,-310.18 306.27,-305.5"/>
<polygon fill="#63b8ff" stroke="#63b8ff" points="307.28,-308.86 315.73,-302.46 305.13,-302.19 307.28,-308.86"/>
</a>
</g>
</g>
<!-- Node3&#45;&gt;Node4 -->
<g id="edge3_Node000003_Node000004" class="edge">
<title>Node3&#45;&gt;Node4</title>
<g id="a_edge3_Node000003_Node000004"><a xlink:title=" ">
<path fill="none" stroke="#63b8ff" d="M402.86,-405.63C410.69,-401.63 418.8,-397.08 426,-392.25 454.67,-372.99 484.04,-345.81 502.06,-328.11"/>
<polygon fill="#63b8ff" stroke="#63b8ff" points="504.25,-330.87 508.86,-321.33 499.31,-325.91 504.25,-330.87"/>
</a>
</g>
</g>
<!-- Node4&#45;&gt;Node4 -->
<g id="edge5_Node000004_Node000004" class="edge">
<title>Node4&#45;&gt;Node4</title>
<g id="a_edge5_Node000004_Node000004"><a xlink:title=" ">
<path fill="none" stroke="#63b8ff" d="M496.57,-320.16C485.6,-328.77 493.62,-337.88 520.62,-337.88 535.81,-337.88 545,-334.99 548.17,-330.94"/>
<polygon fill="#63b8ff" stroke="#63b8ff" points="551.56,-330.04 545.14,-321.6 544.9,-332.19 551.56,-330.04"/>
</a>
</g>
</g>
<!-- Node5 -->
<g id="Node000005" class="node">
<title>Node5</title>
<g id="a_Node000005"><a xlink:href="namespacefabomatic_1_1_tasks.xhtml#adc67d1313c6695d813feb935eafdaf60" target="_top" xlink:title=" ">
<polygon fill="white" stroke="#666666" points="761.75,-319.88 615.25,-319.88 615.25,-300.62 761.75,-300.62 761.75,-319.88"/>
<text text-anchor="middle" x="688.5" y="-306.38" font-family="Helvetica,sans-Serif" font-size="10.00">fabomatic::Tasks::arduinoNow</text>
</a>
</g>
</g>
<!-- Node4&#45;&gt;Node5 -->
<g id="edge4_Node000004_Node000005" class="edge">
<title>Node4&#45;&gt;Node5</title>
<g id="a_edge4_Node000004_Node000005"><a xlink:title=" ">
<path fill="none" stroke="#63b8ff" d="M579.64,-310.25C587.39,-310.25 595.45,-310.25 603.53,-310.25"/>
<polygon fill="#63b8ff" stroke="#63b8ff" points="603.42,-313.75 613.42,-310.25 603.42,-306.75 603.42,-313.75"/>
</a>
</g>
</g>
<!-- Node8&#45;&gt;Node4 -->
<g id="edge11_Node000008_Node000004" class="edge">
<title>Node8&#45;&gt;Node4</title>
<g id="a_edge11_Node000008_Node000004"><a xlink:title=" ">
<path fill="none" stroke="#63b8ff" d="M402.84,-215.9C410.67,-219.9 418.79,-224.44 426,-229.25 454.58,-248.32 483.97,-275.15 502.02,-292.62"/>
<polygon fill="#63b8ff" stroke="#63b8ff" points="499.24,-294.8 508.83,-299.31 504.15,-289.81 499.24,-294.8"/>
</a>
</g>
</g>
<!-- Node10 -->
<g id="Node000010" class="node">
<title>Node10</title>
<g id="a_Node000010"><a xlink:href="classfabomatic_1_1_buffer.xhtml#a9ff239a0ddbaed54bcf0a72f2517d7a0" target="_top" xlink:title=" ">
<polygon fill="white" stroke="#666666" points="413.62,-166.5 320.38,-166.5 320.38,-136 413.62,-136 413.62,-166.5"/>
<text text-anchor="start" x="328.38" y="-153" font-family="Helvetica,sans-Serif" font-size="10.00">fabomatic::Buffer::</text>
<text text-anchor="middle" x="367" y="-141.75" font-family="Helvetica,sans-Serif" font-size="10.00">count</text>
</a>
</g>
</g>
<!-- Node9&#45;&gt;Node10 -->
<g id="edge13_Node000009_Node000010" class="edge">
<title>Node9&#45;&gt;Node10</title>
<g id="a_edge13_Node000009_Node000010"><a xlink:title=" ">
<path fill="none" stroke="#63b8ff" d="M272.33,-158.03C284.39,-157.16 297.07,-156.24 309.07,-155.37"/>
<polygon fill="#63b8ff" stroke="#63b8ff" points="309.1,-158.88 318.82,-154.66 308.59,-151.9 309.1,-158.88"/>
</a>
</g>
</g>
</g>
</svg>

<g id="navigator" transform="translate(0 0)" fill="#404254">
  <rect fill="#f2f5e9" fill-opacity="0.5" stroke="#606060" stroke-width=".5" x="0" y="0" width="60" height="60"/>
  <use id="zoomplus" xlink:href="#zoomPlus" x="17" y="9" onmousedown="handleZoom(evt,'in')"/>
  <use id="zoomminus" xlink:href="#zoomMin" x="42" y="9" onmousedown="handleZoom(evt,'out')"/>
  <use id="reset" xlink:href="#resetDef" x="30" y="36" onmousedown="handleReset()"/>
   <use id="arrowup" xlink:href="#arrowUp" x="0" y="0" onmousedown="handlePan(0,-1)"/>
  <use id="arrowright" xlink:href="#arrowRight" x="0" y="0" onmousedown="handlePan(1,0)"/>
  <use id="arrowdown" xlink:href="#arrowDown" x="0" y="0" onmousedown="handlePan(0,1)"/>
  <use id="arrowleft" xlink:href="#arrowLeft" x="0" y="0" onmousedown="handlePan(-1,0)"/>
</g>
<svg viewBox="0 0 15 15" width="100%" height="30px" preserveAspectRatio="xMaxYMin meet">
 <g id="arrow_out" transform="scale(0.3 0.3)">
  <a xlink:href="classfabomatic_1_1_fab_backend_adc71dbb44c3446fa985744ad4563faeb_cgraph_org.svg" target="_base">
   <rect id="button" ry="5" rx="5" y="6" x="6" height="38" width="38"
        fill="#f2f5e9" fill-opacity="0.5" stroke="#606060" stroke-width="1.0"/>
   <path id="arrow"
     d="M 11.500037,31.436501 C 11.940474,20.09759 22.043105,11.32322 32.158766,21.979434 L 37.068811,17.246167 C 37.068811,17.246167 37.088388,32 37.088388,32 L 22.160133,31.978069 C 22.160133,31.978069 26.997745,27.140456 26.997745,27.140456 C 18.528582,18.264221 13.291696,25.230495 11.500037,31.436501 z"
     style="fill:#404040;"/>
  </a>
 </g>
</svg>

<style type='text/css'>
<![CDATA[
[data-mouse-over-selected='false'] { opacity: 0.7; }
[data-mouse-over-selected='true']  { opacity: 1.0; }
]]>
</style>
<script type="application/ecmascript"><![CDATA[
document.addEventListener('DOMContentLoaded', (event) => {
  highlightEdges();
  highlightAdjacentNodes();
});
]]></script>
</svg>
