<?xml version="1.0" encoding="UTF-8" standalone="no"?>
<!DOCTYPE svg PUBLIC "-//W3C//DTD SVG 1.1//EN"
 "http://www.w3.org/Graphics/SVG/1.1/DTD/svg11.dtd">
<!-- Generated by graphviz version 9.0.0 (20230911.1827)
 -->
<!-- Title: fabomatic::LCDWrapper::setRow Pages: 1 -->
<svg width="1295pt" height="332pt"
 viewBox="0.00 0.00 1295.00 332.25" xmlns="http://www.w3.org/2000/svg" xmlns:xlink="http://www.w3.org/1999/xlink">
<g id="graph0" class="graph" transform="scale(1 1) rotate(0) translate(4 328.25)">
<title>fabomatic::LCDWrapper::setRow</title>
<!-- Node1 -->
<g id="Node000001" class="node">
<title>Node1</title>
<g id="a_Node000001"><a xlink:title=" ">
<polygon fill="#999999" stroke="#666666" points="1287,-36.25 1168.25,-36.25 1168.25,-5.75 1287,-5.75 1287,-36.25"/>
<text text-anchor="start" x="1176.25" y="-22.75" font-family="Helvetica,sans-Serif" font-size="10.00">fabomatic::LCDWrapper</text>
<text text-anchor="middle" x="1227.62" y="-11.5" font-family="Helvetica,sans-Serif" font-size="10.00">::setRow</text>
</a>
</g>
</g>
<!-- Node2 -->
<g id="Node000002" class="node">
<title>Node2</title>
<g id="a_Node000002"><a xlink:href="classfabomatic_1_1_board_logic.xhtml#a420a0d05a91a02c27ad3b63a030738a0" target="_top" xlink:title="Asks the user to keep the RFID tag on the reader as confirmation.">
<polygon fill="white" stroke="#666666" points="1132.25,-36.25 1019.5,-36.25 1019.5,-5.75 1132.25,-5.75 1132.25,-36.25"/>
<text text-anchor="start" x="1027.5" y="-22.75" font-family="Helvetica,sans-Serif" font-size="10.00">fabomatic::BoardLogic</text>
<text text-anchor="middle" x="1075.88" y="-11.5" font-family="Helvetica,sans-Serif" font-size="10.00">::longTap</text>
</a>
</g>
</g>
<!-- Node1&#45;&gt;Node2 -->
<g id="edge1_Node000001_Node000002" class="edge">
<title>Node1&#45;&gt;Node2</title>
<g id="a_edge1_Node000001_Node000002"><a xlink:title=" ">
<path fill="none" stroke="#63b8ff" d="M1156.56,-21C1148.5,-21 1140.36,-21 1132.52,-21"/>
<polygon fill="#63b8ff" stroke="#63b8ff" points="1156.36,-24.5 1166.36,-21 1156.36,-17.5 1156.36,-24.5"/>
</a>
</g>
</g>
<!-- Node3 -->
<g id="Node000003" class="node">
<title>Node3</title>
<g id="a_Node000003"><a xlink:href="classfabomatic_1_1_board_logic.xhtml#a51390e6bf10c4de427abd7f175a2e6a8" target="_top" xlink:title="Checks if the card UID is valid, and tries to check the user in to the machine.">
<polygon fill="white" stroke="#666666" points="983.5,-36.25 870.75,-36.25 870.75,-5.75 983.5,-5.75 983.5,-36.25"/>
<text text-anchor="start" x="878.75" y="-22.75" font-family="Helvetica,sans-Serif" font-size="10.00">fabomatic::BoardLogic</text>
<text text-anchor="middle" x="927.12" y="-11.5" font-family="Helvetica,sans-Serif" font-size="10.00">::authorize</text>
</a>
</g>
</g>
<!-- Node2&#45;&gt;Node3 -->
<g id="edge2_Node000002_Node000003" class="edge">
<title>Node2&#45;&gt;Node3</title>
<g id="a_edge2_Node000002_Node000003"><a xlink:title=" ">
<path fill="none" stroke="#63b8ff" d="M1008.01,-21C999.87,-21 991.63,-21 983.68,-21"/>
<polygon fill="#63b8ff" stroke="#63b8ff" points="1007.88,-24.5 1017.88,-21 1007.88,-17.5 1007.88,-24.5"/>
</a>
</g>
</g>
<!-- Node4 -->
<g id="Node000004" class="node">
<title>Node4</title>
<g id="a_Node000004"><a xlink:href="classfabomatic_1_1_board_logic.xhtml#a983c8de8b9c8881fc0a4e60dddc7f0c6" target="_top" xlink:title="Called when a RFID tag has been detected.">
<polygon fill="white" stroke="#666666" points="834.75,-112.25 722,-112.25 722,-81.75 834.75,-81.75 834.75,-112.25"/>
<text text-anchor="start" x="730" y="-98.75" font-family="Helvetica,sans-Serif" font-size="10.00">fabomatic::BoardLogic</text>
<text text-anchor="middle" x="778.38" y="-87.5" font-family="Helvetica,sans-Serif" font-size="10.00">::onNewCard</text>
</a>
</g>
</g>
<!-- Node3&#45;&gt;Node4 -->
<g id="edge3_Node000003_Node000004" class="edge">
<title>Node3&#45;&gt;Node4</title>
<g id="a_edge3_Node000003_Node000004"><a xlink:title=" ">
<path fill="none" stroke="#63b8ff" d="M885.5,-42.04C861.52,-54.46 831.67,-69.92 809.74,-81.27"/>
<polygon fill="#63b8ff" stroke="#63b8ff" points="887.1,-45.15 894.37,-37.44 883.88,-38.93 887.1,-45.15"/>
</a>
</g>
</g>
<!-- Node13 -->
<g id="Node000013" class="node">
<title>Node13</title>
<g id="a_Node000013"><a xlink:href="namespacefabomatic_1_1tests.xhtml#aab0f4e1439b281ffef8be51db9a81f9d" target="_top" xlink:title=" ">
<polygon fill="white" stroke="#666666" points="191.75,-85.25 79,-85.25 79,-54.75 191.75,-54.75 191.75,-85.25"/>
<text text-anchor="start" x="87" y="-71.75" font-family="Helvetica,sans-Serif" font-size="10.00">fabomatic::tests::test</text>
<text text-anchor="middle" x="135.38" y="-60.5" font-family="Helvetica,sans-Serif" font-size="10.00">_whitelist_no_network</text>
</a>
</g>
</g>
<!-- Node3&#45;&gt;Node13 -->
<g id="edge27_Node000003_Node000013" class="edge">
<title>Node3&#45;&gt;Node13</title>
<g id="a_edge27_Node000003_Node000013"><a xlink:title=" ">
<path fill="none" stroke="#63b8ff" d="M859.2,-13.52C799.37,-7.49 709.26,0 630.62,0 630.62,0 630.62,0 473.12,0 367.13,0 246.23,-33.65 182.05,-54.29"/>
<polygon fill="#63b8ff" stroke="#63b8ff" points="858.57,-16.98 868.88,-14.52 859.29,-10.01 858.57,-16.98"/>
</a>
</g>
</g>
<!-- Node5 -->
<g id="Node000005" class="node">
<title>Node5</title>
<g id="a_Node000005"><a xlink:href="classfabomatic_1_1_board_logic.xhtml#a25bdc3a49d850aa49f92faf951b68efb" target="_top" xlink:title="Checks if a new card is present.">
<polygon fill="white" stroke="#666666" points="686,-167.25 573.25,-167.25 573.25,-136.75 686,-136.75 686,-167.25"/>
<text text-anchor="start" x="581.25" y="-153.75" font-family="Helvetica,sans-Serif" font-size="10.00">fabomatic::BoardLogic</text>
<text text-anchor="middle" x="629.62" y="-142.5" font-family="Helvetica,sans-Serif" font-size="10.00">::checkRfid</text>
</a>
</g>
</g>
<!-- Node4&#45;&gt;Node5 -->
<g id="edge4_Node000004_Node000005" class="edge">
<title>Node4&#45;&gt;Node5</title>
<g id="a_edge4_Node000004_Node000005"><a xlink:title=" ">
<path fill="none" stroke="#63b8ff" d="M725.24,-116.54C707.99,-123 689.03,-130.11 672.64,-136.25"/>
<polygon fill="#63b8ff" stroke="#63b8ff" points="726.16,-119.93 734.3,-113.14 723.71,-113.38 726.16,-119.93"/>
</a>
</g>
</g>
<!-- Node6 -->
<g id="Node000006" class="node">
<title>Node6</title>
<g id="a_Node000006"><a xlink:href="namespacefabomatic_1_1tests.xhtml#a2600320f41c9fa343c66058ecb12b5ee" target="_top" xlink:title="Simulates RFID card tap.">
<polygon fill="white" stroke="#666666" points="537.25,-167.25 411,-167.25 411,-136.75 537.25,-136.75 537.25,-167.25"/>
<text text-anchor="start" x="419" y="-153.75" font-family="Helvetica,sans-Serif" font-size="10.00">fabomatic::tests::simulate</text>
<text text-anchor="middle" x="474.12" y="-142.5" font-family="Helvetica,sans-Serif" font-size="10.00">_rfid_card</text>
</a>
</g>
</g>
<!-- Node5&#45;&gt;Node6 -->
<g id="edge5_Node000005_Node000006" class="edge">
<title>Node5&#45;&gt;Node6</title>
<g id="a_edge5_Node000005_Node000006"><a xlink:title=" ">
<path fill="none" stroke="#63b8ff" d="M561.38,-152C553.5,-152 545.49,-152 537.69,-152"/>
<polygon fill="#63b8ff" stroke="#63b8ff" points="561.26,-155.5 571.26,-152 561.26,-148.5 561.26,-155.5"/>
</a>
</g>
</g>
<!-- Node5&#45;&gt;Node13 -->
<g id="edge26_Node000005_Node000013" class="edge">
<title>Node5&#45;&gt;Node13</title>
<g id="a_edge26_Node000005_Node000013"><a xlink:title=" ">
<path fill="none" stroke="#63b8ff" d="M562.16,-134.42C553.78,-132.24 545.32,-130.05 537.25,-128 465.28,-109.68 448.34,-99.72 375,-88 312.85,-78.07 240.69,-73.59 192.13,-71.58"/>
<polygon fill="#63b8ff" stroke="#63b8ff" points="561.07,-137.75 571.63,-136.89 562.83,-130.98 561.07,-137.75"/>
</a>
</g>
</g>
<!-- Node15 -->
<g id="Node000015" class="node">
<title>Node15</title>
<g id="a_Node000015"><a xlink:href="namespacefabomatic.xhtml#a3e5c190499522bddad3f3cc69274f16c" target="_top" xlink:title="periodic check for new RFID card">
<polygon fill="white" stroke="#666666" points="537.25,-253.62 411,-253.62 411,-234.38 537.25,-234.38 537.25,-253.62"/>
<text text-anchor="middle" x="474.12" y="-240.12" font-family="Helvetica,sans-Serif" font-size="10.00">fabomatic::taskCheckRfid</text>
</a>
</g>
</g>
<!-- Node5&#45;&gt;Node15 -->
<g id="edge24_Node000005_Node000015" class="edge">
<title>Node5&#45;&gt;Node15</title>
<g id="a_edge24_Node000005_Node000015"><a xlink:title=" ">
<path fill="none" stroke="#63b8ff" d="M604.7,-175.33C587.24,-191.25 562.33,-211.77 537.25,-225 530.67,-228.47 523.35,-231.42 516.11,-233.88"/>
<polygon fill="#63b8ff" stroke="#63b8ff" points="607.08,-177.9 612.01,-168.52 602.31,-172.78 607.08,-177.9"/>
</a>
</g>
</g>
<!-- Node16 -->
<g id="Node000016" class="node">
<title>Node16</title>
<g id="a_Node000016"><a xlink:href="namespacefabomatic_1_1tests.xhtml#a294b4767ecf1e1d11cc31dafb2541d23" target="_top" xlink:title="periodic check for new RFID card">
<polygon fill="white" stroke="#666666" points="527.12,-216.25 421.12,-216.25 421.12,-185.75 527.12,-185.75 527.12,-216.25"/>
<text text-anchor="start" x="429.12" y="-202.75" font-family="Helvetica,sans-Serif" font-size="10.00">fabomatic::tests::test</text>
<text text-anchor="middle" x="474.12" y="-191.5" font-family="Helvetica,sans-Serif" font-size="10.00">_taskCheckRfid</text>
</a>
</g>
</g>
<!-- Node5&#45;&gt;Node16 -->
<g id="edge25_Node000005_Node000016" class="edge">
<title>Node5&#45;&gt;Node16</title>
<g id="a_edge25_Node000005_Node000016"><a xlink:title=" ">
<path fill="none" stroke="#63b8ff" d="M569.08,-171.01C554.31,-175.72 538.65,-180.72 524.44,-185.26"/>
<polygon fill="#63b8ff" stroke="#63b8ff" points="569.73,-174.47 578.19,-168.1 567.6,-167.81 569.73,-174.47"/>
</a>
</g>
</g>
<!-- Node7 -->
<g id="Node000007" class="node">
<title>Node7</title>
<g id="a_Node000007"><a xlink:href="namespacefabomatic_1_1tests.xhtml#a6a7645a865dc822746f972ea6f43224d" target="_top" xlink:title="Resets machine to initial state, clearing flags.">
<polygon fill="white" stroke="#666666" points="375,-199.62 230.75,-199.62 230.75,-180.38 375,-180.38 375,-199.62"/>
<text text-anchor="middle" x="302.88" y="-186.12" font-family="Helvetica,sans-Serif" font-size="10.00">fabomatic::tests::machine_init</text>
</a>
</g>
</g>
<!-- Node6&#45;&gt;Node7 -->
<g id="edge6_Node000006_Node000007" class="edge">
<title>Node6&#45;&gt;Node7</title>
<g id="a_edge6_Node000006_Node000007"><a xlink:title=" ">
<path fill="none" stroke="#63b8ff" d="M399.37,-168.56C382.12,-172.43 364.26,-176.44 348.72,-179.93"/>
<polygon fill="#63b8ff" stroke="#63b8ff" points="400.12,-171.98 409.11,-166.37 398.58,-165.15 400.12,-171.98"/>
</a>
</g>
</g>
<!-- Node8 -->
<g id="Node000008" class="node">
<title>Node8</title>
<g id="a_Node000008"><a xlink:href="namespacefabomatic_1_1tests.xhtml#a558e2287db01a4622581246a19dac397" target="_top" xlink:title=" ">
<polygon fill="white" stroke="#666666" points="188.38,-232.25 82.38,-232.25 82.38,-201.75 188.38,-201.75 188.38,-232.25"/>
<text text-anchor="start" x="90.38" y="-218.75" font-family="Helvetica,sans-Serif" font-size="10.00">fabomatic::tests::test</text>
<text text-anchor="middle" x="135.38" y="-207.5" font-family="Helvetica,sans-Serif" font-size="10.00">_machine_allowed</text>
</a>
</g>
</g>
<!-- Node6&#45;&gt;Node8 -->
<g id="edge17_Node000006_Node000008" class="edge">
<title>Node6&#45;&gt;Node8</title>
<g id="a_edge17_Node000006_Node000008"><a xlink:title=" ">
<path fill="none" stroke="#63b8ff" d="M418.54,-172.68C415.95,-174.06 413.42,-175.5 411,-177 392.8,-188.27 394.88,-201.06 375,-209 314.57,-233.14 238.51,-230.68 188.72,-225.17"/>
<polygon fill="#63b8ff" stroke="#63b8ff" points="419.96,-175.88 427.39,-168.32 416.88,-169.59 419.96,-175.88"/>
</a>
</g>
</g>
<!-- Node10 -->
<g id="Node000010" class="node">
<title>Node10</title>
<g id="a_Node000010"><a xlink:href="namespacefabomatic_1_1tests.xhtml#a9a34631c2dc01cbdbbce146895c94e12" target="_top" xlink:title=" ">
<polygon fill="white" stroke="#666666" points="194.75,-183.25 76,-183.25 76,-152.75 194.75,-152.75 194.75,-183.25"/>
<text text-anchor="start" x="84" y="-169.75" font-family="Helvetica,sans-Serif" font-size="10.00">fabomatic::tests::test</text>
<text text-anchor="middle" x="135.38" y="-158.5" font-family="Helvetica,sans-Serif" font-size="10.00">_machine_maintenance</text>
</a>
</g>
</g>
<!-- Node6&#45;&gt;Node10 -->
<g id="edge18_Node000006_Node000010" class="edge">
<title>Node6&#45;&gt;Node10</title>
<g id="a_edge18_Node000006_Node000010"><a xlink:title=" ">
<path fill="none" stroke="#63b8ff" d="M399.43,-155.5C338.11,-158.41 251.98,-162.51 195.21,-165.2"/>
<polygon fill="#63b8ff" stroke="#63b8ff" points="399.24,-159.01 409.06,-155.04 398.91,-152.02 399.24,-159.01"/>
</a>
</g>
</g>
<!-- Node11 -->
<g id="Node000011" class="node">
<title>Node11</title>
<g id="a_Node000011"><a xlink:href="namespacefabomatic_1_1tests.xhtml#a6f3dff17fd964aba76c35c514957a0a5" target="_top" xlink:title=" ">
<polygon fill="white" stroke="#666666" points="189.88,-134.25 80.88,-134.25 80.88,-103.75 189.88,-103.75 189.88,-134.25"/>
<text text-anchor="start" x="88.88" y="-120.75" font-family="Helvetica,sans-Serif" font-size="10.00">fabomatic::tests::test</text>
<text text-anchor="middle" x="135.38" y="-109.5" font-family="Helvetica,sans-Serif" font-size="10.00">_one_user_at_a_time</text>
</a>
</g>
</g>
<!-- Node6&#45;&gt;Node11 -->
<g id="edge21_Node000006_Node000011" class="edge">
<title>Node6&#45;&gt;Node11</title>
<g id="a_edge21_Node000006_Node000011"><a xlink:title=" ">
<path fill="none" stroke="#63b8ff" d="M399.5,-144.79C336.37,-138.6 246.9,-129.83 190.26,-124.28"/>
<polygon fill="#63b8ff" stroke="#63b8ff" points="398.77,-148.23 409.07,-145.72 399.46,-141.26 398.77,-148.23"/>
</a>
</g>
</g>
<!-- Node12 -->
<g id="Node000012" class="node">
<title>Node12</title>
<g id="a_Node000012"><a xlink:href="namespacefabomatic_1_1tests.xhtml#afa92fef9250d918ee02c79dbf2de2546" target="_top" xlink:title=" ">
<polygon fill="white" stroke="#666666" points="188.38,-281.25 82.38,-281.25 82.38,-250.75 188.38,-250.75 188.38,-281.25"/>
<text text-anchor="start" x="90.38" y="-267.75" font-family="Helvetica,sans-Serif" font-size="10.00">fabomatic::tests::test</text>
<text text-anchor="middle" x="135.38" y="-256.5" font-family="Helvetica,sans-Serif" font-size="10.00">_user_autologoff</text>
</a>
</g>
</g>
<!-- Node6&#45;&gt;Node12 -->
<g id="edge22_Node000006_Node000012" class="edge">
<title>Node6&#45;&gt;Node12</title>
<g id="a_edge22_Node000006_Node000012"><a xlink:title=" ">
<path fill="none" stroke="#63b8ff" d="M415.62,-173.49C414.02,-174.61 412.48,-175.78 411,-177 388.2,-195.86 399.94,-217.07 375,-233 318.78,-268.91 239.99,-272.88 188.57,-270.78"/>
<polygon fill="#63b8ff" stroke="#63b8ff" points="417.22,-176.61 423.96,-168.43 413.59,-170.63 417.22,-176.61"/>
</a>
</g>
</g>
<!-- Node6&#45;&gt;Node13 -->
<g id="edge23_Node000006_Node000013" class="edge">
<title>Node6&#45;&gt;Node13</title>
<g id="a_edge23_Node000006_Node000013"><a xlink:title=" ">
<path fill="none" stroke="#63b8ff" d="M406.78,-133.34C396.17,-130.47 385.3,-127.6 375,-125 312.55,-109.22 240.45,-92.85 191.98,-82.12"/>
<polygon fill="#63b8ff" stroke="#63b8ff" points="405.68,-136.67 416.25,-135.92 407.52,-129.91 405.68,-136.67"/>
</a>
</g>
</g>
<!-- Node14 -->
<g id="Node000014" class="node">
<title>Node14</title>
<g id="a_Node000014"><a xlink:href="namespacefabomatic_1_1tests.xhtml#af8fa7ace86309b5f699540d8898660c7" target="_top" xlink:title=" ">
<polygon fill="white" stroke="#666666" points="355.88,-324.25 249.88,-324.25 249.88,-293.75 355.88,-293.75 355.88,-324.25"/>
<text text-anchor="start" x="257.88" y="-310.75" font-family="Helvetica,sans-Serif" font-size="10.00">fabomatic::tests::test</text>
<text text-anchor="middle" x="302.88" y="-299.5" font-family="Helvetica,sans-Serif" font-size="10.00">_messages_buffered</text>
</a>
</g>
</g>
<!-- Node6&#45;&gt;Node14 -->
<g id="edge19_Node000006_Node000014" class="edge">
<title>Node6&#45;&gt;Node14</title>
<g id="a_edge19_Node000006_Node000014"><a xlink:title=" ">
<path fill="none" stroke="#63b8ff" d="M413.7,-174.38C412.76,-175.22 411.86,-176.1 411,-177 377.51,-212.08 408.41,-244.85 375,-280 369.67,-285.61 363.11,-290.16 356.14,-293.85"/>
<polygon fill="#63b8ff" stroke="#63b8ff" points="415.67,-177.28 421.62,-168.51 411.5,-171.65 415.67,-177.28"/>
</a>
</g>
</g>
<!-- Node7&#45;&gt;Node8 -->
<g id="edge7_Node000007_Node000008" class="edge">
<title>Node7&#45;&gt;Node8</title>
<g id="a_edge7_Node000007_Node000008"><a xlink:title=" ">
<path fill="none" stroke="#63b8ff" d="M229,-201.89C215.48,-204.1 201.59,-206.36 188.83,-208.44"/>
<polygon fill="#63b8ff" stroke="#63b8ff" points="229.45,-205.36 238.76,-200.3 228.32,-198.45 229.45,-205.36"/>
</a>
</g>
</g>
<!-- Node7&#45;&gt;Node10 -->
<g id="edge9_Node000007_Node000010" class="edge">
<title>Node7&#45;&gt;Node10</title>
<g id="a_edge9_Node000007_Node000010"><a xlink:title=" ">
<path fill="none" stroke="#63b8ff" d="M219.49,-179.05C211.23,-177.95 202.96,-176.85 195.02,-175.8"/>
<polygon fill="#63b8ff" stroke="#63b8ff" points="218.85,-182.49 229.23,-180.34 219.78,-175.56 218.85,-182.49"/>
</a>
</g>
</g>
<!-- Node7&#45;&gt;Node11 -->
<g id="edge11_Node000007_Node000011" class="edge">
<title>Node7&#45;&gt;Node11</title>
<g id="a_edge11_Node000007_Node000011"><a xlink:title=" ">
<path fill="none" stroke="#63b8ff" d="M268.1,-175.49C247.02,-166.43 219.3,-154.53 194.75,-144 187.76,-141 180.3,-137.8 173.12,-134.73"/>
<polygon fill="#63b8ff" stroke="#63b8ff" points="266.51,-178.61 277.08,-179.35 269.28,-172.18 266.51,-178.61"/>
</a>
</g>
</g>
<!-- Node7&#45;&gt;Node12 -->
<g id="edge13_Node000007_Node000012" class="edge">
<title>Node7&#45;&gt;Node12</title>
<g id="a_edge13_Node000007_Node000012"><a xlink:title=" ">
<path fill="none" stroke="#63b8ff" d="M271.36,-204.92C250.01,-215.27 220.76,-229.24 194.75,-241 187.92,-244.09 180.6,-247.3 173.53,-250.35"/>
<polygon fill="#63b8ff" stroke="#63b8ff" points="272.63,-208.2 280.09,-200.68 269.57,-201.9 272.63,-208.2"/>
</a>
</g>
</g>
<!-- Node7&#45;&gt;Node13 -->
<g id="edge15_Node000007_Node000013" class="edge">
<title>Node7&#45;&gt;Node13</title>
<g id="a_edge15_Node000007_Node000013"><a xlink:title=" ">
<path fill="none" stroke="#63b8ff" d="M284.84,-171.69C264.82,-150.98 229.86,-117.26 194.75,-95 189.44,-91.64 183.6,-88.53 177.74,-85.73"/>
<polygon fill="#63b8ff" stroke="#63b8ff" points="282.22,-174.02 291.65,-178.85 287.29,-169.19 282.22,-174.02"/>
</a>
</g>
</g>
<!-- Node9 -->
<g id="Node000009" class="node">
<title>Node9</title>
<g id="a_Node000009"><a xlink:href="test__logic_8cpp.xhtml#a4fc01d736fe50cf5b977f755b675f11d" target="_top" xlink:title=" ">
<polygon fill="white" stroke="#666666" points="40,-201.62 0,-201.62 0,-182.38 40,-182.38 40,-201.62"/>
<text text-anchor="middle" x="20" y="-188.12" font-family="Helvetica,sans-Serif" font-size="10.00">setup</text>
</a>
</g>
</g>
<!-- Node8&#45;&gt;Node9 -->
<g id="edge8_Node000008_Node000009" class="edge">
<title>Node8&#45;&gt;Node9</title>
<g id="a_edge8_Node000008_Node000009"><a xlink:title=" ">
<path fill="none" stroke="#63b8ff" d="M70.85,-202.99C59.76,-200.55 49.01,-198.18 40.36,-196.27"/>
<polygon fill="#63b8ff" stroke="#63b8ff" points="70,-206.39 80.52,-205.13 71.51,-199.55 70,-206.39"/>
</a>
</g>
</g>
<!-- Node10&#45;&gt;Node9 -->
<g id="edge10_Node000010_Node000009" class="edge">
<title>Node10&#45;&gt;Node9</title>
<g id="a_edge10_Node000010_Node000009"><a xlink:title=" ">
<path fill="none" stroke="#63b8ff" d="M64.44,-182.8C55.69,-184.66 47.39,-186.41 40.43,-187.89"/>
<polygon fill="#63b8ff" stroke="#63b8ff" points="65.16,-186.23 74.21,-180.74 63.71,-179.38 65.16,-186.23"/>
</a>
</g>
</g>
<!-- Node11&#45;&gt;Node9 -->
<g id="edge12_Node000011_Node000009" class="edge">
<title>Node11&#45;&gt;Node9</title>
<g id="a_edge12_Node000011_Node000009"><a xlink:title=" ">
<path fill="none" stroke="#63b8ff" d="M83.1,-139.84C80.66,-141.18 78.28,-142.56 76,-144 58.4,-155.06 40.78,-171.65 30.39,-182.14"/>
<polygon fill="#63b8ff" stroke="#63b8ff" points="84.67,-142.96 92,-135.31 81.5,-136.73 84.67,-142.96"/>
</a>
</g>
</g>
<!-- Node12&#45;&gt;Node9 -->
<g id="edge14_Node000012_Node000009" class="edge">
<title>Node12&#45;&gt;Node9</title>
<g id="a_edge14_Node000012_Node000009"><a xlink:title=" ">
<path fill="none" stroke="#63b8ff" d="M82.96,-245.12C80.57,-243.8 78.24,-242.42 76,-241 58.3,-229.75 40.71,-212.8 30.35,-202.08"/>
<polygon fill="#63b8ff" stroke="#63b8ff" points="81.17,-248.14 91.66,-249.59 84.36,-241.91 81.17,-248.14"/>
</a>
</g>
</g>
<!-- Node13&#45;&gt;Node9 -->
<g id="edge16_Node000013_Node000009" class="edge">
<title>Node13&#45;&gt;Node9</title>
<g id="a_edge16_Node000013_Node000009"><a xlink:title=" ">
<path fill="none" stroke="#63b8ff" d="M79.85,-91.82C78.52,-92.84 77.23,-93.9 76,-95 48.01,-120.04 30.86,-162.83 24.19,-182.09"/>
<polygon fill="#63b8ff" stroke="#63b8ff" points="81.48,-94.94 87.93,-86.53 77.65,-89.08 81.48,-94.94"/>
</a>
</g>
</g>
<!-- Node14&#45;&gt;Node9 -->
<g id="edge20_Node000014_Node000009" class="edge">
<title>Node14&#45;&gt;Node9</title>
<g id="a_edge20_Node000014_Node000009"><a xlink:title=" ">
<path fill="none" stroke="#63b8ff" d="M238.26,-318.8C189.98,-322.86 123.95,-320.85 76,-290 43.68,-269.21 28.53,-222.38 23.27,-201.9"/>
<polygon fill="#63b8ff" stroke="#63b8ff" points="238.38,-322.31 248,-317.87 237.71,-315.34 238.38,-322.31"/>
</a>
</g>
</g>
</g>
</svg>
