<?xml version="1.0" encoding="UTF-8" standalone="no"?>
<!DOCTYPE svg PUBLIC "-//W3C//DTD SVG 1.1//EN"
 "http://www.w3.org/Graphics/SVG/1.1/DTD/svg11.dtd">
<!-- Generated by graphviz version 9.0.0 (20230911.1827)
 -->
<!-- Title: fabomatic::MQTT::Response Pages: 1 -->
<svg width="141pt" height="72pt"
 viewBox="0.00 0.00 141.00 72.00" xmlns="http://www.w3.org/2000/svg" xmlns:xlink="http://www.w3.org/1999/xlink">
<g id="graph0" class="graph" transform="scale(1 1) rotate(0) translate(4 68)">
<title>fabomatic::MQTT::Response</title>
<!-- Node1 -->
<g id="Node000001" class="node">
<title>Node1</title>
<g id="a_Node000001"><a xlink:title="Base class for server replies.">
<polygon fill="#999999" stroke="none" points="133,-64 0,-64 0,0 133,0 133,-64"/>
<text text-anchor="start" x="5" y="-50.5" font-family="Helvetica,sans-Serif" font-size="10.00">fabomatic::MQTT::Response</text>
<text text-anchor="start" x="20.5" y="-35.5" font-family="Helvetica,sans-Serif" font-size="10.00">+</text>
<text text-anchor="start" x="47" y="-35.5" font-family="Helvetica,sans-Serif" font-size="10.00">request_ok</text>
<text text-anchor="start" x="20.5" y="-20.5" font-family="Helvetica,sans-Serif" font-size="10.00">+</text>
<text text-anchor="start" x="47" y="-20.5" font-family="Helvetica,sans-Serif" font-size="10.00">Response()</text>
<text text-anchor="start" x="20.5" y="-5.5" font-family="Helvetica,sans-Serif" font-size="10.00">+</text>
<text text-anchor="start" x="47" y="-5.5" font-family="Helvetica,sans-Serif" font-size="10.00">Response()</text>
<polygon fill="#666666" stroke="#666666" points="0,-47 0,-47 133,-47 133,-47 0,-47"/>
<polygon fill="#666666" stroke="#666666" points="0,-32 0,-32 45,-32 45,-32 0,-32"/>
<polygon fill="#666666" stroke="#666666" points="45,-32 45,-32 133,-32 133,-32 45,-32"/>
<polygon fill="none" stroke="#666666" points="0,0 0,-64 133,-64 133,0 0,0"/>
</a>
</g>
</g>
</g>
</svg>
