<?xml version="1.0" encoding="UTF-8" standalone="no"?>
<!DOCTYPE svg PUBLIC "-//W3C//DTD SVG 1.1//EN"
 "http://www.w3.org/Graphics/SVG/1.1/DTD/svg11.dtd">
<!-- Generated by graphviz version 9.0.0 (20230911.1827)
 -->
<!-- Title: fabomatic::MQTT::AliveQuery::payload Pages: 1 -->
<svg width="337pt" height="76pt"
 viewBox="0.00 0.00 337.00 75.88" xmlns="http://www.w3.org/2000/svg" xmlns:xlink="http://www.w3.org/1999/xlink">
<g id="graph0" class="graph" transform="scale(1 1) rotate(0) translate(4 71.88)">
<title>fabomatic::MQTT::AliveQuery::payload</title>
<!-- Node1 -->
<g id="Node000001" class="node">
<title>Node1</title>
<g id="a_Node000001"><a xlink:title=" ">
<polygon fill="#999999" stroke="#666666" points="142.75,-45.88 0,-45.88 0,-15.37 142.75,-15.37 142.75,-45.88"/>
<text text-anchor="start" x="8" y="-32.38" font-family="Helvetica,sans-Serif" font-size="10.00">fabomatic::MQTT::AliveQuery</text>
<text text-anchor="middle" x="71.38" y="-21.12" font-family="Helvetica,sans-Serif" font-size="10.00">::payload</text>
</a>
</g>
</g>
<!-- Node2 -->
<g id="Node000002" class="node">
<title>Node2</title>
<g id="a_Node000002"><a xlink:href="namespacefabomatic_1_1esp32.xhtml#ac8d867c42c073a3e44e6292db72e1f94" target="_top" xlink:title="Returns the ESP32 serial number as a string.">
<polygon fill="white" stroke="#666666" points="308.75,-67.88 199,-67.88 199,-37.38 308.75,-37.38 308.75,-67.88"/>
<text text-anchor="start" x="207" y="-54.38" font-family="Helvetica,sans-Serif" font-size="10.00">fabomatic::esp32::esp</text>
<text text-anchor="middle" x="253.88" y="-43.12" font-family="Helvetica,sans-Serif" font-size="10.00">_serial</text>
</a>
</g>
</g>
<!-- Node1&#45;&gt;Node2 -->
<g id="edge1_Node000001_Node000002" class="edge">
<title>Node1&#45;&gt;Node2</title>
<g id="a_edge1_Node000001_Node000002"><a xlink:title=" ">
<path fill="none" stroke="#63b8ff" d="M143.2,-39.26C157.77,-41.03 173.05,-42.9 187.42,-44.65"/>
<polygon fill="#63b8ff" stroke="#63b8ff" points="186.87,-48.11 197.22,-45.84 187.72,-41.16 186.87,-48.11"/>
</a>
</g>
</g>
<!-- Node3 -->
<g id="Node000003" class="node">
<title>Node3</title>
<g id="a_Node000003"><a xlink:href="namespacefabomatic_1_1esp32.xhtml#a07750a641e5cfe3207bbdf72813af628" target="_top" xlink:title=" ">
<polygon fill="white" stroke="#666666" points="329,-19.25 178.75,-19.25 178.75,0 329,0 329,-19.25"/>
<text text-anchor="middle" x="253.88" y="-5.75" font-family="Helvetica,sans-Serif" font-size="10.00">fabomatic::esp32::getFreeHeap</text>
</a>
</g>
</g>
<!-- Node1&#45;&gt;Node3 -->
<g id="edge2_Node000001_Node000003" class="edge">
<title>Node1&#45;&gt;Node3</title>
<g id="a_edge2_Node000001_Node000003"><a xlink:title=" ">
<path fill="none" stroke="#63b8ff" d="M143.2,-22.39C151.05,-21.47 159.11,-20.53 167.12,-19.6"/>
<polygon fill="#63b8ff" stroke="#63b8ff" points="167.36,-23.1 176.89,-18.47 166.55,-16.14 167.36,-23.1"/>
</a>
</g>
</g>
</g>
</svg>
