<?xml version="1.0" encoding="UTF-8" standalone="no"?>
<!DOCTYPE svg PUBLIC "-//W3C//DTD SVG 1.1//EN"
 "http://www.w3.org/Graphics/SVG/1.1/DTD/svg11.dtd">
<!-- Generated by graphviz version 9.0.0 (20230911.1827)
 -->
<!-- Title: fabomatic::AuthProvider::saveCache Pages: 1 -->
<svg width="593pt" height="161pt"
 viewBox="0.00 0.00 593.25 160.50" xmlns="http://www.w3.org/2000/svg" xmlns:xlink="http://www.w3.org/1999/xlink">
<g id="graph0" class="graph" transform="scale(1 1) rotate(0) translate(4 156.5)">
<title>fabomatic::AuthProvider::saveCache</title>
<!-- Node1 -->
<g id="Node000001" class="node">
<title>Node1</title>
<g id="a_Node000001"><a xlink:title="Saves the cache of RFID to EEPROM.">
<polygon fill="#999999" stroke="#666666" points="119.5,-103.5 0,-103.5 0,-73 119.5,-73 119.5,-103.5"/>
<text text-anchor="start" x="8" y="-90" font-family="Helvetica,sans-Serif" font-size="10.00">fabomatic::AuthProvider</text>
<text text-anchor="middle" x="59.75" y="-78.75" font-family="Helvetica,sans-Serif" font-size="10.00">::saveCache</text>
</a>
</g>
</g>
<!-- Node2 -->
<g id="Node000002" class="node">
<title>Node2</title>
<g id="a_Node000002"><a xlink:href="classfabomatic_1_1_saved_config.xhtml#a3a6f62510c34ed7a4491022e4e43b9c2" target="_top" xlink:title="Returns the default configuration built from conf.hpp and secrets.hpp.">
<polygon fill="white" stroke="#666666" points="273.5,-152.5 155.5,-152.5 155.5,-122 273.5,-122 273.5,-152.5"/>
<text text-anchor="start" x="163.5" y="-139" font-family="Helvetica,sans-Serif" font-size="10.00">fabomatic::SavedConfig</text>
<text text-anchor="middle" x="214.5" y="-127.75" font-family="Helvetica,sans-Serif" font-size="10.00">::DefaultConfig</text>
</a>
</g>
</g>
<!-- Node1&#45;&gt;Node2 -->
<g id="edge1_Node000001_Node000002" class="edge">
<title>Node1&#45;&gt;Node2</title>
<g id="a_edge1_Node000001_Node000002"><a xlink:title=" ">
<path fill="none" stroke="#63b8ff" d="M109.5,-103.89C123.49,-108.37 138.9,-113.32 153.48,-118"/>
<polygon fill="#63b8ff" stroke="#63b8ff" points="152.39,-121.32 162.98,-121.05 154.53,-114.66 152.39,-121.32"/>
</a>
</g>
</g>
<!-- Node4 -->
<g id="Node000004" class="node">
<title>Node4</title>
<g id="a_Node000004"><a xlink:href="classfabomatic_1_1_saved_config.xhtml#aca3fe97dfa74c005d47ffef700392d99" target="_top" xlink:title="Loads the configuration from EEPROM if available and matching revision number.">
<polygon fill="white" stroke="#666666" points="273.5,-103.5 155.5,-103.5 155.5,-73 273.5,-73 273.5,-103.5"/>
<text text-anchor="start" x="163.5" y="-90" font-family="Helvetica,sans-Serif" font-size="10.00">fabomatic::SavedConfig</text>
<text text-anchor="middle" x="214.5" y="-78.75" font-family="Helvetica,sans-Serif" font-size="10.00">::LoadFromEEPROM</text>
</a>
</g>
</g>
<!-- Node1&#45;&gt;Node4 -->
<g id="edge3_Node000001_Node000004" class="edge">
<title>Node1&#45;&gt;Node4</title>
<g id="a_edge3_Node000001_Node000004"><a xlink:title=" ">
<path fill="none" stroke="#63b8ff" d="M119.81,-88.25C127.68,-88.25 135.82,-88.25 143.85,-88.25"/>
<polygon fill="#63b8ff" stroke="#63b8ff" points="143.59,-91.75 153.59,-88.25 143.59,-84.75 143.59,-91.75"/>
</a>
</g>
</g>
<!-- Node5 -->
<g id="Node000005" class="node">
<title>Node5</title>
<g id="a_Node000005"><a xlink:href="classfabomatic_1_1_saved_config.xhtml#a312c74363068192ae80df24140f82874" target="_top" xlink:title="Saves the configuration to EEPROM.">
<polygon fill="white" stroke="#666666" points="273.5,-54.5 155.5,-54.5 155.5,-24 273.5,-24 273.5,-54.5"/>
<text text-anchor="start" x="163.5" y="-41" font-family="Helvetica,sans-Serif" font-size="10.00">fabomatic::SavedConfig</text>
<text text-anchor="middle" x="214.5" y="-29.75" font-family="Helvetica,sans-Serif" font-size="10.00">::SaveToEEPROM</text>
</a>
</g>
</g>
<!-- Node1&#45;&gt;Node5 -->
<g id="edge4_Node000001_Node000005" class="edge">
<title>Node1&#45;&gt;Node5</title>
<g id="a_edge4_Node000001_Node000005"><a xlink:title=" ">
<path fill="none" stroke="#63b8ff" d="M109.5,-72.61C123.49,-68.13 138.9,-63.18 153.48,-58.5"/>
<polygon fill="#63b8ff" stroke="#63b8ff" points="154.53,-61.84 162.98,-55.45 152.39,-55.18 154.53,-61.84"/>
</a>
</g>
</g>
<!-- Node3 -->
<g id="Node000003" class="node">
<title>Node3</title>
<g id="a_Node000003"><a xlink:href="classfabomatic_1_1_saved_config.xhtml#a4ada414d31749dcd736a3fec3f759605" target="_top" xlink:title="Sets the machine ID (converting to string)">
<polygon fill="white" stroke="#666666" points="427.5,-152.5 309.5,-152.5 309.5,-122 427.5,-122 427.5,-152.5"/>
<text text-anchor="start" x="317.5" y="-139" font-family="Helvetica,sans-Serif" font-size="10.00">fabomatic::SavedConfig</text>
<text text-anchor="middle" x="368.5" y="-127.75" font-family="Helvetica,sans-Serif" font-size="10.00">::setMachineID</text>
</a>
</g>
</g>
<!-- Node2&#45;&gt;Node3 -->
<g id="edge2_Node000002_Node000003" class="edge">
<title>Node2&#45;&gt;Node3</title>
<g id="a_edge2_Node000002_Node000003"><a xlink:title=" ">
<path fill="none" stroke="#63b8ff" d="M273.83,-137.25C281.69,-137.25 289.8,-137.25 297.83,-137.25"/>
<polygon fill="#63b8ff" stroke="#63b8ff" points="297.56,-140.75 307.56,-137.25 297.56,-133.75 297.56,-140.75"/>
</a>
</g>
</g>
<!-- Node6 -->
<g id="Node000006" class="node">
<title>Node6</title>
<g id="a_Node000006"><a xlink:href="classfabomatic_1_1_saved_config.xhtml#ae0af7670707ed5a51c69197eb6fadbe5" target="_top" xlink:title="Serialize the current configuration into a JsonDocument.">
<polygon fill="white" stroke="#666666" points="427.5,-54.5 309.5,-54.5 309.5,-24 427.5,-24 427.5,-54.5"/>
<text text-anchor="start" x="317.5" y="-41" font-family="Helvetica,sans-Serif" font-size="10.00">fabomatic::SavedConfig</text>
<text text-anchor="middle" x="368.5" y="-29.75" font-family="Helvetica,sans-Serif" font-size="10.00">::toJsonDocument</text>
</a>
</g>
</g>
<!-- Node5&#45;&gt;Node6 -->
<g id="edge5_Node000005_Node000006" class="edge">
<title>Node5&#45;&gt;Node6</title>
<g id="a_edge5_Node000005_Node000006"><a xlink:title=" ">
<path fill="none" stroke="#63b8ff" d="M273.83,-39.25C281.69,-39.25 289.8,-39.25 297.83,-39.25"/>
<polygon fill="#63b8ff" stroke="#63b8ff" points="297.56,-42.75 307.56,-39.25 297.56,-35.75 297.56,-42.75"/>
</a>
</g>
</g>
<!-- Node7 -->
<g id="Node000007" class="node">
<title>Node7</title>
<g id="a_Node000007"><a xlink:href="structfabomatic_1_1_cached_cards.xhtml#a128c3db6758b1e630855e673a44c585f" target="_top" xlink:title=" ">
<polygon fill="white" stroke="#666666" points="585.25,-79.5 463.5,-79.5 463.5,-49 585.25,-49 585.25,-79.5"/>
<text text-anchor="start" x="471.5" y="-66" font-family="Helvetica,sans-Serif" font-size="10.00">fabomatic::CachedCards</text>
<text text-anchor="middle" x="524.38" y="-54.75" font-family="Helvetica,sans-Serif" font-size="10.00">::size</text>
</a>
</g>
</g>
<!-- Node6&#45;&gt;Node7 -->
<g id="edge6_Node000006_Node000007" class="edge">
<title>Node6&#45;&gt;Node7</title>
<g id="a_edge6_Node000006_Node000007"><a xlink:title=" ">
<path fill="none" stroke="#63b8ff" d="M427.67,-48.7C435.54,-49.98 443.69,-51.3 451.75,-52.61"/>
<polygon fill="#63b8ff" stroke="#63b8ff" points="451.14,-56.06 461.58,-54.21 452.27,-49.15 451.14,-56.06"/>
</a>
</g>
</g>
<!-- Node8 -->
<g id="Node000008" class="node">
<title>Node8</title>
<g id="a_Node000008"><a xlink:href="classfabomatic_1_1_buffer.xhtml#a72f029c82552ccea45eaf611f345c079" target="_top" xlink:title=" ">
<polygon fill="white" stroke="#666666" points="571,-30.5 477.75,-30.5 477.75,0 571,0 571,-30.5"/>
<text text-anchor="start" x="485.75" y="-17" font-family="Helvetica,sans-Serif" font-size="10.00">fabomatic::Buffer::</text>
<text text-anchor="middle" x="524.38" y="-5.75" font-family="Helvetica,sans-Serif" font-size="10.00">toJson</text>
</a>
</g>
</g>
<!-- Node6&#45;&gt;Node8 -->
<g id="edge7_Node000006_Node000008" class="edge">
<title>Node6&#45;&gt;Node8</title>
<g id="a_edge7_Node000006_Node000008"><a xlink:title=" ">
<path fill="none" stroke="#63b8ff" d="M427.67,-30.18C440.31,-28.2 453.68,-26.12 466.27,-24.16"/>
<polygon fill="#63b8ff" stroke="#63b8ff" points="466.75,-27.62 476.09,-22.62 465.67,-20.71 466.75,-27.62"/>
</a>
</g>
</g>
</g>
</svg>
