<?xml version="1.0" encoding="UTF-8" standalone="no"?>
<!DOCTYPE svg PUBLIC "-//W3C//DTD SVG 1.1//EN"
 "http://www.w3.org/Graphics/SVG/1.1/DTD/svg11.dtd">
<!-- Generated by graphviz version 9.0.0 (20230911.1827)
 -->
<!-- Title: fabomatic::Machine::getActiveUser Pages: 1 -->
<svg width="1519pt" height="672pt"
 viewBox="0.00 0.00 1518.75 671.58" xmlns="http://www.w3.org/2000/svg" xmlns:xlink="http://www.w3.org/1999/xlink">
<g id="graph0" class="graph" transform="scale(1 1) rotate(0) translate(4 667.58)">
<title>fabomatic::Machine::getActiveUser</title>
<!-- Node1 -->
<g id="Node000001" class="node">
<title>Node1</title>
<g id="a_Node000001"><a xlink:title=" ">
<polygon fill="#999999" stroke="#666666" points="1510.75,-210.58 1410.75,-210.58 1410.75,-180.08 1510.75,-180.08 1510.75,-210.58"/>
<text text-anchor="start" x="1418.75" y="-197.08" font-family="Helvetica,sans-Serif" font-size="10.00">fabomatic::Machine</text>
<text text-anchor="middle" x="1460.75" y="-185.83" font-family="Helvetica,sans-Serif" font-size="10.00">::getActiveUser</text>
</a>
</g>
</g>
<!-- Node2 -->
<g id="Node000002" class="node">
<title>Node2</title>
<g id="a_Node000002"><a xlink:href="classfabomatic_1_1_board_logic.xhtml#a51390e6bf10c4de427abd7f175a2e6a8" target="_top" xlink:title="Checks if the card UID is valid, and tries to check the user in to the machine.">
<polygon fill="white" stroke="#666666" points="1055.88,-139.58 943.12,-139.58 943.12,-109.08 1055.88,-109.08 1055.88,-139.58"/>
<text text-anchor="start" x="951.12" y="-126.08" font-family="Helvetica,sans-Serif" font-size="10.00">fabomatic::BoardLogic</text>
<text text-anchor="middle" x="999.5" y="-114.83" font-family="Helvetica,sans-Serif" font-size="10.00">::authorize</text>
</a>
</g>
</g>
<!-- Node1&#45;&gt;Node2 -->
<g id="edge1_Node000001_Node000002" class="edge">
<title>Node1&#45;&gt;Node2</title>
<g id="a_edge1_Node000001_Node000002"><a xlink:title=" ">
<path fill="none" stroke="#63b8ff" d="M1399.27,-185.98C1309.63,-172.13 1142.76,-146.33 1056.05,-132.92"/>
<polygon fill="#63b8ff" stroke="#63b8ff" points="1398.69,-189.44 1409.11,-187.5 1399.76,-182.52 1398.69,-189.44"/>
</a>
</g>
</g>
<!-- Node3 -->
<g id="Node000003" class="node">
<title>Node3</title>
<g id="a_Node000003"><a xlink:href="classfabomatic_1_1_board_logic.xhtml#a983c8de8b9c8881fc0a4e60dddc7f0c6" target="_top" xlink:title="Called when a RFID tag has been detected.">
<polygon fill="white" stroke="#666666" points="873.75,-264.58 761,-264.58 761,-234.08 873.75,-234.08 873.75,-264.58"/>
<text text-anchor="start" x="769" y="-251.08" font-family="Helvetica,sans-Serif" font-size="10.00">fabomatic::BoardLogic</text>
<text text-anchor="middle" x="817.38" y="-239.83" font-family="Helvetica,sans-Serif" font-size="10.00">::onNewCard</text>
</a>
</g>
</g>
<!-- Node1&#45;&gt;Node3 -->
<g id="edge36_Node000001_Node000003" class="edge">
<title>Node1&#45;&gt;Node3</title>
<g id="a_edge36_Node000001_Node000003"><a xlink:title=" ">
<path fill="none" stroke="#63b8ff" d="M1398.94,-200.4C1390.81,-201.06 1382.58,-201.72 1374.75,-202.33 1173.47,-218.18 1122.64,-216.18 921.75,-236.33 906.27,-237.89 889.53,-239.86 874.11,-241.8"/>
<polygon fill="#63b8ff" stroke="#63b8ff" points="1399.12,-203.89 1408.81,-199.59 1398.55,-196.92 1399.12,-203.89"/>
</a>
</g>
</g>
<!-- Node18 -->
<g id="Node000018" class="node">
<title>Node18</title>
<g id="a_Node000018"><a xlink:href="classfabomatic_1_1_board_logic.xhtml#a98a15cc323f97adc394c29e897afc12d" target="_top" xlink:title="Removes the current machine user and changes the status to LoggedOut.">
<polygon fill="white" stroke="#666666" points="1055.88,-188.58 943.12,-188.58 943.12,-158.08 1055.88,-158.08 1055.88,-188.58"/>
<text text-anchor="start" x="951.12" y="-175.08" font-family="Helvetica,sans-Serif" font-size="10.00">fabomatic::BoardLogic</text>
<text text-anchor="middle" x="999.5" y="-163.83" font-family="Helvetica,sans-Serif" font-size="10.00">::logout</text>
</a>
</g>
</g>
<!-- Node1&#45;&gt;Node18 -->
<g id="edge29_Node000001_Node000018" class="edge">
<title>Node1&#45;&gt;Node18</title>
<g id="a_edge29_Node000001_Node000018"><a xlink:title=" ">
<path fill="none" stroke="#63b8ff" d="M1399.27,-192.44C1309.63,-188.14 1142.76,-180.15 1056.05,-176"/>
<polygon fill="#63b8ff" stroke="#63b8ff" points="1398.93,-195.92 1409.09,-192.91 1399.27,-188.93 1398.93,-195.92"/>
</a>
</g>
</g>
<!-- Node21 -->
<g id="Node000021" class="node">
<title>Node21</title>
<g id="a_Node000021"><a xlink:href="classfabomatic_1_1_board_logic.xhtml#a47b4d515c0d3488eceb49769036bce8b" target="_top" xlink:title="Updates the LCD screen as per the current status.">
<polygon fill="white" stroke="#666666" points="1374.75,-431.58 1262,-431.58 1262,-401.08 1374.75,-401.08 1374.75,-431.58"/>
<text text-anchor="start" x="1270" y="-418.08" font-family="Helvetica,sans-Serif" font-size="10.00">fabomatic::BoardLogic</text>
<text text-anchor="middle" x="1318.38" y="-406.83" font-family="Helvetica,sans-Serif" font-size="10.00">::updateLCD</text>
</a>
</g>
</g>
<!-- Node1&#45;&gt;Node21 -->
<g id="edge37_Node000001_Node000021" class="edge">
<title>Node1&#45;&gt;Node21</title>
<g id="a_edge37_Node000001_Node000021"><a xlink:title=" ">
<path fill="none" stroke="#63b8ff" d="M1443.83,-220.4C1414.6,-266.41 1353.19,-363.1 1329.23,-400.81"/>
<polygon fill="#63b8ff" stroke="#63b8ff" points="1446.66,-222.47 1449.07,-212.15 1440.75,-218.72 1446.66,-222.47"/>
</a>
</g>
</g>
<!-- Node2&#45;&gt;Node3 -->
<g id="edge2_Node000002_Node000003" class="edge">
<title>Node2&#45;&gt;Node3</title>
<g id="a_edge2_Node000002_Node000003"><a xlink:title=" ">
<path fill="none" stroke="#63b8ff" d="M932.24,-143.72C928.62,-145.45 925.09,-147.32 921.75,-149.33 883.46,-172.39 848.17,-212.09 830.41,-233.89"/>
<polygon fill="#63b8ff" stroke="#63b8ff" points="933.51,-146.98 941.28,-139.78 930.71,-140.57 933.51,-146.98"/>
</a>
</g>
</g>
<!-- Node12 -->
<g id="Node000012" class="node">
<title>Node12</title>
<g id="a_Node000012"><a xlink:href="namespacefabomatic_1_1tests.xhtml#aab0f4e1439b281ffef8be51db9a81f9d" target="_top" xlink:title=" ">
<polygon fill="white" stroke="#666666" points="191.75,-186.58 79,-186.58 79,-156.08 191.75,-156.08 191.75,-186.58"/>
<text text-anchor="start" x="87" y="-173.08" font-family="Helvetica,sans-Serif" font-size="10.00">fabomatic::tests::test</text>
<text text-anchor="middle" x="135.38" y="-161.83" font-family="Helvetica,sans-Serif" font-size="10.00">_whitelist_no_network</text>
</a>
</g>
</g>
<!-- Node2&#45;&gt;Node12 -->
<g id="edge28_Node000002_Node000012" class="edge">
<title>Node2&#45;&gt;Node12</title>
<g id="a_edge28_Node000002_Node000012"><a xlink:title=" ">
<path fill="none" stroke="#63b8ff" d="M979.28,-100.15C958.88,-76.46 924.31,-41.61 885.75,-25.33 786.51,16.57 751.85,-6.33 644.12,-6.33 644.12,-6.33 644.12,-6.33 473.12,-6.33 359.12,-6.33 329.61,-33.54 230.75,-90.33 199.3,-108.4 168.48,-137.64 151.01,-155.61"/>
<polygon fill="#63b8ff" stroke="#63b8ff" points="976.56,-102.34 985.66,-107.76 981.92,-97.85 976.56,-102.34"/>
</a>
</g>
</g>
<!-- Node4 -->
<g id="Node000004" class="node">
<title>Node4</title>
<g id="a_Node000004"><a xlink:href="classfabomatic_1_1_board_logic.xhtml#a25bdc3a49d850aa49f92faf951b68efb" target="_top" xlink:title="Checks if a new card is present.">
<polygon fill="white" stroke="#666666" points="699.5,-304.58 586.75,-304.58 586.75,-274.08 699.5,-274.08 699.5,-304.58"/>
<text text-anchor="start" x="594.75" y="-291.08" font-family="Helvetica,sans-Serif" font-size="10.00">fabomatic::BoardLogic</text>
<text text-anchor="middle" x="643.12" y="-279.83" font-family="Helvetica,sans-Serif" font-size="10.00">::checkRfid</text>
</a>
</g>
</g>
<!-- Node3&#45;&gt;Node4 -->
<g id="edge3_Node000003_Node000004" class="edge">
<title>Node3&#45;&gt;Node4</title>
<g id="a_edge3_Node000003_Node000004"><a xlink:title=" ">
<path fill="none" stroke="#63b8ff" d="M750.17,-264.71C733.53,-268.57 715.83,-272.68 699.77,-276.41"/>
<polygon fill="#63b8ff" stroke="#63b8ff" points="750.5,-268.22 759.45,-262.55 748.92,-261.41 750.5,-268.22"/>
</a>
</g>
</g>
<!-- Node5 -->
<g id="Node000005" class="node">
<title>Node5</title>
<g id="a_Node000005"><a xlink:href="namespacefabomatic_1_1tests.xhtml#a2600320f41c9fa343c66058ecb12b5ee" target="_top" xlink:title="Simulates RFID card tap.">
<polygon fill="white" stroke="#666666" points="537.25,-388.58 411,-388.58 411,-358.08 537.25,-358.08 537.25,-388.58"/>
<text text-anchor="start" x="419" y="-375.08" font-family="Helvetica,sans-Serif" font-size="10.00">fabomatic::tests::simulate</text>
<text text-anchor="middle" x="474.12" y="-363.83" font-family="Helvetica,sans-Serif" font-size="10.00">_rfid_card</text>
</a>
</g>
</g>
<!-- Node4&#45;&gt;Node5 -->
<g id="edge4_Node000004_Node000005" class="edge">
<title>Node4&#45;&gt;Node5</title>
<g id="a_edge4_Node000004_Node000005"><a xlink:title=" ">
<path fill="none" stroke="#63b8ff" d="M607.62,-310.83C587.49,-322.92 561.39,-337.85 537.25,-349.33 531.19,-352.22 524.69,-355.02 518.26,-357.64"/>
<polygon fill="#63b8ff" stroke="#63b8ff" points="609.24,-313.94 615.97,-305.76 605.61,-307.96 609.24,-313.94"/>
</a>
</g>
</g>
<!-- Node4&#45;&gt;Node12 -->
<g id="edge27_Node000004_Node000012" class="edge">
<title>Node4&#45;&gt;Node12</title>
<g id="a_edge27_Node000004_Node000012"><a xlink:title=" ">
<path fill="none" stroke="#63b8ff" d="M606.52,-267.81C556.8,-239.13 462.76,-189.86 375,-171.33 313.39,-158.33 240.81,-160.77 192.02,-164.9"/>
<polygon fill="#63b8ff" stroke="#63b8ff" points="604.74,-270.82 615.14,-272.84 608.26,-264.77 604.74,-270.82"/>
</a>
</g>
</g>
<!-- Node16 -->
<g id="Node000016" class="node">
<title>Node16</title>
<g id="a_Node000016"><a xlink:href="namespacefabomatic.xhtml#a3e5c190499522bddad3f3cc69274f16c" target="_top" xlink:title="periodic check for new RFID card">
<polygon fill="white" stroke="#666666" points="537.25,-339.96 411,-339.96 411,-320.71 537.25,-320.71 537.25,-339.96"/>
<text text-anchor="middle" x="474.12" y="-326.46" font-family="Helvetica,sans-Serif" font-size="10.00">fabomatic::taskCheckRfid</text>
</a>
</g>
</g>
<!-- Node4&#45;&gt;Node16 -->
<g id="edge25_Node000004_Node000016" class="edge">
<title>Node4&#45;&gt;Node16</title>
<g id="a_edge25_Node000004_Node000016"><a xlink:title=" ">
<path fill="none" stroke="#63b8ff" d="M575.55,-305.68C555.51,-310.6 534.1,-315.85 516.23,-320.24"/>
<polygon fill="#63b8ff" stroke="#63b8ff" points="576.17,-309.13 585.05,-303.35 574.5,-302.33 576.17,-309.13"/>
</a>
</g>
</g>
<!-- Node17 -->
<g id="Node000017" class="node">
<title>Node17</title>
<g id="a_Node000017"><a xlink:href="namespacefabomatic_1_1tests.xhtml#a294b4767ecf1e1d11cc31dafb2541d23" target="_top" xlink:title="periodic check for new RFID card">
<polygon fill="white" stroke="#666666" points="527.12,-302.58 421.12,-302.58 421.12,-272.08 527.12,-272.08 527.12,-302.58"/>
<text text-anchor="start" x="429.12" y="-289.08" font-family="Helvetica,sans-Serif" font-size="10.00">fabomatic::tests::test</text>
<text text-anchor="middle" x="474.12" y="-277.83" font-family="Helvetica,sans-Serif" font-size="10.00">_taskCheckRfid</text>
</a>
</g>
</g>
<!-- Node4&#45;&gt;Node17 -->
<g id="edge26_Node000004_Node000017" class="edge">
<title>Node4&#45;&gt;Node17</title>
<g id="a_edge26_Node000004_Node000017"><a xlink:title=" ">
<path fill="none" stroke="#63b8ff" d="M575.13,-288.53C559.23,-288.34 542.51,-288.14 527.38,-287.96"/>
<polygon fill="#63b8ff" stroke="#63b8ff" points="574.96,-292.03 585,-288.65 575.05,-285.03 574.96,-292.03"/>
</a>
</g>
</g>
<!-- Node6 -->
<g id="Node000006" class="node">
<title>Node6</title>
<g id="a_Node000006"><a xlink:href="namespacefabomatic_1_1tests.xhtml#a6a7645a865dc822746f972ea6f43224d" target="_top" xlink:title="Resets machine to initial state, clearing flags.">
<polygon fill="white" stroke="#666666" points="375,-298.96 230.75,-298.96 230.75,-279.71 375,-279.71 375,-298.96"/>
<text text-anchor="middle" x="302.88" y="-285.46" font-family="Helvetica,sans-Serif" font-size="10.00">fabomatic::tests::machine_init</text>
</a>
</g>
</g>
<!-- Node5&#45;&gt;Node6 -->
<g id="edge5_Node000005_Node000006" class="edge">
<title>Node5&#45;&gt;Node6</title>
<g id="a_edge5_Node000005_Node000006"><a xlink:title=" ">
<path fill="none" stroke="#63b8ff" d="M416.04,-352.41C414.32,-351.42 412.63,-350.4 411,-349.33 392.04,-336.99 394.23,-325.27 375,-313.33 365.59,-307.49 354.58,-302.89 344.08,-299.34"/>
<polygon fill="#63b8ff" stroke="#63b8ff" points="414.44,-355.52 424.93,-357 417.65,-349.3 414.44,-355.52"/>
</a>
</g>
</g>
<!-- Node7 -->
<g id="Node000007" class="node">
<title>Node7</title>
<g id="a_Node000007"><a xlink:href="namespacefabomatic_1_1tests.xhtml#a558e2287db01a4622581246a19dac397" target="_top" xlink:title=" ">
<polygon fill="white" stroke="#666666" points="188.38,-416.58 82.38,-416.58 82.38,-386.08 188.38,-386.08 188.38,-416.58"/>
<text text-anchor="start" x="90.38" y="-403.08" font-family="Helvetica,sans-Serif" font-size="10.00">fabomatic::tests::test</text>
<text text-anchor="middle" x="135.38" y="-391.83" font-family="Helvetica,sans-Serif" font-size="10.00">_machine_allowed</text>
</a>
</g>
</g>
<!-- Node5&#45;&gt;Node7 -->
<g id="edge18_Node000005_Node000007" class="edge">
<title>Node5&#45;&gt;Node7</title>
<g id="a_edge18_Node000005_Node000007"><a xlink:title=" ">
<path fill="none" stroke="#63b8ff" d="M399.4,-379.46C335.67,-384.76 245.16,-392.29 188.65,-396.99"/>
<polygon fill="#63b8ff" stroke="#63b8ff" points="399.39,-382.98 409.07,-378.66 398.81,-376 399.39,-382.98"/>
</a>
</g>
</g>
<!-- Node9 -->
<g id="Node000009" class="node">
<title>Node9</title>
<g id="a_Node000009"><a xlink:href="namespacefabomatic_1_1tests.xhtml#a9a34631c2dc01cbdbbce146895c94e12" target="_top" xlink:title=" ">
<polygon fill="white" stroke="#666666" points="194.75,-367.58 76,-367.58 76,-337.08 194.75,-337.08 194.75,-367.58"/>
<text text-anchor="start" x="84" y="-354.08" font-family="Helvetica,sans-Serif" font-size="10.00">fabomatic::tests::test</text>
<text text-anchor="middle" x="135.38" y="-342.83" font-family="Helvetica,sans-Serif" font-size="10.00">_machine_maintenance</text>
</a>
</g>
</g>
<!-- Node5&#45;&gt;Node9 -->
<g id="edge19_Node000005_Node000009" class="edge">
<title>Node5&#45;&gt;Node9</title>
<g id="a_edge19_Node000005_Node000009"><a xlink:title=" ">
<path fill="none" stroke="#63b8ff" d="M399.43,-368.74C338.11,-364.91 251.98,-359.54 195.21,-356"/>
<polygon fill="#63b8ff" stroke="#63b8ff" points="398.87,-372.21 409.06,-369.34 399.3,-365.22 398.87,-372.21"/>
</a>
</g>
</g>
<!-- Node10 -->
<g id="Node000010" class="node">
<title>Node10</title>
<g id="a_Node000010"><a xlink:href="namespacefabomatic_1_1tests.xhtml#a6f3dff17fd964aba76c35c514957a0a5" target="_top" xlink:title=" ">
<polygon fill="white" stroke="#666666" points="189.88,-318.58 80.88,-318.58 80.88,-288.08 189.88,-288.08 189.88,-318.58"/>
<text text-anchor="start" x="88.88" y="-305.08" font-family="Helvetica,sans-Serif" font-size="10.00">fabomatic::tests::test</text>
<text text-anchor="middle" x="135.38" y="-293.83" font-family="Helvetica,sans-Serif" font-size="10.00">_one_user_at_a_time</text>
</a>
</g>
</g>
<!-- Node5&#45;&gt;Node10 -->
<g id="edge22_Node000005_Node000010" class="edge">
<title>Node5&#45;&gt;Node10</title>
<g id="a_edge22_Node000005_Node000010"><a xlink:title=" ">
<path fill="none" stroke="#63b8ff" d="M399.5,-358.03C336.37,-344.91 246.9,-326.31 190.26,-314.54"/>
<polygon fill="#63b8ff" stroke="#63b8ff" points="398.59,-361.42 409.09,-360.02 400.01,-354.56 398.59,-361.42"/>
</a>
</g>
</g>
<!-- Node11 -->
<g id="Node000011" class="node">
<title>Node11</title>
<g id="a_Node000011"><a xlink:href="namespacefabomatic_1_1tests.xhtml#afa92fef9250d918ee02c79dbf2de2546" target="_top" xlink:title=" ">
<polygon fill="white" stroke="#666666" points="188.38,-267.58 82.38,-267.58 82.38,-237.08 188.38,-237.08 188.38,-267.58"/>
<text text-anchor="start" x="90.38" y="-254.08" font-family="Helvetica,sans-Serif" font-size="10.00">fabomatic::tests::test</text>
<text text-anchor="middle" x="135.38" y="-242.83" font-family="Helvetica,sans-Serif" font-size="10.00">_user_autologoff</text>
</a>
</g>
</g>
<!-- Node5&#45;&gt;Node11 -->
<g id="edge23_Node000005_Node000011" class="edge">
<title>Node5&#45;&gt;Node11</title>
<g id="a_edge23_Node000005_Node000011"><a xlink:title=" ">
<path fill="none" stroke="#63b8ff" d="M412.94,-351.08C412.28,-350.51 411.63,-349.93 411,-349.33 382.92,-322.87 406.64,-292.41 375,-270.33 320.32,-232.18 240.4,-234.79 188.39,-242.05"/>
<polygon fill="#63b8ff" stroke="#63b8ff" points="410.85,-353.88 421.03,-356.81 414.89,-348.17 410.85,-353.88"/>
</a>
</g>
</g>
<!-- Node5&#45;&gt;Node12 -->
<g id="edge24_Node000005_Node000012" class="edge">
<title>Node5&#45;&gt;Node12</title>
<g id="a_edge24_Node000005_Node000012"><a xlink:title=" ">
<path fill="none" stroke="#63b8ff" d="M412.44,-350.81C411.95,-350.33 411.47,-349.84 411,-349.33 374.14,-309.89 414.05,-270.6 375,-233.33 325.84,-186.42 245.89,-173.85 192.24,-171.07"/>
<polygon fill="#63b8ff" stroke="#63b8ff" points="410.02,-353.36 420.04,-356.81 414.36,-347.86 410.02,-353.36"/>
</a>
</g>
</g>
<!-- Node13 -->
<g id="Node000013" class="node">
<title>Node13</title>
<g id="a_Node000013"><a xlink:href="namespacefabomatic_1_1tests.xhtml#a0b99fa5582e6b0ecb416f4ed348e5606" target="_top" xlink:title=" ">
<polygon fill="white" stroke="#666666" points="358.5,-510.58 247.25,-510.58 247.25,-480.08 358.5,-480.08 358.5,-510.58"/>
<text text-anchor="start" x="255.25" y="-497.08" font-family="Helvetica,sans-Serif" font-size="10.00">fabomatic::tests::test</text>
<text text-anchor="middle" x="302.88" y="-485.83" font-family="Helvetica,sans-Serif" font-size="10.00">_backend_commands</text>
</a>
</g>
</g>
<!-- Node5&#45;&gt;Node13 -->
<g id="edge16_Node000005_Node000013" class="edge">
<title>Node5&#45;&gt;Node13</title>
<g id="a_edge16_Node000005_Node000013"><a xlink:title=" ">
<path fill="none" stroke="#63b8ff" d="M454.01,-397.58C435.77,-419.29 406.46,-450.66 375,-470.33 369.34,-473.87 363.11,-476.99 356.77,-479.72"/>
<polygon fill="#63b8ff" stroke="#63b8ff" points="456.52,-400.04 460.17,-390.09 451.11,-395.59 456.52,-400.04"/>
</a>
</g>
</g>
<!-- Node15 -->
<g id="Node000015" class="node">
<title>Node15</title>
<g id="a_Node000015"><a xlink:href="namespacefabomatic_1_1tests.xhtml#af8fa7ace86309b5f699540d8898660c7" target="_top" xlink:title=" ">
<polygon fill="white" stroke="#666666" points="355.88,-461.58 249.88,-461.58 249.88,-431.08 355.88,-431.08 355.88,-461.58"/>
<text text-anchor="start" x="257.88" y="-448.08" font-family="Helvetica,sans-Serif" font-size="10.00">fabomatic::tests::test</text>
<text text-anchor="middle" x="302.88" y="-436.83" font-family="Helvetica,sans-Serif" font-size="10.00">_messages_buffered</text>
</a>
</g>
</g>
<!-- Node5&#45;&gt;Node15 -->
<g id="edge20_Node000005_Node000015" class="edge">
<title>Node5&#45;&gt;Node15</title>
<g id="a_edge20_Node000005_Node000015"><a xlink:title=" ">
<path fill="none" stroke="#63b8ff" d="M429.07,-393.48C412.21,-401.08 392.77,-409.73 375,-417.33 364.7,-421.74 353.5,-426.38 343.11,-430.62"/>
<polygon fill="#63b8ff" stroke="#63b8ff" points="430.15,-396.83 437.81,-389.52 427.26,-390.45 430.15,-396.83"/>
</a>
</g>
</g>
<!-- Node6&#45;&gt;Node7 -->
<g id="edge6_Node000006_Node000007" class="edge">
<title>Node6&#45;&gt;Node7</title>
<g id="a_edge6_Node000006_Node000007"><a xlink:title=" ">
<path fill="none" stroke="#63b8ff" d="M283.31,-307.13C262.85,-326.07 228.36,-356.03 194.75,-376.33 189.18,-379.7 183.08,-382.84 176.99,-385.68"/>
<polygon fill="#63b8ff" stroke="#63b8ff" points="285.67,-309.71 290.56,-300.32 280.88,-304.61 285.67,-309.71"/>
</a>
</g>
</g>
<!-- Node6&#45;&gt;Node9 -->
<g id="edge8_Node000006_Node000009" class="edge">
<title>Node6&#45;&gt;Node9</title>
<g id="a_edge8_Node000006_Node000009"><a xlink:title=" ">
<path fill="none" stroke="#63b8ff" d="M264.75,-303.47C238.82,-313.34 204.2,-326.52 177.45,-336.7"/>
<polygon fill="#63b8ff" stroke="#63b8ff" points="265.77,-306.82 273.87,-299.99 263.28,-300.28 265.77,-306.82"/>
</a>
</g>
</g>
<!-- Node6&#45;&gt;Node10 -->
<g id="edge10_Node000006_Node000010" class="edge">
<title>Node6&#45;&gt;Node10</title>
<g id="a_edge10_Node000006_Node000010"><a xlink:title=" ">
<path fill="none" stroke="#63b8ff" d="M219.52,-296.3C209.57,-297.14 199.61,-297.99 190.22,-298.78"/>
<polygon fill="#63b8ff" stroke="#63b8ff" points="219.55,-299.81 229.22,-295.48 218.96,-292.84 219.55,-299.81"/>
</a>
</g>
</g>
<!-- Node6&#45;&gt;Node11 -->
<g id="edge12_Node000006_Node000011" class="edge">
<title>Node6&#45;&gt;Node11</title>
<g id="a_edge12_Node000006_Node000011"><a xlink:title=" ">
<path fill="none" stroke="#63b8ff" d="M245.52,-276.74C227.18,-272.64 206.91,-268.1 188.87,-264.07"/>
<polygon fill="#63b8ff" stroke="#63b8ff" points="244.65,-280.13 255.17,-278.89 246.18,-273.3 244.65,-280.13"/>
</a>
</g>
</g>
<!-- Node6&#45;&gt;Node12 -->
<g id="edge14_Node000006_Node000012" class="edge">
<title>Node6&#45;&gt;Node12</title>
<g id="a_edge14_Node000006_Node000012"><a xlink:title=" ">
<path fill="none" stroke="#63b8ff" d="M278.73,-272.83C246.84,-250.09 189.78,-209.41 158.46,-187.08"/>
<polygon fill="#63b8ff" stroke="#63b8ff" points="276.36,-275.44 286.53,-278.4 280.42,-269.74 276.36,-275.44"/>
</a>
</g>
</g>
<!-- Node8 -->
<g id="Node000008" class="node">
<title>Node8</title>
<g id="a_Node000008"><a xlink:href="test__logic_8cpp.xhtml#a4fc01d736fe50cf5b977f755b675f11d" target="_top" xlink:title=" ">
<polygon fill="white" stroke="#666666" points="40,-361.96 0,-361.96 0,-342.71 40,-342.71 40,-361.96"/>
<text text-anchor="middle" x="20" y="-348.46" font-family="Helvetica,sans-Serif" font-size="10.00">setup</text>
</a>
</g>
</g>
<!-- Node7&#45;&gt;Node8 -->
<g id="edge7_Node000007_Node000008" class="edge">
<title>Node7&#45;&gt;Node8</title>
<g id="a_edge7_Node000007_Node000008"><a xlink:title=" ">
<path fill="none" stroke="#63b8ff" d="M87.08,-381.11C83.33,-379.5 79.6,-377.89 76,-376.33 64.14,-371.21 50.87,-365.42 40.33,-360.81"/>
<polygon fill="#63b8ff" stroke="#63b8ff" points="85.65,-384.31 96.22,-385.04 88.42,-377.88 85.65,-384.31"/>
</a>
</g>
</g>
<!-- Node9&#45;&gt;Node8 -->
<g id="edge9_Node000009_Node000008" class="edge">
<title>Node9&#45;&gt;Node8</title>
<g id="a_edge9_Node000009_Node000008"><a xlink:title=" ">
<path fill="none" stroke="#63b8ff" d="M64.44,-352.33C55.69,-352.33 47.39,-352.33 40.43,-352.33"/>
<polygon fill="#63b8ff" stroke="#63b8ff" points="64.18,-355.83 74.18,-352.33 64.18,-348.83 64.18,-355.83"/>
</a>
</g>
</g>
<!-- Node10&#45;&gt;Node8 -->
<g id="edge11_Node000010_Node000008" class="edge">
<title>Node10&#45;&gt;Node8</title>
<g id="a_edge11_Node000010_Node000008"><a xlink:title=" ">
<path fill="none" stroke="#63b8ff" d="M87.08,-323.56C83.33,-325.17 79.6,-326.78 76,-328.33 64.14,-333.46 50.87,-339.25 40.33,-343.86"/>
<polygon fill="#63b8ff" stroke="#63b8ff" points="88.42,-326.79 96.22,-319.63 85.65,-320.36 88.42,-326.79"/>
</a>
</g>
</g>
<!-- Node11&#45;&gt;Node8 -->
<g id="edge13_Node000011_Node000008" class="edge">
<title>Node11&#45;&gt;Node8</title>
<g id="a_edge13_Node000011_Node000008"><a xlink:title=" ">
<path fill="none" stroke="#63b8ff" d="M83.9,-273.65C81.14,-275.43 78.48,-277.33 76,-279.33 53.41,-297.57 35.01,-327.04 26.35,-342.36"/>
<polygon fill="#63b8ff" stroke="#63b8ff" points="85.4,-276.83 92.28,-268.78 81.88,-270.78 85.4,-276.83"/>
</a>
</g>
</g>
<!-- Node12&#45;&gt;Node8 -->
<g id="edge15_Node000012_Node000008" class="edge">
<title>Node12&#45;&gt;Node8</title>
<g id="a_edge15_Node000012_Node000008"><a xlink:title=" ">
<path fill="none" stroke="#63b8ff" d="M106.4,-194.56C95.94,-204.23 84.53,-216.07 76,-228.33 49.25,-266.82 30.85,-320.4 23.99,-342.35"/>
<polygon fill="#63b8ff" stroke="#63b8ff" points="108.64,-197.26 113.77,-187.98 103.98,-192.03 108.64,-197.26"/>
</a>
</g>
</g>
<!-- Node14 -->
<g id="Node000014" class="node">
<title>Node14</title>
<g id="a_Node000014"><a xlink:href="test__mqtt_8cpp.xhtml#a4fc01d736fe50cf5b977f755b675f11d" target="_top" xlink:title=" ">
<polygon fill="white" stroke="#666666" points="155.38,-504.96 115.38,-504.96 115.38,-485.71 155.38,-485.71 155.38,-504.96"/>
<text text-anchor="middle" x="135.38" y="-491.46" font-family="Helvetica,sans-Serif" font-size="10.00">setup</text>
</a>
</g>
</g>
<!-- Node13&#45;&gt;Node14 -->
<g id="edge17_Node000013_Node000014" class="edge">
<title>Node13&#45;&gt;Node14</title>
<g id="a_edge17_Node000013_Node000014"><a xlink:title=" ">
<path fill="none" stroke="#63b8ff" d="M235.51,-495.33C206.8,-495.33 175.35,-495.33 155.74,-495.33"/>
<polygon fill="#63b8ff" stroke="#63b8ff" points="235.25,-498.83 245.25,-495.33 235.25,-491.83 235.25,-498.83"/>
</a>
</g>
</g>
<!-- Node15&#45;&gt;Node8 -->
<g id="edge21_Node000015_Node000008" class="edge">
<title>Node15&#45;&gt;Node8</title>
<g id="a_edge21_Node000015_Node000008"><a xlink:title=" ">
<path fill="none" stroke="#63b8ff" d="M238.1,-453.68C190.49,-456.14 125.41,-452.9 76,-425.33 50.09,-410.88 32.68,-378.59 25.19,-362.23"/>
<polygon fill="#63b8ff" stroke="#63b8ff" points="238.23,-457.18 247.99,-453.06 237.79,-450.19 238.23,-457.18"/>
</a>
</g>
</g>
<!-- Node18&#45;&gt;Node3 -->
<g id="edge31_Node000018_Node000003" class="edge">
<title>Node18&#45;&gt;Node3</title>
<g id="a_edge31_Node000018_Node000003"><a xlink:title=" ">
<path fill="none" stroke="#63b8ff" d="M944.15,-193.08C936.58,-196.06 928.93,-199.19 921.75,-202.33 905.36,-209.51 901.97,-212.8 885.75,-220.33 876.16,-224.79 865.71,-229.4 855.96,-233.61"/>
<polygon fill="#63b8ff" stroke="#63b8ff" points="945.28,-196.39 953.35,-189.52 942.76,-189.86 945.28,-196.39"/>
</a>
</g>
</g>
<!-- Node18&#45;&gt;Node6 -->
<g id="edge30_Node000018_Node000006" class="edge">
<title>Node18&#45;&gt;Node6</title>
<g id="a_edge30_Node000018_Node000006"><a xlink:title=" ">
<path fill="none" stroke="#63b8ff" d="M931.56,-181.68C822.16,-195.75 598.47,-226.3 411,-263.33 387.91,-267.9 362.27,-274.08 341.87,-279.27"/>
<polygon fill="#63b8ff" stroke="#63b8ff" points="931.76,-185.18 941.24,-180.44 930.87,-178.24 931.76,-185.18"/>
</a>
</g>
</g>
<!-- Node18&#45;&gt;Node11 -->
<g id="edge34_Node000018_Node000011" class="edge">
<title>Node18&#45;&gt;Node11</title>
<g id="a_edge34_Node000018_Node000011"><a xlink:title=" ">
<path fill="none" stroke="#63b8ff" d="M931.6,-175.37C881.33,-177.12 810.8,-180.05 749,-184.33 518.19,-200.32 459.63,-199.57 230.75,-233.33 217.03,-235.36 202.28,-238.07 188.62,-240.8"/>
<polygon fill="#63b8ff" stroke="#63b8ff" points="931.57,-178.88 941.45,-175.04 931.33,-171.88 931.57,-178.88"/>
</a>
</g>
</g>
<!-- Node18&#45;&gt;Node12 -->
<g id="edge35_Node000018_Node000012" class="edge">
<title>Node18&#45;&gt;Node12</title>
<g id="a_edge35_Node000018_Node000012"><a xlink:title=" ">
<path fill="none" stroke="#63b8ff" d="M932.59,-154.91C928.8,-152.93 925.15,-150.74 921.75,-148.33 900.27,-133.13 908.87,-113.9 885.75,-101.33 791.1,-49.9 751.85,-82.33 644.12,-82.33 644.12,-82.33 644.12,-82.33 473.12,-82.33 359.74,-82.33 231.8,-130.08 171.45,-155.63"/>
<polygon fill="#63b8ff" stroke="#63b8ff" points="930.97,-158.02 941.52,-159.06 933.93,-151.67 930.97,-158.02"/>
</a>
</g>
</g>
<!-- Node19 -->
<g id="Node000019" class="node">
<title>Node19</title>
<g id="a_Node000019"><a xlink:href="namespacefabomatic.xhtml#af8ee1c3cd4edf1a1ba27899da63b611a" target="_top" xlink:title="periodic check if the user shall be logged off">
<polygon fill="white" stroke="#666666" points="885.75,-53.96 749,-53.96 749,-34.71 885.75,-34.71 885.75,-53.96"/>
<text text-anchor="middle" x="817.38" y="-40.46" font-family="Helvetica,sans-Serif" font-size="10.00">fabomatic::taskLogoffCheck</text>
</a>
</g>
</g>
<!-- Node18&#45;&gt;Node19 -->
<g id="edge32_Node000018_Node000019" class="edge">
<title>Node18&#45;&gt;Node19</title>
<g id="a_edge32_Node000018_Node000019"><a xlink:title=" ">
<path fill="none" stroke="#63b8ff" d="M932.61,-156.23C928.72,-153.92 925.06,-151.3 921.75,-148.33 892.73,-122.29 914.41,-94.77 885.75,-68.33 879.27,-62.36 871.2,-57.85 862.92,-54.46"/>
<polygon fill="#63b8ff" stroke="#63b8ff" points="930.79,-159.23 941.29,-160.66 933.98,-152.99 930.79,-159.23"/>
</a>
</g>
</g>
<!-- Node20 -->
<g id="Node000020" class="node">
<title>Node20</title>
<g id="a_Node000020"><a xlink:href="namespacefabomatic_1_1tests.xhtml#a7cd22311b16fc7c256a30ba4c2f6f387" target="_top" xlink:title="blink led">
<polygon fill="white" stroke="#666666" points="870.38,-140.58 764.38,-140.58 764.38,-110.08 870.38,-110.08 870.38,-140.58"/>
<text text-anchor="start" x="772.38" y="-127.08" font-family="Helvetica,sans-Serif" font-size="10.00">fabomatic::tests::test</text>
<text text-anchor="middle" x="817.38" y="-115.83" font-family="Helvetica,sans-Serif" font-size="10.00">_taskVarious</text>
</a>
</g>
</g>
<!-- Node18&#45;&gt;Node20 -->
<g id="edge33_Node000018_Node000020" class="edge">
<title>Node18&#45;&gt;Node20</title>
<g id="a_edge33_Node000018_Node000020"><a xlink:title=" ">
<path fill="none" stroke="#63b8ff" d="M931.95,-155.6C911.72,-150.21 889.78,-144.36 870.63,-139.26"/>
<polygon fill="#63b8ff" stroke="#63b8ff" points="930.96,-158.96 941.52,-158.15 932.76,-152.19 930.96,-158.96"/>
</a>
</g>
</g>
<!-- Node22 -->
<g id="Node000022" class="node">
<title>Node22</title>
<g id="a_Node000022"><a xlink:href="classfabomatic_1_1_board_logic.xhtml#a3c38d7a3ed7952c6d6297efdf50ea4dd" target="_top" xlink:title="Sets the board in the state given.">
<polygon fill="white" stroke="#666666" points="1226,-431.58 1113.25,-431.58 1113.25,-401.08 1226,-401.08 1226,-431.58"/>
<text text-anchor="start" x="1121.25" y="-418.08" font-family="Helvetica,sans-Serif" font-size="10.00">fabomatic::BoardLogic</text>
<text text-anchor="middle" x="1169.62" y="-406.83" font-family="Helvetica,sans-Serif" font-size="10.00">::changeStatus</text>
</a>
</g>
</g>
<!-- Node21&#45;&gt;Node22 -->
<g id="edge38_Node000021_Node000022" class="edge">
<title>Node21&#45;&gt;Node22</title>
<g id="a_edge38_Node000021_Node000022"><a xlink:title=" ">
<path fill="none" stroke="#63b8ff" d="M1250.51,-416.33C1242.37,-416.33 1234.13,-416.33 1226.18,-416.33"/>
<polygon fill="#63b8ff" stroke="#63b8ff" points="1250.38,-419.83 1260.38,-416.33 1250.38,-412.83 1250.38,-419.83"/>
</a>
</g>
</g>
<!-- Node31 -->
<g id="Node000031" class="node">
<title>Node31</title>
<g id="a_Node000031"><a xlink:href="namespacefabomatic_1_1tests.xhtml#aec03a7ee459718d314b930fdd75d3cee" target="_top" xlink:title=" ">
<polygon fill="white" stroke="#666666" points="1052.5,-663.58 946.5,-663.58 946.5,-633.08 1052.5,-633.08 1052.5,-663.58"/>
<text text-anchor="start" x="954.5" y="-650.08" font-family="Helvetica,sans-Serif" font-size="10.00">fabomatic::tests::test</text>
<text text-anchor="middle" x="999.5" y="-638.83" font-family="Helvetica,sans-Serif" font-size="10.00">_simple_methods</text>
</a>
</g>
</g>
<!-- Node21&#45;&gt;Node31 -->
<g id="edge58_Node000021_Node000031" class="edge">
<title>Node21&#45;&gt;Node31</title>
<g id="a_edge58_Node000021_Node000031"><a xlink:title=" ">
<path fill="none" stroke="#63b8ff" d="M1296.26,-440.2C1257.14,-483.03 1169,-573.2 1077.25,-624.33 1069.69,-628.55 1061.29,-632.13 1052.9,-635.14"/>
<polygon fill="#63b8ff" stroke="#63b8ff" points="1298.72,-442.7 1302.83,-432.94 1293.52,-438.01 1298.72,-442.7"/>
</a>
</g>
</g>
<!-- Node22&#45;&gt;Node2 -->
<g id="edge39_Node000022_Node000002" class="edge">
<title>Node22&#45;&gt;Node2</title>
<g id="a_edge39_Node000022_Node000002"><a xlink:title=" ">
<path fill="none" stroke="#63b8ff" d="M1167.14,-389.74C1162.75,-336.56 1145.41,-216.49 1077.25,-149.33 1071.26,-143.43 1063.86,-138.92 1056.05,-135.48"/>
<polygon fill="#63b8ff" stroke="#63b8ff" points="1163.63,-389.66 1167.84,-399.38 1170.61,-389.15 1163.63,-389.66"/>
</a>
</g>
</g>
<!-- Node22&#45;&gt;Node3 -->
<g id="edge46_Node000022_Node000003" class="edge">
<title>Node22&#45;&gt;Node3</title>
<g id="a_edge46_Node000022_Node000003"><a xlink:title=" ">
<path fill="none" stroke="#63b8ff" d="M1159.33,-390.2C1146.37,-357.95 1119.57,-304.21 1077.25,-278.33 1015.51,-240.59 929.83,-238.7 874.24,-242.59"/>
<polygon fill="#63b8ff" stroke="#63b8ff" points="1155.94,-391.14 1162.8,-399.22 1162.48,-388.63 1155.94,-391.14"/>
</a>
</g>
</g>
<!-- Node22&#45;&gt;Node4 -->
<g id="edge40_Node000022_Node000004" class="edge">
<title>Node22&#45;&gt;Node4</title>
<g id="a_edge40_Node000022_Node000004"><a xlink:title=" ">
<path fill="none" stroke="#63b8ff" d="M1154.87,-391.05C1139.6,-365.83 1112.39,-328.43 1077.25,-311.33 1012.25,-279.72 801.12,-283.15 699.61,-286.84"/>
<polygon fill="#63b8ff" stroke="#63b8ff" points="1151.67,-392.52 1159.73,-399.4 1157.72,-388.99 1151.67,-392.52"/>
</a>
</g>
</g>
<!-- Node22&#45;&gt;Node18 -->
<g id="edge45_Node000022_Node000018" class="edge">
<title>Node22&#45;&gt;Node18</title>
<g id="a_edge45_Node000022_Node000018"><a xlink:title=" ">
<path fill="none" stroke="#63b8ff" d="M1158.61,-390C1144.12,-353.94 1114.87,-288.21 1077.25,-240.33 1061.4,-220.17 1038.89,-201.35 1022.34,-188.83"/>
<polygon fill="#63b8ff" stroke="#63b8ff" points="1155.31,-391.18 1162.24,-399.2 1161.83,-388.61 1155.31,-391.18"/>
</a>
</g>
</g>
<!-- Node23 -->
<g id="Node000023" class="node">
<title>Node23</title>
<g id="a_Node000023"><a xlink:href="namespacefabomatic.xhtml#aaa30fd4002cc95e50c035f2d3dcdb44d" target="_top" xlink:title=" ">
<polygon fill="white" stroke="#666666" points="1074.62,-614.96 924.38,-614.96 924.38,-595.71 1074.62,-595.71 1074.62,-614.96"/>
<text text-anchor="middle" x="999.5" y="-601.46" font-family="Helvetica,sans-Serif" font-size="10.00">fabomatic::configModeCallback</text>
</a>
</g>
</g>
<!-- Node22&#45;&gt;Node23 -->
<g id="edge41_Node000022_Node000023" class="edge">
<title>Node22&#45;&gt;Node23</title>
<g id="a_edge41_Node000022_Node000023"><a xlink:title=" ">
<path fill="none" stroke="#63b8ff" d="M1157.14,-442.31C1138.37,-483.75 1100.85,-562.09 1077.25,-581.33 1069.89,-587.33 1061.03,-591.84 1051.98,-595.22"/>
<polygon fill="#63b8ff" stroke="#63b8ff" points="1160.29,-443.86 1161.19,-433.3 1153.9,-440.99 1160.29,-443.86"/>
</a>
</g>
</g>
<!-- Node24 -->
<g id="Node000024" class="node">
<title>Node24</title>
<g id="a_Node000024"><a xlink:href="namespacefabomatic.xhtml#abb6b42355a3cffaa13e06fd3fea763b2" target="_top" xlink:title="Open the ArduinoOTA configuration portal.">
<polygon fill="white" stroke="#666666" points="885.75,-576.96 749,-576.96 749,-557.71 885.75,-557.71 885.75,-576.96"/>
<text text-anchor="middle" x="817.38" y="-563.46" font-family="Helvetica,sans-Serif" font-size="10.00">fabomatic::openConfigPortal</text>
</a>
</g>
</g>
<!-- Node22&#45;&gt;Node24 -->
<g id="edge47_Node000022_Node000024" class="edge">
<title>Node22&#45;&gt;Node24</title>
<g id="a_edge47_Node000022_Node000024"><a xlink:title=" ">
<path fill="none" stroke="#63b8ff" d="M1158.78,-442.51C1145.5,-473.73 1118.63,-524.68 1077.25,-548.33 1018.27,-582.05 938.98,-582.64 883.76,-577.44"/>
<polygon fill="#63b8ff" stroke="#63b8ff" points="1161.96,-443.96 1162.49,-433.38 1155.48,-441.33 1161.96,-443.96"/>
</a>
</g>
</g>
<!-- Node25 -->
<g id="Node000025" class="node">
<title>Node25</title>
<g id="a_Node000025"><a xlink:href="main_8cpp.xhtml#a4fc01d736fe50cf5b977f755b675f11d" target="_top" xlink:title=" ">
<polygon fill="white" stroke="#666666" points="663.12,-444.96 623.12,-444.96 623.12,-425.71 663.12,-425.71 663.12,-444.96"/>
<text text-anchor="middle" x="643.12" y="-431.46" font-family="Helvetica,sans-Serif" font-size="10.00">setup</text>
</a>
</g>
</g>
<!-- Node22&#45;&gt;Node25 -->
<g id="edge48_Node000022_Node000025" class="edge">
<title>Node22&#45;&gt;Node25</title>
<g id="a_edge48_Node000022_Node000025"><a xlink:title=" ">
<path fill="none" stroke="#63b8ff" d="M1101.75,-418.76C981.38,-423.12 734.2,-432.07 663.44,-434.63"/>
<polygon fill="#63b8ff" stroke="#63b8ff" points="1101.61,-422.26 1111.48,-418.4 1101.36,-415.27 1101.61,-422.26"/>
</a>
</g>
</g>
<!-- Node27 -->
<g id="Node000027" class="node">
<title>Node27</title>
<g id="a_Node000027"><a xlink:href="namespacefabomatic.xhtml#a53440db527e478f13eaa71bbd46120c3" target="_top" xlink:title="Initialization of the Arduino OTA library with settings for fabomatic.">
<polygon fill="white" stroke="#666666" points="871.12,-463.96 763.62,-463.96 763.62,-444.71 871.12,-444.71 871.12,-463.96"/>
<text text-anchor="middle" x="817.38" y="-450.46" font-family="Helvetica,sans-Serif" font-size="10.00">fabomatic::setupOTA</text>
</a>
</g>
</g>
<!-- Node22&#45;&gt;Node27 -->
<g id="edge49_Node000022_Node000027" class="edge">
<title>Node22&#45;&gt;Node27</title>
<g id="a_edge49_Node000022_Node000027"><a xlink:title=" ">
<path fill="none" stroke="#63b8ff" d="M1101.91,-427.03C1093.62,-428.22 1085.24,-429.35 1077.25,-430.33 1006.24,-439.06 923.93,-446.18 871.52,-450.34"/>
<polygon fill="#63b8ff" stroke="#63b8ff" points="1102.25,-430.52 1111.63,-425.6 1101.23,-423.59 1102.25,-430.52"/>
</a>
</g>
</g>
<!-- Node28 -->
<g id="Node000028" class="node">
<title>Node28</title>
<g id="a_Node000028"><a xlink:href="namespacefabomatic.xhtml#ae7de89faffd3bb8805727b8a1092a198" target="_top" xlink:title="Opens WiFi and server connection and updates board state accordingly.">
<polygon fill="white" stroke="#666666" points="876.38,-387.96 758.38,-387.96 758.38,-368.71 876.38,-368.71 876.38,-387.96"/>
<text text-anchor="middle" x="817.38" y="-374.46" font-family="Helvetica,sans-Serif" font-size="10.00">fabomatic::taskConnect</text>
</a>
</g>
</g>
<!-- Node22&#45;&gt;Node28 -->
<g id="edge51_Node000022_Node000028" class="edge">
<title>Node22&#45;&gt;Node28</title>
<g id="a_edge51_Node000022_Node000028"><a xlink:title=" ">
<path fill="none" stroke="#63b8ff" d="M1101.91,-405.64C1093.62,-404.45 1085.24,-403.32 1077.25,-402.33 1008.59,-393.9 929.37,-386.96 876.83,-382.75"/>
<polygon fill="#63b8ff" stroke="#63b8ff" points="1101.23,-409.08 1111.63,-407.07 1102.25,-402.15 1101.23,-409.08"/>
</a>
</g>
</g>
<!-- Node29 -->
<g id="Node000029" class="node">
<title>Node29</title>
<g id="a_Node000029"><a xlink:href="namespacefabomatic.xhtml#a86a02975f3cc660ebccdde8f217aa035" target="_top" xlink:title="periodic check if the machine must be powered off">
<polygon fill="white" stroke="#666666" points="1077.25,-538.96 921.75,-538.96 921.75,-519.71 1077.25,-519.71 1077.25,-538.96"/>
<text text-anchor="middle" x="999.5" y="-525.46" font-family="Helvetica,sans-Serif" font-size="10.00">fabomatic::taskPoweroffWarning</text>
</a>
</g>
</g>
<!-- Node22&#45;&gt;Node29 -->
<g id="edge53_Node000022_Node000029" class="edge">
<title>Node22&#45;&gt;Node29</title>
<g id="a_edge53_Node000022_Node000029"><a xlink:title=" ">
<path fill="none" stroke="#63b8ff" d="M1151.59,-440.81C1135.09,-462.64 1108.08,-493.78 1077.25,-511.33 1071.66,-514.52 1065.54,-517.14 1059.26,-519.3"/>
<polygon fill="#63b8ff" stroke="#63b8ff" points="1154.21,-443.16 1157.31,-433.02 1148.57,-439.01 1154.21,-443.16"/>
</a>
</g>
</g>
<!-- Node30 -->
<g id="Node000030" class="node">
<title>Node30</title>
<g id="a_Node000030"><a xlink:href="namespacefabomatic.xhtml#a525d1f233a2f797801a9a659c5044cb7" target="_top" xlink:title="checks the RFID chip status and re&#45;init it if necessary.">
<polygon fill="white" stroke="#666666" points="1070.5,-501.96 928.5,-501.96 928.5,-482.71 1070.5,-482.71 1070.5,-501.96"/>
<text text-anchor="middle" x="999.5" y="-488.46" font-family="Helvetica,sans-Serif" font-size="10.00">fabomatic::taskRfidWatchdog</text>
</a>
</g>
</g>
<!-- Node22&#45;&gt;Node30 -->
<g id="edge54_Node000022_Node000030" class="edge">
<title>Node22&#45;&gt;Node30</title>
<g id="a_edge54_Node000022_Node000030"><a xlink:title=" ">
<path fill="none" stroke="#63b8ff" d="M1135.11,-437.71C1118.21,-447.89 1097.12,-459.69 1077.25,-468.33 1064.83,-473.74 1050.8,-478.49 1038.17,-482.31"/>
<polygon fill="#63b8ff" stroke="#63b8ff" points="1136.55,-440.93 1143.25,-432.73 1132.9,-434.96 1136.55,-440.93"/>
</a>
</g>
</g>
<!-- Node22&#45;&gt;Node31 -->
<g id="edge55_Node000022_Node000031" class="edge">
<title>Node22&#45;&gt;Node31</title>
<g id="a_edge55_Node000022_Node000031"><a xlink:title=" ">
<path fill="none" stroke="#63b8ff" d="M1156.78,-442.19C1145.45,-467.03 1127.96,-505.65 1113.25,-539.33 1096.83,-576.93 1107.64,-596.77 1077.25,-624.33 1070.32,-630.62 1061.76,-635.26 1052.9,-638.68"/>
<polygon fill="#63b8ff" stroke="#63b8ff" points="1159.92,-443.75 1160.89,-433.19 1153.55,-440.84 1159.92,-443.75"/>
</a>
</g>
</g>
<!-- Node32 -->
<g id="Node000032" class="node">
<title>Node32</title>
<g id="a_Node000032"><a xlink:href="namespacefabomatic_1_1tests.xhtml#a88a4242d48bfa4a0337df522d303c367" target="_top" xlink:title="Opens WiFi and server connection and updates board state accordingly.">
<polygon fill="white" stroke="#666666" points="1052.5,-350.58 946.5,-350.58 946.5,-320.08 1052.5,-320.08 1052.5,-350.58"/>
<text text-anchor="start" x="954.5" y="-337.08" font-family="Helvetica,sans-Serif" font-size="10.00">fabomatic::tests::test</text>
<text text-anchor="middle" x="999.5" y="-325.83" font-family="Helvetica,sans-Serif" font-size="10.00">_taskConnect</text>
</a>
</g>
</g>
<!-- Node22&#45;&gt;Node32 -->
<g id="edge57_Node000022_Node000032" class="edge">
<title>Node22&#45;&gt;Node32</title>
<g id="a_edge57_Node000022_Node000032"><a xlink:title=" ">
<path fill="none" stroke="#63b8ff" d="M1134.17,-395.03C1117.34,-385.07 1096.58,-373.42 1077.25,-364.33 1067.19,-359.61 1056.14,-355.07 1045.63,-351.04"/>
<polygon fill="#63b8ff" stroke="#63b8ff" points="1131.91,-397.76 1142.29,-399.9 1135.51,-391.76 1131.91,-397.76"/>
</a>
</g>
</g>
<!-- Node23&#45;&gt;Node24 -->
<g id="edge42_Node000023_Node000024" class="edge">
<title>Node23&#45;&gt;Node24</title>
<g id="a_edge42_Node000023_Node000024"><a xlink:title=" ">
<path fill="none" stroke="#63b8ff" d="M939.66,-592.92C915.82,-587.89 888.65,-582.16 866.08,-577.4"/>
<polygon fill="#63b8ff" stroke="#63b8ff" points="938.71,-596.3 949.22,-594.94 940.16,-589.45 938.71,-596.3"/>
</a>
</g>
</g>
<!-- Node24&#45;&gt;Node25 -->
<g id="edge43_Node000024_Node000025" class="edge">
<title>Node24&#45;&gt;Node25</title>
<g id="a_edge43_Node000024_Node000025"><a xlink:title=" ">
<path fill="none" stroke="#63b8ff" d="M794.61,-550.66C758.36,-522.87 686.67,-467.94 657.22,-445.37"/>
<polygon fill="#63b8ff" stroke="#63b8ff" points="792.16,-553.19 802.23,-556.49 796.42,-547.63 792.16,-553.19"/>
</a>
</g>
</g>
<!-- Node26 -->
<g id="Node000026" class="node">
<title>Node26</title>
<g id="a_Node000026"><a xlink:href="namespacefabomatic.xhtml#a2c7ad2690e92eb8ab98b6fadaa4df2bd" target="_top" xlink:title=" ">
<polygon fill="white" stroke="#666666" points="713,-576.96 573.25,-576.96 573.25,-557.71 713,-557.71 713,-576.96"/>
<text text-anchor="middle" x="643.12" y="-563.46" font-family="Helvetica,sans-Serif" font-size="10.00">fabomatic::taskFactoryReset</text>
</a>
</g>
</g>
<!-- Node24&#45;&gt;Node26 -->
<g id="edge44_Node000024_Node000026" class="edge">
<title>Node24&#45;&gt;Node26</title>
<g id="a_edge44_Node000024_Node000026"><a xlink:title=" ">
<path fill="none" stroke="#63b8ff" d="M737.54,-567.33C729.51,-567.33 721.41,-567.33 713.5,-567.33"/>
<polygon fill="#63b8ff" stroke="#63b8ff" points="737.28,-570.83 747.28,-567.33 737.28,-563.83 737.28,-570.83"/>
</a>
</g>
</g>
<!-- Node27&#45;&gt;Node25 -->
<g id="edge50_Node000027_Node000025" class="edge">
<title>Node27&#45;&gt;Node25</title>
<g id="a_edge50_Node000027_Node000025"><a xlink:title=" ">
<path fill="none" stroke="#63b8ff" d="M751.87,-447.22C720.29,-443.74 684.56,-439.79 663.21,-437.44"/>
<polygon fill="#63b8ff" stroke="#63b8ff" points="751.46,-450.7 761.78,-448.31 752.23,-443.74 751.46,-450.7"/>
</a>
</g>
</g>
<!-- Node28&#45;&gt;Node25 -->
<g id="edge52_Node000028_Node000025" class="edge">
<title>Node28&#45;&gt;Node25</title>
<g id="a_edge52_Node000028_Node000025"><a xlink:title=" ">
<path fill="none" stroke="#63b8ff" d="M775.5,-391.86C740.13,-403.57 690.54,-419.98 663.53,-428.91"/>
<polygon fill="#63b8ff" stroke="#63b8ff" points="776.15,-395.33 784.54,-388.87 773.95,-388.69 776.15,-395.33"/>
</a>
</g>
</g>
<!-- Node31&#45;&gt;Node8 -->
<g id="edge56_Node000031_Node000008" class="edge">
<title>Node31&#45;&gt;Node8</title>
<g id="a_edge56_Node000031_Node000008"><a xlink:title=" ">
<path fill="none" stroke="#63b8ff" d="M934.63,-641.98C863.74,-635.48 745.87,-626.33 644.12,-626.33 644.12,-626.33 644.12,-626.33 301.88,-626.33 189.82,-626.33 149.79,-598.66 76,-514.33 35.32,-467.84 24.43,-389.95 21.78,-362.38"/>
<polygon fill="#63b8ff" stroke="#63b8ff" points="934.24,-645.46 944.52,-642.9 934.89,-638.49 934.24,-645.46"/>
</a>
</g>
</g>
</g>
</svg>
