<?xml version="1.0" encoding="UTF-8" standalone="no"?>
<!DOCTYPE svg PUBLIC "-//W3C//DTD SVG 1.1//EN"
 "http://www.w3.org/Graphics/SVG/1.1/DTD/svg11.dtd">
<!-- Generated by graphviz version 9.0.0 (20230911.1827)
 -->
<!-- Title: fabomatic::BoardLogic::logout Pages: 1 -->
<svg width="1016pt" height="387pt"
 viewBox="0.00 0.00 1015.50 387.25" xmlns="http://www.w3.org/2000/svg" xmlns:xlink="http://www.w3.org/1999/xlink">
<g id="graph0" class="graph" transform="scale(1 1) rotate(0) translate(4 383.25)">
<title>fabomatic::BoardLogic::logout</title>
<!-- Node1 -->
<g id="Node000001" class="node">
<title>Node1</title>
<g id="a_Node000001"><a xlink:title="Removes the current machine user and changes the status to LoggedOut.">
<polygon fill="#999999" stroke="#666666" points="1007.5,-175.5 894.75,-175.5 894.75,-145 1007.5,-145 1007.5,-175.5"/>
<text text-anchor="start" x="902.75" y="-162" font-family="Helvetica,sans-Serif" font-size="10.00">fabomatic::BoardLogic</text>
<text text-anchor="middle" x="951.12" y="-150.75" font-family="Helvetica,sans-Serif" font-size="10.00">::logout</text>
</a>
</g>
</g>
<!-- Node2 -->
<g id="Node000002" class="node">
<title>Node2</title>
<g id="a_Node000002"><a xlink:href="namespacefabomatic_1_1tests.xhtml#a6a7645a865dc822746f972ea6f43224d" target="_top" xlink:title="Resets machine to initial state, clearing flags.">
<polygon fill="white" stroke="#666666" points="375,-274.88 230.75,-274.88 230.75,-255.62 375,-255.62 375,-274.88"/>
<text text-anchor="middle" x="302.88" y="-261.38" font-family="Helvetica,sans-Serif" font-size="10.00">fabomatic::tests::machine_init</text>
</a>
</g>
</g>
<!-- Node1&#45;&gt;Node2 -->
<g id="edge1_Node000001_Node000002" class="edge">
<title>Node1&#45;&gt;Node2</title>
<g id="a_edge1_Node000001_Node000002"><a xlink:title=" ">
<path fill="none" stroke="#63b8ff" d="M905.29,-180.1C890.68,-185.98 874.22,-191.98 858.75,-196.25 689.38,-243.01 482.13,-258.14 375.23,-262.99"/>
<polygon fill="#63b8ff" stroke="#63b8ff" points="906.26,-183.49 914.17,-176.45 903.59,-177.02 906.26,-183.49"/>
</a>
</g>
</g>
<!-- Node7 -->
<g id="Node000007" class="node">
<title>Node7</title>
<g id="a_Node000007"><a xlink:href="namespacefabomatic_1_1tests.xhtml#afa92fef9250d918ee02c79dbf2de2546" target="_top" xlink:title=" ">
<polygon fill="white" stroke="#666666" points="188.38,-354.5 82.38,-354.5 82.38,-324 188.38,-324 188.38,-354.5"/>
<text text-anchor="start" x="90.38" y="-341" font-family="Helvetica,sans-Serif" font-size="10.00">fabomatic::tests::test</text>
<text text-anchor="middle" x="135.38" y="-329.75" font-family="Helvetica,sans-Serif" font-size="10.00">_user_autologoff</text>
</a>
</g>
</g>
<!-- Node1&#45;&gt;Node7 -->
<g id="edge28_Node000001_Node000007" class="edge">
<title>Node1&#45;&gt;Node7</title>
<g id="a_edge28_Node000001_Node000007"><a xlink:title=" ">
<path fill="none" stroke="#63b8ff" d="M931.8,-185.12C887.21,-242.5 766.67,-379.25 630.62,-379.25 630.62,-379.25 630.62,-379.25 473.12,-379.25 371.86,-379.25 254.66,-361.19 188.64,-349.34"/>
<polygon fill="#63b8ff" stroke="#63b8ff" points="934.56,-187.27 937.85,-177.2 929,-183.03 934.56,-187.27"/>
</a>
</g>
</g>
<!-- Node8 -->
<g id="Node000008" class="node">
<title>Node8</title>
<g id="a_Node000008"><a xlink:href="namespacefabomatic_1_1tests.xhtml#aab0f4e1439b281ffef8be51db9a81f9d" target="_top" xlink:title=" ">
<polygon fill="white" stroke="#666666" points="191.75,-156.5 79,-156.5 79,-126 191.75,-126 191.75,-156.5"/>
<text text-anchor="start" x="87" y="-143" font-family="Helvetica,sans-Serif" font-size="10.00">fabomatic::tests::test</text>
<text text-anchor="middle" x="135.38" y="-131.75" font-family="Helvetica,sans-Serif" font-size="10.00">_whitelist_no_network</text>
</a>
</g>
</g>
<!-- Node1&#45;&gt;Node8 -->
<g id="edge29_Node000001_Node000008" class="edge">
<title>Node1&#45;&gt;Node8</title>
<g id="a_edge29_Node000001_Node000008"><a xlink:title=" ">
<path fill="none" stroke="#63b8ff" d="M883.07,-162.7C874.88,-162.93 866.62,-163.12 858.75,-163.25 659.78,-166.52 609.32,-179.66 411,-163.25 394.83,-161.91 391.11,-159.13 375,-157.25 312.52,-149.97 240.42,-145.7 191.97,-143.43"/>
<polygon fill="#63b8ff" stroke="#63b8ff" points="883.16,-166.2 893.05,-162.41 882.95,-159.21 883.16,-166.2"/>
</a>
</g>
</g>
<!-- Node9 -->
<g id="Node000009" class="node">
<title>Node9</title>
<g id="a_Node000009"><a xlink:href="classfabomatic_1_1_board_logic.xhtml#a983c8de8b9c8881fc0a4e60dddc7f0c6" target="_top" xlink:title="Called when a RFID tag has been detected.">
<polygon fill="white" stroke="#666666" points="846.75,-154.5 734,-154.5 734,-124 846.75,-124 846.75,-154.5"/>
<text text-anchor="start" x="742" y="-141" font-family="Helvetica,sans-Serif" font-size="10.00">fabomatic::BoardLogic</text>
<text text-anchor="middle" x="790.38" y="-129.75" font-family="Helvetica,sans-Serif" font-size="10.00">::onNewCard</text>
</a>
</g>
</g>
<!-- Node1&#45;&gt;Node9 -->
<g id="edge12_Node000001_Node000009" class="edge">
<title>Node1&#45;&gt;Node9</title>
<g id="a_edge12_Node000001_Node000009"><a xlink:title=" ">
<path fill="none" stroke="#63b8ff" d="M883.23,-151.4C871.21,-149.81 858.8,-148.17 847.14,-146.63"/>
<polygon fill="#63b8ff" stroke="#63b8ff" points="882.73,-154.87 893.1,-152.71 883.65,-147.93 882.73,-154.87"/>
</a>
</g>
</g>
<!-- Node15 -->
<g id="Node000015" class="node">
<title>Node15</title>
<g id="a_Node000015"><a xlink:href="namespacefabomatic.xhtml#af8ee1c3cd4edf1a1ba27899da63b611a" target="_top" xlink:title="periodic check if the user shall be logged off">
<polygon fill="white" stroke="#666666" points="858.75,-105.88 722,-105.88 722,-86.62 858.75,-86.62 858.75,-105.88"/>
<text text-anchor="middle" x="790.38" y="-92.38" font-family="Helvetica,sans-Serif" font-size="10.00">fabomatic::taskLogoffCheck</text>
</a>
</g>
</g>
<!-- Node1&#45;&gt;Node15 -->
<g id="edge26_Node000001_Node000015" class="edge">
<title>Node1&#45;&gt;Node15</title>
<g id="a_edge26_Node000001_Node000015"><a xlink:title=" ">
<path fill="none" stroke="#63b8ff" d="M911.82,-139.44C895.73,-131.21 876.63,-122.11 858.75,-115.25 850.13,-111.94 840.68,-108.92 831.67,-106.31"/>
<polygon fill="#63b8ff" stroke="#63b8ff" points="910.09,-142.48 920.58,-143.99 913.32,-136.27 910.09,-142.48"/>
</a>
</g>
</g>
<!-- Node16 -->
<g id="Node000016" class="node">
<title>Node16</title>
<g id="a_Node000016"><a xlink:href="namespacefabomatic_1_1tests.xhtml#a7cd22311b16fc7c256a30ba4c2f6f387" target="_top" xlink:title="blink led">
<polygon fill="white" stroke="#666666" points="843.38,-68.5 737.38,-68.5 737.38,-38 843.38,-38 843.38,-68.5"/>
<text text-anchor="start" x="745.38" y="-55" font-family="Helvetica,sans-Serif" font-size="10.00">fabomatic::tests::test</text>
<text text-anchor="middle" x="790.38" y="-43.75" font-family="Helvetica,sans-Serif" font-size="10.00">_taskVarious</text>
</a>
</g>
</g>
<!-- Node1&#45;&gt;Node16 -->
<g id="edge27_Node000001_Node000016" class="edge">
<title>Node1&#45;&gt;Node16</title>
<g id="a_edge27_Node000001_Node000016"><a xlink:title=" ">
<path fill="none" stroke="#63b8ff" d="M928.91,-136.39C911.57,-118.1 885.61,-93.34 858.75,-77.25 853.64,-74.19 848.07,-71.43 842.41,-68.97"/>
<polygon fill="#63b8ff" stroke="#63b8ff" points="926.3,-138.72 935.67,-143.67 931.43,-133.96 926.3,-138.72"/>
</a>
</g>
</g>
<!-- Node3 -->
<g id="Node000003" class="node">
<title>Node3</title>
<g id="a_Node000003"><a xlink:href="namespacefabomatic_1_1tests.xhtml#a558e2287db01a4622581246a19dac397" target="_top" xlink:title=" ">
<polygon fill="white" stroke="#666666" points="188.38,-254.5 82.38,-254.5 82.38,-224 188.38,-224 188.38,-254.5"/>
<text text-anchor="start" x="90.38" y="-241" font-family="Helvetica,sans-Serif" font-size="10.00">fabomatic::tests::test</text>
<text text-anchor="middle" x="135.38" y="-229.75" font-family="Helvetica,sans-Serif" font-size="10.00">_machine_allowed</text>
</a>
</g>
</g>
<!-- Node2&#45;&gt;Node3 -->
<g id="edge2_Node000002_Node000003" class="edge">
<title>Node2&#45;&gt;Node3</title>
<g id="a_edge2_Node000002_Node000003"><a xlink:title=" ">
<path fill="none" stroke="#63b8ff" d="M226.7,-253.44C213.85,-251.42 200.76,-249.37 188.68,-247.47"/>
<polygon fill="#63b8ff" stroke="#63b8ff" points="225.97,-256.87 236.39,-254.96 227.06,-249.95 225.97,-256.87"/>
</a>
</g>
</g>
<!-- Node5 -->
<g id="Node000005" class="node">
<title>Node5</title>
<g id="a_Node000005"><a xlink:href="namespacefabomatic_1_1tests.xhtml#a9a34631c2dc01cbdbbce146895c94e12" target="_top" xlink:title=" ">
<polygon fill="white" stroke="#666666" points="194.75,-205.5 76,-205.5 76,-175 194.75,-175 194.75,-205.5"/>
<text text-anchor="start" x="84" y="-192" font-family="Helvetica,sans-Serif" font-size="10.00">fabomatic::tests::test</text>
<text text-anchor="middle" x="135.38" y="-180.75" font-family="Helvetica,sans-Serif" font-size="10.00">_machine_maintenance</text>
</a>
</g>
</g>
<!-- Node2&#45;&gt;Node5 -->
<g id="edge4_Node000002_Node000005" class="edge">
<title>Node2&#45;&gt;Node5</title>
<g id="a_edge4_Node000002_Node000005"><a xlink:title=" ">
<path fill="none" stroke="#63b8ff" d="M270.64,-250.35C249.33,-240.26 220.44,-226.74 194.75,-215.25 187.91,-212.19 180.58,-208.99 173.51,-205.94"/>
<polygon fill="#63b8ff" stroke="#63b8ff" points="269.13,-253.5 279.66,-254.63 272.13,-247.18 269.13,-253.5"/>
</a>
</g>
</g>
<!-- Node6 -->
<g id="Node000006" class="node">
<title>Node6</title>
<g id="a_Node000006"><a xlink:href="namespacefabomatic_1_1tests.xhtml#a6f3dff17fd964aba76c35c514957a0a5" target="_top" xlink:title=" ">
<polygon fill="white" stroke="#666666" points="189.88,-303.5 80.88,-303.5 80.88,-273 189.88,-273 189.88,-303.5"/>
<text text-anchor="start" x="88.88" y="-290" font-family="Helvetica,sans-Serif" font-size="10.00">fabomatic::tests::test</text>
<text text-anchor="middle" x="135.38" y="-278.75" font-family="Helvetica,sans-Serif" font-size="10.00">_one_user_at_a_time</text>
</a>
</g>
</g>
<!-- Node2&#45;&gt;Node6 -->
<g id="edge6_Node000002_Node000006" class="edge">
<title>Node2&#45;&gt;Node6</title>
<g id="a_edge6_Node000002_Node000006"><a xlink:title=" ">
<path fill="none" stroke="#63b8ff" d="M219.52,-276.69C209.57,-278.08 199.61,-279.46 190.22,-280.77"/>
<polygon fill="#63b8ff" stroke="#63b8ff" points="219.81,-280.19 229.23,-275.35 218.84,-273.26 219.81,-280.19"/>
</a>
</g>
</g>
<!-- Node2&#45;&gt;Node7 -->
<g id="edge8_Node000002_Node000007" class="edge">
<title>Node2&#45;&gt;Node7</title>
<g id="a_edge8_Node000002_Node000007"><a xlink:title=" ">
<path fill="none" stroke="#63b8ff" d="M269.39,-279.77C241.13,-292.41 200.27,-310.68 171.31,-323.63"/>
<polygon fill="#63b8ff" stroke="#63b8ff" points="270.47,-283.12 278.17,-275.85 267.62,-276.73 270.47,-283.12"/>
</a>
</g>
</g>
<!-- Node2&#45;&gt;Node8 -->
<g id="edge10_Node000002_Node000008" class="edge">
<title>Node2&#45;&gt;Node8</title>
<g id="a_edge10_Node000002_Node000008"><a xlink:title=" ">
<path fill="none" stroke="#63b8ff" d="M285.87,-247.07C266.15,-225.54 230.82,-189.64 194.75,-166.25 189.48,-162.83 183.66,-159.69 177.8,-156.89"/>
<polygon fill="#63b8ff" stroke="#63b8ff" points="283.02,-249.13 292.31,-254.22 288.22,-244.45 283.02,-249.13"/>
</a>
</g>
</g>
<!-- Node4 -->
<g id="Node000004" class="node">
<title>Node4</title>
<g id="a_Node000004"><a xlink:href="test__logic_8cpp.xhtml#a4fc01d736fe50cf5b977f755b675f11d" target="_top" xlink:title=" ">
<polygon fill="white" stroke="#666666" points="40,-223.88 0,-223.88 0,-204.62 40,-204.62 40,-223.88"/>
<text text-anchor="middle" x="20" y="-210.38" font-family="Helvetica,sans-Serif" font-size="10.00">setup</text>
</a>
</g>
</g>
<!-- Node3&#45;&gt;Node4 -->
<g id="edge3_Node000003_Node000004" class="edge">
<title>Node3&#45;&gt;Node4</title>
<g id="a_edge3_Node000003_Node000004"><a xlink:title=" ">
<path fill="none" stroke="#63b8ff" d="M70.85,-225.24C59.76,-222.8 49.01,-220.43 40.36,-218.52"/>
<polygon fill="#63b8ff" stroke="#63b8ff" points="70,-228.64 80.52,-227.38 71.51,-221.8 70,-228.64"/>
</a>
</g>
</g>
<!-- Node5&#45;&gt;Node4 -->
<g id="edge5_Node000005_Node000004" class="edge">
<title>Node5&#45;&gt;Node4</title>
<g id="a_edge5_Node000005_Node000004"><a xlink:title=" ">
<path fill="none" stroke="#63b8ff" d="M64.44,-205.05C55.69,-206.91 47.39,-208.66 40.43,-210.14"/>
<polygon fill="#63b8ff" stroke="#63b8ff" points="65.16,-208.48 74.21,-202.99 63.71,-201.63 65.16,-208.48"/>
</a>
</g>
</g>
<!-- Node6&#45;&gt;Node4 -->
<g id="edge7_Node000006_Node000004" class="edge">
<title>Node6&#45;&gt;Node4</title>
<g id="a_edge7_Node000006_Node000004"><a xlink:title=" ">
<path fill="none" stroke="#63b8ff" d="M82.96,-267.37C80.57,-266.05 78.24,-264.67 76,-263.25 58.3,-252 40.71,-235.05 30.35,-224.33"/>
<polygon fill="#63b8ff" stroke="#63b8ff" points="81.17,-270.39 91.66,-271.84 84.36,-264.16 81.17,-270.39"/>
</a>
</g>
</g>
<!-- Node7&#45;&gt;Node4 -->
<g id="edge9_Node000007_Node000004" class="edge">
<title>Node7&#45;&gt;Node4</title>
<g id="a_edge9_Node000007_Node000004"><a xlink:title=" ">
<path fill="none" stroke="#63b8ff" d="M82.55,-317.59C80.24,-315.92 78.04,-314.14 76,-312.25 48.21,-286.55 30.95,-243.52 24.23,-224.19"/>
<polygon fill="#63b8ff" stroke="#63b8ff" points="80.27,-320.29 90.59,-322.69 84.02,-314.38 80.27,-320.29"/>
</a>
</g>
</g>
<!-- Node8&#45;&gt;Node4 -->
<g id="edge11_Node000008_Node000004" class="edge">
<title>Node8&#45;&gt;Node4</title>
<g id="a_edge11_Node000008_Node000004"><a xlink:title=" ">
<path fill="none" stroke="#63b8ff" d="M83.1,-162.09C80.66,-163.43 78.28,-164.81 76,-166.25 58.4,-177.31 40.78,-193.9 30.39,-204.39"/>
<polygon fill="#63b8ff" stroke="#63b8ff" points="84.67,-165.21 92,-157.56 81.5,-158.98 84.67,-165.21"/>
</a>
</g>
</g>
<!-- Node10 -->
<g id="Node000010" class="node">
<title>Node10</title>
<g id="a_Node000010"><a xlink:href="classfabomatic_1_1_board_logic.xhtml#a25bdc3a49d850aa49f92faf951b68efb" target="_top" xlink:title="Checks if a new card is present.">
<polygon fill="white" stroke="#666666" points="686,-154.5 573.25,-154.5 573.25,-124 686,-124 686,-154.5"/>
<text text-anchor="start" x="581.25" y="-141" font-family="Helvetica,sans-Serif" font-size="10.00">fabomatic::BoardLogic</text>
<text text-anchor="middle" x="629.62" y="-129.75" font-family="Helvetica,sans-Serif" font-size="10.00">::checkRfid</text>
</a>
</g>
</g>
<!-- Node9&#45;&gt;Node10 -->
<g id="edge13_Node000009_Node000010" class="edge">
<title>Node9&#45;&gt;Node10</title>
<g id="a_edge13_Node000009_Node000010"><a xlink:title=" ">
<path fill="none" stroke="#63b8ff" d="M722.48,-139.25C710.46,-139.25 698.05,-139.25 686.39,-139.25"/>
<polygon fill="#63b8ff" stroke="#63b8ff" points="722.34,-142.75 732.34,-139.25 722.34,-135.75 722.34,-142.75"/>
</a>
</g>
</g>
<!-- Node10&#45;&gt;Node8 -->
<g id="edge25_Node000010_Node000008" class="edge">
<title>Node10&#45;&gt;Node8</title>
<g id="a_edge25_Node000010_Node000008"><a xlink:title=" ">
<path fill="none" stroke="#63b8ff" d="M604.06,-116.55C586.8,-102.2 562.37,-84.97 537.25,-77.25 406.7,-37.14 362.37,-62.81 230.75,-99.25 207.94,-105.57 183.56,-116.54 165.29,-125.68"/>
<polygon fill="#63b8ff" stroke="#63b8ff" points="601.39,-118.87 611.26,-122.73 605.95,-113.56 601.39,-118.87"/>
</a>
</g>
</g>
<!-- Node11 -->
<g id="Node000011" class="node">
<title>Node11</title>
<g id="a_Node000011"><a xlink:href="namespacefabomatic_1_1tests.xhtml#a2600320f41c9fa343c66058ecb12b5ee" target="_top" xlink:title="Simulates RFID card tap.">
<polygon fill="white" stroke="#666666" points="537.25,-240.5 411,-240.5 411,-210 537.25,-210 537.25,-240.5"/>
<text text-anchor="start" x="419" y="-227" font-family="Helvetica,sans-Serif" font-size="10.00">fabomatic::tests::simulate</text>
<text text-anchor="middle" x="474.12" y="-215.75" font-family="Helvetica,sans-Serif" font-size="10.00">_rfid_card</text>
</a>
</g>
</g>
<!-- Node10&#45;&gt;Node11 -->
<g id="edge14_Node000010_Node000011" class="edge">
<title>Node10&#45;&gt;Node11</title>
<g id="a_edge14_Node000010_Node000011"><a xlink:title=" ">
<path fill="none" stroke="#63b8ff" d="M590.91,-160.38C563.81,-175.56 527.85,-195.71 503.23,-209.5"/>
<polygon fill="#63b8ff" stroke="#63b8ff" points="592.49,-163.5 599.51,-155.56 589.07,-157.4 592.49,-163.5"/>
</a>
</g>
</g>
<!-- Node13 -->
<g id="Node000013" class="node">
<title>Node13</title>
<g id="a_Node000013"><a xlink:href="namespacefabomatic.xhtml#a3e5c190499522bddad3f3cc69274f16c" target="_top" xlink:title="periodic check for new RFID card">
<polygon fill="white" stroke="#666666" points="537.25,-153.88 411,-153.88 411,-134.62 537.25,-134.62 537.25,-153.88"/>
<text text-anchor="middle" x="474.12" y="-140.38" font-family="Helvetica,sans-Serif" font-size="10.00">fabomatic::taskCheckRfid</text>
</a>
</g>
</g>
<!-- Node10&#45;&gt;Node13 -->
<g id="edge23_Node000010_Node000013" class="edge">
<title>Node10&#45;&gt;Node13</title>
<g id="a_edge23_Node000010_Node000013"><a xlink:title=" ">
<path fill="none" stroke="#63b8ff" d="M561.38,-141.44C553.5,-141.7 545.49,-141.96 537.69,-142.21"/>
<polygon fill="#63b8ff" stroke="#63b8ff" points="561.38,-144.94 571.26,-141.12 561.15,-137.95 561.38,-144.94"/>
</a>
</g>
</g>
<!-- Node14 -->
<g id="Node000014" class="node">
<title>Node14</title>
<g id="a_Node000014"><a xlink:href="namespacefabomatic_1_1tests.xhtml#a294b4767ecf1e1d11cc31dafb2541d23" target="_top" xlink:title="periodic check for new RFID card">
<polygon fill="white" stroke="#666666" points="527.12,-116.5 421.12,-116.5 421.12,-86 527.12,-86 527.12,-116.5"/>
<text text-anchor="start" x="429.12" y="-103" font-family="Helvetica,sans-Serif" font-size="10.00">fabomatic::tests::test</text>
<text text-anchor="middle" x="474.12" y="-91.75" font-family="Helvetica,sans-Serif" font-size="10.00">_taskCheckRfid</text>
</a>
</g>
</g>
<!-- Node10&#45;&gt;Node14 -->
<g id="edge24_Node000010_Node000014" class="edge">
<title>Node10&#45;&gt;Node14</title>
<g id="a_edge24_Node000010_Node000014"><a xlink:title=" ">
<path fill="none" stroke="#63b8ff" d="M561.9,-122.73C550.42,-119.89 538.65,-116.97 527.61,-114.24"/>
<polygon fill="#63b8ff" stroke="#63b8ff" points="560.76,-126.05 571.3,-125.06 562.44,-119.26 560.76,-126.05"/>
</a>
</g>
</g>
<!-- Node11&#45;&gt;Node2 -->
<g id="edge15_Node000011_Node000002" class="edge">
<title>Node11&#45;&gt;Node2</title>
<g id="a_edge15_Node000011_Node000002"><a xlink:title=" ">
<path fill="none" stroke="#63b8ff" d="M399.46,-242.66C381.41,-246.92 362.69,-251.35 346.64,-255.14"/>
<polygon fill="#63b8ff" stroke="#63b8ff" points="400.18,-246.09 409.11,-240.38 398.57,-239.27 400.18,-246.09"/>
</a>
</g>
</g>
<!-- Node11&#45;&gt;Node3 -->
<g id="edge16_Node000011_Node000003" class="edge">
<title>Node11&#45;&gt;Node3</title>
<g id="a_edge16_Node000011_Node000003"><a xlink:title=" ">
<path fill="none" stroke="#63b8ff" d="M399.4,-228.32C335.67,-230.96 245.16,-234.73 188.65,-237.08"/>
<polygon fill="#63b8ff" stroke="#63b8ff" points="399.22,-231.83 409.06,-227.91 398.93,-224.83 399.22,-231.83"/>
</a>
</g>
</g>
<!-- Node11&#45;&gt;Node5 -->
<g id="edge17_Node000011_Node000005" class="edge">
<title>Node11&#45;&gt;Node5</title>
<g id="a_edge17_Node000011_Node000005"><a xlink:title=" ">
<path fill="none" stroke="#63b8ff" d="M399.43,-217.59C338.11,-211.22 251.98,-202.27 195.21,-196.36"/>
<polygon fill="#63b8ff" stroke="#63b8ff" points="398.76,-221.04 409.07,-218.59 399.48,-214.08 398.76,-221.04"/>
</a>
</g>
</g>
<!-- Node11&#45;&gt;Node6 -->
<g id="edge20_Node000011_Node000006" class="edge">
<title>Node11&#45;&gt;Node6</title>
<g id="a_edge20_Node000011_Node000006"><a xlink:title=" ">
<path fill="none" stroke="#63b8ff" d="M445.18,-247.51C426.5,-260.96 400.71,-276.88 375,-284.25 313.46,-301.88 239.29,-299.69 190.14,-295.18"/>
<polygon fill="#63b8ff" stroke="#63b8ff" points="447.11,-250.44 453.05,-241.67 442.94,-244.82 447.11,-250.44"/>
</a>
</g>
</g>
<!-- Node11&#45;&gt;Node7 -->
<g id="edge21_Node000011_Node000007" class="edge">
<title>Node11&#45;&gt;Node7</title>
<g id="a_edge21_Node000011_Node000007"><a xlink:title=" ">
<path fill="none" stroke="#63b8ff" d="M451.24,-249.13C432.79,-267.63 404.72,-292.23 375,-305.25 314.82,-331.6 238.7,-338.42 188.83,-339.75"/>
<polygon fill="#63b8ff" stroke="#63b8ff" points="453.74,-251.57 458.19,-241.95 448.72,-246.7 453.74,-251.57"/>
</a>
</g>
</g>
<!-- Node11&#45;&gt;Node8 -->
<g id="edge22_Node000011_Node000008" class="edge">
<title>Node11&#45;&gt;Node8</title>
<g id="a_edge22_Node000011_Node000008"><a xlink:title=" ">
<path fill="none" stroke="#63b8ff" d="M411.27,-206.35C399.27,-202.86 386.77,-199.34 375,-196.25 312.71,-179.88 240.57,-163.62 192.06,-153.08"/>
<polygon fill="#63b8ff" stroke="#63b8ff" points="410.07,-209.64 420.66,-209.11 412.05,-202.93 410.07,-209.64"/>
</a>
</g>
</g>
<!-- Node12 -->
<g id="Node000012" class="node">
<title>Node12</title>
<g id="a_Node000012"><a xlink:href="namespacefabomatic_1_1tests.xhtml#af8fa7ace86309b5f699540d8898660c7" target="_top" xlink:title=" ">
<polygon fill="white" stroke="#666666" points="355.88,-30.5 249.88,-30.5 249.88,0 355.88,0 355.88,-30.5"/>
<text text-anchor="start" x="257.88" y="-17" font-family="Helvetica,sans-Serif" font-size="10.00">fabomatic::tests::test</text>
<text text-anchor="middle" x="302.88" y="-5.75" font-family="Helvetica,sans-Serif" font-size="10.00">_messages_buffered</text>
</a>
</g>
</g>
<!-- Node11&#45;&gt;Node12 -->
<g id="edge18_Node000011_Node000012" class="edge">
<title>Node11&#45;&gt;Node12</title>
<g id="a_edge18_Node000011_Node000012"><a xlink:title=" ">
<path fill="none" stroke="#63b8ff" d="M447.96,-201.93C436.28,-190.66 422.46,-176.68 411,-163.25 372.08,-117.65 332.24,-58.71 314.05,-30.99"/>
<polygon fill="#63b8ff" stroke="#63b8ff" points="445.28,-204.21 454.94,-208.57 450.11,-199.14 445.28,-204.21"/>
</a>
</g>
</g>
<!-- Node12&#45;&gt;Node4 -->
<g id="edge19_Node000012_Node000004" class="edge">
<title>Node12&#45;&gt;Node4</title>
<g id="a_edge19_Node000012_Node000004"><a xlink:title=" ">
<path fill="none" stroke="#63b8ff" d="M239.01,-31.62C189.86,-47.03 122.34,-74.27 76,-117.25 48.61,-142.66 31.26,-184.89 24.38,-204.13"/>
<polygon fill="#63b8ff" stroke="#63b8ff" points="239.83,-35.03 248.38,-28.76 237.79,-28.33 239.83,-35.03"/>
</a>
</g>
</g>
</g>
</svg>
