<?xml version="1.0" encoding="UTF-8" standalone="no"?>
<!DOCTYPE svg PUBLIC "-//W3C//DTD SVG 1.1//EN"
 "http://www.w3.org/Graphics/SVG/1.1/DTD/svg11.dtd">
<!-- Generated by graphviz version 9.0.0 (20230911.1827)
 -->
<!-- Title: fabomatic::Buffer::count Pages: 1 -->
<!--zoomable 235 -->

<svg id="main" version="1.1" xmlns="http://www.w3.org/2000/svg" xmlns:xlink="http://www.w3.org/1999/xlink" xml:space="preserve" onload="init(evt)">
<style type="text/css"><![CDATA[
.node, .edge {opacity: 0.7;}
.node.selected, .edge.selected {opacity: 1;}
.edge:hover path { stroke: red; }
.edge:hover polygon { stroke: red; fill: red; }
]]></style>

<defs>
  <circle id="rim" cx="0" cy="0" r="7"/>
  <circle id="rim2" cx="0" cy="0" r="3.5"/>
  <g id="zoomPlus">
    <use xlink:href="#rim" fill="#404040"><set attributeName="fill" to="#808080" begin="zoomplus.mouseover" end="zoomplus.mouseout"/></use>
    <path d="M-4,0h8M0,-4v8" fill="none" stroke="white" stroke-width="1.5" pointer-events="none"/>
  </g>
  <g id="zoomMin">
    <use xlink:href="#rim" fill="#404040"><set attributeName="fill" to="#808080" begin="zoomminus.mouseover" end="zoomminus.mouseout"/></use>
    <path d="M-4,0h8" fill="none" stroke="white" stroke-width="1.5" pointer-events="none"/>
  </g>
  <g id="arrowUp" transform="translate(30 24)">
    <use xlink:href="#rim"/>
    <path pointer-events="none" fill="none" stroke="white" stroke-width="1.5" d="M0,-3.0v7 M-2.5,-0.5L0,-3.0L2.5,-0.5"/>
  </g>
  <g id="arrowRight" transform="rotate(90) translate(36 -43)">
    <use xlink:href="#rim"/>
    <path pointer-events="none" fill="none" stroke="white" stroke-width="1.5" d="M0,-3.0v7 M-2.5,-0.5L0,-3.0L2.5,-0.5"/>
  </g>
  <g id="arrowDown" transform="rotate(180) translate(-30 -48)">
    <use xlink:href="#rim"/>
    <path pointer-events="none" fill="none" stroke="white" stroke-width="1.5" d="M0,-3.0v7 M-2.5,-0.5L0,-3.0L2.5,-0.5"/>
  </g>
  <g id="arrowLeft" transform="rotate(270) translate(-36 17)">
    <use xlink:href="#rim"/>
    <path pointer-events="none" fill="none" stroke="white" stroke-width="1.5" d="M0,-3.0v7 M-2.5,-0.5L0,-3.0L2.5,-0.5"/>
  </g>
  <g id="resetDef">
    <use xlink:href="#rim2" fill="#404040"><set attributeName="fill" to="#808080" begin="reset.mouseover" end="reset.mouseout"/></use>
  </g>
</defs>
<script type="application/ecmascript">
var viewWidth = 506;
var viewHeight = 235;
var sectionId = 'dynsection-1';
</script>
<script type="application/ecmascript" xlink:href="svg.min.js"/>
<svg id="graph" class="graph">
<g id="viewport">
<title>fabomatic::Buffer::count</title>
<!-- Node1 -->
<g id="Node000001" class="node">
<title>Node1</title>
<g id="a_Node000001"><a xlink:title=" ">
<polygon fill="#999999" stroke="#666666" points="497.5,-73.5 404.25,-73.5 404.25,-43 497.5,-43 497.5,-73.5"/>
<text text-anchor="start" x="412.25" y="-60" font-family="Helvetica,sans-Serif" font-size="10.00">fabomatic::Buffer::</text>
<text text-anchor="middle" x="450.88" y="-48.75" font-family="Helvetica,sans-Serif" font-size="10.00">count</text>
</a>
</g>
</g>
<!-- Node2 -->
<g id="Node000002" class="node">
<title>Node2</title>
<g id="a_Node000002"><a xlink:href="classfabomatic_1_1_fab_backend.xhtml#ac80b4835d858bea27da461b18df5f570" target="_top" xlink:title=" ">
<polygon fill="white" stroke="#666666" points="368.25,-128.5 250.25,-128.5 250.25,-98 368.25,-98 368.25,-128.5"/>
<text text-anchor="start" x="258.25" y="-115" font-family="Helvetica,sans-Serif" font-size="10.00">fabomatic::FabBackend</text>
<text text-anchor="middle" x="309.25" y="-103.75" font-family="Helvetica,sans-Serif" font-size="10.00">::hasBufferedMsg</text>
</a>
</g>
</g>
<!-- Node1&#45;&gt;Node2 -->
<g id="edge1_Node000001_Node000002" class="edge">
<title>Node1&#45;&gt;Node2</title>
<g id="a_edge1_Node000001_Node000002"><a xlink:title=" ">
<path fill="none" stroke="#63b8ff" d="M399.76,-77.99C383.4,-84.44 365.47,-91.5 349.99,-97.6"/>
<polygon fill="#63b8ff" stroke="#63b8ff" points="400.81,-81.34 408.83,-74.42 398.24,-74.83 400.81,-81.34"/>
</a>
</g>
</g>
<!-- Node8 -->
<g id="Node000008" class="node">
<title>Node8</title>
<g id="a_Node000008"><a xlink:href="namespacefabomatic_1_1tests.xhtml#a4fbc6366f69847719d0f0cb626572493" target="_top" xlink:title=" ">
<polygon fill="white" stroke="#666666" points="198.12,-30.5 92.12,-30.5 92.12,0 198.12,0 198.12,-30.5"/>
<text text-anchor="start" x="100.12" y="-17" font-family="Helvetica,sans-Serif" font-size="10.00">fabomatic::tests::test</text>
<text text-anchor="middle" x="145.12" y="-5.75" font-family="Helvetica,sans-Serif" font-size="10.00">_buffered_msg</text>
</a>
</g>
</g>
<!-- Node1&#45;&gt;Node8 -->
<g id="edge9_Node000001_Node000008" class="edge">
<title>Node1&#45;&gt;Node8</title>
<g id="a_edge9_Node000001_Node000008"><a xlink:title=" ">
<path fill="none" stroke="#63b8ff" d="M392.66,-54.81C352.61,-51.92 297.95,-46.98 250.25,-39.25 233.31,-36.5 215.02,-32.61 198.56,-28.75"/>
<polygon fill="#63b8ff" stroke="#63b8ff" points="392.34,-58.3 402.56,-55.5 392.83,-51.31 392.34,-58.3"/>
</a>
</g>
</g>
<!-- Node10 -->
<g id="Node000010" class="node">
<title>Node10</title>
<g id="a_Node000010"><a xlink:href="namespacefabomatic_1_1tests.xhtml#a70d156a8423b7e9d4db345cff5eb528f" target="_top" xlink:title=" ">
<polygon fill="white" stroke="#666666" points="362.25,-30.5 256.25,-30.5 256.25,0 362.25,0 362.25,-30.5"/>
<text text-anchor="start" x="264.25" y="-17" font-family="Helvetica,sans-Serif" font-size="10.00">fabomatic::tests::test</text>
<text text-anchor="middle" x="309.25" y="-5.75" font-family="Helvetica,sans-Serif" font-size="10.00">_deserialization</text>
</a>
</g>
</g>
<!-- Node1&#45;&gt;Node10 -->
<g id="edge11_Node000001_Node000010" class="edge">
<title>Node1&#45;&gt;Node10</title>
<g id="a_edge11_Node000001_Node000010"><a xlink:title=" ">
<path fill="none" stroke="#63b8ff" d="M392.97,-40.73C382.43,-37.48 371.47,-34.11 361.12,-30.92"/>
<polygon fill="#63b8ff" stroke="#63b8ff" points="391.74,-44.01 402.32,-43.61 393.8,-37.32 391.74,-44.01"/>
</a>
</g>
</g>
<!-- Node3 -->
<g id="Node000003" class="node">
<title>Node3</title>
<g id="a_Node000003"><a xlink:href="classfabomatic_1_1_fab_backend.xhtml#aaa691642839e9196217684949621f2a4" target="_top" xlink:title="Processes a query and returns the response.">
<polygon fill="white" stroke="#666666" points="204.12,-226.5 86.12,-226.5 86.12,-196 204.12,-196 204.12,-226.5"/>
<text text-anchor="start" x="94.12" y="-213" font-family="Helvetica,sans-Serif" font-size="10.00">fabomatic::FabBackend</text>
<text text-anchor="middle" x="145.12" y="-201.75" font-family="Helvetica,sans-Serif" font-size="10.00">::processQuery</text>
</a>
</g>
</g>
<!-- Node2&#45;&gt;Node3 -->
<g id="edge2_Node000002_Node000003" class="edge">
<title>Node2&#45;&gt;Node3</title>
<g id="a_edge2_Node000002_Node000003"><a xlink:title=" ">
<path fill="none" stroke="#63b8ff" d="M283.12,-136.26C265.01,-151.94 239.41,-172.31 214.25,-186.25 208.08,-189.67 201.35,-192.79 194.6,-195.58"/>
<polygon fill="#63b8ff" stroke="#63b8ff" points="285.05,-139.22 290.24,-129.99 280.43,-133.97 285.05,-139.22"/>
</a>
</g>
</g>
<!-- Node4 -->
<g id="Node000004" class="node">
<title>Node4</title>
<g id="a_Node000004"><a xlink:href="namespacefabomatic_1_1tests.xhtml#a95c3d2a5cfa25e610ac054894d766f73" target="_top" xlink:title=" ">
<polygon fill="white" stroke="#666666" points="199.25,-177.5 91,-177.5 91,-147 199.25,-147 199.25,-177.5"/>
<text text-anchor="start" x="99" y="-164" font-family="Helvetica,sans-Serif" font-size="10.00">fabomatic::tests::test</text>
<text text-anchor="middle" x="145.12" y="-152.75" font-family="Helvetica,sans-Serif" font-size="10.00">_check_transmission</text>
</a>
</g>
</g>
<!-- Node2&#45;&gt;Node4 -->
<g id="edge3_Node000002_Node000004" class="edge">
<title>Node2&#45;&gt;Node4</title>
<g id="a_edge3_Node000002_Node000004"><a xlink:title=" ">
<path fill="none" stroke="#63b8ff" d="M245.81,-132.12C230.08,-136.87 213.37,-141.93 198.21,-146.51"/>
<polygon fill="#63b8ff" stroke="#63b8ff" points="246.5,-135.57 255.06,-129.33 244.47,-128.87 246.5,-135.57"/>
</a>
</g>
</g>
<!-- Node6 -->
<g id="Node000006" class="node">
<title>Node6</title>
<g id="a_Node000006"><a xlink:href="namespacefabomatic_1_1tests.xhtml#a675dfc88957b4e6871f32187a0da29b2" target="_top" xlink:title=" ">
<polygon fill="white" stroke="#666666" points="214.25,-128.5 76,-128.5 76,-98 214.25,-98 214.25,-128.5"/>
<text text-anchor="start" x="84" y="-115" font-family="Helvetica,sans-Serif" font-size="10.00">fabomatic::tests::test</text>
<text text-anchor="middle" x="145.12" y="-103.75" font-family="Helvetica,sans-Serif" font-size="10.00">_create_buffered_messages</text>
</a>
</g>
</g>
<!-- Node2&#45;&gt;Node6 -->
<g id="edge5_Node000002_Node000006" class="edge">
<title>Node2&#45;&gt;Node6</title>
<g id="a_edge5_Node000002_Node000006"><a xlink:title=" ">
<path fill="none" stroke="#63b8ff" d="M238.91,-113.25C230.85,-113.25 222.63,-113.25 214.57,-113.25"/>
<polygon fill="#63b8ff" stroke="#63b8ff" points="238.66,-116.75 248.66,-113.25 238.66,-109.75 238.66,-116.75"/>
</a>
</g>
</g>
<!-- Node7 -->
<g id="Node000007" class="node">
<title>Node7</title>
<g id="a_Node000007"><a xlink:href="namespacefabomatic_1_1tests.xhtml#a24369d35ba4a370e236b987ff7cb5637" target="_top" xlink:title=" ">
<polygon fill="white" stroke="#666666" points="198.12,-79.5 92.12,-79.5 92.12,-49 198.12,-49 198.12,-79.5"/>
<text text-anchor="start" x="100.12" y="-66" font-family="Helvetica,sans-Serif" font-size="10.00">fabomatic::tests::test</text>
<text text-anchor="middle" x="145.12" y="-54.75" font-family="Helvetica,sans-Serif" font-size="10.00">_degraded_use</text>
</a>
</g>
</g>
<!-- Node2&#45;&gt;Node7 -->
<g id="edge7_Node000002_Node000007" class="edge">
<title>Node2&#45;&gt;Node7</title>
<g id="a_edge7_Node000002_Node000007"><a xlink:title=" ">
<path fill="none" stroke="#63b8ff" d="M245.81,-94.38C230.08,-89.63 213.37,-84.57 198.21,-79.99"/>
<polygon fill="#63b8ff" stroke="#63b8ff" points="244.47,-97.63 255.06,-97.17 246.5,-90.93 244.47,-97.63"/>
</a>
</g>
</g>
<!-- Node5 -->
<g id="Node000005" class="node">
<title>Node5</title>
<g id="a_Node000005"><a xlink:href="test__mqtt_8cpp.xhtml#a4fc01d736fe50cf5b977f755b675f11d" target="_top" xlink:title=" ">
<polygon fill="white" stroke="#666666" points="40,-122.88 0,-122.88 0,-103.62 40,-103.62 40,-122.88"/>
<text text-anchor="middle" x="20" y="-109.38" font-family="Helvetica,sans-Serif" font-size="10.00">setup</text>
</a>
</g>
</g>
<!-- Node4&#45;&gt;Node5 -->
<g id="edge4_Node000004_Node000005" class="edge">
<title>Node4&#45;&gt;Node5</title>
<g id="a_edge4_Node000004_Node000005"><a xlink:title=" ">
<path fill="none" stroke="#63b8ff" d="M89.61,-142.57C84.99,-140.81 80.41,-139.02 76,-137.25 64.11,-132.48 50.95,-126.75 40.48,-122.09"/>
<polygon fill="#63b8ff" stroke="#63b8ff" points="88.36,-145.84 98.95,-146.1 90.83,-139.29 88.36,-145.84"/>
</a>
</g>
</g>
<!-- Node6&#45;&gt;Node5 -->
<g id="edge6_Node000006_Node000005" class="edge">
<title>Node6&#45;&gt;Node5</title>
<g id="a_edge6_Node000006_Node000005"><a xlink:title=" ">
<path fill="none" stroke="#63b8ff" d="M64.36,-113.25C55.56,-113.25 47.32,-113.25 40.42,-113.25"/>
<polygon fill="#63b8ff" stroke="#63b8ff" points="64.21,-116.75 74.21,-113.25 64.21,-109.75 64.21,-116.75"/>
</a>
</g>
</g>
<!-- Node7&#45;&gt;Node5 -->
<g id="edge8_Node000007_Node000005" class="edge">
<title>Node7&#45;&gt;Node5</title>
<g id="a_edge8_Node000007_Node000005"><a xlink:title=" ">
<path fill="none" stroke="#63b8ff" d="M89.61,-83.93C84.99,-85.69 80.41,-87.48 76,-89.25 64.11,-94.02 50.95,-99.75 40.48,-104.41"/>
<polygon fill="#63b8ff" stroke="#63b8ff" points="90.83,-87.21 98.95,-80.4 88.36,-80.66 90.83,-87.21"/>
</a>
</g>
</g>
<!-- Node9 -->
<g id="Node000009" class="node">
<title>Node9</title>
<g id="a_Node000009"><a xlink:href="test__savedconfig_8cpp.xhtml#a4fc01d736fe50cf5b977f755b675f11d" target="_top" xlink:title=" ">
<polygon fill="white" stroke="#666666" points="40,-24.88 0,-24.88 0,-5.62 40,-5.62 40,-24.88"/>
<text text-anchor="middle" x="20" y="-11.38" font-family="Helvetica,sans-Serif" font-size="10.00">setup</text>
</a>
</g>
</g>
<!-- Node8&#45;&gt;Node9 -->
<g id="edge10_Node000008_Node000009" class="edge">
<title>Node8&#45;&gt;Node9</title>
<g id="a_edge10_Node000008_Node000009"><a xlink:title=" ">
<path fill="none" stroke="#63b8ff" d="M80.72,-15.25C66.06,-15.25 51.53,-15.25 40.48,-15.25"/>
<polygon fill="#63b8ff" stroke="#63b8ff" points="80.4,-18.75 90.4,-15.25 80.4,-11.75 80.4,-18.75"/>
</a>
</g>
</g>
<!-- Node10&#45;&gt;Node8 -->
<g id="edge12_Node000010_Node000008" class="edge">
<title>Node10&#45;&gt;Node8</title>
<g id="a_edge12_Node000010_Node000008"><a xlink:title=" ">
<path fill="none" stroke="#63b8ff" d="M244.59,-15.25C229.32,-15.25 213.19,-15.25 198.49,-15.25"/>
<polygon fill="#63b8ff" stroke="#63b8ff" points="244.55,-18.75 254.55,-15.25 244.55,-11.75 244.55,-18.75"/>
</a>
</g>
</g>
</g>
</svg>

<g id="navigator" transform="translate(0 0)" fill="#404254">
  <rect fill="#f2f5e9" fill-opacity="0.5" stroke="#606060" stroke-width=".5" x="0" y="0" width="60" height="60"/>
  <use id="zoomplus" xlink:href="#zoomPlus" x="17" y="9" onmousedown="handleZoom(evt,'in')"/>
  <use id="zoomminus" xlink:href="#zoomMin" x="42" y="9" onmousedown="handleZoom(evt,'out')"/>
  <use id="reset" xlink:href="#resetDef" x="30" y="36" onmousedown="handleReset()"/>
   <use id="arrowup" xlink:href="#arrowUp" x="0" y="0" onmousedown="handlePan(0,-1)"/>
  <use id="arrowright" xlink:href="#arrowRight" x="0" y="0" onmousedown="handlePan(1,0)"/>
  <use id="arrowdown" xlink:href="#arrowDown" x="0" y="0" onmousedown="handlePan(0,1)"/>
  <use id="arrowleft" xlink:href="#arrowLeft" x="0" y="0" onmousedown="handlePan(-1,0)"/>
</g>
<svg viewBox="0 0 15 15" width="100%" height="30px" preserveAspectRatio="xMaxYMin meet">
 <g id="arrow_out" transform="scale(0.3 0.3)">
  <a xlink:href="classfabomatic_1_1_buffer_a9ff239a0ddbaed54bcf0a72f2517d7a0_icgraph_org.svg" target="_base">
   <rect id="button" ry="5" rx="5" y="6" x="6" height="38" width="38"
        fill="#f2f5e9" fill-opacity="0.5" stroke="#606060" stroke-width="1.0"/>
   <path id="arrow"
     d="M 11.500037,31.436501 C 11.940474,20.09759 22.043105,11.32322 32.158766,21.979434 L 37.068811,17.246167 C 37.068811,17.246167 37.088388,32 37.088388,32 L 22.160133,31.978069 C 22.160133,31.978069 26.997745,27.140456 26.997745,27.140456 C 18.528582,18.264221 13.291696,25.230495 11.500037,31.436501 z"
     style="fill:#404040;"/>
  </a>
 </g>
</svg>

<style type='text/css'>
<![CDATA[
[data-mouse-over-selected='false'] { opacity: 0.7; }
[data-mouse-over-selected='true']  { opacity: 1.0; }
]]>
</style>
<script type="application/ecmascript"><![CDATA[
document.addEventListener('DOMContentLoaded', (event) => {
  highlightEdges();
  highlightAdjacentNodes();
});
]]></script>
</svg>
