<?xml version="1.0" encoding="UTF-8" standalone="no"?>
<!DOCTYPE svg PUBLIC "-//W3C//DTD SVG 1.1//EN"
 "http://www.w3.org/Graphics/SVG/1.1/DTD/svg11.dtd">
<!-- Generated by graphviz version 9.0.0 (20230911.1827)
 -->
<!-- Title: fabomatic::Tasks::Scheduler::taskCount Pages: 1 -->
<svg width="382pt" height="137pt"
 viewBox="0.00 0.00 381.50 136.50" xmlns="http://www.w3.org/2000/svg" xmlns:xlink="http://www.w3.org/1999/xlink">
<g id="graph0" class="graph" transform="scale(1 1) rotate(0) translate(4 132.5)">
<title>fabomatic::Tasks::Scheduler::taskCount</title>
<!-- Node1 -->
<g id="Node000001" class="node">
<title>Node1</title>
<g id="a_Node000001"><a xlink:title="Gets the number of tasks in the scheduler.">
<polygon fill="#999999" stroke="#666666" points="373.5,-79.5 235.25,-79.5 235.25,-49 373.5,-49 373.5,-79.5"/>
<text text-anchor="start" x="243.25" y="-66" font-family="Helvetica,sans-Serif" font-size="10.00">fabomatic::Tasks::Scheduler</text>
<text text-anchor="middle" x="304.38" y="-54.75" font-family="Helvetica,sans-Serif" font-size="10.00">::taskCount</text>
</a>
</g>
</g>
<!-- Node2 -->
<g id="Node000002" class="node">
<title>Node2</title>
<g id="a_Node000002"><a xlink:href="namespacefabomatic_1_1tests.xhtml#a4bfe59139821e4fd59963629dc052483" target="_top" xlink:title=" ">
<polygon fill="white" stroke="#666666" points="199.25,-128.5 76,-128.5 76,-98 199.25,-98 199.25,-128.5"/>
<text text-anchor="start" x="84" y="-115" font-family="Helvetica,sans-Serif" font-size="10.00">fabomatic::tests::test</text>
<text text-anchor="middle" x="137.62" y="-103.75" font-family="Helvetica,sans-Serif" font-size="10.00">_execute_runs_all_tasks</text>
</a>
</g>
</g>
<!-- Node1&#45;&gt;Node2 -->
<g id="edge1_Node000001_Node000002" class="edge">
<title>Node1&#45;&gt;Node2</title>
<g id="a_edge1_Node000001_Node000002"><a xlink:title=" ">
<path fill="none" stroke="#63b8ff" d="M239.92,-83.12C223.94,-87.87 206.96,-92.93 191.55,-97.51"/>
<polygon fill="#63b8ff" stroke="#63b8ff" points="240.76,-86.53 249.34,-80.32 238.76,-79.82 240.76,-86.53"/>
</a>
</g>
</g>
<!-- Node4 -->
<g id="Node000004" class="node">
<title>Node4</title>
<g id="a_Node000004"><a xlink:href="namespacefabomatic_1_1tests.xhtml#adf323d841fd7207901e373cdc073d4af" target="_top" xlink:title=" ">
<polygon fill="white" stroke="#666666" points="190.62,-30.5 84.62,-30.5 84.62,0 190.62,0 190.62,-30.5"/>
<text text-anchor="start" x="92.62" y="-17" font-family="Helvetica,sans-Serif" font-size="10.00">fabomatic::tests::test</text>
<text text-anchor="middle" x="137.62" y="-5.75" font-family="Helvetica,sans-Serif" font-size="10.00">_normal_use</text>
</a>
</g>
</g>
<!-- Node1&#45;&gt;Node4 -->
<g id="edge3_Node000001_Node000004" class="edge">
<title>Node1&#45;&gt;Node4</title>
<g id="a_edge3_Node000001_Node000004"><a xlink:title=" ">
<path fill="none" stroke="#63b8ff" d="M239.81,-45.35C223.67,-40.54 206.51,-35.44 190.99,-30.82"/>
<polygon fill="#63b8ff" stroke="#63b8ff" points="238.76,-48.68 249.34,-48.18 240.76,-41.97 238.76,-48.68"/>
</a>
</g>
</g>
<!-- Node6 -->
<g id="Node000006" class="node">
<title>Node6</title>
<g id="a_Node000006"><a xlink:href="namespacefabomatic_1_1tests.xhtml#ac1005faec6496778a7981b3695005b4e" target="_top" xlink:title=" ">
<polygon fill="white" stroke="#666666" points="190.62,-79.5 84.62,-79.5 84.62,-49 190.62,-49 190.62,-79.5"/>
<text text-anchor="start" x="92.62" y="-66" font-family="Helvetica,sans-Serif" font-size="10.00">fabomatic::tests::test</text>
<text text-anchor="middle" x="137.62" y="-54.75" font-family="Helvetica,sans-Serif" font-size="10.00">_stop_start_tasks</text>
</a>
</g>
</g>
<!-- Node1&#45;&gt;Node6 -->
<g id="edge5_Node000001_Node000006" class="edge">
<title>Node1&#45;&gt;Node6</title>
<g id="a_edge5_Node000001_Node000006"><a xlink:title=" ">
<path fill="none" stroke="#63b8ff" d="M223.5,-64.25C212.47,-64.25 201.38,-64.25 191.02,-64.25"/>
<polygon fill="#63b8ff" stroke="#63b8ff" points="223.42,-67.75 233.42,-64.25 223.42,-60.75 223.42,-67.75"/>
</a>
</g>
</g>
<!-- Node3 -->
<g id="Node000003" class="node">
<title>Node3</title>
<g id="a_Node000003"><a xlink:href="test__tasks_8cpp.xhtml#a4fc01d736fe50cf5b977f755b675f11d" target="_top" xlink:title=" ">
<polygon fill="white" stroke="#666666" points="40,-97.88 0,-97.88 0,-78.62 40,-78.62 40,-97.88"/>
<text text-anchor="middle" x="20" y="-84.38" font-family="Helvetica,sans-Serif" font-size="10.00">setup</text>
</a>
</g>
</g>
<!-- Node2&#45;&gt;Node3 -->
<g id="edge2_Node000002_Node000003" class="edge">
<title>Node2&#45;&gt;Node3</title>
<g id="a_edge2_Node000002_Node000003"><a xlink:title=" ">
<path fill="none" stroke="#63b8ff" d="M64.74,-97.71C55.85,-95.78 47.43,-93.96 40.39,-92.44"/>
<polygon fill="#63b8ff" stroke="#63b8ff" points="63.77,-101.08 74.29,-99.77 65.25,-94.24 63.77,-101.08"/>
</a>
</g>
</g>
<!-- Node5 -->
<g id="Node000005" class="node">
<title>Node5</title>
<g id="a_Node000005"><a xlink:href="test__mqtt_8cpp.xhtml#a4fc01d736fe50cf5b977f755b675f11d" target="_top" xlink:title=" ">
<polygon fill="white" stroke="#666666" points="40,-24.88 0,-24.88 0,-5.62 40,-5.62 40,-24.88"/>
<text text-anchor="middle" x="20" y="-11.38" font-family="Helvetica,sans-Serif" font-size="10.00">setup</text>
</a>
</g>
</g>
<!-- Node4&#45;&gt;Node5 -->
<g id="edge4_Node000004_Node000005" class="edge">
<title>Node4&#45;&gt;Node5</title>
<g id="a_edge4_Node000004_Node000005"><a xlink:title=" ">
<path fill="none" stroke="#63b8ff" d="M72.82,-15.25C60.97,-15.25 49.46,-15.25 40.3,-15.25"/>
<polygon fill="#63b8ff" stroke="#63b8ff" points="72.71,-18.75 82.71,-15.25 72.71,-11.75 72.71,-18.75"/>
</a>
</g>
</g>
<!-- Node6&#45;&gt;Node3 -->
<g id="edge6_Node000006_Node000003" class="edge">
<title>Node6&#45;&gt;Node3</title>
<g id="a_edge6_Node000006_Node000003"><a xlink:title=" ">
<path fill="none" stroke="#63b8ff" d="M73.19,-77.42C61.21,-79.9 49.55,-82.32 40.3,-84.24"/>
<polygon fill="#63b8ff" stroke="#63b8ff" points="73.66,-80.89 82.74,-75.43 72.24,-74.04 73.66,-80.89"/>
</a>
</g>
</g>
</g>
</svg>
