<?xml version="1.0" encoding="UTF-8" standalone="no"?>
<!DOCTYPE svg PUBLIC "-//W3C//DTD SVG 1.1//EN"
 "http://www.w3.org/Graphics/SVG/1.1/DTD/svg11.dtd">
<!-- Generated by graphviz version 9.0.0 (20230911.1827)
 -->
<!-- Title: fabomatic::Mrfc522Driver Pages: 1 -->
<svg width="426pt" height="507pt"
 viewBox="0.00 0.00 425.50 506.75" xmlns="http://www.w3.org/2000/svg" xmlns:xlink="http://www.w3.org/1999/xlink">
<g id="graph0" class="graph" transform="scale(1 1) rotate(0) translate(4 502.75)">
<title>fabomatic::Mrfc522Driver</title>
<!-- Node1 -->
<g id="Node000001" class="node">
<title>Node1</title>
<g id="a_Node000001"><a xlink:title="The real Mrfc522Driver around the Arduino library.">
<polygon fill="#999999" stroke="none" points="276,-199 132,-199 132,0 276,0 276,-199"/>
<text text-anchor="start" x="150" y="-185.5" font-family="Helvetica,sans-Serif" font-size="10.00">fabomatic::Mrfc522Driver</text>
<text text-anchor="start" x="136" y="-170.5" font-family="Helvetica,sans-Serif" font-size="10.00">+</text>
<text text-anchor="start" x="146" y="-170.5" font-family="Helvetica,sans-Serif" font-size="10.00">RxGainMax</text>
<text text-anchor="start" x="136" y="-155.5" font-family="Helvetica,sans-Serif" font-size="10.00">+</text>
<text text-anchor="start" x="146" y="-155.5" font-family="Helvetica,sans-Serif" font-size="10.00">Mrfc522Driver()</text>
<text text-anchor="start" x="136" y="-140.5" font-family="Helvetica,sans-Serif" font-size="10.00">+</text>
<text text-anchor="start" x="146" y="-140.5" font-family="Helvetica,sans-Serif" font-size="10.00">PICC_IsNewCardPresent()</text>
<text text-anchor="start" x="136" y="-125.5" font-family="Helvetica,sans-Serif" font-size="10.00">+</text>
<text text-anchor="start" x="146" y="-125.5" font-family="Helvetica,sans-Serif" font-size="10.00">PICC_ReadCardSerial()</text>
<text text-anchor="start" x="136" y="-110.5" font-family="Helvetica,sans-Serif" font-size="10.00">+</text>
<text text-anchor="start" x="146" y="-110.5" font-family="Helvetica,sans-Serif" font-size="10.00">reset()</text>
<text text-anchor="start" x="136" y="-95.5" font-family="Helvetica,sans-Serif" font-size="10.00">+</text>
<text text-anchor="start" x="146" y="-95.5" font-family="Helvetica,sans-Serif" font-size="10.00">PCD_Init()</text>
<text text-anchor="start" x="136" y="-80.5" font-family="Helvetica,sans-Serif" font-size="10.00">+</text>
<text text-anchor="start" x="146" y="-80.5" font-family="Helvetica,sans-Serif" font-size="10.00">PICC_WakeupA()</text>
<text text-anchor="start" x="136" y="-65.5" font-family="Helvetica,sans-Serif" font-size="10.00">+</text>
<text text-anchor="start" x="146" y="-65.5" font-family="Helvetica,sans-Serif" font-size="10.00">PCD_PerformSelfTest()</text>
<text text-anchor="start" x="136" y="-50.5" font-family="Helvetica,sans-Serif" font-size="10.00">+</text>
<text text-anchor="start" x="146" y="-50.5" font-family="Helvetica,sans-Serif" font-size="10.00">getDriverUid()</text>
<text text-anchor="start" x="136" y="-35.5" font-family="Helvetica,sans-Serif" font-size="10.00">+</text>
<text text-anchor="start" x="146" y="-35.5" font-family="Helvetica,sans-Serif" font-size="10.00">PCD_SetAntennaGain()</text>
<text text-anchor="start" x="136" y="-20.5" font-family="Helvetica,sans-Serif" font-size="10.00">+</text>
<text text-anchor="start" x="146" y="-20.5" font-family="Helvetica,sans-Serif" font-size="10.00">PCD_DumpVersionToSerial()</text>
<text text-anchor="start" x="137.5" y="-5.5" font-family="Helvetica,sans-Serif" font-size="10.00">&#45;</text>
<text text-anchor="start" x="146" y="-5.5" font-family="Helvetica,sans-Serif" font-size="10.00">hardReset()</text>
<polygon fill="#666666" stroke="#666666" points="132,-182 132,-182 276,-182 276,-182 132,-182"/>
<polygon fill="#666666" stroke="#666666" points="132,-167 132,-167 144,-167 144,-167 132,-167"/>
<polygon fill="#666666" stroke="#666666" points="144,-167 144,-167 276,-167 276,-167 144,-167"/>
<polygon fill="none" stroke="#666666" points="132,0 132,-199 276,-199 276,0 132,0"/>
</a>
</g>
</g>
<!-- Node2 -->
<g id="Node000002" class="node">
<title>Node2</title>
<g id="a_Node000002"><a xlink:title=" ">
<polygon fill="white" stroke="none" points="124,-306.25 0,-306.25 0,-246.25 124,-246.25 124,-306.25"/>
<text text-anchor="start" x="4.62" y="-292.75" font-family="Helvetica,sans-Serif" font-size="10.00">std::unique_ptr&lt; MFRC522</text>
<text text-anchor="start" x="23" y="-281.5" font-family="Helvetica,sans-Serif" font-size="10.00">DriverPinSimple &gt;</text>
<text text-anchor="start" x="18" y="-266.75" font-family="Helvetica,sans-Serif" font-size="10.00">+</text>
<text text-anchor="start" x="42" y="-266.75" font-family="Helvetica,sans-Serif" font-size="10.00">ptr</text>
<text text-anchor="start" x="18" y="-251.75" font-family="Helvetica,sans-Serif" font-size="10.00">+</text>
<text text-anchor="start" x="42" y="-251.75" font-family="Helvetica,sans-Serif" font-size="10.00">operator&#45;&gt;()</text>
<polygon fill="#666666" stroke="#666666" points="0,-278.25 0,-278.25 124,-278.25 124,-278.25 0,-278.25"/>
<polygon fill="#666666" stroke="#666666" points="0,-263.25 0,-263.25 40,-263.25 40,-263.25 0,-263.25"/>
<polygon fill="#666666" stroke="#666666" points="40,-263.25 40,-263.25 124,-263.25 124,-263.25 40,-263.25"/>
<polygon fill="none" stroke="#666666" points="0,-246.25 0,-306.25 124,-306.25 124,-246.25 0,-246.25"/>
</a>
</g>
</g>
<!-- Node2&#45;&gt;Node1 -->
<g id="edge1_Node000001_Node000002" class="edge">
<title>Node2&#45;&gt;Node1</title>
<g id="a_edge1_Node000001_Node000002"><a xlink:title=" ">
<path fill="none" stroke="#63b8ff" d="M85.45,-246.39C96.35,-232.98 110.02,-216.16 124.16,-198.75"/>
<polygon fill="none" stroke="#63b8ff" points="123.91,-199.06 124.59,-191.88 131.48,-189.74 130.8,-196.92 123.91,-199.06"/>
</a>
</g>
<text text-anchor="middle" x="148.5" y="-218.75" font-family="Helvetica,sans-Serif" font-size="10.00" fill="grey"> &#45;rfid_simple_driver</text>
</g>
<!-- Node3 -->
<g id="Node000003" class="node">
<title>Node3</title>
<g id="a_Node000003"><a xlink:title=" ">
<polygon fill="white" stroke="none" points="264.5,-402.5 169.5,-402.5 169.5,-353.5 264.5,-353.5 264.5,-402.5"/>
<text text-anchor="start" x="174.25" y="-389" font-family="Helvetica,sans-Serif" font-size="10.00">std::unique_ptr&lt; T &gt;</text>
<text text-anchor="start" x="215.5" y="-374" font-family="Helvetica,sans-Serif" font-size="10.00"> </text>
<text text-anchor="start" x="180" y="-359" font-family="Helvetica,sans-Serif" font-size="10.00">+</text>
<text text-anchor="start" x="196.5" y="-359" font-family="Helvetica,sans-Serif" font-size="10.00">operator&#45;&gt;()</text>
<polygon fill="#666666" stroke="#666666" points="169.5,-385.5 169.5,-385.5 264.5,-385.5 264.5,-385.5 169.5,-385.5"/>
<polygon fill="#666666" stroke="#666666" points="169.5,-370.5 169.5,-370.5 264.5,-370.5 264.5,-370.5 169.5,-370.5"/>
<polygon fill="none" stroke="#666666" points="169.5,-353.5 169.5,-402.5 264.5,-402.5 264.5,-353.5 169.5,-353.5"/>
</a>
</g>
</g>
<!-- Node3&#45;&gt;Node2 -->
<g id="edge2_Node000002_Node000003" class="edge">
<title>Node3&#45;&gt;Node2</title>
<g id="a_edge2_Node000002_Node000003"><a xlink:title=" ">
<path fill="none" stroke="orange" d="M158.5,-373.56C129.59,-368.83 96.4,-358.33 75,-335.5 67.63,-327.64 64.1,-316.55 62.51,-306.15"/>
<polygon fill="orange" stroke="orange" points="157.86,-377.01 168.25,-374.95 158.84,-370.08 157.86,-377.01"/>
</a>
</g>
<text text-anchor="middle" x="141" y="-326" font-family="Helvetica,sans-Serif" font-size="10.00" fill="grey"> &lt; MFRC522DriverPinSimple &gt;</text>
</g>
<!-- Node5 -->
<g id="Node000005" class="node">
<title>Node5</title>
<g id="a_Node000005"><a xlink:title=" ">
<polygon fill="white" stroke="none" points="266,-306.25 142,-306.25 142,-246.25 266,-246.25 266,-306.25"/>
<text text-anchor="start" x="146.62" y="-292.75" font-family="Helvetica,sans-Serif" font-size="10.00">std::unique_ptr&lt; MFRC522</text>
<text text-anchor="start" x="178.88" y="-281.5" font-family="Helvetica,sans-Serif" font-size="10.00">DriverSPI &gt;</text>
<text text-anchor="start" x="160" y="-266.75" font-family="Helvetica,sans-Serif" font-size="10.00">+</text>
<text text-anchor="start" x="184" y="-266.75" font-family="Helvetica,sans-Serif" font-size="10.00">ptr</text>
<text text-anchor="start" x="160" y="-251.75" font-family="Helvetica,sans-Serif" font-size="10.00">+</text>
<text text-anchor="start" x="184" y="-251.75" font-family="Helvetica,sans-Serif" font-size="10.00">operator&#45;&gt;()</text>
<polygon fill="#666666" stroke="#666666" points="142,-278.25 142,-278.25 266,-278.25 266,-278.25 142,-278.25"/>
<polygon fill="#666666" stroke="#666666" points="142,-263.25 142,-263.25 182,-263.25 182,-263.25 142,-263.25"/>
<polygon fill="#666666" stroke="#666666" points="182,-263.25 182,-263.25 266,-263.25 266,-263.25 182,-263.25"/>
<polygon fill="none" stroke="#666666" points="142,-246.25 142,-306.25 266,-306.25 266,-246.25 142,-246.25"/>
</a>
</g>
</g>
<!-- Node3&#45;&gt;Node5 -->
<g id="edge5_Node000005_Node000003" class="edge">
<title>Node3&#45;&gt;Node5</title>
<g id="a_edge5_Node000005_Node000003"><a xlink:title=" ">
<path fill="none" stroke="orange" d="M212.48,-342.35C210.95,-330.55 209.25,-317.5 207.77,-306.2"/>
<polygon fill="orange" stroke="orange" points="208.99,-342.65 213.76,-352.11 215.93,-341.74 208.99,-342.65"/>
</a>
</g>
<text text-anchor="middle" x="264.12" y="-326" font-family="Helvetica,sans-Serif" font-size="10.00" fill="grey"> &lt; MFRC522DriverSPI &gt;</text>
</g>
<!-- Node6 -->
<g id="Node000006" class="node">
<title>Node6</title>
<g id="a_Node000006"><a xlink:title=" ">
<polygon fill="white" stroke="none" points="417.5,-300.75 284.5,-300.75 284.5,-251.75 417.5,-251.75 417.5,-300.75"/>
<text text-anchor="start" x="289.5" y="-287.25" font-family="Helvetica,sans-Serif" font-size="10.00">std::unique_ptr&lt; MFRC522 &gt;</text>
<text text-anchor="start" x="304.5" y="-272.25" font-family="Helvetica,sans-Serif" font-size="10.00">+</text>
<text text-anchor="start" x="330.5" y="-272.25" font-family="Helvetica,sans-Serif" font-size="10.00">ptr</text>
<text text-anchor="start" x="304.5" y="-257.25" font-family="Helvetica,sans-Serif" font-size="10.00">+</text>
<text text-anchor="start" x="330.5" y="-257.25" font-family="Helvetica,sans-Serif" font-size="10.00">operator&#45;&gt;()</text>
<polygon fill="#666666" stroke="#666666" points="284.5,-283.75 284.5,-283.75 417.5,-283.75 417.5,-283.75 284.5,-283.75"/>
<polygon fill="#666666" stroke="#666666" points="284.5,-268.75 284.5,-268.75 328.5,-268.75 328.5,-268.75 284.5,-268.75"/>
<polygon fill="#666666" stroke="#666666" points="328.5,-268.75 328.5,-268.75 417.5,-268.75 417.5,-268.75 328.5,-268.75"/>
<polygon fill="none" stroke="#666666" points="284.5,-251.75 284.5,-300.75 417.5,-300.75 417.5,-251.75 284.5,-251.75"/>
</a>
</g>
</g>
<!-- Node3&#45;&gt;Node6 -->
<g id="edge7_Node000006_Node000003" class="edge">
<title>Node3&#45;&gt;Node6</title>
<g id="a_edge7_Node000006_Node000003"><a xlink:title=" ">
<path fill="none" stroke="orange" d="M274.8,-361.79C290.75,-355.56 307.18,-347.03 320,-335.5 330.39,-326.16 337.92,-312.49 342.95,-300.74"/>
<polygon fill="orange" stroke="orange" points="274.05,-358.34 265.85,-365.05 276.44,-364.92 274.05,-358.34"/>
</a>
</g>
<text text-anchor="middle" x="361.12" y="-326" font-family="Helvetica,sans-Serif" font-size="10.00" fill="grey"> &lt; MFRC522 &gt;</text>
</g>
<!-- Node4 -->
<g id="Node000004" class="node">
<title>Node4</title>
<g id="a_Node000004"><a xlink:title=" ">
<polygon fill="white" stroke="none" points="225,-498.75 209,-498.75 209,-449.75 225,-449.75 225,-498.75"/>
<text text-anchor="start" x="214" y="-485.25" font-family="Helvetica,sans-Serif" font-size="10.00">T</text>
<text text-anchor="start" x="215.5" y="-470.25" font-family="Helvetica,sans-Serif" font-size="10.00"> </text>
<text text-anchor="start" x="215.5" y="-455.25" font-family="Helvetica,sans-Serif" font-size="10.00"> </text>
<polygon fill="#666666" stroke="#666666" points="209,-481.75 209,-481.75 225,-481.75 225,-481.75 209,-481.75"/>
<polygon fill="#666666" stroke="#666666" points="209,-466.75 209,-466.75 225,-466.75 225,-466.75 209,-466.75"/>
<polygon fill="none" stroke="#666666" points="209,-449.75 209,-498.75 225,-498.75 225,-449.75 209,-449.75"/>
</a>
</g>
</g>
<!-- Node4&#45;&gt;Node3 -->
<g id="edge3_Node000003_Node000004" class="edge">
<title>Node4&#45;&gt;Node3</title>
<g id="a_edge3_Node000003_Node000004"><a xlink:title=" ">
<path fill="none" stroke="#63b8ff" d="M217,-449.95C217,-439.53 217,-427 217,-415.39"/>
<polygon fill="none" stroke="#63b8ff" points="217,-415.26 213,-409.26 217,-403.26 221,-409.26 217,-415.26"/>
</a>
</g>
<text text-anchor="middle" x="226.75" y="-422.25" font-family="Helvetica,sans-Serif" font-size="10.00" fill="grey"> +ptr</text>
</g>
<!-- Node5&#45;&gt;Node1 -->
<g id="edge4_Node000001_Node000005" class="edge">
<title>Node5&#45;&gt;Node1</title>
<g id="a_edge4_Node000001_Node000005"><a xlink:title=" ">
<path fill="none" stroke="#63b8ff" d="M204,-246.39C204,-236.36 204,-224.42 204,-211.76"/>
<polygon fill="none" stroke="#63b8ff" points="204,-211.8 200,-205.8 204,-199.8 208,-205.8 204,-211.8"/>
</a>
</g>
<text text-anchor="middle" x="236.62" y="-218.75" font-family="Helvetica,sans-Serif" font-size="10.00" fill="grey"> &#45;spi_rfid_driver</text>
</g>
<!-- Node6&#45;&gt;Node1 -->
<g id="edge6_Node000001_Node000006" class="edge">
<title>Node6&#45;&gt;Node1</title>
<g id="a_edge6_Node000001_Node000006"><a xlink:title=" ">
<path fill="none" stroke="#63b8ff" d="M331.48,-252.04C319.01,-237.22 301.91,-216.89 284.29,-195.95"/>
<polygon fill="none" stroke="#63b8ff" points="284.2,-195.84 277.28,-193.82 276.48,-186.66 283.4,-188.67 284.2,-195.84"/>
</a>
</g>
<text text-anchor="middle" x="328.25" y="-218.75" font-family="Helvetica,sans-Serif" font-size="10.00" fill="grey"> &#45;mfrc522</text>
</g>
</g>
</svg>
