<?xml version="1.0" encoding="UTF-8" standalone="no"?>
<!DOCTYPE svg PUBLIC "-//W3C//DTD SVG 1.1//EN"
 "http://www.w3.org/Graphics/SVG/1.1/DTD/svg11.dtd">
<!-- Generated by graphviz version 9.0.0 (20230911.1827)
 -->
<!-- Title: fabomatic::FabBackend::waitForAnswer Pages: 1 -->
<svg width="770pt" height="221pt"
 viewBox="0.00 0.00 769.75 220.51" xmlns="http://www.w3.org/2000/svg" xmlns:xlink="http://www.w3.org/1999/xlink">
<g id="graph0" class="graph" transform="scale(1 1) rotate(0) translate(4 216.51)">
<title>fabomatic::FabBackend::waitForAnswer</title>
<!-- Node1 -->
<g id="Node000001" class="node">
<title>Node1</title>
<g id="a_Node000001"><a xlink:title="Waits for an answer from the MQTT server.">
<polygon fill="#999999" stroke="#666666" points="118,-129.57 0,-129.57 0,-99.07 118,-99.07 118,-129.57"/>
<text text-anchor="start" x="8" y="-116.07" font-family="Helvetica,sans-Serif" font-size="10.00">fabomatic::FabBackend</text>
<text text-anchor="middle" x="59" y="-104.82" font-family="Helvetica,sans-Serif" font-size="10.00">::waitForAnswer</text>
</a>
</g>
</g>
<!-- Node2 -->
<g id="Node000002" class="node">
<title>Node2</title>
<g id="a_Node000002"><a xlink:href="namespacefabomatic_1_1_tasks.xhtml#aad4a932b189725b84a436888d9da5dc8" target="_top" xlink:title=" ">
<polygon fill="white" stroke="#666666" points="761.75,-188.95 615.25,-188.95 615.25,-169.7 761.75,-169.7 761.75,-188.95"/>
<text text-anchor="middle" x="688.5" y="-175.45" font-family="Helvetica,sans-Serif" font-size="10.00">fabomatic::Tasks::arduinoNow</text>
</a>
</g>
</g>
<!-- Node1&#45;&gt;Node2 -->
<g id="edge1_Node000001_Node000002" class="edge">
<title>Node1&#45;&gt;Node2</title>
<g id="a_edge1_Node000001_Node000002"><a xlink:title=" ">
<path fill="none" stroke="#63b8ff" d="M92.31,-130.01C138.72,-151.58 227.56,-189.33 308,-203.32 420.44,-222.89 554.08,-205.08 629.01,-191.46"/>
<polygon fill="#63b8ff" stroke="#63b8ff" points="629.4,-194.95 638.59,-189.68 628.12,-188.07 629.4,-194.95"/>
</a>
</g>
</g>
<!-- Node3 -->
<g id="Node000003" class="node">
<title>Node3</title>
<g id="a_Node000003"><a xlink:href="classfabomatic_1_1_fab_backend.xhtml#a1a45f556aadcbc428d14b7c7577ed43d" target="_top" xlink:title="Establishes a connection to the WiFi network and the MQTT server.">
<polygon fill="white" stroke="#666666" points="272,-129.57 154,-129.57 154,-99.07 272,-99.07 272,-129.57"/>
<text text-anchor="start" x="162" y="-116.07" font-family="Helvetica,sans-Serif" font-size="10.00">fabomatic::FabBackend</text>
<text text-anchor="middle" x="213" y="-104.82" font-family="Helvetica,sans-Serif" font-size="10.00">::connect</text>
</a>
</g>
</g>
<!-- Node1&#45;&gt;Node3 -->
<g id="edge2_Node000001_Node000003" class="edge">
<title>Node1&#45;&gt;Node3</title>
<g id="a_edge2_Node000001_Node000003"><a xlink:title=" ">
<path fill="none" stroke="#63b8ff" d="M118.33,-114.32C126.19,-114.32 134.3,-114.32 142.33,-114.32"/>
<polygon fill="#63b8ff" stroke="#63b8ff" points="142.06,-117.82 152.06,-114.32 142.06,-110.82 142.06,-117.82"/>
</a>
</g>
</g>
<!-- Node5 -->
<g id="Node000005" class="node">
<title>Node5</title>
<g id="a_Node000005"><a xlink:href="namespacefabomatic_1_1_tasks.xhtml#a5c20f560f5934822d39ba116a16f3ab6" target="_top" xlink:title="Wait for a delay, allowing OTA updates.">
<polygon fill="white" stroke="#666666" points="579.25,-160.95 462,-160.95 462,-141.7 579.25,-141.7 579.25,-160.95"/>
<text text-anchor="middle" x="520.62" y="-147.45" font-family="Helvetica,sans-Serif" font-size="10.00">fabomatic::Tasks::delay</text>
</a>
</g>
</g>
<!-- Node1&#45;&gt;Node5 -->
<g id="edge10_Node000001_Node000005" class="edge">
<title>Node1&#45;&gt;Node5</title>
<g id="a_edge10_Node000001_Node000005"><a xlink:title=" ">
<path fill="none" stroke="#63b8ff" d="M81.4,-98.77C139.68,-58.48 304.95,41.95 426,-20.32 471.21,-43.58 499.43,-99.9 511.99,-130.58"/>
<polygon fill="#63b8ff" stroke="#63b8ff" points="508.73,-131.84 515.62,-139.89 515.25,-129.3 508.73,-131.84"/>
</a>
</g>
</g>
<!-- Node4 -->
<g id="Node000004" class="node">
<title>Node4</title>
<g id="a_Node000004"><a xlink:href="classfabomatic_1_1_fab_backend.xhtml#ad928751b2f967feaac0f2cb708c0d6e9" target="_top" xlink:title="Connects to the WiFi network.">
<polygon fill="white" stroke="#666666" points="426,-194.57 308,-194.57 308,-164.07 426,-164.07 426,-194.57"/>
<text text-anchor="start" x="316" y="-181.07" font-family="Helvetica,sans-Serif" font-size="10.00">fabomatic::FabBackend</text>
<text text-anchor="middle" x="367" y="-169.82" font-family="Helvetica,sans-Serif" font-size="10.00">::connectWiFi</text>
</a>
</g>
</g>
<!-- Node3&#45;&gt;Node4 -->
<g id="edge3_Node000003_Node000004" class="edge">
<title>Node3&#45;&gt;Node4</title>
<g id="a_edge3_Node000003_Node000004"><a xlink:title=" ">
<path fill="none" stroke="#63b8ff" d="M250.79,-130.06C271.26,-138.81 296.94,-149.79 318.86,-159.17"/>
<polygon fill="#63b8ff" stroke="#63b8ff" points="317.32,-162.31 327.89,-163.03 320.07,-155.88 317.32,-162.31"/>
</a>
</g>
</g>
<!-- Node3&#45;&gt;Node5 -->
<g id="edge7_Node000003_Node000005" class="edge">
<title>Node3&#45;&gt;Node5</title>
<g id="a_edge7_Node000003_Node000005"><a xlink:title=" ">
<path fill="none" stroke="#63b8ff" d="M272.21,-121.37C322.98,-127.52 396.72,-136.44 450.48,-142.95"/>
<polygon fill="#63b8ff" stroke="#63b8ff" points="449.79,-146.39 460.13,-144.12 450.63,-139.44 449.79,-146.39"/>
</a>
</g>
</g>
<!-- Node6 -->
<g id="Node000006" class="node">
<title>Node6</title>
<g id="a_Node000006"><a xlink:href="classfabomatic_1_1_fab_backend.xhtml#a3ab102598ee93269de90a0170e024619" target="_top" xlink:title="Callback function for received MQTT messages.">
<polygon fill="white" stroke="#666666" points="426,-108.57 308,-108.57 308,-78.07 426,-78.07 426,-108.57"/>
<text text-anchor="start" x="316" y="-95.07" font-family="Helvetica,sans-Serif" font-size="10.00">fabomatic::FabBackend</text>
<text text-anchor="middle" x="367" y="-83.82" font-family="Helvetica,sans-Serif" font-size="10.00">::messageReceived</text>
</a>
</g>
</g>
<!-- Node3&#45;&gt;Node6 -->
<g id="edge8_Node000003_Node000006" class="edge">
<title>Node3&#45;&gt;Node6</title>
<g id="a_edge8_Node000003_Node000006"><a xlink:title=" ">
<path fill="none" stroke="#63b8ff" d="M272.33,-106.26C280.19,-105.18 288.3,-104.06 296.33,-102.95"/>
<polygon fill="#63b8ff" stroke="#63b8ff" points="296.65,-106.44 306.07,-101.6 295.69,-99.5 296.65,-106.44"/>
</a>
</g>
</g>
<!-- Node7 -->
<g id="Node000007" class="node">
<title>Node7</title>
<g id="a_Node000007"><a xlink:href="classfabomatic_1_1_fab_backend.xhtml#aee0cf549bea2daebc3e08742853d36c1" target="_top" xlink:title="Publishes a query on the MQTT server.">
<polygon fill="white" stroke="#666666" points="426,-59.57 308,-59.57 308,-29.07 426,-29.07 426,-59.57"/>
<text text-anchor="start" x="316" y="-46.07" font-family="Helvetica,sans-Serif" font-size="10.00">fabomatic::FabBackend</text>
<text text-anchor="middle" x="367" y="-34.82" font-family="Helvetica,sans-Serif" font-size="10.00">::publish</text>
</a>
</g>
</g>
<!-- Node3&#45;&gt;Node7 -->
<g id="edge9_Node000003_Node000007" class="edge">
<title>Node3&#45;&gt;Node7</title>
<g id="a_edge9_Node000003_Node000007"><a xlink:title=" ">
<path fill="none" stroke="#63b8ff" d="M246.05,-98.6C264.15,-89.81 287.25,-78.76 308,-69.32 311.5,-67.73 315.13,-66.11 318.79,-64.49"/>
<polygon fill="#63b8ff" stroke="#63b8ff" points="319.94,-67.8 327.7,-60.58 317.13,-61.39 319.94,-67.8"/>
</a>
</g>
</g>
<!-- Node4&#45;&gt;Node5 -->
<g id="edge4_Node000004_Node000005" class="edge">
<title>Node4&#45;&gt;Node5</title>
<g id="a_edge4_Node000004_Node000005"><a xlink:title=" ">
<path fill="none" stroke="#63b8ff" d="M426.19,-168.58C435.21,-166.91 444.59,-165.18 453.77,-163.48"/>
<polygon fill="#63b8ff" stroke="#63b8ff" points="454.14,-166.97 463.34,-161.72 452.87,-160.09 454.14,-166.97"/>
</a>
</g>
</g>
<!-- Node5&#45;&gt;Node2 -->
<g id="edge5_Node000005_Node000002" class="edge">
<title>Node5&#45;&gt;Node2</title>
<g id="a_edge5_Node000005_Node000002"><a xlink:title=" ">
<path fill="none" stroke="#63b8ff" d="M579.64,-161.12C591.51,-163.12 604.14,-165.25 616.41,-167.32"/>
<polygon fill="#63b8ff" stroke="#63b8ff" points="615.61,-170.74 626.06,-168.95 616.78,-163.84 615.61,-170.74"/>
</a>
</g>
</g>
<!-- Node5&#45;&gt;Node5 -->
<g id="edge6_Node000005_Node000005" class="edge">
<title>Node5&#45;&gt;Node5</title>
<g id="a_edge6_Node000005_Node000005"><a xlink:title=" ">
<path fill="none" stroke="#63b8ff" d="M496.57,-161.24C485.6,-169.84 493.62,-178.95 520.62,-178.95 535.81,-178.95 545,-176.07 548.17,-172.01"/>
<polygon fill="#63b8ff" stroke="#63b8ff" points="551.56,-171.11 545.14,-162.68 544.9,-173.27 551.56,-171.11"/>
</a>
</g>
</g>
</g>
</svg>
