<?xml version="1.0" encoding="UTF-8" standalone="no"?>
<!DOCTYPE svg PUBLIC "-//W3C//DTD SVG 1.1//EN"
 "http://www.w3.org/Graphics/SVG/1.1/DTD/svg11.dtd">
<!-- Generated by graphviz version 9.0.0 (20230911.1827)
 -->
<!-- Title: fabomatic::MQTT::Query Pages: 1 -->
<svg width="123pt" height="102pt"
 viewBox="0.00 0.00 123.00 102.00" xmlns="http://www.w3.org/2000/svg" xmlns:xlink="http://www.w3.org/1999/xlink">
<g id="graph0" class="graph" transform="scale(1 1) rotate(0) translate(4 98)">
<title>fabomatic::MQTT::Query</title>
<!-- Node1 -->
<g id="Node000001" class="node">
<title>Node1</title>
<g id="a_Node000001"><a xlink:title="base class for all MQTT request to the backend">
<polygon fill="#999999" stroke="none" points="115,-94 0,-94 0,0 115,0 115,-94"/>
<text text-anchor="start" x="5" y="-80.5" font-family="Helvetica,sans-Serif" font-size="10.00">fabomatic::MQTT::Query</text>
<text text-anchor="start" x="56" y="-65.5" font-family="Helvetica,sans-Serif" font-size="10.00"> </text>
<text text-anchor="start" x="12.5" y="-50.5" font-family="Helvetica,sans-Serif" font-size="10.00">+</text>
<text text-anchor="start" x="31" y="-50.5" font-family="Helvetica,sans-Serif" font-size="10.00">waitForReply()</text>
<text text-anchor="start" x="12.5" y="-35.5" font-family="Helvetica,sans-Serif" font-size="10.00">+</text>
<text text-anchor="start" x="31" y="-35.5" font-family="Helvetica,sans-Serif" font-size="10.00">payload()</text>
<text text-anchor="start" x="12.5" y="-20.5" font-family="Helvetica,sans-Serif" font-size="10.00">+</text>
<text text-anchor="start" x="31" y="-20.5" font-family="Helvetica,sans-Serif" font-size="10.00">buffered()</text>
<text text-anchor="start" x="12.5" y="-5.5" font-family="Helvetica,sans-Serif" font-size="10.00">+</text>
<text text-anchor="start" x="31" y="-5.5" font-family="Helvetica,sans-Serif" font-size="10.00">~Query()</text>
<polygon fill="#666666" stroke="#666666" points="0,-77 0,-77 115,-77 115,-77 0,-77"/>
<polygon fill="#666666" stroke="#666666" points="0,-62 0,-62 115,-62 115,-62 0,-62"/>
<polygon fill="none" stroke="#666666" points="0,0 0,-94 115,-94 115,0 0,0"/>
</a>
</g>
</g>
</g>
</svg>
