<?xml version="1.0" encoding="UTF-8" standalone="no"?>
<!DOCTYPE svg PUBLIC "-//W3C//DTD SVG 1.1//EN"
 "http://www.w3.org/Graphics/SVG/1.1/DTD/svg11.dtd">
<!-- Generated by graphviz version 9.0.0 (20230911.1827)
 -->
<!-- Title: fabomatic::ServerMQTT::Response Pages: 1 -->
<svg width="383pt" height="314pt"
 viewBox="0.00 0.00 383.00 314.00" xmlns="http://www.w3.org/2000/svg" xmlns:xlink="http://www.w3.org/1999/xlink">
<g id="graph0" class="graph" transform="scale(1 1) rotate(0) translate(4 310)">
<title>fabomatic::ServerMQTT::Response</title>
<!-- Node1 -->
<g id="Node000001" class="node">
<title>Node1</title>
<g id="a_Node000001"><a xlink:title=" ">
<polygon fill="#999999" stroke="none" points="244,-306 131,-306 131,-231 244,-231 244,-306"/>
<text text-anchor="start" x="135.75" y="-292.5" font-family="Helvetica,sans-Serif" font-size="10.00">fabomatic::ServerMQTT</text>
<text text-anchor="start" x="163.5" y="-281.25" font-family="Helvetica,sans-Serif" font-size="10.00">::Response</text>
<text text-anchor="start" x="146.5" y="-266.5" font-family="Helvetica,sans-Serif" font-size="10.00">+</text>
<text text-anchor="start" x="168" y="-266.5" font-family="Helvetica,sans-Serif" font-size="10.00">request_ok</text>
<text text-anchor="start" x="146.5" y="-251.5" font-family="Helvetica,sans-Serif" font-size="10.00">+</text>
<text text-anchor="start" x="168" y="-251.5" font-family="Helvetica,sans-Serif" font-size="10.00">Response()</text>
<text text-anchor="start" x="146.5" y="-236.5" font-family="Helvetica,sans-Serif" font-size="10.00">+</text>
<text text-anchor="start" x="168" y="-236.5" font-family="Helvetica,sans-Serif" font-size="10.00">Response()</text>
<polygon fill="#666666" stroke="#666666" points="131,-278 131,-278 244,-278 244,-278 131,-278"/>
<polygon fill="#666666" stroke="#666666" points="131,-263 131,-263 166,-263 166,-263 131,-263"/>
<polygon fill="#666666" stroke="#666666" points="166,-263 166,-263 244,-263 244,-263 166,-263"/>
<polygon fill="none" stroke="#666666" points="131,-231 131,-306 244,-306 244,-231 131,-231"/>
</a>
</g>
</g>
<!-- Node2 -->
<g id="Node000002" class="node">
<title>Node2</title>
<g id="a_Node000002"><a xlink:href="classfabomatic_1_1_server_m_q_t_t_1_1_machine_response.xhtml" target="_top" xlink:title=" ">
<polygon fill="white" stroke="none" points="113,-195 0,-195 0,0 113,0 113,-195"/>
<text text-anchor="start" x="4.75" y="-181.5" font-family="Helvetica,sans-Serif" font-size="10.00">fabomatic::ServerMQTT</text>
<text text-anchor="start" x="14.12" y="-170.25" font-family="Helvetica,sans-Serif" font-size="10.00">::MachineResponse</text>
<text text-anchor="start" x="6" y="-155.5" font-family="Helvetica,sans-Serif" font-size="10.00">+</text>
<text text-anchor="start" x="18" y="-155.5" font-family="Helvetica,sans-Serif" font-size="10.00">is_valid</text>
<text text-anchor="start" x="6" y="-140.5" font-family="Helvetica,sans-Serif" font-size="10.00">+</text>
<text text-anchor="start" x="18" y="-140.5" font-family="Helvetica,sans-Serif" font-size="10.00">maintenance</text>
<text text-anchor="start" x="6" y="-125.5" font-family="Helvetica,sans-Serif" font-size="10.00">+</text>
<text text-anchor="start" x="18" y="-125.5" font-family="Helvetica,sans-Serif" font-size="10.00">allowed</text>
<text text-anchor="start" x="6" y="-110.5" font-family="Helvetica,sans-Serif" font-size="10.00">+</text>
<text text-anchor="start" x="18" y="-110.5" font-family="Helvetica,sans-Serif" font-size="10.00">logoff</text>
<text text-anchor="start" x="6" y="-95.5" font-family="Helvetica,sans-Serif" font-size="10.00">+</text>
<text text-anchor="start" x="18" y="-95.5" font-family="Helvetica,sans-Serif" font-size="10.00">name</text>
<text text-anchor="start" x="6" y="-80.5" font-family="Helvetica,sans-Serif" font-size="10.00">+</text>
<text text-anchor="start" x="18" y="-80.5" font-family="Helvetica,sans-Serif" font-size="10.00">type</text>
<text text-anchor="start" x="6" y="-65.5" font-family="Helvetica,sans-Serif" font-size="10.00">+</text>
<text text-anchor="start" x="18" y="-65.5" font-family="Helvetica,sans-Serif" font-size="10.00">grace</text>
<text text-anchor="start" x="6" y="-50.5" font-family="Helvetica,sans-Serif" font-size="10.00">+</text>
<text text-anchor="start" x="18" y="-50.5" font-family="Helvetica,sans-Serif" font-size="10.00">description</text>
<text text-anchor="start" x="6" y="-35.5" font-family="Helvetica,sans-Serif" font-size="10.00">+</text>
<text text-anchor="start" x="18" y="-35.5" font-family="Helvetica,sans-Serif" font-size="10.00">MachineResponse()</text>
<text text-anchor="start" x="6" y="-20.5" font-family="Helvetica,sans-Serif" font-size="10.00">+</text>
<text text-anchor="start" x="18" y="-20.5" font-family="Helvetica,sans-Serif" font-size="10.00">MachineResponse()</text>
<text text-anchor="start" x="6" y="-5.5" font-family="Helvetica,sans-Serif" font-size="10.00">+</text>
<text text-anchor="start" x="18" y="-5.5" font-family="Helvetica,sans-Serif" font-size="10.00">fromJson()</text>
<polygon fill="#666666" stroke="#666666" points="0,-167 0,-167 113,-167 113,-167 0,-167"/>
<polygon fill="#666666" stroke="#666666" points="0,-47 0,-47 16,-47 16,-47 0,-47"/>
<polygon fill="#666666" stroke="#666666" points="16,-47 16,-47 113,-47 113,-47 16,-47"/>
<polygon fill="none" stroke="#666666" points="0,0 0,-195 113,-195 113,0 0,0"/>
</a>
</g>
</g>
<!-- Node1&#45;&gt;Node2 -->
<g id="edge1_Node000001_Node000002" class="edge">
<title>Node1&#45;&gt;Node2</title>
<g id="a_edge1_Node000001_Node000002"><a xlink:title=" ">
<path fill="none" stroke="#63b8ff" d="M144.9,-222.73C136.88,-213.75 128.75,-204.23 121.5,-195 118.63,-191.35 115.75,-187.57 112.89,-183.72"/>
<polygon fill="none" stroke="#63b8ff" points="142.19,-224.96 151.5,-230.03 147.38,-220.27 142.19,-224.96"/>
</a>
</g>
</g>
<!-- Node3 -->
<g id="Node000003" class="node">
<title>Node3</title>
<g id="a_Node000003"><a xlink:href="classfabomatic_1_1_server_m_q_t_t_1_1_simple_response.xhtml" target="_top" xlink:title=" ">
<polygon fill="white" stroke="none" points="244,-142.5 131,-142.5 131,-52.5 244,-52.5 244,-142.5"/>
<text text-anchor="start" x="135.75" y="-129" font-family="Helvetica,sans-Serif" font-size="10.00">fabomatic::ServerMQTT</text>
<text text-anchor="start" x="148.5" y="-117.75" font-family="Helvetica,sans-Serif" font-size="10.00">::SimpleResponse</text>
<text text-anchor="start" x="186" y="-103" font-family="Helvetica,sans-Serif" font-size="10.00"> </text>
<text text-anchor="start" x="139" y="-88" font-family="Helvetica,sans-Serif" font-size="10.00">+</text>
<text text-anchor="start" x="153" y="-88" font-family="Helvetica,sans-Serif" font-size="10.00">SimpleResponse()</text>
<text text-anchor="start" x="139" y="-73" font-family="Helvetica,sans-Serif" font-size="10.00">+</text>
<text text-anchor="start" x="153" y="-73" font-family="Helvetica,sans-Serif" font-size="10.00">SimpleResponse()</text>
<text text-anchor="start" x="139" y="-58" font-family="Helvetica,sans-Serif" font-size="10.00">+</text>
<text text-anchor="start" x="153" y="-58" font-family="Helvetica,sans-Serif" font-size="10.00">fromJson()</text>
<polygon fill="#666666" stroke="#666666" points="131,-114.5 131,-114.5 244,-114.5 244,-114.5 131,-114.5"/>
<polygon fill="#666666" stroke="#666666" points="131,-99.5 131,-99.5 244,-99.5 244,-99.5 131,-99.5"/>
<polygon fill="none" stroke="#666666" points="131,-52.5 131,-142.5 244,-142.5 244,-52.5 131,-52.5"/>
</a>
</g>
</g>
<!-- Node1&#45;&gt;Node3 -->
<g id="edge2_Node000001_Node000003" class="edge">
<title>Node1&#45;&gt;Node3</title>
<g id="a_edge2_Node000001_Node000003"><a xlink:title=" ">
<path fill="none" stroke="#63b8ff" d="M187.5,-219.78C187.5,-195.52 187.5,-166.22 187.5,-142.5"/>
<polygon fill="none" stroke="#63b8ff" points="184,-219.73 187.5,-229.73 191,-219.73 184,-219.73"/>
</a>
</g>
</g>
<!-- Node4 -->
<g id="Node000004" class="node">
<title>Node4</title>
<g id="a_Node000004"><a xlink:href="classfabomatic_1_1_server_m_q_t_t_1_1_user_response.xhtml" target="_top" xlink:title=" ">
<polygon fill="white" stroke="none" points="375,-180 262,-180 262,-15 375,-15 375,-180"/>
<text text-anchor="start" x="266.75" y="-166.5" font-family="Helvetica,sans-Serif" font-size="10.00">fabomatic::ServerMQTT</text>
<text text-anchor="start" x="284" y="-155.25" font-family="Helvetica,sans-Serif" font-size="10.00">::UserResponse</text>
<text text-anchor="start" x="272" y="-140.5" font-family="Helvetica,sans-Serif" font-size="10.00">+</text>
<text text-anchor="start" x="288" y="-140.5" font-family="Helvetica,sans-Serif" font-size="10.00">result</text>
<text text-anchor="start" x="272" y="-125.5" font-family="Helvetica,sans-Serif" font-size="10.00">+</text>
<text text-anchor="start" x="288" y="-125.5" font-family="Helvetica,sans-Serif" font-size="10.00">holder_name</text>
<text text-anchor="start" x="272" y="-110.5" font-family="Helvetica,sans-Serif" font-size="10.00">+</text>
<text text-anchor="start" x="288" y="-110.5" font-family="Helvetica,sans-Serif" font-size="10.00">user_level</text>
<text text-anchor="start" x="272" y="-95.5" font-family="Helvetica,sans-Serif" font-size="10.00">+</text>
<text text-anchor="start" x="288" y="-95.5" font-family="Helvetica,sans-Serif" font-size="10.00">UserResponse()</text>
<text text-anchor="start" x="272" y="-80.5" font-family="Helvetica,sans-Serif" font-size="10.00">+</text>
<text text-anchor="start" x="288" y="-80.5" font-family="Helvetica,sans-Serif" font-size="10.00">UserResponse()</text>
<text text-anchor="start" x="272" y="-65.5" font-family="Helvetica,sans-Serif" font-size="10.00">+</text>
<text text-anchor="start" x="288" y="-65.5" font-family="Helvetica,sans-Serif" font-size="10.00">UserResponse()</text>
<text text-anchor="start" x="272" y="-50.5" font-family="Helvetica,sans-Serif" font-size="10.00">+</text>
<text text-anchor="start" x="288" y="-50.5" font-family="Helvetica,sans-Serif" font-size="10.00">getResult()</text>
<text text-anchor="start" x="272" y="-35.5" font-family="Helvetica,sans-Serif" font-size="10.00">+</text>
<text text-anchor="start" x="288" y="-35.5" font-family="Helvetica,sans-Serif" font-size="10.00">toString()</text>
<text text-anchor="start" x="272" y="-20.5" font-family="Helvetica,sans-Serif" font-size="10.00">+</text>
<text text-anchor="start" x="288" y="-20.5" font-family="Helvetica,sans-Serif" font-size="10.00">fromJson()</text>
<polygon fill="#666666" stroke="#666666" points="262,-152 262,-152 375,-152 375,-152 262,-152"/>
<polygon fill="#666666" stroke="#666666" points="262,-107 262,-107 286,-107 286,-107 262,-107"/>
<polygon fill="#666666" stroke="#666666" points="286,-107 286,-107 375,-107 375,-107 286,-107"/>
<polygon fill="none" stroke="#666666" points="262,-15 262,-180 375,-180 375,-15 262,-15"/>
</a>
</g>
</g>
<!-- Node1&#45;&gt;Node4 -->
<g id="edge3_Node000001_Node000004" class="edge">
<title>Node1&#45;&gt;Node4</title>
<g id="a_edge3_Node000001_Node000004"><a xlink:title=" ">
<path fill="none" stroke="#63b8ff" d="M230.1,-222.73C238.12,-213.75 246.25,-204.23 253.5,-195 257.3,-190.15 261.13,-185.09 264.9,-179.94"/>
<polygon fill="none" stroke="#63b8ff" points="227.62,-220.27 223.5,-230.03 232.81,-224.96 227.62,-220.27"/>
</a>
</g>
</g>
</g>
</svg>
