<?xml version="1.0" encoding="UTF-8" standalone="no"?>
<!DOCTYPE svg PUBLIC "-//W3C//DTD SVG 1.1//EN"
 "http://www.w3.org/Graphics/SVG/1.1/DTD/svg11.dtd">
<!-- Generated by graphviz version 9.0.0 (20230911.1827)
 -->
<!-- Title: fabomatic::ServerMQTT::Query Pages: 1 -->
<svg width="1072pt" height="303pt"
 viewBox="0.00 0.00 1071.50 303.00" xmlns="http://www.w3.org/2000/svg" xmlns:xlink="http://www.w3.org/1999/xlink">
<g id="graph0" class="graph" transform="scale(1 1) rotate(0) translate(4 299)">
<title>fabomatic::ServerMQTT::Query</title>
<!-- Node1 -->
<g id="Node000001" class="node">
<title>Node1</title>
<g id="a_Node000001"><a xlink:title="base class for all MQTT request to the backend">
<polygon fill="#999999" stroke="none" points="583.5,-295 470.5,-295 470.5,-190 583.5,-190 583.5,-295"/>
<text text-anchor="start" x="475.25" y="-281.5" font-family="Helvetica,sans-Serif" font-size="10.00">fabomatic::ServerMQTT</text>
<text text-anchor="start" x="512" y="-270.25" font-family="Helvetica,sans-Serif" font-size="10.00">::Query</text>
<text text-anchor="start" x="525.5" y="-255.5" font-family="Helvetica,sans-Serif" font-size="10.00"> </text>
<text text-anchor="start" x="482.5" y="-240.5" font-family="Helvetica,sans-Serif" font-size="10.00">+</text>
<text text-anchor="start" x="500.5" y="-240.5" font-family="Helvetica,sans-Serif" font-size="10.00">waitForReply()</text>
<text text-anchor="start" x="482.5" y="-225.5" font-family="Helvetica,sans-Serif" font-size="10.00">+</text>
<text text-anchor="start" x="500.5" y="-225.5" font-family="Helvetica,sans-Serif" font-size="10.00">payload()</text>
<text text-anchor="start" x="482.5" y="-210.5" font-family="Helvetica,sans-Serif" font-size="10.00">+</text>
<text text-anchor="start" x="500.5" y="-210.5" font-family="Helvetica,sans-Serif" font-size="10.00">buffered()</text>
<text text-anchor="start" x="482.5" y="-195.5" font-family="Helvetica,sans-Serif" font-size="10.00">+</text>
<text text-anchor="start" x="500.5" y="-195.5" font-family="Helvetica,sans-Serif" font-size="10.00">~Query()</text>
<polygon fill="#666666" stroke="#666666" points="470.5,-267 470.5,-267 583.5,-267 583.5,-267 470.5,-267"/>
<polygon fill="#666666" stroke="#666666" points="470.5,-252 470.5,-252 583.5,-252 583.5,-252 470.5,-252"/>
<polygon fill="none" stroke="#666666" points="470.5,-190 470.5,-295 583.5,-295 583.5,-190 470.5,-190"/>
</a>
</g>
</g>
<!-- Node2 -->
<g id="Node000002" class="node">
<title>Node2</title>
<g id="a_Node000002"><a xlink:href="classfabomatic_1_1_buffered_query.xhtml" target="_top" xlink:title="Query to be replayed.">
<polygon fill="white" stroke="none" points="118,-154 0,-154 0,0 118,0 118,-154"/>
<text text-anchor="start" x="4.62" y="-140.5" font-family="Helvetica,sans-Serif" font-size="10.00">fabomatic::BufferedQuery</text>
<text text-anchor="start" x="12.5" y="-125.5" font-family="Helvetica,sans-Serif" font-size="10.00">&#45;</text>
<text text-anchor="start" x="28" y="-125.5" font-family="Helvetica,sans-Serif" font-size="10.00">mqtt_value</text>
<text text-anchor="start" x="12.5" y="-110.5" font-family="Helvetica,sans-Serif" font-size="10.00">&#45;</text>
<text text-anchor="start" x="28" y="-110.5" font-family="Helvetica,sans-Serif" font-size="10.00">mqtt_topic</text>
<text text-anchor="start" x="12.5" y="-95.5" font-family="Helvetica,sans-Serif" font-size="10.00">&#45;</text>
<text text-anchor="start" x="28" y="-95.5" font-family="Helvetica,sans-Serif" font-size="10.00">wait_for_answer</text>
<text text-anchor="start" x="11" y="-80.5" font-family="Helvetica,sans-Serif" font-size="10.00">+</text>
<text text-anchor="start" x="28" y="-80.5" font-family="Helvetica,sans-Serif" font-size="10.00">BufferedQuery()</text>
<text text-anchor="start" x="11" y="-65.5" font-family="Helvetica,sans-Serif" font-size="10.00">+</text>
<text text-anchor="start" x="28" y="-65.5" font-family="Helvetica,sans-Serif" font-size="10.00">BufferedQuery()</text>
<text text-anchor="start" x="11" y="-50.5" font-family="Helvetica,sans-Serif" font-size="10.00">+</text>
<text text-anchor="start" x="28" y="-50.5" font-family="Helvetica,sans-Serif" font-size="10.00">payload()</text>
<text text-anchor="start" x="11" y="-35.5" font-family="Helvetica,sans-Serif" font-size="10.00">+</text>
<text text-anchor="start" x="28" y="-35.5" font-family="Helvetica,sans-Serif" font-size="10.00">waitForReply()</text>
<text text-anchor="start" x="11" y="-20.5" font-family="Helvetica,sans-Serif" font-size="10.00">+</text>
<text text-anchor="start" x="28" y="-20.5" font-family="Helvetica,sans-Serif" font-size="10.00">buffered()</text>
<text text-anchor="start" x="11" y="-5.5" font-family="Helvetica,sans-Serif" font-size="10.00">+</text>
<text text-anchor="start" x="28" y="-5.5" font-family="Helvetica,sans-Serif" font-size="10.00">topic()</text>
<polygon fill="#666666" stroke="#666666" points="0,-137 0,-137 118,-137 118,-137 0,-137"/>
<polygon fill="#666666" stroke="#666666" points="0,-92 0,-92 26,-92 26,-92 0,-92"/>
<polygon fill="#666666" stroke="#666666" points="26,-92 26,-92 118,-92 118,-92 26,-92"/>
<polygon fill="none" stroke="#666666" points="0,0 0,-154 118,-154 118,0 0,0"/>
</a>
</g>
</g>
<!-- Node1&#45;&gt;Node2 -->
<g id="edge1_Node000001_Node000002" class="edge">
<title>Node1&#45;&gt;Node2</title>
<g id="a_edge1_Node000001_Node000002"><a xlink:title=" ">
<path fill="none" stroke="#63b8ff" d="M459.35,-239.27C375.93,-233.81 232.26,-215.41 127,-154 123.79,-152.13 120.65,-150.05 117.58,-147.81"/>
<polygon fill="none" stroke="#63b8ff" points="459.01,-242.75 469.21,-239.86 459.43,-235.77 459.01,-242.75"/>
</a>
</g>
</g>
<!-- Node3 -->
<g id="Node000003" class="node">
<title>Node3</title>
<g id="a_Node000003"><a xlink:href="classfabomatic_1_1_server_m_q_t_t_1_1_alive_query.xhtml" target="_top" xlink:title=" ">
<polygon fill="white" stroke="none" points="249.5,-129.5 136.5,-129.5 136.5,-24.5 249.5,-24.5 249.5,-129.5"/>
<text text-anchor="start" x="141.25" y="-116" font-family="Helvetica,sans-Serif" font-size="10.00">fabomatic::ServerMQTT</text>
<text text-anchor="start" x="167.12" y="-104.75" font-family="Helvetica,sans-Serif" font-size="10.00">::AliveQuery</text>
<text text-anchor="start" x="191.5" y="-90" font-family="Helvetica,sans-Serif" font-size="10.00"> </text>
<text text-anchor="start" x="148.5" y="-75" font-family="Helvetica,sans-Serif" font-size="10.00">+</text>
<text text-anchor="start" x="166.5" y="-75" font-family="Helvetica,sans-Serif" font-size="10.00">AliveQuery()</text>
<text text-anchor="start" x="148.5" y="-60" font-family="Helvetica,sans-Serif" font-size="10.00">+</text>
<text text-anchor="start" x="166.5" y="-60" font-family="Helvetica,sans-Serif" font-size="10.00">payload()</text>
<text text-anchor="start" x="148.5" y="-45" font-family="Helvetica,sans-Serif" font-size="10.00">+</text>
<text text-anchor="start" x="166.5" y="-45" font-family="Helvetica,sans-Serif" font-size="10.00">waitForReply()</text>
<text text-anchor="start" x="148.5" y="-30" font-family="Helvetica,sans-Serif" font-size="10.00">+</text>
<text text-anchor="start" x="166.5" y="-30" font-family="Helvetica,sans-Serif" font-size="10.00">buffered()</text>
<polygon fill="#666666" stroke="#666666" points="136.5,-101.5 136.5,-101.5 249.5,-101.5 249.5,-101.5 136.5,-101.5"/>
<polygon fill="#666666" stroke="#666666" points="136.5,-86.5 136.5,-86.5 249.5,-86.5 249.5,-86.5 136.5,-86.5"/>
<polygon fill="none" stroke="#666666" points="136.5,-24.5 136.5,-129.5 249.5,-129.5 249.5,-24.5 136.5,-24.5"/>
</a>
</g>
</g>
<!-- Node1&#45;&gt;Node3 -->
<g id="edge2_Node000001_Node000003" class="edge">
<title>Node1&#45;&gt;Node3</title>
<g id="a_edge2_Node000001_Node000003"><a xlink:title=" ">
<path fill="none" stroke="#63b8ff" d="M459.41,-230.19C402.11,-218.21 319.64,-195.17 258,-154 247.89,-147.25 238.45,-138.51 230.07,-129.37"/>
<polygon fill="none" stroke="#63b8ff" points="458.55,-233.58 469.04,-232.14 459.93,-226.72 458.55,-233.58"/>
</a>
</g>
</g>
<!-- Node4 -->
<g id="Node000004" class="node">
<title>Node4</title>
<g id="a_Node000004"><a xlink:href="classfabomatic_1_1_server_m_q_t_t_1_1_in_use_query.xhtml" target="_top" xlink:title=" ">
<polygon fill="white" stroke="none" points="380.5,-144.5 267.5,-144.5 267.5,-9.5 380.5,-9.5 380.5,-144.5"/>
<text text-anchor="start" x="272.25" y="-131" font-family="Helvetica,sans-Serif" font-size="10.00">fabomatic::ServerMQTT</text>
<text text-anchor="start" x="295.88" y="-119.75" font-family="Helvetica,sans-Serif" font-size="10.00">::InUseQuery</text>
<text text-anchor="start" x="279.5" y="-105" font-family="Helvetica,sans-Serif" font-size="10.00">+</text>
<text text-anchor="start" x="297.5" y="-105" font-family="Helvetica,sans-Serif" font-size="10.00">uid</text>
<text text-anchor="start" x="279.5" y="-90" font-family="Helvetica,sans-Serif" font-size="10.00">+</text>
<text text-anchor="start" x="297.5" y="-90" font-family="Helvetica,sans-Serif" font-size="10.00">duration_s</text>
<text text-anchor="start" x="279.5" y="-75" font-family="Helvetica,sans-Serif" font-size="10.00">+</text>
<text text-anchor="start" x="297.5" y="-75" font-family="Helvetica,sans-Serif" font-size="10.00">InUseQuery()</text>
<text text-anchor="start" x="279.5" y="-60" font-family="Helvetica,sans-Serif" font-size="10.00">+</text>
<text text-anchor="start" x="297.5" y="-60" font-family="Helvetica,sans-Serif" font-size="10.00">InUseQuery()</text>
<text text-anchor="start" x="279.5" y="-45" font-family="Helvetica,sans-Serif" font-size="10.00">+</text>
<text text-anchor="start" x="297.5" y="-45" font-family="Helvetica,sans-Serif" font-size="10.00">payload()</text>
<text text-anchor="start" x="279.5" y="-30" font-family="Helvetica,sans-Serif" font-size="10.00">+</text>
<text text-anchor="start" x="297.5" y="-30" font-family="Helvetica,sans-Serif" font-size="10.00">waitForReply()</text>
<text text-anchor="start" x="279.5" y="-15" font-family="Helvetica,sans-Serif" font-size="10.00">+</text>
<text text-anchor="start" x="297.5" y="-15" font-family="Helvetica,sans-Serif" font-size="10.00">buffered()</text>
<polygon fill="#666666" stroke="#666666" points="267.5,-116.5 267.5,-116.5 380.5,-116.5 380.5,-116.5 267.5,-116.5"/>
<polygon fill="#666666" stroke="#666666" points="267.5,-86.5 267.5,-86.5 295.5,-86.5 295.5,-86.5 267.5,-86.5"/>
<polygon fill="#666666" stroke="#666666" points="295.5,-86.5 295.5,-86.5 380.5,-86.5 380.5,-86.5 295.5,-86.5"/>
<polygon fill="none" stroke="#666666" points="267.5,-9.5 267.5,-144.5 380.5,-144.5 380.5,-9.5 267.5,-9.5"/>
</a>
</g>
</g>
<!-- Node1&#45;&gt;Node4 -->
<g id="edge3_Node000001_Node000004" class="edge">
<title>Node1&#45;&gt;Node4</title>
<g id="a_edge3_Node000001_Node000004"><a xlink:title=" ">
<path fill="none" stroke="#63b8ff" d="M460.97,-205.16C437.19,-190.68 410.85,-172.94 389,-154 385.46,-150.93 381.94,-147.66 378.48,-144.27"/>
<polygon fill="none" stroke="#63b8ff" points="458.96,-208.04 469.34,-210.18 462.56,-202.03 458.96,-208.04"/>
</a>
</g>
</g>
<!-- Node5 -->
<g id="Node000005" class="node">
<title>Node5</title>
<g id="a_Node000005"><a xlink:href="classfabomatic_1_1_server_m_q_t_t_1_1_machine_query.xhtml" target="_top" xlink:title=" ">
<polygon fill="white" stroke="none" points="511.5,-129.5 398.5,-129.5 398.5,-24.5 511.5,-24.5 511.5,-129.5"/>
<text text-anchor="start" x="403.25" y="-116" font-family="Helvetica,sans-Serif" font-size="10.00">fabomatic::ServerMQTT</text>
<text text-anchor="start" x="421.62" y="-104.75" font-family="Helvetica,sans-Serif" font-size="10.00">::MachineQuery</text>
<text text-anchor="start" x="453.5" y="-90" font-family="Helvetica,sans-Serif" font-size="10.00"> </text>
<text text-anchor="start" x="409" y="-75" font-family="Helvetica,sans-Serif" font-size="10.00">+</text>
<text text-anchor="start" x="425.5" y="-75" font-family="Helvetica,sans-Serif" font-size="10.00">MachineQuery()</text>
<text text-anchor="start" x="409" y="-60" font-family="Helvetica,sans-Serif" font-size="10.00">+</text>
<text text-anchor="start" x="425.5" y="-60" font-family="Helvetica,sans-Serif" font-size="10.00">payload()</text>
<text text-anchor="start" x="409" y="-45" font-family="Helvetica,sans-Serif" font-size="10.00">+</text>
<text text-anchor="start" x="425.5" y="-45" font-family="Helvetica,sans-Serif" font-size="10.00">waitForReply()</text>
<text text-anchor="start" x="409" y="-30" font-family="Helvetica,sans-Serif" font-size="10.00">+</text>
<text text-anchor="start" x="425.5" y="-30" font-family="Helvetica,sans-Serif" font-size="10.00">buffered()</text>
<polygon fill="#666666" stroke="#666666" points="398.5,-101.5 398.5,-101.5 511.5,-101.5 511.5,-101.5 398.5,-101.5"/>
<polygon fill="#666666" stroke="#666666" points="398.5,-86.5 398.5,-86.5 511.5,-86.5 511.5,-86.5 398.5,-86.5"/>
<polygon fill="none" stroke="#666666" points="398.5,-24.5 398.5,-129.5 511.5,-129.5 511.5,-24.5 398.5,-24.5"/>
</a>
</g>
</g>
<!-- Node1&#45;&gt;Node5 -->
<g id="edge4_Node000001_Node000005" class="edge">
<title>Node1&#45;&gt;Node5</title>
<g id="a_edge4_Node000001_Node000005"><a xlink:title=" ">
<path fill="none" stroke="#63b8ff" d="M499.92,-180.01C492.58,-163.33 484.7,-145.44 477.63,-129.38"/>
<polygon fill="none" stroke="#63b8ff" points="496.57,-181.09 503.81,-188.83 502.98,-178.27 496.57,-181.09"/>
</a>
</g>
</g>
<!-- Node6 -->
<g id="Node000006" class="node">
<title>Node6</title>
<g id="a_Node000006"><a xlink:href="classfabomatic_1_1_server_m_q_t_t_1_1_register_maintenance_query.xhtml" target="_top" xlink:title=" ">
<polygon fill="white" stroke="none" points="670.5,-137 529.5,-137 529.5,-17 670.5,-17 670.5,-137"/>
<text text-anchor="start" x="539.25" y="-123.5" font-family="Helvetica,sans-Serif" font-size="10.00">fabomatic::ServerMQTT</text>
<text text-anchor="start" x="539.25" y="-112.25" font-family="Helvetica,sans-Serif" font-size="10.00">::RegisterMaintenanceQuery</text>
<text text-anchor="start" x="533.5" y="-97.5" font-family="Helvetica,sans-Serif" font-size="10.00">+</text>
<text text-anchor="start" x="543.5" y="-97.5" font-family="Helvetica,sans-Serif" font-size="10.00">uid</text>
<text text-anchor="start" x="533.5" y="-82.5" font-family="Helvetica,sans-Serif" font-size="10.00">+</text>
<text text-anchor="start" x="543.5" y="-82.5" font-family="Helvetica,sans-Serif" font-size="10.00">RegisterMaintenanceQuery()</text>
<text text-anchor="start" x="533.5" y="-67.5" font-family="Helvetica,sans-Serif" font-size="10.00">+</text>
<text text-anchor="start" x="543.5" y="-67.5" font-family="Helvetica,sans-Serif" font-size="10.00">RegisterMaintenanceQuery()</text>
<text text-anchor="start" x="533.5" y="-52.5" font-family="Helvetica,sans-Serif" font-size="10.00">+</text>
<text text-anchor="start" x="543.5" y="-52.5" font-family="Helvetica,sans-Serif" font-size="10.00">payload()</text>
<text text-anchor="start" x="533.5" y="-37.5" font-family="Helvetica,sans-Serif" font-size="10.00">+</text>
<text text-anchor="start" x="543.5" y="-37.5" font-family="Helvetica,sans-Serif" font-size="10.00">waitForReply()</text>
<text text-anchor="start" x="533.5" y="-22.5" font-family="Helvetica,sans-Serif" font-size="10.00">+</text>
<text text-anchor="start" x="543.5" y="-22.5" font-family="Helvetica,sans-Serif" font-size="10.00">buffered()</text>
<polygon fill="#666666" stroke="#666666" points="529.5,-109 529.5,-109 670.5,-109 670.5,-109 529.5,-109"/>
<polygon fill="#666666" stroke="#666666" points="529.5,-94 529.5,-94 541.5,-94 541.5,-94 529.5,-94"/>
<polygon fill="#666666" stroke="#666666" points="541.5,-94 541.5,-94 670.5,-94 670.5,-94 541.5,-94"/>
<polygon fill="none" stroke="#666666" points="529.5,-17 529.5,-137 670.5,-137 670.5,-17 529.5,-17"/>
</a>
</g>
</g>
<!-- Node1&#45;&gt;Node6 -->
<g id="edge5_Node000001_Node000006" class="edge">
<title>Node1&#45;&gt;Node6</title>
<g id="a_edge5_Node000001_Node000006"><a xlink:title=" ">
<path fill="none" stroke="#63b8ff" d="M554.42,-180.08C560.75,-165.91 567.47,-150.86 573.74,-136.81"/>
<polygon fill="none" stroke="#63b8ff" points="551.4,-178.28 550.51,-188.83 557.79,-181.13 551.4,-178.28"/>
</a>
</g>
</g>
<!-- Node7 -->
<g id="Node000007" class="node">
<title>Node7</title>
<g id="a_Node000007"><a xlink:href="classfabomatic_1_1_server_m_q_t_t_1_1_start_use_query.xhtml" target="_top" xlink:title=" ">
<polygon fill="white" stroke="none" points="801.5,-137 688.5,-137 688.5,-17 801.5,-17 801.5,-137"/>
<text text-anchor="start" x="693.25" y="-123.5" font-family="Helvetica,sans-Serif" font-size="10.00">fabomatic::ServerMQTT</text>
<text text-anchor="start" x="710.5" y="-112.25" font-family="Helvetica,sans-Serif" font-size="10.00">::StartUseQuery</text>
<text text-anchor="start" x="698.5" y="-97.5" font-family="Helvetica,sans-Serif" font-size="10.00">+</text>
<text text-anchor="start" x="714.5" y="-97.5" font-family="Helvetica,sans-Serif" font-size="10.00">uid</text>
<text text-anchor="start" x="698.5" y="-82.5" font-family="Helvetica,sans-Serif" font-size="10.00">+</text>
<text text-anchor="start" x="714.5" y="-82.5" font-family="Helvetica,sans-Serif" font-size="10.00">StartUseQuery()</text>
<text text-anchor="start" x="698.5" y="-67.5" font-family="Helvetica,sans-Serif" font-size="10.00">+</text>
<text text-anchor="start" x="714.5" y="-67.5" font-family="Helvetica,sans-Serif" font-size="10.00">StartUseQuery()</text>
<text text-anchor="start" x="698.5" y="-52.5" font-family="Helvetica,sans-Serif" font-size="10.00">+</text>
<text text-anchor="start" x="714.5" y="-52.5" font-family="Helvetica,sans-Serif" font-size="10.00">payload()</text>
<text text-anchor="start" x="698.5" y="-37.5" font-family="Helvetica,sans-Serif" font-size="10.00">+</text>
<text text-anchor="start" x="714.5" y="-37.5" font-family="Helvetica,sans-Serif" font-size="10.00">waitForReply()</text>
<text text-anchor="start" x="698.5" y="-22.5" font-family="Helvetica,sans-Serif" font-size="10.00">+</text>
<text text-anchor="start" x="714.5" y="-22.5" font-family="Helvetica,sans-Serif" font-size="10.00">buffered()</text>
<polygon fill="#666666" stroke="#666666" points="688.5,-109 688.5,-109 801.5,-109 801.5,-109 688.5,-109"/>
<polygon fill="#666666" stroke="#666666" points="688.5,-94 688.5,-94 712.5,-94 712.5,-94 688.5,-94"/>
<polygon fill="#666666" stroke="#666666" points="712.5,-94 712.5,-94 801.5,-94 801.5,-94 712.5,-94"/>
<polygon fill="none" stroke="#666666" points="688.5,-17 688.5,-137 801.5,-137 801.5,-17 688.5,-17"/>
</a>
</g>
</g>
<!-- Node1&#45;&gt;Node7 -->
<g id="edge6_Node000001_Node000007" class="edge">
<title>Node1&#45;&gt;Node7</title>
<g id="a_edge6_Node000001_Node000007"><a xlink:title=" ">
<path fill="none" stroke="#63b8ff" d="M593.56,-209.88C621.66,-194.94 653.86,-175.63 680,-154 686.29,-148.8 692.46,-142.94 698.34,-136.85"/>
<polygon fill="none" stroke="#63b8ff" points="591.99,-206.75 584.75,-214.48 595.23,-212.96 591.99,-206.75"/>
</a>
</g>
</g>
<!-- Node8 -->
<g id="Node000008" class="node">
<title>Node8</title>
<g id="a_Node000008"><a xlink:href="classfabomatic_1_1_server_m_q_t_t_1_1_stop_use_query.xhtml" target="_top" xlink:title=" ">
<polygon fill="white" stroke="none" points="932.5,-144.5 819.5,-144.5 819.5,-9.5 932.5,-9.5 932.5,-144.5"/>
<text text-anchor="start" x="824.25" y="-131" font-family="Helvetica,sans-Serif" font-size="10.00">fabomatic::ServerMQTT</text>
<text text-anchor="start" x="841.88" y="-119.75" font-family="Helvetica,sans-Serif" font-size="10.00">::StopUseQuery</text>
<text text-anchor="start" x="830" y="-105" font-family="Helvetica,sans-Serif" font-size="10.00">+</text>
<text text-anchor="start" x="846.5" y="-105" font-family="Helvetica,sans-Serif" font-size="10.00">uid</text>
<text text-anchor="start" x="830" y="-90" font-family="Helvetica,sans-Serif" font-size="10.00">+</text>
<text text-anchor="start" x="846.5" y="-90" font-family="Helvetica,sans-Serif" font-size="10.00">duration_s</text>
<text text-anchor="start" x="830" y="-75" font-family="Helvetica,sans-Serif" font-size="10.00">+</text>
<text text-anchor="start" x="846.5" y="-75" font-family="Helvetica,sans-Serif" font-size="10.00">StopUseQuery()</text>
<text text-anchor="start" x="830" y="-60" font-family="Helvetica,sans-Serif" font-size="10.00">+</text>
<text text-anchor="start" x="846.5" y="-60" font-family="Helvetica,sans-Serif" font-size="10.00">StopUseQuery()</text>
<text text-anchor="start" x="830" y="-45" font-family="Helvetica,sans-Serif" font-size="10.00">+</text>
<text text-anchor="start" x="846.5" y="-45" font-family="Helvetica,sans-Serif" font-size="10.00">payload()</text>
<text text-anchor="start" x="830" y="-30" font-family="Helvetica,sans-Serif" font-size="10.00">+</text>
<text text-anchor="start" x="846.5" y="-30" font-family="Helvetica,sans-Serif" font-size="10.00">waitForReply()</text>
<text text-anchor="start" x="830" y="-15" font-family="Helvetica,sans-Serif" font-size="10.00">+</text>
<text text-anchor="start" x="846.5" y="-15" font-family="Helvetica,sans-Serif" font-size="10.00">buffered()</text>
<polygon fill="#666666" stroke="#666666" points="819.5,-116.5 819.5,-116.5 932.5,-116.5 932.5,-116.5 819.5,-116.5"/>
<polygon fill="#666666" stroke="#666666" points="819.5,-86.5 819.5,-86.5 844.5,-86.5 844.5,-86.5 819.5,-86.5"/>
<polygon fill="#666666" stroke="#666666" points="844.5,-86.5 844.5,-86.5 932.5,-86.5 932.5,-86.5 844.5,-86.5"/>
<polygon fill="none" stroke="#666666" points="819.5,-9.5 819.5,-144.5 932.5,-144.5 932.5,-9.5 819.5,-9.5"/>
</a>
</g>
</g>
<!-- Node1&#45;&gt;Node8 -->
<g id="edge7_Node000001_Node000008" class="edge">
<title>Node1&#45;&gt;Node8</title>
<g id="a_edge7_Node000001_Node000008"><a xlink:title=" ">
<path fill="none" stroke="#63b8ff" d="M594.24,-231.75C654.85,-220.53 744.42,-197.72 811,-154 815.35,-151.14 819.58,-147.91 823.65,-144.43"/>
<polygon fill="none" stroke="#63b8ff" points="593.99,-228.24 584.76,-233.45 595.22,-235.13 593.99,-228.24"/>
</a>
</g>
</g>
<!-- Node9 -->
<g id="Node000009" class="node">
<title>Node9</title>
<g id="a_Node000009"><a xlink:href="classfabomatic_1_1_server_m_q_t_t_1_1_user_query.xhtml" target="_top" xlink:title=" ">
<polygon fill="white" stroke="none" points="1063.5,-137 950.5,-137 950.5,-17 1063.5,-17 1063.5,-137"/>
<text text-anchor="start" x="955.25" y="-123.5" font-family="Helvetica,sans-Serif" font-size="10.00">fabomatic::ServerMQTT</text>
<text text-anchor="start" x="981.5" y="-112.25" font-family="Helvetica,sans-Serif" font-size="10.00">::UserQuery</text>
<text text-anchor="start" x="962.5" y="-97.5" font-family="Helvetica,sans-Serif" font-size="10.00">+</text>
<text text-anchor="start" x="980.5" y="-97.5" font-family="Helvetica,sans-Serif" font-size="10.00">uid</text>
<text text-anchor="start" x="962.5" y="-82.5" font-family="Helvetica,sans-Serif" font-size="10.00">+</text>
<text text-anchor="start" x="980.5" y="-82.5" font-family="Helvetica,sans-Serif" font-size="10.00">UserQuery()</text>
<text text-anchor="start" x="962.5" y="-67.5" font-family="Helvetica,sans-Serif" font-size="10.00">+</text>
<text text-anchor="start" x="980.5" y="-67.5" font-family="Helvetica,sans-Serif" font-size="10.00">UserQuery()</text>
<text text-anchor="start" x="962.5" y="-52.5" font-family="Helvetica,sans-Serif" font-size="10.00">+</text>
<text text-anchor="start" x="980.5" y="-52.5" font-family="Helvetica,sans-Serif" font-size="10.00">waitForReply()</text>
<text text-anchor="start" x="962.5" y="-37.5" font-family="Helvetica,sans-Serif" font-size="10.00">+</text>
<text text-anchor="start" x="980.5" y="-37.5" font-family="Helvetica,sans-Serif" font-size="10.00">payload()</text>
<text text-anchor="start" x="962.5" y="-22.5" font-family="Helvetica,sans-Serif" font-size="10.00">+</text>
<text text-anchor="start" x="980.5" y="-22.5" font-family="Helvetica,sans-Serif" font-size="10.00">buffered()</text>
<polygon fill="#666666" stroke="#666666" points="950.5,-109 950.5,-109 1063.5,-109 1063.5,-109 950.5,-109"/>
<polygon fill="#666666" stroke="#666666" points="950.5,-94 950.5,-94 978.5,-94 978.5,-94 950.5,-94"/>
<polygon fill="#666666" stroke="#666666" points="978.5,-94 978.5,-94 1063.5,-94 1063.5,-94 978.5,-94"/>
<polygon fill="none" stroke="#666666" points="950.5,-17 950.5,-137 1063.5,-137 1063.5,-17 950.5,-17"/>
</a>
</g>
</g>
<!-- Node1&#45;&gt;Node9 -->
<g id="edge8_Node000001_Node000009" class="edge">
<title>Node1&#45;&gt;Node9</title>
<g id="a_edge8_Node000001_Node000009"><a xlink:title=" ">
<path fill="none" stroke="#63b8ff" d="M594.97,-240.37C681.36,-236.12 832.42,-219.02 942,-154 949.91,-149.3 957.34,-143.3 964.13,-136.72"/>
<polygon fill="none" stroke="#63b8ff" points="594.82,-236.88 584.99,-240.81 595.13,-243.87 594.82,-236.88"/>
</a>
</g>
</g>
</g>
</svg>
