<?xml version="1.0" encoding="UTF-8" standalone="no"?>
<!DOCTYPE svg PUBLIC "-//W3C//DTD SVG 1.1//EN"
 "http://www.w3.org/Graphics/SVG/1.1/DTD/svg11.dtd">
<!-- Generated by graphviz version 9.0.0 (20230911.1827)
 -->
<!-- Title: fabomatic::AuthProvider::tryLogin Pages: 1 -->
<svg width="589pt" height="238pt"
 viewBox="0.00 0.00 588.75 237.88" xmlns="http://www.w3.org/2000/svg" xmlns:xlink="http://www.w3.org/1999/xlink">
<g id="graph0" class="graph" transform="scale(1 1) rotate(0) translate(4 233.88)">
<title>fabomatic::AuthProvider::tryLogin</title>
<!-- Node1 -->
<g id="Node000001" class="node">
<title>Node1</title>
<g id="a_Node000001"><a xlink:title="Verifies the card ID against the server (if available) or the whitelist.">
<polygon fill="#999999" stroke="#666666" points="119.5,-116.88 0,-116.88 0,-86.38 119.5,-86.38 119.5,-116.88"/>
<text text-anchor="start" x="8" y="-103.38" font-family="Helvetica,sans-Serif" font-size="10.00">fabomatic::AuthProvider</text>
<text text-anchor="middle" x="59.75" y="-92.12" font-family="Helvetica,sans-Serif" font-size="10.00">::tryLogin</text>
</a>
</g>
</g>
<!-- Node2 -->
<g id="Node000002" class="node">
<title>Node2</title>
<g id="a_Node000002"><a xlink:href="classfabomatic_1_1_fab_backend.xhtml#a0e4d6d289b03582bf6ea9e78e15dd79e" target="_top" xlink:title="Checks if the card ID is known to the server.">
<polygon fill="white" stroke="#666666" points="273.5,-214.88 155.5,-214.88 155.5,-184.38 273.5,-184.38 273.5,-214.88"/>
<text text-anchor="start" x="163.5" y="-201.38" font-family="Helvetica,sans-Serif" font-size="10.00">fabomatic::FabBackend</text>
<text text-anchor="middle" x="214.5" y="-190.12" font-family="Helvetica,sans-Serif" font-size="10.00">::checkCard</text>
</a>
</g>
</g>
<!-- Node1&#45;&gt;Node2 -->
<g id="edge1_Node000001_Node000002" class="edge">
<title>Node1&#45;&gt;Node2</title>
<g id="a_edge1_Node000001_Node000002"><a xlink:title=" ">
<path fill="none" stroke="#63b8ff" d="M78.3,-117.32C96.64,-133.17 126.68,-157.67 155.5,-174.62 158.07,-176.14 160.75,-177.61 163.48,-179.03"/>
<polygon fill="#63b8ff" stroke="#63b8ff" points="161.66,-182.04 172.18,-183.3 164.74,-175.75 161.66,-182.04"/>
</a>
</g>
</g>
<!-- Node3 -->
<g id="Node000003" class="node">
<title>Node3</title>
<g id="a_Node000003"><a xlink:href="classfabomatic_1_1_fab_backend.xhtml#a1a45f556aadcbc428d14b7c7577ed43d" target="_top" xlink:title="Establishes a connection to the WiFi network and the MQTT server.">
<polygon fill="white" stroke="#666666" points="273.5,-165.88 155.5,-165.88 155.5,-135.38 273.5,-135.38 273.5,-165.88"/>
<text text-anchor="start" x="163.5" y="-152.38" font-family="Helvetica,sans-Serif" font-size="10.00">fabomatic::FabBackend</text>
<text text-anchor="middle" x="214.5" y="-141.12" font-family="Helvetica,sans-Serif" font-size="10.00">::connect</text>
</a>
</g>
</g>
<!-- Node1&#45;&gt;Node3 -->
<g id="edge2_Node000001_Node000003" class="edge">
<title>Node1&#45;&gt;Node3</title>
<g id="a_edge2_Node000001_Node000003"><a xlink:title=" ">
<path fill="none" stroke="#63b8ff" d="M109.5,-117.26C123.49,-121.75 138.9,-126.69 153.48,-131.37"/>
<polygon fill="#63b8ff" stroke="#63b8ff" points="152.39,-134.7 162.98,-134.42 154.53,-128.03 152.39,-134.7"/>
</a>
</g>
</g>
<!-- Node8 -->
<g id="Node000008" class="node">
<title>Node8</title>
<g id="a_Node000008"><a xlink:href="classfabomatic_1_1_fab_backend.xhtml#aef092e0e1db0c3539d5474fad2456255" target="_top" xlink:title="Checks if the client is online.">
<polygon fill="white" stroke="#666666" points="273.5,-116.88 155.5,-116.88 155.5,-86.38 273.5,-86.38 273.5,-116.88"/>
<text text-anchor="start" x="163.5" y="-103.38" font-family="Helvetica,sans-Serif" font-size="10.00">fabomatic::FabBackend</text>
<text text-anchor="middle" x="214.5" y="-92.12" font-family="Helvetica,sans-Serif" font-size="10.00">::isOnline</text>
</a>
</g>
</g>
<!-- Node1&#45;&gt;Node8 -->
<g id="edge9_Node000001_Node000008" class="edge">
<title>Node1&#45;&gt;Node8</title>
<g id="a_edge9_Node000001_Node000008"><a xlink:title=" ">
<path fill="none" stroke="#63b8ff" d="M119.81,-101.62C127.68,-101.62 135.82,-101.62 143.85,-101.62"/>
<polygon fill="#63b8ff" stroke="#63b8ff" points="143.59,-105.13 153.59,-101.63 143.59,-98.13 143.59,-105.13"/>
</a>
</g>
</g>
<!-- Node9 -->
<g id="Node000009" class="node">
<title>Node9</title>
<g id="a_Node000009"><a xlink:href="structfabomatic_1_1_fab_user.xhtml#ab4b54f1830f1536824583e973d670582" target="_top" xlink:title=" ">
<polygon fill="white" stroke="#666666" points="264.88,-67.88 164.12,-67.88 164.12,-37.38 264.88,-37.38 264.88,-67.88"/>
<text text-anchor="start" x="172.12" y="-54.38" font-family="Helvetica,sans-Serif" font-size="10.00">fabomatic::FabUser</text>
<text text-anchor="middle" x="214.5" y="-43.12" font-family="Helvetica,sans-Serif" font-size="10.00">::toString</text>
</a>
</g>
</g>
<!-- Node1&#45;&gt;Node9 -->
<g id="edge10_Node000001_Node000009" class="edge">
<title>Node1&#45;&gt;Node9</title>
<g id="a_edge10_Node000001_Node000009"><a xlink:title=" ">
<path fill="none" stroke="#63b8ff" d="M109.5,-85.99C123.49,-81.5 138.9,-76.56 153.48,-71.88"/>
<polygon fill="#63b8ff" stroke="#63b8ff" points="154.53,-75.22 162.98,-68.83 152.39,-68.55 154.53,-75.22"/>
</a>
</g>
</g>
<!-- Node10 -->
<g id="Node000010" class="node">
<title>Node10</title>
<g id="a_Node000010"><a xlink:href="namespacefabomatic_1_1card.xhtml#aef091ec171625c69f9d4eab20ebaefec" target="_top" xlink:title="Returns a string representation of the UID.">
<polygon fill="white" stroke="#666666" points="272.38,-19.25 156.62,-19.25 156.62,0 272.38,0 272.38,-19.25"/>
<text text-anchor="middle" x="214.5" y="-5.75" font-family="Helvetica,sans-Serif" font-size="10.00">fabomatic::card::uid_str</text>
</a>
</g>
</g>
<!-- Node1&#45;&gt;Node10 -->
<g id="edge11_Node000001_Node000010" class="edge">
<title>Node1&#45;&gt;Node10</title>
<g id="a_edge11_Node000001_Node000010"><a xlink:title=" ">
<path fill="none" stroke="#63b8ff" d="M77.33,-85.99C95.35,-69.72 125.58,-44.45 155.5,-28.62 158.78,-26.89 162.24,-25.28 165.79,-23.78"/>
<polygon fill="#63b8ff" stroke="#63b8ff" points="167.03,-27.05 175.11,-20.19 164.52,-20.52 167.03,-27.05"/>
</a>
</g>
</g>
<!-- Node4 -->
<g id="Node000004" class="node">
<title>Node4</title>
<g id="a_Node000004"><a xlink:href="classfabomatic_1_1_fab_backend.xhtml#ad928751b2f967feaac0f2cb708c0d6e9" target="_top" xlink:title="Connects to the WiFi network.">
<polygon fill="white" stroke="#666666" points="427.5,-229.88 309.5,-229.88 309.5,-199.38 427.5,-199.38 427.5,-229.88"/>
<text text-anchor="start" x="317.5" y="-216.38" font-family="Helvetica,sans-Serif" font-size="10.00">fabomatic::FabBackend</text>
<text text-anchor="middle" x="368.5" y="-205.12" font-family="Helvetica,sans-Serif" font-size="10.00">::connectWiFi</text>
</a>
</g>
</g>
<!-- Node3&#45;&gt;Node4 -->
<g id="edge3_Node000003_Node000004" class="edge">
<title>Node3&#45;&gt;Node4</title>
<g id="a_edge3_Node000003_Node000004"><a xlink:title=" ">
<path fill="none" stroke="#63b8ff" d="M252.68,-166.28C272.83,-174.77 297.96,-185.34 319.57,-194.44"/>
<polygon fill="#63b8ff" stroke="#63b8ff" points="318.2,-197.67 328.78,-198.32 320.92,-191.21 318.2,-197.67"/>
</a>
</g>
</g>
<!-- Node5 -->
<g id="Node000005" class="node">
<title>Node5</title>
<g id="a_Node000005"><a xlink:href="namespacefabomatic_1_1_tasks.xhtml#a5c20f560f5934822d39ba116a16f3ab6" target="_top" xlink:title="Wait for a delay, allowing OTA updates.">
<polygon fill="white" stroke="#666666" points="580.75,-202.25 463.5,-202.25 463.5,-183 580.75,-183 580.75,-202.25"/>
<text text-anchor="middle" x="522.12" y="-188.75" font-family="Helvetica,sans-Serif" font-size="10.00">fabomatic::Tasks::delay</text>
</a>
</g>
</g>
<!-- Node3&#45;&gt;Node5 -->
<g id="edge6_Node000003_Node000005" class="edge">
<title>Node3&#45;&gt;Node5</title>
<g id="a_edge6_Node000003_Node000005"><a xlink:title=" ">
<path fill="none" stroke="#63b8ff" d="M273.71,-158.62C324.48,-165.6 398.22,-175.73 451.98,-183.12"/>
<polygon fill="#63b8ff" stroke="#63b8ff" points="451.25,-186.56 461.64,-184.45 452.21,-179.62 451.25,-186.56"/>
</a>
</g>
</g>
<!-- Node6 -->
<g id="Node000006" class="node">
<title>Node6</title>
<g id="a_Node000006"><a xlink:href="classfabomatic_1_1_fab_backend.xhtml#a3ab102598ee93269de90a0170e024619" target="_top" xlink:title="Callback function for received MQTT messages.">
<polygon fill="white" stroke="#666666" points="427.5,-143.88 309.5,-143.88 309.5,-113.38 427.5,-113.38 427.5,-143.88"/>
<text text-anchor="start" x="317.5" y="-130.38" font-family="Helvetica,sans-Serif" font-size="10.00">fabomatic::FabBackend</text>
<text text-anchor="middle" x="368.5" y="-119.12" font-family="Helvetica,sans-Serif" font-size="10.00">::messageReceived</text>
</a>
</g>
</g>
<!-- Node3&#45;&gt;Node6 -->
<g id="edge7_Node000003_Node000006" class="edge">
<title>Node3&#45;&gt;Node6</title>
<g id="a_edge7_Node000003_Node000006"><a xlink:title=" ">
<path fill="none" stroke="#63b8ff" d="M273.83,-142.18C281.69,-141.05 289.8,-139.87 297.83,-138.71"/>
<polygon fill="#63b8ff" stroke="#63b8ff" points="298.18,-142.19 307.57,-137.3 297.18,-135.27 298.18,-142.19"/>
</a>
</g>
</g>
<!-- Node7 -->
<g id="Node000007" class="node">
<title>Node7</title>
<g id="a_Node000007"><a xlink:href="classfabomatic_1_1_fab_backend.xhtml#aee0cf549bea2daebc3e08742853d36c1" target="_top" xlink:title="Publishes a query on the MQTT server.">
<polygon fill="white" stroke="#666666" points="427.5,-94.88 309.5,-94.88 309.5,-64.38 427.5,-64.38 427.5,-94.88"/>
<text text-anchor="start" x="317.5" y="-81.38" font-family="Helvetica,sans-Serif" font-size="10.00">fabomatic::FabBackend</text>
<text text-anchor="middle" x="368.5" y="-70.12" font-family="Helvetica,sans-Serif" font-size="10.00">::publish</text>
</a>
</g>
</g>
<!-- Node3&#45;&gt;Node7 -->
<g id="edge8_Node000003_Node000007" class="edge">
<title>Node3&#45;&gt;Node7</title>
<g id="a_edge8_Node000003_Node000007"><a xlink:title=" ">
<path fill="none" stroke="#63b8ff" d="M253.56,-135.01C260.27,-132.03 267.14,-128.84 273.5,-125.62 290.04,-117.28 292.96,-112.97 309.5,-104.62 312.58,-103.07 315.78,-101.52 319.03,-99.99"/>
<polygon fill="#63b8ff" stroke="#63b8ff" points="320.42,-103.21 328.07,-95.87 317.52,-96.84 320.42,-103.21"/>
</a>
</g>
</g>
<!-- Node4&#45;&gt;Node5 -->
<g id="edge4_Node000004_Node000005" class="edge">
<title>Node4&#45;&gt;Node5</title>
<g id="a_edge4_Node000004_Node000005"><a xlink:title=" ">
<path fill="none" stroke="#63b8ff" d="M427.69,-206.18C435.58,-205.04 443.74,-203.85 451.8,-202.68"/>
<polygon fill="#63b8ff" stroke="#63b8ff" points="452.2,-206.16 461.59,-201.26 451.2,-199.23 452.2,-206.16"/>
</a>
</g>
</g>
<!-- Node5&#45;&gt;Node5 -->
<g id="edge5_Node000005_Node000005" class="edge">
<title>Node5&#45;&gt;Node5</title>
<g id="a_edge5_Node000005_Node000005"><a xlink:title=" ">
<path fill="none" stroke="#63b8ff" d="M498.07,-202.54C487.1,-211.15 495.12,-220.25 522.12,-220.25 537.31,-220.25 546.5,-217.37 549.67,-213.32"/>
<polygon fill="#63b8ff" stroke="#63b8ff" points="553.06,-212.41 546.64,-203.98 546.4,-214.57 553.06,-212.41"/>
</a>
</g>
</g>
</g>
</svg>
