<?xml version="1.0" encoding="UTF-8" standalone="no"?>
<!DOCTYPE svg PUBLIC "-//W3C//DTD SVG 1.1//EN"
 "http://www.w3.org/Graphics/SVG/1.1/DTD/svg11.dtd">
<!-- Generated by graphviz version 9.0.0 (20230911.1827)
 -->
<!-- Title: fabomatic::BoardLogic::blinkLed Pages: 1 -->
<svg width="460pt" height="346pt"
 viewBox="0.00 0.00 459.50 345.88" xmlns="http://www.w3.org/2000/svg" xmlns:xlink="http://www.w3.org/1999/xlink">

<svg id="main" version="1.1" xmlns="http://www.w3.org/2000/svg" xmlns:xlink="http://www.w3.org/1999/xlink" xml:space="preserve" onload="init(evt)">
<style type="text/css"><![CDATA[
.node, .edge {opacity: 0.7;}
.node.selected, .edge.selected {opacity: 1;}
.edge:hover path { stroke: red; }
.edge:hover polygon { stroke: red; fill: red; }
]]></style>
<script type="application/ecmascript" xlink:href="svg.min.js"/>
<svg id="graph" class="graph">
<g id="graph0" class="graph" transform="scale(1 1) rotate(0) translate(4 341.88)">
<title>fabomatic::BoardLogic::blinkLed</title>
<!-- Node1 -->
<g id="Node000001" class="node">
<title>Node1</title>
<g id="a_Node000001"><a xlink:title="Blinks the LED.">
<polygon fill="#999999" stroke="#666666" points="112.75,-165.88 0,-165.88 0,-135.38 112.75,-135.38 112.75,-165.88"/>
<text text-anchor="start" x="8" y="-152.38" font-family="Helvetica,sans-Serif" font-size="10.00">fabomatic::BoardLogic</text>
<text text-anchor="middle" x="56.38" y="-141.12" font-family="Helvetica,sans-Serif" font-size="10.00">::blinkLed</text>
</a>
</g>
</g>
<!-- Node2 -->
<g id="Node000002" class="node">
<title>Node2</title>
<g id="a_Node000002"><a xlink:href="classfabomatic_1_1_machine.xhtml#a4b40dcb31af466acc85f66c845516c82" target="_top" xlink:title=" ">
<polygon fill="white" stroke="#666666" points="258.88,-337.88 158.88,-337.88 158.88,-307.38 258.88,-307.38 258.88,-337.88"/>
<text text-anchor="start" x="166.88" y="-324.38" font-family="Helvetica,sans-Serif" font-size="10.00">fabomatic::Machine</text>
<text text-anchor="middle" x="208.88" y="-313.12" font-family="Helvetica,sans-Serif" font-size="10.00">::isAllowed</text>
</a>
</g>
</g>
<!-- Node1&#45;&gt;Node2 -->
<g id="edge1_Node000001_Node000002" class="edge">
<title>Node1&#45;&gt;Node2</title>
<g id="a_edge1_Node000001_Node000002"><a xlink:title=" ">
<path fill="none" stroke="#63b8ff" d="M63.24,-166.1C75.12,-195.53 104.67,-259.94 148.75,-297.62 150.18,-298.84 151.67,-300.01 153.22,-301.13"/>
<polygon fill="#63b8ff" stroke="#63b8ff" points="150.95,-303.83 161.28,-306.18 154.66,-297.9 150.95,-303.83"/>
</a>
</g>
</g>
<!-- Node3 -->
<g id="Node000003" class="node">
<title>Node3</title>
<g id="a_Node000003"><a xlink:href="classfabomatic_1_1_machine.xhtml#a74aa0b2cd34205ba57710affc56f5c3c" target="_top" xlink:title="Indicates is the machine is not used by anybody.">
<polygon fill="white" stroke="#666666" points="258.88,-288.88 158.88,-288.88 158.88,-258.38 258.88,-258.38 258.88,-288.88"/>
<text text-anchor="start" x="166.88" y="-275.38" font-family="Helvetica,sans-Serif" font-size="10.00">fabomatic::Machine</text>
<text text-anchor="middle" x="208.88" y="-264.12" font-family="Helvetica,sans-Serif" font-size="10.00">::isFree</text>
</a>
</g>
</g>
<!-- Node1&#45;&gt;Node3 -->
<g id="edge2_Node000001_Node000003" class="edge">
<title>Node1&#45;&gt;Node3</title>
<g id="a_edge2_Node000001_Node000003"><a xlink:title=" ">
<path fill="none" stroke="#63b8ff" d="M68.47,-166.12C84.24,-187.21 115.01,-225.03 148.75,-248.62 150.75,-250.03 152.85,-251.37 155,-252.66"/>
<polygon fill="#63b8ff" stroke="#63b8ff" points="152.95,-255.53 163.41,-257.21 156.29,-249.37 152.95,-255.53"/>
</a>
</g>
</g>
<!-- Node4 -->
<g id="Node000004" class="node">
<title>Node4</title>
<g id="a_Node000004"><a xlink:href="classfabomatic_1_1_machine.xhtml#a34b0deb04494137cf321e94d50dedf90" target="_top" xlink:title=" ">
<polygon fill="white" stroke="#666666" points="267.5,-239.88 150.25,-239.88 150.25,-209.38 267.5,-209.38 267.5,-239.88"/>
<text text-anchor="start" x="158.25" y="-226.38" font-family="Helvetica,sans-Serif" font-size="10.00">fabomatic::Machine</text>
<text text-anchor="middle" x="208.88" y="-215.12" font-family="Helvetica,sans-Serif" font-size="10.00">::isMaintenanceNeeded</text>
</a>
</g>
</g>
<!-- Node1&#45;&gt;Node4 -->
<g id="edge3_Node000001_Node000004" class="edge">
<title>Node1&#45;&gt;Node4</title>
<g id="a_edge3_Node000001_Node000004"><a xlink:title=" ">
<path fill="none" stroke="#63b8ff" d="M85.03,-166.31C102.97,-176.28 126.99,-189.22 148.75,-199.62 152.07,-201.21 155.51,-202.81 159,-204.38"/>
<polygon fill="#63b8ff" stroke="#63b8ff" points="157.53,-207.56 168.09,-208.39 160.36,-201.15 157.53,-207.56"/>
</a>
</g>
</g>
<!-- Node5 -->
<g id="Node000005" class="node">
<title>Node5</title>
<g id="a_Node000005"><a xlink:href="classfabomatic_1_1_fab_backend.xhtml#aef092e0e1db0c3539d5474fad2456255" target="_top" xlink:title="Checks if the client is online.">
<polygon fill="white" stroke="#666666" points="267.88,-190.88 149.88,-190.88 149.88,-160.38 267.88,-160.38 267.88,-190.88"/>
<text text-anchor="start" x="157.88" y="-177.38" font-family="Helvetica,sans-Serif" font-size="10.00">fabomatic::FabBackend</text>
<text text-anchor="middle" x="208.88" y="-166.12" font-family="Helvetica,sans-Serif" font-size="10.00">::isOnline</text>
</a>
</g>
</g>
<!-- Node1&#45;&gt;Node5 -->
<g id="edge4_Node000001_Node000005" class="edge">
<title>Node1&#45;&gt;Node5</title>
<g id="a_edge4_Node000001_Node000005"><a xlink:title=" ">
<path fill="none" stroke="#63b8ff" d="M112.99,-159.86C121.26,-161.24 129.86,-162.67 138.37,-164.08"/>
<polygon fill="#63b8ff" stroke="#63b8ff" points="137.53,-167.49 147.97,-165.67 138.68,-160.58 137.53,-167.49"/>
</a>
</g>
</g>
<!-- Node6 -->
<g id="Node000006" class="node">
<title>Node6</title>
<g id="a_Node000006"><a xlink:href="classfabomatic_1_1_machine.xhtml#a871958cc57845c8651cf1058ed9b30e4" target="_top" xlink:title="Indicates if the machine will power down in less than BEEP_REMAINING_MINUTES.">
<polygon fill="white" stroke="#666666" points="264.88,-141.88 152.88,-141.88 152.88,-111.38 264.88,-111.38 264.88,-141.88"/>
<text text-anchor="start" x="160.88" y="-128.38" font-family="Helvetica,sans-Serif" font-size="10.00">fabomatic::Machine</text>
<text text-anchor="middle" x="208.88" y="-117.12" font-family="Helvetica,sans-Serif" font-size="10.00">::isShutdownImminent</text>
</a>
</g>
</g>
<!-- Node1&#45;&gt;Node6 -->
<g id="edge5_Node000001_Node000006" class="edge">
<title>Node1&#45;&gt;Node6</title>
<g id="a_edge5_Node000001_Node000006"><a xlink:title=" ">
<path fill="none" stroke="#63b8ff" d="M112.99,-141.76C122.16,-140.29 131.74,-138.77 141.15,-137.27"/>
<polygon fill="#63b8ff" stroke="#63b8ff" points="141.67,-140.73 151,-135.7 140.57,-133.81 141.67,-140.73"/>
</a>
</g>
</g>
<!-- Node8 -->
<g id="Node000008" class="node">
<title>Node8</title>
<g id="a_Node000008"><a xlink:href="classfabomatic_1_1_led.xhtml#ae7fd966ebaea3198dfe49b73e963e9cb" target="_top" xlink:title=" ">
<polygon fill="white" stroke="#666666" points="257.75,-93.25 160,-93.25 160,-74 257.75,-74 257.75,-93.25"/>
<text text-anchor="middle" x="208.88" y="-79.75" font-family="Helvetica,sans-Serif" font-size="10.00">fabomatic::Led::set</text>
</a>
</g>
</g>
<!-- Node1&#45;&gt;Node8 -->
<g id="edge7_Node000001_Node000008" class="edge">
<title>Node1&#45;&gt;Node8</title>
<g id="a_edge7_Node000001_Node000008"><a xlink:title=" ">
<path fill="none" stroke="#63b8ff" d="M83.97,-135.09C101.89,-125.01 126.28,-112.05 148.75,-102.62 153.11,-100.79 157.72,-99.03 162.35,-97.37"/>
<polygon fill="#63b8ff" stroke="#63b8ff" points="163.36,-100.73 171.69,-94.18 161.09,-94.1 163.36,-100.73"/>
</a>
</g>
</g>
<!-- Node9 -->
<g id="Node000009" class="node">
<title>Node9</title>
<g id="a_Node000009"><a xlink:href="classfabomatic_1_1_led.xhtml#afe933127b5e25e5972e3120bc276b599" target="_top" xlink:title=" ">
<polygon fill="white" stroke="#666666" points="269,-56.25 148.75,-56.25 148.75,-37 269,-37 269,-56.25"/>
<text text-anchor="middle" x="208.88" y="-42.75" font-family="Helvetica,sans-Serif" font-size="10.00">fabomatic::Led::setColor</text>
</a>
</g>
</g>
<!-- Node1&#45;&gt;Node9 -->
<g id="edge8_Node000001_Node000009" class="edge">
<title>Node1&#45;&gt;Node9</title>
<g id="a_edge8_Node000001_Node000009"><a xlink:title=" ">
<path fill="none" stroke="#63b8ff" d="M69.96,-134.99C86.23,-115.78 116.33,-83.42 148.75,-64.62 150.94,-63.36 153.22,-62.17 155.57,-61.06"/>
<polygon fill="#63b8ff" stroke="#63b8ff" points="156.85,-64.32 164.74,-57.25 154.17,-57.85 156.85,-64.32"/>
</a>
</g>
</g>
<!-- Node10 -->
<g id="Node000010" class="node">
<title>Node10</title>
<g id="a_Node000010"><a xlink:href="classfabomatic_1_1_led.xhtml#a959b8bbb2fe1acb5cbffba251bcb8c4c" target="_top" xlink:title=" ">
<polygon fill="white" stroke="#666666" points="265.62,-19.25 152.12,-19.25 152.12,0 265.62,0 265.62,-19.25"/>
<text text-anchor="middle" x="208.88" y="-5.75" font-family="Helvetica,sans-Serif" font-size="10.00">fabomatic::Led::update</text>
</a>
</g>
</g>
<!-- Node1&#45;&gt;Node10 -->
<g id="edge9_Node000001_Node000010" class="edge">
<title>Node1&#45;&gt;Node10</title>
<g id="a_edge9_Node000001_Node000010"><a xlink:title=" ">
<path fill="none" stroke="#63b8ff" d="M64.85,-134.88C78.07,-108.7 108.08,-56.27 148.75,-27.62 150.29,-26.54 151.89,-25.52 153.55,-24.56"/>
<polygon fill="#63b8ff" stroke="#63b8ff" points="154.66,-27.91 162.1,-20.37 151.58,-21.63 154.66,-27.91"/>
</a>
</g>
</g>
<!-- Node7 -->
<g id="Node000007" class="node">
<title>Node7</title>
<g id="a_Node000007"><a xlink:href="namespacefabomatic_1_1_tasks.xhtml#aad4a932b189725b84a436888d9da5dc8" target="_top" xlink:title=" ">
<polygon fill="white" stroke="#666666" points="451.5,-136.25 305,-136.25 305,-117 451.5,-117 451.5,-136.25"/>
<text text-anchor="middle" x="378.25" y="-122.75" font-family="Helvetica,sans-Serif" font-size="10.00">fabomatic::Tasks::arduinoNow</text>
</a>
</g>
</g>
<!-- Node6&#45;&gt;Node7 -->
<g id="edge6_Node000006_Node000007" class="edge">
<title>Node6&#45;&gt;Node7</title>
<g id="a_edge6_Node000006_Node000007"><a xlink:title=" ">
<path fill="none" stroke="#63b8ff" d="M265.14,-126.62C274.25,-126.62 283.86,-126.62 293.47,-126.62"/>
<polygon fill="#63b8ff" stroke="#63b8ff" points="293.21,-130.13 303.21,-126.63 293.21,-123.13 293.21,-130.13"/>
</a>
</g>
</g>
</g>
</svg>
</svg>

<style type='text/css'>
<![CDATA[
[data-mouse-over-selected='false'] { opacity: 0.7; }
[data-mouse-over-selected='true']  { opacity: 1.0; }
]]>
</style>
<script type="application/ecmascript"><![CDATA[
document.addEventListener('DOMContentLoaded', (event) => {
  highlightEdges();
  highlightAdjacentNodes();
});
]]></script>
</svg>
