<?xml version="1.0" encoding="UTF-8" standalone="no"?>
<!DOCTYPE svg PUBLIC "-//W3C//DTD SVG 1.1//EN"
 "http://www.w3.org/Graphics/SVG/1.1/DTD/svg11.dtd">
<!-- Generated by graphviz version 9.0.0 (20230911.1827)
 -->
<!-- Title: fabomatic::BoardLogic::longTap Pages: 1 -->
<!--zoomable 418 -->

<svg id="main" version="1.1" xmlns="http://www.w3.org/2000/svg" xmlns:xlink="http://www.w3.org/1999/xlink" xml:space="preserve" onload="init(evt)">
<style type="text/css"><![CDATA[
.node, .edge {opacity: 0.7;}
.node.selected, .edge.selected {opacity: 1;}
.edge:hover path { stroke: red; }
.edge:hover polygon { stroke: red; fill: red; }
]]></style>

<defs>
  <circle id="rim" cx="0" cy="0" r="7"/>
  <circle id="rim2" cx="0" cy="0" r="3.5"/>
  <g id="zoomPlus">
    <use xlink:href="#rim" fill="#404040"><set attributeName="fill" to="#808080" begin="zoomplus.mouseover" end="zoomplus.mouseout"/></use>
    <path d="M-4,0h8M0,-4v8" fill="none" stroke="white" stroke-width="1.5" pointer-events="none"/>
  </g>
  <g id="zoomMin">
    <use xlink:href="#rim" fill="#404040"><set attributeName="fill" to="#808080" begin="zoomminus.mouseover" end="zoomminus.mouseout"/></use>
    <path d="M-4,0h8" fill="none" stroke="white" stroke-width="1.5" pointer-events="none"/>
  </g>
  <g id="arrowUp" transform="translate(30 24)">
    <use xlink:href="#rim"/>
    <path pointer-events="none" fill="none" stroke="white" stroke-width="1.5" d="M0,-3.0v7 M-2.5,-0.5L0,-3.0L2.5,-0.5"/>
  </g>
  <g id="arrowRight" transform="rotate(90) translate(36 -43)">
    <use xlink:href="#rim"/>
    <path pointer-events="none" fill="none" stroke="white" stroke-width="1.5" d="M0,-3.0v7 M-2.5,-0.5L0,-3.0L2.5,-0.5"/>
  </g>
  <g id="arrowDown" transform="rotate(180) translate(-30 -48)">
    <use xlink:href="#rim"/>
    <path pointer-events="none" fill="none" stroke="white" stroke-width="1.5" d="M0,-3.0v7 M-2.5,-0.5L0,-3.0L2.5,-0.5"/>
  </g>
  <g id="arrowLeft" transform="rotate(270) translate(-36 17)">
    <use xlink:href="#rim"/>
    <path pointer-events="none" fill="none" stroke="white" stroke-width="1.5" d="M0,-3.0v7 M-2.5,-0.5L0,-3.0L2.5,-0.5"/>
  </g>
  <g id="resetDef">
    <use xlink:href="#rim2" fill="#404040"><set attributeName="fill" to="#808080" begin="reset.mouseover" end="reset.mouseout"/></use>
  </g>
</defs>
<script type="application/ecmascript">
var viewWidth = 613;
var viewHeight = 418;
var sectionId = 'dynsection-30';
</script>
<script type="application/ecmascript" xlink:href="svg.min.js"/>
<svg id="graph" class="graph">
<g id="viewport">
<title>fabomatic::BoardLogic::longTap</title>
<!-- Node1 -->
<g id="Node000001" class="node">
<title>Node1</title>
<g id="a_Node000001"><a xlink:title="Asks the user to keep the RFID tag on the reader as confirmation.">
<polygon fill="#999999" stroke="#666666" points="112.75,-227.5 0,-227.5 0,-197 112.75,-197 112.75,-227.5"/>
<text text-anchor="start" x="8" y="-214" font-family="Helvetica,sans-Serif" font-size="10.00">fabomatic::BoardLogic</text>
<text text-anchor="middle" x="56.38" y="-202.75" font-family="Helvetica,sans-Serif" font-size="10.00">::longTap</text>
</a>
</g>
</g>
<!-- Node2 -->
<g id="Node000002" class="node">
<title>Node2</title>
<g id="a_Node000002"><a xlink:href="namespacefabomatic_1_1_tasks.xhtml#adc67d1313c6695d813feb935eafdaf60" target="_top" xlink:title=" ">
<polygon fill="white" stroke="#666666" points="604.75,-344.88 458.25,-344.88 458.25,-325.62 604.75,-325.62 604.75,-344.88"/>
<text text-anchor="middle" x="531.5" y="-331.38" font-family="Helvetica,sans-Serif" font-size="10.00">fabomatic::Tasks::arduinoNow</text>
</a>
</g>
</g>
<!-- Node1&#45;&gt;Node2 -->
<g id="edge1_Node000001_Node000002" class="edge">
<title>Node1&#45;&gt;Node2</title>
<g id="a_edge1_Node000001_Node000002"><a xlink:title=" ">
<path fill="none" stroke="#63b8ff" d="M60.39,-227.98C68.01,-262.87 91.67,-346.32 148.75,-380.25 263.95,-448.73 433.33,-382.08 500.99,-350.17"/>
<polygon fill="#63b8ff" stroke="#63b8ff" points="502.47,-353.34 509.96,-345.84 499.43,-347.03 502.47,-353.34"/>
</a>
</g>
</g>
<!-- Node3 -->
<g id="Node000003" class="node">
<title>Node3</title>
<g id="a_Node000003"><a xlink:href="namespacefabomatic_1_1_tasks.xhtml#a5c20f560f5934822d39ba116a16f3ab6" target="_top" xlink:title="Wait for a delay, allowing OTA updates.">
<polygon fill="white" stroke="#666666" points="421.5,-344.88 304.25,-344.88 304.25,-325.62 421.5,-325.62 421.5,-344.88"/>
<text text-anchor="middle" x="362.88" y="-331.38" font-family="Helvetica,sans-Serif" font-size="10.00">fabomatic::Tasks::delay</text>
</a>
</g>
</g>
<!-- Node1&#45;&gt;Node3 -->
<g id="edge2_Node000001_Node000003" class="edge">
<title>Node1&#45;&gt;Node3</title>
<g id="a_edge2_Node000001_Node000003"><a xlink:title=" ">
<path fill="none" stroke="#63b8ff" d="M61.6,-227.97C71.06,-259.67 97.27,-330.64 148.75,-359.25 206.53,-391.37 286.68,-367.39 330.37,-349.68"/>
<polygon fill="#63b8ff" stroke="#63b8ff" points="331.67,-352.93 339.52,-345.83 328.95,-346.48 331.67,-352.93"/>
</a>
</g>
</g>
<!-- Node4 -->
<g id="Node000004" class="node">
<title>Node4</title>
<g id="a_Node000004"><a xlink:href="classfabomatic_1_1_board_logic.xhtml#a462b4b6149ca7bf33b699eb3181c969f" target="_top" xlink:title=" ">
<polygon fill="white" stroke="#666666" points="264.5,-350.5 151.75,-350.5 151.75,-320 264.5,-320 264.5,-350.5"/>
<text text-anchor="start" x="159.75" y="-337" font-family="Helvetica,sans-Serif" font-size="10.00">fabomatic::BoardLogic</text>
<text text-anchor="middle" x="208.12" y="-325.75" font-family="Helvetica,sans-Serif" font-size="10.00">::getLcd</text>
</a>
</g>
</g>
<!-- Node1&#45;&gt;Node4 -->
<g id="edge5_Node000001_Node000004" class="edge">
<title>Node1&#45;&gt;Node4</title>
<g id="a_edge5_Node000001_Node000004"><a xlink:title=" ">
<path fill="none" stroke="#63b8ff" d="M68.48,-227.72C84.28,-248.79 115.06,-286.58 148.75,-310.25 150.73,-311.64 152.8,-312.98 154.93,-314.26"/>
<polygon fill="#63b8ff" stroke="#63b8ff" points="152.76,-317.06 163.22,-318.79 156.12,-310.92 152.76,-317.06"/>
</a>
</g>
</g>
<!-- Node5 -->
<g id="Node000005" class="node">
<title>Node5</title>
<g id="a_Node000005"><a xlink:href="classfabomatic_1_1_machine.xhtml#a3c5304fd80e0cc1c2118a59c64222d6d" target="_top" xlink:title="Returns the current power state of the machine.">
<polygon fill="white" stroke="#666666" points="258.12,-301.5 158.12,-301.5 158.12,-271 258.12,-271 258.12,-301.5"/>
<text text-anchor="start" x="166.12" y="-288" font-family="Helvetica,sans-Serif" font-size="10.00">fabomatic::Machine</text>
<text text-anchor="middle" x="208.12" y="-276.75" font-family="Helvetica,sans-Serif" font-size="10.00">::getPowerState</text>
</a>
</g>
</g>
<!-- Node1&#45;&gt;Node5 -->
<g id="edge7_Node000001_Node000005" class="edge">
<title>Node1&#45;&gt;Node5</title>
<g id="a_edge7_Node000001_Node000005"><a xlink:title=" ">
<path fill="none" stroke="#63b8ff" d="M85.04,-227.9C103,-237.86 127.01,-250.79 148.75,-261.25 152.03,-262.83 155.43,-264.41 158.87,-265.98"/>
<polygon fill="#63b8ff" stroke="#63b8ff" points="157.28,-269.1 167.84,-269.98 160.13,-262.71 157.28,-269.1"/>
</a>
</g>
</g>
<!-- Node6 -->
<g id="Node000006" class="node">
<title>Node6</title>
<g id="a_Node000006"><a xlink:href="classfabomatic_1_1_board_logic.xhtml#a7b151fca2de8263b021b8b6f26e5d0ab" target="_top" xlink:title=" ">
<polygon fill="white" stroke="#666666" points="264.5,-252.5 151.75,-252.5 151.75,-222 264.5,-222 264.5,-252.5"/>
<text text-anchor="start" x="159.75" y="-239" font-family="Helvetica,sans-Serif" font-size="10.00">fabomatic::BoardLogic</text>
<text text-anchor="middle" x="208.12" y="-227.75" font-family="Helvetica,sans-Serif" font-size="10.00">::getRfid</text>
</a>
</g>
</g>
<!-- Node1&#45;&gt;Node6 -->
<g id="edge8_Node000001_Node000006" class="edge">
<title>Node1&#45;&gt;Node6</title>
<g id="a_edge8_Node000001_Node000006"><a xlink:title=" ">
<path fill="none" stroke="#63b8ff" d="M113.14,-221.56C121.91,-223.02 131.05,-224.55 140.05,-226.05"/>
<polygon fill="#63b8ff" stroke="#63b8ff" points="139.38,-229.49 149.82,-227.68 140.54,-222.58 139.38,-229.49"/>
</a>
</g>
</g>
<!-- Node7 -->
<g id="Node000007" class="node">
<title>Node7</title>
<g id="a_Node000007"><a xlink:href="classfabomatic_1_1_fab_backend.xhtml#aef092e0e1db0c3539d5474fad2456255" target="_top" xlink:title="Indicates if the MQTT client is connected to the broker and backend is responsive.">
<polygon fill="white" stroke="#666666" points="267.12,-203.5 149.12,-203.5 149.12,-173 267.12,-173 267.12,-203.5"/>
<text text-anchor="start" x="157.12" y="-190" font-family="Helvetica,sans-Serif" font-size="10.00">fabomatic::FabBackend</text>
<text text-anchor="middle" x="208.12" y="-178.75" font-family="Helvetica,sans-Serif" font-size="10.00">::isOnline</text>
</a>
</g>
</g>
<!-- Node1&#45;&gt;Node7 -->
<g id="edge10_Node000001_Node000007" class="edge">
<title>Node1&#45;&gt;Node7</title>
<g id="a_edge10_Node000001_Node000007"><a xlink:title=" ">
<path fill="none" stroke="#63b8ff" d="M113.14,-203.31C121.14,-202.03 129.46,-200.7 137.68,-199.38"/>
<polygon fill="#63b8ff" stroke="#63b8ff" points="138,-202.87 147.32,-197.84 136.89,-195.96 138,-202.87"/>
</a>
</g>
</g>
<!-- Node8 -->
<g id="Node000008" class="node">
<title>Node8</title>
<g id="a_Node000008"><a xlink:href="classfabomatic_1_1_fab_backend.xhtml#aacd5dfac21bd4b6ed71912198a038529" target="_top" xlink:title="Indicates if backend answers are received.">
<polygon fill="white" stroke="#666666" points="421.88,-195.5 303.88,-195.5 303.88,-165 421.88,-165 421.88,-195.5"/>
<text text-anchor="start" x="311.88" y="-182" font-family="Helvetica,sans-Serif" font-size="10.00">fabomatic::FabBackend</text>
<text text-anchor="middle" x="362.88" y="-170.75" font-family="Helvetica,sans-Serif" font-size="10.00">::isResponsive</text>
</a>
</g>
</g>
<!-- Node1&#45;&gt;Node8 -->
<g id="edge12_Node000001_Node000008" class="edge">
<title>Node1&#45;&gt;Node8</title>
<g id="a_edge12_Node000001_Node000008"><a xlink:title=" ">
<path fill="none" stroke="#63b8ff" d="M79.79,-196.51C97.56,-185.05 123.52,-170.47 148.75,-164.25 195.77,-152.65 250.25,-157.04 292.36,-164.13"/>
<polygon fill="#63b8ff" stroke="#63b8ff" points="291.67,-167.56 302.13,-165.87 292.9,-160.67 291.67,-167.56"/>
</a>
</g>
</g>
<!-- Node9 -->
<g id="Node000009" class="node">
<title>Node9</title>
<g id="a_Node000009"><a xlink:href="classfabomatic_1_1_machine.xhtml#a871958cc57845c8651cf1058ed9b30e4" target="_top" xlink:title="Indicates if the machine will power down in less than BEEP_REMAINING_MINUTES.">
<polygon fill="white" stroke="#666666" points="418.88,-130.5 306.88,-130.5 306.88,-100 418.88,-100 418.88,-130.5"/>
<text text-anchor="start" x="314.88" y="-117" font-family="Helvetica,sans-Serif" font-size="10.00">fabomatic::Machine</text>
<text text-anchor="middle" x="362.88" y="-105.75" font-family="Helvetica,sans-Serif" font-size="10.00">::isShutdownImminent</text>
</a>
</g>
</g>
<!-- Node1&#45;&gt;Node9 -->
<g id="edge13_Node000001_Node000009" class="edge">
<title>Node1&#45;&gt;Node9</title>
<g id="a_edge13_Node000001_Node000009"><a xlink:title=" ">
<path fill="none" stroke="#63b8ff" d="M76.05,-196.65C93.67,-182.78 121.39,-163.06 148.75,-152.25 195.88,-133.62 252.54,-124.35 295.59,-119.75"/>
<polygon fill="#63b8ff" stroke="#63b8ff" points="295.68,-123.26 305.28,-118.77 294.98,-116.29 295.68,-123.26"/>
</a>
</g>
</g>
<!-- Node10 -->
<g id="Node000010" class="node">
<title>Node10</title>
<g id="a_Node000010"><a xlink:href="classfabomatic_1_1_l_c_d_wrapper.xhtml#a965b81b3102972fdfd7bd5889f703904" target="_top" xlink:title=" ">
<polygon fill="white" stroke="#666666" points="267.5,-79.5 148.75,-79.5 148.75,-49 267.5,-49 267.5,-79.5"/>
<text text-anchor="start" x="156.75" y="-66" font-family="Helvetica,sans-Serif" font-size="10.00">fabomatic::LCDWrapper</text>
<text text-anchor="middle" x="208.12" y="-54.75" font-family="Helvetica,sans-Serif" font-size="10.00">::setRow</text>
</a>
</g>
</g>
<!-- Node1&#45;&gt;Node10 -->
<g id="edge15_Node000001_Node000010" class="edge">
<title>Node1&#45;&gt;Node10</title>
<g id="a_edge15_Node000001_Node000010"><a xlink:title=" ">
<path fill="none" stroke="#63b8ff" d="M66.21,-196.53C80.73,-171.86 111.74,-123.7 148.75,-93.25 152,-90.58 155.54,-88.07 159.21,-85.73"/>
<polygon fill="#63b8ff" stroke="#63b8ff" points="160.95,-88.77 167.84,-80.72 157.43,-82.72 160.95,-88.77"/>
</a>
</g>
</g>
<!-- Node11 -->
<g id="Node000011" class="node">
<title>Node11</title>
<g id="a_Node000011"><a xlink:href="classfabomatic_1_1_l_c_d_wrapper.xhtml#aad6858b0cdc35041a714b582134e16f1" target="_top" xlink:title=" ">
<polygon fill="white" stroke="#666666" points="267.5,-30.5 148.75,-30.5 148.75,0 267.5,0 267.5,-30.5"/>
<text text-anchor="start" x="156.75" y="-17" font-family="Helvetica,sans-Serif" font-size="10.00">fabomatic::LCDWrapper</text>
<text text-anchor="middle" x="208.12" y="-5.75" font-family="Helvetica,sans-Serif" font-size="10.00">::update</text>
</a>
</g>
</g>
<!-- Node1&#45;&gt;Node11 -->
<g id="edge16_Node000001_Node000011" class="edge">
<title>Node1&#45;&gt;Node11</title>
<g id="a_edge16_Node000001_Node000011"><a xlink:title=" ">
<path fill="none" stroke="#63b8ff" d="M61.73,-196.74C71.76,-163.68 99.47,-85.57 148.75,-40.25 149.97,-39.13 151.24,-38.06 152.56,-37.03"/>
<polygon fill="#63b8ff" stroke="#63b8ff" points="154.2,-40.14 160.59,-31.69 150.33,-34.31 154.2,-40.14"/>
</a>
</g>
</g>
<!-- Node3&#45;&gt;Node2 -->
<g id="edge3_Node000003_Node000002" class="edge">
<title>Node3&#45;&gt;Node2</title>
<g id="a_edge3_Node000003_Node000002"><a xlink:title=" ">
<path fill="none" stroke="#63b8ff" d="M421.68,-335.25C429.7,-335.25 438.06,-335.25 446.43,-335.25"/>
<polygon fill="#63b8ff" stroke="#63b8ff" points="446.31,-338.75 456.31,-335.25 446.31,-331.75 446.31,-338.75"/>
</a>
</g>
</g>
<!-- Node3&#45;&gt;Node3 -->
<g id="edge4_Node000003_Node000003" class="edge">
<title>Node3&#45;&gt;Node3</title>
<g id="a_edge4_Node000003_Node000003"><a xlink:title=" ">
<path fill="none" stroke="#63b8ff" d="M338.65,-345.16C327.6,-353.77 335.67,-362.88 362.88,-362.88 378.18,-362.88 387.43,-359.99 390.62,-355.94"/>
<polygon fill="#63b8ff" stroke="#63b8ff" points="394,-355.02 387.57,-346.6 387.35,-357.19 394,-355.02"/>
</a>
</g>
</g>
<!-- Node4&#45;&gt;Node3 -->
<g id="edge6_Node000004_Node000003" class="edge">
<title>Node4&#45;&gt;Node3</title>
<g id="a_edge6_Node000004_Node000003"><a xlink:title=" ">
<path fill="none" stroke="#63b8ff" d="M264.7,-335.25C273.74,-335.25 283.2,-335.25 292.51,-335.25"/>
<polygon fill="#63b8ff" stroke="#63b8ff" points="292.26,-338.75 302.25,-335.25 292.25,-331.75 292.26,-338.75"/>
</a>
</g>
</g>
<!-- Node6&#45;&gt;Node3 -->
<g id="edge9_Node000006_Node000003" class="edge">
<title>Node6&#45;&gt;Node3</title>
<g id="a_edge9_Node000006_Node000003"><a xlink:title=" ">
<path fill="none" stroke="#63b8ff" d="M249.36,-252.88C255.56,-255.74 261.8,-258.9 267.5,-262.25 295.17,-278.52 323.93,-301.85 342.32,-317.72"/>
<polygon fill="#63b8ff" stroke="#63b8ff" points="339.96,-320.31 349.79,-324.27 344.57,-315.05 339.96,-320.31"/>
</a>
</g>
</g>
<!-- Node7&#45;&gt;Node8 -->
<g id="edge11_Node000007_Node000008" class="edge">
<title>Node7&#45;&gt;Node8</title>
<g id="a_edge11_Node000007_Node000008"><a xlink:title=" ">
<path fill="none" stroke="#63b8ff" d="M267.31,-185.2C275.48,-184.77 283.95,-184.33 292.31,-183.89"/>
<polygon fill="#63b8ff" stroke="#63b8ff" points="292.29,-187.4 302.09,-183.38 291.92,-180.41 292.29,-187.4"/>
</a>
</g>
</g>
<!-- Node9&#45;&gt;Node2 -->
<g id="edge14_Node000009_Node000002" class="edge">
<title>Node9&#45;&gt;Node2</title>
<g id="a_edge14_Node000009_Node000002"><a xlink:title=" ">
<path fill="none" stroke="#63b8ff" d="M390.99,-130.91C401.52,-137.81 413.21,-146.56 422.25,-156.25 469.02,-206.33 505.65,-279.82 521.68,-315.01"/>
<polygon fill="#63b8ff" stroke="#63b8ff" points="518.42,-316.3 525.7,-324.01 524.82,-313.45 518.42,-316.3"/>
</a>
</g>
</g>
<!-- Node12 -->
<g id="Node000012" class="node">
<title>Node12</title>
<g id="a_Node000012"><a xlink:href="classfabomatic_1_1_l_c_d_wrapper.xhtml#aa6ad05c9ac8fd3ad6de6553732709acd" target="_top" xlink:title=" ">
<polygon fill="white" stroke="#666666" points="422.25,-30.5 303.5,-30.5 303.5,0 422.25,0 422.25,-30.5"/>
<text text-anchor="start" x="311.5" y="-17" font-family="Helvetica,sans-Serif" font-size="10.00">fabomatic::LCDWrapper</text>
<text text-anchor="middle" x="362.88" y="-5.75" font-family="Helvetica,sans-Serif" font-size="10.00">::clear</text>
</a>
</g>
</g>
<!-- Node11&#45;&gt;Node12 -->
<g id="edge17_Node000011_Node000012" class="edge">
<title>Node11&#45;&gt;Node12</title>
<g id="a_edge17_Node000011_Node000012"><a xlink:title=" ">
<path fill="none" stroke="#63b8ff" d="M267.75,-15.25C275.64,-15.25 283.8,-15.25 291.86,-15.25"/>
<polygon fill="#63b8ff" stroke="#63b8ff" points="291.65,-18.75 301.65,-15.25 291.65,-11.75 291.65,-18.75"/>
</a>
</g>
</g>
</g>
</svg>

<g id="navigator" transform="translate(0 0)" fill="#404254">
  <rect fill="#f2f5e9" fill-opacity="0.5" stroke="#606060" stroke-width=".5" x="0" y="0" width="60" height="60"/>
  <use id="zoomplus" xlink:href="#zoomPlus" x="17" y="9" onmousedown="handleZoom(evt,'in')"/>
  <use id="zoomminus" xlink:href="#zoomMin" x="42" y="9" onmousedown="handleZoom(evt,'out')"/>
  <use id="reset" xlink:href="#resetDef" x="30" y="36" onmousedown="handleReset()"/>
   <use id="arrowup" xlink:href="#arrowUp" x="0" y="0" onmousedown="handlePan(0,-1)"/>
  <use id="arrowright" xlink:href="#arrowRight" x="0" y="0" onmousedown="handlePan(1,0)"/>
  <use id="arrowdown" xlink:href="#arrowDown" x="0" y="0" onmousedown="handlePan(0,1)"/>
  <use id="arrowleft" xlink:href="#arrowLeft" x="0" y="0" onmousedown="handlePan(-1,0)"/>
</g>
<svg viewBox="0 0 15 15" width="100%" height="30px" preserveAspectRatio="xMaxYMin meet">
 <g id="arrow_out" transform="scale(0.3 0.3)">
  <a xlink:href="classfabomatic_1_1_board_logic_a420a0d05a91a02c27ad3b63a030738a0_cgraph_org.svg" target="_base">
   <rect id="button" ry="5" rx="5" y="6" x="6" height="38" width="38"
        fill="#f2f5e9" fill-opacity="0.5" stroke="#606060" stroke-width="1.0"/>
   <path id="arrow"
     d="M 11.500037,31.436501 C 11.940474,20.09759 22.043105,11.32322 32.158766,21.979434 L 37.068811,17.246167 C 37.068811,17.246167 37.088388,32 37.088388,32 L 22.160133,31.978069 C 22.160133,31.978069 26.997745,27.140456 26.997745,27.140456 C 18.528582,18.264221 13.291696,25.230495 11.500037,31.436501 z"
     style="fill:#404040;"/>
  </a>
 </g>
</svg>

<style type='text/css'>
<![CDATA[
[data-mouse-over-selected='false'] { opacity: 0.7; }
[data-mouse-over-selected='true']  { opacity: 1.0; }
]]>
</style>
<script type="application/ecmascript"><![CDATA[
document.addEventListener('DOMContentLoaded', (event) => {
  highlightEdges();
  highlightAdjacentNodes();
});
]]></script>
</svg>
