<?xml version="1.0" encoding="UTF-8" standalone="no"?>
<!DOCTYPE svg PUBLIC "-//W3C//DTD SVG 1.1//EN"
 "http://www.w3.org/Graphics/SVG/1.1/DTD/svg11.dtd">
<!-- Generated by graphviz version 9.0.0 (20230911.1827)
 -->
<!-- Title: fabomatic::Buffer Pages: 1 -->
<svg width="269pt" height="645pt"
 viewBox="0.00 0.00 268.75 645.00" xmlns="http://www.w3.org/2000/svg" xmlns:xlink="http://www.w3.org/1999/xlink">
<g id="graph0" class="graph" transform="scale(1 1) rotate(0) translate(4 641)">
<title>fabomatic::Buffer</title>
<!-- Node1 -->
<g id="Node000001" class="node">
<title>Node1</title>
<g id="a_Node000001"><a xlink:title=" ">
<polygon fill="#999999" stroke="none" points="160.5,-184 61.5,-184 61.5,0 160.5,0 160.5,-184"/>
<text text-anchor="start" x="74.62" y="-170.5" font-family="Helvetica,sans-Serif" font-size="10.00">fabomatic::Buffer</text>
<text text-anchor="start" x="65.5" y="-155.5" font-family="Helvetica,sans-Serif" font-size="10.00">+</text>
<text text-anchor="start" x="75.5" y="-155.5" font-family="Helvetica,sans-Serif" font-size="10.00">MAX_MESSAGES</text>
<text text-anchor="start" x="67" y="-140.5" font-family="Helvetica,sans-Serif" font-size="10.00">&#45;</text>
<text text-anchor="start" x="75.5" y="-140.5" font-family="Helvetica,sans-Serif" font-size="10.00">has_changed</text>
<text text-anchor="start" x="67" y="-125.5" font-family="Helvetica,sans-Serif" font-size="10.00">&#45;</text>
<text text-anchor="start" x="75.5" y="-125.5" font-family="Helvetica,sans-Serif" font-size="10.00">MAGIC_NUMBER</text>
<text text-anchor="start" x="65.5" y="-110.5" font-family="Helvetica,sans-Serif" font-size="10.00">+</text>
<text text-anchor="start" x="75.5" y="-110.5" font-family="Helvetica,sans-Serif" font-size="10.00">push_back()</text>
<text text-anchor="start" x="65.5" y="-95.5" font-family="Helvetica,sans-Serif" font-size="10.00">+</text>
<text text-anchor="start" x="75.5" y="-95.5" font-family="Helvetica,sans-Serif" font-size="10.00">push_front()</text>
<text text-anchor="start" x="65.5" y="-80.5" font-family="Helvetica,sans-Serif" font-size="10.00">+</text>
<text text-anchor="start" x="75.5" y="-80.5" font-family="Helvetica,sans-Serif" font-size="10.00">getMessage()</text>
<text text-anchor="start" x="65.5" y="-65.5" font-family="Helvetica,sans-Serif" font-size="10.00">+</text>
<text text-anchor="start" x="75.5" y="-65.5" font-family="Helvetica,sans-Serif" font-size="10.00">count()</text>
<text text-anchor="start" x="65.5" y="-50.5" font-family="Helvetica,sans-Serif" font-size="10.00">+</text>
<text text-anchor="start" x="75.5" y="-50.5" font-family="Helvetica,sans-Serif" font-size="10.00">toJson()</text>
<text text-anchor="start" x="65.5" y="-35.5" font-family="Helvetica,sans-Serif" font-size="10.00">+</text>
<text text-anchor="start" x="75.5" y="-35.5" font-family="Helvetica,sans-Serif" font-size="10.00">hasChanged()</text>
<text text-anchor="start" x="65.5" y="-20.5" font-family="Helvetica,sans-Serif" font-size="10.00">+</text>
<text text-anchor="start" x="75.5" y="-20.5" font-family="Helvetica,sans-Serif" font-size="10.00">setChanged()</text>
<text text-anchor="start" x="65.5" y="-5.5" font-family="Helvetica,sans-Serif" font-size="10.00">+</text>
<text text-anchor="start" x="75.5" y="-5.5" font-family="Helvetica,sans-Serif" font-size="10.00">fromJsonElement()</text>
<polygon fill="#666666" stroke="#666666" points="61.5,-167 61.5,-167 160.5,-167 160.5,-167 61.5,-167"/>
<polygon fill="#666666" stroke="#666666" points="61.5,-122 61.5,-122 73.5,-122 73.5,-122 61.5,-122"/>
<polygon fill="#666666" stroke="#666666" points="73.5,-122 73.5,-122 160.5,-122 160.5,-122 73.5,-122"/>
<polygon fill="none" stroke="#666666" points="61.5,0 61.5,-184 160.5,-184 160.5,0 61.5,0"/>
</a>
</g>
</g>
<!-- Node2 -->
<g id="Node000002" class="node">
<title>Node2</title>
<g id="a_Node000002"><a xlink:title=" ">
<polygon fill="white" stroke="none" points="163.5,-291.25 58.5,-291.25 58.5,-231.25 163.5,-231.25 163.5,-291.25"/>
<text text-anchor="start" x="63.38" y="-277.75" font-family="Helvetica,sans-Serif" font-size="10.00">std::deque&lt; fabomatic</text>
<text text-anchor="start" x="77.25" y="-266.5" font-family="Helvetica,sans-Serif" font-size="10.00">::BufferedMsg &gt;</text>
<text text-anchor="start" x="109.5" y="-251.75" font-family="Helvetica,sans-Serif" font-size="10.00"> </text>
<text text-anchor="start" x="109.5" y="-236.75" font-family="Helvetica,sans-Serif" font-size="10.00"> </text>
<polygon fill="#666666" stroke="#666666" points="58.5,-263.25 58.5,-263.25 163.5,-263.25 163.5,-263.25 58.5,-263.25"/>
<polygon fill="#666666" stroke="#666666" points="58.5,-248.25 58.5,-248.25 163.5,-248.25 163.5,-248.25 58.5,-248.25"/>
<polygon fill="none" stroke="#666666" points="58.5,-231.25 58.5,-291.25 163.5,-291.25 163.5,-231.25 58.5,-231.25"/>
</a>
</g>
</g>
<!-- Node2&#45;&gt;Node1 -->
<g id="edge1_Node000001_Node000002" class="edge">
<title>Node2&#45;&gt;Node1</title>
<g id="a_edge1_Node000001_Node000002"><a xlink:title=" ">
<path fill="none" stroke="#63b8ff" d="M111,-231.5C111,-221.41 111,-209.42 111,-196.77"/>
<polygon fill="none" stroke="#63b8ff" points="111,-196.85 107,-190.85 111,-184.85 115,-190.85 111,-196.85"/>
</a>
</g>
<text text-anchor="middle" x="138.75" y="-203.75" font-family="Helvetica,sans-Serif" font-size="10.00" fill="grey"> &#45;msg_queue</text>
</g>
<!-- Node3 -->
<g id="Node000003" class="node">
<title>Node3</title>
<g id="a_Node000003"><a xlink:href="structfabomatic_1_1_buffered_msg.xhtml" target="_top" xlink:title=" ">
<polygon fill="white" stroke="none" points="112,-432.5 0,-432.5 0,-338.5 112,-338.5 112,-432.5"/>
<text text-anchor="start" x="5" y="-419" font-family="Helvetica,sans-Serif" font-size="10.00">fabomatic::BufferedMsg</text>
<text text-anchor="start" x="9.5" y="-404" font-family="Helvetica,sans-Serif" font-size="10.00">+</text>
<text text-anchor="start" x="25" y="-404" font-family="Helvetica,sans-Serif" font-size="10.00">wait_for_answer</text>
<text text-anchor="start" x="9.5" y="-389" font-family="Helvetica,sans-Serif" font-size="10.00">+</text>
<text text-anchor="start" x="25" y="-389" font-family="Helvetica,sans-Serif" font-size="10.00">BufferedMsg()</text>
<text text-anchor="start" x="9.5" y="-374" font-family="Helvetica,sans-Serif" font-size="10.00">+</text>
<text text-anchor="start" x="25" y="-374" font-family="Helvetica,sans-Serif" font-size="10.00">BufferedMsg()</text>
<text text-anchor="start" x="9.5" y="-359" font-family="Helvetica,sans-Serif" font-size="10.00">+</text>
<text text-anchor="start" x="25" y="-359" font-family="Helvetica,sans-Serif" font-size="10.00">BufferedMsg()</text>
<text text-anchor="start" x="9.5" y="-344" font-family="Helvetica,sans-Serif" font-size="10.00">+</text>
<text text-anchor="start" x="25" y="-344" font-family="Helvetica,sans-Serif" font-size="10.00">BufferedMsg()</text>
<polygon fill="#666666" stroke="#666666" points="0,-415.5 0,-415.5 112,-415.5 112,-415.5 0,-415.5"/>
<polygon fill="#666666" stroke="#666666" points="0,-400.5 0,-400.5 23,-400.5 23,-400.5 0,-400.5"/>
<polygon fill="#666666" stroke="#666666" points="23,-400.5 23,-400.5 112,-400.5 112,-400.5 23,-400.5"/>
<polygon fill="none" stroke="#666666" points="0,-338.5 0,-432.5 112,-432.5 112,-338.5 0,-338.5"/>
</a>
</g>
</g>
<!-- Node3&#45;&gt;Node2 -->
<g id="edge2_Node000002_Node000003" class="edge">
<title>Node3&#45;&gt;Node2</title>
<g id="a_edge2_Node000002_Node000003"><a xlink:title=" ">
<path fill="none" stroke="#63b8ff" d="M74.1,-338.88C78.19,-329.04 82.63,-318.75 87,-309.25 87.98,-307.13 89,-304.96 90.05,-302.78"/>
<polygon fill="none" stroke="#63b8ff" points="90.07,-302.72 89.14,-295.57 95.38,-291.96 96.31,-299.11 90.07,-302.72"/>
</a>
</g>
<text text-anchor="middle" x="111" y="-311" font-family="Helvetica,sans-Serif" font-size="10.00" fill="grey"> +elements</text>
</g>
<!-- Node4 -->
<g id="Node000004" class="node">
<title>Node4</title>
<g id="a_Node000004"><a xlink:title=" ">
<polygon fill="white" stroke="none" points="82,-540 30,-540 30,-491 82,-491 82,-540"/>
<text text-anchor="start" x="35" y="-526.5" font-family="Helvetica,sans-Serif" font-size="10.00">std::string</text>
<text text-anchor="start" x="54.5" y="-511.5" font-family="Helvetica,sans-Serif" font-size="10.00"> </text>
<text text-anchor="start" x="54.5" y="-496.5" font-family="Helvetica,sans-Serif" font-size="10.00"> </text>
<polygon fill="#666666" stroke="#666666" points="30,-523 30,-523 82,-523 82,-523 30,-523"/>
<polygon fill="#666666" stroke="#666666" points="30,-508 30,-508 82,-508 82,-508 30,-508"/>
<polygon fill="none" stroke="#666666" points="30,-491 30,-540 82,-540 82,-491 30,-491"/>
</a>
</g>
</g>
<!-- Node4&#45;&gt;Node3 -->
<g id="edge3_Node000003_Node000004" class="edge">
<title>Node4&#45;&gt;Node3</title>
<g id="a_edge3_Node000003_Node000004"><a xlink:title=" ">
<path fill="none" stroke="#63b8ff" d="M56,-491.02C56,-478.1 56,-461.42 56,-445.2"/>
<polygon fill="none" stroke="#63b8ff" points="56,-445.28 52,-439.28 56,-433.28 60,-439.28 56,-445.28"/>
</a>
</g>
<text text-anchor="middle" x="92.38" y="-463.5" font-family="Helvetica,sans-Serif" font-size="10.00" fill="grey"> +mqtt_message</text>
<text text-anchor="middle" x="92.38" y="-452.25" font-family="Helvetica,sans-Serif" font-size="10.00" fill="grey">+mqtt_topic</text>
</g>
<!-- Node5 -->
<g id="Node000005" class="node">
<title>Node5</title>
<g id="a_Node000005"><a xlink:title=" ">
<polygon fill="white" stroke="none" points="99,-637 13,-637 13,-577 99,-577 99,-637"/>
<text text-anchor="start" x="17.75" y="-623.5" font-family="Helvetica,sans-Serif" font-size="10.00">std::basic_string&lt;</text>
<text text-anchor="start" x="40.62" y="-612.25" font-family="Helvetica,sans-Serif" font-size="10.00"> Char &gt;</text>
<text text-anchor="start" x="54.5" y="-597.5" font-family="Helvetica,sans-Serif" font-size="10.00"> </text>
<text text-anchor="start" x="54.5" y="-582.5" font-family="Helvetica,sans-Serif" font-size="10.00"> </text>
<polygon fill="#666666" stroke="#666666" points="13,-609 13,-609 99,-609 99,-609 13,-609"/>
<polygon fill="#666666" stroke="#666666" points="13,-594 13,-594 99,-594 99,-594 13,-594"/>
<polygon fill="none" stroke="#666666" points="13,-577 13,-637 99,-637 99,-577 13,-577"/>
</a>
</g>
</g>
<!-- Node5&#45;&gt;Node4 -->
<g id="edge4_Node000004_Node000005" class="edge">
<title>Node5&#45;&gt;Node4</title>
<g id="a_edge4_Node000004_Node000005"><a xlink:title=" ">
<path fill="none" stroke="#63b8ff" d="M56,-565.79C56,-556.92 56,-547.82 56,-539.88"/>
<polygon fill="none" stroke="#63b8ff" points="52.5,-565.68 56,-575.68 59.5,-565.68 52.5,-565.68"/>
</a>
</g>
</g>
<!-- Node6 -->
<g id="Node000006" class="node">
<title>Node6</title>
<g id="a_Node000006"><a xlink:title=" ">
<polygon fill="white" stroke="none" points="206,-410 130,-410 130,-361 206,-361 206,-410"/>
<text text-anchor="start" x="134.62" y="-396.5" font-family="Helvetica,sans-Serif" font-size="10.00">std::deque&lt; T &gt;</text>
<text text-anchor="start" x="166.5" y="-381.5" font-family="Helvetica,sans-Serif" font-size="10.00"> </text>
<text text-anchor="start" x="166.5" y="-366.5" font-family="Helvetica,sans-Serif" font-size="10.00"> </text>
<polygon fill="#666666" stroke="#666666" points="130,-393 130,-393 206,-393 206,-393 130,-393"/>
<polygon fill="#666666" stroke="#666666" points="130,-378 130,-378 206,-378 206,-378 130,-378"/>
<polygon fill="none" stroke="#666666" points="130,-361 130,-410 206,-410 206,-361 130,-361"/>
</a>
</g>
</g>
<!-- Node6&#45;&gt;Node2 -->
<g id="edge5_Node000002_Node000006" class="edge">
<title>Node6&#45;&gt;Node2</title>
<g id="a_edge5_Node000002_Node000006"><a xlink:title=" ">
<path fill="none" stroke="orange" d="M153.75,-350.85C148.08,-337.79 141.4,-322.74 135,-309.25 132.21,-303.37 129.13,-297.14 126.12,-291.2"/>
<polygon fill="orange" stroke="orange" points="150.47,-352.1 157.64,-359.9 156.9,-349.33 150.47,-352.1"/>
</a>
</g>
<text text-anchor="middle" x="200.38" y="-311" font-family="Helvetica,sans-Serif" font-size="10.00" fill="grey"> &lt; fabomatic::BufferedMsg &gt;</text>
</g>
<!-- Node7 -->
<g id="Node000007" class="node">
<title>Node7</title>
<g id="a_Node000007"><a xlink:title=" ">
<polygon fill="white" stroke="none" points="176,-540 160,-540 160,-491 176,-491 176,-540"/>
<text text-anchor="start" x="165" y="-526.5" font-family="Helvetica,sans-Serif" font-size="10.00">T</text>
<text text-anchor="start" x="166.5" y="-511.5" font-family="Helvetica,sans-Serif" font-size="10.00"> </text>
<text text-anchor="start" x="166.5" y="-496.5" font-family="Helvetica,sans-Serif" font-size="10.00"> </text>
<polygon fill="#666666" stroke="#666666" points="160,-523 160,-523 176,-523 176,-523 160,-523"/>
<polygon fill="#666666" stroke="#666666" points="160,-508 160,-508 176,-508 176,-508 160,-508"/>
<polygon fill="none" stroke="#666666" points="160,-491 160,-540 176,-540 176,-491 160,-491"/>
</a>
</g>
</g>
<!-- Node7&#45;&gt;Node6 -->
<g id="edge6_Node000006_Node000007" class="edge">
<title>Node7&#45;&gt;Node6</title>
<g id="a_edge6_Node000006_Node000007"><a xlink:title=" ">
<path fill="none" stroke="#63b8ff" d="M168,-491.02C168,-471.9 168,-444.57 168,-422.65"/>
<polygon fill="none" stroke="#63b8ff" points="168,-422.73 164,-416.73 168,-410.73 172,-416.73 168,-422.73"/>
</a>
</g>
<text text-anchor="middle" x="192" y="-457.88" font-family="Helvetica,sans-Serif" font-size="10.00" fill="grey"> +elements</text>
</g>
</g>
</svg>
