<?xml version="1.0" encoding="UTF-8" standalone="no"?>
<!DOCTYPE svg PUBLIC "-//W3C//DTD SVG 1.1//EN"
 "http://www.w3.org/Graphics/SVG/1.1/DTD/svg11.dtd">
<!-- Generated by graphviz version 9.0.0 (20230911.1827)
 -->
<!-- Title: fabomatic::MQTT::Query Pages: 1 -->
<svg width="1190pt" height="292pt"
 viewBox="0.00 0.00 1190.00 292.00" xmlns="http://www.w3.org/2000/svg" xmlns:xlink="http://www.w3.org/1999/xlink">
<g id="graph0" class="graph" transform="scale(1 1) rotate(0) translate(4 288)">
<title>fabomatic::MQTT::Query</title>
<!-- Node1 -->
<g id="Node000001" class="node">
<title>Node1</title>
<g id="a_Node000001"><a xlink:title="base class for all MQTT request to the backend">
<polygon fill="#999999" stroke="none" points="646.5,-284 531.5,-284 531.5,-190 646.5,-190 646.5,-284"/>
<text text-anchor="start" x="536.5" y="-270.5" font-family="Helvetica,sans-Serif" font-size="10.00">fabomatic::MQTT::Query</text>
<text text-anchor="start" x="587.5" y="-255.5" font-family="Helvetica,sans-Serif" font-size="10.00"> </text>
<text text-anchor="start" x="544" y="-240.5" font-family="Helvetica,sans-Serif" font-size="10.00">+</text>
<text text-anchor="start" x="562.5" y="-240.5" font-family="Helvetica,sans-Serif" font-size="10.00">waitForReply()</text>
<text text-anchor="start" x="544" y="-225.5" font-family="Helvetica,sans-Serif" font-size="10.00">+</text>
<text text-anchor="start" x="562.5" y="-225.5" font-family="Helvetica,sans-Serif" font-size="10.00">payload()</text>
<text text-anchor="start" x="544" y="-210.5" font-family="Helvetica,sans-Serif" font-size="10.00">+</text>
<text text-anchor="start" x="562.5" y="-210.5" font-family="Helvetica,sans-Serif" font-size="10.00">buffered()</text>
<text text-anchor="start" x="544" y="-195.5" font-family="Helvetica,sans-Serif" font-size="10.00">+</text>
<text text-anchor="start" x="562.5" y="-195.5" font-family="Helvetica,sans-Serif" font-size="10.00">~Query()</text>
<polygon fill="#666666" stroke="#666666" points="531.5,-267 531.5,-267 646.5,-267 646.5,-267 531.5,-267"/>
<polygon fill="#666666" stroke="#666666" points="531.5,-252 531.5,-252 646.5,-252 646.5,-252 531.5,-252"/>
<polygon fill="none" stroke="#666666" points="531.5,-190 531.5,-284 646.5,-284 646.5,-190 531.5,-190"/>
</a>
</g>
</g>
<!-- Node2 -->
<g id="Node000002" class="node">
<title>Node2</title>
<g id="a_Node000002"><a xlink:href="classfabomatic_1_1_buffered_query.xhtml" target="_top" xlink:title="Query to be replayed.">
<polygon fill="white" stroke="none" points="118,-154 0,-154 0,0 118,0 118,-154"/>
<text text-anchor="start" x="4.62" y="-140.5" font-family="Helvetica,sans-Serif" font-size="10.00">fabomatic::BufferedQuery</text>
<text text-anchor="start" x="12.5" y="-125.5" font-family="Helvetica,sans-Serif" font-size="10.00">&#45;</text>
<text text-anchor="start" x="28" y="-125.5" font-family="Helvetica,sans-Serif" font-size="10.00">mqtt_value</text>
<text text-anchor="start" x="12.5" y="-110.5" font-family="Helvetica,sans-Serif" font-size="10.00">&#45;</text>
<text text-anchor="start" x="28" y="-110.5" font-family="Helvetica,sans-Serif" font-size="10.00">mqtt_topic</text>
<text text-anchor="start" x="12.5" y="-95.5" font-family="Helvetica,sans-Serif" font-size="10.00">&#45;</text>
<text text-anchor="start" x="28" y="-95.5" font-family="Helvetica,sans-Serif" font-size="10.00">wait_for_answer</text>
<text text-anchor="start" x="11" y="-80.5" font-family="Helvetica,sans-Serif" font-size="10.00">+</text>
<text text-anchor="start" x="28" y="-80.5" font-family="Helvetica,sans-Serif" font-size="10.00">BufferedQuery()</text>
<text text-anchor="start" x="11" y="-65.5" font-family="Helvetica,sans-Serif" font-size="10.00">+</text>
<text text-anchor="start" x="28" y="-65.5" font-family="Helvetica,sans-Serif" font-size="10.00">BufferedQuery()</text>
<text text-anchor="start" x="11" y="-50.5" font-family="Helvetica,sans-Serif" font-size="10.00">+</text>
<text text-anchor="start" x="28" y="-50.5" font-family="Helvetica,sans-Serif" font-size="10.00">payload()</text>
<text text-anchor="start" x="11" y="-35.5" font-family="Helvetica,sans-Serif" font-size="10.00">+</text>
<text text-anchor="start" x="28" y="-35.5" font-family="Helvetica,sans-Serif" font-size="10.00">waitForReply()</text>
<text text-anchor="start" x="11" y="-20.5" font-family="Helvetica,sans-Serif" font-size="10.00">+</text>
<text text-anchor="start" x="28" y="-20.5" font-family="Helvetica,sans-Serif" font-size="10.00">buffered()</text>
<text text-anchor="start" x="11" y="-5.5" font-family="Helvetica,sans-Serif" font-size="10.00">+</text>
<text text-anchor="start" x="28" y="-5.5" font-family="Helvetica,sans-Serif" font-size="10.00">topic()</text>
<polygon fill="#666666" stroke="#666666" points="0,-137 0,-137 118,-137 118,-137 0,-137"/>
<polygon fill="#666666" stroke="#666666" points="0,-92 0,-92 26,-92 26,-92 0,-92"/>
<polygon fill="#666666" stroke="#666666" points="26,-92 26,-92 118,-92 118,-92 26,-92"/>
<polygon fill="none" stroke="#666666" points="0,0 0,-154 118,-154 118,0 0,0"/>
</a>
</g>
</g>
<!-- Node1&#45;&gt;Node2 -->
<g id="edge1_Node000001_Node000002" class="edge">
<title>Node1&#45;&gt;Node2</title>
<g id="a_edge1_Node000001_Node000002"><a xlink:title=" ">
<path fill="none" stroke="#63b8ff" d="M520.61,-229.39C409,-217.69 193.48,-191.04 127,-154 123.91,-152.28 120.88,-150.36 117.93,-148.29"/>
<polygon fill="none" stroke="#63b8ff" points="519.91,-232.83 530.22,-230.38 520.64,-225.87 519.91,-232.83"/>
</a>
</g>
</g>
<!-- Node3 -->
<g id="Node000003" class="node">
<title>Node3</title>
<g id="a_Node000003"><a xlink:href="classfabomatic_1_1_m_q_t_t_1_1_alive_query.xhtml" target="_top" xlink:title="board status notification">
<polygon fill="white" stroke="none" points="272,-124 136,-124 136,-30 272,-30 272,-124"/>
<text text-anchor="start" x="140.62" y="-110.5" font-family="Helvetica,sans-Serif" font-size="10.00">fabomatic::MQTT::AliveQuery</text>
<text text-anchor="start" x="202.5" y="-95.5" font-family="Helvetica,sans-Serif" font-size="10.00"> </text>
<text text-anchor="start" x="154" y="-80.5" font-family="Helvetica,sans-Serif" font-size="10.00">+</text>
<text text-anchor="start" x="178" y="-80.5" font-family="Helvetica,sans-Serif" font-size="10.00">AliveQuery()</text>
<text text-anchor="start" x="154" y="-65.5" font-family="Helvetica,sans-Serif" font-size="10.00">+</text>
<text text-anchor="start" x="178" y="-65.5" font-family="Helvetica,sans-Serif" font-size="10.00">payload()</text>
<text text-anchor="start" x="154" y="-50.5" font-family="Helvetica,sans-Serif" font-size="10.00">+</text>
<text text-anchor="start" x="178" y="-50.5" font-family="Helvetica,sans-Serif" font-size="10.00">waitForReply()</text>
<text text-anchor="start" x="154" y="-35.5" font-family="Helvetica,sans-Serif" font-size="10.00">+</text>
<text text-anchor="start" x="178" y="-35.5" font-family="Helvetica,sans-Serif" font-size="10.00">buffered()</text>
<polygon fill="#666666" stroke="#666666" points="136,-107 136,-107 272,-107 272,-107 136,-107"/>
<polygon fill="#666666" stroke="#666666" points="136,-92 136,-92 272,-92 272,-92 136,-92"/>
<polygon fill="none" stroke="#666666" points="136,-30 136,-124 272,-124 272,-30 136,-30"/>
</a>
</g>
</g>
<!-- Node1&#45;&gt;Node3 -->
<g id="edge2_Node000001_Node000003" class="edge">
<title>Node1&#45;&gt;Node3</title>
<g id="a_edge2_Node000001_Node000003"><a xlink:title=" ">
<path fill="none" stroke="#63b8ff" d="M520.36,-228.06C455.26,-218.22 356.45,-197.15 281,-154 267.14,-146.07 254,-135.03 242.62,-123.82"/>
<polygon fill="none" stroke="#63b8ff" points="519.81,-231.52 530.21,-229.49 520.82,-224.59 519.81,-231.52"/>
</a>
</g>
</g>
<!-- Node4 -->
<g id="Node000004" class="node">
<title>Node4</title>
<g id="a_Node000004"><a xlink:href="classfabomatic_1_1_m_q_t_t_1_1_in_use_query.xhtml" target="_top" xlink:title="periodical message when the machine is in use">
<polygon fill="white" stroke="none" points="431.5,-139 290.5,-139 290.5,-15 431.5,-15 431.5,-139"/>
<text text-anchor="start" x="295.38" y="-125.5" font-family="Helvetica,sans-Serif" font-size="10.00">fabomatic::MQTT::InUseQuery</text>
<text text-anchor="start" x="309.5" y="-110.5" font-family="Helvetica,sans-Serif" font-size="10.00">+</text>
<text text-anchor="start" x="334.5" y="-110.5" font-family="Helvetica,sans-Serif" font-size="10.00">uid</text>
<text text-anchor="start" x="309.5" y="-95.5" font-family="Helvetica,sans-Serif" font-size="10.00">+</text>
<text text-anchor="start" x="334.5" y="-95.5" font-family="Helvetica,sans-Serif" font-size="10.00">duration_s</text>
<text text-anchor="start" x="309.5" y="-80.5" font-family="Helvetica,sans-Serif" font-size="10.00">+</text>
<text text-anchor="start" x="334.5" y="-80.5" font-family="Helvetica,sans-Serif" font-size="10.00">InUseQuery()</text>
<text text-anchor="start" x="309.5" y="-65.5" font-family="Helvetica,sans-Serif" font-size="10.00">+</text>
<text text-anchor="start" x="334.5" y="-65.5" font-family="Helvetica,sans-Serif" font-size="10.00">InUseQuery()</text>
<text text-anchor="start" x="309.5" y="-50.5" font-family="Helvetica,sans-Serif" font-size="10.00">+</text>
<text text-anchor="start" x="334.5" y="-50.5" font-family="Helvetica,sans-Serif" font-size="10.00">payload()</text>
<text text-anchor="start" x="309.5" y="-35.5" font-family="Helvetica,sans-Serif" font-size="10.00">+</text>
<text text-anchor="start" x="334.5" y="-35.5" font-family="Helvetica,sans-Serif" font-size="10.00">waitForReply()</text>
<text text-anchor="start" x="309.5" y="-20.5" font-family="Helvetica,sans-Serif" font-size="10.00">+</text>
<text text-anchor="start" x="334.5" y="-20.5" font-family="Helvetica,sans-Serif" font-size="10.00">buffered()</text>
<polygon fill="#666666" stroke="#666666" points="290.5,-122 290.5,-122 431.5,-122 431.5,-122 290.5,-122"/>
<polygon fill="#666666" stroke="#666666" points="290.5,-92 290.5,-92 332.5,-92 332.5,-92 290.5,-92"/>
<polygon fill="#666666" stroke="#666666" points="332.5,-92 332.5,-92 431.5,-92 431.5,-92 332.5,-92"/>
<polygon fill="none" stroke="#666666" points="290.5,-15 290.5,-139 431.5,-139 431.5,-15 290.5,-15"/>
</a>
</g>
</g>
<!-- Node1&#45;&gt;Node4 -->
<g id="edge3_Node000001_Node000004" class="edge">
<title>Node1&#45;&gt;Node4</title>
<g id="a_edge3_Node000001_Node000004"><a xlink:title=" ">
<path fill="none" stroke="#63b8ff" d="M521.6,-203.3C495.51,-189.48 465.99,-172.33 441,-154 434.67,-149.35 428.31,-144.25 422.1,-138.95"/>
<polygon fill="none" stroke="#63b8ff" points="519.96,-206.4 530.44,-207.93 523.2,-200.19 519.96,-206.4"/>
</a>
</g>
</g>
<!-- Node5 -->
<g id="Node000005" class="node">
<title>Node5</title>
<g id="a_Node000005"><a xlink:href="classfabomatic_1_1_m_q_t_t_1_1_machine_query.xhtml" target="_top" xlink:title="machine status query">
<polygon fill="white" stroke="none" points="576,-129.5 450,-129.5 450,-24.5 576,-24.5 576,-129.5"/>
<text text-anchor="start" x="454.88" y="-116" font-family="Helvetica,sans-Serif" font-size="10.00">fabomatic::MQTT::Machine</text>
<text text-anchor="start" x="500.25" y="-104.75" font-family="Helvetica,sans-Serif" font-size="10.00">Query</text>
<text text-anchor="start" x="511.5" y="-90" font-family="Helvetica,sans-Serif" font-size="10.00"> </text>
<text text-anchor="start" x="464" y="-75" font-family="Helvetica,sans-Serif" font-size="10.00">+</text>
<text text-anchor="start" x="484" y="-75" font-family="Helvetica,sans-Serif" font-size="10.00">MachineQuery()</text>
<text text-anchor="start" x="464" y="-60" font-family="Helvetica,sans-Serif" font-size="10.00">+</text>
<text text-anchor="start" x="484" y="-60" font-family="Helvetica,sans-Serif" font-size="10.00">payload()</text>
<text text-anchor="start" x="464" y="-45" font-family="Helvetica,sans-Serif" font-size="10.00">+</text>
<text text-anchor="start" x="484" y="-45" font-family="Helvetica,sans-Serif" font-size="10.00">waitForReply()</text>
<text text-anchor="start" x="464" y="-30" font-family="Helvetica,sans-Serif" font-size="10.00">+</text>
<text text-anchor="start" x="484" y="-30" font-family="Helvetica,sans-Serif" font-size="10.00">buffered()</text>
<polygon fill="#666666" stroke="#666666" points="450,-101.5 450,-101.5 576,-101.5 576,-101.5 450,-101.5"/>
<polygon fill="#666666" stroke="#666666" points="450,-86.5 450,-86.5 576,-86.5 576,-86.5 450,-86.5"/>
<polygon fill="none" stroke="#666666" points="450,-24.5 450,-129.5 576,-129.5 576,-24.5 450,-24.5"/>
</a>
</g>
</g>
<!-- Node1&#45;&gt;Node5 -->
<g id="edge4_Node000001_Node000005" class="edge">
<title>Node1&#45;&gt;Node5</title>
<g id="a_edge4_Node000001_Node000005"><a xlink:title=" ">
<path fill="none" stroke="#63b8ff" d="M562.17,-180.23C554.22,-163.69 545.55,-145.67 537.74,-129.43"/>
<polygon fill="none" stroke="#63b8ff" points="558.87,-181.44 566.36,-188.94 565.18,-178.41 558.87,-181.44"/>
</a>
</g>
</g>
<!-- Node6 -->
<g id="Node000006" class="node">
<title>Node6</title>
<g id="a_Node000006"><a xlink:href="classfabomatic_1_1_m_q_t_t_1_1_register_maintenance_query.xhtml" target="_top" xlink:title="Maintenance action record.">
<polygon fill="white" stroke="none" points="735.5,-137 594.5,-137 594.5,-17 735.5,-17 735.5,-137"/>
<text text-anchor="start" x="607.25" y="-123.5" font-family="Helvetica,sans-Serif" font-size="10.00">fabomatic::MQTT::Register</text>
<text text-anchor="start" x="624.5" y="-112.25" font-family="Helvetica,sans-Serif" font-size="10.00">MaintenanceQuery</text>
<text text-anchor="start" x="598.5" y="-97.5" font-family="Helvetica,sans-Serif" font-size="10.00">+</text>
<text text-anchor="start" x="608.5" y="-97.5" font-family="Helvetica,sans-Serif" font-size="10.00">uid</text>
<text text-anchor="start" x="598.5" y="-82.5" font-family="Helvetica,sans-Serif" font-size="10.00">+</text>
<text text-anchor="start" x="608.5" y="-82.5" font-family="Helvetica,sans-Serif" font-size="10.00">RegisterMaintenanceQuery()</text>
<text text-anchor="start" x="598.5" y="-67.5" font-family="Helvetica,sans-Serif" font-size="10.00">+</text>
<text text-anchor="start" x="608.5" y="-67.5" font-family="Helvetica,sans-Serif" font-size="10.00">RegisterMaintenanceQuery()</text>
<text text-anchor="start" x="598.5" y="-52.5" font-family="Helvetica,sans-Serif" font-size="10.00">+</text>
<text text-anchor="start" x="608.5" y="-52.5" font-family="Helvetica,sans-Serif" font-size="10.00">payload()</text>
<text text-anchor="start" x="598.5" y="-37.5" font-family="Helvetica,sans-Serif" font-size="10.00">+</text>
<text text-anchor="start" x="608.5" y="-37.5" font-family="Helvetica,sans-Serif" font-size="10.00">waitForReply()</text>
<text text-anchor="start" x="598.5" y="-22.5" font-family="Helvetica,sans-Serif" font-size="10.00">+</text>
<text text-anchor="start" x="608.5" y="-22.5" font-family="Helvetica,sans-Serif" font-size="10.00">buffered()</text>
<polygon fill="#666666" stroke="#666666" points="594.5,-109 594.5,-109 735.5,-109 735.5,-109 594.5,-109"/>
<polygon fill="#666666" stroke="#666666" points="594.5,-94 594.5,-94 606.5,-94 606.5,-94 594.5,-94"/>
<polygon fill="#666666" stroke="#666666" points="606.5,-94 606.5,-94 735.5,-94 735.5,-94 606.5,-94"/>
<polygon fill="none" stroke="#666666" points="594.5,-17 594.5,-137 735.5,-137 735.5,-17 594.5,-17"/>
</a>
</g>
</g>
<!-- Node1&#45;&gt;Node6 -->
<g id="edge5_Node000001_Node000006" class="edge">
<title>Node1&#45;&gt;Node6</title>
<g id="a_edge5_Node000001_Node000006"><a xlink:title=" ">
<path fill="none" stroke="#63b8ff" d="M615.8,-180.28C622.57,-166.21 629.85,-151.07 636.69,-136.86"/>
<polygon fill="none" stroke="#63b8ff" points="612.82,-178.41 611.64,-188.94 619.13,-181.44 612.82,-178.41"/>
</a>
</g>
</g>
<!-- Node7 -->
<g id="Node000007" class="node">
<title>Node7</title>
<g id="a_Node000007"><a xlink:href="classfabomatic_1_1_m_q_t_t_1_1_start_use_query.xhtml" target="_top" xlink:title="start of machine use">
<polygon fill="white" stroke="none" points="882,-137 754,-137 754,-17 882,-17 882,-137"/>
<text text-anchor="start" x="758.75" y="-123.5" font-family="Helvetica,sans-Serif" font-size="10.00">fabomatic::MQTT::StartUse</text>
<text text-anchor="start" x="805.25" y="-112.25" font-family="Helvetica,sans-Serif" font-size="10.00">Query</text>
<text text-anchor="start" x="768" y="-97.5" font-family="Helvetica,sans-Serif" font-size="10.00">+</text>
<text text-anchor="start" x="788" y="-97.5" font-family="Helvetica,sans-Serif" font-size="10.00">uid</text>
<text text-anchor="start" x="768" y="-82.5" font-family="Helvetica,sans-Serif" font-size="10.00">+</text>
<text text-anchor="start" x="788" y="-82.5" font-family="Helvetica,sans-Serif" font-size="10.00">StartUseQuery()</text>
<text text-anchor="start" x="768" y="-67.5" font-family="Helvetica,sans-Serif" font-size="10.00">+</text>
<text text-anchor="start" x="788" y="-67.5" font-family="Helvetica,sans-Serif" font-size="10.00">StartUseQuery()</text>
<text text-anchor="start" x="768" y="-52.5" font-family="Helvetica,sans-Serif" font-size="10.00">+</text>
<text text-anchor="start" x="788" y="-52.5" font-family="Helvetica,sans-Serif" font-size="10.00">payload()</text>
<text text-anchor="start" x="768" y="-37.5" font-family="Helvetica,sans-Serif" font-size="10.00">+</text>
<text text-anchor="start" x="788" y="-37.5" font-family="Helvetica,sans-Serif" font-size="10.00">waitForReply()</text>
<text text-anchor="start" x="768" y="-22.5" font-family="Helvetica,sans-Serif" font-size="10.00">+</text>
<text text-anchor="start" x="788" y="-22.5" font-family="Helvetica,sans-Serif" font-size="10.00">buffered()</text>
<polygon fill="#666666" stroke="#666666" points="754,-109 754,-109 882,-109 882,-109 754,-109"/>
<polygon fill="#666666" stroke="#666666" points="754,-94 754,-94 786,-94 786,-94 754,-94"/>
<polygon fill="#666666" stroke="#666666" points="786,-94 786,-94 882,-94 882,-94 786,-94"/>
<polygon fill="none" stroke="#666666" points="754,-17 754,-137 882,-137 882,-17 754,-17"/>
</a>
</g>
</g>
<!-- Node1&#45;&gt;Node7 -->
<g id="edge6_Node000001_Node000007" class="edge">
<title>Node1&#45;&gt;Node7</title>
<g id="a_edge6_Node000001_Node000007"><a xlink:title=" ">
<path fill="none" stroke="#63b8ff" d="M656.76,-206.31C685.26,-192.35 717.99,-174.31 745,-154 751.87,-148.83 758.68,-143 765.22,-136.92"/>
<polygon fill="none" stroke="#63b8ff" points="655.32,-203.12 647.83,-210.61 658.36,-209.42 655.32,-203.12"/>
</a>
</g>
</g>
<!-- Node8 -->
<g id="Node000008" class="node">
<title>Node8</title>
<g id="a_Node000008"><a xlink:href="classfabomatic_1_1_m_q_t_t_1_1_stop_use_query.xhtml" target="_top" xlink:title="end of machine use">
<polygon fill="white" stroke="none" points="1027.5,-144.5 900.5,-144.5 900.5,-9.5 1027.5,-9.5 1027.5,-144.5"/>
<text text-anchor="start" x="905.12" y="-131" font-family="Helvetica,sans-Serif" font-size="10.00">fabomatic::MQTT::StopUse</text>
<text text-anchor="start" x="951.25" y="-119.75" font-family="Helvetica,sans-Serif" font-size="10.00">Query</text>
<text text-anchor="start" x="914.5" y="-105" font-family="Helvetica,sans-Serif" font-size="10.00">+</text>
<text text-anchor="start" x="934.5" y="-105" font-family="Helvetica,sans-Serif" font-size="10.00">uid</text>
<text text-anchor="start" x="914.5" y="-90" font-family="Helvetica,sans-Serif" font-size="10.00">+</text>
<text text-anchor="start" x="934.5" y="-90" font-family="Helvetica,sans-Serif" font-size="10.00">duration_s</text>
<text text-anchor="start" x="914.5" y="-75" font-family="Helvetica,sans-Serif" font-size="10.00">+</text>
<text text-anchor="start" x="934.5" y="-75" font-family="Helvetica,sans-Serif" font-size="10.00">StopUseQuery()</text>
<text text-anchor="start" x="914.5" y="-60" font-family="Helvetica,sans-Serif" font-size="10.00">+</text>
<text text-anchor="start" x="934.5" y="-60" font-family="Helvetica,sans-Serif" font-size="10.00">StopUseQuery()</text>
<text text-anchor="start" x="914.5" y="-45" font-family="Helvetica,sans-Serif" font-size="10.00">+</text>
<text text-anchor="start" x="934.5" y="-45" font-family="Helvetica,sans-Serif" font-size="10.00">payload()</text>
<text text-anchor="start" x="914.5" y="-30" font-family="Helvetica,sans-Serif" font-size="10.00">+</text>
<text text-anchor="start" x="934.5" y="-30" font-family="Helvetica,sans-Serif" font-size="10.00">waitForReply()</text>
<text text-anchor="start" x="914.5" y="-15" font-family="Helvetica,sans-Serif" font-size="10.00">+</text>
<text text-anchor="start" x="934.5" y="-15" font-family="Helvetica,sans-Serif" font-size="10.00">buffered()</text>
<polygon fill="#666666" stroke="#666666" points="900.5,-116.5 900.5,-116.5 1027.5,-116.5 1027.5,-116.5 900.5,-116.5"/>
<polygon fill="#666666" stroke="#666666" points="900.5,-86.5 900.5,-86.5 932.5,-86.5 932.5,-86.5 900.5,-86.5"/>
<polygon fill="#666666" stroke="#666666" points="932.5,-86.5 932.5,-86.5 1027.5,-86.5 1027.5,-86.5 932.5,-86.5"/>
<polygon fill="none" stroke="#666666" points="900.5,-9.5 900.5,-144.5 1027.5,-144.5 1027.5,-9.5 900.5,-9.5"/>
</a>
</g>
</g>
<!-- Node1&#45;&gt;Node8 -->
<g id="edge7_Node000001_Node000008" class="edge">
<title>Node1&#45;&gt;Node8</title>
<g id="a_edge7_Node000001_Node000008"><a xlink:title=" ">
<path fill="none" stroke="#63b8ff" d="M657.43,-228.1C721.46,-218.32 817.93,-197.33 891,-154 895.88,-151.11 900.65,-147.8 905.26,-144.22"/>
<polygon fill="none" stroke="#63b8ff" points="657.14,-224.6 647.76,-229.52 658.16,-231.53 657.14,-224.6"/>
</a>
</g>
</g>
<!-- Node9 -->
<g id="Node000009" class="node">
<title>Node9</title>
<g id="a_Node000009"><a xlink:href="classfabomatic_1_1_m_q_t_t_1_1_user_query.xhtml" target="_top" xlink:title="user authentication query">
<polygon fill="white" stroke="none" points="1182,-131.5 1046,-131.5 1046,-22.5 1182,-22.5 1182,-131.5"/>
<text text-anchor="start" x="1051" y="-118" font-family="Helvetica,sans-Serif" font-size="10.00">fabomatic::MQTT::UserQuery</text>
<text text-anchor="start" x="1064" y="-103" font-family="Helvetica,sans-Serif" font-size="10.00">+</text>
<text text-anchor="start" x="1088" y="-103" font-family="Helvetica,sans-Serif" font-size="10.00">uid</text>
<text text-anchor="start" x="1064" y="-88" font-family="Helvetica,sans-Serif" font-size="10.00">+</text>
<text text-anchor="start" x="1088" y="-88" font-family="Helvetica,sans-Serif" font-size="10.00">UserQuery()</text>
<text text-anchor="start" x="1064" y="-73" font-family="Helvetica,sans-Serif" font-size="10.00">+</text>
<text text-anchor="start" x="1088" y="-73" font-family="Helvetica,sans-Serif" font-size="10.00">UserQuery()</text>
<text text-anchor="start" x="1064" y="-58" font-family="Helvetica,sans-Serif" font-size="10.00">+</text>
<text text-anchor="start" x="1088" y="-58" font-family="Helvetica,sans-Serif" font-size="10.00">waitForReply()</text>
<text text-anchor="start" x="1064" y="-43" font-family="Helvetica,sans-Serif" font-size="10.00">+</text>
<text text-anchor="start" x="1088" y="-43" font-family="Helvetica,sans-Serif" font-size="10.00">payload()</text>
<text text-anchor="start" x="1064" y="-28" font-family="Helvetica,sans-Serif" font-size="10.00">+</text>
<text text-anchor="start" x="1088" y="-28" font-family="Helvetica,sans-Serif" font-size="10.00">buffered()</text>
<polygon fill="#666666" stroke="#666666" points="1046,-114.5 1046,-114.5 1182,-114.5 1182,-114.5 1046,-114.5"/>
<polygon fill="#666666" stroke="#666666" points="1046,-99.5 1046,-99.5 1086,-99.5 1086,-99.5 1046,-99.5"/>
<polygon fill="#666666" stroke="#666666" points="1086,-99.5 1086,-99.5 1182,-99.5 1182,-99.5 1086,-99.5"/>
<polygon fill="none" stroke="#666666" points="1046,-22.5 1046,-131.5 1182,-131.5 1182,-22.5 1046,-22.5"/>
</a>
</g>
</g>
<!-- Node1&#45;&gt;Node9 -->
<g id="edge8_Node000001_Node000009" class="edge">
<title>Node1&#45;&gt;Node9</title>
<g id="a_edge8_Node000001_Node000009"><a xlink:title=" ">
<path fill="none" stroke="#63b8ff" d="M657.53,-235.78C749.05,-232.83 913.91,-218.07 1037,-154 1048.33,-148.1 1059.07,-139.98 1068.74,-131.22"/>
<polygon fill="none" stroke="#63b8ff" points="657.61,-232.28 647.71,-236.06 657.81,-239.27 657.61,-232.28"/>
</a>
</g>
</g>
</g>
</svg>
