<?xml version="1.0" encoding="UTF-8" standalone="no"?>
<!DOCTYPE svg PUBLIC "-//W3C//DTD SVG 1.1//EN"
 "http://www.w3.org/Graphics/SVG/1.1/DTD/svg11.dtd">
<!-- Generated by graphviz version 9.0.0 (20230911.1827)
 -->
<!-- Title: fabomatic::FabBackend::connectWiFi Pages: 1 -->
<!--zoomable 619 -->

<svg id="main" version="1.1" xmlns="http://www.w3.org/2000/svg" xmlns:xlink="http://www.w3.org/1999/xlink" xml:space="preserve" onload="init(evt)">
<style type="text/css"><![CDATA[
.node, .edge {opacity: 0.7;}
.node.selected, .edge.selected {opacity: 1;}
.edge:hover path { stroke: red; }
.edge:hover polygon { stroke: red; fill: red; }
]]></style>

<defs>
  <circle id="rim" cx="0" cy="0" r="7"/>
  <circle id="rim2" cx="0" cy="0" r="3.5"/>
  <g id="zoomPlus">
    <use xlink:href="#rim" fill="#404040"><set attributeName="fill" to="#808080" begin="zoomplus.mouseover" end="zoomplus.mouseout"/></use>
    <path d="M-4,0h8M0,-4v8" fill="none" stroke="white" stroke-width="1.5" pointer-events="none"/>
  </g>
  <g id="zoomMin">
    <use xlink:href="#rim" fill="#404040"><set attributeName="fill" to="#808080" begin="zoomminus.mouseover" end="zoomminus.mouseout"/></use>
    <path d="M-4,0h8" fill="none" stroke="white" stroke-width="1.5" pointer-events="none"/>
  </g>
  <g id="arrowUp" transform="translate(30 24)">
    <use xlink:href="#rim"/>
    <path pointer-events="none" fill="none" stroke="white" stroke-width="1.5" d="M0,-3.0v7 M-2.5,-0.5L0,-3.0L2.5,-0.5"/>
  </g>
  <g id="arrowRight" transform="rotate(90) translate(36 -43)">
    <use xlink:href="#rim"/>
    <path pointer-events="none" fill="none" stroke="white" stroke-width="1.5" d="M0,-3.0v7 M-2.5,-0.5L0,-3.0L2.5,-0.5"/>
  </g>
  <g id="arrowDown" transform="rotate(180) translate(-30 -48)">
    <use xlink:href="#rim"/>
    <path pointer-events="none" fill="none" stroke="white" stroke-width="1.5" d="M0,-3.0v7 M-2.5,-0.5L0,-3.0L2.5,-0.5"/>
  </g>
  <g id="arrowLeft" transform="rotate(270) translate(-36 17)">
    <use xlink:href="#rim"/>
    <path pointer-events="none" fill="none" stroke="white" stroke-width="1.5" d="M0,-3.0v7 M-2.5,-0.5L0,-3.0L2.5,-0.5"/>
  </g>
  <g id="resetDef">
    <use xlink:href="#rim2" fill="#404040"><set attributeName="fill" to="#808080" begin="reset.mouseover" end="reset.mouseout"/></use>
  </g>
</defs>
<script type="application/ecmascript">
var viewWidth = 1460;
var viewHeight = 619;
var sectionId = 'dynsection-9';
</script>
<script type="application/ecmascript" xlink:href="svg.min.js"/>
<svg id="graph" class="graph">
<g id="viewport">
<title>fabomatic::FabBackend::connectWiFi</title>
<!-- Node1 -->
<g id="Node000001" class="node">
<title>Node1</title>
<g id="a_Node000001"><a xlink:title="Connects to the WiFi network.">
<polygon fill="#999999" stroke="#666666" points="1452.25,-468.5 1334.25,-468.5 1334.25,-438 1452.25,-438 1452.25,-468.5"/>
<text text-anchor="start" x="1342.25" y="-455" font-family="Helvetica,sans-Serif" font-size="10.00">fabomatic::FabBackend</text>
<text text-anchor="middle" x="1393.25" y="-443.75" font-family="Helvetica,sans-Serif" font-size="10.00">::connectWiFi</text>
</a>
</g>
</g>
<!-- Node2 -->
<g id="Node000002" class="node">
<title>Node2</title>
<g id="a_Node000002"><a xlink:href="classfabomatic_1_1_fab_backend.xhtml#a1a45f556aadcbc428d14b7c7577ed43d" target="_top" xlink:title="Establishes a connection to the WiFi network and the MQTT server.">
<polygon fill="white" stroke="#666666" points="1298.25,-447.5 1180.25,-447.5 1180.25,-417 1298.25,-417 1298.25,-447.5"/>
<text text-anchor="start" x="1188.25" y="-434" font-family="Helvetica,sans-Serif" font-size="10.00">fabomatic::FabBackend</text>
<text text-anchor="middle" x="1239.25" y="-422.75" font-family="Helvetica,sans-Serif" font-size="10.00">::connect</text>
</a>
</g>
</g>
<!-- Node1&#45;&gt;Node2 -->
<g id="edge1_Node000001_Node000002" class="edge">
<title>Node1&#45;&gt;Node2</title>
<g id="a_edge1_Node000001_Node000002"><a xlink:title=" ">
<path fill="none" stroke="#63b8ff" d="M1322.68,-443.64C1314.65,-442.53 1306.53,-441.41 1298.68,-440.32"/>
<polygon fill="#63b8ff" stroke="#63b8ff" points="1322.03,-447.08 1332.42,-444.98 1322.99,-440.15 1322.03,-447.08"/>
</a>
</g>
</g>
<!-- Node24 -->
<g id="Node000024" class="node">
<title>Node24</title>
<g id="a_Node000024"><a xlink:href="namespacefabomatic_1_1tests.xhtml#aba7f55ee91c2d2a647fca6c8cc106c97" target="_top" xlink:title=" ">
<polygon fill="white" stroke="#666666" points="1137.5,-610.5 1031.5,-610.5 1031.5,-580 1137.5,-580 1137.5,-610.5"/>
<text text-anchor="start" x="1039.5" y="-597" font-family="Helvetica,sans-Serif" font-size="10.00">fabomatic::tests::test</text>
<text text-anchor="middle" x="1084.5" y="-585.75" font-family="Helvetica,sans-Serif" font-size="10.00">_start_broker</text>
</a>
</g>
</g>
<!-- Node1&#45;&gt;Node24 -->
<g id="edge48_Node000001_Node000024" class="edge">
<title>Node1&#45;&gt;Node24</title>
<g id="a_edge48_Node000001_Node000024"><a xlink:title=" ">
<path fill="none" stroke="#63b8ff" d="M1349.67,-473.95C1300.46,-497.73 1216.89,-537.67 1144.25,-570.25 1137.37,-573.33 1130,-576.54 1122.89,-579.59"/>
<polygon fill="#63b8ff" stroke="#63b8ff" points="1351.1,-477.15 1358.57,-469.64 1348.05,-470.85 1351.1,-477.15"/>
</a>
</g>
</g>
<!-- Node3 -->
<g id="Node000003" class="node">
<title>Node3</title>
<g id="a_Node000003"><a xlink:href="classfabomatic_1_1_fab_backend.xhtml#aaa691642839e9196217684949621f2a4" target="_top" xlink:title="Processes a query and returns the response.">
<polygon fill="white" stroke="#666666" points="1143.5,-426.5 1025.5,-426.5 1025.5,-396 1143.5,-396 1143.5,-426.5"/>
<text text-anchor="start" x="1033.5" y="-413" font-family="Helvetica,sans-Serif" font-size="10.00">fabomatic::FabBackend</text>
<text text-anchor="middle" x="1084.5" y="-401.75" font-family="Helvetica,sans-Serif" font-size="10.00">::processQuery</text>
</a>
</g>
</g>
<!-- Node2&#45;&gt;Node3 -->
<g id="edge2_Node000002_Node000003" class="edge">
<title>Node2&#45;&gt;Node3</title>
<g id="a_edge2_Node000002_Node000003"><a xlink:title=" ">
<path fill="none" stroke="#63b8ff" d="M1168.78,-422.7C1160.42,-421.55 1151.95,-420.39 1143.78,-419.26"/>
<polygon fill="#63b8ff" stroke="#63b8ff" points="1168.18,-426.15 1178.57,-424.04 1169.14,-419.22 1168.18,-426.15"/>
</a>
</g>
</g>
<!-- Node4 -->
<g id="Node000004" class="node">
<title>Node4</title>
<g id="a_Node000004"><a xlink:href="classfabomatic_1_1_board_logic.xhtml#aa0d3d3aa742eba1ffd00b97868ce7edc" target="_top" xlink:title="connects and polls the server for up&#45;to&#45;date machine information">
<polygon fill="white" stroke="#666666" points="1140.88,-291.5 1028.12,-291.5 1028.12,-261 1140.88,-261 1140.88,-291.5"/>
<text text-anchor="start" x="1036.12" y="-278" font-family="Helvetica,sans-Serif" font-size="10.00">fabomatic::BoardLogic</text>
<text text-anchor="middle" x="1084.5" y="-266.75" font-family="Helvetica,sans-Serif" font-size="10.00">::refreshFromServer</text>
</a>
</g>
</g>
<!-- Node2&#45;&gt;Node4 -->
<g id="edge3_Node000002_Node000004" class="edge">
<title>Node2&#45;&gt;Node4</title>
<g id="a_edge3_Node000002_Node000004"><a xlink:title=" ">
<path fill="none" stroke="#63b8ff" d="M1224.47,-406.93C1208.28,-379.08 1179.15,-334.42 1144.25,-305.25 1138.14,-300.14 1130.98,-295.66 1123.8,-291.85"/>
<polygon fill="#63b8ff" stroke="#63b8ff" points="1221.29,-408.43 1229.28,-415.4 1227.38,-404.97 1221.29,-408.43"/>
</a>
</g>
</g>
<!-- Node18 -->
<g id="Node000018" class="node">
<title>Node18</title>
<g id="a_Node000018"><a xlink:href="namespacefabomatic.xhtml#ae7de89faffd3bb8805727b8a1092a198" target="_top" xlink:title="Opens WiFi and server connection and updates board state accordingly.">
<polygon fill="white" stroke="#666666" points="988.75,-241.88 870.75,-241.88 870.75,-222.62 988.75,-222.62 988.75,-241.88"/>
<text text-anchor="middle" x="929.75" y="-228.38" font-family="Helvetica,sans-Serif" font-size="10.00">fabomatic::taskConnect</text>
</a>
</g>
</g>
<!-- Node2&#45;&gt;Node18 -->
<g id="edge31_Node000002_Node000018" class="edge">
<title>Node2&#45;&gt;Node18</title>
<g id="a_edge31_Node000002_Node000018"><a xlink:title=" ">
<path fill="none" stroke="#63b8ff" d="M1232.74,-405.47C1222.83,-364.75 1197.81,-288.22 1144.25,-252.25 1098.82,-221.74 1035.17,-219.67 989.2,-223.44"/>
<polygon fill="#63b8ff" stroke="#63b8ff" points="1229.32,-406.19 1234.96,-415.16 1236.14,-404.63 1229.32,-406.19"/>
</a>
</g>
</g>
<!-- Node20 -->
<g id="Node000020" class="node">
<title>Node20</title>
<g id="a_Node000020"><a xlink:href="namespacefabomatic_1_1tests.xhtml#a88a4242d48bfa4a0337df522d303c367" target="_top" xlink:title="Opens WiFi and server connection and updates board state accordingly.">
<polygon fill="white" stroke="#666666" points="982.75,-328.5 876.75,-328.5 876.75,-298 982.75,-298 982.75,-328.5"/>
<text text-anchor="start" x="884.75" y="-315" font-family="Helvetica,sans-Serif" font-size="10.00">fabomatic::tests::test</text>
<text text-anchor="middle" x="929.75" y="-303.75" font-family="Helvetica,sans-Serif" font-size="10.00">_taskConnect</text>
</a>
</g>
</g>
<!-- Node2&#45;&gt;Node20 -->
<g id="edge38_Node000002_Node000020" class="edge">
<title>Node2&#45;&gt;Node20</title>
<g id="a_edge38_Node000002_Node000020"><a xlink:title=" ">
<path fill="none" stroke="#63b8ff" d="M1221.24,-407.58C1204.44,-385.39 1176.64,-353.93 1144.25,-338.25 1093.36,-313.61 1027.93,-309.38 983,-310.03"/>
<polygon fill="#63b8ff" stroke="#63b8ff" points="1218.32,-409.52 1227.05,-415.52 1223.97,-405.38 1218.32,-409.52"/>
</a>
</g>
</g>
<!-- Node21 -->
<g id="Node000021" class="node">
<title>Node21</title>
<g id="a_Node000021"><a xlink:href="namespacefabomatic_1_1tests.xhtml#a95c3d2a5cfa25e610ac054894d766f73" target="_top" xlink:title=" ">
<polygon fill="white" stroke="#666666" points="1138.62,-512.5 1030.38,-512.5 1030.38,-482 1138.62,-482 1138.62,-512.5"/>
<text text-anchor="start" x="1038.38" y="-499" font-family="Helvetica,sans-Serif" font-size="10.00">fabomatic::tests::test</text>
<text text-anchor="middle" x="1084.5" y="-487.75" font-family="Helvetica,sans-Serif" font-size="10.00">_check_transmission</text>
</a>
</g>
</g>
<!-- Node2&#45;&gt;Node21 -->
<g id="edge32_Node000002_Node000021" class="edge">
<title>Node2&#45;&gt;Node21</title>
<g id="a_edge32_Node000002_Node000021"><a xlink:title=" ">
<path fill="none" stroke="#63b8ff" d="M1190.8,-452.44C1168.76,-461.82 1142.95,-472.8 1122.4,-481.55"/>
<polygon fill="#63b8ff" stroke="#63b8ff" points="1192.05,-455.71 1199.88,-448.58 1189.31,-449.27 1192.05,-455.71"/>
</a>
</g>
</g>
<!-- Node23 -->
<g id="Node000023" class="node">
<title>Node23</title>
<g id="a_Node000023"><a xlink:href="namespacefabomatic_1_1tests.xhtml#a438b9060c27d36e89506199205b342cb" target="_top" xlink:title=" ">
<polygon fill="white" stroke="#666666" points="982.75,-475.5 876.75,-475.5 876.75,-445 982.75,-445 982.75,-475.5"/>
<text text-anchor="start" x="884.75" y="-462" font-family="Helvetica,sans-Serif" font-size="10.00">fabomatic::tests::test</text>
<text text-anchor="middle" x="929.75" y="-450.75" font-family="Helvetica,sans-Serif" font-size="10.00">_fabserver_calls</text>
</a>
</g>
</g>
<!-- Node2&#45;&gt;Node23 -->
<g id="edge34_Node000002_Node000023" class="edge">
<title>Node2&#45;&gt;Node23</title>
<g id="a_edge34_Node000002_Node000023"><a xlink:title=" ">
<path fill="none" stroke="#63b8ff" d="M1168.73,-438.58C1112.39,-443.71 1034.22,-450.83 983.08,-455.49"/>
<polygon fill="#63b8ff" stroke="#63b8ff" points="1168.9,-442.08 1178.54,-437.69 1168.27,-435.11 1168.9,-442.08"/>
</a>
</g>
</g>
<!-- Node2&#45;&gt;Node24 -->
<g id="edge36_Node000002_Node000024" class="edge">
<title>Node2&#45;&gt;Node24</title>
<g id="a_edge36_Node000002_Node000024"><a xlink:title=" ">
<path fill="none" stroke="#63b8ff" d="M1221.56,-457.53C1195.97,-496.19 1149.42,-566.01 1144.25,-570.25 1139.97,-573.77 1135.12,-576.86 1130.08,-579.57"/>
<polygon fill="#63b8ff" stroke="#63b8ff" points="1224.45,-459.52 1227.04,-449.24 1218.61,-455.65 1224.45,-459.52"/>
</a>
</g>
</g>
<!-- Node25 -->
<g id="Node000025" class="node">
<title>Node25</title>
<g id="a_Node000025"><a xlink:href="classfabomatic_1_1_auth_provider.xhtml#aeae9923535dcf6cfa9eaf9e5f90e5e64" target="_top" xlink:title="Verifies the card ID against the server (if available) or the whitelist.">
<polygon fill="white" stroke="#666666" points="1144.25,-377.5 1024.75,-377.5 1024.75,-347 1144.25,-347 1144.25,-377.5"/>
<text text-anchor="start" x="1032.75" y="-364" font-family="Helvetica,sans-Serif" font-size="10.00">fabomatic::AuthProvider</text>
<text text-anchor="middle" x="1084.5" y="-352.75" font-family="Helvetica,sans-Serif" font-size="10.00">::tryLogin</text>
</a>
</g>
</g>
<!-- Node2&#45;&gt;Node25 -->
<g id="edge39_Node000002_Node000025" class="edge">
<title>Node2&#45;&gt;Node25</title>
<g id="a_edge39_Node000002_Node000025"><a xlink:title=" ">
<path fill="none" stroke="#63b8ff" d="M1196.41,-411.73C1180.19,-403.91 1161.43,-395.01 1144.25,-387.25 1137.38,-384.15 1130.02,-380.93 1122.9,-377.87"/>
<polygon fill="#63b8ff" stroke="#63b8ff" points="1194.76,-414.82 1205.29,-416.03 1197.81,-408.52 1194.76,-414.82"/>
</a>
</g>
</g>
<!-- Node29 -->
<g id="Node000029" class="node">
<title>Node29</title>
<g id="a_Node000029"><a xlink:href="classfabomatic_1_1_fab_backend.xhtml#a04951b9823ac466be2285640171013e5" target="_top" xlink:title="Waits for an answer from the MQTT server.">
<polygon fill="white" stroke="#666666" points="1143.5,-561.5 1025.5,-561.5 1025.5,-531 1143.5,-531 1143.5,-561.5"/>
<text text-anchor="start" x="1033.5" y="-548" font-family="Helvetica,sans-Serif" font-size="10.00">fabomatic::FabBackend</text>
<text text-anchor="middle" x="1084.5" y="-536.75" font-family="Helvetica,sans-Serif" font-size="10.00">::waitForAnswer</text>
</a>
</g>
</g>
<!-- Node2&#45;&gt;Node29 -->
<g id="edge46_Node000002_Node000029" class="edge">
<title>Node2&#45;&gt;Node29</title>
<g id="a_edge46_Node000002_Node000029"><a xlink:title=" ">
<path fill="none" stroke="#63b8ff" d="M1217.45,-456.22C1199.56,-475.7 1172.29,-502.87 1144.25,-521.25 1139.06,-524.65 1133.33,-527.76 1127.54,-530.55"/>
<polygon fill="#63b8ff" stroke="#63b8ff" points="1219.86,-458.76 1223.96,-448.99 1214.66,-454.07 1219.86,-458.76"/>
</a>
</g>
</g>
<!-- Node5 -->
<g id="Node000005" class="node">
<title>Node5</title>
<g id="a_Node000005"><a xlink:href="classfabomatic_1_1_board_logic.xhtml#a983c8de8b9c8881fc0a4e60dddc7f0c6" target="_top" xlink:title="Called when a RFID tag has been detected.">
<polygon fill="white" stroke="#666666" points="834.75,-295.5 722,-295.5 722,-265 834.75,-265 834.75,-295.5"/>
<text text-anchor="start" x="730" y="-282" font-family="Helvetica,sans-Serif" font-size="10.00">fabomatic::BoardLogic</text>
<text text-anchor="middle" x="778.38" y="-270.75" font-family="Helvetica,sans-Serif" font-size="10.00">::onNewCard</text>
</a>
</g>
</g>
<!-- Node4&#45;&gt;Node5 -->
<g id="edge4_Node000004_Node000005" class="edge">
<title>Node4&#45;&gt;Node5</title>
<g id="a_edge4_Node000004_Node000005"><a xlink:title=" ">
<path fill="none" stroke="#63b8ff" d="M1016.45,-277.13C962.02,-277.85 886.18,-278.85 835.06,-279.52"/>
<polygon fill="#63b8ff" stroke="#63b8ff" points="1016.25,-280.63 1026.21,-277 1016.16,-273.64 1016.25,-280.63"/>
</a>
</g>
</g>
<!-- Node4&#45;&gt;Node18 -->
<g id="edge28_Node000004_Node000018" class="edge">
<title>Node4&#45;&gt;Node18</title>
<g id="a_edge28_Node000004_Node000018"><a xlink:title=" ">
<path fill="none" stroke="#63b8ff" d="M1018.16,-257.43C1000.17,-252.25 981.34,-246.82 965.78,-242.34"/>
<polygon fill="#63b8ff" stroke="#63b8ff" points="1017.18,-260.79 1027.76,-260.19 1019.12,-254.06 1017.18,-260.79"/>
</a>
</g>
</g>
<!-- Node4&#45;&gt;Node20 -->
<g id="edge30_Node000004_Node000020" class="edge">
<title>Node4&#45;&gt;Node20</title>
<g id="a_edge30_Node000004_Node000020"><a xlink:title=" ">
<path fill="none" stroke="#63b8ff" d="M1016.81,-292.4C1005.57,-295.13 994.05,-297.92 983.23,-300.54"/>
<polygon fill="#63b8ff" stroke="#63b8ff" points="1017.56,-295.82 1026.45,-290.07 1015.91,-289.02 1017.56,-295.82"/>
</a>
</g>
</g>
<!-- Node6 -->
<g id="Node000006" class="node">
<title>Node6</title>
<g id="a_Node000006"><a xlink:href="classfabomatic_1_1_board_logic.xhtml#a25bdc3a49d850aa49f92faf951b68efb" target="_top" xlink:title="Checks if a new card is present.">
<polygon fill="white" stroke="#666666" points="686,-295.5 573.25,-295.5 573.25,-265 686,-265 686,-295.5"/>
<text text-anchor="start" x="581.25" y="-282" font-family="Helvetica,sans-Serif" font-size="10.00">fabomatic::BoardLogic</text>
<text text-anchor="middle" x="629.62" y="-270.75" font-family="Helvetica,sans-Serif" font-size="10.00">::checkRfid</text>
</a>
</g>
</g>
<!-- Node5&#45;&gt;Node6 -->
<g id="edge5_Node000005_Node000006" class="edge">
<title>Node5&#45;&gt;Node6</title>
<g id="a_edge5_Node000005_Node000006"><a xlink:title=" ">
<path fill="none" stroke="#63b8ff" d="M710.51,-280.25C702.37,-280.25 694.13,-280.25 686.18,-280.25"/>
<polygon fill="#63b8ff" stroke="#63b8ff" points="710.38,-283.75 720.38,-280.25 710.38,-276.75 710.38,-283.75"/>
</a>
</g>
</g>
<!-- Node7 -->
<g id="Node000007" class="node">
<title>Node7</title>
<g id="a_Node000007"><a xlink:href="namespacefabomatic_1_1tests.xhtml#a2600320f41c9fa343c66058ecb12b5ee" target="_top" xlink:title="Simulates RFID card tap.">
<polygon fill="white" stroke="#666666" points="537.25,-168.5 411,-168.5 411,-138 537.25,-138 537.25,-168.5"/>
<text text-anchor="start" x="419" y="-155" font-family="Helvetica,sans-Serif" font-size="10.00">fabomatic::tests::simulate</text>
<text text-anchor="middle" x="474.12" y="-143.75" font-family="Helvetica,sans-Serif" font-size="10.00">_rfid_card</text>
</a>
</g>
</g>
<!-- Node6&#45;&gt;Node7 -->
<g id="edge6_Node000006_Node000007" class="edge">
<title>Node6&#45;&gt;Node7</title>
<g id="a_edge6_Node000006_Node000007"><a xlink:title=" ">
<path fill="none" stroke="#63b8ff" d="M601.24,-257.59C570.38,-232.06 521,-191.21 494.1,-168.95"/>
<polygon fill="#63b8ff" stroke="#63b8ff" points="598.7,-260.03 608.64,-263.71 603.16,-254.64 598.7,-260.03"/>
</a>
</g>
</g>
<!-- Node14 -->
<g id="Node000014" class="node">
<title>Node14</title>
<g id="a_Node000014"><a xlink:href="namespacefabomatic_1_1tests.xhtml#aab0f4e1439b281ffef8be51db9a81f9d" target="_top" xlink:title=" ">
<polygon fill="white" stroke="#666666" points="191.75,-269.5 79,-269.5 79,-239 191.75,-239 191.75,-269.5"/>
<text text-anchor="start" x="87" y="-256" font-family="Helvetica,sans-Serif" font-size="10.00">fabomatic::tests::test</text>
<text text-anchor="middle" x="135.38" y="-244.75" font-family="Helvetica,sans-Serif" font-size="10.00">_whitelist_no_network</text>
</a>
</g>
</g>
<!-- Node6&#45;&gt;Node14 -->
<g id="edge27_Node000006_Node000014" class="edge">
<title>Node6&#45;&gt;Node14</title>
<g id="a_edge27_Node000006_Node000014"><a xlink:title=" ">
<path fill="none" stroke="#63b8ff" d="M561.89,-276.72C463.99,-271.55 283.23,-262.01 192.06,-257.19"/>
<polygon fill="#63b8ff" stroke="#63b8ff" points="561.43,-280.21 571.6,-277.24 561.8,-273.22 561.43,-280.21"/>
</a>
</g>
</g>
<!-- Node16 -->
<g id="Node000016" class="node">
<title>Node16</title>
<g id="a_Node000016"><a xlink:href="namespacefabomatic.xhtml#a3e5c190499522bddad3f3cc69274f16c" target="_top" xlink:title="periodic check for new RFID card">
<polygon fill="white" stroke="#666666" points="537.25,-333.88 411,-333.88 411,-314.62 537.25,-314.62 537.25,-333.88"/>
<text text-anchor="middle" x="474.12" y="-320.38" font-family="Helvetica,sans-Serif" font-size="10.00">fabomatic::taskCheckRfid</text>
</a>
</g>
</g>
<!-- Node6&#45;&gt;Node16 -->
<g id="edge25_Node000006_Node000016" class="edge">
<title>Node6&#45;&gt;Node16</title>
<g id="a_edge25_Node000006_Node000016"><a xlink:title=" ">
<path fill="none" stroke="#63b8ff" d="M563.22,-299C545.06,-304.2 526.04,-309.66 510.33,-314.16"/>
<polygon fill="#63b8ff" stroke="#63b8ff" points="563.97,-302.42 572.62,-296.3 562.04,-295.69 563.97,-302.42"/>
</a>
</g>
</g>
<!-- Node17 -->
<g id="Node000017" class="node">
<title>Node17</title>
<g id="a_Node000017"><a xlink:href="namespacefabomatic_1_1tests.xhtml#a294b4767ecf1e1d11cc31dafb2541d23" target="_top" xlink:title="periodic check for new RFID card">
<polygon fill="white" stroke="#666666" points="527.12,-258.5 421.12,-258.5 421.12,-228 527.12,-228 527.12,-258.5"/>
<text text-anchor="start" x="429.12" y="-245" font-family="Helvetica,sans-Serif" font-size="10.00">fabomatic::tests::test</text>
<text text-anchor="middle" x="474.12" y="-233.75" font-family="Helvetica,sans-Serif" font-size="10.00">_taskCheckRfid</text>
</a>
</g>
</g>
<!-- Node6&#45;&gt;Node17 -->
<g id="edge26_Node000006_Node000017" class="edge">
<title>Node6&#45;&gt;Node17</title>
<g id="a_edge26_Node000006_Node000017"><a xlink:title=" ">
<path fill="none" stroke="#63b8ff" d="M561.9,-264.17C550.42,-261.4 538.65,-258.56 527.61,-255.9"/>
<polygon fill="#63b8ff" stroke="#63b8ff" points="560.76,-267.49 571.3,-266.43 562.4,-260.69 560.76,-267.49"/>
</a>
</g>
</g>
<!-- Node8 -->
<g id="Node000008" class="node">
<title>Node8</title>
<g id="a_Node000008"><a xlink:href="namespacefabomatic_1_1tests.xhtml#a6a7645a865dc822746f972ea6f43224d" target="_top" xlink:title="Resets machine to initial state, clearing flags.">
<polygon fill="white" stroke="#666666" points="375,-181.88 230.75,-181.88 230.75,-162.62 375,-162.62 375,-181.88"/>
<text text-anchor="middle" x="302.88" y="-168.38" font-family="Helvetica,sans-Serif" font-size="10.00">fabomatic::tests::machine_init</text>
</a>
</g>
</g>
<!-- Node7&#45;&gt;Node8 -->
<g id="edge7_Node000007_Node000008" class="edge">
<title>Node7&#45;&gt;Node8</title>
<g id="a_edge7_Node000007_Node000008"><a xlink:title=" ">
<path fill="none" stroke="#63b8ff" d="M399.39,-161.53C391.4,-162.42 383.27,-163.34 375.3,-164.23"/>
<polygon fill="#63b8ff" stroke="#63b8ff" points="399.53,-165.03 409.08,-160.44 398.75,-158.08 399.53,-165.03"/>
</a>
</g>
</g>
<!-- Node9 -->
<g id="Node000009" class="node">
<title>Node9</title>
<g id="a_Node000009"><a xlink:href="namespacefabomatic_1_1tests.xhtml#a558e2287db01a4622581246a19dac397" target="_top" xlink:title=" ">
<polygon fill="white" stroke="#666666" points="188.38,-122.5 82.38,-122.5 82.38,-92 188.38,-92 188.38,-122.5"/>
<text text-anchor="start" x="90.38" y="-109" font-family="Helvetica,sans-Serif" font-size="10.00">fabomatic::tests::test</text>
<text text-anchor="middle" x="135.38" y="-97.75" font-family="Helvetica,sans-Serif" font-size="10.00">_machine_allowed</text>
</a>
</g>
</g>
<!-- Node7&#45;&gt;Node9 -->
<g id="edge18_Node000007_Node000009" class="edge">
<title>Node7&#45;&gt;Node9</title>
<g id="a_edge18_Node000007_Node000009"><a xlink:title=" ">
<path fill="none" stroke="#63b8ff" d="M399.4,-143.18C335.67,-134.47 245.16,-122.11 188.65,-114.39"/>
<polygon fill="#63b8ff" stroke="#63b8ff" points="398.69,-146.61 409.07,-144.5 399.64,-139.68 398.69,-146.61"/>
</a>
</g>
</g>
<!-- Node11 -->
<g id="Node000011" class="node">
<title>Node11</title>
<g id="a_Node000011"><a xlink:href="namespacefabomatic_1_1tests.xhtml#a9a34631c2dc01cbdbbce146895c94e12" target="_top" xlink:title=" ">
<polygon fill="white" stroke="#666666" points="194.75,-73.5 76,-73.5 76,-43 194.75,-43 194.75,-73.5"/>
<text text-anchor="start" x="84" y="-60" font-family="Helvetica,sans-Serif" font-size="10.00">fabomatic::tests::test</text>
<text text-anchor="middle" x="135.38" y="-48.75" font-family="Helvetica,sans-Serif" font-size="10.00">_machine_maintenance</text>
</a>
</g>
</g>
<!-- Node7&#45;&gt;Node11 -->
<g id="edge19_Node000007_Node000011" class="edge">
<title>Node7&#45;&gt;Node11</title>
<g id="a_edge19_Node000007_Node000011"><a xlink:title=" ">
<path fill="none" stroke="#63b8ff" d="M422.62,-133.52C407.43,-127.91 390.64,-122.04 375,-117.25 314.4,-98.7 243.81,-81.82 195.21,-70.91"/>
<polygon fill="#63b8ff" stroke="#63b8ff" points="421.35,-136.78 431.94,-137.01 423.8,-130.23 421.35,-136.78"/>
</a>
</g>
</g>
<!-- Node12 -->
<g id="Node000012" class="node">
<title>Node12</title>
<g id="a_Node000012"><a xlink:href="namespacefabomatic_1_1tests.xhtml#a6f3dff17fd964aba76c35c514957a0a5" target="_top" xlink:title=" ">
<polygon fill="white" stroke="#666666" points="189.88,-220.5 80.88,-220.5 80.88,-190 189.88,-190 189.88,-220.5"/>
<text text-anchor="start" x="88.88" y="-207" font-family="Helvetica,sans-Serif" font-size="10.00">fabomatic::tests::test</text>
<text text-anchor="middle" x="135.38" y="-195.75" font-family="Helvetica,sans-Serif" font-size="10.00">_one_user_at_a_time</text>
</a>
</g>
</g>
<!-- Node7&#45;&gt;Node12 -->
<g id="edge22_Node000007_Node000012" class="edge">
<title>Node7&#45;&gt;Node12</title>
<g id="a_edge22_Node000007_Node000012"><a xlink:title=" ">
<path fill="none" stroke="#63b8ff" d="M429.75,-173.39C413,-180.27 393.45,-187.24 375,-191.25 312.55,-204.82 238.88,-207.13 190.09,-206.82"/>
<polygon fill="#63b8ff" stroke="#63b8ff" points="431.08,-176.63 438.92,-169.5 428.35,-170.18 431.08,-176.63"/>
</a>
</g>
</g>
<!-- Node13 -->
<g id="Node000013" class="node">
<title>Node13</title>
<g id="a_Node000013"><a xlink:href="namespacefabomatic_1_1tests.xhtml#afa92fef9250d918ee02c79dbf2de2546" target="_top" xlink:title=" ">
<polygon fill="white" stroke="#666666" points="188.38,-171.5 82.38,-171.5 82.38,-141 188.38,-141 188.38,-171.5"/>
<text text-anchor="start" x="90.38" y="-158" font-family="Helvetica,sans-Serif" font-size="10.00">fabomatic::tests::test</text>
<text text-anchor="middle" x="135.38" y="-146.75" font-family="Helvetica,sans-Serif" font-size="10.00">_user_autologoff</text>
</a>
</g>
</g>
<!-- Node7&#45;&gt;Node13 -->
<g id="edge23_Node000007_Node000013" class="edge">
<title>Node7&#45;&gt;Node13</title>
<g id="a_edge23_Node000007_Node000013"><a xlink:title=" ">
<path fill="none" stroke="#63b8ff" d="M399.37,-152.64C351.34,-152.4 287.33,-152.35 230.75,-153.25 217.15,-153.47 202.44,-153.86 188.78,-154.29"/>
<polygon fill="#63b8ff" stroke="#63b8ff" points="399.07,-156.14 409.09,-152.7 399.11,-149.14 399.07,-156.14"/>
</a>
</g>
</g>
<!-- Node7&#45;&gt;Node14 -->
<g id="edge24_Node000007_Node000014" class="edge">
<title>Node7&#45;&gt;Node14</title>
<g id="a_edge24_Node000007_Node000014"><a xlink:title=" ">
<path fill="none" stroke="#63b8ff" d="M443.72,-175.32C424.99,-188.32 399.67,-203.98 375,-213.25 314.8,-235.87 241.32,-246.1 191.94,-250.67"/>
<polygon fill="#63b8ff" stroke="#63b8ff" points="445.52,-178.33 451.65,-169.69 441.47,-172.63 445.52,-178.33"/>
</a>
</g>
</g>
<!-- Node15 -->
<g id="Node000015" class="node">
<title>Node15</title>
<g id="a_Node000015"><a xlink:href="namespacefabomatic_1_1tests.xhtml#af8fa7ace86309b5f699540d8898660c7" target="_top" xlink:title=" ">
<polygon fill="white" stroke="#666666" points="355.88,-30.5 249.88,-30.5 249.88,0 355.88,0 355.88,-30.5"/>
<text text-anchor="start" x="257.88" y="-17" font-family="Helvetica,sans-Serif" font-size="10.00">fabomatic::tests::test</text>
<text text-anchor="middle" x="302.88" y="-5.75" font-family="Helvetica,sans-Serif" font-size="10.00">_messages_buffered</text>
</a>
</g>
</g>
<!-- Node7&#45;&gt;Node15 -->
<g id="edge20_Node000007_Node000015" class="edge">
<title>Node7&#45;&gt;Node15</title>
<g id="a_edge20_Node000007_Node000015"><a xlink:title=" ">
<path fill="none" stroke="#63b8ff" d="M456.13,-128.63C438.32,-104.38 408.33,-67.67 375,-44.25 367.69,-39.11 359.33,-34.68 350.98,-30.93"/>
<polygon fill="#63b8ff" stroke="#63b8ff" points="453.21,-130.56 461.89,-136.64 458.89,-126.48 453.21,-130.56"/>
</a>
</g>
</g>
<!-- Node8&#45;&gt;Node9 -->
<g id="edge8_Node000008_Node000009" class="edge">
<title>Node8&#45;&gt;Node9</title>
<g id="a_edge8_Node000008_Node000009"><a xlink:title=" ">
<path fill="none" stroke="#63b8ff" d="M265.7,-158.04C239.34,-147.69 203.63,-133.66 176.41,-122.97"/>
<polygon fill="#63b8ff" stroke="#63b8ff" points="264.38,-161.28 274.97,-161.68 266.94,-154.77 264.38,-161.28"/>
</a>
</g>
</g>
<!-- Node8&#45;&gt;Node11 -->
<g id="edge10_Node000008_Node000011" class="edge">
<title>Node8&#45;&gt;Node11</title>
<g id="a_edge10_Node000008_Node000011"><a xlink:title=" ">
<path fill="none" stroke="#63b8ff" d="M283.98,-154.58C263.66,-135.21 228.89,-104.13 194.75,-83.25 189.3,-79.91 183.32,-76.81 177.33,-73.99"/>
<polygon fill="#63b8ff" stroke="#63b8ff" points="281.29,-156.85 290.91,-161.28 286.16,-151.81 281.29,-156.85"/>
</a>
</g>
</g>
<!-- Node8&#45;&gt;Node12 -->
<g id="edge12_Node000008_Node000012" class="edge">
<title>Node8&#45;&gt;Node12</title>
<g id="a_edge12_Node000008_Node000012"><a xlink:title=" ">
<path fill="none" stroke="#63b8ff" d="M240.21,-184.55C223.84,-187.81 206.28,-191.31 190.35,-194.49"/>
<polygon fill="#63b8ff" stroke="#63b8ff" points="240.71,-188.01 249.84,-182.63 239.34,-181.15 240.71,-188.01"/>
</a>
</g>
</g>
<!-- Node8&#45;&gt;Node13 -->
<g id="edge14_Node000008_Node000013" class="edge">
<title>Node8&#45;&gt;Node13</title>
<g id="a_edge14_Node000008_Node000013"><a xlink:title=" ">
<path fill="none" stroke="#63b8ff" d="M219.35,-164.27C208.84,-163.26 198.32,-162.24 188.47,-161.29"/>
<polygon fill="#63b8ff" stroke="#63b8ff" points="218.93,-167.75 229.22,-165.23 219.6,-160.78 218.93,-167.75"/>
</a>
</g>
</g>
<!-- Node8&#45;&gt;Node14 -->
<g id="edge16_Node000008_Node000014" class="edge">
<title>Node8&#45;&gt;Node14</title>
<g id="a_edge16_Node000008_Node000014"><a xlink:title=" ">
<path fill="none" stroke="#63b8ff" d="M274.27,-187.77C252.83,-199.61 222.22,-216.09 194.75,-229.25 188.19,-232.39 181.13,-235.58 174.27,-238.57"/>
<polygon fill="#63b8ff" stroke="#63b8ff" points="275.93,-190.85 282.97,-182.93 272.53,-184.73 275.93,-190.85"/>
</a>
</g>
</g>
<!-- Node10 -->
<g id="Node000010" class="node">
<title>Node10</title>
<g id="a_Node000010"><a xlink:href="test__logic_8cpp.xhtml#a4fc01d736fe50cf5b977f755b675f11d" target="_top" xlink:title=" ">
<polygon fill="white" stroke="#666666" points="40,-140.88 0,-140.88 0,-121.62 40,-121.62 40,-140.88"/>
<text text-anchor="middle" x="20" y="-127.38" font-family="Helvetica,sans-Serif" font-size="10.00">setup</text>
</a>
</g>
</g>
<!-- Node9&#45;&gt;Node10 -->
<g id="edge9_Node000009_Node000010" class="edge">
<title>Node9&#45;&gt;Node10</title>
<g id="a_edge9_Node000009_Node000010"><a xlink:title=" ">
<path fill="none" stroke="#63b8ff" d="M70.85,-120.7C59.76,-123.05 49.01,-125.32 40.36,-127.15"/>
<polygon fill="#63b8ff" stroke="#63b8ff" points="71.46,-124.15 80.52,-118.65 70.01,-117.3 71.46,-124.15"/>
</a>
</g>
</g>
<!-- Node11&#45;&gt;Node10 -->
<g id="edge11_Node000011_Node000010" class="edge">
<title>Node11&#45;&gt;Node10</title>
<g id="a_edge11_Node000011_Node000010"><a xlink:title=" ">
<path fill="none" stroke="#63b8ff" d="M83.1,-79.09C80.66,-80.43 78.28,-81.81 76,-83.25 58.4,-94.31 40.78,-110.9 30.39,-121.39"/>
<polygon fill="#63b8ff" stroke="#63b8ff" points="84.67,-82.21 92,-74.56 81.5,-75.98 84.67,-82.21"/>
</a>
</g>
</g>
<!-- Node12&#45;&gt;Node10 -->
<g id="edge13_Node000012_Node000010" class="edge">
<title>Node12&#45;&gt;Node10</title>
<g id="a_edge13_Node000012_Node000010"><a xlink:title=" ">
<path fill="none" stroke="#63b8ff" d="M82.96,-184.37C80.57,-183.05 78.24,-181.67 76,-180.25 58.3,-169 40.71,-152.05 30.35,-141.33"/>
<polygon fill="#63b8ff" stroke="#63b8ff" points="81.17,-187.39 91.66,-188.84 84.36,-181.16 81.17,-187.39"/>
</a>
</g>
</g>
<!-- Node13&#45;&gt;Node10 -->
<g id="edge15_Node000013_Node000010" class="edge">
<title>Node13&#45;&gt;Node10</title>
<g id="a_edge15_Node000013_Node000010"><a xlink:title=" ">
<path fill="none" stroke="#63b8ff" d="M70.85,-142.24C59.76,-139.8 49.01,-137.43 40.36,-135.52"/>
<polygon fill="#63b8ff" stroke="#63b8ff" points="70,-145.64 80.52,-144.38 71.51,-138.8 70,-145.64"/>
</a>
</g>
</g>
<!-- Node14&#45;&gt;Node10 -->
<g id="edge17_Node000014_Node000010" class="edge">
<title>Node14&#45;&gt;Node10</title>
<g id="a_edge17_Node000014_Node000010"><a xlink:title=" ">
<path fill="none" stroke="#63b8ff" d="M79.85,-232.44C78.52,-231.42 77.23,-230.36 76,-229.25 47.85,-203.95 30.78,-160.72 24.16,-141.26"/>
<polygon fill="#63b8ff" stroke="#63b8ff" points="77.64,-235.17 87.92,-237.73 81.48,-229.32 77.64,-235.17"/>
</a>
</g>
</g>
<!-- Node15&#45;&gt;Node10 -->
<g id="edge21_Node000015_Node000010" class="edge">
<title>Node15&#45;&gt;Node10</title>
<g id="a_edge21_Node000015_Node000010"><a xlink:title=" ">
<path fill="none" stroke="#63b8ff" d="M238.29,-5.51C190.03,-1.48 124.02,-3.51 76,-34.25 44.04,-54.71 28.78,-100.7 23.38,-121.13"/>
<polygon fill="#63b8ff" stroke="#63b8ff" points="237.75,-8.97 248.03,-6.44 238.41,-2 237.75,-8.97"/>
</a>
</g>
</g>
<!-- Node19 -->
<g id="Node000019" class="node">
<title>Node19</title>
<g id="a_Node000019"><a xlink:href="main_8cpp.xhtml#a4fc01d736fe50cf5b977f755b675f11d" target="_top" xlink:title=" ">
<polygon fill="white" stroke="#666666" points="798.38,-241.88 758.38,-241.88 758.38,-222.62 798.38,-222.62 798.38,-241.88"/>
<text text-anchor="middle" x="778.38" y="-228.38" font-family="Helvetica,sans-Serif" font-size="10.00">setup</text>
</a>
</g>
</g>
<!-- Node18&#45;&gt;Node19 -->
<g id="edge29_Node000018_Node000019" class="edge">
<title>Node18&#45;&gt;Node19</title>
<g id="a_edge29_Node000018_Node000019"><a xlink:title=" ">
<path fill="none" stroke="#63b8ff" d="M859.36,-232.25C837.05,-232.25 814.11,-232.25 798.55,-232.25"/>
<polygon fill="#63b8ff" stroke="#63b8ff" points="859.06,-235.75 869.06,-232.25 859.06,-228.75 859.06,-235.75"/>
</a>
</g>
</g>
<!-- Node22 -->
<g id="Node000022" class="node">
<title>Node22</title>
<g id="a_Node000022"><a xlink:href="test__mqtt_8cpp.xhtml#a4fc01d736fe50cf5b977f755b675f11d" target="_top" xlink:title=" ">
<polygon fill="white" stroke="#666666" points="798.38,-512.88 758.38,-512.88 758.38,-493.62 798.38,-493.62 798.38,-512.88"/>
<text text-anchor="middle" x="778.38" y="-499.38" font-family="Helvetica,sans-Serif" font-size="10.00">setup</text>
</a>
</g>
</g>
<!-- Node21&#45;&gt;Node22 -->
<g id="edge33_Node000021_Node000022" class="edge">
<title>Node21&#45;&gt;Node22</title>
<g id="a_edge33_Node000021_Node000022"><a xlink:title=" ">
<path fill="none" stroke="#63b8ff" d="M1018.88,-498.52C949.07,-499.9 842,-502.01 798.62,-502.87"/>
<polygon fill="#63b8ff" stroke="#63b8ff" points="1018.74,-502.03 1028.66,-498.33 1018.6,-495.03 1018.74,-502.03"/>
</a>
</g>
</g>
<!-- Node23&#45;&gt;Node22 -->
<g id="edge35_Node000023_Node000022" class="edge">
<title>Node23&#45;&gt;Node22</title>
<g id="a_edge35_Node000023_Node000022"><a xlink:title=" ">
<path fill="none" stroke="#63b8ff" d="M865.59,-478.43C841.5,-485.37 815.77,-492.77 798.75,-497.67"/>
<polygon fill="#63b8ff" stroke="#63b8ff" points="866.41,-481.84 875.05,-475.71 864.47,-475.11 866.41,-481.84"/>
</a>
</g>
</g>
<!-- Node24&#45;&gt;Node22 -->
<g id="edge37_Node000024_Node000022" class="edge">
<title>Node24&#45;&gt;Node22</title>
<g id="a_edge37_Node000024_Node000022"><a xlink:title=" ">
<path fill="none" stroke="#63b8ff" d="M1020.15,-596.19C976.73,-594.85 918.56,-589.06 870.75,-570.25 837.25,-557.07 804.95,-528.5 789.26,-513.27"/>
<polygon fill="#63b8ff" stroke="#63b8ff" points="1019.83,-599.69 1029.91,-596.42 1019.99,-592.69 1019.83,-599.69"/>
</a>
</g>
</g>
<!-- Node25&#45;&gt;Node23 -->
<g id="edge43_Node000025_Node000023" class="edge">
<title>Node25&#45;&gt;Node23</title>
<g id="a_edge43_Node000025_Node000023"><a xlink:title=" ">
<path fill="none" stroke="#63b8ff" d="M1029.52,-383.79C1027.87,-384.9 1026.28,-386.05 1024.75,-387.25 1003.76,-403.7 1009.7,-418.75 988.75,-435.25 984.27,-438.78 979.22,-441.9 974.01,-444.65"/>
<polygon fill="#63b8ff" stroke="#63b8ff" points="1031.25,-386.84 1038.07,-378.73 1027.68,-380.81 1031.25,-386.84"/>
</a>
</g>
</g>
<!-- Node26 -->
<g id="Node000026" class="node">
<title>Node26</title>
<g id="a_Node000026"><a xlink:href="classfabomatic_1_1_board_logic.xhtml#a51390e6bf10c4de427abd7f175a2e6a8" target="_top" xlink:title="Checks if the card UID is valid, and tries to check the user in to the machine.">
<polygon fill="white" stroke="#666666" points="986.12,-377.5 873.38,-377.5 873.38,-347 986.12,-347 986.12,-377.5"/>
<text text-anchor="start" x="881.38" y="-364" font-family="Helvetica,sans-Serif" font-size="10.00">fabomatic::BoardLogic</text>
<text text-anchor="middle" x="929.75" y="-352.75" font-family="Helvetica,sans-Serif" font-size="10.00">::authorize</text>
</a>
</g>
</g>
<!-- Node25&#45;&gt;Node26 -->
<g id="edge40_Node000025_Node000026" class="edge">
<title>Node25&#45;&gt;Node26</title>
<g id="a_edge40_Node000025_Node000026"><a xlink:title=" ">
<path fill="none" stroke="#63b8ff" d="M1013.09,-362.25C1004.05,-362.25 994.9,-362.25 986.14,-362.25"/>
<polygon fill="#63b8ff" stroke="#63b8ff" points="1012.93,-365.75 1022.93,-362.25 1012.93,-358.75 1012.93,-365.75"/>
</a>
</g>
</g>
<!-- Node27 -->
<g id="Node000027" class="node">
<title>Node27</title>
<g id="a_Node000027"><a xlink:href="namespacefabomatic_1_1tests.xhtml#aeb3e51f6d2841cd2869df4c0629f694d" target="_top" xlink:title=" ">
<polygon fill="white" stroke="#666666" points="982.75,-426.5 876.75,-426.5 876.75,-396 982.75,-396 982.75,-426.5"/>
<text text-anchor="start" x="884.75" y="-413" font-family="Helvetica,sans-Serif" font-size="10.00">fabomatic::tests::test</text>
<text text-anchor="middle" x="929.75" y="-401.75" font-family="Helvetica,sans-Serif" font-size="10.00">_rfid_cache</text>
</a>
</g>
</g>
<!-- Node25&#45;&gt;Node27 -->
<g id="edge44_Node000025_Node000027" class="edge">
<title>Node25&#45;&gt;Node27</title>
<g id="a_edge44_Node000025_Node000027"><a xlink:title=" ">
<path fill="none" stroke="#63b8ff" d="M1023.81,-381.4C1009.25,-386.07 993.83,-391.01 979.82,-395.51"/>
<polygon fill="#63b8ff" stroke="#63b8ff" points="1024.85,-384.74 1033.31,-378.35 1022.72,-378.07 1024.85,-384.74"/>
</a>
</g>
</g>
<!-- Node26&#45;&gt;Node5 -->
<g id="edge41_Node000026_Node000005" class="edge">
<title>Node26&#45;&gt;Node5</title>
<g id="a_edge41_Node000026_Node000005"><a xlink:title=" ">
<path fill="none" stroke="#63b8ff" d="M879.62,-341.7C876.6,-340.24 873.62,-338.75 870.75,-337.25 846.57,-324.59 820.25,-307.83 802.09,-295.76"/>
<polygon fill="#63b8ff" stroke="#63b8ff" points="878.08,-344.84 888.62,-345.87 881.02,-338.49 878.08,-344.84"/>
</a>
</g>
</g>
<!-- Node26&#45;&gt;Node14 -->
<g id="edge42_Node000026_Node000014" class="edge">
<title>Node26&#45;&gt;Node14</title>
<g id="a_edge42_Node000026_Node000014"><a xlink:title=" ">
<path fill="none" stroke="#63b8ff" d="M861.69,-362.25C801.27,-362.25 710,-362.25 630.62,-362.25 630.62,-362.25 630.62,-362.25 473.12,-362.25 353.71,-362.25 221.36,-299.91 164.67,-269.95"/>
<polygon fill="#63b8ff" stroke="#63b8ff" points="861.47,-365.75 871.47,-362.25 861.47,-358.75 861.47,-365.75"/>
</a>
</g>
</g>
<!-- Node28 -->
<g id="Node000028" class="node">
<title>Node28</title>
<g id="a_Node000028"><a xlink:href="test__savedconfig_8cpp.xhtml#a4fc01d736fe50cf5b977f755b675f11d" target="_top" xlink:title=" ">
<polygon fill="white" stroke="#666666" points="798.38,-420.88 758.38,-420.88 758.38,-401.62 798.38,-401.62 798.38,-420.88"/>
<text text-anchor="middle" x="778.38" y="-407.38" font-family="Helvetica,sans-Serif" font-size="10.00">setup</text>
</a>
</g>
</g>
<!-- Node27&#45;&gt;Node28 -->
<g id="edge45_Node000027_Node000028" class="edge">
<title>Node27&#45;&gt;Node28</title>
<g id="a_edge45_Node000027_Node000028"><a xlink:title=" ">
<path fill="none" stroke="#63b8ff" d="M865.26,-411.25C841.27,-411.25 815.69,-411.25 798.75,-411.25"/>
<polygon fill="#63b8ff" stroke="#63b8ff" points="864.99,-414.75 874.99,-411.25 864.99,-407.75 864.99,-414.75"/>
</a>
</g>
</g>
<!-- Node30 -->
<g id="Node000030" class="node">
<title>Node30</title>
<g id="a_Node000030"><a xlink:href="classfabomatic_1_1_fab_backend.xhtml#a0510999bee5e4fe5d31d7ad5496f889c" target="_top" xlink:title="Publishes a message on the MQTT server.">
<polygon fill="white" stroke="#666666" points="988.75,-561.5 870.75,-561.5 870.75,-531 988.75,-531 988.75,-561.5"/>
<text text-anchor="start" x="878.75" y="-548" font-family="Helvetica,sans-Serif" font-size="10.00">fabomatic::FabBackend</text>
<text text-anchor="middle" x="929.75" y="-536.75" font-family="Helvetica,sans-Serif" font-size="10.00">::publish</text>
</a>
</g>
</g>
<!-- Node29&#45;&gt;Node30 -->
<g id="edge47_Node000029_Node000030" class="edge">
<title>Node29&#45;&gt;Node30</title>
<g id="a_edge47_Node000029_Node000030"><a xlink:title=" ">
<path fill="none" stroke="#63b8ff" d="M1014.03,-546.25C1005.67,-546.25 997.2,-546.25 989.03,-546.25"/>
<polygon fill="#63b8ff" stroke="#63b8ff" points="1013.8,-549.75 1023.8,-546.25 1013.8,-542.75 1013.8,-549.75"/>
</a>
</g>
</g>
</g>
</svg>

<g id="navigator" transform="translate(0 0)" fill="#404254">
  <rect fill="#f2f5e9" fill-opacity="0.5" stroke="#606060" stroke-width=".5" x="0" y="0" width="60" height="60"/>
  <use id="zoomplus" xlink:href="#zoomPlus" x="17" y="9" onmousedown="handleZoom(evt,'in')"/>
  <use id="zoomminus" xlink:href="#zoomMin" x="42" y="9" onmousedown="handleZoom(evt,'out')"/>
  <use id="reset" xlink:href="#resetDef" x="30" y="36" onmousedown="handleReset()"/>
   <use id="arrowup" xlink:href="#arrowUp" x="0" y="0" onmousedown="handlePan(0,-1)"/>
  <use id="arrowright" xlink:href="#arrowRight" x="0" y="0" onmousedown="handlePan(1,0)"/>
  <use id="arrowdown" xlink:href="#arrowDown" x="0" y="0" onmousedown="handlePan(0,1)"/>
  <use id="arrowleft" xlink:href="#arrowLeft" x="0" y="0" onmousedown="handlePan(-1,0)"/>
</g>
<svg viewBox="0 0 15 15" width="100%" height="30px" preserveAspectRatio="xMaxYMin meet">
 <g id="arrow_out" transform="scale(0.3 0.3)">
  <a xlink:href="classfabomatic_1_1_fab_backend_ad928751b2f967feaac0f2cb708c0d6e9_icgraph_org.svg" target="_base">
   <rect id="button" ry="5" rx="5" y="6" x="6" height="38" width="38"
        fill="#f2f5e9" fill-opacity="0.5" stroke="#606060" stroke-width="1.0"/>
   <path id="arrow"
     d="M 11.500037,31.436501 C 11.940474,20.09759 22.043105,11.32322 32.158766,21.979434 L 37.068811,17.246167 C 37.068811,17.246167 37.088388,32 37.088388,32 L 22.160133,31.978069 C 22.160133,31.978069 26.997745,27.140456 26.997745,27.140456 C 18.528582,18.264221 13.291696,25.230495 11.500037,31.436501 z"
     style="fill:#404040;"/>
  </a>
 </g>
</svg>

<style type='text/css'>
<![CDATA[
[data-mouse-over-selected='false'] { opacity: 0.7; }
[data-mouse-over-selected='true']  { opacity: 1.0; }
]]>
</style>
<script type="application/ecmascript"><![CDATA[
document.addEventListener('DOMContentLoaded', (event) => {
  highlightEdges();
  highlightAdjacentNodes();
});
]]></script>
</svg>
