<?xml version="1.0" encoding="UTF-8" standalone="no"?>
<!DOCTYPE svg PUBLIC "-//W3C//DTD SVG 1.1//EN"
 "http://www.w3.org/Graphics/SVG/1.1/DTD/svg11.dtd">
<!-- Generated by graphviz version 9.0.0 (20230911.1827)
 -->
<!-- Title: fabomatic::BoardLogic::getRfid Pages: 1 -->
<svg width="1289pt" height="469pt"
 viewBox="0.00 0.00 1289.00 468.88" xmlns="http://www.w3.org/2000/svg" xmlns:xlink="http://www.w3.org/1999/xlink">
<g id="graph0" class="graph" transform="scale(1 1) rotate(0) translate(4 464.88)">
<title>fabomatic::BoardLogic::getRfid</title>
<!-- Node1 -->
<g id="Node000001" class="node">
<title>Node1</title>
<g id="a_Node000001"><a xlink:title=" ">
<polygon fill="#999999" stroke="#666666" points="1281,-107.88 1168.25,-107.88 1168.25,-77.38 1281,-77.38 1281,-107.88"/>
<text text-anchor="start" x="1176.25" y="-94.38" font-family="Helvetica,sans-Serif" font-size="10.00">fabomatic::BoardLogic</text>
<text text-anchor="middle" x="1224.62" y="-83.12" font-family="Helvetica,sans-Serif" font-size="10.00">::getRfid</text>
</a>
</g>
</g>
<!-- Node2 -->
<g id="Node000002" class="node">
<title>Node2</title>
<g id="a_Node000002"><a xlink:href="classfabomatic_1_1_board_logic.xhtml#a25bdc3a49d850aa49f92faf951b68efb" target="_top" xlink:title="Checks if a new card is present.">
<polygon fill="white" stroke="#666666" points="686,-145.88 573.25,-145.88 573.25,-115.38 686,-115.38 686,-145.88"/>
<text text-anchor="start" x="581.25" y="-132.38" font-family="Helvetica,sans-Serif" font-size="10.00">fabomatic::BoardLogic</text>
<text text-anchor="middle" x="629.62" y="-121.12" font-family="Helvetica,sans-Serif" font-size="10.00">::checkRfid</text>
</a>
</g>
</g>
<!-- Node1&#45;&gt;Node2 -->
<g id="edge1_Node000001_Node000002" class="edge">
<title>Node1&#45;&gt;Node2</title>
<g id="a_edge1_Node000001_Node000002"><a xlink:title=" ">
<path fill="none" stroke="#63b8ff" d="M1161.2,-111.04C1151.58,-113.29 1141.7,-115.27 1132.25,-116.62 971.63,-139.65 779.21,-136.58 686.28,-133.2"/>
<polygon fill="#63b8ff" stroke="#63b8ff" points="1162,-114.45 1170.87,-108.66 1160.32,-107.65 1162,-114.45"/>
</a>
</g>
</g>
<!-- Node16 -->
<g id="Node000016" class="node">
<title>Node16</title>
<g id="a_Node000016"><a xlink:href="classfabomatic_1_1_board_logic.xhtml#a3e9fedd51e4895834a9ebea17cba4331" target="_top" xlink:title="Initializes LCD and RFID classes.">
<polygon fill="white" stroke="#666666" points="1132.25,-58.88 1019.5,-58.88 1019.5,-28.38 1132.25,-28.38 1132.25,-58.88"/>
<text text-anchor="start" x="1027.5" y="-45.38" font-family="Helvetica,sans-Serif" font-size="10.00">fabomatic::BoardLogic</text>
<text text-anchor="middle" x="1075.88" y="-34.12" font-family="Helvetica,sans-Serif" font-size="10.00">::initBoard</text>
</a>
</g>
</g>
<!-- Node1&#45;&gt;Node16 -->
<g id="edge26_Node000001_Node000016" class="edge">
<title>Node1&#45;&gt;Node16</title>
<g id="a_edge26_Node000001_Node000016"><a xlink:title=" ">
<path fill="none" stroke="#63b8ff" d="M1165.87,-73.34C1152,-68.71 1137.35,-63.82 1124.02,-59.37"/>
<polygon fill="#63b8ff" stroke="#63b8ff" points="1164.76,-76.66 1175.35,-76.51 1166.98,-70.02 1164.76,-76.66"/>
</a>
</g>
</g>
<!-- Node19 -->
<g id="Node000019" class="node">
<title>Node19</title>
<g id="a_Node000019"><a xlink:href="classfabomatic_1_1_board_logic.xhtml#a420a0d05a91a02c27ad3b63a030738a0" target="_top" xlink:title="Asks the user to keep the RFID tag on the reader as confirmation.">
<polygon fill="white" stroke="#666666" points="1132.25,-107.88 1019.5,-107.88 1019.5,-77.38 1132.25,-77.38 1132.25,-107.88"/>
<text text-anchor="start" x="1027.5" y="-94.38" font-family="Helvetica,sans-Serif" font-size="10.00">fabomatic::BoardLogic</text>
<text text-anchor="middle" x="1075.88" y="-83.12" font-family="Helvetica,sans-Serif" font-size="10.00">::longTap</text>
</a>
</g>
</g>
<!-- Node1&#45;&gt;Node19 -->
<g id="edge29_Node000001_Node000019" class="edge">
<title>Node1&#45;&gt;Node19</title>
<g id="a_edge29_Node000001_Node000019"><a xlink:title=" ">
<path fill="none" stroke="#63b8ff" d="M1156.76,-92.62C1148.62,-92.62 1140.38,-92.62 1132.43,-92.62"/>
<polygon fill="#63b8ff" stroke="#63b8ff" points="1156.63,-96.13 1166.63,-92.63 1156.63,-89.13 1156.63,-96.13"/>
</a>
</g>
</g>
<!-- Node3 -->
<g id="Node000003" class="node">
<title>Node3</title>
<g id="a_Node000003"><a xlink:href="namespacefabomatic_1_1tests.xhtml#a2600320f41c9fa343c66058ecb12b5ee" target="_top" xlink:title="Simulates RFID card tap.">
<polygon fill="white" stroke="#666666" points="537.25,-273.88 411,-273.88 411,-243.38 537.25,-243.38 537.25,-273.88"/>
<text text-anchor="start" x="419" y="-260.38" font-family="Helvetica,sans-Serif" font-size="10.00">fabomatic::tests::simulate</text>
<text text-anchor="middle" x="474.12" y="-249.12" font-family="Helvetica,sans-Serif" font-size="10.00">_rfid_card</text>
</a>
</g>
</g>
<!-- Node2&#45;&gt;Node3 -->
<g id="edge2_Node000002_Node000003" class="edge">
<title>Node2&#45;&gt;Node3</title>
<g id="a_edge2_Node000002_Node000003"><a xlink:title=" ">
<path fill="none" stroke="#63b8ff" d="M601.19,-153.5C570.14,-179.4 520.4,-220.87 493.62,-243.2"/>
<polygon fill="#63b8ff" stroke="#63b8ff" points="603.2,-156.38 608.64,-147.29 598.72,-151.01 603.2,-156.38"/>
</a>
</g>
</g>
<!-- Node10 -->
<g id="Node000010" class="node">
<title>Node10</title>
<g id="a_Node000010"><a xlink:href="namespacefabomatic_1_1tests.xhtml#aab0f4e1439b281ffef8be51db9a81f9d" target="_top" xlink:title=" ">
<polygon fill="white" stroke="#666666" points="191.75,-172.88 79,-172.88 79,-142.38 191.75,-142.38 191.75,-172.88"/>
<text text-anchor="start" x="87" y="-159.38" font-family="Helvetica,sans-Serif" font-size="10.00">fabomatic::tests::test</text>
<text text-anchor="middle" x="135.38" y="-148.12" font-family="Helvetica,sans-Serif" font-size="10.00">_whitelist_no_network</text>
</a>
</g>
</g>
<!-- Node2&#45;&gt;Node10 -->
<g id="edge25_Node000002_Node000010" class="edge">
<title>Node2&#45;&gt;Node10</title>
<g id="a_edge25_Node000002_Node000010"><a xlink:title=" ">
<path fill="none" stroke="#63b8ff" d="M561.89,-134.29C463.99,-139.66 283.23,-149.57 192.06,-154.57"/>
<polygon fill="#63b8ff" stroke="#63b8ff" points="561.81,-137.8 571.6,-133.75 561.43,-130.81 561.81,-137.8"/>
</a>
</g>
</g>
<!-- Node14 -->
<g id="Node000014" class="node">
<title>Node14</title>
<g id="a_Node000014"><a xlink:href="namespacefabomatic.xhtml#a3e5c190499522bddad3f3cc69274f16c" target="_top" xlink:title="periodic check for new RFID card">
<polygon fill="white" stroke="#666666" points="537.25,-97.25 411,-97.25 411,-78 537.25,-78 537.25,-97.25"/>
<text text-anchor="middle" x="474.12" y="-83.75" font-family="Helvetica,sans-Serif" font-size="10.00">fabomatic::taskCheckRfid</text>
</a>
</g>
</g>
<!-- Node2&#45;&gt;Node14 -->
<g id="edge23_Node000002_Node000014" class="edge">
<title>Node2&#45;&gt;Node14</title>
<g id="a_edge23_Node000002_Node000014"><a xlink:title=" ">
<path fill="none" stroke="#63b8ff" d="M562.01,-111.96C544.51,-107.06 526.3,-101.96 511.1,-97.7"/>
<polygon fill="#63b8ff" stroke="#63b8ff" points="560.74,-115.24 571.32,-114.57 562.63,-108.5 560.74,-115.24"/>
</a>
</g>
</g>
<!-- Node15 -->
<g id="Node000015" class="node">
<title>Node15</title>
<g id="a_Node000015"><a xlink:href="namespacefabomatic_1_1tests.xhtml#a294b4767ecf1e1d11cc31dafb2541d23" target="_top" xlink:title="periodic check for new RFID card">
<polygon fill="white" stroke="#666666" points="527.12,-322.88 421.12,-322.88 421.12,-292.38 527.12,-292.38 527.12,-322.88"/>
<text text-anchor="start" x="429.12" y="-309.38" font-family="Helvetica,sans-Serif" font-size="10.00">fabomatic::tests::test</text>
<text text-anchor="middle" x="474.12" y="-298.12" font-family="Helvetica,sans-Serif" font-size="10.00">_taskCheckRfid</text>
</a>
</g>
</g>
<!-- Node2&#45;&gt;Node15 -->
<g id="edge24_Node000002_Node000015" class="edge">
<title>Node2&#45;&gt;Node15</title>
<g id="a_edge24_Node000002_Node000015"><a xlink:title=" ">
<path fill="none" stroke="#63b8ff" d="M619.12,-156.55C605.67,-189.94 578.09,-247.8 537.25,-282.62 533.09,-286.17 528.37,-289.26 523.42,-291.93"/>
<polygon fill="#63b8ff" stroke="#63b8ff" points="622.22,-158.23 622.59,-147.64 615.7,-155.69 622.22,-158.23"/>
</a>
</g>
</g>
<!-- Node4 -->
<g id="Node000004" class="node">
<title>Node4</title>
<g id="a_Node000004"><a xlink:href="namespacefabomatic_1_1tests.xhtml#a6a7645a865dc822746f972ea6f43224d" target="_top" xlink:title="Resets machine to initial state, clearing flags.">
<polygon fill="white" stroke="#666666" points="375,-287.25 230.75,-287.25 230.75,-268 375,-268 375,-287.25"/>
<text text-anchor="middle" x="302.88" y="-273.75" font-family="Helvetica,sans-Serif" font-size="10.00">fabomatic::tests::machine_init</text>
</a>
</g>
</g>
<!-- Node3&#45;&gt;Node4 -->
<g id="edge3_Node000003_Node000004" class="edge">
<title>Node3&#45;&gt;Node4</title>
<g id="a_edge3_Node000003_Node000004"><a xlink:title=" ">
<path fill="none" stroke="#63b8ff" d="M399.39,-266.9C391.4,-267.8 383.27,-268.71 375.3,-269.61"/>
<polygon fill="#63b8ff" stroke="#63b8ff" points="399.53,-270.41 409.08,-265.81 398.75,-263.45 399.53,-270.41"/>
</a>
</g>
</g>
<!-- Node5 -->
<g id="Node000005" class="node">
<title>Node5</title>
<g id="a_Node000005"><a xlink:href="namespacefabomatic_1_1tests.xhtml#a558e2287db01a4622581246a19dac397" target="_top" xlink:title=" ">
<polygon fill="white" stroke="#666666" points="188.38,-368.88 82.38,-368.88 82.38,-338.38 188.38,-338.38 188.38,-368.88"/>
<text text-anchor="start" x="90.38" y="-355.38" font-family="Helvetica,sans-Serif" font-size="10.00">fabomatic::tests::test</text>
<text text-anchor="middle" x="135.38" y="-344.12" font-family="Helvetica,sans-Serif" font-size="10.00">_machine_allowed</text>
</a>
</g>
</g>
<!-- Node3&#45;&gt;Node5 -->
<g id="edge16_Node000003_Node000005" class="edge">
<title>Node3&#45;&gt;Node5</title>
<g id="a_edge16_Node000003_Node000005"><a xlink:title=" ">
<path fill="none" stroke="#63b8ff" d="M418.1,-279.48C415.66,-280.8 413.28,-282.19 411,-283.62 392.64,-295.2 394.56,-307.23 375,-316.62 315.48,-345.22 238.88,-352.63 188.74,-354.11"/>
<polygon fill="#63b8ff" stroke="#63b8ff" points="419.63,-282.62 427.02,-275.03 416.51,-276.36 419.63,-282.62"/>
</a>
</g>
</g>
<!-- Node7 -->
<g id="Node000007" class="node">
<title>Node7</title>
<g id="a_Node000007"><a xlink:href="namespacefabomatic_1_1tests.xhtml#a9a34631c2dc01cbdbbce146895c94e12" target="_top" xlink:title=" ">
<polygon fill="white" stroke="#666666" points="194.75,-319.88 76,-319.88 76,-289.38 194.75,-289.38 194.75,-319.88"/>
<text text-anchor="start" x="84" y="-306.38" font-family="Helvetica,sans-Serif" font-size="10.00">fabomatic::tests::test</text>
<text text-anchor="middle" x="135.38" y="-295.12" font-family="Helvetica,sans-Serif" font-size="10.00">_machine_maintenance</text>
</a>
</g>
</g>
<!-- Node3&#45;&gt;Node7 -->
<g id="edge17_Node000003_Node000007" class="edge">
<title>Node3&#45;&gt;Node7</title>
<g id="a_edge17_Node000003_Node000007"><a xlink:title=" ">
<path fill="none" stroke="#63b8ff" d="M423.95,-278.5C402.22,-287.13 380.36,-295.53 375,-296.62 314.49,-308.99 243.58,-309.67 194.87,-308.08"/>
<polygon fill="#63b8ff" stroke="#63b8ff" points="425.14,-281.8 433.13,-274.84 422.54,-275.29 425.14,-281.8"/>
</a>
</g>
</g>
<!-- Node8 -->
<g id="Node000008" class="node">
<title>Node8</title>
<g id="a_Node000008"><a xlink:href="namespacefabomatic_1_1tests.xhtml#a6f3dff17fd964aba76c35c514957a0a5" target="_top" xlink:title=" ">
<polygon fill="white" stroke="#666666" points="189.88,-270.88 80.88,-270.88 80.88,-240.38 189.88,-240.38 189.88,-270.88"/>
<text text-anchor="start" x="88.88" y="-257.38" font-family="Helvetica,sans-Serif" font-size="10.00">fabomatic::tests::test</text>
<text text-anchor="middle" x="135.38" y="-246.12" font-family="Helvetica,sans-Serif" font-size="10.00">_one_user_at_a_time</text>
</a>
</g>
</g>
<!-- Node3&#45;&gt;Node8 -->
<g id="edge20_Node000003_Node000008" class="edge">
<title>Node3&#45;&gt;Node8</title>
<g id="a_edge20_Node000003_Node000008"><a xlink:title=" ">
<path fill="none" stroke="#63b8ff" d="M399.11,-257.97C336,-257.4 246.78,-256.61 190.26,-256.11"/>
<polygon fill="#63b8ff" stroke="#63b8ff" points="399.03,-261.46 409.06,-258.05 399.09,-254.47 399.03,-261.46"/>
</a>
</g>
</g>
<!-- Node9 -->
<g id="Node000009" class="node">
<title>Node9</title>
<g id="a_Node000009"><a xlink:href="namespacefabomatic_1_1tests.xhtml#afa92fef9250d918ee02c79dbf2de2546" target="_top" xlink:title=" ">
<polygon fill="white" stroke="#666666" points="188.38,-221.88 82.38,-221.88 82.38,-191.38 188.38,-191.38 188.38,-221.88"/>
<text text-anchor="start" x="90.38" y="-208.38" font-family="Helvetica,sans-Serif" font-size="10.00">fabomatic::tests::test</text>
<text text-anchor="middle" x="135.38" y="-197.12" font-family="Helvetica,sans-Serif" font-size="10.00">_user_autologoff</text>
</a>
</g>
</g>
<!-- Node3&#45;&gt;Node9 -->
<g id="edge21_Node000003_Node000009" class="edge">
<title>Node3&#45;&gt;Node9</title>
<g id="a_edge21_Node000003_Node000009"><a xlink:title=" ">
<path fill="none" stroke="#63b8ff" d="M399.4,-247.24C335.67,-237.4 245.16,-223.42 188.65,-214.7"/>
<polygon fill="#63b8ff" stroke="#63b8ff" points="398.66,-250.67 409.08,-248.74 399.73,-243.75 398.66,-250.67"/>
</a>
</g>
</g>
<!-- Node3&#45;&gt;Node10 -->
<g id="edge22_Node000003_Node000010" class="edge">
<title>Node3&#45;&gt;Node10</title>
<g id="a_edge22_Node000003_Node000010"><a xlink:title=" ">
<path fill="none" stroke="#63b8ff" d="M427.72,-238.6C411.29,-231.76 392.48,-224.39 375,-218.62 313.28,-198.26 240.73,-180.57 191.96,-169.57"/>
<polygon fill="#63b8ff" stroke="#63b8ff" points="426.17,-241.75 436.74,-242.41 428.89,-235.3 426.17,-241.75"/>
</a>
</g>
</g>
<!-- Node11 -->
<g id="Node000011" class="node">
<title>Node11</title>
<g id="a_Node000011"><a xlink:href="namespacefabomatic_1_1tests.xhtml#a0b99fa5582e6b0ecb416f4ed348e5606" target="_top" xlink:title=" ">
<polygon fill="white" stroke="#666666" points="358.5,-411.88 247.25,-411.88 247.25,-381.38 358.5,-381.38 358.5,-411.88"/>
<text text-anchor="start" x="255.25" y="-398.38" font-family="Helvetica,sans-Serif" font-size="10.00">fabomatic::tests::test</text>
<text text-anchor="middle" x="302.88" y="-387.12" font-family="Helvetica,sans-Serif" font-size="10.00">_backend_commands</text>
</a>
</g>
</g>
<!-- Node3&#45;&gt;Node11 -->
<g id="edge14_Node000003_Node000011" class="edge">
<title>Node3&#45;&gt;Node11</title>
<g id="a_edge14_Node000003_Node000011"><a xlink:title=" ">
<path fill="none" stroke="#63b8ff" d="M414.22,-280.72C413.1,-281.65 412.03,-282.62 411,-283.62 381.96,-312.02 403.97,-339.16 375,-367.62 369.58,-372.95 363.04,-377.34 356.16,-380.95"/>
<polygon fill="#63b8ff" stroke="#63b8ff" points="415.97,-283.77 422.16,-275.17 411.96,-278.03 415.97,-283.77"/>
</a>
</g>
</g>
<!-- Node13 -->
<g id="Node000013" class="node">
<title>Node13</title>
<g id="a_Node000013"><a xlink:href="namespacefabomatic_1_1tests.xhtml#af8fa7ace86309b5f699540d8898660c7" target="_top" xlink:title=" ">
<polygon fill="white" stroke="#666666" points="355.88,-460.88 249.88,-460.88 249.88,-430.38 355.88,-430.38 355.88,-460.88"/>
<text text-anchor="start" x="257.88" y="-447.38" font-family="Helvetica,sans-Serif" font-size="10.00">fabomatic::tests::test</text>
<text text-anchor="middle" x="302.88" y="-436.12" font-family="Helvetica,sans-Serif" font-size="10.00">_messages_buffered</text>
</a>
</g>
</g>
<!-- Node3&#45;&gt;Node13 -->
<g id="edge18_Node000003_Node000013" class="edge">
<title>Node3&#45;&gt;Node13</title>
<g id="a_edge18_Node000003_Node000013"><a xlink:title=" ">
<path fill="none" stroke="#63b8ff" d="M413.15,-281.35C412.41,-282.08 411.69,-282.84 411,-283.62 369.37,-330.85 417.68,-374.34 375,-420.62 369.77,-426.3 363.17,-430.69 356.11,-434.08"/>
<polygon fill="#63b8ff" stroke="#63b8ff" points="415.12,-284.26 420.76,-275.28 410.76,-278.78 415.12,-284.26"/>
</a>
</g>
</g>
<!-- Node4&#45;&gt;Node5 -->
<g id="edge4_Node000004_Node000005" class="edge">
<title>Node4&#45;&gt;Node5</title>
<g id="a_edge4_Node000004_Node000005"><a xlink:title=" ">
<path fill="none" stroke="#63b8ff" d="M271.36,-292.55C250.01,-302.89 220.76,-316.87 194.75,-328.62 187.92,-331.71 180.6,-334.92 173.53,-337.98"/>
<polygon fill="#63b8ff" stroke="#63b8ff" points="272.63,-295.83 280.09,-288.31 269.57,-289.53 272.63,-295.83"/>
</a>
</g>
</g>
<!-- Node4&#45;&gt;Node7 -->
<g id="edge6_Node000004_Node000007" class="edge">
<title>Node4&#45;&gt;Node7</title>
<g id="a_edge6_Node000004_Node000007"><a xlink:title=" ">
<path fill="none" stroke="#63b8ff" d="M229,-289.51C217.64,-291.37 206.03,-293.26 195.03,-295.06"/>
<polygon fill="#63b8ff" stroke="#63b8ff" points="229.45,-292.99 238.76,-287.92 228.32,-286.08 229.45,-292.99"/>
</a>
</g>
</g>
<!-- Node4&#45;&gt;Node8 -->
<g id="edge8_Node000004_Node000008" class="edge">
<title>Node4&#45;&gt;Node8</title>
<g id="a_edge8_Node000004_Node000008"><a xlink:title=" ">
<path fill="none" stroke="#63b8ff" d="M219.52,-266.68C209.57,-265.35 199.61,-264.03 190.22,-262.78"/>
<polygon fill="#63b8ff" stroke="#63b8ff" points="218.85,-270.12 229.23,-267.97 219.78,-263.18 218.85,-270.12"/>
</a>
</g>
</g>
<!-- Node4&#45;&gt;Node9 -->
<g id="edge10_Node000004_Node000009" class="edge">
<title>Node4&#45;&gt;Node9</title>
<g id="a_edge10_Node000004_Node000009"><a xlink:title=" ">
<path fill="none" stroke="#63b8ff" d="M268.1,-263.11C247.02,-254.05 219.3,-242.15 194.75,-231.62 187.76,-228.63 180.3,-225.43 173.12,-222.36"/>
<polygon fill="#63b8ff" stroke="#63b8ff" points="266.51,-266.24 277.08,-266.97 269.28,-259.81 266.51,-266.24"/>
</a>
</g>
</g>
<!-- Node4&#45;&gt;Node10 -->
<g id="edge12_Node000004_Node000010" class="edge">
<title>Node4&#45;&gt;Node10</title>
<g id="a_edge12_Node000004_Node000010"><a xlink:title=" ">
<path fill="none" stroke="#63b8ff" d="M284.84,-259.32C264.82,-238.61 229.86,-204.89 194.75,-182.62 189.44,-179.26 183.6,-176.15 177.74,-173.36"/>
<polygon fill="#63b8ff" stroke="#63b8ff" points="282.22,-261.64 291.65,-266.48 287.29,-256.82 282.22,-261.64"/>
</a>
</g>
</g>
<!-- Node6 -->
<g id="Node000006" class="node">
<title>Node6</title>
<g id="a_Node000006"><a xlink:href="test__logic_8cpp.xhtml#a4fc01d736fe50cf5b977f755b675f11d" target="_top" xlink:title=" ">
<polygon fill="white" stroke="#666666" points="40,-289.25 0,-289.25 0,-270 40,-270 40,-289.25"/>
<text text-anchor="middle" x="20" y="-275.75" font-family="Helvetica,sans-Serif" font-size="10.00">setup</text>
</a>
</g>
</g>
<!-- Node5&#45;&gt;Node6 -->
<g id="edge5_Node000005_Node000006" class="edge">
<title>Node5&#45;&gt;Node6</title>
<g id="a_edge5_Node000005_Node000006"><a xlink:title=" ">
<path fill="none" stroke="#63b8ff" d="M82.96,-332.75C80.57,-331.42 78.24,-330.05 76,-328.62 58.3,-317.37 40.71,-300.43 30.35,-289.7"/>
<polygon fill="#63b8ff" stroke="#63b8ff" points="81.17,-335.76 91.66,-337.21 84.36,-329.53 81.17,-335.76"/>
</a>
</g>
</g>
<!-- Node7&#45;&gt;Node6 -->
<g id="edge7_Node000007_Node000006" class="edge">
<title>Node7&#45;&gt;Node6</title>
<g id="a_edge7_Node000007_Node000006"><a xlink:title=" ">
<path fill="none" stroke="#63b8ff" d="M64.73,-289.27C55.88,-287.32 47.47,-285.46 40.43,-283.91"/>
<polygon fill="#63b8ff" stroke="#63b8ff" points="63.7,-292.62 74.22,-291.36 65.21,-285.79 63.7,-292.62"/>
</a>
</g>
</g>
<!-- Node8&#45;&gt;Node6 -->
<g id="edge9_Node000008_Node000006" class="edge">
<title>Node8&#45;&gt;Node6</title>
<g id="a_edge9_Node000008_Node000006"><a xlink:title=" ">
<path fill="none" stroke="#63b8ff" d="M69.53,-269.35C58.91,-271.6 48.69,-273.76 40.38,-275.52"/>
<polygon fill="#63b8ff" stroke="#63b8ff" points="70.14,-272.8 79.19,-267.31 68.69,-265.95 70.14,-272.8"/>
</a>
</g>
</g>
<!-- Node9&#45;&gt;Node6 -->
<g id="edge11_Node000009_Node000006" class="edge">
<title>Node9&#45;&gt;Node6</title>
<g id="a_edge11_Node000009_Node000006"><a xlink:title=" ">
<path fill="none" stroke="#63b8ff" d="M83.1,-227.46C80.66,-228.8 78.28,-230.19 76,-231.62 58.4,-242.68 40.78,-259.27 30.39,-269.77"/>
<polygon fill="#63b8ff" stroke="#63b8ff" points="84.67,-230.59 92,-222.94 81.5,-224.35 84.67,-230.59"/>
</a>
</g>
</g>
<!-- Node10&#45;&gt;Node6 -->
<g id="edge13_Node000010_Node000006" class="edge">
<title>Node10&#45;&gt;Node6</title>
<g id="a_edge13_Node000010_Node000006"><a xlink:title=" ">
<path fill="none" stroke="#63b8ff" d="M79.85,-179.45C78.52,-180.46 77.23,-181.52 76,-182.62 48.01,-207.66 30.86,-250.46 24.19,-269.72"/>
<polygon fill="#63b8ff" stroke="#63b8ff" points="81.48,-182.56 87.93,-174.16 77.65,-176.71 81.48,-182.56"/>
</a>
</g>
</g>
<!-- Node12 -->
<g id="Node000012" class="node">
<title>Node12</title>
<g id="a_Node000012"><a xlink:href="test__mqtt_8cpp.xhtml#a4fc01d736fe50cf5b977f755b675f11d" target="_top" xlink:title=" ">
<polygon fill="white" stroke="#666666" points="155.38,-406.25 115.38,-406.25 115.38,-387 155.38,-387 155.38,-406.25"/>
<text text-anchor="middle" x="135.38" y="-392.75" font-family="Helvetica,sans-Serif" font-size="10.00">setup</text>
</a>
</g>
</g>
<!-- Node11&#45;&gt;Node12 -->
<g id="edge15_Node000011_Node000012" class="edge">
<title>Node11&#45;&gt;Node12</title>
<g id="a_edge15_Node000011_Node000012"><a xlink:title=" ">
<path fill="none" stroke="#63b8ff" d="M235.51,-396.62C206.8,-396.62 175.35,-396.62 155.74,-396.62"/>
<polygon fill="#63b8ff" stroke="#63b8ff" points="235.25,-400.13 245.25,-396.63 235.25,-393.13 235.25,-400.13"/>
</a>
</g>
</g>
<!-- Node13&#45;&gt;Node6 -->
<g id="edge19_Node000013_Node000006" class="edge">
<title>Node13&#45;&gt;Node6</title>
<g id="a_edge19_Node000013_Node000006"><a xlink:title=" ">
<path fill="none" stroke="#63b8ff" d="M238.17,-453.35C188.95,-455.8 121.74,-451.07 76,-415.62 34.53,-383.49 24.19,-315.01 21.73,-289.48"/>
<polygon fill="#63b8ff" stroke="#63b8ff" points="238.36,-456.84 248.12,-452.73 237.93,-449.86 238.36,-456.84"/>
</a>
</g>
</g>
<!-- Node17 -->
<g id="Node000017" class="node">
<title>Node17</title>
<g id="a_Node000017"><a xlink:href="main_8cpp.xhtml#a4fc01d736fe50cf5b977f755b675f11d" target="_top" xlink:title=" ">
<polygon fill="white" stroke="#666666" points="947.12,-56.25 907.12,-56.25 907.12,-37 947.12,-37 947.12,-56.25"/>
<text text-anchor="middle" x="927.12" y="-42.75" font-family="Helvetica,sans-Serif" font-size="10.00">setup</text>
</a>
</g>
</g>
<!-- Node16&#45;&gt;Node17 -->
<g id="edge27_Node000016_Node000017" class="edge">
<title>Node16&#45;&gt;Node17</title>
<g id="a_edge27_Node000016_Node000017"><a xlink:title=" ">
<path fill="none" stroke="#63b8ff" d="M1007.96,-44.99C985.88,-45.44 963,-45.91 947.43,-46.23"/>
<polygon fill="#63b8ff" stroke="#63b8ff" points="1007.96,-48.49 1017.88,-44.79 1007.81,-41.5 1007.96,-48.49"/>
</a>
</g>
</g>
<!-- Node18 -->
<g id="Node000018" class="node">
<title>Node18</title>
<g id="a_Node000018"><a xlink:href="test__logic_8cpp.xhtml#a95c834d6178047ce9e1bce7cbfea2836" target="_top" xlink:title=" ">
<polygon fill="white" stroke="#666666" points="948.25,-19.25 906,-19.25 906,0 948.25,0 948.25,-19.25"/>
<text text-anchor="middle" x="927.12" y="-5.75" font-family="Helvetica,sans-Serif" font-size="10.00">setUp</text>
</a>
</g>
</g>
<!-- Node16&#45;&gt;Node18 -->
<g id="edge28_Node000016_Node000018" class="edge">
<title>Node16&#45;&gt;Node18</title>
<g id="a_edge28_Node000016_Node000018"><a xlink:title=" ">
<path fill="none" stroke="#63b8ff" d="M1008.18,-28.17C986.53,-23.16 964.09,-17.96 948.5,-14.35"/>
<polygon fill="#63b8ff" stroke="#63b8ff" points="1007.39,-31.58 1017.92,-30.43 1008.97,-24.76 1007.39,-31.58"/>
</a>
</g>
</g>
<!-- Node20 -->
<g id="Node000020" class="node">
<title>Node20</title>
<g id="a_Node000020"><a xlink:href="classfabomatic_1_1_board_logic.xhtml#a51390e6bf10c4de427abd7f175a2e6a8" target="_top" xlink:title="Checks if the card UID is valid, and tries to check the user in to the machine.">
<polygon fill="white" stroke="#666666" points="983.5,-107.88 870.75,-107.88 870.75,-77.38 983.5,-77.38 983.5,-107.88"/>
<text text-anchor="start" x="878.75" y="-94.38" font-family="Helvetica,sans-Serif" font-size="10.00">fabomatic::BoardLogic</text>
<text text-anchor="middle" x="927.12" y="-83.12" font-family="Helvetica,sans-Serif" font-size="10.00">::authorize</text>
</a>
</g>
</g>
<!-- Node19&#45;&gt;Node20 -->
<g id="edge30_Node000019_Node000020" class="edge">
<title>Node19&#45;&gt;Node20</title>
<g id="a_edge30_Node000019_Node000020"><a xlink:title=" ">
<path fill="none" stroke="#63b8ff" d="M1008.01,-92.62C999.87,-92.62 991.63,-92.62 983.68,-92.62"/>
<polygon fill="#63b8ff" stroke="#63b8ff" points="1007.88,-96.13 1017.88,-92.63 1007.88,-89.13 1007.88,-96.13"/>
</a>
</g>
</g>
<!-- Node20&#45;&gt;Node10 -->
<g id="edge33_Node000020_Node000010" class="edge">
<title>Node20&#45;&gt;Node10</title>
<g id="a_edge33_Node000020_Node000010"><a xlink:title=" ">
<path fill="none" stroke="#63b8ff" d="M861.24,-74.19C852.39,-72.08 843.38,-70.15 834.75,-68.62 745.02,-52.78 721.74,-49.62 630.62,-49.62 630.62,-49.62 630.62,-49.62 473.12,-49.62 353.71,-49.62 221.36,-111.97 164.67,-141.92"/>
<polygon fill="#63b8ff" stroke="#63b8ff" points="860.32,-77.57 870.87,-76.57 862,-70.77 860.32,-77.57"/>
</a>
</g>
</g>
<!-- Node21 -->
<g id="Node000021" class="node">
<title>Node21</title>
<g id="a_Node000021"><a xlink:href="classfabomatic_1_1_board_logic.xhtml#a983c8de8b9c8881fc0a4e60dddc7f0c6" target="_top" xlink:title="Called when a RFID tag has been detected.">
<polygon fill="white" stroke="#666666" points="834.75,-107.88 722,-107.88 722,-77.38 834.75,-77.38 834.75,-107.88"/>
<text text-anchor="start" x="730" y="-94.38" font-family="Helvetica,sans-Serif" font-size="10.00">fabomatic::BoardLogic</text>
<text text-anchor="middle" x="778.38" y="-83.12" font-family="Helvetica,sans-Serif" font-size="10.00">::onNewCard</text>
</a>
</g>
</g>
<!-- Node20&#45;&gt;Node21 -->
<g id="edge31_Node000020_Node000021" class="edge">
<title>Node20&#45;&gt;Node21</title>
<g id="a_edge31_Node000020_Node000021"><a xlink:title=" ">
<path fill="none" stroke="#63b8ff" d="M859.26,-92.62C851.12,-92.62 842.88,-92.62 834.93,-92.62"/>
<polygon fill="#63b8ff" stroke="#63b8ff" points="859.13,-96.13 869.13,-92.63 859.13,-89.13 859.13,-96.13"/>
</a>
</g>
</g>
<!-- Node21&#45;&gt;Node2 -->
<g id="edge32_Node000021_Node000002" class="edge">
<title>Node21&#45;&gt;Node2</title>
<g id="a_edge32_Node000021_Node000002"><a xlink:title=" ">
<path fill="none" stroke="#63b8ff" d="M710.79,-109.87C702.56,-112 694.22,-114.16 686.18,-116.24"/>
<polygon fill="#63b8ff" stroke="#63b8ff" points="711.63,-113.27 720.43,-107.37 709.87,-106.49 711.63,-113.27"/>
</a>
</g>
</g>
</g>
</svg>
