<?xml version="1.0" encoding="UTF-8" standalone="no"?>
<!DOCTYPE svg PUBLIC "-//W3C//DTD SVG 1.1//EN"
 "http://www.w3.org/Graphics/SVG/1.1/DTD/svg11.dtd">
<!-- Generated by graphviz version 9.0.0 (20230911.1827)
 -->
<!-- Title: fabomatic::Tasks::Task Pages: 1 -->
<svg width="118pt" height="520pt"
 viewBox="0.00 0.00 118.00 520.25" xmlns="http://www.w3.org/2000/svg" xmlns:xlink="http://www.w3.org/1999/xlink">
<g id="graph0" class="graph" transform="scale(1 1) rotate(0) translate(4 516.25)">
<title>fabomatic::Tasks::Task</title>
<!-- Node1 -->
<g id="Node000001" class="node">
<title>Node1</title>
<g id="a_Node000001"><a xlink:title="A task class which represents a function to be called at requested intervals.">
<polygon fill="#999999" stroke="none" points="110,-319 0,-319 0,0 110,0 110,-319"/>
<text text-anchor="start" x="4.75" y="-305.5" font-family="Helvetica,sans-Serif" font-size="10.00">fabomatic::Tasks::Task</text>
<text text-anchor="start" x="8.5" y="-290.5" font-family="Helvetica,sans-Serif" font-size="10.00">&#45;</text>
<text text-anchor="start" x="20" y="-290.5" font-family="Helvetica,sans-Serif" font-size="10.00">active</text>
<text text-anchor="start" x="8.5" y="-275.5" font-family="Helvetica,sans-Serif" font-size="10.00">&#45;</text>
<text text-anchor="start" x="20" y="-275.5" font-family="Helvetica,sans-Serif" font-size="10.00">period</text>
<text text-anchor="start" x="8.5" y="-260.5" font-family="Helvetica,sans-Serif" font-size="10.00">&#45;</text>
<text text-anchor="start" x="20" y="-260.5" font-family="Helvetica,sans-Serif" font-size="10.00">delay</text>
<text text-anchor="start" x="8.5" y="-245.5" font-family="Helvetica,sans-Serif" font-size="10.00">&#45;</text>
<text text-anchor="start" x="20" y="-245.5" font-family="Helvetica,sans-Serif" font-size="10.00">last_run</text>
<text text-anchor="start" x="8.5" y="-230.5" font-family="Helvetica,sans-Serif" font-size="10.00">&#45;</text>
<text text-anchor="start" x="20" y="-230.5" font-family="Helvetica,sans-Serif" font-size="10.00">next_run</text>
<text text-anchor="start" x="8.5" y="-215.5" font-family="Helvetica,sans-Serif" font-size="10.00">&#45;</text>
<text text-anchor="start" x="20" y="-215.5" font-family="Helvetica,sans-Serif" font-size="10.00">average_tardiness</text>
<text text-anchor="start" x="8.5" y="-200.5" font-family="Helvetica,sans-Serif" font-size="10.00">&#45;</text>
<text text-anchor="start" x="20" y="-200.5" font-family="Helvetica,sans-Serif" font-size="10.00">total_runtime</text>
<text text-anchor="start" x="8.5" y="-185.5" font-family="Helvetica,sans-Serif" font-size="10.00">&#45;</text>
<text text-anchor="start" x="20" y="-185.5" font-family="Helvetica,sans-Serif" font-size="10.00">callback</text>
<text text-anchor="start" x="8.5" y="-170.5" font-family="Helvetica,sans-Serif" font-size="10.00">&#45;</text>
<text text-anchor="start" x="20" y="-170.5" font-family="Helvetica,sans-Serif" font-size="10.00">run_counter</text>
<text text-anchor="start" x="7" y="-155.5" font-family="Helvetica,sans-Serif" font-size="10.00">+</text>
<text text-anchor="start" x="20" y="-155.5" font-family="Helvetica,sans-Serif" font-size="10.00">Task()</text>
<text text-anchor="start" x="7" y="-140.5" font-family="Helvetica,sans-Serif" font-size="10.00">+</text>
<text text-anchor="start" x="20" y="-140.5" font-family="Helvetica,sans-Serif" font-size="10.00">Task()</text>
<text text-anchor="start" x="7" y="-125.5" font-family="Helvetica,sans-Serif" font-size="10.00">+</text>
<text text-anchor="start" x="20" y="-125.5" font-family="Helvetica,sans-Serif" font-size="10.00">Task()</text>
<text text-anchor="start" x="7" y="-110.5" font-family="Helvetica,sans-Serif" font-size="10.00">+</text>
<text text-anchor="start" x="20" y="-110.5" font-family="Helvetica,sans-Serif" font-size="10.00">Task()</text>
<text text-anchor="start" x="7" y="-95.5" font-family="Helvetica,sans-Serif" font-size="10.00">+</text>
<text text-anchor="start" x="20" y="-95.5" font-family="Helvetica,sans-Serif" font-size="10.00">operator=()</text>
<text text-anchor="start" x="7" y="-80.5" font-family="Helvetica,sans-Serif" font-size="10.00">+</text>
<text text-anchor="start" x="20" y="-80.5" font-family="Helvetica,sans-Serif" font-size="10.00">operator=()</text>
<text text-anchor="start" x="7" y="-65.5" font-family="Helvetica,sans-Serif" font-size="10.00">+</text>
<text text-anchor="start" x="20" y="-65.5" font-family="Helvetica,sans-Serif" font-size="10.00">run()</text>
<text text-anchor="start" x="7" y="-50.5" font-family="Helvetica,sans-Serif" font-size="10.00">+</text>
<text text-anchor="start" x="20" y="-50.5" font-family="Helvetica,sans-Serif" font-size="10.00">disable()</text>
<text text-anchor="start" x="7" y="-35.5" font-family="Helvetica,sans-Serif" font-size="10.00">+</text>
<text text-anchor="start" x="20" y="-35.5" font-family="Helvetica,sans-Serif" font-size="10.00">enable()</text>
<text text-anchor="start" x="7" y="-20.5" font-family="Helvetica,sans-Serif" font-size="10.00">+</text>
<text text-anchor="start" x="20" y="-20.5" font-family="Helvetica,sans-Serif" font-size="10.00">updateSchedule()</text>
<text text-anchor="start" x="20" y="-5.5" font-family="Helvetica,sans-Serif" font-size="10.00">and 13 more...</text>
<polygon fill="#666666" stroke="#666666" points="0,-302 0,-302 110,-302 110,-302 0,-302"/>
<polygon fill="#666666" stroke="#666666" points="0,-167 0,-167 18,-167 18,-167 0,-167"/>
<polygon fill="#666666" stroke="#666666" points="18,-167 18,-167 110,-167 110,-167 18,-167"/>
<polygon fill="none" stroke="#666666" points="0,0 0,-319 110,-319 110,0 0,0"/>
</a>
</g>
</g>
<!-- Node2 -->
<g id="Node000002" class="node">
<title>Node2</title>
<g id="a_Node000002"><a xlink:title=" ">
<polygon fill="white" stroke="none" points="81,-415.25 29,-415.25 29,-366.25 81,-366.25 81,-415.25"/>
<text text-anchor="start" x="34" y="-401.75" font-family="Helvetica,sans-Serif" font-size="10.00">std::string</text>
<text text-anchor="start" x="53.5" y="-386.75" font-family="Helvetica,sans-Serif" font-size="10.00"> </text>
<text text-anchor="start" x="53.5" y="-371.75" font-family="Helvetica,sans-Serif" font-size="10.00"> </text>
<polygon fill="#666666" stroke="#666666" points="29,-398.25 29,-398.25 81,-398.25 81,-398.25 29,-398.25"/>
<polygon fill="#666666" stroke="#666666" points="29,-383.25 29,-383.25 81,-383.25 81,-383.25 29,-383.25"/>
<polygon fill="none" stroke="#666666" points="29,-366.25 29,-415.25 81,-415.25 81,-366.25 29,-366.25"/>
</a>
</g>
</g>
<!-- Node2&#45;&gt;Node1 -->
<g id="edge1_Node000001_Node000002" class="edge">
<title>Node2&#45;&gt;Node1</title>
<g id="a_edge1_Node000001_Node000002"><a xlink:title=" ">
<path fill="none" stroke="#63b8ff" d="M55,-366.51C55,-357.02 55,-345.16 55,-331.95"/>
<polygon fill="none" stroke="#63b8ff" points="55,-331.81 51,-325.81 55,-319.81 59,-325.81 55,-331.81"/>
</a>
</g>
<text text-anchor="middle" x="61.38" y="-338.75" font-family="Helvetica,sans-Serif" font-size="10.00" fill="grey"> &#45;id</text>
</g>
<!-- Node3 -->
<g id="Node000003" class="node">
<title>Node3</title>
<g id="a_Node000003"><a xlink:title=" ">
<polygon fill="white" stroke="none" points="98,-512.25 12,-512.25 12,-452.25 98,-452.25 98,-512.25"/>
<text text-anchor="start" x="16.75" y="-498.75" font-family="Helvetica,sans-Serif" font-size="10.00">std::basic_string&lt;</text>
<text text-anchor="start" x="39.62" y="-487.5" font-family="Helvetica,sans-Serif" font-size="10.00"> Char &gt;</text>
<text text-anchor="start" x="53.5" y="-472.75" font-family="Helvetica,sans-Serif" font-size="10.00"> </text>
<text text-anchor="start" x="53.5" y="-457.75" font-family="Helvetica,sans-Serif" font-size="10.00"> </text>
<polygon fill="#666666" stroke="#666666" points="12,-484.25 12,-484.25 98,-484.25 98,-484.25 12,-484.25"/>
<polygon fill="#666666" stroke="#666666" points="12,-469.25 12,-469.25 98,-469.25 98,-469.25 12,-469.25"/>
<polygon fill="none" stroke="#666666" points="12,-452.25 12,-512.25 98,-512.25 98,-452.25 12,-452.25"/>
</a>
</g>
</g>
<!-- Node3&#45;&gt;Node2 -->
<g id="edge2_Node000002_Node000003" class="edge">
<title>Node3&#45;&gt;Node2</title>
<g id="a_edge2_Node000002_Node000003"><a xlink:title=" ">
<path fill="none" stroke="#63b8ff" d="M55,-441.04C55,-432.17 55,-423.07 55,-415.13"/>
<polygon fill="none" stroke="#63b8ff" points="51.5,-440.93 55,-450.93 58.5,-440.93 51.5,-440.93"/>
</a>
</g>
</g>
</g>
</svg>
