<?xml version="1.0" encoding="UTF-8" standalone="no"?>
<!DOCTYPE svg PUBLIC "-//W3C//DTD SVG 1.1//EN"
 "http://www.w3.org/Graphics/SVG/1.1/DTD/svg11.dtd">
<!-- Generated by graphviz version 9.0.0 (20230911.1827)
 -->
<!-- Title: fabomatic::Machine::setMaintenanceNeeded Pages: 1 -->
<!--zoomable 380 -->

<svg id="main" version="1.1" xmlns="http://www.w3.org/2000/svg" xmlns:xlink="http://www.w3.org/1999/xlink" xml:space="preserve" onload="init(evt)">
<style type="text/css"><![CDATA[
.node, .edge {opacity: 0.7;}
.node.selected, .edge.selected {opacity: 1;}
.edge:hover path { stroke: red; }
.edge:hover polygon { stroke: red; fill: red; }
]]></style>

<defs>
  <circle id="rim" cx="0" cy="0" r="7"/>
  <circle id="rim2" cx="0" cy="0" r="3.5"/>
  <g id="zoomPlus">
    <use xlink:href="#rim" fill="#404040"><set attributeName="fill" to="#808080" begin="zoomplus.mouseover" end="zoomplus.mouseout"/></use>
    <path d="M-4,0h8M0,-4v8" fill="none" stroke="white" stroke-width="1.5" pointer-events="none"/>
  </g>
  <g id="zoomMin">
    <use xlink:href="#rim" fill="#404040"><set attributeName="fill" to="#808080" begin="zoomminus.mouseover" end="zoomminus.mouseout"/></use>
    <path d="M-4,0h8" fill="none" stroke="white" stroke-width="1.5" pointer-events="none"/>
  </g>
  <g id="arrowUp" transform="translate(30 24)">
    <use xlink:href="#rim"/>
    <path pointer-events="none" fill="none" stroke="white" stroke-width="1.5" d="M0,-3.0v7 M-2.5,-0.5L0,-3.0L2.5,-0.5"/>
  </g>
  <g id="arrowRight" transform="rotate(90) translate(36 -43)">
    <use xlink:href="#rim"/>
    <path pointer-events="none" fill="none" stroke="white" stroke-width="1.5" d="M0,-3.0v7 M-2.5,-0.5L0,-3.0L2.5,-0.5"/>
  </g>
  <g id="arrowDown" transform="rotate(180) translate(-30 -48)">
    <use xlink:href="#rim"/>
    <path pointer-events="none" fill="none" stroke="white" stroke-width="1.5" d="M0,-3.0v7 M-2.5,-0.5L0,-3.0L2.5,-0.5"/>
  </g>
  <g id="arrowLeft" transform="rotate(270) translate(-36 17)">
    <use xlink:href="#rim"/>
    <path pointer-events="none" fill="none" stroke="white" stroke-width="1.5" d="M0,-3.0v7 M-2.5,-0.5L0,-3.0L2.5,-0.5"/>
  </g>
  <g id="resetDef">
    <use xlink:href="#rim2" fill="#404040"><set attributeName="fill" to="#808080" begin="reset.mouseover" end="reset.mouseout"/></use>
  </g>
</defs>
<script type="application/ecmascript">
var viewWidth = 1156;
var viewHeight = 380;
var sectionId = 'dynsection-32';
</script>
<script type="application/ecmascript" xlink:href="svg.min.js"/>
<svg id="graph" class="graph">
<g id="viewport">
<title>fabomatic::Machine::setMaintenanceNeeded</title>
<!-- Node1 -->
<g id="Node000001" class="node">
<title>Node1</title>
<g id="a_Node000001"><a xlink:title=" ">
<polygon fill="#999999" stroke="#666666" points="1148,-271.5 1024.75,-271.5 1024.75,-241 1148,-241 1148,-271.5"/>
<text text-anchor="start" x="1032.75" y="-258" font-family="Helvetica,sans-Serif" font-size="10.00">fabomatic::Machine</text>
<text text-anchor="middle" x="1086.38" y="-246.75" font-family="Helvetica,sans-Serif" font-size="10.00">::setMaintenanceNeeded</text>
</a>
</g>
</g>
<!-- Node2 -->
<g id="Node000002" class="node">
<title>Node2</title>
<g id="a_Node000002"><a xlink:href="classfabomatic_1_1_board_logic.xhtml#a51390e6bf10c4de427abd7f175a2e6a8" target="_top" xlink:title="Checks if the card UID is valid, and tries to check the user in to the machine.">
<polygon fill="white" stroke="#666666" points="988.75,-296.5 876,-296.5 876,-266 988.75,-266 988.75,-296.5"/>
<text text-anchor="start" x="884" y="-283" font-family="Helvetica,sans-Serif" font-size="10.00">fabomatic::BoardLogic</text>
<text text-anchor="middle" x="932.38" y="-271.75" font-family="Helvetica,sans-Serif" font-size="10.00">::authorize</text>
</a>
</g>
</g>
<!-- Node1&#45;&gt;Node2 -->
<g id="edge1_Node000001_Node000002" class="edge">
<title>Node1&#45;&gt;Node2</title>
<g id="a_edge1_Node000001_Node000002"><a xlink:title=" ">
<path fill="none" stroke="#63b8ff" d="M1013.32,-268.1C1005.12,-269.45 996.86,-270.81 988.93,-272.11"/>
<polygon fill="#63b8ff" stroke="#63b8ff" points="1013.63,-271.6 1022.93,-266.52 1012.5,-264.69 1013.63,-271.6"/>
</a>
</g>
</g>
<!-- Node18 -->
<g id="Node000018" class="node">
<title>Node18</title>
<g id="a_Node000018"><a xlink:href="classfabomatic_1_1_board_logic.xhtml#aa0d3d3aa742eba1ffd00b97868ce7edc" target="_top" xlink:title="connects and polls the server for up&#45;to&#45;date machine information">
<polygon fill="white" stroke="#666666" points="988.75,-247.5 876,-247.5 876,-217 988.75,-217 988.75,-247.5"/>
<text text-anchor="start" x="884" y="-234" font-family="Helvetica,sans-Serif" font-size="10.00">fabomatic::BoardLogic</text>
<text text-anchor="middle" x="932.38" y="-222.75" font-family="Helvetica,sans-Serif" font-size="10.00">::refreshFromServer</text>
</a>
</g>
</g>
<!-- Node1&#45;&gt;Node18 -->
<g id="edge29_Node000001_Node000018" class="edge">
<title>Node1&#45;&gt;Node18</title>
<g id="a_edge29_Node000001_Node000018"><a xlink:title=" ">
<path fill="none" stroke="#63b8ff" d="M1013.32,-244.87C1005.12,-243.58 996.86,-242.27 988.93,-241.02"/>
<polygon fill="#63b8ff" stroke="#63b8ff" points="1012.51,-248.29 1022.93,-246.39 1013.6,-241.37 1012.51,-248.29"/>
</a>
</g>
</g>
<!-- Node3 -->
<g id="Node000003" class="node">
<title>Node3</title>
<g id="a_Node000003"><a xlink:href="classfabomatic_1_1_board_logic.xhtml#a983c8de8b9c8881fc0a4e60dddc7f0c6" target="_top" xlink:title="Called when a RFID tag has been detected.">
<polygon fill="white" stroke="#666666" points="837.38,-290.5 724.62,-290.5 724.62,-260 837.38,-260 837.38,-290.5"/>
<text text-anchor="start" x="732.62" y="-277" font-family="Helvetica,sans-Serif" font-size="10.00">fabomatic::BoardLogic</text>
<text text-anchor="middle" x="781" y="-265.75" font-family="Helvetica,sans-Serif" font-size="10.00">::onNewCard</text>
</a>
</g>
</g>
<!-- Node2&#45;&gt;Node3 -->
<g id="edge2_Node000002_Node000003" class="edge">
<title>Node2&#45;&gt;Node3</title>
<g id="a_edge2_Node000002_Node000003"><a xlink:title=" ">
<path fill="none" stroke="#63b8ff" d="M864.51,-278.56C855.54,-278.2 846.42,-277.84 837.67,-277.49"/>
<polygon fill="#63b8ff" stroke="#63b8ff" points="864.11,-282.05 874.24,-278.96 864.39,-275.06 864.11,-282.05"/>
</a>
</g>
</g>
<!-- Node12 -->
<g id="Node000012" class="node">
<title>Node12</title>
<g id="a_Node000012"><a xlink:href="namespacefabomatic_1_1tests.xhtml#aab0f4e1439b281ffef8be51db9a81f9d" target="_top" xlink:title=" ">
<polygon fill="white" stroke="#666666" points="191.75,-311.5 79,-311.5 79,-281 191.75,-281 191.75,-311.5"/>
<text text-anchor="start" x="87" y="-298" font-family="Helvetica,sans-Serif" font-size="10.00">fabomatic::tests::test</text>
<text text-anchor="middle" x="135.38" y="-286.75" font-family="Helvetica,sans-Serif" font-size="10.00">_whitelist_no_network</text>
</a>
</g>
</g>
<!-- Node2&#45;&gt;Node12 -->
<g id="edge28_Node000002_Node000012" class="edge">
<title>Node2&#45;&gt;Node12</title>
<g id="a_edge28_Node000002_Node000012"><a xlink:title=" ">
<path fill="none" stroke="#63b8ff" d="M890.8,-301.86C834.09,-328.71 727.23,-372.25 630.62,-372.25 630.62,-372.25 630.62,-372.25 473.12,-372.25 364.64,-372.25 241.22,-334.26 178.22,-312"/>
<polygon fill="#63b8ff" stroke="#63b8ff" points="892.26,-305.04 899.76,-297.55 889.23,-298.73 892.26,-305.04"/>
</a>
</g>
</g>
<!-- Node4 -->
<g id="Node000004" class="node">
<title>Node4</title>
<g id="a_Node000004"><a xlink:href="classfabomatic_1_1_board_logic.xhtml#a25bdc3a49d850aa49f92faf951b68efb" target="_top" xlink:title="Checks if a new card is present.">
<polygon fill="white" stroke="#666666" points="686,-290.5 573.25,-290.5 573.25,-260 686,-260 686,-290.5"/>
<text text-anchor="start" x="581.25" y="-277" font-family="Helvetica,sans-Serif" font-size="10.00">fabomatic::BoardLogic</text>
<text text-anchor="middle" x="629.62" y="-265.75" font-family="Helvetica,sans-Serif" font-size="10.00">::checkRfid</text>
</a>
</g>
</g>
<!-- Node3&#45;&gt;Node4 -->
<g id="edge3_Node000003_Node000004" class="edge">
<title>Node3&#45;&gt;Node4</title>
<g id="a_edge3_Node000003_Node000004"><a xlink:title=" ">
<path fill="none" stroke="#63b8ff" d="M713.14,-275.25C704.17,-275.25 695.04,-275.25 686.29,-275.25"/>
<polygon fill="#63b8ff" stroke="#63b8ff" points="712.86,-278.75 722.86,-275.25 712.86,-271.75 712.86,-278.75"/>
</a>
</g>
</g>
<!-- Node5 -->
<g id="Node000005" class="node">
<title>Node5</title>
<g id="a_Node000005"><a xlink:href="namespacefabomatic_1_1tests.xhtml#a2600320f41c9fa343c66058ecb12b5ee" target="_top" xlink:title="Simulates RFID card tap.">
<polygon fill="white" stroke="#666666" points="537.25,-206.5 411,-206.5 411,-176 537.25,-176 537.25,-206.5"/>
<text text-anchor="start" x="419" y="-193" font-family="Helvetica,sans-Serif" font-size="10.00">fabomatic::tests::simulate</text>
<text text-anchor="middle" x="474.12" y="-181.75" font-family="Helvetica,sans-Serif" font-size="10.00">_rfid_card</text>
</a>
</g>
</g>
<!-- Node4&#45;&gt;Node5 -->
<g id="edge4_Node000004_Node000005" class="edge">
<title>Node4&#45;&gt;Node5</title>
<g id="a_edge4_Node000004_Node000005"><a xlink:title=" ">
<path fill="none" stroke="#63b8ff" d="M580.11,-254.69C577.78,-253.56 575.48,-252.41 573.25,-251.25 546.84,-237.54 517.94,-219.46 498.38,-206.75"/>
<polygon fill="#63b8ff" stroke="#63b8ff" points="578.55,-257.83 589.09,-258.91 581.52,-251.49 578.55,-257.83"/>
</a>
</g>
</g>
<!-- Node4&#45;&gt;Node12 -->
<g id="edge27_Node000004_Node000012" class="edge">
<title>Node4&#45;&gt;Node12</title>
<g id="a_edge27_Node000004_Node000012"><a xlink:title=" ">
<path fill="none" stroke="#63b8ff" d="M566.21,-293.69C556.58,-295.94 546.7,-297.91 537.25,-299.25 415.11,-316.56 269.93,-308.46 192.16,-301.84"/>
<polygon fill="#63b8ff" stroke="#63b8ff" points="567,-297.1 575.88,-291.31 565.33,-290.3 567,-297.1"/>
</a>
</g>
</g>
<!-- Node16 -->
<g id="Node000016" class="node">
<title>Node16</title>
<g id="a_Node000016"><a xlink:href="namespacefabomatic.xhtml#a3e5c190499522bddad3f3cc69274f16c" target="_top" xlink:title="periodic check for new RFID card">
<polygon fill="white" stroke="#666666" points="537.25,-157.88 411,-157.88 411,-138.62 537.25,-138.62 537.25,-157.88"/>
<text text-anchor="middle" x="474.12" y="-144.38" font-family="Helvetica,sans-Serif" font-size="10.00">fabomatic::taskCheckRfid</text>
</a>
</g>
</g>
<!-- Node4&#45;&gt;Node16 -->
<g id="edge25_Node000004_Node000016" class="edge">
<title>Node4&#45;&gt;Node16</title>
<g id="a_edge25_Node000004_Node000016"><a xlink:title=" ">
<path fill="none" stroke="#63b8ff" d="M574.74,-252.68C574.23,-252.22 573.74,-251.74 573.25,-251.25 544.59,-222.47 567.48,-194.38 537.25,-167.25 533.22,-163.63 528.52,-160.71 523.54,-158.34"/>
<polygon fill="#63b8ff" stroke="#63b8ff" points="572.45,-255.34 582.54,-258.6 576.68,-249.77 572.45,-255.34"/>
</a>
</g>
</g>
<!-- Node17 -->
<g id="Node000017" class="node">
<title>Node17</title>
<g id="a_Node000017"><a xlink:href="namespacefabomatic_1_1tests.xhtml#a294b4767ecf1e1d11cc31dafb2541d23" target="_top" xlink:title="periodic check for new RFID card">
<polygon fill="white" stroke="#666666" points="527.12,-290.5 421.12,-290.5 421.12,-260 527.12,-260 527.12,-290.5"/>
<text text-anchor="start" x="429.12" y="-277" font-family="Helvetica,sans-Serif" font-size="10.00">fabomatic::tests::test</text>
<text text-anchor="middle" x="474.12" y="-265.75" font-family="Helvetica,sans-Serif" font-size="10.00">_taskCheckRfid</text>
</a>
</g>
</g>
<!-- Node4&#45;&gt;Node17 -->
<g id="edge26_Node000004_Node000017" class="edge">
<title>Node4&#45;&gt;Node17</title>
<g id="a_edge26_Node000004_Node000017"><a xlink:title=" ">
<path fill="none" stroke="#63b8ff" d="M561.54,-275.25C550.18,-275.25 538.53,-275.25 527.61,-275.25"/>
<polygon fill="#63b8ff" stroke="#63b8ff" points="561.26,-278.75 571.26,-275.25 561.26,-271.75 561.26,-278.75"/>
</a>
</g>
</g>
<!-- Node6 -->
<g id="Node000006" class="node">
<title>Node6</title>
<g id="a_Node000006"><a xlink:href="namespacefabomatic_1_1tests.xhtml#a6a7645a865dc822746f972ea6f43224d" target="_top" xlink:title="Resets machine to initial state, clearing flags.">
<polygon fill="white" stroke="#666666" points="375,-143.88 230.75,-143.88 230.75,-124.62 375,-124.62 375,-143.88"/>
<text text-anchor="middle" x="302.88" y="-130.38" font-family="Helvetica,sans-Serif" font-size="10.00">fabomatic::tests::machine_init</text>
</a>
</g>
</g>
<!-- Node5&#45;&gt;Node6 -->
<g id="edge5_Node000005_Node000006" class="edge">
<title>Node5&#45;&gt;Node6</title>
<g id="a_edge5_Node000005_Node000006"><a xlink:title=" ">
<path fill="none" stroke="#63b8ff" d="M415.75,-171.93C388.29,-162.68 356.54,-151.99 333.9,-144.36"/>
<polygon fill="#63b8ff" stroke="#63b8ff" points="414.4,-175.17 424.99,-175.04 416.63,-168.53 414.4,-175.17"/>
</a>
</g>
</g>
<!-- Node7 -->
<g id="Node000007" class="node">
<title>Node7</title>
<g id="a_Node000007"><a xlink:href="namespacefabomatic_1_1tests.xhtml#a558e2287db01a4622581246a19dac397" target="_top" xlink:title=" ">
<polygon fill="white" stroke="#666666" points="188.38,-225.5 82.38,-225.5 82.38,-195 188.38,-195 188.38,-225.5"/>
<text text-anchor="start" x="90.38" y="-212" font-family="Helvetica,sans-Serif" font-size="10.00">fabomatic::tests::test</text>
<text text-anchor="middle" x="135.38" y="-200.75" font-family="Helvetica,sans-Serif" font-size="10.00">_machine_allowed</text>
</a>
</g>
</g>
<!-- Node5&#45;&gt;Node7 -->
<g id="edge18_Node000005_Node000007" class="edge">
<title>Node5&#45;&gt;Node7</title>
<g id="a_edge18_Node000005_Node000007"><a xlink:title=" ">
<path fill="none" stroke="#63b8ff" d="M399.4,-195.41C335.67,-199.01 245.16,-204.11 188.65,-207.3"/>
<polygon fill="#63b8ff" stroke="#63b8ff" points="399.28,-198.92 409.06,-194.86 398.88,-191.93 399.28,-198.92"/>
</a>
</g>
</g>
<!-- Node9 -->
<g id="Node000009" class="node">
<title>Node9</title>
<g id="a_Node000009"><a xlink:href="namespacefabomatic_1_1tests.xhtml#a9a34631c2dc01cbdbbce146895c94e12" target="_top" xlink:title=" ">
<polygon fill="white" stroke="#666666" points="194.75,-176.5 76,-176.5 76,-146 194.75,-146 194.75,-176.5"/>
<text text-anchor="start" x="84" y="-163" font-family="Helvetica,sans-Serif" font-size="10.00">fabomatic::tests::test</text>
<text text-anchor="middle" x="135.38" y="-151.75" font-family="Helvetica,sans-Serif" font-size="10.00">_machine_maintenance</text>
</a>
</g>
</g>
<!-- Node5&#45;&gt;Node9 -->
<g id="edge19_Node000005_Node000009" class="edge">
<title>Node5&#45;&gt;Node9</title>
<g id="a_edge19_Node000005_Node000009"><a xlink:title=" ">
<path fill="none" stroke="#63b8ff" d="M399.43,-184.68C338.11,-179.22 251.98,-171.55 195.21,-166.49"/>
<polygon fill="#63b8ff" stroke="#63b8ff" points="398.8,-188.14 409.07,-185.54 399.42,-181.17 398.8,-188.14"/>
</a>
</g>
</g>
<!-- Node10 -->
<g id="Node000010" class="node">
<title>Node10</title>
<g id="a_Node000010"><a xlink:href="namespacefabomatic_1_1tests.xhtml#a6f3dff17fd964aba76c35c514957a0a5" target="_top" xlink:title=" ">
<polygon fill="white" stroke="#666666" points="189.88,-127.5 80.88,-127.5 80.88,-97 189.88,-97 189.88,-127.5"/>
<text text-anchor="start" x="88.88" y="-114" font-family="Helvetica,sans-Serif" font-size="10.00">fabomatic::tests::test</text>
<text text-anchor="middle" x="135.38" y="-102.75" font-family="Helvetica,sans-Serif" font-size="10.00">_one_user_at_a_time</text>
</a>
</g>
</g>
<!-- Node5&#45;&gt;Node10 -->
<g id="edge22_Node000005_Node000010" class="edge">
<title>Node5&#45;&gt;Node10</title>
<g id="a_edge22_Node000005_Node000010"><a xlink:title=" ">
<path fill="none" stroke="#63b8ff" d="M414.48,-169.82C413.28,-168.99 412.12,-168.14 411,-167.25 388.91,-149.86 399.82,-128.45 375,-115.25 317.57,-84.7 240.83,-90.49 190.07,-99.54"/>
<polygon fill="#63b8ff" stroke="#63b8ff" points="412.43,-172.67 422.8,-174.83 416.04,-166.67 412.43,-172.67"/>
</a>
</g>
</g>
<!-- Node11 -->
<g id="Node000011" class="node">
<title>Node11</title>
<g id="a_Node000011"><a xlink:href="namespacefabomatic_1_1tests.xhtml#afa92fef9250d918ee02c79dbf2de2546" target="_top" xlink:title=" ">
<polygon fill="white" stroke="#666666" points="188.38,-78.5 82.38,-78.5 82.38,-48 188.38,-48 188.38,-78.5"/>
<text text-anchor="start" x="90.38" y="-65" font-family="Helvetica,sans-Serif" font-size="10.00">fabomatic::tests::test</text>
<text text-anchor="middle" x="135.38" y="-53.75" font-family="Helvetica,sans-Serif" font-size="10.00">_user_autologoff</text>
</a>
</g>
</g>
<!-- Node5&#45;&gt;Node11 -->
<g id="edge23_Node000005_Node000011" class="edge">
<title>Node5&#45;&gt;Node11</title>
<g id="a_edge23_Node000005_Node000011"><a xlink:title=" ">
<path fill="none" stroke="#63b8ff" d="M412.94,-168.99C412.28,-168.42 411.63,-167.84 411,-167.25 383.16,-141.13 406,-111.54 375,-89.25 320.7,-50.2 240.69,-49.89 188.55,-55.1"/>
<polygon fill="#63b8ff" stroke="#63b8ff" points="410.86,-171.8 421.04,-174.71 414.9,-166.08 410.86,-171.8"/>
</a>
</g>
</g>
<!-- Node5&#45;&gt;Node12 -->
<g id="edge24_Node000005_Node000012" class="edge">
<title>Node5&#45;&gt;Node12</title>
<g id="a_edge24_Node000005_Node000012"><a xlink:title=" ">
<path fill="none" stroke="#63b8ff" d="M450.03,-214.59C426.75,-237.53 391.91,-270.11 375,-277.25 316.23,-302.07 242.15,-303.95 192.24,-301.49"/>
<polygon fill="#63b8ff" stroke="#63b8ff" points="452.33,-217.24 456.95,-207.71 447.39,-212.28 452.33,-217.24"/>
</a>
</g>
</g>
<!-- Node13 -->
<g id="Node000013" class="node">
<title>Node13</title>
<g id="a_Node000013"><a xlink:href="namespacefabomatic_1_1tests.xhtml#a0b99fa5582e6b0ecb416f4ed348e5606" target="_top" xlink:title=" ">
<polygon fill="white" stroke="#666666" points="358.5,-30.5 247.25,-30.5 247.25,0 358.5,0 358.5,-30.5"/>
<text text-anchor="start" x="255.25" y="-17" font-family="Helvetica,sans-Serif" font-size="10.00">fabomatic::tests::test</text>
<text text-anchor="middle" x="302.88" y="-5.75" font-family="Helvetica,sans-Serif" font-size="10.00">_backend_commands</text>
</a>
</g>
</g>
<!-- Node5&#45;&gt;Node13 -->
<g id="edge16_Node000005_Node000013" class="edge">
<title>Node5&#45;&gt;Node13</title>
<g id="a_edge16_Node000005_Node000013"><a xlink:title=" ">
<path fill="none" stroke="#63b8ff" d="M412.11,-168.41C411.73,-168.03 411.36,-167.64 411,-167.25 372.45,-125.32 413.16,-86.54 375,-44.25 370.18,-38.9 364.22,-34.52 357.83,-30.94"/>
<polygon fill="#63b8ff" stroke="#63b8ff" points="409.73,-170.99 419.7,-174.57 414.14,-165.55 409.73,-170.99"/>
</a>
</g>
</g>
<!-- Node15 -->
<g id="Node000015" class="node">
<title>Node15</title>
<g id="a_Node000015"><a xlink:href="namespacefabomatic_1_1tests.xhtml#af8fa7ace86309b5f699540d8898660c7" target="_top" xlink:title=" ">
<polygon fill="white" stroke="#666666" points="355.88,-268.5 249.88,-268.5 249.88,-238 355.88,-238 355.88,-268.5"/>
<text text-anchor="start" x="257.88" y="-255" font-family="Helvetica,sans-Serif" font-size="10.00">fabomatic::tests::test</text>
<text text-anchor="middle" x="302.88" y="-243.75" font-family="Helvetica,sans-Serif" font-size="10.00">_messages_buffered</text>
</a>
</g>
</g>
<!-- Node5&#45;&gt;Node15 -->
<g id="edge20_Node000005_Node000015" class="edge">
<title>Node5&#45;&gt;Node15</title>
<g id="a_edge20_Node000005_Node000015"><a xlink:title=" ">
<path fill="none" stroke="#63b8ff" d="M419.9,-210.75C396.37,-219.37 369.07,-229.37 346.86,-237.5"/>
<polygon fill="#63b8ff" stroke="#63b8ff" points="420.81,-214.14 428.99,-207.42 418.4,-207.57 420.81,-214.14"/>
</a>
</g>
</g>
<!-- Node6&#45;&gt;Node7 -->
<g id="edge6_Node000006_Node000007" class="edge">
<title>Node6&#45;&gt;Node7</title>
<g id="a_edge6_Node000006_Node000007"><a xlink:title=" ">
<path fill="none" stroke="#63b8ff" d="M271.36,-149.17C250.01,-159.52 220.76,-173.49 194.75,-185.25 187.92,-188.34 180.6,-191.55 173.53,-194.6"/>
<polygon fill="#63b8ff" stroke="#63b8ff" points="272.63,-152.45 280.09,-144.93 269.57,-146.15 272.63,-152.45"/>
</a>
</g>
</g>
<!-- Node6&#45;&gt;Node9 -->
<g id="edge8_Node000006_Node000009" class="edge">
<title>Node6&#45;&gt;Node9</title>
<g id="a_edge8_Node000006_Node000009"><a xlink:title=" ">
<path fill="none" stroke="#63b8ff" d="M229,-146.14C217.64,-147.99 206.03,-149.89 195.03,-151.68"/>
<polygon fill="#63b8ff" stroke="#63b8ff" points="229.45,-149.61 238.76,-144.55 228.32,-142.7 229.45,-149.61"/>
</a>
</g>
</g>
<!-- Node6&#45;&gt;Node10 -->
<g id="edge10_Node000006_Node000010" class="edge">
<title>Node6&#45;&gt;Node10</title>
<g id="a_edge10_Node000006_Node000010"><a xlink:title=" ">
<path fill="none" stroke="#63b8ff" d="M219.52,-123.3C209.57,-121.98 199.61,-120.66 190.22,-119.41"/>
<polygon fill="#63b8ff" stroke="#63b8ff" points="218.85,-126.74 229.23,-124.59 219.78,-119.81 218.85,-126.74"/>
</a>
</g>
</g>
<!-- Node6&#45;&gt;Node11 -->
<g id="edge12_Node000006_Node000011" class="edge">
<title>Node6&#45;&gt;Node11</title>
<g id="a_edge12_Node000006_Node000011"><a xlink:title=" ">
<path fill="none" stroke="#63b8ff" d="M268.1,-119.74C247.02,-110.68 219.3,-98.78 194.75,-88.25 187.76,-85.25 180.3,-82.05 173.12,-78.98"/>
<polygon fill="#63b8ff" stroke="#63b8ff" points="266.51,-122.86 277.08,-123.6 269.28,-116.43 266.51,-122.86"/>
</a>
</g>
</g>
<!-- Node6&#45;&gt;Node12 -->
<g id="edge14_Node000006_Node000012" class="edge">
<title>Node6&#45;&gt;Node12</title>
<g id="a_edge14_Node000006_Node000012"><a xlink:title=" ">
<path fill="none" stroke="#63b8ff" d="M283.83,-151.91C251.25,-183.8 183.12,-250.49 152.22,-280.74"/>
<polygon fill="#63b8ff" stroke="#63b8ff" points="286.24,-154.45 290.94,-144.96 281.34,-149.45 286.24,-154.45"/>
</a>
</g>
</g>
<!-- Node8 -->
<g id="Node000008" class="node">
<title>Node8</title>
<g id="a_Node000008"><a xlink:href="test__logic_8cpp.xhtml#a4fc01d736fe50cf5b977f755b675f11d" target="_top" xlink:title=" ">
<polygon fill="white" stroke="#666666" points="40,-194.88 0,-194.88 0,-175.62 40,-175.62 40,-194.88"/>
<text text-anchor="middle" x="20" y="-181.38" font-family="Helvetica,sans-Serif" font-size="10.00">setup</text>
</a>
</g>
</g>
<!-- Node7&#45;&gt;Node8 -->
<g id="edge7_Node000007_Node000008" class="edge">
<title>Node7&#45;&gt;Node8</title>
<g id="a_edge7_Node000007_Node000008"><a xlink:title=" ">
<path fill="none" stroke="#63b8ff" d="M70.85,-196.24C59.76,-193.8 49.01,-191.43 40.36,-189.52"/>
<polygon fill="#63b8ff" stroke="#63b8ff" points="70,-199.64 80.52,-198.38 71.51,-192.8 70,-199.64"/>
</a>
</g>
</g>
<!-- Node9&#45;&gt;Node8 -->
<g id="edge9_Node000009_Node000008" class="edge">
<title>Node9&#45;&gt;Node8</title>
<g id="a_edge9_Node000009_Node000008"><a xlink:title=" ">
<path fill="none" stroke="#63b8ff" d="M64.44,-176.05C55.69,-177.91 47.39,-179.66 40.43,-181.14"/>
<polygon fill="#63b8ff" stroke="#63b8ff" points="65.16,-179.48 74.21,-173.99 63.71,-172.63 65.16,-179.48"/>
</a>
</g>
</g>
<!-- Node10&#45;&gt;Node8 -->
<g id="edge11_Node000010_Node000008" class="edge">
<title>Node10&#45;&gt;Node8</title>
<g id="a_edge11_Node000010_Node000008"><a xlink:title=" ">
<path fill="none" stroke="#63b8ff" d="M83.1,-133.09C80.66,-134.43 78.28,-135.81 76,-137.25 58.4,-148.31 40.78,-164.9 30.39,-175.39"/>
<polygon fill="#63b8ff" stroke="#63b8ff" points="84.67,-136.21 92,-128.56 81.5,-129.98 84.67,-136.21"/>
</a>
</g>
</g>
<!-- Node11&#45;&gt;Node8 -->
<g id="edge13_Node000011_Node000008" class="edge">
<title>Node11&#45;&gt;Node8</title>
<g id="a_edge13_Node000011_Node000008"><a xlink:title=" ">
<path fill="none" stroke="#63b8ff" d="M79.85,-85.07C78.52,-86.09 77.23,-87.15 76,-88.25 48.01,-113.29 30.86,-156.08 24.19,-175.34"/>
<polygon fill="#63b8ff" stroke="#63b8ff" points="81.48,-88.19 87.93,-79.78 77.65,-82.33 81.48,-88.19"/>
</a>
</g>
</g>
<!-- Node12&#45;&gt;Node8 -->
<g id="edge15_Node000012_Node000008" class="edge">
<title>Node12&#45;&gt;Node8</title>
<g id="a_edge15_Node000012_Node000008"><a xlink:title=" ">
<path fill="none" stroke="#63b8ff" d="M85.96,-274.79C82.44,-272.46 79.07,-269.95 76,-267.25 51.91,-246.1 33.67,-212.1 25.58,-195.3"/>
<polygon fill="#63b8ff" stroke="#63b8ff" points="83.85,-277.6 94.23,-279.74 87.44,-271.6 83.85,-277.6"/>
</a>
</g>
</g>
<!-- Node14 -->
<g id="Node000014" class="node">
<title>Node14</title>
<g id="a_Node000014"><a xlink:href="test__mqtt_8cpp.xhtml#a4fc01d736fe50cf5b977f755b675f11d" target="_top" xlink:title=" ">
<polygon fill="white" stroke="#666666" points="155.38,-24.88 115.38,-24.88 115.38,-5.62 155.38,-5.62 155.38,-24.88"/>
<text text-anchor="middle" x="135.38" y="-11.38" font-family="Helvetica,sans-Serif" font-size="10.00">setup</text>
</a>
</g>
</g>
<!-- Node13&#45;&gt;Node14 -->
<g id="edge17_Node000013_Node000014" class="edge">
<title>Node13&#45;&gt;Node14</title>
<g id="a_edge17_Node000013_Node000014"><a xlink:title=" ">
<path fill="none" stroke="#63b8ff" d="M235.51,-15.25C206.8,-15.25 175.35,-15.25 155.74,-15.25"/>
<polygon fill="#63b8ff" stroke="#63b8ff" points="235.25,-18.75 245.25,-15.25 235.25,-11.75 235.25,-18.75"/>
</a>
</g>
</g>
<!-- Node15&#45;&gt;Node8 -->
<g id="edge21_Node000015_Node000008" class="edge">
<title>Node15&#45;&gt;Node8</title>
<g id="a_edge21_Node000015_Node000008"><a xlink:title=" ">
<path fill="none" stroke="#63b8ff" d="M237.91,-258.43C191.2,-259.74 127.33,-256.31 76,-234.25 56.03,-225.67 38.33,-206.88 28.69,-195.22"/>
<polygon fill="#63b8ff" stroke="#63b8ff" points="238.02,-261.93 247.88,-258.06 237.76,-254.93 238.02,-261.93"/>
</a>
</g>
</g>
<!-- Node18&#45;&gt;Node3 -->
<g id="edge30_Node000018_Node000003" class="edge">
<title>Node18&#45;&gt;Node3</title>
<g id="a_edge30_Node000018_Node000003"><a xlink:title=" ">
<path fill="none" stroke="#63b8ff" d="M866.04,-251.06C856.2,-253.89 846.14,-256.79 836.56,-259.54"/>
<polygon fill="#63b8ff" stroke="#63b8ff" points="866.93,-254.44 875.57,-248.31 864.99,-247.72 866.93,-254.44"/>
</a>
</g>
</g>
<!-- Node19 -->
<g id="Node000019" class="node">
<title>Node19</title>
<g id="a_Node000019"><a xlink:href="namespacefabomatic.xhtml#ae7de89faffd3bb8805727b8a1092a198" target="_top" xlink:title="Opens WiFi and server connection and updates board state accordingly.">
<polygon fill="white" stroke="#666666" points="840,-241.88 722,-241.88 722,-222.62 840,-222.62 840,-241.88"/>
<text text-anchor="middle" x="781" y="-228.38" font-family="Helvetica,sans-Serif" font-size="10.00">fabomatic::taskConnect</text>
</a>
</g>
</g>
<!-- Node18&#45;&gt;Node19 -->
<g id="edge31_Node000018_Node000019" class="edge">
<title>Node18&#45;&gt;Node19</title>
<g id="a_edge31_Node000018_Node000019"><a xlink:title=" ">
<path fill="none" stroke="#63b8ff" d="M864.51,-232.25C856.48,-232.25 848.32,-232.25 840.42,-232.25"/>
<polygon fill="#63b8ff" stroke="#63b8ff" points="864.24,-235.75 874.24,-232.25 864.24,-228.75 864.24,-235.75"/>
</a>
</g>
</g>
<!-- Node21 -->
<g id="Node000021" class="node">
<title>Node21</title>
<g id="a_Node000021"><a xlink:href="namespacefabomatic_1_1tests.xhtml#a88a4242d48bfa4a0337df522d303c367" target="_top" xlink:title="Opens WiFi and server connection and updates board state accordingly.">
<polygon fill="white" stroke="#666666" points="834,-204.5 728,-204.5 728,-174 834,-174 834,-204.5"/>
<text text-anchor="start" x="736" y="-191" font-family="Helvetica,sans-Serif" font-size="10.00">fabomatic::tests::test</text>
<text text-anchor="middle" x="781" y="-179.75" font-family="Helvetica,sans-Serif" font-size="10.00">_taskConnect</text>
</a>
</g>
</g>
<!-- Node18&#45;&gt;Node21 -->
<g id="edge33_Node000018_Node000021" class="edge">
<title>Node18&#45;&gt;Node21</title>
<g id="a_edge33_Node000018_Node000021"><a xlink:title=" ">
<path fill="none" stroke="#63b8ff" d="M866.02,-213.44C855.33,-210.36 844.38,-207.21 834.07,-204.24"/>
<polygon fill="#63b8ff" stroke="#63b8ff" points="864.99,-216.78 875.57,-216.19 866.93,-210.06 864.99,-216.78"/>
</a>
</g>
</g>
<!-- Node20 -->
<g id="Node000020" class="node">
<title>Node20</title>
<g id="a_Node000020"><a xlink:href="main_8cpp.xhtml#a4fc01d736fe50cf5b977f755b675f11d" target="_top" xlink:title=" ">
<polygon fill="white" stroke="#666666" points="649.62,-241.88 609.62,-241.88 609.62,-222.62 649.62,-222.62 649.62,-241.88"/>
<text text-anchor="middle" x="629.62" y="-228.38" font-family="Helvetica,sans-Serif" font-size="10.00">setup</text>
</a>
</g>
</g>
<!-- Node19&#45;&gt;Node20 -->
<g id="edge32_Node000019_Node000020" class="edge">
<title>Node19&#45;&gt;Node20</title>
<g id="a_edge32_Node000019_Node000020"><a xlink:title=" ">
<path fill="none" stroke="#63b8ff" d="M710.61,-232.25C688.3,-232.25 665.36,-232.25 649.8,-232.25"/>
<polygon fill="#63b8ff" stroke="#63b8ff" points="710.31,-235.75 720.31,-232.25 710.31,-228.75 710.31,-235.75"/>
</a>
</g>
</g>
</g>
</svg>

<g id="navigator" transform="translate(0 0)" fill="#404254">
  <rect fill="#f2f5e9" fill-opacity="0.5" stroke="#606060" stroke-width=".5" x="0" y="0" width="60" height="60"/>
  <use id="zoomplus" xlink:href="#zoomPlus" x="17" y="9" onmousedown="handleZoom(evt,'in')"/>
  <use id="zoomminus" xlink:href="#zoomMin" x="42" y="9" onmousedown="handleZoom(evt,'out')"/>
  <use id="reset" xlink:href="#resetDef" x="30" y="36" onmousedown="handleReset()"/>
   <use id="arrowup" xlink:href="#arrowUp" x="0" y="0" onmousedown="handlePan(0,-1)"/>
  <use id="arrowright" xlink:href="#arrowRight" x="0" y="0" onmousedown="handlePan(1,0)"/>
  <use id="arrowdown" xlink:href="#arrowDown" x="0" y="0" onmousedown="handlePan(0,1)"/>
  <use id="arrowleft" xlink:href="#arrowLeft" x="0" y="0" onmousedown="handlePan(-1,0)"/>
</g>
<svg viewBox="0 0 15 15" width="100%" height="30px" preserveAspectRatio="xMaxYMin meet">
 <g id="arrow_out" transform="scale(0.3 0.3)">
  <a xlink:href="classfabomatic_1_1_machine_a921c78777a6cb9f7fdb9780a8c1aa8c0_icgraph_org.svg" target="_base">
   <rect id="button" ry="5" rx="5" y="6" x="6" height="38" width="38"
        fill="#f2f5e9" fill-opacity="0.5" stroke="#606060" stroke-width="1.0"/>
   <path id="arrow"
     d="M 11.500037,31.436501 C 11.940474,20.09759 22.043105,11.32322 32.158766,21.979434 L 37.068811,17.246167 C 37.068811,17.246167 37.088388,32 37.088388,32 L 22.160133,31.978069 C 22.160133,31.978069 26.997745,27.140456 26.997745,27.140456 C 18.528582,18.264221 13.291696,25.230495 11.500037,31.436501 z"
     style="fill:#404040;"/>
  </a>
 </g>
</svg>

<style type='text/css'>
<![CDATA[
[data-mouse-over-selected='false'] { opacity: 0.7; }
[data-mouse-over-selected='true']  { opacity: 1.0; }
]]>
</style>
<script type="application/ecmascript"><![CDATA[
document.addEventListener('DOMContentLoaded', (event) => {
  highlightEdges();
  highlightAdjacentNodes();
});
]]></script>
</svg>
