<?xml version="1.0" encoding="UTF-8" standalone="no"?>
<!DOCTYPE svg PUBLIC "-//W3C//DTD SVG 1.1//EN"
 "http://www.w3.org/Graphics/SVG/1.1/DTD/svg11.dtd">
<!-- Generated by graphviz version 9.0.0 (20230911.1827)
 -->
<!-- Title: fabomatic::MQTT::RegisterMaintenanceQuery Pages: 1 -->
<svg width="149pt" height="258pt"
 viewBox="0.00 0.00 149.00 258.00" xmlns="http://www.w3.org/2000/svg" xmlns:xlink="http://www.w3.org/1999/xlink">

<svg id="main" version="1.1" xmlns="http://www.w3.org/2000/svg" xmlns:xlink="http://www.w3.org/1999/xlink" xml:space="preserve" onload="init(evt)">
<style type="text/css"><![CDATA[
.node, .edge {opacity: 0.7;}
.node.selected, .edge.selected {opacity: 1;}
.edge:hover path { stroke: red; }
.edge:hover polygon { stroke: red; fill: red; }
]]></style>
<script type="application/ecmascript" xlink:href="svg.min.js"/>
<svg id="graph" class="graph">
<g id="graph0" class="graph" transform="scale(1 1) rotate(0) translate(4 254)">
<title>fabomatic::MQTT::RegisterMaintenanceQuery</title>
<!-- Node1 -->
<g id="Node000001" class="node">
<title>Node1</title>
<g id="a_Node000001"><a xlink:title="Maintenance action record.">
<polygon fill="#999999" stroke="none" points="141,-120 0,-120 0,0 141,0 141,-120"/>
<text text-anchor="start" x="12.75" y="-106.5" font-family="Helvetica,sans-Serif" font-size="10.00">fabomatic::MQTT::Register</text>
<text text-anchor="start" x="30" y="-95.25" font-family="Helvetica,sans-Serif" font-size="10.00">MaintenanceQuery</text>
<text text-anchor="start" x="4" y="-80.5" font-family="Helvetica,sans-Serif" font-size="10.00">+</text>
<text text-anchor="start" x="14" y="-80.5" font-family="Helvetica,sans-Serif" font-size="10.00">uid</text>
<text text-anchor="start" x="4" y="-65.5" font-family="Helvetica,sans-Serif" font-size="10.00">+</text>
<text text-anchor="start" x="14" y="-65.5" font-family="Helvetica,sans-Serif" font-size="10.00">RegisterMaintenanceQuery()</text>
<text text-anchor="start" x="4" y="-50.5" font-family="Helvetica,sans-Serif" font-size="10.00">+</text>
<text text-anchor="start" x="14" y="-50.5" font-family="Helvetica,sans-Serif" font-size="10.00">RegisterMaintenanceQuery()</text>
<text text-anchor="start" x="4" y="-35.5" font-family="Helvetica,sans-Serif" font-size="10.00">+</text>
<text text-anchor="start" x="14" y="-35.5" font-family="Helvetica,sans-Serif" font-size="10.00">payload()</text>
<text text-anchor="start" x="4" y="-20.5" font-family="Helvetica,sans-Serif" font-size="10.00">+</text>
<text text-anchor="start" x="14" y="-20.5" font-family="Helvetica,sans-Serif" font-size="10.00">waitForReply()</text>
<text text-anchor="start" x="4" y="-5.5" font-family="Helvetica,sans-Serif" font-size="10.00">+</text>
<text text-anchor="start" x="14" y="-5.5" font-family="Helvetica,sans-Serif" font-size="10.00">buffered()</text>
<polygon fill="#666666" stroke="#666666" points="0,-92 0,-92 141,-92 141,-92 0,-92"/>
<polygon fill="#666666" stroke="#666666" points="0,-77 0,-77 12,-77 12,-77 0,-77"/>
<polygon fill="#666666" stroke="#666666" points="12,-77 12,-77 141,-77 141,-77 12,-77"/>
<polygon fill="none" stroke="#666666" points="0,0 0,-120 141,-120 141,0 0,0"/>
</a>
</g>
</g>
<!-- Node2 -->
<g id="Node000002" class="node">
<title>Node2</title>
<g id="a_Node000002"><a xlink:href="classfabomatic_1_1_m_q_t_t_1_1_query.xhtml" target="_top" xlink:title="base class for all MQTT request to the backend">
<polygon fill="white" stroke="none" points="128,-250 13,-250 13,-156 128,-156 128,-250"/>
<text text-anchor="start" x="18" y="-236.5" font-family="Helvetica,sans-Serif" font-size="10.00">fabomatic::MQTT::Query</text>
<text text-anchor="start" x="69" y="-221.5" font-family="Helvetica,sans-Serif" font-size="10.00"> </text>
<text text-anchor="start" x="25.5" y="-206.5" font-family="Helvetica,sans-Serif" font-size="10.00">+</text>
<text text-anchor="start" x="44" y="-206.5" font-family="Helvetica,sans-Serif" font-size="10.00">waitForReply()</text>
<text text-anchor="start" x="25.5" y="-191.5" font-family="Helvetica,sans-Serif" font-size="10.00">+</text>
<text text-anchor="start" x="44" y="-191.5" font-family="Helvetica,sans-Serif" font-size="10.00">payload()</text>
<text text-anchor="start" x="25.5" y="-176.5" font-family="Helvetica,sans-Serif" font-size="10.00">+</text>
<text text-anchor="start" x="44" y="-176.5" font-family="Helvetica,sans-Serif" font-size="10.00">buffered()</text>
<text text-anchor="start" x="25.5" y="-161.5" font-family="Helvetica,sans-Serif" font-size="10.00">+</text>
<text text-anchor="start" x="44" y="-161.5" font-family="Helvetica,sans-Serif" font-size="10.00">~Query()</text>
<polygon fill="#666666" stroke="#666666" points="13,-233 13,-233 128,-233 128,-233 13,-233"/>
<polygon fill="#666666" stroke="#666666" points="13,-218 13,-218 128,-218 128,-218 13,-218"/>
<polygon fill="none" stroke="#666666" points="13,-156 13,-250 128,-250 128,-156 13,-156"/>
</a>
</g>
</g>
<!-- Node2&#45;&gt;Node1 -->
<g id="edge1_Node000001_Node000002" class="edge">
<title>Node2&#45;&gt;Node1</title>
<g id="a_edge1_Node000001_Node000002"><a xlink:title=" ">
<path fill="none" stroke="#63b8ff" d="M70.5,-144.83C70.5,-136.62 70.5,-128.16 70.5,-119.92"/>
<polygon fill="none" stroke="#63b8ff" points="67,-144.71 70.5,-154.71 74,-144.71 67,-144.71"/>
</a>
</g>
</g>
</g>
</svg>
</svg>

<style type='text/css'>
<![CDATA[
[data-mouse-over-selected='false'] { opacity: 0.7; }
[data-mouse-over-selected='true']  { opacity: 1.0; }
]]>
</style>
<script type="application/ecmascript"><![CDATA[
document.addEventListener('DOMContentLoaded', (event) => {
  highlightEdges();
  highlightAdjacentNodes();
});
]]></script>
</svg>
