<?xml version="1.0" encoding="UTF-8" standalone="no"?>
<!DOCTYPE svg PUBLIC "-//W3C//DTD SVG 1.1//EN"
 "http://www.w3.org/Graphics/SVG/1.1/DTD/svg11.dtd">
<!-- Generated by graphviz version 9.0.0 (20230911.1827)
 -->
<!-- Title: fabomatic::Tasks::Scheduler Pages: 1 -->
<svg width="199pt" height="469pt"
 viewBox="0.00 0.00 199.25 469.00" xmlns="http://www.w3.org/2000/svg" xmlns:xlink="http://www.w3.org/1999/xlink">
<g id="graph0" class="graph" transform="scale(1 1) rotate(0) translate(4 465)">
<title>fabomatic::Tasks::Scheduler</title>
<!-- Node1 -->
<g id="Node000001" class="node">
<title>Node1</title>
<g id="a_Node000001"><a xlink:title=" ">
<polygon fill="#999999" stroke="none" points="132,-139 0,-139 0,0 132,0 132,-139"/>
<text text-anchor="start" x="4.88" y="-125.5" font-family="Helvetica,sans-Serif" font-size="10.00">fabomatic::Tasks::Scheduler</text>
<text text-anchor="start" x="64.5" y="-110.5" font-family="Helvetica,sans-Serif" font-size="10.00"> </text>
<text text-anchor="start" x="12" y="-95.5" font-family="Helvetica,sans-Serif" font-size="10.00">+</text>
<text text-anchor="start" x="30" y="-95.5" font-family="Helvetica,sans-Serif" font-size="10.00">addTask()</text>
<text text-anchor="start" x="12" y="-80.5" font-family="Helvetica,sans-Serif" font-size="10.00">+</text>
<text text-anchor="start" x="30" y="-80.5" font-family="Helvetica,sans-Serif" font-size="10.00">removeTask()</text>
<text text-anchor="start" x="12" y="-65.5" font-family="Helvetica,sans-Serif" font-size="10.00">+</text>
<text text-anchor="start" x="30" y="-65.5" font-family="Helvetica,sans-Serif" font-size="10.00">execute()</text>
<text text-anchor="start" x="12" y="-50.5" font-family="Helvetica,sans-Serif" font-size="10.00">+</text>
<text text-anchor="start" x="30" y="-50.5" font-family="Helvetica,sans-Serif" font-size="10.00">updateSchedules()</text>
<text text-anchor="start" x="12" y="-35.5" font-family="Helvetica,sans-Serif" font-size="10.00">+</text>
<text text-anchor="start" x="30" y="-35.5" font-family="Helvetica,sans-Serif" font-size="10.00">taskCount()</text>
<text text-anchor="start" x="12" y="-20.5" font-family="Helvetica,sans-Serif" font-size="10.00">+</text>
<text text-anchor="start" x="30" y="-20.5" font-family="Helvetica,sans-Serif" font-size="10.00">getTasks()</text>
<text text-anchor="start" x="13.5" y="-5.5" font-family="Helvetica,sans-Serif" font-size="10.00">&#45;</text>
<text text-anchor="start" x="30" y="-5.5" font-family="Helvetica,sans-Serif" font-size="10.00">printStats()</text>
<polygon fill="#666666" stroke="#666666" points="0,-122 0,-122 132,-122 132,-122 0,-122"/>
<polygon fill="#666666" stroke="#666666" points="0,-107 0,-107 132,-107 132,-107 0,-107"/>
<polygon fill="none" stroke="#666666" points="0,0 0,-139 132,-139 132,0 0,0"/>
</a>
</g>
</g>
<!-- Node2 -->
<g id="Node000002" class="node">
<title>Node2</title>
<g id="a_Node000002"><a xlink:title=" ">
<polygon fill="white" stroke="none" points="132,-257.25 0,-257.25 0,-186.25 132,-186.25 132,-257.25"/>
<text text-anchor="start" x="4.88" y="-243.75" font-family="Helvetica,sans-Serif" font-size="10.00">std::vector&lt; std::reference</text>
<text text-anchor="start" x="4.88" y="-232.5" font-family="Helvetica,sans-Serif" font-size="10.00">_wrapper&lt; fabomatic::Tasks</text>
<text text-anchor="start" x="44.62" y="-221.25" font-family="Helvetica,sans-Serif" font-size="10.00">::Task &gt; &gt;</text>
<text text-anchor="start" x="22.5" y="-206.75" font-family="Helvetica,sans-Serif" font-size="10.00">+</text>
<text text-anchor="start" x="51" y="-206.75" font-family="Helvetica,sans-Serif" font-size="10.00">elements</text>
<text text-anchor="start" x="64.5" y="-191.75" font-family="Helvetica,sans-Serif" font-size="10.00"> </text>
<polygon fill="#666666" stroke="#666666" points="0,-218.25 0,-218.25 132,-218.25 132,-218.25 0,-218.25"/>
<polygon fill="#666666" stroke="#666666" points="0,-203.25 0,-203.25 49,-203.25 49,-203.25 0,-203.25"/>
<polygon fill="#666666" stroke="#666666" points="49,-203.25 49,-203.25 132,-203.25 132,-203.25 49,-203.25"/>
<polygon fill="none" stroke="#666666" points="0,-186.25 0,-257.25 132,-257.25 132,-186.25 0,-186.25"/>
</a>
</g>
</g>
<!-- Node2&#45;&gt;Node1 -->
<g id="edge1_Node000001_Node000002" class="edge">
<title>Node2&#45;&gt;Node1</title>
<g id="a_edge1_Node000001_Node000002"><a xlink:title=" ">
<path fill="none" stroke="#63b8ff" d="M66,-186.28C66,-175.8 66,-163.81 66,-151.6"/>
<polygon fill="none" stroke="#63b8ff" points="66,-151.76 62,-145.76 66,-139.76 70,-145.76 66,-151.76"/>
</a>
</g>
<text text-anchor="middle" x="80.62" y="-158.75" font-family="Helvetica,sans-Serif" font-size="10.00" fill="grey"> &#45;tasks</text>
</g>
<!-- Node3 -->
<g id="Node000003" class="node">
<title>Node3</title>
<g id="a_Node000003"><a xlink:title=" ">
<polygon fill="white" stroke="none" points="104.5,-364.75 27.5,-364.75 27.5,-315.75 104.5,-315.75 104.5,-364.75"/>
<text text-anchor="start" x="32.25" y="-351.25" font-family="Helvetica,sans-Serif" font-size="10.00">std::vector&lt; T &gt;</text>
<text text-anchor="start" x="64.5" y="-336.25" font-family="Helvetica,sans-Serif" font-size="10.00"> </text>
<text text-anchor="start" x="64.5" y="-321.25" font-family="Helvetica,sans-Serif" font-size="10.00"> </text>
<polygon fill="#666666" stroke="#666666" points="27.5,-347.75 27.5,-347.75 104.5,-347.75 104.5,-347.75 27.5,-347.75"/>
<polygon fill="#666666" stroke="#666666" points="27.5,-332.75 27.5,-332.75 104.5,-332.75 104.5,-332.75 27.5,-332.75"/>
<polygon fill="none" stroke="#666666" points="27.5,-315.75 27.5,-364.75 104.5,-364.75 104.5,-315.75 27.5,-315.75"/>
</a>
</g>
</g>
<!-- Node3&#45;&gt;Node2 -->
<g id="edge2_Node000002_Node000003" class="edge">
<title>Node3&#45;&gt;Node2</title>
<g id="a_edge2_Node000002_Node000003"><a xlink:title=" ">
<path fill="none" stroke="orange" d="M66,-304.55C66,-289.54 66,-272.02 66,-257.05"/>
<polygon fill="orange" stroke="orange" points="62.5,-304.44 66,-314.44 69.5,-304.44 62.5,-304.44"/>
</a>
</g>
<text text-anchor="start" x="66" y="-288.25" font-family="Helvetica,sans-Serif" font-size="10.00" fill="grey"> &lt; std::reference_wrapper</text>
<text text-anchor="middle" x="128.62" y="-277" font-family="Helvetica,sans-Serif" font-size="10.00" fill="grey">&lt; fabomatic::Tasks::Task &gt; &gt;</text>
</g>
<!-- Node4 -->
<g id="Node000004" class="node">
<title>Node4</title>
<g id="a_Node000004"><a xlink:title=" ">
<polygon fill="white" stroke="none" points="74,-461 58,-461 58,-412 74,-412 74,-461"/>
<text text-anchor="start" x="63" y="-447.5" font-family="Helvetica,sans-Serif" font-size="10.00">T</text>
<text text-anchor="start" x="64.5" y="-432.5" font-family="Helvetica,sans-Serif" font-size="10.00"> </text>
<text text-anchor="start" x="64.5" y="-417.5" font-family="Helvetica,sans-Serif" font-size="10.00"> </text>
<polygon fill="#666666" stroke="#666666" points="58,-444 58,-444 74,-444 74,-444 58,-444"/>
<polygon fill="#666666" stroke="#666666" points="58,-429 58,-429 74,-429 74,-429 58,-429"/>
<polygon fill="none" stroke="#666666" points="58,-412 58,-461 74,-461 74,-412 58,-412"/>
</a>
</g>
</g>
<!-- Node4&#45;&gt;Node3 -->
<g id="edge3_Node000003_Node000004" class="edge">
<title>Node4&#45;&gt;Node3</title>
<g id="a_edge3_Node000003_Node000004"><a xlink:title=" ">
<path fill="none" stroke="#63b8ff" d="M66,-412.2C66,-401.78 66,-389.25 66,-377.64"/>
<polygon fill="none" stroke="#63b8ff" points="66,-377.51 62,-371.51 66,-365.51 70,-371.51 66,-377.51"/>
</a>
</g>
<text text-anchor="middle" x="90" y="-384.5" font-family="Helvetica,sans-Serif" font-size="10.00" fill="grey"> +elements</text>
</g>
</g>
</svg>
