<?xml version="1.0" encoding="UTF-8" standalone="no"?>
<!DOCTYPE svg PUBLIC "-//W3C//DTD SVG 1.1//EN"
 "http://www.w3.org/Graphics/SVG/1.1/DTD/svg11.dtd">
<!-- Generated by graphviz version 9.0.0 (20230911.1827)
 -->
<!-- Title: fabomatic::Machine::getMachineName Pages: 1 -->
<svg width="1519pt" height="685pt"
 viewBox="0.00 0.00 1518.75 685.03" xmlns="http://www.w3.org/2000/svg" xmlns:xlink="http://www.w3.org/1999/xlink">
<g id="graph0" class="graph" transform="scale(1 1) rotate(0) translate(4 681.03)">
<title>fabomatic::Machine::getMachineName</title>
<!-- Node1 -->
<g id="Node000001" class="node">
<title>Node1</title>
<g id="a_Node000001"><a xlink:title=" ">
<polygon fill="#999999" stroke="#666666" points="1510.75,-224.5 1410.75,-224.5 1410.75,-194 1510.75,-194 1510.75,-224.5"/>
<text text-anchor="start" x="1418.75" y="-211" font-family="Helvetica,sans-Serif" font-size="10.00">fabomatic::Machine</text>
<text text-anchor="middle" x="1460.75" y="-199.75" font-family="Helvetica,sans-Serif" font-size="10.00">::getMachineName</text>
</a>
</g>
</g>
<!-- Node2 -->
<g id="Node000002" class="node">
<title>Node2</title>
<g id="a_Node000002"><a xlink:href="classfabomatic_1_1_machine.xhtml#a39fbf9cad912d735cf84b75c0674646f" target="_top" xlink:title=" ">
<polygon fill="white" stroke="#666666" points="1368.38,-200.5 1268.38,-200.5 1268.38,-170 1368.38,-170 1368.38,-200.5"/>
<text text-anchor="start" x="1276.38" y="-187" font-family="Helvetica,sans-Serif" font-size="10.00">fabomatic::Machine</text>
<text text-anchor="middle" x="1318.38" y="-175.75" font-family="Helvetica,sans-Serif" font-size="10.00">::toString</text>
</a>
</g>
</g>
<!-- Node1&#45;&gt;Node2 -->
<g id="edge1_Node000001_Node000002" class="edge">
<title>Node1&#45;&gt;Node2</title>
<g id="a_edge1_Node000001_Node000002"><a xlink:title=" ">
<path fill="none" stroke="#63b8ff" d="M1398.91,-198.85C1388.72,-197.11 1378.27,-195.32 1368.42,-193.64"/>
<polygon fill="#63b8ff" stroke="#63b8ff" points="1398.32,-202.3 1408.77,-200.53 1399.5,-195.4 1398.32,-202.3"/>
</a>
</g>
</g>
<!-- Node20 -->
<g id="Node000020" class="node">
<title>Node20</title>
<g id="a_Node000020"><a xlink:href="classfabomatic_1_1_board_logic.xhtml#a47b4d515c0d3488eceb49769036bce8b" target="_top" xlink:title="Updates the LCD screen as per the current status.">
<polygon fill="white" stroke="#666666" points="1374.75,-300.5 1262,-300.5 1262,-270 1374.75,-270 1374.75,-300.5"/>
<text text-anchor="start" x="1270" y="-287" font-family="Helvetica,sans-Serif" font-size="10.00">fabomatic::BoardLogic</text>
<text text-anchor="middle" x="1318.38" y="-275.75" font-family="Helvetica,sans-Serif" font-size="10.00">::updateLCD</text>
</a>
</g>
</g>
<!-- Node1&#45;&gt;Node20 -->
<g id="edge30_Node000001_Node000020" class="edge">
<title>Node1&#45;&gt;Node20</title>
<g id="a_edge30_Node000001_Node000020"><a xlink:title=" ">
<path fill="none" stroke="#63b8ff" d="M1420.58,-230.45C1397.7,-242.84 1369.31,-258.22 1348.42,-269.52"/>
<polygon fill="#63b8ff" stroke="#63b8ff" points="1422.21,-233.56 1429.33,-225.72 1418.87,-227.4 1422.21,-233.56"/>
</a>
</g>
</g>
<!-- Node3 -->
<g id="Node000003" class="node">
<title>Node3</title>
<g id="a_Node000003"><a xlink:href="classfabomatic_1_1_board_logic.xhtml#aa0d3d3aa742eba1ffd00b97868ce7edc" target="_top" xlink:title="connects and polls the server for up&#45;to&#45;date machine information">
<polygon fill="white" stroke="#666666" points="1226,-111.5 1113.25,-111.5 1113.25,-81 1226,-81 1226,-111.5"/>
<text text-anchor="start" x="1121.25" y="-98" font-family="Helvetica,sans-Serif" font-size="10.00">fabomatic::BoardLogic</text>
<text text-anchor="middle" x="1169.62" y="-86.75" font-family="Helvetica,sans-Serif" font-size="10.00">::refreshFromServer</text>
</a>
</g>
</g>
<!-- Node2&#45;&gt;Node3 -->
<g id="edge2_Node000002_Node000003" class="edge">
<title>Node2&#45;&gt;Node3</title>
<g id="a_edge2_Node000002_Node000003"><a xlink:title=" ">
<path fill="none" stroke="#63b8ff" d="M1281.83,-163.69C1255.41,-147.67 1219.96,-126.17 1196.26,-111.8"/>
<polygon fill="#63b8ff" stroke="#63b8ff" points="1279.82,-166.57 1290.18,-168.76 1283.45,-160.58 1279.82,-166.57"/>
</a>
</g>
</g>
<!-- Node4 -->
<g id="Node000004" class="node">
<title>Node4</title>
<g id="a_Node000004"><a xlink:href="classfabomatic_1_1_board_logic.xhtml#a983c8de8b9c8881fc0a4e60dddc7f0c6" target="_top" xlink:title="Called when a RFID tag has been detected.">
<polygon fill="white" stroke="#666666" points="873.75,-381.5 761,-381.5 761,-351 873.75,-351 873.75,-381.5"/>
<text text-anchor="start" x="769" y="-368" font-family="Helvetica,sans-Serif" font-size="10.00">fabomatic::BoardLogic</text>
<text text-anchor="middle" x="817.38" y="-356.75" font-family="Helvetica,sans-Serif" font-size="10.00">::onNewCard</text>
</a>
</g>
</g>
<!-- Node3&#45;&gt;Node4 -->
<g id="edge3_Node000003_Node000004" class="edge">
<title>Node3&#45;&gt;Node4</title>
<g id="a_edge3_Node000003_Node000004"><a xlink:title=" ">
<path fill="none" stroke="#63b8ff" d="M1101.98,-114.49C1037.86,-133.25 947.04,-163.45 921.75,-190.25 885.28,-228.89 914.26,-259.41 885.75,-304.25 873.98,-322.76 855.32,-339.33 840.62,-350.67"/>
<polygon fill="#63b8ff" stroke="#63b8ff" points="1102.73,-117.91 1111.37,-111.77 1100.79,-111.19 1102.73,-117.91"/>
</a>
</g>
</g>
<!-- Node17 -->
<g id="Node000017" class="node">
<title>Node17</title>
<g id="a_Node000017"><a xlink:href="namespacefabomatic.xhtml#ae7de89faffd3bb8805727b8a1092a198" target="_top" xlink:title="Opens WiFi and server connection and updates board state accordingly.">
<polygon fill="white" stroke="#666666" points="1058.5,-67.88 940.5,-67.88 940.5,-48.62 1058.5,-48.62 1058.5,-67.88"/>
<text text-anchor="middle" x="999.5" y="-54.38" font-family="Helvetica,sans-Serif" font-size="10.00">fabomatic::taskConnect</text>
</a>
</g>
</g>
<!-- Node3&#45;&gt;Node17 -->
<g id="edge27_Node000003_Node000017" class="edge">
<title>Node3&#45;&gt;Node17</title>
<g id="a_edge27_Node000003_Node000017"><a xlink:title=" ">
<path fill="none" stroke="#63b8ff" d="M1102.02,-81.2C1082.9,-76.87 1062.51,-72.27 1045.06,-68.32"/>
<polygon fill="#63b8ff" stroke="#63b8ff" points="1101.11,-84.58 1111.63,-83.37 1102.65,-77.75 1101.11,-84.58"/>
</a>
</g>
</g>
<!-- Node19 -->
<g id="Node000019" class="node">
<title>Node19</title>
<g id="a_Node000019"><a xlink:href="namespacefabomatic_1_1tests.xhtml#a88a4242d48bfa4a0337df522d303c367" target="_top" xlink:title="Opens WiFi and server connection and updates board state accordingly.">
<polygon fill="white" stroke="#666666" points="1052.5,-30.5 946.5,-30.5 946.5,0 1052.5,0 1052.5,-30.5"/>
<text text-anchor="start" x="954.5" y="-17" font-family="Helvetica,sans-Serif" font-size="10.00">fabomatic::tests::test</text>
<text text-anchor="middle" x="999.5" y="-5.75" font-family="Helvetica,sans-Serif" font-size="10.00">_taskConnect</text>
</a>
</g>
</g>
<!-- Node3&#45;&gt;Node19 -->
<g id="edge29_Node000003_Node000019" class="edge">
<title>Node3&#45;&gt;Node19</title>
<g id="a_edge29_Node000003_Node000019"><a xlink:title=" ">
<path fill="none" stroke="#63b8ff" d="M1137.49,-74.05C1120.32,-62.54 1098.27,-48.9 1077.25,-39.25 1069.51,-35.7 1061.1,-32.47 1052.78,-29.63"/>
<polygon fill="#63b8ff" stroke="#63b8ff" points="1135.5,-76.94 1145.74,-79.69 1139.45,-71.16 1135.5,-76.94"/>
</a>
</g>
</g>
<!-- Node5 -->
<g id="Node000005" class="node">
<title>Node5</title>
<g id="a_Node000005"><a xlink:href="classfabomatic_1_1_board_logic.xhtml#a25bdc3a49d850aa49f92faf951b68efb" target="_top" xlink:title="Checks if a new card is present.">
<polygon fill="white" stroke="#666666" points="699.5,-350.5 586.75,-350.5 586.75,-320 699.5,-320 699.5,-350.5"/>
<text text-anchor="start" x="594.75" y="-337" font-family="Helvetica,sans-Serif" font-size="10.00">fabomatic::BoardLogic</text>
<text text-anchor="middle" x="643.12" y="-325.75" font-family="Helvetica,sans-Serif" font-size="10.00">::checkRfid</text>
</a>
</g>
</g>
<!-- Node4&#45;&gt;Node5 -->
<g id="edge4_Node000004_Node000005" class="edge">
<title>Node4&#45;&gt;Node5</title>
<g id="a_edge4_Node000004_Node000005"><a xlink:title=" ">
<path fill="none" stroke="#63b8ff" d="M749.69,-354.25C733.19,-351.28 715.68,-348.13 699.77,-345.26"/>
<polygon fill="#63b8ff" stroke="#63b8ff" points="748.97,-357.68 759.44,-356 750.21,-350.79 748.97,-357.68"/>
</a>
</g>
</g>
<!-- Node6 -->
<g id="Node000006" class="node">
<title>Node6</title>
<g id="a_Node000006"><a xlink:href="namespacefabomatic_1_1tests.xhtml#a2600320f41c9fa343c66058ecb12b5ee" target="_top" xlink:title="Simulates RFID card tap.">
<polygon fill="white" stroke="#666666" points="537.25,-281.5 411,-281.5 411,-251 537.25,-251 537.25,-281.5"/>
<text text-anchor="start" x="419" y="-268" font-family="Helvetica,sans-Serif" font-size="10.00">fabomatic::tests::simulate</text>
<text text-anchor="middle" x="474.12" y="-256.75" font-family="Helvetica,sans-Serif" font-size="10.00">_rfid_card</text>
</a>
</g>
</g>
<!-- Node5&#45;&gt;Node6 -->
<g id="edge5_Node000005_Node000006" class="edge">
<title>Node5&#45;&gt;Node6</title>
<g id="a_edge5_Node000005_Node000006"><a xlink:title=" ">
<path fill="none" stroke="#63b8ff" d="M594.77,-315.21C576.78,-307.64 556.09,-298.99 537.25,-291.25 529.83,-288.2 521.9,-284.98 514.27,-281.9"/>
<polygon fill="#63b8ff" stroke="#63b8ff" points="593.32,-318.4 603.9,-319.05 596.04,-311.95 593.32,-318.4"/>
</a>
</g>
</g>
<!-- Node13 -->
<g id="Node000013" class="node">
<title>Node13</title>
<g id="a_Node000013"><a xlink:href="namespacefabomatic_1_1tests.xhtml#aab0f4e1439b281ffef8be51db9a81f9d" target="_top" xlink:title=" ">
<polygon fill="white" stroke="#666666" points="191.75,-455.5 79,-455.5 79,-425 191.75,-425 191.75,-455.5"/>
<text text-anchor="start" x="87" y="-442" font-family="Helvetica,sans-Serif" font-size="10.00">fabomatic::tests::test</text>
<text text-anchor="middle" x="135.38" y="-430.75" font-family="Helvetica,sans-Serif" font-size="10.00">_whitelist_no_network</text>
</a>
</g>
</g>
<!-- Node5&#45;&gt;Node13 -->
<g id="edge26_Node000005_Node000013" class="edge">
<title>Node5&#45;&gt;Node13</title>
<g id="a_edge26_Node000005_Node000013"><a xlink:title=" ">
<path fill="none" stroke="#63b8ff" d="M596.86,-355.32C578.6,-362.9 557.16,-371.16 537.25,-377.25 417.33,-413.91 270.37,-430.05 191.94,-436.48"/>
<polygon fill="#63b8ff" stroke="#63b8ff" points="597.97,-358.65 605.82,-351.54 595.25,-352.2 597.97,-358.65"/>
</a>
</g>
</g>
<!-- Node15 -->
<g id="Node000015" class="node">
<title>Node15</title>
<g id="a_Node000015"><a xlink:href="namespacefabomatic.xhtml#a3e5c190499522bddad3f3cc69274f16c" target="_top" xlink:title="periodic check for new RFID card">
<polygon fill="white" stroke="#666666" points="537.25,-367.88 411,-367.88 411,-348.62 537.25,-348.62 537.25,-367.88"/>
<text text-anchor="middle" x="474.12" y="-354.38" font-family="Helvetica,sans-Serif" font-size="10.00">fabomatic::taskCheckRfid</text>
</a>
</g>
</g>
<!-- Node5&#45;&gt;Node15 -->
<g id="edge24_Node000005_Node000015" class="edge">
<title>Node5&#45;&gt;Node15</title>
<g id="a_edge24_Node000005_Node000015"><a xlink:title=" ">
<path fill="none" stroke="#63b8ff" d="M575.3,-344.45C562.89,-346.16 549.97,-347.94 537.69,-349.63"/>
<polygon fill="#63b8ff" stroke="#63b8ff" points="575.59,-347.95 585.02,-343.12 574.63,-341.01 575.59,-347.95"/>
</a>
</g>
</g>
<!-- Node16 -->
<g id="Node000016" class="node">
<title>Node16</title>
<g id="a_Node000016"><a xlink:href="namespacefabomatic_1_1tests.xhtml#a294b4767ecf1e1d11cc31dafb2541d23" target="_top" xlink:title="periodic check for new RFID card">
<polygon fill="white" stroke="#666666" points="527.12,-330.5 421.12,-330.5 421.12,-300 527.12,-300 527.12,-330.5"/>
<text text-anchor="start" x="429.12" y="-317" font-family="Helvetica,sans-Serif" font-size="10.00">fabomatic::tests::test</text>
<text text-anchor="middle" x="474.12" y="-305.75" font-family="Helvetica,sans-Serif" font-size="10.00">_taskCheckRfid</text>
</a>
</g>
</g>
<!-- Node5&#45;&gt;Node16 -->
<g id="edge25_Node000005_Node000016" class="edge">
<title>Node5&#45;&gt;Node16</title>
<g id="a_edge25_Node000005_Node000016"><a xlink:title=" ">
<path fill="none" stroke="#63b8ff" d="M575.13,-327.23C559.23,-325.32 542.51,-323.32 527.38,-321.51"/>
<polygon fill="#63b8ff" stroke="#63b8ff" points="574.67,-330.7 585.01,-328.41 575.5,-323.75 574.67,-330.7"/>
</a>
</g>
</g>
<!-- Node7 -->
<g id="Node000007" class="node">
<title>Node7</title>
<g id="a_Node000007"><a xlink:href="namespacefabomatic_1_1tests.xhtml#a6a7645a865dc822746f972ea6f43224d" target="_top" xlink:title="Resets machine to initial state, clearing flags.">
<polygon fill="white" stroke="#666666" points="375,-329.88 230.75,-329.88 230.75,-310.62 375,-310.62 375,-329.88"/>
<text text-anchor="middle" x="302.88" y="-316.38" font-family="Helvetica,sans-Serif" font-size="10.00">fabomatic::tests::machine_init</text>
</a>
</g>
</g>
<!-- Node6&#45;&gt;Node7 -->
<g id="edge6_Node000006_Node000007" class="edge">
<title>Node6&#45;&gt;Node7</title>
<g id="a_edge6_Node000006_Node000007"><a xlink:title=" ">
<path fill="none" stroke="#63b8ff" d="M413.52,-285.27C387.18,-293.67 357.29,-303.21 335.37,-310.2"/>
<polygon fill="#63b8ff" stroke="#63b8ff" points="414.27,-288.7 422.73,-282.33 412.14,-282.03 414.27,-288.7"/>
</a>
</g>
</g>
<!-- Node8 -->
<g id="Node000008" class="node">
<title>Node8</title>
<g id="a_Node000008"><a xlink:href="namespacefabomatic_1_1tests.xhtml#a558e2287db01a4622581246a19dac397" target="_top" xlink:title=" ">
<polygon fill="white" stroke="#666666" points="188.38,-231.5 82.38,-231.5 82.38,-201 188.38,-201 188.38,-231.5"/>
<text text-anchor="start" x="90.38" y="-218" font-family="Helvetica,sans-Serif" font-size="10.00">fabomatic::tests::test</text>
<text text-anchor="middle" x="135.38" y="-206.75" font-family="Helvetica,sans-Serif" font-size="10.00">_machine_allowed</text>
</a>
</g>
</g>
<!-- Node6&#45;&gt;Node8 -->
<g id="edge17_Node000006_Node000008" class="edge">
<title>Node6&#45;&gt;Node8</title>
<g id="a_edge17_Node000006_Node000008"><a xlink:title=" ">
<path fill="none" stroke="#63b8ff" d="M399.4,-255.3C335.67,-245.84 245.16,-232.4 188.65,-224.01"/>
<polygon fill="#63b8ff" stroke="#63b8ff" points="398.67,-258.73 409.08,-256.74 399.7,-251.81 398.67,-258.73"/>
</a>
</g>
</g>
<!-- Node10 -->
<g id="Node000010" class="node">
<title>Node10</title>
<g id="a_Node000010"><a xlink:href="namespacefabomatic_1_1tests.xhtml#a9a34631c2dc01cbdbbce146895c94e12" target="_top" xlink:title=" ">
<polygon fill="white" stroke="#666666" points="194.75,-329.5 76,-329.5 76,-299 194.75,-299 194.75,-329.5"/>
<text text-anchor="start" x="84" y="-316" font-family="Helvetica,sans-Serif" font-size="10.00">fabomatic::tests::test</text>
<text text-anchor="middle" x="135.38" y="-304.75" font-family="Helvetica,sans-Serif" font-size="10.00">_machine_maintenance</text>
</a>
</g>
</g>
<!-- Node6&#45;&gt;Node10 -->
<g id="edge18_Node000006_Node000010" class="edge">
<title>Node6&#45;&gt;Node10</title>
<g id="a_edge18_Node000006_Node000010"><a xlink:title=" ">
<path fill="none" stroke="#63b8ff" d="M399.43,-276.75C338.11,-285.49 251.98,-297.77 195.21,-305.86"/>
<polygon fill="#63b8ff" stroke="#63b8ff" points="399.67,-280.26 409.08,-275.38 398.68,-273.33 399.67,-280.26"/>
</a>
</g>
</g>
<!-- Node11 -->
<g id="Node000011" class="node">
<title>Node11</title>
<g id="a_Node000011"><a xlink:href="namespacefabomatic_1_1tests.xhtml#a6f3dff17fd964aba76c35c514957a0a5" target="_top" xlink:title=" ">
<polygon fill="white" stroke="#666666" points="189.88,-280.5 80.88,-280.5 80.88,-250 189.88,-250 189.88,-280.5"/>
<text text-anchor="start" x="88.88" y="-267" font-family="Helvetica,sans-Serif" font-size="10.00">fabomatic::tests::test</text>
<text text-anchor="middle" x="135.38" y="-255.75" font-family="Helvetica,sans-Serif" font-size="10.00">_one_user_at_a_time</text>
</a>
</g>
</g>
<!-- Node6&#45;&gt;Node11 -->
<g id="edge21_Node000006_Node000011" class="edge">
<title>Node6&#45;&gt;Node11</title>
<g id="a_edge21_Node000006_Node000011"><a xlink:title=" ">
<path fill="none" stroke="#63b8ff" d="M399.11,-266.03C336,-265.84 246.78,-265.58 190.26,-265.41"/>
<polygon fill="#63b8ff" stroke="#63b8ff" points="399.05,-269.53 409.06,-266.06 399.07,-262.53 399.05,-269.53"/>
</a>
</g>
</g>
<!-- Node12 -->
<g id="Node000012" class="node">
<title>Node12</title>
<g id="a_Node000012"><a xlink:href="namespacefabomatic_1_1tests.xhtml#afa92fef9250d918ee02c79dbf2de2546" target="_top" xlink:title=" ">
<polygon fill="white" stroke="#666666" points="188.38,-378.5 82.38,-378.5 82.38,-348 188.38,-348 188.38,-378.5"/>
<text text-anchor="start" x="90.38" y="-365" font-family="Helvetica,sans-Serif" font-size="10.00">fabomatic::tests::test</text>
<text text-anchor="middle" x="135.38" y="-353.75" font-family="Helvetica,sans-Serif" font-size="10.00">_user_autologoff</text>
</a>
</g>
</g>
<!-- Node6&#45;&gt;Node12 -->
<g id="edge22_Node000006_Node000012" class="edge">
<title>Node6&#45;&gt;Node12</title>
<g id="a_edge22_Node000006_Node000012"><a xlink:title=" ">
<path fill="none" stroke="#63b8ff" d="M416.41,-287.45C414.54,-288.65 412.73,-289.92 411,-291.25 389.85,-307.49 398.22,-326.14 375,-339.25 317.53,-371.68 239.75,-373.16 188.84,-369.57"/>
<polygon fill="#63b8ff" stroke="#63b8ff" points="417.88,-290.63 424.83,-282.63 414.41,-284.56 417.88,-290.63"/>
</a>
</g>
</g>
<!-- Node6&#45;&gt;Node13 -->
<g id="edge23_Node000006_Node000013" class="edge">
<title>Node6&#45;&gt;Node13</title>
<g id="a_edge23_Node000006_Node000013"><a xlink:title=" ">
<path fill="none" stroke="#63b8ff" d="M414.34,-288.33C413.18,-289.27 412.07,-290.24 411,-291.25 383.57,-317.22 403.57,-343.53 375,-368.25 323.38,-412.91 244.77,-429.87 192.03,-436.31"/>
<polygon fill="#63b8ff" stroke="#63b8ff" points="416.28,-291.24 422.58,-282.73 412.34,-285.46 416.28,-291.24"/>
</a>
</g>
</g>
<!-- Node14 -->
<g id="Node000014" class="node">
<title>Node14</title>
<g id="a_Node000014"><a xlink:href="namespacefabomatic_1_1tests.xhtml#af8fa7ace86309b5f699540d8898660c7" target="_top" xlink:title=" ">
<polygon fill="white" stroke="#666666" points="355.88,-178.5 249.88,-178.5 249.88,-148 355.88,-148 355.88,-178.5"/>
<text text-anchor="start" x="257.88" y="-165" font-family="Helvetica,sans-Serif" font-size="10.00">fabomatic::tests::test</text>
<text text-anchor="middle" x="302.88" y="-153.75" font-family="Helvetica,sans-Serif" font-size="10.00">_messages_buffered</text>
</a>
</g>
</g>
<!-- Node6&#45;&gt;Node14 -->
<g id="edge19_Node000006_Node000014" class="edge">
<title>Node6&#45;&gt;Node14</title>
<g id="a_edge19_Node000006_Node000014"><a xlink:title=" ">
<path fill="none" stroke="#63b8ff" d="M446.62,-243.26C427.58,-227.52 400.83,-206.92 375,-192.25 366.42,-187.38 356.86,-182.9 347.6,-178.99"/>
<polygon fill="#63b8ff" stroke="#63b8ff" points="444.24,-245.83 454.15,-249.58 448.74,-240.47 444.24,-245.83"/>
</a>
</g>
</g>
<!-- Node7&#45;&gt;Node8 -->
<g id="edge7_Node000007_Node000008" class="edge">
<title>Node7&#45;&gt;Node8</title>
<g id="a_edge7_Node000007_Node000008"><a xlink:title=" ">
<path fill="none" stroke="#63b8ff" d="M281.68,-303.14C260.84,-286.03 226.92,-259.67 194.75,-241.25 189.01,-237.96 182.75,-234.84 176.54,-231.99"/>
<polygon fill="#63b8ff" stroke="#63b8ff" points="279.19,-305.62 289.12,-309.33 283.67,-300.24 279.19,-305.62"/>
</a>
</g>
</g>
<!-- Node7&#45;&gt;Node10 -->
<g id="edge9_Node000007_Node000010" class="edge">
<title>Node7&#45;&gt;Node10</title>
<g id="a_edge9_Node000007_Node000010"><a xlink:title=" ">
<path fill="none" stroke="#63b8ff" d="M219.49,-317.26C211.23,-316.96 202.96,-316.66 195.02,-316.38"/>
<polygon fill="#63b8ff" stroke="#63b8ff" points="219.09,-320.75 229.22,-317.62 219.35,-313.76 219.09,-320.75"/>
</a>
</g>
</g>
<!-- Node7&#45;&gt;Node11 -->
<g id="edge11_Node000007_Node000011" class="edge">
<title>Node7&#45;&gt;Node11</title>
<g id="a_edge11_Node000007_Node000011"><a xlink:title=" ">
<path fill="none" stroke="#63b8ff" d="M260.59,-306.53C237.27,-298.78 208.02,-289.06 183.76,-281"/>
<polygon fill="#63b8ff" stroke="#63b8ff" points="259.49,-309.85 270.08,-309.68 261.7,-303.21 259.49,-309.85"/>
</a>
</g>
</g>
<!-- Node7&#45;&gt;Node12 -->
<g id="edge13_Node000007_Node000012" class="edge">
<title>Node7&#45;&gt;Node12</title>
<g id="a_edge13_Node000007_Node000012"><a xlink:title=" ">
<path fill="none" stroke="#63b8ff" d="M252.01,-333.21C232.01,-338.4 208.96,-344.39 188.72,-349.65"/>
<polygon fill="#63b8ff" stroke="#63b8ff" points="252.81,-336.61 261.61,-330.71 251.05,-329.84 252.81,-336.61"/>
</a>
</g>
</g>
<!-- Node7&#45;&gt;Node13 -->
<g id="edge15_Node000007_Node000013" class="edge">
<title>Node7&#45;&gt;Node13</title>
<g id="a_edge15_Node000007_Node000013"><a xlink:title=" ">
<path fill="none" stroke="#63b8ff" d="M279,-336.83C247.01,-360.03 189.3,-401.88 157.99,-424.58"/>
<polygon fill="#63b8ff" stroke="#63b8ff" points="280.78,-339.87 286.82,-331.16 276.67,-334.2 280.78,-339.87"/>
</a>
</g>
</g>
<!-- Node9 -->
<g id="Node000009" class="node">
<title>Node9</title>
<g id="a_Node000009"><a xlink:href="test__logic_8cpp.xhtml#a4fc01d736fe50cf5b977f755b675f11d" target="_top" xlink:title=" ">
<polygon fill="white" stroke="#666666" points="40,-323.88 0,-323.88 0,-304.62 40,-304.62 40,-323.88"/>
<text text-anchor="middle" x="20" y="-310.38" font-family="Helvetica,sans-Serif" font-size="10.00">setup</text>
</a>
</g>
</g>
<!-- Node8&#45;&gt;Node9 -->
<g id="edge8_Node000008_Node000009" class="edge">
<title>Node8&#45;&gt;Node9</title>
<g id="a_edge8_Node000008_Node000009"><a xlink:title=" ">
<path fill="none" stroke="#63b8ff" d="M80.74,-237.81C79.11,-238.91 77.52,-240.06 76,-241.25 53.15,-259.17 34.86,-288.77 26.29,-304.2"/>
<polygon fill="#63b8ff" stroke="#63b8ff" points="82.43,-240.88 89.24,-232.77 78.85,-234.86 82.43,-240.88"/>
</a>
</g>
</g>
<!-- Node10&#45;&gt;Node9 -->
<g id="edge10_Node000010_Node000009" class="edge">
<title>Node10&#45;&gt;Node9</title>
<g id="a_edge10_Node000010_Node000009"><a xlink:title=" ">
<path fill="none" stroke="#63b8ff" d="M64.44,-314.25C55.69,-314.25 47.39,-314.25 40.43,-314.25"/>
<polygon fill="#63b8ff" stroke="#63b8ff" points="64.18,-317.75 74.18,-314.25 64.18,-310.75 64.18,-317.75"/>
</a>
</g>
</g>
<!-- Node11&#45;&gt;Node9 -->
<g id="edge12_Node000011_Node000009" class="edge">
<title>Node11&#45;&gt;Node9</title>
<g id="a_edge12_Node000011_Node000009"><a xlink:title=" ">
<path fill="none" stroke="#63b8ff" d="M87.08,-285.47C83.33,-287.09 79.6,-288.69 76,-290.25 64.14,-295.38 50.87,-301.17 40.33,-305.78"/>
<polygon fill="#63b8ff" stroke="#63b8ff" points="88.42,-288.71 96.22,-281.55 85.65,-282.28 88.42,-288.71"/>
</a>
</g>
</g>
<!-- Node12&#45;&gt;Node9 -->
<g id="edge14_Node000012_Node000009" class="edge">
<title>Node12&#45;&gt;Node9</title>
<g id="a_edge14_Node000012_Node000009"><a xlink:title=" ">
<path fill="none" stroke="#63b8ff" d="M87.08,-343.03C83.33,-341.41 79.6,-339.81 76,-338.25 64.14,-333.12 50.87,-327.33 40.33,-322.72"/>
<polygon fill="#63b8ff" stroke="#63b8ff" points="85.65,-346.22 96.22,-346.95 88.42,-339.79 85.65,-346.22"/>
</a>
</g>
</g>
<!-- Node13&#45;&gt;Node9 -->
<g id="edge16_Node000013_Node000009" class="edge">
<title>Node13&#45;&gt;Node9</title>
<g id="a_edge16_Node000013_Node000009"><a xlink:title=" ">
<path fill="none" stroke="#63b8ff" d="M106.89,-417.21C96.78,-408.25 85.49,-397.65 76,-387.25 56.75,-366.15 37.38,-338.63 27.57,-324.15"/>
<polygon fill="#63b8ff" stroke="#63b8ff" points="104.41,-419.7 114.25,-423.62 109.01,-414.42 104.41,-419.7"/>
</a>
</g>
</g>
<!-- Node14&#45;&gt;Node9 -->
<g id="edge20_Node000014_Node000009" class="edge">
<title>Node14&#45;&gt;Node9</title>
<g id="a_edge20_Node000014_Node000009"><a xlink:title=" ">
<path fill="none" stroke="#63b8ff" d="M238.11,-155.67C189.16,-153.31 122.33,-157.94 76,-192.25 38.1,-220.32 25.72,-280.59 22.22,-304.34"/>
<polygon fill="#63b8ff" stroke="#63b8ff" points="237.81,-159.16 248,-156.27 238.23,-152.17 237.81,-159.16"/>
</a>
</g>
</g>
<!-- Node18 -->
<g id="Node000018" class="node">
<title>Node18</title>
<g id="a_Node000018"><a xlink:href="main_8cpp.xhtml#a4fc01d736fe50cf5b977f755b675f11d" target="_top" xlink:title=" ">
<polygon fill="white" stroke="#666666" points="663.12,-237.88 623.12,-237.88 623.12,-218.62 663.12,-218.62 663.12,-237.88"/>
<text text-anchor="middle" x="643.12" y="-224.38" font-family="Helvetica,sans-Serif" font-size="10.00">setup</text>
</a>
</g>
</g>
<!-- Node17&#45;&gt;Node18 -->
<g id="edge28_Node000017_Node000018" class="edge">
<title>Node17&#45;&gt;Node18</title>
<g id="a_edge28_Node000017_Node000018"><a xlink:title=" ">
<path fill="none" stroke="#63b8ff" d="M938.47,-71.2C932.78,-72.77 927.13,-74.45 921.75,-76.25 842.19,-102.83 817.59,-103.96 749,-152.25 729.98,-165.64 731.4,-176.02 713,-190.25 697.55,-202.2 677.87,-212.65 663.51,-219.56"/>
<polygon fill="#63b8ff" stroke="#63b8ff" points="939.15,-74.64 947.94,-68.73 937.38,-67.87 939.15,-74.64"/>
</a>
</g>
</g>
<!-- Node21 -->
<g id="Node000021" class="node">
<title>Node21</title>
<g id="a_Node000021"><a xlink:href="classfabomatic_1_1_board_logic.xhtml#a3c38d7a3ed7952c6d6297efdf50ea4dd" target="_top" xlink:title="Sets the board in the state given.">
<polygon fill="white" stroke="#666666" points="1226,-300.5 1113.25,-300.5 1113.25,-270 1226,-270 1226,-300.5"/>
<text text-anchor="start" x="1121.25" y="-287" font-family="Helvetica,sans-Serif" font-size="10.00">fabomatic::BoardLogic</text>
<text text-anchor="middle" x="1169.62" y="-275.75" font-family="Helvetica,sans-Serif" font-size="10.00">::changeStatus</text>
</a>
</g>
</g>
<!-- Node20&#45;&gt;Node21 -->
<g id="edge31_Node000020_Node000021" class="edge">
<title>Node20&#45;&gt;Node21</title>
<g id="a_edge31_Node000020_Node000021"><a xlink:title=" ">
<path fill="none" stroke="#63b8ff" d="M1250.51,-285.25C1242.37,-285.25 1234.13,-285.25 1226.18,-285.25"/>
<polygon fill="#63b8ff" stroke="#63b8ff" points="1250.38,-288.75 1260.38,-285.25 1250.38,-281.75 1250.38,-288.75"/>
</a>
</g>
</g>
<!-- Node32 -->
<g id="Node000032" class="node">
<title>Node32</title>
<g id="a_Node000032"><a xlink:href="namespacefabomatic_1_1tests.xhtml#aec03a7ee459718d314b930fdd75d3cee" target="_top" xlink:title=" ">
<polygon fill="white" stroke="#666666" points="1052.5,-555.5 946.5,-555.5 946.5,-525 1052.5,-525 1052.5,-555.5"/>
<text text-anchor="start" x="954.5" y="-542" font-family="Helvetica,sans-Serif" font-size="10.00">fabomatic::tests::test</text>
<text text-anchor="middle" x="999.5" y="-530.75" font-family="Helvetica,sans-Serif" font-size="10.00">_simple_methods</text>
</a>
</g>
</g>
<!-- Node20&#45;&gt;Node32 -->
<g id="edge58_Node000020_Node000032" class="edge">
<title>Node20&#45;&gt;Node32</title>
<g id="a_edge58_Node000020_Node000032"><a xlink:title=" ">
<path fill="none" stroke="#63b8ff" d="M1298.38,-309.65C1260.96,-356.16 1172.94,-457.97 1077.25,-515.25 1069.67,-519.78 1061.18,-523.6 1052.68,-526.78"/>
<polygon fill="#63b8ff" stroke="#63b8ff" points="1300.95,-312.04 1304.44,-302.04 1295.48,-307.68 1300.95,-312.04"/>
</a>
</g>
</g>
<!-- Node21&#45;&gt;Node4 -->
<g id="edge47_Node000021_Node000004" class="edge">
<title>Node21&#45;&gt;Node4</title>
<g id="a_edge47_Node000021_Node000004"><a xlink:title=" ">
<path fill="none" stroke="#63b8ff" d="M1137.5,-307.18C1120.49,-318.05 1098.58,-330.31 1077.25,-337.25 1009.62,-359.25 927.4,-365.16 874.03,-366.45"/>
<polygon fill="#63b8ff" stroke="#63b8ff" points="1139.22,-310.24 1145.65,-301.82 1135.37,-304.39 1139.22,-310.24"/>
</a>
</g>
</g>
<!-- Node21&#45;&gt;Node5 -->
<g id="edge35_Node000021_Node000005" class="edge">
<title>Node21&#45;&gt;Node5</title>
<g id="a_edge35_Node000021_Node000005"><a xlink:title=" ">
<path fill="none" stroke="#63b8ff" d="M1101.92,-296.02C1093.62,-297.19 1085.25,-298.31 1077.25,-299.25 942.18,-315.19 782.59,-326.53 699.97,-331.85"/>
<polygon fill="#63b8ff" stroke="#63b8ff" points="1102.25,-299.5 1111.64,-294.6 1101.24,-292.58 1102.25,-299.5"/>
</a>
</g>
</g>
<!-- Node21&#45;&gt;Node17 -->
<g id="edge52_Node000021_Node000017" class="edge">
<title>Node21&#45;&gt;Node17</title>
<g id="a_edge52_Node000021_Node000017"><a xlink:title=" ">
<path fill="none" stroke="#63b8ff" d="M1160.43,-259.02C1144.16,-208.58 1106.82,-100.88 1077.25,-76.25 1071.78,-71.7 1065.37,-68.25 1058.62,-65.65"/>
<polygon fill="#63b8ff" stroke="#63b8ff" points="1157,-259.79 1163.37,-268.25 1163.67,-257.66 1157,-259.79"/>
</a>
</g>
</g>
<!-- Node21&#45;&gt;Node18 -->
<g id="edge49_Node000021_Node000018" class="edge">
<title>Node21&#45;&gt;Node18</title>
<g id="a_edge49_Node000021_Node000018"><a xlink:title=" ">
<path fill="none" stroke="#63b8ff" d="M1101.75,-277.98C981.38,-264.9 734.2,-238.04 663.44,-230.35"/>
<polygon fill="#63b8ff" stroke="#63b8ff" points="1101.17,-281.44 1111.49,-279.04 1101.92,-274.48 1101.17,-281.44"/>
</a>
</g>
</g>
<!-- Node21&#45;&gt;Node19 -->
<g id="edge57_Node000021_Node000019" class="edge">
<title>Node21&#45;&gt;Node19</title>
<g id="a_edge57_Node000021_Node000019"><a xlink:title=" ">
<path fill="none" stroke="#63b8ff" d="M1159.55,-258.94C1138.14,-197.11 1085.63,-47.2 1077.25,-39.25 1070.36,-32.72 1061.72,-27.96 1052.74,-24.5"/>
<polygon fill="#63b8ff" stroke="#63b8ff" points="1156.21,-259.99 1162.79,-268.3 1162.83,-257.7 1156.21,-259.99"/>
</a>
</g>
</g>
<!-- Node22 -->
<g id="Node000022" class="node">
<title>Node22</title>
<g id="a_Node000022"><a xlink:href="classfabomatic_1_1_board_logic.xhtml#a51390e6bf10c4de427abd7f175a2e6a8" target="_top" xlink:title="Checks if the card UID is valid, and tries to check the user in to the machine.">
<polygon fill="white" stroke="#666666" points="1055.88,-457.5 943.12,-457.5 943.12,-427 1055.88,-427 1055.88,-457.5"/>
<text text-anchor="start" x="951.12" y="-444" font-family="Helvetica,sans-Serif" font-size="10.00">fabomatic::BoardLogic</text>
<text text-anchor="middle" x="999.5" y="-432.75" font-family="Helvetica,sans-Serif" font-size="10.00">::authorize</text>
</a>
</g>
</g>
<!-- Node21&#45;&gt;Node22 -->
<g id="edge32_Node000021_Node000022" class="edge">
<title>Node21&#45;&gt;Node22</title>
<g id="a_edge32_Node000021_Node000022"><a xlink:title=" ">
<path fill="none" stroke="#63b8ff" d="M1157.39,-311.03C1143.03,-341.05 1115.39,-390.09 1077.25,-418.25 1070.96,-422.89 1063.75,-426.65 1056.32,-429.7"/>
<polygon fill="#63b8ff" stroke="#63b8ff" points="1160.42,-312.83 1161.44,-302.28 1154.06,-309.89 1160.42,-312.83"/>
</a>
</g>
</g>
<!-- Node23 -->
<g id="Node000023" class="node">
<title>Node23</title>
<g id="a_Node000023"><a xlink:href="namespacefabomatic.xhtml#aaa30fd4002cc95e50c035f2d3dcdb44d" target="_top" xlink:title=" ">
<polygon fill="white" stroke="#666666" points="1074.62,-104.88 924.38,-104.88 924.38,-85.62 1074.62,-85.62 1074.62,-104.88"/>
<text text-anchor="middle" x="999.5" y="-91.38" font-family="Helvetica,sans-Serif" font-size="10.00">fabomatic::configModeCallback</text>
</a>
</g>
</g>
<!-- Node21&#45;&gt;Node23 -->
<g id="edge36_Node000021_Node000023" class="edge">
<title>Node21&#45;&gt;Node23</title>
<g id="a_edge36_Node000021_Node000023"><a xlink:title=" ">
<path fill="none" stroke="#63b8ff" d="M1153.61,-260.19C1136.84,-233.23 1107.96,-189.85 1077.25,-157.25 1057.75,-136.55 1031.27,-116.63 1015.06,-105.18"/>
<polygon fill="#63b8ff" stroke="#63b8ff" points="1150.42,-261.68 1158.64,-268.37 1156.39,-258.02 1150.42,-261.68"/>
</a>
</g>
</g>
<!-- Node24 -->
<g id="Node000024" class="node">
<title>Node24</title>
<g id="a_Node000024"><a xlink:href="namespacefabomatic.xhtml#a8374c0d1cef777c26dc13b4abc9c52b6" target="_top" xlink:title="Open the ArduinoOTA configuration portal.">
<polygon fill="white" stroke="#666666" points="885.75,-180.88 749,-180.88 749,-161.62 885.75,-161.62 885.75,-180.88"/>
<text text-anchor="middle" x="817.38" y="-167.38" font-family="Helvetica,sans-Serif" font-size="10.00">fabomatic::openConfigPortal</text>
</a>
</g>
</g>
<!-- Node21&#45;&gt;Node24 -->
<g id="edge48_Node000021_Node000024" class="edge">
<title>Node21&#45;&gt;Node24</title>
<g id="a_edge48_Node000021_Node000024"><a xlink:title=" ">
<path fill="none" stroke="#63b8ff" d="M1152.73,-260.38C1136.7,-237.71 1109.73,-205.5 1077.25,-190.25 1017.08,-161.99 940.31,-159.99 886.04,-163.37"/>
<polygon fill="#63b8ff" stroke="#63b8ff" points="1149.73,-262.19 1158.25,-268.48 1155.51,-258.25 1149.73,-262.19"/>
</a>
</g>
</g>
<!-- Node26 -->
<g id="Node000026" class="node">
<title>Node26</title>
<g id="a_Node000026"><a xlink:href="classfabomatic_1_1_board_logic.xhtml#a98a15cc323f97adc394c29e897afc12d" target="_top" xlink:title="Removes the current machine user and changes the status to LoggedOut.">
<polygon fill="white" stroke="#666666" points="1055.88,-506.5 943.12,-506.5 943.12,-476 1055.88,-476 1055.88,-506.5"/>
<text text-anchor="start" x="951.12" y="-493" font-family="Helvetica,sans-Serif" font-size="10.00">fabomatic::BoardLogic</text>
<text text-anchor="middle" x="999.5" y="-481.75" font-family="Helvetica,sans-Serif" font-size="10.00">::logout</text>
</a>
</g>
</g>
<!-- Node21&#45;&gt;Node26 -->
<g id="edge40_Node000021_Node000026" class="edge">
<title>Node21&#45;&gt;Node26</title>
<g id="a_edge40_Node000021_Node000026"><a xlink:title=" ">
<path fill="none" stroke="#63b8ff" d="M1158.32,-311.47C1140.29,-356.22 1102.5,-444.58 1077.25,-466.25 1071.08,-471.54 1063.77,-475.72 1056.15,-479.02"/>
<polygon fill="#63b8ff" stroke="#63b8ff" points="1161.55,-312.84 1162,-302.26 1155.05,-310.25 1161.55,-312.84"/>
</a>
</g>
</g>
<!-- Node29 -->
<g id="Node000029" class="node">
<title>Node29</title>
<g id="a_Node000029"><a xlink:href="namespacefabomatic.xhtml#a7c95d667be308b87512da348c5f1a7f1" target="_top" xlink:title=" ">
<polygon fill="white" stroke="#666666" points="871.12,-294.88 763.62,-294.88 763.62,-275.62 871.12,-275.62 871.12,-294.88"/>
<text text-anchor="middle" x="817.38" y="-281.38" font-family="Helvetica,sans-Serif" font-size="10.00">fabomatic::setupOTA</text>
</a>
</g>
</g>
<!-- Node21&#45;&gt;Node29 -->
<g id="edge50_Node000021_Node000029" class="edge">
<title>Node21&#45;&gt;Node29</title>
<g id="a_edge50_Node000021_Node000029"><a xlink:title=" ">
<path fill="none" stroke="#63b8ff" d="M1101.88,-285.25C1034.97,-285.25 933.28,-285.25 871.61,-285.25"/>
<polygon fill="#63b8ff" stroke="#63b8ff" points="1101.61,-288.75 1111.61,-285.25 1101.61,-281.75 1101.61,-288.75"/>
</a>
</g>
</g>
<!-- Node30 -->
<g id="Node000030" class="node">
<title>Node30</title>
<g id="a_Node000030"><a xlink:href="namespacefabomatic.xhtml#a86a02975f3cc660ebccdde8f217aa035" target="_top" xlink:title="periodic check if the machine must be powered off">
<polygon fill="white" stroke="#666666" points="1077.25,-218.88 921.75,-218.88 921.75,-199.62 1077.25,-199.62 1077.25,-218.88"/>
<text text-anchor="middle" x="999.5" y="-205.38" font-family="Helvetica,sans-Serif" font-size="10.00">fabomatic::taskPoweroffWarning</text>
</a>
</g>
</g>
<!-- Node21&#45;&gt;Node30 -->
<g id="edge53_Node000021_Node000030" class="edge">
<title>Node21&#45;&gt;Node30</title>
<g id="a_edge53_Node000021_Node000030"><a xlink:title=" ">
<path fill="none" stroke="#63b8ff" d="M1135.11,-263.88C1118.21,-253.7 1097.12,-241.89 1077.25,-233.25 1064.83,-227.85 1050.8,-223.1 1038.17,-219.27"/>
<polygon fill="#63b8ff" stroke="#63b8ff" points="1132.9,-266.62 1143.25,-268.86 1136.55,-260.65 1132.9,-266.62"/>
</a>
</g>
</g>
<!-- Node31 -->
<g id="Node000031" class="node">
<title>Node31</title>
<g id="a_Node000031"><a xlink:href="namespacefabomatic.xhtml#a525d1f233a2f797801a9a659c5044cb7" target="_top" xlink:title="checks the RFID chip status and re&#45;init it if necessary.">
<polygon fill="white" stroke="#666666" points="1070.5,-408.88 928.5,-408.88 928.5,-389.62 1070.5,-389.62 1070.5,-408.88"/>
<text text-anchor="middle" x="999.5" y="-395.38" font-family="Helvetica,sans-Serif" font-size="10.00">fabomatic::taskRfidWatchdog</text>
</a>
</g>
</g>
<!-- Node21&#45;&gt;Node31 -->
<g id="edge54_Node000021_Node000031" class="edge">
<title>Node21&#45;&gt;Node31</title>
<g id="a_edge54_Node000021_Node000031"><a xlink:title=" ">
<path fill="none" stroke="#63b8ff" d="M1149.63,-309.56C1132.65,-329.79 1106.06,-357.96 1077.25,-375.25 1067.43,-381.14 1056.03,-385.72 1045.07,-389.22"/>
<polygon fill="#63b8ff" stroke="#63b8ff" points="1152.14,-312.02 1155.77,-302.07 1146.73,-307.59 1152.14,-312.02"/>
</a>
</g>
</g>
<!-- Node21&#45;&gt;Node32 -->
<g id="edge55_Node000021_Node000032" class="edge">
<title>Node21&#45;&gt;Node32</title>
<g id="a_edge55_Node000021_Node000032"><a xlink:title=" ">
<path fill="none" stroke="#63b8ff" d="M1157.59,-311.55C1146.26,-338.7 1128.22,-382.31 1113.25,-420.25 1096.68,-462.25 1109.92,-484.09 1077.25,-515.25 1070.35,-521.83 1061.71,-526.67 1052.72,-530.25"/>
<polygon fill="#63b8ff" stroke="#63b8ff" points="1160.79,-312.96 1161.42,-302.39 1154.34,-310.26 1160.79,-312.96"/>
</a>
</g>
</g>
<!-- Node22&#45;&gt;Node4 -->
<g id="edge33_Node000022_Node000004" class="edge">
<title>Node22&#45;&gt;Node4</title>
<g id="a_edge33_Node000022_Node000004"><a xlink:title=" ">
<path fill="none" stroke="#63b8ff" d="M932.47,-422.87C928.8,-421.4 925.21,-419.86 921.75,-418.25 904.54,-410.24 902.52,-404.14 885.75,-395.25 876.86,-390.54 867.04,-385.97 857.71,-381.91"/>
<polygon fill="#63b8ff" stroke="#63b8ff" points="930.9,-426.02 941.49,-426.27 933.37,-419.47 930.9,-426.02"/>
</a>
</g>
</g>
<!-- Node22&#45;&gt;Node13 -->
<g id="edge34_Node000022_Node000013" class="edge">
<title>Node22&#45;&gt;Node13</title>
<g id="a_edge34_Node000022_Node000013"><a xlink:title=" ">
<path fill="none" stroke="#63b8ff" d="M938.1,-461.08C868.1,-481.21 748.93,-510.25 644.12,-510.25 644.12,-510.25 644.12,-510.25 473.12,-510.25 367.13,-510.25 246.23,-476.6 182.05,-455.96"/>
<polygon fill="#63b8ff" stroke="#63b8ff" points="938.83,-464.52 947.45,-458.36 936.87,-457.8 938.83,-464.52"/>
</a>
</g>
</g>
<!-- Node23&#45;&gt;Node24 -->
<g id="edge37_Node000023_Node000024" class="edge">
<title>Node23&#45;&gt;Node24</title>
<g id="a_edge37_Node000023_Node000024"><a xlink:title=" ">
<path fill="none" stroke="#63b8ff" d="M951.26,-108.69C941.4,-111.87 931.15,-115.44 921.75,-119.25 890.84,-131.76 856.55,-149.91 836.26,-161.13"/>
<polygon fill="#63b8ff" stroke="#63b8ff" points="952.2,-112.06 960.71,-105.74 950.12,-105.38 952.2,-112.06"/>
</a>
</g>
</g>
<!-- Node24&#45;&gt;Node18 -->
<g id="edge38_Node000024_Node000018" class="edge">
<title>Node24&#45;&gt;Node18</title>
<g id="a_edge38_Node000024_Node000018"><a xlink:title=" ">
<path fill="none" stroke="#63b8ff" d="M775.5,-184.78C740.13,-196.48 690.54,-212.89 663.53,-221.83"/>
<polygon fill="#63b8ff" stroke="#63b8ff" points="776.15,-188.25 784.54,-181.78 773.95,-181.6 776.15,-188.25"/>
</a>
</g>
</g>
<!-- Node25 -->
<g id="Node000025" class="node">
<title>Node25</title>
<g id="a_Node000025"><a xlink:href="namespacefabomatic.xhtml#a2c7ad2690e92eb8ab98b6fadaa4df2bd" target="_top" xlink:title=" ">
<polygon fill="white" stroke="#666666" points="713,-180.88 573.25,-180.88 573.25,-161.62 713,-161.62 713,-180.88"/>
<text text-anchor="middle" x="643.12" y="-167.38" font-family="Helvetica,sans-Serif" font-size="10.00">fabomatic::taskFactoryReset</text>
</a>
</g>
</g>
<!-- Node24&#45;&gt;Node25 -->
<g id="edge39_Node000024_Node000025" class="edge">
<title>Node24&#45;&gt;Node25</title>
<g id="a_edge39_Node000024_Node000025"><a xlink:title=" ">
<path fill="none" stroke="#63b8ff" d="M737.54,-171.25C729.51,-171.25 721.41,-171.25 713.5,-171.25"/>
<polygon fill="#63b8ff" stroke="#63b8ff" points="737.28,-174.75 747.28,-171.25 737.28,-167.75 737.28,-174.75"/>
</a>
</g>
</g>
<!-- Node26&#45;&gt;Node4 -->
<g id="edge42_Node000026_Node000004" class="edge">
<title>Node26&#45;&gt;Node4</title>
<g id="a_edge42_Node000026_Node000004"><a xlink:title=" ">
<path fill="none" stroke="#63b8ff" d="M932.77,-473.96C928.84,-471.7 925.13,-469.14 921.75,-466.25 894.88,-443.24 911.54,-419.47 885.75,-395.25 880.09,-389.93 873.3,-385.5 866.24,-381.84"/>
<polygon fill="#63b8ff" stroke="#63b8ff" points="931,-476.99 941.51,-478.33 934.13,-470.73 931,-476.99"/>
</a>
</g>
</g>
<!-- Node26&#45;&gt;Node7 -->
<g id="edge41_Node000026_Node000007" class="edge">
<title>Node26&#45;&gt;Node7</title>
<g id="a_edge41_Node000026_Node000007"><a xlink:title=" ">
<path fill="none" stroke="#63b8ff" d="M938.54,-472.3C921.58,-467.33 903.03,-462.24 885.75,-458.25 677.19,-410.11 613.57,-446.41 411,-377.25 376.11,-365.34 338.86,-343.08 318.78,-330.18"/>
<polygon fill="#63b8ff" stroke="#63b8ff" points="937.4,-475.61 947.98,-475.11 939.4,-468.91 937.4,-475.61"/>
</a>
</g>
</g>
<!-- Node26&#45;&gt;Node12 -->
<g id="edge45_Node000026_Node000012" class="edge">
<title>Node26&#45;&gt;Node12</title>
<g id="a_edge45_Node000026_Node000012"><a xlink:title=" ">
<path fill="none" stroke="#63b8ff" d="M931.25,-483.84C847.31,-474.36 699.42,-456.93 573.25,-438.25 433.94,-417.62 270.56,-388.16 188.7,-373.04"/>
<polygon fill="#63b8ff" stroke="#63b8ff" points="930.83,-487.31 941.16,-484.95 931.61,-480.36 930.83,-487.31"/>
</a>
</g>
</g>
<!-- Node26&#45;&gt;Node13 -->
<g id="edge46_Node000026_Node000013" class="edge">
<title>Node26&#45;&gt;Node13</title>
<g id="a_edge46_Node000026_Node000013"><a xlink:title=" ">
<path fill="none" stroke="#63b8ff" d="M932.55,-507.96C928.65,-510.36 925,-513.11 921.75,-516.25 888.09,-548.79 923.01,-586.91 885.75,-615.25 800.01,-680.46 751.85,-634.25 644.12,-634.25 644.12,-634.25 644.12,-634.25 473.12,-634.25 330.42,-634.25 193.66,-501.83 150.43,-455.8"/>
<polygon fill="#63b8ff" stroke="#63b8ff" points="934.08,-511.11 941.32,-503.37 930.84,-504.9 934.08,-511.11"/>
</a>
</g>
</g>
<!-- Node27 -->
<g id="Node000027" class="node">
<title>Node27</title>
<g id="a_Node000027"><a xlink:href="namespacefabomatic.xhtml#af8ee1c3cd4edf1a1ba27899da63b611a" target="_top" xlink:title="periodic check if the user shall be logged off">
<polygon fill="white" stroke="#666666" points="885.75,-605.88 749,-605.88 749,-586.62 885.75,-586.62 885.75,-605.88"/>
<text text-anchor="middle" x="817.38" y="-592.38" font-family="Helvetica,sans-Serif" font-size="10.00">fabomatic::taskLogoffCheck</text>
</a>
</g>
</g>
<!-- Node26&#45;&gt;Node27 -->
<g id="edge43_Node000026_Node000027" class="edge">
<title>Node26&#45;&gt;Node27</title>
<g id="a_edge43_Node000026_Node000027"><a xlink:title=" ">
<path fill="none" stroke="#63b8ff" d="M932.44,-509.09C928.66,-511.22 925.06,-513.59 921.75,-516.25 897.2,-535.95 910.69,-558.04 885.75,-577.25 881.03,-580.88 875.65,-583.82 870.04,-586.2"/>
<polygon fill="#63b8ff" stroke="#63b8ff" points="933.97,-512.24 941.41,-504.69 930.89,-505.95 933.97,-512.24"/>
</a>
</g>
</g>
<!-- Node28 -->
<g id="Node000028" class="node">
<title>Node28</title>
<g id="a_Node000028"><a xlink:href="namespacefabomatic_1_1tests.xhtml#a7cd22311b16fc7c256a30ba4c2f6f387" target="_top" xlink:title="blink led">
<polygon fill="white" stroke="#666666" points="870.38,-568.5 764.38,-568.5 764.38,-538 870.38,-538 870.38,-568.5"/>
<text text-anchor="start" x="772.38" y="-555" font-family="Helvetica,sans-Serif" font-size="10.00">fabomatic::tests::test</text>
<text text-anchor="middle" x="817.38" y="-543.75" font-family="Helvetica,sans-Serif" font-size="10.00">_taskVarious</text>
</a>
</g>
</g>
<!-- Node26&#45;&gt;Node28 -->
<g id="edge44_Node000026_Node000028" class="edge">
<title>Node26&#45;&gt;Node28</title>
<g id="a_edge44_Node000026_Node000028"><a xlink:title=" ">
<path fill="none" stroke="#63b8ff" d="M939.15,-510.39C933.27,-512.35 927.39,-514.32 921.75,-516.25 901.82,-523.06 879.83,-530.89 861.28,-537.58"/>
<polygon fill="#63b8ff" stroke="#63b8ff" points="939.87,-513.84 948.27,-507.38 937.68,-507.19 939.87,-513.84"/>
</a>
</g>
</g>
<!-- Node29&#45;&gt;Node18 -->
<g id="edge51_Node000029_Node000018" class="edge">
<title>Node29&#45;&gt;Node18</title>
<g id="a_edge51_Node000029_Node000018"><a xlink:title=" ">
<path fill="none" stroke="#63b8ff" d="M775.5,-271.72C740.13,-260.02 690.54,-243.61 663.53,-234.67"/>
<polygon fill="#63b8ff" stroke="#63b8ff" points="773.95,-274.9 784.54,-274.72 776.15,-268.25 773.95,-274.9"/>
</a>
</g>
</g>
<!-- Node32&#45;&gt;Node9 -->
<g id="edge56_Node000032_Node000009" class="edge">
<title>Node32&#45;&gt;Node9</title>
<g id="a_edge56_Node000032_Node000009"><a xlink:title=" ">
<path fill="none" stroke="#63b8ff" d="M980.48,-564.74C960.44,-589.91 925.58,-627.94 885.75,-646.25 787.61,-691.36 752.13,-672.25 644.12,-672.25 644.12,-672.25 644.12,-672.25 301.88,-672.25 119.78,-672.25 37.89,-382.02 23.39,-324.2"/>
<polygon fill="#63b8ff" stroke="#63b8ff" points="983.13,-567.03 986.49,-556.98 977.6,-562.74 983.13,-567.03"/>
</a>
</g>
</g>
</g>
</svg>
