<?xml version="1.0" encoding="UTF-8" standalone="no"?>
<!DOCTYPE svg PUBLIC "-//W3C//DTD SVG 1.1//EN"
 "http://www.w3.org/Graphics/SVG/1.1/DTD/svg11.dtd">
<!-- Generated by graphviz version 9.0.0 (20230911.1827)
 -->
<!-- Title: fabomatic::FabBackend::startUse Pages: 1 -->
<!--zoomable 421 -->

<svg id="main" version="1.1" xmlns="http://www.w3.org/2000/svg" xmlns:xlink="http://www.w3.org/1999/xlink" xml:space="preserve" onload="init(evt)">
<style type="text/css"><![CDATA[
.node, .edge {opacity: 0.7;}
.node.selected, .edge.selected {opacity: 1;}
.edge:hover path { stroke: red; }
.edge:hover polygon { stroke: red; fill: red; }
]]></style>

<defs>
  <circle id="rim" cx="0" cy="0" r="7"/>
  <circle id="rim2" cx="0" cy="0" r="3.5"/>
  <g id="zoomPlus">
    <use xlink:href="#rim" fill="#404040"><set attributeName="fill" to="#808080" begin="zoomplus.mouseover" end="zoomplus.mouseout"/></use>
    <path d="M-4,0h8M0,-4v8" fill="none" stroke="white" stroke-width="1.5" pointer-events="none"/>
  </g>
  <g id="zoomMin">
    <use xlink:href="#rim" fill="#404040"><set attributeName="fill" to="#808080" begin="zoomminus.mouseover" end="zoomminus.mouseout"/></use>
    <path d="M-4,0h8" fill="none" stroke="white" stroke-width="1.5" pointer-events="none"/>
  </g>
  <g id="arrowUp" transform="translate(30 24)">
    <use xlink:href="#rim"/>
    <path pointer-events="none" fill="none" stroke="white" stroke-width="1.5" d="M0,-3.0v7 M-2.5,-0.5L0,-3.0L2.5,-0.5"/>
  </g>
  <g id="arrowRight" transform="rotate(90) translate(36 -43)">
    <use xlink:href="#rim"/>
    <path pointer-events="none" fill="none" stroke="white" stroke-width="1.5" d="M0,-3.0v7 M-2.5,-0.5L0,-3.0L2.5,-0.5"/>
  </g>
  <g id="arrowDown" transform="rotate(180) translate(-30 -48)">
    <use xlink:href="#rim"/>
    <path pointer-events="none" fill="none" stroke="white" stroke-width="1.5" d="M0,-3.0v7 M-2.5,-0.5L0,-3.0L2.5,-0.5"/>
  </g>
  <g id="arrowLeft" transform="rotate(270) translate(-36 17)">
    <use xlink:href="#rim"/>
    <path pointer-events="none" fill="none" stroke="white" stroke-width="1.5" d="M0,-3.0v7 M-2.5,-0.5L0,-3.0L2.5,-0.5"/>
  </g>
  <g id="resetDef">
    <use xlink:href="#rim2" fill="#404040"><set attributeName="fill" to="#808080" begin="reset.mouseover" end="reset.mouseout"/></use>
  </g>
</defs>
<script type="application/ecmascript">
var viewWidth = 1171;
var viewHeight = 421;
var sectionId = 'dynsection-30';
</script>
<script type="application/ecmascript" xlink:href="svg.min.js"/>
<svg id="graph" class="graph">
<g id="viewport">
<title>fabomatic::FabBackend::startUse</title>
<!-- Node1 -->
<g id="Node000001" class="node">
<title>Node1</title>
<g id="a_Node000001"><a xlink:title="Registers the start of machine usage.">
<polygon fill="#999999" stroke="#666666" points="1163,-79.5 1045,-79.5 1045,-49 1163,-49 1163,-79.5"/>
<text text-anchor="start" x="1053" y="-66" font-family="Helvetica,sans-Serif" font-size="10.00">fabomatic::FabBackend</text>
<text text-anchor="middle" x="1104" y="-54.75" font-family="Helvetica,sans-Serif" font-size="10.00">::startUse</text>
</a>
</g>
</g>
<!-- Node2 -->
<g id="Node000002" class="node">
<title>Node2</title>
<g id="a_Node000002"><a xlink:href="classfabomatic_1_1_board_logic.xhtml#a51390e6bf10c4de427abd7f175a2e6a8" target="_top" xlink:title="Checks if the card UID is valid, and tries to check the user in to the machine.">
<polygon fill="white" stroke="#666666" points="996.25,-128.5 883.5,-128.5 883.5,-98 996.25,-98 996.25,-128.5"/>
<text text-anchor="start" x="891.5" y="-115" font-family="Helvetica,sans-Serif" font-size="10.00">fabomatic::BoardLogic</text>
<text text-anchor="middle" x="939.88" y="-103.75" font-family="Helvetica,sans-Serif" font-size="10.00">::authorize</text>
</a>
</g>
</g>
<!-- Node1&#45;&gt;Node2 -->
<g id="edge1_Node000001_Node000002" class="edge">
<title>Node1&#45;&gt;Node2</title>
<g id="a_edge1_Node000001_Node000002"><a xlink:title=" ">
<path fill="none" stroke="#63b8ff" d="M1040.56,-83.12C1024.83,-87.87 1008.12,-92.93 992.96,-97.51"/>
<polygon fill="#63b8ff" stroke="#63b8ff" points="1041.25,-86.57 1049.81,-80.33 1039.22,-79.87 1041.25,-86.57"/>
</a>
</g>
</g>
<!-- Node16 -->
<g id="Node000016" class="node">
<title>Node16</title>
<g id="a_Node000016"><a xlink:href="namespacefabomatic_1_1tests.xhtml#a675dfc88957b4e6871f32187a0da29b2" target="_top" xlink:title=" ">
<polygon fill="white" stroke="#666666" points="1009,-30.5 870.75,-30.5 870.75,0 1009,0 1009,-30.5"/>
<text text-anchor="start" x="878.75" y="-17" font-family="Helvetica,sans-Serif" font-size="10.00">fabomatic::tests::test</text>
<text text-anchor="middle" x="939.88" y="-5.75" font-family="Helvetica,sans-Serif" font-size="10.00">_create_buffered_messages</text>
</a>
</g>
</g>
<!-- Node1&#45;&gt;Node16 -->
<g id="edge27_Node000001_Node000016" class="edge">
<title>Node1&#45;&gt;Node16</title>
<g id="a_edge27_Node000001_Node000016"><a xlink:title=" ">
<path fill="none" stroke="#63b8ff" d="M1040.56,-45.38C1024.83,-40.63 1008.12,-35.57 992.96,-30.99"/>
<polygon fill="#63b8ff" stroke="#63b8ff" points="1039.22,-48.63 1049.81,-48.17 1041.25,-41.93 1039.22,-48.63"/>
</a>
</g>
</g>
<!-- Node18 -->
<g id="Node000018" class="node">
<title>Node18</title>
<g id="a_Node000018"><a xlink:href="namespacefabomatic_1_1tests.xhtml#a438b9060c27d36e89506199205b342cb" target="_top" xlink:title=" ">
<polygon fill="white" stroke="#666666" points="992.88,-79.5 886.88,-79.5 886.88,-49 992.88,-49 992.88,-79.5"/>
<text text-anchor="start" x="894.88" y="-66" font-family="Helvetica,sans-Serif" font-size="10.00">fabomatic::tests::test</text>
<text text-anchor="middle" x="939.88" y="-54.75" font-family="Helvetica,sans-Serif" font-size="10.00">_fabserver_calls</text>
</a>
</g>
</g>
<!-- Node1&#45;&gt;Node18 -->
<g id="edge29_Node000001_Node000018" class="edge">
<title>Node1&#45;&gt;Node18</title>
<g id="a_edge29_Node000001_Node000018"><a xlink:title=" ">
<path fill="none" stroke="#63b8ff" d="M1033.66,-64.25C1020.09,-64.25 1006.06,-64.25 993.15,-64.25"/>
<polygon fill="#63b8ff" stroke="#63b8ff" points="1033.41,-67.75 1043.41,-64.25 1033.41,-60.75 1033.41,-67.75"/>
</a>
</g>
</g>
<!-- Node3 -->
<g id="Node000003" class="node">
<title>Node3</title>
<g id="a_Node000003"><a xlink:href="classfabomatic_1_1_board_logic.xhtml#a983c8de8b9c8881fc0a4e60dddc7f0c6" target="_top" xlink:title="Called when a RFID tag has been detected.">
<polygon fill="white" stroke="#666666" points="834.75,-150.5 722,-150.5 722,-120 834.75,-120 834.75,-150.5"/>
<text text-anchor="start" x="730" y="-137" font-family="Helvetica,sans-Serif" font-size="10.00">fabomatic::BoardLogic</text>
<text text-anchor="middle" x="778.38" y="-125.75" font-family="Helvetica,sans-Serif" font-size="10.00">::onNewCard</text>
</a>
</g>
</g>
<!-- Node2&#45;&gt;Node3 -->
<g id="edge2_Node000002_Node000003" class="edge">
<title>Node2&#45;&gt;Node3</title>
<g id="a_edge2_Node000002_Node000003"><a xlink:title=" ">
<path fill="none" stroke="#63b8ff" d="M871.98,-122.48C859.71,-124.17 847.03,-125.92 835.13,-127.56"/>
<polygon fill="#63b8ff" stroke="#63b8ff" points="872.16,-125.98 881.59,-121.15 871.21,-119.05 872.16,-125.98"/>
</a>
</g>
</g>
<!-- Node12 -->
<g id="Node000012" class="node">
<title>Node12</title>
<g id="a_Node000012"><a xlink:href="namespacefabomatic_1_1tests.xhtml#aab0f4e1439b281ffef8be51db9a81f9d" target="_top" xlink:title=" ">
<polygon fill="white" stroke="#666666" points="191.75,-173.5 79,-173.5 79,-143 191.75,-143 191.75,-173.5"/>
<text text-anchor="start" x="87" y="-160" font-family="Helvetica,sans-Serif" font-size="10.00">fabomatic::tests::test</text>
<text text-anchor="middle" x="135.38" y="-148.75" font-family="Helvetica,sans-Serif" font-size="10.00">_whitelist_no_network</text>
</a>
</g>
</g>
<!-- Node2&#45;&gt;Node12 -->
<g id="edge26_Node000002_Node000012" class="edge">
<title>Node2&#45;&gt;Node12</title>
<g id="a_edge26_Node000002_Node000012"><a xlink:title=" ">
<path fill="none" stroke="#63b8ff" d="M871.77,-104.66C809.41,-97.43 713.9,-88.25 630.62,-88.25 630.62,-88.25 630.62,-88.25 473.12,-88.25 367.13,-88.25 246.23,-121.9 182.05,-142.54"/>
<polygon fill="#63b8ff" stroke="#63b8ff" points="871.17,-108.11 881.52,-105.81 871.99,-101.16 871.17,-108.11"/>
</a>
</g>
</g>
<!-- Node4 -->
<g id="Node000004" class="node">
<title>Node4</title>
<g id="a_Node000004"><a xlink:href="classfabomatic_1_1_board_logic.xhtml#a25bdc3a49d850aa49f92faf951b68efb" target="_top" xlink:title="Checks if a new card is present.">
<polygon fill="white" stroke="#666666" points="686,-195.5 573.25,-195.5 573.25,-165 686,-165 686,-195.5"/>
<text text-anchor="start" x="581.25" y="-182" font-family="Helvetica,sans-Serif" font-size="10.00">fabomatic::BoardLogic</text>
<text text-anchor="middle" x="629.62" y="-170.75" font-family="Helvetica,sans-Serif" font-size="10.00">::checkRfid</text>
</a>
</g>
</g>
<!-- Node3&#45;&gt;Node4 -->
<g id="edge3_Node000003_Node000004" class="edge">
<title>Node3&#45;&gt;Node4</title>
<g id="a_edge3_Node000003_Node000004"><a xlink:title=" ">
<path fill="none" stroke="#63b8ff" d="M715.07,-154.36C703.93,-157.77 692.45,-161.29 681.67,-164.6"/>
<polygon fill="#63b8ff" stroke="#63b8ff" points="716.07,-157.71 724.6,-151.43 714.02,-151.02 716.07,-157.71"/>
</a>
</g>
</g>
<!-- Node5 -->
<g id="Node000005" class="node">
<title>Node5</title>
<g id="a_Node000005"><a xlink:href="namespacefabomatic_1_1tests.xhtml#a2600320f41c9fa343c66058ecb12b5ee" target="_top" xlink:title="Simulates RFID card tap.">
<polygon fill="white" stroke="#666666" points="537.25,-255.5 411,-255.5 411,-225 537.25,-225 537.25,-255.5"/>
<text text-anchor="start" x="419" y="-242" font-family="Helvetica,sans-Serif" font-size="10.00">fabomatic::tests::simulate</text>
<text text-anchor="middle" x="474.12" y="-230.75" font-family="Helvetica,sans-Serif" font-size="10.00">_rfid_card</text>
</a>
</g>
</g>
<!-- Node4&#45;&gt;Node5 -->
<g id="edge4_Node000004_Node000005" class="edge">
<title>Node4&#45;&gt;Node5</title>
<g id="a_edge4_Node000004_Node000005"><a xlink:title=" ">
<path fill="none" stroke="#63b8ff" d="M578.04,-200.02C557.69,-207.98 534.56,-217.02 515.39,-224.51"/>
<polygon fill="#63b8ff" stroke="#63b8ff" points="579.25,-203.31 587.29,-196.41 576.7,-196.79 579.25,-203.31"/>
</a>
</g>
</g>
<!-- Node4&#45;&gt;Node12 -->
<g id="edge25_Node000004_Node000012" class="edge">
<title>Node4&#45;&gt;Node12</title>
<g id="a_edge25_Node000004_Node000012"><a xlink:title=" ">
<path fill="none" stroke="#63b8ff" d="M567.27,-161.84C557.32,-159.52 547.06,-157.52 537.25,-156.25 414.9,-140.45 269.8,-147.49 192.11,-153.31"/>
<polygon fill="#63b8ff" stroke="#63b8ff" points="566.32,-165.21 576.87,-164.21 568,-158.41 566.32,-165.21"/>
</a>
</g>
</g>
<!-- Node14 -->
<g id="Node000014" class="node">
<title>Node14</title>
<g id="a_Node000014"><a xlink:href="namespacefabomatic.xhtml#a3e5c190499522bddad3f3cc69274f16c" target="_top" xlink:title="periodic check for new RFID card">
<polygon fill="white" stroke="#666666" points="537.25,-292.88 411,-292.88 411,-273.62 537.25,-273.62 537.25,-292.88"/>
<text text-anchor="middle" x="474.12" y="-279.38" font-family="Helvetica,sans-Serif" font-size="10.00">fabomatic::taskCheckRfid</text>
</a>
</g>
</g>
<!-- Node4&#45;&gt;Node14 -->
<g id="edge23_Node000004_Node000014" class="edge">
<title>Node4&#45;&gt;Node14</title>
<g id="a_edge23_Node000004_Node000014"><a xlink:title=" ">
<path fill="none" stroke="#63b8ff" d="M608.2,-204.17C591.01,-222.93 564.85,-248.44 537.25,-264.25 531.08,-267.78 524.19,-270.73 517.3,-273.16"/>
<polygon fill="#63b8ff" stroke="#63b8ff" points="610.6,-206.74 614.66,-196.95 605.38,-202.07 610.6,-206.74"/>
</a>
</g>
</g>
<!-- Node15 -->
<g id="Node000015" class="node">
<title>Node15</title>
<g id="a_Node000015"><a xlink:href="namespacefabomatic_1_1tests.xhtml#a294b4767ecf1e1d11cc31dafb2541d23" target="_top" xlink:title="periodic check for new RFID card">
<polygon fill="white" stroke="#666666" points="527.12,-195.5 421.12,-195.5 421.12,-165 527.12,-165 527.12,-195.5"/>
<text text-anchor="start" x="429.12" y="-182" font-family="Helvetica,sans-Serif" font-size="10.00">fabomatic::tests::test</text>
<text text-anchor="middle" x="474.12" y="-170.75" font-family="Helvetica,sans-Serif" font-size="10.00">_taskCheckRfid</text>
</a>
</g>
</g>
<!-- Node4&#45;&gt;Node15 -->
<g id="edge24_Node000004_Node000015" class="edge">
<title>Node4&#45;&gt;Node15</title>
<g id="a_edge24_Node000004_Node000015"><a xlink:title=" ">
<path fill="none" stroke="#63b8ff" d="M561.54,-180.25C550.18,-180.25 538.53,-180.25 527.61,-180.25"/>
<polygon fill="#63b8ff" stroke="#63b8ff" points="561.26,-183.75 571.26,-180.25 561.26,-176.75 561.26,-183.75"/>
</a>
</g>
</g>
<!-- Node6 -->
<g id="Node000006" class="node">
<title>Node6</title>
<g id="a_Node000006"><a xlink:href="namespacefabomatic_1_1tests.xhtml#a6a7645a865dc822746f972ea6f43224d" target="_top" xlink:title="Resets machine to initial state, clearing flags.">
<polygon fill="white" stroke="#666666" points="375,-287.88 230.75,-287.88 230.75,-268.62 375,-268.62 375,-287.88"/>
<text text-anchor="middle" x="302.88" y="-274.38" font-family="Helvetica,sans-Serif" font-size="10.00">fabomatic::tests::machine_init</text>
</a>
</g>
</g>
<!-- Node5&#45;&gt;Node6 -->
<g id="edge5_Node000005_Node000006" class="edge">
<title>Node5&#45;&gt;Node6</title>
<g id="a_edge5_Node000005_Node000006"><a xlink:title=" ">
<path fill="none" stroke="#63b8ff" d="M399.37,-256.81C382.12,-260.68 364.26,-264.69 348.72,-268.18"/>
<polygon fill="#63b8ff" stroke="#63b8ff" points="400.12,-260.23 409.11,-254.62 398.58,-253.4 400.12,-260.23"/>
</a>
</g>
</g>
<!-- Node7 -->
<g id="Node000007" class="node">
<title>Node7</title>
<g id="a_Node000007"><a xlink:href="namespacefabomatic_1_1tests.xhtml#a558e2287db01a4622581246a19dac397" target="_top" xlink:title=" ">
<polygon fill="white" stroke="#666666" points="188.38,-271.5 82.38,-271.5 82.38,-241 188.38,-241 188.38,-271.5"/>
<text text-anchor="start" x="90.38" y="-258" font-family="Helvetica,sans-Serif" font-size="10.00">fabomatic::tests::test</text>
<text text-anchor="middle" x="135.38" y="-246.75" font-family="Helvetica,sans-Serif" font-size="10.00">_machine_allowed</text>
</a>
</g>
</g>
<!-- Node5&#45;&gt;Node7 -->
<g id="edge16_Node000005_Node000007" class="edge">
<title>Node5&#45;&gt;Node7</title>
<g id="a_edge16_Node000005_Node000007"><a xlink:title=" ">
<path fill="none" stroke="#63b8ff" d="M399.4,-243.75C335.67,-246.78 245.16,-251.08 188.65,-253.77"/>
<polygon fill="#63b8ff" stroke="#63b8ff" points="399.24,-247.26 409.06,-243.29 398.91,-240.27 399.24,-247.26"/>
</a>
</g>
</g>
<!-- Node9 -->
<g id="Node000009" class="node">
<title>Node9</title>
<g id="a_Node000009"><a xlink:href="namespacefabomatic_1_1tests.xhtml#a9a34631c2dc01cbdbbce146895c94e12" target="_top" xlink:title=" ">
<polygon fill="white" stroke="#666666" points="194.75,-222.5 76,-222.5 76,-192 194.75,-192 194.75,-222.5"/>
<text text-anchor="start" x="84" y="-209" font-family="Helvetica,sans-Serif" font-size="10.00">fabomatic::tests::test</text>
<text text-anchor="middle" x="135.38" y="-197.75" font-family="Helvetica,sans-Serif" font-size="10.00">_machine_maintenance</text>
</a>
</g>
</g>
<!-- Node5&#45;&gt;Node9 -->
<g id="edge17_Node000005_Node000009" class="edge">
<title>Node5&#45;&gt;Node9</title>
<g id="a_edge17_Node000005_Node000009"><a xlink:title=" ">
<path fill="none" stroke="#63b8ff" d="M399.43,-233.03C338.11,-227.02 251.98,-218.58 195.21,-213.02"/>
<polygon fill="#63b8ff" stroke="#63b8ff" points="398.77,-236.48 409.07,-233.97 399.46,-229.51 398.77,-236.48"/>
</a>
</g>
</g>
<!-- Node10 -->
<g id="Node000010" class="node">
<title>Node10</title>
<g id="a_Node000010"><a xlink:href="namespacefabomatic_1_1tests.xhtml#a6f3dff17fd964aba76c35c514957a0a5" target="_top" xlink:title=" ">
<polygon fill="white" stroke="#666666" points="189.88,-369.5 80.88,-369.5 80.88,-339 189.88,-339 189.88,-369.5"/>
<text text-anchor="start" x="88.88" y="-356" font-family="Helvetica,sans-Serif" font-size="10.00">fabomatic::tests::test</text>
<text text-anchor="middle" x="135.38" y="-344.75" font-family="Helvetica,sans-Serif" font-size="10.00">_one_user_at_a_time</text>
</a>
</g>
</g>
<!-- Node5&#45;&gt;Node10 -->
<g id="edge20_Node000005_Node000010" class="edge">
<title>Node5&#45;&gt;Node10</title>
<g id="a_edge20_Node000005_Node000010"><a xlink:title=" ">
<path fill="none" stroke="#63b8ff" d="M413.96,-261.95C412.95,-262.7 411.96,-263.46 411,-264.25 387.85,-283.28 400.19,-305.02 375,-321.25 319.46,-357.04 241.58,-361.23 190.09,-359.18"/>
<polygon fill="#63b8ff" stroke="#63b8ff" points="415.75,-264.97 422.36,-256.69 412.03,-259.03 415.75,-264.97"/>
</a>
</g>
</g>
<!-- Node11 -->
<g id="Node000011" class="node">
<title>Node11</title>
<g id="a_Node000011"><a xlink:href="namespacefabomatic_1_1tests.xhtml#afa92fef9250d918ee02c79dbf2de2546" target="_top" xlink:title=" ">
<polygon fill="white" stroke="#666666" points="188.38,-320.5 82.38,-320.5 82.38,-290 188.38,-290 188.38,-320.5"/>
<text text-anchor="start" x="90.38" y="-307" font-family="Helvetica,sans-Serif" font-size="10.00">fabomatic::tests::test</text>
<text text-anchor="middle" x="135.38" y="-295.75" font-family="Helvetica,sans-Serif" font-size="10.00">_user_autologoff</text>
</a>
</g>
</g>
<!-- Node5&#45;&gt;Node11 -->
<g id="edge21_Node000005_Node000011" class="edge">
<title>Node5&#45;&gt;Node11</title>
<g id="a_edge21_Node000005_Node000011"><a xlink:title=" ">
<path fill="none" stroke="#63b8ff" d="M416.7,-260.94C414.75,-262 412.84,-263.11 411,-264.25 392.56,-275.69 395.09,-289.04 375,-297.25 314.75,-321.86 238.65,-319.29 188.8,-313.63"/>
<polygon fill="#63b8ff" stroke="#63b8ff" points="417.98,-264.21 425.37,-256.62 414.86,-257.94 417.98,-264.21"/>
</a>
</g>
</g>
<!-- Node5&#45;&gt;Node12 -->
<g id="edge22_Node000005_Node000012" class="edge">
<title>Node5&#45;&gt;Node12</title>
<g id="a_edge22_Node000005_Node000012"><a xlink:title=" ">
<path fill="none" stroke="#63b8ff" d="M409.29,-221.48C397.9,-218.29 386.12,-215.09 375,-212.25 312.65,-196.31 240.53,-180.33 192.03,-169.93"/>
<polygon fill="#63b8ff" stroke="#63b8ff" points="408.02,-224.76 418.6,-224.11 409.93,-218.02 408.02,-224.76"/>
</a>
</g>
</g>
<!-- Node13 -->
<g id="Node000013" class="node">
<title>Node13</title>
<g id="a_Node000013"><a xlink:href="namespacefabomatic_1_1tests.xhtml#af8fa7ace86309b5f699540d8898660c7" target="_top" xlink:title=" ">
<polygon fill="white" stroke="#666666" points="355.88,-412.5 249.88,-412.5 249.88,-382 355.88,-382 355.88,-412.5"/>
<text text-anchor="start" x="257.88" y="-399" font-family="Helvetica,sans-Serif" font-size="10.00">fabomatic::tests::test</text>
<text text-anchor="middle" x="302.88" y="-387.75" font-family="Helvetica,sans-Serif" font-size="10.00">_messages_buffered</text>
</a>
</g>
</g>
<!-- Node5&#45;&gt;Node13 -->
<g id="edge18_Node000005_Node000013" class="edge">
<title>Node5&#45;&gt;Node13</title>
<g id="a_edge18_Node000005_Node000013"><a xlink:title=" ">
<path fill="none" stroke="#63b8ff" d="M412.46,-262.8C411.96,-263.27 411.48,-263.76 411,-264.25 377.03,-299.44 408.64,-332.74 375,-368.25 369.68,-373.86 363.12,-378.42 356.15,-382.12"/>
<polygon fill="#63b8ff" stroke="#63b8ff" points="414.37,-265.75 420.14,-256.87 410.09,-260.21 414.37,-265.75"/>
</a>
</g>
</g>
<!-- Node6&#45;&gt;Node7 -->
<g id="edge6_Node000006_Node000007" class="edge">
<title>Node6&#45;&gt;Node7</title>
<g id="a_edge6_Node000006_Node000007"><a xlink:title=" ">
<path fill="none" stroke="#63b8ff" d="M219.35,-267.28C208.84,-265.88 198.32,-264.48 188.47,-263.18"/>
<polygon fill="#63b8ff" stroke="#63b8ff" points="218.85,-270.74 229.23,-268.59 219.78,-263.81 218.85,-270.74"/>
</a>
</g>
</g>
<!-- Node6&#45;&gt;Node9 -->
<g id="edge8_Node000006_Node000009" class="edge">
<title>Node6&#45;&gt;Node9</title>
<g id="a_edge8_Node000006_Node000009"><a xlink:title=" ">
<path fill="none" stroke="#63b8ff" d="M268.1,-263.74C247.02,-254.68 219.3,-242.78 194.75,-232.25 187.76,-229.25 180.3,-226.05 173.12,-222.98"/>
<polygon fill="#63b8ff" stroke="#63b8ff" points="266.51,-266.86 277.08,-267.6 269.28,-260.43 266.51,-266.86"/>
</a>
</g>
</g>
<!-- Node6&#45;&gt;Node10 -->
<g id="edge10_Node000006_Node000010" class="edge">
<title>Node6&#45;&gt;Node10</title>
<g id="a_edge10_Node000006_Node000010"><a xlink:title=" ">
<path fill="none" stroke="#63b8ff" d="M271.36,-293.17C250.01,-303.52 220.76,-317.49 194.75,-329.25 187.92,-332.34 180.6,-335.55 173.53,-338.6"/>
<polygon fill="#63b8ff" stroke="#63b8ff" points="272.63,-296.45 280.09,-288.93 269.57,-290.15 272.63,-296.45"/>
</a>
</g>
</g>
<!-- Node6&#45;&gt;Node11 -->
<g id="edge12_Node000006_Node000011" class="edge">
<title>Node6&#45;&gt;Node11</title>
<g id="a_edge12_Node000006_Node000011"><a xlink:title=" ">
<path fill="none" stroke="#63b8ff" d="M229,-290.14C215.48,-292.35 201.59,-294.61 188.83,-296.69"/>
<polygon fill="#63b8ff" stroke="#63b8ff" points="229.45,-293.61 238.76,-288.55 228.32,-286.7 229.45,-293.61"/>
</a>
</g>
</g>
<!-- Node6&#45;&gt;Node12 -->
<g id="edge14_Node000006_Node000012" class="edge">
<title>Node6&#45;&gt;Node12</title>
<g id="a_edge14_Node000006_Node000012"><a xlink:title=" ">
<path fill="none" stroke="#63b8ff" d="M284.84,-259.94C264.82,-239.23 229.86,-205.51 194.75,-183.25 189.44,-179.89 183.6,-176.78 177.74,-173.98"/>
<polygon fill="#63b8ff" stroke="#63b8ff" points="282.22,-262.27 291.65,-267.1 287.29,-257.44 282.22,-262.27"/>
</a>
</g>
</g>
<!-- Node8 -->
<g id="Node000008" class="node">
<title>Node8</title>
<g id="a_Node000008"><a xlink:href="test__logic_8cpp.xhtml#a4fc01d736fe50cf5b977f755b675f11d" target="_top" xlink:title=" ">
<polygon fill="white" stroke="#666666" points="40,-289.88 0,-289.88 0,-270.62 40,-270.62 40,-289.88"/>
<text text-anchor="middle" x="20" y="-276.38" font-family="Helvetica,sans-Serif" font-size="10.00">setup</text>
</a>
</g>
</g>
<!-- Node7&#45;&gt;Node8 -->
<g id="edge7_Node000007_Node000008" class="edge">
<title>Node7&#45;&gt;Node8</title>
<g id="a_edge7_Node000007_Node000008"><a xlink:title=" ">
<path fill="none" stroke="#63b8ff" d="M70.85,-269.7C59.76,-272.05 49.01,-274.32 40.36,-276.15"/>
<polygon fill="#63b8ff" stroke="#63b8ff" points="71.46,-273.15 80.52,-267.65 70.01,-266.3 71.46,-273.15"/>
</a>
</g>
</g>
<!-- Node9&#45;&gt;Node8 -->
<g id="edge9_Node000009_Node000008" class="edge">
<title>Node9&#45;&gt;Node8</title>
<g id="a_edge9_Node000009_Node000008"><a xlink:title=" ">
<path fill="none" stroke="#63b8ff" d="M83.1,-228.09C80.66,-229.43 78.28,-230.81 76,-232.25 58.4,-243.31 40.78,-259.9 30.39,-270.39"/>
<polygon fill="#63b8ff" stroke="#63b8ff" points="84.67,-231.21 92,-223.56 81.5,-224.98 84.67,-231.21"/>
</a>
</g>
</g>
<!-- Node10&#45;&gt;Node8 -->
<g id="edge11_Node000010_Node000008" class="edge">
<title>Node10&#45;&gt;Node8</title>
<g id="a_edge11_Node000010_Node000008"><a xlink:title=" ">
<path fill="none" stroke="#63b8ff" d="M82.96,-333.37C80.57,-332.05 78.24,-330.67 76,-329.25 58.3,-318 40.71,-301.05 30.35,-290.33"/>
<polygon fill="#63b8ff" stroke="#63b8ff" points="81.17,-336.39 91.66,-337.84 84.36,-330.16 81.17,-336.39"/>
</a>
</g>
</g>
<!-- Node11&#45;&gt;Node8 -->
<g id="edge13_Node000011_Node000008" class="edge">
<title>Node11&#45;&gt;Node8</title>
<g id="a_edge13_Node000011_Node000008"><a xlink:title=" ">
<path fill="none" stroke="#63b8ff" d="M70.85,-291.24C59.76,-288.8 49.01,-286.43 40.36,-284.52"/>
<polygon fill="#63b8ff" stroke="#63b8ff" points="70,-294.64 80.52,-293.38 71.51,-287.8 70,-294.64"/>
</a>
</g>
</g>
<!-- Node12&#45;&gt;Node8 -->
<g id="edge15_Node000012_Node000008" class="edge">
<title>Node12&#45;&gt;Node8</title>
<g id="a_edge15_Node000012_Node000008"><a xlink:title=" ">
<path fill="none" stroke="#63b8ff" d="M79.85,-180.07C78.52,-181.09 77.23,-182.15 76,-183.25 48.01,-208.29 30.86,-251.08 24.19,-270.34"/>
<polygon fill="#63b8ff" stroke="#63b8ff" points="81.48,-183.19 87.93,-174.78 77.65,-177.33 81.48,-183.19"/>
</a>
</g>
</g>
<!-- Node13&#45;&gt;Node8 -->
<g id="edge19_Node000013_Node000008" class="edge">
<title>Node13&#45;&gt;Node8</title>
<g id="a_edge19_Node000013_Node000008"><a xlink:title=" ">
<path fill="none" stroke="#63b8ff" d="M238.26,-407.05C189.98,-411.11 123.95,-409.1 76,-378.25 43.68,-357.46 28.53,-310.63 23.27,-290.15"/>
<polygon fill="#63b8ff" stroke="#63b8ff" points="238.38,-410.56 248,-406.12 237.71,-403.59 238.38,-410.56"/>
</a>
</g>
</g>
<!-- Node17 -->
<g id="Node000017" class="node">
<title>Node17</title>
<g id="a_Node000017"><a xlink:href="test__mqtt_8cpp.xhtml#a4fc01d736fe50cf5b977f755b675f11d" target="_top" xlink:title=" ">
<polygon fill="white" stroke="#666666" points="798.38,-51.88 758.38,-51.88 758.38,-32.62 798.38,-32.62 798.38,-51.88"/>
<text text-anchor="middle" x="778.38" y="-38.38" font-family="Helvetica,sans-Serif" font-size="10.00">setup</text>
</a>
</g>
</g>
<!-- Node16&#45;&gt;Node17 -->
<g id="edge28_Node000016_Node000017" class="edge">
<title>Node16&#45;&gt;Node17</title>
<g id="a_edge28_Node000016_Node000017"><a xlink:title=" ">
<path fill="none" stroke="#63b8ff" d="M858.96,-28.78C836.52,-32.58 814.09,-36.37 798.79,-38.96"/>
<polygon fill="#63b8ff" stroke="#63b8ff" points="859.54,-32.23 868.81,-27.11 858.37,-25.33 859.54,-32.23"/>
</a>
</g>
</g>
<!-- Node18&#45;&gt;Node17 -->
<g id="edge30_Node000018_Node000017" class="edge">
<title>Node18&#45;&gt;Node17</title>
<g id="a_edge30_Node000018_Node000017"><a xlink:title=" ">
<path fill="none" stroke="#63b8ff" d="M875.46,-55.5C847.94,-51.71 817.71,-47.54 798.64,-44.91"/>
<polygon fill="#63b8ff" stroke="#63b8ff" points="874.76,-58.94 885.15,-56.84 875.72,-52.01 874.76,-58.94"/>
</a>
</g>
</g>
</g>
</svg>

<g id="navigator" transform="translate(0 0)" fill="#404254">
  <rect fill="#f2f5e9" fill-opacity="0.5" stroke="#606060" stroke-width=".5" x="0" y="0" width="60" height="60"/>
  <use id="zoomplus" xlink:href="#zoomPlus" x="17" y="9" onmousedown="handleZoom(evt,'in')"/>
  <use id="zoomminus" xlink:href="#zoomMin" x="42" y="9" onmousedown="handleZoom(evt,'out')"/>
  <use id="reset" xlink:href="#resetDef" x="30" y="36" onmousedown="handleReset()"/>
   <use id="arrowup" xlink:href="#arrowUp" x="0" y="0" onmousedown="handlePan(0,-1)"/>
  <use id="arrowright" xlink:href="#arrowRight" x="0" y="0" onmousedown="handlePan(1,0)"/>
  <use id="arrowdown" xlink:href="#arrowDown" x="0" y="0" onmousedown="handlePan(0,1)"/>
  <use id="arrowleft" xlink:href="#arrowLeft" x="0" y="0" onmousedown="handlePan(-1,0)"/>
</g>
<svg viewBox="0 0 15 15" width="100%" height="30px" preserveAspectRatio="xMaxYMin meet">
 <g id="arrow_out" transform="scale(0.3 0.3)">
  <a xlink:href="classfabomatic_1_1_fab_backend_a96279ac5e1540441111f7ecb04ba7ce6_icgraph_org.svg" target="_base">
   <rect id="button" ry="5" rx="5" y="6" x="6" height="38" width="38"
        fill="#f2f5e9" fill-opacity="0.5" stroke="#606060" stroke-width="1.0"/>
   <path id="arrow"
     d="M 11.500037,31.436501 C 11.940474,20.09759 22.043105,11.32322 32.158766,21.979434 L 37.068811,17.246167 C 37.068811,17.246167 37.088388,32 37.088388,32 L 22.160133,31.978069 C 22.160133,31.978069 26.997745,27.140456 26.997745,27.140456 C 18.528582,18.264221 13.291696,25.230495 11.500037,31.436501 z"
     style="fill:#404040;"/>
  </a>
 </g>
</svg>

<style type='text/css'>
<![CDATA[
[data-mouse-over-selected='false'] { opacity: 0.7; }
[data-mouse-over-selected='true']  { opacity: 1.0; }
]]>
</style>
<script type="application/ecmascript"><![CDATA[
document.addEventListener('DOMContentLoaded', (event) => {
  highlightEdges();
  highlightAdjacentNodes();
});
]]></script>
</svg>
