<?xml version="1.0" encoding="UTF-8" standalone="no"?>
<!DOCTYPE svg PUBLIC "-//W3C//DTD SVG 1.1//EN"
 "http://www.w3.org/Graphics/SVG/1.1/DTD/svg11.dtd">
<!-- Generated by graphviz version 9.0.0 (20230911.1827)
 -->
<!-- Title: fabomatic::FabBackend::loop Pages: 1 -->
<svg width="394pt" height="125pt"
 viewBox="0.00 0.00 394.25 124.88" xmlns="http://www.w3.org/2000/svg" xmlns:xlink="http://www.w3.org/1999/xlink">
<g id="graph0" class="graph" transform="scale(1 1) rotate(0) translate(4 120.88)">
<title>fabomatic::FabBackend::loop</title>
<!-- Node1 -->
<g id="Node000001" class="node">
<title>Node1</title>
<g id="a_Node000001"><a xlink:title="Main loop for the MQTT client.">
<polygon fill="#999999" stroke="#666666" points="386.25,-79.5 268.25,-79.5 268.25,-49 386.25,-49 386.25,-79.5"/>
<text text-anchor="start" x="276.25" y="-66" font-family="Helvetica,sans-Serif" font-size="10.00">fabomatic::FabBackend</text>
<text text-anchor="middle" x="327.25" y="-54.75" font-family="Helvetica,sans-Serif" font-size="10.00">::loop</text>
</a>
</g>
</g>
<!-- Node2 -->
<g id="Node000002" class="node">
<title>Node2</title>
<g id="a_Node000002"><a xlink:href="namespacefabomatic.xhtml#a710739974eb0b1c5b53ffd75580ab54d" target="_top" xlink:title="sends the MQTT alive message">
<polygon fill="white" stroke="#666666" points="232.25,-116.88 76,-116.88 76,-97.62 232.25,-97.62 232.25,-116.88"/>
<text text-anchor="middle" x="154.12" y="-103.38" font-family="Helvetica,sans-Serif" font-size="10.00">fabomatic::taskMQTTClientLoop</text>
</a>
</g>
</g>
<!-- Node1&#45;&gt;Node2 -->
<g id="edge1_Node000001_Node000002" class="edge">
<title>Node1&#45;&gt;Node2</title>
<g id="a_edge1_Node000001_Node000002"><a xlink:title=" ">
<path fill="none" stroke="#63b8ff" d="M256.97,-82.01C248.65,-84.12 240.26,-86.24 232.25,-88.25 220.61,-91.17 207.98,-94.3 196.37,-97.16"/>
<polygon fill="#63b8ff" stroke="#63b8ff" points="257.56,-85.47 266.39,-79.61 255.83,-78.69 257.56,-85.47"/>
</a>
</g>
</g>
<!-- Node3 -->
<g id="Node000003" class="node">
<title>Node3</title>
<g id="a_Node000003"><a xlink:href="namespacefabomatic_1_1tests.xhtml#a438b9060c27d36e89506199205b342cb" target="_top" xlink:title=" ">
<polygon fill="white" stroke="#666666" points="207.12,-79.5 101.12,-79.5 101.12,-49 207.12,-49 207.12,-79.5"/>
<text text-anchor="start" x="109.12" y="-66" font-family="Helvetica,sans-Serif" font-size="10.00">fabomatic::tests::test</text>
<text text-anchor="middle" x="154.12" y="-54.75" font-family="Helvetica,sans-Serif" font-size="10.00">_fabserver_calls</text>
</a>
</g>
</g>
<!-- Node1&#45;&gt;Node3 -->
<g id="edge2_Node000001_Node000003" class="edge">
<title>Node1&#45;&gt;Node3</title>
<g id="a_edge2_Node000001_Node000003"><a xlink:title=" ">
<path fill="none" stroke="#63b8ff" d="M256.64,-64.25C240.24,-64.25 223.03,-64.25 207.54,-64.25"/>
<polygon fill="#63b8ff" stroke="#63b8ff" points="256.32,-67.75 266.32,-64.25 256.32,-60.75 256.32,-67.75"/>
</a>
</g>
</g>
<!-- Node5 -->
<g id="Node000005" class="node">
<title>Node5</title>
<g id="a_Node000005"><a xlink:href="namespacefabomatic_1_1tests.xhtml#ae0c2cd74b089905fbdebeca807403606" target="_top" xlink:title="sends the MQTT alive message">
<polygon fill="white" stroke="#666666" points="207.12,-30.5 101.12,-30.5 101.12,0 207.12,0 207.12,-30.5"/>
<text text-anchor="start" x="109.12" y="-17" font-family="Helvetica,sans-Serif" font-size="10.00">fabomatic::tests::test</text>
<text text-anchor="middle" x="154.12" y="-5.75" font-family="Helvetica,sans-Serif" font-size="10.00">_taskMQTTAlive</text>
</a>
</g>
</g>
<!-- Node1&#45;&gt;Node5 -->
<g id="edge4_Node000001_Node000005" class="edge">
<title>Node1&#45;&gt;Node5</title>
<g id="a_edge4_Node000001_Node000005"><a xlink:title=" ">
<path fill="none" stroke="#63b8ff" d="M260.83,-45.52C243.17,-40.46 224.31,-35.06 207.47,-30.24"/>
<polygon fill="#63b8ff" stroke="#63b8ff" points="259.6,-48.81 270.18,-48.19 261.53,-42.08 259.6,-48.81"/>
</a>
</g>
</g>
<!-- Node4 -->
<g id="Node000004" class="node">
<title>Node4</title>
<g id="a_Node000004"><a xlink:href="test__mqtt_8cpp.xhtml#a4fc01d736fe50cf5b977f755b675f11d" target="_top" xlink:title=" ">
<polygon fill="white" stroke="#666666" points="40,-73.88 0,-73.88 0,-54.62 40,-54.62 40,-73.88"/>
<text text-anchor="middle" x="20" y="-60.38" font-family="Helvetica,sans-Serif" font-size="10.00">setup</text>
</a>
</g>
</g>
<!-- Node3&#45;&gt;Node4 -->
<g id="edge3_Node000003_Node000004" class="edge">
<title>Node3&#45;&gt;Node4</title>
<g id="a_edge3_Node000003_Node000004"><a xlink:title=" ">
<path fill="none" stroke="#63b8ff" d="M89.51,-64.25C71.57,-64.25 53.39,-64.25 40.27,-64.25"/>
<polygon fill="#63b8ff" stroke="#63b8ff" points="89.39,-67.75 99.39,-64.25 89.39,-60.75 89.39,-67.75"/>
</a>
</g>
</g>
</g>
</svg>
