<?xml version="1.0" encoding="UTF-8" standalone="no"?>
<!DOCTYPE svg PUBLIC "-//W3C//DTD SVG 1.1//EN"
 "http://www.w3.org/Graphics/SVG/1.1/DTD/svg11.dtd">
<!-- Generated by graphviz version 9.0.0 (20230911.1827)
 -->
<!-- Title: fabomatic::SavedConfig::toJsonDocument Pages: 1 -->
<!--zoomable 135 -->

<svg id="main" version="1.1" xmlns="http://www.w3.org/2000/svg" xmlns:xlink="http://www.w3.org/1999/xlink" xml:space="preserve" onload="init(evt)">
<style type="text/css"><![CDATA[
.node, .edge {opacity: 0.7;}
.node.selected, .edge.selected {opacity: 1;}
.edge:hover path { stroke: red; }
.edge:hover polygon { stroke: red; fill: red; }
]]></style>

<defs>
  <circle id="rim" cx="0" cy="0" r="7"/>
  <circle id="rim2" cx="0" cy="0" r="3.5"/>
  <g id="zoomPlus">
    <use xlink:href="#rim" fill="#404040"><set attributeName="fill" to="#808080" begin="zoomplus.mouseover" end="zoomplus.mouseout"/></use>
    <path d="M-4,0h8M0,-4v8" fill="none" stroke="white" stroke-width="1.5" pointer-events="none"/>
  </g>
  <g id="zoomMin">
    <use xlink:href="#rim" fill="#404040"><set attributeName="fill" to="#808080" begin="zoomminus.mouseover" end="zoomminus.mouseout"/></use>
    <path d="M-4,0h8" fill="none" stroke="white" stroke-width="1.5" pointer-events="none"/>
  </g>
  <g id="arrowUp" transform="translate(30 24)">
    <use xlink:href="#rim"/>
    <path pointer-events="none" fill="none" stroke="white" stroke-width="1.5" d="M0,-3.0v7 M-2.5,-0.5L0,-3.0L2.5,-0.5"/>
  </g>
  <g id="arrowRight" transform="rotate(90) translate(36 -43)">
    <use xlink:href="#rim"/>
    <path pointer-events="none" fill="none" stroke="white" stroke-width="1.5" d="M0,-3.0v7 M-2.5,-0.5L0,-3.0L2.5,-0.5"/>
  </g>
  <g id="arrowDown" transform="rotate(180) translate(-30 -48)">
    <use xlink:href="#rim"/>
    <path pointer-events="none" fill="none" stroke="white" stroke-width="1.5" d="M0,-3.0v7 M-2.5,-0.5L0,-3.0L2.5,-0.5"/>
  </g>
  <g id="arrowLeft" transform="rotate(270) translate(-36 17)">
    <use xlink:href="#rim"/>
    <path pointer-events="none" fill="none" stroke="white" stroke-width="1.5" d="M0,-3.0v7 M-2.5,-0.5L0,-3.0L2.5,-0.5"/>
  </g>
  <g id="resetDef">
    <use xlink:href="#rim2" fill="#404040"><set attributeName="fill" to="#808080" begin="reset.mouseover" end="reset.mouseout"/></use>
  </g>
</defs>
<script type="application/ecmascript">
var viewWidth = 654;
var viewHeight = 135;
var sectionId = 'dynsection-10';
</script>
<script type="application/ecmascript" xlink:href="svg.min.js"/>
<svg id="graph" class="graph">
<g id="viewport">
<title>fabomatic::SavedConfig::toJsonDocument</title>
<!-- Node1 -->
<g id="Node000001" class="node">
<title>Node1</title>
<g id="a_Node000001"><a xlink:title="Serialize the current configuration into a JsonDocument.">
<polygon fill="#999999" stroke="#666666" points="645.5,-75.5 527.5,-75.5 527.5,-45 645.5,-45 645.5,-75.5"/>
<text text-anchor="start" x="535.5" y="-62" font-family="Helvetica,sans-Serif" font-size="10.00">fabomatic::SavedConfig</text>
<text text-anchor="middle" x="586.5" y="-50.75" font-family="Helvetica,sans-Serif" font-size="10.00">::toJsonDocument</text>
</a>
</g>
</g>
<!-- Node2 -->
<g id="Node000002" class="node">
<title>Node2</title>
<g id="a_Node000002"><a xlink:href="classfabomatic_1_1_saved_config.xhtml#a312c74363068192ae80df24140f82874" target="_top" xlink:title="Saves the configuration to EEPROM.">
<polygon fill="white" stroke="#666666" points="491.5,-100.5 373.5,-100.5 373.5,-70 491.5,-70 491.5,-100.5"/>
<text text-anchor="start" x="381.5" y="-87" font-family="Helvetica,sans-Serif" font-size="10.00">fabomatic::SavedConfig</text>
<text text-anchor="middle" x="432.5" y="-75.75" font-family="Helvetica,sans-Serif" font-size="10.00">::SaveToEEPROM</text>
</a>
</g>
</g>
<!-- Node1&#45;&gt;Node2 -->
<g id="edge1_Node000001_Node000002" class="edge">
<title>Node1&#45;&gt;Node2</title>
<g id="a_edge1_Node000001_Node000002"><a xlink:title=" ">
<path fill="none" stroke="#63b8ff" d="M515.93,-71.69C507.9,-73.01 499.78,-74.35 491.93,-75.64"/>
<polygon fill="#63b8ff" stroke="#63b8ff" points="516.37,-75.17 525.67,-70.09 515.24,-68.26 516.37,-75.17"/>
</a>
</g>
</g>
<!-- Node9 -->
<g id="Node000009" class="node">
<title>Node9</title>
<g id="a_Node000009"><a xlink:href="classfabomatic_1_1_saved_config.xhtml#ad1d484179f439b28d608a9c6737bdc26" target="_top" xlink:title="Returns a json&#45;prettified fragment for logging.">
<polygon fill="white" stroke="#666666" points="491.5,-51.5 373.5,-51.5 373.5,-21 491.5,-21 491.5,-51.5"/>
<text text-anchor="start" x="381.5" y="-38" font-family="Helvetica,sans-Serif" font-size="10.00">fabomatic::SavedConfig</text>
<text text-anchor="middle" x="432.5" y="-26.75" font-family="Helvetica,sans-Serif" font-size="10.00">::toString</text>
</a>
</g>
</g>
<!-- Node1&#45;&gt;Node9 -->
<g id="edge10_Node000001_Node000009" class="edge">
<title>Node1&#45;&gt;Node9</title>
<g id="a_edge10_Node000001_Node000009"><a xlink:title=" ">
<path fill="none" stroke="#63b8ff" d="M515.93,-49.26C507.9,-48 499.78,-46.72 491.93,-45.48"/>
<polygon fill="#63b8ff" stroke="#63b8ff" points="515.25,-52.7 525.67,-50.8 516.34,-45.79 515.25,-52.7"/>
</a>
</g>
</g>
<!-- Node3 -->
<g id="Node000003" class="node">
<title>Node3</title>
<g id="a_Node000003"><a xlink:href="classfabomatic_1_1_auth_provider.xhtml#acb92a9381bc8e14bd57b819fc9162750" target="_top" xlink:title="Saves the cache of RFID to EEPROM.">
<polygon fill="white" stroke="#666666" points="337.5,-100.5 218,-100.5 218,-70 337.5,-70 337.5,-100.5"/>
<text text-anchor="start" x="226" y="-87" font-family="Helvetica,sans-Serif" font-size="10.00">fabomatic::AuthProvider</text>
<text text-anchor="middle" x="277.75" y="-75.75" font-family="Helvetica,sans-Serif" font-size="10.00">::saveCache</text>
</a>
</g>
</g>
<!-- Node2&#45;&gt;Node3 -->
<g id="edge2_Node000002_Node000003" class="edge">
<title>Node2&#45;&gt;Node3</title>
<g id="a_edge2_Node000002_Node000003"><a xlink:title=" ">
<path fill="none" stroke="#63b8ff" d="M361.99,-85.25C353.9,-85.25 345.71,-85.25 337.78,-85.25"/>
<polygon fill="#63b8ff" stroke="#63b8ff" points="361.8,-88.75 371.8,-85.25 361.8,-81.75 361.8,-88.75"/>
</a>
</g>
</g>
<!-- Node5 -->
<g id="Node000005" class="node">
<title>Node5</title>
<g id="a_Node000005"><a xlink:href="test__mqtt_8cpp.xhtml#a4fc01d736fe50cf5b977f755b675f11d" target="_top" xlink:title=" ">
<polygon fill="white" stroke="#666666" points="40,-126.88 0,-126.88 0,-107.62 40,-107.62 40,-126.88"/>
<text text-anchor="middle" x="20" y="-113.38" font-family="Helvetica,sans-Serif" font-size="10.00">setup</text>
</a>
</g>
</g>
<!-- Node2&#45;&gt;Node5 -->
<g id="edge7_Node000002_Node000005" class="edge">
<title>Node2&#45;&gt;Node5</title>
<g id="a_edge7_Node000002_Node000005"><a xlink:title=" ">
<path fill="none" stroke="#63b8ff" d="M366.11,-103.54C356.57,-105.74 346.82,-107.74 337.5,-109.25 226.27,-127.24 90.22,-121.55 40.43,-118.57"/>
<polygon fill="#63b8ff" stroke="#63b8ff" points="366.8,-106.98 375.7,-101.24 365.16,-100.17 366.8,-106.98"/>
</a>
</g>
</g>
<!-- Node8 -->
<g id="Node000008" class="node">
<title>Node8</title>
<g id="a_Node000008"><a xlink:href="namespacefabomatic_1_1tests.xhtml#a0bbb6cee5561bf8ac1c4a9117d9d01b8" target="_top" xlink:title=" ">
<polygon fill="white" stroke="#666666" points="330.75,-30.5 224.75,-30.5 224.75,0 330.75,0 330.75,-30.5"/>
<text text-anchor="start" x="232.75" y="-17" font-family="Helvetica,sans-Serif" font-size="10.00">fabomatic::tests::test</text>
<text text-anchor="middle" x="277.75" y="-5.75" font-family="Helvetica,sans-Serif" font-size="10.00">_changes</text>
</a>
</g>
</g>
<!-- Node2&#45;&gt;Node8 -->
<g id="edge8_Node000002_Node000008" class="edge">
<title>Node2&#45;&gt;Node8</title>
<g id="a_edge8_Node000002_Node000008"><a xlink:title=" ">
<path fill="none" stroke="#63b8ff" d="M384.29,-65.07C380.63,-63.46 377,-61.84 373.5,-60.25 352.6,-50.79 329.32,-39.74 311.06,-30.96"/>
<polygon fill="#63b8ff" stroke="#63b8ff" points="382.64,-68.17 393.21,-68.97 385.45,-61.76 382.64,-68.17"/>
</a>
</g>
</g>
<!-- Node4 -->
<g id="Node000004" class="node">
<title>Node4</title>
<g id="a_Node000004"><a xlink:href="namespacefabomatic_1_1tests.xhtml#a438b9060c27d36e89506199205b342cb" target="_top" xlink:title=" ">
<polygon fill="white" stroke="#666666" points="182,-111.5 76,-111.5 76,-81 182,-81 182,-111.5"/>
<text text-anchor="start" x="84" y="-98" font-family="Helvetica,sans-Serif" font-size="10.00">fabomatic::tests::test</text>
<text text-anchor="middle" x="129" y="-86.75" font-family="Helvetica,sans-Serif" font-size="10.00">_fabserver_calls</text>
</a>
</g>
</g>
<!-- Node3&#45;&gt;Node4 -->
<g id="edge3_Node000003_Node000004" class="edge">
<title>Node3&#45;&gt;Node4</title>
<g id="a_edge3_Node000003_Node000004"><a xlink:title=" ">
<path fill="none" stroke="#63b8ff" d="M206.45,-90.52C198.29,-91.13 190.08,-91.75 182.22,-92.34"/>
<polygon fill="#63b8ff" stroke="#63b8ff" points="206.69,-94.01 216.4,-89.77 206.16,-87.03 206.69,-94.01"/>
</a>
</g>
</g>
<!-- Node6 -->
<g id="Node000006" class="node">
<title>Node6</title>
<g id="a_Node000006"><a xlink:href="namespacefabomatic_1_1tests.xhtml#aeb3e51f6d2841cd2869df4c0629f694d" target="_top" xlink:title=" ">
<polygon fill="white" stroke="#666666" points="182,-62.5 76,-62.5 76,-32 182,-32 182,-62.5"/>
<text text-anchor="start" x="84" y="-49" font-family="Helvetica,sans-Serif" font-size="10.00">fabomatic::tests::test</text>
<text text-anchor="middle" x="129" y="-37.75" font-family="Helvetica,sans-Serif" font-size="10.00">_rfid_cache</text>
</a>
</g>
</g>
<!-- Node3&#45;&gt;Node6 -->
<g id="edge5_Node000003_Node000006" class="edge">
<title>Node3&#45;&gt;Node6</title>
<g id="a_edge5_Node000003_Node000006"><a xlink:title=" ">
<path fill="none" stroke="#63b8ff" d="M207.01,-67.19C198.67,-65.03 190.26,-62.85 182.22,-60.77"/>
<polygon fill="#63b8ff" stroke="#63b8ff" points="205.88,-70.51 216.44,-69.63 207.64,-63.74 205.88,-70.51"/>
</a>
</g>
</g>
<!-- Node4&#45;&gt;Node5 -->
<g id="edge4_Node000004_Node000005" class="edge">
<title>Node4&#45;&gt;Node5</title>
<g id="a_edge4_Node000004_Node000005"><a xlink:title=" ">
<path fill="none" stroke="#63b8ff" d="M64.56,-108.7C55.82,-110.42 47.44,-112.06 40.41,-113.44"/>
<polygon fill="#63b8ff" stroke="#63b8ff" points="65.13,-112.16 74.27,-106.8 63.78,-105.29 65.13,-112.16"/>
</a>
</g>
</g>
<!-- Node7 -->
<g id="Node000007" class="node">
<title>Node7</title>
<g id="a_Node000007"><a xlink:href="test__savedconfig_8cpp.xhtml#a4fc01d736fe50cf5b977f755b675f11d" target="_top" xlink:title=" ">
<polygon fill="white" stroke="#666666" points="40,-35.88 0,-35.88 0,-16.62 40,-16.62 40,-35.88"/>
<text text-anchor="middle" x="20" y="-22.38" font-family="Helvetica,sans-Serif" font-size="10.00">setup</text>
</a>
</g>
</g>
<!-- Node6&#45;&gt;Node7 -->
<g id="edge6_Node000006_Node000007" class="edge">
<title>Node6&#45;&gt;Node7</title>
<g id="a_edge6_Node000006_Node000007"><a xlink:title=" ">
<path fill="none" stroke="#63b8ff" d="M64.56,-34.8C55.82,-33.08 47.44,-31.44 40.41,-30.06"/>
<polygon fill="#63b8ff" stroke="#63b8ff" points="63.78,-38.21 74.27,-36.7 65.13,-31.34 63.78,-38.21"/>
</a>
</g>
</g>
<!-- Node8&#45;&gt;Node7 -->
<g id="edge9_Node000008_Node000007" class="edge">
<title>Node8&#45;&gt;Node7</title>
<g id="a_edge9_Node000008_Node000007"><a xlink:title=" ">
<path fill="none" stroke="#63b8ff" d="M213.02,-17.55C173.55,-19.04 121.82,-21.09 76,-23.25 64.16,-23.81 50.88,-24.53 40.34,-25.13"/>
<polygon fill="#63b8ff" stroke="#63b8ff" points="212.95,-21.06 222.82,-17.19 212.69,-14.06 212.95,-21.06"/>
</a>
</g>
</g>
</g>
</svg>

<g id="navigator" transform="translate(0 0)" fill="#404254">
  <rect fill="#f2f5e9" fill-opacity="0.5" stroke="#606060" stroke-width=".5" x="0" y="0" width="60" height="60"/>
  <use id="zoomplus" xlink:href="#zoomPlus" x="17" y="9" onmousedown="handleZoom(evt,'in')"/>
  <use id="zoomminus" xlink:href="#zoomMin" x="42" y="9" onmousedown="handleZoom(evt,'out')"/>
  <use id="reset" xlink:href="#resetDef" x="30" y="36" onmousedown="handleReset()"/>
   <use id="arrowup" xlink:href="#arrowUp" x="0" y="0" onmousedown="handlePan(0,-1)"/>
  <use id="arrowright" xlink:href="#arrowRight" x="0" y="0" onmousedown="handlePan(1,0)"/>
  <use id="arrowdown" xlink:href="#arrowDown" x="0" y="0" onmousedown="handlePan(0,1)"/>
  <use id="arrowleft" xlink:href="#arrowLeft" x="0" y="0" onmousedown="handlePan(-1,0)"/>
</g>
<svg viewBox="0 0 15 15" width="100%" height="30px" preserveAspectRatio="xMaxYMin meet">
 <g id="arrow_out" transform="scale(0.3 0.3)">
  <a xlink:href="classfabomatic_1_1_saved_config_ae0af7670707ed5a51c69197eb6fadbe5_icgraph_org.svg" target="_base">
   <rect id="button" ry="5" rx="5" y="6" x="6" height="38" width="38"
        fill="#f2f5e9" fill-opacity="0.5" stroke="#606060" stroke-width="1.0"/>
   <path id="arrow"
     d="M 11.500037,31.436501 C 11.940474,20.09759 22.043105,11.32322 32.158766,21.979434 L 37.068811,17.246167 C 37.068811,17.246167 37.088388,32 37.088388,32 L 22.160133,31.978069 C 22.160133,31.978069 26.997745,27.140456 26.997745,27.140456 C 18.528582,18.264221 13.291696,25.230495 11.500037,31.436501 z"
     style="fill:#404040;"/>
  </a>
 </g>
</svg>

<style type='text/css'>
<![CDATA[
[data-mouse-over-selected='false'] { opacity: 0.7; }
[data-mouse-over-selected='true']  { opacity: 1.0; }
]]>
</style>
<script type="application/ecmascript"><![CDATA[
document.addEventListener('DOMContentLoaded', (event) => {
  highlightEdges();
  highlightAdjacentNodes();
});
]]></script>
</svg>
