<?xml version="1.0" encoding="UTF-8" standalone="no"?>
<!DOCTYPE svg PUBLIC "-//W3C//DTD SVG 1.1//EN"
 "http://www.w3.org/Graphics/SVG/1.1/DTD/svg11.dtd">
<!-- Generated by graphviz version 9.0.0 (20230911.1827)
 -->
<!-- Title: fabomatic::FabBackend::messageReceived Pages: 1 -->
<svg width="1460pt" height="442pt"
 viewBox="0.00 0.00 1460.25 441.50" xmlns="http://www.w3.org/2000/svg" xmlns:xlink="http://www.w3.org/1999/xlink">
<g id="graph0" class="graph" transform="scale(1 1) rotate(0) translate(4 437.5)">
<title>fabomatic::FabBackend::messageReceived</title>
<!-- Node1 -->
<g id="Node000001" class="node">
<title>Node1</title>
<g id="a_Node000001"><a xlink:title="Callback function for received MQTT messages.">
<polygon fill="#999999" stroke="#666666" points="1452.25,-261.5 1334.25,-261.5 1334.25,-231 1452.25,-231 1452.25,-261.5"/>
<text text-anchor="start" x="1342.25" y="-248" font-family="Helvetica,sans-Serif" font-size="10.00">fabomatic::FabBackend</text>
<text text-anchor="middle" x="1393.25" y="-236.75" font-family="Helvetica,sans-Serif" font-size="10.00">::messageReceived</text>
</a>
</g>
</g>
<!-- Node2 -->
<g id="Node000002" class="node">
<title>Node2</title>
<g id="a_Node000002"><a xlink:href="classfabomatic_1_1_fab_backend.xhtml#a1a45f556aadcbc428d14b7c7577ed43d" target="_top" xlink:title="Establishes a connection to the WiFi network and the MQTT server.">
<polygon fill="white" stroke="#666666" points="1298.25,-261.5 1180.25,-261.5 1180.25,-231 1298.25,-231 1298.25,-261.5"/>
<text text-anchor="start" x="1188.25" y="-248" font-family="Helvetica,sans-Serif" font-size="10.00">fabomatic::FabBackend</text>
<text text-anchor="middle" x="1239.25" y="-236.75" font-family="Helvetica,sans-Serif" font-size="10.00">::connect</text>
</a>
</g>
</g>
<!-- Node1&#45;&gt;Node2 -->
<g id="edge1_Node000001_Node000002" class="edge">
<title>Node1&#45;&gt;Node2</title>
<g id="a_edge1_Node000001_Node000002"><a xlink:title=" ">
<path fill="none" stroke="#63b8ff" d="M1322.68,-246.25C1314.65,-246.25 1306.53,-246.25 1298.68,-246.25"/>
<polygon fill="#63b8ff" stroke="#63b8ff" points="1322.4,-249.75 1332.4,-246.25 1322.4,-242.75 1322.4,-249.75"/>
</a>
</g>
</g>
<!-- Node3 -->
<g id="Node000003" class="node">
<title>Node3</title>
<g id="a_Node000003"><a xlink:href="classfabomatic_1_1_fab_backend.xhtml#aaa691642839e9196217684949621f2a4" target="_top" xlink:title="Processes a query and returns the response.">
<polygon fill="white" stroke="#666666" points="1143.5,-433.5 1025.5,-433.5 1025.5,-403 1143.5,-403 1143.5,-433.5"/>
<text text-anchor="start" x="1033.5" y="-420" font-family="Helvetica,sans-Serif" font-size="10.00">fabomatic::FabBackend</text>
<text text-anchor="middle" x="1084.5" y="-408.75" font-family="Helvetica,sans-Serif" font-size="10.00">::processQuery</text>
</a>
</g>
</g>
<!-- Node2&#45;&gt;Node3 -->
<g id="edge2_Node000002_Node000003" class="edge">
<title>Node2&#45;&gt;Node3</title>
<g id="a_edge2_Node000002_Node000003"><a xlink:title=" ">
<path fill="none" stroke="#63b8ff" d="M1226.59,-272.03C1211.42,-303.19 1182.28,-355.63 1144.25,-389.25 1138.45,-394.37 1131.59,-398.82 1124.64,-402.59"/>
<polygon fill="#63b8ff" stroke="#63b8ff" points="1229.6,-273.86 1230.72,-263.32 1223.27,-270.86 1229.6,-273.86"/>
</a>
</g>
</g>
<!-- Node4 -->
<g id="Node000004" class="node">
<title>Node4</title>
<g id="a_Node000004"><a xlink:href="classfabomatic_1_1_board_logic.xhtml#aa0d3d3aa742eba1ffd00b97868ce7edc" target="_top" xlink:title="connects and polls the server for up&#45;to&#45;date machine information">
<polygon fill="white" stroke="#666666" points="1140.88,-347.5 1028.12,-347.5 1028.12,-317 1140.88,-317 1140.88,-347.5"/>
<text text-anchor="start" x="1036.12" y="-334" font-family="Helvetica,sans-Serif" font-size="10.00">fabomatic::BoardLogic</text>
<text text-anchor="middle" x="1084.5" y="-322.75" font-family="Helvetica,sans-Serif" font-size="10.00">::refreshFromServer</text>
</a>
</g>
</g>
<!-- Node2&#45;&gt;Node4 -->
<g id="edge3_Node000002_Node000004" class="edge">
<title>Node2&#45;&gt;Node4</title>
<g id="a_edge3_Node000002_Node000004"><a xlink:title=" ">
<path fill="none" stroke="#63b8ff" d="M1204.51,-267.68C1186.79,-278.69 1164.58,-292.1 1144.25,-303.25 1135.97,-307.79 1126.89,-312.44 1118.39,-316.64"/>
<polygon fill="#63b8ff" stroke="#63b8ff" points="1205.94,-270.91 1212.57,-262.65 1202.23,-264.98 1205.94,-270.91"/>
</a>
</g>
</g>
<!-- Node18 -->
<g id="Node000018" class="node">
<title>Node18</title>
<g id="a_Node000018"><a xlink:href="namespacefabomatic.xhtml#ae7de89faffd3bb8805727b8a1092a198" target="_top" xlink:title="Opens WiFi and server connection and updates board state accordingly.">
<polygon fill="white" stroke="#666666" points="988.75,-381.88 870.75,-381.88 870.75,-362.62 988.75,-362.62 988.75,-381.88"/>
<text text-anchor="middle" x="929.75" y="-368.38" font-family="Helvetica,sans-Serif" font-size="10.00">fabomatic::taskConnect</text>
</a>
</g>
</g>
<!-- Node2&#45;&gt;Node18 -->
<g id="edge31_Node000002_Node000018" class="edge">
<title>Node2&#45;&gt;Node18</title>
<g id="a_edge31_Node000002_Node000018"><a xlink:title=" ">
<path fill="none" stroke="#63b8ff" d="M1224.85,-271.34C1209.31,-297.62 1181.04,-337.6 1144.25,-356.25 1096.18,-380.62 1034.07,-382.52 989.25,-379.58"/>
<polygon fill="#63b8ff" stroke="#63b8ff" points="1227.69,-273.42 1229.61,-263 1221.61,-269.95 1227.69,-273.42"/>
</a>
</g>
</g>
<!-- Node20 -->
<g id="Node000020" class="node">
<title>Node20</title>
<g id="a_Node000020"><a xlink:href="namespacefabomatic_1_1tests.xhtml#a88a4242d48bfa4a0337df522d303c367" target="_top" xlink:title="Opens WiFi and server connection and updates board state accordingly.">
<polygon fill="white" stroke="#666666" points="982.75,-304.5 876.75,-304.5 876.75,-274 982.75,-274 982.75,-304.5"/>
<text text-anchor="start" x="884.75" y="-291" font-family="Helvetica,sans-Serif" font-size="10.00">fabomatic::tests::test</text>
<text text-anchor="middle" x="929.75" y="-279.75" font-family="Helvetica,sans-Serif" font-size="10.00">_taskConnect</text>
</a>
</g>
</g>
<!-- Node2&#45;&gt;Node20 -->
<g id="edge38_Node000002_Node000020" class="edge">
<title>Node2&#45;&gt;Node20</title>
<g id="a_edge38_Node000002_Node000020"><a xlink:title=" ">
<path fill="none" stroke="#63b8ff" d="M1171.79,-264.63C1162.59,-266.76 1153.22,-268.72 1144.25,-270.25 1089.6,-279.6 1026.24,-284.5 982.82,-286.97"/>
<polygon fill="#63b8ff" stroke="#63b8ff" points="1172.52,-268.05 1181.43,-262.31 1170.89,-261.25 1172.52,-268.05"/>
</a>
</g>
</g>
<!-- Node21 -->
<g id="Node000021" class="node">
<title>Node21</title>
<g id="a_Node000021"><a xlink:href="namespacefabomatic_1_1tests.xhtml#a95c3d2a5cfa25e610ac054894d766f73" target="_top" xlink:title=" ">
<polygon fill="white" stroke="#666666" points="1138.62,-261.5 1030.38,-261.5 1030.38,-231 1138.62,-231 1138.62,-261.5"/>
<text text-anchor="start" x="1038.38" y="-248" font-family="Helvetica,sans-Serif" font-size="10.00">fabomatic::tests::test</text>
<text text-anchor="middle" x="1084.5" y="-236.75" font-family="Helvetica,sans-Serif" font-size="10.00">_check_transmission</text>
</a>
</g>
</g>
<!-- Node2&#45;&gt;Node21 -->
<g id="edge32_Node000002_Node000021" class="edge">
<title>Node2&#45;&gt;Node21</title>
<g id="a_edge32_Node000002_Node000021"><a xlink:title=" ">
<path fill="none" stroke="#63b8ff" d="M1168.86,-246.25C1158.84,-246.25 1148.65,-246.25 1139,-246.25"/>
<polygon fill="#63b8ff" stroke="#63b8ff" points="1168.55,-249.75 1178.55,-246.25 1168.55,-242.75 1168.55,-249.75"/>
</a>
</g>
</g>
<!-- Node23 -->
<g id="Node000023" class="node">
<title>Node23</title>
<g id="a_Node000023"><a xlink:href="namespacefabomatic_1_1tests.xhtml#a438b9060c27d36e89506199205b342cb" target="_top" xlink:title=" ">
<polygon fill="white" stroke="#666666" points="982.75,-177.5 876.75,-177.5 876.75,-147 982.75,-147 982.75,-177.5"/>
<text text-anchor="start" x="884.75" y="-164" font-family="Helvetica,sans-Serif" font-size="10.00">fabomatic::tests::test</text>
<text text-anchor="middle" x="929.75" y="-152.75" font-family="Helvetica,sans-Serif" font-size="10.00">_fabserver_calls</text>
</a>
</g>
</g>
<!-- Node2&#45;&gt;Node23 -->
<g id="edge34_Node000002_Node000023" class="edge">
<title>Node2&#45;&gt;Node23</title>
<g id="a_edge34_Node000002_Node000023"><a xlink:title=" ">
<path fill="none" stroke="#63b8ff" d="M1216.17,-222.64C1198.53,-205.53 1172.21,-183.64 1144.25,-173.25 1091.89,-153.79 1027.31,-153.41 982.97,-156.4"/>
<polygon fill="#63b8ff" stroke="#63b8ff" points="1213.49,-224.91 1223.03,-229.52 1218.44,-219.97 1213.49,-224.91"/>
</a>
</g>
</g>
<!-- Node24 -->
<g id="Node000024" class="node">
<title>Node24</title>
<g id="a_Node000024"><a xlink:href="namespacefabomatic_1_1tests.xhtml#aba7f55ee91c2d2a647fca6c8cc106c97" target="_top" xlink:title=" ">
<polygon fill="white" stroke="#666666" points="1137.5,-212.5 1031.5,-212.5 1031.5,-182 1137.5,-182 1137.5,-212.5"/>
<text text-anchor="start" x="1039.5" y="-199" font-family="Helvetica,sans-Serif" font-size="10.00">fabomatic::tests::test</text>
<text text-anchor="middle" x="1084.5" y="-187.75" font-family="Helvetica,sans-Serif" font-size="10.00">_start_broker</text>
</a>
</g>
</g>
<!-- Node2&#45;&gt;Node24 -->
<g id="edge36_Node000002_Node000024" class="edge">
<title>Node2&#45;&gt;Node24</title>
<g id="a_edge36_Node000002_Node000024"><a xlink:title=" ">
<path fill="none" stroke="#63b8ff" d="M1178.56,-227.1C1164,-222.43 1148.58,-217.49 1134.57,-212.99"/>
<polygon fill="#63b8ff" stroke="#63b8ff" points="1177.47,-230.43 1188.06,-230.15 1179.6,-223.76 1177.47,-230.43"/>
</a>
</g>
</g>
<!-- Node25 -->
<g id="Node000025" class="node">
<title>Node25</title>
<g id="a_Node000025"><a xlink:href="classfabomatic_1_1_auth_provider.xhtml#aeae9923535dcf6cfa9eaf9e5f90e5e64" target="_top" xlink:title="Verifies the card ID against the server (if available) or the whitelist.">
<polygon fill="white" stroke="#666666" points="1144.25,-126.5 1024.75,-126.5 1024.75,-96 1144.25,-96 1144.25,-126.5"/>
<text text-anchor="start" x="1032.75" y="-113" font-family="Helvetica,sans-Serif" font-size="10.00">fabomatic::AuthProvider</text>
<text text-anchor="middle" x="1084.5" y="-101.75" font-family="Helvetica,sans-Serif" font-size="10.00">::tryLogin</text>
</a>
</g>
</g>
<!-- Node2&#45;&gt;Node25 -->
<g id="edge39_Node000002_Node000025" class="edge">
<title>Node2&#45;&gt;Node25</title>
<g id="a_edge39_Node000002_Node000025"><a xlink:title=" ">
<path fill="none" stroke="#63b8ff" d="M1220.89,-221.69C1203.53,-198.46 1175.04,-163.75 1144.25,-140.25 1137.74,-135.28 1130.24,-130.81 1122.83,-126.96"/>
<polygon fill="#63b8ff" stroke="#63b8ff" points="1217.99,-223.66 1226.73,-229.65 1223.64,-219.52 1217.99,-223.66"/>
</a>
</g>
</g>
<!-- Node29 -->
<g id="Node000029" class="node">
<title>Node29</title>
<g id="a_Node000029"><a xlink:href="classfabomatic_1_1_fab_backend.xhtml#a04951b9823ac466be2285640171013e5" target="_top" xlink:title="Waits for an answer from the MQTT server.">
<polygon fill="white" stroke="#666666" points="1143.5,-53.5 1025.5,-53.5 1025.5,-23 1143.5,-23 1143.5,-53.5"/>
<text text-anchor="start" x="1033.5" y="-40" font-family="Helvetica,sans-Serif" font-size="10.00">fabomatic::FabBackend</text>
<text text-anchor="middle" x="1084.5" y="-28.75" font-family="Helvetica,sans-Serif" font-size="10.00">::waitForAnswer</text>
</a>
</g>
</g>
<!-- Node2&#45;&gt;Node29 -->
<g id="edge46_Node000002_Node000029" class="edge">
<title>Node2&#45;&gt;Node29</title>
<g id="a_edge46_Node000002_Node000029"><a xlink:title=" ">
<path fill="none" stroke="#63b8ff" d="M1226.46,-220.5C1210.62,-187.53 1180.27,-129.61 1144.25,-87.25 1133.58,-74.7 1119.46,-62.82 1107.74,-53.89"/>
<polygon fill="#63b8ff" stroke="#63b8ff" points="1223.18,-221.75 1230.61,-229.3 1229.51,-218.76 1223.18,-221.75"/>
</a>
</g>
</g>
<!-- Node5 -->
<g id="Node000005" class="node">
<title>Node5</title>
<g id="a_Node000005"><a xlink:href="classfabomatic_1_1_board_logic.xhtml#a983c8de8b9c8881fc0a4e60dddc7f0c6" target="_top" xlink:title="Called when a RFID tag has been detected.">
<polygon fill="white" stroke="#666666" points="834.75,-198.5 722,-198.5 722,-168 834.75,-168 834.75,-198.5"/>
<text text-anchor="start" x="730" y="-185" font-family="Helvetica,sans-Serif" font-size="10.00">fabomatic::BoardLogic</text>
<text text-anchor="middle" x="778.38" y="-173.75" font-family="Helvetica,sans-Serif" font-size="10.00">::onNewCard</text>
</a>
</g>
</g>
<!-- Node4&#45;&gt;Node5 -->
<g id="edge4_Node000004_Node000005" class="edge">
<title>Node4&#45;&gt;Node5</title>
<g id="a_edge4_Node000004_Node000005"><a xlink:title=" ">
<path fill="none" stroke="#63b8ff" d="M1016.4,-343.92C970.69,-347.98 911.33,-345.15 870.75,-313.25 831.64,-282.5 868.47,-243.84 834.75,-207.25 831.84,-204.09 828.44,-201.33 824.78,-198.92"/>
<polygon fill="#63b8ff" stroke="#63b8ff" points="1016.61,-347.41 1026.2,-342.9 1015.89,-340.45 1016.61,-347.41"/>
</a>
</g>
</g>
<!-- Node4&#45;&gt;Node18 -->
<g id="edge28_Node000004_Node000018" class="edge">
<title>Node4&#45;&gt;Node18</title>
<g id="a_edge28_Node000004_Node000018"><a xlink:title=" ">
<path fill="none" stroke="#63b8ff" d="M1016.81,-349.71C1000.58,-353.96 983.75,-358.37 969.32,-362.15"/>
<polygon fill="#63b8ff" stroke="#63b8ff" points="1017.67,-353.11 1026.46,-347.19 1015.9,-346.33 1017.67,-353.11"/>
</a>
</g>
</g>
<!-- Node4&#45;&gt;Node20 -->
<g id="edge30_Node000004_Node000020" class="edge">
<title>Node4&#45;&gt;Node20</title>
<g id="a_edge30_Node000004_Node000020"><a xlink:title=" ">
<path fill="none" stroke="#63b8ff" d="M1017.16,-313.58C1005.81,-310.38 994.16,-307.1 983.23,-304.02"/>
<polygon fill="#63b8ff" stroke="#63b8ff" points="1015.89,-316.85 1026.46,-316.19 1017.79,-310.12 1015.89,-316.85"/>
</a>
</g>
</g>
<!-- Node6 -->
<g id="Node000006" class="node">
<title>Node6</title>
<g id="a_Node000006"><a xlink:href="classfabomatic_1_1_board_logic.xhtml#a25bdc3a49d850aa49f92faf951b68efb" target="_top" xlink:title="Checks if a new card is present.">
<polygon fill="white" stroke="#666666" points="686,-274.5 573.25,-274.5 573.25,-244 686,-244 686,-274.5"/>
<text text-anchor="start" x="581.25" y="-261" font-family="Helvetica,sans-Serif" font-size="10.00">fabomatic::BoardLogic</text>
<text text-anchor="middle" x="629.62" y="-249.75" font-family="Helvetica,sans-Serif" font-size="10.00">::checkRfid</text>
</a>
</g>
</g>
<!-- Node5&#45;&gt;Node6 -->
<g id="edge5_Node000005_Node000006" class="edge">
<title>Node5&#45;&gt;Node6</title>
<g id="a_edge5_Node000005_Node000006"><a xlink:title=" ">
<path fill="none" stroke="#63b8ff" d="M729.3,-203.71C726.82,-204.88 724.37,-206.07 722,-207.25 699.3,-218.59 674.31,-232.94 656.21,-243.7"/>
<polygon fill="#63b8ff" stroke="#63b8ff" points="730.59,-206.96 738.22,-199.61 727.67,-200.6 730.59,-206.96"/>
</a>
</g>
</g>
<!-- Node7 -->
<g id="Node000007" class="node">
<title>Node7</title>
<g id="a_Node000007"><a xlink:href="namespacefabomatic_1_1tests.xhtml#a2600320f41c9fa343c66058ecb12b5ee" target="_top" xlink:title="Simulates RFID card tap.">
<polygon fill="white" stroke="#666666" points="537.25,-274.5 411,-274.5 411,-244 537.25,-244 537.25,-274.5"/>
<text text-anchor="start" x="419" y="-261" font-family="Helvetica,sans-Serif" font-size="10.00">fabomatic::tests::simulate</text>
<text text-anchor="middle" x="474.12" y="-249.75" font-family="Helvetica,sans-Serif" font-size="10.00">_rfid_card</text>
</a>
</g>
</g>
<!-- Node6&#45;&gt;Node7 -->
<g id="edge6_Node000006_Node000007" class="edge">
<title>Node6&#45;&gt;Node7</title>
<g id="a_edge6_Node000006_Node000007"><a xlink:title=" ">
<path fill="none" stroke="#63b8ff" d="M561.38,-259.25C553.5,-259.25 545.49,-259.25 537.69,-259.25"/>
<polygon fill="#63b8ff" stroke="#63b8ff" points="561.26,-262.75 571.26,-259.25 561.26,-255.75 561.26,-262.75"/>
</a>
</g>
</g>
<!-- Node14 -->
<g id="Node000014" class="node">
<title>Node14</title>
<g id="a_Node000014"><a xlink:href="namespacefabomatic_1_1tests.xhtml#aab0f4e1439b281ffef8be51db9a81f9d" target="_top" xlink:title=" ">
<polygon fill="white" stroke="#666666" points="191.75,-192.5 79,-192.5 79,-162 191.75,-162 191.75,-192.5"/>
<text text-anchor="start" x="87" y="-179" font-family="Helvetica,sans-Serif" font-size="10.00">fabomatic::tests::test</text>
<text text-anchor="middle" x="135.38" y="-167.75" font-family="Helvetica,sans-Serif" font-size="10.00">_whitelist_no_network</text>
</a>
</g>
</g>
<!-- Node6&#45;&gt;Node14 -->
<g id="edge27_Node000006_Node000014" class="edge">
<title>Node6&#45;&gt;Node14</title>
<g id="a_edge27_Node000006_Node000014"><a xlink:title=" ">
<path fill="none" stroke="#63b8ff" d="M571.75,-240.06C520.84,-223.79 443.83,-201.36 375,-190.25 312.95,-180.23 240.77,-177.52 192.18,-176.97"/>
<polygon fill="#63b8ff" stroke="#63b8ff" points="570.49,-243.34 581.09,-243.08 572.64,-236.67 570.49,-243.34"/>
</a>
</g>
</g>
<!-- Node16 -->
<g id="Node000016" class="node">
<title>Node16</title>
<g id="a_Node000016"><a xlink:href="namespacefabomatic.xhtml#a3e5c190499522bddad3f3cc69274f16c" target="_top" xlink:title="periodic check for new RFID card">
<polygon fill="white" stroke="#666666" points="537.25,-360.88 411,-360.88 411,-341.62 537.25,-341.62 537.25,-360.88"/>
<text text-anchor="middle" x="474.12" y="-347.38" font-family="Helvetica,sans-Serif" font-size="10.00">fabomatic::taskCheckRfid</text>
</a>
</g>
</g>
<!-- Node6&#45;&gt;Node16 -->
<g id="edge25_Node000006_Node000016" class="edge">
<title>Node6&#45;&gt;Node16</title>
<g id="a_edge25_Node000006_Node000016"><a xlink:title=" ">
<path fill="none" stroke="#63b8ff" d="M604.7,-282.58C587.24,-298.5 562.33,-319.02 537.25,-332.25 530.67,-335.72 523.35,-338.67 516.11,-341.13"/>
<polygon fill="#63b8ff" stroke="#63b8ff" points="607.08,-285.15 612.01,-275.77 602.31,-280.03 607.08,-285.15"/>
</a>
</g>
</g>
<!-- Node17 -->
<g id="Node000017" class="node">
<title>Node17</title>
<g id="a_Node000017"><a xlink:href="namespacefabomatic_1_1tests.xhtml#a294b4767ecf1e1d11cc31dafb2541d23" target="_top" xlink:title="periodic check for new RFID card">
<polygon fill="white" stroke="#666666" points="527.12,-323.5 421.12,-323.5 421.12,-293 527.12,-293 527.12,-323.5"/>
<text text-anchor="start" x="429.12" y="-310" font-family="Helvetica,sans-Serif" font-size="10.00">fabomatic::tests::test</text>
<text text-anchor="middle" x="474.12" y="-298.75" font-family="Helvetica,sans-Serif" font-size="10.00">_taskCheckRfid</text>
</a>
</g>
</g>
<!-- Node6&#45;&gt;Node17 -->
<g id="edge26_Node000006_Node000017" class="edge">
<title>Node6&#45;&gt;Node17</title>
<g id="a_edge26_Node000006_Node000017"><a xlink:title=" ">
<path fill="none" stroke="#63b8ff" d="M569.08,-278.26C554.31,-282.97 538.65,-287.97 524.44,-292.51"/>
<polygon fill="#63b8ff" stroke="#63b8ff" points="569.73,-281.72 578.19,-275.35 567.6,-275.06 569.73,-281.72"/>
</a>
</g>
</g>
<!-- Node8 -->
<g id="Node000008" class="node">
<title>Node8</title>
<g id="a_Node000008"><a xlink:href="namespacefabomatic_1_1tests.xhtml#a6a7645a865dc822746f972ea6f43224d" target="_top" xlink:title="Resets machine to initial state, clearing flags.">
<polygon fill="white" stroke="#666666" points="375,-268.88 230.75,-268.88 230.75,-249.62 375,-249.62 375,-268.88"/>
<text text-anchor="middle" x="302.88" y="-255.38" font-family="Helvetica,sans-Serif" font-size="10.00">fabomatic::tests::machine_init</text>
</a>
</g>
</g>
<!-- Node7&#45;&gt;Node8 -->
<g id="edge7_Node000007_Node000008" class="edge">
<title>Node7&#45;&gt;Node8</title>
<g id="a_edge7_Node000007_Node000008"><a xlink:title=" ">
<path fill="none" stroke="#63b8ff" d="M399.12,-259.25C391.21,-259.25 383.18,-259.25 375.3,-259.25"/>
<polygon fill="#63b8ff" stroke="#63b8ff" points="399.07,-262.75 409.07,-259.25 399.07,-255.75 399.07,-262.75"/>
</a>
</g>
</g>
<!-- Node9 -->
<g id="Node000009" class="node">
<title>Node9</title>
<g id="a_Node000009"><a xlink:href="namespacefabomatic_1_1tests.xhtml#a558e2287db01a4622581246a19dac397" target="_top" xlink:title=" ">
<polygon fill="white" stroke="#666666" points="188.38,-339.5 82.38,-339.5 82.38,-309 188.38,-309 188.38,-339.5"/>
<text text-anchor="start" x="90.38" y="-326" font-family="Helvetica,sans-Serif" font-size="10.00">fabomatic::tests::test</text>
<text text-anchor="middle" x="135.38" y="-314.75" font-family="Helvetica,sans-Serif" font-size="10.00">_machine_allowed</text>
</a>
</g>
</g>
<!-- Node7&#45;&gt;Node9 -->
<g id="edge18_Node000007_Node000009" class="edge">
<title>Node7&#45;&gt;Node9</title>
<g id="a_edge18_Node000007_Node000009"><a xlink:title=" ">
<path fill="none" stroke="#63b8ff" d="M423.25,-278.74C407.96,-284.11 390.96,-289.49 375,-293.25 311.77,-308.15 237.31,-316.38 188.59,-320.56"/>
<polygon fill="#63b8ff" stroke="#63b8ff" points="424.39,-282.05 432.62,-275.36 422.02,-275.46 424.39,-282.05"/>
</a>
</g>
</g>
<!-- Node11 -->
<g id="Node000011" class="node">
<title>Node11</title>
<g id="a_Node000011"><a xlink:href="namespacefabomatic_1_1tests.xhtml#a9a34631c2dc01cbdbbce146895c94e12" target="_top" xlink:title=" ">
<polygon fill="white" stroke="#666666" points="194.75,-290.5 76,-290.5 76,-260 194.75,-260 194.75,-290.5"/>
<text text-anchor="start" x="84" y="-277" font-family="Helvetica,sans-Serif" font-size="10.00">fabomatic::tests::test</text>
<text text-anchor="middle" x="135.38" y="-265.75" font-family="Helvetica,sans-Serif" font-size="10.00">_machine_maintenance</text>
</a>
</g>
</g>
<!-- Node7&#45;&gt;Node11 -->
<g id="edge19_Node000007_Node000011" class="edge">
<title>Node7&#45;&gt;Node11</title>
<g id="a_edge19_Node000007_Node000011"><a xlink:title=" ">
<path fill="none" stroke="#63b8ff" d="M399.44,-275.09C391.23,-276.38 382.96,-277.49 375,-278.25 313.76,-284.12 243.27,-282.17 194.87,-279.5"/>
<polygon fill="#63b8ff" stroke="#63b8ff" points="399.8,-278.58 409.08,-273.46 398.63,-271.67 399.8,-278.58"/>
</a>
</g>
</g>
<!-- Node12 -->
<g id="Node000012" class="node">
<title>Node12</title>
<g id="a_Node000012"><a xlink:href="namespacefabomatic_1_1tests.xhtml#a6f3dff17fd964aba76c35c514957a0a5" target="_top" xlink:title=" ">
<polygon fill="white" stroke="#666666" points="189.88,-241.5 80.88,-241.5 80.88,-211 189.88,-211 189.88,-241.5"/>
<text text-anchor="start" x="88.88" y="-228" font-family="Helvetica,sans-Serif" font-size="10.00">fabomatic::tests::test</text>
<text text-anchor="middle" x="135.38" y="-216.75" font-family="Helvetica,sans-Serif" font-size="10.00">_one_user_at_a_time</text>
</a>
</g>
</g>
<!-- Node7&#45;&gt;Node12 -->
<g id="edge22_Node000007_Node000012" class="edge">
<title>Node7&#45;&gt;Node12</title>
<g id="a_edge22_Node000007_Node000012"><a xlink:title=" ">
<path fill="none" stroke="#63b8ff" d="M399.39,-243.88C391.18,-242.5 382.93,-241.25 375,-240.25 311.8,-232.31 238.59,-228.86 190.11,-227.37"/>
<polygon fill="#63b8ff" stroke="#63b8ff" points="398.56,-247.29 409.02,-245.58 399.78,-240.4 398.56,-247.29"/>
</a>
</g>
</g>
<!-- Node13 -->
<g id="Node000013" class="node">
<title>Node13</title>
<g id="a_Node000013"><a xlink:href="namespacefabomatic_1_1tests.xhtml#afa92fef9250d918ee02c79dbf2de2546" target="_top" xlink:title=" ">
<polygon fill="white" stroke="#666666" points="188.38,-388.5 82.38,-388.5 82.38,-358 188.38,-358 188.38,-388.5"/>
<text text-anchor="start" x="90.38" y="-375" font-family="Helvetica,sans-Serif" font-size="10.00">fabomatic::tests::test</text>
<text text-anchor="middle" x="135.38" y="-363.75" font-family="Helvetica,sans-Serif" font-size="10.00">_user_autologoff</text>
</a>
</g>
</g>
<!-- Node7&#45;&gt;Node13 -->
<g id="edge23_Node000007_Node000013" class="edge">
<title>Node7&#45;&gt;Node13</title>
<g id="a_edge23_Node000007_Node000013"><a xlink:title=" ">
<path fill="none" stroke="#63b8ff" d="M418.07,-280.06C415.64,-281.4 413.27,-282.79 411,-284.25 392.47,-296.12 394.4,-307.86 375,-318.25 315.78,-349.96 238.77,-363.48 188.48,-369.18"/>
<polygon fill="#63b8ff" stroke="#63b8ff" points="419.61,-283.2 426.98,-275.59 416.47,-276.95 419.61,-283.2"/>
</a>
</g>
</g>
<!-- Node7&#45;&gt;Node14 -->
<g id="edge24_Node000007_Node000014" class="edge">
<title>Node7&#45;&gt;Node14</title>
<g id="a_edge24_Node000007_Node000014"><a xlink:title=" ">
<path fill="none" stroke="#63b8ff" d="M421.44,-239.88C406.58,-234.71 390.26,-229.41 375,-225.25 313.03,-208.36 240.52,-194.61 191.84,-186.22"/>
<polygon fill="#63b8ff" stroke="#63b8ff" points="419.95,-243.06 430.55,-243.1 422.29,-236.46 419.95,-243.06"/>
</a>
</g>
</g>
<!-- Node15 -->
<g id="Node000015" class="node">
<title>Node15</title>
<g id="a_Node000015"><a xlink:href="namespacefabomatic_1_1tests.xhtml#af8fa7ace86309b5f699540d8898660c7" target="_top" xlink:title=" ">
<polygon fill="white" stroke="#666666" points="355.88,-431.5 249.88,-431.5 249.88,-401 355.88,-401 355.88,-431.5"/>
<text text-anchor="start" x="257.88" y="-418" font-family="Helvetica,sans-Serif" font-size="10.00">fabomatic::tests::test</text>
<text text-anchor="middle" x="302.88" y="-406.75" font-family="Helvetica,sans-Serif" font-size="10.00">_messages_buffered</text>
</a>
</g>
</g>
<!-- Node7&#45;&gt;Node15 -->
<g id="edge20_Node000007_Node000015" class="edge">
<title>Node7&#45;&gt;Node15</title>
<g id="a_edge20_Node000007_Node000015"><a xlink:title=" ">
<path fill="none" stroke="#63b8ff" d="M413.7,-281.63C412.76,-282.47 411.86,-283.35 411,-284.25 377.51,-319.33 408.41,-352.1 375,-387.25 369.67,-392.86 363.11,-397.41 356.14,-401.1"/>
<polygon fill="#63b8ff" stroke="#63b8ff" points="415.67,-284.53 421.62,-275.76 411.5,-278.9 415.67,-284.53"/>
</a>
</g>
</g>
<!-- Node8&#45;&gt;Node9 -->
<g id="edge8_Node000008_Node000009" class="edge">
<title>Node8&#45;&gt;Node9</title>
<g id="a_edge8_Node000008_Node000009"><a xlink:title=" ">
<path fill="none" stroke="#63b8ff" d="M265.7,-273.46C239.34,-283.81 203.63,-297.84 176.41,-308.53"/>
<polygon fill="#63b8ff" stroke="#63b8ff" points="266.94,-276.73 274.97,-269.82 264.38,-270.22 266.94,-276.73"/>
</a>
</g>
</g>
<!-- Node8&#45;&gt;Node11 -->
<g id="edge10_Node000008_Node000011" class="edge">
<title>Node8&#45;&gt;Node11</title>
<g id="a_edge10_Node000008_Node000011"><a xlink:title=" ">
<path fill="none" stroke="#63b8ff" d="M219.49,-267.21C211.23,-268.01 202.96,-268.81 195.02,-269.58"/>
<polygon fill="#63b8ff" stroke="#63b8ff" points="219.6,-270.72 229.22,-266.27 218.93,-263.75 219.6,-270.72"/>
</a>
</g>
</g>
<!-- Node8&#45;&gt;Node12 -->
<g id="edge12_Node000008_Node000012" class="edge">
<title>Node8&#45;&gt;Node12</title>
<g id="a_edge12_Node000008_Node000012"><a xlink:title=" ">
<path fill="none" stroke="#63b8ff" d="M240.21,-246.95C223.84,-243.69 206.28,-240.19 190.35,-237.01"/>
<polygon fill="#63b8ff" stroke="#63b8ff" points="239.34,-250.35 249.84,-248.87 240.71,-243.49 239.34,-250.35"/>
</a>
</g>
</g>
<!-- Node8&#45;&gt;Node13 -->
<g id="edge14_Node000008_Node000013" class="edge">
<title>Node8&#45;&gt;Node13</title>
<g id="a_edge14_Node000008_Node000013"><a xlink:title=" ">
<path fill="none" stroke="#63b8ff" d="M283.98,-276.92C263.66,-296.29 228.89,-327.37 194.75,-348.25 189.3,-351.59 183.32,-354.69 177.33,-357.51"/>
<polygon fill="#63b8ff" stroke="#63b8ff" points="286.16,-279.69 290.91,-270.22 281.29,-274.65 286.16,-279.69"/>
</a>
</g>
</g>
<!-- Node8&#45;&gt;Node14 -->
<g id="edge16_Node000008_Node000014" class="edge">
<title>Node8&#45;&gt;Node14</title>
<g id="a_edge16_Node000008_Node000014"><a xlink:title=" ">
<path fill="none" stroke="#63b8ff" d="M274.27,-243.73C252.83,-231.89 222.22,-215.41 194.75,-202.25 188.19,-199.11 181.13,-195.92 174.27,-192.93"/>
<polygon fill="#63b8ff" stroke="#63b8ff" points="272.53,-246.77 282.97,-248.57 275.93,-240.65 272.53,-246.77"/>
</a>
</g>
</g>
<!-- Node10 -->
<g id="Node000010" class="node">
<title>Node10</title>
<g id="a_Node000010"><a xlink:href="test__logic_8cpp.xhtml#a4fc01d736fe50cf5b977f755b675f11d" target="_top" xlink:title=" ">
<polygon fill="white" stroke="#666666" points="40,-308.88 0,-308.88 0,-289.62 40,-289.62 40,-308.88"/>
<text text-anchor="middle" x="20" y="-295.38" font-family="Helvetica,sans-Serif" font-size="10.00">setup</text>
</a>
</g>
</g>
<!-- Node9&#45;&gt;Node10 -->
<g id="edge9_Node000009_Node000010" class="edge">
<title>Node9&#45;&gt;Node10</title>
<g id="a_edge9_Node000009_Node000010"><a xlink:title=" ">
<path fill="none" stroke="#63b8ff" d="M70.85,-310.24C59.76,-307.8 49.01,-305.43 40.36,-303.52"/>
<polygon fill="#63b8ff" stroke="#63b8ff" points="70,-313.64 80.52,-312.38 71.51,-306.8 70,-313.64"/>
</a>
</g>
</g>
<!-- Node11&#45;&gt;Node10 -->
<g id="edge11_Node000011_Node000010" class="edge">
<title>Node11&#45;&gt;Node10</title>
<g id="a_edge11_Node000011_Node000010"><a xlink:title=" ">
<path fill="none" stroke="#63b8ff" d="M64.44,-290.05C55.69,-291.91 47.39,-293.66 40.43,-295.14"/>
<polygon fill="#63b8ff" stroke="#63b8ff" points="65.16,-293.48 74.21,-287.99 63.71,-286.63 65.16,-293.48"/>
</a>
</g>
</g>
<!-- Node12&#45;&gt;Node10 -->
<g id="edge13_Node000012_Node000010" class="edge">
<title>Node12&#45;&gt;Node10</title>
<g id="a_edge13_Node000012_Node000010"><a xlink:title=" ">
<path fill="none" stroke="#63b8ff" d="M83.1,-247.09C80.66,-248.43 78.28,-249.81 76,-251.25 58.4,-262.31 40.78,-278.9 30.39,-289.39"/>
<polygon fill="#63b8ff" stroke="#63b8ff" points="84.67,-250.21 92,-242.56 81.5,-243.98 84.67,-250.21"/>
</a>
</g>
</g>
<!-- Node13&#45;&gt;Node10 -->
<g id="edge15_Node000013_Node000010" class="edge">
<title>Node13&#45;&gt;Node10</title>
<g id="a_edge15_Node000013_Node000010"><a xlink:title=" ">
<path fill="none" stroke="#63b8ff" d="M82.96,-352.37C80.57,-351.05 78.24,-349.67 76,-348.25 58.3,-337 40.71,-320.05 30.35,-309.33"/>
<polygon fill="#63b8ff" stroke="#63b8ff" points="81.17,-355.39 91.66,-356.84 84.36,-349.16 81.17,-355.39"/>
</a>
</g>
</g>
<!-- Node14&#45;&gt;Node10 -->
<g id="edge17_Node000014_Node000010" class="edge">
<title>Node14&#45;&gt;Node10</title>
<g id="a_edge17_Node000014_Node000010"><a xlink:title=" ">
<path fill="none" stroke="#63b8ff" d="M79.85,-199.07C78.52,-200.09 77.23,-201.15 76,-202.25 48.01,-227.29 30.86,-270.08 24.19,-289.34"/>
<polygon fill="#63b8ff" stroke="#63b8ff" points="81.48,-202.19 87.93,-193.78 77.65,-196.33 81.48,-202.19"/>
</a>
</g>
</g>
<!-- Node15&#45;&gt;Node10 -->
<g id="edge21_Node000015_Node000010" class="edge">
<title>Node15&#45;&gt;Node10</title>
<g id="a_edge21_Node000015_Node000010"><a xlink:title=" ">
<path fill="none" stroke="#63b8ff" d="M238.26,-426.05C189.98,-430.11 123.95,-428.1 76,-397.25 43.68,-376.46 28.53,-329.63 23.27,-309.15"/>
<polygon fill="#63b8ff" stroke="#63b8ff" points="238.38,-429.56 248,-425.12 237.71,-422.59 238.38,-429.56"/>
</a>
</g>
</g>
<!-- Node19 -->
<g id="Node000019" class="node">
<title>Node19</title>
<g id="a_Node000019"><a xlink:href="main_8cpp.xhtml#a4fc01d736fe50cf5b977f755b675f11d" target="_top" xlink:title=" ">
<polygon fill="white" stroke="#666666" points="798.38,-381.88 758.38,-381.88 758.38,-362.62 798.38,-362.62 798.38,-381.88"/>
<text text-anchor="middle" x="778.38" y="-368.38" font-family="Helvetica,sans-Serif" font-size="10.00">setup</text>
</a>
</g>
</g>
<!-- Node18&#45;&gt;Node19 -->
<g id="edge29_Node000018_Node000019" class="edge">
<title>Node18&#45;&gt;Node19</title>
<g id="a_edge29_Node000018_Node000019"><a xlink:title=" ">
<path fill="none" stroke="#63b8ff" d="M859.36,-372.25C837.05,-372.25 814.11,-372.25 798.55,-372.25"/>
<polygon fill="#63b8ff" stroke="#63b8ff" points="859.06,-375.75 869.06,-372.25 859.06,-368.75 859.06,-375.75"/>
</a>
</g>
</g>
<!-- Node22 -->
<g id="Node000022" class="node">
<title>Node22</title>
<g id="a_Node000022"><a xlink:href="test__mqtt_8cpp.xhtml#a4fc01d736fe50cf5b977f755b675f11d" target="_top" xlink:title=" ">
<polygon fill="white" stroke="#666666" points="798.38,-235.88 758.38,-235.88 758.38,-216.62 798.38,-216.62 798.38,-235.88"/>
<text text-anchor="middle" x="778.38" y="-222.38" font-family="Helvetica,sans-Serif" font-size="10.00">setup</text>
</a>
</g>
</g>
<!-- Node21&#45;&gt;Node22 -->
<g id="edge33_Node000021_Node000022" class="edge">
<title>Node21&#45;&gt;Node22</title>
<g id="a_edge33_Node000021_Node000022"><a xlink:title=" ">
<path fill="none" stroke="#63b8ff" d="M1018.88,-242C949.07,-237.41 842,-230.37 798.62,-227.52"/>
<polygon fill="#63b8ff" stroke="#63b8ff" points="1018.46,-245.48 1028.67,-242.64 1018.92,-238.5 1018.46,-245.48"/>
</a>
</g>
</g>
<!-- Node23&#45;&gt;Node22 -->
<g id="edge35_Node000023_Node000022" class="edge">
<title>Node23&#45;&gt;Node22</title>
<g id="a_edge35_Node000023_Node000022"><a xlink:title=" ">
<path fill="none" stroke="#63b8ff" d="M887.95,-183.05C871.6,-191.05 852.47,-200 834.75,-207.25 822.99,-212.06 809.51,-216.71 798.8,-220.2"/>
<polygon fill="#63b8ff" stroke="#63b8ff" points="889.48,-186.2 896.89,-178.63 886.38,-179.93 889.48,-186.2"/>
</a>
</g>
</g>
<!-- Node24&#45;&gt;Node22 -->
<g id="edge37_Node000024_Node000022" class="edge">
<title>Node24&#45;&gt;Node22</title>
<g id="a_edge37_Node000024_Node000022"><a xlink:title=" ">
<path fill="none" stroke="#63b8ff" d="M1019.95,-203.31C950.24,-209.96 842.46,-220.23 798.76,-224.4"/>
<polygon fill="#63b8ff" stroke="#63b8ff" points="1020.09,-206.81 1029.71,-202.38 1019.43,-199.84 1020.09,-206.81"/>
</a>
</g>
</g>
<!-- Node25&#45;&gt;Node23 -->
<g id="edge43_Node000025_Node000023" class="edge">
<title>Node25&#45;&gt;Node23</title>
<g id="a_edge43_Node000025_Node000023"><a xlink:title=" ">
<path fill="none" stroke="#63b8ff" d="M1025.67,-130.56C1009.82,-135.85 992.83,-141.52 977.67,-146.58"/>
<polygon fill="#63b8ff" stroke="#63b8ff" points="1026.61,-133.93 1034.99,-127.45 1024.39,-127.29 1026.61,-133.93"/>
</a>
</g>
</g>
<!-- Node26 -->
<g id="Node000026" class="node">
<title>Node26</title>
<g id="a_Node000026"><a xlink:href="classfabomatic_1_1_board_logic.xhtml#a51390e6bf10c4de427abd7f175a2e6a8" target="_top" xlink:title="Checks if the card UID is valid, and tries to check the user in to the machine.">
<polygon fill="white" stroke="#666666" points="986.12,-128.5 873.38,-128.5 873.38,-98 986.12,-98 986.12,-128.5"/>
<text text-anchor="start" x="881.38" y="-115" font-family="Helvetica,sans-Serif" font-size="10.00">fabomatic::BoardLogic</text>
<text text-anchor="middle" x="929.75" y="-103.75" font-family="Helvetica,sans-Serif" font-size="10.00">::authorize</text>
</a>
</g>
</g>
<!-- Node25&#45;&gt;Node26 -->
<g id="edge40_Node000025_Node000026" class="edge">
<title>Node25&#45;&gt;Node26</title>
<g id="a_edge40_Node000025_Node000026"><a xlink:title=" ">
<path fill="none" stroke="#63b8ff" d="M1013.09,-112.17C1004.05,-112.29 994.9,-112.41 986.14,-112.52"/>
<polygon fill="#63b8ff" stroke="#63b8ff" points="1012.98,-115.67 1022.93,-112.04 1012.88,-108.67 1012.98,-115.67"/>
</a>
</g>
</g>
<!-- Node27 -->
<g id="Node000027" class="node">
<title>Node27</title>
<g id="a_Node000027"><a xlink:href="namespacefabomatic_1_1tests.xhtml#aeb3e51f6d2841cd2869df4c0629f694d" target="_top" xlink:title=" ">
<polygon fill="white" stroke="#666666" points="982.75,-79.5 876.75,-79.5 876.75,-49 982.75,-49 982.75,-79.5"/>
<text text-anchor="start" x="884.75" y="-66" font-family="Helvetica,sans-Serif" font-size="10.00">fabomatic::tests::test</text>
<text text-anchor="middle" x="929.75" y="-54.75" font-family="Helvetica,sans-Serif" font-size="10.00">_rfid_cache</text>
</a>
</g>
</g>
<!-- Node25&#45;&gt;Node27 -->
<g id="edge44_Node000025_Node000027" class="edge">
<title>Node25&#45;&gt;Node27</title>
<g id="a_edge44_Node000025_Node000027"><a xlink:title=" ">
<path fill="none" stroke="#63b8ff" d="M1021.71,-92.24C1008.5,-88.17 994.68,-83.92 981.91,-79.99"/>
<polygon fill="#63b8ff" stroke="#63b8ff" points="1020.6,-95.56 1031.19,-95.15 1022.66,-88.87 1020.6,-95.56"/>
</a>
</g>
</g>
<!-- Node26&#45;&gt;Node5 -->
<g id="edge41_Node000026_Node000005" class="edge">
<title>Node26&#45;&gt;Node5</title>
<g id="a_edge41_Node000026_Node000005"><a xlink:title=" ">
<path fill="none" stroke="#63b8ff" d="M881.03,-133.59C877.54,-135.15 874.09,-136.71 870.75,-138.25 850.36,-147.66 827.71,-158.81 810.06,-167.65"/>
<polygon fill="#63b8ff" stroke="#63b8ff" points="882.37,-136.82 890.11,-129.59 879.55,-130.42 882.37,-136.82"/>
</a>
</g>
</g>
<!-- Node26&#45;&gt;Node14 -->
<g id="edge42_Node000026_Node000014" class="edge">
<title>Node26&#45;&gt;Node14</title>
<g id="a_edge42_Node000026_Node000014"><a xlink:title=" ">
<path fill="none" stroke="#63b8ff" d="M861.7,-111.13C801.28,-109.4 710.02,-107.25 630.62,-107.25 630.62,-107.25 630.62,-107.25 473.12,-107.25 367.13,-107.25 246.23,-140.9 182.05,-161.54"/>
<polygon fill="#63b8ff" stroke="#63b8ff" points="861.38,-114.62 871.47,-111.41 861.58,-107.62 861.38,-114.62"/>
</a>
</g>
</g>
<!-- Node28 -->
<g id="Node000028" class="node">
<title>Node28</title>
<g id="a_Node000028"><a xlink:href="test__savedconfig_8cpp.xhtml#a4fc01d736fe50cf5b977f755b675f11d" target="_top" xlink:title=" ">
<polygon fill="white" stroke="#666666" points="798.38,-73.88 758.38,-73.88 758.38,-54.62 798.38,-54.62 798.38,-73.88"/>
<text text-anchor="middle" x="778.38" y="-60.38" font-family="Helvetica,sans-Serif" font-size="10.00">setup</text>
</a>
</g>
</g>
<!-- Node27&#45;&gt;Node28 -->
<g id="edge45_Node000027_Node000028" class="edge">
<title>Node27&#45;&gt;Node28</title>
<g id="a_edge45_Node000027_Node000028"><a xlink:title=" ">
<path fill="none" stroke="#63b8ff" d="M865.26,-64.25C841.27,-64.25 815.69,-64.25 798.75,-64.25"/>
<polygon fill="#63b8ff" stroke="#63b8ff" points="864.99,-67.75 874.99,-64.25 864.99,-60.75 864.99,-67.75"/>
</a>
</g>
</g>
<!-- Node30 -->
<g id="Node000030" class="node">
<title>Node30</title>
<g id="a_Node000030"><a xlink:href="classfabomatic_1_1_fab_backend.xhtml#a0510999bee5e4fe5d31d7ad5496f889c" target="_top" xlink:title="Publishes a message on the MQTT server.">
<polygon fill="white" stroke="#666666" points="988.75,-30.5 870.75,-30.5 870.75,0 988.75,0 988.75,-30.5"/>
<text text-anchor="start" x="878.75" y="-17" font-family="Helvetica,sans-Serif" font-size="10.00">fabomatic::FabBackend</text>
<text text-anchor="middle" x="929.75" y="-5.75" font-family="Helvetica,sans-Serif" font-size="10.00">::publish</text>
</a>
</g>
</g>
<!-- Node29&#45;&gt;Node30 -->
<g id="edge47_Node000029_Node000030" class="edge">
<title>Node29&#45;&gt;Node30</title>
<g id="a_edge47_Node000029_Node000030"><a xlink:title=" ">
<path fill="none" stroke="#63b8ff" d="M1014.03,-27.79C1005.67,-26.53 997.2,-25.26 989.03,-24.02"/>
<polygon fill="#63b8ff" stroke="#63b8ff" points="1013.41,-31.24 1023.82,-29.26 1014.45,-24.31 1013.41,-31.24"/>
</a>
</g>
</g>
</g>
</svg>
