<?xml version="1.0" encoding="UTF-8" standalone="no"?>
<!DOCTYPE svg PUBLIC "-//W3C//DTD SVG 1.1//EN"
 "http://www.w3.org/Graphics/SVG/1.1/DTD/svg11.dtd">
<!-- Generated by graphviz version 9.0.0 (20230911.1827)
 -->
<!-- Title: fabomatic::BoardLogic::setRebootRequest Pages: 1 -->
<svg width="545pt" height="79pt"
 viewBox="0.00 0.00 545.25 78.83" xmlns="http://www.w3.org/2000/svg" xmlns:xlink="http://www.w3.org/1999/xlink">
<g id="graph0" class="graph" transform="scale(1 1) rotate(0) translate(4 74.83)">
<title>fabomatic::BoardLogic::setRebootRequest</title>
<!-- Node1 -->
<g id="Node000001" class="node">
<title>Node1</title>
<g id="a_Node000001"><a xlink:title=" ">
<polygon fill="#999999" stroke="#666666" points="537.25,-42.88 424.5,-42.88 424.5,-12.37 537.25,-12.37 537.25,-42.88"/>
<text text-anchor="start" x="432.5" y="-29.38" font-family="Helvetica,sans-Serif" font-size="10.00">fabomatic::BoardLogic</text>
<text text-anchor="middle" x="480.88" y="-18.12" font-family="Helvetica,sans-Serif" font-size="10.00">::setRebootRequest</text>
</a>
</g>
</g>
<!-- Node2 -->
<g id="Node000002" class="node">
<title>Node2</title>
<g id="a_Node000002"><a xlink:href="namespacefabomatic.xhtml#abb6b42355a3cffaa13e06fd3fea763b2" target="_top" xlink:title="Open the ArduinoOTA configuration portal.">
<polygon fill="white" stroke="#666666" points="388.5,-56.25 251.75,-56.25 251.75,-37 388.5,-37 388.5,-56.25"/>
<text text-anchor="middle" x="320.12" y="-42.75" font-family="Helvetica,sans-Serif" font-size="10.00">fabomatic::openConfigPortal</text>
</a>
</g>
</g>
<!-- Node1&#45;&gt;Node2 -->
<g id="edge1_Node000001_Node000002" class="edge">
<title>Node1&#45;&gt;Node2</title>
<g id="a_edge1_Node000001_Node000002"><a xlink:title=" ">
<path fill="none" stroke="#63b8ff" d="M413.17,-35.61C405.14,-36.57 396.95,-37.55 388.91,-38.51"/>
<polygon fill="#63b8ff" stroke="#63b8ff" points="413.34,-39.11 422.85,-34.45 412.5,-32.16 413.34,-39.11"/>
</a>
</g>
</g>
<!-- Node5 -->
<g id="Node000005" class="node">
<title>Node5</title>
<g id="a_Node000005"><a xlink:href="namespacefabomatic.xhtml#a77e12974f277568ed32e1f793c89326c" target="_top" xlink:title=" ">
<polygon fill="white" stroke="#666666" points="382.5,-19.25 257.75,-19.25 257.75,0 382.5,0 382.5,-19.25"/>
<text text-anchor="middle" x="320.12" y="-5.75" font-family="Helvetica,sans-Serif" font-size="10.00">fabomatic::OTAComplete</text>
</a>
</g>
</g>
<!-- Node1&#45;&gt;Node5 -->
<g id="edge4_Node000001_Node000005" class="edge">
<title>Node1&#45;&gt;Node5</title>
<g id="a_edge4_Node000001_Node000005"><a xlink:title=" ">
<path fill="none" stroke="#63b8ff" d="M413.16,-20.06C403.11,-18.92 392.79,-17.75 382.85,-16.62"/>
<polygon fill="#63b8ff" stroke="#63b8ff" points="412.52,-23.51 422.85,-21.16 413.31,-16.55 412.52,-23.51"/>
</a>
</g>
</g>
<!-- Node3 -->
<g id="Node000003" class="node">
<title>Node3</title>
<g id="a_Node000003"><a xlink:href="main_8cpp.xhtml#a4fc01d736fe50cf5b977f755b675f11d" target="_top" xlink:title=" ">
<polygon fill="white" stroke="#666666" points="40,-56.25 0,-56.25 0,-37 40,-37 40,-56.25"/>
<text text-anchor="middle" x="20" y="-42.75" font-family="Helvetica,sans-Serif" font-size="10.00">setup</text>
</a>
</g>
</g>
<!-- Node2&#45;&gt;Node3 -->
<g id="edge2_Node000002_Node000003" class="edge">
<title>Node2&#45;&gt;Node3</title>
<g id="a_edge2_Node000002_Node000003"><a xlink:title=" ">
<path fill="none" stroke="#63b8ff" d="M262.92,-58.73C213.42,-67.57 139.53,-76.29 76,-65.62 63.85,-63.58 50.78,-59.17 40.44,-55.12"/>
<polygon fill="#63b8ff" stroke="#63b8ff" points="263.34,-62.21 272.54,-56.95 262.07,-55.33 263.34,-62.21"/>
</a>
</g>
</g>
<!-- Node4 -->
<g id="Node000004" class="node">
<title>Node4</title>
<g id="a_Node000004"><a xlink:href="namespacefabomatic.xhtml#a2c7ad2690e92eb8ab98b6fadaa4df2bd" target="_top" xlink:title=" ">
<polygon fill="white" stroke="#666666" points="215.75,-56.25 76,-56.25 76,-37 215.75,-37 215.75,-56.25"/>
<text text-anchor="middle" x="145.88" y="-42.75" font-family="Helvetica,sans-Serif" font-size="10.00">fabomatic::taskFactoryReset</text>
</a>
</g>
</g>
<!-- Node2&#45;&gt;Node4 -->
<g id="edge3_Node000002_Node000004" class="edge">
<title>Node2&#45;&gt;Node4</title>
<g id="a_edge3_Node000002_Node000004"><a xlink:title=" ">
<path fill="none" stroke="#63b8ff" d="M240.29,-46.62C232.26,-46.62 224.16,-46.62 216.25,-46.62"/>
<polygon fill="#63b8ff" stroke="#63b8ff" points="240.03,-50.13 250.03,-46.63 240.03,-43.13 240.03,-50.13"/>
</a>
</g>
</g>
<!-- Node6 -->
<g id="Node000006" class="node">
<title>Node6</title>
<g id="a_Node000006"><a xlink:href="namespacefabomatic.xhtml#a53440db527e478f13eaa71bbd46120c3" target="_top" xlink:title="Initialization of the Arduino OTA library with settings for fabomatic.">
<polygon fill="white" stroke="#666666" points="199.62,-19.25 92.12,-19.25 92.12,0 199.62,0 199.62,-19.25"/>
<text text-anchor="middle" x="145.88" y="-5.75" font-family="Helvetica,sans-Serif" font-size="10.00">fabomatic::setupOTA</text>
</a>
</g>
</g>
<!-- Node5&#45;&gt;Node6 -->
<g id="edge5_Node000005_Node000006" class="edge">
<title>Node5&#45;&gt;Node6</title>
<g id="a_edge5_Node000005_Node000006"><a xlink:title=" ">
<path fill="none" stroke="#63b8ff" d="M246.23,-9.62C230.67,-9.62 214.53,-9.62 199.88,-9.62"/>
<polygon fill="#63b8ff" stroke="#63b8ff" points="245.91,-13.13 255.91,-9.63 245.91,-6.13 245.91,-13.13"/>
</a>
</g>
</g>
<!-- Node6&#45;&gt;Node3 -->
<g id="edge6_Node000006_Node000003" class="edge">
<title>Node6&#45;&gt;Node3</title>
<g id="a_edge6_Node000006_Node000003"><a xlink:title=" ">
<path fill="none" stroke="#63b8ff" d="M93.2,-22.67C87.38,-24.27 81.55,-25.94 76,-27.62 64.11,-31.23 50.95,-35.75 40.48,-39.49"/>
<polygon fill="#63b8ff" stroke="#63b8ff" points="94.1,-26.05 102.84,-20.07 92.28,-19.29 94.1,-26.05"/>
</a>
</g>
</g>
</g>
</svg>
