<?xml version="1.0" encoding="UTF-8" standalone="no"?>
<!DOCTYPE svg PUBLIC "-//W3C//DTD SVG 1.1//EN"
 "http://www.w3.org/Graphics/SVG/1.1/DTD/svg11.dtd">
<!-- Generated by graphviz version 9.0.0 (20230911.1827)
 -->
<!-- Title: fabomatic::MQTTInterface::UserResponse Pages: 1 -->
<svg width="219pt" height="377pt"
 viewBox="0.00 0.00 218.50 377.25" xmlns="http://www.w3.org/2000/svg" xmlns:xlink="http://www.w3.org/1999/xlink">

<svg id="main" version="1.1" xmlns="http://www.w3.org/2000/svg" xmlns:xlink="http://www.w3.org/1999/xlink" xml:space="preserve" onload="init(evt)">
<style type="text/css"><![CDATA[
.node, .edge {opacity: 0.7;}
.node.selected, .edge.selected {opacity: 1;}
.edge:hover path { stroke: red; }
.edge:hover polygon { stroke: red; fill: red; }
]]></style>
<script type="application/ecmascript" xlink:href="svg.min.js"/>
<svg id="graph" class="graph">
<g id="graph0" class="graph" transform="scale(1 1) rotate(0) translate(4 373.25)">
<title>fabomatic::MQTTInterface::UserResponse</title>
<!-- Node1 -->
<g id="Node000001" class="node">
<title>Node1</title>
<g id="a_Node000001"><a xlink:title="Backend response for a user authentication query.">
<polygon fill="#999999" stroke="none" points="139,-150 16,-150 16,0 139,0 139,-150"/>
<text text-anchor="start" x="20.88" y="-136.5" font-family="Helvetica,sans-Serif" font-size="10.00">fabomatic::MQTTInterface</text>
<text text-anchor="start" x="43" y="-125.25" font-family="Helvetica,sans-Serif" font-size="10.00">::UserResponse</text>
<text text-anchor="start" x="28.5" y="-110.5" font-family="Helvetica,sans-Serif" font-size="10.00">+</text>
<text text-anchor="start" x="47" y="-110.5" font-family="Helvetica,sans-Serif" font-size="10.00">result</text>
<text text-anchor="start" x="28.5" y="-95.5" font-family="Helvetica,sans-Serif" font-size="10.00">+</text>
<text text-anchor="start" x="47" y="-95.5" font-family="Helvetica,sans-Serif" font-size="10.00">user_level</text>
<text text-anchor="start" x="28.5" y="-80.5" font-family="Helvetica,sans-Serif" font-size="10.00">+</text>
<text text-anchor="start" x="47" y="-80.5" font-family="Helvetica,sans-Serif" font-size="10.00">UserResponse()</text>
<text text-anchor="start" x="28.5" y="-65.5" font-family="Helvetica,sans-Serif" font-size="10.00">+</text>
<text text-anchor="start" x="47" y="-65.5" font-family="Helvetica,sans-Serif" font-size="10.00">UserResponse()</text>
<text text-anchor="start" x="28.5" y="-50.5" font-family="Helvetica,sans-Serif" font-size="10.00">+</text>
<text text-anchor="start" x="47" y="-50.5" font-family="Helvetica,sans-Serif" font-size="10.00">UserResponse()</text>
<text text-anchor="start" x="28.5" y="-35.5" font-family="Helvetica,sans-Serif" font-size="10.00">+</text>
<text text-anchor="start" x="47" y="-35.5" font-family="Helvetica,sans-Serif" font-size="10.00">getResult()</text>
<text text-anchor="start" x="28.5" y="-20.5" font-family="Helvetica,sans-Serif" font-size="10.00">+</text>
<text text-anchor="start" x="47" y="-20.5" font-family="Helvetica,sans-Serif" font-size="10.00">toString()</text>
<text text-anchor="start" x="28.5" y="-5.5" font-family="Helvetica,sans-Serif" font-size="10.00">+</text>
<text text-anchor="start" x="47" y="-5.5" font-family="Helvetica,sans-Serif" font-size="10.00">fromJson()</text>
<polygon fill="#666666" stroke="#666666" points="16,-122 16,-122 139,-122 139,-122 16,-122"/>
<polygon fill="#666666" stroke="#666666" points="16,-92 16,-92 45,-92 45,-92 16,-92"/>
<polygon fill="#666666" stroke="#666666" points="45,-92 45,-92 139,-92 139,-92 45,-92"/>
<polygon fill="none" stroke="#666666" points="16,0 16,-150 139,-150 139,0 16,0"/>
</a>
</g>
</g>
<!-- Node2 -->
<g id="Node000002" class="node">
<title>Node2</title>
<g id="a_Node000002"><a xlink:href="classfabomatic_1_1_m_q_t_t_interface_1_1_response.xhtml" target="_top" xlink:title="Base class for server replies.">
<polygon fill="white" stroke="none" points="123,-272.25 0,-272.25 0,-197.25 123,-197.25 123,-272.25"/>
<text text-anchor="start" x="4.88" y="-258.75" font-family="Helvetica,sans-Serif" font-size="10.00">fabomatic::MQTTInterface</text>
<text text-anchor="start" x="37.5" y="-247.5" font-family="Helvetica,sans-Serif" font-size="10.00">::Response</text>
<text text-anchor="start" x="18" y="-232.75" font-family="Helvetica,sans-Serif" font-size="10.00">+</text>
<text text-anchor="start" x="42" y="-232.75" font-family="Helvetica,sans-Serif" font-size="10.00">request_ok</text>
<text text-anchor="start" x="18" y="-217.75" font-family="Helvetica,sans-Serif" font-size="10.00">+</text>
<text text-anchor="start" x="42" y="-217.75" font-family="Helvetica,sans-Serif" font-size="10.00">Response()</text>
<text text-anchor="start" x="18" y="-202.75" font-family="Helvetica,sans-Serif" font-size="10.00">+</text>
<text text-anchor="start" x="42" y="-202.75" font-family="Helvetica,sans-Serif" font-size="10.00">Response()</text>
<polygon fill="#666666" stroke="#666666" points="0,-244.25 0,-244.25 123,-244.25 123,-244.25 0,-244.25"/>
<polygon fill="#666666" stroke="#666666" points="0,-229.25 0,-229.25 40,-229.25 40,-229.25 0,-229.25"/>
<polygon fill="#666666" stroke="#666666" points="40,-229.25 40,-229.25 123,-229.25 123,-229.25 40,-229.25"/>
<polygon fill="none" stroke="#666666" points="0,-197.25 0,-272.25 123,-272.25 123,-197.25 0,-197.25"/>
</a>
</g>
</g>
<!-- Node2&#45;&gt;Node1 -->
<g id="edge1_Node000001_Node000002" class="edge">
<title>Node2&#45;&gt;Node1</title>
<g id="a_edge1_Node000001_Node000002"><a xlink:title=" ">
<path fill="none" stroke="#63b8ff" d="M66.33,-186.11C67.49,-174.71 68.75,-162.28 69.99,-150"/>
<polygon fill="none" stroke="#63b8ff" points="62.85,-185.75 65.32,-196.05 69.81,-186.46 62.85,-185.75"/>
</a>
</g>
</g>
<!-- Node3 -->
<g id="Node000003" class="node">
<title>Node3</title>
<g id="a_Node000003"><a xlink:title=" ">
<polygon fill="white" stroke="none" points="193.5,-259.25 141.5,-259.25 141.5,-210.25 193.5,-210.25 193.5,-259.25"/>
<text text-anchor="start" x="146.5" y="-245.75" font-family="Helvetica,sans-Serif" font-size="10.00">std::string</text>
<text text-anchor="start" x="166" y="-230.75" font-family="Helvetica,sans-Serif" font-size="10.00"> </text>
<text text-anchor="start" x="166" y="-215.75" font-family="Helvetica,sans-Serif" font-size="10.00"> </text>
<polygon fill="#666666" stroke="#666666" points="141.5,-242.25 141.5,-242.25 193.5,-242.25 193.5,-242.25 141.5,-242.25"/>
<polygon fill="#666666" stroke="#666666" points="141.5,-227.25 141.5,-227.25 193.5,-227.25 193.5,-227.25 141.5,-227.25"/>
<polygon fill="none" stroke="#666666" points="141.5,-210.25 141.5,-259.25 193.5,-259.25 193.5,-210.25 141.5,-210.25"/>
</a>
</g>
</g>
<!-- Node3&#45;&gt;Node1 -->
<g id="edge2_Node000001_Node000003" class="edge">
<title>Node3&#45;&gt;Node1</title>
<g id="a_edge2_Node000001_Node000003"><a xlink:title=" ">
<path fill="none" stroke="#63b8ff" d="M154.22,-210.47C146.53,-197 136.33,-179.11 125.88,-160.8"/>
<polygon fill="none" stroke="#63b8ff" points="125.94,-160.9 119.49,-157.67 119.99,-150.47 126.44,-153.7 125.94,-160.9"/>
</a>
</g>
<text text-anchor="middle" x="167.38" y="-169.75" font-family="Helvetica,sans-Serif" font-size="10.00" fill="grey"> +holder_name</text>
</g>
<!-- Node4 -->
<g id="Node000004" class="node">
<title>Node4</title>
<g id="a_Node000004"><a xlink:title=" ">
<polygon fill="white" stroke="none" points="210.5,-369.25 124.5,-369.25 124.5,-309.25 210.5,-309.25 210.5,-369.25"/>
<text text-anchor="start" x="129.25" y="-355.75" font-family="Helvetica,sans-Serif" font-size="10.00">std::basic_string&lt;</text>
<text text-anchor="start" x="152.12" y="-344.5" font-family="Helvetica,sans-Serif" font-size="10.00"> Char &gt;</text>
<text text-anchor="start" x="166" y="-329.75" font-family="Helvetica,sans-Serif" font-size="10.00"> </text>
<text text-anchor="start" x="166" y="-314.75" font-family="Helvetica,sans-Serif" font-size="10.00"> </text>
<polygon fill="#666666" stroke="#666666" points="124.5,-341.25 124.5,-341.25 210.5,-341.25 210.5,-341.25 124.5,-341.25"/>
<polygon fill="#666666" stroke="#666666" points="124.5,-326.25 124.5,-326.25 210.5,-326.25 210.5,-326.25 124.5,-326.25"/>
<polygon fill="none" stroke="#666666" points="124.5,-309.25 124.5,-369.25 210.5,-369.25 210.5,-309.25 124.5,-309.25"/>
</a>
</g>
</g>
<!-- Node4&#45;&gt;Node3 -->
<g id="edge3_Node000003_Node000004" class="edge">
<title>Node4&#45;&gt;Node3</title>
<g id="a_edge3_Node000003_Node000004"><a xlink:title=" ">
<path fill="none" stroke="#63b8ff" d="M167.5,-298.18C167.5,-284.98 167.5,-270.73 167.5,-259.19"/>
<polygon fill="none" stroke="#63b8ff" points="164,-297.91 167.5,-307.91 171,-297.91 164,-297.91"/>
</a>
</g>
</g>
</g>
</svg>
</svg>

<style type='text/css'>
<![CDATA[
[data-mouse-over-selected='false'] { opacity: 0.7; }
[data-mouse-over-selected='true']  { opacity: 1.0; }
]]>
</style>
<script type="application/ecmascript"><![CDATA[
document.addEventListener('DOMContentLoaded', (event) => {
  highlightEdges();
  highlightAdjacentNodes();
});
]]></script>
</svg>
