<?xml version="1.0" encoding="UTF-8" standalone="no"?>
<!DOCTYPE svg PUBLIC "-//W3C//DTD SVG 1.1//EN"
 "http://www.w3.org/Graphics/SVG/1.1/DTD/svg11.dtd">
<!-- Generated by graphviz version 9.0.0 (20230911.1827)
 -->
<!-- Title: Graphical Class Hierarchy Pages: 1 -->
<svg width="311pt" height="370pt"
 viewBox="0.00 0.00 310.75 369.88" xmlns="http://www.w3.org/2000/svg" xmlns:xlink="http://www.w3.org/1999/xlink">
<g id="graph0" class="graph" transform="scale(1 1) rotate(0) translate(4 365.88)">
<title>Graphical Class Hierarchy</title>
<!-- Node0 -->
<g id="Node000000" class="node">
<title>Node0</title>
<g id="a_Node000000"><a xlink:href="classfabomatic_1_1_m_q_t_t_interface_1_1_query.xhtml" target="_top" xlink:title="base class for all MQTT request to the backend">
<polygon fill="white" stroke="#666666" points="129.25,-201.5 0,-201.5 0,-171 129.25,-171 129.25,-201.5"/>
<text text-anchor="start" x="8" y="-188" font-family="Helvetica,sans-Serif" font-size="10.00">fabomatic::MQTTInterface</text>
<text text-anchor="middle" x="64.62" y="-176.75" font-family="Helvetica,sans-Serif" font-size="10.00">::Query</text>
</a>
</g>
</g>
<!-- Node1 -->
<g id="Node000001" class="node">
<title>Node1</title>
<g id="a_Node000001"><a xlink:href="classfabomatic_1_1_buffered_query.xhtml" target="_top" xlink:title="Query to be replayed.">
<polygon fill="white" stroke="#666666" points="296.38,-361.88 171.62,-361.88 171.62,-342.62 296.38,-342.62 296.38,-361.88"/>
<text text-anchor="middle" x="234" y="-348.38" font-family="Helvetica,sans-Serif" font-size="10.00">fabomatic::BufferedQuery</text>
</a>
</g>
</g>
<!-- Node0&#45;&gt;Node1 -->
<g id="edge2_Node000000_Node000001" class="edge">
<title>Node0&#45;&gt;Node1</title>
<g id="a_edge2_Node000000_Node000001"><a xlink:title=" ">
<path fill="none" stroke="#63b8ff" d="M76.27,-212.01C91.24,-245.06 121.65,-301.84 165.25,-333.25 170.3,-336.89 176.03,-339.84 181.97,-342.22"/>
<polygon fill="#63b8ff" stroke="#63b8ff" points="79.61,-210.93 72.39,-203.17 73.2,-213.74 79.61,-210.93"/>
</a>
</g>
</g>
<!-- Node2 -->
<g id="Node000002" class="node">
<title>Node2</title>
<g id="a_Node000002"><a xlink:href="classfabomatic_1_1_m_q_t_t_interface_1_1_alive_query.xhtml" target="_top" xlink:title="board status notification">
<polygon fill="white" stroke="#666666" points="298.62,-324.5 169.38,-324.5 169.38,-294 298.62,-294 298.62,-324.5"/>
<text text-anchor="start" x="177.38" y="-311" font-family="Helvetica,sans-Serif" font-size="10.00">fabomatic::MQTTInterface</text>
<text text-anchor="middle" x="234" y="-299.75" font-family="Helvetica,sans-Serif" font-size="10.00">::AliveQuery</text>
</a>
</g>
</g>
<!-- Node0&#45;&gt;Node2 -->
<g id="edge3_Node000000_Node000002" class="edge">
<title>Node0&#45;&gt;Node2</title>
<g id="a_edge3_Node000000_Node000002"><a xlink:title=" ">
<path fill="none" stroke="#63b8ff" d="M85.13,-210.62C103.72,-232.48 133.52,-264.12 165.25,-284.25 170.76,-287.74 176.82,-290.85 182.99,-293.58"/>
<polygon fill="#63b8ff" stroke="#63b8ff" points="87.93,-208.52 78.84,-203.08 82.55,-213 87.93,-208.52"/>
</a>
</g>
</g>
<!-- Node3 -->
<g id="Node000003" class="node">
<title>Node3</title>
<g id="a_Node000003"><a xlink:href="classfabomatic_1_1_m_q_t_t_interface_1_1_in_use_query.xhtml" target="_top" xlink:title="periodical message when the machine is in use">
<polygon fill="white" stroke="#666666" points="298.62,-275.5 169.38,-275.5 169.38,-245 298.62,-245 298.62,-275.5"/>
<text text-anchor="start" x="177.38" y="-262" font-family="Helvetica,sans-Serif" font-size="10.00">fabomatic::MQTTInterface</text>
<text text-anchor="middle" x="234" y="-250.75" font-family="Helvetica,sans-Serif" font-size="10.00">::InUseQuery</text>
</a>
</g>
</g>
<!-- Node0&#45;&gt;Node3 -->
<g id="edge4_Node000000_Node000003" class="edge">
<title>Node0&#45;&gt;Node3</title>
<g id="a_edge4_Node000000_Node000003"><a xlink:title=" ">
<path fill="none" stroke="#63b8ff" d="M105.49,-207.03C123.53,-216.14 145.26,-226.67 165.25,-235.25 172.74,-238.46 180.79,-241.66 188.64,-244.63"/>
<polygon fill="#63b8ff" stroke="#63b8ff" points="107.18,-203.97 96.68,-202.55 104,-210.21 107.18,-203.97"/>
</a>
</g>
</g>
<!-- Node4 -->
<g id="Node000004" class="node">
<title>Node4</title>
<g id="a_Node000004"><a xlink:href="classfabomatic_1_1_m_q_t_t_interface_1_1_machine_query.xhtml" target="_top" xlink:title="machine status query">
<polygon fill="white" stroke="#666666" points="298.62,-226.5 169.38,-226.5 169.38,-196 298.62,-196 298.62,-226.5"/>
<text text-anchor="start" x="177.38" y="-213" font-family="Helvetica,sans-Serif" font-size="10.00">fabomatic::MQTTInterface</text>
<text text-anchor="middle" x="234" y="-201.75" font-family="Helvetica,sans-Serif" font-size="10.00">::MachineQuery</text>
</a>
</g>
</g>
<!-- Node0&#45;&gt;Node4 -->
<g id="edge5_Node000000_Node000004" class="edge">
<title>Node0&#45;&gt;Node4</title>
<g id="a_edge5_Node000000_Node000004"><a xlink:title=" ">
<path fill="none" stroke="#63b8ff" d="M140.5,-197.43C150.06,-198.86 159.78,-200.31 169.15,-201.71"/>
<polygon fill="#63b8ff" stroke="#63b8ff" points="141.28,-194.01 130.88,-196 140.25,-200.94 141.28,-194.01"/>
</a>
</g>
</g>
<!-- Node5 -->
<g id="Node000005" class="node">
<title>Node5</title>
<g id="a_Node000005"><a xlink:href="classfabomatic_1_1_m_q_t_t_interface_1_1_register_maintenance_query.xhtml" target="_top" xlink:title="Maintenance action record.">
<polygon fill="white" stroke="#666666" points="302.75,-177.5 165.25,-177.5 165.25,-147 302.75,-147 302.75,-177.5"/>
<text text-anchor="start" x="173.25" y="-164" font-family="Helvetica,sans-Serif" font-size="10.00">fabomatic::MQTTInterface</text>
<text text-anchor="middle" x="234" y="-152.75" font-family="Helvetica,sans-Serif" font-size="10.00">::RegisterMaintenanceQuery</text>
</a>
</g>
</g>
<!-- Node0&#45;&gt;Node5 -->
<g id="edge6_Node000000_Node000005" class="edge">
<title>Node0&#45;&gt;Node5</title>
<g id="a_edge6_Node000000_Node000005"><a xlink:title=" ">
<path fill="none" stroke="#63b8ff" d="M140.7,-175.48C148.78,-174.33 156.97,-173.15 164.97,-172.01"/>
<polygon fill="#63b8ff" stroke="#63b8ff" points="140.28,-172.01 130.88,-176.89 141.27,-178.94 140.28,-172.01"/>
</a>
</g>
</g>
<!-- Node6 -->
<g id="Node000006" class="node">
<title>Node6</title>
<g id="a_Node000006"><a xlink:href="classfabomatic_1_1_m_q_t_t_interface_1_1_start_use_query.xhtml" target="_top" xlink:title="start of machine use">
<polygon fill="white" stroke="#666666" points="298.62,-128.5 169.38,-128.5 169.38,-98 298.62,-98 298.62,-128.5"/>
<text text-anchor="start" x="177.38" y="-115" font-family="Helvetica,sans-Serif" font-size="10.00">fabomatic::MQTTInterface</text>
<text text-anchor="middle" x="234" y="-103.75" font-family="Helvetica,sans-Serif" font-size="10.00">::StartUseQuery</text>
</a>
</g>
</g>
<!-- Node0&#45;&gt;Node6 -->
<g id="edge7_Node000000_Node000006" class="edge">
<title>Node0&#45;&gt;Node6</title>
<g id="a_edge7_Node000000_Node000006"><a xlink:title=" ">
<path fill="none" stroke="#63b8ff" d="M106.33,-165.55C124.23,-156.74 145.6,-146.59 165.25,-138.25 172.75,-135.07 180.81,-131.89 188.66,-128.92"/>
<polygon fill="#63b8ff" stroke="#63b8ff" points="105,-162.31 97.6,-169.89 108.11,-168.58 105,-162.31"/>
</a>
</g>
</g>
<!-- Node7 -->
<g id="Node000007" class="node">
<title>Node7</title>
<g id="a_Node000007"><a xlink:href="classfabomatic_1_1_m_q_t_t_interface_1_1_stop_use_query.xhtml" target="_top" xlink:title="end of machine use">
<polygon fill="white" stroke="#666666" points="298.62,-79.5 169.38,-79.5 169.38,-49 298.62,-49 298.62,-79.5"/>
<text text-anchor="start" x="177.38" y="-66" font-family="Helvetica,sans-Serif" font-size="10.00">fabomatic::MQTTInterface</text>
<text text-anchor="middle" x="234" y="-54.75" font-family="Helvetica,sans-Serif" font-size="10.00">::StopUseQuery</text>
</a>
</g>
</g>
<!-- Node0&#45;&gt;Node7 -->
<g id="edge8_Node000000_Node000007" class="edge">
<title>Node0&#45;&gt;Node7</title>
<g id="a_edge8_Node000000_Node000007"><a xlink:title=" ">
<path fill="none" stroke="#63b8ff" d="M85.18,-162.14C103.81,-140.51 133.63,-109.2 165.25,-89.25 170.76,-85.77 176.83,-82.67 183,-79.95"/>
<polygon fill="#63b8ff" stroke="#63b8ff" points="82.66,-159.7 78.88,-169.6 88.01,-164.21 82.66,-159.7"/>
</a>
</g>
</g>
<!-- Node8 -->
<g id="Node000008" class="node">
<title>Node8</title>
<g id="a_Node000008"><a xlink:href="classfabomatic_1_1_m_q_t_t_interface_1_1_user_query.xhtml" target="_top" xlink:title="user authentication query">
<polygon fill="white" stroke="#666666" points="298.62,-30.5 169.38,-30.5 169.38,0 298.62,0 298.62,-30.5"/>
<text text-anchor="start" x="177.38" y="-17" font-family="Helvetica,sans-Serif" font-size="10.00">fabomatic::MQTTInterface</text>
<text text-anchor="middle" x="234" y="-5.75" font-family="Helvetica,sans-Serif" font-size="10.00">::UserQuery</text>
</a>
</g>
</g>
<!-- Node0&#45;&gt;Node8 -->
<g id="edge9_Node000000_Node000008" class="edge">
<title>Node0&#45;&gt;Node8</title>
<g id="a_edge9_Node000000_Node000008"><a xlink:title=" ">
<path fill="none" stroke="#63b8ff" d="M76.95,-160.68C92.48,-128.36 123.31,-72.99 165.25,-40.25 169.8,-36.7 174.9,-33.62 180.2,-30.96"/>
<polygon fill="#63b8ff" stroke="#63b8ff" points="73.97,-158.78 72.91,-169.32 80.31,-161.74 73.97,-158.78"/>
</a>
</g>
</g>
</g>
</svg>
