<?xml version="1.0" encoding="UTF-8" standalone="no"?>
<!DOCTYPE svg PUBLIC "-//W3C//DTD SVG 1.1//EN"
 "http://www.w3.org/Graphics/SVG/1.1/DTD/svg11.dtd">
<!-- Generated by graphviz version 9.0.0 (20230911.1827)
 -->
<!-- Title: Graphical Class Hierarchy Pages: 1 -->
<svg width="283pt" height="137pt"
 viewBox="0.00 0.00 283.00 136.50" xmlns="http://www.w3.org/2000/svg" xmlns:xlink="http://www.w3.org/1999/xlink">
<g id="graph0" class="graph" transform="scale(1 1) rotate(0) translate(4 132.5)">
<title>Graphical Class Hierarchy</title>
<!-- Node0 -->
<g id="Node000000" class="node">
<title>Node0</title>
<g id="a_Node000000"><a xlink:href="classfabomatic_1_1_server_m_q_t_t_1_1_response.xhtml" target="_top" xlink:title=" ">
<polygon fill="white" stroke="#666666" points="119.5,-79.5 0,-79.5 0,-49 119.5,-49 119.5,-79.5"/>
<text text-anchor="start" x="8" y="-66" font-family="Helvetica,sans-Serif" font-size="10.00">fabomatic::ServerMQTT</text>
<text text-anchor="middle" x="59.75" y="-54.75" font-family="Helvetica,sans-Serif" font-size="10.00">::Response</text>
</a>
</g>
</g>
<!-- Node1 -->
<g id="Node000001" class="node">
<title>Node1</title>
<g id="a_Node000001"><a xlink:href="classfabomatic_1_1_server_m_q_t_t_1_1_machine_response.xhtml" target="_top" xlink:title=" ">
<polygon fill="white" stroke="#666666" points="275,-128.5 155.5,-128.5 155.5,-98 275,-98 275,-128.5"/>
<text text-anchor="start" x="163.5" y="-115" font-family="Helvetica,sans-Serif" font-size="10.00">fabomatic::ServerMQTT</text>
<text text-anchor="middle" x="215.25" y="-103.75" font-family="Helvetica,sans-Serif" font-size="10.00">::MachineResponse</text>
</a>
</g>
</g>
<!-- Node0&#45;&gt;Node1 -->
<g id="edge10_Node000000_Node000001" class="edge">
<title>Node0&#45;&gt;Node1</title>
<g id="a_edge10_Node000000_Node000001"><a xlink:title=" ">
<path fill="none" stroke="#63b8ff" d="M120.3,-83.26C135.06,-87.97 150.72,-92.97 164.94,-97.51"/>
<polygon fill="#63b8ff" stroke="#63b8ff" points="121.77,-80.06 111.18,-80.35 119.64,-86.72 121.77,-80.06"/>
</a>
</g>
</g>
<!-- Node2 -->
<g id="Node000002" class="node">
<title>Node2</title>
<g id="a_Node000002"><a xlink:href="classfabomatic_1_1_server_m_q_t_t_1_1_simple_response.xhtml" target="_top" xlink:title=" ">
<polygon fill="white" stroke="#666666" points="275,-79.5 155.5,-79.5 155.5,-49 275,-49 275,-79.5"/>
<text text-anchor="start" x="163.5" y="-66" font-family="Helvetica,sans-Serif" font-size="10.00">fabomatic::ServerMQTT</text>
<text text-anchor="middle" x="215.25" y="-54.75" font-family="Helvetica,sans-Serif" font-size="10.00">::SimpleResponse</text>
</a>
</g>
</g>
<!-- Node0&#45;&gt;Node2 -->
<g id="edge11_Node000000_Node000002" class="edge">
<title>Node0&#45;&gt;Node2</title>
<g id="a_edge11_Node000000_Node000002"><a xlink:title=" ">
<path fill="none" stroke="#63b8ff" d="M131.01,-64.25C139.11,-64.25 147.31,-64.25 155.25,-64.25"/>
<polygon fill="#63b8ff" stroke="#63b8ff" points="131.17,-60.75 121.17,-64.25 131.17,-67.75 131.17,-60.75"/>
</a>
</g>
</g>
<!-- Node3 -->
<g id="Node000003" class="node">
<title>Node3</title>
<g id="a_Node000003"><a xlink:href="classfabomatic_1_1_server_m_q_t_t_1_1_user_response.xhtml" target="_top" xlink:title=" ">
<polygon fill="white" stroke="#666666" points="275,-30.5 155.5,-30.5 155.5,0 275,0 275,-30.5"/>
<text text-anchor="start" x="163.5" y="-17" font-family="Helvetica,sans-Serif" font-size="10.00">fabomatic::ServerMQTT</text>
<text text-anchor="middle" x="215.25" y="-5.75" font-family="Helvetica,sans-Serif" font-size="10.00">::UserResponse</text>
</a>
</g>
</g>
<!-- Node0&#45;&gt;Node3 -->
<g id="edge12_Node000000_Node000003" class="edge">
<title>Node0&#45;&gt;Node3</title>
<g id="a_edge12_Node000000_Node000003"><a xlink:title=" ">
<path fill="none" stroke="#63b8ff" d="M120.3,-45.24C135.06,-40.53 150.72,-35.53 164.94,-30.99"/>
<polygon fill="#63b8ff" stroke="#63b8ff" points="119.64,-41.78 111.18,-48.15 121.77,-48.44 119.64,-41.78"/>
</a>
</g>
</g>
</g>
</svg>
