<?xml version="1.0" encoding="UTF-8" standalone="no"?>
<!DOCTYPE svg PUBLIC "-//W3C//DTD SVG 1.1//EN"
 "http://www.w3.org/Graphics/SVG/1.1/DTD/svg11.dtd">
<!-- Generated by graphviz version 9.0.0 (20230911.1827)
 -->
<!-- Title: Graphical Class Hierarchy Pages: 1 -->
<svg width="352pt" height="113pt"
 viewBox="0.00 0.00 352.00 112.88" xmlns="http://www.w3.org/2000/svg" xmlns:xlink="http://www.w3.org/1999/xlink">
<g id="graph0" class="graph" transform="scale(1 1) rotate(0) translate(4 108.88)">
<title>Graphical Class Hierarchy</title>
<!-- Node0 -->
<g id="Node000000" class="node">
<title>Node0</title>
<g id="a_Node000000"><a xlink:href="classfabomatic_1_1_m_q_t_t_1_1_response.xhtml" target="_top" xlink:title="Base class for server replies.">
<polygon fill="white" stroke="#666666" points="139,-56.25 0,-56.25 0,-37 139,-37 139,-56.25"/>
<text text-anchor="middle" x="69.5" y="-42.75" font-family="Helvetica,sans-Serif" font-size="10.00">fabomatic::MQTT::Response</text>
</a>
</g>
</g>
<!-- Node1 -->
<g id="Node000001" class="node">
<title>Node1</title>
<g id="a_Node000001"><a xlink:href="classfabomatic_1_1_m_q_t_t_1_1_machine_response.xhtml" target="_top" xlink:title="Backend response for machine status query.">
<polygon fill="white" stroke="#666666" points="325.62,-104.88 193.38,-104.88 193.38,-74.38 325.62,-74.38 325.62,-104.88"/>
<text text-anchor="start" x="201.38" y="-91.38" font-family="Helvetica,sans-Serif" font-size="10.00">fabomatic::MQTT::Machine</text>
<text text-anchor="middle" x="259.5" y="-80.12" font-family="Helvetica,sans-Serif" font-size="10.00">Response</text>
</a>
</g>
</g>
<!-- Node0&#45;&gt;Node1 -->
<g id="edge10_Node000000_Node000001" class="edge">
<title>Node0&#45;&gt;Node1</title>
<g id="a_edge10_Node000000_Node000001"><a xlink:title=" ">
<path fill="none" stroke="#63b8ff" d="M125.61,-59.23C146.71,-64.06 170.98,-69.61 192.95,-74.63"/>
<polygon fill="#63b8ff" stroke="#63b8ff" points="126.58,-55.86 116.05,-57.04 125.02,-62.69 126.58,-55.86"/>
</a>
</g>
</g>
<!-- Node2 -->
<g id="Node000002" class="node">
<title>Node2</title>
<g id="a_Node000002"><a xlink:href="classfabomatic_1_1_m_q_t_t_1_1_simple_response.xhtml" target="_top" xlink:title="Default response for all other messages.">
<polygon fill="white" stroke="#666666" points="344,-56.25 175,-56.25 175,-37 344,-37 344,-56.25"/>
<text text-anchor="middle" x="259.5" y="-42.75" font-family="Helvetica,sans-Serif" font-size="10.00">fabomatic::MQTT::SimpleResponse</text>
</a>
</g>
</g>
<!-- Node0&#45;&gt;Node2 -->
<g id="edge11_Node000000_Node000002" class="edge">
<title>Node0&#45;&gt;Node2</title>
<g id="a_edge11_Node000000_Node000002"><a xlink:title=" ">
<path fill="none" stroke="#63b8ff" d="M150.83,-46.62C158.68,-46.62 166.67,-46.62 174.56,-46.62"/>
<polygon fill="#63b8ff" stroke="#63b8ff" points="150.95,-43.13 140.95,-46.63 150.95,-50.13 150.95,-43.13"/>
</a>
</g>
</g>
<!-- Node3 -->
<g id="Node000003" class="node">
<title>Node3</title>
<g id="a_Node000003"><a xlink:href="classfabomatic_1_1_m_q_t_t_1_1_user_response.xhtml" target="_top" xlink:title="Backend response for a user authentication query.">
<polygon fill="white" stroke="#666666" points="339.5,-19.25 179.5,-19.25 179.5,0 339.5,0 339.5,-19.25"/>
<text text-anchor="middle" x="259.5" y="-5.75" font-family="Helvetica,sans-Serif" font-size="10.00">fabomatic::MQTT::UserResponse</text>
</a>
</g>
</g>
<!-- Node0&#45;&gt;Node3 -->
<g id="edge12_Node000000_Node000003" class="edge">
<title>Node0&#45;&gt;Node3</title>
<g id="a_edge12_Node000000_Node000003"><a xlink:title=" ">
<path fill="none" stroke="#63b8ff" d="M133.04,-34.32C157.12,-29.58 184.3,-24.23 207.19,-19.72"/>
<polygon fill="#63b8ff" stroke="#63b8ff" points="132.49,-30.86 123.36,-36.22 133.84,-37.73 132.49,-30.86"/>
</a>
</g>
</g>
</g>
</svg>
