<?xml version="1.0" encoding="UTF-8" standalone="no"?>
<!DOCTYPE svg PUBLIC "-//W3C//DTD SVG 1.1//EN"
 "http://www.w3.org/Graphics/SVG/1.1/DTD/svg11.dtd">
<!-- Generated by graphviz version 9.0.0 (20230911.1827)
 -->
<!-- Title: fabomatic::openConfigPortal Pages: 1 -->
<svg width="1130pt" height="630pt"
 viewBox="0.00 0.00 1129.50 629.88" xmlns="http://www.w3.org/2000/svg" xmlns:xlink="http://www.w3.org/1999/xlink">
<g id="graph0" class="graph" transform="scale(1 1) rotate(0) translate(4 625.88)">
<title>fabomatic::openConfigPortal</title>
<!-- Node1 -->
<g id="Node000001" class="node">
<title>Node1</title>
<g id="a_Node000001"><a xlink:title="Open the ArduinoOTA configuration portal.">
<polygon fill="#999999" stroke="#666666" points="136.75,-238.25 0,-238.25 0,-219 136.75,-219 136.75,-238.25"/>
<text text-anchor="middle" x="68.38" y="-224.75" font-family="Helvetica,sans-Serif" font-size="10.00">fabomatic::openConfigPortal</text>
</a>
</g>
</g>
<!-- Node2 -->
<g id="Node000002" class="node">
<title>Node2</title>
<g id="a_Node000002"><a xlink:href="classfabomatic_1_1_board_logic.xhtml#a3c38d7a3ed7952c6d6297efdf50ea4dd" target="_top" xlink:title="Sets the board in the state given.">
<polygon fill="white" stroke="#666666" points="474.38,-311.88 361.62,-311.88 361.62,-281.38 474.38,-281.38 474.38,-311.88"/>
<text text-anchor="start" x="369.62" y="-298.38" font-family="Helvetica,sans-Serif" font-size="10.00">fabomatic::BoardLogic</text>
<text text-anchor="middle" x="418" y="-287.12" font-family="Helvetica,sans-Serif" font-size="10.00">::changeStatus</text>
</a>
</g>
</g>
<!-- Node1&#45;&gt;Node2 -->
<g id="edge1_Node000001_Node000002" class="edge">
<title>Node1&#45;&gt;Node2</title>
<g id="a_edge1_Node000001_Node000002"><a xlink:title=" ">
<path fill="none" stroke="#63b8ff" d="M82.89,-238.55C101.86,-251.85 137.96,-274.89 172.75,-284.62 231.16,-300.97 300.45,-302.81 350.28,-301.24"/>
<polygon fill="#63b8ff" stroke="#63b8ff" points="350.19,-304.75 360.05,-300.87 349.92,-297.75 350.19,-304.75"/>
</a>
</g>
</g>
<!-- Node20 -->
<g id="Node000020" class="node">
<title>Node20</title>
<g id="a_Node000020"><a xlink:href="namespacefabomatic.xhtml#aaa30fd4002cc95e50c035f2d3dcdb44d" target="_top" xlink:title=" ">
<polygon fill="white" stroke="#666666" points="323,-275.25 172.75,-275.25 172.75,-256 323,-256 323,-275.25"/>
<text text-anchor="middle" x="247.88" y="-261.75" font-family="Helvetica,sans-Serif" font-size="10.00">fabomatic::configModeCallback</text>
</a>
</g>
</g>
<!-- Node1&#45;&gt;Node20 -->
<g id="edge23_Node000001_Node000020" class="edge">
<title>Node1&#45;&gt;Node20</title>
<g id="a_edge23_Node000001_Node000020"><a xlink:title=" ">
<path fill="none" stroke="#63b8ff" d="M117.88,-238.74C139.3,-243.2 164.7,-248.5 187.27,-253.2"/>
<polygon fill="#63b8ff" stroke="#63b8ff" points="186.45,-256.6 196.95,-255.22 187.87,-249.75 186.45,-256.6"/>
</a>
</g>
</g>
<!-- Node21 -->
<g id="Node000021" class="node">
<title>Node21</title>
<g id="a_Node000021"><a xlink:href="namespacefabomatic.xhtml#a412fca06536dbae1da1e3018a4fd03c6" target="_top" xlink:title=" ">
<polygon fill="white" stroke="#666666" points="299.75,-238.25 196,-238.25 196,-219 299.75,-219 299.75,-238.25"/>
<text text-anchor="middle" x="247.88" y="-224.75" font-family="Helvetica,sans-Serif" font-size="10.00">fabomatic::getConfig</text>
</a>
</g>
</g>
<!-- Node1&#45;&gt;Node21 -->
<g id="edge25_Node000001_Node000021" class="edge">
<title>Node1&#45;&gt;Node21</title>
<g id="a_edge25_Node000001_Node000021"><a xlink:title=" ">
<path fill="none" stroke="#63b8ff" d="M137.24,-228.62C152.68,-228.62 169.02,-228.62 184.23,-228.62"/>
<polygon fill="#63b8ff" stroke="#63b8ff" points="184.1,-232.13 194.1,-228.63 184.1,-225.13 184.1,-232.13"/>
</a>
</g>
</g>
<!-- Node25 -->
<g id="Node000025" class="node">
<title>Node25</title>
<g id="a_Node000025"><a xlink:href="namespacefabomatic.xhtml#a4fdef03704e4c9526605a43b8dd6549e" target="_top" xlink:title=" ">
<polygon fill="white" stroke="#666666" points="322.25,-201.25 173.5,-201.25 173.5,-182 322.25,-182 322.25,-201.25"/>
<text text-anchor="middle" x="247.88" y="-187.75" font-family="Helvetica,sans-Serif" font-size="10.00">fabomatic::saveConfigCallback</text>
</a>
</g>
</g>
<!-- Node1&#45;&gt;Node25 -->
<g id="edge29_Node000001_Node000025" class="edge">
<title>Node1&#45;&gt;Node25</title>
<g id="a_edge29_Node000001_Node000025"><a xlink:title=" ">
<path fill="none" stroke="#63b8ff" d="M117.88,-218.51C139.3,-214.05 164.7,-208.75 187.27,-204.05"/>
<polygon fill="#63b8ff" stroke="#63b8ff" points="187.87,-207.5 196.95,-202.03 186.45,-200.65 187.87,-207.5"/>
</a>
</g>
</g>
<!-- Node26 -->
<g id="Node000026" class="node">
<title>Node26</title>
<g id="a_Node000026"><a xlink:href="classfabomatic_1_1_board_logic.xhtml#a8e96c827d26aa04175d58d34d3f74e71" target="_top" xlink:title=" ">
<polygon fill="white" stroke="#666666" points="304.25,-163.88 191.5,-163.88 191.5,-133.38 304.25,-133.38 304.25,-163.88"/>
<text text-anchor="start" x="199.5" y="-150.38" font-family="Helvetica,sans-Serif" font-size="10.00">fabomatic::BoardLogic</text>
<text text-anchor="middle" x="247.88" y="-139.12" font-family="Helvetica,sans-Serif" font-size="10.00">::setRebootRequest</text>
</a>
</g>
</g>
<!-- Node1&#45;&gt;Node26 -->
<g id="edge30_Node000001_Node000026" class="edge">
<title>Node1&#45;&gt;Node26</title>
<g id="a_edge30_Node000001_Node000026"><a xlink:title=" ">
<path fill="none" stroke="#63b8ff" d="M85.74,-218.54C105.73,-206.5 140.86,-186.29 172.75,-172.62 176.28,-171.11 179.93,-169.64 183.64,-168.22"/>
<polygon fill="#63b8ff" stroke="#63b8ff" points="184.58,-171.61 192.77,-164.88 182.18,-165.03 184.58,-171.61"/>
</a>
</g>
</g>
<!-- Node3 -->
<g id="Node000003" class="node">
<title>Node3</title>
<g id="a_Node000003"><a xlink:href="classfabomatic_1_1_board_logic.xhtml#a47b4d515c0d3488eceb49769036bce8b" target="_top" xlink:title="Updates the LCD screen as per the current status.">
<polygon fill="white" stroke="#666666" points="628.38,-311.88 515.62,-311.88 515.62,-281.38 628.38,-281.38 628.38,-311.88"/>
<text text-anchor="start" x="523.62" y="-298.38" font-family="Helvetica,sans-Serif" font-size="10.00">fabomatic::BoardLogic</text>
<text text-anchor="middle" x="572" y="-287.12" font-family="Helvetica,sans-Serif" font-size="10.00">::updateLCD</text>
</a>
</g>
</g>
<!-- Node2&#45;&gt;Node3 -->
<g id="edge2_Node000002_Node000003" class="edge">
<title>Node2&#45;&gt;Node3</title>
<g id="a_edge2_Node000002_Node000003"><a xlink:title=" ">
<path fill="none" stroke="#63b8ff" d="M474.74,-296.62C484.24,-296.62 494.19,-296.62 503.95,-296.62"/>
<polygon fill="#63b8ff" stroke="#63b8ff" points="503.76,-300.13 513.76,-296.63 503.76,-293.13 503.76,-300.13"/>
</a>
</g>
</g>
<!-- Node4 -->
<g id="Node000004" class="node">
<title>Node4</title>
<g id="a_Node000004"><a xlink:href="classfabomatic_1_1_machine.xhtml#a39c30eaa242d5cc2ce784dbafeef87e8" target="_top" xlink:title=" ">
<polygon fill="white" stroke="#666666" points="776,-621.88 676,-621.88 676,-591.38 776,-591.38 776,-621.88"/>
<text text-anchor="start" x="684" y="-608.38" font-family="Helvetica,sans-Serif" font-size="10.00">fabomatic::Machine</text>
<text text-anchor="middle" x="726" y="-597.12" font-family="Helvetica,sans-Serif" font-size="10.00">::getActiveUser</text>
</a>
</g>
</g>
<!-- Node3&#45;&gt;Node4 -->
<g id="edge3_Node000003_Node000004" class="edge">
<title>Node3&#45;&gt;Node4</title>
<g id="a_edge3_Node000003_Node000004"><a xlink:title=" ">
<path fill="none" stroke="#63b8ff" d="M573.79,-312.1C576.97,-358.84 592.6,-500.34 667,-581.62 667.71,-582.4 668.45,-583.16 669.22,-583.89"/>
<polygon fill="#63b8ff" stroke="#63b8ff" points="667.01,-586.61 677.06,-589.98 671.31,-581.08 667.01,-586.61"/>
</a>
</g>
</g>
<!-- Node5 -->
<g id="Node000005" class="node">
<title>Node5</title>
<g id="a_Node000005"><a xlink:href="classfabomatic_1_1_board_logic.xhtml#a462b4b6149ca7bf33b699eb3181c969f" target="_top" xlink:title=" ">
<polygon fill="white" stroke="#666666" points="782.38,-572.88 669.62,-572.88 669.62,-542.38 782.38,-542.38 782.38,-572.88"/>
<text text-anchor="start" x="677.62" y="-559.38" font-family="Helvetica,sans-Serif" font-size="10.00">fabomatic::BoardLogic</text>
<text text-anchor="middle" x="726" y="-548.12" font-family="Helvetica,sans-Serif" font-size="10.00">::getLcd</text>
</a>
</g>
</g>
<!-- Node3&#45;&gt;Node5 -->
<g id="edge4_Node000003_Node000005" class="edge">
<title>Node3&#45;&gt;Node5</title>
<g id="a_edge4_Node000003_Node000005"><a xlink:title=" ">
<path fill="none" stroke="#63b8ff" d="M575.06,-312.36C581.28,-353.82 603.51,-467.33 667,-532.62 667.86,-533.51 668.76,-534.36 669.68,-535.19"/>
<polygon fill="#63b8ff" stroke="#63b8ff" points="667.41,-537.86 677.54,-540.98 671.57,-532.23 667.41,-537.86"/>
</a>
</g>
</g>
<!-- Node8 -->
<g id="Node000008" class="node">
<title>Node8</title>
<g id="a_Node000008"><a xlink:href="classfabomatic_1_1_board_logic.xhtml#a164e40105242d0b7c56c6b4f21155101" target="_top" xlink:title="Gets the current machine.">
<polygon fill="white" stroke="#666666" points="782.38,-523.88 669.62,-523.88 669.62,-493.38 782.38,-493.38 782.38,-523.88"/>
<text text-anchor="start" x="677.62" y="-510.38" font-family="Helvetica,sans-Serif" font-size="10.00">fabomatic::BoardLogic</text>
<text text-anchor="middle" x="726" y="-499.12" font-family="Helvetica,sans-Serif" font-size="10.00">::getMachine</text>
</a>
</g>
</g>
<!-- Node3&#45;&gt;Node8 -->
<g id="edge8_Node000003_Node000008" class="edge">
<title>Node3&#45;&gt;Node8</title>
<g id="a_edge8_Node000003_Node000008"><a xlink:title=" ">
<path fill="none" stroke="#63b8ff" d="M576.86,-312.13C586.36,-347.25 613.99,-433.65 667,-483.62 668.05,-484.62 669.15,-485.58 670.29,-486.5"/>
<polygon fill="#63b8ff" stroke="#63b8ff" points="668.17,-489.29 678.4,-492.06 672.13,-483.52 668.17,-489.29"/>
</a>
</g>
</g>
<!-- Node9 -->
<g id="Node000009" class="node">
<title>Node9</title>
<g id="a_Node000009"><a xlink:href="classfabomatic_1_1_machine.xhtml#a1637e99f2d70262d2ab26f69ed4f0e47" target="_top" xlink:title=" ">
<polygon fill="white" stroke="#666666" points="776,-474.88 676,-474.88 676,-444.38 776,-444.38 776,-474.88"/>
<text text-anchor="start" x="684" y="-461.38" font-family="Helvetica,sans-Serif" font-size="10.00">fabomatic::Machine</text>
<text text-anchor="middle" x="726" y="-450.12" font-family="Helvetica,sans-Serif" font-size="10.00">::getMachineName</text>
</a>
</g>
</g>
<!-- Node3&#45;&gt;Node9 -->
<g id="edge9_Node000003_Node000009" class="edge">
<title>Node3&#45;&gt;Node9</title>
<g id="a_edge9_Node000003_Node000009"><a xlink:title=" ">
<path fill="none" stroke="#63b8ff" d="M579.84,-311.98C592.99,-339.91 624.29,-399.39 667,-434.62 668.45,-435.82 669.97,-436.98 671.54,-438.08"/>
<polygon fill="#63b8ff" stroke="#63b8ff" points="669.35,-440.84 679.7,-443.1 673.02,-434.88 669.35,-440.84"/>
</a>
</g>
</g>
<!-- Node10 -->
<g id="Node000010" class="node">
<title>Node10</title>
<g id="a_Node000010"><a xlink:href="classfabomatic_1_1_machine.xhtml#ad511c567c7cb7487d19019550c9a4e32" target="_top" xlink:title=" ">
<polygon fill="white" stroke="#666666" points="779,-425.88 673,-425.88 673,-395.38 779,-395.38 779,-425.88"/>
<text text-anchor="start" x="681" y="-412.38" font-family="Helvetica,sans-Serif" font-size="10.00">fabomatic::Machine</text>
<text text-anchor="middle" x="726" y="-401.12" font-family="Helvetica,sans-Serif" font-size="10.00">::getMaintenanceInfo</text>
</a>
</g>
</g>
<!-- Node3&#45;&gt;Node10 -->
<g id="edge10_Node000003_Node000010" class="edge">
<title>Node3&#45;&gt;Node10</title>
<g id="a_edge10_Node000003_Node000010"><a xlink:title=" ">
<path fill="none" stroke="#63b8ff" d="M586.29,-312.21C603.38,-331.49 634.72,-364.36 667,-385.62 669.08,-387 671.25,-388.32 673.48,-389.6"/>
<polygon fill="#63b8ff" stroke="#63b8ff" points="671.68,-392.61 682.16,-394.17 674.94,-386.41 671.68,-392.61"/>
</a>
</g>
</g>
<!-- Node11 -->
<g id="Node000011" class="node">
<title>Node11</title>
<g id="a_Node000011"><a xlink:href="classfabomatic_1_1_machine.xhtml#a3c5304fd80e0cc1c2118a59c64222d6d" target="_top" xlink:title="Returns the current power state of the machine.">
<polygon fill="white" stroke="#666666" points="776,-376.88 676,-376.88 676,-346.38 776,-346.38 776,-376.88"/>
<text text-anchor="start" x="684" y="-363.38" font-family="Helvetica,sans-Serif" font-size="10.00">fabomatic::Machine</text>
<text text-anchor="middle" x="726" y="-352.12" font-family="Helvetica,sans-Serif" font-size="10.00">::getPowerState</text>
</a>
</g>
</g>
<!-- Node3&#45;&gt;Node11 -->
<g id="edge11_Node000003_Node000011" class="edge">
<title>Node3&#45;&gt;Node11</title>
<g id="a_edge11_Node000003_Node000011"><a xlink:title=" ">
<path fill="none" stroke="#63b8ff" d="M609.79,-312.36C630.26,-321.11 655.94,-332.09 677.86,-341.47"/>
<polygon fill="#63b8ff" stroke="#63b8ff" points="676.32,-344.61 686.89,-345.33 679.07,-338.18 676.32,-344.61"/>
</a>
</g>
</g>
<!-- Node12 -->
<g id="Node000012" class="node">
<title>Node12</title>
<g id="a_Node000012"><a xlink:href="classfabomatic_1_1_machine.xhtml#a9c845a163660550fa779516a8be8681a" target="_top" xlink:title="Duration of the current usage, or 0s.">
<polygon fill="white" stroke="#666666" points="930,-333.88 830,-333.88 830,-303.38 930,-303.38 930,-333.88"/>
<text text-anchor="start" x="838" y="-320.38" font-family="Helvetica,sans-Serif" font-size="10.00">fabomatic::Machine</text>
<text text-anchor="middle" x="880" y="-309.12" font-family="Helvetica,sans-Serif" font-size="10.00">::getUsageDuration</text>
</a>
</g>
</g>
<!-- Node3&#45;&gt;Node12 -->
<g id="edge12_Node000003_Node000012" class="edge">
<title>Node3&#45;&gt;Node12</title>
<g id="a_edge12_Node000003_Node000012"><a xlink:title=" ">
<path fill="none" stroke="#63b8ff" d="M628.77,-300.63C682.36,-304.49 763.13,-310.29 818.31,-314.26"/>
<polygon fill="#63b8ff" stroke="#63b8ff" points="817.94,-317.74 828.17,-314.97 818.45,-310.76 817.94,-317.74"/>
</a>
</g>
</g>
<!-- Node13 -->
<g id="Node000013" class="node">
<title>Node13</title>
<g id="a_Node000013"><a xlink:href="classfabomatic_1_1_machine.xhtml#a4b40dcb31af466acc85f66c845516c82" target="_top" xlink:title=" ">
<polygon fill="white" stroke="#666666" points="776,-290.88 676,-290.88 676,-260.38 776,-260.38 776,-290.88"/>
<text text-anchor="start" x="684" y="-277.38" font-family="Helvetica,sans-Serif" font-size="10.00">fabomatic::Machine</text>
<text text-anchor="middle" x="726" y="-266.12" font-family="Helvetica,sans-Serif" font-size="10.00">::isAllowed</text>
</a>
</g>
</g>
<!-- Node3&#45;&gt;Node13 -->
<g id="edge14_Node000003_Node000013" class="edge">
<title>Node3&#45;&gt;Node13</title>
<g id="a_edge14_Node000003_Node000013"><a xlink:title=" ">
<path fill="none" stroke="#63b8ff" d="M628.74,-288.92C640.42,-287.31 652.8,-285.6 664.64,-283.96"/>
<polygon fill="#63b8ff" stroke="#63b8ff" points="664.87,-287.47 674.3,-282.63 663.91,-280.53 664.87,-287.47"/>
</a>
</g>
</g>
<!-- Node14 -->
<g id="Node000014" class="node">
<title>Node14</title>
<g id="a_Node000014"><a xlink:href="classfabomatic_1_1_machine.xhtml#a9fd614d86b6108a5a7b54fc9eee0d9a6" target="_top" xlink:title="Indicates if the machine has been configured.">
<polygon fill="white" stroke="#666666" points="776,-241.88 676,-241.88 676,-211.38 776,-211.38 776,-241.88"/>
<text text-anchor="start" x="684" y="-228.38" font-family="Helvetica,sans-Serif" font-size="10.00">fabomatic::Machine</text>
<text text-anchor="middle" x="726" y="-217.12" font-family="Helvetica,sans-Serif" font-size="10.00">::isConfigured</text>
</a>
</g>
</g>
<!-- Node3&#45;&gt;Node14 -->
<g id="edge15_Node000003_Node000014" class="edge">
<title>Node3&#45;&gt;Node14</title>
<g id="a_edge15_Node000003_Node000014"><a xlink:title=" ">
<path fill="none" stroke="#63b8ff" d="M605.05,-280.9C623.15,-272.11 646.25,-261.06 667,-251.62 670.5,-250.03 674.13,-248.41 677.79,-246.79"/>
<polygon fill="#63b8ff" stroke="#63b8ff" points="678.94,-250.1 686.7,-242.88 676.13,-243.69 678.94,-250.1"/>
</a>
</g>
</g>
<!-- Node15 -->
<g id="Node000015" class="node">
<title>Node15</title>
<g id="a_Node000015"><a xlink:href="classfabomatic_1_1_machine.xhtml#a34b0deb04494137cf321e94d50dedf90" target="_top" xlink:title=" ">
<polygon fill="white" stroke="#666666" points="784.62,-192.88 667.38,-192.88 667.38,-162.38 784.62,-162.38 784.62,-192.88"/>
<text text-anchor="start" x="675.38" y="-179.38" font-family="Helvetica,sans-Serif" font-size="10.00">fabomatic::Machine</text>
<text text-anchor="middle" x="726" y="-168.12" font-family="Helvetica,sans-Serif" font-size="10.00">::isMaintenanceNeeded</text>
</a>
</g>
</g>
<!-- Node3&#45;&gt;Node15 -->
<g id="edge16_Node000003_Node000015" class="edge">
<title>Node3&#45;&gt;Node15</title>
<g id="a_edge16_Node000003_Node000015"><a xlink:title=" ">
<path fill="none" stroke="#63b8ff" d="M601.92,-281.01C611.82,-274.84 622.52,-267.17 631,-258.62 651.83,-237.61 644.43,-221.76 667,-202.62 668.44,-201.41 669.94,-200.24 671.5,-199.12"/>
<polygon fill="#63b8ff" stroke="#63b8ff" points="672.99,-202.32 679.61,-194.05 669.28,-196.38 672.99,-202.32"/>
</a>
</g>
</g>
<!-- Node16 -->
<g id="Node000016" class="node">
<title>Node16</title>
<g id="a_Node000016"><a xlink:href="classfabomatic_1_1_fab_backend.xhtml#aef092e0e1db0c3539d5474fad2456255" target="_top" xlink:title="Indicates if the MQTT client is connected to the broker and backend is responsive.">
<polygon fill="white" stroke="#666666" points="785,-143.88 667,-143.88 667,-113.38 785,-113.38 785,-143.88"/>
<text text-anchor="start" x="675" y="-130.38" font-family="Helvetica,sans-Serif" font-size="10.00">fabomatic::FabBackend</text>
<text text-anchor="middle" x="726" y="-119.12" font-family="Helvetica,sans-Serif" font-size="10.00">::isOnline</text>
</a>
</g>
</g>
<!-- Node3&#45;&gt;Node16 -->
<g id="edge17_Node000003_Node000016" class="edge">
<title>Node3&#45;&gt;Node16</title>
<g id="a_edge17_Node000003_Node000016"><a xlink:title=" ">
<path fill="none" stroke="#63b8ff" d="M604.94,-280.97C614.39,-275.06 624.06,-267.56 631,-258.62 661.27,-219.67 633.48,-189.82 667,-153.62 667.84,-152.72 668.71,-151.85 669.62,-151"/>
<polygon fill="#63b8ff" stroke="#63b8ff" points="671.53,-153.95 677.37,-145.12 667.29,-148.38 671.53,-153.95"/>
</a>
</g>
</g>
<!-- Node17 -->
<g id="Node000017" class="node">
<title>Node17</title>
<g id="a_Node000017"><a xlink:href="classfabomatic_1_1_fab_backend.xhtml#aacd5dfac21bd4b6ed71912198a038529" target="_top" xlink:title="Indicates if backend answers are received.">
<polygon fill="white" stroke="#666666" points="939,-127.88 821,-127.88 821,-97.38 939,-97.38 939,-127.88"/>
<text text-anchor="start" x="829" y="-114.38" font-family="Helvetica,sans-Serif" font-size="10.00">fabomatic::FabBackend</text>
<text text-anchor="middle" x="880" y="-103.12" font-family="Helvetica,sans-Serif" font-size="10.00">::isResponsive</text>
</a>
</g>
</g>
<!-- Node3&#45;&gt;Node17 -->
<g id="edge19_Node000003_Node000017" class="edge">
<title>Node3&#45;&gt;Node17</title>
<g id="a_edge19_Node000003_Node000017"><a xlink:title=" ">
<path fill="none" stroke="#63b8ff" d="M606.1,-281C615.38,-275.16 624.65,-267.7 631,-258.62 671.28,-201.02 611.93,-148.31 667,-104.62 712.01,-68.92 780.89,-79.7 827.83,-93.57"/>
<polygon fill="#63b8ff" stroke="#63b8ff" points="826.64,-96.86 837.23,-96.49 828.72,-90.18 826.64,-96.86"/>
</a>
</g>
</g>
<!-- Node18 -->
<g id="Node000018" class="node">
<title>Node18</title>
<g id="a_Node000018"><a xlink:href="classfabomatic_1_1_machine.xhtml#a871958cc57845c8651cf1058ed9b30e4" target="_top" xlink:title="Indicates if the machine will power down in less than BEEP_REMAINING_MINUTES.">
<polygon fill="white" stroke="#666666" points="936,-70.88 824,-70.88 824,-40.38 936,-40.38 936,-70.88"/>
<text text-anchor="start" x="832" y="-57.38" font-family="Helvetica,sans-Serif" font-size="10.00">fabomatic::Machine</text>
<text text-anchor="middle" x="880" y="-46.12" font-family="Helvetica,sans-Serif" font-size="10.00">::isShutdownImminent</text>
</a>
</g>
</g>
<!-- Node3&#45;&gt;Node18 -->
<g id="edge20_Node000003_Node000018" class="edge">
<title>Node3&#45;&gt;Node18</title>
<g id="a_edge20_Node000003_Node000018"><a xlink:title=" ">
<path fill="none" stroke="#63b8ff" d="M606.59,-280.94C615.78,-275.14 624.88,-267.71 631,-258.62 677.08,-190.25 605.95,-132.05 667,-76.62 705.58,-41.6 765.9,-38.77 812.35,-43.3"/>
<polygon fill="#63b8ff" stroke="#63b8ff" points="811.71,-46.75 822.04,-44.39 812.49,-39.79 811.71,-46.75"/>
</a>
</g>
</g>
<!-- Node19 -->
<g id="Node000019" class="node">
<title>Node19</title>
<g id="a_Node000019"><a xlink:href="namespacefabomatic_1_1card.xhtml#aef091ec171625c69f9d4eab20ebaefec" target="_top" xlink:title="Returns a string representation of the UID.">
<polygon fill="white" stroke="#666666" points="783.88,-19.25 668.12,-19.25 668.12,0 783.88,0 783.88,-19.25"/>
<text text-anchor="middle" x="726" y="-5.75" font-family="Helvetica,sans-Serif" font-size="10.00">fabomatic::card::uid_str</text>
</a>
</g>
</g>
<!-- Node3&#45;&gt;Node19 -->
<g id="edge22_Node000003_Node000019" class="edge">
<title>Node3&#45;&gt;Node19</title>
<g id="a_edge22_Node000003_Node000019"><a xlink:title=" ">
<path fill="none" stroke="#63b8ff" d="M607.11,-280.88C616.19,-275.12 625.11,-267.72 631,-258.62 686.05,-173.62 604.23,-113.09 667,-33.62 669.44,-30.54 672.34,-27.85 675.53,-25.5"/>
<polygon fill="#63b8ff" stroke="#63b8ff" points="677.05,-28.67 683.83,-20.52 673.45,-22.66 677.05,-28.67"/>
</a>
</g>
</g>
<!-- Node6 -->
<g id="Node000006" class="node">
<title>Node6</title>
<g id="a_Node000006"><a xlink:href="namespacefabomatic_1_1_tasks.xhtml#a5c20f560f5934822d39ba116a16f3ab6" target="_top" xlink:title="Wait for a delay, allowing OTA updates.">
<polygon fill="white" stroke="#666666" points="938.62,-469.25 821.38,-469.25 821.38,-450 938.62,-450 938.62,-469.25"/>
<text text-anchor="middle" x="880" y="-455.75" font-family="Helvetica,sans-Serif" font-size="10.00">fabomatic::Tasks::delay</text>
</a>
</g>
</g>
<!-- Node5&#45;&gt;Node6 -->
<g id="edge5_Node000005_Node000006" class="edge">
<title>Node5&#45;&gt;Node6</title>
<g id="a_edge5_Node000005_Node000006"><a xlink:title=" ">
<path fill="none" stroke="#63b8ff" d="M766.97,-541.99C773.14,-539.12 779.34,-535.97 785,-532.62 812.57,-516.34 841.21,-493.01 859.52,-477.14"/>
<polygon fill="#63b8ff" stroke="#63b8ff" points="861.76,-479.84 866.96,-470.6 857.14,-474.58 861.76,-479.84"/>
</a>
</g>
</g>
<!-- Node6&#45;&gt;Node6 -->
<g id="edge7_Node000006_Node000006" class="edge">
<title>Node6&#45;&gt;Node6</title>
<g id="a_edge7_Node000006_Node000006"><a xlink:title=" ">
<path fill="none" stroke="#63b8ff" d="M855.89,-469.54C844.89,-478.15 852.93,-487.25 880,-487.25 895.23,-487.25 904.43,-484.37 907.61,-480.32"/>
<polygon fill="#63b8ff" stroke="#63b8ff" points="911,-479.41 904.58,-470.98 904.34,-481.57 911,-479.41"/>
</a>
</g>
</g>
<!-- Node7 -->
<g id="Node000007" class="node">
<title>Node7</title>
<g id="a_Node000007"><a xlink:href="namespacefabomatic_1_1_tasks.xhtml#adc67d1313c6695d813feb935eafdaf60" target="_top" xlink:title=" ">
<polygon fill="white" stroke="#666666" points="1121.5,-328.25 975,-328.25 975,-309 1121.5,-309 1121.5,-328.25"/>
<text text-anchor="middle" x="1048.25" y="-314.75" font-family="Helvetica,sans-Serif" font-size="10.00">fabomatic::Tasks::arduinoNow</text>
</a>
</g>
</g>
<!-- Node6&#45;&gt;Node7 -->
<g id="edge6_Node000006_Node000007" class="edge">
<title>Node6&#45;&gt;Node7</title>
<g id="a_edge6_Node000006_Node000007"><a xlink:title=" ">
<path fill="none" stroke="#63b8ff" d="M892.69,-449.71C920.64,-426 991.63,-365.79 1026.83,-335.94"/>
<polygon fill="#63b8ff" stroke="#63b8ff" points="1028.83,-338.83 1034.2,-329.7 1024.31,-333.5 1028.83,-338.83"/>
</a>
</g>
</g>
<!-- Node12&#45;&gt;Node7 -->
<g id="edge13_Node000012_Node000007" class="edge">
<title>Node12&#45;&gt;Node7</title>
<g id="a_edge13_Node000012_Node000007"><a xlink:title=" ">
<path fill="none" stroke="#63b8ff" d="M930.43,-318.62C940.84,-318.62 952.1,-318.62 963.37,-318.62"/>
<polygon fill="#63b8ff" stroke="#63b8ff" points="963.11,-322.13 973.11,-318.63 963.11,-315.13 963.11,-322.13"/>
</a>
</g>
</g>
<!-- Node16&#45;&gt;Node17 -->
<g id="edge18_Node000016_Node000017" class="edge">
<title>Node16&#45;&gt;Node17</title>
<g id="a_edge18_Node000016_Node000017"><a xlink:title=" ">
<path fill="none" stroke="#63b8ff" d="M785.33,-122.48C793.19,-121.66 801.3,-120.8 809.33,-119.96"/>
<polygon fill="#63b8ff" stroke="#63b8ff" points="809.49,-123.46 819.07,-118.93 808.76,-116.5 809.49,-123.46"/>
</a>
</g>
</g>
<!-- Node18&#45;&gt;Node7 -->
<g id="edge21_Node000018_Node000007" class="edge">
<title>Node18&#45;&gt;Node7</title>
<g id="a_edge21_Node000018_Node000007"><a xlink:title=" ">
<path fill="none" stroke="#63b8ff" d="M916.62,-71.33C924.68,-76.05 932.7,-81.82 939,-88.62 998.06,-152.44 1030.33,-254.25 1042.06,-297.78"/>
<polygon fill="#63b8ff" stroke="#63b8ff" points="1038.61,-298.4 1044.51,-307.19 1045.38,-296.63 1038.61,-298.4"/>
</a>
</g>
</g>
<!-- Node20&#45;&gt;Node2 -->
<g id="edge24_Node000020_Node000002" class="edge">
<title>Node20&#45;&gt;Node2</title>
<g id="a_edge24_Node000020_Node000002"><a xlink:title=" ">
<path fill="none" stroke="#63b8ff" d="M303.46,-275.69C318.35,-278.44 334.66,-281.44 350.14,-284.3"/>
<polygon fill="#63b8ff" stroke="#63b8ff" points="349.29,-287.7 359.76,-286.07 350.56,-280.82 349.29,-287.7"/>
</a>
</g>
</g>
<!-- Node22 -->
<g id="Node000022" class="node">
<title>Node22</title>
<g id="a_Node000022"><a xlink:href="classfabomatic_1_1_saved_config.xhtml#a3a6f62510c34ed7a4491022e4e43b9c2" target="_top" xlink:title="Returns the default configuration built from conf.hpp and secrets.hpp.">
<polygon fill="white" stroke="#666666" points="477,-249.88 359,-249.88 359,-219.38 477,-219.38 477,-249.88"/>
<text text-anchor="start" x="367" y="-236.38" font-family="Helvetica,sans-Serif" font-size="10.00">fabomatic::SavedConfig</text>
<text text-anchor="middle" x="418" y="-225.12" font-family="Helvetica,sans-Serif" font-size="10.00">::DefaultConfig</text>
</a>
</g>
</g>
<!-- Node21&#45;&gt;Node22 -->
<g id="edge26_Node000021_Node000022" class="edge">
<title>Node21&#45;&gt;Node22</title>
<g id="a_edge26_Node000021_Node000022"><a xlink:title=" ">
<path fill="none" stroke="#63b8ff" d="M300.23,-230.46C315.07,-230.99 331.53,-231.57 347.29,-232.14"/>
<polygon fill="#63b8ff" stroke="#63b8ff" points="346.98,-235.63 357.09,-232.49 347.23,-228.63 346.98,-235.63"/>
</a>
</g>
</g>
<!-- Node24 -->
<g id="Node000024" class="node">
<title>Node24</title>
<g id="a_Node000024"><a xlink:href="classfabomatic_1_1_saved_config.xhtml#aca3fe97dfa74c005d47ffef700392d99" target="_top" xlink:title="Loads the configuration from EEPROM if available and matching revision number.">
<polygon fill="white" stroke="#666666" points="477,-200.88 359,-200.88 359,-170.38 477,-170.38 477,-200.88"/>
<text text-anchor="start" x="367" y="-187.38" font-family="Helvetica,sans-Serif" font-size="10.00">fabomatic::SavedConfig</text>
<text text-anchor="middle" x="418" y="-176.12" font-family="Helvetica,sans-Serif" font-size="10.00">::LoadFromEEPROM</text>
</a>
</g>
</g>
<!-- Node21&#45;&gt;Node24 -->
<g id="edge28_Node000021_Node000024" class="edge">
<title>Node21&#45;&gt;Node24</title>
<g id="a_edge28_Node000021_Node000024"><a xlink:title=" ">
<path fill="none" stroke="#63b8ff" d="M291.25,-218.5C301.64,-215.97 312.73,-213.24 323,-210.62 331.02,-208.58 339.42,-206.41 347.75,-204.22"/>
<polygon fill="#63b8ff" stroke="#63b8ff" points="348.39,-207.68 357.17,-201.74 346.61,-200.91 348.39,-207.68"/>
</a>
</g>
</g>
<!-- Node23 -->
<g id="Node000023" class="node">
<title>Node23</title>
<g id="a_Node000023"><a xlink:href="classfabomatic_1_1_saved_config.xhtml#a4ada414d31749dcd736a3fec3f759605" target="_top" xlink:title="Sets the machine ID (converting to string)">
<polygon fill="white" stroke="#666666" points="631,-249.88 513,-249.88 513,-219.38 631,-219.38 631,-249.88"/>
<text text-anchor="start" x="521" y="-236.38" font-family="Helvetica,sans-Serif" font-size="10.00">fabomatic::SavedConfig</text>
<text text-anchor="middle" x="572" y="-225.12" font-family="Helvetica,sans-Serif" font-size="10.00">::setMachineID</text>
</a>
</g>
</g>
<!-- Node22&#45;&gt;Node23 -->
<g id="edge27_Node000022_Node000023" class="edge">
<title>Node22&#45;&gt;Node23</title>
<g id="a_edge27_Node000022_Node000023"><a xlink:title=" ">
<path fill="none" stroke="#63b8ff" d="M477.33,-234.62C485.19,-234.62 493.3,-234.62 501.33,-234.62"/>
<polygon fill="#63b8ff" stroke="#63b8ff" points="501.06,-238.13 511.06,-234.63 501.06,-231.13 501.06,-238.13"/>
</a>
</g>
</g>
</g>
</svg>
