<?xml version="1.0" encoding="UTF-8" standalone="no"?>
<!DOCTYPE svg PUBLIC "-//W3C//DTD SVG 1.1//EN"
 "http://www.w3.org/Graphics/SVG/1.1/DTD/svg11.dtd">
<!-- Generated by graphviz version 9.0.0 (20230911.1827)
 -->
<!-- Title: fabomatic::configModeCallback Pages: 1 -->
<!--zoomable 592 -->

<svg id="main" version="1.1" xmlns="http://www.w3.org/2000/svg" xmlns:xlink="http://www.w3.org/1999/xlink" xml:space="preserve" onload="init(evt)">
<style type="text/css"><![CDATA[
.node, .edge {opacity: 0.7;}
.node.selected, .edge.selected {opacity: 1;}
.edge:hover path { stroke: red; }
.edge:hover polygon { stroke: red; fill: red; }
]]></style>

<defs>
  <circle id="rim" cx="0" cy="0" r="7"/>
  <circle id="rim2" cx="0" cy="0" r="3.5"/>
  <g id="zoomPlus">
    <use xlink:href="#rim" fill="#404040"><set attributeName="fill" to="#808080" begin="zoomplus.mouseover" end="zoomplus.mouseout"/></use>
    <path d="M-4,0h8M0,-4v8" fill="none" stroke="white" stroke-width="1.5" pointer-events="none"/>
  </g>
  <g id="zoomMin">
    <use xlink:href="#rim" fill="#404040"><set attributeName="fill" to="#808080" begin="zoomminus.mouseover" end="zoomminus.mouseout"/></use>
    <path d="M-4,0h8" fill="none" stroke="white" stroke-width="1.5" pointer-events="none"/>
  </g>
  <g id="arrowUp" transform="translate(30 24)">
    <use xlink:href="#rim"/>
    <path pointer-events="none" fill="none" stroke="white" stroke-width="1.5" d="M0,-3.0v7 M-2.5,-0.5L0,-3.0L2.5,-0.5"/>
  </g>
  <g id="arrowRight" transform="rotate(90) translate(36 -43)">
    <use xlink:href="#rim"/>
    <path pointer-events="none" fill="none" stroke="white" stroke-width="1.5" d="M0,-3.0v7 M-2.5,-0.5L0,-3.0L2.5,-0.5"/>
  </g>
  <g id="arrowDown" transform="rotate(180) translate(-30 -48)">
    <use xlink:href="#rim"/>
    <path pointer-events="none" fill="none" stroke="white" stroke-width="1.5" d="M0,-3.0v7 M-2.5,-0.5L0,-3.0L2.5,-0.5"/>
  </g>
  <g id="arrowLeft" transform="rotate(270) translate(-36 17)">
    <use xlink:href="#rim"/>
    <path pointer-events="none" fill="none" stroke="white" stroke-width="1.5" d="M0,-3.0v7 M-2.5,-0.5L0,-3.0L2.5,-0.5"/>
  </g>
  <g id="resetDef">
    <use xlink:href="#rim2" fill="#404040"><set attributeName="fill" to="#808080" begin="reset.mouseover" end="reset.mouseout"/></use>
  </g>
</defs>
<script type="application/ecmascript">
var viewWidth = 946;
var viewHeight = 592;
var sectionId = 'dynsection-0';
</script>
<script type="application/ecmascript" xlink:href="svg.min.js"/>
<svg id="graph" class="graph">
<g id="viewport">
<title>fabomatic::configModeCallback</title>
<!-- Node1 -->
<g id="Node000001" class="node">
<title>Node1</title>
<g id="a_Node000001"><a xlink:title=" ">
<polygon fill="#999999" stroke="#666666" points="150.25,-290.25 0,-290.25 0,-271 150.25,-271 150.25,-290.25"/>
<text text-anchor="middle" x="75.12" y="-276.75" font-family="Helvetica,sans-Serif" font-size="10.00">fabomatic::configModeCallback</text>
</a>
</g>
</g>
<!-- Node2 -->
<g id="Node000002" class="node">
<title>Node2</title>
<g id="a_Node000002"><a xlink:href="classfabomatic_1_1_board_logic.xhtml#a3c38d7a3ed7952c6d6297efdf50ea4dd" target="_top" xlink:title="Sets the board in the state given.">
<polygon fill="white" stroke="#666666" points="299,-295.88 186.25,-295.88 186.25,-265.38 299,-265.38 299,-295.88"/>
<text text-anchor="start" x="194.25" y="-282.38" font-family="Helvetica,sans-Serif" font-size="10.00">fabomatic::BoardLogic</text>
<text text-anchor="middle" x="242.62" y="-271.12" font-family="Helvetica,sans-Serif" font-size="10.00">::changeStatus</text>
</a>
</g>
</g>
<!-- Node1&#45;&gt;Node2 -->
<g id="edge1_Node000001_Node000002" class="edge">
<title>Node1&#45;&gt;Node2</title>
<g id="a_edge1_Node000001_Node000002"><a xlink:title=" ">
<path fill="none" stroke="#63b8ff" d="M150.64,-280.62C158.6,-280.62 166.66,-280.62 174.52,-280.62"/>
<polygon fill="#63b8ff" stroke="#63b8ff" points="174.35,-284.13 184.35,-280.63 174.35,-277.13 174.35,-284.13"/>
</a>
</g>
</g>
<!-- Node3 -->
<g id="Node000003" class="node">
<title>Node3</title>
<g id="a_Node000003"><a xlink:href="classfabomatic_1_1_board_logic.xhtml#a47b4d515c0d3488eceb49769036bce8b" target="_top" xlink:title="Updates the LCD screen as per the current status.">
<polygon fill="white" stroke="#666666" points="447.75,-295.88 335,-295.88 335,-265.38 447.75,-265.38 447.75,-295.88"/>
<text text-anchor="start" x="343" y="-282.38" font-family="Helvetica,sans-Serif" font-size="10.00">fabomatic::BoardLogic</text>
<text text-anchor="middle" x="391.38" y="-271.12" font-family="Helvetica,sans-Serif" font-size="10.00">::updateLCD</text>
</a>
</g>
</g>
<!-- Node2&#45;&gt;Node3 -->
<g id="edge2_Node000002_Node000003" class="edge">
<title>Node2&#45;&gt;Node3</title>
<g id="a_edge2_Node000002_Node000003"><a xlink:title=" ">
<path fill="none" stroke="#63b8ff" d="M299.1,-280.62C307.05,-280.62 315.29,-280.62 323.43,-280.62"/>
<polygon fill="#63b8ff" stroke="#63b8ff" points="323.3,-284.13 333.3,-280.63 323.3,-277.13 323.3,-284.13"/>
</a>
</g>
</g>
<!-- Node4 -->
<g id="Node000004" class="node">
<title>Node4</title>
<g id="a_Node000004"><a xlink:href="classfabomatic_1_1_machine.xhtml#a39c30eaa242d5cc2ce784dbafeef87e8" target="_top" xlink:title=" ">
<polygon fill="white" stroke="#666666" points="592.75,-583.88 492.75,-583.88 492.75,-553.38 592.75,-553.38 592.75,-583.88"/>
<text text-anchor="start" x="500.75" y="-570.38" font-family="Helvetica,sans-Serif" font-size="10.00">fabomatic::Machine</text>
<text text-anchor="middle" x="542.75" y="-559.12" font-family="Helvetica,sans-Serif" font-size="10.00">::getActiveUser</text>
</a>
</g>
</g>
<!-- Node3&#45;&gt;Node4 -->
<g id="edge3_Node000003_Node000004" class="edge">
<title>Node3&#45;&gt;Node4</title>
<g id="a_edge3_Node000003_Node000004"><a xlink:title=" ">
<path fill="none" stroke="#63b8ff" d="M393.5,-296.16C397.5,-340.55 414.79,-469.47 483.75,-543.62 484.59,-544.53 485.47,-545.4 486.38,-546.24"/>
<polygon fill="#63b8ff" stroke="#63b8ff" points="484.05,-548.87 494.14,-552.12 488.28,-543.29 484.05,-548.87"/>
</a>
</g>
</g>
<!-- Node5 -->
<g id="Node000005" class="node">
<title>Node5</title>
<g id="a_Node000005"><a xlink:href="classfabomatic_1_1_board_logic.xhtml#a462b4b6149ca7bf33b699eb3181c969f" target="_top" xlink:title=" ">
<polygon fill="white" stroke="#666666" points="599.12,-534.88 486.38,-534.88 486.38,-504.38 599.12,-504.38 599.12,-534.88"/>
<text text-anchor="start" x="494.38" y="-521.38" font-family="Helvetica,sans-Serif" font-size="10.00">fabomatic::BoardLogic</text>
<text text-anchor="middle" x="542.75" y="-510.12" font-family="Helvetica,sans-Serif" font-size="10.00">::getLcd</text>
</a>
</g>
</g>
<!-- Node3&#45;&gt;Node5 -->
<g id="edge4_Node000003_Node000005" class="edge">
<title>Node3&#45;&gt;Node5</title>
<g id="a_edge4_Node000003_Node000005"><a xlink:title=" ">
<path fill="none" stroke="#63b8ff" d="M394.95,-296.3C402.09,-335.02 425.58,-436.25 483.75,-494.62 484.75,-495.63 485.8,-496.6 486.89,-497.53"/>
<polygon fill="#63b8ff" stroke="#63b8ff" points="484.48,-500.11 494.65,-503.09 488.56,-494.42 484.48,-500.11"/>
</a>
</g>
</g>
<!-- Node8 -->
<g id="Node000008" class="node">
<title>Node8</title>
<g id="a_Node000008"><a xlink:href="classfabomatic_1_1_board_logic.xhtml#a164e40105242d0b7c56c6b4f21155101" target="_top" xlink:title="Gets the current machine.">
<polygon fill="white" stroke="#666666" points="599.12,-485.88 486.38,-485.88 486.38,-455.38 599.12,-455.38 599.12,-485.88"/>
<text text-anchor="start" x="494.38" y="-472.38" font-family="Helvetica,sans-Serif" font-size="10.00">fabomatic::BoardLogic</text>
<text text-anchor="middle" x="542.75" y="-461.12" font-family="Helvetica,sans-Serif" font-size="10.00">::getMachine</text>
</a>
</g>
</g>
<!-- Node3&#45;&gt;Node8 -->
<g id="edge8_Node000003_Node000008" class="edge">
<title>Node3&#45;&gt;Node8</title>
<g id="a_edge8_Node000003_Node000008"><a xlink:title=" ">
<path fill="none" stroke="#63b8ff" d="M397.08,-295.98C407.6,-327.95 435.94,-402.32 483.75,-445.62 484.97,-446.73 486.24,-447.79 487.57,-448.81"/>
<polygon fill="#63b8ff" stroke="#63b8ff" points="485.29,-451.5 495.57,-454.1 489.15,-445.66 485.29,-451.5"/>
</a>
</g>
</g>
<!-- Node9 -->
<g id="Node000009" class="node">
<title>Node9</title>
<g id="a_Node000009"><a xlink:href="classfabomatic_1_1_machine.xhtml#a1637e99f2d70262d2ab26f69ed4f0e47" target="_top" xlink:title=" ">
<polygon fill="white" stroke="#666666" points="592.75,-436.88 492.75,-436.88 492.75,-406.38 592.75,-406.38 592.75,-436.88"/>
<text text-anchor="start" x="500.75" y="-423.38" font-family="Helvetica,sans-Serif" font-size="10.00">fabomatic::Machine</text>
<text text-anchor="middle" x="542.75" y="-412.12" font-family="Helvetica,sans-Serif" font-size="10.00">::getMachineName</text>
</a>
</g>
</g>
<!-- Node3&#45;&gt;Node9 -->
<g id="edge9_Node000003_Node000009" class="edge">
<title>Node3&#45;&gt;Node9</title>
<g id="a_edge9_Node000003_Node000009"><a xlink:title=" ">
<path fill="none" stroke="#63b8ff" d="M401.12,-296.17C415.51,-320.53 446.35,-367.88 483.75,-396.62 485.45,-397.93 487.22,-399.18 489.05,-400.37"/>
<polygon fill="#63b8ff" stroke="#63b8ff" points="486.86,-403.15 497.26,-405.16 490.38,-397.1 486.86,-403.15"/>
</a>
</g>
</g>
<!-- Node10 -->
<g id="Node000010" class="node">
<title>Node10</title>
<g id="a_Node000010"><a xlink:href="classfabomatic_1_1_machine.xhtml#ad511c567c7cb7487d19019550c9a4e32" target="_top" xlink:title=" ">
<polygon fill="white" stroke="#666666" points="595.75,-387.88 489.75,-387.88 489.75,-357.38 595.75,-357.38 595.75,-387.88"/>
<text text-anchor="start" x="497.75" y="-374.38" font-family="Helvetica,sans-Serif" font-size="10.00">fabomatic::Machine</text>
<text text-anchor="middle" x="542.75" y="-363.12" font-family="Helvetica,sans-Serif" font-size="10.00">::getMaintenanceInfo</text>
</a>
</g>
</g>
<!-- Node3&#45;&gt;Node10 -->
<g id="edge10_Node000003_Node000010" class="edge">
<title>Node3&#45;&gt;Node10</title>
<g id="a_edge10_Node000003_Node000010"><a xlink:title=" ">
<path fill="none" stroke="#63b8ff" d="M411.12,-296.33C429.01,-310.84 457.12,-332.38 483.75,-347.62 486.38,-349.13 489.12,-350.6 491.91,-352.03"/>
<polygon fill="#63b8ff" stroke="#63b8ff" points="490.28,-355.13 500.8,-356.33 493.32,-348.83 490.28,-355.13"/>
</a>
</g>
</g>
<!-- Node11 -->
<g id="Node000011" class="node">
<title>Node11</title>
<g id="a_Node000011"><a xlink:href="classfabomatic_1_1_machine.xhtml#a3c5304fd80e0cc1c2118a59c64222d6d" target="_top" xlink:title="Returns the current power state of the machine.">
<polygon fill="white" stroke="#666666" points="592.75,-338.88 492.75,-338.88 492.75,-308.38 592.75,-308.38 592.75,-338.88"/>
<text text-anchor="start" x="500.75" y="-325.38" font-family="Helvetica,sans-Serif" font-size="10.00">fabomatic::Machine</text>
<text text-anchor="middle" x="542.75" y="-314.12" font-family="Helvetica,sans-Serif" font-size="10.00">::getPowerState</text>
</a>
</g>
</g>
<!-- Node3&#45;&gt;Node11 -->
<g id="edge11_Node000003_Node000011" class="edge">
<title>Node3&#45;&gt;Node11</title>
<g id="a_edge11_Node000003_Node000011"><a xlink:title=" ">
<path fill="none" stroke="#63b8ff" d="M446.73,-296.27C458.1,-299.55 470.16,-303.02 481.74,-306.35"/>
<polygon fill="#63b8ff" stroke="#63b8ff" points="480.61,-309.67 491.19,-309.07 482.55,-302.94 480.61,-309.67"/>
</a>
</g>
</g>
<!-- Node12 -->
<g id="Node000012" class="node">
<title>Node12</title>
<g id="a_Node000012"><a xlink:href="classfabomatic_1_1_machine.xhtml#a9c845a163660550fa779516a8be8681a" target="_top" xlink:title="Duration of the current usage, or 0s.">
<polygon fill="white" stroke="#666666" points="746.38,-295.88 646.38,-295.88 646.38,-265.38 746.38,-265.38 746.38,-295.88"/>
<text text-anchor="start" x="654.38" y="-282.38" font-family="Helvetica,sans-Serif" font-size="10.00">fabomatic::Machine</text>
<text text-anchor="middle" x="696.38" y="-271.12" font-family="Helvetica,sans-Serif" font-size="10.00">::getUsageDuration</text>
</a>
</g>
</g>
<!-- Node3&#45;&gt;Node12 -->
<g id="edge12_Node000003_Node000012" class="edge">
<title>Node3&#45;&gt;Node12</title>
<g id="a_edge12_Node000003_Node000012"><a xlink:title=" ">
<path fill="none" stroke="#63b8ff" d="M447.95,-280.62C500.9,-280.62 580.42,-280.62 634.93,-280.62"/>
<polygon fill="#63b8ff" stroke="#63b8ff" points="634.65,-284.13 644.65,-280.63 634.65,-277.13 634.65,-284.13"/>
</a>
</g>
</g>
<!-- Node13 -->
<g id="Node000013" class="node">
<title>Node13</title>
<g id="a_Node000013"><a xlink:href="classfabomatic_1_1_machine.xhtml#a4b40dcb31af466acc85f66c845516c82" target="_top" xlink:title=" ">
<polygon fill="white" stroke="#666666" points="592.75,-252.88 492.75,-252.88 492.75,-222.38 592.75,-222.38 592.75,-252.88"/>
<text text-anchor="start" x="500.75" y="-239.38" font-family="Helvetica,sans-Serif" font-size="10.00">fabomatic::Machine</text>
<text text-anchor="middle" x="542.75" y="-228.12" font-family="Helvetica,sans-Serif" font-size="10.00">::isAllowed</text>
</a>
</g>
</g>
<!-- Node3&#45;&gt;Node13 -->
<g id="edge14_Node000003_Node000013" class="edge">
<title>Node3&#45;&gt;Node13</title>
<g id="a_edge14_Node000003_Node000013"><a xlink:title=" ">
<path fill="none" stroke="#63b8ff" d="M446.73,-264.98C458.1,-261.7 470.16,-258.23 481.74,-254.9"/>
<polygon fill="#63b8ff" stroke="#63b8ff" points="482.55,-258.31 491.19,-252.18 480.61,-251.58 482.55,-258.31"/>
</a>
</g>
</g>
<!-- Node14 -->
<g id="Node000014" class="node">
<title>Node14</title>
<g id="a_Node000014"><a xlink:href="classfabomatic_1_1_machine.xhtml#a9fd614d86b6108a5a7b54fc9eee0d9a6" target="_top" xlink:title="Indicates if the machine has been configured.">
<polygon fill="white" stroke="#666666" points="592.75,-203.88 492.75,-203.88 492.75,-173.38 592.75,-173.38 592.75,-203.88"/>
<text text-anchor="start" x="500.75" y="-190.38" font-family="Helvetica,sans-Serif" font-size="10.00">fabomatic::Machine</text>
<text text-anchor="middle" x="542.75" y="-179.12" font-family="Helvetica,sans-Serif" font-size="10.00">::isConfigured</text>
</a>
</g>
</g>
<!-- Node3&#45;&gt;Node14 -->
<g id="edge15_Node000003_Node000014" class="edge">
<title>Node3&#45;&gt;Node14</title>
<g id="a_edge15_Node000003_Node000014"><a xlink:title=" ">
<path fill="none" stroke="#63b8ff" d="M411.12,-264.92C429.01,-250.41 457.12,-228.87 483.75,-213.62 486.38,-212.12 489.12,-210.65 491.91,-209.22"/>
<polygon fill="#63b8ff" stroke="#63b8ff" points="493.32,-212.42 500.8,-204.92 490.28,-206.12 493.32,-212.42"/>
</a>
</g>
</g>
<!-- Node15 -->
<g id="Node000015" class="node">
<title>Node15</title>
<g id="a_Node000015"><a xlink:href="classfabomatic_1_1_machine.xhtml#a34b0deb04494137cf321e94d50dedf90" target="_top" xlink:title=" ">
<polygon fill="white" stroke="#666666" points="601.38,-154.88 484.12,-154.88 484.12,-124.38 601.38,-124.38 601.38,-154.88"/>
<text text-anchor="start" x="492.12" y="-141.38" font-family="Helvetica,sans-Serif" font-size="10.00">fabomatic::Machine</text>
<text text-anchor="middle" x="542.75" y="-130.12" font-family="Helvetica,sans-Serif" font-size="10.00">::isMaintenanceNeeded</text>
</a>
</g>
</g>
<!-- Node3&#45;&gt;Node15 -->
<g id="edge16_Node000003_Node000015" class="edge">
<title>Node3&#45;&gt;Node15</title>
<g id="a_edge16_Node000003_Node000015"><a xlink:title=" ">
<path fill="none" stroke="#63b8ff" d="M401.12,-265.08C415.51,-240.72 446.35,-193.37 483.75,-164.62 485.45,-163.32 487.22,-162.07 489.05,-160.88"/>
<polygon fill="#63b8ff" stroke="#63b8ff" points="490.38,-164.15 497.26,-156.09 486.86,-158.1 490.38,-164.15"/>
</a>
</g>
</g>
<!-- Node16 -->
<g id="Node000016" class="node">
<title>Node16</title>
<g id="a_Node000016"><a xlink:href="classfabomatic_1_1_fab_backend.xhtml#aef092e0e1db0c3539d5474fad2456255" target="_top" xlink:title="Checks if the client is online.">
<polygon fill="white" stroke="#666666" points="601.75,-105.88 483.75,-105.88 483.75,-75.38 601.75,-75.38 601.75,-105.88"/>
<text text-anchor="start" x="491.75" y="-92.38" font-family="Helvetica,sans-Serif" font-size="10.00">fabomatic::FabBackend</text>
<text text-anchor="middle" x="542.75" y="-81.12" font-family="Helvetica,sans-Serif" font-size="10.00">::isOnline</text>
</a>
</g>
</g>
<!-- Node3&#45;&gt;Node16 -->
<g id="edge17_Node000003_Node000016" class="edge">
<title>Node3&#45;&gt;Node16</title>
<g id="a_edge17_Node000003_Node000016"><a xlink:title=" ">
<path fill="none" stroke="#63b8ff" d="M397.08,-265.27C407.6,-233.3 435.94,-158.93 483.75,-115.62 484.97,-114.52 486.24,-113.46 487.57,-112.44"/>
<polygon fill="#63b8ff" stroke="#63b8ff" points="489.15,-115.59 495.57,-107.15 485.29,-109.75 489.15,-115.59"/>
</a>
</g>
</g>
<!-- Node17 -->
<g id="Node000017" class="node">
<title>Node17</title>
<g id="a_Node000017"><a xlink:href="classfabomatic_1_1_machine.xhtml#a871958cc57845c8651cf1058ed9b30e4" target="_top" xlink:title="Indicates if the machine will power down in less than BEEP_REMAINING_MINUTES.">
<polygon fill="white" stroke="#666666" points="752.38,-154.88 640.38,-154.88 640.38,-124.38 752.38,-124.38 752.38,-154.88"/>
<text text-anchor="start" x="648.38" y="-141.38" font-family="Helvetica,sans-Serif" font-size="10.00">fabomatic::Machine</text>
<text text-anchor="middle" x="696.38" y="-130.12" font-family="Helvetica,sans-Serif" font-size="10.00">::isShutdownImminent</text>
</a>
</g>
</g>
<!-- Node3&#45;&gt;Node17 -->
<g id="edge18_Node000003_Node000017" class="edge">
<title>Node3&#45;&gt;Node17</title>
<g id="a_edge18_Node000003_Node000017"><a xlink:title=" ">
<path fill="none" stroke="#63b8ff" d="M393.47,-265.17C397.29,-224.18 413.97,-112.71 483.75,-66.62 527.51,-37.73 552.15,-49.58 601.75,-66.62 630.06,-76.36 656.38,-98.54 673.86,-115.92"/>
<polygon fill="#63b8ff" stroke="#63b8ff" points="671.16,-118.17 680.64,-122.9 676.19,-113.29 671.16,-118.17"/>
</a>
</g>
</g>
<!-- Node18 -->
<g id="Node000018" class="node">
<title>Node18</title>
<g id="a_Node000018"><a xlink:href="namespacefabomatic_1_1card.xhtml#aef091ec171625c69f9d4eab20ebaefec" target="_top" xlink:title="Returns a string representation of the UID.">
<polygon fill="white" stroke="#666666" points="600.62,-19.25 484.88,-19.25 484.88,0 600.62,0 600.62,-19.25"/>
<text text-anchor="middle" x="542.75" y="-5.75" font-family="Helvetica,sans-Serif" font-size="10.00">fabomatic::card::uid_str</text>
</a>
</g>
</g>
<!-- Node3&#45;&gt;Node18 -->
<g id="edge20_Node000003_Node000018" class="edge">
<title>Node3&#45;&gt;Node18</title>
<g id="a_edge20_Node000003_Node000018"><a xlink:title=" ">
<path fill="none" stroke="#63b8ff" d="M393.85,-265.06C398.69,-222.38 417.79,-102.14 483.75,-33.62 486.89,-30.36 490.54,-27.53 494.45,-25.06"/>
<polygon fill="#63b8ff" stroke="#63b8ff" points="496.05,-28.18 503.23,-20.4 492.76,-22 496.05,-28.18"/>
</a>
</g>
</g>
<!-- Node6 -->
<g id="Node000006" class="node">
<title>Node6</title>
<g id="a_Node000006"><a xlink:href="namespacefabomatic_1_1_tasks.xhtml#a5c20f560f5934822d39ba116a16f3ab6" target="_top" xlink:title="Wait for a delay, allowing OTA updates.">
<polygon fill="white" stroke="#666666" points="755,-431.25 637.75,-431.25 637.75,-412 755,-412 755,-431.25"/>
<text text-anchor="middle" x="696.38" y="-417.75" font-family="Helvetica,sans-Serif" font-size="10.00">fabomatic::Tasks::delay</text>
</a>
</g>
</g>
<!-- Node5&#45;&gt;Node6 -->
<g id="edge5_Node000005_Node000006" class="edge">
<title>Node5&#45;&gt;Node6</title>
<g id="a_edge5_Node000005_Node000006"><a xlink:title=" ">
<path fill="none" stroke="#63b8ff" d="M583.73,-504C589.9,-501.13 596.09,-497.98 601.75,-494.62 629.24,-478.35 657.76,-455.02 675.99,-439.15"/>
<polygon fill="#63b8ff" stroke="#63b8ff" points="678.21,-441.85 683.39,-432.61 673.58,-436.61 678.21,-441.85"/>
</a>
</g>
</g>
<!-- Node6&#45;&gt;Node6 -->
<g id="edge7_Node000006_Node000006" class="edge">
<title>Node6&#45;&gt;Node6</title>
<g id="a_edge7_Node000006_Node000006"><a xlink:title=" ">
<path fill="none" stroke="#63b8ff" d="M672.32,-431.54C661.35,-440.15 669.37,-449.25 696.38,-449.25 711.56,-449.25 720.75,-446.37 723.92,-442.32"/>
<polygon fill="#63b8ff" stroke="#63b8ff" points="727.31,-441.41 720.89,-432.98 720.65,-443.57 727.31,-441.41"/>
</a>
</g>
</g>
<!-- Node7 -->
<g id="Node000007" class="node">
<title>Node7</title>
<g id="a_Node000007"><a xlink:href="namespacefabomatic_1_1_tasks.xhtml#adc67d1313c6695d813feb935eafdaf60" target="_top" xlink:title=" ">
<polygon fill="white" stroke="#666666" points="937.5,-290.25 791,-290.25 791,-271 937.5,-271 937.5,-290.25"/>
<text text-anchor="middle" x="864.25" y="-276.75" font-family="Helvetica,sans-Serif" font-size="10.00">fabomatic::Tasks::arduinoNow</text>
</a>
</g>
</g>
<!-- Node6&#45;&gt;Node7 -->
<g id="edge6_Node000006_Node000007" class="edge">
<title>Node6&#45;&gt;Node7</title>
<g id="a_edge6_Node000006_Node000007"><a xlink:title=" ">
<path fill="none" stroke="#63b8ff" d="M709.04,-411.71C736.93,-388 807.76,-327.79 842.87,-297.94"/>
<polygon fill="#63b8ff" stroke="#63b8ff" points="844.87,-300.84 850.22,-291.7 840.34,-295.51 844.87,-300.84"/>
</a>
</g>
</g>
<!-- Node12&#45;&gt;Node7 -->
<g id="edge13_Node000012_Node000007" class="edge">
<title>Node12&#45;&gt;Node7</title>
<g id="a_edge13_Node000012_Node000007"><a xlink:title=" ">
<path fill="none" stroke="#63b8ff" d="M746.69,-280.62C757.08,-280.62 768.31,-280.62 779.56,-280.62"/>
<polygon fill="#63b8ff" stroke="#63b8ff" points="779.27,-284.13 789.27,-280.63 779.27,-277.13 779.27,-284.13"/>
</a>
</g>
</g>
<!-- Node17&#45;&gt;Node7 -->
<g id="edge19_Node000017_Node000007" class="edge">
<title>Node17&#45;&gt;Node7</title>
<g id="a_edge19_Node000017_Node000007"><a xlink:title=" ">
<path fill="none" stroke="#63b8ff" d="M715.76,-155.25C747.08,-181.88 810.55,-235.83 843.06,-263.47"/>
<polygon fill="#63b8ff" stroke="#63b8ff" points="840.69,-266.04 850.57,-269.85 845.22,-260.71 840.69,-266.04"/>
</a>
</g>
</g>
</g>
</svg>

<g id="navigator" transform="translate(0 0)" fill="#404254">
  <rect fill="#f2f5e9" fill-opacity="0.5" stroke="#606060" stroke-width=".5" x="0" y="0" width="60" height="60"/>
  <use id="zoomplus" xlink:href="#zoomPlus" x="17" y="9" onmousedown="handleZoom(evt,'in')"/>
  <use id="zoomminus" xlink:href="#zoomMin" x="42" y="9" onmousedown="handleZoom(evt,'out')"/>
  <use id="reset" xlink:href="#resetDef" x="30" y="36" onmousedown="handleReset()"/>
   <use id="arrowup" xlink:href="#arrowUp" x="0" y="0" onmousedown="handlePan(0,-1)"/>
  <use id="arrowright" xlink:href="#arrowRight" x="0" y="0" onmousedown="handlePan(1,0)"/>
  <use id="arrowdown" xlink:href="#arrowDown" x="0" y="0" onmousedown="handlePan(0,1)"/>
  <use id="arrowleft" xlink:href="#arrowLeft" x="0" y="0" onmousedown="handlePan(-1,0)"/>
</g>
<svg viewBox="0 0 15 15" width="100%" height="30px" preserveAspectRatio="xMaxYMin meet">
 <g id="arrow_out" transform="scale(0.3 0.3)">
  <a xlink:href="namespacefabomatic_aaa30fd4002cc95e50c035f2d3dcdb44d_cgraph_org.svg" target="_base">
   <rect id="button" ry="5" rx="5" y="6" x="6" height="38" width="38"
        fill="#f2f5e9" fill-opacity="0.5" stroke="#606060" stroke-width="1.0"/>
   <path id="arrow"
     d="M 11.500037,31.436501 C 11.940474,20.09759 22.043105,11.32322 32.158766,21.979434 L 37.068811,17.246167 C 37.068811,17.246167 37.088388,32 37.088388,32 L 22.160133,31.978069 C 22.160133,31.978069 26.997745,27.140456 26.997745,27.140456 C 18.528582,18.264221 13.291696,25.230495 11.500037,31.436501 z"
     style="fill:#404040;"/>
  </a>
 </g>
</svg>

<style type='text/css'>
<![CDATA[
[data-mouse-over-selected='false'] { opacity: 0.7; }
[data-mouse-over-selected='true']  { opacity: 1.0; }
]]>
</style>
<script type="application/ecmascript"><![CDATA[
document.addEventListener('DOMContentLoaded', (event) => {
  highlightEdges();
  highlightAdjacentNodes();
});
]]></script>
</svg>
