<?xml version="1.0" encoding="UTF-8" standalone="no"?>
<!DOCTYPE svg PUBLIC "-//W3C//DTD SVG 1.1//EN"
 "http://www.w3.org/Graphics/SVG/1.1/DTD/svg11.dtd">
<!-- Generated by graphviz version 9.0.0 (20230911.1827)
 -->
<!-- Title: fabomatic::esp32::esp_serial_str Pages: 1 -->
<svg width="383pt" height="162pt"
 viewBox="0.00 0.00 383.00 161.50" xmlns="http://www.w3.org/2000/svg" xmlns:xlink="http://www.w3.org/1999/xlink">

<svg id="main" version="1.1" xmlns="http://www.w3.org/2000/svg" xmlns:xlink="http://www.w3.org/1999/xlink" xml:space="preserve" onload="init(evt)">
<style type="text/css"><![CDATA[
.node, .edge {opacity: 0.7;}
.node.selected, .edge.selected {opacity: 1;}
.edge:hover path { stroke: red; }
.edge:hover polygon { stroke: red; fill: red; }
]]></style>
<script type="application/ecmascript" xlink:href="svg.min.js"/>
<svg id="graph" class="graph">
<g id="graph0" class="graph" transform="scale(1 1) rotate(0) translate(4 157.5)">
<title>fabomatic::esp32::esp_serial_str</title>
<!-- Node1 -->
<g id="Node000001" class="node">
<title>Node1</title>
<g id="a_Node000001"><a xlink:title="Returns the ESP32 serial number as a string.">
<polygon fill="#999999" stroke="#666666" points="375,-91.5 265.25,-91.5 265.25,-61 375,-61 375,-91.5"/>
<text text-anchor="start" x="273.25" y="-78" font-family="Helvetica,sans-Serif" font-size="10.00">fabomatic::esp32::esp</text>
<text text-anchor="middle" x="320.12" y="-66.75" font-family="Helvetica,sans-Serif" font-size="10.00">_serial_str</text>
</a>
</g>
</g>
<!-- Node2 -->
<g id="Node000002" class="node">
<title>Node2</title>
<g id="a_Node000002"><a xlink:href="classfabomatic_1_1_m_q_t_t_interface_1_1_alive_query.xhtml#a68c6c58319081e123f27b01122788282" target="_top" xlink:title=" ">
<polygon fill="white" stroke="#666666" points="217.25,-153.5 88,-153.5 88,-123 217.25,-123 217.25,-153.5"/>
<text text-anchor="start" x="96" y="-140" font-family="Helvetica,sans-Serif" font-size="10.00">fabomatic::MQTTInterface</text>
<text text-anchor="middle" x="152.62" y="-128.75" font-family="Helvetica,sans-Serif" font-size="10.00">::AliveQuery::payload</text>
</a>
</g>
</g>
<!-- Node1&#45;&gt;Node2 -->
<g id="edge1_Node000001_Node000002" class="edge">
<title>Node1&#45;&gt;Node2</title>
<g id="a_edge1_Node000001_Node000002"><a xlink:title=" ">
<path fill="none" stroke="#63b8ff" d="M273.56,-96.48C259.47,-102.48 243.81,-108.87 229.25,-114.25 221.5,-117.11 213.22,-119.95 205.1,-122.62"/>
<polygon fill="#63b8ff" stroke="#63b8ff" points="274.8,-99.76 282.61,-92.59 272.04,-93.33 274.8,-99.76"/>
</a>
</g>
</g>
<!-- Node3 -->
<g id="Node000003" class="node">
<title>Node3</title>
<g id="a_Node000003"><a xlink:href="namespacefabomatic.xhtml#aba5f28d2cdf80fb0270592238bfee443" target="_top" xlink:title=" ">
<polygon fill="white" stroke="#666666" points="229.25,-104.88 76,-104.88 76,-85.62 229.25,-85.62 229.25,-104.88"/>
<text text-anchor="middle" x="152.62" y="-91.38" font-family="Helvetica,sans-Serif" font-size="10.00">fabomatic::printCompileSettings</text>
</a>
</g>
</g>
<!-- Node1&#45;&gt;Node3 -->
<g id="edge2_Node000001_Node000003" class="edge">
<title>Node1&#45;&gt;Node3</title>
<g id="a_edge2_Node000001_Node000003"><a xlink:title=" ">
<path fill="none" stroke="#63b8ff" d="M253.57,-83.78C245.69,-84.68 237.58,-85.61 229.56,-86.53"/>
<polygon fill="#63b8ff" stroke="#63b8ff" points="253.89,-87.26 263.43,-82.64 253.1,-80.31 253.89,-87.26"/>
</a>
</g>
</g>
<!-- Node5 -->
<g id="Node000005" class="node">
<title>Node5</title>
<g id="a_Node000005"><a xlink:href="namespacefabomatic.xhtml#a2c7ad2690e92eb8ab98b6fadaa4df2bd" target="_top" xlink:title=" ">
<polygon fill="white" stroke="#666666" points="222.5,-67.88 82.75,-67.88 82.75,-48.62 222.5,-48.62 222.5,-67.88"/>
<text text-anchor="middle" x="152.62" y="-54.38" font-family="Helvetica,sans-Serif" font-size="10.00">fabomatic::taskFactoryReset</text>
</a>
</g>
</g>
<!-- Node1&#45;&gt;Node5 -->
<g id="edge4_Node000001_Node000005" class="edge">
<title>Node1&#45;&gt;Node5</title>
<g id="a_edge4_Node000001_Node000005"><a xlink:title=" ">
<path fill="none" stroke="#63b8ff" d="M253.65,-69.13C243.49,-68.02 232.97,-66.88 222.73,-65.77"/>
<polygon fill="#63b8ff" stroke="#63b8ff" points="253.11,-72.59 263.43,-70.19 253.87,-65.63 253.11,-72.59"/>
</a>
</g>
</g>
<!-- Node6 -->
<g id="Node000006" class="node">
<title>Node6</title>
<g id="a_Node000006"><a xlink:href="namespacefabomatic_1_1tests.xhtml#af8fcb20d2ec63b73e90dff80564bca07" target="_top" xlink:title=" ">
<polygon fill="white" stroke="#666666" points="205.62,-30.5 99.62,-30.5 99.62,0 205.62,0 205.62,-30.5"/>
<text text-anchor="start" x="107.62" y="-17" font-family="Helvetica,sans-Serif" font-size="10.00">fabomatic::tests::test</text>
<text text-anchor="middle" x="152.62" y="-5.75" font-family="Helvetica,sans-Serif" font-size="10.00">_esp32</text>
</a>
</g>
</g>
<!-- Node1&#45;&gt;Node6 -->
<g id="edge5_Node000001_Node000006" class="edge">
<title>Node1&#45;&gt;Node6</title>
<g id="a_edge5_Node000001_Node000006"><a xlink:title=" ">
<path fill="none" stroke="#63b8ff" d="M272.79,-56.31C258.88,-50.56 243.53,-44.44 229.25,-39.25 221.48,-36.42 213.2,-33.6 205.08,-30.94"/>
<polygon fill="#63b8ff" stroke="#63b8ff" points="271.12,-59.41 281.7,-60.03 273.82,-52.95 271.12,-59.41"/>
</a>
</g>
</g>
<!-- Node4 -->
<g id="Node000004" class="node">
<title>Node4</title>
<g id="a_Node000004"><a xlink:href="main_8cpp.xhtml#a4fc01d736fe50cf5b977f755b675f11d" target="_top" xlink:title=" ">
<polygon fill="white" stroke="#666666" points="40,-104.88 0,-104.88 0,-85.62 40,-85.62 40,-104.88"/>
<text text-anchor="middle" x="20" y="-91.38" font-family="Helvetica,sans-Serif" font-size="10.00">setup</text>
</a>
</g>
</g>
<!-- Node3&#45;&gt;Node4 -->
<g id="edge3_Node000003_Node000004" class="edge">
<title>Node3&#45;&gt;Node4</title>
<g id="a_edge3_Node000003_Node000004"><a xlink:title=" ">
<path fill="none" stroke="#63b8ff" d="M64.25,-95.25C55.47,-95.25 47.3,-95.25 40.47,-95.25"/>
<polygon fill="#63b8ff" stroke="#63b8ff" points="64.13,-98.75 74.13,-95.25 64.13,-91.75 64.13,-98.75"/>
</a>
</g>
</g>
<!-- Node7 -->
<g id="Node000007" class="node">
<title>Node7</title>
<g id="a_Node000007"><a xlink:href="test__tasks_8cpp.xhtml#a4fc01d736fe50cf5b977f755b675f11d" target="_top" xlink:title=" ">
<polygon fill="white" stroke="#666666" points="40,-24.88 0,-24.88 0,-5.62 40,-5.62 40,-24.88"/>
<text text-anchor="middle" x="20" y="-11.38" font-family="Helvetica,sans-Serif" font-size="10.00">setup</text>
</a>
</g>
</g>
<!-- Node6&#45;&gt;Node7 -->
<g id="edge6_Node000006_Node000007" class="edge">
<title>Node6&#45;&gt;Node7</title>
<g id="a_edge6_Node000006_Node000007"><a xlink:title=" ">
<path fill="none" stroke="#63b8ff" d="M87.95,-15.25C70.65,-15.25 53.19,-15.25 40.45,-15.25"/>
<polygon fill="#63b8ff" stroke="#63b8ff" points="87.73,-18.75 97.73,-15.25 87.73,-11.75 87.73,-18.75"/>
</a>
</g>
</g>
</g>
</svg>
</svg>

<style type='text/css'>
<![CDATA[
[data-mouse-over-selected='false'] { opacity: 0.7; }
[data-mouse-over-selected='true']  { opacity: 1.0; }
]]>
</style>
<script type="application/ecmascript"><![CDATA[
document.addEventListener('DOMContentLoaded', (event) => {
  highlightEdges();
  highlightAdjacentNodes();
});
]]></script>
</svg>
