<?xml version="1.0" encoding="UTF-8" standalone="no"?>
<!DOCTYPE svg PUBLIC "-//W3C//DTD SVG 1.1//EN"
 "http://www.w3.org/Graphics/SVG/1.1/DTD/svg11.dtd">
<!-- Generated by graphviz version 9.0.0 (20230911.1827)
 -->
<!-- Title: fabomatic::configure_pins Pages: 1 -->
<svg width="272pt" height="235pt"
 viewBox="0.00 0.00 271.75 234.50" xmlns="http://www.w3.org/2000/svg" xmlns:xlink="http://www.w3.org/1999/xlink">

<svg id="main" version="1.1" xmlns="http://www.w3.org/2000/svg" xmlns:xlink="http://www.w3.org/1999/xlink" xml:space="preserve" onload="init(evt)">
<style type="text/css"><![CDATA[
.node, .edge {opacity: 0.7;}
.node.selected, .edge.selected {opacity: 1;}
.edge:hover path { stroke: red; }
.edge:hover polygon { stroke: red; fill: red; }
]]></style>
<script type="application/ecmascript" xlink:href="svg.min.js"/>
<svg id="graph" class="graph">
<g id="graph0" class="graph" transform="scale(1 1) rotate(0) translate(4 230.5)">
<title>fabomatic::configure_pins</title>
<!-- Node1 -->
<g id="Node000001" class="node">
<title>Node1</title>
<g id="a_Node000001"><a xlink:title="Returns the actual pins configuration to be used depending on preprocessor constants.">
<polygon fill="#999999" stroke="#666666" points="125.5,-122.88 0,-122.88 0,-103.62 125.5,-103.62 125.5,-122.88"/>
<text text-anchor="middle" x="62.75" y="-109.38" font-family="Helvetica,sans-Serif" font-size="10.00">fabomatic::configure_pins</text>
</a>
</g>
</g>
<!-- Node2 -->
<g id="Node000002" class="node">
<title>Node2</title>
<g id="a_Node000002"><a xlink:href="namespacefabomatic.xhtml#a890159b27c3040fabeac2369b845d505" target="_top" xlink:title="Returns configuration for an ESP32 dev board used in revision 0.1.">
<polygon fill="white" stroke="#666666" points="263.75,-226.5 161.5,-226.5 161.5,-196 263.75,-196 263.75,-226.5"/>
<text text-anchor="start" x="169.5" y="-213" font-family="Helvetica,sans-Serif" font-size="10.00">fabomatic::configure</text>
<text text-anchor="middle" x="212.62" y="-201.75" font-family="Helvetica,sans-Serif" font-size="10.00">_pins_esp32</text>
</a>
</g>
</g>
<!-- Node1&#45;&gt;Node2 -->
<g id="edge1_Node000001_Node000002" class="edge">
<title>Node1&#45;&gt;Node2</title>
<g id="a_edge1_Node000001_Node000002"><a xlink:title=" ">
<path fill="none" stroke="#63b8ff" d="M75.6,-123.2C93.51,-137.98 128.86,-166.14 161.5,-186.25 163.62,-187.56 165.82,-188.85 168.05,-190.12"/>
<polygon fill="#63b8ff" stroke="#63b8ff" points="166.22,-193.11 176.68,-194.8 169.56,-186.96 166.22,-193.11"/>
</a>
</g>
</g>
<!-- Node3 -->
<g id="Node000003" class="node">
<title>Node3</title>
<g id="a_Node000003"><a xlink:href="namespacefabomatic.xhtml#a1614beb33b0f32f1d51ca358e28f5d10" target="_top" xlink:title="Returns configuration for esp32s3 dev kit board.">
<polygon fill="white" stroke="#666666" points="263.75,-177.5 161.5,-177.5 161.5,-147 263.75,-147 263.75,-177.5"/>
<text text-anchor="start" x="169.5" y="-164" font-family="Helvetica,sans-Serif" font-size="10.00">fabomatic::configure</text>
<text text-anchor="middle" x="212.62" y="-152.75" font-family="Helvetica,sans-Serif" font-size="10.00">_pins_esp32s3</text>
</a>
</g>
</g>
<!-- Node1&#45;&gt;Node3 -->
<g id="edge2_Node000001_Node000003" class="edge">
<title>Node1&#45;&gt;Node3</title>
<g id="a_edge2_Node000001_Node000003"><a xlink:title=" ">
<path fill="none" stroke="#63b8ff" d="M94.03,-123.28C111.15,-128.96 133.13,-136.24 153.45,-142.97"/>
<polygon fill="#63b8ff" stroke="#63b8ff" points="152.17,-146.24 162.77,-146.06 154.38,-139.59 152.17,-146.24"/>
</a>
</g>
</g>
<!-- Node4 -->
<g id="Node000004" class="node">
<title>Node4</title>
<g id="a_Node000004"><a xlink:href="namespacefabomatic.xhtml#a8cbf64f1530e4e025ba17eb3fcc384a5" target="_top" xlink:title="Returns configuration for PCB hardware in this repository.">
<polygon fill="white" stroke="#666666" points="263.75,-128.5 161.5,-128.5 161.5,-98 263.75,-98 263.75,-128.5"/>
<text text-anchor="start" x="169.5" y="-115" font-family="Helvetica,sans-Serif" font-size="10.00">fabomatic::configure</text>
<text text-anchor="middle" x="212.62" y="-103.75" font-family="Helvetica,sans-Serif" font-size="10.00">_pins_hwrev0</text>
</a>
</g>
</g>
<!-- Node1&#45;&gt;Node4 -->
<g id="edge3_Node000001_Node000004" class="edge">
<title>Node1&#45;&gt;Node4</title>
<g id="a_edge3_Node000001_Node000004"><a xlink:title=" ">
<path fill="none" stroke="#63b8ff" d="M125.61,-113.25C133.58,-113.25 141.75,-113.25 149.73,-113.25"/>
<polygon fill="#63b8ff" stroke="#63b8ff" points="149.72,-116.75 159.72,-113.25 149.72,-109.75 149.72,-116.75"/>
</a>
</g>
</g>
<!-- Node5 -->
<g id="Node000005" class="node">
<title>Node5</title>
<g id="a_Node000005"><a xlink:href="namespacefabomatic.xhtml#a3ce79bfd6a28b712f586a19efb8d7a4b" target="_top" xlink:title="Returns configuration for Wokwi ESP32S2 environment.">
<polygon fill="white" stroke="#666666" points="263.75,-79.5 161.5,-79.5 161.5,-49 263.75,-49 263.75,-79.5"/>
<text text-anchor="start" x="169.5" y="-66" font-family="Helvetica,sans-Serif" font-size="10.00">fabomatic::configure</text>
<text text-anchor="middle" x="212.62" y="-54.75" font-family="Helvetica,sans-Serif" font-size="10.00">_pins_wokwi</text>
</a>
</g>
</g>
<!-- Node1&#45;&gt;Node5 -->
<g id="edge4_Node000001_Node000005" class="edge">
<title>Node1&#45;&gt;Node5</title>
<g id="a_edge4_Node000001_Node000005"><a xlink:title=" ">
<path fill="none" stroke="#63b8ff" d="M94.03,-103.22C111.15,-97.54 133.13,-90.26 153.45,-83.53"/>
<polygon fill="#63b8ff" stroke="#63b8ff" points="154.38,-86.91 162.77,-80.44 152.17,-80.26 154.38,-86.91"/>
</a>
</g>
</g>
<!-- Node6 -->
<g id="Node000006" class="node">
<title>Node6</title>
<g id="a_Node000006"><a xlink:href="namespacefabomatic.xhtml#a7d7ec4f6b18ed51fccb19da9b813970f" target="_top" xlink:title="Configuration for ESP32 Wrover Kit 4.1 (https://docs.espressif.com/projects/esp&#45;idf/en/latest/esp32/h...">
<polygon fill="white" stroke="#666666" points="263.75,-30.5 161.5,-30.5 161.5,0 263.75,0 263.75,-30.5"/>
<text text-anchor="start" x="169.5" y="-17" font-family="Helvetica,sans-Serif" font-size="10.00">fabomatic::configure</text>
<text text-anchor="middle" x="212.62" y="-5.75" font-family="Helvetica,sans-Serif" font-size="10.00">_pins_wrover</text>
</a>
</g>
</g>
<!-- Node1&#45;&gt;Node6 -->
<g id="edge5_Node000001_Node000006" class="edge">
<title>Node1&#45;&gt;Node6</title>
<g id="a_edge5_Node000001_Node000006"><a xlink:title=" ">
<path fill="none" stroke="#63b8ff" d="M75.6,-103.3C93.51,-88.52 128.86,-60.36 161.5,-40.25 163.62,-38.94 165.82,-37.65 168.05,-36.38"/>
<polygon fill="#63b8ff" stroke="#63b8ff" points="169.56,-39.54 176.68,-31.7 166.22,-33.39 169.56,-39.54"/>
</a>
</g>
</g>
</g>
</svg>
</svg>

<style type='text/css'>
<![CDATA[
[data-mouse-over-selected='false'] { opacity: 0.7; }
[data-mouse-over-selected='true']  { opacity: 1.0; }
]]>
</style>
<script type="application/ecmascript"><![CDATA[
document.addEventListener('DOMContentLoaded', (event) => {
  highlightEdges();
  highlightAdjacentNodes();
});
]]></script>
</svg>
