<?xml version="1.0" encoding="UTF-8" standalone="no"?>
<!DOCTYPE svg PUBLIC "-//W3C//DTD SVG 1.1//EN"
 "http://www.w3.org/Graphics/SVG/1.1/DTD/svg11.dtd">
<!-- Generated by graphviz version 9.0.0 (20230911.1827)
 -->
<!-- Title: fabomatic::taskEspWatchdog Pages: 1 -->
<svg width="510pt" height="82pt"
 viewBox="0.00 0.00 509.75 81.50" xmlns="http://www.w3.org/2000/svg" xmlns:xlink="http://www.w3.org/1999/xlink">
<g id="graph0" class="graph" transform="scale(1 1) rotate(0) translate(4 77.5)">
<title>fabomatic::taskEspWatchdog</title>
<!-- Node1 -->
<g id="Node000001" class="node">
<title>Node1</title>
<g id="a_Node000001"><a xlink:title="Keep the ESP32 HW watchdog alive. If code gets stuck this will cause an automatic reset.">
<polygon fill="#999999" stroke="#666666" points="142,-45.88 0,-45.88 0,-26.62 142,-26.62 142,-45.88"/>
<text text-anchor="middle" x="71" y="-32.38" font-family="Helvetica,sans-Serif" font-size="10.00">fabomatic::taskEspWatchdog</text>
</a>
</g>
</g>
<!-- Node2 -->
<g id="Node000002" class="node">
<title>Node2</title>
<g id="a_Node000002"><a xlink:href="namespacefabomatic_1_1esp32.xhtml#a8bec49abfae47da0cadccb6e486f69bb" target="_top" xlink:title=" ">
<polygon fill="white" stroke="#666666" points="339.5,-67.88 178,-67.88 178,-48.62 339.5,-48.62 339.5,-67.88"/>
<text text-anchor="middle" x="258.75" y="-54.38" font-family="Helvetica,sans-Serif" font-size="10.00">fabomatic::esp32::setupWatchdog</text>
</a>
</g>
</g>
<!-- Node1&#45;&gt;Node2 -->
<g id="edge1_Node000001_Node000002" class="edge">
<title>Node1&#45;&gt;Node2</title>
<g id="a_edge1_Node000001_Node000002"><a xlink:title=" ">
<path fill="none" stroke="#63b8ff" d="M142.49,-44.6C150.3,-45.52 158.34,-46.48 166.36,-47.43"/>
<polygon fill="#63b8ff" stroke="#63b8ff" points="165.82,-50.89 176.17,-48.59 166.65,-43.94 165.82,-50.89"/>
</a>
</g>
</g>
<!-- Node4 -->
<g id="Node000004" class="node">
<title>Node4</title>
<g id="a_Node000004"><a xlink:href="namespacefabomatic_1_1esp32.xhtml#ac7eca0f98345aa2c296103d6dc9fff01" target="_top" xlink:title=" ">
<polygon fill="white" stroke="#666666" points="318.5,-30.5 199,-30.5 199,0 318.5,0 318.5,-30.5"/>
<text text-anchor="start" x="207" y="-17" font-family="Helvetica,sans-Serif" font-size="10.00">fabomatic::esp32::signal</text>
<text text-anchor="middle" x="258.75" y="-5.75" font-family="Helvetica,sans-Serif" font-size="10.00">Watchdog</text>
</a>
</g>
</g>
<!-- Node1&#45;&gt;Node4 -->
<g id="edge3_Node000001_Node000004" class="edge">
<title>Node1&#45;&gt;Node4</title>
<g id="a_edge3_Node000001_Node000004"><a xlink:title=" ">
<path fill="none" stroke="#63b8ff" d="M142.49,-28.28C157.21,-26.62 172.73,-24.86 187.44,-23.2"/>
<polygon fill="#63b8ff" stroke="#63b8ff" points="187.47,-26.72 197.01,-22.12 186.68,-19.76 187.47,-26.72"/>
</a>
</g>
</g>
<!-- Node3 -->
<g id="Node000003" class="node">
<title>Node3</title>
<g id="a_Node000003"><a xlink:href="namespacefabomatic_1_1esp32.xhtml#ae78a1408710128cb446f2cde991017dd" target="_top" xlink:title=" ">
<polygon fill="white" stroke="#666666" points="501.75,-73.5 375.5,-73.5 375.5,-43 501.75,-43 501.75,-73.5"/>
<text text-anchor="start" x="383.5" y="-60" font-family="Helvetica,sans-Serif" font-size="10.00">fabomatic::esp32::remove</text>
<text text-anchor="middle" x="438.62" y="-48.75" font-family="Helvetica,sans-Serif" font-size="10.00">Watchdog</text>
</a>
</g>
</g>
<!-- Node2&#45;&gt;Node3 -->
<g id="edge2_Node000002_Node000003" class="edge">
<title>Node2&#45;&gt;Node3</title>
<g id="a_edge2_Node000002_Node000003"><a xlink:title=" ">
<path fill="none" stroke="#63b8ff" d="M339.84,-58.25C347.77,-58.25 355.8,-58.25 363.66,-58.25"/>
<polygon fill="#63b8ff" stroke="#63b8ff" points="363.52,-61.75 373.52,-58.25 363.52,-54.75 363.52,-61.75"/>
</a>
</g>
</g>
</g>
</svg>
