<?xml version="1.0" encoding="UTF-8" standalone="no"?>
<!DOCTYPE svg PUBLIC "-//W3C//DTD SVG 1.1//EN"
 "http://www.w3.org/Graphics/SVG/1.1/DTD/svg11.dtd">
<!-- Generated by graphviz version 9.0.0 (20230911.1827)
 -->
<!-- Title: fabomatic::taskRfidWatchdog Pages: 1 -->
<!--zoomable 649 -->

<svg id="main" version="1.1" xmlns="http://www.w3.org/2000/svg" xmlns:xlink="http://www.w3.org/1999/xlink" xml:space="preserve" onload="init(evt)">
<style type="text/css"><![CDATA[
.node, .edge {opacity: 0.7;}
.node.selected, .edge.selected {opacity: 1;}
.edge:hover path { stroke: red; }
.edge:hover polygon { stroke: red; fill: red; }
]]></style>

<defs>
  <circle id="rim" cx="0" cy="0" r="7"/>
  <circle id="rim2" cx="0" cy="0" r="3.5"/>
  <g id="zoomPlus">
    <use xlink:href="#rim" fill="#404040"><set attributeName="fill" to="#808080" begin="zoomplus.mouseover" end="zoomplus.mouseout"/></use>
    <path d="M-4,0h8M0,-4v8" fill="none" stroke="white" stroke-width="1.5" pointer-events="none"/>
  </g>
  <g id="zoomMin">
    <use xlink:href="#rim" fill="#404040"><set attributeName="fill" to="#808080" begin="zoomminus.mouseover" end="zoomminus.mouseout"/></use>
    <path d="M-4,0h8" fill="none" stroke="white" stroke-width="1.5" pointer-events="none"/>
  </g>
  <g id="arrowUp" transform="translate(30 24)">
    <use xlink:href="#rim"/>
    <path pointer-events="none" fill="none" stroke="white" stroke-width="1.5" d="M0,-3.0v7 M-2.5,-0.5L0,-3.0L2.5,-0.5"/>
  </g>
  <g id="arrowRight" transform="rotate(90) translate(36 -43)">
    <use xlink:href="#rim"/>
    <path pointer-events="none" fill="none" stroke="white" stroke-width="1.5" d="M0,-3.0v7 M-2.5,-0.5L0,-3.0L2.5,-0.5"/>
  </g>
  <g id="arrowDown" transform="rotate(180) translate(-30 -48)">
    <use xlink:href="#rim"/>
    <path pointer-events="none" fill="none" stroke="white" stroke-width="1.5" d="M0,-3.0v7 M-2.5,-0.5L0,-3.0L2.5,-0.5"/>
  </g>
  <g id="arrowLeft" transform="rotate(270) translate(-36 17)">
    <use xlink:href="#rim"/>
    <path pointer-events="none" fill="none" stroke="white" stroke-width="1.5" d="M0,-3.0v7 M-2.5,-0.5L0,-3.0L2.5,-0.5"/>
  </g>
  <g id="resetDef">
    <use xlink:href="#rim2" fill="#404040"><set attributeName="fill" to="#808080" begin="reset.mouseover" end="reset.mouseout"/></use>
  </g>
</defs>
<script type="application/ecmascript">
var viewWidth = 938;
var viewHeight = 649;
var sectionId = 'dynsection-30';
</script>
<script type="application/ecmascript" xlink:href="svg.min.js"/>
<svg id="graph" class="graph">
<g id="viewport">
<title>fabomatic::taskRfidWatchdog</title>
<!-- Node1 -->
<g id="Node000001" class="node">
<title>Node1</title>
<g id="a_Node000001"><a xlink:title="checks the RFID chip status and re&#45;init it if necessary.">
<polygon fill="#999999" stroke="#666666" points="142,-24.2 0,-24.2 0,-4.95 142,-4.95 142,-24.2"/>
<text text-anchor="middle" x="71" y="-10.7" font-family="Helvetica,sans-Serif" font-size="10.00">fabomatic::taskRfidWatchdog</text>
</a>
</g>
</g>
<!-- Node2 -->
<g id="Node000002" class="node">
<title>Node2</title>
<g id="a_Node000002"><a xlink:href="classfabomatic_1_1_board_logic.xhtml#a3c38d7a3ed7952c6d6297efdf50ea4dd" target="_top" xlink:title="Sets the board in the state given.">
<polygon fill="white" stroke="#666666" points="290.75,-189.82 178,-189.82 178,-159.32 290.75,-159.32 290.75,-189.82"/>
<text text-anchor="start" x="186" y="-176.32" font-family="Helvetica,sans-Serif" font-size="10.00">fabomatic::BoardLogic</text>
<text text-anchor="middle" x="234.38" y="-165.07" font-family="Helvetica,sans-Serif" font-size="10.00">::changeStatus</text>
</a>
</g>
</g>
<!-- Node1&#45;&gt;Node2 -->
<g id="edge1_Node000001_Node000002" class="edge">
<title>Node1&#45;&gt;Node2</title>
<g id="a_edge1_Node000001_Node000002"><a xlink:title=" ">
<path fill="none" stroke="#63b8ff" d="M82.09,-24.58C107.33,-49.6 173.69,-115.39 209.55,-150.95"/>
<polygon fill="#63b8ff" stroke="#63b8ff" points="206.92,-153.27 216.48,-157.82 211.84,-148.3 206.92,-153.27"/>
</a>
</g>
</g>
<!-- Node6 -->
<g id="Node000006" class="node">
<title>Node6</title>
<g id="a_Node000006"><a xlink:href="namespacefabomatic_1_1_tasks.xhtml#a5c20f560f5934822d39ba116a16f3ab6" target="_top" xlink:title="Wait for a delay, allowing OTA updates.">
<polygon fill="white" stroke="#666666" points="747.12,-46.2 629.88,-46.2 629.88,-26.95 747.12,-26.95 747.12,-46.2"/>
<text text-anchor="middle" x="688.5" y="-32.7" font-family="Helvetica,sans-Serif" font-size="10.00">fabomatic::Tasks::delay</text>
</a>
</g>
</g>
<!-- Node1&#45;&gt;Node6 -->
<g id="edge23_Node000001_Node000006" class="edge">
<title>Node1&#45;&gt;Node6</title>
<g id="a_edge23_Node000001_Node000006"><a xlink:title=" ">
<path fill="none" stroke="#63b8ff" d="M142.36,-8.59C242.87,-1.35 433.15,7.58 593.5,-12.57 610.74,-14.74 629.36,-19.06 645.44,-23.44"/>
<polygon fill="#63b8ff" stroke="#63b8ff" points="644.09,-26.7 654.66,-26.05 645.99,-19.96 644.09,-26.7"/>
</a>
</g>
</g>
<!-- Node3 -->
<g id="Node000003" class="node">
<title>Node3</title>
<g id="a_Node000003"><a xlink:href="classfabomatic_1_1_board_logic.xhtml#a47b4d515c0d3488eceb49769036bce8b" target="_top" xlink:title="Updates the LCD screen as per the current status.">
<polygon fill="white" stroke="#666666" points="439.5,-327.82 326.75,-327.82 326.75,-297.32 439.5,-297.32 439.5,-327.82"/>
<text text-anchor="start" x="334.75" y="-314.32" font-family="Helvetica,sans-Serif" font-size="10.00">fabomatic::BoardLogic</text>
<text text-anchor="middle" x="383.12" y="-303.07" font-family="Helvetica,sans-Serif" font-size="10.00">::updateLCD</text>
</a>
</g>
</g>
<!-- Node2&#45;&gt;Node3 -->
<g id="edge2_Node000002_Node000003" class="edge">
<title>Node2&#45;&gt;Node3</title>
<g id="a_edge2_Node000002_Node000003"><a xlink:title=" ">
<path fill="none" stroke="#63b8ff" d="M251.92,-190.13C277.58,-214.26 327.1,-260.83 357.13,-289.07"/>
<polygon fill="#63b8ff" stroke="#63b8ff" points="354.63,-291.52 364.31,-295.82 359.42,-286.42 354.63,-291.52"/>
</a>
</g>
</g>
<!-- Node4 -->
<g id="Node000004" class="node">
<title>Node4</title>
<g id="a_Node000004"><a xlink:href="classfabomatic_1_1_machine.xhtml#a39c30eaa242d5cc2ce784dbafeef87e8" target="_top" xlink:title=" ">
<polygon fill="white" stroke="#666666" points="584.5,-603.82 484.5,-603.82 484.5,-573.32 584.5,-573.32 584.5,-603.82"/>
<text text-anchor="start" x="492.5" y="-590.32" font-family="Helvetica,sans-Serif" font-size="10.00">fabomatic::Machine</text>
<text text-anchor="middle" x="534.5" y="-579.07" font-family="Helvetica,sans-Serif" font-size="10.00">::getActiveUser</text>
</a>
</g>
</g>
<!-- Node3&#45;&gt;Node4 -->
<g id="edge3_Node000003_Node000004" class="edge">
<title>Node3&#45;&gt;Node4</title>
<g id="a_edge3_Node000003_Node000004"><a xlink:title=" ">
<path fill="none" stroke="#63b8ff" d="M385.9,-328.2C391.48,-370.53 412.18,-488.92 475.5,-559.57 477.79,-562.13 480.36,-564.49 483.11,-566.66"/>
<polygon fill="#63b8ff" stroke="#63b8ff" points="480.9,-569.39 491.13,-572.13 484.84,-563.6 480.9,-569.39"/>
</a>
</g>
</g>
<!-- Node5 -->
<g id="Node000005" class="node">
<title>Node5</title>
<g id="a_Node000005"><a xlink:href="classfabomatic_1_1_board_logic.xhtml#a462b4b6149ca7bf33b699eb3181c969f" target="_top" xlink:title=" ">
<polygon fill="white" stroke="#666666" points="590.88,-51.82 478.12,-51.82 478.12,-21.32 590.88,-21.32 590.88,-51.82"/>
<text text-anchor="start" x="486.12" y="-38.32" font-family="Helvetica,sans-Serif" font-size="10.00">fabomatic::BoardLogic</text>
<text text-anchor="middle" x="534.5" y="-27.07" font-family="Helvetica,sans-Serif" font-size="10.00">::getLcd</text>
</a>
</g>
</g>
<!-- Node3&#45;&gt;Node5 -->
<g id="edge4_Node000003_Node000005" class="edge">
<title>Node3&#45;&gt;Node5</title>
<g id="a_edge4_Node000003_Node000005"><a xlink:title=" ">
<path fill="none" stroke="#63b8ff" d="M385.9,-296.94C391.48,-254.62 412.18,-136.22 475.5,-65.57 477.79,-63.01 480.36,-60.65 483.11,-58.48"/>
<polygon fill="#63b8ff" stroke="#63b8ff" points="484.84,-61.54 491.13,-53.01 480.9,-55.75 484.84,-61.54"/>
</a>
</g>
</g>
<!-- Node8 -->
<g id="Node000008" class="node">
<title>Node8</title>
<g id="a_Node000008"><a xlink:href="classfabomatic_1_1_board_logic.xhtml#a164e40105242d0b7c56c6b4f21155101" target="_top" xlink:title="Gets the current machine.">
<polygon fill="white" stroke="#666666" points="590.88,-517.82 478.12,-517.82 478.12,-487.32 590.88,-487.32 590.88,-517.82"/>
<text text-anchor="start" x="486.12" y="-504.32" font-family="Helvetica,sans-Serif" font-size="10.00">fabomatic::BoardLogic</text>
<text text-anchor="middle" x="534.5" y="-493.07" font-family="Helvetica,sans-Serif" font-size="10.00">::getMachine</text>
</a>
</g>
</g>
<!-- Node3&#45;&gt;Node8 -->
<g id="edge8_Node000003_Node000008" class="edge">
<title>Node3&#45;&gt;Node8</title>
<g id="a_edge8_Node000003_Node000008"><a xlink:title=" ">
<path fill="none" stroke="#63b8ff" d="M388.83,-327.92C399.35,-359.9 427.69,-434.26 475.5,-477.57 476.72,-478.68 477.99,-479.74 479.32,-480.75"/>
<polygon fill="#63b8ff" stroke="#63b8ff" points="477.04,-483.45 487.32,-486.04 480.9,-477.61 477.04,-483.45"/>
</a>
</g>
</g>
<!-- Node9 -->
<g id="Node000009" class="node">
<title>Node9</title>
<g id="a_Node000009"><a xlink:href="classfabomatic_1_1_machine.xhtml#a1637e99f2d70262d2ab26f69ed4f0e47" target="_top" xlink:title=" ">
<polygon fill="white" stroke="#666666" points="584.5,-468.82 484.5,-468.82 484.5,-438.32 584.5,-438.32 584.5,-468.82"/>
<text text-anchor="start" x="492.5" y="-455.32" font-family="Helvetica,sans-Serif" font-size="10.00">fabomatic::Machine</text>
<text text-anchor="middle" x="534.5" y="-444.07" font-family="Helvetica,sans-Serif" font-size="10.00">::getMachineName</text>
</a>
</g>
</g>
<!-- Node3&#45;&gt;Node9 -->
<g id="edge9_Node000003_Node000009" class="edge">
<title>Node3&#45;&gt;Node9</title>
<g id="a_edge9_Node000003_Node000009"><a xlink:title=" ">
<path fill="none" stroke="#63b8ff" d="M392.87,-328.12C407.26,-352.48 438.1,-399.83 475.5,-428.57 477.2,-429.87 478.97,-431.12 480.8,-432.32"/>
<polygon fill="#63b8ff" stroke="#63b8ff" points="478.61,-435.1 489.01,-437.1 482.13,-429.05 478.61,-435.1"/>
</a>
</g>
</g>
<!-- Node10 -->
<g id="Node000010" class="node">
<title>Node10</title>
<g id="a_Node000010"><a xlink:href="classfabomatic_1_1_machine.xhtml#ad511c567c7cb7487d19019550c9a4e32" target="_top" xlink:title=" ">
<polygon fill="white" stroke="#666666" points="587.5,-419.82 481.5,-419.82 481.5,-389.32 587.5,-389.32 587.5,-419.82"/>
<text text-anchor="start" x="489.5" y="-406.32" font-family="Helvetica,sans-Serif" font-size="10.00">fabomatic::Machine</text>
<text text-anchor="middle" x="534.5" y="-395.07" font-family="Helvetica,sans-Serif" font-size="10.00">::getMaintenanceInfo</text>
</a>
</g>
</g>
<!-- Node3&#45;&gt;Node10 -->
<g id="edge10_Node000003_Node000010" class="edge">
<title>Node3&#45;&gt;Node10</title>
<g id="a_edge10_Node000003_Node000010"><a xlink:title=" ">
<path fill="none" stroke="#63b8ff" d="M402.87,-328.28C420.76,-342.78 448.87,-364.33 475.5,-379.57 478.13,-381.08 480.87,-382.55 483.66,-383.98"/>
<polygon fill="#63b8ff" stroke="#63b8ff" points="482.03,-387.07 492.55,-388.28 485.07,-380.77 482.03,-387.07"/>
</a>
</g>
</g>
<!-- Node11 -->
<g id="Node000011" class="node">
<title>Node11</title>
<g id="a_Node000011"><a xlink:href="classfabomatic_1_1_machine.xhtml#a3c5304fd80e0cc1c2118a59c64222d6d" target="_top" xlink:title="Returns the current power state of the machine.">
<polygon fill="white" stroke="#666666" points="584.5,-370.82 484.5,-370.82 484.5,-340.32 584.5,-340.32 584.5,-370.82"/>
<text text-anchor="start" x="492.5" y="-357.32" font-family="Helvetica,sans-Serif" font-size="10.00">fabomatic::Machine</text>
<text text-anchor="middle" x="534.5" y="-346.07" font-family="Helvetica,sans-Serif" font-size="10.00">::getPowerState</text>
</a>
</g>
</g>
<!-- Node3&#45;&gt;Node11 -->
<g id="edge11_Node000003_Node000011" class="edge">
<title>Node3&#45;&gt;Node11</title>
<g id="a_edge11_Node000003_Node000011"><a xlink:title=" ">
<path fill="none" stroke="#63b8ff" d="M438.48,-328.22C449.85,-331.49 461.91,-334.96 473.49,-338.3"/>
<polygon fill="#63b8ff" stroke="#63b8ff" points="472.36,-341.61 482.94,-341.02 474.3,-334.89 472.36,-341.61"/>
</a>
</g>
</g>
<!-- Node12 -->
<g id="Node000012" class="node">
<title>Node12</title>
<g id="a_Node000012"><a xlink:href="classfabomatic_1_1_machine.xhtml#a9c845a163660550fa779516a8be8681a" target="_top" xlink:title="Duration of the current usage, or 0s.">
<polygon fill="white" stroke="#666666" points="738.5,-327.82 638.5,-327.82 638.5,-297.32 738.5,-297.32 738.5,-327.82"/>
<text text-anchor="start" x="646.5" y="-314.32" font-family="Helvetica,sans-Serif" font-size="10.00">fabomatic::Machine</text>
<text text-anchor="middle" x="688.5" y="-303.07" font-family="Helvetica,sans-Serif" font-size="10.00">::getUsageDuration</text>
</a>
</g>
</g>
<!-- Node3&#45;&gt;Node12 -->
<g id="edge12_Node000003_Node000012" class="edge">
<title>Node3&#45;&gt;Node12</title>
<g id="a_edge12_Node000003_Node000012"><a xlink:title=" ">
<path fill="none" stroke="#63b8ff" d="M439.77,-312.57C492.79,-312.57 572.4,-312.57 626.98,-312.57"/>
<polygon fill="#63b8ff" stroke="#63b8ff" points="626.72,-316.07 636.72,-312.57 626.72,-309.07 626.72,-316.07"/>
</a>
</g>
</g>
<!-- Node13 -->
<g id="Node000013" class="node">
<title>Node13</title>
<g id="a_Node000013"><a xlink:href="classfabomatic_1_1_machine.xhtml#a4b40dcb31af466acc85f66c845516c82" target="_top" xlink:title=" ">
<polygon fill="white" stroke="#666666" points="584.5,-284.82 484.5,-284.82 484.5,-254.32 584.5,-254.32 584.5,-284.82"/>
<text text-anchor="start" x="492.5" y="-271.32" font-family="Helvetica,sans-Serif" font-size="10.00">fabomatic::Machine</text>
<text text-anchor="middle" x="534.5" y="-260.07" font-family="Helvetica,sans-Serif" font-size="10.00">::isAllowed</text>
</a>
</g>
</g>
<!-- Node3&#45;&gt;Node13 -->
<g id="edge14_Node000003_Node000013" class="edge">
<title>Node3&#45;&gt;Node13</title>
<g id="a_edge14_Node000003_Node000013"><a xlink:title=" ">
<path fill="none" stroke="#63b8ff" d="M438.48,-296.93C449.85,-293.65 461.91,-290.18 473.49,-286.85"/>
<polygon fill="#63b8ff" stroke="#63b8ff" points="474.3,-290.26 482.94,-284.13 472.36,-283.53 474.3,-290.26"/>
</a>
</g>
</g>
<!-- Node14 -->
<g id="Node000014" class="node">
<title>Node14</title>
<g id="a_Node000014"><a xlink:href="classfabomatic_1_1_machine.xhtml#a9fd614d86b6108a5a7b54fc9eee0d9a6" target="_top" xlink:title="Indicates if the machine has been configured.">
<polygon fill="white" stroke="#666666" points="584.5,-235.82 484.5,-235.82 484.5,-205.32 584.5,-205.32 584.5,-235.82"/>
<text text-anchor="start" x="492.5" y="-222.32" font-family="Helvetica,sans-Serif" font-size="10.00">fabomatic::Machine</text>
<text text-anchor="middle" x="534.5" y="-211.07" font-family="Helvetica,sans-Serif" font-size="10.00">::isConfigured</text>
</a>
</g>
</g>
<!-- Node3&#45;&gt;Node14 -->
<g id="edge15_Node000003_Node000014" class="edge">
<title>Node3&#45;&gt;Node14</title>
<g id="a_edge15_Node000003_Node000014"><a xlink:title=" ">
<path fill="none" stroke="#63b8ff" d="M402.87,-296.87C420.76,-282.36 448.87,-260.81 475.5,-245.57 478.13,-244.07 480.87,-242.59 483.66,-241.17"/>
<polygon fill="#63b8ff" stroke="#63b8ff" points="485.07,-244.37 492.55,-236.87 482.03,-238.07 485.07,-244.37"/>
</a>
</g>
</g>
<!-- Node15 -->
<g id="Node000015" class="node">
<title>Node15</title>
<g id="a_Node000015"><a xlink:href="classfabomatic_1_1_machine.xhtml#a34b0deb04494137cf321e94d50dedf90" target="_top" xlink:title=" ">
<polygon fill="white" stroke="#666666" points="593.12,-186.82 475.88,-186.82 475.88,-156.32 593.12,-156.32 593.12,-186.82"/>
<text text-anchor="start" x="483.88" y="-173.32" font-family="Helvetica,sans-Serif" font-size="10.00">fabomatic::Machine</text>
<text text-anchor="middle" x="534.5" y="-162.07" font-family="Helvetica,sans-Serif" font-size="10.00">::isMaintenanceNeeded</text>
</a>
</g>
</g>
<!-- Node3&#45;&gt;Node15 -->
<g id="edge16_Node000003_Node000015" class="edge">
<title>Node3&#45;&gt;Node15</title>
<g id="a_edge16_Node000003_Node000015"><a xlink:title=" ">
<path fill="none" stroke="#63b8ff" d="M392.87,-297.03C407.26,-272.67 438.1,-225.32 475.5,-196.57 477.2,-195.27 478.97,-194.02 480.8,-192.82"/>
<polygon fill="#63b8ff" stroke="#63b8ff" points="482.13,-196.1 489.01,-188.04 478.61,-190.05 482.13,-196.1"/>
</a>
</g>
</g>
<!-- Node16 -->
<g id="Node000016" class="node">
<title>Node16</title>
<g id="a_Node000016"><a xlink:href="classfabomatic_1_1_fab_backend.xhtml#aef092e0e1db0c3539d5474fad2456255" target="_top" xlink:title="Indicates if the MQTT client is connected to the broker and backend is responsive.">
<polygon fill="white" stroke="#666666" points="593.5,-137.82 475.5,-137.82 475.5,-107.32 593.5,-107.32 593.5,-137.82"/>
<text text-anchor="start" x="483.5" y="-124.32" font-family="Helvetica,sans-Serif" font-size="10.00">fabomatic::FabBackend</text>
<text text-anchor="middle" x="534.5" y="-113.07" font-family="Helvetica,sans-Serif" font-size="10.00">::isOnline</text>
</a>
</g>
</g>
<!-- Node3&#45;&gt;Node16 -->
<g id="edge17_Node000003_Node000016" class="edge">
<title>Node3&#45;&gt;Node16</title>
<g id="a_edge17_Node000003_Node000016"><a xlink:title=" ">
<path fill="none" stroke="#63b8ff" d="M388.83,-297.22C399.35,-265.24 427.69,-190.88 475.5,-147.57 476.72,-146.47 477.99,-145.41 479.32,-144.39"/>
<polygon fill="#63b8ff" stroke="#63b8ff" points="480.9,-147.53 487.32,-139.1 477.04,-141.69 480.9,-147.53"/>
</a>
</g>
</g>
<!-- Node17 -->
<g id="Node000017" class="node">
<title>Node17</title>
<g id="a_Node000017"><a xlink:href="classfabomatic_1_1_fab_backend.xhtml#aacd5dfac21bd4b6ed71912198a038529" target="_top" xlink:title="Indicates if backend answers are received.">
<polygon fill="white" stroke="#666666" points="747.5,-125.82 629.5,-125.82 629.5,-95.32 747.5,-95.32 747.5,-125.82"/>
<text text-anchor="start" x="637.5" y="-112.32" font-family="Helvetica,sans-Serif" font-size="10.00">fabomatic::FabBackend</text>
<text text-anchor="middle" x="688.5" y="-101.07" font-family="Helvetica,sans-Serif" font-size="10.00">::isResponsive</text>
</a>
</g>
</g>
<!-- Node3&#45;&gt;Node17 -->
<g id="edge19_Node000003_Node000017" class="edge">
<title>Node3&#45;&gt;Node17</title>
<g id="a_edge19_Node000003_Node000017"><a xlink:title=" ">
<path fill="none" stroke="#63b8ff" d="M385.22,-297.12C389.04,-256.13 405.72,-144.65 475.5,-98.57 522.96,-67.23 590.21,-78.02 636.16,-91.55"/>
<polygon fill="#63b8ff" stroke="#63b8ff" points="635.04,-94.86 645.63,-94.48 637.11,-88.18 635.04,-94.86"/>
</a>
</g>
</g>
<!-- Node18 -->
<g id="Node000018" class="node">
<title>Node18</title>
<g id="a_Node000018"><a xlink:href="classfabomatic_1_1_machine.xhtml#a871958cc57845c8651cf1058ed9b30e4" target="_top" xlink:title="Indicates if the machine will power down in less than BEEP_REMAINING_MINUTES.">
<polygon fill="white" stroke="#666666" points="744.5,-468.82 632.5,-468.82 632.5,-438.32 744.5,-438.32 744.5,-468.82"/>
<text text-anchor="start" x="640.5" y="-455.32" font-family="Helvetica,sans-Serif" font-size="10.00">fabomatic::Machine</text>
<text text-anchor="middle" x="688.5" y="-444.07" font-family="Helvetica,sans-Serif" font-size="10.00">::isShutdownImminent</text>
</a>
</g>
</g>
<!-- Node3&#45;&gt;Node18 -->
<g id="edge20_Node000003_Node000018" class="edge">
<title>Node3&#45;&gt;Node18</title>
<g id="a_edge20_Node000003_Node000018"><a xlink:title=" ">
<path fill="none" stroke="#63b8ff" d="M385.22,-328.03C389.04,-369.01 405.72,-480.49 475.5,-526.57 519.26,-555.47 543.89,-543.57 593.5,-526.57 621.89,-516.84 648.32,-494.66 665.88,-477.28"/>
<polygon fill="#63b8ff" stroke="#63b8ff" points="668.22,-479.9 672.7,-470.29 663.21,-475.01 668.22,-479.9"/>
</a>
</g>
</g>
<!-- Node19 -->
<g id="Node000019" class="node">
<title>Node19</title>
<g id="a_Node000019"><a xlink:href="namespacefabomatic_1_1card.xhtml#aef091ec171625c69f9d4eab20ebaefec" target="_top" xlink:title="Returns a string representation of the UID.">
<polygon fill="white" stroke="#666666" points="592.38,-641.2 476.62,-641.2 476.62,-621.95 592.38,-621.95 592.38,-641.2"/>
<text text-anchor="middle" x="534.5" y="-627.7" font-family="Helvetica,sans-Serif" font-size="10.00">fabomatic::card::uid_str</text>
</a>
</g>
</g>
<!-- Node3&#45;&gt;Node19 -->
<g id="edge22_Node000003_Node000019" class="edge">
<title>Node3&#45;&gt;Node19</title>
<g id="a_edge22_Node000003_Node000019"><a xlink:title=" ">
<path fill="none" stroke="#63b8ff" d="M384.13,-328.11C384.99,-377.05 394.36,-529.72 475.5,-612.57 476.5,-613.59 477.56,-614.56 478.66,-615.48"/>
<polygon fill="#63b8ff" stroke="#63b8ff" points="476.35,-618.15 486.63,-620.69 480.18,-612.29 476.35,-618.15"/>
</a>
</g>
</g>
<!-- Node5&#45;&gt;Node6 -->
<g id="edge5_Node000005_Node000006" class="edge">
<title>Node5&#45;&gt;Node6</title>
<g id="a_edge5_Node000005_Node000006"><a xlink:title=" ">
<path fill="none" stroke="#63b8ff" d="M591.24,-36.57C599.99,-36.57 609.14,-36.57 618.16,-36.57"/>
<polygon fill="#63b8ff" stroke="#63b8ff" points="617.96,-40.07 627.96,-36.57 617.96,-33.07 617.96,-40.07"/>
</a>
</g>
</g>
<!-- Node6&#45;&gt;Node6 -->
<g id="edge7_Node000006_Node000006" class="edge">
<title>Node6&#45;&gt;Node6</title>
<g id="a_edge7_Node000006_Node000006"><a xlink:title=" ">
<path fill="none" stroke="#63b8ff" d="M664.39,-46.48C653.39,-55.09 661.43,-64.2 688.5,-64.2 703.73,-64.2 712.93,-61.32 716.11,-57.26"/>
<polygon fill="#63b8ff" stroke="#63b8ff" points="719.5,-56.35 713.08,-47.92 712.84,-58.52 719.5,-56.35"/>
</a>
</g>
</g>
<!-- Node7 -->
<g id="Node000007" class="node">
<title>Node7</title>
<g id="a_Node000007"><a xlink:href="namespacefabomatic_1_1_tasks.xhtml#adc67d1313c6695d813feb935eafdaf60" target="_top" xlink:title=" ">
<polygon fill="white" stroke="#666666" points="930,-322.2 783.5,-322.2 783.5,-302.95 930,-302.95 930,-322.2"/>
<text text-anchor="middle" x="856.75" y="-308.7" font-family="Helvetica,sans-Serif" font-size="10.00">fabomatic::Tasks::arduinoNow</text>
</a>
</g>
</g>
<!-- Node6&#45;&gt;Node7 -->
<g id="edge6_Node000006_Node000007" class="edge">
<title>Node6&#45;&gt;Node7</title>
<g id="a_edge6_Node000006_Node000007"><a xlink:title=" ">
<path fill="none" stroke="#63b8ff" d="M704.36,-46.68C717.08,-55.9 735.22,-70.52 747.5,-86.57 799.11,-154.04 834.97,-250.07 849.08,-291.84"/>
<polygon fill="#63b8ff" stroke="#63b8ff" points="845.75,-292.92 852.21,-301.32 852.4,-290.72 845.75,-292.92"/>
</a>
</g>
</g>
<!-- Node12&#45;&gt;Node7 -->
<g id="edge13_Node000012_Node000007" class="edge">
<title>Node12&#45;&gt;Node7</title>
<g id="a_edge13_Node000012_Node000007"><a xlink:title=" ">
<path fill="none" stroke="#63b8ff" d="M738.93,-312.57C749.34,-312.57 760.6,-312.57 771.87,-312.57"/>
<polygon fill="#63b8ff" stroke="#63b8ff" points="771.61,-316.07 781.61,-312.57 771.61,-309.07 771.61,-316.07"/>
</a>
</g>
</g>
<!-- Node16&#45;&gt;Node17 -->
<g id="edge18_Node000016_Node000017" class="edge">
<title>Node16&#45;&gt;Node17</title>
<g id="a_edge18_Node000016_Node000017"><a xlink:title=" ">
<path fill="none" stroke="#63b8ff" d="M593.83,-117.97C601.69,-117.35 609.8,-116.71 617.83,-116.07"/>
<polygon fill="#63b8ff" stroke="#63b8ff" points="617.87,-119.58 627.56,-115.3 617.32,-112.6 617.87,-119.58"/>
</a>
</g>
</g>
<!-- Node18&#45;&gt;Node7 -->
<g id="edge21_Node000018_Node000007" class="edge">
<title>Node18&#45;&gt;Node7</title>
<g id="a_edge21_Node000018_Node000007"><a xlink:title=" ">
<path fill="none" stroke="#63b8ff" d="M707.93,-437.94C739.32,-411.32 802.94,-357.36 835.52,-329.73"/>
<polygon fill="#63b8ff" stroke="#63b8ff" points="837.68,-332.48 843.05,-323.35 833.16,-327.15 837.68,-332.48"/>
</a>
</g>
</g>
</g>
</svg>

<g id="navigator" transform="translate(0 0)" fill="#404254">
  <rect fill="#f2f5e9" fill-opacity="0.5" stroke="#606060" stroke-width=".5" x="0" y="0" width="60" height="60"/>
  <use id="zoomplus" xlink:href="#zoomPlus" x="17" y="9" onmousedown="handleZoom(evt,'in')"/>
  <use id="zoomminus" xlink:href="#zoomMin" x="42" y="9" onmousedown="handleZoom(evt,'out')"/>
  <use id="reset" xlink:href="#resetDef" x="30" y="36" onmousedown="handleReset()"/>
   <use id="arrowup" xlink:href="#arrowUp" x="0" y="0" onmousedown="handlePan(0,-1)"/>
  <use id="arrowright" xlink:href="#arrowRight" x="0" y="0" onmousedown="handlePan(1,0)"/>
  <use id="arrowdown" xlink:href="#arrowDown" x="0" y="0" onmousedown="handlePan(0,1)"/>
  <use id="arrowleft" xlink:href="#arrowLeft" x="0" y="0" onmousedown="handlePan(-1,0)"/>
</g>
<svg viewBox="0 0 15 15" width="100%" height="30px" preserveAspectRatio="xMaxYMin meet">
 <g id="arrow_out" transform="scale(0.3 0.3)">
  <a xlink:href="namespacefabomatic_a525d1f233a2f797801a9a659c5044cb7_cgraph_org.svg" target="_base">
   <rect id="button" ry="5" rx="5" y="6" x="6" height="38" width="38"
        fill="#f2f5e9" fill-opacity="0.5" stroke="#606060" stroke-width="1.0"/>
   <path id="arrow"
     d="M 11.500037,31.436501 C 11.940474,20.09759 22.043105,11.32322 32.158766,21.979434 L 37.068811,17.246167 C 37.068811,17.246167 37.088388,32 37.088388,32 L 22.160133,31.978069 C 22.160133,31.978069 26.997745,27.140456 26.997745,27.140456 C 18.528582,18.264221 13.291696,25.230495 11.500037,31.436501 z"
     style="fill:#404040;"/>
  </a>
 </g>
</svg>

<style type='text/css'>
<![CDATA[
[data-mouse-over-selected='false'] { opacity: 0.7; }
[data-mouse-over-selected='true']  { opacity: 1.0; }
]]>
</style>
<script type="application/ecmascript"><![CDATA[
document.addEventListener('DOMContentLoaded', (event) => {
  highlightEdges();
  highlightAdjacentNodes();
});
]]></script>
</svg>
