<?xml version="1.0" encoding="UTF-8" standalone="no"?>
<!DOCTYPE svg PUBLIC "-//W3C//DTD SVG 1.1//EN"
 "http://www.w3.org/Graphics/SVG/1.1/DTD/svg11.dtd">
<!-- Generated by graphviz version 9.0.0 (20230911.1827)
 -->
<!-- Title: fabomatic::taskMQTTClientLoop Pages: 1 -->
<svg width="472pt" height="137pt"
 viewBox="0.00 0.00 472.25 136.50" xmlns="http://www.w3.org/2000/svg" xmlns:xlink="http://www.w3.org/1999/xlink">
<g id="graph0" class="graph" transform="scale(1 1) rotate(0) translate(4 132.5)">
<title>fabomatic::taskMQTTClientLoop</title>
<!-- Node1 -->
<g id="Node000001" class="node">
<title>Node1</title>
<g id="a_Node000001"><a xlink:title="sends the MQTT alive message">
<polygon fill="#999999" stroke="#666666" points="156.25,-73.88 0,-73.88 0,-54.62 156.25,-54.62 156.25,-73.88"/>
<text text-anchor="middle" x="78.12" y="-60.38" font-family="Helvetica,sans-Serif" font-size="10.00">fabomatic::taskMQTTClientLoop</text>
</a>
</g>
</g>
<!-- Node2 -->
<g id="Node000002" class="node">
<title>Node2</title>
<g id="a_Node000002"><a xlink:href="classfabomatic_1_1_board_logic.xhtml#ac2feade03b2a74a1998dcec282a8eacb" target="_top" xlink:title=" ">
<polygon fill="white" stroke="#666666" points="307.62,-128.5 194.88,-128.5 194.88,-98 307.62,-98 307.62,-128.5"/>
<text text-anchor="start" x="202.88" y="-115" font-family="Helvetica,sans-Serif" font-size="10.00">fabomatic::BoardLogic</text>
<text text-anchor="middle" x="251.25" y="-103.75" font-family="Helvetica,sans-Serif" font-size="10.00">::getServer</text>
</a>
</g>
</g>
<!-- Node1&#45;&gt;Node2 -->
<g id="edge1_Node000001_Node000002" class="edge">
<title>Node1&#45;&gt;Node2</title>
<g id="a_edge1_Node000001_Node000002"><a xlink:title=" ">
<path fill="none" stroke="#63b8ff" d="M114.17,-74.28C134.43,-80.09 160.59,-87.58 184.55,-94.44"/>
<polygon fill="#63b8ff" stroke="#63b8ff" points="183.34,-97.73 193.92,-97.12 185.27,-91 183.34,-97.73"/>
</a>
</g>
</g>
<!-- Node3 -->
<g id="Node000003" class="node">
<title>Node3</title>
<g id="a_Node000003"><a xlink:href="classfabomatic_1_1_fab_backend.xhtml#aef092e0e1db0c3539d5474fad2456255" target="_top" xlink:title="Indicates if the MQTT client is connected to the broker and backend is responsive.">
<polygon fill="white" stroke="#666666" points="310.25,-79.5 192.25,-79.5 192.25,-49 310.25,-49 310.25,-79.5"/>
<text text-anchor="start" x="200.25" y="-66" font-family="Helvetica,sans-Serif" font-size="10.00">fabomatic::FabBackend</text>
<text text-anchor="middle" x="251.25" y="-54.75" font-family="Helvetica,sans-Serif" font-size="10.00">::isOnline</text>
</a>
</g>
</g>
<!-- Node1&#45;&gt;Node3 -->
<g id="edge2_Node000001_Node000003" class="edge">
<title>Node1&#45;&gt;Node3</title>
<g id="a_edge2_Node000001_Node000003"><a xlink:title=" ">
<path fill="none" stroke="#63b8ff" d="M156.68,-64.25C164.64,-64.25 172.69,-64.25 180.56,-64.25"/>
<polygon fill="#63b8ff" stroke="#63b8ff" points="180.41,-67.75 190.41,-64.25 180.41,-60.75 180.41,-67.75"/>
</a>
</g>
</g>
<!-- Node5 -->
<g id="Node000005" class="node">
<title>Node5</title>
<g id="a_Node000005"><a xlink:href="classfabomatic_1_1_fab_backend.xhtml#aaf05998bb9dec17ae98283969109bb2d" target="_top" xlink:title="Main loop for the MQTT client.">
<polygon fill="white" stroke="#666666" points="310.25,-30.5 192.25,-30.5 192.25,0 310.25,0 310.25,-30.5"/>
<text text-anchor="start" x="200.25" y="-17" font-family="Helvetica,sans-Serif" font-size="10.00">fabomatic::FabBackend</text>
<text text-anchor="middle" x="251.25" y="-5.75" font-family="Helvetica,sans-Serif" font-size="10.00">::loop</text>
</a>
</g>
</g>
<!-- Node1&#45;&gt;Node5 -->
<g id="edge4_Node000001_Node000005" class="edge">
<title>Node1&#45;&gt;Node5</title>
<g id="a_edge4_Node000001_Node000005"><a xlink:title=" ">
<path fill="none" stroke="#63b8ff" d="M114.17,-54.22C134.43,-48.41 160.59,-40.92 184.55,-34.06"/>
<polygon fill="#63b8ff" stroke="#63b8ff" points="185.27,-37.5 193.92,-31.38 183.34,-30.77 185.27,-37.5"/>
</a>
</g>
</g>
<!-- Node4 -->
<g id="Node000004" class="node">
<title>Node4</title>
<g id="a_Node000004"><a xlink:href="classfabomatic_1_1_fab_backend.xhtml#aacd5dfac21bd4b6ed71912198a038529" target="_top" xlink:title="Indicates if backend answers are received.">
<polygon fill="white" stroke="#666666" points="464.25,-79.5 346.25,-79.5 346.25,-49 464.25,-49 464.25,-79.5"/>
<text text-anchor="start" x="354.25" y="-66" font-family="Helvetica,sans-Serif" font-size="10.00">fabomatic::FabBackend</text>
<text text-anchor="middle" x="405.25" y="-54.75" font-family="Helvetica,sans-Serif" font-size="10.00">::isResponsive</text>
</a>
</g>
</g>
<!-- Node3&#45;&gt;Node4 -->
<g id="edge3_Node000003_Node000004" class="edge">
<title>Node3&#45;&gt;Node4</title>
<g id="a_edge3_Node000003_Node000004"><a xlink:title=" ">
<path fill="none" stroke="#63b8ff" d="M310.58,-64.25C318.44,-64.25 326.55,-64.25 334.58,-64.25"/>
<polygon fill="#63b8ff" stroke="#63b8ff" points="334.31,-67.75 344.31,-64.25 334.31,-60.75 334.31,-67.75"/>
</a>
</g>
</g>
</g>
</svg>
