<?xml version="1.0" encoding="UTF-8" standalone="no"?>
<!DOCTYPE svg PUBLIC "-//W3C//DTD SVG 1.1//EN"
 "http://www.w3.org/Graphics/SVG/1.1/DTD/svg11.dtd">
<!-- Generated by graphviz version 9.0.0 (20230911.1827)
 -->
<!-- Title: fabomatic::configModeCallback Pages: 1 -->
<svg width="946pt" height="630pt"
 viewBox="0.00 0.00 946.25 629.88" xmlns="http://www.w3.org/2000/svg" xmlns:xlink="http://www.w3.org/1999/xlink">
<g id="graph0" class="graph" transform="scale(1 1) rotate(0) translate(4 625.88)">
<title>fabomatic::configModeCallback</title>
<!-- Node1 -->
<g id="Node000001" class="node">
<title>Node1</title>
<g id="a_Node000001"><a xlink:title=" ">
<polygon fill="#999999" stroke="#666666" points="150.25,-306.25 0,-306.25 0,-287 150.25,-287 150.25,-306.25"/>
<text text-anchor="middle" x="75.12" y="-292.75" font-family="Helvetica,sans-Serif" font-size="10.00">fabomatic::configModeCallback</text>
</a>
</g>
</g>
<!-- Node2 -->
<g id="Node000002" class="node">
<title>Node2</title>
<g id="a_Node000002"><a xlink:href="classfabomatic_1_1_board_logic.xhtml#a3c38d7a3ed7952c6d6297efdf50ea4dd" target="_top" xlink:title="Sets the board in the state given.">
<polygon fill="white" stroke="#666666" points="299,-311.88 186.25,-311.88 186.25,-281.38 299,-281.38 299,-311.88"/>
<text text-anchor="start" x="194.25" y="-298.38" font-family="Helvetica,sans-Serif" font-size="10.00">fabomatic::BoardLogic</text>
<text text-anchor="middle" x="242.62" y="-287.12" font-family="Helvetica,sans-Serif" font-size="10.00">::changeStatus</text>
</a>
</g>
</g>
<!-- Node1&#45;&gt;Node2 -->
<g id="edge1_Node000001_Node000002" class="edge">
<title>Node1&#45;&gt;Node2</title>
<g id="a_edge1_Node000001_Node000002"><a xlink:title=" ">
<path fill="none" stroke="#63b8ff" d="M150.64,-296.62C158.6,-296.62 166.66,-296.62 174.52,-296.62"/>
<polygon fill="#63b8ff" stroke="#63b8ff" points="174.35,-300.13 184.35,-296.63 174.35,-293.13 174.35,-300.13"/>
</a>
</g>
</g>
<!-- Node3 -->
<g id="Node000003" class="node">
<title>Node3</title>
<g id="a_Node000003"><a xlink:href="classfabomatic_1_1_board_logic.xhtml#a47b4d515c0d3488eceb49769036bce8b" target="_top" xlink:title="Updates the LCD screen as per the current status.">
<polygon fill="white" stroke="#666666" points="447.75,-311.88 335,-311.88 335,-281.38 447.75,-281.38 447.75,-311.88"/>
<text text-anchor="start" x="343" y="-298.38" font-family="Helvetica,sans-Serif" font-size="10.00">fabomatic::BoardLogic</text>
<text text-anchor="middle" x="391.38" y="-287.12" font-family="Helvetica,sans-Serif" font-size="10.00">::updateLCD</text>
</a>
</g>
</g>
<!-- Node2&#45;&gt;Node3 -->
<g id="edge2_Node000002_Node000003" class="edge">
<title>Node2&#45;&gt;Node3</title>
<g id="a_edge2_Node000002_Node000003"><a xlink:title=" ">
<path fill="none" stroke="#63b8ff" d="M299.1,-296.62C307.05,-296.62 315.29,-296.62 323.43,-296.62"/>
<polygon fill="#63b8ff" stroke="#63b8ff" points="323.3,-300.13 333.3,-296.63 323.3,-293.13 323.3,-300.13"/>
</a>
</g>
</g>
<!-- Node4 -->
<g id="Node000004" class="node">
<title>Node4</title>
<g id="a_Node000004"><a xlink:href="classfabomatic_1_1_machine.xhtml#a39c30eaa242d5cc2ce784dbafeef87e8" target="_top" xlink:title=" ">
<polygon fill="white" stroke="#666666" points="592.75,-621.88 492.75,-621.88 492.75,-591.38 592.75,-591.38 592.75,-621.88"/>
<text text-anchor="start" x="500.75" y="-608.38" font-family="Helvetica,sans-Serif" font-size="10.00">fabomatic::Machine</text>
<text text-anchor="middle" x="542.75" y="-597.12" font-family="Helvetica,sans-Serif" font-size="10.00">::getActiveUser</text>
</a>
</g>
</g>
<!-- Node3&#45;&gt;Node4 -->
<g id="edge3_Node000003_Node000004" class="edge">
<title>Node3&#45;&gt;Node4</title>
<g id="a_edge3_Node000003_Node000004"><a xlink:title=" ">
<path fill="none" stroke="#63b8ff" d="M393,-312.09C395.7,-358.81 409.89,-500.25 483.75,-581.62 484.46,-582.41 485.2,-583.16 485.96,-583.9"/>
<polygon fill="#63b8ff" stroke="#63b8ff" points="483.74,-586.61 493.78,-590.01 488.05,-581.09 483.74,-586.61"/>
</a>
</g>
</g>
<!-- Node5 -->
<g id="Node000005" class="node">
<title>Node5</title>
<g id="a_Node000005"><a xlink:href="classfabomatic_1_1_board_logic.xhtml#a462b4b6149ca7bf33b699eb3181c969f" target="_top" xlink:title=" ">
<polygon fill="white" stroke="#666666" points="599.12,-572.88 486.38,-572.88 486.38,-542.38 599.12,-542.38 599.12,-572.88"/>
<text text-anchor="start" x="494.38" y="-559.38" font-family="Helvetica,sans-Serif" font-size="10.00">fabomatic::BoardLogic</text>
<text text-anchor="middle" x="542.75" y="-548.12" font-family="Helvetica,sans-Serif" font-size="10.00">::getLcd</text>
</a>
</g>
</g>
<!-- Node3&#45;&gt;Node5 -->
<g id="edge4_Node000003_Node000005" class="edge">
<title>Node3&#45;&gt;Node5</title>
<g id="a_edge4_Node000003_Node000005"><a xlink:title=" ">
<path fill="none" stroke="#63b8ff" d="M394.24,-312.35C399.96,-353.8 420.81,-467.28 483.75,-532.62 484.61,-533.51 485.5,-534.37 486.42,-535.2"/>
<polygon fill="#63b8ff" stroke="#63b8ff" points="484.14,-537.87 494.26,-541.01 488.31,-532.24 484.14,-537.87"/>
</a>
</g>
</g>
<!-- Node8 -->
<g id="Node000008" class="node">
<title>Node8</title>
<g id="a_Node000008"><a xlink:href="classfabomatic_1_1_board_logic.xhtml#a164e40105242d0b7c56c6b4f21155101" target="_top" xlink:title="Gets the current machine.">
<polygon fill="white" stroke="#666666" points="599.12,-523.88 486.38,-523.88 486.38,-493.38 599.12,-493.38 599.12,-523.88"/>
<text text-anchor="start" x="494.38" y="-510.38" font-family="Helvetica,sans-Serif" font-size="10.00">fabomatic::BoardLogic</text>
<text text-anchor="middle" x="542.75" y="-499.12" font-family="Helvetica,sans-Serif" font-size="10.00">::getMachine</text>
</a>
</g>
</g>
<!-- Node3&#45;&gt;Node8 -->
<g id="edge8_Node000003_Node000008" class="edge">
<title>Node3&#45;&gt;Node8</title>
<g id="a_edge8_Node000003_Node000008"><a xlink:title=" ">
<path fill="none" stroke="#63b8ff" d="M396,-312.13C404.97,-347.24 431.32,-433.63 483.75,-483.62 484.8,-484.63 485.89,-485.59 487.03,-486.52"/>
<polygon fill="#63b8ff" stroke="#63b8ff" points="484.89,-489.29 495.11,-492.1 488.87,-483.53 484.89,-489.29"/>
</a>
</g>
</g>
<!-- Node9 -->
<g id="Node000009" class="node">
<title>Node9</title>
<g id="a_Node000009"><a xlink:href="classfabomatic_1_1_machine.xhtml#a1637e99f2d70262d2ab26f69ed4f0e47" target="_top" xlink:title=" ">
<polygon fill="white" stroke="#666666" points="592.75,-474.88 492.75,-474.88 492.75,-444.38 592.75,-444.38 592.75,-474.88"/>
<text text-anchor="start" x="500.75" y="-461.38" font-family="Helvetica,sans-Serif" font-size="10.00">fabomatic::Machine</text>
<text text-anchor="middle" x="542.75" y="-450.12" font-family="Helvetica,sans-Serif" font-size="10.00">::getMachineName</text>
</a>
</g>
</g>
<!-- Node3&#45;&gt;Node9 -->
<g id="edge9_Node000003_Node000009" class="edge">
<title>Node3&#45;&gt;Node9</title>
<g id="a_edge9_Node000003_Node000009"><a xlink:title=" ">
<path fill="none" stroke="#63b8ff" d="M398.91,-311.99C411.51,-339.93 441.65,-399.42 483.75,-434.62 485.2,-435.83 486.71,-436.99 488.27,-438.1"/>
<polygon fill="#63b8ff" stroke="#63b8ff" points="486.06,-440.85 496.41,-443.15 489.75,-434.9 486.06,-440.85"/>
</a>
</g>
</g>
<!-- Node10 -->
<g id="Node000010" class="node">
<title>Node10</title>
<g id="a_Node000010"><a xlink:href="classfabomatic_1_1_machine.xhtml#ad511c567c7cb7487d19019550c9a4e32" target="_top" xlink:title=" ">
<polygon fill="white" stroke="#666666" points="595.75,-425.88 489.75,-425.88 489.75,-395.38 595.75,-395.38 595.75,-425.88"/>
<text text-anchor="start" x="497.75" y="-412.38" font-family="Helvetica,sans-Serif" font-size="10.00">fabomatic::Machine</text>
<text text-anchor="middle" x="542.75" y="-401.12" font-family="Helvetica,sans-Serif" font-size="10.00">::getMaintenanceInfo</text>
</a>
</g>
</g>
<!-- Node3&#45;&gt;Node10 -->
<g id="edge10_Node000003_Node000010" class="edge">
<title>Node3&#45;&gt;Node10</title>
<g id="a_edge10_Node000003_Node000010"><a xlink:title=" ">
<path fill="none" stroke="#63b8ff" d="M405.21,-312.24C421.73,-331.55 452.09,-364.45 483.75,-385.62 485.82,-387.01 487.99,-388.35 490.21,-389.64"/>
<polygon fill="#63b8ff" stroke="#63b8ff" points="488.4,-392.64 498.87,-394.23 491.68,-386.45 488.4,-392.64"/>
</a>
</g>
</g>
<!-- Node11 -->
<g id="Node000011" class="node">
<title>Node11</title>
<g id="a_Node000011"><a xlink:href="classfabomatic_1_1_machine.xhtml#a3c5304fd80e0cc1c2118a59c64222d6d" target="_top" xlink:title="Returns the current power state of the machine.">
<polygon fill="white" stroke="#666666" points="592.75,-376.88 492.75,-376.88 492.75,-346.38 592.75,-346.38 592.75,-376.88"/>
<text text-anchor="start" x="500.75" y="-363.38" font-family="Helvetica,sans-Serif" font-size="10.00">fabomatic::Machine</text>
<text text-anchor="middle" x="542.75" y="-352.12" font-family="Helvetica,sans-Serif" font-size="10.00">::getPowerState</text>
</a>
</g>
</g>
<!-- Node3&#45;&gt;Node11 -->
<g id="edge11_Node000003_Node000011" class="edge">
<title>Node3&#45;&gt;Node11</title>
<g id="a_edge11_Node000003_Node000011"><a xlink:title=" ">
<path fill="none" stroke="#63b8ff" d="M428.53,-312.36C448.55,-321.07 473.65,-331.99 495.13,-341.34"/>
<polygon fill="#63b8ff" stroke="#63b8ff" points="493.71,-344.54 504.28,-345.32 496.5,-338.12 493.71,-344.54"/>
</a>
</g>
</g>
<!-- Node12 -->
<g id="Node000012" class="node">
<title>Node12</title>
<g id="a_Node000012"><a xlink:href="classfabomatic_1_1_machine.xhtml#a9c845a163660550fa779516a8be8681a" target="_top" xlink:title="Duration of the current usage, or 0s.">
<polygon fill="white" stroke="#666666" points="746.75,-333.88 646.75,-333.88 646.75,-303.38 746.75,-303.38 746.75,-333.88"/>
<text text-anchor="start" x="654.75" y="-320.38" font-family="Helvetica,sans-Serif" font-size="10.00">fabomatic::Machine</text>
<text text-anchor="middle" x="696.75" y="-309.12" font-family="Helvetica,sans-Serif" font-size="10.00">::getUsageDuration</text>
</a>
</g>
</g>
<!-- Node3&#45;&gt;Node12 -->
<g id="edge12_Node000003_Node000012" class="edge">
<title>Node3&#45;&gt;Node12</title>
<g id="a_edge12_Node000003_Node000012"><a xlink:title=" ">
<path fill="none" stroke="#63b8ff" d="M448.02,-300.66C501.04,-304.51 580.65,-310.28 635.23,-314.24"/>
<polygon fill="#63b8ff" stroke="#63b8ff" points="634.74,-317.71 644.97,-314.94 635.25,-310.73 634.74,-317.71"/>
</a>
</g>
</g>
<!-- Node13 -->
<g id="Node000013" class="node">
<title>Node13</title>
<g id="a_Node000013"><a xlink:href="classfabomatic_1_1_machine.xhtml#a4b40dcb31af466acc85f66c845516c82" target="_top" xlink:title=" ">
<polygon fill="white" stroke="#666666" points="592.75,-290.88 492.75,-290.88 492.75,-260.38 592.75,-260.38 592.75,-290.88"/>
<text text-anchor="start" x="500.75" y="-277.38" font-family="Helvetica,sans-Serif" font-size="10.00">fabomatic::Machine</text>
<text text-anchor="middle" x="542.75" y="-266.12" font-family="Helvetica,sans-Serif" font-size="10.00">::isAllowed</text>
</a>
</g>
</g>
<!-- Node3&#45;&gt;Node13 -->
<g id="edge14_Node000003_Node000013" class="edge">
<title>Node3&#45;&gt;Node13</title>
<g id="a_edge14_Node000003_Node000013"><a xlink:title=" ">
<path fill="none" stroke="#63b8ff" d="M448,-288.81C458.83,-287.28 470.24,-285.68 481.23,-284.13"/>
<polygon fill="#63b8ff" stroke="#63b8ff" points="481.56,-287.62 490.98,-282.76 480.59,-280.69 481.56,-287.62"/>
</a>
</g>
</g>
<!-- Node14 -->
<g id="Node000014" class="node">
<title>Node14</title>
<g id="a_Node000014"><a xlink:href="classfabomatic_1_1_machine.xhtml#a9fd614d86b6108a5a7b54fc9eee0d9a6" target="_top" xlink:title="Indicates if the machine has been configured.">
<polygon fill="white" stroke="#666666" points="592.75,-241.88 492.75,-241.88 492.75,-211.38 592.75,-211.38 592.75,-241.88"/>
<text text-anchor="start" x="500.75" y="-228.38" font-family="Helvetica,sans-Serif" font-size="10.00">fabomatic::Machine</text>
<text text-anchor="middle" x="542.75" y="-217.12" font-family="Helvetica,sans-Serif" font-size="10.00">::isConfigured</text>
</a>
</g>
</g>
<!-- Node3&#45;&gt;Node14 -->
<g id="edge15_Node000003_Node000014" class="edge">
<title>Node3&#45;&gt;Node14</title>
<g id="a_edge15_Node000003_Node000014"><a xlink:title=" ">
<path fill="none" stroke="#63b8ff" d="M423.06,-281.03C440.71,-272.18 463.36,-261.03 483.75,-251.62 487.09,-250.09 490.54,-248.52 494.03,-246.97"/>
<polygon fill="#63b8ff" stroke="#63b8ff" points="495.37,-250.2 503.11,-242.96 492.55,-243.79 495.37,-250.2"/>
</a>
</g>
</g>
<!-- Node15 -->
<g id="Node000015" class="node">
<title>Node15</title>
<g id="a_Node000015"><a xlink:href="classfabomatic_1_1_machine.xhtml#a34b0deb04494137cf321e94d50dedf90" target="_top" xlink:title=" ">
<polygon fill="white" stroke="#666666" points="601.38,-192.88 484.12,-192.88 484.12,-162.38 601.38,-162.38 601.38,-192.88"/>
<text text-anchor="start" x="492.12" y="-179.38" font-family="Helvetica,sans-Serif" font-size="10.00">fabomatic::Machine</text>
<text text-anchor="middle" x="542.75" y="-168.12" font-family="Helvetica,sans-Serif" font-size="10.00">::isMaintenanceNeeded</text>
</a>
</g>
</g>
<!-- Node3&#45;&gt;Node15 -->
<g id="edge16_Node000003_Node000015" class="edge">
<title>Node3&#45;&gt;Node15</title>
<g id="a_edge16_Node000003_Node000015"><a xlink:title=" ">
<path fill="none" stroke="#63b8ff" d="M404.18,-281.13C420.3,-260.85 450.95,-225.22 483.75,-202.62 485.69,-201.29 487.71,-200 489.79,-198.76"/>
<polygon fill="#63b8ff" stroke="#63b8ff" points="491.36,-201.89 498.48,-194.05 488.03,-195.74 491.36,-201.89"/>
</a>
</g>
</g>
<!-- Node16 -->
<g id="Node000016" class="node">
<title>Node16</title>
<g id="a_Node000016"><a xlink:href="classfabomatic_1_1_fab_backend.xhtml#aef092e0e1db0c3539d5474fad2456255" target="_top" xlink:title="Indicates if the MQTT client is connected to the broker and backend is responsive.">
<polygon fill="white" stroke="#666666" points="601.75,-143.88 483.75,-143.88 483.75,-113.38 601.75,-113.38 601.75,-143.88"/>
<text text-anchor="start" x="491.75" y="-130.38" font-family="Helvetica,sans-Serif" font-size="10.00">fabomatic::FabBackend</text>
<text text-anchor="middle" x="542.75" y="-119.12" font-family="Helvetica,sans-Serif" font-size="10.00">::isOnline</text>
</a>
</g>
</g>
<!-- Node3&#45;&gt;Node16 -->
<g id="edge17_Node000003_Node000016" class="edge">
<title>Node3&#45;&gt;Node16</title>
<g id="a_edge17_Node000003_Node000016"><a xlink:title=" ">
<path fill="none" stroke="#63b8ff" d="M398.57,-281.15C410.8,-252.38 440.65,-190.26 483.75,-153.62 485.19,-152.4 486.69,-151.23 488.25,-150.12"/>
<polygon fill="#63b8ff" stroke="#63b8ff" points="489.73,-153.31 496.35,-145.04 486.02,-147.38 489.73,-153.31"/>
</a>
</g>
</g>
<!-- Node17 -->
<g id="Node000017" class="node">
<title>Node17</title>
<g id="a_Node000017"><a xlink:href="classfabomatic_1_1_fab_backend.xhtml#aacd5dfac21bd4b6ed71912198a038529" target="_top" xlink:title="Indicates if backend answers are received.">
<polygon fill="white" stroke="#666666" points="755.75,-127.88 637.75,-127.88 637.75,-97.38 755.75,-97.38 755.75,-127.88"/>
<text text-anchor="start" x="645.75" y="-114.38" font-family="Helvetica,sans-Serif" font-size="10.00">fabomatic::FabBackend</text>
<text text-anchor="middle" x="696.75" y="-103.12" font-family="Helvetica,sans-Serif" font-size="10.00">::isResponsive</text>
</a>
</g>
</g>
<!-- Node3&#45;&gt;Node17 -->
<g id="edge19_Node000003_Node000017" class="edge">
<title>Node3&#45;&gt;Node17</title>
<g id="a_edge19_Node000003_Node000017"><a xlink:title=" ">
<path fill="none" stroke="#63b8ff" d="M394.27,-281.06C399.86,-242.88 420.08,-144.84 483.75,-104.62 529.92,-75.46 593.73,-82.77 639.25,-94.08"/>
<polygon fill="#63b8ff" stroke="#63b8ff" points="638.1,-97.39 648.66,-96.55 639.88,-90.62 638.1,-97.39"/>
</a>
</g>
</g>
<!-- Node18 -->
<g id="Node000018" class="node">
<title>Node18</title>
<g id="a_Node000018"><a xlink:href="classfabomatic_1_1_machine.xhtml#a871958cc57845c8651cf1058ed9b30e4" target="_top" xlink:title="Indicates if the machine will power down in less than BEEP_REMAINING_MINUTES.">
<polygon fill="white" stroke="#666666" points="752.75,-70.88 640.75,-70.88 640.75,-40.38 752.75,-40.38 752.75,-70.88"/>
<text text-anchor="start" x="648.75" y="-57.38" font-family="Helvetica,sans-Serif" font-size="10.00">fabomatic::Machine</text>
<text text-anchor="middle" x="696.75" y="-46.12" font-family="Helvetica,sans-Serif" font-size="10.00">::isShutdownImminent</text>
</a>
</g>
</g>
<!-- Node3&#45;&gt;Node18 -->
<g id="edge20_Node000003_Node000018" class="edge">
<title>Node3&#45;&gt;Node18</title>
<g id="a_edge20_Node000003_Node000018"><a xlink:title=" ">
<path fill="none" stroke="#63b8ff" d="M393.79,-280.89C398.38,-240.16 416.67,-130.98 483.75,-80.62 525.01,-49.65 584.08,-44.97 629.39,-47.15"/>
<polygon fill="#63b8ff" stroke="#63b8ff" points="628.89,-50.62 639.09,-47.74 629.32,-43.64 628.89,-50.62"/>
</a>
</g>
</g>
<!-- Node19 -->
<g id="Node000019" class="node">
<title>Node19</title>
<g id="a_Node000019"><a xlink:href="namespacefabomatic_1_1card.xhtml#aef091ec171625c69f9d4eab20ebaefec" target="_top" xlink:title="Returns a string representation of the UID.">
<polygon fill="white" stroke="#666666" points="600.62,-19.25 484.88,-19.25 484.88,0 600.62,0 600.62,-19.25"/>
<text text-anchor="middle" x="542.75" y="-5.75" font-family="Helvetica,sans-Serif" font-size="10.00">fabomatic::card::uid_str</text>
</a>
</g>
</g>
<!-- Node3&#45;&gt;Node19 -->
<g id="edge22_Node000003_Node000019" class="edge">
<title>Node3&#45;&gt;Node19</title>
<g id="a_edge22_Node000003_Node000019"><a xlink:title=" ">
<path fill="none" stroke="#63b8ff" d="M393.44,-281.04C397.31,-236.52 414.25,-107.28 483.75,-33.62 486.82,-30.37 490.39,-27.55 494.23,-25.1"/>
<polygon fill="#63b8ff" stroke="#63b8ff" points="495.7,-28.28 502.85,-20.46 492.38,-22.12 495.7,-28.28"/>
</a>
</g>
</g>
<!-- Node6 -->
<g id="Node000006" class="node">
<title>Node6</title>
<g id="a_Node000006"><a xlink:href="namespacefabomatic_1_1_tasks.xhtml#a5c20f560f5934822d39ba116a16f3ab6" target="_top" xlink:title="Wait for a delay, allowing OTA updates.">
<polygon fill="white" stroke="#666666" points="755.38,-469.25 638.12,-469.25 638.12,-450 755.38,-450 755.38,-469.25"/>
<text text-anchor="middle" x="696.75" y="-455.75" font-family="Helvetica,sans-Serif" font-size="10.00">fabomatic::Tasks::delay</text>
</a>
</g>
</g>
<!-- Node5&#45;&gt;Node6 -->
<g id="edge5_Node000005_Node000006" class="edge">
<title>Node5&#45;&gt;Node6</title>
<g id="a_edge5_Node000005_Node000006"><a xlink:title=" ">
<path fill="none" stroke="#63b8ff" d="M583.72,-541.99C589.89,-539.12 596.09,-535.97 601.75,-532.62 629.32,-516.34 657.96,-493.01 676.27,-477.14"/>
<polygon fill="#63b8ff" stroke="#63b8ff" points="678.51,-479.84 683.71,-470.6 673.89,-474.58 678.51,-479.84"/>
</a>
</g>
</g>
<!-- Node6&#45;&gt;Node6 -->
<g id="edge7_Node000006_Node000006" class="edge">
<title>Node6&#45;&gt;Node6</title>
<g id="a_edge7_Node000006_Node000006"><a xlink:title=" ">
<path fill="none" stroke="#63b8ff" d="M672.64,-469.54C661.64,-478.15 669.68,-487.25 696.75,-487.25 711.98,-487.25 721.18,-484.37 724.36,-480.32"/>
<polygon fill="#63b8ff" stroke="#63b8ff" points="727.75,-479.41 721.33,-470.98 721.09,-481.57 727.75,-479.41"/>
</a>
</g>
</g>
<!-- Node7 -->
<g id="Node000007" class="node">
<title>Node7</title>
<g id="a_Node000007"><a xlink:href="namespacefabomatic_1_1_tasks.xhtml#adc67d1313c6695d813feb935eafdaf60" target="_top" xlink:title=" ">
<polygon fill="white" stroke="#666666" points="938.25,-328.25 791.75,-328.25 791.75,-309 938.25,-309 938.25,-328.25"/>
<text text-anchor="middle" x="865" y="-314.75" font-family="Helvetica,sans-Serif" font-size="10.00">fabomatic::Tasks::arduinoNow</text>
</a>
</g>
</g>
<!-- Node6&#45;&gt;Node7 -->
<g id="edge6_Node000006_Node000007" class="edge">
<title>Node6&#45;&gt;Node7</title>
<g id="a_edge6_Node000006_Node000007"><a xlink:title=" ">
<path fill="none" stroke="#63b8ff" d="M709.44,-449.71C737.39,-426 808.38,-365.79 843.58,-335.94"/>
<polygon fill="#63b8ff" stroke="#63b8ff" points="845.58,-338.83 850.95,-329.7 841.06,-333.5 845.58,-338.83"/>
</a>
</g>
</g>
<!-- Node12&#45;&gt;Node7 -->
<g id="edge13_Node000012_Node000007" class="edge">
<title>Node12&#45;&gt;Node7</title>
<g id="a_edge13_Node000012_Node000007"><a xlink:title=" ">
<path fill="none" stroke="#63b8ff" d="M747.18,-318.62C757.59,-318.62 768.85,-318.62 780.12,-318.62"/>
<polygon fill="#63b8ff" stroke="#63b8ff" points="779.86,-322.13 789.86,-318.63 779.86,-315.13 779.86,-322.13"/>
</a>
</g>
</g>
<!-- Node16&#45;&gt;Node17 -->
<g id="edge18_Node000016_Node000017" class="edge">
<title>Node16&#45;&gt;Node17</title>
<g id="a_edge18_Node000016_Node000017"><a xlink:title=" ">
<path fill="none" stroke="#63b8ff" d="M602.08,-122.48C609.94,-121.66 618.05,-120.8 626.08,-119.96"/>
<polygon fill="#63b8ff" stroke="#63b8ff" points="626.24,-123.46 635.82,-118.93 625.51,-116.5 626.24,-123.46"/>
</a>
</g>
</g>
<!-- Node18&#45;&gt;Node7 -->
<g id="edge21_Node000018_Node000007" class="edge">
<title>Node18&#45;&gt;Node7</title>
<g id="a_edge21_Node000018_Node000007"><a xlink:title=" ">
<path fill="none" stroke="#63b8ff" d="M733.37,-71.33C741.43,-76.05 749.45,-81.82 755.75,-88.62 814.81,-152.44 847.08,-254.25 858.81,-297.78"/>
<polygon fill="#63b8ff" stroke="#63b8ff" points="855.36,-298.4 861.26,-307.19 862.13,-296.63 855.36,-298.4"/>
</a>
</g>
</g>
</g>
</svg>
