<?xml version="1.0" encoding="UTF-8" standalone="no"?>
<!DOCTYPE svg PUBLIC "-//W3C//DTD SVG 1.1//EN"
 "http://www.w3.org/Graphics/SVG/1.1/DTD/svg11.dtd">
<!-- Generated by graphviz version 9.0.0 (20230911.1827)
 -->
<!-- Title: fabomatic::setupOTA Pages: 1 -->
<svg width="916pt" height="630pt"
 viewBox="0.00 0.00 915.50 629.88" xmlns="http://www.w3.org/2000/svg" xmlns:xlink="http://www.w3.org/1999/xlink">
<g id="graph0" class="graph" transform="scale(1 1) rotate(0) translate(4 625.88)">
<title>fabomatic::setupOTA</title>
<!-- Node1 -->
<g id="Node000001" class="node">
<title>Node1</title>
<g id="a_Node000001"><a xlink:title="Initialization of the Arduino OTA library with settings for fabomatic.">
<polygon fill="#999999" stroke="#666666" points="107.5,-281.25 0,-281.25 0,-262 107.5,-262 107.5,-281.25"/>
<text text-anchor="middle" x="53.75" y="-267.75" font-family="Helvetica,sans-Serif" font-size="10.00">fabomatic::setupOTA</text>
</a>
</g>
</g>
<!-- Node2 -->
<g id="Node000002" class="node">
<title>Node2</title>
<g id="a_Node000002"><a xlink:href="classfabomatic_1_1_board_logic.xhtml#a3c38d7a3ed7952c6d6297efdf50ea4dd" target="_top" xlink:title="Sets the board in the state given.">
<polygon fill="white" stroke="#666666" points="262.25,-309.88 149.5,-309.88 149.5,-279.38 262.25,-279.38 262.25,-309.88"/>
<text text-anchor="start" x="157.5" y="-296.38" font-family="Helvetica,sans-Serif" font-size="10.00">fabomatic::BoardLogic</text>
<text text-anchor="middle" x="205.88" y="-285.12" font-family="Helvetica,sans-Serif" font-size="10.00">::changeStatus</text>
</a>
</g>
</g>
<!-- Node1&#45;&gt;Node2 -->
<g id="edge1_Node000001_Node000002" class="edge">
<title>Node1&#45;&gt;Node2</title>
<g id="a_edge1_Node000001_Node000002"><a xlink:title=" ">
<path fill="none" stroke="#63b8ff" d="M107.68,-279.73C117.43,-281.23 127.73,-282.81 137.83,-284.35"/>
<polygon fill="#63b8ff" stroke="#63b8ff" points="137.21,-287.8 147.62,-285.85 138.27,-280.88 137.21,-287.8"/>
</a>
</g>
</g>
<!-- Node20 -->
<g id="Node000020" class="node">
<title>Node20</title>
<g id="a_Node000020"><a xlink:href="namespacefabomatic.xhtml#a77e12974f277568ed32e1f793c89326c" target="_top" xlink:title=" ">
<polygon fill="white" stroke="#666666" points="268.25,-260.25 143.5,-260.25 143.5,-241 268.25,-241 268.25,-260.25"/>
<text text-anchor="middle" x="205.88" y="-246.75" font-family="Helvetica,sans-Serif" font-size="10.00">fabomatic::OTAComplete</text>
</a>
</g>
</g>
<!-- Node1&#45;&gt;Node20 -->
<g id="edge23_Node000001_Node000020" class="edge">
<title>Node1&#45;&gt;Node20</title>
<g id="a_edge23_Node000001_Node000020"><a xlink:title=" ">
<path fill="none" stroke="#63b8ff" d="M107.68,-264.22C115.57,-263.12 123.82,-261.96 132.04,-260.81"/>
<polygon fill="#63b8ff" stroke="#63b8ff" points="132.27,-264.32 141.68,-259.46 131.3,-257.38 132.27,-264.32"/>
</a>
</g>
</g>
<!-- Node3 -->
<g id="Node000003" class="node">
<title>Node3</title>
<g id="a_Node000003"><a xlink:href="classfabomatic_1_1_board_logic.xhtml#a47b4d515c0d3488eceb49769036bce8b" target="_top" xlink:title="Updates the LCD screen as per the current status.">
<polygon fill="white" stroke="#666666" points="417,-311.88 304.25,-311.88 304.25,-281.38 417,-281.38 417,-311.88"/>
<text text-anchor="start" x="312.25" y="-298.38" font-family="Helvetica,sans-Serif" font-size="10.00">fabomatic::BoardLogic</text>
<text text-anchor="middle" x="360.62" y="-287.12" font-family="Helvetica,sans-Serif" font-size="10.00">::updateLCD</text>
</a>
</g>
</g>
<!-- Node2&#45;&gt;Node3 -->
<g id="edge2_Node000002_Node000003" class="edge">
<title>Node2&#45;&gt;Node3</title>
<g id="a_edge2_Node000002_Node000003"><a xlink:title=" ">
<path fill="none" stroke="#63b8ff" d="M262.45,-295.35C272.25,-295.48 282.53,-295.62 292.6,-295.75"/>
<polygon fill="#63b8ff" stroke="#63b8ff" points="292.27,-299.24 302.32,-295.87 292.37,-292.24 292.27,-299.24"/>
</a>
</g>
</g>
<!-- Node4 -->
<g id="Node000004" class="node">
<title>Node4</title>
<g id="a_Node000004"><a xlink:href="classfabomatic_1_1_machine.xhtml#a39c30eaa242d5cc2ce784dbafeef87e8" target="_top" xlink:title=" ">
<polygon fill="white" stroke="#666666" points="562,-621.88 462,-621.88 462,-591.38 562,-591.38 562,-621.88"/>
<text text-anchor="start" x="470" y="-608.38" font-family="Helvetica,sans-Serif" font-size="10.00">fabomatic::Machine</text>
<text text-anchor="middle" x="512" y="-597.12" font-family="Helvetica,sans-Serif" font-size="10.00">::getActiveUser</text>
</a>
</g>
</g>
<!-- Node3&#45;&gt;Node4 -->
<g id="edge3_Node000003_Node000004" class="edge">
<title>Node3&#45;&gt;Node4</title>
<g id="a_edge3_Node000003_Node000004"><a xlink:title=" ">
<path fill="none" stroke="#63b8ff" d="M362.25,-312.09C364.95,-358.81 379.14,-500.25 453,-581.62 453.71,-582.41 454.45,-583.16 455.21,-583.9"/>
<polygon fill="#63b8ff" stroke="#63b8ff" points="452.99,-586.61 463.03,-590.01 457.3,-581.09 452.99,-586.61"/>
</a>
</g>
</g>
<!-- Node5 -->
<g id="Node000005" class="node">
<title>Node5</title>
<g id="a_Node000005"><a xlink:href="classfabomatic_1_1_board_logic.xhtml#a462b4b6149ca7bf33b699eb3181c969f" target="_top" xlink:title=" ">
<polygon fill="white" stroke="#666666" points="568.38,-572.88 455.62,-572.88 455.62,-542.38 568.38,-542.38 568.38,-572.88"/>
<text text-anchor="start" x="463.62" y="-559.38" font-family="Helvetica,sans-Serif" font-size="10.00">fabomatic::BoardLogic</text>
<text text-anchor="middle" x="512" y="-548.12" font-family="Helvetica,sans-Serif" font-size="10.00">::getLcd</text>
</a>
</g>
</g>
<!-- Node3&#45;&gt;Node5 -->
<g id="edge4_Node000003_Node000005" class="edge">
<title>Node3&#45;&gt;Node5</title>
<g id="a_edge4_Node000003_Node000005"><a xlink:title=" ">
<path fill="none" stroke="#63b8ff" d="M363.49,-312.35C369.21,-353.8 390.06,-467.28 453,-532.62 453.86,-533.51 454.75,-534.37 455.67,-535.2"/>
<polygon fill="#63b8ff" stroke="#63b8ff" points="453.39,-537.87 463.51,-541.01 457.56,-532.24 453.39,-537.87"/>
</a>
</g>
</g>
<!-- Node8 -->
<g id="Node000008" class="node">
<title>Node8</title>
<g id="a_Node000008"><a xlink:href="classfabomatic_1_1_board_logic.xhtml#a164e40105242d0b7c56c6b4f21155101" target="_top" xlink:title="Gets the current machine.">
<polygon fill="white" stroke="#666666" points="568.38,-523.88 455.62,-523.88 455.62,-493.38 568.38,-493.38 568.38,-523.88"/>
<text text-anchor="start" x="463.62" y="-510.38" font-family="Helvetica,sans-Serif" font-size="10.00">fabomatic::BoardLogic</text>
<text text-anchor="middle" x="512" y="-499.12" font-family="Helvetica,sans-Serif" font-size="10.00">::getMachine</text>
</a>
</g>
</g>
<!-- Node3&#45;&gt;Node8 -->
<g id="edge8_Node000003_Node000008" class="edge">
<title>Node3&#45;&gt;Node8</title>
<g id="a_edge8_Node000003_Node000008"><a xlink:title=" ">
<path fill="none" stroke="#63b8ff" d="M365.25,-312.13C374.22,-347.24 400.57,-433.63 453,-483.62 454.05,-484.63 455.14,-485.59 456.28,-486.52"/>
<polygon fill="#63b8ff" stroke="#63b8ff" points="454.14,-489.29 464.36,-492.1 458.12,-483.53 454.14,-489.29"/>
</a>
</g>
</g>
<!-- Node9 -->
<g id="Node000009" class="node">
<title>Node9</title>
<g id="a_Node000009"><a xlink:href="classfabomatic_1_1_machine.xhtml#a1637e99f2d70262d2ab26f69ed4f0e47" target="_top" xlink:title=" ">
<polygon fill="white" stroke="#666666" points="562,-474.88 462,-474.88 462,-444.38 562,-444.38 562,-474.88"/>
<text text-anchor="start" x="470" y="-461.38" font-family="Helvetica,sans-Serif" font-size="10.00">fabomatic::Machine</text>
<text text-anchor="middle" x="512" y="-450.12" font-family="Helvetica,sans-Serif" font-size="10.00">::getMachineName</text>
</a>
</g>
</g>
<!-- Node3&#45;&gt;Node9 -->
<g id="edge9_Node000003_Node000009" class="edge">
<title>Node3&#45;&gt;Node9</title>
<g id="a_edge9_Node000003_Node000009"><a xlink:title=" ">
<path fill="none" stroke="#63b8ff" d="M368.16,-311.99C380.76,-339.93 410.9,-399.42 453,-434.62 454.45,-435.83 455.96,-436.99 457.52,-438.1"/>
<polygon fill="#63b8ff" stroke="#63b8ff" points="455.31,-440.85 465.66,-443.15 459,-434.9 455.31,-440.85"/>
</a>
</g>
</g>
<!-- Node10 -->
<g id="Node000010" class="node">
<title>Node10</title>
<g id="a_Node000010"><a xlink:href="classfabomatic_1_1_machine.xhtml#ad511c567c7cb7487d19019550c9a4e32" target="_top" xlink:title=" ">
<polygon fill="white" stroke="#666666" points="565,-425.88 459,-425.88 459,-395.38 565,-395.38 565,-425.88"/>
<text text-anchor="start" x="467" y="-412.38" font-family="Helvetica,sans-Serif" font-size="10.00">fabomatic::Machine</text>
<text text-anchor="middle" x="512" y="-401.12" font-family="Helvetica,sans-Serif" font-size="10.00">::getMaintenanceInfo</text>
</a>
</g>
</g>
<!-- Node3&#45;&gt;Node10 -->
<g id="edge10_Node000003_Node000010" class="edge">
<title>Node3&#45;&gt;Node10</title>
<g id="a_edge10_Node000003_Node000010"><a xlink:title=" ">
<path fill="none" stroke="#63b8ff" d="M374.46,-312.24C390.98,-331.55 421.34,-364.45 453,-385.62 455.07,-387.01 457.24,-388.35 459.46,-389.64"/>
<polygon fill="#63b8ff" stroke="#63b8ff" points="457.65,-392.64 468.12,-394.23 460.93,-386.45 457.65,-392.64"/>
</a>
</g>
</g>
<!-- Node11 -->
<g id="Node000011" class="node">
<title>Node11</title>
<g id="a_Node000011"><a xlink:href="classfabomatic_1_1_machine.xhtml#a3c5304fd80e0cc1c2118a59c64222d6d" target="_top" xlink:title="Returns the current power state of the machine.">
<polygon fill="white" stroke="#666666" points="562,-376.88 462,-376.88 462,-346.38 562,-346.38 562,-376.88"/>
<text text-anchor="start" x="470" y="-363.38" font-family="Helvetica,sans-Serif" font-size="10.00">fabomatic::Machine</text>
<text text-anchor="middle" x="512" y="-352.12" font-family="Helvetica,sans-Serif" font-size="10.00">::getPowerState</text>
</a>
</g>
</g>
<!-- Node3&#45;&gt;Node11 -->
<g id="edge11_Node000003_Node000011" class="edge">
<title>Node3&#45;&gt;Node11</title>
<g id="a_edge11_Node000003_Node000011"><a xlink:title=" ">
<path fill="none" stroke="#63b8ff" d="M397.78,-312.36C417.8,-321.07 442.9,-331.99 464.38,-341.34"/>
<polygon fill="#63b8ff" stroke="#63b8ff" points="462.96,-344.54 473.53,-345.32 465.75,-338.12 462.96,-344.54"/>
</a>
</g>
</g>
<!-- Node12 -->
<g id="Node000012" class="node">
<title>Node12</title>
<g id="a_Node000012"><a xlink:href="classfabomatic_1_1_machine.xhtml#a9c845a163660550fa779516a8be8681a" target="_top" xlink:title="Duration of the current usage, or 0s.">
<polygon fill="white" stroke="#666666" points="716,-333.88 616,-333.88 616,-303.38 716,-303.38 716,-333.88"/>
<text text-anchor="start" x="624" y="-320.38" font-family="Helvetica,sans-Serif" font-size="10.00">fabomatic::Machine</text>
<text text-anchor="middle" x="666" y="-309.12" font-family="Helvetica,sans-Serif" font-size="10.00">::getUsageDuration</text>
</a>
</g>
</g>
<!-- Node3&#45;&gt;Node12 -->
<g id="edge12_Node000003_Node000012" class="edge">
<title>Node3&#45;&gt;Node12</title>
<g id="a_edge12_Node000003_Node000012"><a xlink:title=" ">
<path fill="none" stroke="#63b8ff" d="M417.27,-300.66C470.29,-304.51 549.9,-310.28 604.48,-314.24"/>
<polygon fill="#63b8ff" stroke="#63b8ff" points="603.99,-317.71 614.22,-314.94 604.5,-310.73 603.99,-317.71"/>
</a>
</g>
</g>
<!-- Node13 -->
<g id="Node000013" class="node">
<title>Node13</title>
<g id="a_Node000013"><a xlink:href="classfabomatic_1_1_machine.xhtml#a4b40dcb31af466acc85f66c845516c82" target="_top" xlink:title=" ">
<polygon fill="white" stroke="#666666" points="562,-290.88 462,-290.88 462,-260.38 562,-260.38 562,-290.88"/>
<text text-anchor="start" x="470" y="-277.38" font-family="Helvetica,sans-Serif" font-size="10.00">fabomatic::Machine</text>
<text text-anchor="middle" x="512" y="-266.12" font-family="Helvetica,sans-Serif" font-size="10.00">::isAllowed</text>
</a>
</g>
</g>
<!-- Node3&#45;&gt;Node13 -->
<g id="edge14_Node000003_Node000013" class="edge">
<title>Node3&#45;&gt;Node13</title>
<g id="a_edge14_Node000003_Node000013"><a xlink:title=" ">
<path fill="none" stroke="#63b8ff" d="M417.25,-288.81C428.08,-287.28 439.49,-285.68 450.48,-284.13"/>
<polygon fill="#63b8ff" stroke="#63b8ff" points="450.81,-287.62 460.23,-282.76 449.84,-280.69 450.81,-287.62"/>
</a>
</g>
</g>
<!-- Node14 -->
<g id="Node000014" class="node">
<title>Node14</title>
<g id="a_Node000014"><a xlink:href="classfabomatic_1_1_machine.xhtml#a9fd614d86b6108a5a7b54fc9eee0d9a6" target="_top" xlink:title="Indicates if the machine has been configured.">
<polygon fill="white" stroke="#666666" points="562,-241.88 462,-241.88 462,-211.38 562,-211.38 562,-241.88"/>
<text text-anchor="start" x="470" y="-228.38" font-family="Helvetica,sans-Serif" font-size="10.00">fabomatic::Machine</text>
<text text-anchor="middle" x="512" y="-217.12" font-family="Helvetica,sans-Serif" font-size="10.00">::isConfigured</text>
</a>
</g>
</g>
<!-- Node3&#45;&gt;Node14 -->
<g id="edge15_Node000003_Node000014" class="edge">
<title>Node3&#45;&gt;Node14</title>
<g id="a_edge15_Node000003_Node000014"><a xlink:title=" ">
<path fill="none" stroke="#63b8ff" d="M397.58,-280.92C404.09,-277.93 410.78,-274.75 417,-271.62 433.36,-263.41 436.58,-259.7 453,-251.62 456.1,-250.1 459.31,-248.57 462.56,-247.07"/>
<polygon fill="#63b8ff" stroke="#63b8ff" points="463.95,-250.28 471.62,-242.98 461.07,-243.9 463.95,-250.28"/>
</a>
</g>
</g>
<!-- Node15 -->
<g id="Node000015" class="node">
<title>Node15</title>
<g id="a_Node000015"><a xlink:href="classfabomatic_1_1_machine.xhtml#a34b0deb04494137cf321e94d50dedf90" target="_top" xlink:title=" ">
<polygon fill="white" stroke="#666666" points="570.62,-192.88 453.38,-192.88 453.38,-162.38 570.62,-162.38 570.62,-192.88"/>
<text text-anchor="start" x="461.38" y="-179.38" font-family="Helvetica,sans-Serif" font-size="10.00">fabomatic::Machine</text>
<text text-anchor="middle" x="512" y="-168.12" font-family="Helvetica,sans-Serif" font-size="10.00">::isMaintenanceNeeded</text>
</a>
</g>
</g>
<!-- Node3&#45;&gt;Node15 -->
<g id="edge16_Node000003_Node000015" class="edge">
<title>Node3&#45;&gt;Node15</title>
<g id="a_edge16_Node000003_Node000015"><a xlink:title=" ">
<path fill="none" stroke="#63b8ff" d="M404.32,-280.98C408.9,-278.28 413.24,-275.17 417,-271.62 442.14,-247.87 427.65,-226.16 453,-202.62 454.21,-201.51 455.47,-200.43 456.78,-199.4"/>
<polygon fill="#63b8ff" stroke="#63b8ff" points="458.38,-202.54 464.73,-194.07 454.48,-196.73 458.38,-202.54"/>
</a>
</g>
</g>
<!-- Node16 -->
<g id="Node000016" class="node">
<title>Node16</title>
<g id="a_Node000016"><a xlink:href="classfabomatic_1_1_fab_backend.xhtml#aef092e0e1db0c3539d5474fad2456255" target="_top" xlink:title="Indicates if the MQTT client is connected to the broker and backend is responsive.">
<polygon fill="white" stroke="#666666" points="571,-143.88 453,-143.88 453,-113.38 571,-113.38 571,-143.88"/>
<text text-anchor="start" x="461" y="-130.38" font-family="Helvetica,sans-Serif" font-size="10.00">fabomatic::FabBackend</text>
<text text-anchor="middle" x="512" y="-119.12" font-family="Helvetica,sans-Serif" font-size="10.00">::isOnline</text>
</a>
</g>
</g>
<!-- Node3&#45;&gt;Node16 -->
<g id="edge17_Node000003_Node000016" class="edge">
<title>Node3&#45;&gt;Node16</title>
<g id="a_edge17_Node000003_Node000016"><a xlink:title=" ">
<path fill="none" stroke="#63b8ff" d="M406.08,-280.93C410.12,-278.27 413.87,-275.19 417,-271.62 453.21,-230.45 416.44,-194.48 453,-153.62 453.7,-152.84 454.44,-152.08 455.2,-151.34"/>
<polygon fill="#63b8ff" stroke="#63b8ff" points="457.29,-154.14 462.98,-145.2 452.96,-148.64 457.29,-154.14"/>
</a>
</g>
</g>
<!-- Node17 -->
<g id="Node000017" class="node">
<title>Node17</title>
<g id="a_Node000017"><a xlink:href="classfabomatic_1_1_fab_backend.xhtml#aacd5dfac21bd4b6ed71912198a038529" target="_top" xlink:title="Indicates if backend answers are received.">
<polygon fill="white" stroke="#666666" points="725,-127.88 607,-127.88 607,-97.38 725,-97.38 725,-127.88"/>
<text text-anchor="start" x="615" y="-114.38" font-family="Helvetica,sans-Serif" font-size="10.00">fabomatic::FabBackend</text>
<text text-anchor="middle" x="666" y="-103.12" font-family="Helvetica,sans-Serif" font-size="10.00">::isResponsive</text>
</a>
</g>
</g>
<!-- Node3&#45;&gt;Node17 -->
<g id="edge19_Node000003_Node000017" class="edge">
<title>Node3&#45;&gt;Node17</title>
<g id="a_edge19_Node000003_Node000017"><a xlink:title=" ">
<path fill="none" stroke="#63b8ff" d="M406.65,-281.01C410.53,-278.34 414.08,-275.24 417,-271.62 464.71,-212.56 393.92,-152.32 453,-104.62 497.84,-68.42 567.05,-79.46 614.1,-93.52"/>
<polygon fill="#63b8ff" stroke="#63b8ff" points="612.93,-96.82 623.52,-96.48 615.03,-90.14 612.93,-96.82"/>
</a>
</g>
</g>
<!-- Node18 -->
<g id="Node000018" class="node">
<title>Node18</title>
<g id="a_Node000018"><a xlink:href="classfabomatic_1_1_machine.xhtml#a871958cc57845c8651cf1058ed9b30e4" target="_top" xlink:title="Indicates if the machine will power down in less than BEEP_REMAINING_MINUTES.">
<polygon fill="white" stroke="#666666" points="722,-70.88 610,-70.88 610,-40.38 722,-40.38 722,-70.88"/>
<text text-anchor="start" x="618" y="-57.38" font-family="Helvetica,sans-Serif" font-size="10.00">fabomatic::Machine</text>
<text text-anchor="middle" x="666" y="-46.12" font-family="Helvetica,sans-Serif" font-size="10.00">::isShutdownImminent</text>
</a>
</g>
</g>
<!-- Node3&#45;&gt;Node18 -->
<g id="edge20_Node000003_Node000018" class="edge">
<title>Node3&#45;&gt;Node18</title>
<g id="a_edge20_Node000003_Node000018"><a xlink:title=" ">
<path fill="none" stroke="#63b8ff" d="M407.03,-280.92C410.78,-278.27 414.2,-275.2 417,-271.62 471.36,-202.25 388.13,-136.28 453,-76.62 491.48,-41.24 552.1,-38.53 598.67,-43.2"/>
<polygon fill="#63b8ff" stroke="#63b8ff" points="598.05,-46.65 608.39,-44.31 598.85,-39.69 598.05,-46.65"/>
</a>
</g>
</g>
<!-- Node19 -->
<g id="Node000019" class="node">
<title>Node19</title>
<g id="a_Node000019"><a xlink:href="namespacefabomatic_1_1card.xhtml#aef091ec171625c69f9d4eab20ebaefec" target="_top" xlink:title="Returns a string representation of the UID.">
<polygon fill="white" stroke="#666666" points="569.88,-19.25 454.12,-19.25 454.12,0 569.88,0 569.88,-19.25"/>
<text text-anchor="middle" x="512" y="-5.75" font-family="Helvetica,sans-Serif" font-size="10.00">fabomatic::card::uid_str</text>
</a>
</g>
</g>
<!-- Node3&#45;&gt;Node19 -->
<g id="edge22_Node000003_Node000019" class="edge">
<title>Node3&#45;&gt;Node19</title>
<g id="a_edge22_Node000003_Node000019"><a xlink:title=" ">
<path fill="none" stroke="#63b8ff" d="M407.15,-281.01C410.88,-278.35 414.26,-275.24 417,-271.62 481.61,-186.36 387.05,-117.86 453,-33.62 455.42,-30.53 458.32,-27.83 461.5,-25.47"/>
<polygon fill="#63b8ff" stroke="#63b8ff" points="463.02,-28.64 469.79,-20.49 459.41,-22.64 463.02,-28.64"/>
</a>
</g>
</g>
<!-- Node6 -->
<g id="Node000006" class="node">
<title>Node6</title>
<g id="a_Node000006"><a xlink:href="namespacefabomatic_1_1_tasks.xhtml#a5c20f560f5934822d39ba116a16f3ab6" target="_top" xlink:title="Wait for a delay, allowing OTA updates.">
<polygon fill="white" stroke="#666666" points="724.62,-469.25 607.38,-469.25 607.38,-450 724.62,-450 724.62,-469.25"/>
<text text-anchor="middle" x="666" y="-455.75" font-family="Helvetica,sans-Serif" font-size="10.00">fabomatic::Tasks::delay</text>
</a>
</g>
</g>
<!-- Node5&#45;&gt;Node6 -->
<g id="edge5_Node000005_Node000006" class="edge">
<title>Node5&#45;&gt;Node6</title>
<g id="a_edge5_Node000005_Node000006"><a xlink:title=" ">
<path fill="none" stroke="#63b8ff" d="M552.97,-541.99C559.14,-539.12 565.34,-535.97 571,-532.62 598.57,-516.34 627.21,-493.01 645.52,-477.14"/>
<polygon fill="#63b8ff" stroke="#63b8ff" points="647.76,-479.84 652.96,-470.6 643.14,-474.58 647.76,-479.84"/>
</a>
</g>
</g>
<!-- Node6&#45;&gt;Node6 -->
<g id="edge7_Node000006_Node000006" class="edge">
<title>Node6&#45;&gt;Node6</title>
<g id="a_edge7_Node000006_Node000006"><a xlink:title=" ">
<path fill="none" stroke="#63b8ff" d="M641.89,-469.54C630.89,-478.15 638.93,-487.25 666,-487.25 681.23,-487.25 690.43,-484.37 693.61,-480.32"/>
<polygon fill="#63b8ff" stroke="#63b8ff" points="697,-479.41 690.58,-470.98 690.34,-481.57 697,-479.41"/>
</a>
</g>
</g>
<!-- Node7 -->
<g id="Node000007" class="node">
<title>Node7</title>
<g id="a_Node000007"><a xlink:href="namespacefabomatic_1_1_tasks.xhtml#adc67d1313c6695d813feb935eafdaf60" target="_top" xlink:title=" ">
<polygon fill="white" stroke="#666666" points="907.5,-328.25 761,-328.25 761,-309 907.5,-309 907.5,-328.25"/>
<text text-anchor="middle" x="834.25" y="-314.75" font-family="Helvetica,sans-Serif" font-size="10.00">fabomatic::Tasks::arduinoNow</text>
</a>
</g>
</g>
<!-- Node6&#45;&gt;Node7 -->
<g id="edge6_Node000006_Node000007" class="edge">
<title>Node6&#45;&gt;Node7</title>
<g id="a_edge6_Node000006_Node000007"><a xlink:title=" ">
<path fill="none" stroke="#63b8ff" d="M678.69,-449.71C706.64,-426 777.63,-365.79 812.83,-335.94"/>
<polygon fill="#63b8ff" stroke="#63b8ff" points="814.83,-338.83 820.2,-329.7 810.31,-333.5 814.83,-338.83"/>
</a>
</g>
</g>
<!-- Node12&#45;&gt;Node7 -->
<g id="edge13_Node000012_Node000007" class="edge">
<title>Node12&#45;&gt;Node7</title>
<g id="a_edge13_Node000012_Node000007"><a xlink:title=" ">
<path fill="none" stroke="#63b8ff" d="M716.43,-318.62C726.84,-318.62 738.1,-318.62 749.37,-318.62"/>
<polygon fill="#63b8ff" stroke="#63b8ff" points="749.11,-322.13 759.11,-318.63 749.11,-315.13 749.11,-322.13"/>
</a>
</g>
</g>
<!-- Node16&#45;&gt;Node17 -->
<g id="edge18_Node000016_Node000017" class="edge">
<title>Node16&#45;&gt;Node17</title>
<g id="a_edge18_Node000016_Node000017"><a xlink:title=" ">
<path fill="none" stroke="#63b8ff" d="M571.33,-122.48C579.19,-121.66 587.3,-120.8 595.33,-119.96"/>
<polygon fill="#63b8ff" stroke="#63b8ff" points="595.49,-123.46 605.07,-118.93 594.76,-116.5 595.49,-123.46"/>
</a>
</g>
</g>
<!-- Node18&#45;&gt;Node7 -->
<g id="edge21_Node000018_Node000007" class="edge">
<title>Node18&#45;&gt;Node7</title>
<g id="a_edge21_Node000018_Node000007"><a xlink:title=" ">
<path fill="none" stroke="#63b8ff" d="M702.62,-71.33C710.68,-76.05 718.7,-81.82 725,-88.62 784.06,-152.44 816.33,-254.25 828.06,-297.78"/>
<polygon fill="#63b8ff" stroke="#63b8ff" points="824.61,-298.4 830.51,-307.19 831.38,-296.63 824.61,-298.4"/>
</a>
</g>
</g>
<!-- Node21 -->
<g id="Node000021" class="node">
<title>Node21</title>
<g id="a_Node000021"><a xlink:href="classfabomatic_1_1_board_logic.xhtml#a8e96c827d26aa04175d58d34d3f74e71" target="_top" xlink:title=" ">
<polygon fill="white" stroke="#666666" points="417,-262.88 304.25,-262.88 304.25,-232.38 417,-232.38 417,-262.88"/>
<text text-anchor="start" x="312.25" y="-249.38" font-family="Helvetica,sans-Serif" font-size="10.00">fabomatic::BoardLogic</text>
<text text-anchor="middle" x="360.62" y="-238.12" font-family="Helvetica,sans-Serif" font-size="10.00">::setRebootRequest</text>
</a>
</g>
</g>
<!-- Node20&#45;&gt;Node21 -->
<g id="edge24_Node000020_Node000021" class="edge">
<title>Node20&#45;&gt;Node21</title>
<g id="a_edge24_Node000020_Node000021"><a xlink:title=" ">
<path fill="none" stroke="#63b8ff" d="M268.56,-249.41C276.56,-249.26 284.77,-249.1 292.84,-248.94"/>
<polygon fill="#63b8ff" stroke="#63b8ff" points="292.67,-252.44 302.6,-248.74 292.53,-245.44 292.67,-252.44"/>
</a>
</g>
</g>
</g>
</svg>
