<?xml version="1.0" encoding="UTF-8" standalone="no"?>
<!DOCTYPE svg PUBLIC "-//W3C//DTD SVG 1.1//EN"
 "http://www.w3.org/Graphics/SVG/1.1/DTD/svg11.dtd">
<!-- Generated by graphviz version 9.0.0 (20230911.1827)
 -->
<!-- Title: fabomatic::openConfigPortal Pages: 1 -->
<svg width="1129pt" height="592pt"
 viewBox="0.00 0.00 1128.75 591.88" xmlns="http://www.w3.org/2000/svg" xmlns:xlink="http://www.w3.org/1999/xlink">
<g id="graph0" class="graph" transform="scale(1 1) rotate(0) translate(4 587.88)">
<title>fabomatic::openConfigPortal</title>
<!-- Node1 -->
<g id="Node000001" class="node">
<title>Node1</title>
<g id="a_Node000001"><a xlink:title="Open the ArduinoOTA configuration portal.">
<polygon fill="#999999" stroke="#666666" points="136.75,-222.25 0,-222.25 0,-203 136.75,-203 136.75,-222.25"/>
<text text-anchor="middle" x="68.38" y="-208.75" font-family="Helvetica,sans-Serif" font-size="10.00">fabomatic::openConfigPortal</text>
</a>
</g>
</g>
<!-- Node2 -->
<g id="Node000002" class="node">
<title>Node2</title>
<g id="a_Node000002"><a xlink:href="classfabomatic_1_1_board_logic.xhtml#a3c38d7a3ed7952c6d6297efdf50ea4dd" target="_top" xlink:title="Sets the board in the state given.">
<polygon fill="white" stroke="#666666" points="474.38,-295.88 361.62,-295.88 361.62,-265.38 474.38,-265.38 474.38,-295.88"/>
<text text-anchor="start" x="369.62" y="-282.38" font-family="Helvetica,sans-Serif" font-size="10.00">fabomatic::BoardLogic</text>
<text text-anchor="middle" x="418" y="-271.12" font-family="Helvetica,sans-Serif" font-size="10.00">::changeStatus</text>
</a>
</g>
</g>
<!-- Node1&#45;&gt;Node2 -->
<g id="edge1_Node000001_Node000002" class="edge">
<title>Node1&#45;&gt;Node2</title>
<g id="a_edge1_Node000001_Node000002"><a xlink:title=" ">
<path fill="none" stroke="#63b8ff" d="M82.89,-222.55C101.86,-235.85 137.96,-258.89 172.75,-268.62 231.16,-284.97 300.45,-286.81 350.28,-285.24"/>
<polygon fill="#63b8ff" stroke="#63b8ff" points="350.19,-288.75 360.05,-284.87 349.92,-281.75 350.19,-288.75"/>
</a>
</g>
</g>
<!-- Node19 -->
<g id="Node000019" class="node">
<title>Node19</title>
<g id="a_Node000019"><a xlink:href="namespacefabomatic.xhtml#aaa30fd4002cc95e50c035f2d3dcdb44d" target="_top" xlink:title=" ">
<polygon fill="white" stroke="#666666" points="323,-259.25 172.75,-259.25 172.75,-240 323,-240 323,-259.25"/>
<text text-anchor="middle" x="247.88" y="-245.75" font-family="Helvetica,sans-Serif" font-size="10.00">fabomatic::configModeCallback</text>
</a>
</g>
</g>
<!-- Node1&#45;&gt;Node19 -->
<g id="edge21_Node000001_Node000019" class="edge">
<title>Node1&#45;&gt;Node19</title>
<g id="a_edge21_Node000001_Node000019"><a xlink:title=" ">
<path fill="none" stroke="#63b8ff" d="M117.88,-222.74C139.3,-227.2 164.7,-232.5 187.27,-237.2"/>
<polygon fill="#63b8ff" stroke="#63b8ff" points="186.45,-240.6 196.95,-239.22 187.87,-233.75 186.45,-240.6"/>
</a>
</g>
</g>
<!-- Node20 -->
<g id="Node000020" class="node">
<title>Node20</title>
<g id="a_Node000020"><a xlink:href="namespacefabomatic.xhtml#a412fca06536dbae1da1e3018a4fd03c6" target="_top" xlink:title=" ">
<polygon fill="white" stroke="#666666" points="299.75,-222.25 196,-222.25 196,-203 299.75,-203 299.75,-222.25"/>
<text text-anchor="middle" x="247.88" y="-208.75" font-family="Helvetica,sans-Serif" font-size="10.00">fabomatic::getConfig</text>
</a>
</g>
</g>
<!-- Node1&#45;&gt;Node20 -->
<g id="edge23_Node000001_Node000020" class="edge">
<title>Node1&#45;&gt;Node20</title>
<g id="a_edge23_Node000001_Node000020"><a xlink:title=" ">
<path fill="none" stroke="#63b8ff" d="M137.24,-212.62C152.68,-212.62 169.02,-212.62 184.23,-212.62"/>
<polygon fill="#63b8ff" stroke="#63b8ff" points="184.1,-216.13 194.1,-212.63 184.1,-209.13 184.1,-216.13"/>
</a>
</g>
</g>
<!-- Node24 -->
<g id="Node000024" class="node">
<title>Node24</title>
<g id="a_Node000024"><a xlink:href="namespacefabomatic.xhtml#a4fdef03704e4c9526605a43b8dd6549e" target="_top" xlink:title=" ">
<polygon fill="white" stroke="#666666" points="322.25,-185.25 173.5,-185.25 173.5,-166 322.25,-166 322.25,-185.25"/>
<text text-anchor="middle" x="247.88" y="-171.75" font-family="Helvetica,sans-Serif" font-size="10.00">fabomatic::saveConfigCallback</text>
</a>
</g>
</g>
<!-- Node1&#45;&gt;Node24 -->
<g id="edge27_Node000001_Node000024" class="edge">
<title>Node1&#45;&gt;Node24</title>
<g id="a_edge27_Node000001_Node000024"><a xlink:title=" ">
<path fill="none" stroke="#63b8ff" d="M117.88,-202.51C139.3,-198.05 164.7,-192.75 187.27,-188.05"/>
<polygon fill="#63b8ff" stroke="#63b8ff" points="187.87,-191.5 196.95,-186.03 186.45,-184.65 187.87,-191.5"/>
</a>
</g>
</g>
<!-- Node25 -->
<g id="Node000025" class="node">
<title>Node25</title>
<g id="a_Node000025"><a xlink:href="classfabomatic_1_1_board_logic.xhtml#a8e96c827d26aa04175d58d34d3f74e71" target="_top" xlink:title=" ">
<polygon fill="white" stroke="#666666" points="304.25,-147.88 191.5,-147.88 191.5,-117.38 304.25,-117.38 304.25,-147.88"/>
<text text-anchor="start" x="199.5" y="-134.38" font-family="Helvetica,sans-Serif" font-size="10.00">fabomatic::BoardLogic</text>
<text text-anchor="middle" x="247.88" y="-123.12" font-family="Helvetica,sans-Serif" font-size="10.00">::setRebootRequest</text>
</a>
</g>
</g>
<!-- Node1&#45;&gt;Node25 -->
<g id="edge28_Node000001_Node000025" class="edge">
<title>Node1&#45;&gt;Node25</title>
<g id="a_edge28_Node000001_Node000025"><a xlink:title=" ">
<path fill="none" stroke="#63b8ff" d="M85.74,-202.54C105.73,-190.5 140.86,-170.29 172.75,-156.62 176.28,-155.11 179.93,-153.64 183.64,-152.22"/>
<polygon fill="#63b8ff" stroke="#63b8ff" points="184.58,-155.61 192.77,-148.88 182.18,-149.03 184.58,-155.61"/>
</a>
</g>
</g>
<!-- Node3 -->
<g id="Node000003" class="node">
<title>Node3</title>
<g id="a_Node000003"><a xlink:href="classfabomatic_1_1_board_logic.xhtml#a47b4d515c0d3488eceb49769036bce8b" target="_top" xlink:title="Updates the LCD screen as per the current status.">
<polygon fill="white" stroke="#666666" points="628.38,-295.88 515.62,-295.88 515.62,-265.38 628.38,-265.38 628.38,-295.88"/>
<text text-anchor="start" x="523.62" y="-282.38" font-family="Helvetica,sans-Serif" font-size="10.00">fabomatic::BoardLogic</text>
<text text-anchor="middle" x="572" y="-271.12" font-family="Helvetica,sans-Serif" font-size="10.00">::updateLCD</text>
</a>
</g>
</g>
<!-- Node2&#45;&gt;Node3 -->
<g id="edge2_Node000002_Node000003" class="edge">
<title>Node2&#45;&gt;Node3</title>
<g id="a_edge2_Node000002_Node000003"><a xlink:title=" ">
<path fill="none" stroke="#63b8ff" d="M474.74,-280.62C484.24,-280.62 494.19,-280.62 503.95,-280.62"/>
<polygon fill="#63b8ff" stroke="#63b8ff" points="503.76,-284.13 513.76,-280.63 503.76,-277.13 503.76,-284.13"/>
</a>
</g>
</g>
<!-- Node4 -->
<g id="Node000004" class="node">
<title>Node4</title>
<g id="a_Node000004"><a xlink:href="classfabomatic_1_1_machine.xhtml#a39c30eaa242d5cc2ce784dbafeef87e8" target="_top" xlink:title=" ">
<polygon fill="white" stroke="#666666" points="776,-583.88 676,-583.88 676,-553.38 776,-553.38 776,-583.88"/>
<text text-anchor="start" x="684" y="-570.38" font-family="Helvetica,sans-Serif" font-size="10.00">fabomatic::Machine</text>
<text text-anchor="middle" x="726" y="-559.12" font-family="Helvetica,sans-Serif" font-size="10.00">::getActiveUser</text>
</a>
</g>
</g>
<!-- Node3&#45;&gt;Node4 -->
<g id="edge3_Node000003_Node000004" class="edge">
<title>Node3&#45;&gt;Node4</title>
<g id="a_edge3_Node000003_Node000004"><a xlink:title=" ">
<path fill="none" stroke="#63b8ff" d="M574.3,-296.17C578.8,-340.58 597.49,-469.54 667,-543.62 667.84,-544.52 668.73,-545.39 669.64,-546.23"/>
<polygon fill="#63b8ff" stroke="#63b8ff" points="667.33,-548.87 677.42,-552.09 671.54,-543.28 667.33,-548.87"/>
</a>
</g>
</g>
<!-- Node5 -->
<g id="Node000005" class="node">
<title>Node5</title>
<g id="a_Node000005"><a xlink:href="classfabomatic_1_1_board_logic.xhtml#a462b4b6149ca7bf33b699eb3181c969f" target="_top" xlink:title=" ">
<polygon fill="white" stroke="#666666" points="782.38,-534.88 669.62,-534.88 669.62,-504.38 782.38,-504.38 782.38,-534.88"/>
<text text-anchor="start" x="677.62" y="-521.38" font-family="Helvetica,sans-Serif" font-size="10.00">fabomatic::BoardLogic</text>
<text text-anchor="middle" x="726" y="-510.12" font-family="Helvetica,sans-Serif" font-size="10.00">::getLcd</text>
</a>
</g>
</g>
<!-- Node3&#45;&gt;Node5 -->
<g id="edge4_Node000003_Node000005" class="edge">
<title>Node3&#45;&gt;Node5</title>
<g id="a_edge4_Node000003_Node000005"><a xlink:title=" ">
<path fill="none" stroke="#63b8ff" d="M575.79,-296.31C583.45,-335.04 608.26,-436.29 667,-494.62 668.01,-495.62 669.06,-496.59 670.15,-497.51"/>
<polygon fill="#63b8ff" stroke="#63b8ff" points="667.76,-500.11 677.94,-503.05 671.82,-494.4 667.76,-500.11"/>
</a>
</g>
</g>
<!-- Node8 -->
<g id="Node000008" class="node">
<title>Node8</title>
<g id="a_Node000008"><a xlink:href="classfabomatic_1_1_board_logic.xhtml#a164e40105242d0b7c56c6b4f21155101" target="_top" xlink:title="Gets the current machine.">
<polygon fill="white" stroke="#666666" points="782.38,-485.88 669.62,-485.88 669.62,-455.38 782.38,-455.38 782.38,-485.88"/>
<text text-anchor="start" x="677.62" y="-472.38" font-family="Helvetica,sans-Serif" font-size="10.00">fabomatic::BoardLogic</text>
<text text-anchor="middle" x="726" y="-461.12" font-family="Helvetica,sans-Serif" font-size="10.00">::getMachine</text>
</a>
</g>
</g>
<!-- Node3&#45;&gt;Node8 -->
<g id="edge8_Node000003_Node000008" class="edge">
<title>Node3&#45;&gt;Node8</title>
<g id="a_edge8_Node000003_Node000008"><a xlink:title=" ">
<path fill="none" stroke="#63b8ff" d="M577.97,-295.98C589.03,-327.95 618.6,-402.32 667,-445.62 668.23,-446.72 669.51,-447.78 670.83,-448.79"/>
<polygon fill="#63b8ff" stroke="#63b8ff" points="668.57,-451.49 678.85,-454.05 672.41,-445.64 668.57,-451.49"/>
</a>
</g>
</g>
<!-- Node9 -->
<g id="Node000009" class="node">
<title>Node9</title>
<g id="a_Node000009"><a xlink:href="classfabomatic_1_1_machine.xhtml#a1637e99f2d70262d2ab26f69ed4f0e47" target="_top" xlink:title=" ">
<polygon fill="white" stroke="#666666" points="776,-436.88 676,-436.88 676,-406.38 776,-406.38 776,-436.88"/>
<text text-anchor="start" x="684" y="-423.38" font-family="Helvetica,sans-Serif" font-size="10.00">fabomatic::Machine</text>
<text text-anchor="middle" x="726" y="-412.12" font-family="Helvetica,sans-Serif" font-size="10.00">::getMachineName</text>
</a>
</g>
</g>
<!-- Node3&#45;&gt;Node9 -->
<g id="edge9_Node000003_Node000009" class="edge">
<title>Node3&#45;&gt;Node9</title>
<g id="a_edge9_Node000003_Node000009"><a xlink:title=" ">
<path fill="none" stroke="#63b8ff" d="M582.1,-296.16C597.06,-320.5 628.98,-367.82 667,-396.62 668.74,-397.94 670.55,-399.2 672.43,-400.41"/>
<polygon fill="#63b8ff" stroke="#63b8ff" points="670.44,-403.31 680.85,-405.26 673.93,-397.24 670.44,-403.31"/>
</a>
</g>
</g>
<!-- Node10 -->
<g id="Node000010" class="node">
<title>Node10</title>
<g id="a_Node000010"><a xlink:href="classfabomatic_1_1_machine.xhtml#ad511c567c7cb7487d19019550c9a4e32" target="_top" xlink:title=" ">
<polygon fill="white" stroke="#666666" points="779,-387.88 673,-387.88 673,-357.38 779,-357.38 779,-387.88"/>
<text text-anchor="start" x="681" y="-374.38" font-family="Helvetica,sans-Serif" font-size="10.00">fabomatic::Machine</text>
<text text-anchor="middle" x="726" y="-363.12" font-family="Helvetica,sans-Serif" font-size="10.00">::getMaintenanceInfo</text>
</a>
</g>
</g>
<!-- Node3&#45;&gt;Node10 -->
<g id="edge10_Node000003_Node000010" class="edge">
<title>Node3&#45;&gt;Node10</title>
<g id="a_edge10_Node000003_Node000010"><a xlink:title=" ">
<path fill="none" stroke="#63b8ff" d="M592.36,-296.28C610.82,-310.76 639.76,-332.28 667,-347.62 669.64,-349.11 672.39,-350.57 675.19,-351.99"/>
<polygon fill="#63b8ff" stroke="#63b8ff" points="673.56,-355.09 684.09,-356.27 676.59,-348.78 673.56,-355.09"/>
</a>
</g>
</g>
<!-- Node11 -->
<g id="Node000011" class="node">
<title>Node11</title>
<g id="a_Node000011"><a xlink:href="classfabomatic_1_1_machine.xhtml#a3c5304fd80e0cc1c2118a59c64222d6d" target="_top" xlink:title="Returns the current power state of the machine.">
<polygon fill="white" stroke="#666666" points="776,-338.88 676,-338.88 676,-308.38 776,-308.38 776,-338.88"/>
<text text-anchor="start" x="684" y="-325.38" font-family="Helvetica,sans-Serif" font-size="10.00">fabomatic::Machine</text>
<text text-anchor="middle" x="726" y="-314.12" font-family="Helvetica,sans-Serif" font-size="10.00">::getPowerState</text>
</a>
</g>
</g>
<!-- Node3&#45;&gt;Node11 -->
<g id="edge11_Node000003_Node000011" class="edge">
<title>Node3&#45;&gt;Node11</title>
<g id="a_edge11_Node000003_Node000011"><a xlink:title=" ">
<path fill="none" stroke="#63b8ff" d="M628.31,-296.27C640.13,-299.62 652.69,-303.17 664.69,-306.56"/>
<polygon fill="#63b8ff" stroke="#63b8ff" points="663.5,-309.86 674.07,-309.22 665.4,-303.13 663.5,-309.86"/>
</a>
</g>
</g>
<!-- Node12 -->
<g id="Node000012" class="node">
<title>Node12</title>
<g id="a_Node000012"><a xlink:href="classfabomatic_1_1_machine.xhtml#a9c845a163660550fa779516a8be8681a" target="_top" xlink:title="Duration of the current usage, or 0s.">
<polygon fill="white" stroke="#666666" points="929.62,-295.88 829.62,-295.88 829.62,-265.38 929.62,-265.38 929.62,-295.88"/>
<text text-anchor="start" x="837.62" y="-282.38" font-family="Helvetica,sans-Serif" font-size="10.00">fabomatic::Machine</text>
<text text-anchor="middle" x="879.62" y="-271.12" font-family="Helvetica,sans-Serif" font-size="10.00">::getUsageDuration</text>
</a>
</g>
</g>
<!-- Node3&#45;&gt;Node12 -->
<g id="edge12_Node000003_Node000012" class="edge">
<title>Node3&#45;&gt;Node12</title>
<g id="a_edge12_Node000003_Node000012"><a xlink:title=" ">
<path fill="none" stroke="#63b8ff" d="M628.7,-280.62C682.23,-280.62 762.9,-280.62 818.01,-280.62"/>
<polygon fill="#63b8ff" stroke="#63b8ff" points="817.85,-284.13 827.85,-280.63 817.85,-277.13 817.85,-284.13"/>
</a>
</g>
</g>
<!-- Node13 -->
<g id="Node000013" class="node">
<title>Node13</title>
<g id="a_Node000013"><a xlink:href="classfabomatic_1_1_machine.xhtml#a4b40dcb31af466acc85f66c845516c82" target="_top" xlink:title=" ">
<polygon fill="white" stroke="#666666" points="776,-252.88 676,-252.88 676,-222.38 776,-222.38 776,-252.88"/>
<text text-anchor="start" x="684" y="-239.38" font-family="Helvetica,sans-Serif" font-size="10.00">fabomatic::Machine</text>
<text text-anchor="middle" x="726" y="-228.12" font-family="Helvetica,sans-Serif" font-size="10.00">::isAllowed</text>
</a>
</g>
</g>
<!-- Node3&#45;&gt;Node13 -->
<g id="edge14_Node000003_Node000013" class="edge">
<title>Node3&#45;&gt;Node13</title>
<g id="a_edge14_Node000003_Node000013"><a xlink:title=" ">
<path fill="none" stroke="#63b8ff" d="M628.31,-264.98C640.13,-261.63 652.69,-258.08 664.69,-254.69"/>
<polygon fill="#63b8ff" stroke="#63b8ff" points="665.4,-258.12 674.07,-252.03 663.5,-251.39 665.4,-258.12"/>
</a>
</g>
</g>
<!-- Node14 -->
<g id="Node000014" class="node">
<title>Node14</title>
<g id="a_Node000014"><a xlink:href="classfabomatic_1_1_machine.xhtml#a9fd614d86b6108a5a7b54fc9eee0d9a6" target="_top" xlink:title="Indicates if the machine has been configured.">
<polygon fill="white" stroke="#666666" points="776,-203.88 676,-203.88 676,-173.38 776,-173.38 776,-203.88"/>
<text text-anchor="start" x="684" y="-190.38" font-family="Helvetica,sans-Serif" font-size="10.00">fabomatic::Machine</text>
<text text-anchor="middle" x="726" y="-179.12" font-family="Helvetica,sans-Serif" font-size="10.00">::isConfigured</text>
</a>
</g>
</g>
<!-- Node3&#45;&gt;Node14 -->
<g id="edge15_Node000003_Node000014" class="edge">
<title>Node3&#45;&gt;Node14</title>
<g id="a_edge15_Node000003_Node000014"><a xlink:title=" ">
<path fill="none" stroke="#63b8ff" d="M598.2,-264.88C608.52,-258.23 620.49,-250.27 631,-242.62 647.61,-230.54 649.4,-224.23 667,-213.62 669.42,-212.16 671.95,-210.74 674.53,-209.37"/>
<polygon fill="#63b8ff" stroke="#63b8ff" points="675.92,-212.59 683.31,-204.99 672.8,-206.32 675.92,-212.59"/>
</a>
</g>
</g>
<!-- Node15 -->
<g id="Node000015" class="node">
<title>Node15</title>
<g id="a_Node000015"><a xlink:href="classfabomatic_1_1_machine.xhtml#a34b0deb04494137cf321e94d50dedf90" target="_top" xlink:title=" ">
<polygon fill="white" stroke="#666666" points="784.62,-154.88 667.38,-154.88 667.38,-124.38 784.62,-124.38 784.62,-154.88"/>
<text text-anchor="start" x="675.38" y="-141.38" font-family="Helvetica,sans-Serif" font-size="10.00">fabomatic::Machine</text>
<text text-anchor="middle" x="726" y="-130.12" font-family="Helvetica,sans-Serif" font-size="10.00">::isMaintenanceNeeded</text>
</a>
</g>
</g>
<!-- Node3&#45;&gt;Node15 -->
<g id="edge16_Node000003_Node000015" class="edge">
<title>Node3&#45;&gt;Node15</title>
<g id="a_edge16_Node000003_Node000015"><a xlink:title=" ">
<path fill="none" stroke="#63b8ff" d="M603.8,-264.9C613.41,-258.91 623.45,-251.38 631,-242.62 655.93,-213.71 639.66,-191.28 667,-164.62 668.04,-163.61 669.12,-162.64 670.25,-161.7"/>
<polygon fill="#63b8ff" stroke="#63b8ff" points="672.1,-164.68 678.29,-156.08 668.08,-158.94 672.1,-164.68"/>
</a>
</g>
</g>
<!-- Node16 -->
<g id="Node000016" class="node">
<title>Node16</title>
<g id="a_Node000016"><a xlink:href="classfabomatic_1_1_fab_backend.xhtml#aef092e0e1db0c3539d5474fad2456255" target="_top" xlink:title="Checks if the client is online.">
<polygon fill="white" stroke="#666666" points="785,-105.88 667,-105.88 667,-75.38 785,-75.38 785,-105.88"/>
<text text-anchor="start" x="675" y="-92.38" font-family="Helvetica,sans-Serif" font-size="10.00">fabomatic::FabBackend</text>
<text text-anchor="middle" x="726" y="-81.12" font-family="Helvetica,sans-Serif" font-size="10.00">::isOnline</text>
</a>
</g>
</g>
<!-- Node3&#45;&gt;Node16 -->
<g id="edge17_Node000003_Node000016" class="edge">
<title>Node3&#45;&gt;Node16</title>
<g id="a_edge17_Node000003_Node000016"><a xlink:title=" ">
<path fill="none" stroke="#63b8ff" d="M605.54,-265C614.91,-259.13 624.37,-251.65 631,-242.62 665.73,-195.34 628.31,-159.73 667,-115.62 667.7,-114.83 668.42,-114.06 669.17,-113.32"/>
<polygon fill="#63b8ff" stroke="#63b8ff" points="671.28,-116.12 676.91,-107.14 666.91,-110.64 671.28,-116.12"/>
</a>
</g>
</g>
<!-- Node17 -->
<g id="Node000017" class="node">
<title>Node17</title>
<g id="a_Node000017"><a xlink:href="classfabomatic_1_1_machine.xhtml#a871958cc57845c8651cf1058ed9b30e4" target="_top" xlink:title="Indicates if the machine will power down in less than BEEP_REMAINING_MINUTES.">
<polygon fill="white" stroke="#666666" points="935.62,-154.88 823.62,-154.88 823.62,-124.38 935.62,-124.38 935.62,-154.88"/>
<text text-anchor="start" x="831.62" y="-141.38" font-family="Helvetica,sans-Serif" font-size="10.00">fabomatic::Machine</text>
<text text-anchor="middle" x="879.62" y="-130.12" font-family="Helvetica,sans-Serif" font-size="10.00">::isShutdownImminent</text>
</a>
</g>
</g>
<!-- Node3&#45;&gt;Node17 -->
<g id="edge18_Node000003_Node000017" class="edge">
<title>Node3&#45;&gt;Node17</title>
<g id="a_edge18_Node000003_Node000017"><a xlink:title=" ">
<path fill="none" stroke="#63b8ff" d="M606.56,-264.91C615.74,-259.11 624.85,-251.69 631,-242.62 675.84,-176.56 605.14,-117.11 667,-66.62 707.63,-33.46 735.4,-49.58 785,-66.62 813.31,-76.36 839.63,-98.54 857.11,-115.92"/>
<polygon fill="#63b8ff" stroke="#63b8ff" points="854.41,-118.17 863.89,-122.9 859.44,-113.29 854.41,-118.17"/>
</a>
</g>
</g>
<!-- Node18 -->
<g id="Node000018" class="node">
<title>Node18</title>
<g id="a_Node000018"><a xlink:href="namespacefabomatic_1_1card.xhtml#aef091ec171625c69f9d4eab20ebaefec" target="_top" xlink:title="Returns a string representation of the UID.">
<polygon fill="white" stroke="#666666" points="783.88,-19.25 668.12,-19.25 668.12,0 783.88,0 783.88,-19.25"/>
<text text-anchor="middle" x="726" y="-5.75" font-family="Helvetica,sans-Serif" font-size="10.00">fabomatic::card::uid_str</text>
</a>
</g>
</g>
<!-- Node3&#45;&gt;Node18 -->
<g id="edge20_Node000003_Node000018" class="edge">
<title>Node3&#45;&gt;Node18</title>
<g id="a_edge20_Node000003_Node000018"><a xlink:title=" ">
<path fill="none" stroke="#63b8ff" d="M606.73,-265.03C615.92,-259.23 624.99,-251.78 631,-242.62 682.71,-163.82 608.13,-107.24 667,-33.62 669.49,-30.51 672.46,-27.79 675.71,-25.43"/>
<polygon fill="#63b8ff" stroke="#63b8ff" points="677.36,-28.52 684.18,-20.41 673.79,-22.5 677.36,-28.52"/>
</a>
</g>
</g>
<!-- Node6 -->
<g id="Node000006" class="node">
<title>Node6</title>
<g id="a_Node000006"><a xlink:href="namespacefabomatic_1_1_tasks.xhtml#a5c20f560f5934822d39ba116a16f3ab6" target="_top" xlink:title="Wait for a delay, allowing OTA updates.">
<polygon fill="white" stroke="#666666" points="938.25,-431.25 821,-431.25 821,-412 938.25,-412 938.25,-431.25"/>
<text text-anchor="middle" x="879.62" y="-417.75" font-family="Helvetica,sans-Serif" font-size="10.00">fabomatic::Tasks::delay</text>
</a>
</g>
</g>
<!-- Node5&#45;&gt;Node6 -->
<g id="edge5_Node000005_Node000006" class="edge">
<title>Node5&#45;&gt;Node6</title>
<g id="a_edge5_Node000005_Node000006"><a xlink:title=" ">
<path fill="none" stroke="#63b8ff" d="M766.98,-504C773.15,-501.13 779.34,-497.98 785,-494.62 812.49,-478.35 841.01,-455.02 859.24,-439.15"/>
<polygon fill="#63b8ff" stroke="#63b8ff" points="861.46,-441.85 866.64,-432.61 856.83,-436.61 861.46,-441.85"/>
</a>
</g>
</g>
<!-- Node6&#45;&gt;Node6 -->
<g id="edge7_Node000006_Node000006" class="edge">
<title>Node6&#45;&gt;Node6</title>
<g id="a_edge7_Node000006_Node000006"><a xlink:title=" ">
<path fill="none" stroke="#63b8ff" d="M855.57,-431.54C844.6,-440.15 852.62,-449.25 879.62,-449.25 894.81,-449.25 904,-446.37 907.17,-442.32"/>
<polygon fill="#63b8ff" stroke="#63b8ff" points="910.56,-441.41 904.14,-432.98 903.9,-443.57 910.56,-441.41"/>
</a>
</g>
</g>
<!-- Node7 -->
<g id="Node000007" class="node">
<title>Node7</title>
<g id="a_Node000007"><a xlink:href="namespacefabomatic_1_1_tasks.xhtml#aad4a932b189725b84a436888d9da5dc8" target="_top" xlink:title=" ">
<polygon fill="white" stroke="#666666" points="1120.75,-290.25 974.25,-290.25 974.25,-271 1120.75,-271 1120.75,-290.25"/>
<text text-anchor="middle" x="1047.5" y="-276.75" font-family="Helvetica,sans-Serif" font-size="10.00">fabomatic::Tasks::arduinoNow</text>
</a>
</g>
</g>
<!-- Node6&#45;&gt;Node7 -->
<g id="edge6_Node000006_Node000007" class="edge">
<title>Node6&#45;&gt;Node7</title>
<g id="a_edge6_Node000006_Node000007"><a xlink:title=" ">
<path fill="none" stroke="#63b8ff" d="M892.29,-411.71C920.18,-388 991.01,-327.79 1026.12,-297.94"/>
<polygon fill="#63b8ff" stroke="#63b8ff" points="1028.12,-300.84 1033.47,-291.7 1023.59,-295.51 1028.12,-300.84"/>
</a>
</g>
</g>
<!-- Node12&#45;&gt;Node7 -->
<g id="edge13_Node000012_Node000007" class="edge">
<title>Node12&#45;&gt;Node7</title>
<g id="a_edge13_Node000012_Node000007"><a xlink:title=" ">
<path fill="none" stroke="#63b8ff" d="M929.94,-280.62C940.33,-280.62 951.56,-280.62 962.81,-280.62"/>
<polygon fill="#63b8ff" stroke="#63b8ff" points="962.52,-284.13 972.52,-280.63 962.52,-277.13 962.52,-284.13"/>
</a>
</g>
</g>
<!-- Node17&#45;&gt;Node7 -->
<g id="edge19_Node000017_Node000007" class="edge">
<title>Node17&#45;&gt;Node7</title>
<g id="a_edge19_Node000017_Node000007"><a xlink:title=" ">
<path fill="none" stroke="#63b8ff" d="M899.01,-155.25C930.33,-181.88 993.8,-235.83 1026.31,-263.47"/>
<polygon fill="#63b8ff" stroke="#63b8ff" points="1023.94,-266.04 1033.82,-269.85 1028.47,-260.71 1023.94,-266.04"/>
</a>
</g>
</g>
<!-- Node19&#45;&gt;Node2 -->
<g id="edge22_Node000019_Node000002" class="edge">
<title>Node19&#45;&gt;Node2</title>
<g id="a_edge22_Node000019_Node000002"><a xlink:title=" ">
<path fill="none" stroke="#63b8ff" d="M303.46,-259.69C318.35,-262.44 334.66,-265.44 350.14,-268.3"/>
<polygon fill="#63b8ff" stroke="#63b8ff" points="349.29,-271.7 359.76,-270.07 350.56,-264.82 349.29,-271.7"/>
</a>
</g>
</g>
<!-- Node21 -->
<g id="Node000021" class="node">
<title>Node21</title>
<g id="a_Node000021"><a xlink:href="classfabomatic_1_1_saved_config.xhtml#a3a6f62510c34ed7a4491022e4e43b9c2" target="_top" xlink:title="Returns the default configuration built from conf.hpp and secrets.hpp.">
<polygon fill="white" stroke="#666666" points="477,-233.88 359,-233.88 359,-203.38 477,-203.38 477,-233.88"/>
<text text-anchor="start" x="367" y="-220.38" font-family="Helvetica,sans-Serif" font-size="10.00">fabomatic::SavedConfig</text>
<text text-anchor="middle" x="418" y="-209.12" font-family="Helvetica,sans-Serif" font-size="10.00">::DefaultConfig</text>
</a>
</g>
</g>
<!-- Node20&#45;&gt;Node21 -->
<g id="edge24_Node000020_Node000021" class="edge">
<title>Node20&#45;&gt;Node21</title>
<g id="a_edge24_Node000020_Node000021"><a xlink:title=" ">
<path fill="none" stroke="#63b8ff" d="M300.23,-214.46C315.07,-214.99 331.53,-215.57 347.29,-216.14"/>
<polygon fill="#63b8ff" stroke="#63b8ff" points="346.98,-219.63 357.09,-216.49 347.23,-212.63 346.98,-219.63"/>
</a>
</g>
</g>
<!-- Node23 -->
<g id="Node000023" class="node">
<title>Node23</title>
<g id="a_Node000023"><a xlink:href="classfabomatic_1_1_saved_config.xhtml#aca3fe97dfa74c005d47ffef700392d99" target="_top" xlink:title="Loads the configuration from EEPROM if available and matching revision number.">
<polygon fill="white" stroke="#666666" points="477,-184.88 359,-184.88 359,-154.38 477,-154.38 477,-184.88"/>
<text text-anchor="start" x="367" y="-171.38" font-family="Helvetica,sans-Serif" font-size="10.00">fabomatic::SavedConfig</text>
<text text-anchor="middle" x="418" y="-160.12" font-family="Helvetica,sans-Serif" font-size="10.00">::LoadFromEEPROM</text>
</a>
</g>
</g>
<!-- Node20&#45;&gt;Node23 -->
<g id="edge26_Node000020_Node000023" class="edge">
<title>Node20&#45;&gt;Node23</title>
<g id="a_edge26_Node000020_Node000023"><a xlink:title=" ">
<path fill="none" stroke="#63b8ff" d="M291.25,-202.5C301.64,-199.97 312.73,-197.24 323,-194.62 331.02,-192.58 339.42,-190.41 347.75,-188.22"/>
<polygon fill="#63b8ff" stroke="#63b8ff" points="348.39,-191.68 357.17,-185.74 346.61,-184.91 348.39,-191.68"/>
</a>
</g>
</g>
<!-- Node22 -->
<g id="Node000022" class="node">
<title>Node22</title>
<g id="a_Node000022"><a xlink:href="classfabomatic_1_1_saved_config.xhtml#a4ada414d31749dcd736a3fec3f759605" target="_top" xlink:title="Sets the machine ID (converting to string)">
<polygon fill="white" stroke="#666666" points="631,-233.88 513,-233.88 513,-203.38 631,-203.38 631,-233.88"/>
<text text-anchor="start" x="521" y="-220.38" font-family="Helvetica,sans-Serif" font-size="10.00">fabomatic::SavedConfig</text>
<text text-anchor="middle" x="572" y="-209.12" font-family="Helvetica,sans-Serif" font-size="10.00">::setMachineID</text>
</a>
</g>
</g>
<!-- Node21&#45;&gt;Node22 -->
<g id="edge25_Node000021_Node000022" class="edge">
<title>Node21&#45;&gt;Node22</title>
<g id="a_edge25_Node000021_Node000022"><a xlink:title=" ">
<path fill="none" stroke="#63b8ff" d="M477.33,-218.62C485.19,-218.62 493.3,-218.62 501.33,-218.62"/>
<polygon fill="#63b8ff" stroke="#63b8ff" points="501.06,-222.13 511.06,-218.63 501.06,-215.13 501.06,-222.13"/>
</a>
</g>
</g>
</g>
</svg>
