<?xml version="1.0" encoding="UTF-8" standalone="no"?>
<!DOCTYPE svg PUBLIC "-//W3C//DTD SVG 1.1//EN"
 "http://www.w3.org/Graphics/SVG/1.1/DTD/svg11.dtd">
<!-- Generated by graphviz version 9.0.0 (20230911.1827)
 -->
<!-- Title: fabomatic::card::to_array Pages: 1 -->
<svg width="345pt" height="76pt"
 viewBox="0.00 0.00 344.75 75.88" xmlns="http://www.w3.org/2000/svg" xmlns:xlink="http://www.w3.org/1999/xlink">
<g id="graph0" class="graph" transform="scale(1 1) rotate(0) translate(4 71.88)">
<title>fabomatic::card::to_array</title>
<!-- Node1 -->
<g id="Node000001" class="node">
<title>Node1</title>
<g id="a_Node000001"><a xlink:title="Converts a UID from an array of bytes to a number.">
<polygon fill="#999999" stroke="#666666" points="336.75,-45.88 242,-45.88 242,-15.37 336.75,-15.37 336.75,-45.88"/>
<text text-anchor="start" x="250" y="-32.38" font-family="Helvetica,sans-Serif" font-size="10.00">fabomatic::card::to</text>
<text text-anchor="middle" x="289.38" y="-21.12" font-family="Helvetica,sans-Serif" font-size="10.00">_array</text>
</a>
</g>
</g>
<!-- Node2 -->
<g id="Node000002" class="node">
<title>Node2</title>
<g id="a_Node000002"><a xlink:href="classfabomatic_1_1_mock_mrfc522.xhtml#a4b795aa73514e7810386f308c08f1411" target="_top" xlink:title=" ">
<polygon fill="white" stroke="#666666" points="202.25,-67.88 79.75,-67.88 79.75,-37.38 202.25,-37.38 202.25,-67.88"/>
<text text-anchor="start" x="87.75" y="-54.38" font-family="Helvetica,sans-Serif" font-size="10.00">fabomatic::MockMrfc522</text>
<text text-anchor="middle" x="141" y="-43.12" font-family="Helvetica,sans-Serif" font-size="10.00">::getDriverUid</text>
</a>
</g>
</g>
<!-- Node1&#45;&gt;Node2 -->
<g id="edge1_Node000001_Node000002" class="edge">
<title>Node1&#45;&gt;Node2</title>
<g id="a_edge1_Node000001_Node000002"><a xlink:title=" ">
<path fill="none" stroke="#63b8ff" d="M230.37,-39.34C221.28,-40.71 211.86,-42.12 202.72,-43.5"/>
<polygon fill="#63b8ff" stroke="#63b8ff" points="230.79,-42.82 240.16,-37.87 229.75,-35.9 230.79,-42.82"/>
</a>
</g>
</g>
<!-- Node3 -->
<g id="Node000003" class="node">
<title>Node3</title>
<g id="a_Node000003"><a xlink:href="namespacefabomatic_1_1tests.xhtml#ae4870af55ad642d117ae225789bdc013" target="_top" xlink:title=" ">
<polygon fill="white" stroke="#666666" points="206,-19.25 76,-19.25 76,0 206,0 206,-19.25"/>
<text text-anchor="middle" x="141" y="-5.75" font-family="Helvetica,sans-Serif" font-size="10.00">fabomatic::tests::test_card</text>
</a>
</g>
</g>
<!-- Node1&#45;&gt;Node3 -->
<g id="edge2_Node000001_Node000003" class="edge">
<title>Node1&#45;&gt;Node3</title>
<g id="a_edge2_Node000001_Node000003"><a xlink:title=" ">
<path fill="none" stroke="#63b8ff" d="M230.36,-22.3C222.49,-21.17 214.39,-20.01 206.42,-18.87"/>
<polygon fill="#63b8ff" stroke="#63b8ff" points="229.76,-25.75 240.16,-23.71 230.76,-18.82 229.76,-25.75"/>
</a>
</g>
</g>
<!-- Node4 -->
<g id="Node000004" class="node">
<title>Node4</title>
<g id="a_Node000004"><a xlink:href="test__chrono_8cpp.xhtml#a4fc01d736fe50cf5b977f755b675f11d" target="_top" xlink:title=" ">
<polygon fill="white" stroke="#666666" points="40,-19.25 0,-19.25 0,0 40,0 40,-19.25"/>
<text text-anchor="middle" x="20" y="-5.75" font-family="Helvetica,sans-Serif" font-size="10.00">setup</text>
</a>
</g>
</g>
<!-- Node3&#45;&gt;Node4 -->
<g id="edge3_Node000003_Node000004" class="edge">
<title>Node3&#45;&gt;Node4</title>
<g id="a_edge3_Node000003_Node000004"><a xlink:title=" ">
<path fill="none" stroke="#63b8ff" d="M64.35,-9.62C55.62,-9.62 47.39,-9.62 40.49,-9.62"/>
<polygon fill="#63b8ff" stroke="#63b8ff" points="64.11,-13.13 74.11,-9.63 64.11,-6.13 64.11,-13.13"/>
</a>
</g>
</g>
</g>
</svg>
