<?xml version="1.0" encoding="UTF-8" standalone="no"?>
<!DOCTYPE svg PUBLIC "-//W3C//DTD SVG 1.1//EN"
 "http://www.w3.org/Graphics/SVG/1.1/DTD/svg11.dtd">
<!-- Generated by graphviz version 9.0.0 (20230911.1827)
 -->
<!-- Title: fabomatic::taskFactoryReset Pages: 1 -->
<!--zoomable 763 -->

<svg id="main" version="1.1" xmlns="http://www.w3.org/2000/svg" xmlns:xlink="http://www.w3.org/1999/xlink" xml:space="preserve" onload="init(evt)">
<style type="text/css"><![CDATA[
.node, .edge {opacity: 0.7;}
.node.selected, .edge.selected {opacity: 1;}
.edge:hover path { stroke: red; }
.edge:hover polygon { stroke: red; fill: red; }
]]></style>

<defs>
  <circle id="rim" cx="0" cy="0" r="7"/>
  <circle id="rim2" cx="0" cy="0" r="3.5"/>
  <g id="zoomPlus">
    <use xlink:href="#rim" fill="#404040"><set attributeName="fill" to="#808080" begin="zoomplus.mouseover" end="zoomplus.mouseout"/></use>
    <path d="M-4,0h8M0,-4v8" fill="none" stroke="white" stroke-width="1.5" pointer-events="none"/>
  </g>
  <g id="zoomMin">
    <use xlink:href="#rim" fill="#404040"><set attributeName="fill" to="#808080" begin="zoomminus.mouseover" end="zoomminus.mouseout"/></use>
    <path d="M-4,0h8" fill="none" stroke="white" stroke-width="1.5" pointer-events="none"/>
  </g>
  <g id="arrowUp" transform="translate(30 24)">
    <use xlink:href="#rim"/>
    <path pointer-events="none" fill="none" stroke="white" stroke-width="1.5" d="M0,-3.0v7 M-2.5,-0.5L0,-3.0L2.5,-0.5"/>
  </g>
  <g id="arrowRight" transform="rotate(90) translate(36 -43)">
    <use xlink:href="#rim"/>
    <path pointer-events="none" fill="none" stroke="white" stroke-width="1.5" d="M0,-3.0v7 M-2.5,-0.5L0,-3.0L2.5,-0.5"/>
  </g>
  <g id="arrowDown" transform="rotate(180) translate(-30 -48)">
    <use xlink:href="#rim"/>
    <path pointer-events="none" fill="none" stroke="white" stroke-width="1.5" d="M0,-3.0v7 M-2.5,-0.5L0,-3.0L2.5,-0.5"/>
  </g>
  <g id="arrowLeft" transform="rotate(270) translate(-36 17)">
    <use xlink:href="#rim"/>
    <path pointer-events="none" fill="none" stroke="white" stroke-width="1.5" d="M0,-3.0v7 M-2.5,-0.5L0,-3.0L2.5,-0.5"/>
  </g>
  <g id="resetDef">
    <use xlink:href="#rim2" fill="#404040"><set attributeName="fill" to="#808080" begin="reset.mouseover" end="reset.mouseout"/></use>
  </g>
</defs>
<script type="application/ecmascript">
var viewWidth = 1307;
var viewHeight = 763;
var sectionId = 'dynsection-23';
</script>
<script type="application/ecmascript" xlink:href="svg.min.js"/>
<svg id="graph" class="graph">
<g id="viewport">
<title>fabomatic::taskFactoryReset</title>
<!-- Node1 -->
<g id="Node000001" class="node">
<title>Node1</title>
<g id="a_Node000001"><a xlink:title=" ">
<polygon fill="#999999" stroke="#666666" points="139.75,-420.88 0,-420.88 0,-401.62 139.75,-401.62 139.75,-420.88"/>
<text text-anchor="middle" x="69.88" y="-407.38" font-family="Helvetica,sans-Serif" font-size="10.00">fabomatic::taskFactoryReset</text>
</a>
</g>
</g>
<!-- Node2 -->
<g id="Node000002" class="node">
<title>Node2</title>
<g id="a_Node000002"><a xlink:href="classfabomatic_1_1_board_logic.xhtml#ad05b4db308773e56d866fe87d34022d9" target="_top" xlink:title="Blinks the LED.">
<polygon fill="white" stroke="#666666" points="804.12,-594.5 691.38,-594.5 691.38,-564 804.12,-564 804.12,-594.5"/>
<text text-anchor="start" x="699.38" y="-581" font-family="Helvetica,sans-Serif" font-size="10.00">fabomatic::BoardLogic</text>
<text text-anchor="middle" x="747.75" y="-569.75" font-family="Helvetica,sans-Serif" font-size="10.00">::blinkLed</text>
</a>
</g>
</g>
<!-- Node1&#45;&gt;Node2 -->
<g id="edge1_Node000001_Node000002" class="edge">
<title>Node1&#45;&gt;Node2</title>
<g id="a_edge1_Node000001_Node000002"><a xlink:title=" ">
<path fill="none" stroke="#63b8ff" d="M95.76,-421.33C116.94,-429.83 148.21,-442.17 175.75,-452.25 251.94,-480.14 269.87,-491.25 348.5,-511.25 463.34,-540.47 600.05,-560.73 679.75,-571.14"/>
<polygon fill="#63b8ff" stroke="#63b8ff" points="679.22,-574.6 689.58,-572.41 680.11,-567.66 679.22,-574.6"/>
</a>
</g>
</g>
<!-- Node12 -->
<g id="Node000012" class="node">
<title>Node12</title>
<g id="a_Node000012"><a xlink:href="namespacefabomatic_1_1esp32.xhtml#ac8d867c42c073a3e44e6292db72e1f94" target="_top" xlink:title="Returns the ESP32 serial number as a string.">
<polygon fill="white" stroke="#666666" points="299,-405.5 189.25,-405.5 189.25,-375 299,-375 299,-405.5"/>
<text text-anchor="start" x="197.25" y="-392" font-family="Helvetica,sans-Serif" font-size="10.00">fabomatic::esp32::esp</text>
<text text-anchor="middle" x="244.12" y="-380.75" font-family="Helvetica,sans-Serif" font-size="10.00">_serial</text>
</a>
</g>
</g>
<!-- Node1&#45;&gt;Node12 -->
<g id="edge11_Node000001_Node000012" class="edge">
<title>Node1&#45;&gt;Node12</title>
<g id="a_edge11_Node000001_Node000012"><a xlink:title=" ">
<path fill="none" stroke="#63b8ff" d="M139.94,-402.83C152.41,-401.31 165.38,-399.73 177.74,-398.22"/>
<polygon fill="#63b8ff" stroke="#63b8ff" points="177.88,-401.73 187.38,-397.05 177.03,-394.78 177.88,-401.73"/>
</a>
</g>
</g>
<!-- Node13 -->
<g id="Node000013" class="node">
<title>Node13</title>
<g id="a_Node000013"><a xlink:href="namespacefabomatic.xhtml#a8374c0d1cef777c26dc13b4abc9c52b6" target="_top" xlink:title="Open the ArduinoOTA configuration portal.">
<polygon fill="white" stroke="#666666" points="312.5,-442.88 175.75,-442.88 175.75,-423.62 312.5,-423.62 312.5,-442.88"/>
<text text-anchor="middle" x="244.12" y="-429.38" font-family="Helvetica,sans-Serif" font-size="10.00">fabomatic::openConfigPortal</text>
</a>
</g>
</g>
<!-- Node1&#45;&gt;Node13 -->
<g id="edge12_Node000001_Node000013" class="edge">
<title>Node1&#45;&gt;Node13</title>
<g id="a_edge12_Node000001_Node000013"><a xlink:title=" ">
<path fill="none" stroke="#63b8ff" d="M139.94,-420.07C147.9,-421.09 156.05,-422.13 164.12,-423.16"/>
<polygon fill="#63b8ff" stroke="#63b8ff" points="163.58,-426.62 173.94,-424.41 164.47,-419.68 163.58,-426.62"/>
</a>
</g>
</g>
<!-- Node33 -->
<g id="Node000033" class="node">
<title>Node33</title>
<g id="a_Node000033"><a xlink:href="namespacefabomatic_1_1esp32.xhtml#ae78a1408710128cb446f2cde991017dd" target="_top" xlink:title=" ">
<polygon fill="white" stroke="#666666" points="307.25,-356.5 181,-356.5 181,-326 307.25,-326 307.25,-356.5"/>
<text text-anchor="start" x="189" y="-343" font-family="Helvetica,sans-Serif" font-size="10.00">fabomatic::esp32::remove</text>
<text text-anchor="middle" x="244.12" y="-331.75" font-family="Helvetica,sans-Serif" font-size="10.00">Watchdog</text>
</a>
</g>
</g>
<!-- Node1&#45;&gt;Node33 -->
<g id="edge40_Node000001_Node000033" class="edge">
<title>Node1&#45;&gt;Node33</title>
<g id="a_edge40_Node000001_Node000033"><a xlink:title=" ">
<path fill="none" stroke="#63b8ff" d="M93.24,-401.27C114.38,-391.92 147.05,-377.72 175.75,-366.25 180.12,-364.5 184.66,-362.73 189.23,-360.98"/>
<polygon fill="#63b8ff" stroke="#63b8ff" points="190.35,-364.29 198.46,-357.47 187.87,-357.75 190.35,-364.29"/>
</a>
</g>
</g>
<!-- Node3 -->
<g id="Node000003" class="node">
<title>Node3</title>
<g id="a_Node000003"><a xlink:href="classfabomatic_1_1_machine.xhtml#a4b40dcb31af466acc85f66c845516c82" target="_top" xlink:title=" ">
<polygon fill="white" stroke="#666666" points="952.88,-545.5 852.88,-545.5 852.88,-515 952.88,-515 952.88,-545.5"/>
<text text-anchor="start" x="860.88" y="-532" font-family="Helvetica,sans-Serif" font-size="10.00">fabomatic::Machine</text>
<text text-anchor="middle" x="902.88" y="-520.75" font-family="Helvetica,sans-Serif" font-size="10.00">::isAllowed</text>
</a>
</g>
</g>
<!-- Node2&#45;&gt;Node3 -->
<g id="edge2_Node000002_Node000003" class="edge">
<title>Node2&#45;&gt;Node3</title>
<g id="a_edge2_Node000002_Node000003"><a xlink:title=" ">
<path fill="none" stroke="#63b8ff" d="M797.62,-563.61C811.78,-559.08 827.39,-554.08 842.13,-549.37"/>
<polygon fill="#63b8ff" stroke="#63b8ff" points="842.78,-552.83 851.24,-546.45 840.65,-546.17 842.78,-552.83"/>
</a>
</g>
</g>
<!-- Node4 -->
<g id="Node000004" class="node">
<title>Node4</title>
<g id="a_Node000004"><a xlink:href="classfabomatic_1_1_machine.xhtml#a74aa0b2cd34205ba57710affc56f5c3c" target="_top" xlink:title="Indicates is the machine is not used by anybody.">
<polygon fill="white" stroke="#666666" points="952.88,-643.5 852.88,-643.5 852.88,-613 952.88,-613 952.88,-643.5"/>
<text text-anchor="start" x="860.88" y="-630" font-family="Helvetica,sans-Serif" font-size="10.00">fabomatic::Machine</text>
<text text-anchor="middle" x="902.88" y="-618.75" font-family="Helvetica,sans-Serif" font-size="10.00">::isFree</text>
</a>
</g>
</g>
<!-- Node2&#45;&gt;Node4 -->
<g id="edge3_Node000002_Node000004" class="edge">
<title>Node2&#45;&gt;Node4</title>
<g id="a_edge3_Node000002_Node000004"><a xlink:title=" ">
<path fill="none" stroke="#63b8ff" d="M797.62,-594.89C811.78,-599.42 827.39,-604.42 842.13,-609.13"/>
<polygon fill="#63b8ff" stroke="#63b8ff" points="840.65,-612.33 851.24,-612.05 842.78,-605.67 840.65,-612.33"/>
</a>
</g>
</g>
<!-- Node5 -->
<g id="Node000005" class="node">
<title>Node5</title>
<g id="a_Node000005"><a xlink:href="classfabomatic_1_1_machine.xhtml#a34b0deb04494137cf321e94d50dedf90" target="_top" xlink:title=" ">
<polygon fill="white" stroke="#666666" points="961.5,-496.5 844.25,-496.5 844.25,-466 961.5,-466 961.5,-496.5"/>
<text text-anchor="start" x="852.25" y="-483" font-family="Helvetica,sans-Serif" font-size="10.00">fabomatic::Machine</text>
<text text-anchor="middle" x="902.88" y="-471.75" font-family="Helvetica,sans-Serif" font-size="10.00">::isMaintenanceNeeded</text>
</a>
</g>
</g>
<!-- Node2&#45;&gt;Node5 -->
<g id="edge4_Node000002_Node000005" class="edge">
<title>Node2&#45;&gt;Node5</title>
<g id="a_edge4_Node000002_Node000005"><a xlink:title=" ">
<path fill="none" stroke="#63b8ff" d="M766.12,-563.5C784.27,-547.61 814.05,-523.07 842.75,-506.25 845.23,-504.8 847.81,-503.38 850.45,-502.01"/>
<polygon fill="#63b8ff" stroke="#63b8ff" points="851.98,-505.16 859.44,-497.63 848.92,-498.86 851.98,-505.16"/>
</a>
</g>
</g>
<!-- Node6 -->
<g id="Node000006" class="node">
<title>Node6</title>
<g id="a_Node000006"><a xlink:href="classfabomatic_1_1_fab_backend.xhtml#aef092e0e1db0c3539d5474fad2456255" target="_top" xlink:title="Checks if the client is online.">
<polygon fill="white" stroke="#666666" points="961.88,-447.5 843.88,-447.5 843.88,-417 961.88,-417 961.88,-447.5"/>
<text text-anchor="start" x="851.88" y="-434" font-family="Helvetica,sans-Serif" font-size="10.00">fabomatic::FabBackend</text>
<text text-anchor="middle" x="902.88" y="-422.75" font-family="Helvetica,sans-Serif" font-size="10.00">::isOnline</text>
</a>
</g>
</g>
<!-- Node2&#45;&gt;Node6 -->
<g id="edge5_Node000002_Node000006" class="edge">
<title>Node2&#45;&gt;Node6</title>
<g id="a_edge5_Node000002_Node000006"><a xlink:title=" ">
<path fill="none" stroke="#63b8ff" d="M770.75,-563.67C782.47,-554.59 796.54,-542.36 806.75,-529.25 828.73,-501.02 816.66,-481.73 842.75,-457.25 843.94,-456.13 845.19,-455.06 846.49,-454.03"/>
<polygon fill="#63b8ff" stroke="#63b8ff" points="848.04,-457.2 854.38,-448.71 844.13,-451.4 848.04,-457.2"/>
</a>
</g>
</g>
<!-- Node7 -->
<g id="Node000007" class="node">
<title>Node7</title>
<g id="a_Node000007"><a xlink:href="classfabomatic_1_1_machine.xhtml#a871958cc57845c8651cf1058ed9b30e4" target="_top" xlink:title="Indicates if the machine will power down in less than BEEP_REMAINING_MINUTES.">
<polygon fill="white" stroke="#666666" points="958.88,-594.5 846.88,-594.5 846.88,-564 958.88,-564 958.88,-594.5"/>
<text text-anchor="start" x="854.88" y="-581" font-family="Helvetica,sans-Serif" font-size="10.00">fabomatic::Machine</text>
<text text-anchor="middle" x="902.88" y="-569.75" font-family="Helvetica,sans-Serif" font-size="10.00">::isShutdownImminent</text>
</a>
</g>
</g>
<!-- Node2&#45;&gt;Node7 -->
<g id="edge6_Node000002_Node000007" class="edge">
<title>Node2&#45;&gt;Node7</title>
<g id="a_edge6_Node000002_Node000007"><a xlink:title=" ">
<path fill="none" stroke="#63b8ff" d="M804.46,-579.25C814.41,-579.25 824.85,-579.25 835.07,-579.25"/>
<polygon fill="#63b8ff" stroke="#63b8ff" points="834.94,-582.75 844.94,-579.25 834.94,-575.75 834.94,-582.75"/>
</a>
</g>
</g>
<!-- Node9 -->
<g id="Node000009" class="node">
<title>Node9</title>
<g id="a_Node000009"><a xlink:href="classfabomatic_1_1_led.xhtml#ae7fd966ebaea3198dfe49b73e963e9cb" target="_top" xlink:title=" ">
<polygon fill="white" stroke="#666666" points="951.75,-754.88 854,-754.88 854,-735.62 951.75,-735.62 951.75,-754.88"/>
<text text-anchor="middle" x="902.88" y="-741.38" font-family="Helvetica,sans-Serif" font-size="10.00">fabomatic::Led::set</text>
</a>
</g>
</g>
<!-- Node2&#45;&gt;Node9 -->
<g id="edge8_Node000002_Node000009" class="edge">
<title>Node2&#45;&gt;Node9</title>
<g id="a_edge8_Node000002_Node000009"><a xlink:title=" ">
<path fill="none" stroke="#63b8ff" d="M754.35,-594.8C766,-624.94 795.75,-691.5 842.75,-727.25 844.06,-728.24 845.42,-729.18 846.83,-730.07"/>
<polygon fill="#63b8ff" stroke="#63b8ff" points="844.81,-732.97 855.29,-734.52 848.06,-726.77 844.81,-732.97"/>
</a>
</g>
</g>
<!-- Node10 -->
<g id="Node000010" class="node">
<title>Node10</title>
<g id="a_Node000010"><a xlink:href="classfabomatic_1_1_led.xhtml#afe933127b5e25e5972e3120bc276b599" target="_top" xlink:title=" ">
<polygon fill="white" stroke="#666666" points="963,-717.88 842.75,-717.88 842.75,-698.62 963,-698.62 963,-717.88"/>
<text text-anchor="middle" x="902.88" y="-704.38" font-family="Helvetica,sans-Serif" font-size="10.00">fabomatic::Led::setColor</text>
</a>
</g>
</g>
<!-- Node2&#45;&gt;Node10 -->
<g id="edge9_Node000002_Node000010" class="edge">
<title>Node2&#45;&gt;Node10</title>
<g id="a_edge9_Node000002_Node000010"><a xlink:title=" ">
<path fill="none" stroke="#63b8ff" d="M757.9,-594.98C772.7,-619.05 804.14,-664.85 842.75,-690.25 844.38,-691.32 846.08,-692.34 847.83,-693.29"/>
<polygon fill="#63b8ff" stroke="#63b8ff" points="846.35,-696.46 856.89,-697.5 849.3,-690.11 846.35,-696.46"/>
</a>
</g>
</g>
<!-- Node11 -->
<g id="Node000011" class="node">
<title>Node11</title>
<g id="a_Node000011"><a xlink:href="classfabomatic_1_1_led.xhtml#a959b8bbb2fe1acb5cbffba251bcb8c4c" target="_top" xlink:title=" ">
<polygon fill="white" stroke="#666666" points="959.62,-680.88 846.12,-680.88 846.12,-661.62 959.62,-661.62 959.62,-680.88"/>
<text text-anchor="middle" x="902.88" y="-667.38" font-family="Helvetica,sans-Serif" font-size="10.00">fabomatic::Led::update</text>
</a>
</g>
</g>
<!-- Node2&#45;&gt;Node11 -->
<g id="edge10_Node000002_Node000011" class="edge">
<title>Node2&#45;&gt;Node11</title>
<g id="a_edge10_Node000002_Node000011"><a xlink:title=" ">
<path fill="none" stroke="#63b8ff" d="M765.16,-594.93C783,-611.23 812.96,-636.53 842.75,-652.25 846.14,-654.04 849.73,-655.7 853.4,-657.23"/>
<polygon fill="#63b8ff" stroke="#63b8ff" points="851.85,-660.38 862.44,-660.67 854.34,-653.84 851.85,-660.38"/>
</a>
</g>
</g>
<!-- Node8 -->
<g id="Node000008" class="node">
<title>Node8</title>
<g id="a_Node000008"><a xlink:href="namespacefabomatic_1_1_tasks.xhtml#adc67d1313c6695d813feb935eafdaf60" target="_top" xlink:title=" ">
<polygon fill="white" stroke="#666666" points="1298.75,-306.88 1152.25,-306.88 1152.25,-287.62 1298.75,-287.62 1298.75,-306.88"/>
<text text-anchor="middle" x="1225.5" y="-293.38" font-family="Helvetica,sans-Serif" font-size="10.00">fabomatic::Tasks::arduinoNow</text>
</a>
</g>
</g>
<!-- Node7&#45;&gt;Node8 -->
<g id="edge7_Node000007_Node000008" class="edge">
<title>Node7&#45;&gt;Node8</title>
<g id="a_edge7_Node000007_Node000008"><a xlink:title=" ">
<path fill="none" stroke="#63b8ff" d="M946.56,-563.51C952.26,-560.75 957.9,-557.65 963,-554.25 1070.79,-482.33 1172.5,-362.29 1209.65,-316.13"/>
<polygon fill="#63b8ff" stroke="#63b8ff" points="1212.32,-318.39 1215.81,-308.39 1206.84,-314.03 1212.32,-318.39"/>
</a>
</g>
</g>
<!-- Node14 -->
<g id="Node000014" class="node">
<title>Node14</title>
<g id="a_Node000014"><a xlink:href="classfabomatic_1_1_board_logic.xhtml#a3c38d7a3ed7952c6d6297efdf50ea4dd" target="_top" xlink:title="Sets the board in the state given.">
<polygon fill="white" stroke="#666666" points="650.12,-346.5 537.38,-346.5 537.38,-316 650.12,-316 650.12,-346.5"/>
<text text-anchor="start" x="545.38" y="-333" font-family="Helvetica,sans-Serif" font-size="10.00">fabomatic::BoardLogic</text>
<text text-anchor="middle" x="593.75" y="-321.75" font-family="Helvetica,sans-Serif" font-size="10.00">::changeStatus</text>
</a>
</g>
</g>
<!-- Node13&#45;&gt;Node14 -->
<g id="edge13_Node000013_Node000014" class="edge">
<title>Node13&#45;&gt;Node14</title>
<g id="a_edge13_Node000013_Node000014"><a xlink:title=" ">
<path fill="none" stroke="#63b8ff" d="M289.44,-423.16C297.3,-420.69 305.28,-417.74 312.5,-414.25 330.27,-405.66 330.54,-396.43 348.5,-388.25 364.66,-380.89 459.45,-359.75 526.06,-345.4"/>
<polygon fill="#63b8ff" stroke="#63b8ff" points="526.39,-348.91 535.43,-343.38 524.92,-342.06 526.39,-348.91"/>
</a>
</g>
</g>
<!-- Node26 -->
<g id="Node000026" class="node">
<title>Node26</title>
<g id="a_Node000026"><a xlink:href="namespacefabomatic.xhtml#aaa30fd4002cc95e50c035f2d3dcdb44d" target="_top" xlink:title=" ">
<polygon fill="white" stroke="#666666" points="498.75,-340.88 348.5,-340.88 348.5,-321.62 498.75,-321.62 498.75,-340.88"/>
<text text-anchor="middle" x="423.62" y="-327.38" font-family="Helvetica,sans-Serif" font-size="10.00">fabomatic::configModeCallback</text>
</a>
</g>
</g>
<!-- Node13&#45;&gt;Node26 -->
<g id="edge32_Node000013_Node000026" class="edge">
<title>Node13&#45;&gt;Node26</title>
<g id="a_edge32_Node000013_Node000026"><a xlink:title=" ">
<path fill="none" stroke="#63b8ff" d="M296.73,-423.13C302.36,-420.77 307.76,-417.85 312.5,-414.25 336.97,-395.69 324.38,-374.28 348.5,-355.25 353.28,-351.48 358.67,-348.29 364.3,-345.6"/>
<polygon fill="#63b8ff" stroke="#63b8ff" points="365.37,-348.95 373.25,-341.86 362.67,-342.49 365.37,-348.95"/>
</a>
</g>
</g>
<!-- Node27 -->
<g id="Node000027" class="node">
<title>Node27</title>
<g id="a_Node000027"><a xlink:href="namespacefabomatic.xhtml#a412fca06536dbae1da1e3018a4fd03c6" target="_top" xlink:title=" ">
<polygon fill="white" stroke="#666666" points="475.5,-501.88 371.75,-501.88 371.75,-482.62 475.5,-482.62 475.5,-501.88"/>
<text text-anchor="middle" x="423.62" y="-488.38" font-family="Helvetica,sans-Serif" font-size="10.00">fabomatic::getConfig</text>
</a>
</g>
</g>
<!-- Node13&#45;&gt;Node27 -->
<g id="edge34_Node000013_Node000027" class="edge">
<title>Node13&#45;&gt;Node27</title>
<g id="a_edge34_Node000013_Node000027"><a xlink:title=" ">
<path fill="none" stroke="#63b8ff" d="M267.79,-443.3C288.51,-452.23 320.17,-465.24 348.5,-474.25 354.18,-476.06 360.15,-477.78 366.14,-479.4"/>
<polygon fill="#63b8ff" stroke="#63b8ff" points="364.85,-482.68 375.41,-481.82 366.61,-475.91 364.85,-482.68"/>
</a>
</g>
</g>
<!-- Node31 -->
<g id="Node000031" class="node">
<title>Node31</title>
<g id="a_Node000031"><a xlink:href="namespacefabomatic.xhtml#a4fdef03704e4c9526605a43b8dd6549e" target="_top" xlink:title=" ">
<polygon fill="white" stroke="#666666" points="498,-464.88 349.25,-464.88 349.25,-445.62 498,-445.62 498,-464.88"/>
<text text-anchor="middle" x="423.62" y="-451.38" font-family="Helvetica,sans-Serif" font-size="10.00">fabomatic::saveConfigCallback</text>
</a>
</g>
</g>
<!-- Node13&#45;&gt;Node31 -->
<g id="edge38_Node000013_Node000031" class="edge">
<title>Node13&#45;&gt;Node31</title>
<g id="a_edge38_Node000013_Node000031"><a xlink:title=" ">
<path fill="none" stroke="#63b8ff" d="M312.99,-441.66C321.06,-442.66 329.38,-443.69 337.66,-444.72"/>
<polygon fill="#63b8ff" stroke="#63b8ff" points="337.03,-448.17 347.38,-445.92 337.89,-441.22 337.03,-448.17"/>
</a>
</g>
</g>
<!-- Node32 -->
<g id="Node000032" class="node">
<title>Node32</title>
<g id="a_Node000032"><a xlink:href="classfabomatic_1_1_board_logic.xhtml#a8e96c827d26aa04175d58d34d3f74e71" target="_top" xlink:title=" ">
<polygon fill="white" stroke="#666666" points="480,-427.5 367.25,-427.5 367.25,-397 480,-397 480,-427.5"/>
<text text-anchor="start" x="375.25" y="-414" font-family="Helvetica,sans-Serif" font-size="10.00">fabomatic::BoardLogic</text>
<text text-anchor="middle" x="423.62" y="-402.75" font-family="Helvetica,sans-Serif" font-size="10.00">::setRebootRequest</text>
</a>
</g>
</g>
<!-- Node13&#45;&gt;Node32 -->
<g id="edge39_Node000013_Node000032" class="edge">
<title>Node13&#45;&gt;Node32</title>
<g id="a_edge39_Node000013_Node000032"><a xlink:title=" ">
<path fill="none" stroke="#63b8ff" d="M312.99,-425.22C327.04,-423.56 341.84,-421.81 355.86,-420.15"/>
<polygon fill="#63b8ff" stroke="#63b8ff" points="355.88,-423.67 365.4,-419.02 355.05,-416.72 355.88,-423.67"/>
</a>
</g>
</g>
<!-- Node15 -->
<g id="Node000015" class="node">
<title>Node15</title>
<g id="a_Node000015"><a xlink:href="classfabomatic_1_1_board_logic.xhtml#a47b4d515c0d3488eceb49769036bce8b" target="_top" xlink:title="Updates the LCD screen as per the current status.">
<polygon fill="white" stroke="#666666" points="804.12,-333.5 691.38,-333.5 691.38,-303 804.12,-303 804.12,-333.5"/>
<text text-anchor="start" x="699.38" y="-320" font-family="Helvetica,sans-Serif" font-size="10.00">fabomatic::BoardLogic</text>
<text text-anchor="middle" x="747.75" y="-308.75" font-family="Helvetica,sans-Serif" font-size="10.00">::updateLCD</text>
</a>
</g>
</g>
<!-- Node14&#45;&gt;Node15 -->
<g id="edge14_Node000014_Node000015" class="edge">
<title>Node14&#45;&gt;Node15</title>
<g id="a_edge14_Node000014_Node000015"><a xlink:title=" ">
<path fill="none" stroke="#63b8ff" d="M650.49,-326.48C659.99,-325.67 669.94,-324.82 679.7,-323.98"/>
<polygon fill="#63b8ff" stroke="#63b8ff" points="679.85,-327.48 689.51,-323.15 679.25,-320.51 679.85,-327.48"/>
</a>
</g>
</g>
<!-- Node15&#45;&gt;Node3 -->
<g id="edge26_Node000015_Node000003" class="edge">
<title>Node15&#45;&gt;Node3</title>
<g id="a_edge26_Node000015_Node000003"><a xlink:title=" ">
<path fill="none" stroke="#63b8ff" d="M752.59,-333.79C762.03,-368.95 789.57,-455.46 842.75,-505.25 843.94,-506.37 845.2,-507.44 846.5,-508.47"/>
<polygon fill="#63b8ff" stroke="#63b8ff" points="844.14,-511.1 854.39,-513.78 848.05,-505.29 844.14,-511.1"/>
</a>
</g>
</g>
<!-- Node15&#45;&gt;Node5 -->
<g id="edge28_Node000015_Node000005" class="edge">
<title>Node15&#45;&gt;Node5</title>
<g id="a_edge28_Node000015_Node000005"><a xlink:title=" ">
<path fill="none" stroke="#63b8ff" d="M755.57,-333.64C768.68,-361.61 799.92,-421.16 842.75,-456.25 844.23,-457.46 845.78,-458.63 847.38,-459.74"/>
<polygon fill="#63b8ff" stroke="#63b8ff" points="845.35,-462.6 855.72,-464.81 848.99,-456.62 845.35,-462.6"/>
</a>
</g>
</g>
<!-- Node15&#45;&gt;Node6 -->
<g id="edge29_Node000015_Node000006" class="edge">
<title>Node15&#45;&gt;Node6</title>
<g id="a_edge29_Node000015_Node000006"><a xlink:title=" ">
<path fill="none" stroke="#63b8ff" d="M762.02,-333.88C779.09,-353.19 810.4,-386.1 842.75,-407.25 844.87,-408.64 847.08,-409.98 849.35,-411.26"/>
<polygon fill="#63b8ff" stroke="#63b8ff" points="847.73,-414.37 858.22,-415.87 850.96,-408.15 847.73,-414.37"/>
</a>
</g>
</g>
<!-- Node15&#45;&gt;Node7 -->
<g id="edge30_Node000015_Node000007" class="edge">
<title>Node15&#45;&gt;Node7</title>
<g id="a_edge30_Node000015_Node000007"><a xlink:title=" ">
<path fill="none" stroke="#63b8ff" d="M754.18,-333.86C771.65,-383.8 826.24,-537.39 842.75,-554.25 843.63,-555.15 844.54,-556.01 845.49,-556.85"/>
<polygon fill="#63b8ff" stroke="#63b8ff" points="843.38,-559.64 853.52,-562.71 847.5,-553.98 843.38,-559.64"/>
</a>
</g>
</g>
<!-- Node16 -->
<g id="Node000016" class="node">
<title>Node16</title>
<g id="a_Node000016"><a xlink:href="classfabomatic_1_1_machine.xhtml#a39c30eaa242d5cc2ce784dbafeef87e8" target="_top" xlink:title=" ">
<polygon fill="white" stroke="#666666" points="952.88,-226.5 852.88,-226.5 852.88,-196 952.88,-196 952.88,-226.5"/>
<text text-anchor="start" x="860.88" y="-213" font-family="Helvetica,sans-Serif" font-size="10.00">fabomatic::Machine</text>
<text text-anchor="middle" x="902.88" y="-201.75" font-family="Helvetica,sans-Serif" font-size="10.00">::getActiveUser</text>
</a>
</g>
</g>
<!-- Node15&#45;&gt;Node16 -->
<g id="edge15_Node000015_Node000016" class="edge">
<title>Node15&#45;&gt;Node16</title>
<g id="a_edge15_Node000015_Node000016"><a xlink:title=" ">
<path fill="none" stroke="#63b8ff" d="M765.13,-302.59C783.19,-285.84 813.55,-259.14 842.75,-240.25 847.02,-237.49 851.6,-234.8 856.24,-232.26"/>
<polygon fill="#63b8ff" stroke="#63b8ff" points="857.84,-235.38 865.08,-227.64 854.59,-229.17 857.84,-235.38"/>
</a>
</g>
</g>
<!-- Node17 -->
<g id="Node000017" class="node">
<title>Node17</title>
<g id="a_Node000017"><a xlink:href="classfabomatic_1_1_board_logic.xhtml#a462b4b6149ca7bf33b699eb3181c969f" target="_top" xlink:title=" ">
<polygon fill="white" stroke="#666666" points="959.25,-312.5 846.5,-312.5 846.5,-282 959.25,-282 959.25,-312.5"/>
<text text-anchor="start" x="854.5" y="-299" font-family="Helvetica,sans-Serif" font-size="10.00">fabomatic::BoardLogic</text>
<text text-anchor="middle" x="902.88" y="-287.75" font-family="Helvetica,sans-Serif" font-size="10.00">::getLcd</text>
</a>
</g>
</g>
<!-- Node15&#45;&gt;Node17 -->
<g id="edge16_Node000015_Node000017" class="edge">
<title>Node15&#45;&gt;Node17</title>
<g id="a_edge16_Node000015_Node000017"><a xlink:title=" ">
<path fill="none" stroke="#63b8ff" d="M804.46,-310.61C814.34,-309.25 824.72,-307.83 834.88,-306.44"/>
<polygon fill="#63b8ff" stroke="#63b8ff" points="835.27,-309.92 844.7,-305.09 834.32,-302.98 835.27,-309.92"/>
</a>
</g>
</g>
<!-- Node19 -->
<g id="Node000019" class="node">
<title>Node19</title>
<g id="a_Node000019"><a xlink:href="classfabomatic_1_1_board_logic.xhtml#a164e40105242d0b7c56c6b4f21155101" target="_top" xlink:title="Gets the current machine.">
<polygon fill="white" stroke="#666666" points="959.25,-177.5 846.5,-177.5 846.5,-147 959.25,-147 959.25,-177.5"/>
<text text-anchor="start" x="854.5" y="-164" font-family="Helvetica,sans-Serif" font-size="10.00">fabomatic::BoardLogic</text>
<text text-anchor="middle" x="902.88" y="-152.75" font-family="Helvetica,sans-Serif" font-size="10.00">::getMachine</text>
</a>
</g>
</g>
<!-- Node15&#45;&gt;Node19 -->
<g id="edge20_Node000015_Node000019" class="edge">
<title>Node15&#45;&gt;Node19</title>
<g id="a_edge20_Node000015_Node000019"><a xlink:title=" ">
<path fill="none" stroke="#63b8ff" d="M756.2,-302.81C769.88,-275.94 801.42,-220.28 842.75,-187.25 844.28,-186.03 845.87,-184.86 847.52,-183.74"/>
<polygon fill="#63b8ff" stroke="#63b8ff" points="849.3,-186.75 856.1,-178.62 845.72,-180.74 849.3,-186.75"/>
</a>
</g>
</g>
<!-- Node20 -->
<g id="Node000020" class="node">
<title>Node20</title>
<g id="a_Node000020"><a xlink:href="classfabomatic_1_1_machine.xhtml#a1637e99f2d70262d2ab26f69ed4f0e47" target="_top" xlink:title=" ">
<polygon fill="white" stroke="#666666" points="952.88,-128.5 852.88,-128.5 852.88,-98 952.88,-98 952.88,-128.5"/>
<text text-anchor="start" x="860.88" y="-115" font-family="Helvetica,sans-Serif" font-size="10.00">fabomatic::Machine</text>
<text text-anchor="middle" x="902.88" y="-103.75" font-family="Helvetica,sans-Serif" font-size="10.00">::getMachineName</text>
</a>
</g>
</g>
<!-- Node15&#45;&gt;Node20 -->
<g id="edge21_Node000015_Node000020" class="edge">
<title>Node15&#45;&gt;Node20</title>
<g id="a_edge21_Node000015_Node000020"><a xlink:title=" ">
<path fill="none" stroke="#63b8ff" d="M752.98,-302.53C762.98,-268.19 791.17,-185.8 842.75,-138.25 843.95,-137.14 845.21,-136.08 846.52,-135.06"/>
<polygon fill="#63b8ff" stroke="#63b8ff" points="848.06,-138.23 854.44,-129.77 844.18,-132.41 848.06,-138.23"/>
</a>
</g>
</g>
<!-- Node21 -->
<g id="Node000021" class="node">
<title>Node21</title>
<g id="a_Node000021"><a xlink:href="classfabomatic_1_1_machine.xhtml#ad511c567c7cb7487d19019550c9a4e32" target="_top" xlink:title=" ">
<polygon fill="white" stroke="#666666" points="955.88,-79.5 849.88,-79.5 849.88,-49 955.88,-49 955.88,-79.5"/>
<text text-anchor="start" x="857.88" y="-66" font-family="Helvetica,sans-Serif" font-size="10.00">fabomatic::Machine</text>
<text text-anchor="middle" x="902.88" y="-54.75" font-family="Helvetica,sans-Serif" font-size="10.00">::getMaintenanceInfo</text>
</a>
</g>
</g>
<!-- Node15&#45;&gt;Node21 -->
<g id="edge22_Node000015_Node000021" class="edge">
<title>Node15&#45;&gt;Node21</title>
<g id="a_edge22_Node000015_Node000021"><a xlink:title=" ">
<path fill="none" stroke="#63b8ff" d="M750.98,-302.66C757.56,-262.11 780.48,-152.18 842.75,-89.25 843.63,-88.36 844.55,-87.5 845.5,-86.67"/>
<polygon fill="#63b8ff" stroke="#63b8ff" points="847.51,-89.53 853.55,-80.83 843.4,-83.86 847.51,-89.53"/>
</a>
</g>
</g>
<!-- Node22 -->
<g id="Node000022" class="node">
<title>Node22</title>
<g id="a_Node000022"><a xlink:href="classfabomatic_1_1_machine.xhtml#a3c5304fd80e0cc1c2118a59c64222d6d" target="_top" xlink:title="Returns the current power state of the machine.">
<polygon fill="white" stroke="#666666" points="952.88,-30.5 852.88,-30.5 852.88,0 952.88,0 952.88,-30.5"/>
<text text-anchor="start" x="860.88" y="-17" font-family="Helvetica,sans-Serif" font-size="10.00">fabomatic::Machine</text>
<text text-anchor="middle" x="902.88" y="-5.75" font-family="Helvetica,sans-Serif" font-size="10.00">::getPowerState</text>
</a>
</g>
</g>
<!-- Node15&#45;&gt;Node22 -->
<g id="edge23_Node000015_Node000022" class="edge">
<title>Node15&#45;&gt;Node22</title>
<g id="a_edge23_Node000015_Node000022"><a xlink:title=" ">
<path fill="none" stroke="#63b8ff" d="M749.66,-302.8C753.17,-256.8 769.6,-119.02 842.75,-40.25 843.58,-39.35 844.46,-38.48 845.36,-37.65"/>
<polygon fill="#63b8ff" stroke="#63b8ff" points="847.2,-40.64 853.05,-31.81 842.97,-35.07 847.2,-40.64"/>
</a>
</g>
</g>
<!-- Node23 -->
<g id="Node000023" class="node">
<title>Node23</title>
<g id="a_Node000023"><a xlink:href="classfabomatic_1_1_machine.xhtml#a9c845a163660550fa779516a8be8681a" target="_top" xlink:title="Duration of the current usage, or 0s.">
<polygon fill="white" stroke="#666666" points="1107.62,-269.5 1007.62,-269.5 1007.62,-239 1107.62,-239 1107.62,-269.5"/>
<text text-anchor="start" x="1015.62" y="-256" font-family="Helvetica,sans-Serif" font-size="10.00">fabomatic::Machine</text>
<text text-anchor="middle" x="1057.62" y="-244.75" font-family="Helvetica,sans-Serif" font-size="10.00">::getUsageDuration</text>
</a>
</g>
</g>
<!-- Node15&#45;&gt;Node23 -->
<g id="edge24_Node000015_Node000023" class="edge">
<title>Node15&#45;&gt;Node23</title>
<g id="a_edge24_Node000015_Node000023"><a xlink:title=" ">
<path fill="none" stroke="#63b8ff" d="M774.9,-302.59C793.24,-292.41 818.67,-279.85 842.75,-273.25 893.14,-259.44 952.45,-255.06 995.82,-253.92"/>
<polygon fill="#63b8ff" stroke="#63b8ff" points="995.89,-257.42 1005.82,-253.71 995.75,-250.42 995.89,-257.42"/>
</a>
</g>
</g>
<!-- Node24 -->
<g id="Node000024" class="node">
<title>Node24</title>
<g id="a_Node000024"><a xlink:href="classfabomatic_1_1_machine.xhtml#a9fd614d86b6108a5a7b54fc9eee0d9a6" target="_top" xlink:title="Indicates if the machine has been configured.">
<polygon fill="white" stroke="#666666" points="952.88,-398.5 852.88,-398.5 852.88,-368 952.88,-368 952.88,-398.5"/>
<text text-anchor="start" x="860.88" y="-385" font-family="Helvetica,sans-Serif" font-size="10.00">fabomatic::Machine</text>
<text text-anchor="middle" x="902.88" y="-373.75" font-family="Helvetica,sans-Serif" font-size="10.00">::isConfigured</text>
</a>
</g>
</g>
<!-- Node15&#45;&gt;Node24 -->
<g id="edge27_Node000015_Node000024" class="edge">
<title>Node15&#45;&gt;Node24</title>
<g id="a_edge27_Node000015_Node000024"><a xlink:title=" ">
<path fill="none" stroke="#63b8ff" d="M783.92,-333.85C801.54,-341.59 823.22,-351.03 842.75,-359.25 845.87,-360.56 849.08,-361.9 852.32,-363.24"/>
<polygon fill="#63b8ff" stroke="#63b8ff" points="850.72,-366.37 861.3,-366.94 853.38,-359.9 850.72,-366.37"/>
</a>
</g>
</g>
<!-- Node25 -->
<g id="Node000025" class="node">
<title>Node25</title>
<g id="a_Node000025"><a xlink:href="namespacefabomatic_1_1card.xhtml#aef091ec171625c69f9d4eab20ebaefec" target="_top" xlink:title="Returns a string representation of the UID.">
<polygon fill="white" stroke="#666666" points="960.75,-349.88 845,-349.88 845,-330.62 960.75,-330.62 960.75,-349.88"/>
<text text-anchor="middle" x="902.88" y="-336.38" font-family="Helvetica,sans-Serif" font-size="10.00">fabomatic::card::uid_str</text>
</a>
</g>
</g>
<!-- Node15&#45;&gt;Node25 -->
<g id="edge31_Node000015_Node000025" class="edge">
<title>Node15&#45;&gt;Node25</title>
<g id="a_edge31_Node000015_Node000025"><a xlink:title=" ">
<path fill="none" stroke="#63b8ff" d="M804.46,-326.25C813.87,-327.61 823.73,-329.02 833.41,-330.41"/>
<polygon fill="#63b8ff" stroke="#63b8ff" points="832.76,-333.86 843.16,-331.81 833.76,-326.93 832.76,-333.86"/>
</a>
</g>
</g>
<!-- Node18 -->
<g id="Node000018" class="node">
<title>Node18</title>
<g id="a_Node000018"><a xlink:href="namespacefabomatic_1_1_tasks.xhtml#a5c20f560f5934822d39ba116a16f3ab6" target="_top" xlink:title="Wait for a delay, allowing OTA updates.">
<polygon fill="white" stroke="#666666" points="1116.25,-306.88 999,-306.88 999,-287.62 1116.25,-287.62 1116.25,-306.88"/>
<text text-anchor="middle" x="1057.62" y="-293.38" font-family="Helvetica,sans-Serif" font-size="10.00">fabomatic::Tasks::delay</text>
</a>
</g>
</g>
<!-- Node17&#45;&gt;Node18 -->
<g id="edge17_Node000017_Node000018" class="edge">
<title>Node17&#45;&gt;Node18</title>
<g id="a_edge17_Node000017_Node000018"><a xlink:title=" ">
<path fill="none" stroke="#63b8ff" d="M959.45,-297.25C968.49,-297.25 977.95,-297.25 987.26,-297.25"/>
<polygon fill="#63b8ff" stroke="#63b8ff" points="987.01,-300.75 997,-297.25 987,-293.75 987.01,-300.75"/>
</a>
</g>
</g>
<!-- Node18&#45;&gt;Node8 -->
<g id="edge18_Node000018_Node000008" class="edge">
<title>Node18&#45;&gt;Node8</title>
<g id="a_edge18_Node000018_Node000008"><a xlink:title=" ">
<path fill="none" stroke="#63b8ff" d="M1116.64,-297.25C1124.39,-297.25 1132.45,-297.25 1140.53,-297.25"/>
<polygon fill="#63b8ff" stroke="#63b8ff" points="1140.42,-300.75 1150.42,-297.25 1140.42,-293.75 1140.42,-300.75"/>
</a>
</g>
</g>
<!-- Node18&#45;&gt;Node18 -->
<g id="edge19_Node000018_Node000018" class="edge">
<title>Node18&#45;&gt;Node18</title>
<g id="a_edge19_Node000018_Node000018"><a xlink:title=" ">
<path fill="none" stroke="#63b8ff" d="M1033.4,-307.16C1022.35,-315.77 1030.42,-324.88 1057.62,-324.88 1072.93,-324.88 1082.18,-321.99 1085.37,-317.94"/>
<polygon fill="#63b8ff" stroke="#63b8ff" points="1088.75,-317.02 1082.32,-308.6 1082.1,-319.19 1088.75,-317.02"/>
</a>
</g>
</g>
<!-- Node23&#45;&gt;Node8 -->
<g id="edge25_Node000023_Node000008" class="edge">
<title>Node23&#45;&gt;Node8</title>
<g id="a_edge25_Node000023_Node000008"><a xlink:title=" ">
<path fill="none" stroke="#63b8ff" d="M1107.94,-267.03C1128.99,-272.49 1153.51,-278.85 1174.62,-284.32"/>
<polygon fill="#63b8ff" stroke="#63b8ff" points="1173.61,-287.67 1184.17,-286.79 1175.37,-280.9 1173.61,-287.67"/>
</a>
</g>
</g>
<!-- Node26&#45;&gt;Node14 -->
<g id="edge33_Node000026_Node000014" class="edge">
<title>Node26&#45;&gt;Node14</title>
<g id="a_edge33_Node000026_Node000014"><a xlink:title=" ">
<path fill="none" stroke="#63b8ff" d="M498.86,-331.25C507.79,-331.25 516.87,-331.25 525.69,-331.25"/>
<polygon fill="#63b8ff" stroke="#63b8ff" points="525.58,-334.75 535.58,-331.25 525.58,-327.75 525.58,-334.75"/>
</a>
</g>
</g>
<!-- Node28 -->
<g id="Node000028" class="node">
<title>Node28</title>
<g id="a_Node000028"><a xlink:href="classfabomatic_1_1_saved_config.xhtml#a3a6f62510c34ed7a4491022e4e43b9c2" target="_top" xlink:title="Returns the default configuration built from conf.hpp and secrets.hpp.">
<polygon fill="white" stroke="#666666" points="652.75,-520.5 534.75,-520.5 534.75,-490 652.75,-490 652.75,-520.5"/>
<text text-anchor="start" x="542.75" y="-507" font-family="Helvetica,sans-Serif" font-size="10.00">fabomatic::SavedConfig</text>
<text text-anchor="middle" x="593.75" y="-495.75" font-family="Helvetica,sans-Serif" font-size="10.00">::DefaultConfig</text>
</a>
</g>
</g>
<!-- Node27&#45;&gt;Node28 -->
<g id="edge35_Node000027_Node000028" class="edge">
<title>Node27&#45;&gt;Node28</title>
<g id="a_edge35_Node000027_Node000028"><a xlink:title=" ">
<path fill="none" stroke="#63b8ff" d="M475.98,-496.22C490.82,-497.37 507.28,-498.64 523.04,-499.86"/>
<polygon fill="#63b8ff" stroke="#63b8ff" points="522.61,-503.34 532.85,-500.62 523.15,-496.36 522.61,-503.34"/>
</a>
</g>
</g>
<!-- Node30 -->
<g id="Node000030" class="node">
<title>Node30</title>
<g id="a_Node000030"><a xlink:href="classfabomatic_1_1_saved_config.xhtml#aca3fe97dfa74c005d47ffef700392d99" target="_top" xlink:title="Loads the configuration from EEPROM if available and matching revision number.">
<polygon fill="white" stroke="#666666" points="652.75,-471.5 534.75,-471.5 534.75,-441 652.75,-441 652.75,-471.5"/>
<text text-anchor="start" x="542.75" y="-458" font-family="Helvetica,sans-Serif" font-size="10.00">fabomatic::SavedConfig</text>
<text text-anchor="middle" x="593.75" y="-446.75" font-family="Helvetica,sans-Serif" font-size="10.00">::LoadFromEEPROM</text>
</a>
</g>
</g>
<!-- Node27&#45;&gt;Node30 -->
<g id="edge37_Node000027_Node000030" class="edge">
<title>Node27&#45;&gt;Node30</title>
<g id="a_edge37_Node000027_Node000030"><a xlink:title=" ">
<path fill="none" stroke="#63b8ff" d="M471.9,-482.13C487.84,-478.71 505.97,-474.83 523.25,-471.13"/>
<polygon fill="#63b8ff" stroke="#63b8ff" points="523.93,-474.57 532.98,-469.05 522.47,-467.72 523.93,-474.57"/>
</a>
</g>
</g>
<!-- Node29 -->
<g id="Node000029" class="node">
<title>Node29</title>
<g id="a_Node000029"><a xlink:href="classfabomatic_1_1_saved_config.xhtml#a4ada414d31749dcd736a3fec3f759605" target="_top" xlink:title="Sets the machine ID (converting to string)">
<polygon fill="white" stroke="#666666" points="806.75,-520.5 688.75,-520.5 688.75,-490 806.75,-490 806.75,-520.5"/>
<text text-anchor="start" x="696.75" y="-507" font-family="Helvetica,sans-Serif" font-size="10.00">fabomatic::SavedConfig</text>
<text text-anchor="middle" x="747.75" y="-495.75" font-family="Helvetica,sans-Serif" font-size="10.00">::setMachineID</text>
</a>
</g>
</g>
<!-- Node28&#45;&gt;Node29 -->
<g id="edge36_Node000028_Node000029" class="edge">
<title>Node28&#45;&gt;Node29</title>
<g id="a_edge36_Node000028_Node000029"><a xlink:title=" ">
<path fill="none" stroke="#63b8ff" d="M653.08,-505.25C660.94,-505.25 669.05,-505.25 677.08,-505.25"/>
<polygon fill="#63b8ff" stroke="#63b8ff" points="676.81,-508.75 686.81,-505.25 676.81,-501.75 676.81,-508.75"/>
</a>
</g>
</g>
</g>
</svg>

<g id="navigator" transform="translate(0 0)" fill="#404254">
  <rect fill="#f2f5e9" fill-opacity="0.5" stroke="#606060" stroke-width=".5" x="0" y="0" width="60" height="60"/>
  <use id="zoomplus" xlink:href="#zoomPlus" x="17" y="9" onmousedown="handleZoom(evt,'in')"/>
  <use id="zoomminus" xlink:href="#zoomMin" x="42" y="9" onmousedown="handleZoom(evt,'out')"/>
  <use id="reset" xlink:href="#resetDef" x="30" y="36" onmousedown="handleReset()"/>
   <use id="arrowup" xlink:href="#arrowUp" x="0" y="0" onmousedown="handlePan(0,-1)"/>
  <use id="arrowright" xlink:href="#arrowRight" x="0" y="0" onmousedown="handlePan(1,0)"/>
  <use id="arrowdown" xlink:href="#arrowDown" x="0" y="0" onmousedown="handlePan(0,1)"/>
  <use id="arrowleft" xlink:href="#arrowLeft" x="0" y="0" onmousedown="handlePan(-1,0)"/>
</g>
<svg viewBox="0 0 15 15" width="100%" height="30px" preserveAspectRatio="xMaxYMin meet">
 <g id="arrow_out" transform="scale(0.3 0.3)">
  <a xlink:href="namespacefabomatic_a2c7ad2690e92eb8ab98b6fadaa4df2bd_cgraph_org.svg" target="_base">
   <rect id="button" ry="5" rx="5" y="6" x="6" height="38" width="38"
        fill="#f2f5e9" fill-opacity="0.5" stroke="#606060" stroke-width="1.0"/>
   <path id="arrow"
     d="M 11.500037,31.436501 C 11.940474,20.09759 22.043105,11.32322 32.158766,21.979434 L 37.068811,17.246167 C 37.068811,17.246167 37.088388,32 37.088388,32 L 22.160133,31.978069 C 22.160133,31.978069 26.997745,27.140456 26.997745,27.140456 C 18.528582,18.264221 13.291696,25.230495 11.500037,31.436501 z"
     style="fill:#404040;"/>
  </a>
 </g>
</svg>

<style type='text/css'>
<![CDATA[
[data-mouse-over-selected='false'] { opacity: 0.7; }
[data-mouse-over-selected='true']  { opacity: 1.0; }
]]>
</style>
<script type="application/ecmascript"><![CDATA[
document.addEventListener('DOMContentLoaded', (event) => {
  highlightEdges();
  highlightAdjacentNodes();
});
]]></script>
</svg>
