<?xml version="1.0" encoding="UTF-8" standalone="no"?>
<!DOCTYPE svg PUBLIC "-//W3C//DTD SVG 1.1//EN"
 "http://www.w3.org/Graphics/SVG/1.1/DTD/svg11.dtd">
<!-- Generated by graphviz version 9.0.0 (20230911.1827)
 -->
<!-- Title: fabomatic::taskRfidWatchdog Pages: 1 -->
<svg width="937pt" height="610pt"
 viewBox="0.00 0.00 937.25 609.96" xmlns="http://www.w3.org/2000/svg" xmlns:xlink="http://www.w3.org/1999/xlink">
<g id="graph0" class="graph" transform="scale(1 1) rotate(0) translate(4 605.96)">
<title>fabomatic::taskRfidWatchdog</title>
<!-- Node1 -->
<g id="Node000001" class="node">
<title>Node1</title>
<g id="a_Node000001"><a xlink:title="checks the RFID chip status and re&#45;init it if necessary.">
<polygon fill="#999999" stroke="#666666" points="142,-488.25 0,-488.25 0,-469 142,-469 142,-488.25"/>
<text text-anchor="middle" x="71" y="-474.75" font-family="Helvetica,sans-Serif" font-size="10.00">fabomatic::taskRfidWatchdog</text>
</a>
</g>
</g>
<!-- Node2 -->
<g id="Node000002" class="node">
<title>Node2</title>
<g id="a_Node000002"><a xlink:href="classfabomatic_1_1_board_logic.xhtml#a3c38d7a3ed7952c6d6297efdf50ea4dd" target="_top" xlink:title="Sets the board in the state given.">
<polygon fill="white" stroke="#666666" points="290.75,-472.88 178,-472.88 178,-442.38 290.75,-442.38 290.75,-472.88"/>
<text text-anchor="start" x="186" y="-459.38" font-family="Helvetica,sans-Serif" font-size="10.00">fabomatic::BoardLogic</text>
<text text-anchor="middle" x="234.38" y="-448.12" font-family="Helvetica,sans-Serif" font-size="10.00">::changeStatus</text>
</a>
</g>
</g>
<!-- Node1&#45;&gt;Node2 -->
<g id="edge1_Node000001_Node000002" class="edge">
<title>Node1&#45;&gt;Node2</title>
<g id="a_edge1_Node000001_Node000002"><a xlink:title=" ">
<path fill="none" stroke="#63b8ff" d="M142.31,-469.48C150.39,-468.42 158.62,-467.35 166.65,-466.31"/>
<polygon fill="#63b8ff" stroke="#63b8ff" points="166.88,-469.81 176.35,-465.05 165.98,-462.87 166.88,-469.81"/>
</a>
</g>
</g>
<!-- Node6 -->
<g id="Node000006" class="node">
<title>Node6</title>
<g id="a_Node000006"><a xlink:href="namespacefabomatic_1_1_tasks.xhtml#a5c20f560f5934822d39ba116a16f3ab6" target="_top" xlink:title="Wait for a delay, allowing OTA updates.">
<polygon fill="white" stroke="#666666" points="746.75,-534.25 629.5,-534.25 629.5,-515 746.75,-515 746.75,-534.25"/>
<text text-anchor="middle" x="688.12" y="-520.75" font-family="Helvetica,sans-Serif" font-size="10.00">fabomatic::Tasks::delay</text>
</a>
</g>
</g>
<!-- Node1&#45;&gt;Node6 -->
<g id="edge21_Node000001_Node000006" class="edge">
<title>Node1&#45;&gt;Node6</title>
<g id="a_edge21_Node000001_Node000006"><a xlink:title=" ">
<path fill="none" stroke="#63b8ff" d="M97.9,-488.65C161.17,-512.54 329.13,-572.34 475.5,-592.62 527.45,-599.82 543.62,-608.83 593.5,-592.62 623.76,-582.79 652.42,-559.1 669.87,-542.46"/>
<polygon fill="#63b8ff" stroke="#63b8ff" points="672.19,-545.09 676.85,-535.57 667.27,-540.1 672.19,-545.09"/>
</a>
</g>
</g>
<!-- Node3 -->
<g id="Node000003" class="node">
<title>Node3</title>
<g id="a_Node000003"><a xlink:href="classfabomatic_1_1_board_logic.xhtml#a47b4d515c0d3488eceb49769036bce8b" target="_top" xlink:title="Updates the LCD screen as per the current status.">
<polygon fill="white" stroke="#666666" points="439.5,-337.88 326.75,-337.88 326.75,-307.38 439.5,-307.38 439.5,-337.88"/>
<text text-anchor="start" x="334.75" y="-324.38" font-family="Helvetica,sans-Serif" font-size="10.00">fabomatic::BoardLogic</text>
<text text-anchor="middle" x="383.12" y="-313.12" font-family="Helvetica,sans-Serif" font-size="10.00">::updateLCD</text>
</a>
</g>
</g>
<!-- Node2&#45;&gt;Node3 -->
<g id="edge2_Node000002_Node000003" class="edge">
<title>Node2&#45;&gt;Node3</title>
<g id="a_edge2_Node000002_Node000003"><a xlink:title=" ">
<path fill="none" stroke="#63b8ff" d="M252.21,-442.14C277.84,-418.56 326.81,-373.51 356.76,-345.96"/>
<polygon fill="#63b8ff" stroke="#63b8ff" points="358.93,-348.72 363.92,-339.37 354.19,-343.57 358.93,-348.72"/>
</a>
</g>
</g>
<!-- Node4 -->
<g id="Node000004" class="node">
<title>Node4</title>
<g id="a_Node000004"><a xlink:href="classfabomatic_1_1_machine.xhtml#a39c30eaa242d5cc2ce784dbafeef87e8" target="_top" xlink:title=" ">
<polygon fill="white" stroke="#666666" points="584.5,-583.88 484.5,-583.88 484.5,-553.38 584.5,-553.38 584.5,-583.88"/>
<text text-anchor="start" x="492.5" y="-570.38" font-family="Helvetica,sans-Serif" font-size="10.00">fabomatic::Machine</text>
<text text-anchor="middle" x="534.5" y="-559.12" font-family="Helvetica,sans-Serif" font-size="10.00">::getActiveUser</text>
</a>
</g>
</g>
<!-- Node3&#45;&gt;Node4 -->
<g id="edge3_Node000003_Node000004" class="edge">
<title>Node3&#45;&gt;Node4</title>
<g id="a_edge3_Node000003_Node000004"><a xlink:title=" ">
<path fill="none" stroke="#63b8ff" d="M386.45,-338.22C393.11,-377.75 415.77,-482.99 475.5,-543.62 476.5,-544.64 477.54,-545.61 478.62,-546.54"/>
<polygon fill="#63b8ff" stroke="#63b8ff" points="476.21,-549.12 486.36,-552.12 480.3,-543.44 476.21,-549.12"/>
</a>
</g>
</g>
<!-- Node5 -->
<g id="Node000005" class="node">
<title>Node5</title>
<g id="a_Node000005"><a xlink:href="classfabomatic_1_1_board_logic.xhtml#a462b4b6149ca7bf33b699eb3181c969f" target="_top" xlink:title=" ">
<polygon fill="white" stroke="#666666" points="590.88,-534.88 478.12,-534.88 478.12,-504.38 590.88,-504.38 590.88,-534.88"/>
<text text-anchor="start" x="486.12" y="-521.38" font-family="Helvetica,sans-Serif" font-size="10.00">fabomatic::BoardLogic</text>
<text text-anchor="middle" x="534.5" y="-510.12" font-family="Helvetica,sans-Serif" font-size="10.00">::getLcd</text>
</a>
</g>
</g>
<!-- Node3&#45;&gt;Node5 -->
<g id="edge4_Node000003_Node000005" class="edge">
<title>Node3&#45;&gt;Node5</title>
<g id="a_edge4_Node000003_Node000005"><a xlink:title=" ">
<path fill="none" stroke="#63b8ff" d="M388.95,-338.04C399.71,-370.19 428.46,-445.18 475.5,-490.62 478.17,-493.21 481.12,-495.6 484.23,-497.82"/>
<polygon fill="#63b8ff" stroke="#63b8ff" points="482.31,-500.75 492.63,-503.14 486.05,-494.83 482.31,-500.75"/>
</a>
</g>
</g>
<!-- Node8 -->
<g id="Node000008" class="node">
<title>Node8</title>
<g id="a_Node000008"><a xlink:href="classfabomatic_1_1_board_logic.xhtml#a164e40105242d0b7c56c6b4f21155101" target="_top" xlink:title="Gets the current machine.">
<polygon fill="white" stroke="#666666" points="590.88,-410.88 478.12,-410.88 478.12,-380.38 590.88,-380.38 590.88,-410.88"/>
<text text-anchor="start" x="486.12" y="-397.38" font-family="Helvetica,sans-Serif" font-size="10.00">fabomatic::BoardLogic</text>
<text text-anchor="middle" x="534.5" y="-386.12" font-family="Helvetica,sans-Serif" font-size="10.00">::getMachine</text>
</a>
</g>
</g>
<!-- Node3&#45;&gt;Node8 -->
<g id="edge8_Node000003_Node000008" class="edge">
<title>Node3&#45;&gt;Node8</title>
<g id="a_edge8_Node000003_Node000008"><a xlink:title=" ">
<path fill="none" stroke="#63b8ff" d="M412.65,-338.33C430.53,-347.99 454.15,-360.44 475.5,-370.62 478.77,-372.18 482.15,-373.76 485.58,-375.31"/>
<polygon fill="#63b8ff" stroke="#63b8ff" points="483.93,-378.41 494.49,-379.29 486.78,-372.02 483.93,-378.41"/>
</a>
</g>
</g>
<!-- Node9 -->
<g id="Node000009" class="node">
<title>Node9</title>
<g id="a_Node000009"><a xlink:href="classfabomatic_1_1_machine.xhtml#a1637e99f2d70262d2ab26f69ed4f0e47" target="_top" xlink:title=" ">
<polygon fill="white" stroke="#666666" points="584.5,-361.88 484.5,-361.88 484.5,-331.38 584.5,-331.38 584.5,-361.88"/>
<text text-anchor="start" x="492.5" y="-348.38" font-family="Helvetica,sans-Serif" font-size="10.00">fabomatic::Machine</text>
<text text-anchor="middle" x="534.5" y="-337.12" font-family="Helvetica,sans-Serif" font-size="10.00">::getMachineName</text>
</a>
</g>
</g>
<!-- Node3&#45;&gt;Node9 -->
<g id="edge9_Node000003_Node000009" class="edge">
<title>Node3&#45;&gt;Node9</title>
<g id="a_edge9_Node000003_Node000009"><a xlink:title=" ">
<path fill="none" stroke="#63b8ff" d="M439.75,-331.56C450.58,-333.3 461.99,-335.14 472.98,-336.9"/>
<polygon fill="#63b8ff" stroke="#63b8ff" points="472.3,-340.34 482.73,-338.47 473.41,-333.43 472.3,-340.34"/>
</a>
</g>
</g>
<!-- Node10 -->
<g id="Node000010" class="node">
<title>Node10</title>
<g id="a_Node000010"><a xlink:href="classfabomatic_1_1_machine.xhtml#ad511c567c7cb7487d19019550c9a4e32" target="_top" xlink:title=" ">
<polygon fill="white" stroke="#666666" points="587.5,-312.88 481.5,-312.88 481.5,-282.38 587.5,-282.38 587.5,-312.88"/>
<text text-anchor="start" x="489.5" y="-299.38" font-family="Helvetica,sans-Serif" font-size="10.00">fabomatic::Machine</text>
<text text-anchor="middle" x="534.5" y="-288.12" font-family="Helvetica,sans-Serif" font-size="10.00">::getMaintenanceInfo</text>
</a>
</g>
</g>
<!-- Node3&#45;&gt;Node10 -->
<g id="edge10_Node000003_Node000010" class="edge">
<title>Node3&#45;&gt;Node10</title>
<g id="a_edge10_Node000003_Node000010"><a xlink:title=" ">
<path fill="none" stroke="#63b8ff" d="M439.75,-313.32C449.63,-311.66 459.99,-309.93 470.07,-308.24"/>
<polygon fill="#63b8ff" stroke="#63b8ff" points="470.52,-311.71 479.8,-306.61 469.36,-304.81 470.52,-311.71"/>
</a>
</g>
</g>
<!-- Node11 -->
<g id="Node000011" class="node">
<title>Node11</title>
<g id="a_Node000011"><a xlink:href="classfabomatic_1_1_machine.xhtml#a3c5304fd80e0cc1c2118a59c64222d6d" target="_top" xlink:title="Returns the current power state of the machine.">
<polygon fill="white" stroke="#666666" points="584.5,-263.88 484.5,-263.88 484.5,-233.38 584.5,-233.38 584.5,-263.88"/>
<text text-anchor="start" x="492.5" y="-250.38" font-family="Helvetica,sans-Serif" font-size="10.00">fabomatic::Machine</text>
<text text-anchor="middle" x="534.5" y="-239.12" font-family="Helvetica,sans-Serif" font-size="10.00">::getPowerState</text>
</a>
</g>
</g>
<!-- Node3&#45;&gt;Node11 -->
<g id="edge11_Node000003_Node000011" class="edge">
<title>Node3&#45;&gt;Node11</title>
<g id="a_edge11_Node000003_Node000011"><a xlink:title=" ">
<path fill="none" stroke="#63b8ff" d="M411.8,-306.99C429.76,-297.04 453.78,-284.11 475.5,-273.62 478.76,-272.05 482.14,-270.47 485.56,-268.91"/>
<polygon fill="#63b8ff" stroke="#63b8ff" points="486.77,-272.2 494.47,-264.92 483.91,-265.81 486.77,-272.2"/>
</a>
</g>
</g>
<!-- Node12 -->
<g id="Node000012" class="node">
<title>Node12</title>
<g id="a_Node000012"><a xlink:href="classfabomatic_1_1_machine.xhtml#a9c845a163660550fa779516a8be8681a" target="_top" xlink:title="Duration of the current usage, or 0s.">
<polygon fill="white" stroke="#666666" points="738.12,-496.88 638.12,-496.88 638.12,-466.38 738.12,-466.38 738.12,-496.88"/>
<text text-anchor="start" x="646.12" y="-483.38" font-family="Helvetica,sans-Serif" font-size="10.00">fabomatic::Machine</text>
<text text-anchor="middle" x="688.12" y="-472.12" font-family="Helvetica,sans-Serif" font-size="10.00">::getUsageDuration</text>
</a>
</g>
</g>
<!-- Node3&#45;&gt;Node12 -->
<g id="edge12_Node000003_Node000012" class="edge">
<title>Node3&#45;&gt;Node12</title>
<g id="a_edge12_Node000003_Node000012"><a xlink:title=" ">
<path fill="none" stroke="#63b8ff" d="M391.07,-338.37C403.7,-365 433.1,-418.6 475.5,-444.62 520.97,-472.54 581.7,-480.81 626.44,-482.67"/>
<polygon fill="#63b8ff" stroke="#63b8ff" points="626.12,-486.16 636.23,-482.98 626.34,-479.17 626.12,-486.16"/>
</a>
</g>
</g>
<!-- Node13 -->
<g id="Node000013" class="node">
<title>Node13</title>
<g id="a_Node000013"><a xlink:href="classfabomatic_1_1_machine.xhtml#a4b40dcb31af466acc85f66c845516c82" target="_top" xlink:title=" ">
<polygon fill="white" stroke="#666666" points="584.5,-214.88 484.5,-214.88 484.5,-184.38 584.5,-184.38 584.5,-214.88"/>
<text text-anchor="start" x="492.5" y="-201.38" font-family="Helvetica,sans-Serif" font-size="10.00">fabomatic::Machine</text>
<text text-anchor="middle" x="534.5" y="-190.12" font-family="Helvetica,sans-Serif" font-size="10.00">::isAllowed</text>
</a>
</g>
</g>
<!-- Node3&#45;&gt;Node13 -->
<g id="edge14_Node000003_Node000013" class="edge">
<title>Node3&#45;&gt;Node13</title>
<g id="a_edge14_Node000003_Node000013"><a xlink:title=" ">
<path fill="none" stroke="#63b8ff" d="M395.24,-307.16C411.04,-286.11 441.84,-248.34 475.5,-224.62 477.5,-223.21 479.6,-221.86 481.75,-220.56"/>
<polygon fill="#63b8ff" stroke="#63b8ff" points="483.07,-223.83 490.17,-215.96 479.72,-217.69 483.07,-223.83"/>
</a>
</g>
</g>
<!-- Node14 -->
<g id="Node000014" class="node">
<title>Node14</title>
<g id="a_Node000014"><a xlink:href="classfabomatic_1_1_machine.xhtml#a9fd614d86b6108a5a7b54fc9eee0d9a6" target="_top" xlink:title="Indicates if the machine has been configured.">
<polygon fill="white" stroke="#666666" points="584.5,-165.88 484.5,-165.88 484.5,-135.38 584.5,-135.38 584.5,-165.88"/>
<text text-anchor="start" x="492.5" y="-152.38" font-family="Helvetica,sans-Serif" font-size="10.00">fabomatic::Machine</text>
<text text-anchor="middle" x="534.5" y="-141.12" font-family="Helvetica,sans-Serif" font-size="10.00">::isConfigured</text>
</a>
</g>
</g>
<!-- Node3&#45;&gt;Node14 -->
<g id="edge15_Node000003_Node000014" class="edge">
<title>Node3&#45;&gt;Node14</title>
<g id="a_edge15_Node000003_Node000014"><a xlink:title=" ">
<path fill="none" stroke="#63b8ff" d="M390.02,-307.17C401.93,-277.8 431.55,-213.46 475.5,-175.62 476.77,-174.53 478.1,-173.48 479.47,-172.46"/>
<polygon fill="#63b8ff" stroke="#63b8ff" points="481.22,-175.5 487.77,-167.17 477.46,-169.59 481.22,-175.5"/>
</a>
</g>
</g>
<!-- Node15 -->
<g id="Node000015" class="node">
<title>Node15</title>
<g id="a_Node000015"><a xlink:href="classfabomatic_1_1_machine.xhtml#a34b0deb04494137cf321e94d50dedf90" target="_top" xlink:title=" ">
<polygon fill="white" stroke="#666666" points="593.12,-116.88 475.88,-116.88 475.88,-86.38 593.12,-86.38 593.12,-116.88"/>
<text text-anchor="start" x="483.88" y="-103.38" font-family="Helvetica,sans-Serif" font-size="10.00">fabomatic::Machine</text>
<text text-anchor="middle" x="534.5" y="-92.12" font-family="Helvetica,sans-Serif" font-size="10.00">::isMaintenanceNeeded</text>
</a>
</g>
</g>
<!-- Node3&#45;&gt;Node15 -->
<g id="edge16_Node000003_Node000015" class="edge">
<title>Node3&#45;&gt;Node15</title>
<g id="a_edge16_Node000003_Node000015"><a xlink:title=" ">
<path fill="none" stroke="#63b8ff" d="M387.41,-306.92C395.78,-270.5 421.23,-179.33 475.5,-126.62 476.54,-125.62 477.63,-124.64 478.75,-123.71"/>
<polygon fill="#63b8ff" stroke="#63b8ff" points="480.6,-126.69 486.8,-118.09 476.59,-120.95 480.6,-126.69"/>
</a>
</g>
</g>
<!-- Node16 -->
<g id="Node000016" class="node">
<title>Node16</title>
<g id="a_Node000016"><a xlink:href="classfabomatic_1_1_fab_backend.xhtml#aef092e0e1db0c3539d5474fad2456255" target="_top" xlink:title="Checks if the client is online.">
<polygon fill="white" stroke="#666666" points="593.5,-67.88 475.5,-67.88 475.5,-37.38 593.5,-37.38 593.5,-67.88"/>
<text text-anchor="start" x="483.5" y="-54.38" font-family="Helvetica,sans-Serif" font-size="10.00">fabomatic::FabBackend</text>
<text text-anchor="middle" x="534.5" y="-43.12" font-family="Helvetica,sans-Serif" font-size="10.00">::isOnline</text>
</a>
</g>
</g>
<!-- Node3&#45;&gt;Node16 -->
<g id="edge17_Node000003_Node000016" class="edge">
<title>Node3&#45;&gt;Node16</title>
<g id="a_edge17_Node000003_Node000016"><a xlink:title=" ">
<path fill="none" stroke="#63b8ff" d="M385.73,-306.93C390.87,-264.45 410.58,-145.88 475.5,-77.62 476.35,-76.73 477.24,-75.87 478.16,-75.03"/>
<polygon fill="#63b8ff" stroke="#63b8ff" points="480.05,-77.99 485.96,-69.2 475.86,-72.38 480.05,-77.99"/>
</a>
</g>
</g>
<!-- Node17 -->
<g id="Node000017" class="node">
<title>Node17</title>
<g id="a_Node000017"><a xlink:href="classfabomatic_1_1_machine.xhtml#a871958cc57845c8651cf1058ed9b30e4" target="_top" xlink:title="Indicates if the machine will power down in less than BEEP_REMAINING_MINUTES.">
<polygon fill="white" stroke="#666666" points="744.12,-447.88 632.12,-447.88 632.12,-417.38 744.12,-417.38 744.12,-447.88"/>
<text text-anchor="start" x="640.12" y="-434.38" font-family="Helvetica,sans-Serif" font-size="10.00">fabomatic::Machine</text>
<text text-anchor="middle" x="688.12" y="-423.12" font-family="Helvetica,sans-Serif" font-size="10.00">::isShutdownImminent</text>
</a>
</g>
</g>
<!-- Node3&#45;&gt;Node17 -->
<g id="edge18_Node000003_Node000017" class="edge">
<title>Node3&#45;&gt;Node17</title>
<g id="a_edge18_Node000003_Node000017"><a xlink:title=" ">
<path fill="none" stroke="#63b8ff" d="M393.29,-338.15C407.61,-360.72 437.58,-401.85 475.5,-419.62 520.63,-440.78 577.22,-443.19 620.53,-440.77"/>
<polygon fill="#63b8ff" stroke="#63b8ff" points="620.54,-444.28 630.29,-440.12 620.08,-437.29 620.54,-444.28"/>
</a>
</g>
</g>
<!-- Node18 -->
<g id="Node000018" class="node">
<title>Node18</title>
<g id="a_Node000018"><a xlink:href="namespacefabomatic_1_1card.xhtml#aef091ec171625c69f9d4eab20ebaefec" target="_top" xlink:title="Returns a string representation of the UID.">
<polygon fill="white" stroke="#666666" points="592.38,-19.25 476.62,-19.25 476.62,0 592.38,0 592.38,-19.25"/>
<text text-anchor="middle" x="534.5" y="-5.75" font-family="Helvetica,sans-Serif" font-size="10.00">fabomatic::card::uid_str</text>
</a>
</g>
</g>
<!-- Node3&#45;&gt;Node18 -->
<g id="edge20_Node000003_Node000018" class="edge">
<title>Node3&#45;&gt;Node18</title>
<g id="a_edge20_Node000003_Node000018"><a xlink:title=" ">
<path fill="none" stroke="#63b8ff" d="M384.24,-307.05C385.45,-258.7 395.8,-109.55 475.5,-28.62 476.5,-27.61 477.56,-26.64 478.67,-25.73"/>
<polygon fill="#63b8ff" stroke="#63b8ff" points="480.19,-28.92 486.65,-20.52 476.36,-23.05 480.19,-28.92"/>
</a>
</g>
</g>
<!-- Node5&#45;&gt;Node6 -->
<g id="edge5_Node000005_Node000006" class="edge">
<title>Node5&#45;&gt;Node6</title>
<g id="a_edge5_Node000005_Node000006"><a xlink:title=" ">
<path fill="none" stroke="#63b8ff" d="M591.1,-521.46C599.83,-521.75 608.96,-522.05 617.95,-522.34"/>
<polygon fill="#63b8ff" stroke="#63b8ff" points="617.62,-525.83 627.73,-522.67 617.85,-518.84 617.62,-525.83"/>
</a>
</g>
</g>
<!-- Node6&#45;&gt;Node6 -->
<g id="edge7_Node000006_Node000006" class="edge">
<title>Node6&#45;&gt;Node6</title>
<g id="a_edge7_Node000006_Node000006"><a xlink:title=" ">
<path fill="none" stroke="#63b8ff" d="M664.07,-534.54C653.1,-543.15 661.12,-552.25 688.12,-552.25 703.31,-552.25 712.5,-549.37 715.67,-545.32"/>
<polygon fill="#63b8ff" stroke="#63b8ff" points="719.06,-544.41 712.64,-535.98 712.4,-546.57 719.06,-544.41"/>
</a>
</g>
</g>
<!-- Node7 -->
<g id="Node000007" class="node">
<title>Node7</title>
<g id="a_Node000007"><a xlink:href="namespacefabomatic_1_1_tasks.xhtml#adc67d1313c6695d813feb935eafdaf60" target="_top" xlink:title=" ">
<polygon fill="white" stroke="#666666" points="929.25,-491.25 782.75,-491.25 782.75,-472 929.25,-472 929.25,-491.25"/>
<text text-anchor="middle" x="856" y="-477.75" font-family="Helvetica,sans-Serif" font-size="10.00">fabomatic::Tasks::arduinoNow</text>
</a>
</g>
</g>
<!-- Node6&#45;&gt;Node7 -->
<g id="edge6_Node000006_Node000007" class="edge">
<title>Node6&#45;&gt;Node7</title>
<g id="a_edge6_Node000006_Node000007"><a xlink:title=" ">
<path fill="none" stroke="#63b8ff" d="M728.02,-514.54C751.02,-508.58 780.39,-500.97 805.09,-494.56"/>
<polygon fill="#63b8ff" stroke="#63b8ff" points="805.8,-498 814.6,-492.1 804.04,-491.22 805.8,-498"/>
</a>
</g>
</g>
<!-- Node12&#45;&gt;Node7 -->
<g id="edge13_Node000012_Node000007" class="edge">
<title>Node12&#45;&gt;Node7</title>
<g id="a_edge13_Node000012_Node000007"><a xlink:title=" ">
<path fill="none" stroke="#63b8ff" d="M738.44,-481.62C748.83,-481.62 760.06,-481.62 771.31,-481.62"/>
<polygon fill="#63b8ff" stroke="#63b8ff" points="771.02,-485.13 781.02,-481.63 771.02,-478.13 771.02,-485.13"/>
</a>
</g>
</g>
<!-- Node17&#45;&gt;Node7 -->
<g id="edge19_Node000017_Node000007" class="edge">
<title>Node17&#45;&gt;Node7</title>
<g id="a_edge19_Node000017_Node000007"><a xlink:title=" ">
<path fill="none" stroke="#63b8ff" d="M742.06,-448.26C763.93,-454.72 789,-462.13 809.96,-468.32"/>
<polygon fill="#63b8ff" stroke="#63b8ff" points="808.79,-471.62 819.37,-471.1 810.77,-464.91 808.79,-471.62"/>
</a>
</g>
</g>
</g>
</svg>
