<?xml version="1.0" encoding="UTF-8" standalone="no"?>
<!DOCTYPE svg PUBLIC "-//W3C//DTD SVG 1.1//EN"
 "http://www.w3.org/Graphics/SVG/1.1/DTD/svg11.dtd">
<!-- Generated by graphviz version 9.0.0 (20230911.1827)
 -->
<!-- Title: fabomatic::taskPoweroffWarning Pages: 1 -->
<!--zoomable 637 -->

<svg id="main" version="1.1" xmlns="http://www.w3.org/2000/svg" xmlns:xlink="http://www.w3.org/1999/xlink" xml:space="preserve" onload="init(evt)">
<style type="text/css"><![CDATA[
.node, .edge {opacity: 0.7;}
.node.selected, .edge.selected {opacity: 1;}
.edge:hover path { stroke: red; }
.edge:hover polygon { stroke: red; fill: red; }
]]></style>

<defs>
  <circle id="rim" cx="0" cy="0" r="7"/>
  <circle id="rim2" cx="0" cy="0" r="3.5"/>
  <g id="zoomPlus">
    <use xlink:href="#rim" fill="#404040"><set attributeName="fill" to="#808080" begin="zoomplus.mouseover" end="zoomplus.mouseout"/></use>
    <path d="M-4,0h8M0,-4v8" fill="none" stroke="white" stroke-width="1.5" pointer-events="none"/>
  </g>
  <g id="zoomMin">
    <use xlink:href="#rim" fill="#404040"><set attributeName="fill" to="#808080" begin="zoomminus.mouseover" end="zoomminus.mouseout"/></use>
    <path d="M-4,0h8" fill="none" stroke="white" stroke-width="1.5" pointer-events="none"/>
  </g>
  <g id="arrowUp" transform="translate(30 24)">
    <use xlink:href="#rim"/>
    <path pointer-events="none" fill="none" stroke="white" stroke-width="1.5" d="M0,-3.0v7 M-2.5,-0.5L0,-3.0L2.5,-0.5"/>
  </g>
  <g id="arrowRight" transform="rotate(90) translate(36 -43)">
    <use xlink:href="#rim"/>
    <path pointer-events="none" fill="none" stroke="white" stroke-width="1.5" d="M0,-3.0v7 M-2.5,-0.5L0,-3.0L2.5,-0.5"/>
  </g>
  <g id="arrowDown" transform="rotate(180) translate(-30 -48)">
    <use xlink:href="#rim"/>
    <path pointer-events="none" fill="none" stroke="white" stroke-width="1.5" d="M0,-3.0v7 M-2.5,-0.5L0,-3.0L2.5,-0.5"/>
  </g>
  <g id="arrowLeft" transform="rotate(270) translate(-36 17)">
    <use xlink:href="#rim"/>
    <path pointer-events="none" fill="none" stroke="white" stroke-width="1.5" d="M0,-3.0v7 M-2.5,-0.5L0,-3.0L2.5,-0.5"/>
  </g>
  <g id="resetDef">
    <use xlink:href="#rim2" fill="#404040"><set attributeName="fill" to="#808080" begin="reset.mouseover" end="reset.mouseout"/></use>
  </g>
</defs>
<script type="application/ecmascript">
var viewWidth = 777;
var viewHeight = 637;
var sectionId = 'dynsection-28';
</script>
<script type="application/ecmascript" xlink:href="svg.min.js"/>
<svg id="graph" class="graph">
<g id="viewport">
<title>fabomatic::taskPoweroffWarning</title>
<!-- Node1 -->
<g id="Node000001" class="node">
<title>Node1</title>
<g id="a_Node000001"><a xlink:title="periodic check if the machine must be powered off">
<polygon fill="#999999" stroke="#666666" points="155.5,-364.25 0,-364.25 0,-345 155.5,-345 155.5,-364.25"/>
<text text-anchor="middle" x="77.75" y="-350.75" font-family="Helvetica,sans-Serif" font-size="10.00">fabomatic::taskPoweroffWarning</text>
</a>
</g>
</g>
<!-- Node2 -->
<g id="Node000002" class="node">
<title>Node2</title>
<g id="a_Node000002"><a xlink:href="classfabomatic_1_1_board_logic.xhtml#ac198a07d00fda36a527cd9db2d97efc1" target="_top" xlink:title=" ">
<polygon fill="white" stroke="#666666" points="308.75,-484.88 196,-484.88 196,-454.38 308.75,-454.38 308.75,-484.88"/>
<text text-anchor="start" x="204" y="-471.38" font-family="Helvetica,sans-Serif" font-size="10.00">fabomatic::BoardLogic</text>
<text text-anchor="middle" x="252.38" y="-460.12" font-family="Helvetica,sans-Serif" font-size="10.00">::beepFail</text>
</a>
</g>
</g>
<!-- Node1&#45;&gt;Node2 -->
<g id="edge1_Node000001_Node000002" class="edge">
<title>Node1&#45;&gt;Node2</title>
<g id="a_edge1_Node000001_Node000002"><a xlink:title=" ">
<path fill="none" stroke="#63b8ff" d="M93.77,-364.63C121.4,-383.04 180.91,-422.68 218.38,-447.64"/>
<polygon fill="#63b8ff" stroke="#63b8ff" points="216.33,-450.49 226.6,-453.12 220.21,-444.66 216.33,-450.49"/>
</a>
</g>
</g>
<!-- Node5 -->
<g id="Node000005" class="node">
<title>Node5</title>
<g id="a_Node000005"><a xlink:href="classfabomatic_1_1_board_logic.xhtml#a3c38d7a3ed7952c6d6297efdf50ea4dd" target="_top" xlink:title="Sets the board in the state given.">
<polygon fill="white" stroke="#666666" points="308.75,-369.88 196,-369.88 196,-339.38 308.75,-339.38 308.75,-369.88"/>
<text text-anchor="start" x="204" y="-356.38" font-family="Helvetica,sans-Serif" font-size="10.00">fabomatic::BoardLogic</text>
<text text-anchor="middle" x="252.38" y="-345.12" font-family="Helvetica,sans-Serif" font-size="10.00">::changeStatus</text>
</a>
</g>
</g>
<!-- Node1&#45;&gt;Node5 -->
<g id="edge5_Node000001_Node000005" class="edge">
<title>Node1&#45;&gt;Node5</title>
<g id="a_edge5_Node000001_Node000005"><a xlink:title=" ">
<path fill="none" stroke="#63b8ff" d="M155.97,-354.62C165.38,-354.62 174.93,-354.62 184.17,-354.62"/>
<polygon fill="#63b8ff" stroke="#63b8ff" points="184.17,-358.13 194.17,-354.63 184.17,-351.13 184.17,-358.13"/>
</a>
</g>
</g>
<!-- Node20 -->
<g id="Node000020" class="node">
<title>Node20</title>
<g id="a_Node000020"><a xlink:href="namespacefabomatic_1_1esp32.xhtml#a6afa9ef478bc8a9ca73049f33b8fb8af" target="_top" xlink:title=" ">
<polygon fill="white" stroke="#666666" points="313.25,-321.25 191.5,-321.25 191.5,-302 313.25,-302 313.25,-321.25"/>
<text text-anchor="middle" x="252.38" y="-307.75" font-family="Helvetica,sans-Serif" font-size="10.00">fabomatic::esp32::restart</text>
</a>
</g>
</g>
<!-- Node1&#45;&gt;Node20 -->
<g id="edge21_Node000001_Node000020" class="edge">
<title>Node1&#45;&gt;Node20</title>
<g id="a_edge21_Node000001_Node000020"><a xlink:title=" ">
<path fill="none" stroke="#63b8ff" d="M119.22,-344.54C143.27,-338.55 174,-330.9 199.78,-324.48"/>
<polygon fill="#63b8ff" stroke="#63b8ff" points="200.53,-327.9 209.39,-322.08 198.84,-321.1 200.53,-327.9"/>
</a>
</g>
</g>
<!-- Node3 -->
<g id="Node000003" class="node">
<title>Node3</title>
<g id="a_Node000003"><a xlink:href="classfabomatic_1_1_buzzer.xhtml#a02e292870e840139082bb966cb6dd0b2" target="_top" xlink:title=" ">
<polygon fill="white" stroke="#666666" points="454.12,-517.88 357.12,-517.88 357.12,-487.38 454.12,-487.38 454.12,-517.88"/>
<text text-anchor="start" x="365.12" y="-504.38" font-family="Helvetica,sans-Serif" font-size="10.00">fabomatic::Buzzer::</text>
<text text-anchor="middle" x="405.62" y="-493.12" font-family="Helvetica,sans-Serif" font-size="10.00">beepFail</text>
</a>
</g>
</g>
<!-- Node2&#45;&gt;Node3 -->
<g id="edge2_Node000002_Node000003" class="edge">
<title>Node2&#45;&gt;Node3</title>
<g id="a_edge2_Node000002_Node000003"><a xlink:title=" ">
<path fill="none" stroke="#63b8ff" d="M308.84,-481.73C320.84,-484.35 333.58,-487.12 345.71,-489.77"/>
<polygon fill="#63b8ff" stroke="#63b8ff" points="344.65,-493.12 355.17,-491.83 346.15,-486.28 344.65,-493.12"/>
</a>
</g>
</g>
<!-- Node4 -->
<g id="Node000004" class="node">
<title>Node4</title>
<g id="a_Node000004"><a xlink:href="namespacefabomatic_1_1_tasks.xhtml#a5c20f560f5934822d39ba116a16f3ab6" target="_top" xlink:title="Wait for a delay, allowing OTA updates.">
<polygon fill="white" stroke="#666666" points="769.25,-598.25 652,-598.25 652,-579 769.25,-579 769.25,-598.25"/>
<text text-anchor="middle" x="710.62" y="-584.75" font-family="Helvetica,sans-Serif" font-size="10.00">fabomatic::Tasks::delay</text>
</a>
</g>
</g>
<!-- Node3&#45;&gt;Node4 -->
<g id="edge3_Node000003_Node000004" class="edge">
<title>Node3&#45;&gt;Node4</title>
<g id="a_edge3_Node000003_Node000004"><a xlink:title=" ">
<path fill="none" stroke="#63b8ff" d="M413.48,-517.98C425.98,-543.83 455.2,-595.19 498,-615.62 556.88,-643.74 634.94,-620.37 677.9,-603.07"/>
<polygon fill="#63b8ff" stroke="#63b8ff" points="679.01,-606.39 686.89,-599.31 676.31,-599.94 679.01,-606.39"/>
</a>
</g>
</g>
<!-- Node4&#45;&gt;Node4 -->
<g id="edge4_Node000004_Node000004" class="edge">
<title>Node4&#45;&gt;Node4</title>
<g id="a_edge4_Node000004_Node000004"><a xlink:title=" ">
<path fill="none" stroke="#63b8ff" d="M686.57,-598.54C675.6,-607.15 683.62,-616.25 710.62,-616.25 725.81,-616.25 735,-613.37 738.17,-609.32"/>
<polygon fill="#63b8ff" stroke="#63b8ff" points="741.56,-608.41 735.14,-599.98 734.9,-610.57 741.56,-608.41"/>
</a>
</g>
</g>
<!-- Node6 -->
<g id="Node000006" class="node">
<title>Node6</title>
<g id="a_Node000006"><a xlink:href="classfabomatic_1_1_board_logic.xhtml#a47b4d515c0d3488eceb49769036bce8b" target="_top" xlink:title="Updates the LCD screen as per the current status.">
<polygon fill="white" stroke="#666666" points="462,-336.88 349.25,-336.88 349.25,-306.38 462,-306.38 462,-336.88"/>
<text text-anchor="start" x="357.25" y="-323.38" font-family="Helvetica,sans-Serif" font-size="10.00">fabomatic::BoardLogic</text>
<text text-anchor="middle" x="405.62" y="-312.12" font-family="Helvetica,sans-Serif" font-size="10.00">::updateLCD</text>
</a>
</g>
</g>
<!-- Node5&#45;&gt;Node6 -->
<g id="edge6_Node000005_Node000006" class="edge">
<title>Node5&#45;&gt;Node6</title>
<g id="a_edge6_Node000005_Node000006"><a xlink:title=" ">
<path fill="none" stroke="#63b8ff" d="M308.84,-342.52C318.23,-340.48 328.07,-338.33 337.72,-336.22"/>
<polygon fill="#63b8ff" stroke="#63b8ff" points="338.41,-339.65 347.44,-334.1 336.92,-332.81 338.41,-339.65"/>
</a>
</g>
</g>
<!-- Node7 -->
<g id="Node000007" class="node">
<title>Node7</title>
<g id="a_Node000007"><a xlink:href="classfabomatic_1_1_machine.xhtml#a39c30eaa242d5cc2ce784dbafeef87e8" target="_top" xlink:title=" ">
<polygon fill="white" stroke="#666666" points="607,-606.88 507,-606.88 507,-576.38 607,-576.38 607,-606.88"/>
<text text-anchor="start" x="515" y="-593.38" font-family="Helvetica,sans-Serif" font-size="10.00">fabomatic::Machine</text>
<text text-anchor="middle" x="557" y="-582.12" font-family="Helvetica,sans-Serif" font-size="10.00">::getActiveUser</text>
</a>
</g>
</g>
<!-- Node6&#45;&gt;Node7 -->
<g id="edge7_Node000006_Node000007" class="edge">
<title>Node6&#45;&gt;Node7</title>
<g id="a_edge7_Node000006_Node000007"><a xlink:title=" ">
<path fill="none" stroke="#63b8ff" d="M412,-337.05C430.31,-389.43 489.55,-557.74 498,-566.62 498.85,-567.52 499.74,-568.38 500.66,-569.22"/>
<polygon fill="#63b8ff" stroke="#63b8ff" points="498.36,-571.87 508.46,-575.05 502.55,-566.26 498.36,-571.87"/>
</a>
</g>
</g>
<!-- Node8 -->
<g id="Node000008" class="node">
<title>Node8</title>
<g id="a_Node000008"><a xlink:href="classfabomatic_1_1_board_logic.xhtml#a462b4b6149ca7bf33b699eb3181c969f" target="_top" xlink:title=" ">
<polygon fill="white" stroke="#666666" points="613.38,-557.88 500.62,-557.88 500.62,-527.38 613.38,-527.38 613.38,-557.88"/>
<text text-anchor="start" x="508.62" y="-544.38" font-family="Helvetica,sans-Serif" font-size="10.00">fabomatic::BoardLogic</text>
<text text-anchor="middle" x="557" y="-533.12" font-family="Helvetica,sans-Serif" font-size="10.00">::getLcd</text>
</a>
</g>
</g>
<!-- Node6&#45;&gt;Node8 -->
<g id="edge8_Node000006_Node000008" class="edge">
<title>Node6&#45;&gt;Node8</title>
<g id="a_edge8_Node000006_Node000008"><a xlink:title=" ">
<path fill="none" stroke="#63b8ff" d="M409.91,-337.33C418.28,-373.75 443.73,-464.92 498,-517.62 499.04,-518.63 500.13,-519.61 501.25,-520.54"/>
<polygon fill="#63b8ff" stroke="#63b8ff" points="499.09,-523.3 509.3,-526.16 503.1,-517.56 499.09,-523.3"/>
</a>
</g>
</g>
<!-- Node9 -->
<g id="Node000009" class="node">
<title>Node9</title>
<g id="a_Node000009"><a xlink:href="classfabomatic_1_1_board_logic.xhtml#a164e40105242d0b7c56c6b4f21155101" target="_top" xlink:title="Gets the current machine.">
<polygon fill="white" stroke="#666666" points="613.38,-508.88 500.62,-508.88 500.62,-478.38 613.38,-478.38 613.38,-508.88"/>
<text text-anchor="start" x="508.62" y="-495.38" font-family="Helvetica,sans-Serif" font-size="10.00">fabomatic::BoardLogic</text>
<text text-anchor="middle" x="557" y="-484.12" font-family="Helvetica,sans-Serif" font-size="10.00">::getMachine</text>
</a>
</g>
</g>
<!-- Node6&#45;&gt;Node9 -->
<g id="edge10_Node000006_Node000009" class="edge">
<title>Node6&#45;&gt;Node9</title>
<g id="a_edge10_Node000006_Node000009"><a xlink:title=" ">
<path fill="none" stroke="#63b8ff" d="M412.52,-337.08C424.43,-366.45 454.05,-430.79 498,-468.62 499.27,-469.72 500.6,-470.77 501.97,-471.79"/>
<polygon fill="#63b8ff" stroke="#63b8ff" points="499.96,-474.66 510.27,-477.08 503.72,-468.75 499.96,-474.66"/>
</a>
</g>
</g>
<!-- Node10 -->
<g id="Node000010" class="node">
<title>Node10</title>
<g id="a_Node000010"><a xlink:href="classfabomatic_1_1_machine.xhtml#a1637e99f2d70262d2ab26f69ed4f0e47" target="_top" xlink:title=" ">
<polygon fill="white" stroke="#666666" points="607,-459.88 507,-459.88 507,-429.38 607,-429.38 607,-459.88"/>
<text text-anchor="start" x="515" y="-446.38" font-family="Helvetica,sans-Serif" font-size="10.00">fabomatic::Machine</text>
<text text-anchor="middle" x="557" y="-435.12" font-family="Helvetica,sans-Serif" font-size="10.00">::getMachineName</text>
</a>
</g>
</g>
<!-- Node6&#45;&gt;Node10 -->
<g id="edge11_Node000006_Node000010" class="edge">
<title>Node6&#45;&gt;Node10</title>
<g id="a_edge11_Node000006_Node000010"><a xlink:title=" ">
<path fill="none" stroke="#63b8ff" d="M417.74,-337.09C433.54,-358.14 464.34,-395.91 498,-419.62 500,-421.04 502.1,-422.39 504.25,-423.69"/>
<polygon fill="#63b8ff" stroke="#63b8ff" points="502.22,-426.56 512.67,-428.29 505.57,-420.42 502.22,-426.56"/>
</a>
</g>
</g>
<!-- Node11 -->
<g id="Node000011" class="node">
<title>Node11</title>
<g id="a_Node000011"><a xlink:href="classfabomatic_1_1_machine.xhtml#ad511c567c7cb7487d19019550c9a4e32" target="_top" xlink:title=" ">
<polygon fill="white" stroke="#666666" points="610,-410.88 504,-410.88 504,-380.38 610,-380.38 610,-410.88"/>
<text text-anchor="start" x="512" y="-397.38" font-family="Helvetica,sans-Serif" font-size="10.00">fabomatic::Machine</text>
<text text-anchor="middle" x="557" y="-386.12" font-family="Helvetica,sans-Serif" font-size="10.00">::getMaintenanceInfo</text>
</a>
</g>
</g>
<!-- Node6&#45;&gt;Node11 -->
<g id="edge12_Node000006_Node000011" class="edge">
<title>Node6&#45;&gt;Node11</title>
<g id="a_edge12_Node000006_Node000011"><a xlink:title=" ">
<path fill="none" stroke="#63b8ff" d="M434.3,-337.26C452.26,-347.21 476.28,-360.14 498,-370.62 501.26,-372.2 504.64,-373.78 508.06,-375.34"/>
<polygon fill="#63b8ff" stroke="#63b8ff" points="506.41,-378.44 516.97,-379.33 509.27,-372.05 506.41,-378.44"/>
</a>
</g>
</g>
<!-- Node12 -->
<g id="Node000012" class="node">
<title>Node12</title>
<g id="a_Node000012"><a xlink:href="classfabomatic_1_1_machine.xhtml#a3c5304fd80e0cc1c2118a59c64222d6d" target="_top" xlink:title="Returns the current power state of the machine.">
<polygon fill="white" stroke="#666666" points="607,-361.88 507,-361.88 507,-331.38 607,-331.38 607,-361.88"/>
<text text-anchor="start" x="515" y="-348.38" font-family="Helvetica,sans-Serif" font-size="10.00">fabomatic::Machine</text>
<text text-anchor="middle" x="557" y="-337.12" font-family="Helvetica,sans-Serif" font-size="10.00">::getPowerState</text>
</a>
</g>
</g>
<!-- Node6&#45;&gt;Node12 -->
<g id="edge13_Node000006_Node000012" class="edge">
<title>Node6&#45;&gt;Node12</title>
<g id="a_edge13_Node000006_Node000012"><a xlink:title=" ">
<path fill="none" stroke="#63b8ff" d="M462.25,-330.93C473.08,-332.75 484.49,-334.66 495.48,-336.5"/>
<polygon fill="#63b8ff" stroke="#63b8ff" points="494.79,-339.93 505.23,-338.13 495.95,-333.03 494.79,-339.93"/>
</a>
</g>
</g>
<!-- Node13 -->
<g id="Node000013" class="node">
<title>Node13</title>
<g id="a_Node000013"><a xlink:href="classfabomatic_1_1_machine.xhtml#a9c845a163660550fa779516a8be8681a" target="_top" xlink:title="Duration of the current usage, or 0s.">
<polygon fill="white" stroke="#666666" points="607,-312.88 507,-312.88 507,-282.38 607,-282.38 607,-312.88"/>
<text text-anchor="start" x="515" y="-299.38" font-family="Helvetica,sans-Serif" font-size="10.00">fabomatic::Machine</text>
<text text-anchor="middle" x="557" y="-288.12" font-family="Helvetica,sans-Serif" font-size="10.00">::getUsageDuration</text>
</a>
</g>
</g>
<!-- Node6&#45;&gt;Node13 -->
<g id="edge14_Node000006_Node000013" class="edge">
<title>Node6&#45;&gt;Node13</title>
<g id="a_edge14_Node000006_Node000013"><a xlink:title=" ">
<path fill="none" stroke="#63b8ff" d="M462.25,-312.69C473.08,-310.95 484.49,-309.11 495.48,-307.35"/>
<polygon fill="#63b8ff" stroke="#63b8ff" points="495.91,-310.82 505.23,-305.78 494.8,-303.91 495.91,-310.82"/>
</a>
</g>
</g>
<!-- Node14 -->
<g id="Node000014" class="node">
<title>Node14</title>
<g id="a_Node000014"><a xlink:href="classfabomatic_1_1_machine.xhtml#a4b40dcb31af466acc85f66c845516c82" target="_top" xlink:title=" ">
<polygon fill="white" stroke="#666666" points="607,-263.88 507,-263.88 507,-233.38 607,-233.38 607,-263.88"/>
<text text-anchor="start" x="515" y="-250.38" font-family="Helvetica,sans-Serif" font-size="10.00">fabomatic::Machine</text>
<text text-anchor="middle" x="557" y="-239.12" font-family="Helvetica,sans-Serif" font-size="10.00">::isAllowed</text>
</a>
</g>
</g>
<!-- Node6&#45;&gt;Node14 -->
<g id="edge15_Node000006_Node000014" class="edge">
<title>Node6&#45;&gt;Node14</title>
<g id="a_edge15_Node000006_Node000014"><a xlink:title=" ">
<path fill="none" stroke="#63b8ff" d="M435.15,-305.92C453.03,-296.26 476.65,-283.81 498,-273.62 501.27,-272.07 504.65,-270.49 508.08,-268.94"/>
<polygon fill="#63b8ff" stroke="#63b8ff" points="509.28,-272.23 516.99,-264.96 506.43,-265.84 509.28,-272.23"/>
</a>
</g>
</g>
<!-- Node15 -->
<g id="Node000015" class="node">
<title>Node15</title>
<g id="a_Node000015"><a xlink:href="classfabomatic_1_1_machine.xhtml#a9fd614d86b6108a5a7b54fc9eee0d9a6" target="_top" xlink:title="Indicates if the machine has been configured.">
<polygon fill="white" stroke="#666666" points="607,-214.88 507,-214.88 507,-184.38 607,-184.38 607,-214.88"/>
<text text-anchor="start" x="515" y="-201.38" font-family="Helvetica,sans-Serif" font-size="10.00">fabomatic::Machine</text>
<text text-anchor="middle" x="557" y="-190.12" font-family="Helvetica,sans-Serif" font-size="10.00">::isConfigured</text>
</a>
</g>
</g>
<!-- Node6&#45;&gt;Node15 -->
<g id="edge16_Node000006_Node000015" class="edge">
<title>Node6&#45;&gt;Node15</title>
<g id="a_edge16_Node000006_Node000015"><a xlink:title=" ">
<path fill="none" stroke="#63b8ff" d="M418.05,-305.97C433.97,-285.07 464.65,-247.99 498,-224.62 500.01,-223.22 502.1,-221.87 504.26,-220.57"/>
<polygon fill="#63b8ff" stroke="#63b8ff" points="505.58,-223.84 512.69,-215.98 502.23,-217.7 505.58,-223.84"/>
</a>
</g>
</g>
<!-- Node16 -->
<g id="Node000016" class="node">
<title>Node16</title>
<g id="a_Node000016"><a xlink:href="classfabomatic_1_1_machine.xhtml#a34b0deb04494137cf321e94d50dedf90" target="_top" xlink:title=" ">
<polygon fill="white" stroke="#666666" points="615.62,-165.88 498.38,-165.88 498.38,-135.38 615.62,-135.38 615.62,-165.88"/>
<text text-anchor="start" x="506.38" y="-152.38" font-family="Helvetica,sans-Serif" font-size="10.00">fabomatic::Machine</text>
<text text-anchor="middle" x="557" y="-141.12" font-family="Helvetica,sans-Serif" font-size="10.00">::isMaintenanceNeeded</text>
</a>
</g>
</g>
<!-- Node6&#45;&gt;Node16 -->
<g id="edge17_Node000006_Node000016" class="edge">
<title>Node6&#45;&gt;Node16</title>
<g id="a_edge17_Node000006_Node000016"><a xlink:title=" ">
<path fill="none" stroke="#63b8ff" d="M412.55,-306.28C424.51,-277.11 454.21,-213.21 498,-175.62 499.27,-174.53 500.6,-173.48 501.98,-172.47"/>
<polygon fill="#63b8ff" stroke="#63b8ff" points="503.73,-175.5 510.28,-167.18 499.97,-169.6 503.73,-175.5"/>
</a>
</g>
</g>
<!-- Node17 -->
<g id="Node000017" class="node">
<title>Node17</title>
<g id="a_Node000017"><a xlink:href="classfabomatic_1_1_fab_backend.xhtml#aef092e0e1db0c3539d5474fad2456255" target="_top" xlink:title="Checks if the client is online.">
<polygon fill="white" stroke="#666666" points="616,-116.88 498,-116.88 498,-86.38 616,-86.38 616,-116.88"/>
<text text-anchor="start" x="506" y="-103.38" font-family="Helvetica,sans-Serif" font-size="10.00">fabomatic::FabBackend</text>
<text text-anchor="middle" x="557" y="-92.12" font-family="Helvetica,sans-Serif" font-size="10.00">::isOnline</text>
</a>
</g>
</g>
<!-- Node6&#45;&gt;Node17 -->
<g id="edge18_Node000006_Node000017" class="edge">
<title>Node6&#45;&gt;Node17</title>
<g id="a_edge18_Node000006_Node000017"><a xlink:title=" ">
<path fill="none" stroke="#63b8ff" d="M409.93,-306C418.36,-269.76 443.91,-179.06 498,-126.62 499.04,-125.62 500.13,-124.64 501.26,-123.71"/>
<polygon fill="#63b8ff" stroke="#63b8ff" points="503.1,-126.69 509.3,-118.1 499.1,-120.95 503.1,-126.69"/>
</a>
</g>
</g>
<!-- Node18 -->
<g id="Node000018" class="node">
<title>Node18</title>
<g id="a_Node000018"><a xlink:href="classfabomatic_1_1_machine.xhtml#a871958cc57845c8651cf1058ed9b30e4" target="_top" xlink:title="Indicates if the machine will power down in less than BEEP_REMAINING_MINUTES.">
<polygon fill="white" stroke="#666666" points="613,-67.88 501,-67.88 501,-37.38 613,-37.38 613,-67.88"/>
<text text-anchor="start" x="509" y="-54.38" font-family="Helvetica,sans-Serif" font-size="10.00">fabomatic::Machine</text>
<text text-anchor="middle" x="557" y="-43.12" font-family="Helvetica,sans-Serif" font-size="10.00">::isShutdownImminent</text>
</a>
</g>
</g>
<!-- Node6&#45;&gt;Node18 -->
<g id="edge19_Node000006_Node000018" class="edge">
<title>Node6&#45;&gt;Node18</title>
<g id="a_edge19_Node000006_Node000018"><a xlink:title=" ">
<path fill="none" stroke="#63b8ff" d="M408.25,-305.99C413.44,-263.68 433.26,-145.59 498,-77.62 498.85,-76.73 499.74,-75.87 500.66,-75.04"/>
<polygon fill="#63b8ff" stroke="#63b8ff" points="502.55,-77.99 508.47,-69.2 498.36,-72.38 502.55,-77.99"/>
</a>
</g>
</g>
<!-- Node19 -->
<g id="Node000019" class="node">
<title>Node19</title>
<g id="a_Node000019"><a xlink:href="namespacefabomatic_1_1card.xhtml#aef091ec171625c69f9d4eab20ebaefec" target="_top" xlink:title="Returns a string representation of the UID.">
<polygon fill="white" stroke="#666666" points="614.88,-19.25 499.12,-19.25 499.12,0 614.88,0 614.88,-19.25"/>
<text text-anchor="middle" x="557" y="-5.75" font-family="Helvetica,sans-Serif" font-size="10.00">fabomatic::card::uid_str</text>
</a>
</g>
</g>
<!-- Node6&#45;&gt;Node19 -->
<g id="edge20_Node000006_Node000019" class="edge">
<title>Node6&#45;&gt;Node19</title>
<g id="a_edge20_Node000006_Node000019"><a xlink:title=" ">
<path fill="none" stroke="#63b8ff" d="M406.76,-306.1C408.03,-257.91 418.51,-109.26 498,-28.62 499,-27.61 500.06,-26.64 501.17,-25.73"/>
<polygon fill="#63b8ff" stroke="#63b8ff" points="502.69,-28.92 509.16,-20.52 498.87,-23.05 502.69,-28.92"/>
</a>
</g>
</g>
<!-- Node8&#45;&gt;Node4 -->
<g id="edge9_Node000008_Node000004" class="edge">
<title>Node8&#45;&gt;Node4</title>
<g id="a_edge9_Node000008_Node000004"><a xlink:title=" ">
<path fill="none" stroke="#63b8ff" d="M609.76,-558.33C628.09,-563.89 648.51,-570.08 666.09,-575.42"/>
<polygon fill="#63b8ff" stroke="#63b8ff" points="664.58,-578.62 675.17,-578.17 666.62,-571.92 664.58,-578.62"/>
</a>
</g>
</g>
</g>
</svg>

<g id="navigator" transform="translate(0 0)" fill="#404254">
  <rect fill="#f2f5e9" fill-opacity="0.5" stroke="#606060" stroke-width=".5" x="0" y="0" width="60" height="60"/>
  <use id="zoomplus" xlink:href="#zoomPlus" x="17" y="9" onmousedown="handleZoom(evt,'in')"/>
  <use id="zoomminus" xlink:href="#zoomMin" x="42" y="9" onmousedown="handleZoom(evt,'out')"/>
  <use id="reset" xlink:href="#resetDef" x="30" y="36" onmousedown="handleReset()"/>
   <use id="arrowup" xlink:href="#arrowUp" x="0" y="0" onmousedown="handlePan(0,-1)"/>
  <use id="arrowright" xlink:href="#arrowRight" x="0" y="0" onmousedown="handlePan(1,0)"/>
  <use id="arrowdown" xlink:href="#arrowDown" x="0" y="0" onmousedown="handlePan(0,1)"/>
  <use id="arrowleft" xlink:href="#arrowLeft" x="0" y="0" onmousedown="handlePan(-1,0)"/>
</g>
<svg viewBox="0 0 15 15" width="100%" height="30px" preserveAspectRatio="xMaxYMin meet">
 <g id="arrow_out" transform="scale(0.3 0.3)">
  <a xlink:href="namespacefabomatic_a86a02975f3cc660ebccdde8f217aa035_cgraph_org.svg" target="_base">
   <rect id="button" ry="5" rx="5" y="6" x="6" height="38" width="38"
        fill="#f2f5e9" fill-opacity="0.5" stroke="#606060" stroke-width="1.0"/>
   <path id="arrow"
     d="M 11.500037,31.436501 C 11.940474,20.09759 22.043105,11.32322 32.158766,21.979434 L 37.068811,17.246167 C 37.068811,17.246167 37.088388,32 37.088388,32 L 22.160133,31.978069 C 22.160133,31.978069 26.997745,27.140456 26.997745,27.140456 C 18.528582,18.264221 13.291696,25.230495 11.500037,31.436501 z"
     style="fill:#404040;"/>
  </a>
 </g>
</svg>

<style type='text/css'>
<![CDATA[
[data-mouse-over-selected='false'] { opacity: 0.7; }
[data-mouse-over-selected='true']  { opacity: 1.0; }
]]>
</style>
<script type="application/ecmascript"><![CDATA[
document.addEventListener('DOMContentLoaded', (event) => {
  highlightEdges();
  highlightAdjacentNodes();
});
]]></script>
</svg>
