<?xml version="1.0" encoding="UTF-8" standalone="no"?>
<!DOCTYPE svg PUBLIC "-//W3C//DTD SVG 1.1//EN"
 "http://www.w3.org/Graphics/SVG/1.1/DTD/svg11.dtd">
<!-- Generated by graphviz version 9.0.0 (20230911.1827)
 -->
<!-- Title: fabomatic::esp32::esp_serial Pages: 1 -->
<svg width="373pt" height="125pt"
 viewBox="0.00 0.00 372.50 124.50" xmlns="http://www.w3.org/2000/svg" xmlns:xlink="http://www.w3.org/1999/xlink">

<svg id="main" version="1.1" xmlns="http://www.w3.org/2000/svg" xmlns:xlink="http://www.w3.org/1999/xlink" xml:space="preserve" onload="init(evt)">
<style type="text/css"><![CDATA[
.node, .edge {opacity: 0.7;}
.node.selected, .edge.selected {opacity: 1;}
.edge:hover path { stroke: red; }
.edge:hover polygon { stroke: red; fill: red; }
]]></style>
<script type="application/ecmascript" xlink:href="svg.min.js"/>
<svg id="graph" class="graph">
<g id="graph0" class="graph" transform="scale(1 1) rotate(0) translate(4 120.5)">
<title>fabomatic::esp32::esp_serial</title>
<!-- Node1 -->
<g id="Node000001" class="node">
<title>Node1</title>
<g id="a_Node000001"><a xlink:title="Returns the ESP32 serial number as a string.">
<polygon fill="#999999" stroke="#666666" points="364.5,-73.5 254.75,-73.5 254.75,-43 364.5,-43 364.5,-73.5"/>
<text text-anchor="start" x="262.75" y="-60" font-family="Helvetica,sans-Serif" font-size="10.00">fabomatic::esp32::esp</text>
<text text-anchor="middle" x="309.62" y="-48.75" font-family="Helvetica,sans-Serif" font-size="10.00">_serial</text>
</a>
</g>
</g>
<!-- Node2 -->
<g id="Node000002" class="node">
<title>Node2</title>
<g id="a_Node000002"><a xlink:href="classfabomatic_1_1_m_q_t_t_1_1_alive_query.xhtml#a062d2385f1c28931212aaf8f92376a82" target="_top" xlink:title=" ">
<polygon fill="white" stroke="#666666" points="218.75,-116.5 76,-116.5 76,-86 218.75,-86 218.75,-116.5"/>
<text text-anchor="start" x="84" y="-103" font-family="Helvetica,sans-Serif" font-size="10.00">fabomatic::MQTT::AliveQuery</text>
<text text-anchor="middle" x="147.38" y="-91.75" font-family="Helvetica,sans-Serif" font-size="10.00">::payload</text>
</a>
</g>
</g>
<!-- Node1&#45;&gt;Node2 -->
<g id="edge1_Node000001_Node000002" class="edge">
<title>Node1&#45;&gt;Node2</title>
<g id="a_edge1_Node000001_Node000002"><a xlink:title=" ">
<path fill="none" stroke="#63b8ff" d="M243.45,-75.74C231.37,-78.98 218.83,-82.34 206.97,-85.53"/>
<polygon fill="#63b8ff" stroke="#63b8ff" points="244.16,-79.17 252.91,-73.2 242.34,-72.41 244.16,-79.17"/>
</a>
</g>
</g>
<!-- Node3 -->
<g id="Node000003" class="node">
<title>Node3</title>
<g id="a_Node000003"><a xlink:href="namespacefabomatic.xhtml#a2c7ad2690e92eb8ab98b6fadaa4df2bd" target="_top" xlink:title=" ">
<polygon fill="white" stroke="#666666" points="217.25,-67.88 77.5,-67.88 77.5,-48.62 217.25,-48.62 217.25,-67.88"/>
<text text-anchor="middle" x="147.38" y="-54.38" font-family="Helvetica,sans-Serif" font-size="10.00">fabomatic::taskFactoryReset</text>
</a>
</g>
</g>
<!-- Node1&#45;&gt;Node3 -->
<g id="edge2_Node000001_Node000003" class="edge">
<title>Node1&#45;&gt;Node3</title>
<g id="a_edge2_Node000001_Node000003"><a xlink:title=" ">
<path fill="none" stroke="#63b8ff" d="M243.1,-58.25C234.7,-58.25 226.08,-58.25 217.63,-58.25"/>
<polygon fill="#63b8ff" stroke="#63b8ff" points="242.86,-61.75 252.86,-58.25 242.86,-54.75 242.86,-61.75"/>
</a>
</g>
</g>
<!-- Node4 -->
<g id="Node000004" class="node">
<title>Node4</title>
<g id="a_Node000004"><a xlink:href="namespacefabomatic_1_1tests.xhtml#af8fcb20d2ec63b73e90dff80564bca07" target="_top" xlink:title=" ">
<polygon fill="white" stroke="#666666" points="200.38,-30.5 94.38,-30.5 94.38,0 200.38,0 200.38,-30.5"/>
<text text-anchor="start" x="102.38" y="-17" font-family="Helvetica,sans-Serif" font-size="10.00">fabomatic::tests::test</text>
<text text-anchor="middle" x="147.38" y="-5.75" font-family="Helvetica,sans-Serif" font-size="10.00">_esp32</text>
</a>
</g>
</g>
<!-- Node1&#45;&gt;Node4 -->
<g id="edge3_Node000001_Node000004" class="edge">
<title>Node1&#45;&gt;Node4</title>
<g id="a_edge3_Node000001_Node000004"><a xlink:title=" ">
<path fill="none" stroke="#63b8ff" d="M243.61,-40.8C229.33,-36.97 214.38,-32.96 200.67,-29.28"/>
<polygon fill="#63b8ff" stroke="#63b8ff" points="242.34,-44.09 252.91,-43.3 244.16,-37.33 242.34,-44.09"/>
</a>
</g>
</g>
<!-- Node5 -->
<g id="Node000005" class="node">
<title>Node5</title>
<g id="a_Node000005"><a xlink:href="test__tasks_8cpp.xhtml#a4fc01d736fe50cf5b977f755b675f11d" target="_top" xlink:title=" ">
<polygon fill="white" stroke="#666666" points="40,-24.88 0,-24.88 0,-5.63 40,-5.63 40,-24.88"/>
<text text-anchor="middle" x="20" y="-11.38" font-family="Helvetica,sans-Serif" font-size="10.00">setup</text>
</a>
</g>
</g>
<!-- Node4&#45;&gt;Node5 -->
<g id="edge4_Node000004_Node000005" class="edge">
<title>Node4&#45;&gt;Node5</title>
<g id="a_edge4_Node000004_Node000005"><a xlink:title=" ">
<path fill="none" stroke="#63b8ff" d="M82.75,-15.25C67.34,-15.25 52.01,-15.25 40.47,-15.25"/>
<polygon fill="#63b8ff" stroke="#63b8ff" points="82.42,-18.75 92.42,-15.25 82.42,-11.75 82.42,-18.75"/>
</a>
</g>
</g>
</g>
</svg>
</svg>

<style type='text/css'>
<![CDATA[
[data-mouse-over-selected='false'] { opacity: 0.7; }
[data-mouse-over-selected='true']  { opacity: 1.0; }
]]>
</style>
<script type="application/ecmascript"><![CDATA[
document.addEventListener('DOMContentLoaded', (event) => {
  highlightEdges();
  highlightAdjacentNodes();
});
]]></script>
</svg>
