<?xml version="1.0" encoding="UTF-8" standalone="no"?>
<!DOCTYPE svg PUBLIC "-//W3C//DTD SVG 1.1//EN"
 "http://www.w3.org/Graphics/SVG/1.1/DTD/svg11.dtd">
<!-- Generated by graphviz version 9.0.0 (20230911.1827)
 -->
<!-- Title: fabomatic::card::str_uid Pages: 1 -->
<svg width="457pt" height="76pt"
 viewBox="0.00 0.00 456.50 75.88" xmlns="http://www.w3.org/2000/svg" xmlns:xlink="http://www.w3.org/1999/xlink">
<g id="graph0" class="graph" transform="scale(1 1) rotate(0) translate(4 71.88)">
<title>fabomatic::card::str_uid</title>
<!-- Node1 -->
<g id="Node000001" class="node">
<title>Node1</title>
<g id="a_Node000001"><a xlink:title="Returns an UID from its string representation.">
<polygon fill="#999999" stroke="#666666" points="448.5,-40.25 332.75,-40.25 332.75,-21 448.5,-21 448.5,-40.25"/>
<text text-anchor="middle" x="390.62" y="-26.75" font-family="Helvetica,sans-Serif" font-size="10.00">fabomatic::card::str_uid</text>
</a>
</g>
</g>
<!-- Node2 -->
<g id="Node000002" class="node">
<title>Node2</title>
<g id="a_Node000002"><a xlink:href="classfabomatic_1_1_m_q_t_t_interface_1_1_backend_request.xhtml#a253ab5262807a2a19540a9a0798e34a5" target="_top" xlink:title=" ">
<polygon fill="white" stroke="#666666" points="296.75,-67.88 157,-67.88 157,-37.38 296.75,-37.38 296.75,-67.88"/>
<text text-anchor="start" x="165" y="-54.38" font-family="Helvetica,sans-Serif" font-size="10.00">fabomatic::MQTTInterface</text>
<text text-anchor="middle" x="226.88" y="-43.12" font-family="Helvetica,sans-Serif" font-size="10.00">::BackendRequest::fromJson</text>
</a>
</g>
</g>
<!-- Node1&#45;&gt;Node2 -->
<g id="edge1_Node000001_Node000002" class="edge">
<title>Node1&#45;&gt;Node2</title>
<g id="a_edge1_Node000001_Node000002"><a xlink:title=" ">
<path fill="none" stroke="#63b8ff" d="M321.4,-39.9C313.38,-41 305.19,-42.11 297.15,-43.2"/>
<polygon fill="#63b8ff" stroke="#63b8ff" points="321.66,-43.4 331.1,-38.59 320.72,-36.47 321.66,-43.4"/>
</a>
</g>
</g>
<!-- Node4 -->
<g id="Node000004" class="node">
<title>Node4</title>
<g id="a_Node000004"><a xlink:href="namespacefabomatic_1_1tests.xhtml#ae4870af55ad642d117ae225789bdc013" target="_top" xlink:title=" ">
<polygon fill="white" stroke="#666666" points="291.88,-19.25 161.88,-19.25 161.88,0 291.88,0 291.88,-19.25"/>
<text text-anchor="middle" x="226.88" y="-5.75" font-family="Helvetica,sans-Serif" font-size="10.00">fabomatic::tests::test_card</text>
</a>
</g>
</g>
<!-- Node1&#45;&gt;Node4 -->
<g id="edge3_Node000001_Node000004" class="edge">
<title>Node1&#45;&gt;Node4</title>
<g id="a_edge3_Node000001_Node000004"><a xlink:title=" ">
<path fill="none" stroke="#63b8ff" d="M321.36,-21.76C311.67,-20.5 301.72,-19.21 292.11,-17.96"/>
<polygon fill="#63b8ff" stroke="#63b8ff" points="320.73,-25.21 331.1,-23.03 321.63,-18.27 320.73,-25.21"/>
</a>
</g>
</g>
<!-- Node3 -->
<g id="Node000003" class="node">
<title>Node3</title>
<g id="a_Node000003"><a xlink:href="classfabomatic_1_1_fab_backend.xhtml#a80051d3481d5dd0f2b353b7504b279ca" target="_top" xlink:title=" ">
<polygon fill="white" stroke="#666666" points="121,-67.88 0,-67.88 0,-37.38 121,-37.38 121,-67.88"/>
<text text-anchor="start" x="8" y="-54.38" font-family="Helvetica,sans-Serif" font-size="10.00">fabomatic::FabBackend</text>
<text text-anchor="middle" x="60.5" y="-43.12" font-family="Helvetica,sans-Serif" font-size="10.00">::checkBackendRequest</text>
</a>
</g>
</g>
<!-- Node2&#45;&gt;Node3 -->
<g id="edge2_Node000002_Node000003" class="edge">
<title>Node2&#45;&gt;Node3</title>
<g id="a_edge2_Node000002_Node000003"><a xlink:title=" ">
<path fill="none" stroke="#63b8ff" d="M145.26,-52.62C137.19,-52.62 129.09,-52.62 121.28,-52.62"/>
<polygon fill="#63b8ff" stroke="#63b8ff" points="145.13,-56.13 155.13,-52.63 145.13,-49.13 145.13,-56.13"/>
</a>
</g>
</g>
<!-- Node5 -->
<g id="Node000005" class="node">
<title>Node5</title>
<g id="a_Node000005"><a xlink:href="test__chrono_8cpp.xhtml#a4fc01d736fe50cf5b977f755b675f11d" target="_top" xlink:title=" ">
<polygon fill="white" stroke="#666666" points="80.5,-19.25 40.5,-19.25 40.5,0 80.5,0 80.5,-19.25"/>
<text text-anchor="middle" x="60.5" y="-5.75" font-family="Helvetica,sans-Serif" font-size="10.00">setup</text>
</a>
</g>
</g>
<!-- Node4&#45;&gt;Node5 -->
<g id="edge4_Node000004_Node000005" class="edge">
<title>Node4&#45;&gt;Node5</title>
<g id="a_edge4_Node000004_Node000005"><a xlink:title=" ">
<path fill="none" stroke="#63b8ff" d="M150.13,-9.62C124.6,-9.62 98.22,-9.62 80.96,-9.62"/>
<polygon fill="#63b8ff" stroke="#63b8ff" points="149.87,-13.13 159.87,-9.63 149.87,-6.13 149.87,-13.13"/>
</a>
</g>
</g>
</g>
</svg>
