<?xml version="1.0" encoding="UTF-8" standalone="no"?>
<!DOCTYPE svg PUBLIC "-//W3C//DTD SVG 1.1//EN"
 "http://www.w3.org/Graphics/SVG/1.1/DTD/svg11.dtd">
<!-- Generated by graphviz version 9.0.0 (20230911.1827)
 -->
<!-- Title: fabomatic::configModeCallback Pages: 1 -->
<svg width="763pt" height="615pt"
 viewBox="0.00 0.00 763.00 614.88" xmlns="http://www.w3.org/2000/svg" xmlns:xlink="http://www.w3.org/1999/xlink">
<g id="graph0" class="graph" transform="scale(1 1) rotate(0) translate(4 610.88)">
<title>fabomatic::configModeCallback</title>
<!-- Node1 -->
<g id="Node000001" class="node">
<title>Node1</title>
<g id="a_Node000001"><a xlink:title=" ">
<polygon fill="#999999" stroke="#666666" points="150.25,-307.25 0,-307.25 0,-288 150.25,-288 150.25,-307.25"/>
<text text-anchor="middle" x="75.12" y="-293.75" font-family="Helvetica,sans-Serif" font-size="10.00">fabomatic::configModeCallback</text>
</a>
</g>
</g>
<!-- Node2 -->
<g id="Node000002" class="node">
<title>Node2</title>
<g id="a_Node000002"><a xlink:href="classfabomatic_1_1_board_logic.xhtml#a3c38d7a3ed7952c6d6297efdf50ea4dd" target="_top" xlink:title="Sets the board in the state given.">
<polygon fill="white" stroke="#666666" points="299,-312.88 186.25,-312.88 186.25,-282.38 299,-282.38 299,-312.88"/>
<text text-anchor="start" x="194.25" y="-299.38" font-family="Helvetica,sans-Serif" font-size="10.00">fabomatic::BoardLogic</text>
<text text-anchor="middle" x="242.62" y="-288.12" font-family="Helvetica,sans-Serif" font-size="10.00">::changeStatus</text>
</a>
</g>
</g>
<!-- Node1&#45;&gt;Node2 -->
<g id="edge1_Node000001_Node000002" class="edge">
<title>Node1&#45;&gt;Node2</title>
<g id="a_edge1_Node000001_Node000002"><a xlink:title=" ">
<path fill="none" stroke="#63b8ff" d="M150.64,-297.62C158.6,-297.62 166.66,-297.62 174.52,-297.62"/>
<polygon fill="#63b8ff" stroke="#63b8ff" points="174.35,-301.13 184.35,-297.63 174.35,-294.13 174.35,-301.13"/>
</a>
</g>
</g>
<!-- Node3 -->
<g id="Node000003" class="node">
<title>Node3</title>
<g id="a_Node000003"><a xlink:href="classfabomatic_1_1_board_logic.xhtml#a47b4d515c0d3488eceb49769036bce8b" target="_top" xlink:title="Updates the LCD screen as per the current status.">
<polygon fill="white" stroke="#666666" points="447.75,-312.88 335,-312.88 335,-282.38 447.75,-282.38 447.75,-312.88"/>
<text text-anchor="start" x="343" y="-299.38" font-family="Helvetica,sans-Serif" font-size="10.00">fabomatic::BoardLogic</text>
<text text-anchor="middle" x="391.38" y="-288.12" font-family="Helvetica,sans-Serif" font-size="10.00">::updateLCD</text>
</a>
</g>
</g>
<!-- Node2&#45;&gt;Node3 -->
<g id="edge2_Node000002_Node000003" class="edge">
<title>Node2&#45;&gt;Node3</title>
<g id="a_edge2_Node000002_Node000003"><a xlink:title=" ">
<path fill="none" stroke="#63b8ff" d="M299.1,-297.62C307.05,-297.62 315.29,-297.62 323.43,-297.62"/>
<polygon fill="#63b8ff" stroke="#63b8ff" points="323.3,-301.13 333.3,-297.63 323.3,-294.13 323.3,-301.13"/>
</a>
</g>
</g>
<!-- Node4 -->
<g id="Node000004" class="node">
<title>Node4</title>
<g id="a_Node000004"><a xlink:href="classfabomatic_1_1_machine.xhtml#a39c30eaa242d5cc2ce784dbafeef87e8" target="_top" xlink:title=" ">
<polygon fill="white" stroke="#666666" points="592.75,-606.88 492.75,-606.88 492.75,-576.38 592.75,-576.38 592.75,-606.88"/>
<text text-anchor="start" x="500.75" y="-593.38" font-family="Helvetica,sans-Serif" font-size="10.00">fabomatic::Machine</text>
<text text-anchor="middle" x="542.75" y="-582.12" font-family="Helvetica,sans-Serif" font-size="10.00">::getActiveUser</text>
</a>
</g>
</g>
<!-- Node3&#45;&gt;Node4 -->
<g id="edge3_Node000003_Node000004" class="edge">
<title>Node3&#45;&gt;Node4</title>
<g id="a_edge3_Node000003_Node000004"><a xlink:title=" ">
<path fill="none" stroke="#63b8ff" d="M393.36,-313.19C397.01,-358.27 413.48,-490.53 483.75,-566.62 484.47,-567.4 485.21,-568.15 485.98,-568.88"/>
<polygon fill="#63b8ff" stroke="#63b8ff" points="483.78,-571.61 493.84,-574.95 488.06,-566.07 483.78,-571.61"/>
</a>
</g>
</g>
<!-- Node5 -->
<g id="Node000005" class="node">
<title>Node5</title>
<g id="a_Node000005"><a xlink:href="classfabomatic_1_1_board_logic.xhtml#a462b4b6149ca7bf33b699eb3181c969f" target="_top" xlink:title=" ">
<polygon fill="white" stroke="#666666" points="599.12,-557.88 486.38,-557.88 486.38,-527.38 599.12,-527.38 599.12,-557.88"/>
<text text-anchor="start" x="494.38" y="-544.38" font-family="Helvetica,sans-Serif" font-size="10.00">fabomatic::BoardLogic</text>
<text text-anchor="middle" x="542.75" y="-533.12" font-family="Helvetica,sans-Serif" font-size="10.00">::getLcd</text>
</a>
</g>
</g>
<!-- Node3&#45;&gt;Node5 -->
<g id="edge4_Node000003_Node000005" class="edge">
<title>Node3&#45;&gt;Node5</title>
<g id="a_edge4_Node000003_Node000005"><a xlink:title=" ">
<path fill="none" stroke="#63b8ff" d="M394.72,-313.15C401.43,-352.5 424.2,-457.28 483.75,-517.62 484.75,-518.63 485.79,-519.61 486.87,-520.54"/>
<polygon fill="#63b8ff" stroke="#63b8ff" points="484.46,-523.11 494.62,-526.12 488.55,-517.43 484.46,-523.11"/>
</a>
</g>
</g>
<!-- Node7 -->
<g id="Node000007" class="node">
<title>Node7</title>
<g id="a_Node000007"><a xlink:href="classfabomatic_1_1_board_logic.xhtml#a164e40105242d0b7c56c6b4f21155101" target="_top" xlink:title="Gets the current machine.">
<polygon fill="white" stroke="#666666" points="599.12,-508.88 486.38,-508.88 486.38,-478.38 599.12,-478.38 599.12,-508.88"/>
<text text-anchor="start" x="494.38" y="-495.38" font-family="Helvetica,sans-Serif" font-size="10.00">fabomatic::BoardLogic</text>
<text text-anchor="middle" x="542.75" y="-484.12" font-family="Helvetica,sans-Serif" font-size="10.00">::getMachine</text>
</a>
</g>
</g>
<!-- Node3&#45;&gt;Node7 -->
<g id="edge7_Node000003_Node000007" class="edge">
<title>Node3&#45;&gt;Node7</title>
<g id="a_edge7_Node000003_Node000007"><a xlink:title=" ">
<path fill="none" stroke="#63b8ff" d="M396.84,-313.28C407,-346.28 434.82,-423.63 483.75,-468.62 484.96,-469.74 486.23,-470.81 487.54,-471.83"/>
<polygon fill="#63b8ff" stroke="#63b8ff" points="485.25,-474.51 495.52,-477.15 489.14,-468.69 485.25,-474.51"/>
</a>
</g>
</g>
<!-- Node8 -->
<g id="Node000008" class="node">
<title>Node8</title>
<g id="a_Node000008"><a xlink:href="classfabomatic_1_1_machine.xhtml#a1637e99f2d70262d2ab26f69ed4f0e47" target="_top" xlink:title=" ">
<polygon fill="white" stroke="#666666" points="592.75,-459.88 492.75,-459.88 492.75,-429.38 592.75,-429.38 592.75,-459.88"/>
<text text-anchor="start" x="500.75" y="-446.38" font-family="Helvetica,sans-Serif" font-size="10.00">fabomatic::Machine</text>
<text text-anchor="middle" x="542.75" y="-435.12" font-family="Helvetica,sans-Serif" font-size="10.00">::getMachineName</text>
</a>
</g>
</g>
<!-- Node3&#45;&gt;Node8 -->
<g id="edge8_Node000003_Node000008" class="edge">
<title>Node3&#45;&gt;Node8</title>
<g id="a_edge8_Node000003_Node000008"><a xlink:title=" ">
<path fill="none" stroke="#63b8ff" d="M400.46,-313.17C414.37,-338.56 445.09,-389.16 483.75,-419.62 485.43,-420.95 487.19,-422.22 489.01,-423.43"/>
<polygon fill="#63b8ff" stroke="#63b8ff" points="486.79,-426.18 497.18,-428.25 490.35,-420.16 486.79,-426.18"/>
</a>
</g>
</g>
<!-- Node9 -->
<g id="Node000009" class="node">
<title>Node9</title>
<g id="a_Node000009"><a xlink:href="classfabomatic_1_1_machine.xhtml#ad511c567c7cb7487d19019550c9a4e32" target="_top" xlink:title=" ">
<polygon fill="white" stroke="#666666" points="595.75,-410.88 489.75,-410.88 489.75,-380.38 595.75,-380.38 595.75,-410.88"/>
<text text-anchor="start" x="497.75" y="-397.38" font-family="Helvetica,sans-Serif" font-size="10.00">fabomatic::Machine</text>
<text text-anchor="middle" x="542.75" y="-386.12" font-family="Helvetica,sans-Serif" font-size="10.00">::getMaintenanceInfo</text>
</a>
</g>
</g>
<!-- Node3&#45;&gt;Node9 -->
<g id="edge9_Node000003_Node000009" class="edge">
<title>Node3&#45;&gt;Node9</title>
<g id="a_edge9_Node000003_Node000009"><a xlink:title=" ">
<path fill="none" stroke="#63b8ff" d="M409.21,-313.37C426.81,-329.27 455.72,-353.8 483.75,-370.62 486.18,-372.08 488.7,-373.5 491.29,-374.87"/>
<polygon fill="#63b8ff" stroke="#63b8ff" points="489.56,-377.92 500.07,-379.24 492.68,-371.65 489.56,-377.92"/>
</a>
</g>
</g>
<!-- Node10 -->
<g id="Node000010" class="node">
<title>Node10</title>
<g id="a_Node000010"><a xlink:href="classfabomatic_1_1_machine.xhtml#a3c5304fd80e0cc1c2118a59c64222d6d" target="_top" xlink:title="Returns the current power state of the machine.">
<polygon fill="white" stroke="#666666" points="592.75,-361.88 492.75,-361.88 492.75,-331.38 592.75,-331.38 592.75,-361.88"/>
<text text-anchor="start" x="500.75" y="-348.38" font-family="Helvetica,sans-Serif" font-size="10.00">fabomatic::Machine</text>
<text text-anchor="middle" x="542.75" y="-337.12" font-family="Helvetica,sans-Serif" font-size="10.00">::getPowerState</text>
</a>
</g>
</g>
<!-- Node3&#45;&gt;Node10 -->
<g id="edge10_Node000003_Node000010" class="edge">
<title>Node3&#45;&gt;Node10</title>
<g id="a_edge10_Node000003_Node000010"><a xlink:title=" ">
<path fill="none" stroke="#63b8ff" d="M440.05,-313.26C453.72,-317.75 468.8,-322.69 483.05,-327.37"/>
<polygon fill="#63b8ff" stroke="#63b8ff" points="481.73,-330.62 492.32,-330.41 483.91,-323.97 481.73,-330.62"/>
</a>
</g>
</g>
<!-- Node11 -->
<g id="Node000011" class="node">
<title>Node11</title>
<g id="a_Node000011"><a xlink:href="classfabomatic_1_1_machine.xhtml#a9c845a163660550fa779516a8be8681a" target="_top" xlink:title="Duration of the current usage, or 0s.">
<polygon fill="white" stroke="#666666" points="592.75,-312.88 492.75,-312.88 492.75,-282.38 592.75,-282.38 592.75,-312.88"/>
<text text-anchor="start" x="500.75" y="-299.38" font-family="Helvetica,sans-Serif" font-size="10.00">fabomatic::Machine</text>
<text text-anchor="middle" x="542.75" y="-288.12" font-family="Helvetica,sans-Serif" font-size="10.00">::getUsageDuration</text>
</a>
</g>
</g>
<!-- Node3&#45;&gt;Node11 -->
<g id="edge11_Node000003_Node000011" class="edge">
<title>Node3&#45;&gt;Node11</title>
<g id="a_edge11_Node000003_Node000011"><a xlink:title=" ">
<path fill="none" stroke="#63b8ff" d="M448,-297.62C458.83,-297.62 470.24,-297.62 481.23,-297.62"/>
<polygon fill="#63b8ff" stroke="#63b8ff" points="480.96,-301.13 490.96,-297.63 480.96,-294.13 480.96,-301.13"/>
</a>
</g>
</g>
<!-- Node12 -->
<g id="Node000012" class="node">
<title>Node12</title>
<g id="a_Node000012"><a xlink:href="classfabomatic_1_1_machine.xhtml#a4b40dcb31af466acc85f66c845516c82" target="_top" xlink:title=" ">
<polygon fill="white" stroke="#666666" points="592.75,-263.88 492.75,-263.88 492.75,-233.38 592.75,-233.38 592.75,-263.88"/>
<text text-anchor="start" x="500.75" y="-250.38" font-family="Helvetica,sans-Serif" font-size="10.00">fabomatic::Machine</text>
<text text-anchor="middle" x="542.75" y="-239.12" font-family="Helvetica,sans-Serif" font-size="10.00">::isAllowed</text>
</a>
</g>
</g>
<!-- Node3&#45;&gt;Node12 -->
<g id="edge12_Node000003_Node000012" class="edge">
<title>Node3&#45;&gt;Node12</title>
<g id="a_edge12_Node000003_Node000012"><a xlink:title=" ">
<path fill="none" stroke="#63b8ff" d="M440.05,-281.99C453.72,-277.5 468.8,-272.56 483.05,-267.88"/>
<polygon fill="#63b8ff" stroke="#63b8ff" points="483.91,-271.28 492.32,-264.84 481.73,-264.63 483.91,-271.28"/>
</a>
</g>
</g>
<!-- Node13 -->
<g id="Node000013" class="node">
<title>Node13</title>
<g id="a_Node000013"><a xlink:href="classfabomatic_1_1_machine.xhtml#a9fd614d86b6108a5a7b54fc9eee0d9a6" target="_top" xlink:title="Indicates if the machine has been configured.">
<polygon fill="white" stroke="#666666" points="592.75,-214.88 492.75,-214.88 492.75,-184.38 592.75,-184.38 592.75,-214.88"/>
<text text-anchor="start" x="500.75" y="-201.38" font-family="Helvetica,sans-Serif" font-size="10.00">fabomatic::Machine</text>
<text text-anchor="middle" x="542.75" y="-190.12" font-family="Helvetica,sans-Serif" font-size="10.00">::isConfigured</text>
</a>
</g>
</g>
<!-- Node3&#45;&gt;Node13 -->
<g id="edge13_Node000003_Node000013" class="edge">
<title>Node3&#45;&gt;Node13</title>
<g id="a_edge13_Node000003_Node000013"><a xlink:title=" ">
<path fill="none" stroke="#63b8ff" d="M409.21,-281.88C426.81,-265.98 455.72,-241.45 483.75,-224.62 486.18,-223.17 488.7,-221.75 491.29,-220.38"/>
<polygon fill="#63b8ff" stroke="#63b8ff" points="492.68,-223.6 500.07,-216.01 489.56,-217.33 492.68,-223.6"/>
</a>
</g>
</g>
<!-- Node14 -->
<g id="Node000014" class="node">
<title>Node14</title>
<g id="a_Node000014"><a xlink:href="classfabomatic_1_1_machine.xhtml#a34b0deb04494137cf321e94d50dedf90" target="_top" xlink:title=" ">
<polygon fill="white" stroke="#666666" points="601.38,-165.88 484.12,-165.88 484.12,-135.38 601.38,-135.38 601.38,-165.88"/>
<text text-anchor="start" x="492.12" y="-152.38" font-family="Helvetica,sans-Serif" font-size="10.00">fabomatic::Machine</text>
<text text-anchor="middle" x="542.75" y="-141.12" font-family="Helvetica,sans-Serif" font-size="10.00">::isMaintenanceNeeded</text>
</a>
</g>
</g>
<!-- Node3&#45;&gt;Node14 -->
<g id="edge14_Node000003_Node000014" class="edge">
<title>Node3&#45;&gt;Node14</title>
<g id="a_edge14_Node000003_Node000014"><a xlink:title=" ">
<path fill="none" stroke="#63b8ff" d="M400.46,-282.08C414.37,-256.69 445.09,-206.09 483.75,-175.62 485.43,-174.3 487.19,-173.03 489.01,-171.82"/>
<polygon fill="#63b8ff" stroke="#63b8ff" points="490.35,-175.09 497.18,-167 486.79,-169.07 490.35,-175.09"/>
</a>
</g>
</g>
<!-- Node15 -->
<g id="Node000015" class="node">
<title>Node15</title>
<g id="a_Node000015"><a xlink:href="classfabomatic_1_1_fab_backend.xhtml#aef092e0e1db0c3539d5474fad2456255" target="_top" xlink:title="Checks if the client is online.">
<polygon fill="white" stroke="#666666" points="601.75,-116.88 483.75,-116.88 483.75,-86.38 601.75,-86.38 601.75,-116.88"/>
<text text-anchor="start" x="491.75" y="-103.38" font-family="Helvetica,sans-Serif" font-size="10.00">fabomatic::FabBackend</text>
<text text-anchor="middle" x="542.75" y="-92.12" font-family="Helvetica,sans-Serif" font-size="10.00">::isOnline</text>
</a>
</g>
</g>
<!-- Node3&#45;&gt;Node15 -->
<g id="edge15_Node000003_Node000015" class="edge">
<title>Node3&#45;&gt;Node15</title>
<g id="a_edge15_Node000003_Node000015"><a xlink:title=" ">
<path fill="none" stroke="#63b8ff" d="M396.84,-281.97C407,-248.97 434.82,-171.62 483.75,-126.62 484.96,-125.51 486.23,-124.44 487.54,-123.42"/>
<polygon fill="#63b8ff" stroke="#63b8ff" points="489.14,-126.56 495.52,-118.1 485.25,-120.74 489.14,-126.56"/>
</a>
</g>
</g>
<!-- Node16 -->
<g id="Node000016" class="node">
<title>Node16</title>
<g id="a_Node000016"><a xlink:href="classfabomatic_1_1_machine.xhtml#a871958cc57845c8651cf1058ed9b30e4" target="_top" xlink:title="Indicates if the machine will power down in less than BEEP_REMAINING_MINUTES.">
<polygon fill="white" stroke="#666666" points="598.75,-67.88 486.75,-67.88 486.75,-37.38 598.75,-37.38 598.75,-67.88"/>
<text text-anchor="start" x="494.75" y="-54.38" font-family="Helvetica,sans-Serif" font-size="10.00">fabomatic::Machine</text>
<text text-anchor="middle" x="542.75" y="-43.12" font-family="Helvetica,sans-Serif" font-size="10.00">::isShutdownImminent</text>
</a>
</g>
</g>
<!-- Node3&#45;&gt;Node16 -->
<g id="edge16_Node000003_Node000016" class="edge">
<title>Node3&#45;&gt;Node16</title>
<g id="a_edge16_Node000003_Node000016"><a xlink:title=" ">
<path fill="none" stroke="#63b8ff" d="M394.72,-282.1C401.43,-242.75 424.2,-137.97 483.75,-77.62 484.75,-76.62 485.79,-75.64 486.87,-74.71"/>
<polygon fill="#63b8ff" stroke="#63b8ff" points="488.55,-77.82 494.62,-69.13 484.46,-72.14 488.55,-77.82"/>
</a>
</g>
</g>
<!-- Node17 -->
<g id="Node000017" class="node">
<title>Node17</title>
<g id="a_Node000017"><a xlink:href="namespacefabomatic_1_1card.xhtml#aef091ec171625c69f9d4eab20ebaefec" target="_top" xlink:title="Returns a string representation of the UID.">
<polygon fill="white" stroke="#666666" points="600.62,-19.25 484.88,-19.25 484.88,0 600.62,0 600.62,-19.25"/>
<text text-anchor="middle" x="542.75" y="-5.75" font-family="Helvetica,sans-Serif" font-size="10.00">fabomatic::card::uid_str</text>
</a>
</g>
</g>
<!-- Node3&#45;&gt;Node17 -->
<g id="edge17_Node000003_Node000017" class="edge">
<title>Node3&#45;&gt;Node17</title>
<g id="a_edge17_Node000003_Node000017"><a xlink:title=" ">
<path fill="none" stroke="#63b8ff" d="M393.01,-282.07C395.73,-236.46 409.94,-101.64 483.75,-28.62 484.79,-27.6 485.88,-26.63 487.02,-25.71"/>
<polygon fill="#63b8ff" stroke="#63b8ff" points="488.72,-28.78 495.27,-20.45 484.96,-22.87 488.72,-28.78"/>
</a>
</g>
</g>
<!-- Node6 -->
<g id="Node000006" class="node">
<title>Node6</title>
<g id="a_Node000006"><a xlink:href="namespacefabomatic_1_1_tasks.xhtml#a5c20f560f5934822d39ba116a16f3ab6" target="_top" xlink:title="Wait for a delay, allowing OTA updates.">
<polygon fill="white" stroke="#666666" points="755,-552.25 637.75,-552.25 637.75,-533 755,-533 755,-552.25"/>
<text text-anchor="middle" x="696.38" y="-538.75" font-family="Helvetica,sans-Serif" font-size="10.00">fabomatic::Tasks::delay</text>
</a>
</g>
</g>
<!-- Node5&#45;&gt;Node6 -->
<g id="edge5_Node000005_Node000006" class="edge">
<title>Node5&#45;&gt;Node6</title>
<g id="a_edge5_Node000005_Node000006"><a xlink:title=" ">
<path fill="none" stroke="#63b8ff" d="M599.35,-542.62C608.08,-542.62 617.21,-542.62 626.2,-542.62"/>
<polygon fill="#63b8ff" stroke="#63b8ff" points="625.98,-546.13 635.98,-542.63 625.98,-539.13 625.98,-546.13"/>
</a>
</g>
</g>
<!-- Node6&#45;&gt;Node6 -->
<g id="edge6_Node000006_Node000006" class="edge">
<title>Node6&#45;&gt;Node6</title>
<g id="a_edge6_Node000006_Node000006"><a xlink:title=" ">
<path fill="none" stroke="#63b8ff" d="M672.32,-552.54C661.35,-561.15 669.37,-570.25 696.38,-570.25 711.56,-570.25 720.75,-567.37 723.92,-563.32"/>
<polygon fill="#63b8ff" stroke="#63b8ff" points="727.31,-562.41 720.89,-553.98 720.65,-564.57 727.31,-562.41"/>
</a>
</g>
</g>
</g>
</svg>
