<?xml version="1.0" encoding="UTF-8" standalone="no"?>
<!DOCTYPE svg PUBLIC "-//W3C//DTD SVG 1.1//EN"
 "http://www.w3.org/Graphics/SVG/1.1/DTD/svg11.dtd">
<!-- Generated by graphviz version 9.0.0 (20230911.1827)
 -->
<!-- Title: fabomatic::openConfigPortal Pages: 1 -->
<svg width="946pt" height="615pt"
 viewBox="0.00 0.00 946.25 614.88" xmlns="http://www.w3.org/2000/svg" xmlns:xlink="http://www.w3.org/1999/xlink">
<g id="graph0" class="graph" transform="scale(1 1) rotate(0) translate(4 610.88)">
<title>fabomatic::openConfigPortal</title>
<!-- Node1 -->
<g id="Node000001" class="node">
<title>Node1</title>
<g id="a_Node000001"><a xlink:title="Open the ArduinoOTA configuration portal.">
<polygon fill="#999999" stroke="#666666" points="136.75,-239.25 0,-239.25 0,-220 136.75,-220 136.75,-239.25"/>
<text text-anchor="middle" x="68.38" y="-225.75" font-family="Helvetica,sans-Serif" font-size="10.00">fabomatic::openConfigPortal</text>
</a>
</g>
</g>
<!-- Node2 -->
<g id="Node000002" class="node">
<title>Node2</title>
<g id="a_Node000002"><a xlink:href="classfabomatic_1_1_board_logic.xhtml#a3c38d7a3ed7952c6d6297efdf50ea4dd" target="_top" xlink:title="Sets the board in the state given.">
<polygon fill="white" stroke="#666666" points="474.38,-312.88 361.62,-312.88 361.62,-282.38 474.38,-282.38 474.38,-312.88"/>
<text text-anchor="start" x="369.62" y="-299.38" font-family="Helvetica,sans-Serif" font-size="10.00">fabomatic::BoardLogic</text>
<text text-anchor="middle" x="418" y="-288.12" font-family="Helvetica,sans-Serif" font-size="10.00">::changeStatus</text>
</a>
</g>
</g>
<!-- Node1&#45;&gt;Node2 -->
<g id="edge1_Node000001_Node000002" class="edge">
<title>Node1&#45;&gt;Node2</title>
<g id="a_edge1_Node000001_Node000002"><a xlink:title=" ">
<path fill="none" stroke="#63b8ff" d="M82.89,-239.55C101.86,-252.85 137.96,-275.89 172.75,-285.62 231.16,-301.97 300.45,-303.81 350.28,-302.24"/>
<polygon fill="#63b8ff" stroke="#63b8ff" points="350.19,-305.75 360.05,-301.87 349.92,-298.75 350.19,-305.75"/>
</a>
</g>
</g>
<!-- Node18 -->
<g id="Node000018" class="node">
<title>Node18</title>
<g id="a_Node000018"><a xlink:href="namespacefabomatic.xhtml#aaa30fd4002cc95e50c035f2d3dcdb44d" target="_top" xlink:title=" ">
<polygon fill="white" stroke="#666666" points="323,-276.25 172.75,-276.25 172.75,-257 323,-257 323,-276.25"/>
<text text-anchor="middle" x="247.88" y="-262.75" font-family="Helvetica,sans-Serif" font-size="10.00">fabomatic::configModeCallback</text>
</a>
</g>
</g>
<!-- Node1&#45;&gt;Node18 -->
<g id="edge18_Node000001_Node000018" class="edge">
<title>Node1&#45;&gt;Node18</title>
<g id="a_edge18_Node000001_Node000018"><a xlink:title=" ">
<path fill="none" stroke="#63b8ff" d="M117.88,-239.74C139.3,-244.2 164.7,-249.5 187.27,-254.2"/>
<polygon fill="#63b8ff" stroke="#63b8ff" points="186.45,-257.6 196.95,-256.22 187.87,-250.75 186.45,-257.6"/>
</a>
</g>
</g>
<!-- Node19 -->
<g id="Node000019" class="node">
<title>Node19</title>
<g id="a_Node000019"><a xlink:href="namespacefabomatic.xhtml#a412fca06536dbae1da1e3018a4fd03c6" target="_top" xlink:title=" ">
<polygon fill="white" stroke="#666666" points="299.75,-239.25 196,-239.25 196,-220 299.75,-220 299.75,-239.25"/>
<text text-anchor="middle" x="247.88" y="-225.75" font-family="Helvetica,sans-Serif" font-size="10.00">fabomatic::getConfig</text>
</a>
</g>
</g>
<!-- Node1&#45;&gt;Node19 -->
<g id="edge20_Node000001_Node000019" class="edge">
<title>Node1&#45;&gt;Node19</title>
<g id="a_edge20_Node000001_Node000019"><a xlink:title=" ">
<path fill="none" stroke="#63b8ff" d="M137.24,-229.62C152.68,-229.62 169.02,-229.62 184.23,-229.62"/>
<polygon fill="#63b8ff" stroke="#63b8ff" points="184.1,-233.13 194.1,-229.63 184.1,-226.13 184.1,-233.13"/>
</a>
</g>
</g>
<!-- Node23 -->
<g id="Node000023" class="node">
<title>Node23</title>
<g id="a_Node000023"><a xlink:href="namespacefabomatic.xhtml#a4fdef03704e4c9526605a43b8dd6549e" target="_top" xlink:title=" ">
<polygon fill="white" stroke="#666666" points="322.25,-202.25 173.5,-202.25 173.5,-183 322.25,-183 322.25,-202.25"/>
<text text-anchor="middle" x="247.88" y="-188.75" font-family="Helvetica,sans-Serif" font-size="10.00">fabomatic::saveConfigCallback</text>
</a>
</g>
</g>
<!-- Node1&#45;&gt;Node23 -->
<g id="edge24_Node000001_Node000023" class="edge">
<title>Node1&#45;&gt;Node23</title>
<g id="a_edge24_Node000001_Node000023"><a xlink:title=" ">
<path fill="none" stroke="#63b8ff" d="M117.88,-219.51C139.3,-215.05 164.7,-209.75 187.27,-205.05"/>
<polygon fill="#63b8ff" stroke="#63b8ff" points="187.87,-208.5 196.95,-203.03 186.45,-201.65 187.87,-208.5"/>
</a>
</g>
</g>
<!-- Node24 -->
<g id="Node000024" class="node">
<title>Node24</title>
<g id="a_Node000024"><a xlink:href="classfabomatic_1_1_board_logic.xhtml#a8e96c827d26aa04175d58d34d3f74e71" target="_top" xlink:title=" ">
<polygon fill="white" stroke="#666666" points="304.25,-164.88 191.5,-164.88 191.5,-134.38 304.25,-134.38 304.25,-164.88"/>
<text text-anchor="start" x="199.5" y="-151.38" font-family="Helvetica,sans-Serif" font-size="10.00">fabomatic::BoardLogic</text>
<text text-anchor="middle" x="247.88" y="-140.12" font-family="Helvetica,sans-Serif" font-size="10.00">::setRebootRequest</text>
</a>
</g>
</g>
<!-- Node1&#45;&gt;Node24 -->
<g id="edge25_Node000001_Node000024" class="edge">
<title>Node1&#45;&gt;Node24</title>
<g id="a_edge25_Node000001_Node000024"><a xlink:title=" ">
<path fill="none" stroke="#63b8ff" d="M85.74,-219.54C105.73,-207.5 140.86,-187.29 172.75,-173.62 176.28,-172.11 179.93,-170.64 183.64,-169.22"/>
<polygon fill="#63b8ff" stroke="#63b8ff" points="184.58,-172.61 192.77,-165.88 182.18,-166.03 184.58,-172.61"/>
</a>
</g>
</g>
<!-- Node3 -->
<g id="Node000003" class="node">
<title>Node3</title>
<g id="a_Node000003"><a xlink:href="classfabomatic_1_1_board_logic.xhtml#a47b4d515c0d3488eceb49769036bce8b" target="_top" xlink:title="Updates the LCD screen as per the current status.">
<polygon fill="white" stroke="#666666" points="628.38,-312.88 515.62,-312.88 515.62,-282.38 628.38,-282.38 628.38,-312.88"/>
<text text-anchor="start" x="523.62" y="-299.38" font-family="Helvetica,sans-Serif" font-size="10.00">fabomatic::BoardLogic</text>
<text text-anchor="middle" x="572" y="-288.12" font-family="Helvetica,sans-Serif" font-size="10.00">::updateLCD</text>
</a>
</g>
</g>
<!-- Node2&#45;&gt;Node3 -->
<g id="edge2_Node000002_Node000003" class="edge">
<title>Node2&#45;&gt;Node3</title>
<g id="a_edge2_Node000002_Node000003"><a xlink:title=" ">
<path fill="none" stroke="#63b8ff" d="M474.74,-297.62C484.24,-297.62 494.19,-297.62 503.95,-297.62"/>
<polygon fill="#63b8ff" stroke="#63b8ff" points="503.76,-301.13 513.76,-297.63 503.76,-294.13 503.76,-301.13"/>
</a>
</g>
</g>
<!-- Node4 -->
<g id="Node000004" class="node">
<title>Node4</title>
<g id="a_Node000004"><a xlink:href="classfabomatic_1_1_machine.xhtml#a39c30eaa242d5cc2ce784dbafeef87e8" target="_top" xlink:title=" ">
<polygon fill="white" stroke="#666666" points="776,-606.88 676,-606.88 676,-576.38 776,-576.38 776,-606.88"/>
<text text-anchor="start" x="684" y="-593.38" font-family="Helvetica,sans-Serif" font-size="10.00">fabomatic::Machine</text>
<text text-anchor="middle" x="726" y="-582.12" font-family="Helvetica,sans-Serif" font-size="10.00">::getActiveUser</text>
</a>
</g>
</g>
<!-- Node3&#45;&gt;Node4 -->
<g id="edge3_Node000003_Node000004" class="edge">
<title>Node3&#45;&gt;Node4</title>
<g id="a_edge3_Node000003_Node000004"><a xlink:title=" ">
<path fill="none" stroke="#63b8ff" d="M574.16,-313.2C578.3,-358.29 596.19,-490.61 667,-566.62 667.84,-567.53 668.72,-568.4 669.63,-569.24"/>
<polygon fill="#63b8ff" stroke="#63b8ff" points="667.31,-571.87 677.39,-575.12 671.53,-566.29 667.31,-571.87"/>
</a>
</g>
</g>
<!-- Node5 -->
<g id="Node000005" class="node">
<title>Node5</title>
<g id="a_Node000005"><a xlink:href="classfabomatic_1_1_board_logic.xhtml#a462b4b6149ca7bf33b699eb3181c969f" target="_top" xlink:title=" ">
<polygon fill="white" stroke="#666666" points="782.38,-557.88 669.62,-557.88 669.62,-527.38 782.38,-527.38 782.38,-557.88"/>
<text text-anchor="start" x="677.62" y="-544.38" font-family="Helvetica,sans-Serif" font-size="10.00">fabomatic::BoardLogic</text>
<text text-anchor="middle" x="726" y="-533.12" font-family="Helvetica,sans-Serif" font-size="10.00">::getLcd</text>
</a>
</g>
</g>
<!-- Node3&#45;&gt;Node5 -->
<g id="edge4_Node000003_Node000005" class="edge">
<title>Node3&#45;&gt;Node5</title>
<g id="a_edge4_Node000003_Node000005"><a xlink:title=" ">
<path fill="none" stroke="#63b8ff" d="M575.55,-313.16C582.77,-352.52 606.89,-457.32 667,-517.62 668,-518.63 669.05,-519.6 670.14,-520.53"/>
<polygon fill="#63b8ff" stroke="#63b8ff" points="667.73,-523.11 677.9,-526.09 671.81,-517.42 667.73,-523.11"/>
</a>
</g>
</g>
<!-- Node7 -->
<g id="Node000007" class="node">
<title>Node7</title>
<g id="a_Node000007"><a xlink:href="classfabomatic_1_1_board_logic.xhtml#a164e40105242d0b7c56c6b4f21155101" target="_top" xlink:title="Gets the current machine.">
<polygon fill="white" stroke="#666666" points="782.38,-508.88 669.62,-508.88 669.62,-478.38 782.38,-478.38 782.38,-508.88"/>
<text text-anchor="start" x="677.62" y="-495.38" font-family="Helvetica,sans-Serif" font-size="10.00">fabomatic::BoardLogic</text>
<text text-anchor="middle" x="726" y="-484.12" font-family="Helvetica,sans-Serif" font-size="10.00">::getMachine</text>
</a>
</g>
</g>
<!-- Node3&#45;&gt;Node7 -->
<g id="edge7_Node000003_Node000007" class="edge">
<title>Node3&#45;&gt;Node7</title>
<g id="a_edge7_Node000003_Node000007"><a xlink:title=" ">
<path fill="none" stroke="#63b8ff" d="M577.72,-313.28C588.42,-346.28 617.48,-423.63 667,-468.62 668.22,-469.73 669.49,-470.79 670.81,-471.81"/>
<polygon fill="#63b8ff" stroke="#63b8ff" points="668.53,-474.5 678.81,-477.11 672.4,-468.67 668.53,-474.5"/>
</a>
</g>
</g>
<!-- Node8 -->
<g id="Node000008" class="node">
<title>Node8</title>
<g id="a_Node000008"><a xlink:href="classfabomatic_1_1_machine.xhtml#a1637e99f2d70262d2ab26f69ed4f0e47" target="_top" xlink:title=" ">
<polygon fill="white" stroke="#666666" points="776,-459.88 676,-459.88 676,-429.38 776,-429.38 776,-459.88"/>
<text text-anchor="start" x="684" y="-446.38" font-family="Helvetica,sans-Serif" font-size="10.00">fabomatic::Machine</text>
<text text-anchor="middle" x="726" y="-435.12" font-family="Helvetica,sans-Serif" font-size="10.00">::getMachineName</text>
</a>
</g>
</g>
<!-- Node3&#45;&gt;Node8 -->
<g id="edge8_Node000003_Node000008" class="edge">
<title>Node3&#45;&gt;Node8</title>
<g id="a_edge8_Node000003_Node000008"><a xlink:title=" ">
<path fill="none" stroke="#63b8ff" d="M581.43,-313.16C595.9,-338.53 627.73,-389.11 667,-419.62 668.69,-420.94 670.46,-422.19 672.28,-423.4"/>
<polygon fill="#63b8ff" stroke="#63b8ff" points="670.08,-426.16 680.48,-428.2 673.62,-420.12 670.08,-426.16"/>
</a>
</g>
</g>
<!-- Node9 -->
<g id="Node000009" class="node">
<title>Node9</title>
<g id="a_Node000009"><a xlink:href="classfabomatic_1_1_machine.xhtml#ad511c567c7cb7487d19019550c9a4e32" target="_top" xlink:title=" ">
<polygon fill="white" stroke="#666666" points="779,-410.88 673,-410.88 673,-380.38 779,-380.38 779,-410.88"/>
<text text-anchor="start" x="681" y="-397.38" font-family="Helvetica,sans-Serif" font-size="10.00">fabomatic::Machine</text>
<text text-anchor="middle" x="726" y="-386.12" font-family="Helvetica,sans-Serif" font-size="10.00">::getMaintenanceInfo</text>
</a>
</g>
</g>
<!-- Node3&#45;&gt;Node9 -->
<g id="edge9_Node000003_Node000009" class="edge">
<title>Node3&#45;&gt;Node9</title>
<g id="a_edge9_Node000003_Node000009"><a xlink:title=" ">
<path fill="none" stroke="#63b8ff" d="M590.39,-313.33C608.56,-329.19 638.36,-353.7 667,-370.62 669.57,-372.14 672.24,-373.62 674.97,-375.05"/>
<polygon fill="#63b8ff" stroke="#63b8ff" points="673.15,-378.05 683.67,-379.32 676.24,-371.77 673.15,-378.05"/>
</a>
</g>
</g>
<!-- Node10 -->
<g id="Node000010" class="node">
<title>Node10</title>
<g id="a_Node000010"><a xlink:href="classfabomatic_1_1_machine.xhtml#a3c5304fd80e0cc1c2118a59c64222d6d" target="_top" xlink:title="Returns the current power state of the machine.">
<polygon fill="white" stroke="#666666" points="776,-361.88 676,-361.88 676,-331.38 776,-331.38 776,-361.88"/>
<text text-anchor="start" x="684" y="-348.38" font-family="Helvetica,sans-Serif" font-size="10.00">fabomatic::Machine</text>
<text text-anchor="middle" x="726" y="-337.12" font-family="Helvetica,sans-Serif" font-size="10.00">::getPowerState</text>
</a>
</g>
</g>
<!-- Node3&#45;&gt;Node10 -->
<g id="edge10_Node000003_Node000010" class="edge">
<title>Node3&#45;&gt;Node10</title>
<g id="a_edge10_Node000003_Node000010"><a xlink:title=" ">
<path fill="none" stroke="#63b8ff" d="M621.51,-313.26C635.43,-317.75 650.77,-322.69 665.27,-327.37"/>
<polygon fill="#63b8ff" stroke="#63b8ff" points="664.13,-330.68 674.73,-330.42 666.28,-324.02 664.13,-330.68"/>
</a>
</g>
</g>
<!-- Node11 -->
<g id="Node000011" class="node">
<title>Node11</title>
<g id="a_Node000011"><a xlink:href="classfabomatic_1_1_machine.xhtml#a9c845a163660550fa779516a8be8681a" target="_top" xlink:title="Duration of the current usage, or 0s.">
<polygon fill="white" stroke="#666666" points="776,-312.88 676,-312.88 676,-282.38 776,-282.38 776,-312.88"/>
<text text-anchor="start" x="684" y="-299.38" font-family="Helvetica,sans-Serif" font-size="10.00">fabomatic::Machine</text>
<text text-anchor="middle" x="726" y="-288.12" font-family="Helvetica,sans-Serif" font-size="10.00">::getUsageDuration</text>
</a>
</g>
</g>
<!-- Node3&#45;&gt;Node11 -->
<g id="edge11_Node000003_Node000011" class="edge">
<title>Node3&#45;&gt;Node11</title>
<g id="a_edge11_Node000003_Node000011"><a xlink:title=" ">
<path fill="none" stroke="#63b8ff" d="M628.74,-297.62C640.42,-297.62 652.8,-297.62 664.64,-297.62"/>
<polygon fill="#63b8ff" stroke="#63b8ff" points="664.28,-301.13 674.28,-297.63 664.28,-294.13 664.28,-301.13"/>
</a>
</g>
</g>
<!-- Node12 -->
<g id="Node000012" class="node">
<title>Node12</title>
<g id="a_Node000012"><a xlink:href="classfabomatic_1_1_machine.xhtml#a4b40dcb31af466acc85f66c845516c82" target="_top" xlink:title=" ">
<polygon fill="white" stroke="#666666" points="776,-263.88 676,-263.88 676,-233.38 776,-233.38 776,-263.88"/>
<text text-anchor="start" x="684" y="-250.38" font-family="Helvetica,sans-Serif" font-size="10.00">fabomatic::Machine</text>
<text text-anchor="middle" x="726" y="-239.12" font-family="Helvetica,sans-Serif" font-size="10.00">::isAllowed</text>
</a>
</g>
</g>
<!-- Node3&#45;&gt;Node12 -->
<g id="edge12_Node000003_Node000012" class="edge">
<title>Node3&#45;&gt;Node12</title>
<g id="a_edge12_Node000003_Node000012"><a xlink:title=" ">
<path fill="none" stroke="#63b8ff" d="M621.51,-281.99C635.43,-277.5 650.77,-272.56 665.27,-267.88"/>
<polygon fill="#63b8ff" stroke="#63b8ff" points="666.28,-271.23 674.73,-264.83 664.13,-264.57 666.28,-271.23"/>
</a>
</g>
</g>
<!-- Node13 -->
<g id="Node000013" class="node">
<title>Node13</title>
<g id="a_Node000013"><a xlink:href="classfabomatic_1_1_machine.xhtml#a9fd614d86b6108a5a7b54fc9eee0d9a6" target="_top" xlink:title="Indicates if the machine has been configured.">
<polygon fill="white" stroke="#666666" points="776,-214.88 676,-214.88 676,-184.38 776,-184.38 776,-214.88"/>
<text text-anchor="start" x="684" y="-201.38" font-family="Helvetica,sans-Serif" font-size="10.00">fabomatic::Machine</text>
<text text-anchor="middle" x="726" y="-190.12" font-family="Helvetica,sans-Serif" font-size="10.00">::isConfigured</text>
</a>
</g>
</g>
<!-- Node3&#45;&gt;Node13 -->
<g id="edge13_Node000003_Node000013" class="edge">
<title>Node3&#45;&gt;Node13</title>
<g id="a_edge13_Node000003_Node000013"><a xlink:title=" ">
<path fill="none" stroke="#63b8ff" d="M599.15,-281.99C609.39,-275.49 621.04,-267.61 631,-259.62 648.41,-245.67 648.45,-237.02 667,-224.62 669.07,-223.24 671.24,-221.9 673.46,-220.62"/>
<polygon fill="#63b8ff" stroke="#63b8ff" points="674.93,-223.8 682.12,-216.02 671.65,-217.61 674.93,-223.8"/>
</a>
</g>
</g>
<!-- Node14 -->
<g id="Node000014" class="node">
<title>Node14</title>
<g id="a_Node000014"><a xlink:href="classfabomatic_1_1_machine.xhtml#a34b0deb04494137cf321e94d50dedf90" target="_top" xlink:title=" ">
<polygon fill="white" stroke="#666666" points="784.62,-165.88 667.38,-165.88 667.38,-135.38 784.62,-135.38 784.62,-165.88"/>
<text text-anchor="start" x="675.38" y="-152.38" font-family="Helvetica,sans-Serif" font-size="10.00">fabomatic::Machine</text>
<text text-anchor="middle" x="726" y="-141.12" font-family="Helvetica,sans-Serif" font-size="10.00">::isMaintenanceNeeded</text>
</a>
</g>
</g>
<!-- Node3&#45;&gt;Node14 -->
<g id="edge14_Node000003_Node000014" class="edge">
<title>Node3&#45;&gt;Node14</title>
<g id="a_edge14_Node000003_Node000014"><a xlink:title=" ">
<path fill="none" stroke="#63b8ff" d="M603.95,-282.03C613.56,-276.04 623.57,-268.48 631,-259.62 657.1,-228.5 638.31,-204.38 667,-175.62 668,-174.62 669.05,-173.65 670.14,-172.72"/>
<polygon fill="#63b8ff" stroke="#63b8ff" points="671.81,-175.83 677.91,-167.17 667.74,-170.14 671.81,-175.83"/>
</a>
</g>
</g>
<!-- Node15 -->
<g id="Node000015" class="node">
<title>Node15</title>
<g id="a_Node000015"><a xlink:href="classfabomatic_1_1_fab_backend.xhtml#aef092e0e1db0c3539d5474fad2456255" target="_top" xlink:title="Checks if the client is online.">
<polygon fill="white" stroke="#666666" points="785,-116.88 667,-116.88 667,-86.38 785,-86.38 785,-116.88"/>
<text text-anchor="start" x="675" y="-103.38" font-family="Helvetica,sans-Serif" font-size="10.00">fabomatic::FabBackend</text>
<text text-anchor="middle" x="726" y="-92.12" font-family="Helvetica,sans-Serif" font-size="10.00">::isOnline</text>
</a>
</g>
</g>
<!-- Node3&#45;&gt;Node15 -->
<g id="edge15_Node000003_Node000015" class="edge">
<title>Node3&#45;&gt;Node15</title>
<g id="a_edge15_Node000003_Node000015"><a xlink:title=" ">
<path fill="none" stroke="#63b8ff" d="M605.6,-282.05C614.97,-276.18 624.43,-268.69 631,-259.62 666.96,-210.06 626.89,-172.9 667,-126.62 667.68,-125.85 668.38,-125.09 669.11,-124.36"/>
<polygon fill="#63b8ff" stroke="#63b8ff" points="671.02,-127.31 676.6,-118.3 666.62,-121.87 671.02,-127.31"/>
</a>
</g>
</g>
<!-- Node16 -->
<g id="Node000016" class="node">
<title>Node16</title>
<g id="a_Node000016"><a xlink:href="classfabomatic_1_1_machine.xhtml#a871958cc57845c8651cf1058ed9b30e4" target="_top" xlink:title="Indicates if the machine will power down in less than BEEP_REMAINING_MINUTES.">
<polygon fill="white" stroke="#666666" points="782,-67.88 670,-67.88 670,-37.38 782,-37.38 782,-67.88"/>
<text text-anchor="start" x="678" y="-54.38" font-family="Helvetica,sans-Serif" font-size="10.00">fabomatic::Machine</text>
<text text-anchor="middle" x="726" y="-43.12" font-family="Helvetica,sans-Serif" font-size="10.00">::isShutdownImminent</text>
</a>
</g>
</g>
<!-- Node3&#45;&gt;Node16 -->
<g id="edge16_Node000003_Node000016" class="edge">
<title>Node3&#45;&gt;Node16</title>
<g id="a_edge16_Node000003_Node000016"><a xlink:title=" ">
<path fill="none" stroke="#63b8ff" d="M606.59,-281.94C615.78,-276.14 624.88,-268.71 631,-259.62 677.08,-191.25 615.18,-141.76 667,-77.62 667.54,-76.95 668.11,-76.3 668.69,-75.66"/>
<polygon fill="#63b8ff" stroke="#63b8ff" points="670.79,-78.48 676.09,-69.3 666.23,-73.17 670.79,-78.48"/>
</a>
</g>
</g>
<!-- Node17 -->
<g id="Node000017" class="node">
<title>Node17</title>
<g id="a_Node000017"><a xlink:href="namespacefabomatic_1_1card.xhtml#aef091ec171625c69f9d4eab20ebaefec" target="_top" xlink:title="Returns a string representation of the UID.">
<polygon fill="white" stroke="#666666" points="783.88,-19.25 668.12,-19.25 668.12,0 783.88,0 783.88,-19.25"/>
<text text-anchor="middle" x="726" y="-5.75" font-family="Helvetica,sans-Serif" font-size="10.00">fabomatic::card::uid_str</text>
</a>
</g>
</g>
<!-- Node3&#45;&gt;Node17 -->
<g id="edge17_Node000003_Node000017" class="edge">
<title>Node3&#45;&gt;Node17</title>
<g id="a_edge17_Node000003_Node000017"><a xlink:title=" ">
<path fill="none" stroke="#63b8ff" d="M607.13,-281.9C616.22,-276.13 625.13,-268.73 631,-259.62 687.31,-172.3 599.71,-107.8 667,-28.62 667.68,-27.83 668.38,-27.07 669.12,-26.34"/>
<polygon fill="#63b8ff" stroke="#63b8ff" points="670.92,-29.37 676.83,-20.57 666.72,-23.76 670.92,-29.37"/>
</a>
</g>
</g>
<!-- Node6 -->
<g id="Node000006" class="node">
<title>Node6</title>
<g id="a_Node000006"><a xlink:href="namespacefabomatic_1_1_tasks.xhtml#a5c20f560f5934822d39ba116a16f3ab6" target="_top" xlink:title="Wait for a delay, allowing OTA updates.">
<polygon fill="white" stroke="#666666" points="938.25,-552.25 821,-552.25 821,-533 938.25,-533 938.25,-552.25"/>
<text text-anchor="middle" x="879.62" y="-538.75" font-family="Helvetica,sans-Serif" font-size="10.00">fabomatic::Tasks::delay</text>
</a>
</g>
</g>
<!-- Node5&#45;&gt;Node6 -->
<g id="edge5_Node000005_Node000006" class="edge">
<title>Node5&#45;&gt;Node6</title>
<g id="a_edge5_Node000005_Node000006"><a xlink:title=" ">
<path fill="none" stroke="#63b8ff" d="M782.6,-542.62C791.33,-542.62 800.46,-542.62 809.45,-542.62"/>
<polygon fill="#63b8ff" stroke="#63b8ff" points="809.23,-546.13 819.23,-542.63 809.23,-539.13 809.23,-546.13"/>
</a>
</g>
</g>
<!-- Node6&#45;&gt;Node6 -->
<g id="edge6_Node000006_Node000006" class="edge">
<title>Node6&#45;&gt;Node6</title>
<g id="a_edge6_Node000006_Node000006"><a xlink:title=" ">
<path fill="none" stroke="#63b8ff" d="M855.57,-552.54C844.6,-561.15 852.62,-570.25 879.62,-570.25 894.81,-570.25 904,-567.37 907.17,-563.32"/>
<polygon fill="#63b8ff" stroke="#63b8ff" points="910.56,-562.41 904.14,-553.98 903.9,-564.57 910.56,-562.41"/>
</a>
</g>
</g>
<!-- Node18&#45;&gt;Node2 -->
<g id="edge19_Node000018_Node000002" class="edge">
<title>Node18&#45;&gt;Node2</title>
<g id="a_edge19_Node000018_Node000002"><a xlink:title=" ">
<path fill="none" stroke="#63b8ff" d="M303.46,-276.69C318.35,-279.44 334.66,-282.44 350.14,-285.3"/>
<polygon fill="#63b8ff" stroke="#63b8ff" points="349.29,-288.7 359.76,-287.07 350.56,-281.82 349.29,-288.7"/>
</a>
</g>
</g>
<!-- Node20 -->
<g id="Node000020" class="node">
<title>Node20</title>
<g id="a_Node000020"><a xlink:href="classfabomatic_1_1_saved_config.xhtml#a3a6f62510c34ed7a4491022e4e43b9c2" target="_top" xlink:title="Returns the default configuration built from conf.hpp and secrets.hpp.">
<polygon fill="white" stroke="#666666" points="477,-250.88 359,-250.88 359,-220.38 477,-220.38 477,-250.88"/>
<text text-anchor="start" x="367" y="-237.38" font-family="Helvetica,sans-Serif" font-size="10.00">fabomatic::SavedConfig</text>
<text text-anchor="middle" x="418" y="-226.12" font-family="Helvetica,sans-Serif" font-size="10.00">::DefaultConfig</text>
</a>
</g>
</g>
<!-- Node19&#45;&gt;Node20 -->
<g id="edge21_Node000019_Node000020" class="edge">
<title>Node19&#45;&gt;Node20</title>
<g id="a_edge21_Node000019_Node000020"><a xlink:title=" ">
<path fill="none" stroke="#63b8ff" d="M300.23,-231.46C315.07,-231.99 331.53,-232.57 347.29,-233.14"/>
<polygon fill="#63b8ff" stroke="#63b8ff" points="346.98,-236.63 357.09,-233.49 347.23,-229.63 346.98,-236.63"/>
</a>
</g>
</g>
<!-- Node22 -->
<g id="Node000022" class="node">
<title>Node22</title>
<g id="a_Node000022"><a xlink:href="classfabomatic_1_1_saved_config.xhtml#aca3fe97dfa74c005d47ffef700392d99" target="_top" xlink:title="Loads the configuration from EEPROM if available and matching revision number.">
<polygon fill="white" stroke="#666666" points="477,-201.88 359,-201.88 359,-171.38 477,-171.38 477,-201.88"/>
<text text-anchor="start" x="367" y="-188.38" font-family="Helvetica,sans-Serif" font-size="10.00">fabomatic::SavedConfig</text>
<text text-anchor="middle" x="418" y="-177.12" font-family="Helvetica,sans-Serif" font-size="10.00">::LoadFromEEPROM</text>
</a>
</g>
</g>
<!-- Node19&#45;&gt;Node22 -->
<g id="edge23_Node000019_Node000022" class="edge">
<title>Node19&#45;&gt;Node22</title>
<g id="a_edge23_Node000019_Node000022"><a xlink:title=" ">
<path fill="none" stroke="#63b8ff" d="M291.25,-219.5C301.64,-216.97 312.73,-214.24 323,-211.62 331.02,-209.58 339.42,-207.41 347.75,-205.22"/>
<polygon fill="#63b8ff" stroke="#63b8ff" points="348.39,-208.68 357.17,-202.74 346.61,-201.91 348.39,-208.68"/>
</a>
</g>
</g>
<!-- Node21 -->
<g id="Node000021" class="node">
<title>Node21</title>
<g id="a_Node000021"><a xlink:href="classfabomatic_1_1_saved_config.xhtml#a4ada414d31749dcd736a3fec3f759605" target="_top" xlink:title="Sets the machine ID (converting to string)">
<polygon fill="white" stroke="#666666" points="631,-250.88 513,-250.88 513,-220.38 631,-220.38 631,-250.88"/>
<text text-anchor="start" x="521" y="-237.38" font-family="Helvetica,sans-Serif" font-size="10.00">fabomatic::SavedConfig</text>
<text text-anchor="middle" x="572" y="-226.12" font-family="Helvetica,sans-Serif" font-size="10.00">::setMachineID</text>
</a>
</g>
</g>
<!-- Node20&#45;&gt;Node21 -->
<g id="edge22_Node000020_Node000021" class="edge">
<title>Node20&#45;&gt;Node21</title>
<g id="a_edge22_Node000020_Node000021"><a xlink:title=" ">
<path fill="none" stroke="#63b8ff" d="M477.33,-235.62C485.19,-235.62 493.3,-235.62 501.33,-235.62"/>
<polygon fill="#63b8ff" stroke="#63b8ff" points="501.06,-239.13 511.06,-235.63 501.06,-232.13 501.06,-239.13"/>
</a>
</g>
</g>
</g>
</svg>
