<?xml version="1.0" encoding="UTF-8" standalone="no"?>
<!DOCTYPE svg PUBLIC "-//W3C//DTD SVG 1.1//EN"
 "http://www.w3.org/Graphics/SVG/1.1/DTD/svg11.dtd">
<!-- Generated by graphviz version 9.0.0 (20230911.1827)
 -->
<!-- Title: fabomatic::taskBlink Pages: 1 -->
<svg width="417pt" height="346pt"
 viewBox="0.00 0.00 416.75 345.88" xmlns="http://www.w3.org/2000/svg" xmlns:xlink="http://www.w3.org/1999/xlink">

<svg id="main" version="1.1" xmlns="http://www.w3.org/2000/svg" xmlns:xlink="http://www.w3.org/1999/xlink" xml:space="preserve" onload="init(evt)">
<style type="text/css"><![CDATA[
.node, .edge {opacity: 0.7;}
.node.selected, .edge.selected {opacity: 1;}
.edge:hover path { stroke: red; }
.edge:hover polygon { stroke: red; fill: red; }
]]></style>
<script type="application/ecmascript" xlink:href="svg.min.js"/>
<svg id="graph" class="graph">
<g id="graph0" class="graph" transform="scale(1 1) rotate(0) translate(4 341.88)">
<title>fabomatic::taskBlink</title>
<!-- Node1 -->
<g id="Node000001" class="node">
<title>Node1</title>
<g id="a_Node000001"><a xlink:title="blink led">
<polygon fill="#999999" stroke="#666666" points="103.75,-160.25 0,-160.25 0,-141 103.75,-141 103.75,-160.25"/>
<text text-anchor="middle" x="51.88" y="-146.75" font-family="Helvetica,sans-Serif" font-size="10.00">fabomatic::taskBlink</text>
</a>
</g>
</g>
<!-- Node2 -->
<g id="Node000002" class="node">
<title>Node2</title>
<g id="a_Node000002"><a xlink:href="classfabomatic_1_1_board_logic.xhtml#ad05b4db308773e56d866fe87d34022d9" target="_top" xlink:title="Blinks the LED.">
<polygon fill="white" stroke="#666666" points="252.5,-165.88 139.75,-165.88 139.75,-135.38 252.5,-135.38 252.5,-165.88"/>
<text text-anchor="start" x="147.75" y="-152.38" font-family="Helvetica,sans-Serif" font-size="10.00">fabomatic::BoardLogic</text>
<text text-anchor="middle" x="196.12" y="-141.12" font-family="Helvetica,sans-Serif" font-size="10.00">::blinkLed</text>
</a>
</g>
</g>
<!-- Node1&#45;&gt;Node2 -->
<g id="edge1_Node000001_Node000002" class="edge">
<title>Node1&#45;&gt;Node2</title>
<g id="a_edge1_Node000001_Node000002"><a xlink:title=" ">
<path fill="none" stroke="#63b8ff" d="M104.23,-150.62C112.02,-150.62 120.15,-150.62 128.21,-150.62"/>
<polygon fill="#63b8ff" stroke="#63b8ff" points="128,-154.13 138,-150.63 128,-147.13 128,-154.13"/>
</a>
</g>
</g>
<!-- Node3 -->
<g id="Node000003" class="node">
<title>Node3</title>
<g id="a_Node000003"><a xlink:href="classfabomatic_1_1_machine.xhtml#a4b40dcb31af466acc85f66c845516c82" target="_top" xlink:title=" ">
<polygon fill="white" stroke="#666666" points="398.62,-337.88 298.62,-337.88 298.62,-307.38 398.62,-307.38 398.62,-337.88"/>
<text text-anchor="start" x="306.62" y="-324.38" font-family="Helvetica,sans-Serif" font-size="10.00">fabomatic::Machine</text>
<text text-anchor="middle" x="348.62" y="-313.12" font-family="Helvetica,sans-Serif" font-size="10.00">::isAllowed</text>
</a>
</g>
</g>
<!-- Node2&#45;&gt;Node3 -->
<g id="edge2_Node000002_Node000003" class="edge">
<title>Node2&#45;&gt;Node3</title>
<g id="a_edge2_Node000002_Node000003"><a xlink:title=" ">
<path fill="none" stroke="#63b8ff" d="M202.99,-166.1C214.87,-195.53 244.42,-259.94 288.5,-297.62 289.93,-298.84 291.42,-300.01 292.97,-301.13"/>
<polygon fill="#63b8ff" stroke="#63b8ff" points="290.7,-303.83 301.03,-306.18 294.41,-297.9 290.7,-303.83"/>
</a>
</g>
</g>
<!-- Node4 -->
<g id="Node000004" class="node">
<title>Node4</title>
<g id="a_Node000004"><a xlink:href="classfabomatic_1_1_machine.xhtml#a74aa0b2cd34205ba57710affc56f5c3c" target="_top" xlink:title="Indicates is the machine is not used by anybody.">
<polygon fill="white" stroke="#666666" points="398.62,-288.88 298.62,-288.88 298.62,-258.38 398.62,-258.38 398.62,-288.88"/>
<text text-anchor="start" x="306.62" y="-275.38" font-family="Helvetica,sans-Serif" font-size="10.00">fabomatic::Machine</text>
<text text-anchor="middle" x="348.62" y="-264.12" font-family="Helvetica,sans-Serif" font-size="10.00">::isFree</text>
</a>
</g>
</g>
<!-- Node2&#45;&gt;Node4 -->
<g id="edge3_Node000002_Node000004" class="edge">
<title>Node2&#45;&gt;Node4</title>
<g id="a_edge3_Node000002_Node000004"><a xlink:title=" ">
<path fill="none" stroke="#63b8ff" d="M208.22,-166.12C223.99,-187.21 254.76,-225.03 288.5,-248.62 290.5,-250.03 292.6,-251.37 294.75,-252.66"/>
<polygon fill="#63b8ff" stroke="#63b8ff" points="292.7,-255.53 303.16,-257.21 296.04,-249.37 292.7,-255.53"/>
</a>
</g>
</g>
<!-- Node5 -->
<g id="Node000005" class="node">
<title>Node5</title>
<g id="a_Node000005"><a xlink:href="classfabomatic_1_1_machine.xhtml#a34b0deb04494137cf321e94d50dedf90" target="_top" xlink:title=" ">
<polygon fill="white" stroke="#666666" points="407.25,-239.88 290,-239.88 290,-209.38 407.25,-209.38 407.25,-239.88"/>
<text text-anchor="start" x="298" y="-226.38" font-family="Helvetica,sans-Serif" font-size="10.00">fabomatic::Machine</text>
<text text-anchor="middle" x="348.62" y="-215.12" font-family="Helvetica,sans-Serif" font-size="10.00">::isMaintenanceNeeded</text>
</a>
</g>
</g>
<!-- Node2&#45;&gt;Node5 -->
<g id="edge4_Node000002_Node000005" class="edge">
<title>Node2&#45;&gt;Node5</title>
<g id="a_edge4_Node000002_Node000005"><a xlink:title=" ">
<path fill="none" stroke="#63b8ff" d="M224.78,-166.31C242.72,-176.28 266.74,-189.22 288.5,-199.62 291.82,-201.21 295.26,-202.81 298.75,-204.38"/>
<polygon fill="#63b8ff" stroke="#63b8ff" points="297.28,-207.56 307.84,-208.39 300.11,-201.15 297.28,-207.56"/>
</a>
</g>
</g>
<!-- Node6 -->
<g id="Node000006" class="node">
<title>Node6</title>
<g id="a_Node000006"><a xlink:href="classfabomatic_1_1_fab_backend.xhtml#aef092e0e1db0c3539d5474fad2456255" target="_top" xlink:title="Checks if the client is online.">
<polygon fill="white" stroke="#666666" points="407.62,-190.88 289.62,-190.88 289.62,-160.38 407.62,-160.38 407.62,-190.88"/>
<text text-anchor="start" x="297.62" y="-177.38" font-family="Helvetica,sans-Serif" font-size="10.00">fabomatic::FabBackend</text>
<text text-anchor="middle" x="348.62" y="-166.12" font-family="Helvetica,sans-Serif" font-size="10.00">::isOnline</text>
</a>
</g>
</g>
<!-- Node2&#45;&gt;Node6 -->
<g id="edge5_Node000002_Node000006" class="edge">
<title>Node2&#45;&gt;Node6</title>
<g id="a_edge5_Node000002_Node000006"><a xlink:title=" ">
<path fill="none" stroke="#63b8ff" d="M252.74,-159.86C261.01,-161.24 269.61,-162.67 278.12,-164.08"/>
<polygon fill="#63b8ff" stroke="#63b8ff" points="277.28,-167.49 287.72,-165.67 278.43,-160.58 277.28,-167.49"/>
</a>
</g>
</g>
<!-- Node7 -->
<g id="Node000007" class="node">
<title>Node7</title>
<g id="a_Node000007"><a xlink:href="classfabomatic_1_1_machine.xhtml#a871958cc57845c8651cf1058ed9b30e4" target="_top" xlink:title="Indicates if the machine will power down in less than BEEP_REMAINING_MINUTES.">
<polygon fill="white" stroke="#666666" points="404.62,-141.88 292.62,-141.88 292.62,-111.38 404.62,-111.38 404.62,-141.88"/>
<text text-anchor="start" x="300.62" y="-128.38" font-family="Helvetica,sans-Serif" font-size="10.00">fabomatic::Machine</text>
<text text-anchor="middle" x="348.62" y="-117.12" font-family="Helvetica,sans-Serif" font-size="10.00">::isShutdownImminent</text>
</a>
</g>
</g>
<!-- Node2&#45;&gt;Node7 -->
<g id="edge6_Node000002_Node000007" class="edge">
<title>Node2&#45;&gt;Node7</title>
<g id="a_edge6_Node000002_Node000007"><a xlink:title=" ">
<path fill="none" stroke="#63b8ff" d="M252.74,-141.76C261.91,-140.29 271.49,-138.77 280.9,-137.27"/>
<polygon fill="#63b8ff" stroke="#63b8ff" points="281.42,-140.73 290.75,-135.7 280.32,-133.81 281.42,-140.73"/>
</a>
</g>
</g>
<!-- Node8 -->
<g id="Node000008" class="node">
<title>Node8</title>
<g id="a_Node000008"><a xlink:href="classfabomatic_1_1_led.xhtml#ae7fd966ebaea3198dfe49b73e963e9cb" target="_top" xlink:title=" ">
<polygon fill="white" stroke="#666666" points="397.5,-93.25 299.75,-93.25 299.75,-74 397.5,-74 397.5,-93.25"/>
<text text-anchor="middle" x="348.62" y="-79.75" font-family="Helvetica,sans-Serif" font-size="10.00">fabomatic::Led::set</text>
</a>
</g>
</g>
<!-- Node2&#45;&gt;Node8 -->
<g id="edge7_Node000002_Node000008" class="edge">
<title>Node2&#45;&gt;Node8</title>
<g id="a_edge7_Node000002_Node000008"><a xlink:title=" ">
<path fill="none" stroke="#63b8ff" d="M223.72,-135.09C241.64,-125.01 266.03,-112.05 288.5,-102.62 292.86,-100.79 297.47,-99.03 302.1,-97.37"/>
<polygon fill="#63b8ff" stroke="#63b8ff" points="303.11,-100.73 311.44,-94.18 300.84,-94.1 303.11,-100.73"/>
</a>
</g>
</g>
<!-- Node9 -->
<g id="Node000009" class="node">
<title>Node9</title>
<g id="a_Node000009"><a xlink:href="classfabomatic_1_1_led.xhtml#afe933127b5e25e5972e3120bc276b599" target="_top" xlink:title=" ">
<polygon fill="white" stroke="#666666" points="408.75,-56.25 288.5,-56.25 288.5,-37 408.75,-37 408.75,-56.25"/>
<text text-anchor="middle" x="348.62" y="-42.75" font-family="Helvetica,sans-Serif" font-size="10.00">fabomatic::Led::setColor</text>
</a>
</g>
</g>
<!-- Node2&#45;&gt;Node9 -->
<g id="edge8_Node000002_Node000009" class="edge">
<title>Node2&#45;&gt;Node9</title>
<g id="a_edge8_Node000002_Node000009"><a xlink:title=" ">
<path fill="none" stroke="#63b8ff" d="M209.71,-134.99C225.98,-115.78 256.08,-83.42 288.5,-64.62 290.69,-63.36 292.97,-62.17 295.32,-61.06"/>
<polygon fill="#63b8ff" stroke="#63b8ff" points="296.6,-64.32 304.49,-57.25 293.92,-57.85 296.6,-64.32"/>
</a>
</g>
</g>
<!-- Node10 -->
<g id="Node000010" class="node">
<title>Node10</title>
<g id="a_Node000010"><a xlink:href="classfabomatic_1_1_led.xhtml#a959b8bbb2fe1acb5cbffba251bcb8c4c" target="_top" xlink:title=" ">
<polygon fill="white" stroke="#666666" points="405.38,-19.25 291.88,-19.25 291.88,0 405.38,0 405.38,-19.25"/>
<text text-anchor="middle" x="348.62" y="-5.75" font-family="Helvetica,sans-Serif" font-size="10.00">fabomatic::Led::update</text>
</a>
</g>
</g>
<!-- Node2&#45;&gt;Node10 -->
<g id="edge9_Node000002_Node000010" class="edge">
<title>Node2&#45;&gt;Node10</title>
<g id="a_edge9_Node000002_Node000010"><a xlink:title=" ">
<path fill="none" stroke="#63b8ff" d="M204.6,-134.88C217.82,-108.7 247.83,-56.27 288.5,-27.62 290.04,-26.54 291.64,-25.52 293.3,-24.56"/>
<polygon fill="#63b8ff" stroke="#63b8ff" points="294.41,-27.91 301.85,-20.37 291.33,-21.63 294.41,-27.91"/>
</a>
</g>
</g>
</g>
</svg>
</svg>

<style type='text/css'>
<![CDATA[
[data-mouse-over-selected='false'] { opacity: 0.7; }
[data-mouse-over-selected='true']  { opacity: 1.0; }
]]>
</style>
<script type="application/ecmascript"><![CDATA[
document.addEventListener('DOMContentLoaded', (event) => {
  highlightEdges();
  highlightAdjacentNodes();
});
]]></script>
</svg>
