<?xml version="1.0" encoding="UTF-8" standalone="no"?>
<!DOCTYPE svg PUBLIC "-//W3C//DTD SVG 1.1//EN"
 "http://www.w3.org/Graphics/SVG/1.1/DTD/svg11.dtd">
<!-- Generated by graphviz version 9.0.0 (20230911.1827)
 -->
<!-- Title: secrets.hpp Pages: 1 -->
<svg width="1226pt" height="359pt"
 viewBox="0.00 0.00 1225.75 358.75" xmlns="http://www.w3.org/2000/svg" xmlns:xlink="http://www.w3.org/1999/xlink">
<g id="graph0" class="graph" transform="scale(1 1) rotate(0) translate(4 354.75)">
<title>secrets.hpp</title>
<!-- Node1 -->
<g id="Node000001" class="node">
<title>Node1</title>
<g id="a_Node000001"><a xlink:title=" ">
<polygon fill="#999999" stroke="#666666" points="575.12,-350.75 508.88,-350.75 508.88,-331.5 575.12,-331.5 575.12,-350.75"/>
<text text-anchor="middle" x="542" y="-337.25" font-family="Helvetica,sans-Serif" font-size="10.00">secrets.hpp</text>
</a>
</g>
</g>
<!-- Node2 -->
<g id="Node000002" class="node">
<title>Node2</title>
<g id="a_Node000002"><a xlink:title=" ">
<polygon fill="#e0e0e0" stroke="#999999" points="336.62,-19.25 291.38,-19.25 291.38,0 336.62,0 336.62,-19.25"/>
<text text-anchor="middle" x="314" y="-5.75" font-family="Helvetica,sans-Serif" font-size="10.00">cstdint</text>
</a>
</g>
</g>
<!-- Node1&#45;&gt;Node2 -->
<g id="edge1_Node000001_Node000002" class="edge">
<title>Node1&#45;&gt;Node2</title>
<g id="a_edge1_Node000001_Node000002"><a xlink:title=" ">
<path fill="none" stroke="#63b8ff" d="M508.5,-340.58C390.34,-341.32 0,-335.87 0,-231.62 0,-231.62 0,-231.62 0,-119.12 0,-83.35 18.34,-73.7 49,-55.25 87.4,-32.15 217.41,-18.59 279.91,-13.26"/>
<polygon fill="#63b8ff" stroke="#63b8ff" points="279.92,-16.77 289.6,-12.46 279.34,-9.79 279.92,-16.77"/>
</a>
</g>
</g>
<!-- Node3 -->
<g id="Node000003" class="node">
<title>Node3</title>
<g id="a_Node000003"><a xlink:title=" ">
<polygon fill="#e0e0e0" stroke="#999999" points="894.5,-19.25 857.5,-19.25 857.5,0 894.5,0 894.5,-19.25"/>
<text text-anchor="middle" x="876" y="-5.75" font-family="Helvetica,sans-Serif" font-size="10.00">array</text>
</a>
</g>
</g>
<!-- Node1&#45;&gt;Node3 -->
<g id="edge2_Node000001_Node000003" class="edge">
<title>Node1&#45;&gt;Node3</title>
<g id="a_edge2_Node000001_Node000003"><a xlink:title=" ">
<path fill="none" stroke="#63b8ff" d="M575.38,-337.47C699.05,-327.2 1124,-287.83 1124,-231.62 1124,-231.62 1124,-231.62 1124,-119.12 1124,-24.89 971.85,-11.71 905.9,-10.43"/>
<polygon fill="#63b8ff" stroke="#63b8ff" points="906.19,-6.93 896.15,-10.32 906.12,-13.93 906.19,-6.93"/>
</a>
</g>
</g>
<!-- Node4 -->
<g id="Node000004" class="node">
<title>Node4</title>
<g id="a_Node000004"><a xlink:title=" ">
<polygon fill="#e0e0e0" stroke="#999999" points="1217.75,-295.5 1152.25,-295.5 1152.25,-276.25 1217.75,-276.25 1217.75,-295.5"/>
<text text-anchor="middle" x="1185" y="-282" font-family="Helvetica,sans-Serif" font-size="10.00">string_view</text>
</a>
</g>
</g>
<!-- Node1&#45;&gt;Node4 -->
<g id="edge3_Node000001_Node000004" class="edge">
<title>Node1&#45;&gt;Node4</title>
<g id="a_edge3_Node000001_Node000004"><a xlink:title=" ">
<path fill="none" stroke="#63b8ff" d="M575.4,-338.88C666.15,-335.21 924.72,-322.97 1138,-295.5 1138.85,-295.39 1139.7,-295.28 1140.57,-295.16"/>
<polygon fill="#63b8ff" stroke="#63b8ff" points="1141.1,-298.62 1150.45,-293.63 1140.03,-291.7 1141.1,-298.62"/>
</a>
</g>
</g>
<!-- Node5 -->
<g id="Node000005" class="node">
<title>Node5</title>
<g id="a_Node000005"><a xlink:href="_machine_config_8hpp.xhtml" target="_top" xlink:title=" ">
<polygon fill="white" stroke="#666666" points="396.88,-185 299.12,-185 299.12,-165.75 396.88,-165.75 396.88,-185"/>
<text text-anchor="middle" x="348" y="-171.5" font-family="Helvetica,sans-Serif" font-size="10.00">MachineConfig.hpp</text>
</a>
</g>
</g>
<!-- Node1&#45;&gt;Node5 -->
<g id="edge4_Node000001_Node000005" class="edge">
<title>Node1&#45;&gt;Node5</title>
<g id="a_edge4_Node000001_Node000005"><a xlink:title=" ">
<path fill="none" stroke="#63b8ff" d="M508.49,-337.01C477.75,-332.54 432.61,-321.7 403,-295.5 373.09,-269.03 358.35,-222.95 352.03,-196.53"/>
<polygon fill="#63b8ff" stroke="#63b8ff" points="355.46,-195.81 349.9,-186.79 348.62,-197.31 355.46,-195.81"/>
</a>
</g>
</g>
<!-- Node12 -->
<g id="Node000012" class="node">
<title>Node12</title>
<g id="a_Node000012"><a xlink:href="conf_8hpp.xhtml" target="_top" xlink:title=" ">
<polygon fill="white" stroke="#666666" points="520.38,-129.75 467.62,-129.75 467.62,-110.5 520.38,-110.5 520.38,-129.75"/>
<text text-anchor="middle" x="494" y="-116.25" font-family="Helvetica,sans-Serif" font-size="10.00">conf.hpp</text>
</a>
</g>
</g>
<!-- Node1&#45;&gt;Node12 -->
<g id="edge42_Node000001_Node000012" class="edge">
<title>Node1&#45;&gt;Node12</title>
<g id="a_edge42_Node000001_Node000012"><a xlink:title=" ">
<path fill="none" stroke="#63b8ff" d="M525.94,-331C501.13,-315.87 454.44,-282.96 436,-240.25 419.98,-203.15 453.26,-160.87 475.72,-137.99"/>
<polygon fill="#63b8ff" stroke="#63b8ff" points="478.16,-140.51 482.87,-131.02 473.27,-135.49 478.16,-140.51"/>
</a>
</g>
</g>
<!-- Node13 -->
<g id="Node000013" class="node">
<title>Node13</title>
<g id="a_Node000013"><a xlink:href="_machine_8hpp.xhtml" target="_top" xlink:title=" ">
<polygon fill="white" stroke="#666666" points="577.38,-295.5 506.62,-295.5 506.62,-276.25 577.38,-276.25 577.38,-295.5"/>
<text text-anchor="middle" x="542" y="-282" font-family="Helvetica,sans-Serif" font-size="10.00">Machine.hpp</text>
</a>
</g>
</g>
<!-- Node1&#45;&gt;Node13 -->
<g id="edge21_Node000001_Node000013" class="edge">
<title>Node1&#45;&gt;Node13</title>
<g id="a_edge21_Node000001_Node000013"><a xlink:title=" ">
<path fill="none" stroke="#63b8ff" d="M542,-331.33C542,-324.82 542,-315.67 542,-307.37"/>
<polygon fill="#63b8ff" stroke="#63b8ff" points="545.5,-307.37 542,-297.37 538.5,-307.37 545.5,-307.37"/>
</a>
</g>
</g>
<!-- Node14 -->
<g id="Node000014" class="node">
<title>Node14</title>
<g id="a_Node000014"><a xlink:href="_fab_user_8hpp.xhtml" target="_top" xlink:title=" ">
<polygon fill="white" stroke="#666666" points="766.75,-240.25 695.25,-240.25 695.25,-221 766.75,-221 766.75,-240.25"/>
<text text-anchor="middle" x="731" y="-226.75" font-family="Helvetica,sans-Serif" font-size="10.00">FabUser.hpp</text>
</a>
</g>
</g>
<!-- Node1&#45;&gt;Node14 -->
<g id="edge43_Node000001_Node000014" class="edge">
<title>Node1&#45;&gt;Node14</title>
<g id="a_edge43_Node000001_Node000014"><a xlink:title=" ">
<path fill="none" stroke="#63b8ff" d="M557.79,-331.06C590.45,-312.31 665.68,-269.12 705.38,-246.33"/>
<polygon fill="#63b8ff" stroke="#63b8ff" points="706.88,-249.51 713.81,-241.49 703.4,-243.44 706.88,-249.51"/>
</a>
</g>
</g>
<!-- Node5&#45;&gt;Node2 -->
<g id="edge6_Node000005_Node000002" class="edge">
<title>Node5&#45;&gt;Node2</title>
<g id="a_edge6_Node000005_Node000002"><a xlink:title=" ">
<path fill="none" stroke="#63b8ff" d="M325.41,-165.25C293.92,-151.14 238.1,-120.74 215,-74.5 199.89,-44.25 245.58,-26.43 279.84,-17.61"/>
<polygon fill="#63b8ff" stroke="#63b8ff" points="280.54,-21.04 289.45,-15.3 278.91,-14.23 280.54,-21.04"/>
</a>
</g>
</g>
<!-- Node6 -->
<g id="Node000006" class="node">
<title>Node6</title>
<g id="a_Node000006"><a xlink:title=" ">
<polygon fill="#e0e0e0" stroke="#999999" points="466.62,-74.5 421.38,-74.5 421.38,-55.25 466.62,-55.25 466.62,-74.5"/>
<text text-anchor="middle" x="444" y="-61" font-family="Helvetica,sans-Serif" font-size="10.00">chrono</text>
</a>
</g>
</g>
<!-- Node5&#45;&gt;Node6 -->
<g id="edge5_Node000005_Node000006" class="edge">
<title>Node5&#45;&gt;Node6</title>
<g id="a_edge5_Node000005_Node000006"><a xlink:title=" ">
<path fill="none" stroke="#63b8ff" d="M352.16,-165.45C358.49,-152.45 371.45,-127.97 387,-110.5 396.72,-99.58 409.39,-89.36 420.31,-81.47"/>
<polygon fill="#63b8ff" stroke="#63b8ff" points="422.26,-84.37 428.47,-75.79 418.26,-78.63 422.26,-84.37"/>
</a>
</g>
</g>
<!-- Node7 -->
<g id="Node000007" class="node">
<title>Node7</title>
<g id="a_Node000007"><a xlink:title=" ">
<polygon fill="#e0e0e0" stroke="#999999" points="563,-74.5 523,-74.5 523,-55.25 563,-55.25 563,-74.5"/>
<text text-anchor="middle" x="543" y="-61" font-family="Helvetica,sans-Serif" font-size="10.00">string</text>
</a>
</g>
</g>
<!-- Node5&#45;&gt;Node7 -->
<g id="edge7_Node000005_Node000007" class="edge">
<title>Node5&#45;&gt;Node7</title>
<g id="a_edge7_Node000005_Node000007"><a xlink:title=" ">
<path fill="none" stroke="#63b8ff" d="M363.35,-165.32C384.68,-152.79 424.56,-129.55 459,-110.5 477.73,-100.14 499.02,-88.83 515.49,-80.19"/>
<polygon fill="#63b8ff" stroke="#63b8ff" points="516.95,-83.37 524.19,-75.64 513.71,-77.17 516.95,-83.37"/>
</a>
</g>
</g>
<!-- Node8 -->
<g id="Node000008" class="node">
<title>Node8</title>
<g id="a_Node000008"><a xlink:href="pins_8hpp.xhtml" target="_top" xlink:title=" ">
<polygon fill="white" stroke="#666666" points="155,-129.75 103,-129.75 103,-110.5 155,-110.5 155,-129.75"/>
<text text-anchor="middle" x="129" y="-116.25" font-family="Helvetica,sans-Serif" font-size="10.00">pins.hpp</text>
</a>
</g>
</g>
<!-- Node5&#45;&gt;Node8 -->
<g id="edge8_Node000005_Node000008" class="edge">
<title>Node5&#45;&gt;Node8</title>
<g id="a_edge8_Node000005_Node000008"><a xlink:title=" ">
<path fill="none" stroke="#63b8ff" d="M310.85,-165.34C270.56,-155.54 206.6,-139.99 166.27,-130.19"/>
<polygon fill="#63b8ff" stroke="#63b8ff" points="167.32,-126.84 156.77,-127.88 165.66,-133.64 167.32,-126.84"/>
</a>
</g>
</g>
<!-- Node11 -->
<g id="Node000011" class="node">
<title>Node11</title>
<g id="a_Node000011"><a xlink:href="_machine_i_d_8hpp.xhtml" target="_top" xlink:title=" ">
<polygon fill="white" stroke="#666666" points="403.25,-74.5 322.75,-74.5 322.75,-55.25 403.25,-55.25 403.25,-74.5"/>
<text text-anchor="middle" x="363" y="-61" font-family="Helvetica,sans-Serif" font-size="10.00">MachineID.hpp</text>
</a>
</g>
</g>
<!-- Node5&#45;&gt;Node11 -->
<g id="edge14_Node000005_Node000011" class="edge">
<title>Node5&#45;&gt;Node11</title>
<g id="a_edge14_Node000005_Node000011"><a xlink:title=" ">
<path fill="none" stroke="#63b8ff" d="M347.35,-165.63C346.6,-153.26 345.86,-129.99 349,-110.5 350.34,-102.19 352.89,-93.29 355.45,-85.64"/>
<polygon fill="#63b8ff" stroke="#63b8ff" points="358.71,-86.94 358.8,-76.34 352.12,-84.57 358.71,-86.94"/>
</a>
</g>
</g>
<!-- Node5&#45;&gt;Node12 -->
<g id="edge16_Node000005_Node000012" class="edge">
<title>Node5&#45;&gt;Node12</title>
<g id="a_edge16_Node000005_Node000012"><a xlink:title=" ">
<path fill="none" stroke="#63b8ff" d="M372.77,-165.34C396.26,-156.77 431.81,-143.81 458.35,-134.13"/>
<polygon fill="#63b8ff" stroke="#63b8ff" points="459.49,-137.44 467.69,-130.72 457.1,-130.86 459.49,-137.44"/>
</a>
</g>
</g>
<!-- Node8&#45;&gt;Node2 -->
<g id="edge9_Node000008_Node000002" class="edge">
<title>Node8&#45;&gt;Node2</title>
<g id="a_edge9_Node000008_Node000002"><a xlink:title=" ">
<path fill="none" stroke="#63b8ff" d="M104.85,-110.11C77.36,-98.52 38.5,-77.24 57,-55.25 85.07,-21.88 216.36,-13.46 279.67,-11.34"/>
<polygon fill="#63b8ff" stroke="#63b8ff" points="279.62,-14.84 289.51,-11.05 279.41,-7.85 279.62,-14.84"/>
</a>
</g>
</g>
<!-- Node9 -->
<g id="Node000009" class="node">
<title>Node9</title>
<g id="a_Node000009"><a xlink:title=" ">
<polygon fill="#e0e0e0" stroke="#999999" points="167.75,-74.5 66.25,-74.5 66.25,-55.25 167.75,-55.25 167.75,-74.5"/>
<text text-anchor="middle" x="117" y="-61" font-family="Helvetica,sans-Serif" font-size="10.00">Adafruit_NeoPixel.h</text>
</a>
</g>
</g>
<!-- Node8&#45;&gt;Node9 -->
<g id="edge10_Node000008_Node000009" class="edge">
<title>Node8&#45;&gt;Node9</title>
<g id="a_edge10_Node000008_Node000009"><a xlink:title=" ">
<path fill="none" stroke="#63b8ff" d="M127.02,-110.33C125.53,-103.74 123.44,-94.46 121.55,-86.07"/>
<polygon fill="#63b8ff" stroke="#63b8ff" points="124.97,-85.32 119.36,-76.34 118.14,-86.86 124.97,-85.32"/>
</a>
</g>
</g>
<!-- Node10 -->
<g id="Node000010" class="node">
<title>Node10</title>
<g id="a_Node000010"><a xlink:href="_pins_config_8hpp.xhtml" target="_top" xlink:title=" ">
<polygon fill="white" stroke="#666666" points="304.25,-74.5 223.75,-74.5 223.75,-55.25 304.25,-55.25 304.25,-74.5"/>
<text text-anchor="middle" x="264" y="-61" font-family="Helvetica,sans-Serif" font-size="10.00">PinsConfig.hpp</text>
</a>
</g>
</g>
<!-- Node8&#45;&gt;Node10 -->
<g id="edge11_Node000008_Node000010" class="edge">
<title>Node8&#45;&gt;Node10</title>
<g id="a_edge11_Node000008_Node000010"><a xlink:title=" ">
<path fill="none" stroke="#63b8ff" d="M151.9,-110.09C173.43,-101.6 205.91,-88.79 230.38,-79.14"/>
<polygon fill="#63b8ff" stroke="#63b8ff" points="231.56,-82.43 239.58,-75.51 228.99,-75.92 231.56,-82.43"/>
</a>
</g>
</g>
<!-- Node10&#45;&gt;Node2 -->
<g id="edge12_Node000010_Node000002" class="edge">
<title>Node10&#45;&gt;Node2</title>
<g id="a_edge12_Node000010_Node000002"><a xlink:title=" ">
<path fill="none" stroke="#63b8ff" d="M272.26,-55.08C279.16,-47.73 289.22,-37.01 297.74,-27.94"/>
<polygon fill="#63b8ff" stroke="#63b8ff" points="300.23,-30.4 304.53,-20.71 295.13,-25.61 300.23,-30.4"/>
</a>
</g>
</g>
<!-- Node10&#45;&gt;Node3 -->
<g id="edge13_Node000010_Node000003" class="edge">
<title>Node10&#45;&gt;Node3</title>
<g id="a_edge13_Node000010_Node000003"><a xlink:title=" ">
<path fill="none" stroke="#63b8ff" d="M304.61,-56.55C307.78,-56.08 310.94,-55.63 314,-55.25 516.24,-29.83 761.36,-16.24 845.75,-12.05"/>
<polygon fill="#63b8ff" stroke="#63b8ff" points="845.69,-15.56 855.5,-11.57 845.34,-8.57 845.69,-15.56"/>
</a>
</g>
</g>
<!-- Node11&#45;&gt;Node2 -->
<g id="edge15_Node000011_Node000002" class="edge">
<title>Node11&#45;&gt;Node2</title>
<g id="a_edge15_Node000011_Node000002"><a xlink:title=" ">
<path fill="none" stroke="#63b8ff" d="M354.91,-55.08C348.14,-47.73 338.28,-37.01 329.94,-27.94"/>
<polygon fill="#63b8ff" stroke="#63b8ff" points="332.64,-25.71 323.29,-20.72 327.49,-30.45 332.64,-25.71"/>
</a>
</g>
</g>
<!-- Node12&#45;&gt;Node2 -->
<g id="edge17_Node000012_Node000002" class="edge">
<title>Node12&#45;&gt;Node2</title>
<g id="a_edge17_Node000012_Node000002"><a xlink:title=" ">
<path fill="none" stroke="#63b8ff" d="M494.1,-110.36C493.76,-96.66 491.03,-70.2 476,-55.25 441.93,-21.38 384.66,-12.62 348.13,-10.68"/>
<polygon fill="#63b8ff" stroke="#63b8ff" points="348.69,-7.2 338.57,-10.32 348.43,-14.19 348.69,-7.2"/>
</a>
</g>
</g>
<!-- Node12&#45;&gt;Node6 -->
<g id="edge19_Node000012_Node000006" class="edge">
<title>Node12&#45;&gt;Node6</title>
<g id="a_edge19_Node000012_Node000006"><a xlink:title=" ">
<path fill="none" stroke="#63b8ff" d="M485.74,-110.33C478.84,-102.98 468.78,-92.26 460.26,-83.19"/>
<polygon fill="#63b8ff" stroke="#63b8ff" points="462.87,-80.86 453.47,-75.96 457.77,-85.65 462.87,-80.86"/>
</a>
</g>
</g>
<!-- Node12&#45;&gt;Node7 -->
<g id="edge18_Node000012_Node000007" class="edge">
<title>Node12&#45;&gt;Node7</title>
<g id="a_edge18_Node000012_Node000007"><a xlink:title=" ">
<path fill="none" stroke="#63b8ff" d="M502.09,-110.33C508.86,-102.98 518.72,-92.26 527.06,-83.19"/>
<polygon fill="#63b8ff" stroke="#63b8ff" points="529.51,-85.7 533.71,-75.97 524.36,-80.96 529.51,-85.7"/>
</a>
</g>
</g>
<!-- Node12&#45;&gt;Node11 -->
<g id="edge20_Node000012_Node000011" class="edge">
<title>Node12&#45;&gt;Node11</title>
<g id="a_edge20_Node000012_Node000011"><a xlink:title=" ">
<path fill="none" stroke="#63b8ff" d="M471.78,-110.09C450.98,-101.64 419.65,-88.9 395.95,-79.27"/>
<polygon fill="#63b8ff" stroke="#63b8ff" points="397.32,-76.05 386.73,-75.52 394.68,-82.53 397.32,-76.05"/>
</a>
</g>
</g>
<!-- Node13&#45;&gt;Node2 -->
<g id="edge40_Node000013_Node000002" class="edge">
<title>Node13&#45;&gt;Node2</title>
<g id="a_edge40_Node000013_Node000002"><a xlink:title=" ">
<path fill="none" stroke="#63b8ff" d="M547.25,-276.09C566.44,-242.77 628.71,-122.61 572,-55.25 543.81,-21.76 412.02,-13.41 348.46,-11.32"/>
<polygon fill="#63b8ff" stroke="#63b8ff" points="348.68,-7.82 338.58,-11.03 348.47,-14.82 348.68,-7.82"/>
</a>
</g>
</g>
<!-- Node13&#45;&gt;Node3 -->
<g id="edge38_Node000013_Node000003" class="edge">
<title>Node13&#45;&gt;Node3</title>
<g id="a_edge38_Node000013_Node000003"><a xlink:title=" ">
<path fill="none" stroke="#63b8ff" d="M567.9,-275.79C604.51,-261.09 667,-228.39 667,-176.38 667,-176.38 667,-176.38 667,-119.12 667,-39.54 787.84,-18.25 845.75,-12.62"/>
<polygon fill="#63b8ff" stroke="#63b8ff" points="845.91,-16.12 855.58,-11.77 845.31,-9.15 845.91,-16.12"/>
</a>
</g>
</g>
<!-- Node13&#45;&gt;Node5 -->
<g id="edge37_Node000013_Node000005" class="edge">
<title>Node13&#45;&gt;Node5</title>
<g id="a_edge37_Node000013_Node000005"><a xlink:title=" ">
<path fill="none" stroke="#63b8ff" d="M515.95,-275.82C494,-267.75 462.09,-254.95 436,-240.25 410.88,-226.1 384.42,-206.1 367.15,-192.26"/>
<polygon fill="#63b8ff" stroke="#63b8ff" points="369.71,-189.84 359.74,-186.25 365.3,-195.27 369.71,-189.84"/>
</a>
</g>
</g>
<!-- Node13&#45;&gt;Node6 -->
<g id="edge39_Node000013_Node000006" class="edge">
<title>Node13&#45;&gt;Node6</title>
<g id="a_edge39_Node000013_Node000006"><a xlink:title=" ">
<path fill="none" stroke="#63b8ff" d="M536.73,-275.79C520.32,-247.36 470.49,-160.18 459,-129.75 453.63,-115.52 449.78,-98.76 447.33,-85.98"/>
<polygon fill="#63b8ff" stroke="#63b8ff" points="450.8,-85.49 445.6,-76.26 443.9,-86.72 450.8,-85.49"/>
</a>
</g>
</g>
<!-- Node13&#45;&gt;Node14 -->
<g id="edge22_Node000013_Node000014" class="edge">
<title>Node13&#45;&gt;Node14</title>
<g id="a_edge22_Node000013_Node000014"><a xlink:title=" ">
<path fill="none" stroke="#63b8ff" d="M574.06,-275.84C605.42,-267.01 653.39,-253.49 688.04,-243.73"/>
<polygon fill="#63b8ff" stroke="#63b8ff" points="688.65,-247.19 697.32,-241.11 686.75,-240.46 688.65,-247.19"/>
</a>
</g>
</g>
<!-- Node22 -->
<g id="Node000022" class="node">
<title>Node22</title>
<g id="a_Node000022"><a xlink:title=" ">
<polygon fill="#e0e0e0" stroke="#999999" points="494.88,-240.25 445.12,-240.25 445.12,-221 494.88,-221 494.88,-240.25"/>
<text text-anchor="middle" x="470" y="-226.75" font-family="Helvetica,sans-Serif" font-size="10.00">optional</text>
</a>
</g>
</g>
<!-- Node13&#45;&gt;Node22 -->
<g id="edge41_Node000013_Node000022" class="edge">
<title>Node13&#45;&gt;Node22</title>
<g id="a_edge41_Node000013_Node000022"><a xlink:title=" ">
<path fill="none" stroke="#63b8ff" d="M529.79,-275.84C519.17,-267.99 503.56,-256.45 490.96,-247.12"/>
<polygon fill="#63b8ff" stroke="#63b8ff" points="493.37,-244.56 483.25,-241.42 489.21,-250.19 493.37,-244.56"/>
</a>
</g>
</g>
<!-- Node14&#45;&gt;Node2 -->
<g id="edge34_Node000014_Node000002" class="edge">
<title>Node14&#45;&gt;Node2</title>
<g id="a_edge34_Node000014_Node000002"><a xlink:title=" ">
<path fill="none" stroke="#63b8ff" d="M727.61,-220.86C715.82,-191.66 673.52,-97.13 605,-55.25 562.42,-29.22 415.48,-16.94 348.17,-12.57"/>
<polygon fill="#63b8ff" stroke="#63b8ff" points="348.65,-9.1 338.45,-11.97 348.21,-16.08 348.65,-9.1"/>
</a>
</g>
</g>
<!-- Node14&#45;&gt;Node3 -->
<g id="edge33_Node000014_Node000003" class="edge">
<title>Node14&#45;&gt;Node3</title>
<g id="a_edge33_Node000014_Node000003"><a xlink:title=" ">
<path fill="none" stroke="#63b8ff" d="M767.13,-224.49C846.47,-212.39 1031.68,-179.31 1067,-129.75 1112.37,-66.08 970.2,-29.18 905.88,-16.08"/>
<polygon fill="#63b8ff" stroke="#63b8ff" points="906.82,-12.7 896.33,-14.21 905.47,-19.57 906.82,-12.7"/>
</a>
</g>
</g>
<!-- Node14&#45;&gt;Node7 -->
<g id="edge36_Node000014_Node000007" class="edge">
<title>Node14&#45;&gt;Node7</title>
<g id="a_edge36_Node000014_Node000007"><a xlink:title=" ">
<path fill="none" stroke="#63b8ff" d="M694.87,-222.25C670.22,-215.76 637.99,-204.26 615,-185 582.37,-157.68 560.56,-111.57 550.13,-85.46"/>
<polygon fill="#63b8ff" stroke="#63b8ff" points="553.4,-84.22 546.57,-76.12 546.86,-86.71 553.4,-84.22"/>
</a>
</g>
</g>
<!-- Node14&#45;&gt;Node12 -->
<g id="edge32_Node000014_Node000012" class="edge">
<title>Node14&#45;&gt;Node12</title>
<g id="a_edge32_Node000014_Node000012"><a xlink:title=" ">
<path fill="none" stroke="#63b8ff" d="M695.04,-223.18C662.89,-216.51 615.11,-204.31 577,-185 552.05,-172.36 527.12,-151.85 511.19,-137.49"/>
<polygon fill="#63b8ff" stroke="#63b8ff" points="513.75,-135.09 504.03,-130.88 509,-140.24 513.75,-135.09"/>
</a>
</g>
</g>
<!-- Node15 -->
<g id="Node000015" class="node">
<title>Node15</title>
<g id="a_Node000015"><a xlink:title=" ">
<polygon fill="#e0e0e0" stroke="#999999" points="988.25,-129.75 931.75,-129.75 931.75,-110.5 988.25,-110.5 988.25,-129.75"/>
<text text-anchor="middle" x="960" y="-116.25" font-family="Helvetica,sans-Serif" font-size="10.00">Arduino.h</text>
</a>
</g>
</g>
<!-- Node14&#45;&gt;Node15 -->
<g id="edge23_Node000014_Node000015" class="edge">
<title>Node14&#45;&gt;Node15</title>
<g id="a_edge23_Node000014_Node000015"><a xlink:title=" ">
<path fill="none" stroke="#63b8ff" d="M753.98,-220.57C775.61,-211.91 808.8,-198.23 837,-185 870.78,-169.15 908.76,-149.07 933.46,-135.7"/>
<polygon fill="#63b8ff" stroke="#63b8ff" points="935.06,-138.81 942.17,-130.96 931.71,-132.66 935.06,-138.81"/>
</a>
</g>
</g>
<!-- Node16 -->
<g id="Node000016" class="node">
<title>Node16</title>
<g id="a_Node000016"><a xlink:href="card_8hpp.xhtml" target="_top" xlink:title=" ">
<polygon fill="white" stroke="#666666" points="828.38,-185 775.62,-185 775.62,-165.75 828.38,-165.75 828.38,-185"/>
<text text-anchor="middle" x="802" y="-171.5" font-family="Helvetica,sans-Serif" font-size="10.00">card.hpp</text>
</a>
</g>
</g>
<!-- Node14&#45;&gt;Node16 -->
<g id="edge24_Node000014_Node000016" class="edge">
<title>Node14&#45;&gt;Node16</title>
<g id="a_edge24_Node000014_Node000016"><a xlink:title=" ">
<path fill="none" stroke="#63b8ff" d="M743.04,-220.59C753.41,-212.82 768.6,-201.42 780.97,-192.15"/>
<polygon fill="#63b8ff" stroke="#63b8ff" points="783.02,-194.98 788.92,-186.18 778.82,-189.38 783.02,-194.98"/>
</a>
</g>
</g>
<!-- Node17 -->
<g id="Node000017" class="node">
<title>Node17</title>
<g id="a_Node000017"><a xlink:title=" ">
<polygon fill="#e0e0e0" stroke="#999999" points="1057.62,-129.75 1006.38,-129.75 1006.38,-110.5 1057.62,-110.5 1057.62,-129.75"/>
<text text-anchor="middle" x="1032" y="-116.25" font-family="Helvetica,sans-Serif" font-size="10.00">sstream</text>
</a>
</g>
</g>
<!-- Node14&#45;&gt;Node17 -->
<g id="edge35_Node000014_Node000017" class="edge">
<title>Node14&#45;&gt;Node17</title>
<g id="a_edge35_Node000014_Node000017"><a xlink:title=" ">
<path fill="none" stroke="#63b8ff" d="M760.79,-220.57C788.86,-211.9 832.01,-198.21 869,-185 914.77,-168.65 966.97,-147.8 999.7,-134.45"/>
<polygon fill="#63b8ff" stroke="#63b8ff" points="1000.68,-137.83 1008.61,-130.81 998.03,-131.35 1000.68,-137.83"/>
</a>
</g>
</g>
<!-- Node16&#45;&gt;Node12 -->
<g id="edge28_Node000016_Node000012" class="edge">
<title>Node16&#45;&gt;Node12</title>
<g id="a_edge28_Node000016_Node000012"><a xlink:title=" ">
<path fill="none" stroke="#63b8ff" d="M775.21,-169.74C720.23,-160.24 594.57,-138.51 531.52,-127.61"/>
<polygon fill="#63b8ff" stroke="#63b8ff" points="532.45,-124.22 522,-125.97 531.26,-131.12 532.45,-124.22"/>
</a>
</g>
</g>
<!-- Node16&#45;&gt;Node15 -->
<g id="edge27_Node000016_Node000015" class="edge">
<title>Node16&#45;&gt;Node15</title>
<g id="a_edge27_Node000016_Node000015"><a xlink:title=" ">
<path fill="none" stroke="#63b8ff" d="M828.8,-165.34C854.45,-156.7 893.39,-143.57 922.19,-133.87"/>
<polygon fill="#63b8ff" stroke="#63b8ff" points="923.27,-137.2 931.63,-130.69 921.04,-130.56 923.27,-137.2"/>
</a>
</g>
</g>
<!-- Node16&#45;&gt;Node17 -->
<g id="edge25_Node000016_Node000017" class="edge">
<title>Node16&#45;&gt;Node17</title>
<g id="a_edge25_Node000016_Node000017"><a xlink:title=" ">
<path fill="none" stroke="#63b8ff" d="M828.84,-168.38C864.49,-160.39 929.68,-145.66 995.1,-130.17"/>
<polygon fill="#63b8ff" stroke="#63b8ff" points="995.62,-133.64 1004.55,-127.93 994.01,-126.83 995.62,-133.64"/>
</a>
</g>
</g>
<!-- Node18 -->
<g id="Node000018" class="node">
<title>Node18</title>
<g id="a_Node000018"><a xlink:title=" ">
<polygon fill="#e0e0e0" stroke="#999999" points="826.88,-129.75 777.12,-129.75 777.12,-110.5 826.88,-110.5 826.88,-129.75"/>
<text text-anchor="middle" x="802" y="-116.25" font-family="Helvetica,sans-Serif" font-size="10.00">iomanip</text>
</a>
</g>
</g>
<!-- Node16&#45;&gt;Node18 -->
<g id="edge26_Node000016_Node000018" class="edge">
<title>Node16&#45;&gt;Node18</title>
<g id="a_edge26_Node000016_Node000018"><a xlink:title=" ">
<path fill="none" stroke="#63b8ff" d="M802,-165.58C802,-159.07 802,-149.92 802,-141.62"/>
<polygon fill="#63b8ff" stroke="#63b8ff" points="805.5,-141.62 802,-131.62 798.5,-141.62 805.5,-141.62"/>
</a>
</g>
</g>
<!-- Node19 -->
<g id="Node000019" class="node">
<title>Node19</title>
<g id="a_Node000019"><a xlink:href="_logging_8hpp.xhtml" target="_top" xlink:title=" ">
<polygon fill="white" stroke="#666666" points="913.25,-129.75 844.75,-129.75 844.75,-110.5 913.25,-110.5 913.25,-129.75"/>
<text text-anchor="middle" x="879" y="-116.25" font-family="Helvetica,sans-Serif" font-size="10.00">Logging.hpp</text>
</a>
</g>
</g>
<!-- Node16&#45;&gt;Node19 -->
<g id="edge29_Node000016_Node000019" class="edge">
<title>Node16&#45;&gt;Node19</title>
<g id="a_edge29_Node000016_Node000019"><a xlink:title=" ">
<path fill="none" stroke="#63b8ff" d="M815.06,-165.34C826.46,-157.46 843.23,-145.86 856.74,-136.52"/>
<polygon fill="#63b8ff" stroke="#63b8ff" points="858.4,-139.63 864.63,-131.06 854.41,-133.87 858.4,-139.63"/>
</a>
</g>
</g>
<!-- Node21 -->
<g id="Node000021" class="node">
<title>Node21</title>
<g id="a_Node000021"><a xlink:title=" ">
<polygon fill="#e0e0e0" stroke="#999999" points="758.62,-129.75 695.38,-129.75 695.38,-110.5 758.62,-110.5 758.62,-129.75"/>
<text text-anchor="middle" x="727" y="-116.25" font-family="Helvetica,sans-Serif" font-size="10.00">esp_mac.h</text>
</a>
</g>
</g>
<!-- Node16&#45;&gt;Node21 -->
<g id="edge31_Node000016_Node000021" class="edge">
<title>Node16&#45;&gt;Node21</title>
<g id="a_edge31_Node000016_Node000021"><a xlink:title=" ">
<path fill="none" stroke="#63b8ff" d="M789.28,-165.34C778.29,-157.54 762.16,-146.09 749.07,-136.79"/>
<polygon fill="#63b8ff" stroke="#63b8ff" points="751.2,-134.01 741.02,-131.08 747.15,-139.72 751.2,-134.01"/>
</a>
</g>
</g>
<!-- Node20 -->
<g id="Node000020" class="node">
<title>Node20</title>
<g id="a_Node000020"><a xlink:title=" ">
<polygon fill="#e0e0e0" stroke="#999999" points="907.62,-74.5 850.38,-74.5 850.38,-55.25 907.62,-55.25 907.62,-74.5"/>
<text text-anchor="middle" x="879" y="-61" font-family="Helvetica,sans-Serif" font-size="10.00">esp_log.h</text>
</a>
</g>
</g>
<!-- Node19&#45;&gt;Node20 -->
<g id="edge30_Node000019_Node000020" class="edge">
<title>Node19&#45;&gt;Node20</title>
<g id="a_edge30_Node000019_Node000020"><a xlink:title=" ">
<path fill="none" stroke="#63b8ff" d="M879,-110.33C879,-103.82 879,-94.67 879,-86.37"/>
<polygon fill="#63b8ff" stroke="#63b8ff" points="882.5,-86.37 879,-76.37 875.5,-86.37 882.5,-86.37"/>
</a>
</g>
</g>
</g>
</svg>
