<?xml version="1.0" encoding="UTF-8" standalone="no"?>
<!DOCTYPE svg PUBLIC "-//W3C//DTD SVG 1.1//EN"
 "http://www.w3.org/Graphics/SVG/1.1/DTD/svg11.dtd">
<!-- Generated by graphviz version 9.0.0 (20230911.1827)
 -->
<!-- Title: secrets.hpp Pages: 1 -->
<!--zoomable 359 -->

<svg id="main" version="1.1" xmlns="http://www.w3.org/2000/svg" xmlns:xlink="http://www.w3.org/1999/xlink" xml:space="preserve" onload="init(evt)">
<style type="text/css"><![CDATA[
.node, .edge {opacity: 0.7;}
.node.selected, .edge.selected {opacity: 1;}
.edge:hover path { stroke: red; }
.edge:hover polygon { stroke: red; fill: red; }
]]></style>

<defs>
  <circle id="rim" cx="0" cy="0" r="7"/>
  <circle id="rim2" cx="0" cy="0" r="3.5"/>
  <g id="zoomPlus">
    <use xlink:href="#rim" fill="#404040"><set attributeName="fill" to="#808080" begin="zoomplus.mouseover" end="zoomplus.mouseout"/></use>
    <path d="M-4,0h8M0,-4v8" fill="none" stroke="white" stroke-width="1.5" pointer-events="none"/>
  </g>
  <g id="zoomMin">
    <use xlink:href="#rim" fill="#404040"><set attributeName="fill" to="#808080" begin="zoomminus.mouseover" end="zoomminus.mouseout"/></use>
    <path d="M-4,0h8" fill="none" stroke="white" stroke-width="1.5" pointer-events="none"/>
  </g>
  <g id="arrowUp" transform="translate(30 24)">
    <use xlink:href="#rim"/>
    <path pointer-events="none" fill="none" stroke="white" stroke-width="1.5" d="M0,-3.0v7 M-2.5,-0.5L0,-3.0L2.5,-0.5"/>
  </g>
  <g id="arrowRight" transform="rotate(90) translate(36 -43)">
    <use xlink:href="#rim"/>
    <path pointer-events="none" fill="none" stroke="white" stroke-width="1.5" d="M0,-3.0v7 M-2.5,-0.5L0,-3.0L2.5,-0.5"/>
  </g>
  <g id="arrowDown" transform="rotate(180) translate(-30 -48)">
    <use xlink:href="#rim"/>
    <path pointer-events="none" fill="none" stroke="white" stroke-width="1.5" d="M0,-3.0v7 M-2.5,-0.5L0,-3.0L2.5,-0.5"/>
  </g>
  <g id="arrowLeft" transform="rotate(270) translate(-36 17)">
    <use xlink:href="#rim"/>
    <path pointer-events="none" fill="none" stroke="white" stroke-width="1.5" d="M0,-3.0v7 M-2.5,-0.5L0,-3.0L2.5,-0.5"/>
  </g>
  <g id="resetDef">
    <use xlink:href="#rim2" fill="#404040"><set attributeName="fill" to="#808080" begin="reset.mouseover" end="reset.mouseout"/></use>
  </g>
</defs>
<script type="application/ecmascript">
var viewWidth = 1143;
var viewHeight = 359;
var sectionId = 'dynsection-0';
</script>
<script type="application/ecmascript" xlink:href="svg.min.js"/>
<svg id="graph" class="graph">
<g id="viewport">
<title>secrets.hpp</title>
<!-- Node1 -->
<g id="Node000001" class="node">
<title>Node1</title>
<g id="a_Node000001"><a xlink:title=" ">
<polygon fill="#999999" stroke="#666666" points="586.12,-350.75 519.88,-350.75 519.88,-331.5 586.12,-331.5 586.12,-350.75"/>
<text text-anchor="middle" x="553" y="-337.25" font-family="Helvetica,sans-Serif" font-size="10.00">secrets.hpp</text>
</a>
</g>
</g>
<!-- Node2 -->
<g id="Node000002" class="node">
<title>Node2</title>
<g id="a_Node000002"><a xlink:title=" ">
<polygon fill="#e0e0e0" stroke="#999999" points="336.62,-19.25 291.38,-19.25 291.38,0 336.62,0 336.62,-19.25"/>
<text text-anchor="middle" x="314" y="-5.75" font-family="Helvetica,sans-Serif" font-size="10.00">cstdint</text>
</a>
</g>
</g>
<!-- Node1&#45;&gt;Node2 -->
<g id="edge1_Node000001_Node000002" class="edge">
<title>Node1&#45;&gt;Node2</title>
<g id="a_edge1_Node000001_Node000002"><a xlink:title=" ">
<path fill="none" stroke="#63b8ff" d="M519.65,-340.72C400.09,-341.96 0,-338.15 0,-231.62 0,-231.62 0,-231.62 0,-119.12 0,-83.07 19.02,-73.69 50,-55.25 88.37,-32.41 217.83,-18.72 280.05,-13.31"/>
<polygon fill="#63b8ff" stroke="#63b8ff" points="280.03,-16.82 289.7,-12.49 279.44,-9.85 280.03,-16.82"/>
</a>
</g>
</g>
<!-- Node3 -->
<g id="Node000003" class="node">
<title>Node3</title>
<g id="a_Node000003"><a xlink:title=" ">
<polygon fill="#e0e0e0" stroke="#999999" points="704.5,-19.25 667.5,-19.25 667.5,0 704.5,0 704.5,-19.25"/>
<text text-anchor="middle" x="686" y="-5.75" font-family="Helvetica,sans-Serif" font-size="10.00">array</text>
</a>
</g>
</g>
<!-- Node1&#45;&gt;Node3 -->
<g id="edge2_Node000001_Node000003" class="edge">
<title>Node1&#45;&gt;Node3</title>
<g id="a_edge2_Node000001_Node000003"><a xlink:title=" ">
<path fill="none" stroke="#63b8ff" d="M586.54,-339.85C696.8,-338.04 1041,-324.93 1041,-231.62 1041,-231.62 1041,-231.62 1041,-119.12 1041,-51.33 801.25,-21.69 715.8,-13.28"/>
<polygon fill="#63b8ff" stroke="#63b8ff" points="716.38,-9.81 706.09,-12.35 715.72,-16.78 716.38,-9.81"/>
</a>
</g>
</g>
<!-- Node4 -->
<g id="Node000004" class="node">
<title>Node4</title>
<g id="a_Node000004"><a xlink:title=" ">
<polygon fill="#e0e0e0" stroke="#999999" points="1134.75,-295.5 1069.25,-295.5 1069.25,-276.25 1134.75,-276.25 1134.75,-295.5"/>
<text text-anchor="middle" x="1102" y="-282" font-family="Helvetica,sans-Serif" font-size="10.00">string_view</text>
</a>
</g>
</g>
<!-- Node1&#45;&gt;Node4 -->
<g id="edge3_Node000001_Node000004" class="edge">
<title>Node1&#45;&gt;Node4</title>
<g id="a_edge3_Node000001_Node000004"><a xlink:title=" ">
<path fill="none" stroke="#63b8ff" d="M586.61,-338.22C667.51,-333.39 879.43,-319.36 1055,-295.5 1055.99,-295.37 1056.99,-295.22 1058,-295.08"/>
<polygon fill="#63b8ff" stroke="#63b8ff" points="1058.12,-298.6 1067.44,-293.58 1057.02,-291.69 1058.12,-298.6"/>
</a>
</g>
</g>
<!-- Node5 -->
<g id="Node000005" class="node">
<title>Node5</title>
<g id="a_Node000005"><a xlink:href="_machine_config_8hpp.xhtml" target="_top" xlink:title=" ">
<polygon fill="white" stroke="#666666" points="410.88,-185 313.12,-185 313.12,-165.75 410.88,-165.75 410.88,-185"/>
<text text-anchor="middle" x="362" y="-171.5" font-family="Helvetica,sans-Serif" font-size="10.00">MachineConfig.hpp</text>
</a>
</g>
</g>
<!-- Node1&#45;&gt;Node5 -->
<g id="edge4_Node000001_Node000005" class="edge">
<title>Node1&#45;&gt;Node5</title>
<g id="a_edge4_Node000001_Node000005"><a xlink:title=" ">
<path fill="none" stroke="#63b8ff" d="M528.15,-331.02C509.14,-323.33 482.92,-311.08 463,-295.5 425.07,-265.82 391.15,-219.98 373.94,-194.69"/>
<polygon fill="#63b8ff" stroke="#63b8ff" points="376.92,-192.85 368.46,-186.48 371.1,-196.74 376.92,-192.85"/>
</a>
</g>
</g>
<!-- Node12 -->
<g id="Node000012" class="node">
<title>Node12</title>
<g id="a_Node000012"><a xlink:href="conf_8hpp.xhtml" target="_top" xlink:title=" ">
<polygon fill="white" stroke="#666666" points="520.38,-129.75 467.62,-129.75 467.62,-110.5 520.38,-110.5 520.38,-129.75"/>
<text text-anchor="middle" x="494" y="-116.25" font-family="Helvetica,sans-Serif" font-size="10.00">conf.hpp</text>
</a>
</g>
</g>
<!-- Node1&#45;&gt;Node12 -->
<g id="edge40_Node000001_Node000012" class="edge">
<title>Node1&#45;&gt;Node12</title>
<g id="a_edge40_Node000001_Node000012"><a xlink:title=" ">
<path fill="none" stroke="#63b8ff" d="M540.13,-331.13C529.77,-323.09 515.83,-310.32 509,-295.5 485.19,-243.87 488.17,-174.57 491.5,-141"/>
<polygon fill="#63b8ff" stroke="#63b8ff" points="494.93,-141.83 492.57,-131.5 487.97,-141.05 494.93,-141.83"/>
</a>
</g>
</g>
<!-- Node13 -->
<g id="Node000013" class="node">
<title>Node13</title>
<g id="a_Node000013"><a xlink:href="_machine_8hpp.xhtml" target="_top" xlink:title=" ">
<polygon fill="white" stroke="#666666" points="588.38,-295.5 517.62,-295.5 517.62,-276.25 588.38,-276.25 588.38,-295.5"/>
<text text-anchor="middle" x="553" y="-282" font-family="Helvetica,sans-Serif" font-size="10.00">Machine.hpp</text>
</a>
</g>
</g>
<!-- Node1&#45;&gt;Node13 -->
<g id="edge21_Node000001_Node000013" class="edge">
<title>Node1&#45;&gt;Node13</title>
<g id="a_edge21_Node000001_Node000013"><a xlink:title=" ">
<path fill="none" stroke="#63b8ff" d="M553,-331.33C553,-324.82 553,-315.67 553,-307.37"/>
<polygon fill="#63b8ff" stroke="#63b8ff" points="556.5,-307.37 553,-297.37 549.5,-307.37 556.5,-307.37"/>
</a>
</g>
</g>
<!-- Node14 -->
<g id="Node000014" class="node">
<title>Node14</title>
<g id="a_Node000014"><a xlink:href="_fab_user_8hpp.xhtml" target="_top" xlink:title=" ">
<polygon fill="white" stroke="#666666" points="753.75,-240.25 682.25,-240.25 682.25,-221 753.75,-221 753.75,-240.25"/>
<text text-anchor="middle" x="718" y="-226.75" font-family="Helvetica,sans-Serif" font-size="10.00">FabUser.hpp</text>
</a>
</g>
</g>
<!-- Node1&#45;&gt;Node14 -->
<g id="edge41_Node000001_Node000014" class="edge">
<title>Node1&#45;&gt;Node14</title>
<g id="a_edge41_Node000001_Node000014"><a xlink:title=" ">
<path fill="none" stroke="#63b8ff" d="M566.78,-331.06C595.12,-312.43 660.18,-269.65 695.01,-246.75"/>
<polygon fill="#63b8ff" stroke="#63b8ff" points="696.67,-249.84 703.11,-241.42 692.83,-243.99 696.67,-249.84"/>
</a>
</g>
</g>
<!-- Node5&#45;&gt;Node2 -->
<g id="edge6_Node000005_Node000002" class="edge">
<title>Node5&#45;&gt;Node2</title>
<g id="a_edge6_Node000005_Node000002"><a xlink:title=" ">
<path fill="none" stroke="#63b8ff" d="M312.89,-165.74C234.29,-150.78 86.08,-117.47 57,-74.5 52.2,-67.41 51.49,-61.8 57,-55.25 85.07,-21.88 216.36,-13.46 279.67,-11.34"/>
<polygon fill="#63b8ff" stroke="#63b8ff" points="279.62,-14.84 289.51,-11.05 279.41,-7.85 279.62,-14.84"/>
</a>
</g>
</g>
<!-- Node6 -->
<g id="Node000006" class="node">
<title>Node6</title>
<g id="a_Node000006"><a xlink:title=" ">
<polygon fill="#e0e0e0" stroke="#999999" points="466.62,-74.5 421.38,-74.5 421.38,-55.25 466.62,-55.25 466.62,-74.5"/>
<text text-anchor="middle" x="444" y="-61" font-family="Helvetica,sans-Serif" font-size="10.00">chrono</text>
</a>
</g>
</g>
<!-- Node5&#45;&gt;Node6 -->
<g id="edge5_Node000005_Node000006" class="edge">
<title>Node5&#45;&gt;Node6</title>
<g id="a_edge5_Node000005_Node000006"><a xlink:title=" ">
<path fill="none" stroke="#63b8ff" d="M363.92,-165.38C367.04,-152.29 374.2,-127.7 387,-110.5 395.56,-99 407.81,-88.89 418.76,-81.21"/>
<polygon fill="#63b8ff" stroke="#63b8ff" points="420.65,-84.15 427.05,-75.71 416.78,-78.32 420.65,-84.15"/>
</a>
</g>
</g>
<!-- Node7 -->
<g id="Node000007" class="node">
<title>Node7</title>
<g id="a_Node000007"><a xlink:title=" ">
<polygon fill="#e0e0e0" stroke="#999999" points="563,-74.5 523,-74.5 523,-55.25 563,-55.25 563,-74.5"/>
<text text-anchor="middle" x="543" y="-61" font-family="Helvetica,sans-Serif" font-size="10.00">string</text>
</a>
</g>
</g>
<!-- Node5&#45;&gt;Node7 -->
<g id="edge7_Node000005_Node000007" class="edge">
<title>Node5&#45;&gt;Node7</title>
<g id="a_edge7_Node000005_Node000007"><a xlink:title=" ">
<path fill="none" stroke="#63b8ff" d="M374.93,-165.3C393.29,-152.54 428.13,-128.81 459,-110.5 477.18,-99.72 498.17,-88.57 514.62,-80.11"/>
<polygon fill="#63b8ff" stroke="#63b8ff" points="516.04,-83.31 523.36,-75.65 512.86,-77.08 516.04,-83.31"/>
</a>
</g>
</g>
<!-- Node8 -->
<g id="Node000008" class="node">
<title>Node8</title>
<g id="a_Node000008"><a xlink:href="pins_8hpp.xhtml" target="_top" xlink:title=" ">
<polygon fill="white" stroke="#666666" points="256,-129.75 204,-129.75 204,-110.5 256,-110.5 256,-129.75"/>
<text text-anchor="middle" x="230" y="-116.25" font-family="Helvetica,sans-Serif" font-size="10.00">pins.hpp</text>
</a>
</g>
</g>
<!-- Node5&#45;&gt;Node8 -->
<g id="edge8_Node000005_Node000008" class="edge">
<title>Node5&#45;&gt;Node8</title>
<g id="a_edge8_Node000005_Node000008"><a xlink:title=" ">
<path fill="none" stroke="#63b8ff" d="M339.61,-165.34C318.56,-156.85 286.8,-144.04 262.88,-134.39"/>
<polygon fill="#63b8ff" stroke="#63b8ff" points="264.49,-131.26 253.91,-130.77 261.87,-137.76 264.49,-131.26"/>
</a>
</g>
</g>
<!-- Node11 -->
<g id="Node000011" class="node">
<title>Node11</title>
<g id="a_Node000011"><a xlink:href="_machine_i_d_8hpp.xhtml" target="_top" xlink:title=" ">
<polygon fill="white" stroke="#666666" points="403.25,-74.5 322.75,-74.5 322.75,-55.25 403.25,-55.25 403.25,-74.5"/>
<text text-anchor="middle" x="363" y="-61" font-family="Helvetica,sans-Serif" font-size="10.00">MachineID.hpp</text>
</a>
</g>
</g>
<!-- Node5&#45;&gt;Node11 -->
<g id="edge14_Node000005_Node000011" class="edge">
<title>Node5&#45;&gt;Node11</title>
<g id="a_edge14_Node000005_Node000011"><a xlink:title=" ">
<path fill="none" stroke="#63b8ff" d="M358.1,-165.33C353.26,-153 345.98,-130.19 349,-110.5 350.27,-102.18 352.81,-93.28 355.38,-85.63"/>
<polygon fill="#63b8ff" stroke="#63b8ff" points="358.64,-86.93 358.75,-76.33 352.05,-84.54 358.64,-86.93"/>
</a>
</g>
</g>
<!-- Node5&#45;&gt;Node12 -->
<g id="edge16_Node000005_Node000012" class="edge">
<title>Node5&#45;&gt;Node12</title>
<g id="a_edge16_Node000005_Node000012"><a xlink:title=" ">
<path fill="none" stroke="#63b8ff" d="M384.39,-165.34C405.44,-156.85 437.2,-144.04 461.12,-134.39"/>
<polygon fill="#63b8ff" stroke="#63b8ff" points="462.13,-137.76 470.09,-130.77 459.51,-131.26 462.13,-137.76"/>
</a>
</g>
</g>
<!-- Node8&#45;&gt;Node2 -->
<g id="edge9_Node000008_Node000002" class="edge">
<title>Node8&#45;&gt;Node2</title>
<g id="a_edge9_Node000008_Node000002"><a xlink:title=" ">
<path fill="none" stroke="#63b8ff" d="M223.88,-110.13C215.81,-97.05 203.87,-72.47 215,-55.25 229.2,-33.27 257.11,-22.01 279.68,-16.3"/>
<polygon fill="#63b8ff" stroke="#63b8ff" points="280.43,-19.72 289.42,-14.12 278.9,-12.89 280.43,-19.72"/>
</a>
</g>
</g>
<!-- Node9 -->
<g id="Node000009" class="node">
<title>Node9</title>
<g id="a_Node000009"><a xlink:title=" ">
<polygon fill="#e0e0e0" stroke="#999999" points="167.75,-74.5 66.25,-74.5 66.25,-55.25 167.75,-55.25 167.75,-74.5"/>
<text text-anchor="middle" x="117" y="-61" font-family="Helvetica,sans-Serif" font-size="10.00">Adafruit_NeoPixel.h</text>
</a>
</g>
</g>
<!-- Node8&#45;&gt;Node9 -->
<g id="edge10_Node000008_Node000009" class="edge">
<title>Node8&#45;&gt;Node9</title>
<g id="a_edge10_Node000008_Node000009"><a xlink:title=" ">
<path fill="none" stroke="#63b8ff" d="M210.83,-110.09C193.22,-101.79 166.84,-89.36 146.54,-79.79"/>
<polygon fill="#63b8ff" stroke="#63b8ff" points="148.17,-76.69 137.63,-75.6 145.19,-83.03 148.17,-76.69"/>
</a>
</g>
</g>
<!-- Node10 -->
<g id="Node000010" class="node">
<title>Node10</title>
<g id="a_Node000010"><a xlink:href="_pins_config_8hpp.xhtml" target="_top" xlink:title=" ">
<polygon fill="white" stroke="#666666" points="304.25,-74.5 223.75,-74.5 223.75,-55.25 304.25,-55.25 304.25,-74.5"/>
<text text-anchor="middle" x="264" y="-61" font-family="Helvetica,sans-Serif" font-size="10.00">PinsConfig.hpp</text>
</a>
</g>
</g>
<!-- Node8&#45;&gt;Node10 -->
<g id="edge11_Node000008_Node000010" class="edge">
<title>Node8&#45;&gt;Node10</title>
<g id="a_edge11_Node000008_Node000010"><a xlink:title=" ">
<path fill="none" stroke="#63b8ff" d="M235.61,-110.33C240.12,-103.28 246.59,-93.15 252.21,-84.33"/>
<polygon fill="#63b8ff" stroke="#63b8ff" points="255.02,-86.45 257.45,-76.13 249.12,-82.68 255.02,-86.45"/>
</a>
</g>
</g>
<!-- Node10&#45;&gt;Node2 -->
<g id="edge12_Node000010_Node000002" class="edge">
<title>Node10&#45;&gt;Node2</title>
<g id="a_edge12_Node000010_Node000002"><a xlink:title=" ">
<path fill="none" stroke="#63b8ff" d="M272.26,-55.08C279.16,-47.73 289.22,-37.01 297.74,-27.94"/>
<polygon fill="#63b8ff" stroke="#63b8ff" points="300.23,-30.4 304.53,-20.71 295.13,-25.61 300.23,-30.4"/>
</a>
</g>
</g>
<!-- Node10&#45;&gt;Node3 -->
<g id="edge13_Node000010_Node000003" class="edge">
<title>Node10&#45;&gt;Node3</title>
<g id="a_edge13_Node000010_Node000003"><a xlink:title=" ">
<path fill="none" stroke="#63b8ff" d="M304.63,-56.69C307.8,-56.18 310.95,-55.7 314,-55.25 440.98,-36.69 593.17,-20.24 656.31,-13.66"/>
<polygon fill="#63b8ff" stroke="#63b8ff" points="656.28,-17.18 665.87,-12.67 655.56,-10.22 656.28,-17.18"/>
</a>
</g>
</g>
<!-- Node11&#45;&gt;Node2 -->
<g id="edge15_Node000011_Node000002" class="edge">
<title>Node11&#45;&gt;Node2</title>
<g id="a_edge15_Node000011_Node000002"><a xlink:title=" ">
<path fill="none" stroke="#63b8ff" d="M354.91,-55.08C348.14,-47.73 338.28,-37.01 329.94,-27.94"/>
<polygon fill="#63b8ff" stroke="#63b8ff" points="332.64,-25.71 323.29,-20.72 327.49,-30.45 332.64,-25.71"/>
</a>
</g>
</g>
<!-- Node12&#45;&gt;Node2 -->
<g id="edge17_Node000012_Node000002" class="edge">
<title>Node12&#45;&gt;Node2</title>
<g id="a_edge17_Node000012_Node000002"><a xlink:title=" ">
<path fill="none" stroke="#63b8ff" d="M494.1,-110.36C493.76,-96.66 491.03,-70.2 476,-55.25 441.93,-21.38 384.66,-12.62 348.13,-10.68"/>
<polygon fill="#63b8ff" stroke="#63b8ff" points="348.69,-7.2 338.57,-10.32 348.43,-14.19 348.69,-7.2"/>
</a>
</g>
</g>
<!-- Node12&#45;&gt;Node6 -->
<g id="edge19_Node000012_Node000006" class="edge">
<title>Node12&#45;&gt;Node6</title>
<g id="a_edge19_Node000012_Node000006"><a xlink:title=" ">
<path fill="none" stroke="#63b8ff" d="M485.74,-110.33C478.84,-102.98 468.78,-92.26 460.26,-83.19"/>
<polygon fill="#63b8ff" stroke="#63b8ff" points="462.87,-80.86 453.47,-75.96 457.77,-85.65 462.87,-80.86"/>
</a>
</g>
</g>
<!-- Node12&#45;&gt;Node7 -->
<g id="edge18_Node000012_Node000007" class="edge">
<title>Node12&#45;&gt;Node7</title>
<g id="a_edge18_Node000012_Node000007"><a xlink:title=" ">
<path fill="none" stroke="#63b8ff" d="M502.09,-110.33C508.86,-102.98 518.72,-92.26 527.06,-83.19"/>
<polygon fill="#63b8ff" stroke="#63b8ff" points="529.51,-85.7 533.71,-75.97 524.36,-80.96 529.51,-85.7"/>
</a>
</g>
</g>
<!-- Node12&#45;&gt;Node11 -->
<g id="edge20_Node000012_Node000011" class="edge">
<title>Node12&#45;&gt;Node11</title>
<g id="a_edge20_Node000012_Node000011"><a xlink:title=" ">
<path fill="none" stroke="#63b8ff" d="M471.78,-110.09C450.98,-101.64 419.65,-88.9 395.95,-79.27"/>
<polygon fill="#63b8ff" stroke="#63b8ff" points="397.32,-76.05 386.73,-75.52 394.68,-82.53 397.32,-76.05"/>
</a>
</g>
</g>
<!-- Node13&#45;&gt;Node2 -->
<g id="edge39_Node000013_Node000002" class="edge">
<title>Node13&#45;&gt;Node2</title>
<g id="a_edge39_Node000013_Node000002"><a xlink:title=" ">
<path fill="none" stroke="#63b8ff" d="M555.36,-275.86C565.15,-237.62 600.66,-89.29 572,-55.25 543.81,-21.76 412.02,-13.41 348.46,-11.32"/>
<polygon fill="#63b8ff" stroke="#63b8ff" points="348.68,-7.82 338.58,-11.03 348.47,-14.82 348.68,-7.82"/>
</a>
</g>
</g>
<!-- Node13&#45;&gt;Node3 -->
<g id="edge37_Node000013_Node000003" class="edge">
<title>Node13&#45;&gt;Node3</title>
<g id="a_edge37_Node000013_Node000003"><a xlink:title=" ">
<path fill="none" stroke="#63b8ff" d="M557.43,-275.75C576.32,-236.79 650.48,-83.87 676.73,-29.74"/>
<polygon fill="#63b8ff" stroke="#63b8ff" points="679.82,-31.39 681.03,-20.87 673.52,-28.34 679.82,-31.39"/>
</a>
</g>
</g>
<!-- Node13&#45;&gt;Node5 -->
<g id="edge36_Node000013_Node000005" class="edge">
<title>Node13&#45;&gt;Node5</title>
<g id="a_edge36_Node000013_Node000005"><a xlink:title=" ">
<path fill="none" stroke="#63b8ff" d="M537.04,-275.81C504.04,-257.06 428.01,-213.87 387.89,-191.08"/>
<polygon fill="#63b8ff" stroke="#63b8ff" points="389.78,-188.13 379.36,-186.24 386.33,-194.22 389.78,-188.13"/>
</a>
</g>
</g>
<!-- Node13&#45;&gt;Node6 -->
<g id="edge38_Node000013_Node000006" class="edge">
<title>Node13&#45;&gt;Node6</title>
<g id="a_edge38_Node000013_Node000006"><a xlink:title=" ">
<path fill="none" stroke="#63b8ff" d="M546.2,-275.97C529,-253.04 483.41,-189.51 459,-129.75 453.25,-115.67 449.42,-98.91 447.07,-86.08"/>
<polygon fill="#63b8ff" stroke="#63b8ff" points="450.54,-85.61 445.44,-76.32 443.63,-86.75 450.54,-85.61"/>
</a>
</g>
</g>
<!-- Node13&#45;&gt;Node14 -->
<g id="edge22_Node000013_Node000014" class="edge">
<title>Node13&#45;&gt;Node14</title>
<g id="a_edge22_Node000013_Node000014"><a xlink:title=" ">
<path fill="none" stroke="#63b8ff" d="M580.99,-275.84C608.01,-267.12 649.16,-253.84 679.31,-244.11"/>
<polygon fill="#63b8ff" stroke="#63b8ff" points="679.99,-247.57 688.43,-241.17 677.84,-240.91 679.99,-247.57"/>
</a>
</g>
</g>
<!-- Node14&#45;&gt;Node2 -->
<g id="edge33_Node000014_Node000002" class="edge">
<title>Node14&#45;&gt;Node2</title>
<g id="a_edge33_Node000014_Node000002"><a xlink:title=" ">
<path fill="none" stroke="#63b8ff" d="M715.24,-220.88C705.57,-191.73 670.13,-97.36 605,-55.25 563.09,-28.15 415.8,-16.43 348.28,-12.39"/>
<polygon fill="#63b8ff" stroke="#63b8ff" points="348.71,-8.91 338.53,-11.83 348.31,-15.9 348.71,-8.91"/>
</a>
</g>
</g>
<!-- Node14&#45;&gt;Node3 -->
<g id="edge32_Node000014_Node000003" class="edge">
<title>Node14&#45;&gt;Node3</title>
<g id="a_edge32_Node000014_Node000003"><a xlink:title=" ">
<path fill="none" stroke="#63b8ff" d="M716.71,-220.77C711.99,-188.51 695.66,-76.76 688.93,-30.71"/>
<polygon fill="#63b8ff" stroke="#63b8ff" points="692.4,-30.24 687.49,-20.85 685.48,-31.25 692.4,-30.24"/>
</a>
</g>
</g>
<!-- Node14&#45;&gt;Node7 -->
<g id="edge35_Node000014_Node000007" class="edge">
<title>Node14&#45;&gt;Node7</title>
<g id="a_edge35_Node000014_Node000007"><a xlink:title=" ">
<path fill="none" stroke="#63b8ff" d="M683.52,-220.59C661.97,-213.6 634.67,-202.18 615,-185 582.96,-157.01 560.94,-111.19 550.31,-85.29"/>
<polygon fill="#63b8ff" stroke="#63b8ff" points="553.7,-84.36 546.78,-76.34 547.19,-86.92 553.7,-84.36"/>
</a>
</g>
</g>
<!-- Node14&#45;&gt;Node12 -->
<g id="edge31_Node000014_Node000012" class="edge">
<title>Node14&#45;&gt;Node12</title>
<g id="a_edge31_Node000014_Node000012"><a xlink:title=" ">
<path fill="none" stroke="#63b8ff" d="M681.87,-221.89C652.55,-214.76 610.68,-202.59 577,-185 552.48,-172.2 527.79,-152.05 511.79,-137.81"/>
<polygon fill="#63b8ff" stroke="#63b8ff" points="514.31,-135.38 504.56,-131.23 509.6,-140.55 514.31,-135.38"/>
</a>
</g>
</g>
<!-- Node15 -->
<g id="Node000015" class="node">
<title>Node15</title>
<g id="a_Node000015"><a xlink:title=" ">
<polygon fill="#e0e0e0" stroke="#999999" points="1013.25,-129.75 956.75,-129.75 956.75,-110.5 1013.25,-110.5 1013.25,-129.75"/>
<text text-anchor="middle" x="985" y="-116.25" font-family="Helvetica,sans-Serif" font-size="10.00">Arduino.h</text>
</a>
</g>
</g>
<!-- Node14&#45;&gt;Node15 -->
<g id="edge23_Node000014_Node000015" class="edge">
<title>Node14&#45;&gt;Node15</title>
<g id="a_edge23_Node000014_Node000015"><a xlink:title=" ">
<path fill="none" stroke="#63b8ff" d="M750.55,-220.57C778.82,-212.36 820.66,-199.37 856,-185 892.46,-170.17 932.89,-149.41 958.6,-135.63"/>
<polygon fill="#63b8ff" stroke="#63b8ff" points="960.2,-138.75 967.33,-130.91 956.87,-132.59 960.2,-138.75"/>
</a>
</g>
</g>
<!-- Node16 -->
<g id="Node000016" class="node">
<title>Node16</title>
<g id="a_Node000016"><a xlink:href="card_8hpp.xhtml" target="_top" xlink:title=" ">
<polygon fill="white" stroke="#666666" points="847.38,-185 794.62,-185 794.62,-165.75 847.38,-165.75 847.38,-185"/>
<text text-anchor="middle" x="821" y="-171.5" font-family="Helvetica,sans-Serif" font-size="10.00">card.hpp</text>
</a>
</g>
</g>
<!-- Node14&#45;&gt;Node16 -->
<g id="edge24_Node000014_Node000016" class="edge">
<title>Node14&#45;&gt;Node16</title>
<g id="a_edge24_Node000014_Node000016"><a xlink:title=" ">
<path fill="none" stroke="#63b8ff" d="M735.47,-220.59C751.31,-212.41 774.91,-200.21 793.31,-190.69"/>
<polygon fill="#63b8ff" stroke="#63b8ff" points="794.82,-193.85 802.1,-186.15 791.61,-187.63 794.82,-193.85"/>
</a>
</g>
</g>
<!-- Node17 -->
<g id="Node000017" class="node">
<title>Node17</title>
<g id="a_Node000017"><a xlink:title=" ">
<polygon fill="#e0e0e0" stroke="#999999" points="784.62,-129.75 733.38,-129.75 733.38,-110.5 784.62,-110.5 784.62,-129.75"/>
<text text-anchor="middle" x="759" y="-116.25" font-family="Helvetica,sans-Serif" font-size="10.00">sstream</text>
</a>
</g>
</g>
<!-- Node14&#45;&gt;Node17 -->
<g id="edge34_Node000014_Node000017" class="edge">
<title>Node14&#45;&gt;Node17</title>
<g id="a_edge34_Node000014_Node000017"><a xlink:title=" ">
<path fill="none" stroke="#63b8ff" d="M721.36,-220.75C727.93,-203.34 742.66,-164.37 751.62,-140.66"/>
<polygon fill="#63b8ff" stroke="#63b8ff" points="754.8,-142.13 755.06,-131.54 748.25,-139.66 754.8,-142.13"/>
</a>
</g>
</g>
<!-- Node16&#45;&gt;Node12 -->
<g id="edge28_Node000016_Node000012" class="edge">
<title>Node16&#45;&gt;Node12</title>
<g id="a_edge28_Node000016_Node000012"><a xlink:title=" ">
<path fill="none" stroke="#63b8ff" d="M794.24,-170.02C736.25,-160.57 598.84,-138.2 531.93,-127.3"/>
<polygon fill="#63b8ff" stroke="#63b8ff" points="532.6,-123.86 522.16,-125.71 531.47,-130.77 532.6,-123.86"/>
</a>
</g>
</g>
<!-- Node16&#45;&gt;Node15 -->
<g id="edge27_Node000016_Node000015" class="edge">
<title>Node16&#45;&gt;Node15</title>
<g id="a_edge27_Node000016_Node000015"><a xlink:title=" ">
<path fill="none" stroke="#63b8ff" d="M847.71,-165.7C874.47,-157.01 915.93,-143.55 946.29,-133.69"/>
<polygon fill="#63b8ff" stroke="#63b8ff" points="947.05,-137.13 955.48,-130.71 944.89,-130.47 947.05,-137.13"/>
</a>
</g>
</g>
<!-- Node16&#45;&gt;Node17 -->
<g id="edge25_Node000016_Node000017" class="edge">
<title>Node16&#45;&gt;Node17</title>
<g id="a_edge25_Node000016_Node000017"><a xlink:title=" ">
<path fill="none" stroke="#63b8ff" d="M810.48,-165.34C801.61,-157.72 788.69,-146.62 778.01,-137.45"/>
<polygon fill="#63b8ff" stroke="#63b8ff" points="780.38,-134.87 770.51,-131.01 775.82,-140.18 780.38,-134.87"/>
</a>
</g>
</g>
<!-- Node18 -->
<g id="Node000018" class="node">
<title>Node18</title>
<g id="a_Node000018"><a xlink:title=" ">
<polygon fill="#e0e0e0" stroke="#999999" points="938.88,-129.75 889.12,-129.75 889.12,-110.5 938.88,-110.5 938.88,-129.75"/>
<text text-anchor="middle" x="914" y="-116.25" font-family="Helvetica,sans-Serif" font-size="10.00">iomanip</text>
</a>
</g>
</g>
<!-- Node16&#45;&gt;Node18 -->
<g id="edge26_Node000016_Node000018" class="edge">
<title>Node16&#45;&gt;Node18</title>
<g id="a_edge26_Node000016_Node000018"><a xlink:title=" ">
<path fill="none" stroke="#63b8ff" d="M836.78,-165.34C850.94,-157.23 871.98,-145.18 888.53,-135.71"/>
<polygon fill="#63b8ff" stroke="#63b8ff" points="889.89,-138.96 896.83,-130.95 886.42,-132.89 889.89,-138.96"/>
</a>
</g>
</g>
<!-- Node19 -->
<g id="Node000019" class="node">
<title>Node19</title>
<g id="a_Node000019"><a xlink:href="_logging_8hpp.xhtml" target="_top" xlink:title=" ">
<polygon fill="white" stroke="#666666" points="871.25,-129.75 802.75,-129.75 802.75,-110.5 871.25,-110.5 871.25,-129.75"/>
<text text-anchor="middle" x="837" y="-116.25" font-family="Helvetica,sans-Serif" font-size="10.00">Logging.hpp</text>
</a>
</g>
</g>
<!-- Node16&#45;&gt;Node19 -->
<g id="edge29_Node000016_Node000019" class="edge">
<title>Node16&#45;&gt;Node19</title>
<g id="a_edge29_Node000016_Node000019"><a xlink:title=" ">
<path fill="none" stroke="#63b8ff" d="M823.64,-165.58C825.64,-158.92 828.48,-149.49 831.02,-141.03"/>
<polygon fill="#63b8ff" stroke="#63b8ff" points="834.34,-142.14 833.86,-131.56 827.64,-140.13 834.34,-142.14"/>
</a>
</g>
</g>
<!-- Node20 -->
<g id="Node000020" class="node">
<title>Node20</title>
<g id="a_Node000020"><a xlink:title=" ">
<polygon fill="#e0e0e0" stroke="#999999" points="865.62,-74.5 808.38,-74.5 808.38,-55.25 865.62,-55.25 865.62,-74.5"/>
<text text-anchor="middle" x="837" y="-61" font-family="Helvetica,sans-Serif" font-size="10.00">esp_log.h</text>
</a>
</g>
</g>
<!-- Node19&#45;&gt;Node20 -->
<g id="edge30_Node000019_Node000020" class="edge">
<title>Node19&#45;&gt;Node20</title>
<g id="a_edge30_Node000019_Node000020"><a xlink:title=" ">
<path fill="none" stroke="#63b8ff" d="M837,-110.33C837,-103.82 837,-94.67 837,-86.37"/>
<polygon fill="#63b8ff" stroke="#63b8ff" points="840.5,-86.37 837,-76.37 833.5,-86.37 840.5,-86.37"/>
</a>
</g>
</g>
</g>
</svg>

<g id="navigator" transform="translate(0 0)" fill="#404254">
  <rect fill="#f2f5e9" fill-opacity="0.5" stroke="#606060" stroke-width=".5" x="0" y="0" width="60" height="60"/>
  <use id="zoomplus" xlink:href="#zoomPlus" x="17" y="9" onmousedown="handleZoom(evt,'in')"/>
  <use id="zoomminus" xlink:href="#zoomMin" x="42" y="9" onmousedown="handleZoom(evt,'out')"/>
  <use id="reset" xlink:href="#resetDef" x="30" y="36" onmousedown="handleReset()"/>
   <use id="arrowup" xlink:href="#arrowUp" x="0" y="0" onmousedown="handlePan(0,-1)"/>
  <use id="arrowright" xlink:href="#arrowRight" x="0" y="0" onmousedown="handlePan(1,0)"/>
  <use id="arrowdown" xlink:href="#arrowDown" x="0" y="0" onmousedown="handlePan(0,1)"/>
  <use id="arrowleft" xlink:href="#arrowLeft" x="0" y="0" onmousedown="handlePan(-1,0)"/>
</g>
<svg viewBox="0 0 15 15" width="100%" height="30px" preserveAspectRatio="xMaxYMin meet">
 <g id="arrow_out" transform="scale(0.3 0.3)">
  <a xlink:href="secrets_8hpp__incl_org.svg" target="_base">
   <rect id="button" ry="5" rx="5" y="6" x="6" height="38" width="38"
        fill="#f2f5e9" fill-opacity="0.5" stroke="#606060" stroke-width="1.0"/>
   <path id="arrow"
     d="M 11.500037,31.436501 C 11.940474,20.09759 22.043105,11.32322 32.158766,21.979434 L 37.068811,17.246167 C 37.068811,17.246167 37.088388,32 37.088388,32 L 22.160133,31.978069 C 22.160133,31.978069 26.997745,27.140456 26.997745,27.140456 C 18.528582,18.264221 13.291696,25.230495 11.500037,31.436501 z"
     style="fill:#404040;"/>
  </a>
 </g>
</svg>

<style type='text/css'>
<![CDATA[
[data-mouse-over-selected='false'] { opacity: 0.7; }
[data-mouse-over-selected='true']  { opacity: 1.0; }
]]>
</style>
<script type="application/ecmascript"><![CDATA[
document.addEventListener('DOMContentLoaded', (event) => {
  highlightEdges();
  highlightAdjacentNodes();
});
]]></script>
</svg>
