<?xml version="1.0" encoding="UTF-8" standalone="no"?>
<!DOCTYPE svg PUBLIC "-//W3C//DTD SVG 1.1//EN"
 "http://www.w3.org/Graphics/SVG/1.1/DTD/svg11.dtd">
<!-- Generated by graphviz version 9.0.0 (20230911.1827)
 -->
<!-- Title: secrets.hpp Pages: 1 -->
<!--zoomable 248 -->

<svg id="main" version="1.1" xmlns="http://www.w3.org/2000/svg" xmlns:xlink="http://www.w3.org/1999/xlink" xml:space="preserve" onload="init(evt)">
<style type="text/css"><![CDATA[
.node, .edge {opacity: 0.7;}
.node.selected, .edge.selected {opacity: 1;}
.edge:hover path { stroke: red; }
.edge:hover polygon { stroke: red; fill: red; }
]]></style>

<defs>
  <circle id="rim" cx="0" cy="0" r="7"/>
  <circle id="rim2" cx="0" cy="0" r="3.5"/>
  <g id="zoomPlus">
    <use xlink:href="#rim" fill="#404040"><set attributeName="fill" to="#808080" begin="zoomplus.mouseover" end="zoomplus.mouseout"/></use>
    <path d="M-4,0h8M0,-4v8" fill="none" stroke="white" stroke-width="1.5" pointer-events="none"/>
  </g>
  <g id="zoomMin">
    <use xlink:href="#rim" fill="#404040"><set attributeName="fill" to="#808080" begin="zoomminus.mouseover" end="zoomminus.mouseout"/></use>
    <path d="M-4,0h8" fill="none" stroke="white" stroke-width="1.5" pointer-events="none"/>
  </g>
  <g id="arrowUp" transform="translate(30 24)">
    <use xlink:href="#rim"/>
    <path pointer-events="none" fill="none" stroke="white" stroke-width="1.5" d="M0,-3.0v7 M-2.5,-0.5L0,-3.0L2.5,-0.5"/>
  </g>
  <g id="arrowRight" transform="rotate(90) translate(36 -43)">
    <use xlink:href="#rim"/>
    <path pointer-events="none" fill="none" stroke="white" stroke-width="1.5" d="M0,-3.0v7 M-2.5,-0.5L0,-3.0L2.5,-0.5"/>
  </g>
  <g id="arrowDown" transform="rotate(180) translate(-30 -48)">
    <use xlink:href="#rim"/>
    <path pointer-events="none" fill="none" stroke="white" stroke-width="1.5" d="M0,-3.0v7 M-2.5,-0.5L0,-3.0L2.5,-0.5"/>
  </g>
  <g id="arrowLeft" transform="rotate(270) translate(-36 17)">
    <use xlink:href="#rim"/>
    <path pointer-events="none" fill="none" stroke="white" stroke-width="1.5" d="M0,-3.0v7 M-2.5,-0.5L0,-3.0L2.5,-0.5"/>
  </g>
  <g id="resetDef">
    <use xlink:href="#rim2" fill="#404040"><set attributeName="fill" to="#808080" begin="reset.mouseover" end="reset.mouseout"/></use>
  </g>
</defs>
<script type="application/ecmascript">
var viewWidth = 1017;
var viewHeight = 248;
var sectionId = 'dynsection-1';
</script>
<script type="application/ecmascript" xlink:href="svg.min.js"/>
<svg id="graph" class="graph">
<g id="viewport">
<title>secrets.hpp</title>
<!-- Node1 -->
<g id="Node000001" class="node">
<title>Node1</title>
<g id="a_Node000001"><a xlink:title=" ">
<polygon fill="#999999" stroke="#666666" points="596.65,-240.25 530.4,-240.25 530.4,-221 596.65,-221 596.65,-240.25"/>
<text text-anchor="middle" x="563.53" y="-226.75" font-family="Helvetica,sans-Serif" font-size="10.00">secrets.hpp</text>
</a>
</g>
</g>
<!-- Node2 -->
<g id="Node000002" class="node">
<title>Node2</title>
<g id="a_Node000002"><a xlink:href="_auth_provider_8hpp.xhtml" target="_top" xlink:title=" ">
<polygon fill="white" stroke="#666666" points="499.65,-185 409.4,-185 409.4,-165.75 499.65,-165.75 499.65,-185"/>
<text text-anchor="middle" x="454.53" y="-171.5" font-family="Helvetica,sans-Serif" font-size="10.00">AuthProvider.hpp</text>
</a>
</g>
</g>
<!-- Node1&#45;&gt;Node2 -->
<g id="edge1_Node000001_Node000002" class="edge">
<title>Node1&#45;&gt;Node2</title>
<g id="a_edge1_Node000001_Node000002"><a xlink:title=" ">
<path fill="none" stroke="#63b8ff" d="M534.87,-215.62C515.34,-206.08 490.05,-193.73 473.11,-185.45"/>
<polygon fill="#63b8ff" stroke="#63b8ff" points="533.16,-218.68 543.68,-219.93 536.23,-212.39 533.16,-218.68"/>
</a>
</g>
</g>
<!-- Node4 -->
<g id="Node000004" class="node">
<title>Node4</title>
<g id="a_Node000004"><a xlink:href="_board_logic_8cpp.xhtml" target="_top" xlink:title=" ">
<polygon fill="white" stroke="#666666" points="169.28,-74.5 85.78,-74.5 85.78,-55.25 169.28,-55.25 169.28,-74.5"/>
<text text-anchor="middle" x="127.53" y="-61" font-family="Helvetica,sans-Serif" font-size="10.00">BoardLogic.cpp</text>
</a>
</g>
</g>
<!-- Node1&#45;&gt;Node4 -->
<g id="edge19_Node000001_Node000004" class="edge">
<title>Node1&#45;&gt;Node4</title>
<g id="a_edge19_Node000001_Node000004"><a xlink:title=" ">
<path fill="none" stroke="#63b8ff" d="M519.32,-222.01C452.69,-209.36 323.77,-180.27 224.53,-129.75 192,-113.19 156.98,-88.12 139.25,-74.85"/>
<polygon fill="#63b8ff" stroke="#63b8ff" points="518.28,-225.38 528.75,-223.76 519.56,-218.49 518.28,-225.38"/>
</a>
</g>
</g>
<!-- Node5 -->
<g id="Node000005" class="node">
<title>Node5</title>
<g id="a_Node000005"><a xlink:href="_board_logic_8hpp.xhtml" target="_top" xlink:title=" ">
<polygon fill="white" stroke="#666666" points="371.28,-129.75 287.78,-129.75 287.78,-110.5 371.28,-110.5 371.28,-129.75"/>
<text text-anchor="middle" x="329.53" y="-116.25" font-family="Helvetica,sans-Serif" font-size="10.00">BoardLogic.hpp</text>
</a>
</g>
</g>
<!-- Node1&#45;&gt;Node5 -->
<g id="edge20_Node000001_Node000005" class="edge">
<title>Node1&#45;&gt;Node5</title>
<g id="a_edge20_Node000001_Node000005"><a xlink:title=" ">
<path fill="none" stroke="#63b8ff" d="M518.98,-223.19C484.97,-216.94 437.77,-205.34 400.53,-185 373.75,-170.38 348.79,-143.78 336.86,-129.97"/>
<polygon fill="#63b8ff" stroke="#63b8ff" points="518.03,-226.58 528.48,-224.84 519.23,-219.68 518.03,-226.58"/>
</a>
</g>
</g>
<!-- Node7 -->
<g id="Node000007" class="node">
<title>Node7</title>
<g id="a_Node000007"><a xlink:href="globals_8hpp.xhtml" target="_top" xlink:title=" ">
<polygon fill="white" stroke="#666666" points="685.9,-74.5 621.15,-74.5 621.15,-55.25 685.9,-55.25 685.9,-74.5"/>
<text text-anchor="middle" x="653.53" y="-61" font-family="Helvetica,sans-Serif" font-size="10.00">globals.hpp</text>
</a>
</g>
</g>
<!-- Node1&#45;&gt;Node7 -->
<g id="edge28_Node000001_Node000007" class="edge">
<title>Node1&#45;&gt;Node7</title>
<g id="a_edge28_Node000001_Node000007"><a xlink:title=" ">
<path fill="none" stroke="#63b8ff" d="M567.67,-209.68C570.78,-196.76 575.69,-179.78 582.53,-165.75 600.33,-129.22 631.09,-91.61 645.56,-74.86"/>
<polygon fill="#63b8ff" stroke="#63b8ff" points="564.32,-208.61 565.56,-219.13 571.16,-210.13 564.32,-208.61"/>
</a>
</g>
</g>
<!-- Node14 -->
<g id="Node000014" class="node">
<title>Node14</title>
<g id="a_Node000014"><a xlink:href="_fab_backend_8cpp.xhtml" target="_top" xlink:title=" ">
<polygon fill="white" stroke="#666666" points="679.9,-185 591.15,-185 591.15,-165.75 679.9,-165.75 679.9,-185"/>
<text text-anchor="middle" x="635.53" y="-171.5" font-family="Helvetica,sans-Serif" font-size="10.00">FabBackend.cpp</text>
</a>
</g>
</g>
<!-- Node1&#45;&gt;Node14 -->
<g id="edge21_Node000001_Node000014" class="edge">
<title>Node1&#45;&gt;Node14</title>
<g id="a_edge21_Node000001_Node000014"><a xlink:title=" ">
<path fill="none" stroke="#63b8ff" d="M584.7,-213.97C597.34,-204.62 612.94,-193.08 623.49,-185.27"/>
<polygon fill="#63b8ff" stroke="#63b8ff" points="582.92,-210.93 576.96,-219.69 587.08,-216.56 582.92,-210.93"/>
</a>
</g>
</g>
<!-- Node15 -->
<g id="Node000015" class="node">
<title>Node15</title>
<g id="a_Node000015"><a xlink:href="_machine_8cpp.xhtml" target="_top" xlink:title=" ">
<polygon fill="white" stroke="#666666" points="768.9,-185 698.15,-185 698.15,-165.75 768.9,-165.75 768.9,-185"/>
<text text-anchor="middle" x="733.53" y="-171.5" font-family="Helvetica,sans-Serif" font-size="10.00">Machine.cpp</text>
</a>
</g>
</g>
<!-- Node1&#45;&gt;Node15 -->
<g id="edge22_Node000001_Node000015" class="edge">
<title>Node1&#45;&gt;Node15</title>
<g id="a_edge22_Node000001_Node000015"><a xlink:title=" ">
<path fill="none" stroke="#63b8ff" d="M603.23,-217.19C634.26,-207.47 676.66,-194.19 704.55,-185.45"/>
<polygon fill="#63b8ff" stroke="#63b8ff" points="602.31,-213.81 593.81,-220.14 604.4,-220.49 602.31,-213.81"/>
</a>
</g>
</g>
<!-- Node16 -->
<g id="Node000016" class="node">
<title>Node16</title>
<g id="a_Node000016"><a xlink:href="_mock_m_q_t_t_broker_8cpp.xhtml" target="_top" xlink:title=" ">
<polygon fill="white" stroke="#666666" points="901.65,-185 787.4,-185 787.4,-165.75 901.65,-165.75 901.65,-185"/>
<text text-anchor="middle" x="844.53" y="-171.5" font-family="Helvetica,sans-Serif" font-size="10.00">MockMQTTBroker.cpp</text>
</a>
</g>
</g>
<!-- Node1&#45;&gt;Node16 -->
<g id="edge23_Node000001_Node000016" class="edge">
<title>Node1&#45;&gt;Node16</title>
<g id="a_edge23_Node000001_Node000016"><a xlink:title=" ">
<path fill="none" stroke="#63b8ff" d="M608.24,-221.15C659.75,-211.39 744.05,-195.42 796.8,-185.42"/>
<polygon fill="#63b8ff" stroke="#63b8ff" points="607.8,-217.67 598.63,-222.97 609.11,-224.55 607.8,-217.67"/>
</a>
</g>
</g>
<!-- Node17 -->
<g id="Node000017" class="node">
<title>Node17</title>
<g id="a_Node000017"><a xlink:href="_o_t_a_8hpp.xhtml" target="_top" xlink:title=" ">
<polygon fill="white" stroke="#666666" points="67.65,-129.75 13.4,-129.75 13.4,-110.5 67.65,-110.5 67.65,-129.75"/>
<text text-anchor="middle" x="40.53" y="-116.25" font-family="Helvetica,sans-Serif" font-size="10.00">OTA.hpp</text>
</a>
</g>
</g>
<!-- Node1&#45;&gt;Node17 -->
<g id="edge24_Node000001_Node000017" class="edge">
<title>Node1&#45;&gt;Node17</title>
<g id="a_edge24_Node000001_Node000017"><a xlink:title=" ">
<path fill="none" stroke="#63b8ff" d="M518.44,-227.64C423.49,-223.03 205.97,-210 136.53,-185 101.68,-172.45 67.07,-144.68 50.54,-130.24"/>
<polygon fill="#63b8ff" stroke="#63b8ff" points="518.26,-231.14 528.42,-228.12 518.6,-224.15 518.26,-231.14"/>
</a>
</g>
</g>
<!-- Node18 -->
<g id="Node000018" class="node">
<title>Node18</title>
<g id="a_Node000018"><a xlink:href="_saved_config_8cpp.xhtml" target="_top" xlink:title=" ">
<polygon fill="white" stroke="#666666" points="1008.9,-185 920.15,-185 920.15,-165.75 1008.9,-165.75 1008.9,-185"/>
<text text-anchor="middle" x="964.53" y="-171.5" font-family="Helvetica,sans-Serif" font-size="10.00">SavedConfig.cpp</text>
</a>
</g>
</g>
<!-- Node1&#45;&gt;Node18 -->
<g id="edge27_Node000001_Node000018" class="edge">
<title>Node1&#45;&gt;Node18</title>
<g id="a_edge27_Node000001_Node000018"><a xlink:title=" ">
<path fill="none" stroke="#63b8ff" d="M608.31,-224.31C674.47,-216.35 802.21,-200.61 910.53,-185 913.53,-184.57 916.63,-184.11 919.75,-183.63"/>
<polygon fill="#63b8ff" stroke="#63b8ff" points="608.09,-220.81 598.57,-225.48 608.92,-227.76 608.09,-220.81"/>
</a>
</g>
</g>
<!-- Node3 -->
<g id="Node000003" class="node">
<title>Node3</title>
<g id="a_Node000003"><a xlink:href="_auth_provider_8cpp.xhtml" target="_top" xlink:title=" ">
<polygon fill="white" stroke="#666666" points="517.65,-129.75 427.4,-129.75 427.4,-110.5 517.65,-110.5 517.65,-129.75"/>
<text text-anchor="middle" x="472.53" y="-116.25" font-family="Helvetica,sans-Serif" font-size="10.00">AuthProvider.cpp</text>
</a>
</g>
</g>
<!-- Node2&#45;&gt;Node3 -->
<g id="edge2_Node000002_Node000003" class="edge">
<title>Node2&#45;&gt;Node3</title>
<g id="a_edge2_Node000002_Node000003"><a xlink:title=" ">
<path fill="none" stroke="#63b8ff" d="M461.18,-154.71C464.03,-146.27 467.22,-136.83 469.49,-130.11"/>
<polygon fill="#63b8ff" stroke="#63b8ff" points="457.87,-153.55 457.98,-164.15 464.5,-155.8 457.87,-153.55"/>
</a>
</g>
</g>
<!-- Node2&#45;&gt;Node4 -->
<g id="edge3_Node000002_Node000004" class="edge">
<title>Node2&#45;&gt;Node4</title>
<g id="a_edge3_Node000002_Node000004"><a xlink:title=" ">
<path fill="none" stroke="#63b8ff" d="M399.99,-162.8C364.91,-154.8 318.57,-143.21 278.53,-129.75 229.69,-113.34 174.43,-88.2 146.24,-74.88"/>
<polygon fill="#63b8ff" stroke="#63b8ff" points="398.96,-166.15 409.48,-164.93 400.5,-159.33 398.96,-166.15"/>
</a>
</g>
</g>
<!-- Node2&#45;&gt;Node5 -->
<g id="edge4_Node000002_Node000005" class="edge">
<title>Node2&#45;&gt;Node5</title>
<g id="a_edge4_Node000002_Node000005"><a xlink:title=" ">
<path fill="none" stroke="#63b8ff" d="M422.9,-160.9C400.34,-151.29 370.62,-138.63 350.84,-130.2"/>
<polygon fill="#63b8ff" stroke="#63b8ff" points="421.36,-164.05 431.93,-164.75 424.1,-157.61 421.36,-164.05"/>
</a>
</g>
</g>
<!-- Node2&#45;&gt;Node7 -->
<g id="edge17_Node000002_Node000007" class="edge">
<title>Node2&#45;&gt;Node7</title>
<g id="a_edge17_Node000002_Node000007"><a xlink:title=" ">
<path fill="none" stroke="#63b8ff" d="M480.26,-159.9C503.52,-146.86 538.73,-127.23 569.53,-110.5 592.6,-97.97 619.42,-83.79 636.42,-74.84"/>
<polygon fill="#63b8ff" stroke="#63b8ff" points="478.8,-156.71 471.8,-164.65 482.23,-162.81 478.8,-156.71"/>
</a>
</g>
</g>
<!-- Node13 -->
<g id="Node000013" class="node">
<title>Node13</title>
<g id="a_Node000013"><a xlink:href="test__savedconfig_8cpp.xhtml" target="_top" xlink:title=" ">
<polygon fill="white" stroke="#666666" points="603.28,-74.5 495.78,-74.5 495.78,-55.25 603.28,-55.25 603.28,-74.5"/>
<text text-anchor="middle" x="549.53" y="-61" font-family="Helvetica,sans-Serif" font-size="10.00">test_savedconfig.cpp</text>
</a>
</g>
</g>
<!-- Node2&#45;&gt;Node13 -->
<g id="edge18_Node000002_Node000013" class="edge">
<title>Node2&#45;&gt;Node13</title>
<g id="a_edge18_Node000002_Node000013"><a xlink:title=" ">
<path fill="none" stroke="#63b8ff" d="M434.69,-157.88C421.2,-144.62 407.61,-125.76 418.53,-110.5 429.02,-95.85 472.19,-83.04 506.14,-74.96"/>
<polygon fill="#63b8ff" stroke="#63b8ff" points="432,-160.16 441.75,-164.31 436.71,-154.99 432,-160.16"/>
</a>
</g>
</g>
<!-- Node5&#45;&gt;Node4 -->
<g id="edge5_Node000005_Node000004" class="edge">
<title>Node5&#45;&gt;Node4</title>
<g id="a_edge5_Node000005_Node000004"><a xlink:title=" ">
<path fill="none" stroke="#63b8ff" d="M284.28,-107.2C247.26,-97.44 195.68,-83.84 161.96,-74.95"/>
<polygon fill="#63b8ff" stroke="#63b8ff" points="283.24,-110.54 293.8,-109.71 285.02,-103.77 283.24,-110.54"/>
</a>
</g>
</g>
<!-- Node6 -->
<g id="Node000006" class="node">
<title>Node6</title>
<g id="a_Node000006"><a xlink:href="_o_t_a_8cpp.xhtml" target="_top" xlink:title=" ">
<polygon fill="white" stroke="#666666" points="67.65,-74.5 13.4,-74.5 13.4,-55.25 67.65,-55.25 67.65,-74.5"/>
<text text-anchor="middle" x="40.53" y="-61" font-family="Helvetica,sans-Serif" font-size="10.00">OTA.cpp</text>
</a>
</g>
</g>
<!-- Node5&#45;&gt;Node6 -->
<g id="edge6_Node000005_Node000006" class="edge">
<title>Node5&#45;&gt;Node6</title>
<g id="a_edge6_Node000005_Node000006"><a xlink:title=" ">
<path fill="none" stroke="#63b8ff" d="M276.16,-110.68C224.83,-102.32 145.14,-88.76 76.53,-74.5 73.76,-73.92 70.88,-73.29 68.01,-72.64"/>
<polygon fill="#63b8ff" stroke="#63b8ff" points="275.37,-114.09 285.8,-112.24 276.49,-107.18 275.37,-114.09"/>
</a>
</g>
</g>
<!-- Node5&#45;&gt;Node7 -->
<g id="edge7_Node000005_Node000007" class="edge">
<title>Node5&#45;&gt;Node7</title>
<g id="a_edge7_Node000005_Node000007"><a xlink:title=" ">
<path fill="none" stroke="#63b8ff" d="M382.6,-111.58C439.57,-103.29 532.67,-89.19 612.53,-74.5 615.25,-74 618.06,-73.46 620.88,-72.9"/>
<polygon fill="#63b8ff" stroke="#63b8ff" points="382.25,-108.09 372.86,-112.99 383.25,-115.02 382.25,-108.09"/>
</a>
</g>
</g>
<!-- Node8 -->
<g id="Node000008" class="node">
<title>Node8</title>
<g id="a_Node000008"><a xlink:href="main_8cpp.xhtml" target="_top" xlink:title=" ">
<polygon fill="white" stroke="#666666" points="225.03,-19.25 170.03,-19.25 170.03,0 225.03,0 225.03,-19.25"/>
<text text-anchor="middle" x="197.53" y="-5.75" font-family="Helvetica,sans-Serif" font-size="10.00">main.cpp</text>
</a>
</g>
</g>
<!-- Node5&#45;&gt;Node8 -->
<g id="edge9_Node000005_Node000008" class="edge">
<title>Node5&#45;&gt;Node8</title>
<g id="a_edge9_Node000005_Node000008"><a xlink:title=" ">
<path fill="none" stroke="#63b8ff" d="M276.65,-108.88C255.39,-102.3 232.24,-91.65 216.53,-74.5 202.3,-58.98 198.7,-33.24 197.81,-19.66"/>
<polygon fill="#63b8ff" stroke="#63b8ff" points="275.51,-112.19 286.08,-111.54 277.41,-105.46 275.51,-112.19"/>
</a>
</g>
</g>
<!-- Node9 -->
<g id="Node000009" class="node">
<title>Node9</title>
<g id="a_Node000009"><a xlink:href="test__common_8cpp.xhtml" target="_top" xlink:title=" ">
<polygon fill="white" stroke="#666666" points="505.15,-19.25 411.9,-19.25 411.9,0 505.15,0 505.15,-19.25"/>
<text text-anchor="middle" x="458.53" y="-5.75" font-family="Helvetica,sans-Serif" font-size="10.00">test_common.cpp</text>
</a>
</g>
</g>
<!-- Node5&#45;&gt;Node9 -->
<g id="edge10_Node000005_Node000009" class="edge">
<title>Node5&#45;&gt;Node9</title>
<g id="a_edge10_Node000005_Node000009"><a xlink:title=" ">
<path fill="none" stroke="#63b8ff" d="M382.54,-111.57C406.17,-105.47 432.29,-94.44 448.53,-74.5 461.43,-58.66 461.04,-33.06 459.74,-19.58"/>
<polygon fill="#63b8ff" stroke="#63b8ff" points="381.97,-108.11 373.02,-113.78 383.55,-114.93 381.97,-108.11"/>
</a>
</g>
</g>
<!-- Node10 -->
<g id="Node000010" class="node">
<title>Node10</title>
<g id="a_Node000010"><a xlink:href="test__common_8h.xhtml" target="_top" xlink:title=" ">
<polygon fill="white" stroke="#666666" points="439.9,-74.5 357.15,-74.5 357.15,-55.25 439.9,-55.25 439.9,-74.5"/>
<text text-anchor="middle" x="398.53" y="-61" font-family="Helvetica,sans-Serif" font-size="10.00">test_common.h</text>
</a>
</g>
</g>
<!-- Node5&#45;&gt;Node10 -->
<g id="edge11_Node000005_Node000010" class="edge">
<title>Node5&#45;&gt;Node10</title>
<g id="a_edge11_Node000005_Node000010"><a xlink:title=" ">
<path fill="none" stroke="#63b8ff" d="M350.17,-103.19C362.22,-93.89 376.98,-82.51 387,-74.77"/>
<polygon fill="#63b8ff" stroke="#63b8ff" points="348.21,-100.29 342.43,-109.17 352.49,-105.83 348.21,-100.29"/>
</a>
</g>
</g>
<!-- Node11 -->
<g id="Node000011" class="node">
<title>Node11</title>
<g id="a_Node000011"><a xlink:href="test__logic_8cpp.xhtml" target="_top" xlink:title=" ">
<polygon fill="white" stroke="#666666" points="376.53,-19.25 300.53,-19.25 300.53,0 376.53,0 376.53,-19.25"/>
<text text-anchor="middle" x="338.53" y="-5.75" font-family="Helvetica,sans-Serif" font-size="10.00">test_logic.cpp</text>
</a>
</g>
</g>
<!-- Node5&#45;&gt;Node11 -->
<g id="edge14_Node000005_Node000011" class="edge">
<title>Node5&#45;&gt;Node11</title>
<g id="a_edge14_Node000005_Node000011"><a xlink:title=" ">
<path fill="none" stroke="#63b8ff" d="M331.22,-98.78C333.18,-75.05 336.35,-36.89 337.78,-19.63"/>
<polygon fill="#63b8ff" stroke="#63b8ff" points="327.73,-98.48 330.39,-108.74 334.7,-99.06 327.73,-98.48"/>
</a>
</g>
</g>
<!-- Node12 -->
<g id="Node000012" class="node">
<title>Node12</title>
<g id="a_Node000012"><a xlink:href="test__mqtt_8cpp.xhtml" target="_top" xlink:title=" ">
<polygon fill="white" stroke="#666666" points="301.15,-74.5 225.9,-74.5 225.9,-55.25 301.15,-55.25 301.15,-74.5"/>
<text text-anchor="middle" x="263.53" y="-61" font-family="Helvetica,sans-Serif" font-size="10.00">test_mqtt.cpp</text>
</a>
</g>
</g>
<!-- Node5&#45;&gt;Node12 -->
<g id="edge15_Node000005_Node000012" class="edge">
<title>Node5&#45;&gt;Node12</title>
<g id="a_edge15_Node000005_Node000012"><a xlink:title=" ">
<path fill="none" stroke="#63b8ff" d="M309.44,-102.91C297.97,-93.67 284.05,-82.43 274.56,-74.77"/>
<polygon fill="#63b8ff" stroke="#63b8ff" points="307.17,-105.59 317.15,-109.14 311.57,-100.14 307.17,-105.59"/>
</a>
</g>
</g>
<!-- Node5&#45;&gt;Node13 -->
<g id="edge16_Node000005_Node000013" class="edge">
<title>Node5&#45;&gt;Node13</title>
<g id="a_edge16_Node000005_Node000013"><a xlink:title=" ">
<path fill="none" stroke="#63b8ff" d="M378.03,-107.38C418.4,-97.61 475.06,-83.9 512.02,-74.95"/>
<polygon fill="#63b8ff" stroke="#63b8ff" points="377.21,-103.98 368.32,-109.74 378.86,-110.78 377.21,-103.98"/>
</a>
</g>
</g>
<!-- Node7&#45;&gt;Node8 -->
<g id="edge8_Node000007_Node000008" class="edge">
<title>Node7&#45;&gt;Node8</title>
<g id="a_edge8_Node000007_Node000008"><a xlink:title=" ">
<path fill="none" stroke="#63b8ff" d="M609.61,-54.97C518.11,-41.46 302.34,-20.57 225.34,-13.25"/>
<polygon fill="#63b8ff" stroke="#63b8ff" points="609,-58.42 619.41,-56.48 610.06,-51.5 609,-58.42"/>
</a>
</g>
</g>
<!-- Node10&#45;&gt;Node9 -->
<g id="edge12_Node000010_Node000009" class="edge">
<title>Node10&#45;&gt;Node9</title>
<g id="a_edge12_Node000010_Node000009"><a xlink:title=" ">
<path fill="none" stroke="#63b8ff" d="M417.11,-47.39C427.47,-38.19 439.96,-27.1 448.5,-19.52"/>
<polygon fill="#63b8ff" stroke="#63b8ff" points="414.99,-44.58 409.84,-53.84 419.64,-49.82 414.99,-44.58"/>
</a>
</g>
</g>
<!-- Node10&#45;&gt;Node11 -->
<g id="edge13_Node000010_Node000011" class="edge">
<title>Node10&#45;&gt;Node11</title>
<g id="a_edge13_Node000010_Node000011"><a xlink:title=" ">
<path fill="none" stroke="#63b8ff" d="M379.95,-47.39C369.59,-38.19 357.09,-27.1 348.56,-19.52"/>
<polygon fill="#63b8ff" stroke="#63b8ff" points="377.42,-49.82 387.22,-53.84 382.06,-44.58 377.42,-49.82"/>
</a>
</g>
</g>
<!-- Node17&#45;&gt;Node6 -->
<g id="edge25_Node000017_Node000006" class="edge">
<title>Node17&#45;&gt;Node6</title>
<g id="a_edge25_Node000017_Node000006"><a xlink:title=" ">
<path fill="none" stroke="#63b8ff" d="M40.53,-98.88C40.53,-90.59 40.53,-81.42 40.53,-74.86"/>
<polygon fill="#63b8ff" stroke="#63b8ff" points="37.03,-98.82 40.53,-108.82 44.03,-98.82 37.03,-98.82"/>
</a>
</g>
</g>
<!-- Node17&#45;&gt;Node8 -->
<g id="edge26_Node000017_Node000008" class="edge">
<title>Node17&#45;&gt;Node8</title>
<g id="a_edge26_Node000017_Node000008"><a xlink:title=" ">
<path fill="none" stroke="#63b8ff" d="M20.52,-102.55C6.71,-89.1 -7.22,-70.02 4.53,-55.25 24.86,-29.68 121.33,-17.48 169.71,-12.89"/>
<polygon fill="#63b8ff" stroke="#63b8ff" points="17.98,-104.98 27.75,-109.09 22.68,-99.78 17.98,-104.98"/>
</a>
</g>
</g>
</g>
</svg>

<g id="navigator" transform="translate(0 0)" fill="#404254">
  <rect fill="#f2f5e9" fill-opacity="0.5" stroke="#606060" stroke-width=".5" x="0" y="0" width="60" height="60"/>
  <use id="zoomplus" xlink:href="#zoomPlus" x="17" y="9" onmousedown="handleZoom(evt,'in')"/>
  <use id="zoomminus" xlink:href="#zoomMin" x="42" y="9" onmousedown="handleZoom(evt,'out')"/>
  <use id="reset" xlink:href="#resetDef" x="30" y="36" onmousedown="handleReset()"/>
   <use id="arrowup" xlink:href="#arrowUp" x="0" y="0" onmousedown="handlePan(0,-1)"/>
  <use id="arrowright" xlink:href="#arrowRight" x="0" y="0" onmousedown="handlePan(1,0)"/>
  <use id="arrowdown" xlink:href="#arrowDown" x="0" y="0" onmousedown="handlePan(0,1)"/>
  <use id="arrowleft" xlink:href="#arrowLeft" x="0" y="0" onmousedown="handlePan(-1,0)"/>
</g>
<svg viewBox="0 0 15 15" width="100%" height="30px" preserveAspectRatio="xMaxYMin meet">
 <g id="arrow_out" transform="scale(0.3 0.3)">
  <a xlink:href="secrets_8hpp__dep__incl_org.svg" target="_base">
   <rect id="button" ry="5" rx="5" y="6" x="6" height="38" width="38"
        fill="#f2f5e9" fill-opacity="0.5" stroke="#606060" stroke-width="1.0"/>
   <path id="arrow"
     d="M 11.500037,31.436501 C 11.940474,20.09759 22.043105,11.32322 32.158766,21.979434 L 37.068811,17.246167 C 37.068811,17.246167 37.088388,32 37.088388,32 L 22.160133,31.978069 C 22.160133,31.978069 26.997745,27.140456 26.997745,27.140456 C 18.528582,18.264221 13.291696,25.230495 11.500037,31.436501 z"
     style="fill:#404040;"/>
  </a>
 </g>
</svg>

<style type='text/css'>
<![CDATA[
[data-mouse-over-selected='false'] { opacity: 0.7; }
[data-mouse-over-selected='true']  { opacity: 1.0; }
]]>
</style>
<script type="application/ecmascript"><![CDATA[
document.addEventListener('DOMContentLoaded', (event) => {
  highlightEdges();
  highlightAdjacentNodes();
});
]]></script>
</svg>
