<?xml version="1.0" encoding="UTF-8" standalone="no"?>
<!DOCTYPE svg PUBLIC "-//W3C//DTD SVG 1.1//EN"
 "http://www.w3.org/Graphics/SVG/1.1/DTD/svg11.dtd">
<!-- Generated by graphviz version 9.0.0 (20230911.1827)
 -->
<!-- Title: secrets.hpp Pages: 1 -->
<svg width="1130pt" height="359pt"
 viewBox="0.00 0.00 1129.75 358.75" xmlns="http://www.w3.org/2000/svg" xmlns:xlink="http://www.w3.org/1999/xlink">
<g id="graph0" class="graph" transform="scale(1 1) rotate(0) translate(4 354.75)">
<title>secrets.hpp</title>
<!-- Node1 -->
<g id="Node000001" class="node">
<title>Node1</title>
<g id="a_Node000001"><a xlink:title=" ">
<polygon fill="#999999" stroke="#666666" points="555.12,-350.75 488.88,-350.75 488.88,-331.5 555.12,-331.5 555.12,-350.75"/>
<text text-anchor="middle" x="522" y="-337.25" font-family="Helvetica,sans-Serif" font-size="10.00">secrets.hpp</text>
</a>
</g>
</g>
<!-- Node2 -->
<g id="Node000002" class="node">
<title>Node2</title>
<g id="a_Node000002"><a xlink:title=" ">
<polygon fill="#e0e0e0" stroke="#999999" points="544.62,-19.25 499.38,-19.25 499.38,0 544.62,0 544.62,-19.25"/>
<text text-anchor="middle" x="522" y="-5.75" font-family="Helvetica,sans-Serif" font-size="10.00">cstdint</text>
</a>
</g>
</g>
<!-- Node1&#45;&gt;Node2 -->
<g id="edge1_Node000001_Node000002" class="edge">
<title>Node1&#45;&gt;Node2</title>
<g id="a_edge1_Node000001_Node000002"><a xlink:title=" ">
<path fill="none" stroke="#63b8ff" d="M488.55,-340.33C373.34,-340.15 0,-331.82 0,-231.62 0,-231.62 0,-231.62 0,-119.12 0,-19.22 371.14,-10.65 487.53,-10.42"/>
<polygon fill="#63b8ff" stroke="#63b8ff" points="487.38,-13.92 497.38,-10.43 487.38,-6.92 487.38,-13.92"/>
</a>
</g>
</g>
<!-- Node3 -->
<g id="Node000003" class="node">
<title>Node3</title>
<g id="a_Node000003"><a xlink:title=" ">
<polygon fill="#e0e0e0" stroke="#999999" points="989.5,-19.25 952.5,-19.25 952.5,0 989.5,0 989.5,-19.25"/>
<text text-anchor="middle" x="971" y="-5.75" font-family="Helvetica,sans-Serif" font-size="10.00">array</text>
</a>
</g>
</g>
<!-- Node1&#45;&gt;Node3 -->
<g id="edge2_Node000001_Node000003" class="edge">
<title>Node1&#45;&gt;Node3</title>
<g id="a_edge2_Node000001_Node000003"><a xlink:title=" ">
<path fill="none" stroke="#63b8ff" d="M555.59,-340.11C668.6,-339.17 1028,-328.54 1028,-231.62 1028,-231.62 1028,-231.62 1028,-119.12 1028,-83.67 1003.86,-48.41 986.99,-28.1"/>
<polygon fill="#63b8ff" stroke="#63b8ff" points="989.84,-26.05 980.65,-20.79 984.56,-30.63 989.84,-26.05"/>
</a>
</g>
</g>
<!-- Node4 -->
<g id="Node000004" class="node">
<title>Node4</title>
<g id="a_Node000004"><a xlink:title=" ">
<polygon fill="#e0e0e0" stroke="#999999" points="1121.75,-295.5 1056.25,-295.5 1056.25,-276.25 1121.75,-276.25 1121.75,-295.5"/>
<text text-anchor="middle" x="1089" y="-282" font-family="Helvetica,sans-Serif" font-size="10.00">string_view</text>
</a>
</g>
</g>
<!-- Node1&#45;&gt;Node4 -->
<g id="edge3_Node000001_Node000004" class="edge">
<title>Node1&#45;&gt;Node4</title>
<g id="a_edge3_Node000001_Node000004"><a xlink:title=" ">
<path fill="none" stroke="#63b8ff" d="M555.58,-338.36C638.46,-333.77 859.25,-320.05 1042,-295.5 1042.99,-295.37 1043.99,-295.23 1045,-295.08"/>
<polygon fill="#63b8ff" stroke="#63b8ff" points="1045.11,-298.61 1054.44,-293.59 1044.02,-291.69 1045.11,-298.61"/>
</a>
</g>
</g>
<!-- Node5 -->
<g id="Node000005" class="node">
<title>Node5</title>
<g id="a_Node000005"><a xlink:href="_machine_config_8hpp.xhtml" target="_top" xlink:title=" ">
<polygon fill="white" stroke="#666666" points="602.88,-185 505.12,-185 505.12,-165.75 602.88,-165.75 602.88,-185"/>
<text text-anchor="middle" x="554" y="-171.5" font-family="Helvetica,sans-Serif" font-size="10.00">MachineConfig.hpp</text>
</a>
</g>
</g>
<!-- Node1&#45;&gt;Node5 -->
<g id="edge4_Node000001_Node000005" class="edge">
<title>Node1&#45;&gt;Node5</title>
<g id="a_edge4_Node000001_Node000005"><a xlink:title=" ">
<path fill="none" stroke="#63b8ff" d="M523.72,-331.32C528.69,-305.89 543.16,-231.85 550.14,-196.12"/>
<polygon fill="#63b8ff" stroke="#63b8ff" points="553.5,-197.19 551.98,-186.71 546.63,-195.85 553.5,-197.19"/>
</a>
</g>
</g>
<!-- Node12 -->
<g id="Node000012" class="node">
<title>Node12</title>
<g id="a_Node000012"><a xlink:href="conf_8hpp.xhtml" target="_top" xlink:title=" ">
<polygon fill="white" stroke="#666666" points="454.38,-129.75 401.62,-129.75 401.62,-110.5 454.38,-110.5 454.38,-129.75"/>
<text text-anchor="middle" x="428" y="-116.25" font-family="Helvetica,sans-Serif" font-size="10.00">conf.hpp</text>
</a>
</g>
</g>
<!-- Node1&#45;&gt;Node12 -->
<g id="edge46_Node000001_Node000012" class="edge">
<title>Node1&#45;&gt;Node12</title>
<g id="a_edge46_Node000001_Node000012"><a xlink:title=" ">
<path fill="none" stroke="#63b8ff" d="M518.2,-331.27C504.26,-298.8 455.77,-185.82 436.24,-140.33"/>
<polygon fill="#63b8ff" stroke="#63b8ff" points="439.5,-139.05 432.34,-131.24 433.07,-141.81 439.5,-139.05"/>
</a>
</g>
</g>
<!-- Node13 -->
<g id="Node000013" class="node">
<title>Node13</title>
<g id="a_Node000013"><a xlink:href="_machine_8hpp.xhtml" target="_top" xlink:title=" ">
<polygon fill="white" stroke="#666666" points="675.38,-295.5 604.62,-295.5 604.62,-276.25 675.38,-276.25 675.38,-295.5"/>
<text text-anchor="middle" x="640" y="-282" font-family="Helvetica,sans-Serif" font-size="10.00">Machine.hpp</text>
</a>
</g>
</g>
<!-- Node1&#45;&gt;Node13 -->
<g id="edge21_Node000001_Node000013" class="edge">
<title>Node1&#45;&gt;Node13</title>
<g id="a_edge21_Node000001_Node000013"><a xlink:title=" ">
<path fill="none" stroke="#63b8ff" d="M542.02,-331.09C560.49,-322.75 588.21,-310.25 609.45,-300.66"/>
<polygon fill="#63b8ff" stroke="#63b8ff" points="610.83,-303.88 618.51,-296.58 607.95,-297.5 610.83,-303.88"/>
</a>
</g>
</g>
<!-- Node14 -->
<g id="Node000014" class="node">
<title>Node14</title>
<g id="a_Node000014"><a xlink:href="_fab_user_8hpp.xhtml" target="_top" xlink:title=" ">
<polygon fill="white" stroke="#666666" points="409.75,-240.25 338.25,-240.25 338.25,-221 409.75,-221 409.75,-240.25"/>
<text text-anchor="middle" x="374" y="-226.75" font-family="Helvetica,sans-Serif" font-size="10.00">FabUser.hpp</text>
</a>
</g>
</g>
<!-- Node1&#45;&gt;Node14 -->
<g id="edge47_Node000001_Node000014" class="edge">
<title>Node1&#45;&gt;Node14</title>
<g id="a_edge47_Node000001_Node000014"><a xlink:title=" ">
<path fill="none" stroke="#63b8ff" d="M505.32,-331.14C489.98,-322.63 466.83,-309.15 448,-295.5 427.52,-280.65 405.8,-261.44 391.23,-247.98"/>
<polygon fill="#63b8ff" stroke="#63b8ff" points="393.96,-245.73 384.26,-241.46 389.18,-250.85 393.96,-245.73"/>
</a>
</g>
</g>
<!-- Node5&#45;&gt;Node2 -->
<g id="edge6_Node000005_Node000002" class="edge">
<title>Node5&#45;&gt;Node2</title>
<g id="a_edge6_Node000005_Node000002"><a xlink:title=" ">
<path fill="none" stroke="#63b8ff" d="M553.27,-165.3C551.55,-145.25 546.6,-95.7 537,-55.25 535.04,-47 532.21,-38.12 529.53,-30.46"/>
<polygon fill="#63b8ff" stroke="#63b8ff" points="532.84,-29.32 526.12,-21.13 526.27,-31.73 532.84,-29.32"/>
</a>
</g>
</g>
<!-- Node6 -->
<g id="Node000006" class="node">
<title>Node6</title>
<g id="a_Node000006"><a xlink:title=" ">
<polygon fill="#e0e0e0" stroke="#999999" points="629.62,-74.5 584.38,-74.5 584.38,-55.25 629.62,-55.25 629.62,-74.5"/>
<text text-anchor="middle" x="607" y="-61" font-family="Helvetica,sans-Serif" font-size="10.00">chrono</text>
</a>
</g>
</g>
<!-- Node5&#45;&gt;Node6 -->
<g id="edge5_Node000005_Node000006" class="edge">
<title>Node5&#45;&gt;Node6</title>
<g id="a_edge5_Node000005_Node000006"><a xlink:title=" ">
<path fill="none" stroke="#63b8ff" d="M558.34,-165.5C566.88,-148.01 586.05,-108.77 597.62,-85.09"/>
<polygon fill="#63b8ff" stroke="#63b8ff" points="600.69,-86.76 601.94,-76.24 594.4,-83.69 600.69,-86.76"/>
</a>
</g>
</g>
<!-- Node7 -->
<g id="Node000007" class="node">
<title>Node7</title>
<g id="a_Node000007"><a xlink:title=" ">
<polygon fill="#e0e0e0" stroke="#999999" points="430,-74.5 390,-74.5 390,-55.25 430,-55.25 430,-74.5"/>
<text text-anchor="middle" x="410" y="-61" font-family="Helvetica,sans-Serif" font-size="10.00">string</text>
</a>
</g>
</g>
<!-- Node5&#45;&gt;Node7 -->
<g id="edge7_Node000005_Node000007" class="edge">
<title>Node5&#45;&gt;Node7</title>
<g id="a_edge7_Node000005_Node000007"><a xlink:title=" ">
<path fill="none" stroke="#63b8ff" d="M542.22,-165.5C517.85,-147.14 461.64,-104.79 430.95,-81.66"/>
<polygon fill="#63b8ff" stroke="#63b8ff" points="433.25,-79.01 423.16,-75.79 429.04,-84.6 433.25,-79.01"/>
</a>
</g>
</g>
<!-- Node8 -->
<g id="Node000008" class="node">
<title>Node8</title>
<g id="a_Node000008"><a xlink:href="pins_8hpp.xhtml" target="_top" xlink:title=" ">
<polygon fill="white" stroke="#666666" points="799,-129.75 747,-129.75 747,-110.5 799,-110.5 799,-129.75"/>
<text text-anchor="middle" x="773" y="-116.25" font-family="Helvetica,sans-Serif" font-size="10.00">pins.hpp</text>
</a>
</g>
</g>
<!-- Node5&#45;&gt;Node8 -->
<g id="edge8_Node000005_Node000008" class="edge">
<title>Node5&#45;&gt;Node8</title>
<g id="a_edge8_Node000005_Node000008"><a xlink:title=" ">
<path fill="none" stroke="#63b8ff" d="M591.15,-165.34C631.44,-155.54 695.4,-139.99 735.73,-130.19"/>
<polygon fill="#63b8ff" stroke="#63b8ff" points="736.34,-133.64 745.23,-127.88 734.68,-126.84 736.34,-133.64"/>
</a>
</g>
</g>
<!-- Node11 -->
<g id="Node000011" class="node">
<title>Node11</title>
<g id="a_Node000011"><a xlink:href="_machine_i_d_8hpp.xhtml" target="_top" xlink:title=" ">
<polygon fill="white" stroke="#666666" points="528.25,-74.5 447.75,-74.5 447.75,-55.25 528.25,-55.25 528.25,-74.5"/>
<text text-anchor="middle" x="488" y="-61" font-family="Helvetica,sans-Serif" font-size="10.00">MachineID.hpp</text>
</a>
</g>
</g>
<!-- Node5&#45;&gt;Node11 -->
<g id="edge14_Node000005_Node000011" class="edge">
<title>Node5&#45;&gt;Node11</title>
<g id="a_edge14_Node000005_Node000011"><a xlink:title=" ">
<path fill="none" stroke="#63b8ff" d="M548.6,-165.5C537.87,-147.85 513.66,-108.05 499.3,-84.45"/>
<polygon fill="#63b8ff" stroke="#63b8ff" points="502.45,-82.89 494.26,-76.17 496.47,-86.53 502.45,-82.89"/>
</a>
</g>
</g>
<!-- Node5&#45;&gt;Node12 -->
<g id="edge16_Node000005_Node000012" class="edge">
<title>Node5&#45;&gt;Node12</title>
<g id="a_edge16_Node000005_Node000012"><a xlink:title=" ">
<path fill="none" stroke="#63b8ff" d="M532.63,-165.34C512.71,-156.93 482.76,-144.27 460,-134.65"/>
<polygon fill="#63b8ff" stroke="#63b8ff" points="461.45,-131.46 450.87,-130.79 458.72,-137.91 461.45,-131.46"/>
</a>
</g>
</g>
<!-- Node8&#45;&gt;Node2 -->
<g id="edge9_Node000008_Node000002" class="edge">
<title>Node8&#45;&gt;Node2</title>
<g id="a_edge9_Node000008_Node000002"><a xlink:title=" ">
<path fill="none" stroke="#63b8ff" d="M761.18,-110.11C742.92,-96.57 706.38,-70.87 672,-55.25 633.84,-37.91 587.19,-25.26 556.15,-17.95"/>
<polygon fill="#63b8ff" stroke="#63b8ff" points="557.07,-14.57 546.54,-15.75 555.5,-21.39 557.07,-14.57"/>
</a>
</g>
</g>
<!-- Node9 -->
<g id="Node000009" class="node">
<title>Node9</title>
<g id="a_Node000009"><a xlink:title=" ">
<polygon fill="#e0e0e0" stroke="#999999" points="825.75,-74.5 724.25,-74.5 724.25,-55.25 825.75,-55.25 825.75,-74.5"/>
<text text-anchor="middle" x="775" y="-61" font-family="Helvetica,sans-Serif" font-size="10.00">Adafruit_NeoPixel.h</text>
</a>
</g>
</g>
<!-- Node8&#45;&gt;Node9 -->
<g id="edge10_Node000008_Node000009" class="edge">
<title>Node8&#45;&gt;Node9</title>
<g id="a_edge10_Node000008_Node000009"><a xlink:title=" ">
<path fill="none" stroke="#63b8ff" d="M773.33,-110.33C773.58,-103.74 773.93,-94.46 774.24,-86.07"/>
<polygon fill="#63b8ff" stroke="#63b8ff" points="777.73,-86.5 774.61,-76.37 770.73,-86.23 777.73,-86.5"/>
</a>
</g>
</g>
<!-- Node10 -->
<g id="Node000010" class="node">
<title>Node10</title>
<g id="a_Node000010"><a xlink:href="_pins_config_8hpp.xhtml" target="_top" xlink:title=" ">
<polygon fill="white" stroke="#666666" points="924.25,-74.5 843.75,-74.5 843.75,-55.25 924.25,-55.25 924.25,-74.5"/>
<text text-anchor="middle" x="884" y="-61" font-family="Helvetica,sans-Serif" font-size="10.00">PinsConfig.hpp</text>
</a>
</g>
</g>
<!-- Node8&#45;&gt;Node10 -->
<g id="edge11_Node000008_Node000010" class="edge">
<title>Node8&#45;&gt;Node10</title>
<g id="a_edge11_Node000008_Node000010"><a xlink:title=" ">
<path fill="none" stroke="#63b8ff" d="M791.83,-110.09C809.05,-101.83 834.8,-89.48 854.71,-79.93"/>
<polygon fill="#63b8ff" stroke="#63b8ff" points="856.21,-83.09 863.71,-75.61 853.18,-76.78 856.21,-83.09"/>
</a>
</g>
</g>
<!-- Node10&#45;&gt;Node2 -->
<g id="edge12_Node000010_Node000002" class="edge">
<title>Node10&#45;&gt;Node2</title>
<g id="a_edge12_Node000010_Node000002"><a xlink:title=" ">
<path fill="none" stroke="#63b8ff" d="M843.38,-56.62C840.54,-56.15 837.73,-55.68 835,-55.25 733.79,-39.13 613.71,-22.79 556.13,-15.12"/>
<polygon fill="#63b8ff" stroke="#63b8ff" points="556.69,-11.66 546.32,-13.82 555.77,-18.6 556.69,-11.66"/>
</a>
</g>
</g>
<!-- Node10&#45;&gt;Node3 -->
<g id="edge13_Node000010_Node000003" class="edge">
<title>Node10&#45;&gt;Node3</title>
<g id="a_edge13_Node000010_Node000003"><a xlink:title=" ">
<path fill="none" stroke="#63b8ff" d="M898.76,-54.84C911.88,-46.81 931.32,-34.91 946.73,-25.48"/>
<polygon fill="#63b8ff" stroke="#63b8ff" points="948.18,-28.7 954.88,-20.49 944.52,-22.73 948.18,-28.7"/>
</a>
</g>
</g>
<!-- Node11&#45;&gt;Node2 -->
<g id="edge15_Node000011_Node000002" class="edge">
<title>Node11&#45;&gt;Node2</title>
<g id="a_edge15_Node000011_Node000002"><a xlink:title=" ">
<path fill="none" stroke="#63b8ff" d="M493.61,-55.08C498.12,-48.03 504.59,-37.9 510.21,-29.08"/>
<polygon fill="#63b8ff" stroke="#63b8ff" points="513.02,-31.2 515.45,-20.88 507.12,-27.43 513.02,-31.2"/>
</a>
</g>
</g>
<!-- Node12&#45;&gt;Node2 -->
<g id="edge17_Node000012_Node000002" class="edge">
<title>Node12&#45;&gt;Node2</title>
<g id="a_edge17_Node000012_Node000002"><a xlink:title=" ">
<path fill="none" stroke="#63b8ff" d="M412.9,-110.04C394.27,-97.66 366.68,-74.8 381,-55.25 405.36,-21.99 454.63,-12.9 487.98,-10.74"/>
<polygon fill="#63b8ff" stroke="#63b8ff" points="487.7,-14.26 497.54,-10.31 487.39,-7.26 487.7,-14.26"/>
</a>
</g>
</g>
<!-- Node12&#45;&gt;Node6 -->
<g id="edge19_Node000012_Node000006" class="edge">
<title>Node12&#45;&gt;Node6</title>
<g id="a_edge19_Node000012_Node000006"><a xlink:title=" ">
<path fill="none" stroke="#63b8ff" d="M454.8,-111.15C486.34,-101.77 538.77,-86.17 573.11,-75.96"/>
<polygon fill="#63b8ff" stroke="#63b8ff" points="573.97,-79.35 582.55,-73.15 571.97,-72.64 573.97,-79.35"/>
</a>
</g>
</g>
<!-- Node12&#45;&gt;Node7 -->
<g id="edge18_Node000012_Node000007" class="edge">
<title>Node12&#45;&gt;Node7</title>
<g id="a_edge18_Node000012_Node000007"><a xlink:title=" ">
<path fill="none" stroke="#63b8ff" d="M425.03,-110.33C422.75,-103.59 419.51,-94.02 416.63,-85.49"/>
<polygon fill="#63b8ff" stroke="#63b8ff" points="420.04,-84.65 413.52,-76.29 413.41,-86.89 420.04,-84.65"/>
</a>
</g>
</g>
<!-- Node12&#45;&gt;Node11 -->
<g id="edge20_Node000012_Node000011" class="edge">
<title>Node12&#45;&gt;Node11</title>
<g id="a_edge20_Node000012_Node000011"><a xlink:title=" ">
<path fill="none" stroke="#63b8ff" d="M438.18,-110.09C446.76,-102.47 459.27,-91.37 469.6,-82.2"/>
<polygon fill="#63b8ff" stroke="#63b8ff" points="471.68,-85.04 476.84,-75.78 467.04,-79.8 471.68,-85.04"/>
</a>
</g>
</g>
<!-- Node13&#45;&gt;Node2 -->
<g id="edge44_Node000013_Node000002" class="edge">
<title>Node13&#45;&gt;Node2</title>
<g id="a_edge44_Node000013_Node000002"><a xlink:title=" ">
<path fill="none" stroke="#63b8ff" d="M643.31,-275.85C654.87,-242.65 690.01,-125.61 639,-55.25 619.99,-29.03 583.49,-18.22 556.29,-13.76"/>
<polygon fill="#63b8ff" stroke="#63b8ff" points="556.8,-10.29 546.41,-12.37 555.83,-17.23 556.8,-10.29"/>
</a>
</g>
</g>
<!-- Node13&#45;&gt;Node3 -->
<g id="edge42_Node000013_Node000003" class="edge">
<title>Node13&#45;&gt;Node3</title>
<g id="a_edge42_Node000013_Node000003"><a xlink:title=" ">
<path fill="none" stroke="#63b8ff" d="M675.81,-281.47C765.01,-272.01 990,-241.66 990,-176.38 990,-176.38 990,-176.38 990,-119.12 990,-87.79 982.22,-52.12 976.61,-30.5"/>
<polygon fill="#63b8ff" stroke="#63b8ff" points="980.03,-29.73 974.04,-21 973.28,-31.56 980.03,-29.73"/>
</a>
</g>
</g>
<!-- Node13&#45;&gt;Node5 -->
<g id="edge36_Node000013_Node000005" class="edge">
<title>Node13&#45;&gt;Node5</title>
<g id="a_edge36_Node000013_Node000005"><a xlink:title=" ">
<path fill="none" stroke="#63b8ff" d="M622.64,-275.81C609.13,-267.98 590.77,-255.53 579,-240.25 568.99,-227.25 562.51,-209.73 558.66,-196.33"/>
<polygon fill="#63b8ff" stroke="#63b8ff" points="562.12,-195.7 556.22,-186.9 555.34,-197.45 562.12,-195.7"/>
</a>
</g>
</g>
<!-- Node13&#45;&gt;Node6 -->
<g id="edge43_Node000013_Node000006" class="edge">
<title>Node13&#45;&gt;Node6</title>
<g id="a_edge43_Node000013_Node000006"><a xlink:title=" ">
<path fill="none" stroke="#63b8ff" d="M642.35,-275.77C645.24,-263.36 649.47,-240.48 647,-221 640.69,-171.27 623.44,-114.66 613.78,-85.52"/>
<polygon fill="#63b8ff" stroke="#63b8ff" points="617.16,-84.6 610.64,-76.25 610.53,-86.84 617.16,-84.6"/>
</a>
</g>
</g>
<!-- Node13&#45;&gt;Node14 -->
<g id="edge22_Node000013_Node000014" class="edge">
<title>Node13&#45;&gt;Node14</title>
<g id="a_edge22_Node000013_Node000014"><a xlink:title=" ">
<path fill="none" stroke="#63b8ff" d="M604.13,-277.69C556.83,-268.23 473.5,-251.54 421.15,-241.06"/>
<polygon fill="#63b8ff" stroke="#63b8ff" points="422.13,-237.69 411.64,-239.16 420.76,-244.55 422.13,-237.69"/>
</a>
</g>
</g>
<!-- Node21 -->
<g id="Node000021" class="node">
<title>Node21</title>
<g id="a_Node000021"><a xlink:href="_tasks_8hpp.xhtml" target="_top" xlink:title=" ">
<polygon fill="white" stroke="#666666" points="911.5,-185 850.5,-185 850.5,-165.75 911.5,-165.75 911.5,-185"/>
<text text-anchor="middle" x="881" y="-171.5" font-family="Helvetica,sans-Serif" font-size="10.00">Tasks.hpp</text>
</a>
</g>
</g>
<!-- Node13&#45;&gt;Node21 -->
<g id="edge37_Node000013_Node000021" class="edge">
<title>Node13&#45;&gt;Node21</title>
<g id="a_edge37_Node000013_Node000021"><a xlink:title=" ">
<path fill="none" stroke="#63b8ff" d="M660.13,-275.81C702.4,-256.78 800.58,-212.58 850.57,-190.08"/>
<polygon fill="#63b8ff" stroke="#63b8ff" points="851.69,-193.41 859.37,-186.11 848.82,-187.02 851.69,-193.41"/>
</a>
</g>
</g>
<!-- Node24 -->
<g id="Node000024" class="node">
<title>Node24</title>
<g id="a_Node000024"><a xlink:title=" ">
<polygon fill="#e0e0e0" stroke="#999999" points="637.88,-240.25 588.12,-240.25 588.12,-221 637.88,-221 637.88,-240.25"/>
<text text-anchor="middle" x="613" y="-226.75" font-family="Helvetica,sans-Serif" font-size="10.00">optional</text>
</a>
</g>
</g>
<!-- Node13&#45;&gt;Node24 -->
<g id="edge45_Node000013_Node000024" class="edge">
<title>Node13&#45;&gt;Node24</title>
<g id="a_edge45_Node000013_Node000024"><a xlink:title=" ">
<path fill="none" stroke="#63b8ff" d="M635.54,-276.08C632.05,-269.19 627.05,-259.34 622.65,-250.66"/>
<polygon fill="#63b8ff" stroke="#63b8ff" points="625.88,-249.3 618.24,-241.96 619.64,-252.46 625.88,-249.3"/>
</a>
</g>
</g>
<!-- Node14&#45;&gt;Node2 -->
<g id="edge33_Node000014_Node000002" class="edge">
<title>Node14&#45;&gt;Node2</title>
<g id="a_edge33_Node000014_Node000002"><a xlink:title=" ">
<path fill="none" stroke="#63b8ff" d="M357.13,-220.57C323.94,-201.51 255.5,-155.31 281,-110.5 322.74,-37.15 431.39,-17.67 487.44,-12.49"/>
<polygon fill="#63b8ff" stroke="#63b8ff" points="487.69,-15.99 497.37,-11.69 487.12,-9.01 487.69,-15.99"/>
</a>
</g>
</g>
<!-- Node14&#45;&gt;Node3 -->
<g id="edge32_Node000014_Node000003" class="edge">
<title>Node14&#45;&gt;Node3</title>
<g id="a_edge32_Node000014_Node000003"><a xlink:title=" ">
<path fill="none" stroke="#63b8ff" d="M410.09,-223.89C456.91,-216.22 540.98,-201.63 612,-185 700.12,-164.36 723.2,-161.37 808,-129.75 826.86,-122.72 830.63,-118.74 849,-110.5 886.06,-93.87 902.45,-101.27 933,-74.5 946.8,-62.41 956.99,-44.04 963.33,-30.1"/>
<polygon fill="#63b8ff" stroke="#63b8ff" points="966.48,-31.64 967.15,-21.07 960.03,-28.91 966.48,-31.64"/>
</a>
</g>
</g>
<!-- Node14&#45;&gt;Node7 -->
<g id="edge35_Node000014_Node000007" class="edge">
<title>Node14&#45;&gt;Node7</title>
<g id="a_edge35_Node000014_Node000007"><a xlink:title=" ">
<path fill="none" stroke="#63b8ff" d="M374.81,-220.53C376.73,-200.41 382.24,-150.76 393,-110.5 395.25,-102.1 398.51,-93.08 401.57,-85.38"/>
<polygon fill="#63b8ff" stroke="#63b8ff" points="404.73,-86.9 405.34,-76.32 398.27,-84.21 404.73,-86.9"/>
</a>
</g>
</g>
<!-- Node14&#45;&gt;Node12 -->
<g id="edge31_Node000014_Node000012" class="edge">
<title>Node14&#45;&gt;Node12</title>
<g id="a_edge31_Node000014_Node000012"><a xlink:title=" ">
<path fill="none" stroke="#63b8ff" d="M378.42,-220.75C387.12,-203.26 406.65,-164.02 418.44,-140.34"/>
<polygon fill="#63b8ff" stroke="#63b8ff" points="421.52,-141.99 422.85,-131.48 415.26,-138.87 421.52,-141.99"/>
</a>
</g>
</g>
<!-- Node15 -->
<g id="Node000015" class="node">
<title>Node15</title>
<g id="a_Node000015"><a xlink:title=" ">
<polygon fill="#e0e0e0" stroke="#999999" points="346.25,-129.75 289.75,-129.75 289.75,-110.5 346.25,-110.5 346.25,-129.75"/>
<text text-anchor="middle" x="318" y="-116.25" font-family="Helvetica,sans-Serif" font-size="10.00">Arduino.h</text>
</a>
</g>
</g>
<!-- Node14&#45;&gt;Node15 -->
<g id="edge23_Node000014_Node000015" class="edge">
<title>Node14&#45;&gt;Node15</title>
<g id="a_edge23_Node000014_Node000015"><a xlink:title=" ">
<path fill="none" stroke="#63b8ff" d="M369.42,-220.75C360.39,-203.26 340.14,-164.02 327.92,-140.34"/>
<polygon fill="#63b8ff" stroke="#63b8ff" points="331.04,-138.75 323.34,-131.47 324.82,-141.96 331.04,-138.75"/>
</a>
</g>
</g>
<!-- Node16 -->
<g id="Node000016" class="node">
<title>Node16</title>
<g id="a_Node000016"><a xlink:href="card_8hpp.xhtml" target="_top" xlink:title=" ">
<polygon fill="white" stroke="#666666" points="234.38,-185 181.62,-185 181.62,-165.75 234.38,-165.75 234.38,-185"/>
<text text-anchor="middle" x="208" y="-171.5" font-family="Helvetica,sans-Serif" font-size="10.00">card.hpp</text>
</a>
</g>
</g>
<!-- Node14&#45;&gt;Node16 -->
<g id="edge24_Node000014_Node000016" class="edge">
<title>Node14&#45;&gt;Node16</title>
<g id="a_edge24_Node000014_Node000016"><a xlink:title=" ">
<path fill="none" stroke="#63b8ff" d="M345.84,-220.59C318.16,-211.71 275.75,-198.11 245.28,-188.33"/>
<polygon fill="#63b8ff" stroke="#63b8ff" points="246.68,-185.11 236.09,-185.39 244.54,-191.77 246.68,-185.11"/>
</a>
</g>
</g>
<!-- Node17 -->
<g id="Node000017" class="node">
<title>Node17</title>
<g id="a_Node000017"><a xlink:title=" ">
<polygon fill="#e0e0e0" stroke="#999999" points="79.62,-129.75 28.38,-129.75 28.38,-110.5 79.62,-110.5 79.62,-129.75"/>
<text text-anchor="middle" x="54" y="-116.25" font-family="Helvetica,sans-Serif" font-size="10.00">sstream</text>
</a>
</g>
</g>
<!-- Node14&#45;&gt;Node17 -->
<g id="edge34_Node000014_Node000017" class="edge">
<title>Node14&#45;&gt;Node17</title>
<g id="a_edge34_Node000014_Node000017"><a xlink:title=" ">
<path fill="none" stroke="#63b8ff" d="M337.93,-224.67C297.04,-218.36 228.79,-205.72 173,-185 138.12,-172.05 100.75,-150.61 77.39,-136.18"/>
<polygon fill="#63b8ff" stroke="#63b8ff" points="79.31,-133.25 68.98,-130.91 75.59,-139.18 79.31,-133.25"/>
</a>
</g>
</g>
<!-- Node16&#45;&gt;Node12 -->
<g id="edge28_Node000016_Node000012" class="edge">
<title>Node16&#45;&gt;Node12</title>
<g id="a_edge28_Node000016_Node000012"><a xlink:title=" ">
<path fill="none" stroke="#63b8ff" d="M234.54,-167.95C273.35,-158.56 345.81,-141.02 390.19,-130.28"/>
<polygon fill="#63b8ff" stroke="#63b8ff" points="391,-133.68 399.9,-127.93 389.35,-126.88 391,-133.68"/>
</a>
</g>
</g>
<!-- Node16&#45;&gt;Node15 -->
<g id="edge27_Node000016_Node000015" class="edge">
<title>Node16&#45;&gt;Node15</title>
<g id="a_edge27_Node000016_Node000015"><a xlink:title=" ">
<path fill="none" stroke="#63b8ff" d="M226.66,-165.34C243.73,-157.08 269.24,-144.73 288.97,-135.18"/>
<polygon fill="#63b8ff" stroke="#63b8ff" points="290.41,-138.37 297.89,-130.86 287.36,-132.07 290.41,-138.37"/>
</a>
</g>
</g>
<!-- Node16&#45;&gt;Node17 -->
<g id="edge25_Node000016_Node000017" class="edge">
<title>Node16&#45;&gt;Node17</title>
<g id="a_edge25_Node000016_Node000017"><a xlink:title=" ">
<path fill="none" stroke="#63b8ff" d="M181.88,-165.34C156.8,-156.67 118.69,-143.5 90.6,-133.78"/>
<polygon fill="#63b8ff" stroke="#63b8ff" points="92.02,-130.57 81.43,-130.61 89.73,-137.18 92.02,-130.57"/>
</a>
</g>
</g>
<!-- Node18 -->
<g id="Node000018" class="node">
<title>Node18</title>
<g id="a_Node000018"><a xlink:title=" ">
<polygon fill="#e0e0e0" stroke="#999999" points="233.88,-129.75 184.12,-129.75 184.12,-110.5 233.88,-110.5 233.88,-129.75"/>
<text text-anchor="middle" x="209" y="-116.25" font-family="Helvetica,sans-Serif" font-size="10.00">iomanip</text>
</a>
</g>
</g>
<!-- Node16&#45;&gt;Node18 -->
<g id="edge26_Node000016_Node000018" class="edge">
<title>Node16&#45;&gt;Node18</title>
<g id="a_edge26_Node000016_Node000018"><a xlink:title=" ">
<path fill="none" stroke="#63b8ff" d="M208.17,-165.58C208.29,-159.07 208.46,-149.92 208.62,-141.62"/>
<polygon fill="#63b8ff" stroke="#63b8ff" points="212.11,-141.69 208.8,-131.62 205.12,-141.55 212.11,-141.69"/>
</a>
</g>
</g>
<!-- Node19 -->
<g id="Node000019" class="node">
<title>Node19</title>
<g id="a_Node000019"><a xlink:href="_logging_8hpp.xhtml" target="_top" xlink:title=" ">
<polygon fill="white" stroke="#666666" points="166.25,-129.75 97.75,-129.75 97.75,-110.5 166.25,-110.5 166.25,-129.75"/>
<text text-anchor="middle" x="132" y="-116.25" font-family="Helvetica,sans-Serif" font-size="10.00">Logging.hpp</text>
</a>
</g>
</g>
<!-- Node16&#45;&gt;Node19 -->
<g id="edge29_Node000016_Node000019" class="edge">
<title>Node16&#45;&gt;Node19</title>
<g id="a_edge29_Node000016_Node000019"><a xlink:title=" ">
<path fill="none" stroke="#63b8ff" d="M195.11,-165.34C183.97,-157.54 167.63,-146.09 154.36,-136.79"/>
<polygon fill="#63b8ff" stroke="#63b8ff" points="156.39,-133.94 146.2,-131.07 152.38,-139.68 156.39,-133.94"/>
</a>
</g>
</g>
<!-- Node20 -->
<g id="Node000020" class="node">
<title>Node20</title>
<g id="a_Node000020"><a xlink:title=" ">
<polygon fill="#e0e0e0" stroke="#999999" points="160.62,-74.5 103.38,-74.5 103.38,-55.25 160.62,-55.25 160.62,-74.5"/>
<text text-anchor="middle" x="132" y="-61" font-family="Helvetica,sans-Serif" font-size="10.00">esp_log.h</text>
</a>
</g>
</g>
<!-- Node19&#45;&gt;Node20 -->
<g id="edge30_Node000019_Node000020" class="edge">
<title>Node19&#45;&gt;Node20</title>
<g id="a_edge30_Node000019_Node000020"><a xlink:title=" ">
<path fill="none" stroke="#63b8ff" d="M132,-110.33C132,-103.82 132,-94.67 132,-86.37"/>
<polygon fill="#63b8ff" stroke="#63b8ff" points="135.5,-86.37 132,-76.37 128.5,-86.37 135.5,-86.37"/>
</a>
</g>
</g>
<!-- Node21&#45;&gt;Node6 -->
<g id="edge38_Node000021_Node000006" class="edge">
<title>Node21&#45;&gt;Node6</title>
<g id="a_edge38_Node000021_Node000006"><a xlink:title=" ">
<path fill="none" stroke="#63b8ff" d="M850.13,-166.2C820.85,-158.11 775.83,-144.77 738,-129.75 700.8,-114.97 659.55,-94.07 633.46,-80.25"/>
<polygon fill="#63b8ff" stroke="#63b8ff" points="635.39,-77.31 624.92,-75.69 632.1,-83.49 635.39,-77.31"/>
</a>
</g>
</g>
<!-- Node21&#45;&gt;Node15 -->
<g id="edge40_Node000021_Node000015" class="edge">
<title>Node21&#45;&gt;Node15</title>
<g id="a_edge40_Node000021_Node000015"><a xlink:title=" ">
<path fill="none" stroke="#63b8ff" d="M850.14,-171.8C773.02,-165.33 565.64,-147.57 393,-129.75 381.58,-128.57 369.2,-127.19 357.85,-125.88"/>
<polygon fill="#63b8ff" stroke="#63b8ff" points="358.32,-122.41 347.98,-124.73 357.51,-129.37 358.32,-122.41"/>
</a>
</g>
</g>
<!-- Node22 -->
<g id="Node000022" class="node">
<title>Node22</title>
<g id="a_Node000022"><a xlink:title=" ">
<polygon fill="#e0e0e0" stroke="#999999" points="962,-129.75 904,-129.75 904,-110.5 962,-110.5 962,-129.75"/>
<text text-anchor="middle" x="933" y="-116.25" font-family="Helvetica,sans-Serif" font-size="10.00">functional</text>
</a>
</g>
</g>
<!-- Node21&#45;&gt;Node22 -->
<g id="edge39_Node000021_Node000022" class="edge">
<title>Node21&#45;&gt;Node22</title>
<g id="a_edge39_Node000021_Node000022"><a xlink:title=" ">
<path fill="none" stroke="#63b8ff" d="M889.59,-165.58C896.84,-158.15 907.45,-147.29 916.37,-138.16"/>
<polygon fill="#63b8ff" stroke="#63b8ff" points="918.69,-140.79 923.17,-131.19 913.68,-135.9 918.69,-140.79"/>
</a>
</g>
</g>
<!-- Node23 -->
<g id="Node000023" class="node">
<title>Node23</title>
<g id="a_Node000023"><a xlink:title=" ">
<polygon fill="#e0e0e0" stroke="#999999" points="886.4,-129.75 857.6,-129.75 857.6,-110.5 886.4,-110.5 886.4,-129.75"/>
<text text-anchor="middle" x="872" y="-116.25" font-family="Helvetica,sans-Serif" font-size="10.00">list</text>
</a>
</g>
</g>
<!-- Node21&#45;&gt;Node23 -->
<g id="edge41_Node000021_Node000023" class="edge">
<title>Node21&#45;&gt;Node23</title>
<g id="a_edge41_Node000021_Node000023"><a xlink:title=" ">
<path fill="none" stroke="#63b8ff" d="M879.51,-165.58C878.4,-158.99 876.83,-149.71 875.41,-141.32"/>
<polygon fill="#63b8ff" stroke="#63b8ff" points="878.89,-140.88 873.77,-131.6 871.99,-142.05 878.89,-140.88"/>
</a>
</g>
</g>
</g>
</svg>
