<?xml version="1.0" encoding="UTF-8" standalone="no"?>
<!DOCTYPE svg PUBLIC "-//W3C//DTD SVG 1.1//EN"
 "http://www.w3.org/Graphics/SVG/1.1/DTD/svg11.dtd">
<!-- Generated by graphviz version 9.0.0 (20230911.1827)
 -->
<!-- Title: fabomatic::MachineConfig Pages: 1 -->
<svg width="304pt" height="442pt"
 viewBox="0.00 0.00 304.00 441.50" xmlns="http://www.w3.org/2000/svg" xmlns:xlink="http://www.w3.org/1999/xlink">
<g id="graph0" class="graph" transform="scale(1 1) rotate(0) translate(4 437.5)">
<title>fabomatic::MachineConfig</title>
<!-- Node1 -->
<g id="Node000001" class="node">
<title>Node1</title>
<g id="a_Node000001"><a xlink:title=" ">
<polygon fill="#999999" stroke="none" points="194.5,-199 73.5,-199 73.5,0 194.5,0 194.5,-199"/>
<text text-anchor="start" x="78.5" y="-185.5" font-family="Helvetica,sans-Serif" font-size="10.00">fabomatic::MachineConfig</text>
<text text-anchor="start" x="85.5" y="-170.5" font-family="Helvetica,sans-Serif" font-size="10.00">+</text>
<text text-anchor="start" x="103.5" y="-170.5" font-family="Helvetica,sans-Serif" font-size="10.00">machine_type</text>
<text text-anchor="start" x="85.5" y="-155.5" font-family="Helvetica,sans-Serif" font-size="10.00">+</text>
<text text-anchor="start" x="103.5" y="-155.5" font-family="Helvetica,sans-Serif" font-size="10.00">autologoff</text>
<text text-anchor="start" x="85.5" y="-140.5" font-family="Helvetica,sans-Serif" font-size="10.00">+</text>
<text text-anchor="start" x="103.5" y="-140.5" font-family="Helvetica,sans-Serif" font-size="10.00">grace_period</text>
<text text-anchor="start" x="85.5" y="-125.5" font-family="Helvetica,sans-Serif" font-size="10.00">+</text>
<text text-anchor="start" x="103.5" y="-125.5" font-family="Helvetica,sans-Serif" font-size="10.00">MachineConfig()</text>
<text text-anchor="start" x="85.5" y="-110.5" font-family="Helvetica,sans-Serif" font-size="10.00">+</text>
<text text-anchor="start" x="103.5" y="-110.5" font-family="Helvetica,sans-Serif" font-size="10.00">toString()</text>
<text text-anchor="start" x="85.5" y="-95.5" font-family="Helvetica,sans-Serif" font-size="10.00">+</text>
<text text-anchor="start" x="103.5" y="-95.5" font-family="Helvetica,sans-Serif" font-size="10.00">hasRelay()</text>
<text text-anchor="start" x="85.5" y="-80.5" font-family="Helvetica,sans-Serif" font-size="10.00">+</text>
<text text-anchor="start" x="103.5" y="-80.5" font-family="Helvetica,sans-Serif" font-size="10.00">hasMqttSwitch()</text>
<text text-anchor="start" x="85.5" y="-65.5" font-family="Helvetica,sans-Serif" font-size="10.00">+</text>
<text text-anchor="start" x="103.5" y="-65.5" font-family="Helvetica,sans-Serif" font-size="10.00">MachineConfig()</text>
<text text-anchor="start" x="85.5" y="-50.5" font-family="Helvetica,sans-Serif" font-size="10.00">+</text>
<text text-anchor="start" x="103.5" y="-50.5" font-family="Helvetica,sans-Serif" font-size="10.00">MachineConfig()</text>
<text text-anchor="start" x="85.5" y="-35.5" font-family="Helvetica,sans-Serif" font-size="10.00">+</text>
<text text-anchor="start" x="103.5" y="-35.5" font-family="Helvetica,sans-Serif" font-size="10.00">operator=()</text>
<text text-anchor="start" x="85.5" y="-20.5" font-family="Helvetica,sans-Serif" font-size="10.00">+</text>
<text text-anchor="start" x="103.5" y="-20.5" font-family="Helvetica,sans-Serif" font-size="10.00">MachineConfig()</text>
<text text-anchor="start" x="85.5" y="-5.5" font-family="Helvetica,sans-Serif" font-size="10.00">+</text>
<text text-anchor="start" x="103.5" y="-5.5" font-family="Helvetica,sans-Serif" font-size="10.00">operator=()</text>
<polygon fill="#666666" stroke="#666666" points="73.5,-182 73.5,-182 194.5,-182 194.5,-182 73.5,-182"/>
<polygon fill="#666666" stroke="#666666" points="73.5,-137 73.5,-137 101.5,-137 101.5,-137 73.5,-137"/>
<polygon fill="#666666" stroke="#666666" points="101.5,-137 101.5,-137 194.5,-137 194.5,-137 101.5,-137"/>
<polygon fill="none" stroke="#666666" points="73.5,0 73.5,-199 194.5,-199 194.5,0 73.5,0"/>
</a>
</g>
</g>
<!-- Node2 -->
<g id="Node000002" class="node">
<title>Node2</title>
<g id="a_Node000002"><a xlink:href="struct_machine_i_d.xhtml" target="_top" xlink:title=" ">
<polygon fill="white" stroke="none" points="96,-336.5 0,-336.5 0,-257.5 96,-257.5 96,-336.5"/>
<text text-anchor="start" x="24.75" y="-323" font-family="Helvetica,sans-Serif" font-size="10.00">MachineID</text>
<text text-anchor="start" x="4" y="-308" font-family="Helvetica,sans-Serif" font-size="10.00">+</text>
<text text-anchor="start" x="14" y="-308" font-family="Helvetica,sans-Serif" font-size="10.00">id</text>
<text text-anchor="start" x="4" y="-293" font-family="Helvetica,sans-Serif" font-size="10.00">+</text>
<text text-anchor="start" x="14" y="-293" font-family="Helvetica,sans-Serif" font-size="10.00">MachineID()</text>
<text text-anchor="start" x="4" y="-278" font-family="Helvetica,sans-Serif" font-size="10.00">+</text>
<text text-anchor="start" x="14" y="-278" font-family="Helvetica,sans-Serif" font-size="10.00">MachineID()</text>
<text text-anchor="start" x="4" y="-263" font-family="Helvetica,sans-Serif" font-size="10.00">+</text>
<text text-anchor="start" x="14" y="-263" font-family="Helvetica,sans-Serif" font-size="10.00">operator uint16_t()</text>
<polygon fill="#666666" stroke="#666666" points="0,-319.5 0,-319.5 96,-319.5 96,-319.5 0,-319.5"/>
<polygon fill="#666666" stroke="#666666" points="0,-304.5 0,-304.5 12,-304.5 12,-304.5 0,-304.5"/>
<polygon fill="#666666" stroke="#666666" points="12,-304.5 12,-304.5 96,-304.5 96,-304.5 12,-304.5"/>
<polygon fill="none" stroke="#666666" points="0,-257.5 0,-336.5 96,-336.5 96,-257.5 0,-257.5"/>
</a>
</g>
</g>
<!-- Node2&#45;&gt;Node1 -->
<g id="edge1_Node000001_Node000002" class="edge">
<title>Node2&#45;&gt;Node1</title>
<g id="a_edge1_Node000001_Node000002"><a xlink:title=" ">
<path fill="none" stroke="#63b8ff" d="M58.16,-257.71C62.06,-244.61 66.87,-229.99 72.25,-217 73.15,-214.83 74.07,-212.65 75.02,-210.47"/>
<polygon fill="none" stroke="#63b8ff" points="75.01,-210.48 73.82,-203.37 79.92,-199.53 81.12,-206.64 75.01,-210.48"/>
</a>
</g>
<text text-anchor="middle" x="100.88" y="-224.38" font-family="Helvetica,sans-Serif" font-size="10.00" fill="grey"> +machine_id</text>
</g>
<!-- Node3 -->
<g id="Node000003" class="node">
<title>Node3</title>
<g id="a_Node000003"><a xlink:title=" ">
<polygon fill="white" stroke="none" points="166,-321.5 114,-321.5 114,-272.5 166,-272.5 166,-321.5"/>
<text text-anchor="start" x="119" y="-308" font-family="Helvetica,sans-Serif" font-size="10.00">std::string</text>
<text text-anchor="start" x="138.5" y="-293" font-family="Helvetica,sans-Serif" font-size="10.00"> </text>
<text text-anchor="start" x="138.5" y="-278" font-family="Helvetica,sans-Serif" font-size="10.00"> </text>
<polygon fill="#666666" stroke="#666666" points="114,-304.5 114,-304.5 166,-304.5 166,-304.5 114,-304.5"/>
<polygon fill="#666666" stroke="#666666" points="114,-289.5 114,-289.5 166,-289.5 166,-289.5 114,-289.5"/>
<polygon fill="none" stroke="#666666" points="114,-272.5 114,-321.5 166,-321.5 166,-272.5 114,-272.5"/>
</a>
</g>
</g>
<!-- Node3&#45;&gt;Node1 -->
<g id="edge2_Node000001_Node000003" class="edge">
<title>Node3&#45;&gt;Node1</title>
<g id="a_edge2_Node000001_Node000003"><a xlink:title=" ">
<path fill="none" stroke="#63b8ff" d="M137.78,-272.66C136.9,-262.48 135.99,-250.41 135.5,-239.5 135.09,-230.47 134.77,-221.1 134.52,-211.69"/>
<polygon fill="none" stroke="#63b8ff" points="134.52,-211.76 130.38,-205.85 134.24,-199.76 138.38,-205.67 134.52,-211.76"/>
</a>
</g>
<text text-anchor="middle" x="177.75" y="-230" font-family="Helvetica,sans-Serif" font-size="10.00" fill="grey"> +machine_name</text>
<text text-anchor="middle" x="177.75" y="-218.75" font-family="Helvetica,sans-Serif" font-size="10.00" fill="grey">+mqtt_switch_topic</text>
</g>
<!-- Node4 -->
<g id="Node000004" class="node">
<title>Node4</title>
<g id="a_Node000004"><a xlink:title=" ">
<polygon fill="white" stroke="none" points="183,-433.5 97,-433.5 97,-373.5 183,-373.5 183,-433.5"/>
<text text-anchor="start" x="101.75" y="-420" font-family="Helvetica,sans-Serif" font-size="10.00">std::basic_string&lt;</text>
<text text-anchor="start" x="124.62" y="-408.75" font-family="Helvetica,sans-Serif" font-size="10.00"> Char &gt;</text>
<text text-anchor="start" x="138.5" y="-394" font-family="Helvetica,sans-Serif" font-size="10.00"> </text>
<text text-anchor="start" x="138.5" y="-379" font-family="Helvetica,sans-Serif" font-size="10.00"> </text>
<polygon fill="#666666" stroke="#666666" points="97,-405.5 97,-405.5 183,-405.5 183,-405.5 97,-405.5"/>
<polygon fill="#666666" stroke="#666666" points="97,-390.5 97,-390.5 183,-390.5 183,-390.5 97,-390.5"/>
<polygon fill="none" stroke="#666666" points="97,-373.5 97,-433.5 183,-433.5 183,-373.5 97,-373.5"/>
</a>
</g>
</g>
<!-- Node4&#45;&gt;Node3 -->
<g id="edge3_Node000003_Node000004" class="edge">
<title>Node4&#45;&gt;Node3</title>
<g id="a_edge3_Node000003_Node000004"><a xlink:title=" ">
<path fill="none" stroke="#63b8ff" d="M140,-362.42C140,-348.58 140,-333.53 140,-321.46"/>
<polygon fill="none" stroke="#63b8ff" points="136.5,-362.15 140,-372.15 143.5,-362.15 136.5,-362.15"/>
</a>
</g>
</g>
<!-- Node5 -->
<g id="Node000005" class="node">
<title>Node5</title>
<g id="a_Node000005"><a xlink:href="structfabomatic_1_1pins__config_1_1relay__config.xhtml" target="_top" xlink:title=" ">
<polygon fill="white" stroke="none" points="296,-334.5 190,-334.5 190,-259.5 296,-259.5 296,-334.5"/>
<text text-anchor="start" x="195" y="-321" font-family="Helvetica,sans-Serif" font-size="10.00">fabomatic::pins_config</text>
<text text-anchor="start" x="215.25" y="-309.75" font-family="Helvetica,sans-Serif" font-size="10.00">::relay_config</text>
<text text-anchor="start" x="204.5" y="-295" font-family="Helvetica,sans-Serif" font-size="10.00">+</text>
<text text-anchor="start" x="225" y="-295" font-family="Helvetica,sans-Serif" font-size="10.00">ch1_pin</text>
<text text-anchor="start" x="204.5" y="-280" font-family="Helvetica,sans-Serif" font-size="10.00">+</text>
<text text-anchor="start" x="225" y="-280" font-family="Helvetica,sans-Serif" font-size="10.00">active_low</text>
<text text-anchor="start" x="241.5" y="-265" font-family="Helvetica,sans-Serif" font-size="10.00"> </text>
<polygon fill="#666666" stroke="#666666" points="190,-306.5 190,-306.5 296,-306.5 296,-306.5 190,-306.5"/>
<polygon fill="#666666" stroke="#666666" points="190,-276.5 190,-276.5 223,-276.5 223,-276.5 190,-276.5"/>
<polygon fill="#666666" stroke="#666666" points="223,-276.5 223,-276.5 296,-276.5 296,-276.5 223,-276.5"/>
<polygon fill="none" stroke="#666666" points="190,-259.5 190,-334.5 296,-334.5 296,-259.5 190,-259.5"/>
</a>
</g>
</g>
<!-- Node5&#45;&gt;Node1 -->
<g id="edge4_Node000001_Node000005" class="edge">
<title>Node5&#45;&gt;Node1</title>
<g id="a_edge4_Node000001_Node000005"><a xlink:title=" ">
<path fill="none" stroke="#63b8ff" d="M235.85,-259.58C232.38,-245.82 227.53,-230.29 221,-217 215.49,-205.78 208.86,-194.55 201.75,-183.72"/>
<polygon fill="none" stroke="#63b8ff" points="201.75,-183.72 195.07,-181.01 195,-173.8 201.68,-176.51 201.75,-183.72"/>
</a>
</g>
<text text-anchor="middle" x="258.62" y="-224.38" font-family="Helvetica,sans-Serif" font-size="10.00" fill="grey"> +relay_config</text>
</g>
</g>
</svg>
