<?xml version="1.0" encoding="UTF-8" standalone="no"?>
<!DOCTYPE svg PUBLIC "-//W3C//DTD SVG 1.1//EN"
 "http://www.w3.org/Graphics/SVG/1.1/DTD/svg11.dtd">
<!-- Generated by graphviz version 9.0.0 (20230911.1827)
 -->
<!-- Title: fabomatic::pins_config Pages: 1 -->
<svg width="734pt" height="269pt"
 viewBox="0.00 0.00 734.00 269.25" xmlns="http://www.w3.org/2000/svg" xmlns:xlink="http://www.w3.org/1999/xlink">
<g id="graph0" class="graph" transform="scale(1 1) rotate(0) translate(4 265.25)">
<title>fabomatic::pins_config</title>
<!-- Node1 -->
<g id="Node000001" class="node">
<title>Node1</title>
<g id="a_Node000001"><a xlink:title=" ">
<polygon fill="#999999" stroke="none" points="416,-49 310,-49 310,0 416,0 416,-49"/>
<text text-anchor="start" x="315" y="-35.5" font-family="Helvetica,sans-Serif" font-size="10.00">fabomatic::pins_config</text>
<text text-anchor="start" x="361.5" y="-20.5" font-family="Helvetica,sans-Serif" font-size="10.00"> </text>
<text text-anchor="start" x="361.5" y="-5.5" font-family="Helvetica,sans-Serif" font-size="10.00"> </text>
<polygon fill="#666666" stroke="#666666" points="310,-32 310,-32 416,-32 416,-32 310,-32"/>
<polygon fill="#666666" stroke="#666666" points="310,-17 310,-17 416,-17 416,-17 310,-17"/>
<polygon fill="none" stroke="#666666" points="310,0 310,-49 416,-49 416,0 310,0"/>
</a>
</g>
</g>
<!-- Node2 -->
<g id="Node000002" class="node">
<title>Node2</title>
<g id="a_Node000002"><a xlink:href="structfabomatic_1_1pins__config_1_1mfrc522__config.xhtml" target="_top" xlink:title="SPI RFID chip pins definition.">
<polygon fill="white" stroke="none" points="106,-238.75 0,-238.75 0,-118.75 106,-118.75 106,-238.75"/>
<text text-anchor="start" x="5" y="-225.25" font-family="Helvetica,sans-Serif" font-size="10.00">fabomatic::pins_config</text>
<text text-anchor="start" x="17.75" y="-214" font-family="Helvetica,sans-Serif" font-size="10.00">::mfrc522_config</text>
<text text-anchor="start" x="16" y="-199.25" font-family="Helvetica,sans-Serif" font-size="10.00">+</text>
<text text-anchor="start" x="38" y="-199.25" font-family="Helvetica,sans-Serif" font-size="10.00">sda_pin</text>
<text text-anchor="start" x="16" y="-184.25" font-family="Helvetica,sans-Serif" font-size="10.00">+</text>
<text text-anchor="start" x="38" y="-184.25" font-family="Helvetica,sans-Serif" font-size="10.00">mosi_pin</text>
<text text-anchor="start" x="16" y="-169.25" font-family="Helvetica,sans-Serif" font-size="10.00">+</text>
<text text-anchor="start" x="38" y="-169.25" font-family="Helvetica,sans-Serif" font-size="10.00">miso_pin</text>
<text text-anchor="start" x="16" y="-154.25" font-family="Helvetica,sans-Serif" font-size="10.00">+</text>
<text text-anchor="start" x="38" y="-154.25" font-family="Helvetica,sans-Serif" font-size="10.00">sck_pin</text>
<text text-anchor="start" x="16" y="-139.25" font-family="Helvetica,sans-Serif" font-size="10.00">+</text>
<text text-anchor="start" x="38" y="-139.25" font-family="Helvetica,sans-Serif" font-size="10.00">reset_pin</text>
<text text-anchor="start" x="51.5" y="-124.25" font-family="Helvetica,sans-Serif" font-size="10.00"> </text>
<polygon fill="#666666" stroke="#666666" points="0,-210.75 0,-210.75 106,-210.75 106,-210.75 0,-210.75"/>
<polygon fill="#666666" stroke="#666666" points="0,-135.75 0,-135.75 36,-135.75 36,-135.75 0,-135.75"/>
<polygon fill="#666666" stroke="#666666" points="36,-135.75 36,-135.75 106,-135.75 106,-135.75 36,-135.75"/>
<polygon fill="none" stroke="#666666" points="0,-118.75 0,-238.75 106,-238.75 106,-118.75 0,-118.75"/>
</a>
</g>
</g>
<!-- Node2&#45;&gt;Node1 -->
<g id="edge1_Node000001_Node000002" class="edge">
<title>Node2&#45;&gt;Node1</title>
<g id="a_edge1_Node000001_Node000002"><a xlink:title=" ">
<path fill="none" stroke="#63b8ff" d="M90.18,-119.01C97.58,-110.47 105.91,-102.48 115,-96.25 169.94,-58.62 244.76,-40.83 297.81,-32.53"/>
<polygon fill="none" stroke="#63b8ff" points="297.7,-32.55 303.05,-27.72 309.57,-30.8 304.22,-35.63 297.7,-32.55"/>
</a>
</g>
<text text-anchor="middle" x="186.75" y="-68.75" font-family="Helvetica,sans-Serif" font-size="10.00" fill="grey"> +mfrc522</text>
</g>
<!-- Node3 -->
<g id="Node000003" class="node">
<title>Node3</title>
<g id="a_Node000003"><a xlink:href="structfabomatic_1_1pins__config_1_1lcd__config.xhtml" target="_top" xlink:title="LCD parallel interface pins definition.">
<polygon fill="white" stroke="none" points="230,-261.25 124,-261.25 124,-96.25 230,-96.25 230,-261.25"/>
<text text-anchor="start" x="129" y="-247.75" font-family="Helvetica,sans-Serif" font-size="10.00">fabomatic::pins_config</text>
<text text-anchor="start" x="153" y="-236.5" font-family="Helvetica,sans-Serif" font-size="10.00">::lcd_config</text>
<text text-anchor="start" x="138.5" y="-221.75" font-family="Helvetica,sans-Serif" font-size="10.00">+</text>
<text text-anchor="start" x="159" y="-221.75" font-family="Helvetica,sans-Serif" font-size="10.00">rs_pin</text>
<text text-anchor="start" x="138.5" y="-206.75" font-family="Helvetica,sans-Serif" font-size="10.00">+</text>
<text text-anchor="start" x="159" y="-206.75" font-family="Helvetica,sans-Serif" font-size="10.00">en_pin</text>
<text text-anchor="start" x="138.5" y="-191.75" font-family="Helvetica,sans-Serif" font-size="10.00">+</text>
<text text-anchor="start" x="159" y="-191.75" font-family="Helvetica,sans-Serif" font-size="10.00">d0_pin</text>
<text text-anchor="start" x="138.5" y="-176.75" font-family="Helvetica,sans-Serif" font-size="10.00">+</text>
<text text-anchor="start" x="159" y="-176.75" font-family="Helvetica,sans-Serif" font-size="10.00">d1_pin</text>
<text text-anchor="start" x="138.5" y="-161.75" font-family="Helvetica,sans-Serif" font-size="10.00">+</text>
<text text-anchor="start" x="159" y="-161.75" font-family="Helvetica,sans-Serif" font-size="10.00">d2_pin</text>
<text text-anchor="start" x="138.5" y="-146.75" font-family="Helvetica,sans-Serif" font-size="10.00">+</text>
<text text-anchor="start" x="159" y="-146.75" font-family="Helvetica,sans-Serif" font-size="10.00">d3_pin</text>
<text text-anchor="start" x="138.5" y="-131.75" font-family="Helvetica,sans-Serif" font-size="10.00">+</text>
<text text-anchor="start" x="159" y="-131.75" font-family="Helvetica,sans-Serif" font-size="10.00">bl_pin</text>
<text text-anchor="start" x="138.5" y="-116.75" font-family="Helvetica,sans-Serif" font-size="10.00">+</text>
<text text-anchor="start" x="159" y="-116.75" font-family="Helvetica,sans-Serif" font-size="10.00">active_low</text>
<text text-anchor="start" x="175.5" y="-101.75" font-family="Helvetica,sans-Serif" font-size="10.00"> </text>
<polygon fill="#666666" stroke="#666666" points="124,-233.25 124,-233.25 230,-233.25 230,-233.25 124,-233.25"/>
<polygon fill="#666666" stroke="#666666" points="124,-113.25 124,-113.25 157,-113.25 157,-113.25 124,-113.25"/>
<polygon fill="#666666" stroke="#666666" points="157,-113.25 157,-113.25 230,-113.25 230,-113.25 157,-113.25"/>
<polygon fill="none" stroke="#666666" points="124,-96.25 124,-261.25 230,-261.25 230,-96.25 124,-96.25"/>
</a>
</g>
</g>
<!-- Node3&#45;&gt;Node1 -->
<g id="edge2_Node000001_Node000003" class="edge">
<title>Node3&#45;&gt;Node1</title>
<g id="a_edge2_Node000001_Node000003"><a xlink:title=" ">
<path fill="none" stroke="#63b8ff" d="M229.95,-104.8C232.9,-101.81 235.92,-98.94 239,-96.25 257.17,-80.33 279.47,-66.28 300.13,-54.98"/>
<polygon fill="none" stroke="#63b8ff" points="300.01,-55.05 303.43,-48.7 310.61,-49.42 307.19,-55.76 300.01,-55.05"/>
</a>
</g>
<text text-anchor="middle" x="287.5" y="-68.75" font-family="Helvetica,sans-Serif" font-size="10.00" fill="grey"> +lcd</text>
</g>
<!-- Node4 -->
<g id="Node000004" class="node">
<title>Node4</title>
<g id="a_Node000004"><a xlink:href="structfabomatic_1_1pins__config_1_1relay__config.xhtml" target="_top" xlink:title="Hardwired relay configuration.">
<polygon fill="white" stroke="none" points="354,-216.25 248,-216.25 248,-141.25 354,-141.25 354,-216.25"/>
<text text-anchor="start" x="253" y="-202.75" font-family="Helvetica,sans-Serif" font-size="10.00">fabomatic::pins_config</text>
<text text-anchor="start" x="273.25" y="-191.5" font-family="Helvetica,sans-Serif" font-size="10.00">::relay_config</text>
<text text-anchor="start" x="262.5" y="-176.75" font-family="Helvetica,sans-Serif" font-size="10.00">+</text>
<text text-anchor="start" x="283" y="-176.75" font-family="Helvetica,sans-Serif" font-size="10.00">ch1_pin</text>
<text text-anchor="start" x="262.5" y="-161.75" font-family="Helvetica,sans-Serif" font-size="10.00">+</text>
<text text-anchor="start" x="283" y="-161.75" font-family="Helvetica,sans-Serif" font-size="10.00">active_low</text>
<text text-anchor="start" x="299.5" y="-146.75" font-family="Helvetica,sans-Serif" font-size="10.00"> </text>
<polygon fill="#666666" stroke="#666666" points="248,-188.25 248,-188.25 354,-188.25 354,-188.25 248,-188.25"/>
<polygon fill="#666666" stroke="#666666" points="248,-158.25 248,-158.25 281,-158.25 281,-158.25 248,-158.25"/>
<polygon fill="#666666" stroke="#666666" points="281,-158.25 281,-158.25 354,-158.25 354,-158.25 281,-158.25"/>
<polygon fill="none" stroke="#666666" points="248,-141.25 248,-216.25 354,-216.25 354,-141.25 248,-141.25"/>
</a>
</g>
</g>
<!-- Node4&#45;&gt;Node1 -->
<g id="edge3_Node000001_Node000004" class="edge">
<title>Node4&#45;&gt;Node1</title>
<g id="a_edge3_Node000001_Node000004"><a xlink:title=" ">
<path fill="none" stroke="#63b8ff" d="M315.85,-141.28C325.8,-116.86 338.82,-84.88 348.66,-60.72"/>
<polygon fill="none" stroke="#63b8ff" points="348.61,-60.83 347.17,-53.77 353.14,-49.72 354.58,-56.78 348.61,-60.83"/>
</a>
</g>
<text text-anchor="middle" x="359.25" y="-68.75" font-family="Helvetica,sans-Serif" font-size="10.00" fill="grey"> +relay</text>
</g>
<!-- Node5 -->
<g id="Node000005" class="node">
<title>Node5</title>
<g id="a_Node000005"><a xlink:href="structfabomatic_1_1pins__config_1_1buzzer__config.xhtml" target="_top" xlink:title="Configuration of the buzzer.">
<polygon fill="white" stroke="none" points="478,-208.75 372,-208.75 372,-148.75 478,-148.75 478,-208.75"/>
<text text-anchor="start" x="377" y="-195.25" font-family="Helvetica,sans-Serif" font-size="10.00">fabomatic::pins_config</text>
<text text-anchor="start" x="393.5" y="-184" font-family="Helvetica,sans-Serif" font-size="10.00">::buzzer_config</text>
<text text-anchor="start" x="395" y="-169.25" font-family="Helvetica,sans-Serif" font-size="10.00">+</text>
<text text-anchor="start" x="424" y="-169.25" font-family="Helvetica,sans-Serif" font-size="10.00">pin</text>
<text text-anchor="start" x="423.5" y="-154.25" font-family="Helvetica,sans-Serif" font-size="10.00"> </text>
<polygon fill="#666666" stroke="#666666" points="372,-180.75 372,-180.75 478,-180.75 478,-180.75 372,-180.75"/>
<polygon fill="#666666" stroke="#666666" points="372,-165.75 372,-165.75 422,-165.75 422,-165.75 372,-165.75"/>
<polygon fill="#666666" stroke="#666666" points="422,-165.75 422,-165.75 478,-165.75 478,-165.75 422,-165.75"/>
<polygon fill="none" stroke="#666666" points="372,-148.75 372,-208.75 478,-208.75 478,-148.75 372,-148.75"/>
</a>
</g>
</g>
<!-- Node5&#45;&gt;Node1 -->
<g id="edge4_Node000001_Node000005" class="edge">
<title>Node5&#45;&gt;Node1</title>
<g id="a_edge4_Node000001_Node000005"><a xlink:title=" ">
<path fill="none" stroke="#63b8ff" d="M413.19,-148.75C403,-123.73 388.25,-87.5 377.37,-60.79"/>
<polygon fill="none" stroke="#63b8ff" points="377.4,-60.85 371.43,-56.8 372.87,-49.74 378.84,-53.79 377.4,-60.85"/>
</a>
</g>
<text text-anchor="middle" x="402" y="-68.75" font-family="Helvetica,sans-Serif" font-size="10.00" fill="grey"> +buzzer</text>
</g>
<!-- Node6 -->
<g id="Node000006" class="node">
<title>Node6</title>
<g id="a_Node000006"><a xlink:href="structfabomatic_1_1pins__config_1_1led__config.xhtml" target="_top" xlink:title="Configuration of the LED/NeoPixel/RGB led.">
<polygon fill="white" stroke="none" points="602,-246.25 496,-246.25 496,-111.25 602,-111.25 602,-246.25"/>
<text text-anchor="start" x="501" y="-232.75" font-family="Helvetica,sans-Serif" font-size="10.00">fabomatic::pins_config</text>
<text text-anchor="start" x="525" y="-221.5" font-family="Helvetica,sans-Serif" font-size="10.00">::led_config</text>
<text text-anchor="start" x="505.5" y="-206.75" font-family="Helvetica,sans-Serif" font-size="10.00">+</text>
<text text-anchor="start" x="521" y="-206.75" font-family="Helvetica,sans-Serif" font-size="10.00">pin</text>
<text text-anchor="start" x="505.5" y="-191.75" font-family="Helvetica,sans-Serif" font-size="10.00">+</text>
<text text-anchor="start" x="521" y="-191.75" font-family="Helvetica,sans-Serif" font-size="10.00">is_neopixel</text>
<text text-anchor="start" x="505.5" y="-176.75" font-family="Helvetica,sans-Serif" font-size="10.00">+</text>
<text text-anchor="start" x="521" y="-176.75" font-family="Helvetica,sans-Serif" font-size="10.00">neopixel_config</text>
<text text-anchor="start" x="505.5" y="-161.75" font-family="Helvetica,sans-Serif" font-size="10.00">+</text>
<text text-anchor="start" x="521" y="-161.75" font-family="Helvetica,sans-Serif" font-size="10.00">is_rgb</text>
<text text-anchor="start" x="505.5" y="-146.75" font-family="Helvetica,sans-Serif" font-size="10.00">+</text>
<text text-anchor="start" x="521" y="-146.75" font-family="Helvetica,sans-Serif" font-size="10.00">green_pin</text>
<text text-anchor="start" x="505.5" y="-131.75" font-family="Helvetica,sans-Serif" font-size="10.00">+</text>
<text text-anchor="start" x="521" y="-131.75" font-family="Helvetica,sans-Serif" font-size="10.00">blue_pin</text>
<text text-anchor="start" x="547.5" y="-116.75" font-family="Helvetica,sans-Serif" font-size="10.00"> </text>
<polygon fill="#666666" stroke="#666666" points="496,-218.25 496,-218.25 602,-218.25 602,-218.25 496,-218.25"/>
<polygon fill="#666666" stroke="#666666" points="496,-128.25 496,-128.25 519,-128.25 519,-128.25 496,-128.25"/>
<polygon fill="#666666" stroke="#666666" points="519,-128.25 519,-128.25 602,-128.25 602,-128.25 519,-128.25"/>
<polygon fill="none" stroke="#666666" points="496,-111.25 496,-246.25 602,-246.25 602,-111.25 496,-111.25"/>
</a>
</g>
</g>
<!-- Node6&#45;&gt;Node1 -->
<g id="edge5_Node000001_Node000006" class="edge">
<title>Node6&#45;&gt;Node1</title>
<g id="a_edge5_Node000001_Node000006"><a xlink:title=" ">
<path fill="none" stroke="#63b8ff" d="M502.49,-111.61C497.54,-106.15 492.35,-100.94 487,-96.25 468.83,-80.33 446.53,-66.28 425.87,-54.98"/>
<polygon fill="none" stroke="#63b8ff" points="425.99,-55.05 418.81,-55.76 415.39,-49.42 422.57,-48.7 425.99,-55.05"/>
</a>
</g>
<text text-anchor="middle" x="472.5" y="-68.75" font-family="Helvetica,sans-Serif" font-size="10.00" fill="grey"> +led</text>
</g>
<!-- Node7 -->
<g id="Node000007" class="node">
<title>Node7</title>
<g id="a_Node000007"><a xlink:href="structfabomatic_1_1pins__config_1_1buttons__config.xhtml" target="_top" xlink:title="Physical buttons wired to the ESP32.">
<polygon fill="white" stroke="none" points="726,-208.75 620,-208.75 620,-148.75 726,-148.75 726,-208.75"/>
<text text-anchor="start" x="625" y="-195.25" font-family="Helvetica,sans-Serif" font-size="10.00">fabomatic::pins_config</text>
<text text-anchor="start" x="639.25" y="-184" font-family="Helvetica,sans-Serif" font-size="10.00">::buttons_config</text>
<text text-anchor="start" x="624" y="-169.25" font-family="Helvetica,sans-Serif" font-size="10.00">+</text>
<text text-anchor="start" x="634" y="-169.25" font-family="Helvetica,sans-Serif" font-size="10.00">factory_defaults_pin</text>
<text text-anchor="start" x="671.5" y="-154.25" font-family="Helvetica,sans-Serif" font-size="10.00"> </text>
<polygon fill="#666666" stroke="#666666" points="620,-180.75 620,-180.75 726,-180.75 726,-180.75 620,-180.75"/>
<polygon fill="#666666" stroke="#666666" points="620,-165.75 620,-165.75 632,-165.75 632,-165.75 620,-165.75"/>
<polygon fill="#666666" stroke="#666666" points="632,-165.75 632,-165.75 726,-165.75 726,-165.75 632,-165.75"/>
<polygon fill="none" stroke="#666666" points="620,-148.75 620,-208.75 726,-208.75 726,-148.75 620,-148.75"/>
</a>
</g>
</g>
<!-- Node7&#45;&gt;Node1 -->
<g id="edge6_Node000001_Node000007" class="edge">
<title>Node7&#45;&gt;Node1</title>
<g id="a_edge6_Node000001_Node000007"><a xlink:title=" ">
<path fill="none" stroke="#63b8ff" d="M657.58,-149.02C646.74,-131.39 630.67,-109.69 611,-96.25 556.01,-58.69 481.2,-40.89 428.17,-32.57"/>
<polygon fill="none" stroke="#63b8ff" points="428.28,-32.59 421.76,-35.67 416.41,-30.83 422.93,-27.76 428.28,-32.59"/>
</a>
</g>
<text text-anchor="middle" x="594.25" y="-68.75" font-family="Helvetica,sans-Serif" font-size="10.00" fill="grey"> +buttons</text>
</g>
</g>
</svg>
