<?xml version="1.0" encoding="UTF-8" standalone="no"?>
<!DOCTYPE svg PUBLIC "-//W3C//DTD SVG 1.1//EN"
 "http://www.w3.org/Graphics/SVG/1.1/DTD/svg11.dtd">
<!-- Generated by graphviz version 9.0.0 (20230911.1827)
 -->
<!-- Title: fabomatic::FabUser::toString Pages: 1 -->
<svg width="1289pt" height="551pt"
 viewBox="0.00 0.00 1289.00 550.50" xmlns="http://www.w3.org/2000/svg" xmlns:xlink="http://www.w3.org/1999/xlink">
<g id="graph0" class="graph" transform="scale(1 1) rotate(0) translate(4 546.5)">
<title>fabomatic::FabUser::toString</title>
<!-- Node1 -->
<g id="Node000001" class="node">
<title>Node1</title>
<g id="a_Node000001"><a xlink:title=" ">
<polygon fill="#999999" stroke="#666666" points="1281,-323.5 1180.25,-323.5 1180.25,-293 1281,-293 1281,-323.5"/>
<text text-anchor="start" x="1188.25" y="-310" font-family="Helvetica,sans-Serif" font-size="10.00">fabomatic::FabUser</text>
<text text-anchor="middle" x="1230.62" y="-298.75" font-family="Helvetica,sans-Serif" font-size="10.00">::toString</text>
</a>
</g>
</g>
<!-- Node2 -->
<g id="Node000002" class="node">
<title>Node2</title>
<g id="a_Node000002"><a xlink:href="classfabomatic_1_1_machine.xhtml#a39fbf9cad912d735cf84b75c0674646f" target="_top" xlink:title=" ">
<polygon fill="white" stroke="#666666" points="1134.5,-372.5 1034.5,-372.5 1034.5,-342 1134.5,-342 1134.5,-372.5"/>
<text text-anchor="start" x="1042.5" y="-359" font-family="Helvetica,sans-Serif" font-size="10.00">fabomatic::Machine</text>
<text text-anchor="middle" x="1084.5" y="-347.75" font-family="Helvetica,sans-Serif" font-size="10.00">::toString</text>
</a>
</g>
</g>
<!-- Node1&#45;&gt;Node2 -->
<g id="edge1_Node000001_Node000002" class="edge">
<title>Node1&#45;&gt;Node2</title>
<g id="a_edge1_Node000001_Node000002"><a xlink:title=" ">
<path fill="none" stroke="#63b8ff" d="M1172.85,-327.55C1159.16,-332.21 1144.69,-337.13 1131.56,-341.59"/>
<polygon fill="#63b8ff" stroke="#63b8ff" points="1173.85,-330.91 1182.19,-324.38 1171.6,-324.28 1173.85,-330.91"/>
</a>
</g>
</g>
<!-- Node22 -->
<g id="Node000022" class="node">
<title>Node22</title>
<g id="a_Node000022"><a xlink:href="classfabomatic_1_1_auth_provider.xhtml#aeae9923535dcf6cfa9eaf9e5f90e5e64" target="_top" xlink:title="Verifies the card ID against the server (if available) or the whitelist.">
<polygon fill="white" stroke="#666666" points="1144.25,-299.5 1024.75,-299.5 1024.75,-269 1144.25,-269 1144.25,-299.5"/>
<text text-anchor="start" x="1032.75" y="-286" font-family="Helvetica,sans-Serif" font-size="10.00">fabomatic::AuthProvider</text>
<text text-anchor="middle" x="1084.5" y="-274.75" font-family="Helvetica,sans-Serif" font-size="10.00">::tryLogin</text>
</a>
</g>
</g>
<!-- Node1&#45;&gt;Node22 -->
<g id="edge32_Node000001_Node000022" class="edge">
<title>Node1&#45;&gt;Node22</title>
<g id="a_edge32_Node000001_Node000022"><a xlink:title=" ">
<path fill="none" stroke="#63b8ff" d="M1168.86,-298.13C1160.84,-296.8 1152.63,-295.43 1144.63,-294.1"/>
<polygon fill="#63b8ff" stroke="#63b8ff" points="1168.09,-301.55 1178.53,-299.74 1169.24,-294.65 1168.09,-301.55"/>
</a>
</g>
</g>
<!-- Node3 -->
<g id="Node000003" class="node">
<title>Node3</title>
<g id="a_Node000003"><a xlink:href="classfabomatic_1_1_board_logic.xhtml#aa0d3d3aa742eba1ffd00b97868ce7edc" target="_top" xlink:title="connects and polls the server for up&#45;to&#45;date machine information">
<polygon fill="white" stroke="#666666" points="988.75,-480.5 876,-480.5 876,-450 988.75,-450 988.75,-480.5"/>
<text text-anchor="start" x="884" y="-467" font-family="Helvetica,sans-Serif" font-size="10.00">fabomatic::BoardLogic</text>
<text text-anchor="middle" x="932.38" y="-455.75" font-family="Helvetica,sans-Serif" font-size="10.00">::refreshFromServer</text>
</a>
</g>
</g>
<!-- Node2&#45;&gt;Node3 -->
<g id="edge2_Node000002_Node000003" class="edge">
<title>Node2&#45;&gt;Node3</title>
<g id="a_edge2_Node000002_Node000003"><a xlink:title=" ">
<path fill="none" stroke="#63b8ff" d="M1052.39,-379.63C1023.37,-400.51 980.81,-431.12 955.23,-449.53"/>
<polygon fill="#63b8ff" stroke="#63b8ff" points="1054.37,-382.52 1060.44,-373.84 1050.28,-376.84 1054.37,-382.52"/>
</a>
</g>
</g>
<!-- Node4 -->
<g id="Node000004" class="node">
<title>Node4</title>
<g id="a_Node000004"><a xlink:href="classfabomatic_1_1_board_logic.xhtml#a983c8de8b9c8881fc0a4e60dddc7f0c6" target="_top" xlink:title="Called when a RFID tag has been detected.">
<polygon fill="white" stroke="#666666" points="837.38,-456.5 724.62,-456.5 724.62,-426 837.38,-426 837.38,-456.5"/>
<text text-anchor="start" x="732.62" y="-443" font-family="Helvetica,sans-Serif" font-size="10.00">fabomatic::BoardLogic</text>
<text text-anchor="middle" x="781" y="-431.75" font-family="Helvetica,sans-Serif" font-size="10.00">::onNewCard</text>
</a>
</g>
</g>
<!-- Node3&#45;&gt;Node4 -->
<g id="edge3_Node000003_Node000004" class="edge">
<title>Node3&#45;&gt;Node4</title>
<g id="a_edge3_Node000003_Node000004"><a xlink:title=" ">
<path fill="none" stroke="#63b8ff" d="M864.51,-454.51C855.54,-453.07 846.42,-451.6 837.67,-450.19"/>
<polygon fill="#63b8ff" stroke="#63b8ff" points="863.83,-457.94 874.26,-456.07 864.94,-451.03 863.83,-457.94"/>
</a>
</g>
</g>
<!-- Node19 -->
<g id="Node000019" class="node">
<title>Node19</title>
<g id="a_Node000019"><a xlink:href="namespacefabomatic.xhtml#ae7de89faffd3bb8805727b8a1092a198" target="_top" xlink:title="Opens WiFi and server connection and updates board state accordingly.">
<polygon fill="white" stroke="#666666" points="840,-493.88 722,-493.88 722,-474.62 840,-474.62 840,-493.88"/>
<text text-anchor="middle" x="781" y="-480.38" font-family="Helvetica,sans-Serif" font-size="10.00">fabomatic::taskConnect</text>
</a>
</g>
</g>
<!-- Node3&#45;&gt;Node19 -->
<g id="edge29_Node000003_Node000019" class="edge">
<title>Node3&#45;&gt;Node19</title>
<g id="a_edge29_Node000003_Node000019"><a xlink:title=" ">
<path fill="none" stroke="#63b8ff" d="M864.51,-473.75C856.48,-474.78 848.32,-475.81 840.42,-476.82"/>
<polygon fill="#63b8ff" stroke="#63b8ff" points="864.77,-477.25 874.25,-472.52 863.89,-470.31 864.77,-477.25"/>
</a>
</g>
</g>
<!-- Node21 -->
<g id="Node000021" class="node">
<title>Node21</title>
<g id="a_Node000021"><a xlink:href="namespacefabomatic_1_1tests.xhtml#a88a4242d48bfa4a0337df522d303c367" target="_top" xlink:title="Opens WiFi and server connection and updates board state accordingly.">
<polygon fill="white" stroke="#666666" points="834,-542.5 728,-542.5 728,-512 834,-512 834,-542.5"/>
<text text-anchor="start" x="736" y="-529" font-family="Helvetica,sans-Serif" font-size="10.00">fabomatic::tests::test</text>
<text text-anchor="middle" x="781" y="-517.75" font-family="Helvetica,sans-Serif" font-size="10.00">_taskConnect</text>
</a>
</g>
</g>
<!-- Node3&#45;&gt;Node21 -->
<g id="edge31_Node000003_Node000021" class="edge">
<title>Node3&#45;&gt;Node21</title>
<g id="a_edge31_Node000003_Node000021"><a xlink:title=" ">
<path fill="none" stroke="#63b8ff" d="M883.23,-485.29C869.28,-491.09 854.04,-497.43 840,-503.25 833.56,-505.92 826.71,-508.76 820.07,-511.51"/>
<polygon fill="#63b8ff" stroke="#63b8ff" points="884.31,-488.63 892.2,-481.56 881.62,-482.17 884.31,-488.63"/>
</a>
</g>
</g>
<!-- Node5 -->
<g id="Node000005" class="node">
<title>Node5</title>
<g id="a_Node000005"><a xlink:href="classfabomatic_1_1_board_logic.xhtml#a25bdc3a49d850aa49f92faf951b68efb" target="_top" xlink:title="Checks if a new card is present.">
<polygon fill="white" stroke="#666666" points="686,-456.5 573.25,-456.5 573.25,-426 686,-426 686,-456.5"/>
<text text-anchor="start" x="581.25" y="-443" font-family="Helvetica,sans-Serif" font-size="10.00">fabomatic::BoardLogic</text>
<text text-anchor="middle" x="629.62" y="-431.75" font-family="Helvetica,sans-Serif" font-size="10.00">::checkRfid</text>
</a>
</g>
</g>
<!-- Node4&#45;&gt;Node5 -->
<g id="edge4_Node000004_Node000005" class="edge">
<title>Node4&#45;&gt;Node5</title>
<g id="a_edge4_Node000004_Node000005"><a xlink:title=" ">
<path fill="none" stroke="#63b8ff" d="M713.14,-441.25C704.17,-441.25 695.04,-441.25 686.29,-441.25"/>
<polygon fill="#63b8ff" stroke="#63b8ff" points="712.86,-444.75 722.86,-441.25 712.86,-437.75 712.86,-444.75"/>
</a>
</g>
</g>
<!-- Node6 -->
<g id="Node000006" class="node">
<title>Node6</title>
<g id="a_Node000006"><a xlink:href="namespacefabomatic_1_1tests.xhtml#a2600320f41c9fa343c66058ecb12b5ee" target="_top" xlink:title="Simulates RFID card tap.">
<polygon fill="white" stroke="#666666" points="537.25,-251.5 411,-251.5 411,-221 537.25,-221 537.25,-251.5"/>
<text text-anchor="start" x="419" y="-238" font-family="Helvetica,sans-Serif" font-size="10.00">fabomatic::tests::simulate</text>
<text text-anchor="middle" x="474.12" y="-226.75" font-family="Helvetica,sans-Serif" font-size="10.00">_rfid_card</text>
</a>
</g>
</g>
<!-- Node5&#45;&gt;Node6 -->
<g id="edge5_Node000005_Node000006" class="edge">
<title>Node5&#45;&gt;Node6</title>
<g id="a_edge5_Node000005_Node000006"><a xlink:title=" ">
<path fill="none" stroke="#63b8ff" d="M609.96,-416.33C577.88,-373.48 513.15,-287.04 486.75,-251.77"/>
<polygon fill="#63b8ff" stroke="#63b8ff" points="607.13,-418.39 615.93,-424.29 612.74,-414.19 607.13,-418.39"/>
</a>
</g>
</g>
<!-- Node13 -->
<g id="Node000013" class="node">
<title>Node13</title>
<g id="a_Node000013"><a xlink:href="namespacefabomatic_1_1tests.xhtml#aab0f4e1439b281ffef8be51db9a81f9d" target="_top" xlink:title=" ">
<polygon fill="white" stroke="#666666" points="191.75,-375.5 79,-375.5 79,-345 191.75,-345 191.75,-375.5"/>
<text text-anchor="start" x="87" y="-362" font-family="Helvetica,sans-Serif" font-size="10.00">fabomatic::tests::test</text>
<text text-anchor="middle" x="135.38" y="-350.75" font-family="Helvetica,sans-Serif" font-size="10.00">_whitelist_no_network</text>
</a>
</g>
</g>
<!-- Node5&#45;&gt;Node13 -->
<g id="edge28_Node000005_Node000013" class="edge">
<title>Node5&#45;&gt;Node13</title>
<g id="a_edge28_Node000005_Node000013"><a xlink:title=" ">
<path fill="none" stroke="#63b8ff" d="M561.48,-444.99C481.1,-447.51 343.25,-445.6 230.75,-412.25 204.03,-404.33 176.44,-388.01 158.05,-375.76"/>
<polygon fill="#63b8ff" stroke="#63b8ff" points="561.53,-448.49 571.4,-444.64 561.28,-441.49 561.53,-448.49"/>
</a>
</g>
</g>
<!-- Node17 -->
<g id="Node000017" class="node">
<title>Node17</title>
<g id="a_Node000017"><a xlink:href="namespacefabomatic.xhtml#a3e5c190499522bddad3f3cc69274f16c" target="_top" xlink:title="periodic check for new RFID card">
<polygon fill="white" stroke="#666666" points="537.25,-531.88 411,-531.88 411,-512.62 537.25,-512.62 537.25,-531.88"/>
<text text-anchor="middle" x="474.12" y="-518.38" font-family="Helvetica,sans-Serif" font-size="10.00">fabomatic::taskCheckRfid</text>
</a>
</g>
</g>
<!-- Node5&#45;&gt;Node17 -->
<g id="edge26_Node000005_Node000017" class="edge">
<title>Node5&#45;&gt;Node17</title>
<g id="a_edge26_Node000005_Node000017"><a xlink:title=" ">
<path fill="none" stroke="#63b8ff" d="M577.48,-462.46C576.03,-463.36 574.62,-464.29 573.25,-465.25 554.19,-478.59 557.03,-491 537.25,-503.25 531.5,-506.81 525.03,-509.75 518.5,-512.16"/>
<polygon fill="#63b8ff" stroke="#63b8ff" points="579.07,-465.57 586.07,-457.62 575.64,-459.47 579.07,-465.57"/>
</a>
</g>
</g>
<!-- Node18 -->
<g id="Node000018" class="node">
<title>Node18</title>
<g id="a_Node000018"><a xlink:href="namespacefabomatic_1_1tests.xhtml#a294b4767ecf1e1d11cc31dafb2541d23" target="_top" xlink:title="periodic check for new RFID card">
<polygon fill="white" stroke="#666666" points="527.12,-494.5 421.12,-494.5 421.12,-464 527.12,-464 527.12,-494.5"/>
<text text-anchor="start" x="429.12" y="-481" font-family="Helvetica,sans-Serif" font-size="10.00">fabomatic::tests::test</text>
<text text-anchor="middle" x="474.12" y="-469.75" font-family="Helvetica,sans-Serif" font-size="10.00">_taskCheckRfid</text>
</a>
</g>
</g>
<!-- Node5&#45;&gt;Node18 -->
<g id="edge27_Node000005_Node000018" class="edge">
<title>Node5&#45;&gt;Node18</title>
<g id="a_edge27_Node000005_Node000018"><a xlink:title=" ">
<path fill="none" stroke="#63b8ff" d="M561.9,-457.77C550.42,-460.61 538.65,-463.53 527.61,-466.26"/>
<polygon fill="#63b8ff" stroke="#63b8ff" points="562.44,-461.24 571.3,-455.44 560.76,-454.45 562.44,-461.24"/>
</a>
</g>
</g>
<!-- Node7 -->
<g id="Node000007" class="node">
<title>Node7</title>
<g id="a_Node000007"><a xlink:href="namespacefabomatic_1_1tests.xhtml#a6a7645a865dc822746f972ea6f43224d" target="_top" xlink:title="Resets machine to initial state, clearing flags.">
<polygon fill="white" stroke="#666666" points="375,-245.88 230.75,-245.88 230.75,-226.62 375,-226.62 375,-245.88"/>
<text text-anchor="middle" x="302.88" y="-232.38" font-family="Helvetica,sans-Serif" font-size="10.00">fabomatic::tests::machine_init</text>
</a>
</g>
</g>
<!-- Node6&#45;&gt;Node7 -->
<g id="edge6_Node000006_Node000007" class="edge">
<title>Node6&#45;&gt;Node7</title>
<g id="a_edge6_Node000006_Node000007"><a xlink:title=" ">
<path fill="none" stroke="#63b8ff" d="M399.12,-236.25C391.21,-236.25 383.18,-236.25 375.3,-236.25"/>
<polygon fill="#63b8ff" stroke="#63b8ff" points="399.07,-239.75 409.07,-236.25 399.07,-232.75 399.07,-239.75"/>
</a>
</g>
</g>
<!-- Node8 -->
<g id="Node000008" class="node">
<title>Node8</title>
<g id="a_Node000008"><a xlink:href="namespacefabomatic_1_1tests.xhtml#a558e2287db01a4622581246a19dac397" target="_top" xlink:title=" ">
<polygon fill="white" stroke="#666666" points="188.38,-240.5 82.38,-240.5 82.38,-210 188.38,-210 188.38,-240.5"/>
<text text-anchor="start" x="90.38" y="-227" font-family="Helvetica,sans-Serif" font-size="10.00">fabomatic::tests::test</text>
<text text-anchor="middle" x="135.38" y="-215.75" font-family="Helvetica,sans-Serif" font-size="10.00">_machine_allowed</text>
</a>
</g>
</g>
<!-- Node6&#45;&gt;Node8 -->
<g id="edge19_Node000006_Node000008" class="edge">
<title>Node6&#45;&gt;Node8</title>
<g id="a_edge19_Node000006_Node000008"><a xlink:title=" ">
<path fill="none" stroke="#63b8ff" d="M399.44,-220.41C391.23,-219.12 382.96,-218.01 375,-217.25 311.04,-211.12 237.06,-215.34 188.63,-219.63"/>
<polygon fill="#63b8ff" stroke="#63b8ff" points="398.63,-223.83 409.08,-222.04 399.8,-216.92 398.63,-223.83"/>
</a>
</g>
</g>
<!-- Node10 -->
<g id="Node000010" class="node">
<title>Node10</title>
<g id="a_Node000010"><a xlink:href="namespacefabomatic_1_1tests.xhtml#a9a34631c2dc01cbdbbce146895c94e12" target="_top" xlink:title=" ">
<polygon fill="white" stroke="#666666" points="194.75,-191.5 76,-191.5 76,-161 194.75,-161 194.75,-191.5"/>
<text text-anchor="start" x="84" y="-178" font-family="Helvetica,sans-Serif" font-size="10.00">fabomatic::tests::test</text>
<text text-anchor="middle" x="135.38" y="-166.75" font-family="Helvetica,sans-Serif" font-size="10.00">_machine_maintenance</text>
</a>
</g>
</g>
<!-- Node6&#45;&gt;Node10 -->
<g id="edge20_Node000006_Node000010" class="edge">
<title>Node6&#45;&gt;Node10</title>
<g id="a_edge20_Node000006_Node000010"><a xlink:title=" ">
<path fill="none" stroke="#63b8ff" d="M407.32,-217.68C396.57,-214.97 385.51,-212.38 375,-210.25 314.1,-197.89 243.56,-188.43 195.05,-182.66"/>
<polygon fill="#63b8ff" stroke="#63b8ff" points="406.36,-221.04 416.92,-220.15 408.11,-214.27 406.36,-221.04"/>
</a>
</g>
</g>
<!-- Node11 -->
<g id="Node000011" class="node">
<title>Node11</title>
<g id="a_Node000011"><a xlink:href="namespacefabomatic_1_1tests.xhtml#a6f3dff17fd964aba76c35c514957a0a5" target="_top" xlink:title=" ">
<polygon fill="white" stroke="#666666" points="189.88,-142.5 80.88,-142.5 80.88,-112 189.88,-112 189.88,-142.5"/>
<text text-anchor="start" x="88.88" y="-129" font-family="Helvetica,sans-Serif" font-size="10.00">fabomatic::tests::test</text>
<text text-anchor="middle" x="135.38" y="-117.75" font-family="Helvetica,sans-Serif" font-size="10.00">_one_user_at_a_time</text>
</a>
</g>
</g>
<!-- Node6&#45;&gt;Node11 -->
<g id="edge23_Node000006_Node000011" class="edge">
<title>Node6&#45;&gt;Node11</title>
<g id="a_edge23_Node000006_Node000011"><a xlink:title=" ">
<path fill="none" stroke="#63b8ff" d="M438.22,-214.98C419.92,-204.54 396.81,-192.48 375,-184.25 313.43,-161.01 239.26,-145.06 190.13,-136.07"/>
<polygon fill="#63b8ff" stroke="#63b8ff" points="436.41,-217.97 446.82,-219.97 439.93,-211.92 436.41,-217.97"/>
</a>
</g>
</g>
<!-- Node12 -->
<g id="Node000012" class="node">
<title>Node12</title>
<g id="a_Node000012"><a xlink:href="namespacefabomatic_1_1tests.xhtml#afa92fef9250d918ee02c79dbf2de2546" target="_top" xlink:title=" ">
<polygon fill="white" stroke="#666666" points="188.38,-289.5 82.38,-289.5 82.38,-259 188.38,-259 188.38,-289.5"/>
<text text-anchor="start" x="90.38" y="-276" font-family="Helvetica,sans-Serif" font-size="10.00">fabomatic::tests::test</text>
<text text-anchor="middle" x="135.38" y="-264.75" font-family="Helvetica,sans-Serif" font-size="10.00">_user_autologoff</text>
</a>
</g>
</g>
<!-- Node6&#45;&gt;Node12 -->
<g id="edge24_Node000006_Node000012" class="edge">
<title>Node6&#45;&gt;Node12</title>
<g id="a_edge24_Node000006_Node000012"><a xlink:title=" ">
<path fill="none" stroke="#63b8ff" d="M399.55,-251.42C391.29,-252.85 382.98,-254.16 375,-255.25 311.17,-263.94 237.16,-269.07 188.69,-271.77"/>
<polygon fill="#63b8ff" stroke="#63b8ff" points="400.03,-254.89 409.26,-249.68 398.79,-248 400.03,-254.89"/>
</a>
</g>
</g>
<!-- Node6&#45;&gt;Node13 -->
<g id="edge25_Node000006_Node000013" class="edge">
<title>Node6&#45;&gt;Node13</title>
<g id="a_edge25_Node000006_Node000013"><a xlink:title=" ">
<path fill="none" stroke="#63b8ff" d="M457.79,-261.35C440.93,-286.44 411.34,-323.72 375,-341.25 317.17,-369.14 242.22,-370.29 191.89,-366.81"/>
<polygon fill="#63b8ff" stroke="#63b8ff" points="460.68,-263.32 463.19,-253.03 454.81,-259.51 460.68,-263.32"/>
</a>
</g>
</g>
<!-- Node14 -->
<g id="Node000014" class="node">
<title>Node14</title>
<g id="a_Node000014"><a xlink:href="namespacefabomatic_1_1tests.xhtml#a0b99fa5582e6b0ecb416f4ed348e5606" target="_top" xlink:title=" ">
<polygon fill="white" stroke="#666666" points="358.5,-94.5 247.25,-94.5 247.25,-64 358.5,-64 358.5,-94.5"/>
<text text-anchor="start" x="255.25" y="-81" font-family="Helvetica,sans-Serif" font-size="10.00">fabomatic::tests::test</text>
<text text-anchor="middle" x="302.88" y="-69.75" font-family="Helvetica,sans-Serif" font-size="10.00">_backend_commands</text>
</a>
</g>
</g>
<!-- Node6&#45;&gt;Node14 -->
<g id="edge17_Node000006_Node000014" class="edge">
<title>Node6&#45;&gt;Node14</title>
<g id="a_edge17_Node000006_Node000014"><a xlink:title=" ">
<path fill="none" stroke="#63b8ff" d="M459.18,-210.73C442.49,-182.29 412.1,-136.57 375,-108.25 368.22,-103.07 360.38,-98.67 352.44,-94.98"/>
<polygon fill="#63b8ff" stroke="#63b8ff" points="456.14,-212.46 464.14,-219.4 462.21,-208.98 456.14,-212.46"/>
</a>
</g>
</g>
<!-- Node16 -->
<g id="Node000016" class="node">
<title>Node16</title>
<g id="a_Node000016"><a xlink:href="namespacefabomatic_1_1tests.xhtml#af8fa7ace86309b5f699540d8898660c7" target="_top" xlink:title=" ">
<polygon fill="white" stroke="#666666" points="355.88,-332.5 249.88,-332.5 249.88,-302 355.88,-302 355.88,-332.5"/>
<text text-anchor="start" x="257.88" y="-319" font-family="Helvetica,sans-Serif" font-size="10.00">fabomatic::tests::test</text>
<text text-anchor="middle" x="302.88" y="-307.75" font-family="Helvetica,sans-Serif" font-size="10.00">_messages_buffered</text>
</a>
</g>
</g>
<!-- Node6&#45;&gt;Node16 -->
<g id="edge21_Node000006_Node000016" class="edge">
<title>Node6&#45;&gt;Node16</title>
<g id="a_edge21_Node000006_Node000016"><a xlink:title=" ">
<path fill="none" stroke="#63b8ff" d="M435.71,-257.21C417.59,-267.07 395.39,-278.72 375,-288.25 365.21,-292.82 354.5,-297.41 344.43,-301.53"/>
<polygon fill="#63b8ff" stroke="#63b8ff" points="437.17,-260.4 444.26,-252.52 433.81,-254.26 437.17,-260.4"/>
</a>
</g>
</g>
<!-- Node7&#45;&gt;Node8 -->
<g id="edge7_Node000007_Node000008" class="edge">
<title>Node7&#45;&gt;Node8</title>
<g id="a_edge7_Node000007_Node000008"><a xlink:title=" ">
<path fill="none" stroke="#63b8ff" d="M219.35,-230.77C208.84,-230.07 198.32,-229.37 188.47,-228.71"/>
<polygon fill="#63b8ff" stroke="#63b8ff" points="219.01,-234.25 229.22,-231.42 219.47,-227.27 219.01,-234.25"/>
</a>
</g>
</g>
<!-- Node7&#45;&gt;Node10 -->
<g id="edge9_Node000007_Node000010" class="edge">
<title>Node7&#45;&gt;Node10</title>
<g id="a_edge9_Node000007_Node000010"><a xlink:title=" ">
<path fill="none" stroke="#63b8ff" d="M263.61,-222.38C238.55,-213.29 205.76,-201.41 179.74,-191.97"/>
<polygon fill="#63b8ff" stroke="#63b8ff" points="262.16,-225.57 272.75,-225.69 264.54,-218.99 262.16,-225.57"/>
</a>
</g>
</g>
<!-- Node7&#45;&gt;Node11 -->
<g id="edge11_Node000007_Node000011" class="edge">
<title>Node7&#45;&gt;Node11</title>
<g id="a_edge11_Node000007_Node000011"><a xlink:title=" ">
<path fill="none" stroke="#63b8ff" d="M282.54,-218.54C261.91,-200.28 227.72,-171.78 194.75,-152.25 189.15,-148.93 183.04,-145.82 176.94,-142.99"/>
<polygon fill="#63b8ff" stroke="#63b8ff" points="280.1,-221.06 289.88,-225.13 284.78,-215.85 280.1,-221.06"/>
</a>
</g>
</g>
<!-- Node7&#45;&gt;Node12 -->
<g id="edge13_Node000007_Node000012" class="edge">
<title>Node7&#45;&gt;Node12</title>
<g id="a_edge13_Node000007_Node000012"><a xlink:title=" ">
<path fill="none" stroke="#63b8ff" d="M246.91,-248.87C228.17,-253.17 207.28,-257.97 188.75,-262.23"/>
<polygon fill="#63b8ff" stroke="#63b8ff" points="247.52,-252.32 256.48,-246.67 245.95,-245.5 247.52,-252.32"/>
</a>
</g>
</g>
<!-- Node7&#45;&gt;Node13 -->
<g id="edge15_Node000007_Node000013" class="edge">
<title>Node7&#45;&gt;Node13</title>
<g id="a_edge15_Node000007_Node000013"><a xlink:title=" ">
<path fill="none" stroke="#63b8ff" d="M279.57,-252.96C247.47,-277.02 188.67,-321.06 157.34,-344.54"/>
<polygon fill="#63b8ff" stroke="#63b8ff" points="281.5,-255.89 287.4,-247.1 277.3,-250.29 281.5,-255.89"/>
</a>
</g>
</g>
<!-- Node9 -->
<g id="Node000009" class="node">
<title>Node9</title>
<g id="a_Node000009"><a xlink:href="test__logic_8cpp.xhtml#a4fc01d736fe50cf5b977f755b675f11d" target="_top" xlink:title=" ">
<polygon fill="white" stroke="#666666" points="40,-258.88 0,-258.88 0,-239.62 40,-239.62 40,-258.88"/>
<text text-anchor="middle" x="20" y="-245.38" font-family="Helvetica,sans-Serif" font-size="10.00">setup</text>
</a>
</g>
</g>
<!-- Node8&#45;&gt;Node9 -->
<g id="edge8_Node000008_Node000009" class="edge">
<title>Node8&#45;&gt;Node9</title>
<g id="a_edge8_Node000008_Node000009"><a xlink:title=" ">
<path fill="none" stroke="#63b8ff" d="M70.85,-238.7C59.76,-241.05 49.01,-243.32 40.36,-245.15"/>
<polygon fill="#63b8ff" stroke="#63b8ff" points="71.46,-242.15 80.52,-236.65 70.01,-235.3 71.46,-242.15"/>
</a>
</g>
</g>
<!-- Node10&#45;&gt;Node9 -->
<g id="edge10_Node000010_Node000009" class="edge">
<title>Node10&#45;&gt;Node9</title>
<g id="a_edge10_Node000010_Node000009"><a xlink:title=" ">
<path fill="none" stroke="#63b8ff" d="M83.1,-197.09C80.66,-198.43 78.28,-199.81 76,-201.25 58.4,-212.31 40.78,-228.9 30.39,-239.39"/>
<polygon fill="#63b8ff" stroke="#63b8ff" points="84.67,-200.21 92,-192.56 81.5,-193.98 84.67,-200.21"/>
</a>
</g>
</g>
<!-- Node11&#45;&gt;Node9 -->
<g id="edge12_Node000011_Node000009" class="edge">
<title>Node11&#45;&gt;Node9</title>
<g id="a_edge12_Node000011_Node000009"><a xlink:title=" ">
<path fill="none" stroke="#63b8ff" d="M79.85,-149.07C78.52,-150.09 77.23,-151.15 76,-152.25 48.01,-177.29 30.86,-220.08 24.19,-239.34"/>
<polygon fill="#63b8ff" stroke="#63b8ff" points="81.48,-152.19 87.93,-143.78 77.65,-146.33 81.48,-152.19"/>
</a>
</g>
</g>
<!-- Node12&#45;&gt;Node9 -->
<g id="edge14_Node000012_Node000009" class="edge">
<title>Node12&#45;&gt;Node9</title>
<g id="a_edge14_Node000012_Node000009"><a xlink:title=" ">
<path fill="none" stroke="#63b8ff" d="M70.85,-260.24C59.76,-257.8 49.01,-255.43 40.36,-253.52"/>
<polygon fill="#63b8ff" stroke="#63b8ff" points="70,-263.64 80.52,-262.38 71.51,-256.8 70,-263.64"/>
</a>
</g>
</g>
<!-- Node13&#45;&gt;Node9 -->
<g id="edge16_Node000013_Node000009" class="edge">
<title>Node13&#45;&gt;Node9</title>
<g id="a_edge16_Node000013_Node000009"><a xlink:title=" ">
<path fill="none" stroke="#63b8ff" d="M85.96,-338.79C82.44,-336.46 79.07,-333.95 76,-331.25 51.91,-310.1 33.67,-276.1 25.58,-259.3"/>
<polygon fill="#63b8ff" stroke="#63b8ff" points="83.85,-341.6 94.23,-343.74 87.44,-335.6 83.85,-341.6"/>
</a>
</g>
</g>
<!-- Node15 -->
<g id="Node000015" class="node">
<title>Node15</title>
<g id="a_Node000015"><a xlink:href="test__mqtt_8cpp.xhtml#a4fc01d736fe50cf5b977f755b675f11d" target="_top" xlink:title=" ">
<polygon fill="white" stroke="#666666" points="155.38,-45.88 115.38,-45.88 115.38,-26.62 155.38,-26.62 155.38,-45.88"/>
<text text-anchor="middle" x="135.38" y="-32.38" font-family="Helvetica,sans-Serif" font-size="10.00">setup</text>
</a>
</g>
</g>
<!-- Node14&#45;&gt;Node15 -->
<g id="edge18_Node000014_Node000015" class="edge">
<title>Node14&#45;&gt;Node15</title>
<g id="a_edge18_Node000014_Node000015"><a xlink:title=" ">
<path fill="none" stroke="#63b8ff" d="M235.89,-62.11C207.08,-54.62 175.44,-46.4 155.74,-41.28"/>
<polygon fill="#63b8ff" stroke="#63b8ff" points="234.74,-65.42 245.3,-64.55 236.5,-58.65 234.74,-65.42"/>
</a>
</g>
</g>
<!-- Node16&#45;&gt;Node9 -->
<g id="edge22_Node000016_Node000009" class="edge">
<title>Node16&#45;&gt;Node9</title>
<g id="a_edge22_Node000016_Node000009"><a xlink:title=" ">
<path fill="none" stroke="#63b8ff" d="M237.91,-322.43C191.2,-323.74 127.33,-320.31 76,-298.25 56.03,-289.67 38.33,-270.88 28.69,-259.22"/>
<polygon fill="#63b8ff" stroke="#63b8ff" points="238.02,-325.93 247.88,-322.06 237.76,-318.93 238.02,-325.93"/>
</a>
</g>
</g>
<!-- Node20 -->
<g id="Node000020" class="node">
<title>Node20</title>
<g id="a_Node000020"><a xlink:href="main_8cpp.xhtml#a4fc01d736fe50cf5b977f755b675f11d" target="_top" xlink:title=" ">
<polygon fill="white" stroke="#666666" points="649.62,-493.88 609.62,-493.88 609.62,-474.62 649.62,-474.62 649.62,-493.88"/>
<text text-anchor="middle" x="629.62" y="-480.38" font-family="Helvetica,sans-Serif" font-size="10.00">setup</text>
</a>
</g>
</g>
<!-- Node19&#45;&gt;Node20 -->
<g id="edge30_Node000019_Node000020" class="edge">
<title>Node19&#45;&gt;Node20</title>
<g id="a_edge30_Node000019_Node000020"><a xlink:title=" ">
<path fill="none" stroke="#63b8ff" d="M710.61,-484.25C688.3,-484.25 665.36,-484.25 649.8,-484.25"/>
<polygon fill="#63b8ff" stroke="#63b8ff" points="710.31,-487.75 720.31,-484.25 710.31,-480.75 710.31,-487.75"/>
</a>
</g>
</g>
<!-- Node23 -->
<g id="Node000023" class="node">
<title>Node23</title>
<g id="a_Node000023"><a xlink:href="classfabomatic_1_1_board_logic.xhtml#a51390e6bf10c4de427abd7f175a2e6a8" target="_top" xlink:title="Checks if the card UID is valid, and tries to check the user in to the machine.">
<polygon fill="white" stroke="#666666" points="988.75,-413.5 876,-413.5 876,-383 988.75,-383 988.75,-413.5"/>
<text text-anchor="start" x="884" y="-400" font-family="Helvetica,sans-Serif" font-size="10.00">fabomatic::BoardLogic</text>
<text text-anchor="middle" x="932.38" y="-388.75" font-family="Helvetica,sans-Serif" font-size="10.00">::authorize</text>
</a>
</g>
</g>
<!-- Node22&#45;&gt;Node23 -->
<g id="edge33_Node000022_Node000023" class="edge">
<title>Node22&#45;&gt;Node23</title>
<g id="a_edge33_Node000022_Node000023"><a xlink:title=" ">
<path fill="none" stroke="#63b8ff" d="M1053.9,-306.73C1024.28,-329.22 979.51,-363.22 953.69,-382.83"/>
<polygon fill="#63b8ff" stroke="#63b8ff" points="1055.89,-309.61 1061.74,-300.78 1051.65,-304.04 1055.89,-309.61"/>
</a>
</g>
</g>
<!-- Node24 -->
<g id="Node000024" class="node">
<title>Node24</title>
<g id="a_Node000024"><a xlink:href="namespacefabomatic_1_1tests.xhtml#a24369d35ba4a370e236b987ff7cb5637" target="_top" xlink:title=" ">
<polygon fill="white" stroke="#666666" points="682.62,-30.5 576.62,-30.5 576.62,0 682.62,0 682.62,-30.5"/>
<text text-anchor="start" x="584.62" y="-17" font-family="Helvetica,sans-Serif" font-size="10.00">fabomatic::tests::test</text>
<text text-anchor="middle" x="629.62" y="-5.75" font-family="Helvetica,sans-Serif" font-size="10.00">_degraded_use</text>
</a>
</g>
</g>
<!-- Node22&#45;&gt;Node24 -->
<g id="edge36_Node000022_Node000024" class="edge">
<title>Node22&#45;&gt;Node24</title>
<g id="a_edge36_Node000022_Node000024"><a xlink:title=" ">
<path fill="none" stroke="#63b8ff" d="M1061.86,-260.42C1043.63,-241.24 1016.18,-214.42 988.75,-195.25 881.8,-120.51 739.4,-58.69 670.85,-30.96"/>
<polygon fill="#63b8ff" stroke="#63b8ff" points="1059.14,-262.63 1068.53,-267.54 1064.25,-257.85 1059.14,-262.63"/>
</a>
</g>
</g>
<!-- Node25 -->
<g id="Node000025" class="node">
<title>Node25</title>
<g id="a_Node000025"><a xlink:href="namespacefabomatic_1_1tests.xhtml#a438b9060c27d36e89506199205b342cb" target="_top" xlink:title=" ">
<polygon fill="white" stroke="#666666" points="682.62,-111.5 576.62,-111.5 576.62,-81 682.62,-81 682.62,-111.5"/>
<text text-anchor="start" x="584.62" y="-98" font-family="Helvetica,sans-Serif" font-size="10.00">fabomatic::tests::test</text>
<text text-anchor="middle" x="629.62" y="-86.75" font-family="Helvetica,sans-Serif" font-size="10.00">_fabserver_calls</text>
</a>
</g>
</g>
<!-- Node22&#45;&gt;Node25 -->
<g id="edge38_Node000022_Node000025" class="edge">
<title>Node22&#45;&gt;Node25</title>
<g id="a_edge38_Node000022_Node000025"><a xlink:title=" ">
<path fill="none" stroke="#63b8ff" d="M1035.12,-264.17C944.35,-226.49 750.27,-145.92 668.35,-111.91"/>
<polygon fill="#63b8ff" stroke="#63b8ff" points="1033.69,-267.36 1044.27,-267.96 1036.38,-260.9 1033.69,-267.36"/>
</a>
</g>
</g>
<!-- Node26 -->
<g id="Node000026" class="node">
<title>Node26</title>
<g id="a_Node000026"><a xlink:href="namespacefabomatic_1_1tests.xhtml#aeb3e51f6d2841cd2869df4c0629f694d" target="_top" xlink:title=" ">
<polygon fill="white" stroke="#666666" points="985.38,-299.5 879.38,-299.5 879.38,-269 985.38,-269 985.38,-299.5"/>
<text text-anchor="start" x="887.38" y="-286" font-family="Helvetica,sans-Serif" font-size="10.00">fabomatic::tests::test</text>
<text text-anchor="middle" x="932.38" y="-274.75" font-family="Helvetica,sans-Serif" font-size="10.00">_rfid_cache</text>
</a>
</g>
</g>
<!-- Node22&#45;&gt;Node26 -->
<g id="edge40_Node000022_Node000026" class="edge">
<title>Node22&#45;&gt;Node26</title>
<g id="a_edge40_Node000022_Node000026"><a xlink:title=" ">
<path fill="none" stroke="#63b8ff" d="M1013.36,-284.25C1004.07,-284.25 994.68,-284.25 985.77,-284.25"/>
<polygon fill="#63b8ff" stroke="#63b8ff" points="1013.08,-287.75 1023.08,-284.25 1013.08,-280.75 1013.08,-287.75"/>
</a>
</g>
</g>
<!-- Node23&#45;&gt;Node4 -->
<g id="edge34_Node000023_Node000004" class="edge">
<title>Node23&#45;&gt;Node4</title>
<g id="a_edge34_Node000023_Node000004"><a xlink:title=" ">
<path fill="none" stroke="#63b8ff" d="M866.04,-417.06C856.2,-419.89 846.14,-422.79 836.56,-425.54"/>
<polygon fill="#63b8ff" stroke="#63b8ff" points="866.93,-420.44 875.57,-414.31 864.99,-413.72 866.93,-420.44"/>
</a>
</g>
</g>
<!-- Node23&#45;&gt;Node13 -->
<g id="edge35_Node000023_Node000013" class="edge">
<title>Node23&#45;&gt;Node13</title>
<g id="a_edge35_Node000023_Node000013"><a xlink:title=" ">
<path fill="none" stroke="#63b8ff" d="M864.29,-398.25C803.34,-398.25 710.95,-398.25 630.62,-398.25 630.62,-398.25 630.62,-398.25 473.12,-398.25 373.69,-398.25 258.79,-381.69 192.17,-370.43"/>
<polygon fill="#63b8ff" stroke="#63b8ff" points="864.15,-401.75 874.15,-398.25 864.15,-394.75 864.15,-401.75"/>
</a>
</g>
</g>
<!-- Node24&#45;&gt;Node15 -->
<g id="edge37_Node000024_Node000015" class="edge">
<title>Node24&#45;&gt;Node15</title>
<g id="a_edge37_Node000024_Node000015"><a xlink:title=" ">
<path fill="none" stroke="#63b8ff" d="M565.22,-13.84C486.6,-12.67 348.55,-12.52 230.75,-22.25 204.67,-24.4 174.83,-29.23 155.81,-32.61"/>
<polygon fill="#63b8ff" stroke="#63b8ff" points="564.81,-17.33 574.87,-13.99 564.92,-10.33 564.81,-17.33"/>
</a>
</g>
</g>
<!-- Node25&#45;&gt;Node15 -->
<g id="edge39_Node000025_Node000015" class="edge">
<title>Node25&#45;&gt;Node15</title>
<g id="a_edge39_Node000025_Node000015"><a xlink:title=" ">
<path fill="none" stroke="#63b8ff" d="M565.13,-84.52C513.95,-75.43 440.05,-63.08 375,-55.25 293.72,-45.46 196.22,-39.49 155.6,-37.25"/>
<polygon fill="#63b8ff" stroke="#63b8ff" points="564.39,-87.95 574.85,-86.26 565.62,-81.06 564.39,-87.95"/>
</a>
</g>
</g>
<!-- Node27 -->
<g id="Node000027" class="node">
<title>Node27</title>
<g id="a_Node000027"><a xlink:href="test__savedconfig_8cpp.xhtml#a4fc01d736fe50cf5b977f755b675f11d" target="_top" xlink:title=" ">
<polygon fill="white" stroke="#666666" points="801,-293.88 761,-293.88 761,-274.62 801,-274.62 801,-293.88"/>
<text text-anchor="middle" x="781" y="-280.38" font-family="Helvetica,sans-Serif" font-size="10.00">setup</text>
</a>
</g>
</g>
<!-- Node26&#45;&gt;Node27 -->
<g id="edge41_Node000026_Node000027" class="edge">
<title>Node26&#45;&gt;Node27</title>
<g id="a_edge41_Node000026_Node000027"><a xlink:title=" ">
<path fill="none" stroke="#63b8ff" d="M867.89,-284.25C843.89,-284.25 818.31,-284.25 801.38,-284.25"/>
<polygon fill="#63b8ff" stroke="#63b8ff" points="867.62,-287.75 877.62,-284.25 867.62,-280.75 867.62,-287.75"/>
</a>
</g>
</g>
</g>
</svg>
