<?xml version="1.0" encoding="UTF-8" standalone="no"?>
<!DOCTYPE svg PUBLIC "-//W3C//DTD SVG 1.1//EN"
 "http://www.w3.org/Graphics/SVG/1.1/DTD/svg11.dtd">
<!-- Generated by graphviz version 9.0.0 (20230911.1827)
 -->
<!-- Title: fabomatic::pins_config::lcd_config Pages: 1 -->
<svg width="114pt" height="173pt"
 viewBox="0.00 0.00 114.00 173.00" xmlns="http://www.w3.org/2000/svg" xmlns:xlink="http://www.w3.org/1999/xlink">
<g id="graph0" class="graph" transform="scale(1 1) rotate(0) translate(4 169)">
<title>fabomatic::pins_config::lcd_config</title>
<!-- Node1 -->
<g id="Node000001" class="node">
<title>Node1</title>
<g id="a_Node000001"><a xlink:title="LCD parallel interface pins definition.">
<polygon fill="#999999" stroke="none" points="106,-165 0,-165 0,0 106,0 106,-165"/>
<text text-anchor="start" x="5" y="-151.5" font-family="Helvetica,sans-Serif" font-size="10.00">fabomatic::pins_config</text>
<text text-anchor="start" x="29" y="-140.25" font-family="Helvetica,sans-Serif" font-size="10.00">::lcd_config</text>
<text text-anchor="start" x="14.5" y="-125.5" font-family="Helvetica,sans-Serif" font-size="10.00">+</text>
<text text-anchor="start" x="35" y="-125.5" font-family="Helvetica,sans-Serif" font-size="10.00">rs_pin</text>
<text text-anchor="start" x="14.5" y="-110.5" font-family="Helvetica,sans-Serif" font-size="10.00">+</text>
<text text-anchor="start" x="35" y="-110.5" font-family="Helvetica,sans-Serif" font-size="10.00">en_pin</text>
<text text-anchor="start" x="14.5" y="-95.5" font-family="Helvetica,sans-Serif" font-size="10.00">+</text>
<text text-anchor="start" x="35" y="-95.5" font-family="Helvetica,sans-Serif" font-size="10.00">d0_pin</text>
<text text-anchor="start" x="14.5" y="-80.5" font-family="Helvetica,sans-Serif" font-size="10.00">+</text>
<text text-anchor="start" x="35" y="-80.5" font-family="Helvetica,sans-Serif" font-size="10.00">d1_pin</text>
<text text-anchor="start" x="14.5" y="-65.5" font-family="Helvetica,sans-Serif" font-size="10.00">+</text>
<text text-anchor="start" x="35" y="-65.5" font-family="Helvetica,sans-Serif" font-size="10.00">d2_pin</text>
<text text-anchor="start" x="14.5" y="-50.5" font-family="Helvetica,sans-Serif" font-size="10.00">+</text>
<text text-anchor="start" x="35" y="-50.5" font-family="Helvetica,sans-Serif" font-size="10.00">d3_pin</text>
<text text-anchor="start" x="14.5" y="-35.5" font-family="Helvetica,sans-Serif" font-size="10.00">+</text>
<text text-anchor="start" x="35" y="-35.5" font-family="Helvetica,sans-Serif" font-size="10.00">bl_pin</text>
<text text-anchor="start" x="14.5" y="-20.5" font-family="Helvetica,sans-Serif" font-size="10.00">+</text>
<text text-anchor="start" x="35" y="-20.5" font-family="Helvetica,sans-Serif" font-size="10.00">active_low</text>
<text text-anchor="start" x="51.5" y="-5.5" font-family="Helvetica,sans-Serif" font-size="10.00"> </text>
<polygon fill="#666666" stroke="#666666" points="0,-137 0,-137 106,-137 106,-137 0,-137"/>
<polygon fill="#666666" stroke="#666666" points="0,-17 0,-17 33,-17 33,-17 0,-17"/>
<polygon fill="#666666" stroke="#666666" points="33,-17 33,-17 106,-17 106,-17 33,-17"/>
<polygon fill="none" stroke="#666666" points="0,0 0,-165 106,-165 106,0 0,0"/>
</a>
</g>
</g>
</g>
</svg>
