<?xml version="1.0" encoding="UTF-8" standalone="no"?>
<!DOCTYPE svg PUBLIC "-//W3C//DTD SVG 1.1//EN"
 "http://www.w3.org/Graphics/SVG/1.1/DTD/svg11.dtd">
<!-- Generated by graphviz version 9.0.0 (20230911.1827)
 -->
<!-- Title: fabomatic::MockMrfc522::UidDriver Pages: 1 -->
<svg width="124pt" height="372pt"
 viewBox="0.00 0.00 124.00 371.75" xmlns="http://www.w3.org/2000/svg" xmlns:xlink="http://www.w3.org/1999/xlink">

<svg id="main" version="1.1" xmlns="http://www.w3.org/2000/svg" xmlns:xlink="http://www.w3.org/1999/xlink" xml:space="preserve" onload="init(evt)">
<style type="text/css"><![CDATA[
.node, .edge {opacity: 0.7;}
.node.selected, .edge.selected {opacity: 1;}
.edge:hover path { stroke: red; }
.edge:hover polygon { stroke: red; fill: red; }
]]></style>
<script type="application/ecmascript" xlink:href="svg.min.js"/>
<svg id="graph" class="graph">
<g id="graph0" class="graph" transform="scale(1 1) rotate(0) translate(4 367.75)">
<title>fabomatic::MockMrfc522::UidDriver</title>
<!-- Node1 -->
<g id="Node000001" class="node">
<title>Node1</title>
<g id="a_Node000001"><a xlink:title=" ">
<polygon fill="#999999" stroke="none" points="116,-75 0,-75 0,0 116,0 116,-75"/>
<text text-anchor="start" x="4.75" y="-61.5" font-family="Helvetica,sans-Serif" font-size="10.00">fabomatic::MockMrfc522</text>
<text text-anchor="start" x="35.5" y="-50.25" font-family="Helvetica,sans-Serif" font-size="10.00">::UidDriver</text>
<text text-anchor="start" x="24" y="-35.5" font-family="Helvetica,sans-Serif" font-size="10.00">+</text>
<text text-anchor="start" x="54" y="-35.5" font-family="Helvetica,sans-Serif" font-size="10.00">size</text>
<text text-anchor="start" x="24" y="-20.5" font-family="Helvetica,sans-Serif" font-size="10.00">+</text>
<text text-anchor="start" x="54" y="-20.5" font-family="Helvetica,sans-Serif" font-size="10.00">sak</text>
<text text-anchor="start" x="56.5" y="-5.5" font-family="Helvetica,sans-Serif" font-size="10.00"> </text>
<polygon fill="#666666" stroke="#666666" points="0,-47 0,-47 116,-47 116,-47 0,-47"/>
<polygon fill="#666666" stroke="#666666" points="0,-17 0,-17 52,-17 52,-17 0,-17"/>
<polygon fill="#666666" stroke="#666666" points="52,-17 52,-17 116,-17 116,-17 52,-17"/>
<polygon fill="none" stroke="#666666" points="0,0 0,-75 116,-75 116,0 0,0"/>
</a>
</g>
</g>
<!-- Node2 -->
<g id="Node000002" class="node">
<title>Node2</title>
<g id="a_Node000002"><a xlink:title=" ">
<polygon fill="white" stroke="none" points="107.5,-171.25 8.5,-171.25 8.5,-122.25 107.5,-122.25 107.5,-171.25"/>
<text text-anchor="start" x="13.38" y="-157.75" font-family="Helvetica,sans-Serif" font-size="10.00">std::array&lt; byte, 10 &gt;</text>
<text text-anchor="start" x="23" y="-142.75" font-family="Helvetica,sans-Serif" font-size="10.00">+</text>
<text text-anchor="start" x="43.5" y="-142.75" font-family="Helvetica,sans-Serif" font-size="10.00">elements</text>
<text text-anchor="start" x="56.5" y="-127.75" font-family="Helvetica,sans-Serif" font-size="10.00"> </text>
<polygon fill="#666666" stroke="#666666" points="8.5,-154.25 8.5,-154.25 107.5,-154.25 107.5,-154.25 8.5,-154.25"/>
<polygon fill="#666666" stroke="#666666" points="8.5,-139.25 8.5,-139.25 41.5,-139.25 41.5,-139.25 8.5,-139.25"/>
<polygon fill="#666666" stroke="#666666" points="41.5,-139.25 41.5,-139.25 107.5,-139.25 107.5,-139.25 41.5,-139.25"/>
<polygon fill="none" stroke="#666666" points="8.5,-122.25 8.5,-171.25 107.5,-171.25 107.5,-122.25 8.5,-122.25"/>
</a>
</g>
</g>
<!-- Node2&#45;&gt;Node1 -->
<g id="edge1_Node000001_Node000002" class="edge">
<title>Node2&#45;&gt;Node1</title>
<g id="a_edge1_Node000001_Node000002"><a xlink:title=" ">
<path fill="none" stroke="#63b8ff" d="M58,-122.48C58,-112.25 58,-99.83 58,-87.72"/>
<polygon fill="none" stroke="#63b8ff" points="58,-87.7 54,-81.7 58,-75.7 62,-81.7 58,-87.7"/>
</a>
</g>
<text text-anchor="middle" x="78.25" y="-94.75" font-family="Helvetica,sans-Serif" font-size="10.00" fill="grey"> +uidByte</text>
</g>
<!-- Node3 -->
<g id="Node000003" class="node">
<title>Node3</title>
<g id="a_Node000003"><a xlink:title=" ">
<polygon fill="white" stroke="none" points="93.5,-267.5 22.5,-267.5 22.5,-218.5 93.5,-218.5 93.5,-267.5"/>
<text text-anchor="start" x="27.25" y="-254" font-family="Helvetica,sans-Serif" font-size="10.00">std::array&lt; T &gt;</text>
<text text-anchor="start" x="56.5" y="-239" font-family="Helvetica,sans-Serif" font-size="10.00"> </text>
<text text-anchor="start" x="56.5" y="-224" font-family="Helvetica,sans-Serif" font-size="10.00"> </text>
<polygon fill="#666666" stroke="#666666" points="22.5,-250.5 22.5,-250.5 93.5,-250.5 93.5,-250.5 22.5,-250.5"/>
<polygon fill="#666666" stroke="#666666" points="22.5,-235.5 22.5,-235.5 93.5,-235.5 93.5,-235.5 22.5,-235.5"/>
<polygon fill="none" stroke="#666666" points="22.5,-218.5 22.5,-267.5 93.5,-267.5 93.5,-218.5 22.5,-218.5"/>
</a>
</g>
</g>
<!-- Node3&#45;&gt;Node2 -->
<g id="edge2_Node000002_Node000003" class="edge">
<title>Node3&#45;&gt;Node2</title>
<g id="a_edge2_Node000002_Node000003"><a xlink:title=" ">
<path fill="none" stroke="orange" d="M58,-207.19C58,-195.16 58,-181.99 58,-171.11"/>
<polygon fill="orange" stroke="orange" points="54.5,-207.19 58,-217.19 61.5,-207.19 54.5,-207.19"/>
</a>
</g>
<text text-anchor="middle" x="84.25" y="-191" font-family="Helvetica,sans-Serif" font-size="10.00" fill="grey"> &lt; byte, 10 &gt;</text>
</g>
<!-- Node4 -->
<g id="Node000004" class="node">
<title>Node4</title>
<g id="a_Node000004"><a xlink:title=" ">
<polygon fill="white" stroke="none" points="66,-363.75 50,-363.75 50,-314.75 66,-314.75 66,-363.75"/>
<text text-anchor="start" x="55" y="-350.25" font-family="Helvetica,sans-Serif" font-size="10.00">T</text>
<text text-anchor="start" x="56.5" y="-335.25" font-family="Helvetica,sans-Serif" font-size="10.00"> </text>
<text text-anchor="start" x="56.5" y="-320.25" font-family="Helvetica,sans-Serif" font-size="10.00"> </text>
<polygon fill="#666666" stroke="#666666" points="50,-346.75 50,-346.75 66,-346.75 66,-346.75 50,-346.75"/>
<polygon fill="#666666" stroke="#666666" points="50,-331.75 50,-331.75 66,-331.75 66,-331.75 50,-331.75"/>
<polygon fill="none" stroke="#666666" points="50,-314.75 50,-363.75 66,-363.75 66,-314.75 50,-314.75"/>
</a>
</g>
</g>
<!-- Node4&#45;&gt;Node3 -->
<g id="edge3_Node000003_Node000004" class="edge">
<title>Node4&#45;&gt;Node3</title>
<g id="a_edge3_Node000003_Node000004"><a xlink:title=" ">
<path fill="none" stroke="#63b8ff" d="M58,-314.95C58,-304.53 58,-292 58,-280.39"/>
<polygon fill="none" stroke="#63b8ff" points="58,-280.26 54,-274.26 58,-268.26 62,-274.26 58,-280.26"/>
</a>
</g>
<text text-anchor="middle" x="82" y="-287.25" font-family="Helvetica,sans-Serif" font-size="10.00" fill="grey"> +elements</text>
</g>
</g>
</svg>
</svg>

<style type='text/css'>
<![CDATA[
[data-mouse-over-selected='false'] { opacity: 0.7; }
[data-mouse-over-selected='true']  { opacity: 1.0; }
]]>
</style>
<script type="application/ecmascript"><![CDATA[
document.addEventListener('DOMContentLoaded', (event) => {
  highlightEdges();
  highlightAdjacentNodes();
});
]]></script>
</svg>
