<?xml version="1.0" encoding="UTF-8" standalone="no"?>
<!DOCTYPE svg PUBLIC "-//W3C//DTD SVG 1.1//EN"
 "http://www.w3.org/Graphics/SVG/1.1/DTD/svg11.dtd">
<!-- Generated by graphviz version 9.0.0 (20230911.1827)
 -->
<!-- Title: fabomatic::CachedCards Pages: 1 -->
<svg width="302pt" height="439pt"
 viewBox="0.00 0.00 302.00 439.00" xmlns="http://www.w3.org/2000/svg" xmlns:xlink="http://www.w3.org/1999/xlink">

<svg id="main" version="1.1" xmlns="http://www.w3.org/2000/svg" xmlns:xlink="http://www.w3.org/1999/xlink" xml:space="preserve" onload="init(evt)">
<style type="text/css"><![CDATA[
.node, .edge {opacity: 0.7;}
.node.selected, .edge.selected {opacity: 1;}
.edge:hover path { stroke: red; }
.edge:hover polygon { stroke: red; fill: red; }
]]></style>
<script type="application/ecmascript" xlink:href="svg.min.js"/>
<svg id="graph" class="graph">
<g id="graph0" class="graph" transform="scale(1 1) rotate(0) translate(4 435)">
<title>fabomatic::CachedCards</title>
<!-- Node1 -->
<g id="Node000001" class="node">
<title>Node1</title>
<g id="a_Node000001"><a xlink:title=" ">
<polygon fill="#999999" stroke="none" points="162,-109 47,-109 47,0 162,0 162,-109"/>
<text text-anchor="start" x="51.62" y="-95.5" font-family="Helvetica,sans-Serif" font-size="10.00">fabomatic::CachedCards</text>
<text text-anchor="start" x="103" y="-80.5" font-family="Helvetica,sans-Serif" font-size="10.00"> </text>
<text text-anchor="start" x="59" y="-65.5" font-family="Helvetica,sans-Serif" font-size="10.00">+</text>
<text text-anchor="start" x="77" y="-65.5" font-family="Helvetica,sans-Serif" font-size="10.00">CachedCards()</text>
<text text-anchor="start" x="59" y="-50.5" font-family="Helvetica,sans-Serif" font-size="10.00">+</text>
<text text-anchor="start" x="77" y="-50.5" font-family="Helvetica,sans-Serif" font-size="10.00">operator[]()</text>
<text text-anchor="start" x="59" y="-35.5" font-family="Helvetica,sans-Serif" font-size="10.00">+</text>
<text text-anchor="start" x="77" y="-35.5" font-family="Helvetica,sans-Serif" font-size="10.00">find_uid()</text>
<text text-anchor="start" x="59" y="-20.5" font-family="Helvetica,sans-Serif" font-size="10.00">+</text>
<text text-anchor="start" x="77" y="-20.5" font-family="Helvetica,sans-Serif" font-size="10.00">set_at()</text>
<text text-anchor="start" x="59" y="-5.5" font-family="Helvetica,sans-Serif" font-size="10.00">+</text>
<text text-anchor="start" x="77" y="-5.5" font-family="Helvetica,sans-Serif" font-size="10.00">size()</text>
<polygon fill="#666666" stroke="#666666" points="47,-92 47,-92 162,-92 162,-92 47,-92"/>
<polygon fill="#666666" stroke="#666666" points="47,-77 47,-77 162,-77 162,-77 47,-77"/>
<polygon fill="none" stroke="#666666" points="47,0 47,-109 162,-109 162,0 47,0"/>
</a>
</g>
</g>
<!-- Node2 -->
<g id="Node000002" class="node">
<title>Node2</title>
<g id="a_Node000002"><a xlink:title=" ">
<polygon fill="white" stroke="none" points="93,-227.25 0,-227.25 0,-156.25 93,-156.25 93,-227.25"/>
<text text-anchor="start" x="4.88" y="-213.75" font-family="Helvetica,sans-Serif" font-size="10.00">std::array&lt; card::uid</text>
<text text-anchor="start" x="4.88" y="-202.5" font-family="Helvetica,sans-Serif" font-size="10.00">_t, conf::rfid_tags::</text>
<text text-anchor="start" x="13.12" y="-191.25" font-family="Helvetica,sans-Serif" font-size="10.00">CACHE_LEN &gt;</text>
<text text-anchor="start" x="13" y="-176.75" font-family="Helvetica,sans-Serif" font-size="10.00">+</text>
<text text-anchor="start" x="32" y="-176.75" font-family="Helvetica,sans-Serif" font-size="10.00">elements</text>
<text text-anchor="start" x="45" y="-161.75" font-family="Helvetica,sans-Serif" font-size="10.00"> </text>
<polygon fill="#666666" stroke="#666666" points="0,-188.25 0,-188.25 93,-188.25 93,-188.25 0,-188.25"/>
<polygon fill="#666666" stroke="#666666" points="0,-173.25 0,-173.25 30,-173.25 30,-173.25 0,-173.25"/>
<polygon fill="#666666" stroke="#666666" points="30,-173.25 30,-173.25 93,-173.25 93,-173.25 30,-173.25"/>
<polygon fill="none" stroke="#666666" points="0,-156.25 0,-227.25 93,-227.25 93,-156.25 0,-156.25"/>
</a>
</g>
</g>
<!-- Node2&#45;&gt;Node1 -->
<g id="edge1_Node000001_Node000002" class="edge">
<title>Node2&#45;&gt;Node1</title>
<g id="a_edge1_Node000001_Node000002"><a xlink:title=" ">
<path fill="none" stroke="#63b8ff" d="M61.29,-156.27C65.97,-145.36 71.3,-132.91 76.59,-120.58"/>
<polygon fill="none" stroke="#63b8ff" points="76.54,-120.71 75.22,-113.62 81.27,-109.68 82.58,-116.77 76.54,-120.71"/>
</a>
</g>
<text text-anchor="middle" x="90.62" y="-128.75" font-family="Helvetica,sans-Serif" font-size="10.00" fill="grey"> +cards</text>
</g>
<!-- Node3 -->
<g id="Node000003" class="node">
<title>Node3</title>
<g id="a_Node000003"><a xlink:title=" ">
<polygon fill="white" stroke="none" points="141,-334.75 70,-334.75 70,-285.75 141,-285.75 141,-334.75"/>
<text text-anchor="start" x="74.75" y="-321.25" font-family="Helvetica,sans-Serif" font-size="10.00">std::array&lt; T &gt;</text>
<text text-anchor="start" x="104" y="-306.25" font-family="Helvetica,sans-Serif" font-size="10.00"> </text>
<text text-anchor="start" x="104" y="-291.25" font-family="Helvetica,sans-Serif" font-size="10.00"> </text>
<polygon fill="#666666" stroke="#666666" points="70,-317.75 70,-317.75 141,-317.75 141,-317.75 70,-317.75"/>
<polygon fill="#666666" stroke="#666666" points="70,-302.75 70,-302.75 141,-302.75 141,-302.75 70,-302.75"/>
<polygon fill="none" stroke="#666666" points="70,-285.75 70,-334.75 141,-334.75 141,-285.75 70,-285.75"/>
</a>
</g>
</g>
<!-- Node3&#45;&gt;Node2 -->
<g id="edge2_Node000002_Node000003" class="edge">
<title>Node3&#45;&gt;Node2</title>
<g id="a_edge2_Node000002_Node000003"><a xlink:title=" ">
<path fill="none" stroke="orange" d="M60.67,-290.05C51.99,-284.2 44.04,-276.84 39,-267.75 32.21,-255.51 32.4,-240.39 34.93,-226.95"/>
<polygon fill="orange" stroke="orange" points="58.6,-292.89 68.97,-295.04 62.21,-286.89 58.6,-292.89"/>
</a>
</g>
<text text-anchor="start" x="39.5" y="-258.25" font-family="Helvetica,sans-Serif" font-size="10.00" fill="grey"> &lt; card::uid_t, conf</text>
<text text-anchor="middle" x="95.75" y="-247" font-family="Helvetica,sans-Serif" font-size="10.00" fill="grey">::rfid_tags::CACHE_LEN &gt;</text>
</g>
<!-- Node5 -->
<g id="Node000005" class="node">
<title>Node5</title>
<g id="a_Node000005"><a xlink:title=" ">
<polygon fill="white" stroke="none" points="221,-227.25 116,-227.25 116,-156.25 221,-156.25 221,-227.25"/>
<text text-anchor="start" x="120.88" y="-213.75" font-family="Helvetica,sans-Serif" font-size="10.00">std::array&lt; FabUser</text>
<text text-anchor="start" x="120.88" y="-202.5" font-family="Helvetica,sans-Serif" font-size="10.00">::UserLevel, conf::rfid</text>
<text text-anchor="start" x="120.88" y="-191.25" font-family="Helvetica,sans-Serif" font-size="10.00">_tags::CACHE_LEN &gt;</text>
<text text-anchor="start" x="132" y="-176.75" font-family="Helvetica,sans-Serif" font-size="10.00">+</text>
<text text-anchor="start" x="154" y="-176.75" font-family="Helvetica,sans-Serif" font-size="10.00">elements</text>
<text text-anchor="start" x="167" y="-161.75" font-family="Helvetica,sans-Serif" font-size="10.00"> </text>
<polygon fill="#666666" stroke="#666666" points="116,-188.25 116,-188.25 221,-188.25 221,-188.25 116,-188.25"/>
<polygon fill="#666666" stroke="#666666" points="116,-173.25 116,-173.25 152,-173.25 152,-173.25 116,-173.25"/>
<polygon fill="#666666" stroke="#666666" points="152,-173.25 152,-173.25 221,-173.25 221,-173.25 152,-173.25"/>
<polygon fill="none" stroke="#666666" points="116,-156.25 116,-227.25 221,-227.25 221,-156.25 116,-156.25"/>
</a>
</g>
</g>
<!-- Node3&#45;&gt;Node5 -->
<g id="edge5_Node000005_Node000003" class="edge">
<title>Node3&#45;&gt;Node5</title>
<g id="a_edge5_Node000005_Node000003"><a xlink:title=" ">
<path fill="none" stroke="orange" d="M144.21,-277.96C146.94,-274.72 149.42,-271.3 151.5,-267.75 158.65,-255.54 162.8,-240.58 165.2,-227.25"/>
<polygon fill="orange" stroke="orange" points="141.89,-275.32 137.6,-285 147,-280.11 141.89,-275.32"/>
</a>
</g>
<text text-anchor="start" x="160.5" y="-258.25" font-family="Helvetica,sans-Serif" font-size="10.00" fill="grey"> &lt; FabUser::UserLevel,</text>
<text text-anchor="middle" x="227.25" y="-247" font-family="Helvetica,sans-Serif" font-size="10.00" fill="grey"> conf::rfid_tags::CACHE_LEN &gt;</text>
</g>
<!-- Node4 -->
<g id="Node000004" class="node">
<title>Node4</title>
<g id="a_Node000004"><a xlink:title=" ">
<polygon fill="white" stroke="none" points="113.5,-431 97.5,-431 97.5,-382 113.5,-382 113.5,-431"/>
<text text-anchor="start" x="102.5" y="-417.5" font-family="Helvetica,sans-Serif" font-size="10.00">T</text>
<text text-anchor="start" x="104" y="-402.5" font-family="Helvetica,sans-Serif" font-size="10.00"> </text>
<text text-anchor="start" x="104" y="-387.5" font-family="Helvetica,sans-Serif" font-size="10.00"> </text>
<polygon fill="#666666" stroke="#666666" points="97.5,-414 97.5,-414 113.5,-414 113.5,-414 97.5,-414"/>
<polygon fill="#666666" stroke="#666666" points="97.5,-399 97.5,-399 113.5,-399 113.5,-399 97.5,-399"/>
<polygon fill="none" stroke="#666666" points="97.5,-382 97.5,-431 113.5,-431 113.5,-382 97.5,-382"/>
</a>
</g>
</g>
<!-- Node4&#45;&gt;Node3 -->
<g id="edge3_Node000003_Node000004" class="edge">
<title>Node4&#45;&gt;Node3</title>
<g id="a_edge3_Node000003_Node000004"><a xlink:title=" ">
<path fill="none" stroke="#63b8ff" d="M105.5,-382.2C105.5,-371.78 105.5,-359.25 105.5,-347.64"/>
<polygon fill="none" stroke="#63b8ff" points="105.5,-347.51 101.5,-341.51 105.5,-335.51 109.5,-341.51 105.5,-347.51"/>
</a>
</g>
<text text-anchor="middle" x="129.5" y="-354.5" font-family="Helvetica,sans-Serif" font-size="10.00" fill="grey"> +elements</text>
</g>
<!-- Node5&#45;&gt;Node1 -->
<g id="edge4_Node000001_Node000005" class="edge">
<title>Node5&#45;&gt;Node1</title>
<g id="a_edge4_Node000001_Node000005"><a xlink:title=" ">
<path fill="none" stroke="#63b8ff" d="M152.18,-156.27C147.02,-145.36 141.13,-132.91 135.3,-120.58"/>
<polygon fill="none" stroke="#63b8ff" points="135.26,-120.51 129.08,-116.8 130.13,-109.67 136.31,-113.38 135.26,-120.51"/>
</a>
</g>
<text text-anchor="middle" x="159.38" y="-128.75" font-family="Helvetica,sans-Serif" font-size="10.00" fill="grey"> +levels</text>
</g>
</g>
</svg>
</svg>

<style type='text/css'>
<![CDATA[
[data-mouse-over-selected='false'] { opacity: 0.7; }
[data-mouse-over-selected='true']  { opacity: 1.0; }
]]>
</style>
<script type="application/ecmascript"><![CDATA[
document.addEventListener('DOMContentLoaded', (event) => {
  highlightEdges();
  highlightAdjacentNodes();
});
]]></script>
</svg>
