<?xml version="1.0" encoding="UTF-8" standalone="no"?>
<!DOCTYPE svg PUBLIC "-//W3C//DTD SVG 1.1//EN"
 "http://www.w3.org/Graphics/SVG/1.1/DTD/svg11.dtd">
<!-- Generated by graphviz version 9.0.0 (20230911.1827)
 -->
<!-- Title: fabomatic::FabUser::toString Pages: 1 -->
<svg width="1289pt" height="429pt"
 viewBox="0.00 0.00 1289.00 428.50" xmlns="http://www.w3.org/2000/svg" xmlns:xlink="http://www.w3.org/1999/xlink">
<g id="graph0" class="graph" transform="scale(1 1) rotate(0) translate(4 424.5)">
<title>fabomatic::FabUser::toString</title>
<!-- Node1 -->
<g id="Node000001" class="node">
<title>Node1</title>
<g id="a_Node000001"><a xlink:title=" ">
<polygon fill="#999999" stroke="#666666" points="1281,-127.5 1180.25,-127.5 1180.25,-97 1281,-97 1281,-127.5"/>
<text text-anchor="start" x="1188.25" y="-114" font-family="Helvetica,sans-Serif" font-size="10.00">fabomatic::FabUser</text>
<text text-anchor="middle" x="1230.62" y="-102.75" font-family="Helvetica,sans-Serif" font-size="10.00">::toString</text>
</a>
</g>
</g>
<!-- Node2 -->
<g id="Node000002" class="node">
<title>Node2</title>
<g id="a_Node000002"><a xlink:href="classfabomatic_1_1_machine.xhtml#a39fbf9cad912d735cf84b75c0674646f" target="_top" xlink:title=" ">
<polygon fill="white" stroke="#666666" points="1134.5,-164.5 1034.5,-164.5 1034.5,-134 1134.5,-134 1134.5,-164.5"/>
<text text-anchor="start" x="1042.5" y="-151" font-family="Helvetica,sans-Serif" font-size="10.00">fabomatic::Machine</text>
<text text-anchor="middle" x="1084.5" y="-139.75" font-family="Helvetica,sans-Serif" font-size="10.00">::toString</text>
</a>
</g>
</g>
<!-- Node1&#45;&gt;Node2 -->
<g id="edge1_Node000001_Node000002" class="edge">
<title>Node1&#45;&gt;Node2</title>
<g id="a_edge1_Node000001_Node000002"><a xlink:title=" ">
<path fill="none" stroke="#63b8ff" d="M1169.17,-127.77C1157.68,-130.72 1145.79,-133.77 1134.7,-136.62"/>
<polygon fill="#63b8ff" stroke="#63b8ff" points="1169.74,-131.24 1178.56,-125.36 1168,-124.46 1169.74,-131.24"/>
</a>
</g>
</g>
<!-- Node20 -->
<g id="Node000020" class="node">
<title>Node20</title>
<g id="a_Node000020"><a xlink:href="classfabomatic_1_1_auth_provider.xhtml#aeae9923535dcf6cfa9eaf9e5f90e5e64" target="_top" xlink:title="Verifies the card ID against the server (if available) or the whitelist.">
<polygon fill="white" stroke="#666666" points="1144.25,-103.5 1024.75,-103.5 1024.75,-73 1144.25,-73 1144.25,-103.5"/>
<text text-anchor="start" x="1032.75" y="-90" font-family="Helvetica,sans-Serif" font-size="10.00">fabomatic::AuthProvider</text>
<text text-anchor="middle" x="1084.5" y="-78.75" font-family="Helvetica,sans-Serif" font-size="10.00">::tryLogin</text>
</a>
</g>
</g>
<!-- Node1&#45;&gt;Node20 -->
<g id="edge30_Node000001_Node000020" class="edge">
<title>Node1&#45;&gt;Node20</title>
<g id="a_edge30_Node000001_Node000020"><a xlink:title=" ">
<path fill="none" stroke="#63b8ff" d="M1168.86,-102.13C1160.84,-100.8 1152.63,-99.43 1144.63,-98.1"/>
<polygon fill="#63b8ff" stroke="#63b8ff" points="1168.09,-105.55 1178.53,-103.74 1169.24,-98.65 1168.09,-105.55"/>
</a>
</g>
</g>
<!-- Node3 -->
<g id="Node000003" class="node">
<title>Node3</title>
<g id="a_Node000003"><a xlink:href="classfabomatic_1_1_board_logic.xhtml#aa0d3d3aa742eba1ffd00b97868ce7edc" target="_top" xlink:title="connects and polls the server for up&#45;to&#45;date machine information">
<polygon fill="white" stroke="#666666" points="988.75,-187.5 876,-187.5 876,-157 988.75,-157 988.75,-187.5"/>
<text text-anchor="start" x="884" y="-174" font-family="Helvetica,sans-Serif" font-size="10.00">fabomatic::BoardLogic</text>
<text text-anchor="middle" x="932.38" y="-162.75" font-family="Helvetica,sans-Serif" font-size="10.00">::refreshFromServer</text>
</a>
</g>
</g>
<!-- Node2&#45;&gt;Node3 -->
<g id="edge2_Node000002_Node000003" class="edge">
<title>Node2&#45;&gt;Node3</title>
<g id="a_edge2_Node000002_Node000003"><a xlink:title=" ">
<path fill="none" stroke="#63b8ff" d="M1023.27,-158.48C1012,-160.2 1000.27,-162 989.15,-163.71"/>
<polygon fill="#63b8ff" stroke="#63b8ff" points="1023.49,-161.98 1032.85,-157.01 1022.43,-155.07 1023.49,-161.98"/>
</a>
</g>
</g>
<!-- Node4 -->
<g id="Node000004" class="node">
<title>Node4</title>
<g id="a_Node000004"><a xlink:href="classfabomatic_1_1_board_logic.xhtml#a983c8de8b9c8881fc0a4e60dddc7f0c6" target="_top" xlink:title="Called when a RFID tag has been detected.">
<polygon fill="white" stroke="#666666" points="837.38,-165.5 724.62,-165.5 724.62,-135 837.38,-135 837.38,-165.5"/>
<text text-anchor="start" x="732.62" y="-152" font-family="Helvetica,sans-Serif" font-size="10.00">fabomatic::BoardLogic</text>
<text text-anchor="middle" x="781" y="-140.75" font-family="Helvetica,sans-Serif" font-size="10.00">::onNewCard</text>
</a>
</g>
</g>
<!-- Node3&#45;&gt;Node4 -->
<g id="edge3_Node000003_Node000004" class="edge">
<title>Node3&#45;&gt;Node4</title>
<g id="a_edge3_Node000003_Node000004"><a xlink:title=" ">
<path fill="none" stroke="#63b8ff" d="M864.51,-162.4C855.54,-161.08 846.42,-159.74 837.67,-158.45"/>
<polygon fill="#63b8ff" stroke="#63b8ff" points="863.85,-165.84 874.26,-163.84 864.87,-158.92 863.85,-165.84"/>
</a>
</g>
</g>
<!-- Node17 -->
<g id="Node000017" class="node">
<title>Node17</title>
<g id="a_Node000017"><a xlink:href="namespacefabomatic.xhtml#ae7de89faffd3bb8805727b8a1092a198" target="_top" xlink:title="Opens WiFi and server connection and updates board state accordingly.">
<polygon fill="white" stroke="#666666" points="840,-256.88 722,-256.88 722,-237.62 840,-237.62 840,-256.88"/>
<text text-anchor="middle" x="781" y="-243.38" font-family="Helvetica,sans-Serif" font-size="10.00">fabomatic::taskConnect</text>
</a>
</g>
</g>
<!-- Node3&#45;&gt;Node17 -->
<g id="edge27_Node000003_Node000017" class="edge">
<title>Node3&#45;&gt;Node17</title>
<g id="a_edge27_Node000003_Node000017"><a xlink:title=" ">
<path fill="none" stroke="#63b8ff" d="M895.55,-193.52C878.9,-203.07 858.69,-214.21 840,-223.25 829.8,-228.19 818.31,-233.07 808.27,-237.14"/>
<polygon fill="#63b8ff" stroke="#63b8ff" points="897.21,-196.61 904.11,-188.57 893.7,-190.55 897.21,-196.61"/>
</a>
</g>
</g>
<!-- Node19 -->
<g id="Node000019" class="node">
<title>Node19</title>
<g id="a_Node000019"><a xlink:href="namespacefabomatic_1_1tests.xhtml#a88a4242d48bfa4a0337df522d303c367" target="_top" xlink:title="Opens WiFi and server connection and updates board state accordingly.">
<polygon fill="white" stroke="#666666" points="834,-214.5 728,-214.5 728,-184 834,-184 834,-214.5"/>
<text text-anchor="start" x="736" y="-201" font-family="Helvetica,sans-Serif" font-size="10.00">fabomatic::tests::test</text>
<text text-anchor="middle" x="781" y="-189.75" font-family="Helvetica,sans-Serif" font-size="10.00">_taskConnect</text>
</a>
</g>
</g>
<!-- Node3&#45;&gt;Node19 -->
<g id="edge29_Node000003_Node000019" class="edge">
<title>Node3&#45;&gt;Node19</title>
<g id="a_edge29_Node000003_Node000019"><a xlink:title=" ">
<path fill="none" stroke="#63b8ff" d="M864.43,-184.35C854.3,-186.18 843.97,-188.05 834.2,-189.81"/>
<polygon fill="#63b8ff" stroke="#63b8ff" points="865.05,-187.8 874.26,-182.57 863.8,-180.91 865.05,-187.8"/>
</a>
</g>
</g>
<!-- Node5 -->
<g id="Node000005" class="node">
<title>Node5</title>
<g id="a_Node000005"><a xlink:href="classfabomatic_1_1_board_logic.xhtml#a25bdc3a49d850aa49f92faf951b68efb" target="_top" xlink:title="Checks if a new card is present.">
<polygon fill="white" stroke="#666666" points="686,-222.5 573.25,-222.5 573.25,-192 686,-192 686,-222.5"/>
<text text-anchor="start" x="581.25" y="-209" font-family="Helvetica,sans-Serif" font-size="10.00">fabomatic::BoardLogic</text>
<text text-anchor="middle" x="629.62" y="-197.75" font-family="Helvetica,sans-Serif" font-size="10.00">::checkRfid</text>
</a>
</g>
</g>
<!-- Node4&#45;&gt;Node5 -->
<g id="edge4_Node000004_Node000005" class="edge">
<title>Node4&#45;&gt;Node5</title>
<g id="a_edge4_Node000004_Node000005"><a xlink:title=" ">
<path fill="none" stroke="#63b8ff" d="M728.18,-170.02C709.7,-177.07 689.16,-184.91 671.7,-191.57"/>
<polygon fill="#63b8ff" stroke="#63b8ff" points="729.28,-173.35 737.37,-166.52 726.78,-166.81 729.28,-173.35"/>
</a>
</g>
</g>
<!-- Node6 -->
<g id="Node000006" class="node">
<title>Node6</title>
<g id="a_Node000006"><a xlink:href="namespacefabomatic_1_1tests.xhtml#a2600320f41c9fa343c66058ecb12b5ee" target="_top" xlink:title="Simulates RFID card tap.">
<polygon fill="white" stroke="#666666" points="537.25,-244.5 411,-244.5 411,-214 537.25,-214 537.25,-244.5"/>
<text text-anchor="start" x="419" y="-231" font-family="Helvetica,sans-Serif" font-size="10.00">fabomatic::tests::simulate</text>
<text text-anchor="middle" x="474.12" y="-219.75" font-family="Helvetica,sans-Serif" font-size="10.00">_rfid_card</text>
</a>
</g>
</g>
<!-- Node5&#45;&gt;Node6 -->
<g id="edge5_Node000005_Node000006" class="edge">
<title>Node5&#45;&gt;Node6</title>
<g id="a_edge5_Node000005_Node000006"><a xlink:title=" ">
<path fill="none" stroke="#63b8ff" d="M561.65,-216.85C553.69,-217.99 545.58,-219.15 537.69,-220.28"/>
<polygon fill="#63b8ff" stroke="#63b8ff" points="561.87,-220.35 571.28,-215.47 560.88,-213.42 561.87,-220.35"/>
</a>
</g>
</g>
<!-- Node13 -->
<g id="Node000013" class="node">
<title>Node13</title>
<g id="a_Node000013"><a xlink:href="namespacefabomatic_1_1tests.xhtml#aab0f4e1439b281ffef8be51db9a81f9d" target="_top" xlink:title=" ">
<polygon fill="white" stroke="#666666" points="191.75,-181.5 79,-181.5 79,-151 191.75,-151 191.75,-181.5"/>
<text text-anchor="start" x="87" y="-168" font-family="Helvetica,sans-Serif" font-size="10.00">fabomatic::tests::test</text>
<text text-anchor="middle" x="135.38" y="-156.75" font-family="Helvetica,sans-Serif" font-size="10.00">_whitelist_no_network</text>
</a>
</g>
</g>
<!-- Node5&#45;&gt;Node13 -->
<g id="edge26_Node000005_Node000013" class="edge">
<title>Node5&#45;&gt;Node13</title>
<g id="a_edge26_Node000005_Node000013"><a xlink:title=" ">
<path fill="none" stroke="#63b8ff" d="M561.55,-199.65C510.47,-194.03 438.36,-186.49 375,-181.25 312.33,-176.07 240.26,-171.77 191.87,-169.12"/>
<polygon fill="#63b8ff" stroke="#63b8ff" points="560.94,-203.1 571.27,-200.72 561.71,-196.14 560.94,-203.1"/>
</a>
</g>
</g>
<!-- Node15 -->
<g id="Node000015" class="node">
<title>Node15</title>
<g id="a_Node000015"><a xlink:href="namespacefabomatic.xhtml#a3e5c190499522bddad3f3cc69274f16c" target="_top" xlink:title="periodic check for new RFID card">
<polygon fill="white" stroke="#666666" points="537.25,-330.88 411,-330.88 411,-311.62 537.25,-311.62 537.25,-330.88"/>
<text text-anchor="middle" x="474.12" y="-317.38" font-family="Helvetica,sans-Serif" font-size="10.00">fabomatic::taskCheckRfid</text>
</a>
</g>
</g>
<!-- Node5&#45;&gt;Node15 -->
<g id="edge24_Node000005_Node000015" class="edge">
<title>Node5&#45;&gt;Node15</title>
<g id="a_edge24_Node000005_Node000015"><a xlink:title=" ">
<path fill="none" stroke="#63b8ff" d="M575.19,-229.51C574.53,-230.08 573.88,-230.66 573.25,-231.25 547.49,-255.5 564.33,-279.48 537.25,-302.25 532.93,-305.88 527.93,-308.82 522.68,-311.19"/>
<polygon fill="#63b8ff" stroke="#63b8ff" points="577.16,-232.4 583.27,-223.74 573.1,-226.7 577.16,-232.4"/>
</a>
</g>
</g>
<!-- Node16 -->
<g id="Node000016" class="node">
<title>Node16</title>
<g id="a_Node000016"><a xlink:href="namespacefabomatic_1_1tests.xhtml#a294b4767ecf1e1d11cc31dafb2541d23" target="_top" xlink:title="periodic check for new RFID card">
<polygon fill="white" stroke="#666666" points="527.12,-293.5 421.12,-293.5 421.12,-263 527.12,-263 527.12,-293.5"/>
<text text-anchor="start" x="429.12" y="-280" font-family="Helvetica,sans-Serif" font-size="10.00">fabomatic::tests::test</text>
<text text-anchor="middle" x="474.12" y="-268.75" font-family="Helvetica,sans-Serif" font-size="10.00">_taskCheckRfid</text>
</a>
</g>
</g>
<!-- Node5&#45;&gt;Node16 -->
<g id="edge25_Node000005_Node000016" class="edge">
<title>Node5&#45;&gt;Node16</title>
<g id="a_edge25_Node000005_Node000016"><a xlink:title=" ">
<path fill="none" stroke="#63b8ff" d="M580.11,-227.81C577.78,-228.94 575.48,-230.09 573.25,-231.25 556.61,-239.89 554.01,-244.83 537.25,-253.25 530.81,-256.49 523.84,-259.62 516.99,-262.51"/>
<polygon fill="#63b8ff" stroke="#63b8ff" points="581.53,-231.01 589.1,-223.6 578.55,-224.67 581.53,-231.01"/>
</a>
</g>
</g>
<!-- Node7 -->
<g id="Node000007" class="node">
<title>Node7</title>
<g id="a_Node000007"><a xlink:href="namespacefabomatic_1_1tests.xhtml#a6a7645a865dc822746f972ea6f43224d" target="_top" xlink:title="Resets machine to initial state, clearing flags.">
<polygon fill="white" stroke="#666666" points="375,-257.88 230.75,-257.88 230.75,-238.62 375,-238.62 375,-257.88"/>
<text text-anchor="middle" x="302.88" y="-244.38" font-family="Helvetica,sans-Serif" font-size="10.00">fabomatic::tests::machine_init</text>
</a>
</g>
</g>
<!-- Node6&#45;&gt;Node7 -->
<g id="edge6_Node000006_Node000007" class="edge">
<title>Node6&#45;&gt;Node7</title>
<g id="a_edge6_Node000006_Node000007"><a xlink:title=" ">
<path fill="none" stroke="#63b8ff" d="M399.39,-237.53C391.4,-238.42 383.27,-239.34 375.3,-240.23"/>
<polygon fill="#63b8ff" stroke="#63b8ff" points="399.53,-241.03 409.08,-236.44 398.75,-234.08 399.53,-241.03"/>
</a>
</g>
</g>
<!-- Node8 -->
<g id="Node000008" class="node">
<title>Node8</title>
<g id="a_Node000008"><a xlink:href="namespacefabomatic_1_1tests.xhtml#a558e2287db01a4622581246a19dac397" target="_top" xlink:title=" ">
<polygon fill="white" stroke="#666666" points="188.38,-328.5 82.38,-328.5 82.38,-298 188.38,-298 188.38,-328.5"/>
<text text-anchor="start" x="90.38" y="-315" font-family="Helvetica,sans-Serif" font-size="10.00">fabomatic::tests::test</text>
<text text-anchor="middle" x="135.38" y="-303.75" font-family="Helvetica,sans-Serif" font-size="10.00">_machine_allowed</text>
</a>
</g>
</g>
<!-- Node6&#45;&gt;Node8 -->
<g id="edge17_Node000006_Node000008" class="edge">
<title>Node6&#45;&gt;Node8</title>
<g id="a_edge17_Node000006_Node000008"><a xlink:title=" ">
<path fill="none" stroke="#63b8ff" d="M418.57,-249.97C415.97,-251.34 413.43,-252.77 411,-254.25 392.96,-265.23 394.33,-276.76 375,-285.25 314.85,-311.67 238.39,-316.18 188.46,-315.74"/>
<polygon fill="#63b8ff" stroke="#63b8ff" points="419.98,-253.18 427.44,-245.65 416.92,-246.88 419.98,-253.18"/>
</a>
</g>
</g>
<!-- Node10 -->
<g id="Node000010" class="node">
<title>Node10</title>
<g id="a_Node000010"><a xlink:href="namespacefabomatic_1_1tests.xhtml#a9a34631c2dc01cbdbbce146895c94e12" target="_top" xlink:title=" ">
<polygon fill="white" stroke="#666666" points="194.75,-279.5 76,-279.5 76,-249 194.75,-249 194.75,-279.5"/>
<text text-anchor="start" x="84" y="-266" font-family="Helvetica,sans-Serif" font-size="10.00">fabomatic::tests::test</text>
<text text-anchor="middle" x="135.38" y="-254.75" font-family="Helvetica,sans-Serif" font-size="10.00">_machine_maintenance</text>
</a>
</g>
</g>
<!-- Node6&#45;&gt;Node10 -->
<g id="edge18_Node000006_Node000010" class="edge">
<title>Node6&#45;&gt;Node10</title>
<g id="a_edge18_Node000006_Node000010"><a xlink:title=" ">
<path fill="none" stroke="#63b8ff" d="M423.26,-249.01C400.41,-257.98 377.75,-266.74 375,-267.25 314.32,-278.59 243.44,-275.71 194.79,-271.33"/>
<polygon fill="#63b8ff" stroke="#63b8ff" points="424.27,-252.37 432.29,-245.45 421.71,-245.86 424.27,-252.37"/>
</a>
</g>
</g>
<!-- Node11 -->
<g id="Node000011" class="node">
<title>Node11</title>
<g id="a_Node000011"><a xlink:href="namespacefabomatic_1_1tests.xhtml#a6f3dff17fd964aba76c35c514957a0a5" target="_top" xlink:title=" ">
<polygon fill="white" stroke="#666666" points="189.88,-230.5 80.88,-230.5 80.88,-200 189.88,-200 189.88,-230.5"/>
<text text-anchor="start" x="88.88" y="-217" font-family="Helvetica,sans-Serif" font-size="10.00">fabomatic::tests::test</text>
<text text-anchor="middle" x="135.38" y="-205.75" font-family="Helvetica,sans-Serif" font-size="10.00">_one_user_at_a_time</text>
</a>
</g>
</g>
<!-- Node6&#45;&gt;Node11 -->
<g id="edge21_Node000006_Node000011" class="edge">
<title>Node6&#45;&gt;Node11</title>
<g id="a_edge21_Node000006_Node000011"><a xlink:title=" ">
<path fill="none" stroke="#63b8ff" d="M399.11,-226.17C336,-223.55 246.78,-219.84 190.26,-217.49"/>
<polygon fill="#63b8ff" stroke="#63b8ff" points="398.93,-229.67 409.06,-226.59 399.22,-222.67 398.93,-229.67"/>
</a>
</g>
</g>
<!-- Node12 -->
<g id="Node000012" class="node">
<title>Node12</title>
<g id="a_Node000012"><a xlink:href="namespacefabomatic_1_1tests.xhtml#afa92fef9250d918ee02c79dbf2de2546" target="_top" xlink:title=" ">
<polygon fill="white" stroke="#666666" points="188.38,-377.5 82.38,-377.5 82.38,-347 188.38,-347 188.38,-377.5"/>
<text text-anchor="start" x="90.38" y="-364" font-family="Helvetica,sans-Serif" font-size="10.00">fabomatic::tests::test</text>
<text text-anchor="middle" x="135.38" y="-352.75" font-family="Helvetica,sans-Serif" font-size="10.00">_user_autologoff</text>
</a>
</g>
</g>
<!-- Node6&#45;&gt;Node12 -->
<g id="edge22_Node000006_Node000012" class="edge">
<title>Node6&#45;&gt;Node12</title>
<g id="a_edge22_Node000006_Node000012"><a xlink:title=" ">
<path fill="none" stroke="#63b8ff" d="M415.47,-250.75C413.92,-251.87 412.43,-253.03 411,-254.25 387.34,-274.44 400.41,-296.32 375,-314.25 319.75,-353.23 240.35,-362.23 188.57,-363.51"/>
<polygon fill="#63b8ff" stroke="#63b8ff" points="416.89,-253.99 423.54,-245.74 413.2,-248.05 416.89,-253.99"/>
</a>
</g>
</g>
<!-- Node6&#45;&gt;Node13 -->
<g id="edge23_Node000006_Node000013" class="edge">
<title>Node6&#45;&gt;Node13</title>
<g id="a_edge23_Node000006_Node000013"><a xlink:title=" ">
<path fill="none" stroke="#63b8ff" d="M399.62,-215.5C337.19,-203.82 248.92,-187.31 192.16,-176.69"/>
<polygon fill="#63b8ff" stroke="#63b8ff" points="398.61,-218.87 409.09,-217.27 399.9,-211.99 398.61,-218.87"/>
</a>
</g>
</g>
<!-- Node14 -->
<g id="Node000014" class="node">
<title>Node14</title>
<g id="a_Node000014"><a xlink:href="namespacefabomatic_1_1tests.xhtml#af8fa7ace86309b5f699540d8898660c7" target="_top" xlink:title=" ">
<polygon fill="white" stroke="#666666" points="355.88,-420.5 249.88,-420.5 249.88,-390 355.88,-390 355.88,-420.5"/>
<text text-anchor="start" x="257.88" y="-407" font-family="Helvetica,sans-Serif" font-size="10.00">fabomatic::tests::test</text>
<text text-anchor="middle" x="302.88" y="-395.75" font-family="Helvetica,sans-Serif" font-size="10.00">_messages_buffered</text>
</a>
</g>
</g>
<!-- Node6&#45;&gt;Node14 -->
<g id="edge19_Node000006_Node000014" class="edge">
<title>Node6&#45;&gt;Node14</title>
<g id="a_edge19_Node000006_Node000014"><a xlink:title=" ">
<path fill="none" stroke="#63b8ff" d="M413.57,-251.63C412.68,-252.48 411.82,-253.35 411,-254.25 372.98,-296.09 412.92,-334.32 375,-376.25 369.72,-382.08 363.1,-386.77 356.03,-390.53"/>
<polygon fill="#63b8ff" stroke="#63b8ff" points="415.36,-254.67 421.15,-245.8 411.09,-249.12 415.36,-254.67"/>
</a>
</g>
</g>
<!-- Node7&#45;&gt;Node8 -->
<g id="edge7_Node000007_Node000008" class="edge">
<title>Node7&#45;&gt;Node8</title>
<g id="a_edge7_Node000007_Node000008"><a xlink:title=" ">
<path fill="none" stroke="#63b8ff" d="M265.7,-262.46C239.34,-272.81 203.63,-286.84 176.41,-297.53"/>
<polygon fill="#63b8ff" stroke="#63b8ff" points="266.94,-265.73 274.97,-258.82 264.38,-259.22 266.94,-265.73"/>
</a>
</g>
</g>
<!-- Node7&#45;&gt;Node10 -->
<g id="edge9_Node000007_Node000010" class="edge">
<title>Node7&#45;&gt;Node10</title>
<g id="a_edge9_Node000007_Node000010"><a xlink:title=" ">
<path fill="none" stroke="#63b8ff" d="M219.49,-256.21C211.23,-257.01 202.96,-257.81 195.02,-258.58"/>
<polygon fill="#63b8ff" stroke="#63b8ff" points="219.6,-259.72 229.22,-255.27 218.93,-252.75 219.6,-259.72"/>
</a>
</g>
</g>
<!-- Node7&#45;&gt;Node11 -->
<g id="edge11_Node000007_Node000011" class="edge">
<title>Node7&#45;&gt;Node11</title>
<g id="a_edge11_Node000007_Node000011"><a xlink:title=" ">
<path fill="none" stroke="#63b8ff" d="M240.21,-235.95C223.84,-232.69 206.28,-229.19 190.35,-226.01"/>
<polygon fill="#63b8ff" stroke="#63b8ff" points="239.34,-239.35 249.84,-237.87 240.71,-232.49 239.34,-239.35"/>
</a>
</g>
</g>
<!-- Node7&#45;&gt;Node12 -->
<g id="edge13_Node000007_Node000012" class="edge">
<title>Node7&#45;&gt;Node12</title>
<g id="a_edge13_Node000007_Node000012"><a xlink:title=" ">
<path fill="none" stroke="#63b8ff" d="M283.98,-265.92C263.66,-285.29 228.89,-316.37 194.75,-337.25 189.3,-340.59 183.32,-343.69 177.33,-346.51"/>
<polygon fill="#63b8ff" stroke="#63b8ff" points="286.16,-268.69 290.91,-259.22 281.29,-263.65 286.16,-268.69"/>
</a>
</g>
</g>
<!-- Node7&#45;&gt;Node13 -->
<g id="edge15_Node000007_Node000013" class="edge">
<title>Node7&#45;&gt;Node13</title>
<g id="a_edge15_Node000007_Node000013"><a xlink:title=" ">
<path fill="none" stroke="#63b8ff" d="M274.27,-232.73C252.83,-220.89 222.22,-204.41 194.75,-191.25 188.19,-188.11 181.13,-184.92 174.27,-181.93"/>
<polygon fill="#63b8ff" stroke="#63b8ff" points="272.53,-235.77 282.97,-237.57 275.93,-229.65 272.53,-235.77"/>
</a>
</g>
</g>
<!-- Node9 -->
<g id="Node000009" class="node">
<title>Node9</title>
<g id="a_Node000009"><a xlink:href="test__logic_8cpp.xhtml#a4fc01d736fe50cf5b977f755b675f11d" target="_top" xlink:title=" ">
<polygon fill="white" stroke="#666666" points="40,-297.88 0,-297.88 0,-278.62 40,-278.62 40,-297.88"/>
<text text-anchor="middle" x="20" y="-284.38" font-family="Helvetica,sans-Serif" font-size="10.00">setup</text>
</a>
</g>
</g>
<!-- Node8&#45;&gt;Node9 -->
<g id="edge8_Node000008_Node000009" class="edge">
<title>Node8&#45;&gt;Node9</title>
<g id="a_edge8_Node000008_Node000009"><a xlink:title=" ">
<path fill="none" stroke="#63b8ff" d="M70.85,-299.24C59.76,-296.8 49.01,-294.43 40.36,-292.52"/>
<polygon fill="#63b8ff" stroke="#63b8ff" points="70,-302.64 80.52,-301.38 71.51,-295.8 70,-302.64"/>
</a>
</g>
</g>
<!-- Node10&#45;&gt;Node9 -->
<g id="edge10_Node000010_Node000009" class="edge">
<title>Node10&#45;&gt;Node9</title>
<g id="a_edge10_Node000010_Node000009"><a xlink:title=" ">
<path fill="none" stroke="#63b8ff" d="M64.44,-279.05C55.69,-280.91 47.39,-282.66 40.43,-284.14"/>
<polygon fill="#63b8ff" stroke="#63b8ff" points="65.16,-282.48 74.21,-276.99 63.71,-275.63 65.16,-282.48"/>
</a>
</g>
</g>
<!-- Node11&#45;&gt;Node9 -->
<g id="edge12_Node000011_Node000009" class="edge">
<title>Node11&#45;&gt;Node9</title>
<g id="a_edge12_Node000011_Node000009"><a xlink:title=" ">
<path fill="none" stroke="#63b8ff" d="M83.1,-236.09C80.66,-237.43 78.28,-238.81 76,-240.25 58.4,-251.31 40.78,-267.9 30.39,-278.39"/>
<polygon fill="#63b8ff" stroke="#63b8ff" points="84.67,-239.21 92,-231.56 81.5,-232.98 84.67,-239.21"/>
</a>
</g>
</g>
<!-- Node12&#45;&gt;Node9 -->
<g id="edge14_Node000012_Node000009" class="edge">
<title>Node12&#45;&gt;Node9</title>
<g id="a_edge14_Node000012_Node000009"><a xlink:title=" ">
<path fill="none" stroke="#63b8ff" d="M82.96,-341.37C80.57,-340.05 78.24,-338.67 76,-337.25 58.3,-326 40.71,-309.05 30.35,-298.33"/>
<polygon fill="#63b8ff" stroke="#63b8ff" points="81.17,-344.39 91.66,-345.84 84.36,-338.16 81.17,-344.39"/>
</a>
</g>
</g>
<!-- Node13&#45;&gt;Node9 -->
<g id="edge16_Node000013_Node000009" class="edge">
<title>Node13&#45;&gt;Node9</title>
<g id="a_edge16_Node000013_Node000009"><a xlink:title=" ">
<path fill="none" stroke="#63b8ff" d="M79.85,-188.07C78.52,-189.09 77.23,-190.15 76,-191.25 48.01,-216.29 30.86,-259.08 24.19,-278.34"/>
<polygon fill="#63b8ff" stroke="#63b8ff" points="81.48,-191.19 87.93,-182.78 77.65,-185.33 81.48,-191.19"/>
</a>
</g>
</g>
<!-- Node14&#45;&gt;Node9 -->
<g id="edge20_Node000014_Node000009" class="edge">
<title>Node14&#45;&gt;Node9</title>
<g id="a_edge20_Node000014_Node000009"><a xlink:title=" ">
<path fill="none" stroke="#63b8ff" d="M238.26,-415.05C189.98,-419.11 123.95,-417.1 76,-386.25 43.68,-365.46 28.53,-318.63 23.27,-298.15"/>
<polygon fill="#63b8ff" stroke="#63b8ff" points="238.38,-418.56 248,-414.12 237.71,-411.59 238.38,-418.56"/>
</a>
</g>
</g>
<!-- Node18 -->
<g id="Node000018" class="node">
<title>Node18</title>
<g id="a_Node000018"><a xlink:href="main_8cpp.xhtml#a4fc01d736fe50cf5b977f755b675f11d" target="_top" xlink:title=" ">
<polygon fill="white" stroke="#666666" points="649.62,-259.88 609.62,-259.88 609.62,-240.62 649.62,-240.62 649.62,-259.88"/>
<text text-anchor="middle" x="629.62" y="-246.38" font-family="Helvetica,sans-Serif" font-size="10.00">setup</text>
</a>
</g>
</g>
<!-- Node17&#45;&gt;Node18 -->
<g id="edge28_Node000017_Node000018" class="edge">
<title>Node17&#45;&gt;Node18</title>
<g id="a_edge28_Node000017_Node000018"><a xlink:title=" ">
<path fill="none" stroke="#63b8ff" d="M710.61,-248.64C688.3,-249.09 665.36,-249.55 649.8,-249.86"/>
<polygon fill="#63b8ff" stroke="#63b8ff" points="710.38,-252.15 720.31,-248.45 710.24,-245.15 710.38,-252.15"/>
</a>
</g>
</g>
<!-- Node21 -->
<g id="Node000021" class="node">
<title>Node21</title>
<g id="a_Node000021"><a xlink:href="classfabomatic_1_1_board_logic.xhtml#a51390e6bf10c4de427abd7f175a2e6a8" target="_top" xlink:title="Checks if the card UID is valid, and tries to check the user in to the machine.">
<polygon fill="white" stroke="#666666" points="988.75,-128.5 876,-128.5 876,-98 988.75,-98 988.75,-128.5"/>
<text text-anchor="start" x="884" y="-115" font-family="Helvetica,sans-Serif" font-size="10.00">fabomatic::BoardLogic</text>
<text text-anchor="middle" x="932.38" y="-103.75" font-family="Helvetica,sans-Serif" font-size="10.00">::authorize</text>
</a>
</g>
</g>
<!-- Node20&#45;&gt;Node21 -->
<g id="edge31_Node000020_Node000021" class="edge">
<title>Node20&#45;&gt;Node21</title>
<g id="a_edge31_Node000020_Node000021"><a xlink:title=" ">
<path fill="none" stroke="#63b8ff" d="M1013.26,-99.95C1005.18,-101.29 997.02,-102.65 989.16,-103.96"/>
<polygon fill="#63b8ff" stroke="#63b8ff" points="1013.82,-103.4 1023.1,-98.31 1012.67,-96.5 1013.82,-103.4"/>
</a>
</g>
</g>
<!-- Node22 -->
<g id="Node000022" class="node">
<title>Node22</title>
<g id="a_Node000022"><a xlink:href="namespacefabomatic_1_1tests.xhtml#a438b9060c27d36e89506199205b342cb" target="_top" xlink:title=" ">
<polygon fill="white" stroke="#666666" points="985.38,-79.5 879.38,-79.5 879.38,-49 985.38,-49 985.38,-79.5"/>
<text text-anchor="start" x="887.38" y="-66" font-family="Helvetica,sans-Serif" font-size="10.00">fabomatic::tests::test</text>
<text text-anchor="middle" x="932.38" y="-54.75" font-family="Helvetica,sans-Serif" font-size="10.00">_fabserver_calls</text>
</a>
</g>
</g>
<!-- Node20&#45;&gt;Node22 -->
<g id="edge34_Node000020_Node000022" class="edge">
<title>Node20&#45;&gt;Node22</title>
<g id="a_edge34_Node000020_Node000022"><a xlink:title=" ">
<path fill="none" stroke="#63b8ff" d="M1013.36,-77.04C1004.07,-75.55 994.68,-74.05 985.77,-72.63"/>
<polygon fill="#63b8ff" stroke="#63b8ff" points="1012.68,-80.47 1023.1,-78.59 1013.78,-73.56 1012.68,-80.47"/>
</a>
</g>
</g>
<!-- Node24 -->
<g id="Node000024" class="node">
<title>Node24</title>
<g id="a_Node000024"><a xlink:href="namespacefabomatic_1_1tests.xhtml#aeb3e51f6d2841cd2869df4c0629f694d" target="_top" xlink:title=" ">
<polygon fill="white" stroke="#666666" points="985.38,-30.5 879.38,-30.5 879.38,0 985.38,0 985.38,-30.5"/>
<text text-anchor="start" x="887.38" y="-17" font-family="Helvetica,sans-Serif" font-size="10.00">fabomatic::tests::test</text>
<text text-anchor="middle" x="932.38" y="-5.75" font-family="Helvetica,sans-Serif" font-size="10.00">_rfid_cache</text>
</a>
</g>
</g>
<!-- Node20&#45;&gt;Node24 -->
<g id="edge36_Node000020_Node000024" class="edge">
<title>Node20&#45;&gt;Node24</title>
<g id="a_edge36_Node000020_Node000024"><a xlink:title=" ">
<path fill="none" stroke="#63b8ff" d="M1043.35,-67.41C1026.56,-58.82 1006.79,-48.89 988.75,-40.25 982.28,-37.15 975.34,-33.94 968.64,-30.88"/>
<polygon fill="#63b8ff" stroke="#63b8ff" points="1041.53,-70.41 1052.03,-71.86 1044.73,-64.18 1041.53,-70.41"/>
</a>
</g>
</g>
<!-- Node21&#45;&gt;Node4 -->
<g id="edge32_Node000021_Node000004" class="edge">
<title>Node21&#45;&gt;Node4</title>
<g id="a_edge32_Node000021_Node000004"><a xlink:title=" ">
<path fill="none" stroke="#63b8ff" d="M864.81,-129.74C855.74,-131.98 846.52,-134.27 837.67,-136.46"/>
<polygon fill="#63b8ff" stroke="#63b8ff" points="865.42,-133.19 874.28,-127.39 863.74,-126.4 865.42,-133.19"/>
</a>
</g>
</g>
<!-- Node21&#45;&gt;Node13 -->
<g id="edge33_Node000021_Node000013" class="edge">
<title>Node21&#45;&gt;Node13</title>
<g id="a_edge33_Node000021_Node000013"><a xlink:title=" ">
<path fill="none" stroke="#63b8ff" d="M864.35,-107.29C803.44,-102.39 711.08,-96.25 630.62,-96.25 630.62,-96.25 630.62,-96.25 473.12,-96.25 367.13,-96.25 246.23,-129.9 182.05,-150.54"/>
<polygon fill="#63b8ff" stroke="#63b8ff" points="863.96,-110.77 874.21,-108.1 864.53,-103.79 863.96,-110.77"/>
</a>
</g>
</g>
<!-- Node23 -->
<g id="Node000023" class="node">
<title>Node23</title>
<g id="a_Node000023"><a xlink:href="test__mqtt_8cpp.xhtml#a4fc01d736fe50cf5b977f755b675f11d" target="_top" xlink:title=" ">
<polygon fill="white" stroke="#666666" points="801,-67.88 761,-67.88 761,-48.62 801,-48.62 801,-67.88"/>
<text text-anchor="middle" x="781" y="-54.38" font-family="Helvetica,sans-Serif" font-size="10.00">setup</text>
</a>
</g>
</g>
<!-- Node22&#45;&gt;Node23 -->
<g id="edge35_Node000022_Node000023" class="edge">
<title>Node22&#45;&gt;Node23</title>
<g id="a_edge35_Node000022_Node000023"><a xlink:title=" ">
<path fill="none" stroke="#63b8ff" d="M867.89,-61.7C843.89,-60.74 818.31,-59.71 801.38,-59.03"/>
<polygon fill="#63b8ff" stroke="#63b8ff" points="867.49,-65.19 877.62,-62.09 867.77,-58.19 867.49,-65.19"/>
</a>
</g>
</g>
<!-- Node25 -->
<g id="Node000025" class="node">
<title>Node25</title>
<g id="a_Node000025"><a xlink:href="test__savedconfig_8cpp.xhtml#a4fc01d736fe50cf5b977f755b675f11d" target="_top" xlink:title=" ">
<polygon fill="white" stroke="#666666" points="801,-24.88 761,-24.88 761,-5.62 801,-5.62 801,-24.88"/>
<text text-anchor="middle" x="781" y="-11.38" font-family="Helvetica,sans-Serif" font-size="10.00">setup</text>
</a>
</g>
</g>
<!-- Node24&#45;&gt;Node25 -->
<g id="edge37_Node000024_Node000025" class="edge">
<title>Node24&#45;&gt;Node25</title>
<g id="a_edge37_Node000024_Node000025"><a xlink:title=" ">
<path fill="none" stroke="#63b8ff" d="M867.89,-15.25C843.89,-15.25 818.31,-15.25 801.38,-15.25"/>
<polygon fill="#63b8ff" stroke="#63b8ff" points="867.62,-18.75 877.62,-15.25 867.62,-11.75 867.62,-18.75"/>
</a>
</g>
</g>
</g>
</svg>
